<?xml version='1.0' encoding='utf-8'?>
<svg xmlns="http://www.w3.org/2000/svg" xmlns:inkscape="http://www.inkscape.org/namespaces/inkscape" viewBox="204 228 408 600"><style>*{vector-effect:non-scaling-stroke}</style><g id="01_Black_Frame" inkscape:groupmode="layer" inkscape:label="01_Black_Frame" stroke="#1A1A1A" fill="none" stroke-width="0.875" stroke-linecap="round" stroke-linejoin="round"><path d="M 250.0,264.0 L 566.0,264.0 Q 576.0,264.0 576.0,274.0 L 576.0,782.0 Q 576.0,792.0 566.0,792.0 L 250.0,792.0 Q 240.0,792.0 240.0,782.0 L 240.0,274.0 Q 240.0,264.0 250.0,264.0" /><path d="M 253.0,270.0 L 563.0,270.0 Q 570.0,270.0 570.0,277.0 L 570.0,779.0 Q 570.0,786.0 563.0,786.0 L 253.0,786.0 Q 246.0,786.0 246.0,779.0 L 246.0,277.0 Q 246.0,270.0 253.0,270.0" /><line x1="259.0" y1="280.0" x2="263.0" y2="280.0" /><line x1="258.1" y1="282.1" x2="260.9" y2="284.9" /><line x1="256.0" y1="283.0" x2="256.0" y2="287.0" /><line x1="253.9" y1="282.1" x2="251.1" y2="284.9" /><line x1="253.0" y1="280.0" x2="249.0" y2="280.0" /><line x1="253.9" y1="277.9" x2="251.1" y2="275.1" /><line x1="256.0" y1="277.0" x2="256.0" y2="273.0" /><line x1="258.1" y1="277.9" x2="260.9" y2="275.1" /><line x1="563.0" y1="280.0" x2="567.0" y2="280.0" /><line x1="562.1" y1="282.1" x2="564.9" y2="284.9" /><line x1="560.0" y1="283.0" x2="560.0" y2="287.0" /><line x1="557.9" y1="282.1" x2="555.1" y2="284.9" /><line x1="557.0" y1="280.0" x2="553.0" y2="280.0" /><line x1="557.9" y1="277.9" x2="555.1" y2="275.1" /><line x1="560.0" y1="277.0" x2="560.0" y2="273.0" /><line x1="562.1" y1="277.9" x2="564.9" y2="275.1" /><line x1="259.0" y1="776.0" x2="263.0" y2="776.0" /><line x1="258.1" y1="778.1" x2="260.9" y2="780.9" /><line x1="256.0" y1="779.0" x2="256.0" y2="783.0" /><line x1="253.9" y1="778.1" x2="251.1" y2="780.9" /><line x1="253.0" y1="776.0" x2="249.0" y2="776.0" /><line x1="253.9" y1="773.9" x2="251.1" y2="771.1" /><line x1="256.0" y1="773.0" x2="256.0" y2="769.0" /><line x1="258.1" y1="773.9" x2="260.9" y2="771.1" /><line x1="563.0" y1="776.0" x2="567.0" y2="776.0" /><line x1="562.1" y1="778.1" x2="564.9" y2="780.9" /><line x1="560.0" y1="779.0" x2="560.0" y2="783.0" /><line x1="557.9" y1="778.1" x2="555.1" y2="780.9" /><line x1="557.0" y1="776.0" x2="553.0" y2="776.0" /><line x1="557.9" y1="773.9" x2="555.1" y2="771.1" /><line x1="560.0" y1="773.0" x2="560.0" y2="769.0" /><line x1="562.1" y1="773.9" x2="564.9" y2="771.1" /><polyline points="393.62,282.00 398.62,290.00" /><polyline points="398.62,282.00 393.62,290.00" /><polyline points="403.88,283.20 402.12,282.00 401.12,282.00 399.38,283.60 399.38,288.40 401.12,290.00 402.12,290.00 403.88,288.80" /><polyline points="405.12,282.00 407.62,290.00 410.12,282.00" /><polyline points="413.38,282.00 413.38,290.00" /><polyline points="419.12,282.00 419.12,290.00" /><polyline points="359.41,297.00 365.91,297.00" /><polyline points="362.66,297.00 362.66,307.00" /><polyline points="366.89,297.00 366.89,307.00" /><polyline points="373.39,297.00 373.39,307.00" /><polyline points="366.89,301.80 373.39,301.80" /><polyline points="379.89,297.00 374.36,297.00 374.36,301.80 378.26,301.80" /><polyline points="374.36,301.80 374.36,307.00 379.89,307.00" /><polyline points="389.31,297.00 389.31,304.50 390.61,306.50 394.51,306.50 395.81,304.50 395.81,297.00" /><polyline points="396.79,297.00 396.79,307.00 402.31,307.00" /><polyline points="404.26,297.00 410.76,297.00" /><polyline points="407.51,297.00 407.51,307.00" /><polyline points="414.99,297.00 414.99,307.00" /><polyline points="419.21,307.00 419.21,297.00 422.46,302.50 425.71,297.00 425.71,307.00" /><polyline points="426.69,307.00 429.94,297.00 433.19,307.00" /><polyline points="427.86,303.50 432.02,303.50" /><polyline points="434.16,297.00 440.66,297.00" /><polyline points="437.41,297.00 437.41,307.00" /><polyline points="441.64,297.00 441.64,304.50 442.94,306.50 446.84,306.50 448.14,304.50 448.14,297.00" /><polyline points="449.11,307.00 449.11,297.00 452.36,302.50 455.61,297.00 455.61,307.00" /><line x1="270.0" y1="312.0" x2="546.0" y2="312.0" /><line x1="270.0" y1="732.0" x2="546.0" y2="732.0" /><polyline points="381.40,741.20 380.70,740.75 379.86,740.75 379.16,741.42 379.02,742.10 379.44,742.64 380.42,743.00 381.40,743.36 381.82,743.90 381.68,744.58 380.98,745.25 380.00,745.25 379.30,744.80" /><polyline points="382.24,740.75 385.04,740.75" /><polyline points="383.64,740.75 383.64,745.25" /><polyline points="385.46,745.25 385.46,740.75 387.28,740.75 387.98,741.42 387.98,742.19 387.28,742.77 385.46,742.77 387.98,745.25" /><polyline points="388.68,745.25 390.08,740.75 391.48,745.25" /><polyline points="389.18,743.67 390.98,743.67" /><polyline points="393.30,740.75 393.30,745.25" /><polyline points="395.12,740.75 397.92,740.75" /><polyline points="396.52,740.75 396.52,745.25" /><polyline points="404.78,745.25 404.78,740.75 406.18,743.23 407.58,740.75 407.58,745.25" /><polyline points="409.40,740.75 408.28,741.20 408.00,742.10 408.00,743.90 408.28,744.80 409.40,745.25 410.52,744.80 410.80,743.90 410.80,742.10 410.52,741.20 409.40,740.75" /><polyline points="412.62,740.75 411.50,741.20 411.22,742.10 411.22,743.90 411.50,744.80 412.62,745.25 413.74,744.80 414.02,743.90 414.02,742.10 413.74,741.20 412.62,740.75" /><polyline points="414.44,745.25 414.44,740.75 417.24,745.25 417.24,740.75" /><polyline points="424.10,745.25 424.10,740.75 425.64,740.75 426.62,741.88 426.62,744.12 425.64,745.25 424.10,745.25" /><polyline points="427.32,740.75 427.32,744.12 427.88,745.02 429.56,745.02 430.12,744.12 430.12,740.75" /><polyline points="432.92,741.20 432.22,740.75 431.38,740.75 430.68,741.42 430.54,742.10 430.96,742.64 431.94,743.00 432.92,743.36 433.34,743.90 433.20,744.58 432.50,745.25 431.52,745.25 430.82,744.80" /><polyline points="433.76,740.75 433.76,745.25" /><polyline points="436.28,740.75 433.76,743.00 436.28,745.25" /><polyline points="327.50,753.25 332.50,753.25" /><polyline points="330.00,753.25 330.00,760.75" /><polyline points="333.25,753.25 333.25,760.75" /><polyline points="338.25,753.25 338.25,760.75" /><polyline points="333.25,756.85 338.25,756.85" /><polyline points="343.25,753.25 339.00,753.25 339.00,756.85 342.00,756.85" /><polyline points="339.00,756.85 339.00,760.75 343.25,760.75" /><polyline points="354.75,753.25 350.50,753.25 350.50,756.85 353.50,756.85" /><polyline points="350.50,756.85 350.50,760.75" /><polyline points="356.25,760.75 358.75,753.25 361.25,760.75" /><polyline points="357.15,758.12 360.35,758.12" /><polyline points="362.00,760.75 362.00,753.25 365.25,753.25 366.50,754.38 366.50,755.65 365.25,756.62 362.00,756.62 366.50,760.75" /><polyline points="367.75,753.25 372.75,753.25" /><polyline points="370.25,753.25 370.25,760.75" /><polyline points="373.50,753.25 373.50,760.75" /><polyline points="378.50,753.25 378.50,760.75" /><polyline points="373.50,756.85 378.50,756.85" /><polyline points="383.50,753.25 379.25,753.25 379.25,756.85 382.25,756.85" /><polyline points="379.25,756.85 379.25,760.75 383.50,760.75" /><polyline points="389.25,754.00 388.00,753.25 386.50,753.25 385.25,754.38 385.00,755.50 385.75,756.40 387.50,757.00 389.25,757.60 390.00,758.50 389.75,759.62 388.50,760.75 386.75,760.75 385.50,760.00" /><polyline points="390.75,753.25 395.75,753.25" /><polyline points="393.25,753.25 393.25,760.75" /><polyline points="402.25,760.75 404.75,753.25 407.25,760.75" /><polyline points="403.15,758.12 406.35,758.12" /><polyline points="408.00,760.75 408.00,753.25 413.00,760.75 413.00,753.25" /><polyline points="413.75,753.25 416.25,757.00 418.75,753.25" /><polyline points="416.25,757.00 416.25,760.75" /><polyline points="422.00,753.25 420.00,754.00 419.50,755.50 419.50,758.50 420.00,760.00 422.00,760.75 424.00,760.00 424.50,758.50 424.50,755.50 424.00,754.00 422.00,753.25" /><polyline points="425.25,760.75 425.25,753.25 430.25,760.75 430.25,753.25" /><polyline points="435.25,753.25 431.00,753.25 431.00,756.85 434.00,756.85" /><polyline points="431.00,756.85 431.00,760.75 435.25,760.75" /><polyline points="442.50,753.25 442.50,760.75" /><polyline points="447.50,753.25 447.50,760.75" /><polyline points="442.50,756.85 447.50,756.85" /><polyline points="448.25,760.75 450.75,753.25 453.25,760.75" /><polyline points="449.15,758.12 452.35,758.12" /><polyline points="458.25,754.00 457.00,753.25 455.50,753.25 454.25,754.38 454.00,755.50 454.75,756.40 456.50,757.00 458.25,757.60 459.00,758.50 458.75,759.62 457.50,760.75 455.75,760.75 454.50,760.00" /><polyline points="465.50,760.75 465.50,753.25 468.75,753.25 469.75,754.15 469.75,755.35 468.75,756.25 465.50,756.25 468.75,756.25 469.75,757.15 469.75,759.85 468.75,760.75 465.50,760.75" /><polyline points="475.50,753.25 471.25,753.25 471.25,756.85 474.25,756.85" /><polyline points="471.25,756.85 471.25,760.75 475.50,760.75" /><polyline points="481.25,753.25 477.00,753.25 477.00,756.85 480.00,756.85" /><polyline points="477.00,756.85 477.00,760.75 481.25,760.75" /><polyline points="482.75,760.75 482.75,753.25 487.75,760.75 487.75,753.25" /><polyline points="339.00,773.75 341.50,766.25 344.00,773.75" /><polyline points="339.90,771.12 343.10,771.12" /><polyline points="344.75,773.75 344.75,766.25 349.75,773.75 349.75,766.25" /><polyline points="350.50,773.75 350.50,766.25 353.25,766.25 355.00,768.12 355.00,771.88 353.25,773.75 350.50,773.75" /><polyline points="366.25,767.00 365.00,766.25 363.50,766.25 362.25,767.38 362.00,768.50 362.75,769.40 364.50,770.00 366.25,770.60 367.00,771.50 366.75,772.62 365.50,773.75 363.75,773.75 362.50,773.00" /><polyline points="367.75,766.25 372.75,766.25" /><polyline points="370.25,766.25 370.25,773.75" /><polyline points="376.00,766.25 376.00,773.75" /><polyline points="379.25,766.25 379.25,773.75 383.50,773.75" /><polyline points="385.00,766.25 385.00,773.75 389.25,773.75" /><polyline points="396.50,773.75 396.50,766.25 401.50,773.75 401.50,766.25" /><polyline points="404.75,766.25 402.75,767.00 402.25,768.50 402.25,771.50 402.75,773.00 404.75,773.75 406.75,773.00 407.25,771.50 407.25,768.50 406.75,767.00 404.75,766.25" /><polyline points="408.00,766.25 413.00,766.25" /><polyline points="410.50,766.25 410.50,773.75" /><polyline points="423.75,766.25 419.50,766.25 419.50,769.85 422.50,769.85" /><polyline points="419.50,769.85 419.50,773.75" /><polyline points="425.25,773.75 427.75,766.25 430.25,773.75" /><polyline points="426.15,771.12 429.35,771.12" /><polyline points="431.00,773.75 431.00,766.25 434.25,766.25 435.50,767.38 435.50,768.65 434.25,769.62 431.00,769.62 435.50,773.75" /><polyline points="446.75,766.25 442.50,766.25 442.50,769.85 445.50,769.85" /><polyline points="442.50,769.85 442.50,773.75 446.75,773.75" /><polyline points="448.25,773.75 448.25,766.25 453.25,773.75 453.25,766.25" /><polyline points="456.50,766.25 454.50,767.00 454.00,768.50 454.00,771.50 454.50,773.00 456.50,773.75 458.50,773.00 459.00,771.50 459.00,768.50 458.50,767.00 456.50,766.25" /><polyline points="459.75,766.25 459.75,771.88 460.75,773.38 463.75,773.38 464.75,771.88 464.75,766.25" /><polyline points="470.00,767.38 468.25,766.25 467.25,766.25 465.50,767.75 465.50,772.25 467.25,773.75 468.25,773.75 470.00,772.62 470.00,770.00 468.00,770.00" /><polyline points="471.25,766.25 471.25,773.75" /><polyline points="476.25,766.25 476.25,773.75" /><polyline points="471.25,769.85 476.25,769.85" /><polyline points="385.68,779.50 385.68,784.50" /><polyline points="387.76,779.50 389.36,784.50 390.96,779.50" /><polyline points="393.04,784.00 393.04,784.25" /><polyline points="395.12,779.50 396.72,784.50 398.32,779.50" /><polyline points="400.40,779.50 400.40,784.50" /><polyline points="404.08,779.50 404.08,784.50" /><polyline points="407.76,784.00 407.76,784.25" /><polyline points="409.84,784.50 409.84,779.50 411.44,782.25 413.04,779.50 413.04,784.50" /><polyline points="413.52,784.50 413.52,779.50 415.12,782.25 416.72,779.50 416.72,784.50" /><polyline points="417.20,779.50 420.40,784.50" /><polyline points="420.40,779.50 417.20,784.50" /><polyline points="420.88,779.50 424.08,784.50" /><polyline points="424.08,779.50 420.88,784.50" /><polyline points="424.56,779.50 426.16,784.50 427.76,779.50" /><polyline points="429.84,779.50 429.84,784.50" /></g><g id="02_Teal_Orbits" inkscape:groupmode="layer" inkscape:label="02_Teal_Orbits" stroke="#2A6B6B" fill="none" stroke-width="0.75" stroke-linecap="round" stroke-linejoin="round"><polyline points="412.9,544.6 412.8,544.8 412.8,544.9 412.7,545.1 412.6,545.3 412.5,545.5 412.5,545.7 412.4,545.8 412.3,546.0 412.2,546.2 412.0,546.3 411.9,546.5 411.8,546.6 411.7,546.8 411.5,546.9 411.4,547.1 411.2,547.2 411.1,547.3 410.9,547.4 410.8,547.6 410.6,547.7 410.4,547.8 410.3,547.9 410.1,547.9 409.9,548.0 409.7,548.1 409.5,548.2 409.4,548.2 409.2,548.3 409.0,548.3 408.8,548.3 408.6,548.4 408.4,548.4 408.2,548.4 408.0,548.4 407.8,548.4 407.6,548.4 407.4,548.4 407.2,548.3 407.0,548.3 406.8,548.3 406.6,548.2 406.5,548.2 406.3,548.1 406.1,548.0 405.9,547.9 405.7,547.9 405.6,547.8 405.4,547.7 405.2,547.6 405.1,547.4 404.9,547.3 404.8,547.2 404.6,547.1 404.5,546.9 404.3,546.8 404.2,546.6 404.1,546.5 404.0,546.3 403.8,546.2 403.7,546.0 403.6,545.8 403.5,545.7 403.5,545.5 403.4,545.3 403.3,545.1 403.2,544.9 403.2,544.8 403.1,544.6 403.1,544.4 403.1,544.2 403.0,544.0 403.0,543.8 403.0,543.6 403.0,543.4 403.0,543.2 403.0,543.0 403.0,542.8 403.1,542.6 403.1,542.4 403.1,542.2 403.2,542.0 403.2,541.9 403.3,541.7 403.4,541.5 403.5,541.3 403.5,541.1 403.6,541.0 403.7,540.8 403.8,540.6 404.0,540.5 404.1,540.3 404.2,540.2 404.3,540.0 404.5,539.9 404.6,539.7 404.8,539.6 404.9,539.5 405.1,539.4 405.2,539.2 405.4,539.1 405.6,539.0 405.7,538.9 405.9,538.9 406.1,538.8 406.3,538.7 406.5,538.6 406.6,538.6 406.8,538.5 407.0,538.5 407.2,538.5 407.4,538.4 407.6,538.4 407.8,538.4 408.0,538.4 408.2,538.4 408.4,538.4 408.6,538.4 408.8,538.5 409.0,538.5 409.2,538.5 409.4,538.6 409.5,538.6 409.7,538.7 409.9,538.8 410.1,538.9 410.3,538.9 410.4,539.0 410.6,539.1 410.8,539.2 410.9,539.4 411.1,539.5 411.2,539.6 411.4,539.7 411.5,539.9 411.7,540.0 411.8,540.2 411.9,540.3 412.0,540.5 412.2,540.6 412.3,540.8 412.4,541.0 412.5,541.1 412.5,541.3 412.6,541.5 412.7,541.7 412.8,541.9 412.8,542.0 412.9,542.2" /><polyline points="422.6,550.9 422.3,551.4 422.0,552.0 421.7,552.5 421.3,553.1 420.9,553.6 420.5,554.1 420.1,554.6 419.6,555.0 419.2,555.5 418.7,555.9 418.2,556.3 417.7,556.7 417.1,557.1 416.6,557.4 416.0,557.7 415.5,558.0 414.9,558.3 414.3,558.6 413.7,558.8 413.1,559.0 412.5,559.2 411.8,559.4 411.2,559.5 410.6,559.6 409.9,559.7 409.3,559.8 408.6,559.8 408.0,559.8 407.4,559.8 406.7,559.8 406.1,559.7 405.4,559.6 404.8,559.5 404.2,559.4 403.5,559.2 402.9,559.0 402.3,558.8 401.7,558.6 401.1,558.3 400.5,558.0 400.0,557.7 399.4,557.4 398.9,557.1 398.3,556.7 397.8,556.3 397.3,555.9 396.8,555.5 396.4,555.0 395.9,554.6 395.5,554.1 395.1,553.6 394.7,553.1 394.3,552.5 394.0,552.0 393.7,551.4 393.4,550.9 393.1,550.3 392.8,549.7 392.6,549.1 392.4,548.5 392.2,547.9 392.0,547.2 391.9,546.6 391.8,546.0 391.7,545.3 391.6,544.7 391.6,544.0 391.6,543.4 391.6,542.8 391.6,542.1 391.7,541.5 391.8,540.8 391.9,540.2 392.0,539.6 392.2,538.9 392.4,538.3 392.6,537.7 392.8,537.1 393.1,536.5 393.4,535.9 393.7,535.4 394.0,534.8 394.3,534.3 394.7,533.7 395.1,533.2 395.5,532.7 395.9,532.2 396.4,531.8 396.8,531.3 397.3,530.9 397.8,530.5 398.3,530.1 398.9,529.7 399.4,529.4 400.0,529.1 400.5,528.8 401.1,528.5 401.7,528.2 402.3,528.0 402.9,527.8 403.5,527.6 404.2,527.4 404.8,527.3 405.4,527.2 406.1,527.1 406.7,527.0 407.4,527.0 408.0,527.0 408.6,527.0 409.3,527.0 409.9,527.1 410.6,527.2 411.2,527.3 411.8,527.4 412.5,527.6 413.1,527.8 413.7,528.0 414.3,528.2 414.9,528.5 415.5,528.8 416.0,529.1 416.6,529.4 417.1,529.7 417.7,530.1 418.2,530.5 418.7,530.9 419.2,531.3 419.6,531.8 420.1,532.2 420.5,532.7 420.9,533.2 421.3,533.7 421.7,534.3 422.0,534.8 422.3,535.4 422.6,535.9 422.9,536.5 423.2,537.1 423.4,537.7 423.6,538.3 423.8,538.9 424.0,539.6 424.1,540.2 424.2,540.8 424.3,541.5 424.4,542.1 424.4,542.8 424.4,543.4" /><polyline points="432.2,543.4 432.2,544.4 432.2,545.3 432.1,546.2 431.9,547.2 431.8,548.1 431.6,549.1" /><polyline points="426.4,559.1 425.8,559.9 425.1,560.5 424.5,561.2 423.7,561.8 423.0,562.4 422.2,563.0 421.5,563.6 420.7,564.1 419.8,564.5 419.0,565.0 418.1,565.4 417.3,565.8 416.4,566.1 415.5,566.5 414.6,566.7 413.7,567.0 412.7,567.2 411.8,567.3 410.8,567.5 409.9,567.6 409.0,567.6 408.0,567.6 407.0,567.6 406.1,567.6 405.2,567.5 404.2,567.3 403.3,567.2 402.3,567.0 401.4,566.7 400.5,566.5 399.6,566.1 398.7,565.8 397.9,565.4 397.0,565.0 396.2,564.5 395.3,564.1 394.5,563.6 393.8,563.0 393.0,562.4 392.3,561.8 391.5,561.2 390.9,560.5 390.2,559.9 389.6,559.1 389.0,558.4 388.4,557.6 387.8,556.9 387.3,556.1 386.9,555.2 386.4,554.4 386.0,553.5 385.6,552.7 385.3,551.8 384.9,550.9 384.7,550.0 384.4,549.1 384.2,548.1 384.1,547.2 383.9,546.2 383.8,545.3 383.8,544.4 383.8,543.4 383.8,542.4 383.8,541.5 383.9,540.6 384.1,539.6 384.2,538.7 384.4,537.7 384.7,536.8 384.9,535.9 385.3,535.0 385.6,534.1 386.0,533.3 386.4,532.4 386.9,531.6 387.3,530.7 387.8,529.9 388.4,529.2 389.0,528.4 389.6,527.7 390.2,526.9 390.9,526.3 391.5,525.6 392.3,525.0 393.0,524.4 393.8,523.8 394.5,523.2 395.3,522.7 396.2,522.3 397.0,521.8 397.9,521.4 398.7,521.0 399.6,520.7 400.5,520.3 401.4,520.1 402.3,519.8 403.3,519.6 404.2,519.5 405.2,519.3 406.1,519.2 407.0,519.2 408.0,519.2 409.0,519.2 409.9,519.2 410.8,519.3 411.8,519.5 412.7,519.6 413.7,519.8 414.6,520.1 415.5,520.3 416.4,520.7 417.3,521.0 418.1,521.4 419.0,521.8 419.8,522.3 420.7,522.7 421.5,523.2 422.2,523.8 423.0,524.4 423.7,525.0 424.5,525.6 425.1,526.3 425.8,526.9 426.4,527.7 427.0,528.4 427.6,529.2 428.2,529.9 428.7,530.7 429.1,531.6 429.6,532.4 430.0,533.3 430.4,534.1 430.7,535.0 431.1,535.9 431.3,536.8 431.6,537.7 431.8,538.7 431.9,539.6 432.1,540.6 432.2,541.5 432.2,542.4 432.2,543.4" /><polyline points="439.1,543.4 439.0,544.6 439.0,545.8 438.9,547.1 438.7,548.3 438.5,549.5 438.2,550.7 437.9,551.8 437.6,553.0 437.2,554.2 436.7,555.3 436.2,556.4 435.7,557.5" /><polyline points="426.3,568.5 425.3,569.2 424.2,569.9 423.2,570.5 422.1,571.1 421.0,571.6 419.9,572.1 418.8,572.6 417.6,573.0 416.4,573.3 415.3,573.6 414.1,573.9 412.9,574.1 411.7,574.3 410.4,574.4 409.2,574.4 408.0,574.5 406.8,574.4 405.6,574.4 404.3,574.3 403.1,574.1 401.9,573.9 400.7,573.6 399.6,573.3 398.4,573.0 397.2,572.6 396.1,572.1 395.0,571.6 393.9,571.1 392.8,570.5 391.8,569.9 390.7,569.2 389.7,568.5 388.8,567.8 387.8,567.0 386.9,566.2 386.0,565.4 385.2,564.5 384.4,563.6 383.6,562.6 382.9,561.7 382.2,560.7 381.5,559.6 380.9,558.6 380.3,557.5 379.8,556.4 379.3,555.3 378.8,554.2 378.4,553.0 378.1,551.8 377.8,550.7 377.5,549.5 377.3,548.3 377.1,547.1 377.0,545.8 377.0,544.6 376.9,543.4 377.0,542.2 377.0,541.0 377.1,539.7 377.3,538.5 377.5,537.3 377.8,536.1 378.1,535.0 378.4,533.8 378.8,532.6 379.3,531.5 379.8,530.4 380.3,529.3 380.9,528.2 381.5,527.2 382.2,526.1 382.9,525.1 383.6,524.2 384.4,523.2 385.2,522.3 386.0,521.4 386.9,520.6 387.8,519.8 388.8,519.0 389.7,518.3 390.7,517.6 391.8,516.9 392.8,516.3 393.9,515.7 395.0,515.2 396.1,514.7 397.2,514.2 398.4,513.8 399.6,513.5 400.7,513.2 401.9,512.9 403.1,512.7 404.3,512.5 405.6,512.4 406.8,512.4 408.0,512.3 409.2,512.4 410.4,512.4 411.7,512.5 412.9,512.7 414.1,512.9 415.3,513.2 416.4,513.5 417.6,513.8 418.8,514.2 419.9,514.7 421.0,515.2 422.1,515.7 423.2,516.3 424.2,516.9 425.3,517.6 426.3,518.3 427.2,519.0 428.2,519.8 429.1,520.6 430.0,521.4 430.8,522.3 431.6,523.2 432.4,524.2 433.1,525.1 433.8,526.1 434.5,527.2 435.1,528.2 435.7,529.3 436.2,530.4 436.7,531.5 437.2,532.6 437.6,533.8 437.9,535.0 438.2,536.1 438.5,537.3 438.7,538.5 438.9,539.7 439.0,541.0 439.0,542.2 439.1,543.4" /><polyline points="445.4,543.4 445.3,544.9 445.2,546.3 445.1,547.8 444.9,549.2 444.6,550.7 444.3,552.1 444.0,553.5 443.5,554.9 443.0,556.3 442.5,557.7 441.9,559.0 441.3,560.4 440.6,561.7 439.8,562.9 439.1,564.2 438.2,565.4 437.3,566.5 436.4,567.7" /><polyline points="420.9,578.4 419.5,578.9 418.1,579.4 416.7,579.7 415.3,580.0 413.8,580.3 412.4,580.5 410.9,580.6 409.5,580.7 408.0,580.8 406.5,580.7 405.1,580.6 403.6,580.5 402.2,580.3 400.7,580.0 399.3,579.7 397.9,579.4 396.5,578.9 395.1,578.4 393.7,577.9 392.4,577.3 391.0,576.7 389.7,576.0 388.5,575.2 387.2,574.5 386.0,573.6 384.9,572.7 383.7,571.8 382.6,570.8 381.6,569.8 380.6,568.8 379.6,567.7 378.7,566.5 377.8,565.4 376.9,564.2 376.2,562.9 375.4,561.7 374.7,560.4 374.1,559.0 373.5,557.7 373.0,556.3 372.5,554.9 372.0,553.5 371.7,552.1 371.4,550.7 371.1,549.2 370.9,547.8 370.8,546.3 370.7,544.9 370.6,543.4 370.7,541.9 370.8,540.5 370.9,539.0 371.1,537.6 371.4,536.1 371.7,534.7 372.0,533.3 372.5,531.9 373.0,530.5 373.5,529.1 374.1,527.8 374.7,526.4 375.4,525.1 376.2,523.9 376.9,522.6 377.8,521.4 378.7,520.3 379.6,519.1 380.6,518.0 381.6,517.0 382.6,516.0 383.7,515.0 384.9,514.1 386.0,513.2 387.2,512.3 388.5,511.6 389.7,510.8 391.0,510.1 392.4,509.5 393.7,508.9 395.1,508.4 396.5,507.9 397.9,507.4 399.3,507.1 400.7,506.8 402.2,506.5 403.6,506.3 405.1,506.2 406.5,506.1 408.0,506.0 409.5,506.1 410.9,506.2 412.4,506.3 413.8,506.5 415.3,506.8 416.7,507.1 418.1,507.4 419.5,507.9 420.9,508.4 422.3,508.9 423.6,509.5 425.0,510.1 426.3,510.8 427.5,511.6 428.8,512.3 430.0,513.2 431.1,514.1 432.3,515.0 433.4,516.0 434.4,517.0 435.4,518.0 436.4,519.1 437.3,520.3 438.2,521.4 439.1,522.6 439.8,523.9 440.6,525.1 441.3,526.4 441.9,527.8 442.5,529.1 443.0,530.5 443.5,531.9 444.0,533.3 444.3,534.7 444.6,536.1 444.9,537.6 445.1,539.0 445.2,540.5 445.3,541.9 445.4,543.4" /><polyline points="451.2,543.4 451.2,545.1 451.1,546.8 450.9,548.5 450.7,550.2 450.4,551.8 450.1,553.5 449.6,555.1 449.1,556.8 448.6,558.4 448.0,559.9 447.3,561.5 446.5,563.0 445.7,564.5 444.9,566.0 444.0,567.4 443.0,568.8 442.0,570.2 440.9,571.5 439.8,572.8 438.6,574.0 437.4,575.2 436.1,576.3 434.8,577.4 433.4,578.4" /><polyline points="413.1,586.3 411.4,586.5 409.7,586.6 408.0,586.6 406.3,586.6 404.6,586.5 402.9,586.3 401.2,586.1 399.6,585.8 397.9,585.5 396.3,585.0 394.6,584.5 393.0,584.0 391.5,583.4 389.9,582.7 388.4,581.9 386.9,581.1 385.4,580.3 384.0,579.4 382.6,578.4 381.2,577.4 379.9,576.3 378.6,575.2 377.4,574.0 376.2,572.8 375.1,571.5 374.0,570.2 373.0,568.8 372.0,567.4 371.1,566.0 370.3,564.5 369.5,563.0 368.7,561.5 368.0,559.9 367.4,558.4 366.9,556.8 366.4,555.1 365.9,553.5 365.6,551.8 365.3,550.2 365.1,548.5 364.9,546.8 364.8,545.1 364.8,543.4 364.8,541.7 364.9,540.0 365.1,538.3 365.3,536.6 365.6,535.0 365.9,533.3 366.4,531.7 366.9,530.0 367.4,528.4 368.0,526.9 368.7,525.3 369.5,523.8 370.3,522.3 371.1,520.8 372.0,519.4 373.0,518.0 374.0,516.6 375.1,515.3 376.2,514.0 377.4,512.8 378.6,511.6 379.9,510.5 381.2,509.4 382.6,508.4 384.0,507.4 385.4,506.5 386.9,505.7 388.4,504.9 389.9,504.1 391.5,503.4 393.0,502.8 394.6,502.3 396.3,501.8 397.9,501.3 399.6,501.0 401.2,500.7 402.9,500.5 404.6,500.3 406.3,500.2 408.0,500.2 409.7,500.2 411.4,500.3 413.1,500.5 414.8,500.7 416.4,501.0 418.1,501.3 419.7,501.8 421.4,502.3 423.0,502.8 424.5,503.4 426.1,504.1 427.6,504.9 429.1,505.7 430.6,506.5 432.0,507.4 433.4,508.4 434.8,509.4 436.1,510.5 437.4,511.6 438.6,512.8 439.8,514.0 440.9,515.3 442.0,516.6 443.0,518.0 444.0,519.4 444.9,520.8 445.7,522.3 446.5,523.8 447.3,525.3 448.0,526.9 448.6,528.4 449.1,530.0 449.6,531.7 450.1,533.3 450.4,535.0 450.7,536.6 450.9,538.3 451.1,540.0 451.2,541.7 451.2,543.4" /><polyline points="456.9,543.4 456.8,545.3 456.7,547.2 456.5,549.1 456.2,551.0 455.9,552.9 455.5,554.8 455.0,556.7 454.5,558.5 453.8,560.3 453.1,562.1 452.4,563.9 451.5,565.6 450.6,567.3 449.7,568.9 448.6,570.5 447.5,572.1 446.4,573.6 445.1,575.1 443.9,576.6 442.5,577.9 441.2,579.3 439.7,580.5 438.2,581.8 436.7,582.9 435.1,584.0 433.5,585.1 431.9,586.0 430.2,586.9 428.5,587.8" /><polyline points="402.3,591.9 400.4,591.6 398.5,591.3 396.6,590.9 394.7,590.4 392.9,589.9 391.1,589.2 389.3,588.5 387.5,587.8 385.8,586.9 384.1,586.0 382.5,585.1 380.9,584.0 379.3,582.9 377.8,581.8 376.3,580.5 374.8,579.3 373.5,577.9 372.1,576.6 370.9,575.1 369.6,573.6 368.5,572.1 367.4,570.5 366.3,568.9 365.4,567.3 364.5,565.6 363.6,563.9 362.9,562.1 362.2,560.3 361.5,558.5 361.0,556.7 360.5,554.8 360.1,552.9 359.8,551.0 359.5,549.1 359.3,547.2 359.2,545.3 359.1,543.4 359.2,541.5 359.3,539.6 359.5,537.7 359.8,535.8 360.1,533.9 360.5,532.0 361.0,530.1 361.5,528.3 362.2,526.5 362.9,524.7 363.6,522.9 364.5,521.2 365.4,519.5 366.3,517.9 367.4,516.3 368.5,514.7 369.6,513.2 370.9,511.7 372.1,510.2 373.5,508.9 374.8,507.5 376.3,506.3 377.8,505.0 379.3,503.9 380.9,502.8 382.5,501.7 384.1,500.8 385.8,499.9 387.5,499.0 389.3,498.3 391.1,497.6 392.9,496.9 394.7,496.4 396.6,495.9 398.5,495.5 400.4,495.2 402.3,494.9 404.2,494.7 406.1,494.6 408.0,494.5 409.9,494.6 411.8,494.7 413.7,494.9 415.6,495.2 417.5,495.5 419.4,495.9 421.3,496.4 423.1,496.9 424.9,497.6 426.7,498.3 428.5,499.0 430.2,499.9 431.9,500.8 433.5,501.7 435.1,502.8 436.7,503.9 438.2,505.0 439.7,506.3 441.2,507.5 442.5,508.9 443.9,510.2 445.1,511.7 446.4,513.2 447.5,514.7 448.6,516.3 449.7,517.9 450.6,519.5 451.5,521.2 452.4,522.9 453.1,524.7 453.8,526.5 454.5,528.3 455.0,530.1 455.5,532.0 455.9,533.9 456.2,535.8 456.5,537.7 456.7,539.6 456.8,541.5 456.9,543.4" /><polyline points="462.2,543.4 462.2,545.5 462.1,547.7 461.8,549.8 461.6,551.9 461.2,554.0 460.7,556.1 460.2,558.1 459.6,560.2 458.9,562.2 458.1,564.2 457.2,566.1 456.3,568.0 455.3,569.9 454.2,571.7 453.1,573.5 451.9,575.3 450.6,577.0 449.2,578.6 447.8,580.2 446.3,581.7 444.8,583.2 443.2,584.6 441.6,586.0 439.9,587.3 438.1,588.5 436.3,589.6 434.5,590.7 432.6,591.7 430.7,592.6 428.8,593.5 426.8,594.3 424.8,595.0 422.7,595.6 420.7,596.1 418.6,596.6" /><polyline points="389.2,594.3 387.2,593.5 385.3,592.6 383.4,591.7 381.5,590.7 379.7,589.6 377.9,588.5 376.1,587.3 374.4,586.0 372.8,584.6 371.2,583.2 369.7,581.7 368.2,580.2 366.8,578.6 365.4,577.0 364.1,575.3 362.9,573.5 361.8,571.7 360.7,569.9 359.7,568.0 358.8,566.1 357.9,564.2 357.1,562.2 356.4,560.2 355.8,558.1 355.3,556.1 354.8,554.0 354.4,551.9 354.2,549.8 353.9,547.7 353.8,545.5 353.8,543.4 353.8,541.3 353.9,539.1 354.2,537.0 354.4,534.9 354.8,532.8 355.3,530.7 355.8,528.7 356.4,526.6 357.1,524.6 357.9,522.6 358.8,520.7 359.7,518.8 360.7,516.9 361.8,515.1 362.9,513.3 364.1,511.5 365.4,509.8 366.8,508.2 368.2,506.6 369.7,505.1 371.2,503.6 372.8,502.2 374.4,500.8 376.1,499.5 377.9,498.3 379.7,497.2 381.5,496.1 383.4,495.1 385.3,494.2 387.2,493.3 389.2,492.5 391.2,491.8 393.3,491.2 395.3,490.7 397.4,490.2 399.5,489.8 401.6,489.6 403.7,489.3 405.9,489.2 408.0,489.2 410.1,489.2 412.3,489.3 414.4,489.6 416.5,489.8 418.6,490.2 420.7,490.7 422.7,491.2 424.8,491.8 426.8,492.5 428.8,493.3 430.7,494.2 432.6,495.1 434.5,496.1 436.3,497.2 438.1,498.3 439.9,499.5 441.6,500.8 443.2,502.2 444.8,503.6 446.3,505.1 447.8,506.6 449.2,508.2 450.6,509.8 451.9,511.5 453.1,513.3 454.2,515.1 455.3,516.9 456.3,518.8 457.2,520.7 458.1,522.6 458.9,524.6 459.6,526.6 460.2,528.7 460.7,530.7 461.2,532.8 461.6,534.9 461.8,537.0 462.1,539.1 462.2,541.3 462.2,543.4" /><polyline points="467.4,543.4 467.4,545.7 467.2,548.1 467.0,550.4 466.7,552.7 466.3,555.0 465.8,557.3 465.2,559.5 464.5,561.8 463.7,564.0 462.9,566.1 462.0,568.3 460.9,570.4 459.8,572.4 458.7,574.4 457.4,576.4 456.1,578.3 454.7,580.2 453.2,582.0 451.6,583.7 450.0,585.4 448.3,587.0 446.6,588.6 444.8,590.1 442.9,591.5 441.0,592.8 439.0,594.1 437.0,595.2 435.0,596.3 432.9,597.4 430.7,598.3 428.6,599.1 426.4,599.9 424.1,600.6 421.9,601.2 419.6,601.7 417.3,602.1 415.0,602.4 412.7,602.6 410.3,602.8 408.0,602.8 405.7,602.8" /><polyline points="373.1,591.5 371.2,590.1 369.4,588.6 367.7,587.0 366.0,585.4 364.4,583.7 362.8,582.0 361.3,580.2 359.9,578.3 358.6,576.4 357.3,574.4 356.2,572.4 355.1,570.4 354.0,568.3 353.1,566.1 352.3,564.0 351.5,561.8 350.8,559.5 350.2,557.3 349.7,555.0 349.3,552.7 349.0,550.4 348.8,548.1 348.6,545.7 348.6,543.4 348.6,541.1 348.8,538.7 349.0,536.4 349.3,534.1 349.7,531.8 350.2,529.5 350.8,527.3 351.5,525.0 352.3,522.8 353.1,520.7 354.0,518.5 355.1,516.4 356.2,514.4 357.3,512.4 358.6,510.4 359.9,508.5 361.3,506.6 362.8,504.8 364.4,503.1 366.0,501.4 367.7,499.8 369.4,498.2 371.2,496.7 373.1,495.3 375.0,494.0 377.0,492.7 379.0,491.6 381.0,490.5 383.1,489.4 385.3,488.5 387.4,487.7 389.6,486.9 391.9,486.2 394.1,485.6 396.4,485.1 398.7,484.7 401.0,484.4 403.3,484.2 405.7,484.0 408.0,484.0 410.3,484.0 412.7,484.2 415.0,484.4 417.3,484.7 419.6,485.1 421.9,485.6 424.1,486.2 426.4,486.9 428.6,487.7 430.7,488.5 432.9,489.4 435.0,490.5 437.0,491.6 439.0,492.7 441.0,494.0 442.9,495.3 444.8,496.7 446.6,498.2 448.3,499.8 450.0,501.4 451.6,503.1 453.2,504.8 454.7,506.6 456.1,508.5 457.4,510.4 458.7,512.4 459.8,514.4 460.9,516.4 462.0,518.5 462.9,520.7 463.7,522.8 464.5,525.0 465.2,527.3 465.8,529.5 466.3,531.8 466.7,534.1 467.0,536.4 467.2,538.7 467.4,541.1 467.4,543.4" /><polyline points="472.4,543.4 472.4,545.9 472.2,548.5 472.0,551.0 471.6,553.5 471.2,556.0 470.7,558.4 470.0,560.9 469.3,563.3 468.5,565.7 467.5,568.1 466.5,570.4 465.4,572.7 464.2,574.9 462.9,577.1 461.6,579.2 460.1,581.3 458.6,583.3 457.0,585.2 455.3,587.1 453.6,589.0 451.7,590.7 449.8,592.4 447.9,594.0 445.9,595.5 443.8,597.0 441.7,598.3 439.5,599.6 437.3,600.8 435.0,601.9 432.7,602.9 430.3,603.9 427.9,604.7 425.5,605.4 423.0,606.1 420.6,606.6 418.1,607.0 415.6,607.4 413.1,607.6 410.5,607.8 408.0,607.8 405.5,607.8 402.9,607.6 400.4,607.4 397.9,607.0 395.4,606.6 393.0,606.1 390.5,605.4" /><polyline points="359.0,585.2 357.4,583.3 355.9,581.3 354.4,579.2 353.1,577.1 351.8,574.9 350.6,572.7 349.5,570.4 348.5,568.1 347.5,565.7 346.7,563.3 346.0,560.9 345.3,558.4 344.8,556.0 344.4,553.5 344.0,551.0 343.8,548.5 343.6,545.9 343.6,543.4 343.6,540.9 343.8,538.3 344.0,535.8 344.4,533.3 344.8,530.8 345.3,528.4 346.0,525.9 346.7,523.5 347.5,521.1 348.5,518.7 349.5,516.4 350.6,514.1 351.8,511.9 353.1,509.7 354.4,507.6 355.9,505.5 357.4,503.5 359.0,501.6 360.7,499.7 362.4,497.8 364.3,496.1 366.2,494.4 368.1,492.8 370.1,491.3 372.2,489.8 374.3,488.5 376.5,487.2 378.7,486.0 381.0,484.9 383.3,483.9 385.7,482.9 388.1,482.1 390.5,481.4 393.0,480.7 395.4,480.2 397.9,479.8 400.4,479.4 402.9,479.2 405.5,479.0 408.0,479.0 410.5,479.0 413.1,479.2 415.6,479.4 418.1,479.8 420.6,480.2 423.0,480.7 425.5,481.4 427.9,482.1 430.3,482.9 432.7,483.9 435.0,484.9 437.3,486.0 439.5,487.2 441.7,488.5 443.8,489.8 445.9,491.3 447.9,492.8 449.8,494.4 451.7,496.1 453.6,497.8 455.3,499.7 457.0,501.6 458.6,503.5 460.1,505.5 461.6,507.6 462.9,509.7 464.2,511.9 465.4,514.1 466.5,516.4 467.5,518.7 468.5,521.1 469.3,523.5 470.0,525.9 470.7,528.4 471.2,530.8 471.6,533.3 472.0,535.8 472.2,538.3 472.4,540.9 472.4,543.4" /><polyline points="477.3,543.4 477.3,546.1 477.1,548.8 476.8,551.5 476.5,554.2 476.0,556.9 475.4,559.6 474.7,562.2 473.9,564.8 473.0,567.4 472.0,569.9 471.0,572.4 469.8,574.9 468.5,577.3 467.1,579.6 465.6,581.9 464.1,584.1 462.4,586.3 460.7,588.4 458.9,590.5 457.0,592.4 455.1,594.3 453.0,596.1 450.9,597.8 448.7,599.5 446.5,601.0 444.2,602.5 441.9,603.9 439.5,605.2 437.0,606.4 434.5,607.4 432.0,608.4 429.4,609.3 426.8,610.1 424.2,610.8 421.5,611.4 418.8,611.9 416.1,612.2 413.4,612.5 410.7,612.7 408.0,612.7 405.3,612.7 402.6,612.5 399.9,612.2 397.2,611.9 394.5,611.4 391.8,610.8 389.2,610.1 386.6,609.3 384.0,608.4 381.5,607.4 379.0,606.4 376.5,605.2 374.1,603.9" /><polyline points="346.2,574.9 345.0,572.4 344.0,569.9 343.0,567.4 342.1,564.8 341.3,562.2 340.6,559.6 340.0,556.9 339.5,554.2 339.2,551.5 338.9,548.8 338.7,546.1 338.7,543.4 338.7,540.7 338.9,538.0 339.2,535.3 339.5,532.6 340.0,529.9 340.6,527.2 341.3,524.6 342.1,522.0 343.0,519.4 344.0,516.9 345.0,514.4 346.2,511.9 347.5,509.5 348.9,507.2 350.4,504.9 351.9,502.7 353.6,500.5 355.3,498.4 357.1,496.3 359.0,494.4 360.9,492.5 363.0,490.7 365.1,489.0 367.3,487.3 369.5,485.8 371.8,484.3 374.1,482.9 376.5,481.6 379.0,480.4 381.5,479.4 384.0,478.4 386.6,477.5 389.2,476.7 391.8,476.0 394.5,475.4 397.2,474.9 399.9,474.6 402.6,474.3 405.3,474.1 408.0,474.1 410.7,474.1 413.4,474.3 416.1,474.6 418.8,474.9 421.5,475.4 424.2,476.0 426.8,476.7 429.4,477.5 432.0,478.4 434.5,479.4 437.0,480.4 439.5,481.6 441.9,482.9 444.2,484.3 446.5,485.8 448.7,487.3 450.9,489.0 453.0,490.7 455.1,492.5 457.0,494.4 458.9,496.3 460.7,498.4 462.4,500.5 464.1,502.7 465.6,504.9 467.1,507.2 468.5,509.5 469.8,511.9 471.0,514.4 472.0,516.9 473.0,519.4 473.9,522.0 474.7,524.6 475.4,527.2 476.0,529.9 476.5,532.6 476.8,535.3 477.1,538.0 477.3,540.7 477.3,543.4" /><polyline points="482.1,543.4 482.0,546.3 481.9,549.2 481.6,552.1 481.2,555.0 480.7,557.9 480.0,560.7 479.3,563.5 478.5,566.3 477.5,569.0 476.4,571.8 475.3,574.4 474.0,577.0 472.6,579.6 471.2,582.1 469.6,584.6 467.9,586.9 466.2,589.3 464.3,591.5 462.4,593.7 460.4,595.8 458.3,597.8 456.1,599.7 453.9,601.6 451.5,603.3 449.2,605.0 446.7,606.6 444.2,608.0 441.6,609.4 439.0,610.7 436.4,611.8 433.6,612.9 430.9,613.9 428.1,614.7 425.3,615.4 422.5,616.1 419.6,616.6 416.7,617.0 413.8,617.3 410.9,617.4 408.0,617.5 405.1,617.4 402.2,617.3 399.3,617.0 396.4,616.6 393.5,616.1 390.7,615.4 387.9,614.7 385.1,613.9 382.4,612.9 379.6,611.8 377.0,610.7 374.4,609.4 371.8,608.0 369.3,606.6 366.8,605.0 364.5,603.3 362.1,601.6 359.9,599.7 357.7,597.8" /><polyline points="336.0,560.7 335.3,557.9 334.8,555.0 334.4,552.1 334.1,549.2 334.0,546.3 333.9,543.4 334.0,540.5 334.1,537.6 334.4,534.7 334.8,531.8 335.3,528.9 336.0,526.1 336.7,523.3 337.5,520.5 338.5,517.8 339.6,515.0 340.7,512.4 342.0,509.8 343.4,507.2 344.8,504.7 346.4,502.2 348.1,499.9 349.8,497.5 351.7,495.3 353.6,493.1 355.6,491.0 357.7,489.0 359.9,487.1 362.1,485.2 364.5,483.5 366.8,481.8 369.3,480.2 371.8,478.8 374.4,477.4 377.0,476.1 379.6,475.0 382.4,473.9 385.1,472.9 387.9,472.1 390.7,471.4 393.5,470.7 396.4,470.2 399.3,469.8 402.2,469.5 405.1,469.4 408.0,469.3 410.9,469.4 413.8,469.5 416.7,469.8 419.6,470.2 422.5,470.7 425.3,471.4 428.1,472.1 430.9,472.9 433.6,473.9 436.4,475.0 439.0,476.1 441.6,477.4 444.2,478.8 446.7,480.2 449.2,481.8 451.5,483.5 453.9,485.2 456.1,487.1 458.3,489.0 460.4,491.0 462.4,493.1 464.3,495.3 466.2,497.5 467.9,499.9 469.6,502.2 471.2,504.7 472.6,507.2 474.0,509.8 475.3,512.4 476.4,515.0 477.5,517.8 478.5,520.5 479.3,523.3 480.0,526.1 480.7,528.9 481.2,531.8 481.6,534.7 481.9,537.6 482.0,540.5 482.1,543.4" /><polyline points="486.7,543.4 486.7,546.5 486.5,549.6 486.2,552.7 485.8,555.7 485.2,558.8 484.6,561.8 483.8,564.8 482.9,567.7 481.9,570.7 480.8,573.5 479.5,576.4 478.2,579.2 476.7,581.9 475.1,584.5 473.5,587.2 471.7,589.7 469.8,592.2 467.9,594.5 465.8,596.9 463.7,599.1 461.5,601.2 459.1,603.3 456.8,605.2 454.3,607.1 451.8,608.9 449.1,610.5 446.5,612.1 443.8,613.6 441.0,614.9 438.1,616.2 435.3,617.3 432.3,618.3 429.4,619.2 426.4,620.0 423.4,620.6 420.3,621.2 417.3,621.6 414.2,621.9 411.1,622.1 408.0,622.1 404.9,622.1 401.8,621.9 398.7,621.6 395.7,621.2 392.6,620.6 389.6,620.0 386.6,619.2 383.7,618.3 380.7,617.3 377.9,616.2 375.0,614.9 372.2,613.6 369.5,612.1 366.9,610.5 364.2,608.9 361.7,607.1 359.2,605.2 356.9,603.3 354.5,601.2 352.3,599.1 350.2,596.9 348.1,594.5 346.2,592.2 344.3,589.7 342.5,587.2" /><polyline points="329.3,540.3 329.5,537.2 329.8,534.1 330.2,531.1 330.8,528.0 331.4,525.0 332.2,522.0 333.1,519.1 334.1,516.1 335.2,513.3 336.5,510.4 337.8,507.6 339.3,504.9 340.9,502.3 342.5,499.6 344.3,497.1 346.2,494.6 348.1,492.3 350.2,489.9 352.3,487.7 354.5,485.6 356.9,483.5 359.2,481.6 361.7,479.7 364.2,477.9 366.9,476.3 369.5,474.7 372.2,473.2 375.0,471.9 377.9,470.6 380.7,469.5 383.7,468.5 386.6,467.6 389.6,466.8 392.6,466.2 395.7,465.6 398.7,465.2 401.8,464.9 404.9,464.7 408.0,464.7 411.1,464.7 414.2,464.9 417.3,465.2 420.3,465.6 423.4,466.2 426.4,466.8 429.4,467.6 432.3,468.5 435.3,469.5 438.1,470.6 441.0,471.9 443.8,473.2 446.5,474.7 449.1,476.3 451.8,477.9 454.3,479.7 456.8,481.6 459.1,483.5 461.5,485.6 463.7,487.7 465.8,489.9 467.9,492.3 469.8,494.6 471.7,497.1 473.5,499.6 475.1,502.3 476.7,504.9 478.2,507.6 479.5,510.4 480.8,513.3 481.9,516.1 482.9,519.1 483.8,522.0 484.6,525.0 485.2,528.0 485.8,531.1 486.2,534.1 486.5,537.2 486.7,540.3 486.7,543.4" /><polyline points="491.3,543.4 491.2,546.7 491.1,549.9 490.7,553.2 490.3,556.4 489.7,559.7 489.0,562.8 488.2,566.0 487.2,569.1 486.2,572.2 485.0,575.3 483.7,578.3 482.2,581.2 480.7,584.1 479.0,586.9 477.3,589.7 475.4,592.4 473.4,595.0 471.4,597.5 469.2,600.0 466.9,602.3 464.6,604.6 462.1,606.8 459.6,608.8 457.0,610.8 454.3,612.7 451.5,614.4 448.7,616.1 445.8,617.6 442.9,619.1 439.9,620.4 436.8,621.6 433.7,622.6 430.6,623.6 427.4,624.4 424.3,625.1 421.0,625.7 417.8,626.1 414.5,626.5 411.3,626.6 408.0,626.7 404.7,626.6 401.5,626.5 398.2,626.1 395.0,625.7 391.7,625.1 388.6,624.4 385.4,623.6 382.3,622.6 379.2,621.6 376.1,620.4 373.1,619.1 370.2,617.6 367.3,616.1 364.5,614.4 361.7,612.7 359.0,610.8 356.4,608.8 353.9,606.8 351.4,604.6 349.1,602.3 346.8,600.0 344.6,597.5 342.6,595.0 340.6,592.4 338.7,589.7 337.0,586.9 335.3,584.1 333.8,581.2 332.3,578.3 331.0,575.3" /><polyline points="327.8,520.8 328.8,517.7 329.8,514.6 331.0,511.5 332.3,508.5 333.8,505.6 335.3,502.7 337.0,499.9 338.7,497.1 340.6,494.4 342.6,491.8 344.6,489.3 346.8,486.8 349.1,484.5 351.4,482.2 353.9,480.0 356.4,478.0 359.0,476.0 361.7,474.1 364.5,472.4 367.3,470.7 370.2,469.2 373.1,467.7 376.1,466.4 379.2,465.2 382.3,464.2 385.4,463.2 388.6,462.4 391.7,461.7 395.0,461.1 398.2,460.7 401.5,460.3 404.7,460.2 408.0,460.1 411.3,460.2 414.5,460.3 417.8,460.7 421.0,461.1 424.3,461.7 427.4,462.4 430.6,463.2 433.7,464.2 436.8,465.2 439.9,466.4 442.9,467.7 445.8,469.2 448.7,470.7 451.5,472.4 454.3,474.1 457.0,476.0 459.6,478.0 462.1,480.0 464.6,482.2 466.9,484.5 469.2,486.8 471.4,489.3 473.4,491.8 475.4,494.4 477.3,497.1 479.0,499.9 480.7,502.7 482.2,505.6 483.7,508.5 485.0,511.5 486.2,514.6 487.2,517.7 488.2,520.8 489.0,524.0 489.7,527.1 490.3,530.4 490.7,533.6 491.1,536.9 491.2,540.1 491.3,543.4" /><polyline points="495.8,543.4 495.7,546.8 495.5,550.3 495.2,553.7 494.7,557.1 494.1,560.5 493.4,563.9 492.5,567.2 491.5,570.5 490.4,573.8 489.1,577.0 487.7,580.2 486.2,583.3 484.6,586.3 482.9,589.3 481.0,592.2 479.0,595.0 476.9,597.7 474.8,600.4 472.5,603.0 470.1,605.5 467.6,607.9 465.0,610.2 462.3,612.3 459.6,614.4 456.8,616.4 453.9,618.3 450.9,620.0 447.9,621.6 444.8,623.1 441.6,624.5 438.4,625.8 435.1,626.9 431.8,627.9 428.5,628.8 425.1,629.5 421.7,630.1 418.3,630.6 414.9,630.9 411.4,631.1 408.0,631.2 404.6,631.1 401.1,630.9 397.7,630.6 394.3,630.1 390.9,629.5 387.5,628.8 384.2,627.9 380.9,626.9 377.6,625.8 374.4,624.5 371.2,623.1 368.1,621.6 365.1,620.0 362.1,618.3 359.2,616.4 356.4,614.4 353.7,612.3 351.0,610.2 348.4,607.9 345.9,605.5 343.5,603.0 341.2,600.4 339.1,597.7 337.0,595.0 335.0,592.2 333.1,589.3 331.4,586.3 329.8,583.3 328.3,580.2 326.9,577.0 325.6,573.8 324.5,570.5 323.5,567.2 322.6,563.9 321.9,560.5 321.3,557.1" /><polyline points="331.4,500.5 333.1,497.5 335.0,494.6 337.0,491.8 339.1,489.1 341.2,486.4 343.5,483.8 345.9,481.3 348.4,478.9 351.0,476.6 353.7,474.5 356.4,472.4 359.2,470.4 362.1,468.5 365.1,466.8 368.1,465.2 371.2,463.7 374.4,462.3 377.6,461.0 380.9,459.9 384.2,458.9 387.5,458.0 390.9,457.3 394.3,456.7 397.7,456.2 401.1,455.9 404.6,455.7 408.0,455.6 411.4,455.7 414.9,455.9 418.3,456.2 421.7,456.7 425.1,457.3 428.5,458.0 431.8,458.9 435.1,459.9 438.4,461.0 441.6,462.3 444.8,463.7 447.9,465.2 450.9,466.8 453.9,468.5 456.8,470.4 459.6,472.4 462.3,474.5 465.0,476.6 467.6,478.9 470.1,481.3 472.5,483.8 474.8,486.4 476.9,489.1 479.0,491.8 481.0,494.6 482.9,497.5 484.6,500.5 486.2,503.5 487.7,506.6 489.1,509.8 490.4,513.0 491.5,516.3 492.5,519.6 493.4,522.9 494.1,526.3 494.7,529.7 495.2,533.1 495.5,536.5 495.7,540.0 495.8,543.4" /><polyline points="500.2,543.4 500.1,547.0 499.9,550.6 499.5,554.2 499.0,557.8 498.4,561.4 497.6,564.9 496.7,568.4 495.7,571.9 494.5,575.3 493.2,578.7 491.7,582.0 490.1,585.3 488.4,588.4 486.6,591.6 484.6,594.6 482.6,597.6 480.4,600.5 478.1,603.3 475.7,606.0 473.2,608.6 470.6,611.1 467.9,613.5 465.1,615.8 462.2,618.0 459.2,620.0 456.2,622.0 453.0,623.8 449.9,625.5 446.6,627.1 443.3,628.6 439.9,629.9 436.5,631.1 433.0,632.1 429.5,633.0 426.0,633.8 422.4,634.4 418.8,634.9 415.2,635.3 411.6,635.5 408.0,635.6 404.4,635.5 400.8,635.3 397.2,634.9 393.6,634.4 390.0,633.8 386.5,633.0 383.0,632.1 379.5,631.1 376.1,629.9 372.7,628.6 369.4,627.1 366.1,625.5 363.0,623.8 359.8,622.0 356.8,620.0 353.8,618.0 350.9,615.8 348.1,613.5 345.4,611.1 342.8,608.6 340.3,606.0 337.9,603.3 335.6,600.5 333.4,597.6 331.4,594.6 329.4,591.6 327.6,588.4 325.9,585.3 324.3,582.0 322.8,578.7 321.5,575.3 320.3,571.9 319.3,568.4 318.4,564.9 317.6,561.4 317.0,557.8 316.5,554.2 316.1,550.6 315.9,547.0 315.8,543.4 315.9,539.8 316.1,536.2" /><polyline points="342.8,478.2 345.4,475.7 348.1,473.3 350.9,471.0 353.8,468.8 356.8,466.8 359.8,464.8 363.0,463.0 366.1,461.3 369.4,459.7 372.7,458.2 376.1,456.9 379.5,455.7 383.0,454.7 386.5,453.8 390.0,453.0 393.6,452.4 397.2,451.9 400.8,451.5 404.4,451.3 408.0,451.2 411.6,451.3 415.2,451.5 418.8,451.9 422.4,452.4 426.0,453.0 429.5,453.8 433.0,454.7 436.5,455.7 439.9,456.9 443.3,458.2 446.6,459.7 449.9,461.3 453.0,463.0 456.2,464.8 459.2,466.8 462.2,468.8 465.1,471.0 467.9,473.3 470.6,475.7 473.2,478.2 475.7,480.8 478.1,483.5 480.4,486.3 482.6,489.2 484.6,492.2 486.6,495.2 488.4,498.4 490.1,501.5 491.7,504.8 493.2,508.1 494.5,511.5 495.7,514.9 496.7,518.4 497.6,521.9 498.4,525.4 499.0,529.0 499.5,532.6 499.9,536.2 500.1,539.8 500.2,543.4" /><polyline points="504.5,543.4 504.4,547.2 504.2,551.0 503.8,554.7 503.3,558.5 502.7,562.2 501.8,565.9 500.9,569.6 499.8,573.2 498.5,576.8 497.2,580.3 495.6,583.8 494.0,587.2 492.2,590.6 490.3,593.8 488.2,597.0 486.1,600.1 483.8,603.1 481.4,606.1 478.9,608.9 476.2,611.6 473.5,614.3 470.7,616.8 467.7,619.2 464.7,621.5 461.6,623.6 458.4,625.7 455.2,627.6 451.8,629.4 448.4,631.0 444.9,632.6 441.4,633.9 437.8,635.2 434.2,636.3 430.5,637.2 426.8,638.1 423.1,638.7 419.3,639.2 415.6,639.6 411.8,639.8 408.0,639.9 404.2,639.8 400.4,639.6 396.7,639.2 392.9,638.7 389.2,638.1 385.5,637.2 381.8,636.3 378.2,635.2 374.6,633.9 371.1,632.6 367.6,631.0 364.2,629.4 360.8,627.6 357.6,625.7 354.4,623.6 351.3,621.5 348.3,619.2 345.3,616.8 342.5,614.3 339.8,611.6 337.1,608.9 334.6,606.1 332.2,603.1 329.9,600.1 327.8,597.0 325.7,593.8 323.8,590.6 322.0,587.2 320.4,583.8 318.8,580.3 317.5,576.8 316.2,573.2 315.1,569.6 314.2,565.9 313.3,562.2 312.7,558.5 312.2,554.7 311.8,551.0 311.6,547.2 311.5,543.4 311.6,539.6 311.8,535.8 312.2,532.1 312.7,528.3 313.3,524.6 314.2,520.9 315.1,517.2 316.2,513.6" /><polyline points="357.6,461.1 360.8,459.2 364.2,457.4 367.6,455.8 371.1,454.2 374.6,452.9 378.2,451.6 381.8,450.5 385.5,449.6 389.2,448.7 392.9,448.1 396.7,447.6 400.4,447.2 404.2,447.0 408.0,446.9 411.8,447.0 415.6,447.2 419.3,447.6 423.1,448.1 426.8,448.7 430.5,449.6 434.2,450.5 437.8,451.6 441.4,452.9 444.9,454.2 448.4,455.8 451.8,457.4 455.2,459.2 458.4,461.1 461.6,463.2 464.7,465.3 467.7,467.6 470.7,470.0 473.5,472.5 476.2,475.2 478.9,477.9 481.4,480.7 483.8,483.7 486.1,486.7 488.2,489.8 490.3,493.0 492.2,496.2 494.0,499.6 495.6,503.0 497.2,506.5 498.5,510.0 499.8,513.6 500.9,517.2 501.8,520.9 502.7,524.6 503.3,528.3 503.8,532.1 504.2,535.8 504.4,539.6 504.5,543.4" /><polyline points="508.8,543.4 508.7,547.4 508.5,551.3 508.1,555.2 507.5,559.2 506.8,563.1 506.0,566.9 505.0,570.8 503.8,574.5 502.5,578.3 501.1,582.0 499.5,585.6 497.8,589.1 495.9,592.6 493.9,596.0 491.8,599.4 489.5,602.6 487.1,605.8 484.6,608.8 482.0,611.8 479.3,614.7 476.4,617.4 473.4,620.0 470.4,622.5 467.2,624.9 464.0,627.2 460.6,629.3 457.2,631.3 453.7,633.2 450.2,634.9 446.6,636.5 442.9,637.9 439.1,639.2 435.4,640.4 431.5,641.4 427.7,642.2 423.8,642.9 419.8,643.5 415.9,643.9 412.0,644.1 408.0,644.2 404.0,644.1 400.1,643.9 396.2,643.5 392.2,642.9 388.3,642.2 384.5,641.4 380.6,640.4 376.9,639.2 373.1,637.9 369.4,636.5 365.8,634.9 362.3,633.2 358.8,631.3 355.4,629.3 352.0,627.2 348.8,624.9 345.6,622.5 342.6,620.0 339.6,617.4 336.7,614.7 334.0,611.8 331.4,608.8 328.9,605.8 326.5,602.6 324.2,599.4 322.1,596.0 320.1,592.6 318.2,589.1 316.5,585.6 314.9,582.0 313.5,578.3 312.2,574.5 311.0,570.8 310.0,566.9 309.2,563.1 308.5,559.2 307.9,555.2 307.5,551.3 307.3,547.4 307.2,543.4 307.3,539.4 307.5,535.5 307.9,531.6 308.5,527.6 309.2,523.7 310.0,519.9 311.0,516.0 312.2,512.3 313.5,508.5 314.9,504.8 316.5,501.2 318.2,497.7 320.1,494.2 322.1,490.8" /><polyline points="376.9,447.6 380.6,446.4 384.5,445.4 388.3,444.6 392.2,443.9 396.2,443.3 400.1,442.9 404.0,442.7 408.0,442.6 412.0,442.7 415.9,442.9 419.8,443.3 423.8,443.9 427.7,444.6 431.5,445.4 435.4,446.4 439.1,447.6 442.9,448.9 446.6,450.3 450.2,451.9 453.7,453.6 457.2,455.5 460.6,457.5 464.0,459.6 467.2,461.9 470.4,464.3 473.4,466.8 476.4,469.4 479.3,472.1 482.0,475.0 484.6,478.0 487.1,481.0 489.5,484.2 491.8,487.4 493.9,490.8 495.9,494.2 497.8,497.7 499.5,501.2 501.1,504.8 502.5,508.5 503.8,512.3 505.0,516.0 506.0,519.9 506.8,523.7 507.5,527.6 508.1,531.6 508.5,535.5 508.7,539.4 508.8,543.4" /><polyline points="513.0,543.4 512.9,547.5 512.6,551.6 512.2,555.7 511.7,559.8 510.9,563.9 510.1,567.9 509.0,571.9 507.8,575.8 506.5,579.7 505.0,583.6 503.3,587.3 501.5,591.1 499.6,594.7 497.5,598.2 495.3,601.7 492.9,605.1 490.4,608.4 487.8,611.6 485.1,614.6 482.2,617.6 479.2,620.5 476.2,623.2 473.0,625.8 469.7,628.3 466.3,630.7 462.8,632.9 459.3,635.0 455.7,636.9 451.9,638.7 448.2,640.4 444.3,641.9 440.4,643.2 436.5,644.4 432.5,645.5 428.5,646.3 424.4,647.1 420.3,647.6 416.2,648.0 412.1,648.3 408.0,648.4 403.9,648.3 399.8,648.0 395.7,647.6 391.6,647.1 387.5,646.3 383.5,645.5 379.5,644.4 375.6,643.2 371.7,641.9 367.8,640.4 364.1,638.7 360.3,636.9 356.7,635.0 353.2,632.9 349.7,630.7 346.3,628.3 343.0,625.8 339.8,623.2 336.8,620.5 333.8,617.6 330.9,614.6 328.2,611.6 325.6,608.4 323.1,605.1 320.7,601.7 318.5,598.2 316.4,594.7 314.5,591.1 312.7,587.3 311.0,583.6 309.5,579.7 308.2,575.8 307.0,571.9 305.9,567.9 305.1,563.9 304.3,559.8 303.8,555.7 303.4,551.6 303.1,547.5 303.0,543.4 303.1,539.3 303.4,535.2 303.8,531.1 304.3,527.0 305.1,522.9 305.9,518.9 307.0,514.9 308.2,511.0 309.5,507.1 311.0,503.2 312.7,499.5 314.5,495.7 316.4,492.1 318.5,488.6 320.7,485.1 323.1,481.7 325.6,478.4 328.2,475.2 330.9,472.2 333.8,469.2" /><polyline points="399.8,438.8 403.9,438.5 408.0,438.4 412.1,438.5 416.2,438.8 420.3,439.2 424.4,439.7 428.5,440.5 432.5,441.3 436.5,442.4 440.4,443.6 444.3,444.9 448.2,446.4 451.9,448.1 455.7,449.9 459.3,451.8 462.8,453.9 466.3,456.1 469.7,458.5 473.0,461.0 476.2,463.6 479.2,466.3 482.2,469.2 485.1,472.2 487.8,475.2 490.4,478.4 492.9,481.7 495.3,485.1 497.5,488.6 499.6,492.1 501.5,495.7 503.3,499.5 505.0,503.2 506.5,507.1 507.8,511.0 509.0,514.9 510.1,518.9 510.9,522.9 511.7,527.0 512.2,531.1 512.6,535.2 512.9,539.3 513.0,543.4" /><polyline points="517.1,543.4 517.0,547.7 516.8,552.0 516.3,556.2 515.8,560.5 515.0,564.7 514.1,568.9 513.0,573.0 511.8,577.1 510.4,581.2 508.8,585.1 507.1,589.1 505.2,592.9 503.2,596.7 501.0,600.4 498.7,604.0 496.3,607.5 493.7,610.9 491.0,614.3 488.1,617.5 485.1,620.5 482.1,623.5 478.9,626.4 475.5,629.1 472.1,631.7 468.6,634.1 465.0,636.4 461.3,638.6 457.5,640.6 453.7,642.5 449.7,644.2 445.8,645.8 441.7,647.2 437.6,648.4 433.5,649.5 429.3,650.4 425.1,651.2 420.8,651.7 416.6,652.2 412.3,652.4 408.0,652.5 403.7,652.4 399.4,652.2 395.2,651.7 390.9,651.2 386.7,650.4 382.5,649.5 378.4,648.4 374.3,647.2 370.2,645.8 366.3,644.2 362.3,642.5 358.5,640.6 354.7,638.6 351.0,636.4 347.4,634.1 343.9,631.7 340.5,629.1 337.1,626.4 333.9,623.5 330.9,620.5 327.9,617.5 325.0,614.3 322.3,610.9 319.7,607.5 317.3,604.0 315.0,600.4 312.8,596.7 310.8,592.9 308.9,589.1 307.2,585.1 305.6,581.2 304.2,577.1 303.0,573.0 301.9,568.9 301.0,564.7 300.2,560.5 299.7,556.2 299.2,552.0 299.0,547.7 298.9,543.4 299.0,539.1 299.2,534.8 299.7,530.6 300.2,526.3 301.0,522.1 301.9,517.9 303.0,513.8 304.2,509.7 305.6,505.6 307.2,501.7 308.9,497.7 310.8,493.9 312.8,490.1 315.0,486.4 317.3,482.8 319.7,479.3 322.3,475.9 325.0,472.5 327.9,469.3 330.9,466.3 333.9,463.3 337.1,460.4 340.5,457.7 343.9,455.1 347.4,452.7 351.0,450.4" /><polyline points="429.3,436.4 433.5,437.3 437.6,438.4 441.7,439.6 445.8,441.0 449.7,442.6 453.7,444.3 457.5,446.2 461.3,448.2 465.0,450.4 468.6,452.7 472.1,455.1 475.5,457.7 478.9,460.4 482.1,463.3 485.1,466.3 488.1,469.3 491.0,472.5 493.7,475.9 496.3,479.3 498.7,482.8 501.0,486.4 503.2,490.1 505.2,493.9 507.1,497.7 508.8,501.7 510.4,505.6 511.8,509.7 513.0,513.8 514.1,517.9 515.0,522.1 515.8,526.3 516.3,530.6 516.8,534.8 517.0,539.1 517.1,543.4" /><polyline points="521.2,543.4 521.1,547.8 520.8,552.3 520.4,556.7 519.8,561.1 519.0,565.5 518.1,569.8 516.9,574.1 515.6,578.4 514.2,582.6 512.6,586.7 510.8,590.8 508.8,594.8 506.7,598.7 504.5,602.5 502.1,606.3 499.6,609.9 496.9,613.5 494.1,616.9 491.1,620.2 488.0,623.4 484.8,626.5 481.5,629.5 478.1,632.3 474.5,635.0 470.9,637.5 467.1,639.9 463.3,642.1 459.4,644.2 455.4,646.2 451.3,648.0 447.2,649.6 443.0,651.0 438.7,652.3 434.4,653.5 430.1,654.4 425.7,655.2 421.3,655.8 416.9,656.2 412.4,656.5 408.0,656.6 403.6,656.5 399.1,656.2 394.7,655.8 390.3,655.2 385.9,654.4 381.6,653.5 377.3,652.3 373.0,651.0 368.8,649.6 364.7,648.0 360.6,646.2 356.6,644.2 352.7,642.1 348.9,639.9 345.1,637.5 341.5,635.0 337.9,632.3 334.5,629.5 331.2,626.5 328.0,623.4 324.9,620.2 321.9,616.9 319.1,613.5 316.4,609.9 313.9,606.3 311.5,602.5 309.3,598.7 307.2,594.8 305.2,590.8 303.4,586.7 301.8,582.6 300.4,578.4 299.1,574.1 297.9,569.8 297.0,565.5 296.2,561.1 295.6,556.7 295.2,552.3 294.9,547.8 294.8,543.4 294.9,539.0 295.2,534.5 295.6,530.1 296.2,525.7 297.0,521.3 297.9,517.0 299.1,512.7 300.4,508.4 301.8,504.2 303.4,500.1 305.2,496.0 307.2,492.0 309.3,488.1 311.5,484.3 313.9,480.5 316.4,476.9 319.1,473.3 321.9,469.9 324.9,466.6 328.0,463.4 331.2,460.3 334.5,457.3 337.9,454.5 341.5,451.8 345.1,449.3 348.9,446.9 352.7,444.7 356.6,442.6 360.6,440.6 364.7,438.8 368.8,437.2" /><polyline points="455.4,440.6 459.4,442.6 463.3,444.7 467.1,446.9 470.9,449.3 474.5,451.8 478.1,454.5 481.5,457.3 484.8,460.3 488.0,463.4 491.1,466.6 494.1,469.9 496.9,473.3 499.6,476.9 502.1,480.5 504.5,484.3 506.7,488.1 508.8,492.0 510.8,496.0 512.6,500.1 514.2,504.2 515.6,508.4 516.9,512.7 518.1,517.0 519.0,521.3 519.8,525.7 520.4,530.1 520.8,534.5 521.1,539.0 521.2,543.4" /><polyline points="525.2,543.4 525.1,548.0 524.8,552.6 524.4,557.2 523.8,561.7 523.0,566.3 522.0,570.8 520.8,575.2 519.5,579.6 518.0,584.0 516.3,588.3 514.4,592.5 512.4,596.6 510.3,600.7 507.9,604.6 505.5,608.5 502.8,612.3 500.0,616.0 497.1,619.5 494.1,623.0 490.9,626.3 487.6,629.5 484.1,632.5 480.6,635.4 476.9,638.2 473.1,640.9 469.2,643.3 465.3,645.7 461.2,647.8 457.1,649.8 452.9,651.7 448.6,653.4 444.2,654.9 439.8,656.2 435.4,657.4 430.9,658.4 426.3,659.2 421.8,659.8 417.2,660.2 412.6,660.5 408.0,660.6 403.4,660.5 398.8,660.2 394.2,659.8 389.7,659.2 385.1,658.4 380.6,657.4 376.2,656.2 371.8,654.9 367.4,653.4 363.1,651.7 358.9,649.8 354.8,647.8 350.7,645.7 346.8,643.3 342.9,640.9 339.1,638.2 335.4,635.4 331.9,632.5 328.4,629.5 325.1,626.3 321.9,623.0 318.9,619.5 316.0,616.0 313.2,612.3 310.5,608.5 308.1,604.6 305.7,600.7 303.6,596.6 301.6,592.5 299.7,588.3 298.0,584.0 296.5,579.6 295.2,575.2 294.0,570.8 293.0,566.3 292.2,561.7 291.6,557.2 291.2,552.6 290.9,548.0 290.8,543.4 290.9,538.8 291.2,534.2 291.6,529.6 292.2,525.1 293.0,520.5 294.0,516.0 295.2,511.6 296.5,507.2 298.0,502.8 299.7,498.5 301.6,494.3 303.6,490.2 305.7,486.1 308.1,482.2 310.5,478.3 313.2,474.5 316.0,470.8 318.9,467.3 321.9,463.8 325.1,460.5 328.4,457.3 331.9,454.3 335.4,451.4 339.1,448.6 342.9,445.9 346.8,443.5 350.7,441.1 354.8,439.0 358.9,437.0 363.1,435.1 367.4,433.4 371.8,431.9 376.2,430.6 380.6,429.4 385.1,428.4 389.7,427.6 394.2,427.0" /><polyline points="480.6,451.4 484.1,454.3 487.6,457.3 490.9,460.5 494.1,463.8 497.1,467.3 500.0,470.8 502.8,474.5 505.5,478.3 507.9,482.2 510.3,486.1 512.4,490.2 514.4,494.3 516.3,498.5 518.0,502.8 519.5,507.2 520.8,511.6 522.0,516.0 523.0,520.5 523.8,525.1 524.4,529.6 524.8,534.2 525.1,538.8 525.2,543.4" /><polyline points="529.2,543.4 529.1,548.2 528.8,552.9 528.4,557.6 527.7,562.4 526.9,567.0 525.8,571.7 524.6,576.3 523.3,580.9 521.7,585.3 520.0,589.8 518.1,594.1 516.0,598.4 513.7,602.6 511.3,606.7 508.8,610.7 506.0,614.6 503.2,618.4 500.2,622.1 497.0,625.7 493.7,629.1 490.3,632.4 486.7,635.6 483.0,638.6 479.2,641.4 475.3,644.2 471.3,646.7 467.2,649.1 463.0,651.4 458.7,653.5 454.4,655.4 449.9,657.1 445.5,658.7 440.9,660.0 436.3,661.2 431.6,662.3 427.0,663.1 422.2,663.8 417.5,664.2 412.8,664.5 408.0,664.6 403.2,664.5 398.5,664.2 393.8,663.8 389.0,663.1 384.4,662.3 379.7,661.2 375.1,660.0 370.5,658.7 366.1,657.1 361.6,655.4 357.3,653.5 353.0,651.4 348.8,649.1 344.7,646.7 340.7,644.2 336.8,641.4 333.0,638.6 329.3,635.6 325.7,632.4 322.3,629.1 319.0,625.7 315.8,622.1 312.8,618.4 310.0,614.6 307.2,610.7 304.7,606.7 302.3,602.6 300.0,598.4 297.9,594.1 296.0,589.8 294.3,585.3 292.7,580.9 291.4,576.3 290.2,571.7 289.1,567.0 288.3,562.4 287.6,557.6 287.2,552.9 286.9,548.2 286.8,543.4 286.9,538.6 287.2,533.9 287.6,529.2 288.3,524.4 289.1,519.8 290.2,515.1 291.4,510.5 292.7,505.9 294.3,501.5 296.0,497.0 297.9,492.7 300.0,488.4 302.3,484.2 304.7,480.1 307.2,476.1 310.0,472.2 312.8,468.4 315.8,464.7 319.0,461.1 322.3,457.7 325.7,454.4 329.3,451.2 333.0,448.2 336.8,445.4 340.7,442.6 344.7,440.1 348.8,437.7 353.0,435.4 357.3,433.3 361.6,431.4 366.1,429.7 370.5,428.1 375.1,426.8 379.7,425.6 384.4,424.5 389.0,423.7 393.8,423.0 398.5,422.6 403.2,422.3 408.0,422.2 412.8,422.3 417.5,422.6 422.2,423.0" /><polyline points="503.2,468.4 506.0,472.2 508.8,476.1 511.3,480.1 513.7,484.2 516.0,488.4 518.1,492.7 520.0,497.0 521.7,501.5 523.3,505.9 524.6,510.5 525.8,515.1 526.9,519.8 527.7,524.4 528.4,529.2 528.8,533.9 529.1,538.6 529.2,543.4" /><polyline points="533.1,543.4 533.0,548.3 532.7,553.2 532.3,558.1 531.6,563.0 530.7,567.8 529.7,572.6 528.4,577.4 527.0,582.1 525.4,586.7 523.6,591.3 521.6,595.8 519.5,600.2 517.2,604.5 514.7,608.8 512.0,612.9 509.2,617.0 506.3,620.9 503.2,624.7 499.9,628.3 496.5,631.9 492.9,635.3 489.3,638.6 485.5,641.7 481.6,644.6 477.5,647.4 473.4,650.1 469.1,652.6 464.8,654.9 460.4,657.0 455.9,659.0 451.3,660.8 446.7,662.4 442.0,663.8 437.2,665.1 432.4,666.1 427.6,667.0 422.7,667.7 417.8,668.1 412.9,668.4 408.0,668.5 403.1,668.4 398.2,668.1 393.3,667.7 388.4,667.0 383.6,666.1 378.8,665.1 374.0,663.8 369.3,662.4 364.7,660.8 360.1,659.0 355.6,657.0 351.2,654.9 346.9,652.6 342.6,650.1 338.5,647.4 334.4,644.6 330.5,641.7 326.7,638.6 323.1,635.3 319.5,631.9 316.1,628.3 312.8,624.7 309.7,620.9 306.8,617.0 304.0,612.9 301.3,608.8 298.8,604.5 296.5,600.2 294.4,595.8 292.4,591.3 290.6,586.7 289.0,582.1 287.6,577.4 286.3,572.6 285.3,567.8 284.4,563.0 283.7,558.1 283.3,553.2 283.0,548.3 282.9,543.4 283.0,538.5 283.3,533.6 283.7,528.7 284.4,523.8 285.3,519.0 286.3,514.2 287.6,509.4 289.0,504.7 290.6,500.1 292.4,495.5 294.4,491.0 296.5,486.6 298.8,482.3 301.3,478.0 304.0,473.9 306.8,469.8 309.7,465.9 312.8,462.1 316.1,458.5 319.5,454.9 323.1,451.5 326.7,448.2 330.5,445.1 334.4,442.2 338.5,439.4 342.6,436.7 346.9,434.2 351.2,431.9 355.6,429.8 360.1,427.8 364.7,426.0 369.3,424.4 374.0,423.0 378.8,421.7 383.6,420.7 388.4,419.8 393.3,419.1 398.2,418.7 403.1,418.4 408.0,418.3 412.9,418.4 417.8,418.7 422.7,419.1 427.6,419.8 432.4,420.7 437.2,421.7 442.0,423.0 446.7,424.4 451.3,426.0" /><polyline points="523.6,495.5 525.4,500.1 527.0,504.7 528.4,509.4 529.7,514.2 530.7,519.0 531.6,523.8 532.3,528.7 532.7,533.6 533.0,538.5 533.1,543.4" /><polyline points="537.0,543.4 536.9,548.5 536.6,553.5 536.1,558.6 535.4,563.6 534.6,568.6 533.5,573.5 532.2,578.4 530.7,583.3 529.1,588.1 527.2,592.8 525.2,597.4 523.0,602.0 520.6,606.4 518.0,610.8 515.3,615.1 512.4,619.2 509.3,623.3 506.1,627.2 502.7,631.0 499.2,634.6 495.6,638.1 491.8,641.5 487.9,644.7 483.8,647.8 479.7,650.7 475.4,653.4 471.0,656.0 466.6,658.4 462.0,660.6 457.4,662.6 452.7,664.5 447.9,666.1 443.0,667.6 438.1,668.9 433.2,670.0 428.2,670.8 423.2,671.5 418.1,672.0 413.1,672.3 408.0,672.4 402.9,672.3 397.9,672.0 392.8,671.5 387.8,670.8 382.8,670.0 377.9,668.9 373.0,667.6 368.1,666.1 363.3,664.5 358.6,662.6 354.0,660.6 349.4,658.4 345.0,656.0 340.6,653.4 336.3,650.7 332.2,647.8 328.1,644.7 324.2,641.5 320.4,638.1 316.8,634.6 313.3,631.0 309.9,627.2 306.7,623.3 303.6,619.2 300.7,615.1 298.0,610.8 295.4,606.4 293.0,602.0 290.8,597.4 288.8,592.8 286.9,588.1 285.3,583.3 283.8,578.4 282.5,573.5 281.4,568.6 280.6,563.6 279.9,558.6 279.4,553.5 279.1,548.5 279.0,543.4 279.1,538.3 279.4,533.3 279.9,528.2 280.6,523.2 281.4,518.2 282.5,513.3 283.8,508.4 285.3,503.5 286.9,498.7 288.8,494.0 290.8,489.4 293.0,484.8 295.4,480.4 298.0,476.0 300.7,471.7 303.6,467.6 306.7,463.5 309.9,459.6 313.3,455.8 316.8,452.2 320.4,448.7 324.2,445.3 328.1,442.1 332.2,439.0 336.3,436.1 340.6,433.4 345.0,430.8 349.4,428.4 354.0,426.2 358.6,424.2 363.3,422.3 368.1,420.7 373.0,419.2 377.9,417.9 382.8,416.8 387.8,416.0 392.8,415.3 397.9,414.8 402.9,414.5 408.0,414.4 413.1,414.5 418.1,414.8 423.2,415.3 428.2,416.0 433.2,416.8 438.1,417.9 443.0,419.2 447.9,420.7 452.7,422.3 457.4,424.2 462.0,426.2 466.6,428.4 471.0,430.8 475.4,433.4 479.7,436.1" /><polyline points="535.4,523.2 536.1,528.2 536.6,533.3 536.9,538.3 537.0,543.4" /><polyline points="540.5,553.8 540.0,559.0 539.2,564.2 538.3,569.3 537.2,574.4 535.9,579.5 534.4,584.5 532.7,589.4 530.8,594.3 528.7,599.0 526.4,603.7 523.9,608.3 521.3,612.8 518.5,617.2 515.5,621.5 512.4,625.7 509.0,629.7 505.6,633.6 502.0,637.4 498.2,641.0 494.3,644.4 490.3,647.8 486.1,650.9 481.8,653.9 477.4,656.7 472.9,659.3 468.3,661.8 463.6,664.1 458.9,666.2 454.0,668.1 449.1,669.8 444.1,671.3 439.0,672.6 433.9,673.7 428.8,674.6 423.6,675.4 418.4,675.9 413.2,676.2 408.0,676.3 402.8,676.2 397.6,675.9 392.4,675.4 387.2,674.6 382.1,673.7 377.0,672.6 371.9,671.3 366.9,669.8 362.0,668.1 357.1,666.2 352.4,664.1 347.7,661.8 343.1,659.3 338.6,656.7 334.2,653.9 329.9,650.9 325.7,647.8 321.7,644.4 317.8,641.0 314.0,637.4 310.4,633.6 307.0,629.7 303.6,625.7 300.5,621.5 297.5,617.2 294.7,612.8 292.1,608.3 289.6,603.7 287.3,599.0 285.2,594.3 283.3,589.4 281.6,584.5 280.1,579.5 278.8,574.4 277.7,569.3 276.8,564.2 276.0,559.0 275.5,553.8 275.2,548.6 275.1,543.4 275.2,538.2 275.5,533.0 276.0,527.8 276.8,522.6 277.7,517.5 278.8,512.4 280.1,507.3 281.6,502.3 283.3,497.4 285.2,492.5 287.3,487.8 289.6,483.1 292.1,478.5 294.7,474.0 297.5,469.6 300.5,465.3 303.6,461.1 307.0,457.1 310.4,453.2 314.0,449.4 317.8,445.8 321.7,442.4 325.7,439.0 329.9,435.9 334.2,432.9 338.6,430.1 343.1,427.5 347.7,425.0 352.4,422.7 357.1,420.6 362.0,418.7 366.9,417.0 371.9,415.5 377.0,414.2 382.1,413.1 387.2,412.2 392.4,411.4 397.6,410.9 402.8,410.6 408.0,410.5 413.2,410.6 418.4,410.9 423.6,411.4 428.8,412.2 433.9,413.1 439.0,414.2 444.1,415.5 449.1,417.0 454.0,418.7 458.9,420.6 463.6,422.7 468.3,425.0 472.9,427.5 477.4,430.1 481.8,432.9 486.1,435.9 490.3,439.0 494.3,442.4 498.2,445.8 502.0,449.4 505.6,453.2" /><polyline points="538.0,585.6 536.3,590.7 534.3,595.7 532.1,600.6 529.8,605.5 527.3,610.2 524.6,614.8 521.7,619.3 518.6,623.8 515.4,628.0 511.9,632.2 508.4,636.2 504.7,640.1 500.8,643.8 496.8,647.3 492.6,650.8 488.4,654.0 483.9,657.1 479.4,660.0 474.8,662.7 470.1,665.2 465.2,667.5 460.3,669.7 455.3,671.7 450.2,673.4 445.1,675.0 439.9,676.3 434.7,677.5 429.4,678.4 424.1,679.2 418.7,679.7 413.4,680.0 408.0,680.1 402.6,680.0 397.3,679.7 391.9,679.2 386.6,678.4 381.3,677.5 376.1,676.3 370.9,675.0 365.8,673.4 360.7,671.7 355.7,669.7 350.8,667.5 345.9,665.2 341.2,662.7 336.6,660.0 332.1,657.1 327.6,654.0 323.4,650.8 319.2,647.3 315.2,643.8 311.3,640.1 307.6,636.2 304.1,632.2 300.6,628.0 297.4,623.8 294.3,619.3 291.4,614.8 288.7,610.2 286.2,605.5 283.9,600.6 281.7,595.7 279.7,590.7 278.0,585.6 276.4,580.5 275.1,575.3 273.9,570.1 273.0,564.8 272.2,559.5 271.7,554.1 271.4,548.8 271.3,543.4 271.4,538.0 271.7,532.7 272.2,527.3 273.0,522.0 273.9,516.7 275.1,511.5 276.4,506.3 278.0,501.2 279.7,496.1 281.7,491.1 283.9,486.2 286.2,481.3 288.7,476.6 291.4,472.0 294.3,467.5 297.4,463.0 300.6,458.8 304.1,454.6 307.6,450.6 311.3,446.7 315.2,443.0 319.2,439.5 323.4,436.0 327.6,432.8 332.1,429.7 336.6,426.8 341.2,424.1 345.9,421.6 350.8,419.3 355.7,417.1 360.7,415.1 365.8,413.4 370.9,411.8 376.1,410.5 381.3,409.3 386.6,408.4 391.9,407.6 397.3,407.1 402.6,406.8 408.0,406.7 413.4,406.8 418.7,407.1 424.1,407.6 429.4,408.4 434.7,409.3 439.9,410.5 445.1,411.8 450.2,413.4 455.3,415.1 460.3,417.1 465.2,419.3 470.1,421.6 474.8,424.1 479.4,426.8 483.9,429.7 488.4,432.8 492.6,436.0 496.8,439.5 500.8,443.0 504.7,446.7 508.4,450.6 511.9,454.6 515.4,458.8 518.6,463.0 521.7,467.5 524.6,472.0" /><polyline points="524.8,621.4 521.7,626.0 518.3,630.4 514.8,634.6 511.2,638.8 507.3,642.7 503.4,646.6 499.2,650.2 495.0,653.7 490.6,657.1 486.0,660.2 481.4,663.2 476.6,666.0 471.8,668.6 466.8,671.0 461.8,673.2 456.6,675.2 451.4,677.0 446.1,678.6 440.8,680.0 435.4,681.2 430.0,682.2 424.5,682.9 419.0,683.5 413.5,683.8 408.0,683.9 402.5,683.8 397.0,683.5 391.5,682.9 386.0,682.2 380.6,681.2 375.2,680.0 369.9,678.6 364.6,677.0 359.4,675.2 354.2,673.2 349.2,671.0 344.2,668.6 339.4,666.0 334.6,663.2 330.0,660.2 325.4,657.1 321.0,653.7 316.8,650.2 312.6,646.6 308.7,642.7 304.8,638.8 301.2,634.6 297.7,630.4 294.3,626.0 291.2,621.4 288.2,616.8 285.4,612.0 282.8,607.2 280.4,602.2 278.2,597.2 276.2,592.0 274.4,586.8 272.8,581.5 271.4,576.2 270.2,570.8 269.2,565.4 268.5,559.9 267.9,554.4 267.6,548.9 267.5,543.4 267.6,537.9 267.9,532.4 268.5,526.9 269.2,521.4 270.2,516.0 271.4,510.6 272.8,505.3 274.4,500.0 276.2,494.8 278.2,489.6 280.4,484.6 282.8,479.6 285.4,474.8 288.2,470.0 291.2,465.4 294.3,460.8 297.7,456.4 301.2,452.2 304.8,448.0 308.7,444.1 312.6,440.2 316.8,436.6 321.0,433.1 325.4,429.7 330.0,426.6 334.6,423.6 339.4,420.8 344.2,418.2 349.2,415.8 354.2,413.6 359.4,411.6 364.6,409.8 369.9,408.2 375.2,406.8 380.6,405.6 386.0,404.6 391.5,403.9 397.0,403.3 402.5,403.0 408.0,402.9 413.5,403.0 419.0,403.3 424.5,403.9 430.0,404.6 435.4,405.6 440.8,406.8 446.1,408.2 451.4,409.8 456.6,411.6 461.8,413.6 466.8,415.8 471.8,418.2 476.6,420.8 481.4,423.6 486.0,426.6 490.6,429.7 495.0,433.1 499.2,436.6 503.4,440.2 507.3,444.1 511.2,448.0 514.8,452.2 518.3,456.4 521.7,460.8 524.8,465.4 527.8,470.0 530.6,474.8 533.2,479.6 535.6,484.6 537.8,489.6 539.8,494.8 541.6,500.0" /><polyline points="505.9,649.3 501.7,653.1 497.3,656.7 492.8,660.1 488.1,663.3 483.4,666.4 478.5,669.2 473.5,671.9 468.4,674.4 463.2,676.7 457.9,678.7 452.6,680.6 447.2,682.2 441.7,683.6 436.1,684.9 430.6,685.9 425.0,686.6 419.3,687.2 413.7,687.5 408.0,687.6 402.3,687.5 396.7,687.2 391.0,686.6 385.4,685.9 379.9,684.9 374.3,683.6 368.8,682.2 363.4,680.6 358.1,678.7 352.8,676.7 347.6,674.4 342.5,671.9 337.5,669.2 332.6,666.4 327.9,663.3 323.2,660.1 318.7,656.7 314.3,653.1 310.1,649.3 306.0,645.4 302.1,641.3 298.3,637.1 294.7,632.7 291.3,628.2 288.1,623.5 285.0,618.8 282.2,613.9 279.5,608.9 277.0,603.8 274.7,598.6 272.7,593.3 270.8,588.0 269.2,582.6 267.8,577.1 266.5,571.5 265.5,566.0 264.8,560.4 264.2,554.7 263.9,549.1 263.8,543.4 263.9,537.7 264.2,532.1 264.8,526.4 265.5,520.8 266.5,515.3 267.8,509.7 269.2,504.2 270.8,498.8 272.7,493.5 274.7,488.2 277.0,483.0 279.5,477.9 282.2,472.9 285.0,468.0 288.1,463.3 291.3,458.6 294.7,454.1 298.3,449.7 302.1,445.5 306.0,441.4 310.1,437.5 314.3,433.7 318.7,430.1 323.2,426.7 327.9,423.5 332.6,420.4 337.5,417.6 342.5,414.9 347.6,412.4 352.8,410.1 358.1,408.1 363.4,406.2 368.8,404.6 374.3,403.2 379.9,401.9 385.4,400.9 391.0,400.2 396.7,399.6 402.3,399.3 408.0,399.2 413.7,399.3 419.3,399.6 425.0,400.2 430.6,400.9 436.1,401.9 441.7,403.2 447.2,404.6 452.6,406.2 457.9,408.1 463.2,410.1 468.4,412.4 473.5,414.9 478.5,417.6 483.4,420.4 488.1,423.5 492.8,426.7 497.3,430.1 501.7,433.7 505.9,437.5 510.0,441.4 513.9,445.5 517.7,449.7 521.3,454.1 524.7,458.6 527.9,463.3 531.0,468.0 533.8,472.9 536.5,477.9 539.0,483.0 541.3,488.2 543.3,493.5 545.2,498.8 546.8,504.2 548.2,509.7 549.5,515.3 550.5,520.8 551.2,526.4 551.8,532.1" /><polyline points="555.9,543.4 555.8,549.2 555.5,555.0 554.9,560.8 554.1,566.5" /><polyline points="480.3,672.5 475.2,675.2 469.9,677.8 464.6,680.1 459.2,682.2 453.7,684.1 448.2,685.8 442.5,687.3 436.9,688.5 431.1,689.5 425.4,690.3 419.6,690.9 413.8,691.2 408.0,691.3 402.2,691.2 396.4,690.9 390.6,690.3 384.9,689.5 379.1,688.5 373.5,687.3 367.8,685.8 362.3,684.1 356.8,682.2 351.4,680.1 346.1,677.8 340.8,675.2 335.7,672.5 330.7,669.5 325.8,666.4 321.0,663.1 316.4,659.6 311.9,655.9 307.6,652.0 303.4,648.0 299.4,643.8 295.5,639.5 291.8,635.0 288.3,630.4 285.0,625.6 281.9,620.7 278.9,615.7 276.2,610.6 273.6,605.3 271.3,600.0 269.2,594.6 267.3,589.1 265.6,583.6 264.1,577.9 262.9,572.3 261.9,566.5 261.1,560.8 260.5,555.0 260.2,549.2 260.1,543.4 260.2,537.6 260.5,531.8 261.1,526.0 261.9,520.3 262.9,514.5 264.1,508.9 265.6,503.2 267.3,497.7 269.2,492.2 271.3,486.8 273.6,481.5 276.2,476.2 278.9,471.1 281.9,466.1 285.0,461.2 288.3,456.4 291.8,451.8 295.5,447.3 299.4,443.0 303.4,438.8 307.6,434.8 311.9,430.9 316.4,427.2 321.0,423.7 325.8,420.4 330.7,417.3 335.7,414.3 340.8,411.6 346.1,409.0 351.4,406.7 356.8,404.6 362.3,402.7 367.8,401.0 373.5,399.5 379.1,398.3 384.9,397.3 390.6,396.5 396.4,395.9 402.2,395.6 408.0,395.5 413.8,395.6 419.6,395.9 425.4,396.5 431.1,397.3 436.9,398.3 442.5,399.5 448.2,401.0 453.7,402.7 459.2,404.6 464.6,406.7 469.9,409.0 475.2,411.6 480.3,414.3 485.3,417.3 490.2,420.4 495.0,423.7 499.6,427.2 504.1,430.9 508.4,434.8 512.6,438.8 516.6,443.0 520.5,447.3 524.2,451.8 527.7,456.4 531.0,461.2 534.1,466.1 537.1,471.1 539.8,476.2 542.4,481.5 544.7,486.8 546.8,492.2 548.7,497.7 550.4,503.2 551.9,508.9 553.1,514.5 554.1,520.3 554.9,526.0 555.5,531.8 555.8,537.6 555.9,543.4" /><polyline points="559.6,543.4 559.5,549.4 559.2,555.3 558.6,561.2 557.8,567.1 556.7,573.0 555.4,578.8 553.9,584.6 552.2,590.3 550.3,595.9 548.1,601.4" /><polyline points="449.2,689.3 443.4,690.8 437.6,692.1 431.7,693.2 425.8,694.0 419.9,694.6 414.0,694.9 408.0,695.0 402.0,694.9 396.1,694.6 390.2,694.0 384.3,693.2 378.4,692.1 372.6,690.8 366.8,689.3 361.1,687.6 355.5,685.7 350.0,683.5 344.5,681.1 339.2,678.5 333.9,675.7 328.8,672.7 323.8,669.5 318.9,666.1 314.1,662.5 309.5,658.7 305.1,654.7 300.8,650.6 296.7,646.3 292.7,641.9 288.9,637.3 285.3,632.5 281.9,627.6 278.7,622.6 275.7,617.5 272.9,612.2 270.3,606.9 267.9,601.4 265.7,595.9 263.8,590.3 262.1,584.6 260.6,578.8 259.3,573.0 258.2,567.1 257.4,561.2 256.8,555.3 256.5,549.4 256.4,543.4 256.5,537.4 256.8,531.5 257.4,525.6 258.2,519.7 259.3,513.8 260.6,508.0 262.1,502.2 263.8,496.5 265.7,490.9 267.9,485.4 270.3,479.9 272.9,474.6 275.7,469.3 278.7,464.2 281.9,459.2 285.3,454.3 288.9,449.5 292.7,444.9 296.7,440.5 300.8,436.2 305.1,432.1 309.5,428.1 314.1,424.3 318.9,420.7 323.8,417.3 328.8,414.1 333.9,411.1 339.2,408.3 344.5,405.7 350.0,403.3 355.5,401.1 361.1,399.2 366.8,397.5 372.6,396.0 378.4,394.7 384.3,393.6 390.2,392.8 396.1,392.2 402.0,391.9 408.0,391.8 414.0,391.9 419.9,392.2 425.8,392.8 431.7,393.6 437.6,394.7 443.4,396.0 449.2,397.5 454.9,399.2 460.5,401.1 466.0,403.3 471.5,405.7 476.8,408.3 482.1,411.1 487.2,414.1 492.2,417.3 497.1,420.7 501.9,424.3 506.5,428.1 510.9,432.1 515.2,436.2 519.3,440.5 523.3,444.9 527.1,449.5 530.7,454.3 534.1,459.2 537.3,464.2 540.3,469.3 543.1,474.6 545.7,479.9 548.1,485.4 550.3,490.9 552.2,496.5 553.9,502.2 555.4,508.0 556.7,513.8 557.8,519.7 558.6,525.6 559.2,531.5 559.5,537.4 559.6,543.4" /><polyline points="561.4,567.7 560.3,573.7 559.0,579.6 557.4,585.5 555.7,591.4 553.7,597.1 551.5,602.8 549.0,608.4 546.4,613.9 543.5,619.3 540.4,624.5 537.1,629.7 533.6,634.7" /><polyline points="408.0,698.7 401.9,698.6 395.8,698.2 389.7,697.6 383.7,696.8 377.7,695.7 371.8,694.4 365.9,692.8 360.0,691.1 354.3,689.1 348.6,686.9 343.0,684.4 337.5,681.8 332.1,678.9 326.9,675.8 321.7,672.5 316.7,669.0 311.9,665.3 307.2,661.5 302.6,657.4 298.2,653.2 294.0,648.8 289.9,644.2 286.1,639.5 282.4,634.7 278.9,629.7 275.6,624.5 272.5,619.3 269.6,613.9 267.0,608.4 264.5,602.8 262.3,597.1 260.3,591.4 258.6,585.5 257.0,579.6 255.7,573.7 254.6,567.7" /><polyline points="254.6,519.1 255.7,513.1 257.0,507.2 258.6,501.3 260.3,495.4 262.3,489.7 264.5,484.0 267.0,478.4 269.6,472.9 272.5,467.5 275.6,462.3 278.9,457.1 282.4,452.1 286.1,447.3 289.9,442.6 294.0,438.0 298.2,433.6 302.6,429.4 307.2,425.3 311.9,421.5 316.7,417.8 321.7,414.3 326.9,411.0 332.1,407.9 337.5,405.0 343.0,402.4 348.6,399.9 354.3,397.7 360.0,395.7 365.9,394.0 371.8,392.4 377.7,391.1 383.7,390.0 389.7,389.2 395.8,388.6 401.9,388.2 408.0,388.1 414.1,388.2 420.2,388.6 426.3,389.2 432.3,390.0 438.3,391.1 444.2,392.4 450.1,394.0 456.0,395.7 461.7,397.7 467.4,399.9 473.0,402.4 478.5,405.0 483.9,407.9 489.1,411.0 494.3,414.3 499.3,417.8 504.1,421.5 508.8,425.3 513.4,429.4 517.8,433.6 522.0,438.0 526.1,442.6 529.9,447.3 533.6,452.1 537.1,457.1 540.4,462.3 543.5,467.5 546.4,472.9 549.0,478.4 551.5,484.0 553.7,489.7 555.7,495.4 557.4,501.3 559.0,507.2 560.3,513.1 561.4,519.1" /><polyline points="560.9,586.5 559.1,592.5 557.1,598.4 554.8,604.2 552.3,609.9 549.6,615.5 546.6,621.0 543.5,626.4 540.1,631.7 536.5,636.8 532.8,641.8 528.8,646.6 524.7,651.3 520.4,655.8 515.9,660.1 511.2,664.2" /><polyline points="370.9,697.9 364.9,696.3 358.9,694.5 353.0,692.5 347.2,690.2 341.5,687.7 335.9,685.0 330.4,682.0 325.0,678.9 319.7,675.5 314.6,671.9 309.6,668.2 304.8,664.2 300.1,660.1 295.6,655.8 291.3,651.3 287.2,646.6 283.2,641.8 279.5,636.8 275.9,631.7 272.5,626.4 269.4,621.0 266.4,615.5 263.7,609.9 261.2,604.2 258.9,598.4 256.9,592.5 255.1,586.5" /><polyline points="255.1,500.3 256.9,494.3 258.9,488.4 261.2,482.6 263.7,476.9 266.4,471.3 269.4,465.8 272.5,460.4 275.9,455.1 279.5,450.0 283.2,445.0 287.2,440.2 291.3,435.5 295.6,431.0 300.1,426.7 304.8,422.6 309.6,418.6 314.6,414.9 319.7,411.3 325.0,407.9 330.4,404.8 335.9,401.8 341.5,399.1 347.2,396.6 353.0,394.3 358.9,392.3 364.9,390.5 370.9,388.9 377.0,387.6 383.1,386.5 389.3,385.6 395.5,385.0 401.8,384.6 408.0,384.5 414.2,384.6 420.5,385.0 426.7,385.6 432.9,386.5 439.0,387.6 445.1,388.9 451.1,390.5 457.1,392.3 463.0,394.3 468.8,396.6 474.5,399.1 480.1,401.8 485.6,404.8 491.0,407.9 496.3,411.3 501.4,414.9 506.4,418.6 511.2,422.6 515.9,426.7 520.4,431.0 524.7,435.5 528.8,440.2 532.8,445.0 536.5,450.0 540.1,455.1 543.5,460.4 546.6,465.8 549.6,471.3 552.3,476.9 554.8,482.6 557.1,488.4 559.1,494.3 560.9,500.3" /><polyline points="560.4,599.6 558.1,605.6 555.6,611.4 552.8,617.2 549.8,622.8 546.5,628.3 543.1,633.7 539.5,638.9 535.6,644.0 531.6,648.9 527.3,653.7 522.9,658.3 518.3,662.7 513.5,667.0 508.6,671.0 503.5,674.9 498.3,678.5 492.9,681.9 487.4,685.2" /><polyline points="334.2,688.2 328.6,685.2 323.1,681.9 317.7,678.5 312.5,674.9 307.4,671.0 302.5,667.0 297.7,662.7 293.1,658.3 288.7,653.7 284.4,648.9 280.4,644.0 276.5,638.9 272.9,633.7 269.5,628.3 266.2,622.8 263.2,617.2 260.4,611.4 257.9,605.6 255.6,599.6" /><polyline points="255.6,487.2 257.9,481.2 260.4,475.4 263.2,469.6 266.2,464.0 269.5,458.5 272.9,453.1 276.5,447.9 280.4,442.8 284.4,437.9 288.7,433.1 293.1,428.5 297.7,424.1 302.5,419.8 307.4,415.8 312.5,411.9 317.7,408.3 323.1,404.9 328.6,401.6 334.2,398.6 340.0,395.8 345.8,393.3 351.8,391.0 357.8,388.9 363.9,387.0 370.1,385.4 376.3,384.0 382.6,382.9 388.9,382.0 395.3,381.4 401.6,381.0 408.0,380.9 414.4,381.0 420.7,381.4 427.1,382.0 433.4,382.9 439.7,384.0 445.9,385.4 452.1,387.0 458.2,388.9 464.2,391.0 470.2,393.3 476.0,395.8 481.8,398.6 487.4,401.6 492.9,404.9 498.3,408.3 503.5,411.9 508.6,415.8 513.5,419.8 518.3,424.1 522.9,428.5 527.3,433.1 531.6,437.9 535.6,442.8 539.5,447.9 543.1,453.1 546.5,458.5 549.8,464.0 552.8,469.6 555.6,475.4 558.1,481.2 560.4,487.2" /><polyline points="561.4,606.9 558.8,612.9 556.0,618.8 552.9,624.5 549.6,630.2 546.1,635.7 542.3,641.0 538.4,646.2 534.3,651.2 529.9,656.1 525.4,660.8 520.7,665.3 515.8,669.7 510.8,673.8 505.6,677.7 500.3,681.5 494.8,685.0 489.1,688.3 483.4,691.4 477.5,694.2 471.5,696.8 465.5,699.2 459.3,701.3 453.1,703.2" /><polyline points="300.2,669.7 295.3,665.3 290.6,660.8 286.1,656.1 281.7,651.2 277.6,646.2 273.7,641.0 269.9,635.7 266.4,630.2 263.1,624.5 260.0,618.8 257.2,612.9 254.6,606.9" /><polyline points="254.6,479.9 257.2,473.9 260.0,468.0 263.1,462.3 266.4,456.6 269.9,451.1 273.7,445.8 277.6,440.6 281.7,435.6 286.1,430.7 290.6,426.0 295.3,421.5 300.2,417.1 305.2,413.0 310.4,409.1 315.7,405.3 321.2,401.8 326.9,398.5 332.6,395.4 338.5,392.6 344.5,390.0 350.5,387.6 356.7,385.5 362.9,383.6 369.2,381.9 375.6,380.5 382.0,379.4 388.5,378.5 395.0,377.9 401.5,377.5 408.0,377.3 414.5,377.5 421.0,377.9 427.5,378.5 434.0,379.4 440.4,380.5 446.8,381.9 453.1,383.6 459.3,385.5 465.5,387.6 471.5,390.0 477.5,392.6 483.4,395.4 489.1,398.5 494.8,401.8 500.3,405.3 505.6,409.1 510.8,413.0 515.8,417.1 520.7,421.5 525.4,426.0 529.9,430.7 534.3,435.6 538.4,440.6 542.3,445.8 546.1,451.1 549.6,456.6 552.9,462.3 556.0,468.0 558.8,473.9 561.4,479.9" /><polyline points="559.1,620.4 556.0,626.3 552.6,632.0 549.0,637.6 545.2,643.1 541.2,648.4 537.0,653.5 532.5,658.5 527.9,663.3 523.1,667.9 518.1,672.4 513.0,676.6 507.7,680.6 502.2,684.4 496.6,688.0 490.9,691.4 485.0,694.5 479.0,697.4 472.9,700.1 466.7,702.5 460.4,704.7 454.0,706.6 447.6,708.3 441.1,709.7 434.5,710.9 427.9,711.8 421.3,712.5 414.7,712.9" /><polyline points="267.0,637.6 263.4,632.0 260.0,626.3 256.9,620.4" /><polyline points="256.9,466.4 260.0,460.5 263.4,454.8 267.0,449.2 270.8,443.7 274.8,438.4 279.0,433.3 283.5,428.3 288.1,423.5 292.9,418.9 297.9,414.4 303.0,410.2 308.3,406.2 313.8,402.4 319.4,398.8 325.1,395.4 331.0,392.3 337.0,389.4 343.1,386.7 349.3,384.3 355.6,382.1 362.0,380.2 368.4,378.5 374.9,377.1 381.5,375.9 388.1,375.0 394.7,374.3 401.3,373.9 408.0,373.8 414.7,373.9 421.3,374.3 427.9,375.0 434.5,375.9 441.1,377.1 447.6,378.5 454.0,380.2 460.4,382.1 466.7,384.3 472.9,386.7 479.0,389.4 485.0,392.3 490.9,395.4 496.6,398.8 502.2,402.4 507.7,406.2 513.0,410.2 518.1,414.4 523.1,418.9 527.9,423.5 532.5,428.3 537.0,433.3 541.2,438.4 545.2,443.7 549.0,449.2 552.6,454.8 556.0,460.5 559.1,466.4" /><polyline points="559.0,628.0 555.6,633.8 551.9,639.6 548.0,645.2 543.9,650.6 539.6,655.8 535.1,660.9 530.4,665.8 525.5,670.5 520.4,675.0 515.2,679.3 509.8,683.4 504.2,687.3 498.4,691.0 492.6,694.4 486.6,697.6 480.5,700.6 474.2,703.3 467.9,705.8 461.5,708.0 455.0,710.0 448.4,711.7 441.8,713.2 435.1,714.4 428.3,715.3 421.6,716.0 414.8,716.4 408.0,716.5 401.2,716.4 394.4,716.0 387.7,715.3 380.9,714.4 374.2,713.2" /><polyline points="257.0,458.8 260.4,453.0 264.1,447.2 268.0,441.6 272.1,436.2 276.4,431.0 280.9,425.9 285.6,421.0 290.5,416.3 295.6,411.8 300.8,407.5 306.2,403.4 311.8,399.5 317.6,395.8 323.4,392.4 329.4,389.2 335.5,386.2 341.8,383.5 348.1,381.0 354.5,378.8 361.0,376.8 367.6,375.1 374.2,373.6 380.9,372.4 387.7,371.5 394.4,370.8 401.2,370.4 408.0,370.3 414.8,370.4 421.6,370.8 428.3,371.5 435.1,372.4 441.8,373.6 448.4,375.1 455.0,376.8 461.5,378.8 467.9,381.0 474.2,383.5 480.5,386.2 486.6,389.2 492.6,392.4 498.4,395.8 504.2,399.5 509.8,403.4 515.2,407.5 520.4,411.8 525.5,416.3 530.4,421.0 535.1,425.9 539.6,431.0 543.9,436.2 548.0,441.6 551.9,447.2 555.6,453.0 559.0,458.8" /><polyline points="558.6,635.7 554.8,641.5 550.9,647.2 546.7,652.7 542.3,658.1 537.7,663.3 532.9,668.3 527.9,673.1 522.7,677.7 517.3,682.1 511.8,686.3 506.1,690.2 500.3,694.0 494.3,697.5 488.2,700.8 481.9,703.8 475.6,706.6 469.1,709.1 462.6,711.4 455.9,713.4 449.2,715.1 442.5,716.6 435.6,717.8 428.8,718.8 421.9,719.5 414.9,719.9 408.0,720.0 401.1,719.9 394.1,719.5 387.2,718.8 380.4,717.8 373.5,716.6 366.8,715.1 360.1,713.4 353.4,711.4 346.9,709.1 340.4,706.6 334.1,703.8" /><polyline points="257.4,451.1 261.2,445.3 265.1,439.6 269.3,434.1 273.7,428.7 278.3,423.5 283.1,418.5 288.1,413.7 293.3,409.1 298.7,404.7 304.2,400.5 309.9,396.6 315.7,392.8 321.7,389.3 327.8,386.0 334.1,383.0 340.4,380.2 346.9,377.7 353.4,375.4 360.1,373.4 366.8,371.7 373.5,370.2 380.4,369.0 387.2,368.0 394.1,367.3 401.1,366.9 408.0,366.8 414.9,366.9 421.9,367.3 428.8,368.0 435.6,369.0 442.5,370.2 449.2,371.7 455.9,373.4 462.6,375.4 469.1,377.7 475.6,380.2 481.9,383.0 488.2,386.0 494.3,389.3 500.3,392.8 506.1,396.6 511.8,400.5 517.3,404.7 522.7,409.1 527.9,413.7 532.9,418.5 537.7,423.5 542.3,428.7 546.7,434.1 550.9,439.6 554.8,445.3 558.6,451.1" /></g><g id="03_Gold_Accents" inkscape:groupmode="layer" inkscape:label="03_Gold_Accents" stroke="#B8960C" fill="none" stroke-width="1" stroke-linecap="round" stroke-linejoin="round"><polyline points="470.2,347.6 470.1,348.2 470.0,348.8 469.9,349.4 469.6,350.0 469.4,350.6 469.0,351.1 468.6,351.6 468.2,352.0 467.7,352.4 467.2,352.8 466.6,353.0 466.0,353.3 465.4,353.4 464.8,353.5 464.2,353.6 463.5,353.5 462.9,353.4 462.3,353.3 461.7,353.0 461.2,352.8 460.6,352.4 460.1,352.0 459.7,351.6 459.3,351.1 459.0,350.6 458.7,350.0 458.5,349.4 458.3,348.8 458.2,348.2 458.2,347.6 458.2,346.9 458.3,346.3 458.5,345.7 458.7,345.1 459.0,344.6 459.3,344.0 459.7,343.5 460.1,343.1 460.6,342.7 461.2,342.4 461.7,342.1 462.3,341.9 462.9,341.7 463.5,341.6 464.2,341.6 464.8,341.6 465.4,341.7 466.0,341.9 466.6,342.1 467.2,342.4 467.7,342.7 468.2,343.1 468.6,343.5 469.0,344.0 469.4,344.6 469.6,345.1 469.9,345.7 470.0,346.3 470.1,346.9 470.2,347.6" /><line x1="252.0" y1="625.0" x2="564.0" y2="625.0" /></g></svg>