<?xml version='1.0' encoding='utf-8'?>
<svg xmlns="http://www.w3.org/2000/svg" xmlns:inkscape="http://www.inkscape.org/namespaces/inkscape" viewBox="204 228 408 600"><style>*{vector-effect:non-scaling-stroke}</style><g id="01_Black_Frame" inkscape:groupmode="layer" inkscape:label="01_Black_Frame" stroke="#1A1A1A" fill="none" stroke-width="0.875" stroke-linecap="round" stroke-linejoin="round"><path d="M 250.0,264.0 L 566.0,264.0 Q 576.0,264.0 576.0,274.0 L 576.0,782.0 Q 576.0,792.0 566.0,792.0 L 250.0,792.0 Q 240.0,792.0 240.0,782.0 L 240.0,274.0 Q 240.0,264.0 250.0,264.0" /><path d="M 253.0,270.0 L 563.0,270.0 Q 570.0,270.0 570.0,277.0 L 570.0,779.0 Q 570.0,786.0 563.0,786.0 L 253.0,786.0 Q 246.0,786.0 246.0,779.0 L 246.0,277.0 Q 246.0,270.0 253.0,270.0" /><line x1="259.0" y1="280.0" x2="263.0" y2="280.0" /><line x1="258.1" y1="282.1" x2="260.9" y2="284.9" /><line x1="256.0" y1="283.0" x2="256.0" y2="287.0" /><line x1="253.9" y1="282.1" x2="251.1" y2="284.9" /><line x1="253.0" y1="280.0" x2="249.0" y2="280.0" /><line x1="253.9" y1="277.9" x2="251.1" y2="275.1" /><line x1="256.0" y1="277.0" x2="256.0" y2="273.0" /><line x1="258.1" y1="277.9" x2="260.9" y2="275.1" /><line x1="563.0" y1="280.0" x2="567.0" y2="280.0" /><line x1="562.1" y1="282.1" x2="564.9" y2="284.9" /><line x1="560.0" y1="283.0" x2="560.0" y2="287.0" /><line x1="557.9" y1="282.1" x2="555.1" y2="284.9" /><line x1="557.0" y1="280.0" x2="553.0" y2="280.0" /><line x1="557.9" y1="277.9" x2="555.1" y2="275.1" /><line x1="560.0" y1="277.0" x2="560.0" y2="273.0" /><line x1="562.1" y1="277.9" x2="564.9" y2="275.1" /><line x1="259.0" y1="776.0" x2="263.0" y2="776.0" /><line x1="258.1" y1="778.1" x2="260.9" y2="780.9" /><line x1="256.0" y1="779.0" x2="256.0" y2="783.0" /><line x1="253.9" y1="778.1" x2="251.1" y2="780.9" /><line x1="253.0" y1="776.0" x2="249.0" y2="776.0" /><line x1="253.9" y1="773.9" x2="251.1" y2="771.1" /><line x1="256.0" y1="773.0" x2="256.0" y2="769.0" /><line x1="258.1" y1="773.9" x2="260.9" y2="771.1" /><line x1="563.0" y1="776.0" x2="567.0" y2="776.0" /><line x1="562.1" y1="778.1" x2="564.9" y2="780.9" /><line x1="560.0" y1="779.0" x2="560.0" y2="783.0" /><line x1="557.9" y1="778.1" x2="555.1" y2="780.9" /><line x1="557.0" y1="776.0" x2="553.0" y2="776.0" /><line x1="557.9" y1="773.9" x2="555.1" y2="771.1" /><line x1="560.0" y1="773.0" x2="560.0" y2="769.0" /><line x1="562.1" y1="773.9" x2="564.9" y2="771.1" /><polyline points="393.62,282.00 398.62,290.00" /><polyline points="398.62,282.00 393.62,290.00" /><polyline points="403.88,283.20 402.12,282.00 401.12,282.00 399.38,283.60 399.38,288.40 401.12,290.00 402.12,290.00 403.88,288.80" /><polyline points="407.62,282.00 407.62,290.00" /><polyline points="413.38,282.00 413.38,290.00" /><polyline points="419.12,282.00 419.12,290.00" /><polyline points="370.62,297.00 377.12,297.00" /><polyline points="373.88,297.00 373.88,307.00" /><polyline points="378.10,297.00 378.10,307.00" /><polyline points="384.60,297.00 384.60,307.00" /><polyline points="378.10,301.80 384.60,301.80" /><polyline points="391.10,297.00 385.57,297.00 385.57,301.80 389.47,301.80" /><polyline points="385.57,301.80 385.57,307.00 391.10,307.00" /><polyline points="400.52,307.00 400.52,297.00 404.75,297.00 406.05,298.20 406.05,299.80 404.75,301.00 400.52,301.00 404.75,301.00 406.05,302.20 406.05,305.80 404.75,307.00 400.52,307.00" /><polyline points="408.00,307.00 408.00,297.00 412.23,297.00 413.85,298.50 413.85,300.20 412.23,301.50 408.00,301.50 413.85,307.00" /><polyline points="418.73,297.00 418.73,307.00" /><polyline points="422.95,307.00 422.95,297.00 426.52,297.00 428.80,299.50 428.80,304.50 426.52,307.00 422.95,307.00" /><polyline points="436.28,298.50 434.00,297.00 432.70,297.00 430.43,299.00 430.43,305.00 432.70,307.00 434.00,307.00 436.28,305.50 436.28,302.00 433.68,302.00" /><polyline points="443.42,297.00 437.90,297.00 437.90,301.80 441.80,301.80" /><polyline points="437.90,301.80 437.90,307.00 443.42,307.00" /><line x1="270.0" y1="312.0" x2="546.0" y2="312.0" /><line x1="270.0" y1="732.0" x2="546.0" y2="732.0" /><polyline points="361.31,740.75 361.31,745.25" /><polyline points="363.83,740.75 361.31,743.00 363.83,745.25" /><polyline points="364.53,745.25 365.93,740.75 367.33,745.25" /><polyline points="365.03,743.67 366.83,743.67" /><polyline points="367.75,745.25 367.75,740.75 369.57,740.75 370.27,741.42 370.27,742.19 369.57,742.77 367.75,742.77 370.27,745.25" /><polyline points="370.97,745.25 372.37,740.75 373.77,745.25" /><polyline points="371.47,743.67 373.27,743.67" /><polyline points="383.85,740.75 386.65,740.75" /><polyline points="385.25,740.75 385.25,745.25" /><polyline points="387.07,745.25 387.07,740.75 388.89,740.75 389.59,741.42 389.59,742.19 388.89,742.77 387.07,742.77 389.59,745.25" /><polyline points="391.69,740.75 391.69,745.25" /><polyline points="393.51,740.75 393.51,745.25 395.89,745.25" /><polyline points="396.73,740.75 396.73,745.25 399.11,745.25" /><polyline points="401.35,740.75 401.35,745.25" /><polyline points="404.57,740.75 403.45,741.20 403.17,742.10 403.17,743.90 403.45,744.80 404.57,745.25 405.69,744.80 405.97,743.90 405.97,742.10 405.69,741.20 404.57,740.75" /><polyline points="406.39,745.25 406.39,740.75 409.19,745.25 409.19,740.75" /><polyline points="416.05,745.25 416.05,740.75 417.87,740.75 418.57,741.42 418.57,742.19 417.87,742.77 416.05,742.77 418.57,745.25" /><polyline points="421.65,740.75 419.27,740.75 419.27,742.91 420.95,742.91" /><polyline points="419.27,742.91 419.27,745.25 421.65,745.25" /><polyline points="424.87,741.20 424.17,740.75 423.33,740.75 422.63,741.42 422.49,742.10 422.91,742.64 423.89,743.00 424.87,743.36 425.29,743.90 425.15,744.58 424.45,745.25 423.47,745.25 422.77,744.80" /><polyline points="428.23,741.42 427.25,740.75 426.69,740.75 425.71,741.65 425.71,744.35 426.69,745.25 427.25,745.25 428.23,744.58" /><polyline points="428.93,740.75 428.93,744.12 429.49,745.02 431.17,745.02 431.73,744.12 431.73,740.75" /><polyline points="434.53,740.75 432.15,740.75 432.15,742.91 433.83,742.91" /><polyline points="432.15,742.91 432.15,745.25 434.53,745.25" /><polyline points="444.33,741.42 443.35,740.75 442.79,740.75 441.81,741.65 441.81,744.35 442.79,745.25 443.35,745.25 444.33,744.58 444.33,743.00 443.21,743.00" /><polyline points="445.03,740.75 445.03,744.12 445.59,745.02 447.27,745.02 447.83,744.12 447.83,740.75" /><polyline points="448.25,740.75 448.25,745.25 450.63,745.25" /><polyline points="453.85,740.75 451.47,740.75 451.47,742.91 453.15,742.91" /><polyline points="451.47,742.91 451.47,745.25" /><polyline points="293.00,753.25 298.00,753.25" /><polyline points="295.50,753.25 295.50,760.75" /><polyline points="298.75,753.25 298.75,760.75" /><polyline points="303.75,753.25 303.75,760.75" /><polyline points="298.75,756.85 303.75,756.85" /><polyline points="308.75,753.25 304.50,753.25 304.50,756.85 307.50,756.85" /><polyline points="304.50,756.85 304.50,760.75 308.75,760.75" /><polyline points="310.25,753.25 312.75,757.00 315.25,753.25" /><polyline points="312.75,757.00 312.75,760.75" /><polyline points="321.75,753.25 321.75,760.75" /><polyline points="326.75,753.25 326.75,760.75" /><polyline points="321.75,756.85 326.75,756.85" /><polyline points="330.00,753.25 330.00,760.75" /><polyline points="333.25,753.25 338.25,753.25" /><polyline points="335.75,753.25 335.75,760.75" /><polyline points="347.25,753.25 347.25,760.75" /><polyline points="350.50,753.25 355.50,753.25" /><polyline points="353.00,753.25 353.00,760.75" /><polyline points="362.00,760.75 364.50,753.25 367.00,760.75" /><polyline points="362.90,758.12 366.10,758.12" /><polyline points="372.25,754.38 370.50,753.25 369.50,753.25 367.75,754.75 367.75,759.25 369.50,760.75 370.50,760.75 372.25,759.62 372.25,757.00 370.25,757.00" /><polyline points="373.50,760.75 376.00,753.25 378.50,760.75" /><polyline points="374.40,758.12 377.60,758.12" /><polyline points="381.75,753.25 381.75,760.75" /><polyline points="385.00,760.75 385.00,753.25 390.00,760.75 390.00,753.25" /><polyline points="396.50,753.25 397.75,760.75 399.00,755.88 400.25,760.75 401.50,753.25" /><polyline points="402.25,753.25 402.25,760.75" /><polyline points="407.25,753.25 407.25,760.75" /><polyline points="402.25,756.85 407.25,756.85" /><polyline points="410.50,753.25 410.50,760.75" /><polyline points="413.75,753.25 413.75,760.75 418.00,760.75" /><polyline points="423.75,753.25 419.50,753.25 419.50,756.85 422.50,756.85" /><polyline points="419.50,756.85 419.50,760.75 423.75,760.75" /><polyline points="431.00,753.25 436.00,753.25" /><polyline points="433.50,753.25 433.50,760.75" /><polyline points="436.75,753.25 436.75,760.75" /><polyline points="441.75,753.25 441.75,760.75" /><polyline points="436.75,756.85 441.75,756.85" /><polyline points="446.75,753.25 442.50,753.25 442.50,756.85 445.50,756.85" /><polyline points="442.50,756.85 442.50,760.75 446.75,760.75" /><polyline points="454.00,753.25 454.00,760.75" /><polyline points="459.00,753.25 459.00,760.75" /><polyline points="454.00,756.85 459.00,756.85" /><polyline points="464.00,753.25 459.75,753.25 459.75,756.85 462.75,756.85" /><polyline points="459.75,756.85 459.75,760.75 464.00,760.75" /><polyline points="465.50,753.25 465.50,760.75 469.75,760.75" /><polyline points="471.25,760.75 471.25,753.25 474.50,753.25 475.75,754.38 475.75,755.65 474.50,756.62 471.25,756.62" /><polyline points="481.25,753.25 477.00,753.25 477.00,756.85 480.00,756.85" /><polyline points="477.00,756.85 477.00,760.75 481.25,760.75" /><polyline points="482.75,760.75 482.75,753.25 486.00,753.25 487.25,754.38 487.25,755.65 486.00,756.62 482.75,756.62 487.25,760.75" /><polyline points="492.75,754.00 491.50,753.25 490.00,753.25 488.75,754.38 488.50,755.50 489.25,756.40 491.00,757.00 492.75,757.60 493.50,758.50 493.25,759.62 492.00,760.75 490.25,760.75 489.00,760.00" /><polyline points="504.50,754.38 502.75,753.25 501.75,753.25 500.00,754.75 500.00,759.25 501.75,760.75 502.75,760.75 504.50,759.62" /><polyline points="505.75,760.75 508.25,753.25 510.75,760.75" /><polyline points="506.65,758.12 509.85,758.12" /><polyline points="511.50,760.75 511.50,753.25 514.00,757.38 516.50,753.25 516.50,760.75" /><polyline points="521.50,753.25 517.25,753.25 517.25,756.85 520.25,756.85" /><polyline points="517.25,756.85 517.25,760.75 521.50,760.75" /><polyline points="290.12,766.25 295.12,766.25" /><polyline points="292.62,766.25 292.62,773.75" /><polyline points="295.88,766.25 295.88,773.75" /><polyline points="300.88,766.25 300.88,773.75" /><polyline points="295.88,769.85 300.88,769.85" /><polyline points="305.88,766.25 301.62,766.25 301.62,769.85 304.62,769.85" /><polyline points="301.62,769.85 301.62,773.75 305.88,773.75" /><polyline points="313.12,773.75 313.12,766.25 316.38,766.25 317.38,767.15 317.38,768.35 316.38,769.25 313.12,769.25 316.38,769.25 317.38,770.15 317.38,772.85 316.38,773.75 313.12,773.75" /><polyline points="318.88,766.25 318.88,771.88 319.88,773.38 322.88,773.38 323.88,771.88 323.88,766.25" /><polyline points="324.62,773.75 324.62,766.25 327.38,766.25 329.12,768.12 329.12,771.88 327.38,773.75 324.62,773.75" /><polyline points="334.88,767.38 333.12,766.25 332.12,766.25 330.38,767.75 330.38,772.25 332.12,773.75 333.12,773.75 334.88,772.62 334.88,770.00 332.88,770.00" /><polyline points="340.38,766.25 336.12,766.25 336.12,769.85 339.12,769.85" /><polyline points="336.12,769.85 336.12,773.75 340.38,773.75" /><polyline points="341.88,766.25 346.88,766.25" /><polyline points="344.38,766.25 344.38,773.75" /><polyline points="357.62,766.25 353.38,766.25 353.38,769.85 356.38,769.85" /><polyline points="353.38,769.85 353.38,773.75" /><polyline points="361.62,766.25 359.62,767.00 359.12,768.50 359.12,771.50 359.62,773.00 361.62,773.75 363.62,773.00 364.12,771.50 364.12,768.50 363.62,767.00 361.62,766.25" /><polyline points="364.88,773.75 364.88,766.25 368.12,766.25 369.38,767.38 369.38,768.65 368.12,769.62 364.88,769.62 369.38,773.75" /><polyline points="376.38,773.75 376.38,766.25 381.38,773.75 381.38,766.25" /><polyline points="386.38,766.25 382.12,766.25 382.12,769.85 385.12,769.85" /><polyline points="382.12,769.85 382.12,773.75 386.38,773.75" /><polyline points="387.88,766.25 392.88,773.75" /><polyline points="392.88,766.25 387.88,773.75" /><polyline points="393.62,766.25 398.62,766.25" /><polyline points="396.12,766.25 396.12,773.75" /><polyline points="405.12,766.25 410.12,766.25" /><polyline points="407.62,766.25 407.62,773.75" /><polyline points="413.38,766.25 413.38,773.75" /><polyline points="416.62,773.75 416.62,766.25 419.12,770.38 421.62,766.25 421.62,773.75" /><polyline points="426.62,766.25 422.38,766.25 422.38,769.85 425.38,769.85" /><polyline points="422.38,769.85 422.38,773.75 426.62,773.75" /><polyline points="433.88,766.25 435.12,773.75 436.38,768.88 437.62,773.75 438.88,766.25" /><polyline points="439.62,773.75 442.12,766.25 444.62,773.75" /><polyline points="440.52,771.12 443.73,771.12" /><polyline points="449.62,767.00 448.38,766.25 446.88,766.25 445.62,767.38 445.38,768.50 446.12,769.40 447.88,770.00 449.62,770.60 450.38,771.50 450.12,772.62 448.88,773.75 447.12,773.75 445.88,773.00" /><polyline points="456.88,773.75 459.38,766.25 461.88,773.75" /><polyline points="457.77,771.12 460.98,771.12" /><polyline points="462.62,766.25 462.62,773.75 466.88,773.75" /><polyline points="468.38,773.75 468.38,766.25 471.62,766.25 472.88,767.38 472.88,768.65 471.62,769.62 468.38,769.62 472.88,773.75" /><polyline points="478.38,766.25 474.12,766.25 474.12,769.85 477.12,769.85" /><polyline points="474.12,769.85 474.12,773.75 478.38,773.75" /><polyline points="479.88,773.75 482.38,766.25 484.88,773.75" /><polyline points="480.77,771.12 483.98,771.12" /><polyline points="485.62,773.75 485.62,766.25 488.38,766.25 490.12,768.12 490.12,771.88 488.38,773.75 485.62,773.75" /><polyline points="491.38,766.25 493.88,770.00 496.38,766.25" /><polyline points="493.88,770.00 493.88,773.75" /><polyline points="502.88,773.75 502.88,766.25 505.62,766.25 507.38,768.12 507.38,771.88 505.62,773.75 502.88,773.75" /><polyline points="511.12,766.25 509.12,767.00 508.62,768.50 508.62,771.50 509.12,773.00 511.12,773.75 513.12,773.00 513.62,771.50 513.62,768.50 513.12,767.00 511.12,766.25" /><polyline points="514.38,773.75 514.38,766.25 519.38,773.75 519.38,766.25" /><polyline points="524.38,766.25 520.12,766.25 520.12,769.85 523.12,769.85" /><polyline points="520.12,769.85 520.12,773.75 524.38,773.75" /><polyline points="385.68,779.50 385.68,784.50" /><polyline points="387.76,779.50 389.36,784.50 390.96,779.50" /><polyline points="393.04,784.00 393.04,784.25" /><polyline points="396.72,779.50 396.72,784.50" /><polyline points="400.40,779.50 400.40,784.50" /><polyline points="404.08,779.50 404.08,784.50" /><polyline points="407.76,784.00 407.76,784.25" /><polyline points="409.84,784.50 409.84,779.50 411.44,782.25 413.04,779.50 413.04,784.50" /><polyline points="413.52,784.50 413.52,779.50 415.12,782.25 416.72,779.50 416.72,784.50" /><polyline points="417.20,779.50 420.40,784.50" /><polyline points="420.40,779.50 417.20,784.50" /><polyline points="420.88,779.50 424.08,784.50" /><polyline points="424.08,779.50 420.88,784.50" /><polyline points="424.56,779.50 426.16,784.50 427.76,779.50" /><polyline points="429.84,779.50 429.84,784.50" /></g><g id="02_Teal_Structure" inkscape:groupmode="layer" inkscape:label="02_Teal_Structure" stroke="#3A7A7A" fill="none" stroke-width="0.75" stroke-linecap="round" stroke-linejoin="round"><polyline points="325.0,543.4 325.0,388.4" /><polyline points="333.0,543.4 333.0,388.4" /><polyline points="323.0,388.4 335.0,388.4" /><polyline points="483.0,543.4 483.0,388.4" /><polyline points="491.0,543.4 491.0,388.4" /><polyline points="481.0,388.4 493.0,388.4" /><polyline points="267.0,543.4 391.1,543.4" /><polyline points="424.9,543.4 549.0,543.4" /><polyline points="383.3,568.0 386.6,565.6" /><polyline points="381.4,572.8 389.4,572.3" /><polyline points="399.0,586.0 404.4,589.7" /><polyline points="383.1,562.3 387.9,562.2" /><polyline points="431.1,578.9 435.6,579.5" /><polyline points="267.0,538.4 270.1,529.4 273.2,520.5 276.3,511.8 279.4,503.3 282.5,494.9 285.6,486.7 288.7,478.6 291.8,470.7 294.9,463.0 298.0,455.4 301.1,448.0 304.2,440.7 307.3,433.6 310.4,426.7 313.5,419.9 316.6,413.2 319.7,406.8 322.8,400.5 325.9,394.3 329.0,388.4" /><polyline points="329.0,388.4 332.1,401.6 335.2,414.4 338.3,426.6 341.4,438.4 344.6,449.6 347.7,460.4 350.8,470.6 353.9,480.4 357.0,489.6 360.1,498.4 363.2,506.6 366.3,514.4 369.4,521.6 372.5,528.4 375.6,534.6 378.7,540.4 381.8,545.6 384.9,550.4 388.0,554.6 391.1,558.4" /><polyline points="424.9,558.4 428.0,554.6 431.1,550.4 434.2,545.6 437.3,540.4 440.4,534.6 443.5,528.4 446.6,521.6 449.7,514.4 452.8,506.6 455.9,498.4 459.0,489.6 462.1,480.4 465.2,470.6 468.3,460.4 471.5,449.6 474.6,438.4 477.7,426.6 480.8,414.4 483.9,401.6 487.0,388.4" /><polyline points="487.0,388.4 490.1,394.3 493.2,400.5 496.3,406.8 499.4,413.2 502.5,419.9 505.6,426.7 508.7,433.6 511.8,440.7 514.9,448.0 518.0,455.4 521.1,463.0 524.2,470.7 527.3,478.6 530.4,486.7 533.5,494.9 536.6,503.3 539.7,511.8 542.8,520.5 545.9,529.4 549.0,538.4" /><line x1="273.2" y1="520.5" x2="273.2" y2="543.4" /><line x1="282.5" y1="494.9" x2="282.5" y2="543.4" /><line x1="288.7" y1="478.6" x2="288.7" y2="543.4" /><line x1="298.0" y1="455.4" x2="298.0" y2="543.4" /><line x1="304.2" y1="440.7" x2="304.2" y2="543.4" /><line x1="313.5" y1="419.9" x2="313.5" y2="543.4" /><line x1="319.7" y1="406.8" x2="319.7" y2="543.4" /><line x1="335.2" y1="414.4" x2="335.2" y2="543.4" /><line x1="344.6" y1="449.6" x2="344.6" y2="543.4" /><line x1="350.8" y1="470.6" x2="350.8" y2="543.4" /><line x1="360.1" y1="498.4" x2="360.1" y2="543.4" /><line x1="366.3" y1="514.4" x2="366.3" y2="543.4" /><line x1="375.6" y1="534.6" x2="375.6" y2="543.4" /><line x1="440.4" y1="534.6" x2="440.4" y2="543.4" /><line x1="446.6" y1="521.6" x2="446.6" y2="543.4" /><line x1="455.9" y1="498.4" x2="455.9" y2="543.4" /><line x1="462.1" y1="480.4" x2="462.1" y2="543.4" /><line x1="471.5" y1="449.6" x2="471.5" y2="543.4" /><line x1="477.7" y1="426.6" x2="477.7" y2="543.4" /><line x1="493.2" y1="400.5" x2="493.2" y2="543.4" /><line x1="502.5" y1="419.9" x2="502.5" y2="543.4" /><line x1="508.7" y1="433.6" x2="508.7" y2="543.4" /><line x1="518.0" y1="455.4" x2="518.0" y2="543.4" /><line x1="524.2" y1="470.7" x2="524.2" y2="543.4" /><line x1="533.5" y1="494.9" x2="533.5" y2="543.4" /><line x1="539.7" y1="511.8" x2="539.7" y2="543.4" /><polyline points="287.4,598.4 294.7,598.9 301.9,599.8 309.2,599.8 316.5,599.8 323.8,599.3 331.1,598.8 338.4,598.3 345.7,599.2 353.0,597.0 360.3,597.7 367.6,597.2 374.8,599.2 382.1,599.7 389.4,597.1 396.7,599.4 404.0,598.2 411.3,599.0 418.6,599.3 425.9,598.0 433.2,597.5 440.5,597.4 447.7,599.5 455.0,597.6 462.3,599.9 469.6,597.0 476.9,599.8 484.2,597.7 491.5,599.9 498.8,597.2 506.1,597.2" /><polyline points="301.4,608.3 308.5,608.9 315.5,609.6 322.5,609.7 329.6,609.5 336.6,609.7 343.6,608.5 350.7,608.4 357.7,608.2 364.7,607.1 371.8,607.5 378.8,607.5 385.8,607.1 392.9,608.4 399.9,609.7 407.0,607.6 414.0,609.1 421.0,608.5 428.1,609.0 435.1,608.7 442.1,606.9 449.2,609.6 456.2,608.7 463.2,609.5 470.3,608.6 477.3,608.6 484.4,608.1 491.4,607.3 498.4,607.5 505.5,609.2 512.5,608.7" /><polyline points="280.9,618.2 288.4,618.7 296.0,619.1 303.5,619.4 311.1,619.4 318.6,619.0 326.2,619.1 333.7,617.0 341.3,618.3 348.9,616.9 356.4,617.0 364.0,617.1 371.5,617.2 379.1,617.7 386.6,619.4 394.2,619.0 401.7,618.3 409.3,619.4 416.8,617.8 424.4,618.8 432.0,617.6 439.5,617.7 447.1,618.8 454.6,618.2 462.2,619.0 469.7,618.4 477.3,619.3 484.8,617.7 492.4,618.5 500.0,618.9 507.5,617.5" /><polyline points="311.1,628.0 318.8,628.5 326.6,629.1 334.3,629.2 342.1,628.8 349.8,628.1 357.6,628.6 365.3,627.2 373.1,627.0 380.8,626.9 388.6,627.2 396.3,628.0 404.1,627.6 411.8,628.6 419.6,629.1 427.3,628.8 435.1,627.1 442.8,628.9 450.6,628.5 458.3,628.9 466.1,629.1 473.8,628.7 481.6,629.1 489.3,627.9 497.1,628.6 504.8,628.1 512.6,628.8 520.3,628.1 528.1,629.1 535.8,627.9 543.6,627.8" /><polyline points="288.8,637.9 296.7,638.3 304.6,638.6 312.5,638.8 320.4,638.9 328.2,638.7 336.1,638.3 344.0,637.0 351.9,636.9 359.8,637.1 367.6,637.8 375.5,638.4 383.4,636.9 391.3,638.0 399.2,636.9 407.1,637.0 414.9,637.0 422.8,638.7 430.7,637.6 438.6,638.9 446.5,637.1 454.3,638.4 462.2,637.0 470.1,638.9 478.0,638.9 485.9,637.8 493.7,636.9 501.6,637.5 509.5,637.1 517.4,637.1 525.3,638.6" /><polyline points="276.2,647.8 284.3,648.2 292.4,648.4 300.5,648.7 308.6,648.7 316.7,648.5 324.8,647.4 332.9,647.4 341.0,648.3 349.2,647.9 357.3,647.8 365.4,647.4 373.5,647.7 381.6,648.5 389.7,648.0 397.8,648.3 405.9,648.7 414.0,648.5 422.1,648.7 430.2,647.3 438.3,647.0 446.4,648.4 454.6,648.6 462.7,647.2 470.8,647.0 478.9,648.6 487.0,647.9 495.1,648.7 503.2,647.8 511.3,647.6 519.4,648.6" /><polyline points="291.0,657.7 298.5,658.0 305.9,658.3 313.4,658.4 320.8,658.4 328.3,657.8 335.8,657.3 343.2,658.0 350.7,657.2 358.2,657.0 365.6,657.1 373.1,657.0 380.5,657.4 388.0,658.1 395.5,658.4 402.9,657.7 410.4,658.4 417.9,658.2 425.3,657.1 432.8,657.9 440.2,658.4 447.7,657.6 455.2,658.4 462.6,657.4 470.1,657.1 477.6,658.4 485.0,657.9 492.5,657.0 499.9,657.0 507.4,657.2 514.9,657.1" /><polyline points="303.9,667.6 310.8,667.9 317.8,668.0 324.7,668.2 331.6,668.0 338.5,668.2 345.4,667.6 352.3,667.2 359.2,667.0 366.1,667.0 373.0,667.0 379.9,667.0 386.8,667.0 393.8,667.0 400.7,668.0 407.6,668.1 414.5,667.7 421.4,668.1 428.3,668.2 435.2,667.5 442.1,667.5 449.0,668.0 455.9,667.8 462.8,667.0 469.8,668.0 476.7,667.8 483.6,668.1 490.5,667.9 497.4,667.8 504.3,668.0 511.2,667.8" /><polyline points="278.7,677.5 287.5,677.7 296.3,677.8 305.0,678.0 313.8,677.8 322.6,678.0 331.3,677.7 340.1,677.7 348.9,677.5 357.6,677.1 366.4,677.0 375.2,677.1 383.9,677.6 392.7,677.7 401.5,678.0 410.2,678.0 419.0,678.0 427.8,677.9 436.5,677.8 445.3,678.0 454.1,677.8 462.8,677.0 471.6,678.0 480.4,677.2 489.2,677.9 497.9,677.0 506.7,677.7 515.5,677.2 524.2,677.1 533.0,677.0 541.8,677.9" /><polyline points="289.9,687.4 297.9,687.5 305.9,687.7 313.9,687.7 321.9,687.7 329.9,687.6 337.9,687.1 346.0,687.2 354.0,687.3 362.0,687.1 370.0,687.1 378.0,687.0 386.0,687.7 394.0,687.0 402.1,687.3 410.1,687.6 418.1,687.7 426.1,687.7 434.1,687.4 442.1,687.4 450.1,687.5 458.2,687.6 466.2,687.7 474.2,687.1 482.2,687.0 490.2,687.5 498.2,687.0 506.2,687.7 514.2,687.7 522.3,687.7 530.3,687.7" /><polyline points="302.8,697.2 310.4,697.3 318.1,697.4 325.7,697.5 333.4,697.5 341.1,697.3 348.7,697.5 356.4,697.2 364.0,697.3 371.7,697.2 379.4,697.2 387.0,697.2 394.7,697.0 402.3,697.2 410.0,697.2 417.7,697.4 425.3,697.5 433.0,697.4 440.6,697.4 448.3,697.4 456.0,697.2 463.6,697.1 471.3,697.5 478.9,697.5 486.6,697.5 494.3,697.0 501.9,697.4 509.6,697.2 517.2,697.3 524.9,697.3 532.6,697.5" /><polyline points="286.4,707.1 294.0,707.2 301.6,707.2 309.3,707.2 316.9,707.2 324.5,707.2 332.1,707.1 339.8,707.2 347.4,707.1 355.0,707.0 362.7,707.0 370.3,707.0 377.9,707.1 385.5,707.2 393.2,707.0 400.8,707.1 408.4,707.2 416.0,707.1 423.7,707.1 431.3,707.0 438.9,707.1 446.5,707.2 454.2,707.2 461.8,707.1 469.4,707.0 477.1,707.2 484.7,707.2 492.3,707.1 499.9,707.0 507.6,707.0 515.2,707.2" /><line x1="363.3" y1="589.9" x2="365.5" y2="592.3" /><line x1="356.7" y1="583.8" x2="353.1" y2="587.0" /><line x1="368.8" y1="562.9" x2="364.6" y2="565.5" /><line x1="407.0" y1="557.7" x2="404.0" y2="558.1" /><line x1="395.7" y1="575.6" x2="393.9" y2="577.1" /><line x1="386.9" y1="578.4" x2="384.5" y2="578.5" /><line x1="397.3" y1="581.8" x2="400.4" y2="582.0" /><line x1="365.8" y1="569.2" x2="363.1" y2="570.6" /><line x1="366.0" y1="578.4" x2="369.1" y2="578.9" /><line x1="370.9" y1="559.9" x2="370.7" y2="563.5" /><line x1="358.9" y1="555.3" x2="357.1" y2="559.8" /><line x1="360.6" y1="570.5" x2="364.5" y2="573.1" /><line x1="393.6" y1="578.6" x2="391.1" y2="581.9" /><line x1="355.2" y1="569.1" x2="352.9" y2="571.7" /><line x1="368.5" y1="585.2" x2="367.2" y2="587.4" /><line x1="387.4" y1="586.3" x2="389.8" y2="591.8" /><line x1="401.4" y1="562.6" x2="405.7" y2="563.4" /><line x1="393.1" y1="572.6" x2="391.6" y2="575.6" /></g><g id="03_Gold_Impact" inkscape:groupmode="layer" inkscape:label="03_Gold_Impact" stroke="#B8960C" fill="none" stroke-width="0.875" stroke-linecap="round" stroke-linejoin="round"><line x1="383.1" y1="537.8" x2="383.1" y2="543.8" /><circle cx="383.1" cy="536.3" r="1.2" /><line x1="376.9" y1="537.0" x2="376.9" y2="543.0" /><circle cx="376.9" cy="535.5" r="1.2" /><line x1="360.4" y1="538.1" x2="360.4" y2="544.1" /><circle cx="360.4" cy="536.6" r="1.2" /><line x1="359.9" y1="536.8" x2="359.9" y2="542.8" /><circle cx="359.9" cy="535.3" r="1.2" /><line x1="357.6" y1="537.5" x2="357.6" y2="543.5" /><circle cx="357.6" cy="536.0" r="1.2" /><line x1="346.3" y1="536.8" x2="346.3" y2="542.8" /><circle cx="346.3" cy="535.3" r="1.2" /><line x1="322.5" y1="536.8" x2="322.5" y2="542.8" /><circle cx="322.5" cy="535.3" r="1.2" /><line x1="432.9" y1="536.9" x2="432.9" y2="542.9" /><circle cx="432.9" cy="535.4" r="1.2" /><line x1="440.1" y1="537.5" x2="440.1" y2="543.5" /><circle cx="440.1" cy="536.0" r="1.2" /><line x1="446.3" y1="538.7" x2="446.3" y2="544.7" /><circle cx="446.3" cy="537.2" r="1.2" /><line x1="457.3" y1="537.5" x2="457.3" y2="543.5" /><circle cx="457.3" cy="536.0" r="1.2" /><line x1="468.3" y1="538.5" x2="468.3" y2="544.5" /><circle cx="468.3" cy="537.0" r="1.2" /><line x1="379.1" y1="542.3" x2="394.1" y2="541.7" /><line x1="382.4" y1="543.2" x2="391.3" y2="544.4" /><line x1="382.4" y1="546.0" x2="409.5" y2="561.5" /><line x1="379.1" y1="544.5" x2="408.4" y2="564.9" /><line x1="380.1" y1="546.6" x2="389.1" y2="556.0" /><line x1="378.4" y1="546.3" x2="395.4" y2="575.1" /><line x1="377.8" y1="548.5" x2="386.8" y2="579.3" /><line x1="376.2" y1="547.8" x2="376.6" y2="573.7" /><line x1="375.0" y1="550.2" x2="371.4" y2="577.0" /><line x1="373.9" y1="546.9" x2="363.4" y2="568.7" /><line x1="371.6" y1="547.9" x2="365.1" y2="555.8" /><line x1="370.2" y1="546.7" x2="345.4" y2="565.1" /><line x1="371.2" y1="544.7" x2="342.1" y2="558.4" /><line x1="369.3" y1="544.3" x2="344.5" y2="551.0" /><line x1="371.9" y1="542.8" x2="353.3" y2="544.7" /><line x1="371.6" y1="541.2" x2="361.3" y2="538.5" /><line x1="373.1" y1="540.6" x2="349.4" y2="526.5" /><line x1="373.5" y1="540.7" x2="355.0" y2="528.3" /><line x1="372.4" y1="537.4" x2="362.4" y2="523.5" /><line x1="372.9" y1="535.3" x2="365.4" y2="518.7" /><line x1="374.4" y1="536.4" x2="371.1" y2="524.8" /><line x1="376.1" y1="539.4" x2="376.1" y2="504.7" /><line x1="377.1" y1="537.6" x2="379.5" y2="526.5" /><line x1="377.6" y1="538.9" x2="383.5" y2="525.7" /><line x1="379.6" y1="537.4" x2="393.3" y2="518.0" /><line x1="380.3" y1="538.8" x2="390.2" y2="530.3" /><line x1="381.1" y1="539.7" x2="404.9" y2="527.1" /><line x1="380.4" y1="541.6" x2="391.3" y2="539.7" /></g></svg>