<?xml version='1.0' encoding='utf-8'?>
<svg xmlns="http://www.w3.org/2000/svg" xmlns:inkscape="http://www.inkscape.org/namespaces/inkscape" viewBox="204 228 408 600"><style>*{vector-effect:non-scaling-stroke}</style><g id="01_Black_Frame" inkscape:groupmode="layer" inkscape:label="01_Black_Frame" stroke="#1A1A1A" fill="none" stroke-width="0.875" stroke-linecap="round" stroke-linejoin="round"><path d="M 250.0,264.0 L 566.0,264.0 Q 576.0,264.0 576.0,274.0 L 576.0,782.0 Q 576.0,792.0 566.0,792.0 L 250.0,792.0 Q 240.0,792.0 240.0,782.0 L 240.0,274.0 Q 240.0,264.0 250.0,264.0" /><path d="M 253.0,270.0 L 563.0,270.0 Q 570.0,270.0 570.0,277.0 L 570.0,779.0 Q 570.0,786.0 563.0,786.0 L 253.0,786.0 Q 246.0,786.0 246.0,779.0 L 246.0,277.0 Q 246.0,270.0 253.0,270.0" /><line x1="259.0" y1="280.0" x2="263.0" y2="280.0" /><line x1="258.1" y1="282.1" x2="260.9" y2="284.9" /><line x1="256.0" y1="283.0" x2="256.0" y2="287.0" /><line x1="253.9" y1="282.1" x2="251.1" y2="284.9" /><line x1="253.0" y1="280.0" x2="249.0" y2="280.0" /><line x1="253.9" y1="277.9" x2="251.1" y2="275.1" /><line x1="256.0" y1="277.0" x2="256.0" y2="273.0" /><line x1="258.1" y1="277.9" x2="260.9" y2="275.1" /><line x1="563.0" y1="280.0" x2="567.0" y2="280.0" /><line x1="562.1" y1="282.1" x2="564.9" y2="284.9" /><line x1="560.0" y1="283.0" x2="560.0" y2="287.0" /><line x1="557.9" y1="282.1" x2="555.1" y2="284.9" /><line x1="557.0" y1="280.0" x2="553.0" y2="280.0" /><line x1="557.9" y1="277.9" x2="555.1" y2="275.1" /><line x1="560.0" y1="277.0" x2="560.0" y2="273.0" /><line x1="562.1" y1="277.9" x2="564.9" y2="275.1" /><line x1="259.0" y1="776.0" x2="263.0" y2="776.0" /><line x1="258.1" y1="778.1" x2="260.9" y2="780.9" /><line x1="256.0" y1="779.0" x2="256.0" y2="783.0" /><line x1="253.9" y1="778.1" x2="251.1" y2="780.9" /><line x1="253.0" y1="776.0" x2="249.0" y2="776.0" /><line x1="253.9" y1="773.9" x2="251.1" y2="771.1" /><line x1="256.0" y1="773.0" x2="256.0" y2="769.0" /><line x1="258.1" y1="773.9" x2="260.9" y2="771.1" /><line x1="563.0" y1="776.0" x2="567.0" y2="776.0" /><line x1="562.1" y1="778.1" x2="564.9" y2="780.9" /><line x1="560.0" y1="779.0" x2="560.0" y2="783.0" /><line x1="557.9" y1="778.1" x2="555.1" y2="780.9" /><line x1="557.0" y1="776.0" x2="553.0" y2="776.0" /><line x1="557.9" y1="773.9" x2="555.1" y2="771.1" /><line x1="560.0" y1="773.0" x2="560.0" y2="769.0" /><line x1="562.1" y1="773.9" x2="564.9" y2="771.1" /><polyline points="399.38,282.00 404.38,290.00" /><polyline points="404.38,282.00 399.38,290.00" /><polyline points="409.62,283.20 407.88,282.00 406.88,282.00 405.12,283.60 405.12,288.40 406.88,290.00 407.88,290.00 409.62,288.80" /><polyline points="410.88,282.00 413.38,290.00 415.88,282.00" /><polyline points="374.36,297.00 380.86,297.00" /><polyline points="377.61,297.00 377.61,307.00" /><polyline points="381.84,297.00 381.84,307.00" /><polyline points="388.34,297.00 388.34,307.00" /><polyline points="381.84,301.80 388.34,301.80" /><polyline points="394.84,297.00 389.31,297.00 389.31,301.80 393.21,301.80" /><polyline points="389.31,301.80 389.31,307.00 394.84,307.00" /><polyline points="404.26,307.00 404.26,297.00 408.49,297.00 410.11,298.50 410.11,300.20 408.49,301.50 404.26,301.50 410.11,307.00" /><polyline points="414.99,297.00 414.99,307.00" /><polyline points="424.74,298.00 423.11,297.00 421.16,297.00 419.54,298.50 419.21,300.00 420.19,301.20 422.46,302.00 424.74,302.80 425.71,304.00 425.39,305.50 423.76,307.00 421.49,307.00 419.86,306.00" /><polyline points="432.21,297.00 426.69,297.00 426.69,301.80 430.59,301.80" /><polyline points="426.69,301.80 426.69,307.00 432.21,307.00" /><polyline points="434.16,307.00 434.16,297.00 440.66,307.00 440.66,297.00" /><line x1="270.0" y1="312.0" x2="546.0" y2="312.0" /><line x1="270.0" y1="732.0" x2="546.0" y2="732.0" /><polyline points="362.92,745.25 362.92,740.75 364.74,740.75 365.44,741.42 365.44,742.19 364.74,742.77 362.92,742.77 365.44,745.25" /><polyline points="368.52,740.75 366.14,740.75 366.14,742.91 367.82,742.91" /><polyline points="366.14,742.91 366.14,745.25 368.52,745.25" /><polyline points="371.74,741.20 371.04,740.75 370.20,740.75 369.50,741.42 369.36,742.10 369.78,742.64 370.76,743.00 371.74,743.36 372.16,743.90 372.02,744.58 371.32,745.25 370.34,745.25 369.64,744.80" /><polyline points="375.10,741.42 374.12,740.75 373.56,740.75 372.58,741.65 372.58,744.35 373.56,745.25 374.12,745.25 375.10,744.58" /><polyline points="375.80,740.75 375.80,744.12 376.36,745.02 378.04,745.02 378.60,744.12 378.60,740.75" /><polyline points="381.40,740.75 379.02,740.75 379.02,742.91 380.70,742.91" /><polyline points="379.02,742.91 379.02,745.25 381.40,745.25" /><polyline points="388.68,745.25 388.68,740.75 390.50,740.75 391.20,741.42 391.20,742.19 390.50,742.77 388.68,742.77 391.20,745.25" /><polyline points="391.90,745.25 393.30,740.75 394.70,745.25" /><polyline points="392.40,743.67 394.20,743.67" /><polyline points="397.64,741.42 396.66,740.75 396.10,740.75 395.12,741.65 395.12,744.35 396.10,745.25 396.66,745.25 397.64,744.58 397.64,743.00 396.52,743.00" /><polyline points="400.72,740.75 398.34,740.75 398.34,742.91 400.02,742.91" /><polyline points="398.34,742.91 398.34,745.25 400.72,745.25" /><polyline points="410.38,740.75 408.00,740.75 408.00,742.91 409.68,742.91" /><polyline points="408.00,742.91 408.00,745.25 410.38,745.25" /><polyline points="411.22,745.25 412.62,740.75 414.02,745.25" /><polyline points="411.72,743.67 413.52,743.67" /><polyline points="416.82,741.20 416.12,740.75 415.28,740.75 414.58,741.42 414.44,742.10 414.86,742.64 415.84,743.00 416.82,743.36 417.24,743.90 417.10,744.58 416.40,745.25 415.42,745.25 414.72,744.80" /><polyline points="417.66,740.75 420.46,740.75" /><polyline points="419.06,740.75 419.06,745.25" /><polyline points="423.26,740.75 420.88,740.75 420.88,742.91 422.56,742.91" /><polyline points="420.88,742.91 420.88,745.25 423.26,745.25" /><polyline points="424.10,745.25 424.10,740.75 425.92,740.75 426.62,741.42 426.62,742.19 425.92,742.77 424.10,742.77 426.62,745.25" /><polyline points="436.14,741.20 435.44,740.75 434.60,740.75 433.90,741.42 433.76,742.10 434.18,742.64 435.16,743.00 436.14,743.36 436.56,743.90 436.42,744.58 435.72,745.25 434.74,745.25 434.04,744.80" /><polyline points="436.98,740.75 439.78,740.75" /><polyline points="438.38,740.75 438.38,745.25" /><polyline points="440.20,745.25 440.20,740.75 442.02,740.75 442.72,741.42 442.72,742.19 442.02,742.77 440.20,742.77 442.72,745.25" /><polyline points="444.82,740.75 444.82,745.25" /><polyline points="446.64,740.75 446.64,745.25" /><polyline points="449.16,740.75 446.64,743.00 449.16,745.25" /><polyline points="452.24,740.75 449.86,740.75 449.86,742.91 451.54,742.91" /><polyline points="449.86,742.91 449.86,745.25 452.24,745.25" /><polyline points="317.38,754.00 316.12,753.25 314.62,753.25 313.38,754.38 313.12,755.50 313.88,756.40 315.62,757.00 317.38,757.60 318.12,758.50 317.88,759.62 316.62,760.75 314.88,760.75 313.62,760.00" /><polyline points="321.38,753.25 319.38,754.00 318.88,755.50 318.88,758.50 319.38,760.00 321.38,760.75 323.38,760.00 323.88,758.50 323.88,755.50 323.38,754.00 321.38,753.25" /><polyline points="324.62,760.75 324.62,753.25 327.12,757.38 329.62,753.25 329.62,760.75" /><polyline points="334.62,753.25 330.38,753.25 330.38,756.85 333.38,756.85" /><polyline points="330.38,756.85 330.38,760.75 334.62,760.75" /><polyline points="338.62,753.25 336.62,754.00 336.12,755.50 336.12,758.50 336.62,760.00 338.62,760.75 340.62,760.00 341.12,758.50 341.12,755.50 340.62,754.00 338.62,753.25" /><polyline points="341.88,760.75 341.88,753.25 346.88,760.75 346.88,753.25" /><polyline points="351.88,753.25 347.62,753.25 347.62,756.85 350.62,756.85" /><polyline points="347.62,756.85 347.62,760.75 351.88,760.75" /><polyline points="363.62,754.38 361.88,753.25 360.88,753.25 359.12,754.75 359.12,759.25 360.88,760.75 361.88,760.75 363.62,759.62" /><polyline points="364.88,760.75 367.38,753.25 369.88,760.75" /><polyline points="365.77,758.12 368.98,758.12" /><polyline points="370.62,760.75 370.62,753.25 373.12,757.38 375.62,753.25 375.62,760.75" /><polyline points="380.62,753.25 376.38,753.25 376.38,756.85 379.38,756.85" /><polyline points="376.38,756.85 376.38,760.75 380.62,760.75" /><polyline points="387.88,760.75 387.88,753.25 391.12,753.25 392.12,754.15 392.12,755.35 391.12,756.25 387.88,756.25 391.12,756.25 392.12,757.15 392.12,759.85 391.12,760.75 387.88,760.75" /><polyline points="393.62,760.75 396.12,753.25 398.62,760.75" /><polyline points="394.52,758.12 397.73,758.12" /><polyline points="403.88,754.38 402.12,753.25 401.12,753.25 399.38,754.75 399.38,759.25 401.12,760.75 402.12,760.75 403.88,759.62" /><polyline points="405.12,753.25 405.12,760.75" /><polyline points="409.62,753.25 405.12,757.00 409.62,760.75" /><polyline points="420.88,753.25 416.62,753.25 416.62,756.85 419.62,756.85" /><polyline points="416.62,756.85 416.62,760.75" /><polyline points="422.38,760.75 422.38,753.25 425.62,753.25 426.88,754.38 426.88,755.65 425.62,756.62 422.38,756.62 426.88,760.75" /><polyline points="430.62,753.25 428.62,754.00 428.12,755.50 428.12,758.50 428.62,760.00 430.62,760.75 432.62,760.00 433.12,758.50 433.12,755.50 432.62,754.00 430.62,753.25" /><polyline points="433.88,760.75 433.88,753.25 436.38,757.38 438.88,753.25 438.88,760.75" /><polyline points="445.38,753.25 450.38,753.25" /><polyline points="447.88,753.25 447.88,760.75" /><polyline points="451.12,753.25 451.12,760.75" /><polyline points="456.12,753.25 456.12,760.75" /><polyline points="451.12,756.85 456.12,756.85" /><polyline points="461.12,753.25 456.88,753.25 456.88,756.85 459.88,756.85" /><polyline points="456.88,756.85 456.88,760.75 461.12,760.75" /><polyline points="472.88,754.38 471.12,753.25 470.12,753.25 468.38,754.75 468.38,759.25 470.12,760.75 471.12,760.75 472.88,759.62 472.88,757.00 470.88,757.00" /><polyline points="474.12,760.75 474.12,753.25 477.38,753.25 478.62,754.38 478.62,755.65 477.38,756.62 474.12,756.62 478.62,760.75" /><polyline points="482.38,753.25 480.38,754.00 479.88,755.50 479.88,758.50 480.38,760.00 482.38,760.75 484.38,760.00 484.88,758.50 484.88,755.50 484.38,754.00 482.38,753.25" /><polyline points="485.62,753.25 485.62,758.88 486.62,760.38 489.62,760.38 490.62,758.88 490.62,753.25" /><polyline points="491.38,760.75 491.38,753.25 496.38,760.75 496.38,753.25" /><polyline points="497.12,760.75 497.12,753.25 499.88,753.25 501.62,755.12 501.62,758.88 499.88,760.75 497.12,760.75" /><polyline points="359.12,773.75 359.12,766.25 364.12,773.75 364.12,766.25" /><polyline points="367.38,766.25 365.38,767.00 364.88,768.50 364.88,771.50 365.38,773.00 367.38,773.75 369.38,773.00 369.88,771.50 369.88,768.50 369.38,767.00 367.38,766.25" /><polyline points="370.62,766.25 375.62,766.25" /><polyline points="373.12,766.25 373.12,773.75" /><polyline points="386.38,766.25 382.12,766.25 382.12,769.85 385.12,769.85" /><polyline points="382.12,769.85 382.12,773.75 386.38,773.75" /><polyline points="387.88,766.25 390.38,773.75 392.88,766.25" /><polyline points="397.88,766.25 393.62,766.25 393.62,769.85 396.62,769.85" /><polyline points="393.62,769.85 393.62,773.75 397.88,773.75" /><polyline points="399.38,773.75 399.38,766.25 402.62,766.25 403.88,767.38 403.88,768.65 402.62,769.62 399.38,769.62 403.88,773.75" /><polyline points="405.12,766.25 407.62,770.00 410.12,766.25" /><polyline points="407.62,770.00 407.62,773.75" /><polyline points="413.38,766.25 411.38,767.00 410.88,768.50 410.88,771.50 411.38,773.00 413.38,773.75 415.38,773.00 415.88,771.50 415.88,768.50 415.38,767.00 413.38,766.25" /><polyline points="416.62,773.75 416.62,766.25 421.62,773.75 421.62,766.25" /><polyline points="426.62,766.25 422.38,766.25 422.38,769.85 425.38,769.85" /><polyline points="422.38,769.85 422.38,773.75 426.62,773.75" /><polyline points="433.88,773.75 433.88,766.25 436.62,766.25 438.38,768.12 438.38,771.88 436.62,773.75 433.88,773.75" /><polyline points="442.12,766.25 440.12,767.00 439.62,768.50 439.62,771.50 440.12,773.00 442.12,773.75 444.12,773.00 444.62,771.50 444.62,768.50 444.12,767.00 442.12,766.25" /><polyline points="449.62,766.25 445.38,766.25 445.38,769.85 448.38,769.85" /><polyline points="445.38,769.85 445.38,773.75 449.62,773.75" /><polyline points="455.38,767.00 454.12,766.25 452.62,766.25 451.38,767.38 451.12,768.50 451.88,769.40 453.62,770.00 455.38,770.60 456.12,771.50 455.88,772.62 454.62,773.75 452.88,773.75 451.62,773.00" /><polyline points="389.36,779.50 389.36,784.50" /><polyline points="391.44,779.50 393.04,784.50 394.64,779.50" /><polyline points="396.72,784.00 396.72,784.25" /><polyline points="398.80,779.50 400.40,784.50 402.00,779.50" /><polyline points="404.08,784.00 404.08,784.25" /><polyline points="406.16,784.50 406.16,779.50 407.76,782.25 409.36,779.50 409.36,784.50" /><polyline points="409.84,784.50 409.84,779.50 411.44,782.25 413.04,779.50 413.04,784.50" /><polyline points="413.52,779.50 416.72,784.50" /><polyline points="416.72,779.50 413.52,784.50" /><polyline points="417.20,779.50 420.40,784.50" /><polyline points="420.40,779.50 417.20,784.50" /><polyline points="420.88,779.50 422.48,784.50 424.08,779.50" /><polyline points="426.16,779.50 426.16,784.50" /></g><g id="02_Teal_Lines" inkscape:groupmode="layer" inkscape:label="02_Teal_Lines" stroke="#3A7A7A" fill="none" stroke-width="0.625" stroke-linecap="round" stroke-linejoin="round"><polyline points="260.00,724.00 260.29,720.17 260.60,716.35 260.85,712.52 260.96,708.70 260.87,704.88 260.57,701.05 260.10,697.23 259.53,693.40 258.97,689.58 258.55,685.75 258.38,681.92 258.52,678.10 258.98,674.27 259.70,670.45 260.55,666.62 261.38,662.80" /><polyline points="264.03,724.00 264.07,720.03 264.11,716.07 264.15,712.10 264.19,708.13 264.21,704.17 264.24,700.20 264.26,696.24 264.27,692.27 264.28,688.30 264.27,684.34 264.27,680.37 264.25,676.40 264.23,672.44 264.20,668.47 264.16,664.50 264.11,660.54 264.06,656.57 264.00,652.61 263.93,648.64 263.86,644.67 263.78,640.71 263.69,636.74 263.60,632.77 263.51,628.81 263.41,624.84 263.31,620.87 263.21,616.91 263.11,612.94 263.01,608.97 262.91,605.01 262.81,601.04 262.71,597.08 262.62,593.11 262.53,589.14 262.45,585.18 262.38,581.21 262.31,577.24 262.25,573.28 262.20,569.31 262.16,565.34 262.14,561.38 262.12,557.41 262.11,553.45 262.12,549.48 262.14,545.51 262.17,541.55 262.21,537.58 262.26,533.61 262.33,529.65 262.41,525.68 262.50,521.71 262.60,517.75 262.71,513.78 262.83,509.82 262.96,505.85 263.10,501.88 263.24,497.92 263.39,493.95 263.54,489.98 263.70,486.02 263.86,482.05 264.02,478.08 264.18,474.12 264.34,470.15 264.49,466.19 264.64,462.22 264.78,458.25 264.92,454.29 265.04,450.32 265.16,446.35 265.27,442.39 265.36,438.42 265.44,434.45 265.50,430.49 265.55,426.52 265.58,422.55 265.60,418.59 265.60,414.62" /><polyline points="267.59,724.00 267.58,720.06 267.56,716.12 267.53,712.18 267.50,708.24 267.45,704.30 267.39,700.36 267.33,696.41 267.26,692.47 267.17,688.53 267.09,684.59 266.99,680.65 266.90,676.71 266.80,672.77 266.70,668.83 266.59,664.89 266.49,660.95 266.39,657.01 266.30,653.07 266.21,649.13 266.12,645.19 266.05,641.24 265.98,637.30 265.93,633.36 265.89,629.42 265.86,625.48 265.85,621.54 265.85,617.60 265.87,613.66 265.90,609.72 265.95,605.78 266.01,601.84 266.10,597.90 266.19,593.96 266.30,590.01 266.42,586.07 266.56,582.13 266.70,578.19 266.86,574.25 267.02,570.31 267.19,566.37 267.36,562.43 267.53,558.49 267.70,554.55 267.87,550.61 268.03,546.67 268.19,542.73 268.33,538.78 268.47,534.84 268.59,530.90 268.69,526.96 268.78,523.02 268.84,519.08 268.89,515.14 268.91,511.20 268.91,507.26 268.89,503.32 268.85,499.38 268.78,495.44 268.69,491.50 268.57,487.56 268.44,483.61 268.28,479.67 268.10,475.73 267.91,471.79" /><polyline points="270.66,724.00 270.55,720.09 270.43,716.17 270.30,712.26 270.17,708.34 270.04,704.43 269.92,700.52 269.81,696.60 269.71,692.69 269.64,688.77 269.60,684.86 269.58,680.95 269.60,677.03 269.65,673.12 269.74,669.21 269.86,665.29 270.01,661.38 270.20,657.46 270.40,653.55 270.63,649.64 270.86,645.72 271.10,641.81 271.34,637.89 271.56,633.98 271.76,630.07 271.94,626.15 272.07,622.24 272.17,618.32 272.22,614.41 272.22,610.50 272.16,606.58 272.05,602.67 271.89,598.75 271.68,594.84 271.43,590.93 271.14,587.01 270.81,583.10 270.47,579.18 270.12,575.27 269.77,571.36 269.43,567.44" /><polyline points="273.64,724.00 273.43,720.17 273.32,716.35 273.37,712.52 273.60,708.70 273.99,704.88 274.48,701.05 274.98,697.23 275.36,693.40 275.53,689.58 275.43,685.75 275.03,681.92 274.40,678.10 273.62,674.27 272.86,670.45 272.27,666.62 272.00,662.80" /><polyline points="277.04,724.00 277.05,720.04 277.08,716.09 277.14,712.13 277.23,708.18 277.34,704.22 277.47,700.27 277.62,696.31 277.79,692.35 277.97,688.40 278.15,684.44 278.32,680.49 278.48,676.53 278.62,672.58 278.73,668.62 278.81,664.67 278.85,660.71 278.84,656.75 278.79,652.80 278.70,648.84 278.56,644.89 278.37,640.93 278.15,636.98 277.90,633.02 277.62,629.06 277.33,625.11 277.04,621.15 276.75,617.20 276.48,613.24 276.23,609.29 276.03,605.33 275.87,601.38 275.77,597.42 275.72,593.46 275.75,589.51 275.84,585.55 275.99,581.60 276.21,577.64 276.49,573.69" /><polyline points="280.98,724.00 281.25,720.17 281.58,716.35 281.90,712.52 282.11,708.70 282.15,704.88 281.98,701.05 281.59,697.23 281.04,693.40 280.43,689.58 279.89,685.75 279.54,681.92 279.47,678.10 279.74,674.27 280.33,670.45 281.14,666.62 282.03,662.80" /><polyline points="285.06,724.00 285.30,720.17 285.45,716.35 285.46,712.52 285.28,708.70 284.92,704.88 284.44,701.05 283.92,697.23 283.48,693.40 283.23,689.58 283.24,685.75 283.55,681.92 284.13,678.10 284.89,674.27 285.68,670.45 286.35,666.62 286.75,662.80" /><polyline points="288.78,724.00 288.79,720.03 288.74,716.06 288.64,712.09 288.47,708.12 288.26,704.15 288.01,700.18 287.74,696.21 287.48,692.24 287.25,688.27 287.07,684.30 286.96,680.33 286.93,676.36 287.01,672.39 287.18,668.42 287.45,664.45 287.80,660.48 288.21,656.51 288.64,652.54 289.08,648.57 289.47,644.60 289.79,640.63 290.02,636.66 290.11,632.69 290.07,628.72 289.88,624.75 289.56,620.78" /><polyline points="291.96,724.00 291.86,720.04 291.75,716.09 291.61,712.13 291.47,708.17 291.31,704.22 291.16,700.26 291.02,696.31 290.90,692.35 290.79,688.39 290.71,684.44 290.67,680.48 290.67,676.52 290.71,672.57 290.79,668.61 290.91,664.66 291.07,660.70 291.27,656.74 291.50,652.79 291.75,648.83 292.02,644.87 292.29,640.92 292.55,636.96 292.80,633.01 293.02,629.05 293.20,625.09 293.33,621.14 293.41,617.18 293.43,613.22 293.38,609.27 293.27,605.31 293.10,601.35 292.87,597.40 292.58,593.44 292.25,589.49 291.89,585.53 291.50,581.57 291.11,577.62" /><polyline points="294.91,724.00 294.65,720.17 294.46,716.35 294.40,712.52 294.53,708.70 294.84,704.88 295.31,701.05 295.84,697.23 296.32,693.40 296.65,689.58 296.73,685.75 296.51,681.92 296.00,678.10 295.28,674.27 294.46,670.45 293.72,666.62 293.22,662.80" /><polyline points="298.16,724.00 298.13,720.17 298.26,716.35 298.54,712.52 298.94,708.70 299.38,704.88 299.78,701.05 300.01,697.23 300.02,693.40 299.77,689.58 299.26,685.75 298.59,681.92 297.87,678.10 297.25,674.27 296.87,670.45 296.84,666.62 297.18,662.80" /><polyline points="301.96,724.00 302.01,720.05 302.07,716.10 302.14,712.14 302.21,708.19 302.29,704.24 302.38,700.29 302.47,696.33 302.56,692.38 302.66,688.43 302.75,684.48 302.84,680.52 302.93,676.57 303.02,672.62 303.10,668.67 303.17,664.71 303.23,660.76 303.29,656.81 303.33,652.86 303.35,648.90 303.36,644.95 303.36,641.00 303.34,637.05 303.31,633.09 303.26,629.14 303.19,625.19 303.11,621.24 303.01,617.28 302.90,613.33 302.77,609.38 302.64,605.43 302.49,601.47 302.34,597.52 302.17,593.57 302.01,589.62 301.84,585.66 301.68,581.71 301.51,577.76 301.35,573.81 301.20,569.85 301.06,565.90 300.94,561.95 300.82,558.00 300.73,554.04 300.65,550.09 300.59,546.14 300.55,542.19 300.54,538.23 300.55,534.28 300.59,530.33 300.65,526.38 300.73,522.42 300.83,518.47 300.96,514.52 301.11,510.57 301.29,506.61 301.47,502.66 301.68,498.71 301.90,494.76 302.12,490.80 302.36,486.85 302.60,482.90" /><polyline points="306.06,724.00 306.19,720.01 306.31,716.01 306.43,712.02 306.53,708.02 306.61,704.03 306.66,700.04 306.68,696.04 306.66,692.05 306.61,688.06 306.51,684.06 306.38,680.07 306.21,676.07 306.01,672.08 305.79,668.09 305.56,664.09 305.31,660.10 305.07,656.10 304.85,652.11 304.65,648.12 304.48,644.12 304.36,640.13 304.29,636.13 304.28,632.14 304.33,628.15 304.44,624.15 304.61,620.16 304.84,616.17 305.11,612.17 305.43,608.18 305.78,604.18 306.14,600.19 306.51,596.20 306.87,592.20 307.20,588.21 307.49,584.21 307.73,580.22" /><polyline points="309.93,724.00 309.97,720.08 310.00,716.16 309.99,712.24 309.95,708.32 309.88,704.40 309.77,700.48 309.64,696.56 309.48,692.64 309.29,688.72 309.10,684.79 308.89,680.87 308.69,676.95 308.50,673.03 308.33,669.11 308.19,665.19 308.08,661.27 308.03,657.35 308.02,653.43 308.06,649.51 308.16,645.59 308.31,641.67 308.51,637.75 308.76,633.83 309.04,629.91 309.35,625.99 309.68,622.07 310.01,618.15 310.32,614.22 310.62,610.30 310.87,606.38 311.08,602.46 311.23,598.54 311.31,594.62 311.31,590.70 311.24,586.78 311.09,582.86" /><polyline points="313.25,724.00 313.21,720.04 313.17,716.07 313.13,712.11 313.07,708.14 313.02,704.18 312.95,700.21 312.88,696.25 312.81,692.29 312.74,688.32 312.66,684.36 312.58,680.39 312.49,676.43 312.41,672.46 312.33,668.50 312.25,664.53 312.17,660.57 312.10,656.61 312.03,652.64 311.97,648.68 311.91,644.71 311.86,640.75 311.82,636.78 311.79,632.82 311.76,628.86 311.75,624.89 311.75,620.93 311.76,616.96 311.78,613.00 311.81,609.03 311.85,605.07 311.91,601.10 311.97,597.14 312.05,593.18 312.14,589.21 312.23,585.25 312.34,581.28 312.45,577.32 312.58,573.35 312.70,569.39 312.84,565.43 312.98,561.46 313.12,557.50 313.26,553.53 313.40,549.57 313.54,545.60 313.68,541.64 313.81,537.68 313.94,533.71 314.06,529.75 314.18,525.78 314.28,521.82 314.37,517.85 314.45,513.89 314.52,509.92 314.57,505.96 314.61,502.00 314.63,498.03 314.63,494.07 314.62,490.10 314.59,486.14 314.54,482.17 314.48,478.21 314.40,474.25 314.30,470.28 314.19,466.32 314.06,462.35 313.92,458.39 313.76,454.42 313.60,450.46 313.42,446.49 313.23,442.53 313.04,438.57 312.84,434.60" /><polyline points="316.21,724.00 316.13,720.03 316.06,716.07 315.98,712.10 315.90,708.14 315.83,704.17 315.76,700.20 315.69,696.24 315.64,692.27 315.58,688.30 315.54,684.34 315.51,680.37 315.49,676.41 315.48,672.44 315.49,668.47 315.51,664.51 315.54,660.54 315.58,656.57 315.64,652.61 315.72,648.64 315.81,644.68 315.91,640.71 316.02,636.74 316.14,632.78 316.27,628.81 316.40,624.84 316.55,620.88 316.69,616.91 316.84,612.95 316.99,608.98 317.13,605.01 317.27,601.05 317.40,597.08 317.52,593.12 317.63,589.15 317.72,585.18 317.80,581.22 317.87,577.25 317.91,573.28 317.94,569.32 317.94,565.35 317.92,561.39 317.89,557.42 317.82,553.45 317.74,549.49 317.64,545.52 317.51,541.55 317.37,537.59 317.21,533.62 317.03,529.66 316.84,525.69 316.64,521.72 316.43,517.76 316.21,513.79 315.99,509.83 315.77,505.86 315.55,501.89 315.34,497.93 315.13,493.96 314.94,489.99 314.76,486.03 314.60,482.06" /><polyline points="319.33,724.00 319.27,720.08 319.23,716.17 319.21,712.25 319.22,708.33 319.25,704.42 319.31,700.50 319.40,696.59 319.51,692.67 319.65,688.75 319.81,684.84 319.98,680.92 320.16,677.00 320.35,673.09 320.54,669.17 320.72,665.26 320.88,661.34 321.02,657.42 321.13,653.51 321.21,649.59 321.25,645.67 321.25,641.76 321.20,637.84 321.11,633.93 320.97,630.01 320.79,626.09 320.58,622.18 320.33,618.26 320.05,614.34 319.76,610.43 319.46,606.51 319.16,602.60 318.88,598.68 318.61,594.76 318.37,590.85 318.17,586.93 318.02,583.01 317.92,579.10 317.89,575.18 317.91,571.27 318.00,567.35" /><polyline points="322.98,724.00 323.03,720.07 323.11,716.14 323.21,712.21 323.33,708.28 323.47,704.36 323.62,700.43 323.77,696.50 323.93,692.57 324.08,688.64 324.23,684.71 324.35,680.78 324.45,676.85 324.52,672.92 324.56,668.99 324.56,665.07 324.52,661.14 324.44,657.21 324.32,653.28 324.16,649.35 323.96,645.42 323.74,641.49 323.49,637.56 323.23,633.63 322.95,629.70 322.69,625.78 322.43,621.85 322.19,617.92 321.99,613.99 321.82,610.06 321.70,606.13 321.64,602.20 321.63,598.27 321.68,594.34 321.79,590.41 321.97,586.49 322.19,582.56 322.47,578.63 322.80,574.70 323.15,570.77" /><polyline points="327.04,724.00 327.34,720.17 327.63,716.35 327.83,712.52 327.87,708.70 327.72,704.88 327.37,701.05 326.86,697.23 326.29,693.40 325.78,689.58 325.44,685.75 325.37,681.92 325.62,678.10 326.17,674.27 326.94,670.45 327.79,666.62 328.55,662.80" /><polyline points="331.02,724.00 331.06,720.02 331.10,716.03 331.13,712.05 331.15,708.07 331.17,704.08 331.19,700.10 331.20,696.12 331.20,692.13 331.19,688.15 331.18,684.16 331.16,680.18 331.13,676.20 331.09,672.21 331.05,668.23 331.00,664.25 330.94,660.26 330.88,656.28 330.81,652.30 330.73,648.31 330.65,644.33 330.56,640.35 330.47,636.36 330.37,632.38 330.27,628.40 330.17,624.41 330.07,620.43 329.97,616.45 329.87,612.46 329.78,608.48 329.68,604.49 329.59,600.51 329.50,596.53 329.42,592.54 329.35,588.56 329.29,584.58 329.23,580.59 329.18,576.61 329.14,572.63 329.12,568.64 329.10,564.66 329.10,560.68 329.10,556.69 329.12,552.71 329.16,548.73 329.20,544.74 329.26,540.76 329.33,536.77 329.41,532.79 329.50,528.81 329.60,524.82 329.72,520.84 329.84,516.86 329.97,512.87 330.11,508.89 330.25,504.91 330.41,500.92 330.56,496.94 330.72,492.96 330.88,488.97 331.04,484.99 331.19,481.01 331.35,477.02 331.50,473.04 331.65,469.05 331.78,465.07 331.91,461.09 332.03,457.10 332.14,453.12 332.24,449.14 332.33,445.15 332.40,441.17 332.45,437.19 332.49,433.20 332.52,429.22 332.52,425.24 332.51,421.25 332.48,417.27" /><polyline points="334.50,724.00 334.36,720.17 334.09,716.35 333.72,712.52 333.33,708.70 333.01,704.88 332.84,701.05 332.90,697.23 333.20,693.40 333.72,689.58 334.37,685.75 335.03,681.92 335.55,678.10 335.82,674.27 335.75,670.45 335.31,666.62 334.57,662.80" /><polyline points="337.52,724.00 337.45,720.02 337.39,716.05 337.32,712.07 337.24,708.10 337.17,704.12 337.09,700.15 337.02,696.17 336.95,692.19 336.88,688.22 336.82,684.24 336.76,680.27 336.70,676.29 336.66,672.32 336.62,668.34 336.59,664.36 336.57,660.39 336.57,656.41 336.57,652.44 336.58,648.46 336.61,644.49 336.65,640.51 336.70,636.53 336.76,632.56 336.83,628.58 336.91,624.61 337.01,620.63 337.11,616.66 337.22,612.68 337.34,608.70 337.47,604.73 337.60,600.75 337.73,596.78 337.87,592.80 338.01,588.83 338.15,584.85 338.28,580.87 338.41,576.90 338.53,572.92 338.65,568.95 338.76,564.97 338.86,561.00 338.94,557.02 339.01,553.05 339.07,549.07 339.11,545.09 339.14,541.12 339.15,537.14 339.14,533.17 339.11,529.19 339.06,525.22 339.00,521.24 338.92,517.26 338.82,513.29 338.70,509.31 338.57,505.34 338.42,501.36 338.26,497.39 338.09,493.41 337.90,489.43 337.71,485.46 337.51,481.48 337.31,477.51 337.11,473.53 336.90,469.56 336.70,465.58 336.50,461.60 336.31,457.63 336.13,453.65" /><polyline points="340.54,724.00 340.44,720.07 340.36,716.13 340.31,712.20 340.30,708.27 340.33,704.34 340.40,700.40 340.52,696.47 340.68,692.54 340.88,688.61 341.11,684.67 341.35,680.74 341.60,676.81 341.84,672.87 342.05,668.94 342.24,665.01 342.37,661.08 342.44,657.14 342.45,653.21 342.39,649.28 342.25,645.34 342.04,641.41 341.77,637.48 341.45,633.55 341.09,629.61 340.71,625.68 340.32,621.75 339.95,617.82 339.61,613.88 339.33,609.95 339.12,606.02 339.00,602.08 338.97,598.15" /><polyline points="344.03,724.00 344.13,720.17 344.37,716.35 344.73,712.52 345.14,708.70 345.50,704.88 345.73,701.05 345.75,697.23 345.52,693.40 345.05,689.58 344.42,685.75 343.74,681.92 343.14,678.10 342.78,674.27 342.73,670.45 343.06,666.62 343.72,662.80" /><polyline points="348.02,724.00 348.07,720.02 348.12,716.04 348.18,712.06 348.23,708.08 348.30,704.10 348.36,700.12 348.42,696.14 348.49,692.16 348.55,688.18 348.61,684.20 348.67,680.22 348.73,676.24 348.79,672.25 348.84,668.27 348.89,664.29 348.94,660.31 348.98,656.33 349.01,652.35 349.04,648.37 349.06,644.39 349.08,640.41 349.08,636.43 349.08,632.45 349.07,628.47 349.06,624.49 349.03,620.51 349.00,616.53 348.96,612.55 348.91,608.57 348.85,604.59 348.78,600.61 348.71,596.63 348.63,592.65 348.54,588.67 348.45,584.69 348.35,580.71 348.24,576.72 348.13,572.74 348.02,568.76 347.91,564.78 347.79,560.80 347.68,556.82 347.56,552.84 347.44,548.86 347.33,544.88 347.22,540.90 347.11,536.92 347.01,532.94 346.92,528.96 346.83,524.98 346.74,521.00 346.67,517.02 346.61,513.04 346.55,509.06 346.51,505.08 346.47,501.10 346.45,497.12 346.44,493.14 346.45,489.16 346.46,485.18 346.49,481.19 346.53,477.21 346.59,473.23 346.65,469.25 346.73,465.27 346.82,461.29 346.92,457.31 347.04,453.33 347.16,449.35 347.29,445.37 347.44,441.39 347.58,437.41 347.74,433.43 347.90,429.45 348.07,425.47 348.24,421.49 348.41,417.51 348.58,413.53 348.75,409.55 348.92,405.57 349.09,401.59 349.25,397.61" /><polyline points="352.08,724.00 352.15,720.03 352.21,716.05 352.27,712.08 352.32,708.11 352.36,704.13 352.38,700.16 352.40,696.19 352.40,692.21 352.38,688.24 352.35,684.27 352.30,680.29 352.23,676.32 352.15,672.35 352.06,668.37 351.95,664.40 351.83,660.43 351.69,656.45 351.55,652.48 351.41,648.51 351.26,644.53 351.11,640.56 350.96,636.59 350.81,632.61 350.68,628.64 350.55,624.67 350.44,620.69 350.35,616.72 350.27,612.75 350.22,608.77 350.19,604.80 350.18,600.83 350.20,596.85 350.24,592.88 350.31,588.91 350.41,584.93 350.53,580.96 350.67,576.99 350.84,573.01 351.03,569.04 351.23,565.07 351.44,561.09 351.67,557.12 351.90,553.15 352.14,549.17 352.37,545.20 352.60,541.23 352.81,537.25 353.01,533.28 353.20,529.31 353.36,525.33 353.50,521.36 353.60,517.39 353.68,513.41 353.72,509.44" /><polyline points="355.72,724.00 355.71,720.02 355.69,716.05 355.64,712.07 355.57,708.09 355.48,704.12 355.36,700.14 355.23,696.16 355.09,692.19 354.94,688.21 354.78,684.23 354.62,680.26 354.46,676.28 354.31,672.30 354.18,668.33 354.07,664.35 353.99,660.37 353.94,656.40 353.91,652.42 353.93,648.44 353.98,644.47 354.07,640.49 354.20,636.51 354.36,632.54 354.55,628.56 354.77,624.59 355.02,620.61 355.27,616.63 355.54,612.66 355.81,608.68 356.06,604.70 356.31,600.73 356.53,596.75 356.71,592.77 356.87,588.80 356.97,584.82 357.03,580.84 357.03,576.87 356.98,572.89 356.88,568.91 356.72,564.94 356.51,560.96 356.25,556.98" /><polyline points="358.83,724.00 358.55,720.17 358.22,716.35 357.91,712.52 357.70,708.70 357.66,704.88 357.84,701.05 358.23,697.23 358.78,693.40 359.39,689.58 359.93,685.75 360.27,681.92 360.33,678.10 360.06,674.27 359.47,670.45 358.66,666.62 357.77,662.80" /><polyline points="361.79,724.00 361.65,720.06 361.53,716.12 361.44,712.17 361.39,708.23 361.39,704.29 361.44,700.35 361.55,696.41 361.72,692.47 361.93,688.52 362.19,684.58 362.47,680.64 362.75,676.70 363.03,672.76 363.28,668.82 363.48,664.87 363.61,660.93 363.66,656.99 363.62,653.05 363.50,649.11 363.28,645.17 362.98,641.22 362.62,637.28 362.20,633.34 361.76,629.40 361.32,625.46 360.91,621.52 360.56,617.57 360.28,613.63 360.11,609.69" /><polyline points="365.12,724.00 365.14,720.17 365.31,716.35 365.62,712.52 366.03,708.70 366.46,704.88 366.80,701.05 366.97,697.23 366.89,693.40 366.55,689.58 365.99,685.75 365.30,681.92 364.61,678.10 364.07,674.27 363.80,670.45 363.89,666.62 364.36,662.80" /><polyline points="369.00,724.00 369.25,720.17 369.59,716.35 369.93,712.52 370.19,708.70 370.29,704.88 370.17,701.05 369.83,697.23 369.32,693.40 368.70,689.58 368.12,685.75 367.69,681.92 367.53,678.10 367.70,674.27 368.20,670.45 368.96,666.62 369.86,662.80" /><polyline points="373.09,724.00 373.15,720.01 373.21,716.01 373.26,712.02 373.32,708.02 373.37,704.03 373.42,700.04 373.46,696.04 373.50,692.05 373.53,688.06 373.56,684.06 373.58,680.07 373.59,676.07 373.60,672.08 373.60,668.09 373.59,664.09 373.57,660.10 373.54,656.11 373.50,652.11 373.45,648.12 373.40,644.12 373.34,640.13 373.26,636.14 373.19,632.14 373.10,628.15 373.01,624.16 372.91,620.16 372.80,616.17 372.70,612.17 372.59,608.18 372.47,604.19 372.36,600.19 372.25,596.20 372.13,592.20 372.02,588.21 371.92,584.22 371.81,580.22 371.72,576.23 371.63,572.24 371.54,568.24 371.47,564.25 371.41,560.25 371.35,556.26 371.31,552.27 371.28,548.27 371.27,544.28 371.26,540.29 371.27,536.29 371.30,532.30 371.34,528.30 371.39,524.31 371.45,520.32 371.53,516.32 371.63,512.33 371.73,508.33 371.85,504.34 371.98,500.35 372.12,496.35 372.27,492.36 372.42,488.37 372.58,484.37 372.75,480.38 372.92,476.38 373.10,472.39 373.27,468.40 373.44,464.40 373.62,460.41 373.78,456.42 373.94,452.42 374.10,448.43 374.24,444.43 374.38,440.44 374.50,436.45 374.61,432.45 374.71,428.46 374.79,424.47" /><polyline points="376.89,724.00 376.92,720.02 376.90,716.03 376.84,712.05 376.72,708.06 376.55,704.08 376.34,700.09 376.10,696.11 375.85,692.12 375.59,688.14 375.37,684.15 375.18,680.17 375.05,676.18 375.00,672.20 375.03,668.21 375.14,664.23 375.35,660.24 375.63,656.26 375.98,652.28 376.37,648.29 376.78,644.31 377.19,640.32 377.56,636.34 377.88,632.35 378.10,628.37 378.22,624.38 378.23,620.40 378.10,616.41 377.85,612.43" /><polyline points="380.13,724.00 380.05,720.05 379.96,716.11 379.85,712.16 379.73,708.22 379.60,704.27 379.46,700.33 379.32,696.38 379.19,692.44 379.06,688.49 378.95,684.55 378.86,680.60 378.79,676.66 378.75,672.71 378.73,668.77 378.75,664.82 378.80,660.87 378.89,656.93 379.01,652.98 379.16,649.04 379.34,645.09 379.54,641.15 379.76,637.20 380.00,633.26 380.24,629.31 380.48,625.37 380.72,621.42 380.93,617.48 381.13,613.53 381.29,609.58 381.42,605.64 381.51,601.69 381.55,597.75 381.54,593.80 381.48,589.86 381.37,585.91 381.21,581.97 381.01,578.02 380.76,574.08 380.48,570.13 380.16,566.19 379.82,562.24 379.48,558.30" /><polyline points="383.08,724.00 383.01,720.02 382.94,716.04 382.88,712.06 382.81,708.08 382.75,704.10 382.69,700.12 382.64,696.14 382.59,692.16 382.55,688.18 382.51,684.20 382.49,680.22 382.47,676.24 382.47,672.26 382.47,668.28 382.49,664.30 382.51,660.32 382.55,656.34 382.60,652.36 382.66,648.38 382.73,644.41 382.82,640.43 382.91,636.45 383.01,632.47 383.12,628.49 383.23,624.51 383.35,620.53 383.48,616.55 383.61,612.57 383.74,608.59 383.87,604.61 384.00,600.63 384.12,596.65 384.24,592.67 384.36,588.69 384.46,584.71 384.56,580.73 384.65,576.75 384.72,572.77 384.78,568.79 384.82,564.81 384.85,560.83 384.86,556.85 384.86,552.87 384.83,548.89 384.79,544.91 384.73,540.93 384.66,536.95 384.56,532.97 384.45,528.99 384.33,525.01 384.19,521.03 384.03,517.05 383.87,513.07 383.69,509.09 383.51,505.11 383.31,501.13 383.12,497.15 382.92,493.17 382.72,489.20 382.53,485.22 382.34,481.24 382.15,477.26 381.98,473.28 381.81,469.30 381.66,465.32 381.53,461.34 381.41,457.36" /><polyline points="389.99,724.00 390.20,720.17 390.52,716.35 390.89,712.52 391.23,708.70 391.45,704.88 391.47,701.05 391.26,697.23 390.83,693.40 390.24,689.58 389.60,685.75 389.03,681.92 388.68,678.10 388.63,674.27 388.93,670.45 389.56,666.62 390.42,662.80" /><polyline points="394.08,724.00 394.37,720.17 394.63,716.35 394.79,712.52 394.77,708.70 394.55,704.88 394.15,701.05 393.63,697.23 393.08,693.40 392.62,689.58 392.37,685.75 392.40,681.92 392.75,678.10 393.38,674.27 394.18,670.45 395.00,666.62 395.69,662.80" /><polyline points="398.01,724.00 398.04,720.03 398.07,716.06 398.09,712.08 398.10,708.11 398.11,704.14 398.12,700.17 398.12,696.19 398.11,692.22 398.09,688.25 398.06,684.28 398.03,680.31 397.99,676.33 397.94,672.36 397.89,668.39 397.83,664.42 397.76,660.45 397.68,656.47 397.60,652.50 397.52,648.53 397.43,644.56 397.33,640.58 397.24,636.61 397.14,632.64 397.04,628.67 396.94,624.70 396.84,620.72 396.75,616.75 396.65,612.78 396.56,608.81 396.48,604.84 396.40,600.86 396.33,596.89 396.26,592.92 396.21,588.95 396.16,584.97 396.12,581.00 396.10,577.03 396.08,573.06 396.08,569.09 396.09,565.11 396.11,561.14 396.15,557.17 396.19,553.20 396.25,549.22 396.32,545.25 396.41,541.28 396.50,537.31 396.60,533.34 396.72,529.36 396.84,525.39 396.98,521.42 397.12,517.45 397.26,513.48 397.41,509.50 397.57,505.53 397.73,501.56 397.88,497.59 398.04,493.61 398.20,489.64 398.35,485.67 398.50,481.70 398.64,477.73 398.78,473.75 398.90,469.78 399.02,465.81 399.12,461.84 399.21,457.87 399.29,453.89 399.35,449.92 399.40,445.95 399.43,441.98 399.44,438.00 399.44,434.03 399.42,430.06 399.38,426.09 399.32,422.12" /><polyline points="401.40,724.00 401.34,720.05 401.26,716.09 401.16,712.14 401.03,708.19 400.89,704.24 400.73,700.28 400.57,696.33 400.41,692.38 400.26,688.42 400.11,684.47 399.99,680.52 399.90,676.56 399.84,672.61 399.82,668.66 399.83,664.71 399.89,660.75 400.00,656.80 400.14,652.85 400.33,648.89 400.54,644.94 400.79,640.99 401.06,637.04 401.33,633.08 401.61,629.13 401.88,625.18 402.13,621.22 402.35,617.27 402.53,613.32 402.66,609.37 402.74,605.41 402.75,601.46 402.71,597.51 402.60,593.55 402.43,589.60 402.19,585.65 401.91,581.69 401.58,577.74 401.21,573.79" /><polyline points="404.38,724.00 404.24,720.06 404.10,716.11 403.95,712.17 403.82,708.22 403.70,704.28 403.61,700.33 403.56,696.39 403.55,692.44 403.59,688.50 403.68,684.55 403.81,680.61 403.99,676.66 404.21,672.72 404.46,668.77 404.73,664.83 405.01,660.88 405.28,656.94 405.53,652.99 405.74,649.05 405.91,645.10 406.02,641.16 406.07,637.21 406.04,633.27 405.93,629.32 405.75,625.38 405.50,621.43 405.18,617.49 404.82,613.54 404.42,609.60 404.01,605.65 403.60,601.71 403.21,597.76 402.86,593.82" /><polyline points="407.45,724.00 407.39,720.02 407.34,716.05 407.30,712.07 407.28,708.10 407.28,704.12 407.30,700.15 407.34,696.17 407.39,692.19 407.47,688.22 407.57,684.24 407.68,680.27 407.81,676.29 407.95,672.32 408.11,668.34 408.27,664.36 408.43,660.39 408.60,656.41 408.76,652.44 408.90,648.46 409.04,644.49 409.16,640.51 409.25,636.54 409.32,632.56 409.37,628.58 409.38,624.61 409.36,620.63 409.30,616.66 409.22,612.68 409.10,608.71 408.95,604.73 408.77,600.75 408.57,596.78 408.34,592.80 408.10,588.83 407.85,584.85 407.59,580.88 407.33,576.90 407.07,572.92 406.83,568.95 406.61,564.97 406.41,561.00 406.24,557.02 406.11,553.05 406.02,549.07 405.96,545.09 405.96,541.12 406.00,537.14" /><polyline points="411.02,724.00 411.06,720.01 411.10,716.02 411.16,712.04 411.24,708.05 411.33,704.06 411.44,700.07 411.56,696.09 411.68,692.10 411.81,688.11 411.94,684.12 412.07,680.14 412.20,676.15 412.32,672.16 412.43,668.17 412.52,664.19 412.60,660.20 412.65,656.21 412.68,652.22 412.69,648.24 412.67,644.25 412.62,640.26 412.54,636.27 412.44,632.28 412.31,628.30 412.16,624.31 411.98,620.32 411.79,616.33 411.58,612.35 411.37,608.36 411.14,604.37 410.92,600.38 410.70,596.40 410.49,592.41 410.29,588.42 410.12,584.43 409.97,580.45 409.85,576.46 409.76,572.47 409.71,568.48 409.69,564.50 409.72,560.51 409.79,556.52 409.89,552.53 410.04,548.55 410.23,544.56 410.45,540.57 410.70,536.58 410.97,532.59" /><polyline points="415.06,724.00 415.21,720.05 415.37,716.10 415.54,712.14 415.70,708.19 415.83,704.24 415.94,700.29 415.99,696.33 416.00,692.38 415.94,688.43 415.83,684.48 415.66,680.52 415.43,676.57 415.16,672.62 414.86,668.67 414.55,664.71 414.25,660.76 413.97,656.81 413.73,652.86 413.55,648.90 413.45,644.95 413.43,641.00 413.51,637.05 413.68,633.09 413.94,629.14 414.27,625.19 414.67,621.24 415.11,617.29 415.58,613.33 416.03,609.38 416.46,605.43" /><polyline points="419.08,724.00 419.26,720.17 419.32,716.35 419.21,712.52 418.93,708.70 418.50,704.88 418.01,701.05 417.56,697.23 417.25,693.40 417.17,689.58 417.38,685.75 417.86,681.92 418.54,678.10 419.32,674.27 420.02,670.45 420.50,666.62 420.64,662.80" /><polyline points="422.64,724.00 422.63,720.04 422.61,716.09 422.58,712.13 422.54,708.18 422.50,704.22 422.45,700.27 422.38,696.31 422.32,692.35 422.24,688.40 422.16,684.44 422.07,680.49 421.98,676.53 421.89,672.58 421.79,668.62 421.69,664.66 421.60,660.71 421.50,656.75 421.41,652.80 421.32,648.84 421.23,644.89 421.16,640.93 421.09,636.97 421.03,633.02 420.98,629.06 420.94,625.11 420.91,621.15 420.90,617.20 420.90,613.24 420.92,609.28 420.94,605.33 420.99,601.37 421.05,597.42 421.12,593.46 421.20,589.50 421.30,585.55 421.42,581.59 421.54,577.64 421.67,573.68 421.82,569.73 421.97,565.77 422.12,561.81 422.28,557.86 422.45,553.90 422.61,549.95 422.77,545.99 422.93,542.04 423.09,538.08 423.24,534.12 423.37,530.17 423.50,526.21 423.62,522.26 423.72,518.30 423.80,514.35 423.87,510.39 423.92,506.43 423.95,502.48 423.96,498.52 423.95,494.57 423.91,490.61 423.86,486.66 423.78,482.70 423.69,478.74 423.57,474.79 423.44,470.83 423.28,466.88 423.11,462.92 422.93,458.97" /><polyline points="425.69,724.00 425.58,720.10 425.45,716.20 425.31,712.29 425.17,708.39 425.03,704.49 424.90,700.59 424.80,696.68 424.71,692.78 424.65,688.88 424.63,684.98 424.65,681.08 424.71,677.17 424.81,673.27 424.94,669.37 425.12,665.47 425.32,661.57 425.56,657.66 425.80,653.76 426.06,649.86 426.32,645.96 426.56,642.05 426.78,638.15 426.97,634.25 427.12,630.35 427.22,626.45 427.27,622.54 427.25,618.64 427.17,614.74 427.03,610.84 426.83,606.94 426.58,603.03 426.28,599.13 425.94,595.23 425.57,591.33 425.19,587.42 424.81,583.52 424.45,579.62" /><polyline points="428.68,724.00 428.62,720.04 428.57,716.07 428.52,712.11 428.47,708.14 428.43,704.18 428.40,700.21 428.38,696.25 428.37,692.28 428.37,688.32 428.37,684.35 428.39,680.39 428.42,676.42 428.47,672.46 428.52,668.49 428.59,664.53 428.66,660.56 428.75,656.60 428.84,652.63 428.95,648.67 429.06,644.70 429.18,640.74 429.30,636.78 429.42,632.81 429.55,628.85 429.68,624.88 429.80,620.92 429.93,616.95 430.04,612.99 430.15,609.02 430.25,605.06 430.34,601.09 430.42,597.13 430.48,593.16 430.53,589.20 430.56,585.23 430.58,581.27 430.58,577.30 430.56,573.34 430.52,569.37 430.46,565.41 430.39,561.44 430.29,557.48 430.18,553.52 430.06,549.55 429.91,545.59 429.76,541.62 429.59,537.66 429.41,533.69 429.23,529.73 429.03,525.76 428.84,521.80 428.64,517.83 428.44,513.87 428.25,509.90 428.06,505.94 427.88,501.97 427.72,498.01 427.56,494.04 427.43,490.08 427.31,486.11 427.21,482.15 427.13,478.18 427.07,474.22 427.04,470.26" /><polyline points="432.09,724.00 432.16,720.17 432.37,716.35 432.71,712.52 433.12,708.70 433.52,704.88 433.80,701.05 433.89,697.23 433.73,693.40 433.32,689.58 432.72,685.75 432.02,681.92 431.38,678.10 430.92,674.27 430.77,670.45 430.99,666.62 431.57,662.80" /><polyline points="436.03,724.00 436.08,720.04 436.13,716.09 436.19,712.13 436.25,708.18 436.31,704.22 436.38,700.27 436.45,696.31 436.51,692.36 436.58,688.40 436.65,684.45 436.72,680.49 436.78,676.54 436.85,672.58 436.91,668.63 436.96,664.67 437.02,660.72 437.06,656.76 437.10,652.81 437.14,648.85 437.17,644.90 437.19,640.94 437.20,636.99 437.21,633.03 437.20,629.07 437.19,625.12 437.17,621.16 437.14,617.21 437.09,613.25 437.05,609.30 436.99,605.34 436.92,601.39 436.84,597.43 436.76,593.48 436.67,589.52 436.57,585.57 436.47,581.61 436.36,577.66 436.24,573.70 436.13,569.75 436.00,565.79 435.88,561.84 435.76,557.88 435.63,553.93 435.51,549.97 435.39,546.02 435.28,542.06 435.17,538.10 435.06,534.15 434.96,530.19 434.87,526.24 434.78,522.28 434.71,518.33 434.65,514.37 434.60,510.42 434.56,506.46 434.53,502.51 434.51,498.55 434.51,494.60 434.52,490.64 434.55,486.69 434.59,482.73 434.64,478.78 434.71,474.82 434.79,470.87 434.89,466.91 435.00,462.96 435.11,459.00 435.25,455.05 435.39,451.09 435.54,447.13 435.69,443.18 435.86,439.22 436.03,435.27 436.21,431.31 436.39,427.36 436.57,423.40 436.75,419.45 436.93,415.49 437.11,411.54" /><polyline points="440.12,724.00 440.22,720.05 440.32,716.11 440.40,712.16 440.47,708.22 440.51,704.27 440.52,700.33 440.50,696.38 440.45,692.44 440.36,688.49 440.25,684.55 440.10,680.60 439.92,676.66 439.73,672.71 439.52,668.76 439.30,664.82 439.08,660.87 438.87,656.93 438.68,652.98 438.52,649.04 438.38,645.09 438.29,641.15 438.25,637.20 438.26,633.26 438.32,629.31 438.43,625.37 438.59,621.42 438.81,617.47 439.06,613.53 439.36,609.58 439.67,605.64 440.01,601.69 440.35,597.75 440.68,593.80 440.99,589.86 441.26,585.91 441.50,581.97 441.68,578.02 441.80,574.08" /><polyline points="443.83,724.00 443.84,720.07 443.83,716.13 443.81,712.20 443.77,708.27 443.71,704.33 443.63,700.40 443.53,696.47 443.42,692.53 443.30,688.60 443.16,684.67 443.02,680.73 442.87,676.80 442.73,672.87 442.58,668.93 442.44,665.00 442.32,661.07 442.21,657.13 442.12,653.20 442.04,649.27 442.00,645.33 441.98,641.40 441.99,637.47 442.04,633.53 442.11,629.60 442.21,625.67 442.34,621.73 442.50,617.80 442.69,613.87 442.89,609.93 443.11,606.00 443.35,602.07 443.59,598.13 443.83,594.20 444.07,590.27 444.30,586.33 444.51,582.40 444.70,578.47 444.86,574.53 444.99,570.60 445.09,566.67 445.15,562.74 445.16,558.80 445.13,554.87 445.06,550.94 444.94,547.00 444.78,543.07 444.58,539.14" /><polyline points="447.00,724.00 446.85,720.03 446.67,716.06 446.46,712.09 446.25,708.12 446.04,704.16 445.88,700.19 445.76,696.22 445.72,692.25 445.75,688.28 445.87,684.31 446.08,680.34 446.36,676.37 446.70,672.40 447.07,668.44 447.45,664.47 447.81,660.50 448.12,656.53 448.34,652.56 448.46,648.59 448.45,644.62 448.32,640.65 448.06,636.68 447.68,632.71 447.21,628.75 446.68,624.78 446.12,620.81" /><polyline points="449.95,724.00 449.69,720.17 449.50,716.35 449.45,712.52 449.59,708.70 449.91,704.88 450.37,701.05 450.90,697.23 451.38,693.40 451.71,689.58 451.77,685.75 451.54,681.92 451.02,678.10 450.29,674.27 449.48,670.45 448.75,666.62 448.26,662.80" /><polyline points="453.21,724.00 453.19,720.01 453.18,716.03 453.18,712.04 453.20,708.06 453.23,704.07 453.27,700.08 453.33,696.10 453.40,692.11 453.48,688.13 453.57,684.14 453.68,680.16 453.79,676.17 453.91,672.18 454.04,668.20 454.17,664.21 454.30,660.23 454.42,656.24 454.55,652.25 454.66,648.27 454.77,644.28 454.87,640.30 454.95,636.31 455.01,632.33 455.06,628.34 455.09,624.35 455.10,620.37 455.08,616.38 455.04,612.40 454.98,608.41 454.90,604.42 454.79,600.44 454.66,596.45 454.52,592.47 454.35,588.48 454.17,584.49 453.98,580.51 453.78,576.52 453.57,572.54 453.36,568.55 453.15,564.57 452.94,560.58 452.75,556.59 452.56,552.61 452.39,548.62 452.24,544.64 452.11,540.65 452.00,536.66 451.92,532.68 451.87,528.69 451.86,524.71 451.87,520.72 451.92,516.73 452.00,512.75 452.11,508.76 452.26,504.78" /><polyline points="457.02,724.00 457.06,720.02 457.12,716.05 457.17,712.07 457.24,708.09 457.30,704.12 457.38,700.14 457.45,696.16 457.53,692.18 457.62,688.21 457.70,684.23 457.78,680.25 457.87,676.28 457.95,672.30 458.03,668.32 458.10,664.35 458.17,660.37 458.23,656.39 458.28,652.41 458.33,648.44 458.36,644.46 458.39,640.48 458.40,636.51 458.41,632.53 458.40,628.55 458.38,624.58 458.35,620.60 458.30,616.62 458.24,612.65 458.17,608.67 458.09,604.69 457.99,600.71 457.89,596.74 457.78,592.76 457.65,588.78 457.52,584.81 457.39,580.83 457.24,576.85 457.10,572.88 456.95,568.90 456.81,564.92 456.66,560.95 456.52,556.97 456.38,552.99 456.25,549.01 456.12,545.04 456.01,541.06 455.90,537.08 455.81,533.11 455.74,529.13 455.68,525.15 455.63,521.18 455.60,517.20 455.59,513.22 455.60,509.24 455.63,505.27 455.67,501.29 455.74,497.31 455.82,493.34 455.92,489.36 456.04,485.38 456.18,481.41 456.33,477.43 456.49,473.45 456.67,469.48 456.86,465.50 457.06,461.52 457.26,457.54 457.47,453.57 457.68,449.59" /><polyline points="461.12,724.00 461.25,720.04 461.38,716.08 461.50,712.12 461.60,708.16 461.67,704.21 461.72,700.25 461.72,696.29 461.68,692.33 461.60,688.37 461.47,684.41 461.31,680.45 461.10,676.49 460.87,672.53 460.62,668.57 460.37,664.62 460.12,660.66 459.88,656.70 459.67,652.74 459.51,648.78 459.39,644.82 459.33,640.86 459.34,636.90 459.42,632.94 459.57,628.98 459.78,625.03 460.05,621.07 460.37,617.11 460.73,613.15 461.12,609.19 461.51,605.23 461.89,601.27 462.24,597.31 462.54,593.35 462.79,589.39" /><polyline points="464.98,724.00 465.02,720.10 465.04,716.19 465.03,712.29 464.98,708.38 464.90,704.48 464.78,700.57 464.64,696.67 464.47,692.76 464.27,688.86 464.07,684.95 463.86,681.05 463.65,677.14 463.47,673.24 463.31,669.33 463.18,665.43 463.10,661.53 463.07,657.62 463.09,653.72 463.17,649.81 463.30,645.91 463.49,642.00 463.74,638.10 464.02,634.19 464.33,630.29 464.66,626.38 465.00,622.48 465.33,618.57 465.63,614.67 465.90,610.76 466.12,606.86 466.27,602.95 466.35,599.05 466.36,595.15 466.28,591.24 466.12,587.34" /><polyline points="468.29,724.00 468.08,720.17 467.76,716.35 467.39,712.52 467.05,708.70 466.84,704.88 466.82,701.05 467.03,697.23 467.46,693.40 468.06,689.58 468.70,685.75 469.26,681.92 469.61,678.10 469.65,674.27 469.34,670.45 468.71,666.62 467.85,662.80" /><polyline points="471.25,724.00 470.96,720.17 470.70,716.35 470.55,712.52 470.57,708.70 470.79,704.88 471.19,701.05 471.72,697.23 472.26,693.40 472.72,689.58 472.97,685.75 472.92,681.92 472.57,678.10 471.94,674.27 471.14,670.45 470.31,666.62 469.63,662.80" /><polyline points="474.37,724.00 474.32,720.06 474.29,716.13 474.27,712.19 474.27,708.26 474.28,704.32 474.32,700.39 474.38,696.45 474.46,692.52 474.55,688.58 474.67,684.65 474.80,680.71 474.95,676.78 475.10,672.84 475.26,668.91 475.43,664.97 475.59,661.04 475.74,657.10 475.89,653.17 476.02,649.23 476.12,645.30 476.21,641.36 476.27,637.43 476.30,633.49 476.29,629.55 476.25,625.62 476.18,621.68 476.08,617.75 475.94,613.81 475.77,609.88 475.58,605.94 475.36,602.01 475.12,598.07 474.87,594.14 474.61,590.20 474.35,586.27 474.09,582.33 473.85,578.40 473.62,574.46 473.42,570.53 473.24,566.59 473.10,562.66 473.01,558.72 472.95,554.79 472.94,550.85 472.98,546.91 473.07,542.98" /><polyline points="478.03,724.00 478.09,720.01 478.16,716.02 478.26,712.03 478.38,708.05 478.51,704.06 478.65,700.07 478.81,696.08 478.96,692.09 479.11,688.10 479.25,684.12 479.38,680.13 479.48,676.14 479.55,672.15 479.60,668.16 479.61,664.17 479.58,660.19 479.52,656.20 479.41,652.21 479.27,648.22 479.09,644.23 478.88,640.24 478.65,636.25 478.40,632.27 478.14,628.28 477.88,624.29 477.62,620.30 477.38,616.31 477.16,612.32 476.97,608.34 476.83,604.35 476.73,600.36 476.68,596.37 476.69,592.38 476.75,588.39 476.88,584.40 477.06,580.42 477.29,576.43 477.57,572.44 477.89,568.45 478.24,564.46" /><polyline points="482.10,724.00 482.19,720.08 482.29,716.16 482.39,712.24 482.49,708.31 482.59,704.39 482.68,700.47 482.76,696.55 482.83,692.63 482.88,688.71 482.91,684.79 482.92,680.86 482.92,676.94 482.89,673.02 482.83,669.10 482.76,665.18 482.66,661.26 482.54,657.34 482.40,653.41 482.24,649.49 482.07,645.57 481.89,641.65 481.70,637.73 481.51,633.81 481.32,629.89 481.14,625.97 480.97,622.04 480.81,618.12 480.68,614.20 480.57,610.28 480.48,606.36 480.43,602.44 480.41,598.52 480.43,594.59 480.48,590.67 480.56,586.75 480.69,582.83 480.84,578.91 481.03,574.99 481.25,571.07 481.49,567.14 481.75,563.22 482.02,559.30 482.30,555.38 482.59,551.46 482.87,547.54 483.14,543.62 483.39,539.69 483.63,535.77" /><polyline points="486.08,724.00 486.12,720.01 486.16,716.02 486.19,712.03 486.21,708.04 486.23,704.05 486.24,700.06 486.24,696.07 486.23,692.09 486.22,688.10 486.19,684.11 486.15,680.12 486.11,676.13 486.05,672.14 485.99,668.15 485.91,664.16 485.83,660.17 485.74,656.18 485.64,652.19 485.54,648.20 485.44,644.21 485.32,640.22 485.21,636.23 485.10,632.25 484.99,628.26 484.87,624.27 484.77,620.28 484.66,616.29 484.56,612.30 484.47,608.31 484.39,604.32 484.32,600.33 484.26,596.34 484.21,592.35 484.18,588.36 484.15,584.37 484.15,580.38 484.16,576.39 484.18,572.40 484.22,568.42 484.28,564.43 484.35,560.44 484.44,556.45 484.54,552.46 484.66,548.47 484.78,544.48 484.93,540.49 485.08,536.50 485.24,532.51 485.40,528.52 485.58,524.53 485.76,520.54 485.94,516.55 486.12,512.56 486.29,508.58 486.47,504.59 486.63,500.60 486.79,496.61 486.94,492.62 487.08,488.63 487.20,484.64 487.31,480.65 487.40,476.66 487.47,472.67 487.53,468.68 487.56,464.69 487.57,460.70 487.56,456.71 487.52,452.72" /><polyline points="489.54,724.00 489.51,720.05 489.45,716.11 489.38,712.16 489.29,708.22 489.18,704.27 489.06,700.33 488.93,696.38 488.79,692.43 488.65,688.49 488.50,684.54 488.36,680.60 488.24,676.65 488.12,672.71 488.02,668.76 487.95,664.81 487.90,660.87 487.88,656.92 487.90,652.98 487.94,649.03 488.02,645.09 488.13,641.14 488.27,637.20 488.44,633.25 488.63,629.30 488.85,625.36 489.08,621.41 489.32,617.47 489.57,613.52 489.81,609.58 490.04,605.63 490.26,601.68 490.45,597.74 490.61,593.79 490.74,589.85 490.83,585.90 490.87,581.96 490.87,578.01 490.82,574.06 490.72,570.12 490.58,566.17 490.39,562.23 490.15,558.28 489.88,554.34 489.58,550.39" /><polyline points="492.56,724.00 492.49,720.04 492.42,716.08 492.35,712.12 492.27,708.16 492.19,704.20 492.12,700.24 492.04,696.27 491.97,692.31 491.90,688.35 491.84,684.39 491.78,680.43 491.73,676.47 491.69,672.51 491.65,668.55 491.63,664.59 491.62,660.63 491.62,656.67 491.63,652.71 491.65,648.75 491.69,644.79 491.74,640.82 491.80,636.86 491.87,632.90 491.95,628.94 492.05,624.98 492.15,621.02 492.27,617.06 492.39,613.10 492.52,609.14 492.66,605.18 492.80,601.22 492.94,597.26 493.08,593.30 493.22,589.34 493.36,585.37 493.49,581.41 493.61,577.45 493.73,573.49 493.84,569.53 493.93,565.57 494.02,561.61 494.08,557.65 494.14,553.69 494.17,549.73 494.19,545.77 494.19,541.81 494.17,537.85 494.13,533.89 494.07,529.92 493.99,525.96 493.89,522.00 493.77,518.04 493.64,514.08 493.49,510.12 493.33,506.16 493.16,502.20 492.97,498.24 492.77,494.28 492.57,490.32 492.36,486.36 492.15,482.40 491.94,478.43 491.73,474.47 491.53,470.51 491.34,466.55 491.15,462.59" /><polyline points="495.58,724.00 495.53,720.06 495.48,716.12 495.44,712.18 495.41,708.24 495.38,704.30 495.36,700.36 495.35,696.42 495.35,692.48 495.36,688.54 495.38,684.60 495.42,680.66 495.46,676.72 495.52,672.78 495.58,668.84 495.66,664.90 495.75,660.96 495.84,657.02 495.95,653.08 496.06,649.14 496.17,645.20 496.29,641.26 496.42,637.31 496.54,633.37 496.66,629.43 496.78,625.49 496.90,621.55 497.01,617.61 497.12,613.67 497.21,609.73 497.29,605.79 497.36,601.85 497.42,597.91 497.46,593.97 497.49,590.03 497.50,586.09 497.49,582.15 497.47,578.21 497.42,574.27 497.36,570.33 497.28,566.39 497.18,562.45 497.07,558.51 496.94,554.57 496.80,550.63 496.64,546.69 496.47,542.75 496.29,538.81 496.11,534.87 495.92,530.93 495.72,526.99 495.53,523.05 495.34,519.11 495.15,515.17 494.97,511.23 494.80,507.29 494.64,503.35 494.49,499.41 494.36,495.47 494.25,491.53 494.16,487.59 494.09,483.65 494.04,479.71 494.02,475.77 494.03,471.83" /><polyline points="499.08,724.00 499.18,720.17 499.43,716.35 499.79,712.52 500.20,708.70 500.56,704.88 500.78,701.05 500.79,697.23 500.55,693.40 500.07,689.58 499.44,685.75 498.76,681.92 498.17,678.10 497.82,674.27 497.79,670.45 498.13,666.62 498.80,662.80" /><polyline points="503.07,724.00 503.14,720.01 503.21,716.01 503.28,712.02 503.36,708.03 503.44,704.04 503.52,700.04 503.60,696.05 503.68,692.06 503.75,688.07 503.82,684.07 503.89,680.08 503.95,676.09 504.01,672.10 504.05,668.10 504.09,664.11 504.11,660.12 504.12,656.13 504.13,652.13 504.11,648.14 504.09,644.15 504.05,640.15 504.00,636.16 503.94,632.17 503.86,628.18 503.77,624.18 503.67,620.19 503.56,616.20 503.44,612.21 503.31,608.21 503.18,604.22 503.04,600.23 502.89,596.24 502.74,592.24 502.60,588.25 502.45,584.26 502.31,580.26 502.18,576.27 502.05,572.28 501.93,568.29 501.82,564.29 501.73,560.30 501.65,556.31 501.58,552.32 501.53,548.32 501.50,544.33 501.49,540.34 501.50,536.35 501.53,532.35 501.58,528.36 501.65,524.37 501.74,520.38 501.85,516.38 501.98,512.39 502.13,508.40 502.29,504.40 502.46,500.41 502.65,496.42 502.85,492.43 503.06,488.43 503.27,484.44 503.48,480.45 503.70,476.46 503.92,472.46 504.13,468.47 504.33,464.48" /><polyline points="507.13,724.00 507.18,720.03 507.23,716.06 507.27,712.09 507.31,708.11 507.34,704.14 507.37,700.17 507.40,696.20 507.42,692.23 507.43,688.26 507.44,684.29 507.44,680.32 507.43,676.34 507.42,672.37 507.40,668.40 507.37,664.43 507.33,660.46 507.29,656.49 507.23,652.52 507.17,648.54 507.11,644.57 507.03,640.60 506.95,636.63 506.87,632.66 506.78,628.69 506.68,624.72 506.58,620.74 506.48,616.77 506.38,612.80 506.27,608.83 506.17,604.86 506.07,600.89 505.97,596.92 505.87,592.95 505.77,588.97 505.68,585.00 505.60,581.03 505.52,577.06 505.45,573.09 505.39,569.12 505.34,565.15 505.29,561.17 505.26,557.20 505.24,553.23 505.23,549.26 505.23,545.29 505.25,541.32 505.28,537.35 505.32,533.38 505.37,529.40 505.43,525.43 505.51,521.46 505.60,517.49 505.70,513.52 505.81,509.55 505.93,505.58 506.06,501.60 506.19,497.63 506.34,493.66 506.49,489.69 506.64,485.72 506.80,481.75 506.96,477.78 507.12,473.80 507.29,469.83 507.45,465.86 507.60,461.89 507.76,457.92 507.90,453.95 508.04,449.98 508.17,446.01 508.29,442.03 508.40,438.06 508.50,434.09 508.58,430.12 508.65,426.15 508.71,422.18 508.74,418.21 508.77,414.23" /><polyline points="510.76,724.00 510.76,720.06 510.74,716.12 510.71,712.18 510.66,708.24 510.59,704.30 510.52,700.36 510.43,696.42 510.32,692.47 510.21,688.53 510.09,684.59 509.96,680.65 509.83,676.71 509.70,672.77 509.57,668.83 509.44,664.89 509.33,660.95 509.22,657.01 509.13,653.07 509.06,649.13 509.01,645.19 508.97,641.25 508.97,637.30 508.98,633.36 509.02,629.42 509.09,625.48 509.18,621.54 509.30,617.60 509.44,613.66 509.60,609.72 509.78,605.78 509.97,601.84 510.18,597.90 510.40,593.96 510.61,590.02 510.83,586.08 511.05,582.13 511.25,578.19 511.44,574.25 511.62,570.31 511.77,566.37 511.89,562.43 511.99,558.49 512.05,554.55 512.08,550.61 512.07,546.67 512.03,542.73 511.95,538.79 511.83,534.85 511.67,530.91 511.49,526.96 511.27,523.02" /><polyline points="513.87,724.00 513.78,720.04 513.67,716.09 513.56,712.13 513.44,708.18 513.32,704.22 513.20,700.26 513.08,696.31 512.97,692.35 512.88,688.40 512.80,684.44 512.74,680.49 512.71,676.53 512.70,672.57 512.72,668.62 512.77,664.66 512.85,660.71 512.96,656.75 513.10,652.79 513.26,648.84 513.44,644.88 513.64,640.93 513.85,636.97 514.07,633.02 514.29,629.06 514.51,625.10 514.71,621.15 514.90,617.19 515.07,613.24 515.20,609.28 515.31,605.32 515.37,601.37 515.39,597.41 515.37,593.46 515.31,589.50 515.20,585.54 515.04,581.59 514.85,577.63 514.61,573.68 514.35,569.72 514.06,565.77 513.75,561.81 513.43,557.85 513.10,553.90 512.78,549.94" /><polyline points="516.83,724.00 516.76,720.03 516.68,716.07 516.62,712.10 516.56,708.13 516.51,704.17 516.47,700.20 516.44,696.23 516.43,692.26 516.44,688.30 516.46,684.33 516.50,680.36 516.56,676.40 516.63,672.43 516.72,668.46 516.82,664.50 516.94,660.53 517.07,656.56 517.21,652.60 517.36,648.63 517.52,644.66 517.68,640.70 517.83,636.73 517.98,632.76 518.13,628.79 518.27,624.83 518.39,620.86 518.49,616.89 518.58,612.93 518.65,608.96 518.69,604.99 518.70,601.03 518.69,597.06 518.66,593.09 518.59,589.13 518.50,585.16 518.38,581.19 518.24,577.23 518.07,573.26 517.88,569.29 517.68,565.32 517.46,561.36 517.22,557.39 516.99,553.42 516.74,549.46 516.50,545.49 516.27,541.52 516.04,537.56 515.83,533.59 515.64,529.62 515.48,525.66 515.34,521.69 515.23,517.72 515.15,513.76" /><polyline points="520.17,724.00 520.16,720.03 520.17,716.07 520.18,712.10 520.21,708.14 520.25,704.17 520.31,700.20 520.38,696.24 520.46,692.27 520.55,688.31 520.65,684.34 520.76,680.37 520.88,676.41 521.00,672.44 521.13,668.48 521.26,664.51 521.38,660.54 521.50,656.58 521.61,652.61 521.71,648.64 521.81,644.68 521.88,640.71 521.94,636.75 521.99,632.78 522.01,628.81 522.01,624.85 522.00,620.88 521.95,616.92 521.89,612.95 521.81,608.98 521.70,605.02 521.57,601.05 521.43,597.09 521.26,593.12 521.08,589.15 520.89,585.19 520.70,581.22 520.49,577.26 520.28,573.29 520.08,569.32 519.88,565.36 519.68,561.39 519.50,557.43 519.34,553.46 519.19,549.49 519.07,545.53 518.97,541.56 518.90,537.59 518.85,533.63 518.84,529.66 518.86,525.70 518.91,521.73 519.00,517.76 519.11,513.80 519.26,509.83 519.44,505.87" /><polyline points="524.05,724.00 524.14,720.04 524.23,716.07 524.34,712.11 524.46,708.14 524.58,704.18 524.71,700.21 524.84,696.25 524.96,692.28 525.06,688.32 525.16,684.35 525.24,680.39 525.29,676.43 525.32,672.46 525.33,668.50 525.30,664.53 525.25,660.57 525.16,656.60 525.05,652.64 524.90,648.67 524.73,644.71 524.55,640.74 524.34,636.78 524.12,632.82 523.90,628.85 523.67,624.89 523.45,620.92 523.24,616.96 523.05,612.99 522.89,609.03 522.75,605.06 522.66,601.10 522.60,597.13 522.58,593.17 522.60,589.21 522.68,585.24 522.79,581.28 522.96,577.31 523.16,573.35 523.40,569.38 523.67,565.42 523.97,561.45 524.29,557.49 524.61,553.52 524.94,549.56" /><polyline points="528.15,724.00 528.26,720.06 528.38,716.11 528.47,712.17 528.55,708.22 528.61,704.28 528.64,700.33 528.64,696.39 528.60,692.44 528.53,688.50 528.42,684.55 528.27,680.61 528.10,676.66 527.90,672.72 527.68,668.77 527.45,664.83 527.22,660.88 527.00,656.94 526.80,652.99 526.62,649.05 526.47,645.11 526.37,641.16 526.32,637.22 526.32,633.27 526.38,629.33 526.50,625.38 526.67,621.44 526.89,617.49 527.16,613.55 527.47,609.60 527.80,605.66 528.15,601.71 528.50,597.77 528.84,593.82 529.16,589.88 529.44,585.93 529.67,581.99 529.84,578.04" /><polyline points="531.93,724.00 531.96,720.09 531.96,716.18 531.94,712.27 531.89,708.36 531.81,704.45 531.70,700.54 531.58,696.63 531.43,692.72 531.26,688.81 531.08,684.90 530.90,680.99 530.72,677.08 530.55,673.17 530.39,669.26 530.26,665.35 530.15,661.44 530.08,657.53 530.05,653.62 530.06,649.71 530.12,645.80 530.22,641.89 530.37,637.98 530.55,634.07 530.78,630.16 531.03,626.25 531.31,622.34 531.60,618.43 531.90,614.52 532.19,610.61 532.47,606.70 532.72,602.79 532.93,598.88 533.10,594.97 533.22,591.06 533.28,587.15 533.27,583.24 533.21,579.33 533.07,575.42 532.87,571.51" /><polyline points="535.17,724.00 535.09,720.01 535.01,716.02 534.91,712.03 534.80,708.04 534.68,704.05 534.55,700.07 534.42,696.08 534.30,692.09 534.17,688.10 534.06,684.11 533.97,680.12 533.89,676.13 533.83,672.14 533.79,668.15 533.78,664.16 533.80,660.18 533.85,656.19 533.93,652.20 534.04,648.21 534.17,644.22 534.33,640.23 534.52,636.24 534.72,632.25 534.93,628.26 535.15,624.27 535.38,620.28 535.60,616.30 535.81,612.31 536.01,608.32 536.19,604.33 536.34,600.34 536.46,596.35 536.55,592.36 536.59,588.37 536.59,584.38 536.55,580.39 536.46,576.40 536.33,572.42 536.16,568.43 535.95,564.44 535.70,560.45 535.43,556.46 535.13,552.47 534.81,548.48 534.49,544.49" /><polyline points="538.11,724.00 537.97,720.04 537.83,716.08 537.70,712.13 537.60,708.17 537.54,704.21 537.52,700.25 537.54,696.29 537.62,692.34 537.75,688.38 537.94,684.42 538.16,680.46 538.41,676.51 538.69,672.55 538.97,668.59 539.24,664.63 539.48,660.67 539.68,656.72 539.83,652.76 539.90,648.80 539.89,644.84 539.81,640.88 539.64,636.93 539.39,632.97 539.07,629.01 538.70,625.05 538.29,621.09 537.87,617.14 537.44,613.18 537.05,609.22 536.71,605.26 536.44,601.31" /><polyline points="541.31,724.00 541.25,720.17 541.34,716.35 541.59,712.52 541.97,708.70 542.42,704.88 542.85,701.05 543.14,697.23 543.21,693.40 543.02,689.58 542.57,685.75 541.92,681.92 541.19,678.10 540.52,674.27 540.06,670.45 539.93,666.62 540.18,662.80" /><polyline points="545.05,724.00 545.14,720.11 545.27,716.21 545.43,712.32 545.60,708.42 545.79,704.53 545.98,700.63 546.16,696.74 546.32,692.84 546.44,688.95 546.51,685.05 546.53,681.16 546.49,677.26 546.38,673.37 546.21,669.47 545.99,665.58 545.72,661.68 545.41,657.79 545.08,653.89 544.74,650.00 544.43,646.10 544.14,642.21 543.91,638.31 543.75,634.42 543.67,630.52 543.68,626.63 543.78,622.73 543.97,618.84 544.26,614.94 544.62,611.05 545.04,607.15 545.50,603.26" /><polyline points="549.14,724.00 549.20,720.04 549.26,716.09 549.33,712.13 549.39,708.18 549.45,704.22 549.51,700.26 549.57,696.31 549.62,692.35 549.67,688.40 549.72,684.44 549.76,680.48 549.79,676.53 549.82,672.57 549.83,668.62 549.84,664.66 549.85,660.70 549.84,656.75 549.82,652.79 549.79,648.84 549.76,644.88 549.71,640.92 549.66,636.97 549.60,633.01 549.52,629.05 549.44,625.10 549.35,621.14 549.26,617.19 549.15,613.23 549.05,609.27 548.93,605.32 548.82,601.36 548.70,597.41 548.58,593.45 548.46,589.49 548.34,585.54 548.22,581.58 548.11,577.63 548.00,573.67 547.89,569.71 547.80,565.76 547.71,561.80 547.63,557.85 547.56,553.89 547.50,549.93 547.45,545.98 547.42,542.02 547.40,538.07 547.40,534.11 547.41,530.15 547.43,526.20 547.47,522.24 547.52,518.29 547.59,514.33 547.67,510.37 547.77,506.42 547.88,502.46 548.00,498.51 548.14,494.55 548.28,490.59 548.43,486.64 548.60,482.68 548.77,478.73 548.94,474.77 549.12,470.81 549.30,466.86 549.49,462.90 549.67,458.95 549.84,454.99 550.02,451.03 550.19,447.08 550.34,443.12 550.49,439.16 550.63,435.21 550.76,431.25" /><polyline points="553.06,724.00 553.16,720.17 553.12,716.35 552.91,712.52 552.55,708.70 552.10,704.88 551.64,701.05 551.29,697.23 551.13,693.40 551.24,689.58 551.62,685.75 552.23,681.92 552.96,678.10 553.68,674.27 554.23,670.45 554.48,666.62 554.35,662.80" /><polyline points="556.44,724.00 556.40,720.06 556.34,716.12 556.28,712.18 556.19,708.24 556.10,704.30 556.00,700.36 555.89,696.42 555.77,692.48 555.65,688.54 555.53,684.60 555.41,680.66 555.30,676.72 555.19,672.78 555.10,668.84 555.02,664.90 554.95,660.96 554.90,657.02 554.87,653.08 554.87,649.14 554.88,645.20 554.92,641.26 554.99,637.32 555.08,633.38 555.19,629.44 555.32,625.50 555.47,621.56 555.64,617.62 555.83,613.68 556.02,609.74 556.23,605.80 556.43,601.86 556.64,597.92 556.84,593.98 557.03,590.04 557.21,586.10 557.37,582.16 557.52,578.22 557.63,574.28 557.72,570.34 557.77,566.40 557.80,562.46 557.79,558.52 557.74,554.58 557.66,550.64 557.54,546.70 557.39,542.76 557.21,538.82 557.00,534.88 556.76,530.94 556.50,527.00 556.22,523.06" /><line x1="256.0" y1="678.0" x2="560.0" y2="678.0" stroke-dasharray="2,4" /></g><g id="03_Gold_Risen" inkscape:groupmode="layer" inkscape:label="03_Gold_Risen" stroke="#B8960C" fill="none" stroke-width="1.25" stroke-linecap="round" stroke-linejoin="round"><polyline points="386.86,724.00 386.89,721.02 386.92,718.04 386.95,715.07 386.99,712.09 387.02,709.11 387.05,706.13 387.08,703.16 387.11,700.18 387.14,697.20 387.17,694.22 387.20,691.24 387.23,688.27 387.26,685.29 387.29,682.31 387.32,679.33 387.34,676.36 387.37,673.38 387.39,670.40 387.42,667.42 387.44,664.44 387.46,661.47 387.48,658.49 387.50,655.51 387.52,652.53 387.54,649.56 387.55,646.58 387.57,643.60 387.58,640.62 387.60,637.64 387.61,634.67 387.62,631.69 387.63,628.71 387.64,625.73 387.64,622.76 387.65,619.78 387.65,616.80 387.66,613.82 387.66,610.84 387.66,607.87 387.66,604.89 387.65,601.91 387.65,598.93 387.64,595.96 387.64,592.98 387.63,590.00 387.62,587.02 387.61,584.04 387.60,581.07 387.59,578.09 387.57,575.11 387.56,572.13 387.54,569.16 387.52,566.18 387.50,563.20 387.48,560.22 387.46,557.24 387.44,554.27 387.42,551.29 387.40,548.31 387.37,545.33 387.35,542.36 387.32,539.38 387.29,536.40 387.26,533.42 387.24,530.44 387.21,527.47 387.18,524.49 387.15,521.51 387.12,518.53 387.09,515.56 387.05,512.58 387.02,509.60 386.99,506.62 386.96,503.64 386.93,500.67 386.89,497.69 386.86,494.71 386.83,491.73 386.80,488.76 386.76,485.78 386.73,482.80 386.70,479.82 386.67,476.84 386.64,473.87 386.60,470.89 386.57,467.91 386.54,464.93 386.51,461.96 386.48,458.98 386.46,456.00 386.43,453.02 386.40,450.04 386.37,447.07 386.35,444.09 386.32,441.11 386.30,438.13 386.28,435.16 386.26,432.18 386.23,429.20 386.21,426.22 386.20,423.24 386.18,420.27 386.16,417.29 386.15,414.31 386.13,411.33 386.12,408.36 386.11,405.38 386.10,402.40 386.09,399.42 386.08,396.44 386.07,393.47 386.07,390.49 386.06,387.51 386.06,384.53 386.06,381.56 386.06,378.58 386.06,375.60 386.06,372.62 386.06,369.64 386.07,366.67 386.08,363.69 386.08,360.71 386.09,357.73 386.10,354.76 386.11,351.78 386.13,348.80 386.14,345.82 386.16,342.84 386.17,339.87 386.19,336.89 386.21,333.91 386.23,330.93 386.25,327.96 386.27,324.98 386.29,322.00" /></g></svg>