<?xml version='1.0' encoding='utf-8'?>
<svg xmlns="http://www.w3.org/2000/svg" xmlns:inkscape="http://www.inkscape.org/namespaces/inkscape" viewBox="204 228 408 600"><style>*{vector-effect:non-scaling-stroke}</style><g id="01_Black_Frame" inkscape:groupmode="layer" inkscape:label="01_Black_Frame" stroke="#1A1A1A" fill="none" stroke-width="0.875" stroke-linecap="round" stroke-linejoin="round"><path d="M 250.0,264.0 L 566.0,264.0 Q 576.0,264.0 576.0,274.0 L 576.0,782.0 Q 576.0,792.0 566.0,792.0 L 250.0,792.0 Q 240.0,792.0 240.0,782.0 L 240.0,274.0 Q 240.0,264.0 250.0,264.0" /><path d="M 253.0,270.0 L 563.0,270.0 Q 570.0,270.0 570.0,277.0 L 570.0,779.0 Q 570.0,786.0 563.0,786.0 L 253.0,786.0 Q 246.0,786.0 246.0,779.0 L 246.0,277.0 Q 246.0,270.0 253.0,270.0" /><line x1="259.0" y1="280.0" x2="263.0" y2="280.0" /><line x1="258.1" y1="282.1" x2="260.9" y2="284.9" /><line x1="256.0" y1="283.0" x2="256.0" y2="287.0" /><line x1="253.9" y1="282.1" x2="251.1" y2="284.9" /><line x1="253.0" y1="280.0" x2="249.0" y2="280.0" /><line x1="253.9" y1="277.9" x2="251.1" y2="275.1" /><line x1="256.0" y1="277.0" x2="256.0" y2="273.0" /><line x1="258.1" y1="277.9" x2="260.9" y2="275.1" /><line x1="563.0" y1="280.0" x2="567.0" y2="280.0" /><line x1="562.1" y1="282.1" x2="564.9" y2="284.9" /><line x1="560.0" y1="283.0" x2="560.0" y2="287.0" /><line x1="557.9" y1="282.1" x2="555.1" y2="284.9" /><line x1="557.0" y1="280.0" x2="553.0" y2="280.0" /><line x1="557.9" y1="277.9" x2="555.1" y2="275.1" /><line x1="560.0" y1="277.0" x2="560.0" y2="273.0" /><line x1="562.1" y1="277.9" x2="564.9" y2="275.1" /><line x1="259.0" y1="776.0" x2="263.0" y2="776.0" /><line x1="258.1" y1="778.1" x2="260.9" y2="780.9" /><line x1="256.0" y1="779.0" x2="256.0" y2="783.0" /><line x1="253.9" y1="778.1" x2="251.1" y2="780.9" /><line x1="253.0" y1="776.0" x2="249.0" y2="776.0" /><line x1="253.9" y1="773.9" x2="251.1" y2="771.1" /><line x1="256.0" y1="773.0" x2="256.0" y2="769.0" /><line x1="258.1" y1="773.9" x2="260.9" y2="771.1" /><line x1="563.0" y1="776.0" x2="567.0" y2="776.0" /><line x1="562.1" y1="778.1" x2="564.9" y2="780.9" /><line x1="560.0" y1="779.0" x2="560.0" y2="783.0" /><line x1="557.9" y1="778.1" x2="555.1" y2="780.9" /><line x1="557.0" y1="776.0" x2="553.0" y2="776.0" /><line x1="557.9" y1="773.9" x2="555.1" y2="771.1" /><line x1="560.0" y1="773.0" x2="560.0" y2="769.0" /><line x1="562.1" y1="773.9" x2="564.9" y2="771.1" /><polyline points="401.00,283.20 399.25,282.00 398.25,282.00 396.50,283.60 396.50,288.40 398.25,290.00 399.25,290.00 401.00,288.80" /><polyline points="402.25,282.00 407.25,290.00" /><polyline points="407.25,282.00 402.25,290.00" /><polyline points="408.00,282.00 410.50,290.00 413.00,282.00" /><polyline points="416.25,282.00 416.25,290.00" /><polyline points="366.89,297.00 373.39,297.00" /><polyline points="370.14,297.00 370.14,307.00" /><polyline points="374.36,297.00 374.36,307.00" /><polyline points="380.86,297.00 380.86,307.00" /><polyline points="374.36,301.80 380.86,301.80" /><polyline points="387.36,297.00 381.84,297.00 381.84,301.80 385.74,301.80" /><polyline points="381.84,301.80 381.84,307.00 387.36,307.00" /><polyline points="396.79,307.00 396.79,297.00 401.01,297.00 402.31,298.20 402.31,299.80 401.01,301.00 396.79,301.00 401.01,301.00 402.31,302.20 402.31,305.80 401.01,307.00 396.79,307.00" /><polyline points="404.26,307.00 407.51,297.00 410.76,307.00" /><polyline points="405.43,303.50 409.59,303.50" /><polyline points="411.74,307.00 411.74,297.00 418.24,307.00 418.24,297.00" /><polyline points="422.46,297.00 419.86,298.00 419.21,300.00 419.21,304.00 419.86,306.00 422.46,307.00 425.06,306.00 425.71,304.00 425.71,300.00 425.06,298.00 422.46,297.00" /><polyline points="423.11,304.00 425.71,307.20" /><polyline points="426.69,297.00 426.69,304.50 427.99,306.50 431.89,306.50 433.19,304.50 433.19,297.00" /><polyline points="439.69,297.00 434.16,297.00 434.16,301.80 438.06,301.80" /><polyline points="434.16,301.80 434.16,307.00 439.69,307.00" /><polyline points="441.64,297.00 448.14,297.00" /><polyline points="444.89,297.00 444.89,307.00" /><line x1="270.0" y1="312.0" x2="546.0" y2="312.0" /><line x1="270.0" y1="732.0" x2="546.0" y2="732.0" /><polyline points="357.39,741.42 356.41,740.75 355.85,740.75 354.87,741.65 354.87,744.35 355.85,745.25 356.41,745.25 357.39,744.58 357.39,743.00 356.27,743.00" /><polyline points="358.09,740.75 358.09,744.12 358.65,745.02 360.33,745.02 360.89,744.12 360.89,740.75" /><polyline points="361.31,745.25 361.31,740.75 364.11,745.25 364.11,740.75" /><polyline points="366.91,740.75 364.53,740.75 364.53,742.91 366.21,742.91" /><polyline points="364.53,742.91 364.53,745.25" /><polyline points="369.15,740.75 369.15,745.25" /><polyline points="370.97,745.25 370.97,740.75 372.79,740.75 373.49,741.42 373.49,742.19 372.79,742.77 370.97,742.77 373.49,745.25" /><polyline points="376.57,740.75 374.19,740.75 374.19,742.91 375.87,742.91" /><polyline points="374.19,742.91 374.19,745.25 376.57,745.25" /><polyline points="386.23,741.20 385.53,740.75 384.69,740.75 383.99,741.42 383.85,742.10 384.27,742.64 385.25,743.00 386.23,743.36 386.65,743.90 386.51,744.58 385.81,745.25 384.83,745.25 384.13,744.80" /><polyline points="387.07,740.75 389.87,740.75" /><polyline points="388.47,740.75 388.47,745.25" /><polyline points="390.29,745.25 390.29,740.75 392.11,740.75 392.81,741.42 392.81,742.19 392.11,742.77 390.29,742.77 392.81,745.25" /><polyline points="393.51,745.25 394.91,740.75 396.31,745.25" /><polyline points="394.01,743.67 395.81,743.67" /><polyline points="398.13,740.75 398.13,745.25" /><polyline points="399.95,740.75 402.75,740.75" /><polyline points="401.35,740.75 401.35,745.25" /><polyline points="412.13,741.42 411.15,740.75 410.59,740.75 409.61,741.65 409.61,744.35 410.59,745.25 411.15,745.25 412.13,744.58" /><polyline points="412.83,740.75 412.83,745.25" /><polyline points="415.63,740.75 415.63,745.25" /><polyline points="412.83,742.91 415.63,742.91" /><polyline points="418.43,740.75 416.05,740.75 416.05,742.91 417.73,742.91" /><polyline points="416.05,742.91 416.05,745.25 418.43,745.25" /><polyline points="419.27,745.25 419.27,740.75 421.09,740.75 421.79,741.42 421.79,742.19 421.09,742.77 419.27,742.77 421.79,745.25" /><polyline points="422.49,745.25 422.49,740.75 425.29,745.25 425.29,740.75" /><polyline points="427.11,740.75 425.99,741.20 425.71,742.10 425.71,743.90 425.99,744.80 427.11,745.25 428.23,744.80 428.51,743.90 428.51,742.10 428.23,741.20 427.11,740.75" /><polyline points="428.93,745.25 428.93,740.75 430.75,740.75 431.31,741.29 431.31,742.01 430.75,742.55 428.93,742.55 430.75,742.55 431.31,743.09 431.31,744.71 430.75,745.25 428.93,745.25" /><polyline points="432.15,740.75 433.55,743.00 434.95,740.75" /><polyline points="433.55,743.00 433.55,745.25" /><polyline points="435.37,740.75 435.37,745.25 437.75,745.25" /><polyline points="447.55,741.42 446.57,740.75 446.01,740.75 445.03,741.65 445.03,744.35 446.01,745.25 446.57,745.25 447.55,744.58" /><polyline points="448.25,745.25 448.25,740.75 450.07,740.75 450.77,741.42 450.77,742.19 450.07,742.77 448.25,742.77 450.77,745.25" /><polyline points="452.87,740.75 451.75,741.20 451.47,742.10 451.47,743.90 451.75,744.80 452.87,745.25 453.99,744.80 454.27,743.90 454.27,742.10 453.99,741.20 452.87,740.75" /><polyline points="454.69,740.75 455.39,745.25 456.09,742.33 456.79,745.25 457.49,740.75" /><polyline points="457.91,745.25 457.91,740.75 460.71,745.25 460.71,740.75" /><polyline points="321.75,753.25 326.75,753.25" /><polyline points="324.25,753.25 324.25,760.75" /><polyline points="327.50,753.25 327.50,760.75" /><polyline points="332.50,753.25 332.50,760.75" /><polyline points="327.50,756.85 332.50,756.85" /><polyline points="337.50,753.25 333.25,753.25 333.25,756.85 336.25,756.85" /><polyline points="333.25,756.85 333.25,760.75 337.50,760.75" /><polyline points="344.75,753.25 349.75,753.25" /><polyline points="347.25,753.25 347.25,760.75" /><polyline points="350.50,760.75 353.00,753.25 355.50,760.75" /><polyline points="351.40,758.12 354.60,758.12" /><polyline points="356.25,760.75 356.25,753.25 359.50,753.25 360.50,754.15 360.50,755.35 359.50,756.25 356.25,756.25 359.50,756.25 360.50,757.15 360.50,759.85 359.50,760.75 356.25,760.75" /><polyline points="362.00,753.25 362.00,760.75 366.25,760.75" /><polyline points="372.00,753.25 367.75,753.25 367.75,756.85 370.75,756.85" /><polyline points="367.75,756.85 367.75,760.75 372.00,760.75" /><polyline points="379.25,753.25 380.50,760.75 381.75,755.88 383.00,760.75 384.25,753.25" /><polyline points="385.00,760.75 387.50,753.25 390.00,760.75" /><polyline points="385.90,758.12 389.10,758.12" /><polyline points="395.00,754.00 393.75,753.25 392.25,753.25 391.00,754.38 390.75,755.50 391.50,756.40 393.25,757.00 395.00,757.60 395.75,758.50 395.50,759.62 394.25,760.75 392.50,760.75 391.25,760.00" /><polyline points="406.50,754.00 405.25,753.25 403.75,753.25 402.50,754.38 402.25,755.50 403.00,756.40 404.75,757.00 406.50,757.60 407.25,758.50 407.00,759.62 405.75,760.75 404.00,760.75 402.75,760.00" /><polyline points="412.25,753.25 408.00,753.25 408.00,756.85 411.00,756.85" /><polyline points="408.00,756.85 408.00,760.75 412.25,760.75" /><polyline points="413.75,753.25 418.75,753.25" /><polyline points="416.25,753.25 416.25,760.75" /><polyline points="429.50,753.25 425.25,753.25 425.25,756.85 428.25,756.85" /><polyline points="425.25,756.85 425.25,760.75" /><polyline points="433.50,753.25 431.50,754.00 431.00,755.50 431.00,758.50 431.50,760.00 433.50,760.75 435.50,760.00 436.00,758.50 436.00,755.50 435.50,754.00 433.50,753.25" /><polyline points="436.75,760.75 436.75,753.25 440.00,753.25 441.25,754.38 441.25,755.65 440.00,756.62 436.75,756.62 441.25,760.75" /><polyline points="448.25,753.25 448.25,760.75 452.50,760.75" /><polyline points="454.00,760.75 456.50,753.25 459.00,760.75" /><polyline points="454.90,758.12 458.10,758.12" /><polyline points="459.75,753.25 459.75,758.88 460.75,760.38 463.75,760.38 464.75,758.88 464.75,753.25" /><polyline points="470.00,754.38 468.25,753.25 467.25,753.25 465.50,754.75 465.50,759.25 467.25,760.75 468.25,760.75 470.00,759.62 470.00,757.00 468.00,757.00" /><polyline points="471.25,753.25 471.25,760.75" /><polyline points="476.25,753.25 476.25,760.75" /><polyline points="471.25,756.85 476.25,756.85" /><polyline points="477.00,753.25 482.00,753.25" /><polyline points="479.50,753.25 479.50,760.75" /><polyline points="487.00,753.25 482.75,753.25 482.75,756.85 485.75,756.85" /><polyline points="482.75,756.85 482.75,760.75 487.00,760.75" /><polyline points="488.50,760.75 488.50,753.25 491.75,753.25 493.00,754.38 493.00,755.65 491.75,756.62 488.50,756.62 493.00,760.75" /><polyline points="327.50,766.25 332.50,766.25" /><polyline points="330.00,766.25 330.00,773.75" /><polyline points="333.25,766.25 333.25,773.75" /><polyline points="338.25,766.25 338.25,773.75" /><polyline points="333.25,769.85 338.25,769.85" /><polyline points="343.25,766.25 339.00,766.25 339.00,769.85 342.00,769.85" /><polyline points="339.00,769.85 339.00,773.75 343.25,773.75" /><polyline points="354.75,766.25 350.50,766.25 350.50,769.85 353.50,769.85" /><polyline points="350.50,769.85 350.50,773.75" /><polyline points="356.25,766.25 356.25,773.75 360.50,773.75" /><polyline points="364.50,766.25 362.50,767.00 362.00,768.50 362.00,771.50 362.50,773.00 364.50,773.75 366.50,773.00 367.00,771.50 367.00,768.50 366.50,767.00 364.50,766.25" /><polyline points="370.25,766.25 368.25,767.00 367.75,768.50 367.75,771.50 368.25,773.00 370.25,773.75 372.25,773.00 372.75,771.50 372.75,768.50 372.25,767.00 370.25,766.25" /><polyline points="373.50,773.75 373.50,766.25 376.75,766.25 378.00,767.38 378.00,768.65 376.75,769.62 373.50,769.62 378.00,773.75" /><polyline points="385.00,766.25 386.25,773.75 387.50,768.88 388.75,773.75 390.00,766.25" /><polyline points="390.75,773.75 393.25,766.25 395.75,773.75" /><polyline points="391.65,771.12 394.85,771.12" /><polyline points="400.75,767.00 399.50,766.25 398.00,766.25 396.75,767.38 396.50,768.50 397.25,769.40 399.00,770.00 400.75,770.60 401.50,771.50 401.25,772.62 400.00,773.75 398.25,773.75 397.00,773.00" /><polyline points="412.25,767.00 411.00,766.25 409.50,766.25 408.25,767.38 408.00,768.50 408.75,769.40 410.50,770.00 412.25,770.60 413.00,771.50 412.75,772.62 411.50,773.75 409.75,773.75 408.50,773.00" /><polyline points="418.00,766.25 413.75,766.25 413.75,769.85 416.75,769.85" /><polyline points="413.75,769.85 413.75,773.75 418.00,773.75" /><polyline points="419.50,766.25 424.50,766.25" /><polyline points="422.00,766.25 422.00,773.75" /><polyline points="435.25,766.25 431.00,766.25 431.00,769.85 434.00,769.85" /><polyline points="431.00,769.85 431.00,773.75" /><polyline points="439.25,766.25 437.25,767.00 436.75,768.50 436.75,771.50 437.25,773.00 439.25,773.75 441.25,773.00 441.75,771.50 441.75,768.50 441.25,767.00 439.25,766.25" /><polyline points="442.50,773.75 442.50,766.25 445.75,766.25 447.00,767.38 447.00,768.65 445.75,769.62 442.50,769.62 447.00,773.75" /><polyline points="454.00,766.25 454.00,773.75" /><polyline points="459.00,766.25 459.00,773.75" /><polyline points="454.00,769.85 459.00,769.85" /><polyline points="462.25,766.25 462.25,773.75" /><polyline points="465.50,773.75 465.50,766.25 468.25,766.25 470.00,768.12 470.00,771.88 468.25,773.75 465.50,773.75" /><polyline points="473.75,766.25 473.75,773.75" /><polyline points="477.00,773.75 477.00,766.25 482.00,773.75 482.00,766.25" /><polyline points="487.25,767.38 485.50,766.25 484.50,766.25 482.75,767.75 482.75,772.25 484.50,773.75 485.50,773.75 487.25,772.62 487.25,770.00 485.25,770.00" /><polyline points="383.84,779.50 383.84,784.50" /><polyline points="385.92,779.50 387.52,784.50 389.12,779.50" /><polyline points="391.20,784.00 391.20,784.25" /><polyline points="393.28,779.50 396.48,784.50" /><polyline points="396.48,779.50 393.28,784.50" /><polyline points="396.96,779.50 400.16,784.50" /><polyline points="400.16,779.50 396.96,784.50" /><polyline points="400.64,779.50 402.24,784.50 403.84,779.50" /><polyline points="405.92,779.50 405.92,784.50" /><polyline points="409.60,784.00 409.60,784.25" /><polyline points="411.68,784.50 411.68,779.50 413.28,782.25 414.88,779.50 414.88,784.50" /><polyline points="415.36,784.50 415.36,779.50 416.96,782.25 418.56,779.50 418.56,784.50" /><polyline points="419.04,779.50 422.24,784.50" /><polyline points="422.24,779.50 419.04,784.50" /><polyline points="422.72,779.50 425.92,784.50" /><polyline points="425.92,779.50 422.72,784.50" /><polyline points="426.40,779.50 428.00,784.50 429.60,779.50" /><polyline points="431.68,779.50 431.68,784.50" /></g><g id="02_Teal_Image" inkscape:groupmode="layer" inkscape:label="02_Teal_Image" stroke="#3A7A7A" fill="none" stroke-width="0.75" stroke-linecap="round" stroke-linejoin="round"><polyline points="284.0,342.0 283.9,343.6 283.5,345.1 282.8,346.5 281.9,347.8 280.8,348.9 279.5,349.8 278.1,350.5 276.6,350.9 275.0,351.0 273.4,350.9 271.9,350.5 270.5,349.8 269.2,348.9 268.1,347.8 267.2,346.5 266.5,345.1 266.1,343.6 266.0,342.0 266.1,340.4 266.5,338.9 267.2,337.5 268.1,336.2 269.2,335.1 270.5,334.2 271.9,333.5 273.4,333.1 275.0,333.0 276.6,333.1 278.1,333.5 279.5,334.2 280.8,335.1 281.9,336.2 282.8,337.5 283.5,338.9 283.9,340.4 284.0,342.0" /><polyline points="310.0,342.0 309.9,343.6 309.5,345.1 308.8,346.5 307.9,347.8 306.8,348.9 305.5,349.8 304.1,350.5 302.6,350.9 301.0,351.0 299.4,350.9 297.9,350.5 296.5,349.8 295.2,348.9 294.1,347.8 293.2,346.5 292.5,345.1 292.1,343.6 292.0,342.0 292.1,340.4 292.5,338.9 293.2,337.5 294.1,336.2 295.2,335.1 296.5,334.2 297.9,333.5 299.4,333.1 301.0,333.0 302.6,333.1 304.1,333.5 305.5,334.2 306.8,335.1 307.9,336.2 308.8,337.5 309.5,338.9 309.9,340.4 310.0,342.0" /><polyline points="336.0,342.0 335.9,343.6 335.5,345.1 334.8,346.5 333.9,347.8 332.8,348.9 331.5,349.8 330.1,350.5 328.6,350.9 327.0,351.0 325.4,350.9 323.9,350.5 322.5,349.8 321.2,348.9 320.1,347.8 319.2,346.5 318.5,345.1 318.1,343.6 318.0,342.0 318.1,340.4 318.5,338.9 319.2,337.5 320.1,336.2 321.2,335.1 322.5,334.2 323.9,333.5 325.4,333.1 327.0,333.0 328.6,333.1 330.1,333.5 331.5,334.2 332.8,335.1 333.9,336.2 334.8,337.5 335.5,338.9 335.9,340.4 336.0,342.0" /><polyline points="362.0,342.0 361.9,343.6 361.5,345.1 360.8,346.5 359.9,347.8 358.8,348.9 357.5,349.8 356.1,350.5 354.6,350.9 353.0,351.0 351.4,350.9 349.9,350.5 348.5,349.8 347.2,348.9 346.1,347.8 345.2,346.5 344.5,345.1 344.1,343.6 344.0,342.0 344.1,340.4 344.5,338.9 345.2,337.5 346.1,336.2 347.2,335.1 348.5,334.2 349.9,333.5 351.4,333.1 353.0,333.0 354.6,333.1 356.1,333.5 357.5,334.2 358.8,335.1 359.9,336.2 360.8,337.5 361.5,338.9 361.9,340.4 362.0,342.0" /><polyline points="388.0,342.0 387.9,343.6 387.5,345.1 386.8,346.5 385.9,347.8 384.8,348.9 383.5,349.8 382.1,350.5 380.6,350.9 379.0,351.0 377.4,350.9 375.9,350.5 374.5,349.8 373.2,348.9 372.1,347.8 371.2,346.5 370.5,345.1 370.1,343.6 370.0,342.0 370.1,340.4 370.5,338.9 371.2,337.5 372.1,336.2 373.2,335.1 374.5,334.2 375.9,333.5 377.4,333.1 379.0,333.0 380.6,333.1 382.1,333.5 383.5,334.2 384.8,335.1 385.9,336.2 386.8,337.5 387.5,338.9 387.9,340.4 388.0,342.0" /><polyline points="414.0,342.0 413.9,343.6 413.5,345.1 412.8,346.5 411.9,347.8 410.8,348.9 409.5,349.8 408.1,350.5 406.6,350.9 405.0,351.0 403.4,350.9 401.9,350.5 400.5,349.8 399.2,348.9 398.1,347.8 397.2,346.5 396.5,345.1 396.1,343.6 396.0,342.0 396.1,340.4 396.5,338.9 397.2,337.5 398.1,336.2 399.2,335.1 400.5,334.2 401.9,333.5 403.4,333.1 405.0,333.0 406.6,333.1 408.1,333.5 409.5,334.2 410.8,335.1 411.9,336.2 412.8,337.5 413.5,338.9 413.9,340.4 414.0,342.0" /><polyline points="440.0,342.0 439.9,343.6 439.5,345.1 438.8,346.5 437.9,347.8 436.8,348.9 435.5,349.8 434.1,350.5 432.6,350.9 431.0,351.0 429.4,350.9 427.9,350.5 426.5,349.8 425.2,348.9 424.1,347.8 423.2,346.5 422.5,345.1 422.1,343.6 422.0,342.0 422.1,340.4 422.5,338.9 423.2,337.5 424.1,336.2 425.2,335.1 426.5,334.2 427.9,333.5 429.4,333.1 431.0,333.0 432.6,333.1 434.1,333.5 435.5,334.2 436.8,335.1 437.9,336.2 438.8,337.5 439.5,338.9 439.9,340.4 440.0,342.0" /><polyline points="466.0,342.0 465.9,343.6 465.5,345.1 464.8,346.5 463.9,347.8 462.8,348.9 461.5,349.8 460.1,350.5 458.6,350.9 457.0,351.0 455.4,350.9 453.9,350.5 452.5,349.8 451.2,348.9 450.1,347.8 449.2,346.5 448.5,345.1 448.1,343.6 448.0,342.0 448.1,340.4 448.5,338.9 449.2,337.5 450.1,336.2 451.2,335.1 452.5,334.2 453.9,333.5 455.4,333.1 457.0,333.0 458.6,333.1 460.1,333.5 461.5,334.2 462.8,335.1 463.9,336.2 464.8,337.5 465.5,338.9 465.9,340.4 466.0,342.0" /><polyline points="492.0,342.0 491.9,343.6 491.5,345.1 490.8,346.5 489.9,347.8 488.8,348.9 487.5,349.8 486.1,350.5 484.6,350.9 483.0,351.0 481.4,350.9 479.9,350.5 478.5,349.8 477.2,348.9 476.1,347.8 475.2,346.5 474.5,345.1 474.1,343.6 474.0,342.0 474.1,340.4 474.5,338.9 475.2,337.5 476.1,336.2 477.2,335.1 478.5,334.2 479.9,333.5 481.4,333.1 483.0,333.0 484.6,333.1 486.1,333.5 487.5,334.2 488.8,335.1 489.9,336.2 490.8,337.5 491.5,338.9 491.9,340.4 492.0,342.0" /><polyline points="518.0,342.0 517.9,343.6 517.5,345.1 516.8,346.5 515.9,347.8 514.8,348.9 513.5,349.8 512.1,350.5 510.6,350.9 509.0,351.0 507.4,350.9 505.9,350.5 504.5,349.8 503.2,348.9 502.1,347.8 501.2,346.5 500.5,345.1 500.1,343.6 500.0,342.0 500.1,340.4 500.5,338.9 501.2,337.5 502.1,336.2 503.2,335.1 504.5,334.2 505.9,333.5 507.4,333.1 509.0,333.0 510.6,333.1 512.1,333.5 513.5,334.2 514.8,335.1 515.9,336.2 516.8,337.5 517.5,338.9 517.9,340.4 518.0,342.0" /><polyline points="544.0,342.0 543.9,343.6 543.5,345.1 542.8,346.5 541.9,347.8 540.8,348.9 539.5,349.8 538.1,350.5 536.6,350.9 535.0,351.0 533.4,350.9 531.9,350.5 530.5,349.8 529.2,348.9 528.1,347.8 527.2,346.5 526.5,345.1 526.1,343.6 526.0,342.0 526.1,340.4 526.5,338.9 527.2,337.5 528.1,336.2 529.2,335.1 530.5,334.2 531.9,333.5 533.4,333.1 535.0,333.0 536.6,333.1 538.1,333.5 539.5,334.2 540.8,335.1 541.9,336.2 542.8,337.5 543.5,338.9 543.9,340.4 544.0,342.0" /><polyline points="284.0,368.0 283.9,369.6 283.5,371.1 282.8,372.5 281.9,373.8 280.8,374.9 279.5,375.8 278.1,376.5 276.6,376.9 275.0,377.0 273.4,376.9 271.9,376.5 270.5,375.8 269.2,374.9 268.1,373.8 267.2,372.5 266.5,371.1 266.1,369.6 266.0,368.0 266.1,366.4 266.5,364.9 267.2,363.5 268.1,362.2 269.2,361.1 270.5,360.2 271.9,359.5 273.4,359.1 275.0,359.0 276.6,359.1 278.1,359.5 279.5,360.2 280.8,361.1 281.9,362.2 282.8,363.5 283.5,364.9 283.9,366.4 284.0,368.0" /><polyline points="310.0,368.0 309.9,369.6 309.5,371.1 308.8,372.5 307.9,373.8 306.8,374.9 305.5,375.8 304.1,376.5 302.6,376.9 301.0,377.0 299.4,376.9 297.9,376.5 296.5,375.8 295.2,374.9 294.1,373.8 293.2,372.5 292.5,371.1 292.1,369.6 292.0,368.0 292.1,366.4 292.5,364.9 293.2,363.5 294.1,362.2 295.2,361.1 296.5,360.2 297.9,359.5 299.4,359.1 301.0,359.0 302.6,359.1 304.1,359.5 305.5,360.2 306.8,361.1 307.9,362.2 308.8,363.5 309.5,364.9 309.9,366.4 310.0,368.0" /><polyline points="336.0,368.0 335.9,369.6 335.5,371.1 334.8,372.5 333.9,373.8 332.8,374.9 331.5,375.8 330.1,376.5 328.6,376.9 327.0,377.0 325.4,376.9 323.9,376.5 322.5,375.8 321.2,374.9 320.1,373.8 319.2,372.5 318.5,371.1 318.1,369.6 318.0,368.0 318.1,366.4 318.5,364.9 319.2,363.5 320.1,362.2 321.2,361.1 322.5,360.2 323.9,359.5 325.4,359.1 327.0,359.0 328.6,359.1 330.1,359.5 331.5,360.2 332.8,361.1 333.9,362.2 334.8,363.5 335.5,364.9 335.9,366.4 336.0,368.0" /><polyline points="362.0,368.0 361.9,369.6 361.5,371.1 360.8,372.5 359.9,373.8 358.8,374.9 357.5,375.8 356.1,376.5 354.6,376.9 353.0,377.0 351.4,376.9 349.9,376.5 348.5,375.8 347.2,374.9 346.1,373.8 345.2,372.5 344.5,371.1 344.1,369.6 344.0,368.0 344.1,366.4 344.5,364.9 345.2,363.5 346.1,362.2 347.2,361.1 348.5,360.2 349.9,359.5 351.4,359.1 353.0,359.0 354.6,359.1 356.1,359.5 357.5,360.2 358.8,361.1 359.9,362.2 360.8,363.5 361.5,364.9 361.9,366.4 362.0,368.0" /><polyline points="388.0,368.0 387.9,369.6 387.5,371.1 386.8,372.5 385.9,373.8 384.8,374.9 383.5,375.8 382.1,376.5 380.6,376.9 379.0,377.0 377.4,376.9 375.9,376.5 374.5,375.8 373.2,374.9 372.1,373.8 371.2,372.5 370.5,371.1 370.1,369.6 370.0,368.0 370.1,366.4 370.5,364.9 371.2,363.5 372.1,362.2 373.2,361.1 374.5,360.2 375.9,359.5 377.4,359.1 379.0,359.0 380.6,359.1 382.1,359.5 383.5,360.2 384.8,361.1 385.9,362.2 386.8,363.5 387.5,364.9 387.9,366.4 388.0,368.0" /><polyline points="409.1,375.8 407.2,376.5 405.2,376.8 403.2,376.7 401.3,376.1 399.6,375.1 398.1,373.7 396.9,372.0 396.2,370.2 395.9,368.2 396.1,366.2" /><polyline points="400.5,360.0 402.4,359.2 404.4,358.9 406.4,359.0 408.3,359.5 410.1,360.5 411.6,361.8 412.8,363.5 413.6,365.3 413.9,367.3 413.8,369.3" /><polyline points="432.6,376.1 430.6,376.2 428.7,376.0 426.8,375.3 425.1,374.3 423.8,372.9 422.7,371.2 422.0,369.4 421.8,367.4 421.9,365.5 422.5,363.6" /><polyline points="428.1,358.7 430.0,358.3 432.0,358.3 433.9,358.8 435.6,359.7 437.2,360.9 438.4,362.5 439.2,364.2 439.7,366.1 439.7,368.1 439.3,370.0" /><polyline points="456.3,375.9 454.4,375.6 452.6,374.8 451.0,373.7 449.7,372.3 448.7,370.6 448.1,368.7 447.9,366.8 448.2,364.9 448.8,363.0 449.8,361.4" /><polyline points="456.3,357.9 458.3,358.0 460.1,358.5 461.9,359.4 463.4,360.6 464.6,362.2 465.4,363.9 465.9,365.8 465.9,367.8 465.5,369.7 464.7,371.4" /><polyline points="480.5,375.6 478.7,374.8 477.1,373.7 475.8,372.2 474.9,370.5 474.3,368.7 474.2,366.7 474.5,364.8 475.1,363.0 476.2,361.3 477.6,360.0" /><polyline points="484.7,358.2 486.6,358.7 488.3,359.6 489.8,360.9 491.0,362.5 491.7,364.3 492.1,366.2 492.1,368.1 491.7,370.0 490.8,371.8 489.6,373.3" /><polyline points="505.1,375.5 503.5,374.4 502.1,373.0 501.1,371.3 500.4,369.4 500.2,367.4 500.4,365.5 501.1,363.6 502.2,361.9 503.6,360.5 505.2,359.4" /><polyline points="512.7,359.2 514.5,360.2 515.9,361.5 517.1,363.1 517.8,364.9 518.2,366.9 518.1,368.9 517.6,370.8 516.7,372.6 515.4,374.1 513.8,375.3" /><polyline points="544.0,368.0 543.9,369.6 543.5,371.1 542.8,372.5 541.9,373.8 540.8,374.9 539.5,375.8 538.1,376.5 536.6,376.9 535.0,377.0 533.4,376.9 531.9,376.5 530.5,375.8 529.2,374.9 528.1,373.8 527.2,372.5 526.5,371.1 526.1,369.6 526.0,368.0 526.1,366.4 526.5,364.9 527.2,363.5 528.1,362.2 529.2,361.1 530.5,360.2 531.9,359.5 533.4,359.1 535.0,359.0 536.6,359.1 538.1,359.5 539.5,360.2 540.8,361.1 541.9,362.2 542.8,363.5 543.5,364.9 543.9,366.4 544.0,368.0" /><polyline points="284.0,394.0 283.9,395.6 283.5,397.1 282.8,398.5 281.9,399.8 280.8,400.9 279.5,401.8 278.1,402.5 276.6,402.9 275.0,403.0 273.4,402.9 271.9,402.5 270.5,401.8 269.2,400.9 268.1,399.8 267.2,398.5 266.5,397.1 266.1,395.6 266.0,394.0 266.1,392.4 266.5,390.9 267.2,389.5 268.1,388.2 269.2,387.1 270.5,386.2 271.9,385.5 273.4,385.1 275.0,385.0 276.6,385.1 278.1,385.5 279.5,386.2 280.8,387.1 281.9,388.2 282.8,389.5 283.5,390.9 283.9,392.4 284.0,394.0" /><polyline points="310.0,394.0 309.9,395.6 309.5,397.1 308.8,398.5 307.9,399.8 306.8,400.9 305.5,401.8 304.1,402.5 302.6,402.9 301.0,403.0 299.4,402.9 297.9,402.5 296.5,401.8 295.2,400.9 294.1,399.8 293.2,398.5 292.5,397.1 292.1,395.6 292.0,394.0 292.1,392.4 292.5,390.9 293.2,389.5 294.1,388.2 295.2,387.1 296.5,386.2 297.9,385.5 299.4,385.1 301.0,385.0 302.6,385.1 304.1,385.5 305.5,386.2 306.8,387.1 307.9,388.2 308.8,389.5 309.5,390.9 309.9,392.4 310.0,394.0" /><polyline points="336.0,394.0 335.9,395.6 335.5,397.1 334.8,398.5 333.9,399.8 332.8,400.9 331.5,401.8 330.1,402.5 328.6,402.9 327.0,403.0 325.4,402.9 323.9,402.5 322.5,401.8 321.2,400.9 320.1,399.8 319.2,398.5 318.5,397.1 318.1,395.6 318.0,394.0 318.1,392.4 318.5,390.9 319.2,389.5 320.1,388.2 321.2,387.1 322.5,386.2 323.9,385.5 325.4,385.1 327.0,385.0 328.6,385.1 330.1,385.5 331.5,386.2 332.8,387.1 333.9,388.2 334.8,389.5 335.5,390.9 335.9,392.4 336.0,394.0" /><polyline points="362.0,394.0 361.9,395.6 361.5,397.1 360.8,398.5 359.9,399.8 358.8,400.9 357.5,401.8 356.1,402.5 354.6,402.9 353.0,403.0 351.4,402.9 349.9,402.5 348.5,401.8 347.2,400.9 346.1,399.8 345.2,398.5 344.5,397.1 344.1,395.6 344.0,394.0 344.1,392.4 344.5,390.9 345.2,389.5 346.1,388.2 347.2,387.1 348.5,386.2 349.9,385.5 351.4,385.1 353.0,385.0 354.6,385.1 356.1,385.5 357.5,386.2 358.8,387.1 359.9,388.2 360.8,389.5 361.5,390.9 361.9,392.4 362.0,394.0" /><polyline points="384.9,400.2 383.3,401.4 381.5,402.3 379.5,402.7 377.5,402.6 375.6,402.1 373.8,401.3 372.2,400.0 371.0,398.4 370.2,396.6 369.7,394.7" /><polyline points="372.1,387.5 373.6,386.2 375.4,385.3 377.3,384.8 379.3,384.7 381.3,385.1 383.1,385.9 384.7,387.0 386.0,388.5 387.0,390.3 387.5,392.2" /><polyline points="408.0,400.9 406.2,401.6 404.3,401.8 402.4,401.7 400.6,401.1 398.9,400.2 397.5,398.9 396.4,397.4 395.6,395.6 395.2,393.8 395.2,391.8" /><polyline points="398.8,385.6 400.4,384.6 402.2,384.0 404.1,383.8 406.0,384.0 407.8,384.6 409.5,385.6 410.9,386.9 412.0,388.4 412.7,390.2 413.1,392.1" /><polyline points="431.1,400.9 429.9,400.9 428.6,400.8 427.4,400.5 426.3,400.1 425.2,399.5 424.2,398.7 423.4,397.9 422.6,396.9 422.0,395.8 421.6,394.6" /><polyline points="421.4,389.9 421.7,388.7 422.2,387.6 422.9,386.6 423.7,385.6 424.6,384.8 425.7,384.1 426.8,383.6 427.9,383.2 429.1,383.0 430.4,382.9" /><polyline points="434.9,384.3 435.9,385.0 436.8,385.9 437.6,386.8 438.2,387.9 438.7,389.0 439.0,390.2 439.1,391.5 439.1,392.7 438.9,393.9 438.6,395.1" /><polyline points="503.7,398.8 502.9,397.9 502.2,396.9 501.6,395.8 501.2,394.6 501.0,393.4 500.9,392.1 501.1,390.9 501.3,389.7 501.8,388.5 502.4,387.4" /><polyline points="506.0,384.2 507.2,383.8 508.4,383.5 509.6,383.3 510.9,383.4 512.1,383.6 513.3,384.0 514.4,384.5 515.4,385.2 516.4,386.0 517.2,387.0" /><polyline points="518.9,391.5 518.9,392.7 518.8,393.9 518.5,395.2 518.0,396.3 517.4,397.4 516.6,398.4 515.7,399.2 514.7,400.0 513.6,400.5 512.4,401.0" /><polyline points="528.9,399.1 527.8,397.5 527.0,395.7 526.7,393.8 526.8,391.8 527.3,390.0 528.2,388.2 529.4,386.7 531.0,385.6 532.7,384.7 534.6,384.3" /><polyline points="541.7,386.5 543.0,387.9 543.9,389.6 544.5,391.5 544.7,393.4 544.4,395.3 543.8,397.2 542.7,398.8 541.4,400.2 539.7,401.3 537.9,401.9" /><polyline points="284.0,420.0 283.9,421.6 283.5,423.1 282.8,424.5 281.9,425.8 280.8,426.9 279.5,427.8 278.1,428.5 276.6,428.9 275.0,429.0 273.4,428.9 271.9,428.5 270.5,427.8 269.2,426.9 268.1,425.8 267.2,424.5 266.5,423.1 266.1,421.6 266.0,420.0 266.1,418.4 266.5,416.9 267.2,415.5 268.1,414.2 269.2,413.1 270.5,412.2 271.9,411.5 273.4,411.1 275.0,411.0 276.6,411.1 278.1,411.5 279.5,412.2 280.8,413.1 281.9,414.2 282.8,415.5 283.5,416.9 283.9,418.4 284.0,420.0" /><polyline points="310.0,420.0 309.9,421.6 309.5,423.1 308.8,424.5 307.9,425.8 306.8,426.9 305.5,427.8 304.1,428.5 302.6,428.9 301.0,429.0 299.4,428.9 297.9,428.5 296.5,427.8 295.2,426.9 294.1,425.8 293.2,424.5 292.5,423.1 292.1,421.6 292.0,420.0 292.1,418.4 292.5,416.9 293.2,415.5 294.1,414.2 295.2,413.1 296.5,412.2 297.9,411.5 299.4,411.1 301.0,411.0 302.6,411.1 304.1,411.5 305.5,412.2 306.8,413.1 307.9,414.2 308.8,415.5 309.5,416.9 309.9,418.4 310.0,420.0" /><polyline points="336.0,420.0 335.9,421.6 335.5,423.1 334.8,424.5 333.9,425.8 332.8,426.9 331.5,427.8 330.1,428.5 328.6,428.9 327.0,429.0 325.4,428.9 323.9,428.5 322.5,427.8 321.2,426.9 320.1,425.8 319.2,424.5 318.5,423.1 318.1,421.6 318.0,420.0 318.1,418.4 318.5,416.9 319.2,415.5 320.1,414.2 321.2,413.1 322.5,412.2 323.9,411.5 325.4,411.1 327.0,411.0 328.6,411.1 330.1,411.5 331.5,412.2 332.8,413.1 333.9,414.2 334.8,415.5 335.5,416.9 335.9,418.4 336.0,420.0" /><polyline points="361.0,424.0 359.9,425.7 358.5,427.1 356.7,428.1 354.8,428.8 352.8,429.0 350.8,428.7 348.9,428.0 347.2,426.9 345.8,425.4 344.8,423.7" /><polyline points="344.9,416.0 345.9,414.3 347.4,412.9 349.1,411.8 351.0,411.2 353.0,411.0 355.1,411.2 357.0,411.9 358.7,413.0 360.1,414.5 361.1,416.2" /><polyline points="384.4,425.4 383.0,426.6 381.3,427.5 379.5,428.1 377.6,428.2 375.7,428.0 373.9,427.3 372.3,426.3 370.9,425.0 369.8,423.4 369.1,421.6" /><polyline points="370.2,414.4 371.4,412.9 372.9,411.7 374.6,410.8 376.5,410.4 378.4,410.3 380.3,410.6 382.0,411.3 383.6,412.4 385.0,413.8 386.0,415.4" /><polyline points="528.3,422.1 527.9,420.9 527.7,419.7 527.7,418.5 527.8,417.2 528.1,416.0 528.5,414.9 529.1,413.8 529.9,412.8 530.8,411.9 531.8,411.2" /><polyline points="536.3,409.7 537.6,409.8 538.8,410.0 540.0,410.4 541.1,410.9 542.1,411.6 543.0,412.4 543.9,413.3 544.5,414.4 545.1,415.5 545.4,416.7" /><polyline points="545.2,421.4 544.8,422.6 544.2,423.7 543.4,424.7 542.5,425.5 541.6,426.3 540.5,426.9 539.3,427.3 538.1,427.6 536.9,427.7 535.6,427.7" /><polyline points="284.0,446.0 283.9,447.6 283.5,449.1 282.8,450.5 281.9,451.8 280.8,452.9 279.5,453.8 278.1,454.5 276.6,454.9 275.0,455.0 273.4,454.9 271.9,454.5 270.5,453.8 269.2,452.9 268.1,451.8 267.2,450.5 266.5,449.1 266.1,447.6 266.0,446.0 266.1,444.4 266.5,442.9 267.2,441.5 268.1,440.2 269.2,439.1 270.5,438.2 271.9,437.5 273.4,437.1 275.0,437.0 276.6,437.1 278.1,437.5 279.5,438.2 280.8,439.1 281.9,440.2 282.8,441.5 283.5,442.9 283.9,444.4 284.0,446.0" /><polyline points="310.0,446.0 309.9,447.6 309.5,449.1 308.8,450.5 307.9,451.8 306.8,452.9 305.5,453.8 304.1,454.5 302.6,454.9 301.0,455.0 299.4,454.9 297.9,454.5 296.5,453.8 295.2,452.9 294.1,451.8 293.2,450.5 292.5,449.1 292.1,447.6 292.0,446.0 292.1,444.4 292.5,442.9 293.2,441.5 294.1,440.2 295.2,439.1 296.5,438.2 297.9,437.5 299.4,437.1 301.0,437.0 302.6,437.1 304.1,437.5 305.5,438.2 306.8,439.1 307.9,440.2 308.8,441.5 309.5,442.9 309.9,444.4 310.0,446.0" /><polyline points="336.0,446.0 335.9,447.6 335.5,449.1 334.8,450.5 333.9,451.8 332.8,452.9 331.5,453.8 330.1,454.5 328.6,454.9 327.0,455.0 325.4,454.9 323.9,454.5 322.5,453.8 321.2,452.9 320.1,451.8 319.2,450.5 318.5,449.1 318.1,447.6 318.0,446.0 318.1,444.4 318.5,442.9 319.2,441.5 320.1,440.2 321.2,439.1 322.5,438.2 323.9,437.5 325.4,437.1 327.0,437.0 328.6,437.1 330.1,437.5 331.5,438.2 332.8,439.1 333.9,440.2 334.8,441.5 335.5,442.9 335.9,444.4 336.0,446.0" /><polyline points="361.0,448.7 360.1,450.5 358.9,452.1 357.4,453.4 355.7,454.3 353.7,454.8 351.8,454.8 349.8,454.5 348.0,453.7 346.4,452.5 345.1,451.0" /><polyline points="343.7,443.7 344.4,441.8 345.5,440.1 346.9,438.8 348.6,437.7 350.5,437.1 352.4,436.9 354.4,437.1 356.3,437.7 358.0,438.8 359.4,440.2" /><polyline points="384.6,450.3 383.8,451.3 382.9,452.2 381.9,452.9 380.8,453.5 379.7,454.0 378.5,454.2 377.2,454.4 376.0,454.3 374.8,454.1 373.6,453.7" /><polyline points="369.8,450.7 369.2,449.7 368.6,448.6 368.3,447.4 368.1,446.2 368.1,444.9 368.2,443.7 368.5,442.5 369.0,441.3 369.6,440.3 370.4,439.3" /><polyline points="374.4,436.7 375.7,436.5 376.9,436.4 378.1,436.4 379.3,436.7 380.5,437.1 381.6,437.6 382.7,438.3 383.6,439.2 384.4,440.1 385.0,441.2" /><polyline points="284.0,472.0 283.9,473.6 283.5,475.1 282.8,476.5 281.9,477.8 280.8,478.9 279.5,479.8 278.1,480.5 276.6,480.9 275.0,481.0 273.4,480.9 271.9,480.5 270.5,479.8 269.2,478.9 268.1,477.8 267.2,476.5 266.5,475.1 266.1,473.6 266.0,472.0 266.1,470.4 266.5,468.9 267.2,467.5 268.1,466.2 269.2,465.1 270.5,464.2 271.9,463.5 273.4,463.1 275.0,463.0 276.6,463.1 278.1,463.5 279.5,464.2 280.8,465.1 281.9,466.2 282.8,467.5 283.5,468.9 283.9,470.4 284.0,472.0" /><polyline points="310.0,472.0 309.9,473.6 309.5,475.1 308.8,476.5 307.9,477.8 306.8,478.9 305.5,479.8 304.1,480.5 302.6,480.9 301.0,481.0 299.4,480.9 297.9,480.5 296.5,479.8 295.2,478.9 294.1,477.8 293.2,476.5 292.5,475.1 292.1,473.6 292.0,472.0 292.1,470.4 292.5,468.9 293.2,467.5 294.1,466.2 295.2,465.1 296.5,464.2 297.9,463.5 299.4,463.1 301.0,463.0 302.6,463.1 304.1,463.5 305.5,464.2 306.8,465.1 307.9,466.2 308.8,467.5 309.5,468.9 309.9,470.4 310.0,472.0" /><polyline points="336.0,472.0 335.9,473.6 335.5,475.1 334.8,476.5 333.9,477.8 332.8,478.9 331.5,479.8 330.1,480.5 328.6,480.9 327.0,481.0 325.4,480.9 323.9,480.5 322.5,479.8 321.2,478.9 320.1,477.8 319.2,476.5 318.5,475.1 318.1,473.6 318.0,472.0 318.1,470.4 318.5,468.9 319.2,467.5 320.1,466.2 321.2,465.1 322.5,464.2 323.9,463.5 325.4,463.1 327.0,463.0 328.6,463.1 330.1,463.5 331.5,464.2 332.8,465.1 333.9,466.2 334.8,467.5 335.5,468.9 335.9,470.4 336.0,472.0" /><polyline points="361.2,473.1 360.7,475.0 359.9,476.7 358.6,478.3 357.1,479.5 355.4,480.4 353.5,480.9 351.5,481.0 349.6,480.6 347.8,479.8 346.2,478.6" /><polyline points="343.2,471.8 343.5,469.9 344.1,468.0 345.2,466.4 346.6,465.0 348.2,463.9 350.1,463.2 352.0,463.0 354.0,463.2 355.9,463.8 357.6,464.7" /><polyline points="284.0,498.0 283.9,499.6 283.5,501.1 282.8,502.5 281.9,503.8 280.8,504.9 279.5,505.8 278.1,506.5 276.6,506.9 275.0,507.0 273.4,506.9 271.9,506.5 270.5,505.8 269.2,504.9 268.1,503.8 267.2,502.5 266.5,501.1 266.1,499.6 266.0,498.0 266.1,496.4 266.5,494.9 267.2,493.5 268.1,492.2 269.2,491.1 270.5,490.2 271.9,489.5 273.4,489.1 275.0,489.0 276.6,489.1 278.1,489.5 279.5,490.2 280.8,491.1 281.9,492.2 282.8,493.5 283.5,494.9 283.9,496.4 284.0,498.0" /><polyline points="310.0,498.0 309.9,499.6 309.5,501.1 308.8,502.5 307.9,503.8 306.8,504.9 305.5,505.8 304.1,506.5 302.6,506.9 301.0,507.0 299.4,506.9 297.9,506.5 296.5,505.8 295.2,504.9 294.1,503.8 293.2,502.5 292.5,501.1 292.1,499.6 292.0,498.0 292.1,496.4 292.5,494.9 293.2,493.5 294.1,492.2 295.2,491.1 296.5,490.2 297.9,489.5 299.4,489.1 301.0,489.0 302.6,489.1 304.1,489.5 305.5,490.2 306.8,491.1 307.9,492.2 308.8,493.5 309.5,494.9 309.9,496.4 310.0,498.0" /><polyline points="336.0,498.0 335.9,499.6 335.5,501.1 334.8,502.5 333.9,503.8 332.8,504.9 331.5,505.8 330.1,506.5 328.6,506.9 327.0,507.0 325.4,506.9 323.9,506.5 322.5,505.8 321.2,504.9 320.1,503.8 319.2,502.5 318.5,501.1 318.1,499.6 318.0,498.0 318.1,496.4 318.5,494.9 319.2,493.5 320.1,492.2 321.2,491.1 322.5,490.2 323.9,489.5 325.4,489.1 327.0,489.0 328.6,489.1 330.1,489.5 331.5,490.2 332.8,491.1 333.9,492.2 334.8,493.5 335.5,494.9 335.9,496.4 336.0,498.0" /><polyline points="361.3,497.0 361.3,498.9 360.9,500.9 360.1,502.7 359.0,504.3 357.5,505.6 355.7,506.5 353.8,507.0 351.8,507.1 349.9,506.8 348.0,506.0" /><polyline points="343.6,500.0 343.4,498.1 343.6,496.1 344.3,494.2 345.3,492.6 346.7,491.1 348.4,490.1 350.2,489.4 352.2,489.1 354.2,489.3 356.0,489.9" /><polyline points="386.0,498.6 385.9,499.8 385.6,501.0 385.2,502.2 384.6,503.3 383.9,504.3 383.1,505.2 382.1,506.0 381.0,506.6 379.9,507.1 378.7,507.4" /><polyline points="373.9,507.1 372.8,506.6 371.8,505.9 370.8,505.1 370.0,504.2 369.2,503.2 368.7,502.1 368.3,500.9 368.0,499.7 368.0,498.5 368.0,497.3" /><polyline points="370.0,492.9 370.8,492.0 371.8,491.2 372.8,490.6 374.0,490.1 375.2,489.8 376.4,489.6 377.6,489.6 378.8,489.8 380.0,490.1 381.2,490.6" /><polyline points="284.0,524.0 283.9,525.6 283.5,527.1 282.8,528.5 281.9,529.8 280.8,530.9 279.5,531.8 278.1,532.5 276.6,532.9 275.0,533.0 273.4,532.9 271.9,532.5 270.5,531.8 269.2,530.9 268.1,529.8 267.2,528.5 266.5,527.1 266.1,525.6 266.0,524.0 266.1,522.4 266.5,520.9 267.2,519.5 268.1,518.2 269.2,517.1 270.5,516.2 271.9,515.5 273.4,515.1 275.0,515.0 276.6,515.1 278.1,515.5 279.5,516.2 280.8,517.1 281.9,518.2 282.8,519.5 283.5,520.9 283.9,522.4 284.0,524.0" /><polyline points="310.0,524.0 309.9,525.6 309.5,527.1 308.8,528.5 307.9,529.8 306.8,530.9 305.5,531.8 304.1,532.5 302.6,532.9 301.0,533.0 299.4,532.9 297.9,532.5 296.5,531.8 295.2,530.9 294.1,529.8 293.2,528.5 292.5,527.1 292.1,525.6 292.0,524.0 292.1,522.4 292.5,520.9 293.2,519.5 294.1,518.2 295.2,517.1 296.5,516.2 297.9,515.5 299.4,515.1 301.0,515.0 302.6,515.1 304.1,515.5 305.5,516.2 306.8,517.1 307.9,518.2 308.8,519.5 309.5,520.9 309.9,522.4 310.0,524.0" /><polyline points="336.0,524.0 335.9,525.6 335.5,527.1 334.8,528.5 333.9,529.8 332.8,530.9 331.5,531.8 330.1,532.5 328.6,532.9 327.0,533.0 325.4,532.9 323.9,532.5 322.5,531.8 321.2,530.9 320.1,529.8 319.2,528.5 318.5,527.1 318.1,525.6 318.0,524.0 318.1,522.4 318.5,520.9 319.2,519.5 320.1,518.2 321.2,517.1 322.5,516.2 323.9,515.5 325.4,515.1 327.0,515.0 328.6,515.1 330.1,515.5 331.5,516.2 332.8,517.1 333.9,518.2 334.8,519.5 335.5,520.9 335.9,522.4 336.0,524.0" /><polyline points="361.1,520.5 361.7,522.5 361.8,524.5 361.5,526.5 360.8,528.4 359.6,530.0 358.1,531.4 356.4,532.4 354.4,532.9 352.4,533.1 350.4,532.7" /><polyline points="344.7,527.8 344.0,525.8 343.9,523.8 344.1,521.8 344.9,519.9 346.0,518.3 347.5,516.9 349.2,515.8 351.1,515.2 353.1,515.1 355.1,515.4" /><polyline points="386.2,521.8 386.6,523.7 386.7,525.6 386.3,527.4 385.5,529.2 384.4,530.7 383.0,532.0 381.4,533.0 379.6,533.6 377.7,533.8 375.8,533.6" /><polyline points="369.9,529.3 369.1,527.6 368.7,525.7 368.7,523.8 369.1,522.0 369.9,520.2 371.1,518.7 372.5,517.4 374.1,516.5 376.0,515.9 377.9,515.8" /><polyline points="531.2,518.2 532.3,517.5 533.4,517.0 534.5,516.6 535.7,516.4 537.0,516.3 538.2,516.4 539.4,516.7 540.5,517.1 541.6,517.7 542.6,518.4" /><polyline points="545.3,522.3 545.6,523.5 545.8,524.7 545.8,525.9 545.6,527.2 545.3,528.4 544.8,529.5 544.1,530.5 543.4,531.5 542.4,532.3 541.4,533.0" /><polyline points="536.9,534.3 535.6,534.2 534.4,534.0 533.3,533.6 532.2,533.0 531.2,532.3 530.3,531.4 529.5,530.5 528.8,529.4 528.3,528.3 528.0,527.1" /><polyline points="284.0,550.0 283.9,551.6 283.5,553.1 282.8,554.5 281.9,555.8 280.8,556.9 279.5,557.8 278.1,558.5 276.6,558.9 275.0,559.0 273.4,558.9 271.9,558.5 270.5,557.8 269.2,556.9 268.1,555.8 267.2,554.5 266.5,553.1 266.1,551.6 266.0,550.0 266.1,548.4 266.5,546.9 267.2,545.5 268.1,544.2 269.2,543.1 270.5,542.2 271.9,541.5 273.4,541.1 275.0,541.0 276.6,541.1 278.1,541.5 279.5,542.2 280.8,543.1 281.9,544.2 282.8,545.5 283.5,546.9 283.9,548.4 284.0,550.0" /><polyline points="310.0,550.0 309.9,551.6 309.5,553.1 308.8,554.5 307.9,555.8 306.8,556.9 305.5,557.8 304.1,558.5 302.6,558.9 301.0,559.0 299.4,558.9 297.9,558.5 296.5,557.8 295.2,556.9 294.1,555.8 293.2,554.5 292.5,553.1 292.1,551.6 292.0,550.0 292.1,548.4 292.5,546.9 293.2,545.5 294.1,544.2 295.2,543.1 296.5,542.2 297.9,541.5 299.4,541.1 301.0,541.0 302.6,541.1 304.1,541.5 305.5,542.2 306.8,543.1 307.9,544.2 308.8,545.5 309.5,546.9 309.9,548.4 310.0,550.0" /><polyline points="336.0,550.0 335.9,551.6 335.5,553.1 334.8,554.5 333.9,555.8 332.8,556.9 331.5,557.8 330.1,558.5 328.6,558.9 327.0,559.0 325.4,558.9 323.9,558.5 322.5,557.8 321.2,556.9 320.1,555.8 319.2,554.5 318.5,553.1 318.1,551.6 318.0,550.0 318.1,548.4 318.5,546.9 319.2,545.5 320.1,544.2 321.2,543.1 322.5,542.2 323.9,541.5 325.4,541.1 327.0,541.0 328.6,541.1 330.1,541.5 331.5,542.2 332.8,543.1 333.9,544.2 334.8,545.5 335.5,546.9 335.9,548.4 336.0,550.0" /><polyline points="362.0,550.0 361.9,551.6 361.5,553.1 360.8,554.5 359.9,555.8 358.8,556.9 357.5,557.8 356.1,558.5 354.6,558.9 353.0,559.0 351.4,558.9 349.9,558.5 348.5,557.8 347.2,556.9 346.1,555.8 345.2,554.5 344.5,553.1 344.1,551.6 344.0,550.0 344.1,548.4 344.5,546.9 345.2,545.5 346.1,544.2 347.2,543.1 348.5,542.2 349.9,541.5 351.4,541.1 353.0,541.0 354.6,541.1 356.1,541.5 357.5,542.2 358.8,543.1 359.9,544.2 360.8,545.5 361.5,546.9 361.9,548.4 362.0,550.0" /><polyline points="385.7,545.0 386.7,546.7 387.3,548.5 387.5,550.5 387.3,552.5 386.6,554.3 385.6,556.0 384.2,557.4 382.5,558.5 380.6,559.2 378.7,559.4" /><polyline points="371.8,556.4 370.7,554.8 369.9,553.0 369.6,551.0 369.6,549.0 370.2,547.1 371.1,545.4 372.4,543.9 374.0,542.7 375.8,541.8 377.7,541.4" /><polyline points="410.9,545.6 411.9,547.1 412.6,548.9 413.0,550.8 412.9,552.6 412.4,554.5 411.6,556.2 410.4,557.6 408.9,558.8 407.2,559.7 405.4,560.2" /><polyline points="398.4,558.4 397.1,557.1 396.0,555.5 395.3,553.8 395.0,551.9 395.1,550.0 395.5,548.2 396.4,546.5 397.6,545.0 399.0,543.8 400.7,542.9" /><polyline points="507.8,543.1 509.0,542.9 510.2,542.8 511.5,543.0 512.7,543.2 513.8,543.7 514.9,544.3 515.9,545.0 516.8,545.9 517.6,546.8 518.2,547.9" /><polyline points="519.1,552.6 518.9,553.8 518.5,555.0 518.0,556.1 517.3,557.2 516.5,558.1 515.6,558.9 514.6,559.6 513.5,560.2 512.3,560.6 511.1,560.8" /><polyline points="506.4,560.1 505.3,559.5 504.3,558.7 503.4,557.9 502.7,556.9 502.0,555.8 501.6,554.7 501.2,553.5 501.1,552.3 501.1,551.0 501.3,549.8" /><polyline points="530.8,543.4 532.5,542.5 534.4,542.0 536.3,541.9 538.2,542.2 540.0,542.9 541.6,544.0 542.9,545.4 544.0,547.0 544.6,548.8 544.8,550.8" /><polyline points="542.0,557.5 540.4,558.6 538.7,559.4 536.8,559.8 534.8,559.8 533.0,559.4 531.2,558.6 529.7,557.5 528.4,556.0 527.5,554.3 527.0,552.4" /><polyline points="284.0,576.0 283.9,577.6 283.5,579.1 282.8,580.5 281.9,581.8 280.8,582.9 279.5,583.8 278.1,584.5 276.6,584.9 275.0,585.0 273.4,584.9 271.9,584.5 270.5,583.8 269.2,582.9 268.1,581.8 267.2,580.5 266.5,579.1 266.1,577.6 266.0,576.0 266.1,574.4 266.5,572.9 267.2,571.5 268.1,570.2 269.2,569.1 270.5,568.2 271.9,567.5 273.4,567.1 275.0,567.0 276.6,567.1 278.1,567.5 279.5,568.2 280.8,569.1 281.9,570.2 282.8,571.5 283.5,572.9 283.9,574.4 284.0,576.0" /><polyline points="310.0,576.0 309.9,577.6 309.5,579.1 308.8,580.5 307.9,581.8 306.8,582.9 305.5,583.8 304.1,584.5 302.6,584.9 301.0,585.0 299.4,584.9 297.9,584.5 296.5,583.8 295.2,582.9 294.1,581.8 293.2,580.5 292.5,579.1 292.1,577.6 292.0,576.0 292.1,574.4 292.5,572.9 293.2,571.5 294.1,570.2 295.2,569.1 296.5,568.2 297.9,567.5 299.4,567.1 301.0,567.0 302.6,567.1 304.1,567.5 305.5,568.2 306.8,569.1 307.9,570.2 308.8,571.5 309.5,572.9 309.9,574.4 310.0,576.0" /><polyline points="336.0,576.0 335.9,577.6 335.5,579.1 334.8,580.5 333.9,581.8 332.8,582.9 331.5,583.8 330.1,584.5 328.6,584.9 327.0,585.0 325.4,584.9 323.9,584.5 322.5,583.8 321.2,582.9 320.1,581.8 319.2,580.5 318.5,579.1 318.1,577.6 318.0,576.0 318.1,574.4 318.5,572.9 319.2,571.5 320.1,570.2 321.2,569.1 322.5,568.2 323.9,567.5 325.4,567.1 327.0,567.0 328.6,567.1 330.1,567.5 331.5,568.2 332.8,569.1 333.9,570.2 334.8,571.5 335.5,572.9 335.9,574.4 336.0,576.0" /><polyline points="362.0,576.0 361.9,577.6 361.5,579.1 360.8,580.5 359.9,581.8 358.8,582.9 357.5,583.8 356.1,584.5 354.6,584.9 353.0,585.0 351.4,584.9 349.9,584.5 348.5,583.8 347.2,582.9 346.1,581.8 345.2,580.5 344.5,579.1 344.1,577.6 344.0,576.0 344.1,574.4 344.5,572.9 345.2,571.5 346.1,570.2 347.2,569.1 348.5,568.2 349.9,567.5 351.4,567.1 353.0,567.0 354.6,567.1 356.1,567.5 357.5,568.2 358.8,569.1 359.9,570.2 360.8,571.5 361.5,572.9 361.9,574.4 362.0,576.0" /><polyline points="388.0,576.0 387.9,577.6 387.5,579.1 386.8,580.5 385.9,581.8 384.8,582.9 383.5,583.8 382.1,584.5 380.6,584.9 379.0,585.0 377.4,584.9 375.9,584.5 374.5,583.8 373.2,582.9 372.1,581.8 371.2,580.5 370.5,579.1 370.1,577.6 370.0,576.0 370.1,574.4 370.5,572.9 371.2,571.5 372.1,570.2 373.2,569.1 374.5,568.2 375.9,567.5 377.4,567.1 379.0,567.0 380.6,567.1 382.1,567.5 383.5,568.2 384.8,569.1 385.9,570.2 386.8,571.5 387.5,572.9 387.9,574.4 388.0,576.0" /><polyline points="409.7,568.8 411.3,570.1 412.5,571.6 413.3,573.4 413.8,575.4 413.7,577.4 413.3,579.3 412.4,581.1 411.2,582.7 409.6,584.0 407.8,584.8" /><polyline points="400.3,584.1 398.7,582.9 397.4,581.4 396.4,579.7 395.9,577.7 395.8,575.7 396.2,573.8 397.0,571.9 398.1,570.3 399.6,569.0 401.4,568.0" /><polyline points="434.6,568.8 436.2,569.9 437.6,571.2 438.7,572.9 439.4,574.7 439.7,576.6 439.5,578.5 439.0,580.4 438.1,582.1 436.8,583.6 435.2,584.7" /><polyline points="427.9,585.5 426.1,584.7 424.6,583.6 423.3,582.1 422.4,580.4 421.8,578.5 421.7,576.6 422.0,574.6 422.7,572.8 423.8,571.2 425.2,569.9" /><polyline points="459.0,568.6 460.8,569.2 462.5,570.2 463.9,571.6 464.9,573.2 465.6,575.0 465.9,576.9 465.8,578.8 465.3,580.7 464.4,582.4 463.1,583.8" /><polyline points="456.3,586.3 454.4,586.0 452.6,585.2 451.0,584.1 449.7,582.7 448.7,581.1 448.1,579.2 447.9,577.3 448.1,575.4 448.7,573.6 449.7,571.9" /><polyline points="483.0,568.2 484.9,568.4 486.8,568.9 488.5,569.9 489.9,571.2 491.0,572.7 491.8,574.5 492.2,576.4 492.2,578.3 491.7,580.2 490.9,581.9" /><polyline points="484.9,586.1 482.9,586.2 481.0,585.9 479.2,585.3 477.6,584.2 476.2,582.9 475.2,581.2 474.5,579.4 474.2,577.5 474.4,575.6 474.9,573.7" /><polyline points="506.5,568.2 508.5,567.7 510.4,567.8 512.3,568.2 514.1,569.1 515.6,570.3 516.9,571.8 517.8,573.6 518.2,575.5 518.3,577.5 517.9,579.4" /><polyline points="512.9,584.9 511.1,585.5 509.1,585.7 507.1,585.4 505.3,584.8 503.6,583.7 502.3,582.3 501.2,580.6 500.6,578.8 500.3,576.8 500.5,574.9" /><polyline points="529.9,568.6 531.7,567.7 533.6,567.1 535.7,567.0 537.7,567.4 539.5,568.2 541.2,569.4 542.5,571.0 543.4,572.8 543.9,574.7 544.0,576.8" /><polyline points="540.1,583.4 538.4,584.4 536.4,584.9 534.4,585.0 532.4,584.6 530.5,583.8 528.9,582.6 527.6,581.1 526.6,579.3 526.1,577.3 526.0,575.3" /><polyline points="284.0,602.0 283.9,603.6 283.5,605.1 282.8,606.5 281.9,607.8 280.8,608.9 279.5,609.8 278.1,610.5 276.6,610.9 275.0,611.0 273.4,610.9 271.9,610.5 270.5,609.8 269.2,608.9 268.1,607.8 267.2,606.5 266.5,605.1 266.1,603.6 266.0,602.0 266.1,600.4 266.5,598.9 267.2,597.5 268.1,596.2 269.2,595.1 270.5,594.2 271.9,593.5 273.4,593.1 275.0,593.0 276.6,593.1 278.1,593.5 279.5,594.2 280.8,595.1 281.9,596.2 282.8,597.5 283.5,598.9 283.9,600.4 284.0,602.0" /><polyline points="310.0,602.0 309.9,603.6 309.5,605.1 308.8,606.5 307.9,607.8 306.8,608.9 305.5,609.8 304.1,610.5 302.6,610.9 301.0,611.0 299.4,610.9 297.9,610.5 296.5,609.8 295.2,608.9 294.1,607.8 293.2,606.5 292.5,605.1 292.1,603.6 292.0,602.0 292.1,600.4 292.5,598.9 293.2,597.5 294.1,596.2 295.2,595.1 296.5,594.2 297.9,593.5 299.4,593.1 301.0,593.0 302.6,593.1 304.1,593.5 305.5,594.2 306.8,595.1 307.9,596.2 308.8,597.5 309.5,598.9 309.9,600.4 310.0,602.0" /><polyline points="336.0,602.0 335.9,603.6 335.5,605.1 334.8,606.5 333.9,607.8 332.8,608.9 331.5,609.8 330.1,610.5 328.6,610.9 327.0,611.0 325.4,610.9 323.9,610.5 322.5,609.8 321.2,608.9 320.1,607.8 319.2,606.5 318.5,605.1 318.1,603.6 318.0,602.0 318.1,600.4 318.5,598.9 319.2,597.5 320.1,596.2 321.2,595.1 322.5,594.2 323.9,593.5 325.4,593.1 327.0,593.0 328.6,593.1 330.1,593.5 331.5,594.2 332.8,595.1 333.9,596.2 334.8,597.5 335.5,598.9 335.9,600.4 336.0,602.0" /><polyline points="362.0,602.0 361.9,603.6 361.5,605.1 360.8,606.5 359.9,607.8 358.8,608.9 357.5,609.8 356.1,610.5 354.6,610.9 353.0,611.0 351.4,610.9 349.9,610.5 348.5,609.8 347.2,608.9 346.1,607.8 345.2,606.5 344.5,605.1 344.1,603.6 344.0,602.0 344.1,600.4 344.5,598.9 345.2,597.5 346.1,596.2 347.2,595.1 348.5,594.2 349.9,593.5 351.4,593.1 353.0,593.0 354.6,593.1 356.1,593.5 357.5,594.2 358.8,595.1 359.9,596.2 360.8,597.5 361.5,598.9 361.9,600.4 362.0,602.0" /><polyline points="388.0,602.0 387.9,603.6 387.5,605.1 386.8,606.5 385.9,607.8 384.8,608.9 383.5,609.8 382.1,610.5 380.6,610.9 379.0,611.0 377.4,610.9 375.9,610.5 374.5,609.8 373.2,608.9 372.1,607.8 371.2,606.5 370.5,605.1 370.1,603.6 370.0,602.0 370.1,600.4 370.5,598.9 371.2,597.5 372.1,596.2 373.2,595.1 374.5,594.2 375.9,593.5 377.4,593.1 379.0,593.0 380.6,593.1 382.1,593.5 383.5,594.2 384.8,595.1 385.9,596.2 386.8,597.5 387.5,598.9 387.9,600.4 388.0,602.0" /><polyline points="414.0,602.0 413.9,603.6 413.5,605.1 412.8,606.5 411.9,607.8 410.8,608.9 409.5,609.8 408.1,610.5 406.6,610.9 405.0,611.0 403.4,610.9 401.9,610.5 400.5,609.8 399.2,608.9 398.1,607.8 397.2,606.5 396.5,605.1 396.1,603.6 396.0,602.0 396.1,600.4 396.5,598.9 397.2,597.5 398.1,596.2 399.2,595.1 400.5,594.2 401.9,593.5 403.4,593.1 405.0,593.0 406.6,593.1 408.1,593.5 409.5,594.2 410.8,595.1 411.9,596.2 412.8,597.5 413.5,598.9 413.9,600.4 414.0,602.0" /><polyline points="440.0,602.0 439.9,603.6 439.5,605.1 438.8,606.5 437.9,607.8 436.8,608.9 435.5,609.8 434.1,610.5 432.6,610.9 431.0,611.0 429.4,610.9 427.9,610.5 426.5,609.8 425.2,608.9 424.1,607.8 423.2,606.5 422.5,605.1 422.1,603.6 422.0,602.0 422.1,600.4 422.5,598.9 423.2,597.5 424.1,596.2 425.2,595.1 426.5,594.2 427.9,593.5 429.4,593.1 431.0,593.0 432.6,593.1 434.1,593.5 435.5,594.2 436.8,595.1 437.9,596.2 438.8,597.5 439.5,598.9 439.9,600.4 440.0,602.0" /><polyline points="466.0,602.0 465.9,603.6 465.5,605.1 464.8,606.5 463.9,607.8 462.8,608.9 461.5,609.8 460.1,610.5 458.6,610.9 457.0,611.0 455.4,610.9 453.9,610.5 452.5,609.8 451.2,608.9 450.1,607.8 449.2,606.5 448.5,605.1 448.1,603.6 448.0,602.0 448.1,600.4 448.5,598.9 449.2,597.5 450.1,596.2 451.2,595.1 452.5,594.2 453.9,593.5 455.4,593.1 457.0,593.0 458.6,593.1 460.1,593.5 461.5,594.2 462.8,595.1 463.9,596.2 464.8,597.5 465.5,598.9 465.9,600.4 466.0,602.0" /><polyline points="492.0,602.0 491.9,603.6 491.5,605.1 490.8,606.5 489.9,607.8 488.8,608.9 487.5,609.8 486.1,610.5 484.6,610.9 483.0,611.0 481.4,610.9 479.9,610.5 478.5,609.8 477.2,608.9 476.1,607.8 475.2,606.5 474.5,605.1 474.1,603.6 474.0,602.0 474.1,600.4 474.5,598.9 475.2,597.5 476.1,596.2 477.2,595.1 478.5,594.2 479.9,593.5 481.4,593.1 483.0,593.0 484.6,593.1 486.1,593.5 487.5,594.2 488.8,595.1 489.9,596.2 490.8,597.5 491.5,598.9 491.9,600.4 492.0,602.0" /><polyline points="518.0,602.0 517.9,603.6 517.5,605.1 516.8,606.5 515.9,607.8 514.8,608.9 513.5,609.8 512.1,610.5 510.6,610.9 509.0,611.0 507.4,610.9 505.9,610.5 504.5,609.8 503.2,608.9 502.1,607.8 501.2,606.5 500.5,605.1 500.1,603.6 500.0,602.0 500.1,600.4 500.5,598.9 501.2,597.5 502.1,596.2 503.2,595.1 504.5,594.2 505.9,593.5 507.4,593.1 509.0,593.0 510.6,593.1 512.1,593.5 513.5,594.2 514.8,595.1 515.9,596.2 516.8,597.5 517.5,598.9 517.9,600.4 518.0,602.0" /><polyline points="544.0,602.0 543.9,603.6 543.5,605.1 542.8,606.5 541.9,607.8 540.8,608.9 539.5,609.8 538.1,610.5 536.6,610.9 535.0,611.0 533.4,610.9 531.9,610.5 530.5,609.8 529.2,608.9 528.1,607.8 527.2,606.5 526.5,605.1 526.1,603.6 526.0,602.0 526.1,600.4 526.5,598.9 527.2,597.5 528.1,596.2 529.2,595.1 530.5,594.2 531.9,593.5 533.4,593.1 535.0,593.0 536.6,593.1 538.1,593.5 539.5,594.2 540.8,595.1 541.9,596.2 542.8,597.5 543.5,598.9 543.9,600.4 544.0,602.0" /><polyline points="284.0,628.0 283.9,629.6 283.5,631.1 282.8,632.5 281.9,633.8 280.8,634.9 279.5,635.8 278.1,636.5 276.6,636.9 275.0,637.0 273.4,636.9 271.9,636.5 270.5,635.8 269.2,634.9 268.1,633.8 267.2,632.5 266.5,631.1 266.1,629.6 266.0,628.0 266.1,626.4 266.5,624.9 267.2,623.5 268.1,622.2 269.2,621.1 270.5,620.2 271.9,619.5 273.4,619.1 275.0,619.0 276.6,619.1 278.1,619.5 279.5,620.2 280.8,621.1 281.9,622.2 282.8,623.5 283.5,624.9 283.9,626.4 284.0,628.0" /><polyline points="310.0,628.0 309.9,629.6 309.5,631.1 308.8,632.5 307.9,633.8 306.8,634.9 305.5,635.8 304.1,636.5 302.6,636.9 301.0,637.0 299.4,636.9 297.9,636.5 296.5,635.8 295.2,634.9 294.1,633.8 293.2,632.5 292.5,631.1 292.1,629.6 292.0,628.0 292.1,626.4 292.5,624.9 293.2,623.5 294.1,622.2 295.2,621.1 296.5,620.2 297.9,619.5 299.4,619.1 301.0,619.0 302.6,619.1 304.1,619.5 305.5,620.2 306.8,621.1 307.9,622.2 308.8,623.5 309.5,624.9 309.9,626.4 310.0,628.0" /><polyline points="336.0,628.0 335.9,629.6 335.5,631.1 334.8,632.5 333.9,633.8 332.8,634.9 331.5,635.8 330.1,636.5 328.6,636.9 327.0,637.0 325.4,636.9 323.9,636.5 322.5,635.8 321.2,634.9 320.1,633.8 319.2,632.5 318.5,631.1 318.1,629.6 318.0,628.0 318.1,626.4 318.5,624.9 319.2,623.5 320.1,622.2 321.2,621.1 322.5,620.2 323.9,619.5 325.4,619.1 327.0,619.0 328.6,619.1 330.1,619.5 331.5,620.2 332.8,621.1 333.9,622.2 334.8,623.5 335.5,624.9 335.9,626.4 336.0,628.0" /><polyline points="362.0,628.0 361.9,629.6 361.5,631.1 360.8,632.5 359.9,633.8 358.8,634.9 357.5,635.8 356.1,636.5 354.6,636.9 353.0,637.0 351.4,636.9 349.9,636.5 348.5,635.8 347.2,634.9 346.1,633.8 345.2,632.5 344.5,631.1 344.1,629.6 344.0,628.0 344.1,626.4 344.5,624.9 345.2,623.5 346.1,622.2 347.2,621.1 348.5,620.2 349.9,619.5 351.4,619.1 353.0,619.0 354.6,619.1 356.1,619.5 357.5,620.2 358.8,621.1 359.9,622.2 360.8,623.5 361.5,624.9 361.9,626.4 362.0,628.0" /><polyline points="388.0,628.0 387.9,629.6 387.5,631.1 386.8,632.5 385.9,633.8 384.8,634.9 383.5,635.8 382.1,636.5 380.6,636.9 379.0,637.0 377.4,636.9 375.9,636.5 374.5,635.8 373.2,634.9 372.1,633.8 371.2,632.5 370.5,631.1 370.1,629.6 370.0,628.0 370.1,626.4 370.5,624.9 371.2,623.5 372.1,622.2 373.2,621.1 374.5,620.2 375.9,619.5 377.4,619.1 379.0,619.0 380.6,619.1 382.1,619.5 383.5,620.2 384.8,621.1 385.9,622.2 386.8,623.5 387.5,624.9 387.9,626.4 388.0,628.0" /><polyline points="414.0,628.0 413.9,629.6 413.5,631.1 412.8,632.5 411.9,633.8 410.8,634.9 409.5,635.8 408.1,636.5 406.6,636.9 405.0,637.0 403.4,636.9 401.9,636.5 400.5,635.8 399.2,634.9 398.1,633.8 397.2,632.5 396.5,631.1 396.1,629.6 396.0,628.0 396.1,626.4 396.5,624.9 397.2,623.5 398.1,622.2 399.2,621.1 400.5,620.2 401.9,619.5 403.4,619.1 405.0,619.0 406.6,619.1 408.1,619.5 409.5,620.2 410.8,621.1 411.9,622.2 412.8,623.5 413.5,624.9 413.9,626.4 414.0,628.0" /><polyline points="440.0,628.0 439.9,629.6 439.5,631.1 438.8,632.5 437.9,633.8 436.8,634.9 435.5,635.8 434.1,636.5 432.6,636.9 431.0,637.0 429.4,636.9 427.9,636.5 426.5,635.8 425.2,634.9 424.1,633.8 423.2,632.5 422.5,631.1 422.1,629.6 422.0,628.0 422.1,626.4 422.5,624.9 423.2,623.5 424.1,622.2 425.2,621.1 426.5,620.2 427.9,619.5 429.4,619.1 431.0,619.0 432.6,619.1 434.1,619.5 435.5,620.2 436.8,621.1 437.9,622.2 438.8,623.5 439.5,624.9 439.9,626.4 440.0,628.0" /><polyline points="466.0,628.0 465.9,629.6 465.5,631.1 464.8,632.5 463.9,633.8 462.8,634.9 461.5,635.8 460.1,636.5 458.6,636.9 457.0,637.0 455.4,636.9 453.9,636.5 452.5,635.8 451.2,634.9 450.1,633.8 449.2,632.5 448.5,631.1 448.1,629.6 448.0,628.0 448.1,626.4 448.5,624.9 449.2,623.5 450.1,622.2 451.2,621.1 452.5,620.2 453.9,619.5 455.4,619.1 457.0,619.0 458.6,619.1 460.1,619.5 461.5,620.2 462.8,621.1 463.9,622.2 464.8,623.5 465.5,624.9 465.9,626.4 466.0,628.0" /><polyline points="492.0,628.0 491.9,629.6 491.5,631.1 490.8,632.5 489.9,633.8 488.8,634.9 487.5,635.8 486.1,636.5 484.6,636.9 483.0,637.0 481.4,636.9 479.9,636.5 478.5,635.8 477.2,634.9 476.1,633.8 475.2,632.5 474.5,631.1 474.1,629.6 474.0,628.0 474.1,626.4 474.5,624.9 475.2,623.5 476.1,622.2 477.2,621.1 478.5,620.2 479.9,619.5 481.4,619.1 483.0,619.0 484.6,619.1 486.1,619.5 487.5,620.2 488.8,621.1 489.9,622.2 490.8,623.5 491.5,624.9 491.9,626.4 492.0,628.0" /><polyline points="518.0,628.0 517.9,629.6 517.5,631.1 516.8,632.5 515.9,633.8 514.8,634.9 513.5,635.8 512.1,636.5 510.6,636.9 509.0,637.0 507.4,636.9 505.9,636.5 504.5,635.8 503.2,634.9 502.1,633.8 501.2,632.5 500.5,631.1 500.1,629.6 500.0,628.0 500.1,626.4 500.5,624.9 501.2,623.5 502.1,622.2 503.2,621.1 504.5,620.2 505.9,619.5 507.4,619.1 509.0,619.0 510.6,619.1 512.1,619.5 513.5,620.2 514.8,621.1 515.9,622.2 516.8,623.5 517.5,624.9 517.9,626.4 518.0,628.0" /><polyline points="544.0,628.0 543.9,629.6 543.5,631.1 542.8,632.5 541.9,633.8 540.8,634.9 539.5,635.8 538.1,636.5 536.6,636.9 535.0,637.0 533.4,636.9 531.9,636.5 530.5,635.8 529.2,634.9 528.1,633.8 527.2,632.5 526.5,631.1 526.1,629.6 526.0,628.0 526.1,626.4 526.5,624.9 527.2,623.5 528.1,622.2 529.2,621.1 530.5,620.2 531.9,619.5 533.4,619.1 535.0,619.0 536.6,619.1 538.1,619.5 539.5,620.2 540.8,621.1 541.9,622.2 542.8,623.5 543.5,624.9 543.9,626.4 544.0,628.0" /><polyline points="284.0,654.0 283.9,655.6 283.5,657.1 282.8,658.5 281.9,659.8 280.8,660.9 279.5,661.8 278.1,662.5 276.6,662.9 275.0,663.0 273.4,662.9 271.9,662.5 270.5,661.8 269.2,660.9 268.1,659.8 267.2,658.5 266.5,657.1 266.1,655.6 266.0,654.0 266.1,652.4 266.5,650.9 267.2,649.5 268.1,648.2 269.2,647.1 270.5,646.2 271.9,645.5 273.4,645.1 275.0,645.0 276.6,645.1 278.1,645.5 279.5,646.2 280.8,647.1 281.9,648.2 282.8,649.5 283.5,650.9 283.9,652.4 284.0,654.0" /><polyline points="310.0,654.0 309.9,655.6 309.5,657.1 308.8,658.5 307.9,659.8 306.8,660.9 305.5,661.8 304.1,662.5 302.6,662.9 301.0,663.0 299.4,662.9 297.9,662.5 296.5,661.8 295.2,660.9 294.1,659.8 293.2,658.5 292.5,657.1 292.1,655.6 292.0,654.0 292.1,652.4 292.5,650.9 293.2,649.5 294.1,648.2 295.2,647.1 296.5,646.2 297.9,645.5 299.4,645.1 301.0,645.0 302.6,645.1 304.1,645.5 305.5,646.2 306.8,647.1 307.9,648.2 308.8,649.5 309.5,650.9 309.9,652.4 310.0,654.0" /><polyline points="336.0,654.0 335.9,655.6 335.5,657.1 334.8,658.5 333.9,659.8 332.8,660.9 331.5,661.8 330.1,662.5 328.6,662.9 327.0,663.0 325.4,662.9 323.9,662.5 322.5,661.8 321.2,660.9 320.1,659.8 319.2,658.5 318.5,657.1 318.1,655.6 318.0,654.0 318.1,652.4 318.5,650.9 319.2,649.5 320.1,648.2 321.2,647.1 322.5,646.2 323.9,645.5 325.4,645.1 327.0,645.0 328.6,645.1 330.1,645.5 331.5,646.2 332.8,647.1 333.9,648.2 334.8,649.5 335.5,650.9 335.9,652.4 336.0,654.0" /><polyline points="362.0,654.0 361.9,655.6 361.5,657.1 360.8,658.5 359.9,659.8 358.8,660.9 357.5,661.8 356.1,662.5 354.6,662.9 353.0,663.0 351.4,662.9 349.9,662.5 348.5,661.8 347.2,660.9 346.1,659.8 345.2,658.5 344.5,657.1 344.1,655.6 344.0,654.0 344.1,652.4 344.5,650.9 345.2,649.5 346.1,648.2 347.2,647.1 348.5,646.2 349.9,645.5 351.4,645.1 353.0,645.0 354.6,645.1 356.1,645.5 357.5,646.2 358.8,647.1 359.9,648.2 360.8,649.5 361.5,650.9 361.9,652.4 362.0,654.0" /><polyline points="388.0,654.0 387.9,655.6 387.5,657.1 386.8,658.5 385.9,659.8 384.8,660.9 383.5,661.8 382.1,662.5 380.6,662.9 379.0,663.0 377.4,662.9 375.9,662.5 374.5,661.8 373.2,660.9 372.1,659.8 371.2,658.5 370.5,657.1 370.1,655.6 370.0,654.0 370.1,652.4 370.5,650.9 371.2,649.5 372.1,648.2 373.2,647.1 374.5,646.2 375.9,645.5 377.4,645.1 379.0,645.0 380.6,645.1 382.1,645.5 383.5,646.2 384.8,647.1 385.9,648.2 386.8,649.5 387.5,650.9 387.9,652.4 388.0,654.0" /><polyline points="414.0,654.0 413.9,655.6 413.5,657.1 412.8,658.5 411.9,659.8 410.8,660.9 409.5,661.8 408.1,662.5 406.6,662.9 405.0,663.0 403.4,662.9 401.9,662.5 400.5,661.8 399.2,660.9 398.1,659.8 397.2,658.5 396.5,657.1 396.1,655.6 396.0,654.0 396.1,652.4 396.5,650.9 397.2,649.5 398.1,648.2 399.2,647.1 400.5,646.2 401.9,645.5 403.4,645.1 405.0,645.0 406.6,645.1 408.1,645.5 409.5,646.2 410.8,647.1 411.9,648.2 412.8,649.5 413.5,650.9 413.9,652.4 414.0,654.0" /><polyline points="440.0,654.0 439.9,655.6 439.5,657.1 438.8,658.5 437.9,659.8 436.8,660.9 435.5,661.8 434.1,662.5 432.6,662.9 431.0,663.0 429.4,662.9 427.9,662.5 426.5,661.8 425.2,660.9 424.1,659.8 423.2,658.5 422.5,657.1 422.1,655.6 422.0,654.0 422.1,652.4 422.5,650.9 423.2,649.5 424.1,648.2 425.2,647.1 426.5,646.2 427.9,645.5 429.4,645.1 431.0,645.0 432.6,645.1 434.1,645.5 435.5,646.2 436.8,647.1 437.9,648.2 438.8,649.5 439.5,650.9 439.9,652.4 440.0,654.0" /><polyline points="466.0,654.0 465.9,655.6 465.5,657.1 464.8,658.5 463.9,659.8 462.8,660.9 461.5,661.8 460.1,662.5 458.6,662.9 457.0,663.0 455.4,662.9 453.9,662.5 452.5,661.8 451.2,660.9 450.1,659.8 449.2,658.5 448.5,657.1 448.1,655.6 448.0,654.0 448.1,652.4 448.5,650.9 449.2,649.5 450.1,648.2 451.2,647.1 452.5,646.2 453.9,645.5 455.4,645.1 457.0,645.0 458.6,645.1 460.1,645.5 461.5,646.2 462.8,647.1 463.9,648.2 464.8,649.5 465.5,650.9 465.9,652.4 466.0,654.0" /><polyline points="492.0,654.0 491.9,655.6 491.5,657.1 490.8,658.5 489.9,659.8 488.8,660.9 487.5,661.8 486.1,662.5 484.6,662.9 483.0,663.0 481.4,662.9 479.9,662.5 478.5,661.8 477.2,660.9 476.1,659.8 475.2,658.5 474.5,657.1 474.1,655.6 474.0,654.0 474.1,652.4 474.5,650.9 475.2,649.5 476.1,648.2 477.2,647.1 478.5,646.2 479.9,645.5 481.4,645.1 483.0,645.0 484.6,645.1 486.1,645.5 487.5,646.2 488.8,647.1 489.9,648.2 490.8,649.5 491.5,650.9 491.9,652.4 492.0,654.0" /><polyline points="518.0,654.0 517.9,655.6 517.5,657.1 516.8,658.5 515.9,659.8 514.8,660.9 513.5,661.8 512.1,662.5 510.6,662.9 509.0,663.0 507.4,662.9 505.9,662.5 504.5,661.8 503.2,660.9 502.1,659.8 501.2,658.5 500.5,657.1 500.1,655.6 500.0,654.0 500.1,652.4 500.5,650.9 501.2,649.5 502.1,648.2 503.2,647.1 504.5,646.2 505.9,645.5 507.4,645.1 509.0,645.0 510.6,645.1 512.1,645.5 513.5,646.2 514.8,647.1 515.9,648.2 516.8,649.5 517.5,650.9 517.9,652.4 518.0,654.0" /><polyline points="544.0,654.0 543.9,655.6 543.5,657.1 542.8,658.5 541.9,659.8 540.8,660.9 539.5,661.8 538.1,662.5 536.6,662.9 535.0,663.0 533.4,662.9 531.9,662.5 530.5,661.8 529.2,660.9 528.1,659.8 527.2,658.5 526.5,657.1 526.1,655.6 526.0,654.0 526.1,652.4 526.5,650.9 527.2,649.5 528.1,648.2 529.2,647.1 530.5,646.2 531.9,645.5 533.4,645.1 535.0,645.0 536.6,645.1 538.1,645.5 539.5,646.2 540.8,647.1 541.9,648.2 542.8,649.5 543.5,650.9 543.9,652.4 544.0,654.0" /><polyline points="284.0,680.0 283.9,681.6 283.5,683.1 282.8,684.5 281.9,685.8 280.8,686.9 279.5,687.8 278.1,688.5 276.6,688.9 275.0,689.0 273.4,688.9 271.9,688.5 270.5,687.8 269.2,686.9 268.1,685.8 267.2,684.5 266.5,683.1 266.1,681.6 266.0,680.0 266.1,678.4 266.5,676.9 267.2,675.5 268.1,674.2 269.2,673.1 270.5,672.2 271.9,671.5 273.4,671.1 275.0,671.0 276.6,671.1 278.1,671.5 279.5,672.2 280.8,673.1 281.9,674.2 282.8,675.5 283.5,676.9 283.9,678.4 284.0,680.0" /><polyline points="310.0,680.0 309.9,681.6 309.5,683.1 308.8,684.5 307.9,685.8 306.8,686.9 305.5,687.8 304.1,688.5 302.6,688.9 301.0,689.0 299.4,688.9 297.9,688.5 296.5,687.8 295.2,686.9 294.1,685.8 293.2,684.5 292.5,683.1 292.1,681.6 292.0,680.0 292.1,678.4 292.5,676.9 293.2,675.5 294.1,674.2 295.2,673.1 296.5,672.2 297.9,671.5 299.4,671.1 301.0,671.0 302.6,671.1 304.1,671.5 305.5,672.2 306.8,673.1 307.9,674.2 308.8,675.5 309.5,676.9 309.9,678.4 310.0,680.0" /><polyline points="336.0,680.0 335.9,681.6 335.5,683.1 334.8,684.5 333.9,685.8 332.8,686.9 331.5,687.8 330.1,688.5 328.6,688.9 327.0,689.0 325.4,688.9 323.9,688.5 322.5,687.8 321.2,686.9 320.1,685.8 319.2,684.5 318.5,683.1 318.1,681.6 318.0,680.0 318.1,678.4 318.5,676.9 319.2,675.5 320.1,674.2 321.2,673.1 322.5,672.2 323.9,671.5 325.4,671.1 327.0,671.0 328.6,671.1 330.1,671.5 331.5,672.2 332.8,673.1 333.9,674.2 334.8,675.5 335.5,676.9 335.9,678.4 336.0,680.0" /><polyline points="362.0,680.0 361.9,681.6 361.5,683.1 360.8,684.5 359.9,685.8 358.8,686.9 357.5,687.8 356.1,688.5 354.6,688.9 353.0,689.0 351.4,688.9 349.9,688.5 348.5,687.8 347.2,686.9 346.1,685.8 345.2,684.5 344.5,683.1 344.1,681.6 344.0,680.0 344.1,678.4 344.5,676.9 345.2,675.5 346.1,674.2 347.2,673.1 348.5,672.2 349.9,671.5 351.4,671.1 353.0,671.0 354.6,671.1 356.1,671.5 357.5,672.2 358.8,673.1 359.9,674.2 360.8,675.5 361.5,676.9 361.9,678.4 362.0,680.0" /><polyline points="388.0,680.0 387.9,681.6 387.5,683.1 386.8,684.5 385.9,685.8 384.8,686.9 383.5,687.8 382.1,688.5 380.6,688.9 379.0,689.0 377.4,688.9 375.9,688.5 374.5,687.8 373.2,686.9 372.1,685.8 371.2,684.5 370.5,683.1 370.1,681.6 370.0,680.0 370.1,678.4 370.5,676.9 371.2,675.5 372.1,674.2 373.2,673.1 374.5,672.2 375.9,671.5 377.4,671.1 379.0,671.0 380.6,671.1 382.1,671.5 383.5,672.2 384.8,673.1 385.9,674.2 386.8,675.5 387.5,676.9 387.9,678.4 388.0,680.0" /><polyline points="414.0,680.0 413.9,681.6 413.5,683.1 412.8,684.5 411.9,685.8 410.8,686.9 409.5,687.8 408.1,688.5 406.6,688.9 405.0,689.0 403.4,688.9 401.9,688.5 400.5,687.8 399.2,686.9 398.1,685.8 397.2,684.5 396.5,683.1 396.1,681.6 396.0,680.0 396.1,678.4 396.5,676.9 397.2,675.5 398.1,674.2 399.2,673.1 400.5,672.2 401.9,671.5 403.4,671.1 405.0,671.0 406.6,671.1 408.1,671.5 409.5,672.2 410.8,673.1 411.9,674.2 412.8,675.5 413.5,676.9 413.9,678.4 414.0,680.0" /><polyline points="440.0,680.0 439.9,681.6 439.5,683.1 438.8,684.5 437.9,685.8 436.8,686.9 435.5,687.8 434.1,688.5 432.6,688.9 431.0,689.0 429.4,688.9 427.9,688.5 426.5,687.8 425.2,686.9 424.1,685.8 423.2,684.5 422.5,683.1 422.1,681.6 422.0,680.0 422.1,678.4 422.5,676.9 423.2,675.5 424.1,674.2 425.2,673.1 426.5,672.2 427.9,671.5 429.4,671.1 431.0,671.0 432.6,671.1 434.1,671.5 435.5,672.2 436.8,673.1 437.9,674.2 438.8,675.5 439.5,676.9 439.9,678.4 440.0,680.0" /><polyline points="466.0,680.0 465.9,681.6 465.5,683.1 464.8,684.5 463.9,685.8 462.8,686.9 461.5,687.8 460.1,688.5 458.6,688.9 457.0,689.0 455.4,688.9 453.9,688.5 452.5,687.8 451.2,686.9 450.1,685.8 449.2,684.5 448.5,683.1 448.1,681.6 448.0,680.0 448.1,678.4 448.5,676.9 449.2,675.5 450.1,674.2 451.2,673.1 452.5,672.2 453.9,671.5 455.4,671.1 457.0,671.0 458.6,671.1 460.1,671.5 461.5,672.2 462.8,673.1 463.9,674.2 464.8,675.5 465.5,676.9 465.9,678.4 466.0,680.0" /><polyline points="492.0,680.0 491.9,681.6 491.5,683.1 490.8,684.5 489.9,685.8 488.8,686.9 487.5,687.8 486.1,688.5 484.6,688.9 483.0,689.0 481.4,688.9 479.9,688.5 478.5,687.8 477.2,686.9 476.1,685.8 475.2,684.5 474.5,683.1 474.1,681.6 474.0,680.0 474.1,678.4 474.5,676.9 475.2,675.5 476.1,674.2 477.2,673.1 478.5,672.2 479.9,671.5 481.4,671.1 483.0,671.0 484.6,671.1 486.1,671.5 487.5,672.2 488.8,673.1 489.9,674.2 490.8,675.5 491.5,676.9 491.9,678.4 492.0,680.0" /><polyline points="518.0,680.0 517.9,681.6 517.5,683.1 516.8,684.5 515.9,685.8 514.8,686.9 513.5,687.8 512.1,688.5 510.6,688.9 509.0,689.0 507.4,688.9 505.9,688.5 504.5,687.8 503.2,686.9 502.1,685.8 501.2,684.5 500.5,683.1 500.1,681.6 500.0,680.0 500.1,678.4 500.5,676.9 501.2,675.5 502.1,674.2 503.2,673.1 504.5,672.2 505.9,671.5 507.4,671.1 509.0,671.0 510.6,671.1 512.1,671.5 513.5,672.2 514.8,673.1 515.9,674.2 516.8,675.5 517.5,676.9 517.9,678.4 518.0,680.0" /><polyline points="544.0,680.0 543.9,681.6 543.5,683.1 542.8,684.5 541.9,685.8 540.8,686.9 539.5,687.8 538.1,688.5 536.6,688.9 535.0,689.0 533.4,688.9 531.9,688.5 530.5,687.8 529.2,686.9 528.1,685.8 527.2,684.5 526.5,683.1 526.1,681.6 526.0,680.0 526.1,678.4 526.5,676.9 527.2,675.5 528.1,674.2 529.2,673.1 530.5,672.2 531.9,671.5 533.4,671.1 535.0,671.0 536.6,671.1 538.1,671.5 539.5,672.2 540.8,673.1 541.9,674.2 542.8,675.5 543.5,676.9 543.9,678.4 544.0,680.0" /></g><g id="03_Gold_Accent" inkscape:groupmode="layer" inkscape:label="03_Gold_Accent" stroke="#B8960C" fill="none" stroke-width="1.12" stroke-linecap="round" stroke-linejoin="round"><polyline points="454.6,400.1 453.4,399.8 452.3,399.2 451.3,398.6 450.4,397.8 449.6,396.9 448.9,395.9 448.4,394.8 448.0,393.6 447.8,392.4 447.8,391.2" /><polyline points="449.1,386.7 449.8,385.7 450.6,384.9 451.5,384.1 452.6,383.4 453.7,383.0 454.8,382.6 456.0,382.4 457.2,382.4 458.4,382.6 459.6,382.9" /><polyline points="463.5,385.4 464.2,386.4 464.9,387.4 465.3,388.6 465.6,389.7 465.8,390.9 465.7,392.2 465.6,393.4 465.2,394.5 464.7,395.6 464.1,396.7" /><polyline points="478.9,399.2 477.9,398.5 477.0,397.7 476.2,396.7 475.6,395.7 475.1,394.6 474.8,393.4 474.6,392.2 474.6,391.0 474.8,389.8 475.1,388.6" /><polyline points="477.7,384.7 478.7,384.0 479.8,383.4 480.9,383.0 482.1,382.7 483.3,382.6 484.5,382.6 485.7,382.8 486.9,383.2 488.0,383.7 489.0,384.4" /><polyline points="491.9,388.1 492.3,389.2 492.5,390.4 492.6,391.6 492.5,392.8 492.2,394.0 491.8,395.2 491.3,396.3 490.5,397.3 489.7,398.1 488.8,398.9" /><polyline points="407.3,426.2 406.2,426.7 405.1,427.0 403.9,427.2 402.7,427.2 401.5,427.1 400.3,426.8 399.2,426.3 398.1,425.7 397.1,425.0 396.3,424.2" /><polyline points="394.2,420.0 394.1,418.8 394.1,417.6 394.3,416.4 394.6,415.2 395.1,414.1 395.7,413.1 396.5,412.1 397.3,411.3 398.3,410.6 399.4,410.0" /><polyline points="404.0,409.3 405.2,409.5 406.4,409.9 407.4,410.4 408.5,411.0 409.4,411.8 410.2,412.7 410.9,413.7 411.4,414.8 411.8,416.0 412.0,417.2" /><polyline points="429.9,425.9 429.0,425.9 428.2,425.9 427.3,425.7 426.5,425.5 425.6,425.2 424.9,424.9 424.1,424.4 423.4,423.9 422.8,423.3 422.2,422.7" /><polyline points="420.6,419.7 420.3,418.9 420.2,418.1 420.1,417.2 420.1,416.3 420.2,415.5 420.4,414.6 420.7,413.8 421.0,413.0 421.4,412.2 421.9,411.5" /><polyline points="424.4,409.3 425.2,408.8 426.0,408.5 426.8,408.2 427.6,408.0 428.5,407.9 429.4,407.9 430.2,408.0 431.1,408.1 431.9,408.4 432.7,408.7" /><polyline points="435.5,410.6 436.1,411.2 436.6,411.9 437.0,412.7 437.4,413.4 437.7,414.3 437.9,415.1 438.1,416.0 438.1,416.8 438.1,417.7 438.0,418.6" /><polyline points="453.0,424.2 452.2,423.8 451.5,423.4 450.8,422.9 450.2,422.3 449.6,421.7 449.1,421.0 448.6,420.3 448.2,419.6 447.9,418.8 447.7,418.0" /><polyline points="447.5,414.7 447.7,413.9 447.9,413.1 448.2,412.3 448.6,411.5 449.0,410.8 449.6,410.1 450.1,409.5 450.8,408.9 451.4,408.4 452.2,408.0" /><polyline points="455.3,407.0 456.1,406.9 457.0,406.9 457.8,407.0 458.6,407.2 459.4,407.4 460.2,407.7 461.0,408.1 461.7,408.6 462.4,409.1 463.0,409.7" /><polyline points="464.8,412.4 465.0,413.2 465.3,414.0 465.4,414.9 465.5,415.7 465.4,416.6 465.3,417.4 465.2,418.2 464.9,419.0 464.6,419.8 464.2,420.6" /><polyline points="477.6,422.2 477.0,421.6 476.6,420.8 476.2,420.1 475.8,419.3 475.6,418.5 475.4,417.7 475.3,416.8 475.3,416.0 475.4,415.1 475.5,414.3" /><polyline points="476.8,411.2 477.3,410.6 477.9,409.9 478.5,409.3 479.2,408.8 479.9,408.4 480.7,408.0 481.5,407.7 482.3,407.5 483.2,407.3 484.0,407.3" /><polyline points="487.3,407.8 488.1,408.1 488.8,408.5 489.5,408.9 490.2,409.5 490.8,410.0 491.4,410.7 491.9,411.4 492.3,412.1 492.7,412.9 492.9,413.7" /><polyline points="493.3,417.0 493.2,417.8 493.0,418.6 492.7,419.5 492.4,420.2 492.0,421.0 491.5,421.7 490.9,422.3 490.3,422.9 489.7,423.5 489.0,424.0" /><polyline points="503.0,421.6 502.5,420.5 502.2,419.4 502.1,418.2 502.1,417.0 502.2,415.8 502.5,414.7 502.9,413.6 503.5,412.6 504.2,411.6 505.1,410.8" /><polyline points="509.1,408.7 510.3,408.6 511.4,408.5 512.6,408.7 513.8,409.0 514.9,409.4 515.9,410.0 516.8,410.7 517.7,411.5 518.4,412.4 519.0,413.4" /><polyline points="520.0,417.8 519.9,419.0 519.7,420.1 519.2,421.2 518.7,422.3 518.0,423.2 517.2,424.1 516.3,424.8 515.3,425.5 514.2,426.0 513.1,426.3" /><polyline points="407.5,451.5 406.6,452.2 405.5,452.7 404.4,453.1 403.3,453.4 402.2,453.5 401.0,453.5 399.8,453.3 398.7,452.9 397.7,452.5 396.7,451.9" /><polyline points="393.8,448.5 393.3,447.4 393.0,446.3 392.9,445.1 392.9,444.0 393.0,442.8 393.3,441.7 393.7,440.6 394.3,439.6 395.0,438.7 395.8,437.8" /><polyline points="399.8,435.7 400.9,435.6 402.1,435.5 403.3,435.6 404.4,435.9 405.5,436.3 406.5,436.8 407.5,437.5 408.3,438.3 409.1,439.2 409.7,440.1" /><polyline points="420.8,438.8 421.7,438.4 422.6,438.1 423.5,438.0 424.5,438.0 425.4,438.1" /><polyline points="419.9,443.0 419.7,442.6 419.5,442.1 419.3,441.7 419.2,441.3 419.2,440.8" /><polyline points="424.4,438.1 425.1,438.2 425.7,438.3 426.4,438.6 427.0,438.9 427.5,439.2" /><polyline points="432.3,443.8 432.0,444.1 431.6,444.3 431.2,444.5 430.9,444.7 430.5,444.9" /><polyline points="452.9,435.1 453.2,435.0 453.5,434.8 453.9,434.7 454.2,434.7 454.6,434.6" /><polyline points="451.7,432.2 452.2,431.8 452.8,431.5 453.5,431.3 454.2,431.1 454.8,431.1" /><polyline points="447.8,441.9 447.8,441.3 448.0,440.7 448.2,440.1 448.4,439.6 448.8,439.1" /><polyline points="447.9,442.6 447.8,442.2 447.8,441.9 447.8,441.5 447.8,441.2 447.9,440.8" /><polyline points="480.6,442.8 480.6,442.4 480.5,442.1 480.5,441.7 480.6,441.3 480.6,440.9" /><polyline points="494.2,442.4 494.2,443.0 494.0,443.6 493.8,444.2 493.6,444.8 493.3,445.3" /><polyline points="516.2,438.6 516.6,438.6 516.9,438.7 517.2,438.8 517.5,438.9 517.8,439.0" /><polyline points="507.5,445.8 507.3,445.3 507.2,444.9 507.1,444.5 507.1,444.0 507.0,443.6" /><polyline points="528.7,445.0 528.7,443.8 528.9,442.7 529.3,441.5 529.9,440.5 530.5,439.5 531.3,438.6 532.2,437.8 533.2,437.1 534.3,436.6 535.4,436.2" /><polyline points="540.0,436.3 541.2,436.7 542.2,437.2 543.2,437.9 544.1,438.7 544.9,439.6 545.5,440.6 546.0,441.7 546.4,442.8 546.6,444.0 546.6,445.2" /><polyline points="545.3,449.6 544.6,450.6 543.8,451.5 542.9,452.3 541.9,452.9 540.8,453.4 539.6,453.7 538.5,453.9 537.3,453.9 536.1,453.8 534.9,453.5" /><polyline points="385.2,474.8 384.7,475.9 384.1,477.0 383.4,478.0 382.5,478.8 381.5,479.5 380.4,480.1 379.3,480.6 378.1,480.8 376.9,480.9 375.6,480.9" /><polyline points="371.3,479.1 370.3,478.3 369.5,477.4 368.8,476.4 368.3,475.3 367.9,474.1 367.7,472.9 367.7,471.7 367.8,470.4 368.1,469.2 368.5,468.1" /><polyline points="371.6,464.5 372.7,463.9 373.8,463.4 375.0,463.1 376.2,463.0 377.4,463.0 378.6,463.2 379.8,463.5 380.9,464.0 382.0,464.7 382.9,465.5" /><polyline points="408.9,476.4 408.4,477.1 407.9,477.8 407.3,478.4 406.7,479.0 406.0,479.5 405.2,479.9 404.4,480.2 403.6,480.5 402.8,480.7 401.9,480.8" /><polyline points="398.6,480.5 397.8,480.2 397.0,479.9 396.3,479.5 395.6,479.0 395.0,478.4 394.4,477.8 393.8,477.1 393.4,476.4 393.0,475.6 392.7,474.8" /><polyline points="392.2,471.6 392.2,470.7 392.4,469.9 392.6,469.0 392.9,468.2 393.3,467.5 393.7,466.7 394.3,466.1 394.9,465.4 395.5,464.9 396.2,464.4" /><polyline points="399.2,463.1 400.1,462.9 400.9,462.9 401.8,462.9 402.6,463.0 403.5,463.2 404.3,463.4 405.1,463.8 405.8,464.2 406.6,464.7 407.2,465.2" /><polyline points="431.9,477.0 431.6,477.4 431.2,477.8 430.9,478.1 430.5,478.4 430.1,478.7" /><polyline points="428.1,468.6 428.2,469.1 428.2,469.6 428.2,470.2 428.1,470.7 428.0,471.2" /><polyline points="423.8,470.0 424.1,470.1 424.3,470.3 424.6,470.5 424.8,470.8 425.0,471.0" /><polyline points="444.1,474.7 443.8,474.3 443.6,473.9 443.5,473.4 443.4,472.9 443.3,472.5" /><polyline points="453.7,476.0 453.1,476.3 452.6,476.5 452.0,476.6 451.4,476.7 450.8,476.7" /><polyline points="449.4,466.1 449.6,466.4 449.8,466.7 449.9,467.0 450.1,467.3 450.2,467.7" /><polyline points="450.7,475.9 450.2,476.0 449.6,476.0 449.1,476.1 448.6,476.0 448.1,476.0" /><polyline points="484.6,468.7 484.8,468.1 485.1,467.6 485.4,467.1 485.8,466.6 486.2,466.2" /><polyline points="487.1,469.3 487.5,468.7 487.9,468.1 488.5,467.5 489.1,467.1 489.7,466.7" /><polyline points="509.8,473.1 510.0,472.7 510.1,472.3 510.3,471.8 510.6,471.4 510.8,471.0" /><polyline points="513.4,479.5 512.9,479.4 512.5,479.2 512.0,479.0 511.5,478.8 511.1,478.6" /><polyline points="512.2,476.7 512.0,476.5 511.8,476.2 511.6,475.9 511.4,475.6 511.3,475.3" /><polyline points="509.8,474.1 509.6,473.5 509.4,472.9 509.3,472.3 509.3,471.7 509.3,471.1" /><polyline points="529.8,468.6 530.3,467.5 530.9,466.5 531.7,465.6 532.6,464.8 533.6,464.2 534.6,463.6 535.7,463.2 536.9,463.0 538.1,462.9 539.2,463.0" /><polyline points="543.5,464.6 544.4,465.4 545.2,466.3 545.9,467.2 546.4,468.3 546.8,469.4 547.1,470.5 547.2,471.7 547.1,472.9 546.9,474.1 546.5,475.2" /><polyline points="543.9,478.9 542.9,479.5 541.9,480.1 540.8,480.5 539.6,480.8 538.5,480.9 537.3,480.9 536.1,480.7 535.0,480.3 533.9,479.8 532.9,479.2" /><polyline points="410.7,500.0 410.5,500.9 410.4,501.7 410.1,502.6 409.7,503.4 409.3,504.1 408.8,504.8 408.3,505.5 407.6,506.1 407.0,506.6 406.2,507.1" /><polyline points="403.1,508.2 402.2,508.3 401.3,508.3 400.5,508.3 399.6,508.1 398.8,507.9 398.0,507.5 397.2,507.2 396.5,506.7 395.8,506.1 395.2,505.5" /><polyline points="393.3,502.7 393.1,501.9 392.8,501.1 392.7,500.2 392.7,499.3 392.7,498.5 392.8,497.6 393.1,496.8 393.3,495.9 393.7,495.2 394.2,494.4" /><polyline points="396.5,492.0 397.2,491.5 398.0,491.1 398.8,490.8 399.6,490.6 400.5,490.4 401.4,490.4 402.2,490.4 403.1,490.5 403.9,490.6 404.8,490.9" /><polyline points="418.9,502.5 419.1,501.8 419.4,501.1 419.7,500.4 420.1,499.8 420.6,499.3" /><polyline points="429.3,507.1 429.1,507.4 428.8,507.6 428.5,507.9 428.2,508.1 427.9,508.3" /><polyline points="420.0,499.3 420.0,498.8 420.0,498.4 420.1,498.0 420.2,497.6 420.3,497.2" /><polyline points="456.0,506.5 455.6,506.4 455.3,506.2 455.0,506.0 454.8,505.8 454.5,505.6" /><polyline points="453.7,508.1 453.4,507.7 453.2,507.2 453.1,506.7 453.0,506.2 453.1,505.6" /><polyline points="484.7,497.7 485.4,497.4 486.0,497.2 486.6,497.1 487.3,497.0 488.0,497.1" /><polyline points="492.2,506.7 491.8,507.2 491.3,507.6 490.8,508.1 490.3,508.5 489.7,508.8" /><polyline points="485.1,502.9 485.4,502.5 485.7,502.2 486.0,501.8 486.4,501.5 486.7,501.2" /><polyline points="485.5,496.2 486.0,496.1 486.5,496.2 487.0,496.2 487.5,496.4 488.0,496.5" /><polyline points="517.5,493.5 518.0,493.8 518.5,494.3 518.9,494.8 519.3,495.3 519.6,495.9" /><polyline points="517.1,497.0 517.9,497.4 518.6,498.0 519.2,498.6 519.7,499.3 520.1,500.1" /><polyline points="511.1,498.8 511.6,498.8 512.0,498.8 512.4,498.9 512.8,499.1 513.2,499.3" /><polyline points="530.9,493.1 531.7,492.3 532.7,491.5 533.7,490.9 534.8,490.4 536.0,490.1 537.1,490.0 538.3,490.0 539.5,490.1 540.7,490.4 541.8,490.9" /><polyline points="545.2,493.9 545.8,494.9 546.3,496.0 546.6,497.2 546.8,498.4 546.8,499.6 546.6,500.7 546.3,501.9 545.8,503.0 545.2,504.0 544.5,505.0" /><polyline points="540.6,507.5 539.5,507.8 538.3,507.9 537.1,507.9 535.9,507.7 534.8,507.4 533.7,507.0 532.7,506.3 531.7,505.6 530.9,504.7 530.2,503.8" /><polyline points="411.3,522.8 411.7,523.9 411.9,525.1 411.9,526.3 411.7,527.5 411.4,528.7 411.0,529.8 410.3,530.8 409.6,531.8 408.8,532.6 407.8,533.3" /><polyline points="403.4,534.8 402.2,534.8 401.0,534.6 399.9,534.3 398.8,533.8 397.7,533.2 396.8,532.4 396.0,531.5 395.3,530.6 394.7,529.5 394.3,528.4" /><polyline points="394.1,523.8 394.5,522.6 395.0,521.5 395.6,520.5 396.4,519.6 397.2,518.8 398.2,518.1 399.3,517.5 400.4,517.1 401.6,516.9 402.8,516.8" /><polyline points="436.8,522.9 437.2,523.7 437.5,524.5 437.7,525.3 437.8,526.2 437.9,527.0 437.9,527.9 437.8,528.7 437.6,529.6 437.3,530.4 437.0,531.2" /><polyline points="435.0,533.8 434.3,534.4 433.6,534.9 432.8,535.3 432.0,535.6 431.2,535.9 430.4,536.0 429.5,536.2 428.7,536.2 427.8,536.1 427.0,536.0" /><polyline points="423.9,534.7 423.2,534.2 422.6,533.6 422.0,533.0 421.5,532.3 421.0,531.5 420.6,530.8 420.3,530.0 420.1,529.1 420.0,528.3 419.9,527.4" /><polyline points="420.4,524.2 420.7,523.4 421.1,522.6 421.6,521.9 422.1,521.2 422.7,520.6 423.4,520.0 424.1,519.6 424.8,519.1 425.6,518.8 426.4,518.5" /><polyline points="456.5,526.8 457.0,526.5 457.5,526.3 458.1,526.2 458.7,526.1 459.2,526.1" /><polyline points="462.4,527.9 462.4,528.3 462.3,528.7 462.3,529.1 462.2,529.4 462.0,529.8" /><polyline points="453.1,523.3 453.4,523.1 453.8,522.9 454.1,522.8 454.5,522.6 454.8,522.5" /><polyline points="486.1,519.1 486.9,519.3 487.7,519.5 488.5,519.9 489.2,520.3 489.9,520.7 490.6,521.3 491.2,521.9 491.7,522.5 492.2,523.2 492.6,524.0" /><polyline points="493.4,527.1 493.5,528.0 493.4,528.8 493.3,529.6 493.1,530.4 492.8,531.2 492.5,532.0 492.1,532.7 491.6,533.4 491.1,534.1 490.4,534.7" /><polyline points="487.7,536.3 486.9,536.6 486.0,536.8 485.2,536.9 484.4,536.9 483.5,536.9 482.7,536.7 481.9,536.5 481.1,536.3 480.3,535.9 479.6,535.5" /><polyline points="477.2,533.2 476.7,532.5 476.4,531.8 476.0,531.0 475.8,530.2 475.6,529.4 475.5,528.5 475.5,527.7 475.5,526.9 475.7,526.0 475.9,525.2" /><polyline points="508.6,517.9 509.8,517.6 510.9,517.5 512.1,517.6 513.3,517.7 514.4,518.1 515.4,518.6 516.4,519.2 517.4,519.9 518.2,520.7 518.8,521.7" /><polyline points="520.2,526.0 520.2,527.1 520.1,528.3 519.8,529.4 519.3,530.5 518.8,531.5 518.0,532.4 517.2,533.3 516.3,534.0 515.3,534.6 514.2,535.0" /><polyline points="509.7,535.4 508.6,535.1 507.5,534.7 506.5,534.1 505.5,533.5 504.7,532.7 503.9,531.8 503.3,530.8 502.8,529.7 502.5,528.6 502.3,527.4" /><polyline points="436.0,545.5 436.9,546.4 437.6,547.4 438.2,548.4 438.6,549.6 438.9,550.8 439.0,552.0 439.0,553.2 438.8,554.4 438.4,555.6 437.9,556.7" /><polyline points="434.6,560.0 433.5,560.6 432.3,561.0 431.1,561.2 429.9,561.3 428.7,561.2 427.5,560.9 426.4,560.5 425.3,559.9 424.3,559.2 423.4,558.4" /><polyline points="421.2,554.2 421.0,553.0 421.0,551.8 421.2,550.6 421.5,549.4 422.0,548.2 422.6,547.2 423.3,546.2 424.2,545.4 425.2,544.7 426.3,544.1" /><polyline points="460.7,544.8 461.8,545.4 462.7,546.1 463.6,547.0 464.3,547.9 464.9,549.0 465.3,550.1 465.6,551.2 465.7,552.4 465.7,553.6 465.5,554.8" /><polyline points="463.4,558.9 462.5,559.7 461.6,560.4 460.5,561.0 459.4,561.4 458.2,561.7 457.0,561.8 455.8,561.8 454.6,561.6 453.5,561.2 452.4,560.7" /><polyline points="449.1,557.5 448.5,556.5 448.1,555.4 447.8,554.2 447.7,553.0 447.8,551.8 448.0,550.6 448.4,549.5 448.9,548.4 449.6,547.4 450.3,546.5" /><polyline points="484.6,543.7 485.8,543.9 487.0,544.3 488.0,544.8 489.1,545.4 490.0,546.2 490.8,547.1 491.4,548.1 492.0,549.2 492.4,550.4 492.6,551.5" /><polyline points="492.0,556.1 491.4,557.2 490.7,558.2 489.9,559.1 489.0,559.9 488.0,560.5 486.9,561.0 485.8,561.4 484.6,561.6 483.4,561.6 482.2,561.5" /><polyline points="477.9,559.6 477.1,558.8 476.3,557.8 475.7,556.8 475.2,555.7 474.9,554.6 474.7,553.4 474.7,552.2 474.8,551.0 475.1,549.8 475.6,548.7" /><polyline points="464.2,474.0 470.9,475.1 477.7,472.7 484.3,475.8 491.0,477.7 497.9,475.2 504.5,477.2 511.3,477.3 518.0,478.1 524.7,478.7 531.6,476.7 538.3,478.5 544.9,480.1 551.8,478.3 558.6,477.3 562.0,479.0 562.0,481.1 562.0,479.6 562.0,480.4" /><polyline points="464.2,474.0 469.8,477.2 475.3,480.4 482.0,481.4 487.7,484.3 493.3,487.3 498.5,491.2 504.2,494.2 510.8,495.3 516.1,499.1 521.2,503.2 527.7,504.5 531.8,510.6 539.4,509.7 544.3,514.2 548.8,519.5 556.1,519.3 561.9,522.0 562.0,526.3" /><polyline points="464.2,474.0 468.4,477.4 471.3,481.7 474.5,485.9 477.3,490.2 478.1,496.0 480.9,500.5 484.8,504.0 489.3,507.2 493.7,510.5 493.0,517.4 498.4,519.9 501.3,524.2 503.8,528.9 507.5,532.6 509.5,537.6 512.4,541.9 517.9,544.4 519.2,549.9" /><polyline points="464.2,474.0 466.0,479.6 464.1,485.7 465.1,491.4 467.9,496.9 465.8,503.0 471.3,508.1 469.4,514.2 472.7,519.6 471.8,525.6 472.9,531.3 473.0,537.1 472.6,543.0 475.2,548.5 477.3,554.1 474.7,560.2 478.7,565.6 475.7,571.8 478.1,577.3" /><polyline points="464.2,474.0 463.6,478.8 462.1,483.3 459.2,487.5 458.5,492.2 460.4,497.7 454.8,501.1 454.0,505.8 453.9,510.7 454.2,515.7 450.2,519.6 453.2,525.3 447.8,528.8 446.9,533.5 446.9,538.4 443.9,542.5 442.9,547.2 443.6,552.3 442.6,557.0" /><polyline points="464.2,474.0 462.2,480.0 457.9,484.3 454.7,489.3 452.0,494.8 448.8,499.9 442.3,502.7 439.6,508.0 435.9,512.8 431.6,517.1 431.2,524.1 426.8,528.4 424.3,533.9 418.5,537.2 415.0,542.0 411.7,547.0 410.2,553.4 405.0,557.0 401.7,562.0" /><polyline points="464.2,474.0 461.1,477.5 456.4,477.0 452.2,477.8 448.4,479.5 445.2,482.6 441.6,484.7 437.5,485.7 434.0,488.2 430.4,490.3 426.6,492.0 422.2,492.3 418.4,494.0 413.7,493.6 410.8,497.4 407.5,500.3 403.1,500.5 398.4,500.3 395.5,504.1" /><polyline points="464.2,474.0 459.8,475.8 454.9,473.2 450.8,477.7 446.1,477.4 441.3,474.9 436.9,477.4 432.3,476.8 427.7,477.2 423.3,479.3 418.6,478.1 414.1,479.0 409.7,480.9 405.0,479.6 400.5,480.5 395.9,481.0 391.3,480.4 387.0,483.3 382.4,483.0" /><polyline points="464.2,474.0 458.5,472.9 453.5,470.0 448.6,466.9 442.7,466.5 436.7,466.2 431.5,463.8 426.3,461.6 421.7,457.5 415.7,457.2 410.5,455.0 406.0,450.9 399.6,451.7 395.0,447.8 389.1,447.1 383.5,445.9 378.0,444.3 373.4,440.4 368.2,438.0" /><polyline points="464.2,474.0 462.1,468.8 458.9,464.3 453.1,461.8 452.1,455.8 447.9,452.1 446.0,446.6 442.2,442.7 437.3,439.5 435.4,434.1 430.4,431.0 428.5,425.6 426.1,420.6 422.3,416.6 420.2,411.4 416.6,407.2 410.8,404.7 408.7,399.4 405.9,394.7" /><polyline points="464.2,474.0 463.2,469.7 463.1,465.1 462.3,460.7 461.1,456.5 455.9,453.5 455.8,448.9 454.4,444.7 454.6,440.0 453.9,435.6 448.5,432.7 448.8,427.9 450.1,422.9 446.0,419.6 447.1,414.6 445.8,410.3 440.9,407.3 441.9,402.3 439.6,398.4" /><polyline points="464.2,474.0 468.3,469.1 468.5,462.7 469.4,456.7 470.3,450.6 472.6,445.0 476.3,439.8 476.7,433.6 480.0,428.3 480.3,422.1 482.3,416.3 483.9,410.5 484.8,404.4 487.1,398.8 488.9,393.1 494.4,388.5 494.9,382.3 495.5,376.1 498.5,370.8" /><polyline points="464.2,474.0 466.5,469.6 471.0,467.3 472.7,462.2 476.5,459.2 480.6,456.7 484.6,453.8 489.5,451.9 491.8,447.5 495.8,444.8 496.8,439.0 502.7,438.1 505.8,434.4 509.3,431.2 510.5,425.6 515.1,423.4 517.8,419.3 520.7,415.5 525.1,413.1" /><polyline points="464.2,474.0 466.9,471.3 470.3,470.0 474.1,469.0 476.5,465.9 480.3,465.0 484.0,464.1 485.9,460.0 490.3,460.1 492.7,456.9 496.8,456.6 498.6,452.3 503.6,453.6 505.7,449.9 509.0,448.3 512.5,446.9 514.5,442.9 519.7,444.6 521.8,440.7" /><polyline points="493.7,471.6 493.8,472.9 493.8,474.1 493.8,475.4 493.7,476.7 493.5,477.9 493.3,479.2 493.1,480.4 492.8,481.7 492.4,482.9 492.0,484.1 491.6,485.3" /><polyline points="486.4,493.6 485.5,494.6 484.6,495.5 483.7,496.3 482.7,497.1 481.7,497.9 480.7,498.6 479.6,499.3 478.5,500.0 477.4,500.6 476.3,501.1 475.1,501.6" /><polyline points="462.7,503.6 461.4,503.6 460.2,503.4 458.9,503.2 457.7,503.0 456.5,502.7 455.2,502.3 454.0,501.9 452.8,501.4 451.7,500.9 450.5,500.4 449.4,499.8" /><polyline points="442.0,493.8 441.2,492.8 440.4,491.8 439.7,490.8 439.0,489.7 438.4,488.6 437.8,487.5 437.2,486.4 436.7,485.2 436.2,484.0 435.8,482.8 435.5,481.6" /><polyline points="434.6,472.0 434.7,470.8 434.9,469.5 435.1,468.3 435.4,467.0 435.7,465.8 436.1,464.6 436.5,463.4 437.0,462.2 437.5,461.1 438.1,459.9 438.7,458.8" /><polyline points="445.2,451.3 446.2,450.5 447.2,449.7 448.2,449.0 449.3,448.4 450.4,447.8 451.6,447.2 452.7,446.7 453.9,446.2 455.1,445.8 456.3,445.5 457.6,445.1" /><polyline points="466.9,444.5 468.2,444.7 469.4,444.9 470.7,445.1 471.9,445.4 473.1,445.8 474.3,446.2 475.5,446.7 476.7,447.2 477.8,447.7 478.9,448.3 480.0,449.0" /><polyline points="486.2,454.2 487.0,455.1 487.8,456.1 488.5,457.2 489.2,458.2 489.9,459.3 490.5,460.4 491.0,461.6 491.6,462.7 492.0,463.9 492.4,465.1 492.8,466.3" /><polyline points="523.4,475.4 523.3,477.9 523.1,480.5 522.8,483.0 522.3,485.5 521.8,488.0 521.1,490.4 520.4,492.8 519.5,495.2 518.6,497.6 517.5,499.9 516.4,502.1" /><polyline points="505.0,517.0 503.2,518.7 501.2,520.3 499.2,521.9 497.1,523.3 495.0,524.7 492.8,526.0 490.5,527.1 488.2,528.2 485.9,529.2 483.5,530.1 481.1,530.9" /><polyline points="460.4,533.2 457.9,533.0 455.4,532.7 452.9,532.2 450.4,531.7 447.9,531.1 445.5,530.3 443.1,529.5 440.8,528.5 438.5,527.5 436.2,526.3 434.0,525.1" /><polyline points="422.7,516.5 421.0,514.6 419.3,512.8 417.6,510.8 416.1,508.8 414.7,506.7 413.3,504.5 412.1,502.3 410.9,500.1 409.8,497.8 408.9,495.4 408.0,493.0" /><polyline points="404.9,473.0 405.0,470.4 405.2,467.9 405.5,465.4 405.9,462.9 406.5,460.4 407.1,457.9 407.9,455.5 408.7,453.1 409.6,450.8 410.7,448.4 411.8,446.2" /><polyline points="421.7,432.6 423.6,430.8 425.4,429.1 427.4,427.5 429.4,426.0 431.5,424.6 433.7,423.2 435.9,421.9 438.1,420.8 440.4,419.7 442.8,418.7 445.2,417.9" /><polyline points="462.2,414.8 464.8,414.8 467.3,414.8 469.8,415.0 472.4,415.3 474.9,415.7 477.4,416.2 479.8,416.9 482.3,417.6 484.7,418.4 487.0,419.3 489.3,420.4" /><polyline points="505.5,431.6 507.3,433.4 509.0,435.3 510.6,437.2 512.1,439.2 513.6,441.3 514.9,443.5 516.2,445.7 517.4,447.9 518.4,450.2 519.4,452.6 520.3,455.0" /><polyline points="552.7,465.6 553.0,469.4 553.1,473.2 553.0,477.0 552.8,480.8 552.4,484.6 551.9,488.4 551.2,492.2 550.4,495.9 549.3,499.5 548.2,503.2 546.9,506.7" /><polyline points="531.3,532.3 528.8,535.1 526.1,537.9 523.3,540.4 520.4,542.9 517.4,545.3 514.3,547.5 511.1,549.6 507.8,551.5 504.5,553.3 501.0,555.0 497.5,556.5" /><polyline points="472.9,562.5 469.1,562.8 465.3,563.0 461.5,562.9 457.7,562.7 453.9,562.4 450.1,561.8 446.4,561.2 442.7,560.3 439.0,559.3 435.4,558.2 431.8,556.9" /><polyline points="400.0,535.6 397.4,532.8 395.0,529.9 392.6,526.9 390.4,523.8 388.4,520.6 386.5,517.3 384.7,513.9 383.0,510.5 381.6,507.0 380.2,503.4 379.0,499.8" /><polyline points="375.4,479.7 375.3,475.9 375.3,472.1 375.4,468.3 375.8,464.5 376.2,460.7 376.9,457.0 377.7,453.2 378.7,449.6 379.8,445.9 381.1,442.3 382.5,438.8" /><polyline points="404.8,407.9 407.6,405.4 410.6,403.0 413.7,400.8 416.9,398.7 420.2,396.8 423.5,394.9 427.0,393.3 430.4,391.8 434.0,390.4 437.6,389.2 441.3,388.1" /><polyline points="458.1,385.3 461.9,385.1 465.7,385.1 469.5,385.3 473.3,385.6 477.1,386.1 480.8,386.7 484.5,387.5 488.2,388.4 491.9,389.6 495.5,390.8 499.0,392.2" /><polyline points="529.2,413.4 531.7,416.2 534.1,419.2 536.4,422.2 538.6,425.4 540.6,428.6 542.5,431.9 544.2,435.3 545.8,438.8 547.2,442.3 548.5,445.9 549.6,449.5" /></g></svg>