<?xml version='1.0' encoding='utf-8'?>
<svg xmlns="http://www.w3.org/2000/svg" xmlns:inkscape="http://www.inkscape.org/namespaces/inkscape" viewBox="204 228 408 600"><style>*{vector-effect:non-scaling-stroke}</style><g id="01_Black_Frame" inkscape:groupmode="layer" inkscape:label="01_Black_Frame" stroke="#1A1A1A" fill="none" stroke-width="0.875" stroke-linecap="round" stroke-linejoin="round"><path d="M 250.0,264.0 L 566.0,264.0 Q 576.0,264.0 576.0,274.0 L 576.0,782.0 Q 576.0,792.0 566.0,792.0 L 250.0,792.0 Q 240.0,792.0 240.0,782.0 L 240.0,274.0 Q 240.0,264.0 250.0,264.0" /><path d="M 253.0,270.0 L 563.0,270.0 Q 570.0,270.0 570.0,277.0 L 570.0,779.0 Q 570.0,786.0 563.0,786.0 L 253.0,786.0 Q 246.0,786.0 246.0,779.0 L 246.0,277.0 Q 246.0,270.0 253.0,270.0" /><line x1="259.0" y1="280.0" x2="263.0" y2="280.0" /><line x1="258.1" y1="282.1" x2="260.9" y2="284.9" /><line x1="256.0" y1="283.0" x2="256.0" y2="287.0" /><line x1="253.9" y1="282.1" x2="251.1" y2="284.9" /><line x1="253.0" y1="280.0" x2="249.0" y2="280.0" /><line x1="253.9" y1="277.9" x2="251.1" y2="275.1" /><line x1="256.0" y1="277.0" x2="256.0" y2="273.0" /><line x1="258.1" y1="277.9" x2="260.9" y2="275.1" /><line x1="563.0" y1="280.0" x2="567.0" y2="280.0" /><line x1="562.1" y1="282.1" x2="564.9" y2="284.9" /><line x1="560.0" y1="283.0" x2="560.0" y2="287.0" /><line x1="557.9" y1="282.1" x2="555.1" y2="284.9" /><line x1="557.0" y1="280.0" x2="553.0" y2="280.0" /><line x1="557.9" y1="277.9" x2="555.1" y2="275.1" /><line x1="560.0" y1="277.0" x2="560.0" y2="273.0" /><line x1="562.1" y1="277.9" x2="564.9" y2="275.1" /><line x1="259.0" y1="776.0" x2="263.0" y2="776.0" /><line x1="258.1" y1="778.1" x2="260.9" y2="780.9" /><line x1="256.0" y1="779.0" x2="256.0" y2="783.0" /><line x1="253.9" y1="778.1" x2="251.1" y2="780.9" /><line x1="253.0" y1="776.0" x2="249.0" y2="776.0" /><line x1="253.9" y1="773.9" x2="251.1" y2="771.1" /><line x1="256.0" y1="773.0" x2="256.0" y2="769.0" /><line x1="258.1" y1="773.9" x2="260.9" y2="771.1" /><line x1="563.0" y1="776.0" x2="567.0" y2="776.0" /><line x1="562.1" y1="778.1" x2="564.9" y2="780.9" /><line x1="560.0" y1="779.0" x2="560.0" y2="783.0" /><line x1="557.9" y1="778.1" x2="555.1" y2="780.9" /><line x1="557.0" y1="776.0" x2="553.0" y2="776.0" /><line x1="557.9" y1="773.9" x2="555.1" y2="771.1" /><line x1="560.0" y1="773.0" x2="560.0" y2="769.0" /><line x1="562.1" y1="773.9" x2="564.9" y2="771.1" /><polyline points="398.12,283.20 396.38,282.00 395.38,282.00 393.62,283.60 393.62,288.40 395.38,290.00 396.38,290.00 398.12,288.80" /><polyline points="399.38,282.00 404.38,290.00" /><polyline points="404.38,282.00 399.38,290.00" /><polyline points="407.62,282.00 407.62,290.00" /><polyline points="413.38,282.00 413.38,290.00" /><polyline points="419.12,282.00 419.12,290.00" /><polyline points="366.89,297.00 373.39,297.00" /><polyline points="370.14,297.00 370.14,307.00" /><polyline points="374.36,297.00 374.36,307.00" /><polyline points="380.86,297.00 380.86,307.00" /><polyline points="374.36,301.80 380.86,301.80" /><polyline points="387.36,297.00 381.84,297.00 381.84,301.80 385.74,301.80" /><polyline points="381.84,301.80 381.84,307.00 387.36,307.00" /><polyline points="396.79,297.00 398.41,307.00 400.04,300.50 401.66,307.00 403.29,297.00" /><polyline points="407.51,297.00 407.51,307.00" /><polyline points="411.74,297.00 418.24,297.00" /><polyline points="414.99,297.00 414.99,307.00" /><polyline points="419.21,307.00 419.21,297.00 425.71,307.00 425.71,297.00" /><polyline points="432.21,297.00 426.69,297.00 426.69,301.80 430.59,301.80" /><polyline points="426.69,301.80 426.69,307.00 432.21,307.00" /><polyline points="439.69,298.00 438.06,297.00 436.11,297.00 434.49,298.50 434.16,300.00 435.14,301.20 437.41,302.00 439.69,302.80 440.66,304.00 440.34,305.50 438.71,307.00 436.44,307.00 434.81,306.00" /><polyline points="447.16,298.00 445.54,297.00 443.59,297.00 441.96,298.50 441.64,300.00 442.61,301.20 444.89,302.00 447.16,302.80 448.14,304.00 447.81,305.50 446.19,307.00 443.91,307.00 442.29,306.00" /><line x1="270.0" y1="312.0" x2="546.0" y2="312.0" /><line x1="270.0" y1="732.0" x2="546.0" y2="732.0" /><polyline points="361.31,740.75 364.11,740.75" /><polyline points="362.71,740.75 362.71,745.25" /><polyline points="365.93,740.75 364.81,741.20 364.53,742.10 364.53,743.90 364.81,744.80 365.93,745.25 367.05,744.80 367.33,743.90 367.33,742.10 367.05,741.20 365.93,740.75" /><polyline points="367.75,740.75 367.75,745.25 370.13,745.25" /><polyline points="370.97,740.75 370.97,745.25 373.35,745.25" /><polyline points="380.63,745.25 380.63,740.75 382.45,740.75 383.15,741.42 383.15,742.19 382.45,742.77 380.63,742.77" /><polyline points="383.85,745.25 383.85,740.75 385.67,740.75 386.37,741.42 386.37,742.19 385.67,742.77 383.85,742.77 386.37,745.25" /><polyline points="388.47,740.75 387.35,741.20 387.07,742.10 387.07,743.90 387.35,744.80 388.47,745.25 389.59,744.80 389.87,743.90 389.87,742.10 389.59,741.20 388.47,740.75" /><polyline points="390.29,745.25 390.29,740.75 392.11,740.75 392.67,741.29 392.67,742.01 392.11,742.55 390.29,742.55 392.11,742.55 392.67,743.09 392.67,744.71 392.11,745.25 390.29,745.25" /><polyline points="395.89,740.75 393.51,740.75 393.51,742.91 395.19,742.91" /><polyline points="393.51,742.91 393.51,745.25 395.89,745.25" /><polyline points="405.69,741.42 404.71,740.75 404.15,740.75 403.17,741.65 403.17,744.35 404.15,745.25 404.71,745.25 405.69,744.58 405.69,743.00 404.57,743.00" /><polyline points="406.39,745.25 407.79,740.75 409.19,745.25" /><polyline points="406.89,743.67 408.69,743.67" /><polyline points="411.99,741.20 411.29,740.75 410.45,740.75 409.75,741.42 409.61,742.10 410.03,742.64 411.01,743.00 411.99,743.36 412.41,743.90 412.27,744.58 411.57,745.25 410.59,745.25 409.89,744.80" /><polyline points="419.27,745.25 420.67,740.75 422.07,745.25" /><polyline points="419.77,743.67 421.57,743.67" /><polyline points="422.49,745.25 422.49,740.75 424.31,740.75 425.01,741.42 425.01,742.19 424.31,742.77 422.49,742.77 425.01,745.25" /><polyline points="425.71,745.25 425.71,740.75 427.53,740.75 428.23,741.42 428.23,742.19 427.53,742.77 425.71,742.77 428.23,745.25" /><polyline points="431.31,740.75 428.93,740.75 428.93,742.91 430.61,742.91" /><polyline points="428.93,742.91 428.93,745.25 431.31,745.25" /><polyline points="434.53,741.20 433.83,740.75 432.99,740.75 432.29,741.42 432.15,742.10 432.57,742.64 433.55,743.00 434.53,743.36 434.95,743.90 434.81,744.58 434.11,745.25 433.13,745.25 432.43,744.80" /><polyline points="435.37,740.75 438.17,740.75" /><polyline points="436.77,740.75 436.77,745.25" /><polyline points="445.03,745.25 446.43,740.75 447.83,745.25" /><polyline points="445.53,743.67 447.33,743.67" /><polyline points="449.65,740.75 449.65,745.25" /><polyline points="451.47,745.25 451.47,740.75 453.29,740.75 453.99,741.42 453.99,742.19 453.29,742.77 451.47,742.77 453.99,745.25" /><polyline points="357.62,753.25 353.38,753.25 353.38,756.85 356.38,756.85" /><polyline points="353.38,756.85 353.38,760.75 357.62,760.75" /><polyline points="359.12,753.25 361.62,760.75 364.12,753.25" /><polyline points="369.12,753.25 364.88,753.25 364.88,756.85 367.88,756.85" /><polyline points="364.88,756.85 364.88,760.75 369.12,760.75" /><polyline points="370.62,760.75 370.62,753.25 373.88,753.25 375.12,754.38 375.12,755.65 373.88,756.62 370.62,756.62 375.12,760.75" /><polyline points="376.38,753.25 378.88,757.00 381.38,753.25" /><polyline points="378.88,757.00 378.88,760.75" /><polyline points="384.62,753.25 382.62,754.00 382.12,755.50 382.12,758.50 382.62,760.00 384.62,760.75 386.62,760.00 387.12,758.50 387.12,755.50 386.62,754.00 384.62,753.25" /><polyline points="387.88,760.75 387.88,753.25 392.88,760.75 392.88,753.25" /><polyline points="397.88,753.25 393.62,753.25 393.62,756.85 396.62,756.85" /><polyline points="393.62,756.85 393.62,760.75 397.88,760.75" /><polyline points="405.12,753.25 406.38,760.75 407.62,755.88 408.88,760.75 410.12,753.25" /><polyline points="410.88,753.25 410.88,760.75" /><polyline points="415.88,753.25 415.88,760.75" /><polyline points="410.88,756.85 415.88,756.85" /><polyline points="419.12,753.25 417.12,754.00 416.62,755.50 416.62,758.50 417.12,760.00 419.12,760.75 421.12,760.00 421.62,758.50 421.62,755.50 421.12,754.00 419.12,753.25" /><polyline points="428.12,753.25 428.12,760.75 432.38,760.75" /><polyline points="436.38,753.25 434.38,754.00 433.88,755.50 433.88,758.50 434.38,760.00 436.38,760.75 438.38,760.00 438.88,758.50 438.88,755.50 438.38,754.00 436.38,753.25" /><polyline points="442.12,753.25 440.12,754.00 439.62,755.50 439.62,758.50 440.12,760.00 442.12,760.75 444.12,760.00 444.62,758.50 444.62,755.50 444.12,754.00 442.12,753.25" /><polyline points="445.38,753.25 445.38,760.75" /><polyline points="449.88,753.25 445.38,757.00 449.88,760.75" /><polyline points="455.38,753.25 451.12,753.25 451.12,756.85 454.12,756.85" /><polyline points="451.12,756.85 451.12,760.75 455.38,760.75" /><polyline points="456.88,760.75 456.88,753.25 459.62,753.25 461.38,755.12 461.38,758.88 459.62,760.75 456.88,760.75" /><polyline points="392.38,767.38 390.62,766.25 389.62,766.25 387.88,767.75 387.88,772.25 389.62,773.75 390.62,773.75 392.38,772.62 392.38,770.00 390.38,770.00" /><polyline points="396.12,766.25 394.12,767.00 393.62,768.50 393.62,771.50 394.12,773.00 396.12,773.75 398.12,773.00 398.62,771.50 398.62,768.50 398.12,767.00 396.12,766.25" /><polyline points="399.38,766.25 404.38,766.25" /><polyline points="401.88,766.25 401.88,773.75" /><polyline points="410.88,766.25 410.88,773.75" /><polyline points="415.88,766.25 415.88,773.75" /><polyline points="410.88,769.85 415.88,769.85" /><polyline points="419.12,766.25 419.12,773.75" /><polyline points="422.38,766.25 427.38,766.25" /><polyline points="424.88,766.25 424.88,773.75" /><polyline points="382.00,779.50 382.00,784.50" /><polyline points="384.08,779.50 385.68,784.50 387.28,779.50" /><polyline points="389.36,784.00 389.36,784.25" /><polyline points="391.44,779.50 394.64,784.50" /><polyline points="394.64,779.50 391.44,784.50" /><polyline points="395.12,779.50 398.32,784.50" /><polyline points="398.32,779.50 395.12,784.50" /><polyline points="400.40,779.50 400.40,784.50" /><polyline points="404.08,779.50 404.08,784.50" /><polyline points="407.76,779.50 407.76,784.50" /><polyline points="411.44,784.00 411.44,784.25" /><polyline points="413.52,784.50 413.52,779.50 415.12,782.25 416.72,779.50 416.72,784.50" /><polyline points="417.20,784.50 417.20,779.50 418.80,782.25 420.40,779.50 420.40,784.50" /><polyline points="420.88,779.50 424.08,784.50" /><polyline points="424.08,779.50 420.88,784.50" /><polyline points="424.56,779.50 427.76,784.50" /><polyline points="427.76,779.50 424.56,784.50" /><polyline points="428.24,779.50 429.84,784.50 431.44,779.50" /><polyline points="433.52,779.50 433.52,784.50" /></g><g id="02_Teal_Convergence" inkscape:groupmode="layer" inkscape:label="02_Teal_Convergence" stroke="#3A7A7A" fill="none" stroke-width="0.75" stroke-linecap="round" stroke-linejoin="round"><line x1="273.0" y1="360.3" x2="367.0" y2="457.4" /><line x1="501.0" y1="396.5" x2="426.7" y2="445.3" /><line x1="514.0" y1="445.6" x2="435.7" y2="462.6" /><line x1="446.3" y1="632.3" x2="403.2" y2="524.5" /><line x1="293.2" y1="353.6" x2="368.2" y2="454.1" /><line x1="455.1" y1="365.6" x2="408.6" y2="435.5" /><line x1="306.2" y1="684.2" x2="368.1" y2="514.8" /><line x1="490.1" y1="565.5" x2="417.6" y2="503.6" /><line x1="297.4" y1="630.2" x2="368.3" y2="500.8" /><line x1="298.0" y1="611.0" x2="371.1" y2="493.3" /><line x1="253.4" y1="501.2" x2="352.2" y2="480.5" /><line x1="332.9" y1="373.7" x2="373.4" y2="454.7" /><line x1="304.7" y1="382.0" x2="345.6" y2="430.1" /><line x1="527.2" y1="365.8" x2="404.3" y2="458.0" /><line x1="500.6" y1="390.7" x2="410.0" y2="454.9" /><line x1="560.9" y1="587.8" x2="425.4" y2="501.1" /><line x1="292.4" y1="523.5" x2="351.8" y2="491.1" /><line x1="290.2" y1="485.5" x2="351.2" y2="478.0" /><line x1="503.3" y1="517.9" x2="434.4" y2="492.8" /><line x1="290.3" y1="542.4" x2="349.5" y2="498.8" /><line x1="455.3" y1="378.3" x2="406.2" y2="443.3" /><line x1="482.7" y1="578.6" x2="411.4" y2="503.8" /><line x1="512.4" y1="607.5" x2="404.2" y2="495.9" /><line x1="516.4" y1="341.0" x2="422.2" y2="435.0" /><line x1="443.1" y1="622.8" x2="402.5" y2="522.3" /><line x1="463.6" y1="678.7" x2="399.6" y2="516.2" /><line x1="265.1" y1="408.0" x2="334.0" y2="446.6" /><line x1="270.4" y1="576.1" x2="348.7" y2="505.2" /><line x1="517.6" y1="529.4" x2="416.6" y2="487.8" /><line x1="491.3" y1="575.1" x2="402.3" y2="492.0" /><line x1="333.5" y1="379.1" x2="369.6" y2="448.4" /><line x1="274.5" y1="627.7" x2="357.0" y2="511.0" /><line x1="494.2" y1="365.5" x2="399.6" y2="457.9" /><line x1="407.4" y1="379.6" x2="394.2" y2="430.6" /><line x1="258.9" y1="570.8" x2="341.4" y2="506.4" /><line x1="309.1" y1="675.6" x2="369.2" y2="511.9" /><line x1="500.3" y1="390.3" x2="424.2" y2="444.7" /><line x1="538.1" y1="389.6" x2="428.1" y2="449.5" /><line x1="324.7" y1="372.7" x2="359.0" y2="432.2" /><line x1="379.9" y1="383.4" x2="381.7" y2="435.7" /><line x1="511.0" y1="498.2" x2="409.6" y2="479.0" /><line x1="537.3" y1="382.7" x2="422.3" y2="450.8" /><line x1="490.3" y1="460.2" x2="420.1" y2="469.3" /><line x1="399.0" y1="355.0" x2="386.3" y2="449.5" /><line x1="374.6" y1="648.7" x2="381.0" y2="516.6" /><line x1="270.0" y1="574.1" x2="366.2" y2="489.0" /><line x1="384.3" y1="652.5" x2="383.4" y2="526.5" /><line x1="256.0" y1="428.2" x2="362.4" y2="466.6" /><line x1="517.4" y1="574.8" x2="414.6" y2="497.7" /><line x1="260.6" y1="442.2" x2="331.0" y2="460.5" /><line x1="492.5" y1="476.2" x2="415.4" y2="474.7" /><line x1="465.1" y1="340.1" x2="411.0" y2="428.4" /><line x1="306.5" y1="455.3" x2="347.1" y2="465.2" /><line x1="528.4" y1="323.6" x2="413.6" y2="442.4" /><line x1="300.6" y1="323.9" x2="363.5" y2="438.4" /><line x1="512.7" y1="320.9" x2="413.6" y2="437.9" /><line x1="313.9" y1="367.9" x2="359.3" y2="437.6" /><line x1="537.9" y1="468.4" x2="416.9" y2="472.8" /><line x1="458.1" y1="375.6" x2="414.3" y2="433.1" /><line x1="473.6" y1="621.2" x2="393.9" y2="491.7" /><line x1="482.8" y1="345.4" x2="415.7" y2="432.0" /><line x1="509.4" y1="649.2" x2="397.9" y2="494.6" /><line x1="550.8" y1="522.0" x2="409.5" y2="481.6" /><line x1="254.0" y1="605.8" x2="346.9" y2="511.0" /><line x1="303.1" y1="373.5" x2="356.4" y2="440.5" /><line x1="482.0" y1="380.3" x2="421.7" y2="437.4" /><line x1="416.1" y1="667.1" x2="388.6" y2="506.4" /><line x1="281.3" y1="432.2" x2="330.8" y2="452.6" /><line x1="294.5" y1="394.1" x2="353.5" y2="447.4" /><line x1="265.6" y1="433.4" x2="331.6" y2="456.3" /><line x1="511.0" y1="491.5" x2="431.0" y2="480.6" /><line x1="298.9" y1="349.1" x2="359.1" y2="438.5" /><line x1="259.4" y1="399.1" x2="340.9" y2="448.5" /><line x1="485.3" y1="343.5" x2="411.7" y2="437.5" /><line x1="295.5" y1="515.2" x2="355.2" y2="487.1" /><line x1="407.1" y1="386.1" x2="391.1" y2="444.7" /><line x1="522.8" y1="320.1" x2="420.0" y2="433.3" /><line x1="536.8" y1="362.7" x2="428.5" y2="441.1" /><line x1="515.2" y1="601.8" x2="423.1" y2="512.8" /><line x1="254.4" y1="485.8" x2="333.7" y2="478.6" /><line x1="410.7" y1="338.0" x2="392.0" y2="429.8" /><line x1="263.4" y1="425.9" x2="343.3" y2="458.0" /><line x1="483.7" y1="583.2" x2="398.7" y2="491.0" /><line x1="491.8" y1="478.3" x2="430.8" y2="475.9" /><line x1="279.2" y1="667.5" x2="370.4" y2="497.6" /><line x1="293.2" y1="389.6" x2="348.8" y2="441.8" /><line x1="515.6" y1="494.9" x2="419.7" y2="479.8" /><line x1="292.1" y1="637.2" x2="358.3" y2="518.5" /><line x1="263.0" y1="684.8" x2="363.1" y2="509.1" /><line x1="490.4" y1="596.3" x2="399.4" y2="492.6" /><line x1="455.0" y1="628.5" x2="402.9" y2="516.6" /><line x1="274.1" y1="724.6" x2="363.8" y2="518.4" /><line x1="530.5" y1="617.2" x2="418.1" y2="508.1" /><line x1="306.9" y1="385.6" x2="365.6" y2="453.8" /><line x1="503.6" y1="503.4" x2="421.8" y2="483.5" /><line x1="528.2" y1="611.6" x2="420.3" y2="509.3" /><line x1="286.8" y1="526.7" x2="336.2" y2="499.7" /><line x1="298.1" y1="486.4" x2="358.4" y2="477.6" /><line x1="420.9" y1="658.1" x2="391.4" y2="514.5" /><line x1="289.1" y1="648.4" x2="369.2" y2="499.8" /><line x1="288.0" y1="396.3" x2="343.5" y2="441.7" /><line x1="382.9" y1="375.7" x2="383.0" y2="441.6" /><line x1="491.9" y1="541.9" x2="419.7" y2="496.9" /><line x1="427.5" y1="338.1" x2="391.6" y2="448.0" /><line x1="476.0" y1="355.4" x2="400.7" y2="451.5" /><line x1="496.6" y1="468.4" x2="410.0" y2="472.7" /><line x1="262.9" y1="387.5" x2="355.6" y2="454.3" /><line x1="298.8" y1="513.7" x2="350.6" y2="489.3" /><line x1="324.1" y1="654.0" x2="373.0" y2="504.6" /><line x1="555.3" y1="327.4" x2="412.9" y2="448.6" /><line x1="563.8" y1="518.9" x2="422.8" y2="483.9" /><line x1="501.4" y1="677.0" x2="393.1" y2="491.3" /><line x1="530.1" y1="390.9" x2="412.7" y2="457.3" /><line x1="455.4" y1="341.0" x2="404.3" y2="435.0" /><line x1="301.1" y1="481.1" x2="335.2" y2="478.1" /><line x1="423.0" y1="362.9" x2="394.7" y2="441.7" /><line x1="495.6" y1="620.3" x2="413.3" y2="513.3" /><line x1="297.9" y1="413.6" x2="363.8" y2="460.3" /><line x1="503.0" y1="586.6" x2="400.6" y2="490.5" /><line x1="541.6" y1="458.8" x2="409.7" y2="471.5" /><line x1="517.9" y1="498.9" x2="429.7" y2="482.6" /><line x1="497.9" y1="397.7" x2="425.1" y2="446.1" /><line x1="445.0" y1="670.2" x2="395.5" y2="513.5" /><line x1="278.3" y1="447.3" x2="343.3" y2="463.9" /><line x1="529.9" y1="445.6" x2="426.9" y2="465.6" /><line x1="329.4" y1="382.0" x2="358.9" y2="432.6" /><line x1="499.8" y1="386.9" x2="426.1" y2="441.9" /><line x1="263.3" y1="642.7" x2="358.9" y2="508.0" /><line x1="432.4" y1="386.8" x2="400.2" y2="443.8" /><line x1="517.7" y1="480.2" x2="437.8" y2="476.5" /><line x1="482.8" y1="500.4" x2="432.2" y2="487.0" /><line x1="405.6" y1="652.2" x2="389.3" y2="523.3" /><line x1="295.4" y1="380.5" x2="358.6" y2="447.9" /><line x1="513.0" y1="647.3" x2="405.6" y2="504.1" /><line x1="317.4" y1="354.6" x2="360.7" y2="433.4" /><line x1="256.1" y1="484.4" x2="335.0" y2="478.0" /><line x1="460.5" y1="348.2" x2="410.5" y2="429.5" /><line x1="486.8" y1="392.9" x2="422.6" y2="443.1" /><line x1="557.3" y1="329.4" x2="424.1" y2="440.0" /><line x1="304.7" y1="388.9" x2="361.0" y2="450.0" /><line x1="389.2" y1="380.6" x2="385.4" y2="439.1" /><line x1="364.0" y1="375.0" x2="373.7" y2="425.5" /><line x1="260.3" y1="380.4" x2="345.5" y2="445.4" /><line x1="266.7" y1="429.0" x2="355.6" y2="463.4" /><line x1="358.6" y1="377.4" x2="374.7" y2="441.0" /><line x1="483.0" y1="695.1" x2="391.5" y2="492.8" /><line x1="562.8" y1="717.2" x2="413.9" y2="515.8" /><line x1="355.0" y1="718.3" x2="377.5" y2="522.7" /><line x1="391.2" y1="691.3" x2="384.5" y2="512.8" /><line x1="399.7" y1="381.6" x2="393.2" y2="417.5" /><line x1="562.7" y1="392.2" x2="405.5" y2="463.8" /><line x1="490.9" y1="585.4" x2="410.6" y2="502.4" /><line x1="267.6" y1="692.0" x2="363.1" y2="511.7" /><line x1="411.1" y1="343.1" x2="389.5" y2="443.9" /><line x1="276.2" y1="449.5" x2="354.7" y2="467.5" /><line x1="316.7" y1="636.4" x2="365.1" y2="517.9" /><line x1="549.5" y1="426.8" x2="420.6" y2="463.4" /><line x1="525.3" y1="400.6" x2="426.4" y2="451.7" /><line x1="445.1" y1="361.0" x2="408.0" y2="428.6" /><line x1="543.5" y1="515.7" x2="436.3" y2="487.9" /><line x1="347.3" y1="725.4" x2="377.7" y2="511.6" /><line x1="264.1" y1="456.2" x2="333.7" y2="466.6" /><line x1="259.4" y1="507.5" x2="333.5" y2="487.5" /><line x1="499.8" y1="466.2" x2="415.2" y2="471.9" /><line x1="422.9" y1="330.5" x2="391.8" y2="442.5" /><line x1="553.9" y1="378.9" x2="407.4" y2="460.5" /><line x1="527.8" y1="326.7" x2="420.2" y2="436.2" /><line x1="253.2" y1="403.0" x2="347.6" y2="454.6" /><line x1="340.7" y1="680.8" x2="372.3" y2="526.2" /><line x1="557.5" y1="550.0" x2="411.7" y2="486.5" /><line x1="546.4" y1="512.6" x2="425.5" y2="484.1" /><line x1="301.9" y1="410.5" x2="363.7" y2="458.9" /><line x1="388.3" y1="369.3" x2="384.8" y2="438.2" /><line x1="271.6" y1="528.1" x2="359.4" y2="485.5" /><line x1="435.7" y1="346.3" x2="404.4" y2="422.2" /><line x1="404.4" y1="677.8" x2="388.3" y2="524.1" /><line x1="303.7" y1="478.7" x2="360.3" y2="475.4" /><line x1="330.7" y1="387.0" x2="359.8" y2="435.4" /><line x1="368.5" y1="352.8" x2="376.6" y2="420.1" /><line x1="458.7" y1="696.6" x2="400.1" y2="524.4" /><polyline points="395.2,495.9 393.6,496.7 392.0,497.4 390.3,498.0 388.6,498.4 386.8,498.8 385.1,499.0 383.3,499.0 381.5,499.0 379.7,498.8 378.0,498.5 376.2,498.1 374.5,497.5 372.9,496.9 371.3,496.1 369.7,495.2 368.3,494.2 366.9,493.1 365.5,491.9 364.3,490.6 363.2,489.2 362.2,487.8 361.2,486.3 360.4,484.7 359.7,483.0 359.1,481.3 358.7,479.6 358.3,477.9 358.1,476.1 358.0,474.3 358.1,472.5 358.3,470.8 358.6,469.0 359.0,467.3 359.5,465.6 360.2,463.9 361.0,462.3 361.8,460.8 362.8,459.3 363.9,457.9 365.1,456.6 366.4,455.4 367.8,454.2 369.3,453.2 370.8,452.3 372.4,451.4 374.0,450.7 375.7,450.1 377.4,449.7 379.2,449.3" /><polyline points="400.3,501.0 397.9,502.4 395.5,503.5 392.9,504.5 390.3,505.2 387.6,505.7 384.9,506.0 382.1,506.0 379.4,505.8 376.7,505.4 374.0,504.7 371.5,503.9 368.9,502.8 366.5,501.5 364.3,500.0 362.1,498.3 360.1,496.4 358.3,494.3 356.7,492.2 355.2,489.8 354.0,487.4 352.9,484.9 352.1,482.3 351.5,479.6 351.2,476.9 351.0,474.1 351.1,471.4 351.5,468.7 352.1,466.0 352.9,463.4 353.9,460.9 355.1,458.4 356.5,456.1 358.2,453.9 360.0,451.8 362.0,450.0 364.1,448.2 366.4,446.7 368.8,445.4 371.3,444.3 373.9,443.4 376.5,442.7 379.2,442.3 381.9,442.1 384.7,442.1 387.4,442.3 390.1,442.8 392.7,443.5 395.3,444.5 397.8,445.6" /><polyline points="424.9,478.0 424.3,481.7 423.5,485.3 422.3,488.9 420.9,492.3 419.1,495.6 417.1,498.7 414.7,501.6 412.2,504.3 409.4,506.7 406.4,509.0 403.2,510.9 399.9,512.5 396.4,513.9 392.8,514.9 389.1,515.6 385.4,516.0 381.7,516.0 378.0,515.7 374.3,515.1 370.7,514.2 367.2,512.9 363.8,511.4 360.6,509.5 357.5,507.4 354.7,505.0 352.1,502.4 349.7,499.5 347.5,496.5 345.7,493.2 344.1,489.9 342.9,486.3 342.0,482.7 341.3,479.1 341.1,475.4 341.1,471.6 341.5,467.9 342.2,464.3 343.2,460.7 344.6,457.2 346.2,453.9 348.1,450.7 350.3,447.7 352.8,444.9 355.5,442.3 358.4,440.0 361.5,438.0 364.8,436.2 368.2,434.7 371.8,433.6" /></g><g id="03_Gold_Shatter" inkscape:groupmode="layer" inkscape:label="03_Gold_Shatter" stroke="#B8960C" fill="none" stroke-width="1.12" stroke-linecap="round" stroke-linejoin="round"><line x1="363.9" y1="466.3" x2="252.0" y2="412.6" /><line x1="402.5" y1="487.7" x2="478.6" y2="538.7" /><line x1="440.2" y1="513.4" x2="457.9" y2="548.8" /><line x1="371.9" y1="491.2" x2="350.6" y2="514.4" /><line x1="366.7" y1="494.9" x2="304.1" y2="585.6" /><line x1="362.6" y1="471.3" x2="252.0" y2="449.4" /><line x1="294.6" y1="460.1" x2="263.2" y2="467.2" /><line x1="406.4" y1="488.3" x2="434.0" y2="512.2" /><line x1="364.3" y1="461.0" x2="322.0" y2="426.3" /><line x1="384.9" y1="496.2" x2="389.0" y2="586.6" /><line x1="408.4" y1="473.6" x2="505.8" y2="473.4" /><line x1="358.9" y1="484.5" x2="268.6" y2="513.1" /><line x1="407.6" y1="482.4" x2="492.4" y2="507.6" /><line x1="399.6" y1="486.2" x2="523.5" y2="553.7" /><line x1="465.7" y1="527.6" x2="470.2" y2="538.8" /><line x1="396.8" y1="456.6" x2="465.5" y2="384.6" /><line x1="407.8" y1="469.3" x2="446.8" y2="468.2" /><line x1="381.1" y1="446.6" x2="366.6" y2="331.0" /><line x1="403.7" y1="479.9" x2="482.1" y2="506.3" /><line x1="362.0" y1="489.9" x2="287.9" y2="553.2" /><line x1="396.8" y1="496.8" x2="469.5" y2="596.8" /><line x1="373.1" y1="448.2" x2="347.7" y2="388.0" /><line x1="396.4" y1="457.3" x2="455.3" y2="377.2" /><line x1="388.3" y1="454.7" x2="414.0" y2="351.9" /><line x1="398.0" y1="417.3" x2="407.4" y2="406.4" /><line x1="395.8" y1="452.1" x2="453.7" y2="351.5" /><line x1="369.6" y1="490.3" x2="332.7" y2="541.6" /><line x1="356.3" y1="508.1" x2="332.3" y2="522.2" /><line x1="393.4" y1="453.8" x2="445.5" y2="362.5" /><line x1="403.1" y1="458.4" x2="505.0" y2="360.7" /><line x1="445.1" y1="421.1" x2="452.5" y2="403.4" /><line x1="388.1" y1="494.3" x2="393.2" y2="519.7" /><line x1="380.4" y1="496.5" x2="354.9" y2="626.9" /><line x1="356.8" y1="476.7" x2="259.0" y2="483.0" /><line x1="310.0" y1="480.4" x2="296.3" y2="472.4" /><line x1="386.7" y1="450.6" x2="389.6" y2="334.7" /><line x1="375.4" y1="492.6" x2="352.5" y2="535.6" /><line x1="407.0" y1="461.0" x2="477.5" y2="420.6" /><line x1="366.4" y1="451.7" x2="297.2" y2="342.8" /><line x1="328.3" y1="395.6" x2="327.2" y2="373.7" /><line x1="376.9" y1="499.0" x2="341.0" y2="609.4" /><line x1="389.3" y1="453.2" x2="427.4" y2="329.0" /><line x1="362.3" y1="466.1" x2="297.5" y2="451.7" /><line x1="393.4" y1="456.2" x2="445.9" y2="334.2" /><line x1="362.7" y1="478.1" x2="259.0" y2="507.5" /><line x1="367.7" y1="458.3" x2="328.9" y2="416.4" /><line x1="361.8" y1="462.5" x2="266.5" y2="405.1" /><line x1="369.2" y1="496.2" x2="313.9" y2="604.6" /><line x1="406.2" y1="464.4" x2="456.2" y2="433.6" /><line x1="429.5" y1="451.7" x2="451.1" y2="428.0" /><line x1="377.0" y1="500.8" x2="369.0" y2="570.2" /><line x1="371.9" y1="534.4" x2="359.1" y2="554.5" /></g></svg>