<?xml version='1.0' encoding='utf-8'?>
<svg xmlns="http://www.w3.org/2000/svg" xmlns:inkscape="http://www.inkscape.org/namespaces/inkscape" viewBox="204 228 408 600"><style>*{vector-effect:non-scaling-stroke}</style><g id="01_Black_Frame" inkscape:groupmode="layer" inkscape:label="01_Black_Frame" stroke="#1A1A1A" fill="none" stroke-width="0.875" stroke-linecap="round" stroke-linejoin="round"><path d="M 250.0,264.0 L 566.0,264.0 Q 576.0,264.0 576.0,274.0 L 576.0,782.0 Q 576.0,792.0 566.0,792.0 L 250.0,792.0 Q 240.0,792.0 240.0,782.0 L 240.0,274.0 Q 240.0,264.0 250.0,264.0" /><path d="M 253.0,270.0 L 563.0,270.0 Q 570.0,270.0 570.0,277.0 L 570.0,779.0 Q 570.0,786.0 563.0,786.0 L 253.0,786.0 Q 246.0,786.0 246.0,779.0 L 246.0,277.0 Q 246.0,270.0 253.0,270.0" /><line x1="259.0" y1="280.0" x2="263.0" y2="280.0" /><line x1="258.1" y1="282.1" x2="260.9" y2="284.9" /><line x1="256.0" y1="283.0" x2="256.0" y2="287.0" /><line x1="253.9" y1="282.1" x2="251.1" y2="284.9" /><line x1="253.0" y1="280.0" x2="249.0" y2="280.0" /><line x1="253.9" y1="277.9" x2="251.1" y2="275.1" /><line x1="256.0" y1="277.0" x2="256.0" y2="273.0" /><line x1="258.1" y1="277.9" x2="260.9" y2="275.1" /><line x1="563.0" y1="280.0" x2="567.0" y2="280.0" /><line x1="562.1" y1="282.1" x2="564.9" y2="284.9" /><line x1="560.0" y1="283.0" x2="560.0" y2="287.0" /><line x1="557.9" y1="282.1" x2="555.1" y2="284.9" /><line x1="557.0" y1="280.0" x2="553.0" y2="280.0" /><line x1="557.9" y1="277.9" x2="555.1" y2="275.1" /><line x1="560.0" y1="277.0" x2="560.0" y2="273.0" /><line x1="562.1" y1="277.9" x2="564.9" y2="275.1" /><line x1="259.0" y1="776.0" x2="263.0" y2="776.0" /><line x1="258.1" y1="778.1" x2="260.9" y2="780.9" /><line x1="256.0" y1="779.0" x2="256.0" y2="783.0" /><line x1="253.9" y1="778.1" x2="251.1" y2="780.9" /><line x1="253.0" y1="776.0" x2="249.0" y2="776.0" /><line x1="253.9" y1="773.9" x2="251.1" y2="771.1" /><line x1="256.0" y1="773.0" x2="256.0" y2="769.0" /><line x1="258.1" y1="773.9" x2="260.9" y2="771.1" /><line x1="563.0" y1="776.0" x2="567.0" y2="776.0" /><line x1="562.1" y1="778.1" x2="564.9" y2="780.9" /><line x1="560.0" y1="779.0" x2="560.0" y2="783.0" /><line x1="557.9" y1="778.1" x2="555.1" y2="780.9" /><line x1="557.0" y1="776.0" x2="553.0" y2="776.0" /><line x1="557.9" y1="773.9" x2="555.1" y2="771.1" /><line x1="560.0" y1="773.0" x2="560.0" y2="769.0" /><line x1="562.1" y1="773.9" x2="564.9" y2="771.1" /><polyline points="401.00,283.20 399.25,282.00 398.25,282.00 396.50,283.60 396.50,288.40 398.25,290.00 399.25,290.00 401.00,288.80" /><polyline points="402.25,282.00 407.25,290.00" /><polyline points="407.25,282.00 402.25,290.00" /><polyline points="410.50,282.00 410.50,290.00" /><polyline points="413.75,282.00 418.75,290.00" /><polyline points="418.75,282.00 413.75,290.00" /><polyline points="366.89,297.00 373.39,297.00" /><polyline points="370.14,297.00 370.14,307.00" /><polyline points="374.36,297.00 374.36,307.00" /><polyline points="380.86,297.00 380.86,307.00" /><polyline points="374.36,301.80 380.86,301.80" /><polyline points="387.36,297.00 381.84,297.00 381.84,301.80 385.74,301.80" /><polyline points="381.84,301.80 381.84,307.00 387.36,307.00" /><polyline points="396.79,307.00 396.79,297.00 403.29,307.00 403.29,297.00" /><polyline points="404.26,307.00 407.51,297.00 410.76,307.00" /><polyline points="405.43,303.50 409.59,303.50" /><polyline points="411.74,307.00 411.74,297.00 415.96,297.00 417.59,298.50 417.59,300.20 415.96,301.50 411.74,301.50 417.59,307.00" /><polyline points="419.21,307.00 419.21,297.00 423.44,297.00 425.06,298.50 425.06,300.20 423.44,301.50 419.21,301.50 425.06,307.00" /><polyline points="429.94,297.00 427.34,298.00 426.69,300.00 426.69,304.00 427.34,306.00 429.94,307.00 432.54,306.00 433.19,304.00 433.19,300.00 432.54,298.00 429.94,297.00" /><polyline points="434.16,297.00 435.79,307.00 437.41,300.50 439.04,307.00 440.66,297.00" /><polyline points="447.16,298.00 445.54,297.00 443.59,297.00 441.96,298.50 441.64,300.00 442.61,301.20 444.89,302.00 447.16,302.80 448.14,304.00 447.81,305.50 446.19,307.00 443.91,307.00 442.29,306.00" /><line x1="270.0" y1="312.0" x2="546.0" y2="312.0" /><line x1="270.0" y1="732.0" x2="546.0" y2="732.0" /><polyline points="359.70,745.25 359.70,740.75 361.52,740.75 362.08,741.29 362.08,742.01 361.52,742.55 359.70,742.55 361.52,742.55 362.08,743.09 362.08,744.71 361.52,745.25 359.70,745.25" /><polyline points="362.92,740.75 362.92,745.25 365.30,745.25" /><polyline points="367.54,740.75 366.42,741.20 366.14,742.10 366.14,743.90 366.42,744.80 367.54,745.25 368.66,744.80 368.94,743.90 368.94,742.10 368.66,741.20 367.54,740.75" /><polyline points="371.88,741.42 370.90,740.75 370.34,740.75 369.36,741.65 369.36,744.35 370.34,745.25 370.90,745.25 371.88,744.58" /><polyline points="372.58,740.75 372.58,745.25" /><polyline points="375.10,740.75 372.58,743.00 375.10,745.25" /><polyline points="375.80,745.25 377.20,740.75 378.60,745.25" /><polyline points="376.30,743.67 378.10,743.67" /><polyline points="379.02,745.25 379.02,740.75 380.56,740.75 381.54,741.88 381.54,744.12 380.56,745.25 379.02,745.25" /><polyline points="384.62,740.75 382.24,740.75 382.24,742.91 383.92,742.91" /><polyline points="382.24,742.91 382.24,745.25 384.62,745.25" /><polyline points="391.90,740.75 391.90,745.25" /><polyline points="394.70,740.75 394.70,745.25" /><polyline points="391.90,742.91 394.70,742.91" /><polyline points="397.50,740.75 395.12,740.75 395.12,742.91 396.80,742.91" /><polyline points="395.12,742.91 395.12,745.25 397.50,745.25" /><polyline points="398.34,740.75 398.34,745.25 400.72,745.25" /><polyline points="401.56,745.25 401.56,740.75 403.10,740.75 404.08,741.88 404.08,744.12 403.10,745.25 401.56,745.25" /><polyline points="413.60,741.20 412.90,740.75 412.06,740.75 411.36,741.42 411.22,742.10 411.64,742.64 412.62,743.00 413.60,743.36 414.02,743.90 413.88,744.58 413.18,745.25 412.20,745.25 411.50,744.80" /><polyline points="414.44,740.75 414.44,745.25" /><polyline points="417.24,740.75 417.24,745.25" /><polyline points="414.44,742.91 417.24,742.91" /><polyline points="420.04,740.75 417.66,740.75 417.66,742.91 419.34,742.91" /><polyline points="417.66,742.91 417.66,745.25 420.04,745.25" /><polyline points="420.88,740.75 420.88,745.25 423.26,745.25" /><polyline points="424.10,740.75 424.10,745.25 426.48,745.25" /><polyline points="429.70,741.20 429.00,740.75 428.16,740.75 427.46,741.42 427.32,742.10 427.74,742.64 428.72,743.00 429.70,743.36 430.12,743.90 429.98,744.58 429.28,745.25 428.30,745.25 427.60,744.80" /><polyline points="439.36,741.20 438.66,740.75 437.82,740.75 437.12,741.42 436.98,742.10 437.40,742.64 438.38,743.00 439.36,743.36 439.78,743.90 439.64,744.58 438.94,745.25 437.96,745.25 437.26,744.80" /><polyline points="440.20,740.75 443.00,740.75" /><polyline points="441.60,740.75 441.60,745.25" /><polyline points="443.42,745.25 443.42,740.75 445.24,740.75 445.94,741.42 445.94,742.19 445.24,742.77 443.42,742.77 445.94,745.25" /><polyline points="446.64,745.25 448.04,740.75 449.44,745.25" /><polyline points="447.14,743.67 448.94,743.67" /><polyline points="451.26,740.75 451.26,745.25" /><polyline points="453.08,740.75 455.88,740.75" /><polyline points="454.48,740.75 454.48,745.25" /><polyline points="324.62,753.25 329.62,753.25" /><polyline points="327.12,753.25 327.12,760.75" /><polyline points="330.38,753.25 330.38,760.75" /><polyline points="335.38,753.25 335.38,760.75" /><polyline points="330.38,756.85 335.38,756.85" /><polyline points="340.38,753.25 336.12,753.25 336.12,756.85 339.12,756.85" /><polyline points="336.12,756.85 336.12,760.75 340.38,760.75" /><polyline points="347.62,753.25 348.88,760.75 350.12,755.88 351.38,760.75 352.62,753.25" /><polyline points="353.38,753.25 353.38,760.75" /><polyline points="358.38,753.25 358.38,760.75" /><polyline points="353.38,756.85 358.38,756.85" /><polyline points="361.62,753.25 359.62,754.00 359.12,755.50 359.12,758.50 359.62,760.00 361.62,760.75 363.62,760.00 364.12,758.50 364.12,755.50 363.62,754.00 361.62,753.25" /><polyline points="364.88,753.25 364.88,760.75 369.12,760.75" /><polyline points="374.88,753.25 370.62,753.25 370.62,756.85 373.62,756.85" /><polyline points="370.62,756.85 370.62,760.75 374.88,760.75" /><polyline points="386.38,754.00 385.12,753.25 383.62,753.25 382.38,754.38 382.12,755.50 382.88,756.40 384.62,757.00 386.38,757.60 387.12,758.50 386.88,759.62 385.62,760.75 383.88,760.75 382.62,760.00" /><polyline points="392.12,753.25 387.88,753.25 387.88,756.85 390.88,756.85" /><polyline points="387.88,756.85 387.88,760.75 392.12,760.75" /><polyline points="393.62,760.75 396.12,753.25 398.62,760.75" /><polyline points="394.52,758.12 397.73,758.12" /><polyline points="409.62,754.38 407.88,753.25 406.88,753.25 405.12,754.75 405.12,759.25 406.88,760.75 407.88,760.75 409.62,759.62" /><polyline points="410.88,760.75 410.88,753.25 414.12,753.25 415.38,754.38 415.38,755.65 414.12,756.62 410.88,756.62 415.38,760.75" /><polyline points="419.12,753.25 417.12,754.00 416.62,755.50 416.62,758.50 417.12,760.00 419.12,760.75 421.12,760.00 421.62,758.50 421.62,755.50 421.12,754.00 419.12,753.25" /><polyline points="422.38,753.25 423.62,760.75 424.88,755.88 426.12,760.75 427.38,753.25" /><polyline points="428.12,760.75 428.12,753.25 430.88,753.25 432.62,755.12 432.62,758.88 430.88,760.75 428.12,760.75" /><polyline points="438.12,754.00 436.88,753.25 435.38,753.25 434.12,754.38 433.88,755.50 434.62,756.40 436.38,757.00 438.12,757.60 438.88,758.50 438.62,759.62 437.38,760.75 435.62,760.75 434.38,760.00" /><polyline points="447.88,753.25 445.88,754.00 445.38,755.50 445.38,758.50 445.88,760.00 447.88,760.75 449.88,760.00 450.38,758.50 450.38,755.50 449.88,754.00 447.88,753.25" /><polyline points="451.12,760.75 451.12,753.25 456.12,760.75 456.12,753.25" /><polyline points="461.12,753.25 456.88,753.25 456.88,756.85 459.88,756.85" /><polyline points="456.88,756.85 456.88,760.75 461.12,760.75" /><polyline points="472.88,754.38 471.12,753.25 470.12,753.25 468.38,754.75 468.38,759.25 470.12,760.75 471.12,760.75 472.88,759.62 472.88,757.00 470.88,757.00" /><polyline points="474.12,760.75 476.62,753.25 479.12,760.75" /><polyline points="475.02,758.12 478.23,758.12" /><polyline points="479.88,753.25 484.88,753.25" /><polyline points="482.38,753.25 482.38,760.75" /><polyline points="489.88,753.25 485.62,753.25 485.62,756.85 488.62,756.85" /><polyline points="485.62,756.85 485.62,760.75 489.88,760.75" /><polyline points="367.75,766.25 372.75,766.25" /><polyline points="370.25,766.25 370.25,773.75" /><polyline points="373.50,766.25 373.50,773.75" /><polyline points="378.50,766.25 378.50,773.75" /><polyline points="373.50,769.85 378.50,769.85" /><polyline points="383.50,766.25 379.25,766.25 379.25,769.85 382.25,769.85" /><polyline points="379.25,769.85 379.25,773.75 383.50,773.75" /><polyline points="395.25,767.38 393.50,766.25 392.50,766.25 390.75,767.75 390.75,772.25 392.50,773.75 393.50,773.75 395.25,772.62 395.25,770.00 393.25,770.00" /><polyline points="396.50,773.75 399.00,766.25 401.50,773.75" /><polyline points="397.40,771.12 400.60,771.12" /><polyline points="402.25,766.25 407.25,766.25" /><polyline points="404.75,766.25 404.75,773.75" /><polyline points="412.25,766.25 408.00,766.25 408.00,769.85 411.00,769.85" /><polyline points="408.00,769.85 408.00,773.75 412.25,773.75" /><polyline points="419.50,766.25 419.50,773.75" /><polyline points="424.50,766.25 424.50,773.75" /><polyline points="419.50,769.85 424.50,769.85" /><polyline points="427.75,766.25 425.75,767.00 425.25,768.50 425.25,771.50 425.75,773.00 427.75,773.75 429.75,773.00 430.25,771.50 430.25,768.50 429.75,767.00 427.75,766.25" /><polyline points="431.00,766.25 431.00,773.75 435.25,773.75" /><polyline points="436.75,773.75 436.75,766.25 439.50,766.25 441.25,768.12 441.25,771.88 439.50,773.75 436.75,773.75" /><polyline points="446.75,767.00 445.50,766.25 444.00,766.25 442.75,767.38 442.50,768.50 443.25,769.40 445.00,770.00 446.75,770.60 447.50,771.50 447.25,772.62 446.00,773.75 444.25,773.75 443.00,773.00" /><polyline points="383.84,779.50 383.84,784.50" /><polyline points="385.92,779.50 387.52,784.50 389.12,779.50" /><polyline points="391.20,784.00 391.20,784.25" /><polyline points="393.28,779.50 396.48,784.50" /><polyline points="396.48,779.50 393.28,784.50" /><polyline points="396.96,779.50 400.16,784.50" /><polyline points="400.16,779.50 396.96,784.50" /><polyline points="402.24,779.50 402.24,784.50" /><polyline points="404.32,779.50 407.52,784.50" /><polyline points="407.52,779.50 404.32,784.50" /><polyline points="409.60,784.00 409.60,784.25" /><polyline points="411.68,784.50 411.68,779.50 413.28,782.25 414.88,779.50 414.88,784.50" /><polyline points="415.36,784.50 415.36,779.50 416.96,782.25 418.56,779.50 418.56,784.50" /><polyline points="419.04,779.50 422.24,784.50" /><polyline points="422.24,779.50 419.04,784.50" /><polyline points="422.72,779.50 425.92,784.50" /><polyline points="425.92,779.50 422.72,784.50" /><polyline points="426.40,779.50 428.00,784.50 429.60,779.50" /><polyline points="431.68,779.50 431.68,784.50" /></g><g id="02_Teal_Image" inkscape:groupmode="layer" inkscape:label="02_Teal_Image" stroke="#3A7A7A" fill="none" stroke-width="0.75" stroke-linecap="round" stroke-linejoin="round"><polyline points="260.0,327.0 261.9,327.0 263.7,327.0 265.6,327.0 267.4,327.0 269.2,327.0 271.1,327.0 272.9,327.0 274.8,327.0 276.6,327.0 278.5,327.0 280.4,327.0 282.2,327.0 284.1,327.0 285.9,327.0 287.8,327.0 289.6,327.1 291.4,327.1 293.3,327.1 295.1,327.1 297.0,327.1 298.9,327.2 300.7,327.2 302.6,327.3 304.4,327.3 306.2,327.4 308.1,327.5 309.9,327.7 311.8,327.8 313.6,328.0 315.5,328.2 317.4,328.5 319.2,328.8 321.1,329.2 322.9,329.7 324.8,330.2 326.6,330.8 328.4,331.5 330.3,332.4 332.1,333.3 334.0,334.4 335.9,335.7 337.7,337.1 339.6,338.8 341.4,340.6 343.2,342.7 345.1,345.0 346.9,347.6 348.8,350.4 350.6,353.6 352.5,357.0 354.4,360.7 356.2,364.8 358.1,369.2 359.9,373.9 361.8,378.9 363.6,384.2 365.4,389.8 367.3,395.7 369.1,401.9 371.0,408.3 372.9,414.8 374.7,421.5 376.6,428.4 378.4,435.3 380.2,442.2 382.1,449.0 383.9,455.8 385.8,462.3 387.6,468.7 389.5,474.7 391.4,480.4 393.2,485.7 395.0,490.5 396.9,494.8 398.8,498.6 400.6,501.7 402.5,504.1 404.3,505.9 406.1,507.0 408.0,507.3 409.9,507.0 411.7,505.9 413.6,504.1 415.4,501.7 417.2,498.6 419.1,494.8 420.9,490.5 422.8,485.7 424.6,480.4 426.5,474.7 428.4,468.7 430.2,462.3 432.1,455.8 433.9,449.0 435.8,442.2 437.6,435.3 439.4,428.4 441.3,421.5 443.1,414.8 445.0,408.3 446.9,401.9 448.7,395.7 450.6,389.8 452.4,384.2 454.2,378.9 456.1,373.9 457.9,369.2 459.8,364.8 461.6,360.7 463.5,357.0 465.4,353.6 467.2,350.4 469.1,347.6 470.9,345.0 472.8,342.7 474.6,340.6 476.4,338.8 478.3,337.1 480.1,335.7 482.0,334.4 483.9,333.3 485.7,332.4 487.6,331.5 489.4,330.8 491.2,330.2 493.1,329.7 494.9,329.2 496.8,328.8 498.6,328.5 500.5,328.2 502.4,328.0 504.2,327.8 506.1,327.7 507.9,327.5 509.8,327.4 511.6,327.3 513.5,327.3 515.3,327.2 517.2,327.2 519.0,327.1 520.8,327.1 522.7,327.1 524.5,327.1 526.4,327.1 528.2,327.0 530.1,327.0 532.0,327.0 533.8,327.0 535.7,327.0 537.5,327.0 539.3,327.0 541.2,327.0 543.0,327.0 544.9,327.0 546.8,327.0 548.6,327.0 550.5,327.0 552.3,327.0 554.2,327.0 556.0,327.0" /><polyline points="260.0,339.6 261.9,339.6 263.7,339.6 265.6,339.6 267.4,339.6 269.2,339.6 271.1,339.6 272.9,339.6 274.8,339.7 276.6,339.7 278.5,339.7 280.4,339.7 282.2,339.7 284.1,339.7 285.9,339.7 287.8,339.7 289.6,339.7 291.4,339.7 293.3,339.7 295.1,339.7 297.0,339.8 298.9,339.8 300.7,339.9 302.6,339.9 304.4,340.0 306.2,340.1 308.1,340.2 309.9,340.3 311.8,340.4 313.6,340.6 315.5,340.8 317.4,341.1 319.2,341.4 321.1,341.7 322.9,342.1 324.8,342.6 326.6,343.2 328.4,343.9 330.3,344.7 332.1,345.6 334.0,346.6 335.9,347.8 337.7,349.1 339.6,350.7 341.4,352.4 343.2,354.3 345.1,356.5 346.9,358.9 348.8,361.6 350.6,364.5 352.5,367.7 354.4,371.2 356.2,375.0 358.1,379.1 359.9,383.5 361.8,388.2 363.6,393.2 365.4,398.4 367.3,403.9 369.1,409.7 371.0,415.7 372.9,421.8 374.7,428.1 376.6,434.5 378.4,440.9 380.2,447.4 382.1,453.8 383.9,460.1 385.8,466.2 387.6,472.2 389.5,477.9 391.4,483.2 393.2,488.1 395.0,492.6 396.9,496.7 398.8,500.1 400.6,503.0 402.5,505.3 404.3,507.0 406.1,508.0 408.0,508.3 409.9,508.0 411.7,507.0 413.6,505.3 415.4,503.0 417.2,500.1 419.1,496.7 420.9,492.6 422.8,488.1 424.6,483.2 426.5,477.9 428.4,472.2 430.2,466.2 432.1,460.1 433.9,453.8 435.8,447.4 437.6,440.9 439.4,434.5 441.3,428.1 443.1,421.8 445.0,415.7 446.9,409.7 448.7,403.9 450.6,398.4 452.4,393.2 454.2,388.2 456.1,383.5 457.9,379.1 459.8,375.0 461.6,371.2 463.5,367.7 465.4,364.5 467.2,361.6 469.1,358.9 470.9,356.5 472.8,354.3 474.6,352.4 476.4,350.7 478.3,349.1 480.1,347.8 482.0,346.6 483.9,345.6 485.7,344.7 487.6,343.9 489.4,343.2 491.2,342.6 493.1,342.1 494.9,341.7 496.8,341.4 498.6,341.1 500.5,340.8 502.4,340.6 504.2,340.4 506.1,340.3 507.9,340.2 509.8,340.1 511.6,340.0 513.5,339.9 515.3,339.9 517.2,339.8 519.0,339.8 520.8,339.7 522.7,339.7 524.5,339.7 526.4,339.7 528.2,339.7 530.1,339.7 532.0,339.7 533.8,339.7 535.7,339.7 537.5,339.7 539.3,339.7 541.2,339.7 543.0,339.6 544.9,339.6 546.8,339.6 548.6,339.6 550.5,339.6 552.3,339.6 554.2,339.6 556.0,339.6" /><polyline points="260.0,352.3 261.9,352.3 263.7,352.3 265.6,352.3 267.4,352.3 269.2,352.3 271.1,352.3 272.9,352.3 274.8,352.3 276.6,352.3 278.5,352.3 280.4,352.3 282.2,352.3 284.1,352.3 285.9,352.3 287.8,352.3 289.6,352.3 291.4,352.3 293.3,352.4 295.1,352.4 297.0,352.4 298.9,352.4 300.7,352.5 302.6,352.5 304.4,352.6 306.2,352.7 308.1,352.8 309.9,352.9 311.8,353.0 313.6,353.2 315.5,353.4 317.4,353.6 319.2,353.9 321.1,354.2 322.9,354.6 324.8,355.1 326.6,355.6 328.4,356.2 330.3,357.0 332.1,357.8 334.0,358.8 335.9,359.9 337.7,361.1 339.6,362.5 341.4,364.2 343.2,366.0 345.1,368.0 346.9,370.2 348.8,372.7 350.6,375.4 352.5,378.4 354.4,381.7 356.2,385.2 358.1,389.0 359.9,393.1 361.8,397.5 363.6,402.1 365.4,407.0 367.3,412.1 369.1,417.5 371.0,423.1 372.9,428.8 374.7,434.6 376.6,440.6 378.4,446.6 380.2,452.6 382.1,458.6 383.9,464.4 385.8,470.2 387.6,475.7 389.5,481.0 391.4,485.9 393.2,490.5 395.0,494.7 396.9,498.5 398.8,501.7 400.6,504.4 402.5,506.6 404.3,508.1 406.1,509.0 408.0,509.3 409.9,509.0 411.7,508.1 413.6,506.6 415.4,504.4 417.2,501.7 419.1,498.5 420.9,494.7 422.8,490.5 424.6,485.9 426.5,481.0 428.4,475.7 430.2,470.2 432.1,464.4 433.9,458.6 435.8,452.6 437.6,446.6 439.4,440.6 441.3,434.6 443.1,428.8 445.0,423.1 446.9,417.5 448.7,412.1 450.6,407.0 452.4,402.1 454.2,397.5 456.1,393.1 457.9,389.0 459.8,385.2 461.6,381.7 463.5,378.4 465.4,375.4 467.2,372.7 469.1,370.2 470.9,368.0 472.8,366.0 474.6,364.2 476.4,362.5 478.3,361.1 480.1,359.9 482.0,358.8 483.9,357.8 485.7,357.0 487.6,356.2 489.4,355.6 491.2,355.1 493.1,354.6 494.9,354.2 496.8,353.9 498.6,353.6 500.5,353.4 502.4,353.2 504.2,353.0 506.1,352.9 507.9,352.8 509.8,352.7 511.6,352.6 513.5,352.5 515.3,352.5 517.2,352.4 519.0,352.4 520.8,352.4 522.7,352.4 524.5,352.3 526.4,352.3 528.2,352.3 530.1,352.3 532.0,352.3 533.8,352.3 535.7,352.3 537.5,352.3 539.3,352.3 541.2,352.3 543.0,352.3 544.9,352.3 546.8,352.3 548.6,352.3 550.5,352.3 552.3,352.3 554.2,352.3 556.0,352.3" /><polyline points="260.0,364.9 261.9,364.9 263.7,364.9 265.6,364.9 267.4,364.9 269.2,364.9 271.1,364.9 272.9,364.9 274.8,364.9 276.6,364.9 278.5,364.9 280.4,364.9 282.2,364.9 284.1,365.0 285.9,365.0 287.8,365.0 289.6,365.0 291.4,365.0 293.3,365.0 295.1,365.0 297.0,365.0 298.9,365.1 300.7,365.1 302.6,365.2 304.4,365.2 306.2,365.3 308.1,365.4 309.9,365.5 311.8,365.6 313.6,365.8 315.5,365.9 317.4,366.2 319.2,366.4 321.1,366.7 322.9,367.1 324.8,367.5 326.6,368.0 328.4,368.6 330.3,369.3 332.1,370.0 334.0,370.9 335.9,372.0 337.7,373.1 339.6,374.4 341.4,375.9 343.2,377.6 345.1,379.5 346.9,381.5 348.8,383.8 350.6,386.4 352.5,389.1 354.4,392.1 356.2,395.4 358.1,398.9 359.9,402.7 361.8,406.8 363.6,411.1 365.4,415.6 367.3,420.4 369.1,425.3 371.0,430.5 372.9,435.8 374.7,441.2 376.6,446.7 378.4,452.2 380.2,457.8 382.1,463.3 383.9,468.8 385.8,474.1 387.6,479.2 389.5,484.1 391.4,488.7 393.2,492.9 395.0,496.8 396.9,500.3 398.8,503.3 400.6,505.8 402.5,507.8 404.3,509.2 406.1,510.1 408.0,510.4 409.9,510.1 411.7,509.2 413.6,507.8 415.4,505.8 417.2,503.3 419.1,500.3 420.9,496.8 422.8,492.9 424.6,488.7 426.5,484.1 428.4,479.2 430.2,474.1 432.1,468.8 433.9,463.3 435.8,457.8 437.6,452.2 439.4,446.7 441.3,441.2 443.1,435.8 445.0,430.5 446.9,425.3 448.7,420.4 450.6,415.6 452.4,411.1 454.2,406.8 456.1,402.7 457.9,398.9 459.8,395.4 461.6,392.1 463.5,389.1 465.4,386.4 467.2,383.8 469.1,381.5 470.9,379.5 472.8,377.6 474.6,375.9 476.4,374.4 478.3,373.1 480.1,372.0 482.0,370.9 483.9,370.0 485.7,369.3 487.6,368.6 489.4,368.0 491.2,367.5 493.1,367.1 494.9,366.7 496.8,366.4 498.6,366.2 500.5,365.9 502.4,365.8 504.2,365.6 506.1,365.5 507.9,365.4 509.8,365.3 511.6,365.2 513.5,365.2 515.3,365.1 517.2,365.1 519.0,365.0 520.8,365.0 522.7,365.0 524.5,365.0 526.4,365.0 528.2,365.0 530.1,365.0 532.0,365.0 533.8,364.9 535.7,364.9 537.5,364.9 539.3,364.9 541.2,364.9 543.0,364.9 544.9,364.9 546.8,364.9 548.6,364.9 550.5,364.9 552.3,364.9 554.2,364.9 556.0,364.9" /><polyline points="260.0,377.6 261.9,377.6 263.7,377.6 265.6,377.6 267.4,377.6 269.2,377.6 271.1,377.6 272.9,377.6 274.8,377.6 276.6,377.6 278.5,377.6 280.4,377.6 282.2,377.6 284.1,377.6 285.9,377.6 287.8,377.6 289.6,377.6 291.4,377.6 293.3,377.6 295.1,377.7 297.0,377.7 298.9,377.7 300.7,377.7 302.6,377.8 304.4,377.8 306.2,377.9 308.1,378.0 309.9,378.1 311.8,378.2 313.6,378.3 315.5,378.5 317.4,378.7 319.2,378.9 321.1,379.2 322.9,379.6 324.8,379.9 326.6,380.4 328.4,380.9 330.3,381.6 332.1,382.3 334.0,383.1 335.9,384.0 337.7,385.1 339.6,386.3 341.4,387.7 343.2,389.2 345.1,390.9 346.9,392.9 348.8,395.0 350.6,397.3 352.5,399.8 354.4,402.6 356.2,405.6 358.1,408.9 359.9,412.4 361.8,416.1 363.6,420.0 365.4,424.2 367.3,428.6 369.1,433.1 371.0,437.9 372.9,442.7 374.7,447.7 376.6,452.8 378.4,457.9 380.2,463.0 382.1,468.1 383.9,473.1 385.8,478.0 387.6,482.7 389.5,487.2 391.4,491.4 393.2,495.3 395.0,498.9 396.9,502.1 398.8,504.9 400.6,507.2 402.5,509.0 404.3,510.3 406.1,511.1 408.0,511.4 409.9,511.1 411.7,510.3 413.6,509.0 415.4,507.2 417.2,504.9 419.1,502.1 420.9,498.9 422.8,495.3 424.6,491.4 426.5,487.2 428.4,482.7 430.2,478.0 432.1,473.1 433.9,468.1 435.8,463.0 437.6,457.9 439.4,452.8 441.3,447.7 443.1,442.7 445.0,437.9 446.9,433.1 448.7,428.6 450.6,424.2 452.4,420.0 454.2,416.1 456.1,412.4 457.9,408.9 459.8,405.6 461.6,402.6 463.5,399.8 465.4,397.3 467.2,395.0 469.1,392.9 470.9,390.9 472.8,389.2 474.6,387.7 476.4,386.3 478.3,385.1 480.1,384.0 482.0,383.1 483.9,382.3 485.7,381.6 487.6,380.9 489.4,380.4 491.2,379.9 493.1,379.6 494.9,379.2 496.8,378.9 498.6,378.7 500.5,378.5 502.4,378.3 504.2,378.2 506.1,378.1 507.9,378.0 509.8,377.9 511.6,377.8 513.5,377.8 515.3,377.7 517.2,377.7 519.0,377.7 520.8,377.7 522.7,377.6 524.5,377.6 526.4,377.6 528.2,377.6 530.1,377.6 532.0,377.6 533.8,377.6 535.7,377.6 537.5,377.6 539.3,377.6 541.2,377.6 543.0,377.6 544.9,377.6 546.8,377.6 548.6,377.6 550.5,377.6 552.3,377.6 554.2,377.6 556.0,377.6" /><polyline points="260.0,390.2 261.9,390.2 263.7,390.2 265.6,390.2 267.4,390.2 269.2,390.2 271.1,390.2 272.9,390.2 274.8,390.2 276.6,390.2 278.5,390.2 280.4,390.2 282.2,390.2 284.1,390.2 285.9,390.2 287.8,390.3 289.6,390.3 291.4,390.3 293.3,390.3 295.1,390.3 297.0,390.3 298.9,390.3 300.7,390.4 302.6,390.4 304.4,390.5 306.2,390.5 308.1,390.6 309.9,390.7 311.8,390.8 313.6,390.9 315.5,391.1 317.4,391.2 319.2,391.5 321.1,391.7 322.9,392.0 324.8,392.4 326.6,392.8 328.4,393.3 330.3,393.9 332.1,394.5 334.0,395.3 335.9,396.1 337.7,397.1 339.6,398.2 341.4,399.5 343.2,400.9 345.1,402.4 346.9,404.2 348.8,406.1 350.6,408.2 352.5,410.5 354.4,413.1 356.2,415.8 358.1,418.8 359.9,422.0 361.8,425.4 363.6,429.0 365.4,432.8 367.3,436.8 369.1,440.9 371.0,445.3 372.9,449.7 374.7,454.3 376.6,458.9 378.4,463.6 380.2,468.2 382.1,472.9 383.9,477.4 385.8,481.9 387.6,486.2 389.5,490.3 391.4,494.2 393.2,497.8 395.0,501.0 396.9,503.9 398.8,506.4 400.6,508.5 402.5,510.2 404.3,511.4 406.1,512.1 408.0,512.4 409.9,512.1 411.7,511.4 413.6,510.2 415.4,508.5 417.2,506.4 419.1,503.9 420.9,501.0 422.8,497.8 424.6,494.2 426.5,490.3 428.4,486.2 430.2,481.9 432.1,477.4 433.9,472.9 435.8,468.2 437.6,463.6 439.4,458.9 441.3,454.3 443.1,449.7 445.0,445.3 446.9,440.9 448.7,436.8 450.6,432.8 452.4,429.0 454.2,425.4 456.1,422.0 457.9,418.8 459.8,415.8 461.6,413.1 463.5,410.5 465.4,408.2 467.2,406.1 469.1,404.2 470.9,402.4 472.8,400.9 474.6,399.5 476.4,398.2 478.3,397.1 480.1,396.1 482.0,395.3 483.9,394.5 485.7,393.9 487.6,393.3 489.4,392.8 491.2,392.4 493.1,392.0 494.9,391.7 496.8,391.5 498.6,391.2 500.5,391.1 502.4,390.9 504.2,390.8 506.1,390.7 507.9,390.6 509.8,390.5 511.6,390.5 513.5,390.4 515.3,390.4 517.2,390.3 519.0,390.3 520.8,390.3 522.7,390.3 524.5,390.3 526.4,390.3 528.2,390.3 530.1,390.2 532.0,390.2 533.8,390.2 535.7,390.2 537.5,390.2 539.3,390.2 541.2,390.2 543.0,390.2 544.9,390.2 546.8,390.2 548.6,390.2 550.5,390.2 552.3,390.2 554.2,390.2 556.0,390.2" /><polyline points="260.0,402.9 261.9,402.9 263.7,402.9 265.6,402.9 267.4,402.9 269.2,402.9 271.1,402.9 272.9,402.9 274.8,402.9 276.6,402.9 278.5,402.9 280.4,402.9 282.2,402.9 284.1,402.9 285.9,402.9 287.8,402.9 289.6,402.9 291.4,402.9 293.3,402.9 295.1,402.9 297.0,403.0 298.9,403.0 300.7,403.0 302.6,403.0 304.4,403.1 306.2,403.1 308.1,403.2 309.9,403.3 311.8,403.4 313.6,403.5 315.5,403.6 317.4,403.8 319.2,404.0 321.1,404.2 322.9,404.5 324.8,404.8 326.6,405.2 328.4,405.6 330.3,406.2 332.1,406.7 334.0,407.4 335.9,408.2 337.7,409.1 339.6,410.1 341.4,411.2 343.2,412.5 345.1,413.9 346.9,415.5 348.8,417.2 350.6,419.2 352.5,421.3 354.4,423.5 356.2,426.0 358.1,428.7 359.9,431.6 361.8,434.7 363.6,437.9 365.4,441.4 367.3,445.0 369.1,448.8 371.0,452.7 372.9,456.7 374.7,460.8 376.6,465.0 378.4,469.2 380.2,473.5 382.1,477.7 383.9,481.8 385.8,485.8 387.6,489.7 389.5,493.4 391.4,496.9 393.2,500.2 395.0,503.1 396.9,505.7 398.8,508.0 400.6,509.9 402.5,511.4 404.3,512.5 406.1,513.2 408.0,513.4 409.9,513.2 411.7,512.5 413.6,511.4 415.4,509.9 417.2,508.0 419.1,505.7 420.9,503.1 422.8,500.2 424.6,496.9 426.5,493.4 428.4,489.7 430.2,485.8 432.1,481.8 433.9,477.7 435.8,473.5 437.6,469.2 439.4,465.0 441.3,460.8 443.1,456.7 445.0,452.7 446.9,448.8 448.7,445.0 450.6,441.4 452.4,437.9 454.2,434.7 456.1,431.6 457.9,428.7 459.8,426.0 461.6,423.5 463.5,421.3 465.4,419.2 467.2,417.2 469.1,415.5 470.9,413.9 472.8,412.5 474.6,411.2 476.4,410.1 478.3,409.1 480.1,408.2 482.0,407.4 483.9,406.7 485.7,406.2 487.6,405.6 489.4,405.2 491.2,404.8 493.1,404.5 494.9,404.2 496.8,404.0 498.6,403.8 500.5,403.6 502.4,403.5 504.2,403.4 506.1,403.3 507.9,403.2 509.8,403.1 511.6,403.1 513.5,403.0 515.3,403.0 517.2,403.0 519.0,403.0 520.8,402.9 522.7,402.9 524.5,402.9 526.4,402.9 528.2,402.9 530.1,402.9 532.0,402.9 533.8,402.9 535.7,402.9 537.5,402.9 539.3,402.9 541.2,402.9 543.0,402.9 544.9,402.9 546.8,402.9 548.6,402.9 550.5,402.9 552.3,402.9 554.2,402.9 556.0,402.9" /><polyline points="260.0,415.5 261.9,415.5 263.7,415.5 265.6,415.5 267.4,415.5 269.2,415.5 271.1,415.5 272.9,415.5 274.8,415.5 276.6,415.5 278.5,415.5 280.4,415.5 282.2,415.5 284.1,415.5 285.9,415.5 287.8,415.5 289.6,415.5 291.4,415.6 293.3,415.6 295.1,415.6 297.0,415.6 298.9,415.6 300.7,415.6 302.6,415.7 304.4,415.7 306.2,415.8 308.1,415.8 309.9,415.9 311.8,416.0 313.6,416.1 315.5,416.2 317.4,416.3 319.2,416.5 321.1,416.7 322.9,417.0 324.8,417.3 326.6,417.6 328.4,418.0 330.3,418.5 332.1,419.0 334.0,419.6 335.9,420.3 337.7,421.1 339.6,422.0 341.4,423.0 343.2,424.1 345.1,425.4 346.9,426.8 348.8,428.4 350.6,430.1 352.5,432.0 354.4,434.0 356.2,436.2 358.1,438.6 359.9,441.2 361.8,444.0 363.6,446.9 365.4,450.0 367.3,453.2 369.1,456.6 371.0,460.1 372.9,463.7 374.7,467.4 376.6,471.1 378.4,474.9 380.2,478.7 382.1,482.4 383.9,486.1 385.8,489.7 387.6,493.2 389.5,496.5 391.4,499.7 393.2,502.6 395.0,505.2 396.9,507.6 398.8,509.6 400.6,511.3 402.5,512.6 404.3,513.6 406.1,514.2 408.0,514.4 409.9,514.2 411.7,513.6 413.6,512.6 415.4,511.3 417.2,509.6 419.1,507.6 420.9,505.2 422.8,502.6 424.6,499.7 426.5,496.5 428.4,493.2 430.2,489.7 432.1,486.1 433.9,482.4 435.8,478.7 437.6,474.9 439.4,471.1 441.3,467.4 443.1,463.7 445.0,460.1 446.9,456.6 448.7,453.2 450.6,450.0 452.4,446.9 454.2,444.0 456.1,441.2 457.9,438.6 459.8,436.2 461.6,434.0 463.5,432.0 465.4,430.1 467.2,428.4 469.1,426.8 470.9,425.4 472.8,424.1 474.6,423.0 476.4,422.0 478.3,421.1 480.1,420.3 482.0,419.6 483.9,419.0 485.7,418.5 487.6,418.0 489.4,417.6 491.2,417.3 493.1,417.0 494.9,416.7 496.8,416.5 498.6,416.3 500.5,416.2 502.4,416.1 504.2,416.0 506.1,415.9 507.9,415.8 509.8,415.8 511.6,415.7 513.5,415.7 515.3,415.6 517.2,415.6 519.0,415.6 520.8,415.6 522.7,415.6 524.5,415.6 526.4,415.5 528.2,415.5 530.1,415.5 532.0,415.5 533.8,415.5 535.7,415.5 537.5,415.5 539.3,415.5 541.2,415.5 543.0,415.5 544.9,415.5 546.8,415.5 548.6,415.5 550.5,415.5 552.3,415.5 554.2,415.5 556.0,415.5" /><polyline points="260.0,428.2 261.9,428.2 263.7,428.2 265.6,428.2 267.4,428.2 269.2,428.2 271.1,428.2 272.9,428.2 274.8,428.2 276.6,428.2 278.5,428.2 280.4,428.2 282.2,428.2 284.1,428.2 285.9,428.2 287.8,428.2 289.6,428.2 291.4,428.2 293.3,428.2 295.1,428.2 297.0,428.2 298.9,428.2 300.7,428.3 302.6,428.3 304.4,428.3 306.2,428.4 308.1,428.4 309.9,428.5 311.8,428.6 313.6,428.7 315.5,428.8 317.4,428.9 319.2,429.0 321.1,429.2 322.9,429.4 324.8,429.7 326.6,430.0 328.4,430.4 330.3,430.8 332.1,431.2 334.0,431.8 335.9,432.4 337.7,433.1 339.6,433.9 341.4,434.8 343.2,435.8 345.1,436.9 346.9,438.1 348.8,439.5 350.6,441.0 352.5,442.7 354.4,444.5 356.2,446.5 358.1,448.6 359.9,450.8 361.8,453.3 363.6,455.8 365.4,458.6 367.3,461.4 369.1,464.4 371.0,467.5 372.9,470.7 374.7,473.9 376.6,477.2 378.4,480.5 380.2,483.9 382.1,487.2 383.9,490.5 385.8,493.6 387.6,496.7 389.5,499.6 391.4,502.4 393.2,505.0 395.0,507.3 396.9,509.4 398.8,511.2 400.6,512.7 402.5,513.9 404.3,514.7 406.1,515.2 408.0,515.4 409.9,515.2 411.7,514.7 413.6,513.9 415.4,512.7 417.2,511.2 419.1,509.4 420.9,507.3 422.8,505.0 424.6,502.4 426.5,499.6 428.4,496.7 430.2,493.6 432.1,490.5 433.9,487.2 435.8,483.9 437.6,480.5 439.4,477.2 441.3,473.9 443.1,470.7 445.0,467.5 446.9,464.4 448.7,461.4 450.6,458.6 452.4,455.8 454.2,453.3 456.1,450.8 457.9,448.6 459.8,446.5 461.6,444.5 463.5,442.7 465.4,441.0 467.2,439.5 469.1,438.1 470.9,436.9 472.8,435.8 474.6,434.8 476.4,433.9 478.3,433.1 480.1,432.4 482.0,431.8 483.9,431.2 485.7,430.8 487.6,430.4 489.4,430.0 491.2,429.7 493.1,429.4 494.9,429.2 496.8,429.0 498.6,428.9 500.5,428.8 502.4,428.7 504.2,428.6 506.1,428.5 507.9,428.4 509.8,428.4 511.6,428.3 513.5,428.3 515.3,428.3 517.2,428.2 519.0,428.2 520.8,428.2 522.7,428.2 524.5,428.2 526.4,428.2 528.2,428.2 530.1,428.2 532.0,428.2 533.8,428.2 535.7,428.2 537.5,428.2 539.3,428.2 541.2,428.2 543.0,428.2 544.9,428.2 546.8,428.2 548.6,428.2 550.5,428.2 552.3,428.2 554.2,428.2 556.0,428.2" /><polyline points="260.0,440.8 261.9,440.8 263.7,440.8 265.6,440.8 267.4,440.8 269.2,440.8 271.1,440.8 272.9,440.8 274.8,440.8 276.6,440.8 278.5,440.8 280.4,440.8 282.2,440.8 284.1,440.8 285.9,440.8 287.8,440.8 289.6,440.8 291.4,440.8 293.3,440.8 295.1,440.9 297.0,440.9 298.9,440.9 300.7,440.9 302.6,440.9 304.4,441.0 306.2,441.0 308.1,441.0 309.9,441.1 311.8,441.2 313.6,441.2 315.5,441.3 317.4,441.4 319.2,441.6 321.1,441.7 322.9,441.9 324.8,442.1 326.6,442.4 328.4,442.7 330.3,443.1 332.1,443.5 334.0,443.9 335.9,444.5 337.7,445.1 339.6,445.7 341.4,446.5 343.2,447.4 345.1,448.4 346.9,449.4 348.8,450.6 350.6,451.9 352.5,453.4 354.4,455.0 356.2,456.7 358.1,458.5 359.9,460.5 361.8,462.6 363.6,464.8 365.4,467.2 367.3,469.6 369.1,472.2 371.0,474.9 372.9,477.6 374.7,480.5 376.6,483.3 378.4,486.2 380.2,489.1 382.1,492.0 383.9,494.8 385.8,497.6 387.6,500.2 389.5,502.8 391.4,505.2 393.2,507.4 395.0,509.4 396.9,511.2 398.8,512.7 400.6,514.1 402.5,515.1 404.3,515.8 406.1,516.3 408.0,516.4 409.9,516.3 411.7,515.8 413.6,515.1 415.4,514.1 417.2,512.7 419.1,511.2 420.9,509.4 422.8,507.4 424.6,505.2 426.5,502.8 428.4,500.2 430.2,497.6 432.1,494.8 433.9,492.0 435.8,489.1 437.6,486.2 439.4,483.3 441.3,480.5 443.1,477.6 445.0,474.9 446.9,472.2 448.7,469.6 450.6,467.2 452.4,464.8 454.2,462.6 456.1,460.5 457.9,458.5 459.8,456.7 461.6,455.0 463.5,453.4 465.4,451.9 467.2,450.6 469.1,449.4 470.9,448.4 472.8,447.4 474.6,446.5 476.4,445.7 478.3,445.1 480.1,444.5 482.0,443.9 483.9,443.5 485.7,443.1 487.6,442.7 489.4,442.4 491.2,442.1 493.1,441.9 494.9,441.7 496.8,441.6 498.6,441.4 500.5,441.3 502.4,441.2 504.2,441.2 506.1,441.1 507.9,441.0 509.8,441.0 511.6,441.0 513.5,440.9 515.3,440.9 517.2,440.9 519.0,440.9 520.8,440.9 522.7,440.8 524.5,440.8 526.4,440.8 528.2,440.8 530.1,440.8 532.0,440.8 533.8,440.8 535.7,440.8 537.5,440.8 539.3,440.8 541.2,440.8 543.0,440.8 544.9,440.8 546.8,440.8 548.6,440.8 550.5,440.8 552.3,440.8 554.2,440.8 556.0,440.8" /><polyline points="260.0,453.5 261.9,453.5 263.7,453.5 265.6,453.5 267.4,453.5 269.2,453.5 271.1,453.5 272.9,453.5 274.8,453.5 276.6,453.5 278.5,453.5 280.4,453.5 282.2,453.5 284.1,453.5 285.9,453.5 287.8,453.5 289.6,453.5 291.4,453.5 293.3,453.5 295.1,453.5 297.0,453.5 298.9,453.5 300.7,453.5 302.6,453.6 304.4,453.6 306.2,453.6 308.1,453.6 309.9,453.7 311.8,453.7 313.6,453.8 315.5,453.9 317.4,454.0 319.2,454.1 321.1,454.2 322.9,454.4 324.8,454.6 326.6,454.8 328.4,455.1 330.3,455.4 332.1,455.7 334.0,456.1 335.9,456.5 337.7,457.1 339.6,457.6 341.4,458.3 343.2,459.0 345.1,459.8 346.9,460.8 348.8,461.8 350.6,462.9 352.5,464.1 354.4,465.4 356.2,466.9 358.1,468.4 359.9,470.1 361.8,471.9 363.6,473.8 365.4,475.7 367.3,477.8 369.1,480.0 371.0,482.3 372.9,484.6 374.7,487.0 376.6,489.4 378.4,491.9 380.2,494.3 382.1,496.7 383.9,499.1 385.8,501.5 387.6,503.7 389.5,505.9 391.4,507.9 393.2,509.8 395.0,511.5 396.9,513.0 398.8,514.3 400.6,515.4 402.5,516.3 404.3,516.9 406.1,517.3 408.0,517.4 409.9,517.3 411.7,516.9 413.6,516.3 415.4,515.4 417.2,514.3 419.1,513.0 420.9,511.5 422.8,509.8 424.6,507.9 426.5,505.9 428.4,503.7 430.2,501.5 432.1,499.1 433.9,496.7 435.8,494.3 437.6,491.9 439.4,489.4 441.3,487.0 443.1,484.6 445.0,482.3 446.9,480.0 448.7,477.8 450.6,475.7 452.4,473.8 454.2,471.9 456.1,470.1 457.9,468.4 459.8,466.9 461.6,465.4 463.5,464.1 465.4,462.9 467.2,461.8 469.1,460.8 470.9,459.8 472.8,459.0 474.6,458.3 476.4,457.6 478.3,457.1 480.1,456.5 482.0,456.1 483.9,455.7 485.7,455.4 487.6,455.1 489.4,454.8 491.2,454.6 493.1,454.4 494.9,454.2 496.8,454.1 498.6,454.0 500.5,453.9 502.4,453.8 504.2,453.7 506.1,453.7 507.9,453.6 509.8,453.6 511.6,453.6 513.5,453.6 515.3,453.5 517.2,453.5 519.0,453.5 520.8,453.5 522.7,453.5 524.5,453.5 526.4,453.5 528.2,453.5 530.1,453.5 532.0,453.5 533.8,453.5 535.7,453.5 537.5,453.5 539.3,453.5 541.2,453.5 543.0,453.5 544.9,453.5 546.8,453.5 548.6,453.5 550.5,453.5 552.3,453.5 554.2,453.5 556.0,453.5" /><polyline points="260.0,466.1 261.9,466.1 263.7,466.1 265.6,466.1 267.4,466.1 269.2,466.1 271.1,466.1 272.9,466.1 274.8,466.1 276.6,466.1 278.5,466.1 280.4,466.1 282.2,466.1 284.1,466.1 285.9,466.1 287.8,466.1 289.6,466.1 291.4,466.1 293.3,466.1 295.1,466.1 297.0,466.1 298.9,466.1 300.7,466.2 302.6,466.2 304.4,466.2 306.2,466.2 308.1,466.3 309.9,466.3 311.8,466.3 313.6,466.4 315.5,466.5 317.4,466.5 319.2,466.6 321.1,466.7 322.9,466.9 324.8,467.0 326.6,467.2 328.4,467.4 330.3,467.7 332.1,467.9 334.0,468.3 335.9,468.6 337.7,469.0 339.6,469.5 341.4,470.1 343.2,470.7 345.1,471.3 346.9,472.1 348.8,472.9 350.6,473.8 352.5,474.8 354.4,475.9 356.2,477.1 358.1,478.3 359.9,479.7 361.8,481.2 363.6,482.7 365.4,484.3 367.3,486.0 369.1,487.8 371.0,489.7 372.9,491.6 374.7,493.5 376.6,495.5 378.4,497.5 380.2,499.5 382.1,501.5 383.9,503.5 385.8,505.4 387.6,507.2 389.5,509.0 391.4,510.6 393.2,512.2 395.0,513.6 396.9,514.8 398.8,515.9 400.6,516.8 402.5,517.5 404.3,518.0 406.1,518.3 408.0,518.4 409.9,518.3 411.7,518.0 413.6,517.5 415.4,516.8 417.2,515.9 419.1,514.8 420.9,513.6 422.8,512.2 424.6,510.6 426.5,509.0 428.4,507.2 430.2,505.4 432.1,503.5 433.9,501.5 435.8,499.5 437.6,497.5 439.4,495.5 441.3,493.5 443.1,491.6 445.0,489.7 446.9,487.8 448.7,486.0 450.6,484.3 452.4,482.7 454.2,481.2 456.1,479.7 457.9,478.3 459.8,477.1 461.6,475.9 463.5,474.8 465.4,473.8 467.2,472.9 469.1,472.1 470.9,471.3 472.8,470.7 474.6,470.1 476.4,469.5 478.3,469.0 480.1,468.6 482.0,468.3 483.9,467.9 485.7,467.7 487.6,467.4 489.4,467.2 491.2,467.0 493.1,466.9 494.9,466.7 496.8,466.6 498.6,466.5 500.5,466.5 502.4,466.4 504.2,466.3 506.1,466.3 507.9,466.3 509.8,466.2 511.6,466.2 513.5,466.2 515.3,466.2 517.2,466.1 519.0,466.1 520.8,466.1 522.7,466.1 524.5,466.1 526.4,466.1 528.2,466.1 530.1,466.1 532.0,466.1 533.8,466.1 535.7,466.1 537.5,466.1 539.3,466.1 541.2,466.1 543.0,466.1 544.9,466.1 546.8,466.1 548.6,466.1 550.5,466.1 552.3,466.1 554.2,466.1 556.0,466.1" /><polyline points="260.0,478.7 261.9,478.7 263.7,478.7 265.6,478.7 267.4,478.7 269.2,478.7 271.1,478.7 272.9,478.7 274.8,478.7 276.6,478.7 278.5,478.7 280.4,478.7 282.2,478.7 284.1,478.7 285.9,478.7 287.8,478.8 289.6,478.8 291.4,478.8 293.3,478.8 295.1,478.8 297.0,478.8 298.9,478.8 300.7,478.8 302.6,478.8 304.4,478.8 306.2,478.8 308.1,478.9 309.9,478.9 311.8,478.9 313.6,479.0 315.5,479.0 317.4,479.1 319.2,479.2 321.1,479.2 322.9,479.3 324.8,479.5 326.6,479.6 328.4,479.8 330.3,480.0 332.1,480.2 334.0,480.4 335.9,480.7 337.7,481.0 339.6,481.4 341.4,481.8 343.2,482.3 345.1,482.8 346.9,483.4 348.8,484.0 350.6,484.7 352.5,485.5 354.4,486.4 356.2,487.3 358.1,488.3 359.9,489.3 361.8,490.5 363.6,491.7 365.4,492.9 367.3,494.3 369.1,495.6 371.0,497.1 372.9,498.6 374.7,500.1 376.6,501.6 378.4,503.2 380.2,504.7 382.1,506.3 383.9,507.8 385.8,509.3 387.6,510.7 389.5,512.1 391.4,513.4 393.2,514.6 395.0,515.7 396.9,516.6 398.8,517.5 400.6,518.2 402.5,518.7 404.3,519.1 406.1,519.4 408.0,519.5 409.9,519.4 411.7,519.1 413.6,518.7 415.4,518.2 417.2,517.5 419.1,516.6 420.9,515.7 422.8,514.6 424.6,513.4 426.5,512.1 428.4,510.7 430.2,509.3 432.1,507.8 433.9,506.3 435.8,504.7 437.6,503.2 439.4,501.6 441.3,500.1 443.1,498.6 445.0,497.1 446.9,495.6 448.7,494.3 450.6,492.9 452.4,491.7 454.2,490.5 456.1,489.3 457.9,488.3 459.8,487.3 461.6,486.4 463.5,485.5 465.4,484.7 467.2,484.0 469.1,483.4 470.9,482.8 472.8,482.3 474.6,481.8 476.4,481.4 478.3,481.0 480.1,480.7 482.0,480.4 483.9,480.2 485.7,480.0 487.6,479.8 489.4,479.6 491.2,479.5 493.1,479.3 494.9,479.2 496.8,479.2 498.6,479.1 500.5,479.0 502.4,479.0 504.2,478.9 506.1,478.9 507.9,478.9 509.8,478.8 511.6,478.8 513.5,478.8 515.3,478.8 517.2,478.8 519.0,478.8 520.8,478.8 522.7,478.8 524.5,478.8 526.4,478.8 528.2,478.8 530.1,478.7 532.0,478.7 533.8,478.7 535.7,478.7 537.5,478.7 539.3,478.7 541.2,478.7 543.0,478.7 544.9,478.7 546.8,478.7 548.6,478.7 550.5,478.7 552.3,478.7 554.2,478.7 556.0,478.7" /><polyline points="260.0,491.4 261.9,491.4 263.7,491.4 265.6,491.4 267.4,491.4 269.2,491.4 271.1,491.4 272.9,491.4 274.8,491.4 276.6,491.4 278.5,491.4 280.4,491.4 282.2,491.4 284.1,491.4 285.9,491.4 287.8,491.4 289.6,491.4 291.4,491.4 293.3,491.4 295.1,491.4 297.0,491.4 298.9,491.4 300.7,491.4 302.6,491.4 304.4,491.4 306.2,491.5 308.1,491.5 309.9,491.5 311.8,491.5 313.6,491.6 315.5,491.6 317.4,491.6 319.2,491.7 321.1,491.7 322.9,491.8 324.8,491.9 326.6,492.0 328.4,492.1 330.3,492.3 332.1,492.4 334.0,492.6 335.9,492.8 337.7,493.0 339.6,493.3 341.4,493.6 343.2,493.9 345.1,494.3 346.9,494.7 348.8,495.2 350.6,495.7 352.5,496.2 354.4,496.8 356.2,497.5 358.1,498.2 359.9,498.9 361.8,499.8 363.6,500.6 365.4,501.5 367.3,502.5 369.1,503.5 371.0,504.5 372.9,505.6 374.7,506.6 376.6,507.7 378.4,508.8 380.2,510.0 382.1,511.1 383.9,512.2 385.8,513.2 387.6,514.2 389.5,515.2 391.4,516.1 393.2,517.0 395.0,517.8 396.9,518.5 398.8,519.1 400.6,519.6 402.5,520.0 404.3,520.2 406.1,520.4 408.0,520.5 409.9,520.4 411.7,520.2 413.6,520.0 415.4,519.6 417.2,519.1 419.1,518.5 420.9,517.8 422.8,517.0 424.6,516.1 426.5,515.2 428.4,514.2 430.2,513.2 432.1,512.2 433.9,511.1 435.8,510.0 437.6,508.8 439.4,507.7 441.3,506.6 443.1,505.6 445.0,504.5 446.9,503.5 448.7,502.5 450.6,501.5 452.4,500.6 454.2,499.8 456.1,498.9 457.9,498.2 459.8,497.5 461.6,496.8 463.5,496.2 465.4,495.7 467.2,495.2 469.1,494.7 470.9,494.3 472.8,493.9 474.6,493.6 476.4,493.3 478.3,493.0 480.1,492.8 482.0,492.6 483.9,492.4 485.7,492.3 487.6,492.1 489.4,492.0 491.2,491.9 493.1,491.8 494.9,491.7 496.8,491.7 498.6,491.6 500.5,491.6 502.4,491.6 504.2,491.5 506.1,491.5 507.9,491.5 509.8,491.5 511.6,491.4 513.5,491.4 515.3,491.4 517.2,491.4 519.0,491.4 520.8,491.4 522.7,491.4 524.5,491.4 526.4,491.4 528.2,491.4 530.1,491.4 532.0,491.4 533.8,491.4 535.7,491.4 537.5,491.4 539.3,491.4 541.2,491.4 543.0,491.4 544.9,491.4 546.8,491.4 548.6,491.4 550.5,491.4 552.3,491.4 554.2,491.4 556.0,491.4" /><polyline points="260.0,504.0 261.9,504.0 263.7,504.0 265.6,504.0 267.4,504.0 269.2,504.0 271.1,504.0 272.9,504.0 274.8,504.0 276.6,504.0 278.5,504.0 280.4,504.0 282.2,504.0 284.1,504.0 285.9,504.0 287.8,504.0 289.6,504.0 291.4,504.0 293.3,504.0 295.1,504.0 297.0,504.0 298.9,504.0 300.7,504.1 302.6,504.1 304.4,504.1 306.2,504.1 308.1,504.1 309.9,504.1 311.8,504.1 313.6,504.1 315.5,504.2 317.4,504.2 319.2,504.2 321.1,504.2 322.9,504.3 324.8,504.3 326.6,504.4 328.4,504.5 330.3,504.6 332.1,504.6 334.0,504.8 335.9,504.9 337.7,505.0 339.6,505.2 341.4,505.4 343.2,505.6 345.1,505.8 346.9,506.0 348.8,506.3 350.6,506.6 352.5,506.9 354.4,507.3 356.2,507.7 358.1,508.1 359.9,508.6 361.8,509.1 363.6,509.6 365.4,510.1 367.3,510.7 369.1,511.3 371.0,511.9 372.9,512.5 374.7,513.2 376.6,513.8 378.4,514.5 380.2,515.2 382.1,515.8 383.9,516.5 385.8,517.1 387.6,517.7 389.5,518.3 391.4,518.9 393.2,519.4 395.0,519.9 396.9,520.3 398.8,520.6 400.6,520.9 402.5,521.2 404.3,521.3 406.1,521.4 408.0,521.5 409.9,521.4 411.7,521.3 413.6,521.2 415.4,520.9 417.2,520.6 419.1,520.3 420.9,519.9 422.8,519.4 424.6,518.9 426.5,518.3 428.4,517.7 430.2,517.1 432.1,516.5 433.9,515.8 435.8,515.2 437.6,514.5 439.4,513.8 441.3,513.2 443.1,512.5 445.0,511.9 446.9,511.3 448.7,510.7 450.6,510.1 452.4,509.6 454.2,509.1 456.1,508.6 457.9,508.1 459.8,507.7 461.6,507.3 463.5,506.9 465.4,506.6 467.2,506.3 469.1,506.0 470.9,505.8 472.8,505.6 474.6,505.4 476.4,505.2 478.3,505.0 480.1,504.9 482.0,504.8 483.9,504.6 485.7,504.6 487.6,504.5 489.4,504.4 491.2,504.3 493.1,504.3 494.9,504.2 496.8,504.2 498.6,504.2 500.5,504.2 502.4,504.1 504.2,504.1 506.1,504.1 507.9,504.1 509.8,504.1 511.6,504.1 513.5,504.1 515.3,504.1 517.2,504.0 519.0,504.0 520.8,504.0 522.7,504.0 524.5,504.0 526.4,504.0 528.2,504.0 530.1,504.0 532.0,504.0 533.8,504.0 535.7,504.0 537.5,504.0 539.3,504.0 541.2,504.0 543.0,504.0 544.9,504.0 546.8,504.0 548.6,504.0 550.5,504.0 552.3,504.0 554.2,504.0 556.0,504.0" /><polyline points="260.0,516.7 261.9,516.7 263.7,516.7 265.6,516.7 267.4,516.7 269.2,516.7 271.1,516.7 272.9,516.7 274.8,516.7 276.6,516.7 278.5,516.7 280.4,516.7 282.2,516.7 284.1,516.7 285.9,516.7 287.8,516.7 289.6,516.7 291.4,516.7 293.3,516.7 295.1,516.7 297.0,516.7 298.9,516.7 300.7,516.7 302.6,516.7 304.4,516.7 306.2,516.7 308.1,516.7 309.9,516.7 311.8,516.7 313.6,516.7 315.5,516.7 317.4,516.7 319.2,516.7 321.1,516.7 322.9,516.8 324.8,516.8 326.6,516.8 328.4,516.8 330.3,516.9 332.1,516.9 334.0,516.9 335.9,517.0 337.7,517.0 339.6,517.1 341.4,517.1 343.2,517.2 345.1,517.3 346.9,517.3 348.8,517.4 350.6,517.5 352.5,517.6 354.4,517.8 356.2,517.9 358.1,518.0 359.9,518.2 361.8,518.4 363.6,518.5 365.4,518.7 367.3,518.9 369.1,519.1 371.0,519.3 372.9,519.5 374.7,519.7 376.6,519.9 378.4,520.2 380.2,520.4 382.1,520.6 383.9,520.8 385.8,521.0 387.6,521.2 389.5,521.4 391.4,521.6 393.2,521.8 395.0,522.0 396.9,522.1 398.8,522.2 400.6,522.3 402.5,522.4 404.3,522.4 406.1,522.5 408.0,522.5 409.9,522.5 411.7,522.4 413.6,522.4 415.4,522.3 417.2,522.2 419.1,522.1 420.9,522.0 422.8,521.8 424.6,521.6 426.5,521.4 428.4,521.2 430.2,521.0 432.1,520.8 433.9,520.6 435.8,520.4 437.6,520.2 439.4,519.9 441.3,519.7 443.1,519.5 445.0,519.3 446.9,519.1 448.7,518.9 450.6,518.7 452.4,518.5 454.2,518.4 456.1,518.2 457.9,518.0 459.8,517.9 461.6,517.8 463.5,517.6 465.4,517.5 467.2,517.4 469.1,517.3 470.9,517.3 472.8,517.2 474.6,517.1 476.4,517.1 478.3,517.0 480.1,517.0 482.0,516.9 483.9,516.9 485.7,516.9 487.6,516.8 489.4,516.8 491.2,516.8 493.1,516.8 494.9,516.7 496.8,516.7 498.6,516.7 500.5,516.7 502.4,516.7 504.2,516.7 506.1,516.7 507.9,516.7 509.8,516.7 511.6,516.7 513.5,516.7 515.3,516.7 517.2,516.7 519.0,516.7 520.8,516.7 522.7,516.7 524.5,516.7 526.4,516.7 528.2,516.7 530.1,516.7 532.0,516.7 533.8,516.7 535.7,516.7 537.5,516.7 539.3,516.7 541.2,516.7 543.0,516.7 544.9,516.7 546.8,516.7 548.6,516.7 550.5,516.7 552.3,516.7 554.2,516.7 556.0,516.7" /><polyline points="260.0,529.3 261.9,529.3 263.7,529.3 265.6,529.3 267.4,529.3 269.2,529.3 271.1,529.3 272.9,529.3 274.8,529.3 276.6,529.3 278.5,529.3 280.4,529.3 282.2,529.3 284.1,529.3 285.9,529.3 287.8,529.3 289.6,529.3 291.4,529.3 293.3,529.3 295.1,529.3 297.0,529.3 298.9,529.3 300.7,529.3 302.6,529.3 304.4,529.3 306.2,529.3 308.1,529.3 309.9,529.3 311.8,529.3 313.6,529.3 315.5,529.3 317.4,529.3 319.2,529.3 321.1,529.3 322.9,529.2 324.8,529.2 326.6,529.2 328.4,529.2 330.3,529.1 332.1,529.1 334.0,529.1 335.9,529.0 337.7,529.0 339.6,528.9 341.4,528.9 343.2,528.8 345.1,528.7 346.9,528.7 348.8,528.6 350.6,528.5 352.5,528.4 354.4,528.2 356.2,528.1 358.1,528.0 359.9,527.8 361.8,527.6 363.6,527.5 365.4,527.3 367.3,527.1 369.1,526.9 371.0,526.7 372.9,526.5 374.7,526.3 376.6,526.1 378.4,525.8 380.2,525.6 382.1,525.4 383.9,525.2 385.8,525.0 387.6,524.8 389.5,524.6 391.4,524.4 393.2,524.2 395.0,524.0 396.9,523.9 398.8,523.8 400.6,523.7 402.5,523.6 404.3,523.6 406.1,523.5 408.0,523.5 409.9,523.5 411.7,523.6 413.6,523.6 415.4,523.7 417.2,523.8 419.1,523.9 420.9,524.0 422.8,524.2 424.6,524.4 426.5,524.6 428.4,524.8 430.2,525.0 432.1,525.2 433.9,525.4 435.8,525.6 437.6,525.8 439.4,526.1 441.3,526.3 443.1,526.5 445.0,526.7 446.9,526.9 448.7,527.1 450.6,527.3 452.4,527.5 454.2,527.6 456.1,527.8 457.9,528.0 459.8,528.1 461.6,528.2 463.5,528.4 465.4,528.5 467.2,528.6 469.1,528.7 470.9,528.7 472.8,528.8 474.6,528.9 476.4,528.9 478.3,529.0 480.1,529.0 482.0,529.1 483.9,529.1 485.7,529.1 487.6,529.2 489.4,529.2 491.2,529.2 493.1,529.2 494.9,529.3 496.8,529.3 498.6,529.3 500.5,529.3 502.4,529.3 504.2,529.3 506.1,529.3 507.9,529.3 509.8,529.3 511.6,529.3 513.5,529.3 515.3,529.3 517.2,529.3 519.0,529.3 520.8,529.3 522.7,529.3 524.5,529.3 526.4,529.3 528.2,529.3 530.1,529.3 532.0,529.3 533.8,529.3 535.7,529.3 537.5,529.3 539.3,529.3 541.2,529.3 543.0,529.3 544.9,529.3 546.8,529.3 548.6,529.3 550.5,529.3 552.3,529.3 554.2,529.3 556.0,529.3" /><polyline points="260.0,542.0 261.9,542.0 263.7,542.0 265.6,542.0 267.4,542.0 269.2,542.0 271.1,542.0 272.9,542.0 274.8,542.0 276.6,542.0 278.5,542.0 280.4,542.0 282.2,542.0 284.1,542.0 285.9,542.0 287.8,542.0 289.6,542.0 291.4,542.0 293.3,542.0 295.1,542.0 297.0,542.0 298.9,542.0 300.7,541.9 302.6,541.9 304.4,541.9 306.2,541.9 308.1,541.9 309.9,541.9 311.8,541.9 313.6,541.9 315.5,541.8 317.4,541.8 319.2,541.8 321.1,541.8 322.9,541.7 324.8,541.7 326.6,541.6 328.4,541.5 330.3,541.4 332.1,541.4 334.0,541.2 335.9,541.1 337.7,541.0 339.6,540.8 341.4,540.6 343.2,540.4 345.1,540.2 346.9,540.0 348.8,539.7 350.6,539.4 352.5,539.1 354.4,538.7 356.2,538.3 358.1,537.9 359.9,537.4 361.8,536.9 363.6,536.4 365.4,535.9 367.3,535.3 369.1,534.7 371.0,534.1 372.9,533.5 374.7,532.8 376.6,532.2 378.4,531.5 380.2,530.8 382.1,530.2 383.9,529.5 385.8,528.9 387.6,528.3 389.5,527.7 391.4,527.1 393.2,526.6 395.0,526.1 396.9,525.7 398.8,525.4 400.6,525.1 402.5,524.8 404.3,524.7 406.1,524.6 408.0,524.5 409.9,524.6 411.7,524.7 413.6,524.8 415.4,525.1 417.2,525.4 419.1,525.7 420.9,526.1 422.8,526.6 424.6,527.1 426.5,527.7 428.4,528.3 430.2,528.9 432.1,529.5 433.9,530.2 435.8,530.8 437.6,531.5 439.4,532.2 441.3,532.8 443.1,533.5 445.0,534.1 446.9,534.7 448.7,535.3 450.6,535.9 452.4,536.4 454.2,536.9 456.1,537.4 457.9,537.9 459.8,538.3 461.6,538.7 463.5,539.1 465.4,539.4 467.2,539.7 469.1,540.0 470.9,540.2 472.8,540.4 474.6,540.6 476.4,540.8 478.3,541.0 480.1,541.1 482.0,541.2 483.9,541.4 485.7,541.4 487.6,541.5 489.4,541.6 491.2,541.7 493.1,541.7 494.9,541.8 496.8,541.8 498.6,541.8 500.5,541.8 502.4,541.9 504.2,541.9 506.1,541.9 507.9,541.9 509.8,541.9 511.6,541.9 513.5,541.9 515.3,541.9 517.2,542.0 519.0,542.0 520.8,542.0 522.7,542.0 524.5,542.0 526.4,542.0 528.2,542.0 530.1,542.0 532.0,542.0 533.8,542.0 535.7,542.0 537.5,542.0 539.3,542.0 541.2,542.0 543.0,542.0 544.9,542.0 546.8,542.0 548.6,542.0 550.5,542.0 552.3,542.0 554.2,542.0 556.0,542.0" /><polyline points="260.0,554.6 261.9,554.6 263.7,554.6 265.6,554.6 267.4,554.6 269.2,554.6 271.1,554.6 272.9,554.6 274.8,554.6 276.6,554.6 278.5,554.6 280.4,554.6 282.2,554.6 284.1,554.6 285.9,554.6 287.8,554.6 289.6,554.6 291.4,554.6 293.3,554.6 295.1,554.6 297.0,554.6 298.9,554.6 300.7,554.6 302.6,554.6 304.4,554.6 306.2,554.5 308.1,554.5 309.9,554.5 311.8,554.5 313.6,554.4 315.5,554.4 317.4,554.4 319.2,554.3 321.1,554.3 322.9,554.2 324.8,554.1 326.6,554.0 328.4,553.9 330.3,553.7 332.1,553.6 334.0,553.4 335.9,553.2 337.7,553.0 339.6,552.7 341.4,552.4 343.2,552.1 345.1,551.7 346.9,551.3 348.8,550.8 350.6,550.3 352.5,549.8 354.4,549.2 356.2,548.5 358.1,547.8 359.9,547.1 361.8,546.2 363.6,545.4 365.4,544.5 367.3,543.5 369.1,542.5 371.0,541.5 372.9,540.4 374.7,539.4 376.6,538.3 378.4,537.2 380.2,536.0 382.1,534.9 383.9,533.8 385.8,532.8 387.6,531.8 389.5,530.8 391.4,529.9 393.2,529.0 395.0,528.2 396.9,527.5 398.8,526.9 400.6,526.4 402.5,526.0 404.3,525.8 406.1,525.6 408.0,525.5 409.9,525.6 411.7,525.8 413.6,526.0 415.4,526.4 417.2,526.9 419.1,527.5 420.9,528.2 422.8,529.0 424.6,529.9 426.5,530.8 428.4,531.8 430.2,532.8 432.1,533.8 433.9,534.9 435.8,536.0 437.6,537.2 439.4,538.3 441.3,539.4 443.1,540.4 445.0,541.5 446.9,542.5 448.7,543.5 450.6,544.5 452.4,545.4 454.2,546.2 456.1,547.1 457.9,547.8 459.8,548.5 461.6,549.2 463.5,549.8 465.4,550.3 467.2,550.8 469.1,551.3 470.9,551.7 472.8,552.1 474.6,552.4 476.4,552.7 478.3,553.0 480.1,553.2 482.0,553.4 483.9,553.6 485.7,553.7 487.6,553.9 489.4,554.0 491.2,554.1 493.1,554.2 494.9,554.3 496.8,554.3 498.6,554.4 500.5,554.4 502.4,554.4 504.2,554.5 506.1,554.5 507.9,554.5 509.8,554.5 511.6,554.6 513.5,554.6 515.3,554.6 517.2,554.6 519.0,554.6 520.8,554.6 522.7,554.6 524.5,554.6 526.4,554.6 528.2,554.6 530.1,554.6 532.0,554.6 533.8,554.6 535.7,554.6 537.5,554.6 539.3,554.6 541.2,554.6 543.0,554.6 544.9,554.6 546.8,554.6 548.6,554.6 550.5,554.6 552.3,554.6 554.2,554.6 556.0,554.6" /><polyline points="260.0,567.3 261.9,567.3 263.7,567.3 265.6,567.3 267.4,567.3 269.2,567.3 271.1,567.3 272.9,567.3 274.8,567.3 276.6,567.3 278.5,567.3 280.4,567.3 282.2,567.3 284.1,567.3 285.9,567.3 287.8,567.2 289.6,567.2 291.4,567.2 293.3,567.2 295.1,567.2 297.0,567.2 298.9,567.2 300.7,567.2 302.6,567.2 304.4,567.2 306.2,567.2 308.1,567.1 309.9,567.1 311.8,567.1 313.6,567.0 315.5,567.0 317.4,566.9 319.2,566.8 321.1,566.8 322.9,566.7 324.8,566.5 326.6,566.4 328.4,566.2 330.3,566.0 332.1,565.8 334.0,565.6 335.9,565.3 337.7,565.0 339.6,564.6 341.4,564.2 343.2,563.7 345.1,563.2 346.9,562.6 348.8,562.0 350.6,561.3 352.5,560.5 354.4,559.6 356.2,558.7 358.1,557.7 359.9,556.7 361.8,555.5 363.6,554.3 365.4,553.1 367.3,551.7 369.1,550.4 371.0,548.9 372.9,547.4 374.7,545.9 376.6,544.4 378.4,542.8 380.2,541.3 382.1,539.7 383.9,538.2 385.8,536.7 387.6,535.3 389.5,533.9 391.4,532.6 393.2,531.4 395.0,530.3 396.9,529.4 398.8,528.5 400.6,527.8 402.5,527.3 404.3,526.9 406.1,526.6 408.0,526.5 409.9,526.6 411.7,526.9 413.6,527.3 415.4,527.8 417.2,528.5 419.1,529.4 420.9,530.3 422.8,531.4 424.6,532.6 426.5,533.9 428.4,535.3 430.2,536.7 432.1,538.2 433.9,539.7 435.8,541.3 437.6,542.8 439.4,544.4 441.3,545.9 443.1,547.4 445.0,548.9 446.9,550.4 448.7,551.7 450.6,553.1 452.4,554.3 454.2,555.5 456.1,556.7 457.9,557.7 459.8,558.7 461.6,559.6 463.5,560.5 465.4,561.3 467.2,562.0 469.1,562.6 470.9,563.2 472.8,563.7 474.6,564.2 476.4,564.6 478.3,565.0 480.1,565.3 482.0,565.6 483.9,565.8 485.7,566.0 487.6,566.2 489.4,566.4 491.2,566.5 493.1,566.7 494.9,566.8 496.8,566.8 498.6,566.9 500.5,567.0 502.4,567.0 504.2,567.1 506.1,567.1 507.9,567.1 509.8,567.2 511.6,567.2 513.5,567.2 515.3,567.2 517.2,567.2 519.0,567.2 520.8,567.2 522.7,567.2 524.5,567.2 526.4,567.2 528.2,567.2 530.1,567.3 532.0,567.3 533.8,567.3 535.7,567.3 537.5,567.3 539.3,567.3 541.2,567.3 543.0,567.3 544.9,567.3 546.8,567.3 548.6,567.3 550.5,567.3 552.3,567.3 554.2,567.3 556.0,567.3" /><polyline points="260.0,579.9 261.9,579.9 263.7,579.9 265.6,579.9 267.4,579.9 269.2,579.9 271.1,579.9 272.9,579.9 274.8,579.9 276.6,579.9 278.5,579.9 280.4,579.9 282.2,579.9 284.1,579.9 285.9,579.9 287.8,579.9 289.6,579.9 291.4,579.9 293.3,579.9 295.1,579.9 297.0,579.9 298.9,579.9 300.7,579.8 302.6,579.8 304.4,579.8 306.2,579.8 308.1,579.7 309.9,579.7 311.8,579.7 313.6,579.6 315.5,579.5 317.4,579.5 319.2,579.4 321.1,579.3 322.9,579.1 324.8,579.0 326.6,578.8 328.4,578.6 330.3,578.3 332.1,578.1 334.0,577.7 335.9,577.4 337.7,577.0 339.6,576.5 341.4,575.9 343.2,575.3 345.1,574.7 346.9,573.9 348.8,573.1 350.6,572.2 352.5,571.2 354.4,570.1 356.2,568.9 358.1,567.7 359.9,566.3 361.8,564.8 363.6,563.3 365.4,561.7 367.3,560.0 369.1,558.2 371.0,556.3 372.9,554.4 374.7,552.5 376.6,550.5 378.4,548.5 380.2,546.5 382.1,544.5 383.9,542.5 385.8,540.6 387.6,538.8 389.5,537.0 391.4,535.4 393.2,533.8 395.0,532.4 396.9,531.2 398.8,530.1 400.6,529.2 402.5,528.5 404.3,528.0 406.1,527.7 408.0,527.6 409.9,527.7 411.7,528.0 413.6,528.5 415.4,529.2 417.2,530.1 419.1,531.2 420.9,532.4 422.8,533.8 424.6,535.4 426.5,537.0 428.4,538.8 430.2,540.6 432.1,542.5 433.9,544.5 435.8,546.5 437.6,548.5 439.4,550.5 441.3,552.5 443.1,554.4 445.0,556.3 446.9,558.2 448.7,560.0 450.6,561.7 452.4,563.3 454.2,564.8 456.1,566.3 457.9,567.7 459.8,568.9 461.6,570.1 463.5,571.2 465.4,572.2 467.2,573.1 469.1,573.9 470.9,574.7 472.8,575.3 474.6,575.9 476.4,576.5 478.3,577.0 480.1,577.4 482.0,577.7 483.9,578.1 485.7,578.3 487.6,578.6 489.4,578.8 491.2,579.0 493.1,579.1 494.9,579.3 496.8,579.4 498.6,579.5 500.5,579.5 502.4,579.6 504.2,579.7 506.1,579.7 507.9,579.7 509.8,579.8 511.6,579.8 513.5,579.8 515.3,579.8 517.2,579.9 519.0,579.9 520.8,579.9 522.7,579.9 524.5,579.9 526.4,579.9 528.2,579.9 530.1,579.9 532.0,579.9 533.8,579.9 535.7,579.9 537.5,579.9 539.3,579.9 541.2,579.9 543.0,579.9 544.9,579.9 546.8,579.9 548.6,579.9 550.5,579.9 552.3,579.9 554.2,579.9 556.0,579.9" /><polyline points="260.0,592.5 261.9,592.5 263.7,592.5 265.6,592.5 267.4,592.5 269.2,592.5 271.1,592.5 272.9,592.5 274.8,592.5 276.6,592.5 278.5,592.5 280.4,592.5 282.2,592.5 284.1,592.5 285.9,592.5 287.8,592.5 289.6,592.5 291.4,592.5 293.3,592.5 295.1,592.5 297.0,592.5 298.9,592.5 300.7,592.5 302.6,592.4 304.4,592.4 306.2,592.4 308.1,592.4 309.9,592.3 311.8,592.3 313.6,592.2 315.5,592.1 317.4,592.0 319.2,591.9 321.1,591.8 322.9,591.6 324.8,591.4 326.6,591.2 328.4,590.9 330.3,590.6 332.1,590.3 334.0,589.9 335.9,589.5 337.7,588.9 339.6,588.4 341.4,587.7 343.2,587.0 345.1,586.2 346.9,585.2 348.8,584.2 350.6,583.1 352.5,581.9 354.4,580.6 356.2,579.1 358.1,577.6 359.9,575.9 361.8,574.1 363.6,572.2 365.4,570.3 367.3,568.2 369.1,566.0 371.0,563.7 372.9,561.4 374.7,559.0 376.6,556.6 378.4,554.1 380.2,551.7 382.1,549.3 383.9,546.9 385.8,544.5 387.6,542.3 389.5,540.1 391.4,538.1 393.2,536.2 395.0,534.5 396.9,533.0 398.8,531.7 400.6,530.6 402.5,529.7 404.3,529.1 406.1,528.7 408.0,528.6 409.9,528.7 411.7,529.1 413.6,529.7 415.4,530.6 417.2,531.7 419.1,533.0 420.9,534.5 422.8,536.2 424.6,538.1 426.5,540.1 428.4,542.3 430.2,544.5 432.1,546.9 433.9,549.3 435.8,551.7 437.6,554.1 439.4,556.6 441.3,559.0 443.1,561.4 445.0,563.7 446.9,566.0 448.7,568.2 450.6,570.3 452.4,572.2 454.2,574.1 456.1,575.9 457.9,577.6 459.8,579.1 461.6,580.6 463.5,581.9 465.4,583.1 467.2,584.2 469.1,585.2 470.9,586.2 472.8,587.0 474.6,587.7 476.4,588.4 478.3,588.9 480.1,589.5 482.0,589.9 483.9,590.3 485.7,590.6 487.6,590.9 489.4,591.2 491.2,591.4 493.1,591.6 494.9,591.8 496.8,591.9 498.6,592.0 500.5,592.1 502.4,592.2 504.2,592.3 506.1,592.3 507.9,592.4 509.8,592.4 511.6,592.4 513.5,592.4 515.3,592.5 517.2,592.5 519.0,592.5 520.8,592.5 522.7,592.5 524.5,592.5 526.4,592.5 528.2,592.5 530.1,592.5 532.0,592.5 533.8,592.5 535.7,592.5 537.5,592.5 539.3,592.5 541.2,592.5 543.0,592.5 544.9,592.5 546.8,592.5 548.6,592.5 550.5,592.5 552.3,592.5 554.2,592.5 556.0,592.5" /><polyline points="260.0,605.2 261.9,605.2 263.7,605.2 265.6,605.2 267.4,605.2 269.2,605.2 271.1,605.2 272.9,605.2 274.8,605.2 276.6,605.2 278.5,605.2 280.4,605.2 282.2,605.2 284.1,605.2 285.9,605.2 287.8,605.2 289.6,605.2 291.4,605.2 293.3,605.2 295.1,605.1 297.0,605.1 298.9,605.1 300.7,605.1 302.6,605.1 304.4,605.0 306.2,605.0 308.1,605.0 309.9,604.9 311.8,604.8 313.6,604.8 315.5,604.7 317.4,604.6 319.2,604.4 321.1,604.3 322.9,604.1 324.8,603.9 326.6,603.6 328.4,603.3 330.3,602.9 332.1,602.5 334.0,602.1 335.9,601.5 337.7,600.9 339.6,600.3 341.4,599.5 343.2,598.6 345.1,597.6 346.9,596.6 348.8,595.4 350.6,594.1 352.5,592.6 354.4,591.0 356.2,589.3 358.1,587.5 359.9,585.5 361.8,583.4 363.6,581.2 365.4,578.8 367.3,576.4 369.1,573.8 371.0,571.1 372.9,568.4 374.7,565.5 376.6,562.7 378.4,559.8 380.2,556.9 382.1,554.0 383.9,551.2 385.8,548.4 387.6,545.8 389.5,543.2 391.4,540.8 393.2,538.6 395.0,536.6 396.9,534.8 398.8,533.3 400.6,531.9 402.5,530.9 404.3,530.2 406.1,529.7 408.0,529.6 409.9,529.7 411.7,530.2 413.6,530.9 415.4,531.9 417.2,533.3 419.1,534.8 420.9,536.6 422.8,538.6 424.6,540.8 426.5,543.2 428.4,545.8 430.2,548.4 432.1,551.2 433.9,554.0 435.8,556.9 437.6,559.8 439.4,562.7 441.3,565.5 443.1,568.4 445.0,571.1 446.9,573.8 448.7,576.4 450.6,578.8 452.4,581.2 454.2,583.4 456.1,585.5 457.9,587.5 459.8,589.3 461.6,591.0 463.5,592.6 465.4,594.1 467.2,595.4 469.1,596.6 470.9,597.6 472.8,598.6 474.6,599.5 476.4,600.3 478.3,600.9 480.1,601.5 482.0,602.1 483.9,602.5 485.7,602.9 487.6,603.3 489.4,603.6 491.2,603.9 493.1,604.1 494.9,604.3 496.8,604.4 498.6,604.6 500.5,604.7 502.4,604.8 504.2,604.8 506.1,604.9 507.9,605.0 509.8,605.0 511.6,605.0 513.5,605.1 515.3,605.1 517.2,605.1 519.0,605.1 520.8,605.1 522.7,605.2 524.5,605.2 526.4,605.2 528.2,605.2 530.1,605.2 532.0,605.2 533.8,605.2 535.7,605.2 537.5,605.2 539.3,605.2 541.2,605.2 543.0,605.2 544.9,605.2 546.8,605.2 548.6,605.2 550.5,605.2 552.3,605.2 554.2,605.2 556.0,605.2" /><polyline points="260.0,617.8 261.9,617.8 263.7,617.8 265.6,617.8 267.4,617.8 269.2,617.8 271.1,617.8 272.9,617.8 274.8,617.8 276.6,617.8 278.5,617.8 280.4,617.8 282.2,617.8 284.1,617.8 285.9,617.8 287.8,617.8 289.6,617.8 291.4,617.8 293.3,617.8 295.1,617.8 297.0,617.8 298.9,617.8 300.7,617.7 302.6,617.7 304.4,617.7 306.2,617.6 308.1,617.6 309.9,617.5 311.8,617.4 313.6,617.3 315.5,617.2 317.4,617.1 319.2,617.0 321.1,616.8 322.9,616.6 324.8,616.3 326.6,616.0 328.4,615.6 330.3,615.2 332.1,614.8 334.0,614.2 335.9,613.6 337.7,612.9 339.6,612.1 341.4,611.2 343.2,610.2 345.1,609.1 346.9,607.9 348.8,606.5 350.6,605.0 352.5,603.3 354.4,601.5 356.2,599.5 358.1,597.4 359.9,595.2 361.8,592.7 363.6,590.2 365.4,587.4 367.3,584.6 369.1,581.6 371.0,578.5 372.9,575.3 374.7,572.1 376.6,568.8 378.4,565.5 380.2,562.1 382.1,558.8 383.9,555.5 385.8,552.4 387.6,549.3 389.5,546.4 391.4,543.6 393.2,541.0 395.0,538.7 396.9,536.6 398.8,534.8 400.6,533.3 402.5,532.1 404.3,531.3 406.1,530.8 408.0,530.6 409.9,530.8 411.7,531.3 413.6,532.1 415.4,533.3 417.2,534.8 419.1,536.6 420.9,538.7 422.8,541.0 424.6,543.6 426.5,546.4 428.4,549.3 430.2,552.4 432.1,555.5 433.9,558.8 435.8,562.1 437.6,565.5 439.4,568.8 441.3,572.1 443.1,575.3 445.0,578.5 446.9,581.6 448.7,584.6 450.6,587.4 452.4,590.2 454.2,592.7 456.1,595.2 457.9,597.4 459.8,599.5 461.6,601.5 463.5,603.3 465.4,605.0 467.2,606.5 469.1,607.9 470.9,609.1 472.8,610.2 474.6,611.2 476.4,612.1 478.3,612.9 480.1,613.6 482.0,614.2 483.9,614.8 485.7,615.2 487.6,615.6 489.4,616.0 491.2,616.3 493.1,616.6 494.9,616.8 496.8,617.0 498.6,617.1 500.5,617.2 502.4,617.3 504.2,617.4 506.1,617.5 507.9,617.6 509.8,617.6 511.6,617.7 513.5,617.7 515.3,617.7 517.2,617.8 519.0,617.8 520.8,617.8 522.7,617.8 524.5,617.8 526.4,617.8 528.2,617.8 530.1,617.8 532.0,617.8 533.8,617.8 535.7,617.8 537.5,617.8 539.3,617.8 541.2,617.8 543.0,617.8 544.9,617.8 546.8,617.8 548.6,617.8 550.5,617.8 552.3,617.8 554.2,617.8 556.0,617.8" /><polyline points="260.0,630.5 261.9,630.5 263.7,630.5 265.6,630.5 267.4,630.5 269.2,630.5 271.1,630.5 272.9,630.5 274.8,630.5 276.6,630.5 278.5,630.5 280.4,630.5 282.2,630.5 284.1,630.5 285.9,630.5 287.8,630.5 289.6,630.5 291.4,630.4 293.3,630.4 295.1,630.4 297.0,630.4 298.9,630.4 300.7,630.4 302.6,630.3 304.4,630.3 306.2,630.2 308.1,630.2 309.9,630.1 311.8,630.0 313.6,629.9 315.5,629.8 317.4,629.7 319.2,629.5 321.1,629.3 322.9,629.0 324.8,628.7 326.6,628.4 328.4,628.0 330.3,627.5 332.1,627.0 334.0,626.4 335.9,625.7 337.7,624.9 339.6,624.0 341.4,623.0 343.2,621.9 345.1,620.6 346.9,619.2 348.8,617.6 350.6,615.9 352.5,614.0 354.4,612.0 356.2,609.8 358.1,607.4 359.9,604.8 361.8,602.0 363.6,599.1 365.4,596.0 367.3,592.8 369.1,589.4 371.0,585.9 372.9,582.3 374.7,578.6 376.6,574.9 378.4,571.1 380.2,567.3 382.1,563.6 383.9,559.9 385.8,556.3 387.6,552.8 389.5,549.5 391.4,546.3 393.2,543.4 395.0,540.8 396.9,538.4 398.8,536.4 400.6,534.7 402.5,533.4 404.3,532.4 406.1,531.8 408.0,531.6 409.9,531.8 411.7,532.4 413.6,533.4 415.4,534.7 417.2,536.4 419.1,538.4 420.9,540.8 422.8,543.4 424.6,546.3 426.5,549.5 428.4,552.8 430.2,556.3 432.1,559.9 433.9,563.6 435.8,567.3 437.6,571.1 439.4,574.9 441.3,578.6 443.1,582.3 445.0,585.9 446.9,589.4 448.7,592.8 450.6,596.0 452.4,599.1 454.2,602.0 456.1,604.8 457.9,607.4 459.8,609.8 461.6,612.0 463.5,614.0 465.4,615.9 467.2,617.6 469.1,619.2 470.9,620.6 472.8,621.9 474.6,623.0 476.4,624.0 478.3,624.9 480.1,625.7 482.0,626.4 483.9,627.0 485.7,627.5 487.6,628.0 489.4,628.4 491.2,628.7 493.1,629.0 494.9,629.3 496.8,629.5 498.6,629.7 500.5,629.8 502.4,629.9 504.2,630.0 506.1,630.1 507.9,630.2 509.8,630.2 511.6,630.3 513.5,630.3 515.3,630.4 517.2,630.4 519.0,630.4 520.8,630.4 522.7,630.4 524.5,630.4 526.4,630.5 528.2,630.5 530.1,630.5 532.0,630.5 533.8,630.5 535.7,630.5 537.5,630.5 539.3,630.5 541.2,630.5 543.0,630.5 544.9,630.5 546.8,630.5 548.6,630.5 550.5,630.5 552.3,630.5 554.2,630.5 556.0,630.5" /><polyline points="260.0,643.1 261.9,643.1 263.7,643.1 265.6,643.1 267.4,643.1 269.2,643.1 271.1,643.1 272.9,643.1 274.8,643.1 276.6,643.1 278.5,643.1 280.4,643.1 282.2,643.1 284.1,643.1 285.9,643.1 287.8,643.1 289.6,643.1 291.4,643.1 293.3,643.1 295.1,643.1 297.0,643.0 298.9,643.0 300.7,643.0 302.6,643.0 304.4,642.9 306.2,642.9 308.1,642.8 309.9,642.7 311.8,642.6 313.6,642.5 315.5,642.4 317.4,642.2 319.2,642.0 321.1,641.8 322.9,641.5 324.8,641.2 326.6,640.8 328.4,640.4 330.3,639.8 332.1,639.3 334.0,638.6 335.9,637.8 337.7,636.9 339.6,635.9 341.4,634.8 343.2,633.5 345.1,632.1 346.9,630.5 348.8,628.8 350.6,626.8 352.5,624.7 354.4,622.5 356.2,620.0 358.1,617.3 359.9,614.4 361.8,611.3 363.6,608.1 365.4,604.6 367.3,601.0 369.1,597.2 371.0,593.3 372.9,589.3 374.7,585.2 376.6,581.0 378.4,576.8 380.2,572.5 382.1,568.3 383.9,564.2 385.8,560.2 387.6,556.3 389.5,552.6 391.4,549.1 393.2,545.8 395.0,542.9 396.9,540.3 398.8,538.0 400.6,536.1 402.5,534.6 404.3,533.5 406.1,532.8 408.0,532.6 409.9,532.8 411.7,533.5 413.6,534.6 415.4,536.1 417.2,538.0 419.1,540.3 420.9,542.9 422.8,545.8 424.6,549.1 426.5,552.6 428.4,556.3 430.2,560.2 432.1,564.2 433.9,568.3 435.8,572.5 437.6,576.8 439.4,581.0 441.3,585.2 443.1,589.3 445.0,593.3 446.9,597.2 448.7,601.0 450.6,604.6 452.4,608.1 454.2,611.3 456.1,614.4 457.9,617.3 459.8,620.0 461.6,622.5 463.5,624.7 465.4,626.8 467.2,628.8 469.1,630.5 470.9,632.1 472.8,633.5 474.6,634.8 476.4,635.9 478.3,636.9 480.1,637.8 482.0,638.6 483.9,639.3 485.7,639.8 487.6,640.4 489.4,640.8 491.2,641.2 493.1,641.5 494.9,641.8 496.8,642.0 498.6,642.2 500.5,642.4 502.4,642.5 504.2,642.6 506.1,642.7 507.9,642.8 509.8,642.9 511.6,642.9 513.5,643.0 515.3,643.0 517.2,643.0 519.0,643.0 520.8,643.1 522.7,643.1 524.5,643.1 526.4,643.1 528.2,643.1 530.1,643.1 532.0,643.1 533.8,643.1 535.7,643.1 537.5,643.1 539.3,643.1 541.2,643.1 543.0,643.1 544.9,643.1 546.8,643.1 548.6,643.1 550.5,643.1 552.3,643.1 554.2,643.1 556.0,643.1" /><polyline points="260.0,655.8 261.9,655.8 263.7,655.8 265.6,655.8 267.4,655.8 269.2,655.8 271.1,655.8 272.9,655.8 274.8,655.8 276.6,655.8 278.5,655.8 280.4,655.8 282.2,655.8 284.1,655.8 285.9,655.8 287.8,655.7 289.6,655.7 291.4,655.7 293.3,655.7 295.1,655.7 297.0,655.7 298.9,655.7 300.7,655.6 302.6,655.6 304.4,655.5 306.2,655.5 308.1,655.4 309.9,655.3 311.8,655.2 313.6,655.1 315.5,654.9 317.4,654.8 319.2,654.5 321.1,654.3 322.9,654.0 324.8,653.6 326.6,653.2 328.4,652.7 330.3,652.1 332.1,651.5 334.0,650.7 335.9,649.9 337.7,648.9 339.6,647.8 341.4,646.5 343.2,645.1 345.1,643.6 346.9,641.8 348.8,639.9 350.6,637.8 352.5,635.5 354.4,632.9 356.2,630.2 358.1,627.2 359.9,624.0 361.8,620.6 363.6,617.0 365.4,613.2 367.3,609.2 369.1,605.1 371.0,600.7 372.9,596.3 374.7,591.7 376.6,587.1 378.4,582.4 380.2,577.8 382.1,573.1 383.9,568.6 385.8,564.1 387.6,559.8 389.5,555.7 391.4,551.8 393.2,548.2 395.0,545.0 396.9,542.1 398.8,539.6 400.6,537.5 402.5,535.8 404.3,534.6 406.1,533.9 408.0,533.6 409.9,533.9 411.7,534.6 413.6,535.8 415.4,537.5 417.2,539.6 419.1,542.1 420.9,545.0 422.8,548.2 424.6,551.8 426.5,555.7 428.4,559.8 430.2,564.1 432.1,568.6 433.9,573.1 435.8,577.8 437.6,582.4 439.4,587.1 441.3,591.7 443.1,596.3 445.0,600.7 446.9,605.1 448.7,609.2 450.6,613.2 452.4,617.0 454.2,620.6 456.1,624.0 457.9,627.2 459.8,630.2 461.6,632.9 463.5,635.5 465.4,637.8 467.2,639.9 469.1,641.8 470.9,643.6 472.8,645.1 474.6,646.5 476.4,647.8 478.3,648.9 480.1,649.9 482.0,650.7 483.9,651.5 485.7,652.1 487.6,652.7 489.4,653.2 491.2,653.6 493.1,654.0 494.9,654.3 496.8,654.5 498.6,654.8 500.5,654.9 502.4,655.1 504.2,655.2 506.1,655.3 507.9,655.4 509.8,655.5 511.6,655.5 513.5,655.6 515.3,655.6 517.2,655.7 519.0,655.7 520.8,655.7 522.7,655.7 524.5,655.7 526.4,655.7 528.2,655.7 530.1,655.8 532.0,655.8 533.8,655.8 535.7,655.8 537.5,655.8 539.3,655.8 541.2,655.8 543.0,655.8 544.9,655.8 546.8,655.8 548.6,655.8 550.5,655.8 552.3,655.8 554.2,655.8 556.0,655.8" /><polyline points="260.0,668.4 261.9,668.4 263.7,668.4 265.6,668.4 267.4,668.4 269.2,668.4 271.1,668.4 272.9,668.4 274.8,668.4 276.6,668.4 278.5,668.4 280.4,668.4 282.2,668.4 284.1,668.4 285.9,668.4 287.8,668.4 289.6,668.4 291.4,668.4 293.3,668.4 295.1,668.3 297.0,668.3 298.9,668.3 300.7,668.3 302.6,668.2 304.4,668.2 306.2,668.1 308.1,668.0 309.9,667.9 311.8,667.8 313.6,667.7 315.5,667.5 317.4,667.3 319.2,667.1 321.1,666.8 322.9,666.4 324.8,666.1 326.6,665.6 328.4,665.1 330.3,664.4 332.1,663.7 334.0,662.9 335.9,662.0 337.7,660.9 339.6,659.7 341.4,658.3 343.2,656.8 345.1,655.1 346.9,653.1 348.8,651.0 350.6,648.7 352.5,646.2 354.4,643.4 356.2,640.4 358.1,637.1 359.9,633.6 361.8,629.9 363.6,626.0 365.4,621.8 367.3,617.4 369.1,612.9 371.0,608.1 372.9,603.3 374.7,598.3 376.6,593.2 378.4,588.1 380.2,583.0 382.1,577.9 383.9,572.9 385.8,568.0 387.6,563.3 389.5,558.8 391.4,554.6 393.2,550.7 395.0,547.1 396.9,543.9 398.8,541.1 400.6,538.8 402.5,537.0 404.3,535.7 406.1,534.9 408.0,534.6 409.9,534.9 411.7,535.7 413.6,537.0 415.4,538.8 417.2,541.1 419.1,543.9 420.9,547.1 422.8,550.7 424.6,554.6 426.5,558.8 428.4,563.3 430.2,568.0 432.1,572.9 433.9,577.9 435.8,583.0 437.6,588.1 439.4,593.2 441.3,598.3 443.1,603.3 445.0,608.1 446.9,612.9 448.7,617.4 450.6,621.8 452.4,626.0 454.2,629.9 456.1,633.6 457.9,637.1 459.8,640.4 461.6,643.4 463.5,646.2 465.4,648.7 467.2,651.0 469.1,653.1 470.9,655.1 472.8,656.8 474.6,658.3 476.4,659.7 478.3,660.9 480.1,662.0 482.0,662.9 483.9,663.7 485.7,664.4 487.6,665.1 489.4,665.6 491.2,666.1 493.1,666.4 494.9,666.8 496.8,667.1 498.6,667.3 500.5,667.5 502.4,667.7 504.2,667.8 506.1,667.9 507.9,668.0 509.8,668.1 511.6,668.2 513.5,668.2 515.3,668.3 517.2,668.3 519.0,668.3 520.8,668.3 522.7,668.4 524.5,668.4 526.4,668.4 528.2,668.4 530.1,668.4 532.0,668.4 533.8,668.4 535.7,668.4 537.5,668.4 539.3,668.4 541.2,668.4 543.0,668.4 544.9,668.4 546.8,668.4 548.6,668.4 550.5,668.4 552.3,668.4 554.2,668.4 556.0,668.4" /><polyline points="260.0,681.1 261.9,681.1 263.7,681.1 265.6,681.1 267.4,681.1 269.2,681.1 271.1,681.1 272.9,681.1 274.8,681.1 276.6,681.1 278.5,681.1 280.4,681.1 282.2,681.1 284.1,681.0 285.9,681.0 287.8,681.0 289.6,681.0 291.4,681.0 293.3,681.0 295.1,681.0 297.0,681.0 298.9,680.9 300.7,680.9 302.6,680.8 304.4,680.8 306.2,680.7 308.1,680.6 309.9,680.5 311.8,680.4 313.6,680.2 315.5,680.1 317.4,679.8 319.2,679.6 321.1,679.3 322.9,678.9 324.8,678.5 326.6,678.0 328.4,677.4 330.3,676.7 332.1,676.0 334.0,675.1 335.9,674.0 337.7,672.9 339.6,671.6 341.4,670.1 343.2,668.4 345.1,666.5 346.9,664.5 348.8,662.2 350.6,659.6 352.5,656.9 354.4,653.9 356.2,650.6 358.1,647.1 359.9,643.3 361.8,639.2 363.6,634.9 365.4,630.4 367.3,625.6 369.1,620.7 371.0,615.5 372.9,610.2 374.7,604.8 376.6,599.3 378.4,593.8 380.2,588.2 382.1,582.7 383.9,577.2 385.8,571.9 387.6,566.8 389.5,561.9 391.4,557.3 393.2,553.1 395.0,549.2 396.9,545.7 398.8,542.7 400.6,540.2 402.5,538.2 404.3,536.8 406.1,535.9 408.0,535.6 409.9,535.9 411.7,536.8 413.6,538.2 415.4,540.2 417.2,542.7 419.1,545.7 420.9,549.2 422.8,553.1 424.6,557.3 426.5,561.9 428.4,566.8 430.2,571.9 432.1,577.2 433.9,582.7 435.8,588.2 437.6,593.8 439.4,599.3 441.3,604.8 443.1,610.2 445.0,615.5 446.9,620.7 448.7,625.6 450.6,630.4 452.4,634.9 454.2,639.2 456.1,643.3 457.9,647.1 459.8,650.6 461.6,653.9 463.5,656.9 465.4,659.6 467.2,662.2 469.1,664.5 470.9,666.5 472.8,668.4 474.6,670.1 476.4,671.6 478.3,672.9 480.1,674.0 482.0,675.1 483.9,676.0 485.7,676.7 487.6,677.4 489.4,678.0 491.2,678.5 493.1,678.9 494.9,679.3 496.8,679.6 498.6,679.8 500.5,680.1 502.4,680.2 504.2,680.4 506.1,680.5 507.9,680.6 509.8,680.7 511.6,680.8 513.5,680.8 515.3,680.9 517.2,680.9 519.0,681.0 520.8,681.0 522.7,681.0 524.5,681.0 526.4,681.0 528.2,681.0 530.1,681.0 532.0,681.0 533.8,681.1 535.7,681.1 537.5,681.1 539.3,681.1 541.2,681.1 543.0,681.1 544.9,681.1 546.8,681.1 548.6,681.1 550.5,681.1 552.3,681.1 554.2,681.1 556.0,681.1" /><polyline points="260.0,693.7 261.9,693.7 263.7,693.7 265.6,693.7 267.4,693.7 269.2,693.7 271.1,693.7 272.9,693.7 274.8,693.7 276.6,693.7 278.5,693.7 280.4,693.7 282.2,693.7 284.1,693.7 285.9,693.7 287.8,693.7 289.6,693.7 291.4,693.7 293.3,693.6 295.1,693.6 297.0,693.6 298.9,693.6 300.7,693.5 302.6,693.5 304.4,693.4 306.2,693.3 308.1,693.2 309.9,693.1 311.8,693.0 313.6,692.8 315.5,692.6 317.4,692.4 319.2,692.1 321.1,691.8 322.9,691.4 324.8,690.9 326.6,690.4 328.4,689.8 330.3,689.0 332.1,688.2 334.0,687.2 335.9,686.1 337.7,684.9 339.6,683.5 341.4,681.8 343.2,680.0 345.1,678.0 346.9,675.8 348.8,673.3 350.6,670.6 352.5,667.6 354.4,664.3 356.2,660.8 358.1,657.0 359.9,652.9 361.8,648.5 363.6,643.9 365.4,639.0 367.3,633.9 369.1,628.5 371.0,622.9 372.9,617.2 374.7,611.4 376.6,605.4 378.4,599.4 380.2,593.4 382.1,587.4 383.9,581.6 385.8,575.8 387.6,570.3 389.5,565.0 391.4,560.1 393.2,555.5 395.0,551.3 396.9,547.5 398.8,544.3 400.6,541.6 402.5,539.4 404.3,537.9 406.1,537.0 408.0,536.7 409.9,537.0 411.7,537.9 413.6,539.4 415.4,541.6 417.2,544.3 419.1,547.5 420.9,551.3 422.8,555.5 424.6,560.1 426.5,565.0 428.4,570.3 430.2,575.8 432.1,581.6 433.9,587.4 435.8,593.4 437.6,599.4 439.4,605.4 441.3,611.4 443.1,617.2 445.0,622.9 446.9,628.5 448.7,633.9 450.6,639.0 452.4,643.9 454.2,648.5 456.1,652.9 457.9,657.0 459.8,660.8 461.6,664.3 463.5,667.6 465.4,670.6 467.2,673.3 469.1,675.8 470.9,678.0 472.8,680.0 474.6,681.8 476.4,683.5 478.3,684.9 480.1,686.1 482.0,687.2 483.9,688.2 485.7,689.0 487.6,689.8 489.4,690.4 491.2,690.9 493.1,691.4 494.9,691.8 496.8,692.1 498.6,692.4 500.5,692.6 502.4,692.8 504.2,693.0 506.1,693.1 507.9,693.2 509.8,693.3 511.6,693.4 513.5,693.5 515.3,693.5 517.2,693.6 519.0,693.6 520.8,693.6 522.7,693.6 524.5,693.7 526.4,693.7 528.2,693.7 530.1,693.7 532.0,693.7 533.8,693.7 535.7,693.7 537.5,693.7 539.3,693.7 541.2,693.7 543.0,693.7 544.9,693.7 546.8,693.7 548.6,693.7 550.5,693.7 552.3,693.7 554.2,693.7 556.0,693.7" /><polyline points="260.0,706.4 261.9,706.4 263.7,706.4 265.6,706.4 267.4,706.4 269.2,706.4 271.1,706.4 272.9,706.4 274.8,706.3 276.6,706.3 278.5,706.3 280.4,706.3 282.2,706.3 284.1,706.3 285.9,706.3 287.8,706.3 289.6,706.3 291.4,706.3 293.3,706.3 295.1,706.3 297.0,706.2 298.9,706.2 300.7,706.1 302.6,706.1 304.4,706.0 306.2,705.9 308.1,705.8 309.9,705.7 311.8,705.6 313.6,705.4 315.5,705.2 317.4,704.9 319.2,704.6 321.1,704.3 322.9,703.9 324.8,703.4 326.6,702.8 328.4,702.1 330.3,701.3 332.1,700.4 334.0,699.4 335.9,698.2 337.7,696.9 339.6,695.3 341.4,693.6 343.2,691.7 345.1,689.5 346.9,687.1 348.8,684.4 350.6,681.5 352.5,678.3 354.4,674.8 356.2,671.0 358.1,666.9 359.9,662.5 361.8,657.8 363.6,652.8 365.4,647.6 367.3,642.1 369.1,636.3 371.0,630.3 372.9,624.2 374.7,617.9 376.6,611.5 378.4,605.1 380.2,598.6 382.1,592.2 383.9,585.9 385.8,579.8 387.6,573.8 389.5,568.1 391.4,562.8 393.2,557.9 395.0,553.4 396.9,549.3 398.8,545.9 400.6,543.0 402.5,540.7 404.3,539.0 406.1,538.0 408.0,537.7 409.9,538.0 411.7,539.0 413.6,540.7 415.4,543.0 417.2,545.9 419.1,549.3 420.9,553.4 422.8,557.9 424.6,562.8 426.5,568.1 428.4,573.8 430.2,579.8 432.1,585.9 433.9,592.2 435.8,598.6 437.6,605.1 439.4,611.5 441.3,617.9 443.1,624.2 445.0,630.3 446.9,636.3 448.7,642.1 450.6,647.6 452.4,652.8 454.2,657.8 456.1,662.5 457.9,666.9 459.8,671.0 461.6,674.8 463.5,678.3 465.4,681.5 467.2,684.4 469.1,687.1 470.9,689.5 472.8,691.7 474.6,693.6 476.4,695.3 478.3,696.9 480.1,698.2 482.0,699.4 483.9,700.4 485.7,701.3 487.6,702.1 489.4,702.8 491.2,703.4 493.1,703.9 494.9,704.3 496.8,704.6 498.6,704.9 500.5,705.2 502.4,705.4 504.2,705.6 506.1,705.7 507.9,705.8 509.8,705.9 511.6,706.0 513.5,706.1 515.3,706.1 517.2,706.2 519.0,706.2 520.8,706.3 522.7,706.3 524.5,706.3 526.4,706.3 528.2,706.3 530.1,706.3 532.0,706.3 533.8,706.3 535.7,706.3 537.5,706.3 539.3,706.3 541.2,706.3 543.0,706.4 544.9,706.4 546.8,706.4 548.6,706.4 550.5,706.4 552.3,706.4 554.2,706.4 556.0,706.4" /><polyline points="260.0,719.0 261.9,719.0 263.7,719.0 265.6,719.0 267.4,719.0 269.2,719.0 271.1,719.0 272.9,719.0 274.8,719.0 276.6,719.0 278.5,719.0 280.4,719.0 282.2,719.0 284.1,719.0 285.9,719.0 287.8,719.0 289.6,718.9 291.4,718.9 293.3,718.9 295.1,718.9 297.0,718.9 298.9,718.8 300.7,718.8 302.6,718.7 304.4,718.7 306.2,718.6 308.1,718.5 309.9,718.3 311.8,718.2 313.6,718.0 315.5,717.8 317.4,717.5 319.2,717.2 321.1,716.8 322.9,716.3 324.8,715.8 326.6,715.2 328.4,714.5 330.3,713.6 332.1,712.7 334.0,711.6 335.9,710.3 337.7,708.9 339.6,707.2 341.4,705.4 343.2,703.3 345.1,701.0 346.9,698.4 348.8,695.6 350.6,692.4 352.5,689.0 354.4,685.3 356.2,681.2 358.1,676.8 359.9,672.1 361.8,667.1 363.6,661.8 365.4,656.2 367.3,650.3 369.1,644.1 371.0,637.7 372.9,631.2 374.7,624.5 376.6,617.6 378.4,610.7 380.2,603.8 382.1,597.0 383.9,590.2 385.8,583.7 387.6,577.3 389.5,571.3 391.4,565.6 393.2,560.3 395.0,555.5 396.9,551.2 398.8,547.4 400.6,544.3 402.5,541.9 404.3,540.1 406.1,539.0 408.0,538.7 409.9,539.0 411.7,540.1 413.6,541.9 415.4,544.3 417.2,547.4 419.1,551.2 420.9,555.5 422.8,560.3 424.6,565.6 426.5,571.3 428.4,577.3 430.2,583.7 432.1,590.2 433.9,597.0 435.8,603.8 437.6,610.7 439.4,617.6 441.3,624.5 443.1,631.2 445.0,637.7 446.9,644.1 448.7,650.3 450.6,656.2 452.4,661.8 454.2,667.1 456.1,672.1 457.9,676.8 459.8,681.2 461.6,685.3 463.5,689.0 465.4,692.4 467.2,695.6 469.1,698.4 470.9,701.0 472.8,703.3 474.6,705.4 476.4,707.2 478.3,708.9 480.1,710.3 482.0,711.6 483.9,712.7 485.7,713.6 487.6,714.5 489.4,715.2 491.2,715.8 493.1,716.3 494.9,716.8 496.8,717.2 498.6,717.5 500.5,717.8 502.4,718.0 504.2,718.2 506.1,718.3 507.9,718.5 509.8,718.6 511.6,718.7 513.5,718.7 515.3,718.8 517.2,718.8 519.0,718.9 520.8,718.9 522.7,718.9 524.5,718.9 526.4,718.9 528.2,719.0 530.1,719.0 532.0,719.0 533.8,719.0 535.7,719.0 537.5,719.0 539.3,719.0 541.2,719.0 543.0,719.0 544.9,719.0 546.8,719.0 548.6,719.0 550.5,719.0 552.3,719.0 554.2,719.0 556.0,719.0" /></g><g id="03_Gold_Accent" inkscape:groupmode="layer" inkscape:label="03_Gold_Accent" stroke="#B8960C" fill="none" stroke-width="1.12" stroke-linecap="round" stroke-linejoin="round"><circle cx="400.9" cy="511.3" r="2.8" /><circle cx="405.3" cy="526.5" r="1.9" /><circle cx="408.7" cy="538.6" r="3.1" /><circle cx="404.5" cy="523.5" r="2.9" /><circle cx="409.4" cy="516.0" r="2.4" /><circle cx="403.0" cy="543.5" r="2.1" /><circle cx="415.0" cy="525.1" r="3.2" /><circle cx="409.8" cy="517.0" r="1.8" /><circle cx="412.7" cy="526.0" r="1.6" /><circle cx="410.8" cy="542.4" r="1.5" /><circle cx="409.6" cy="521.8" r="2.9" /><circle cx="401.4" cy="529.9" r="2.5" /><circle cx="405.8" cy="512.1" r="1.8" /><circle cx="405.8" cy="526.6" r="1.2" /><line x1="398.0" y1="449.6" x2="398.0" y2="596.4" /><line x1="418.0" y1="449.6" x2="418.0" y2="596.4" /></g></svg>