<?xml version='1.0' encoding='utf-8'?>
<svg xmlns="http://www.w3.org/2000/svg" xmlns:inkscape="http://www.inkscape.org/namespaces/inkscape" viewBox="204 228 408 600"><style>*{vector-effect:non-scaling-stroke}</style><g id="01_Black_Frame" inkscape:groupmode="layer" inkscape:label="01_Black_Frame" stroke="#1A1A1A" fill="none" stroke-width="0.875" stroke-linecap="round" stroke-linejoin="round"><path d="M 250.0,264.0 L 566.0,264.0 Q 576.0,264.0 576.0,274.0 L 576.0,782.0 Q 576.0,792.0 566.0,792.0 L 250.0,792.0 Q 240.0,792.0 240.0,782.0 L 240.0,274.0 Q 240.0,264.0 250.0,264.0" /><path d="M 253.0,270.0 L 563.0,270.0 Q 570.0,270.0 570.0,277.0 L 570.0,779.0 Q 570.0,786.0 563.0,786.0 L 253.0,786.0 Q 246.0,786.0 246.0,779.0 L 246.0,277.0 Q 246.0,270.0 253.0,270.0" /><line x1="259.0" y1="280.0" x2="263.0" y2="280.0" /><line x1="258.1" y1="282.1" x2="260.9" y2="284.9" /><line x1="256.0" y1="283.0" x2="256.0" y2="287.0" /><line x1="253.9" y1="282.1" x2="251.1" y2="284.9" /><line x1="253.0" y1="280.0" x2="249.0" y2="280.0" /><line x1="253.9" y1="277.9" x2="251.1" y2="275.1" /><line x1="256.0" y1="277.0" x2="256.0" y2="273.0" /><line x1="258.1" y1="277.9" x2="260.9" y2="275.1" /><line x1="563.0" y1="280.0" x2="567.0" y2="280.0" /><line x1="562.1" y1="282.1" x2="564.9" y2="284.9" /><line x1="560.0" y1="283.0" x2="560.0" y2="287.0" /><line x1="557.9" y1="282.1" x2="555.1" y2="284.9" /><line x1="557.0" y1="280.0" x2="553.0" y2="280.0" /><line x1="557.9" y1="277.9" x2="555.1" y2="275.1" /><line x1="560.0" y1="277.0" x2="560.0" y2="273.0" /><line x1="562.1" y1="277.9" x2="564.9" y2="275.1" /><line x1="259.0" y1="776.0" x2="263.0" y2="776.0" /><line x1="258.1" y1="778.1" x2="260.9" y2="780.9" /><line x1="256.0" y1="779.0" x2="256.0" y2="783.0" /><line x1="253.9" y1="778.1" x2="251.1" y2="780.9" /><line x1="253.0" y1="776.0" x2="249.0" y2="776.0" /><line x1="253.9" y1="773.9" x2="251.1" y2="771.1" /><line x1="256.0" y1="773.0" x2="256.0" y2="769.0" /><line x1="258.1" y1="773.9" x2="260.9" y2="771.1" /><line x1="563.0" y1="776.0" x2="567.0" y2="776.0" /><line x1="562.1" y1="778.1" x2="564.9" y2="780.9" /><line x1="560.0" y1="779.0" x2="560.0" y2="783.0" /><line x1="557.9" y1="778.1" x2="555.1" y2="780.9" /><line x1="557.0" y1="776.0" x2="553.0" y2="776.0" /><line x1="557.9" y1="773.9" x2="555.1" y2="771.1" /><line x1="560.0" y1="773.0" x2="560.0" y2="769.0" /><line x1="562.1" y1="773.9" x2="564.9" y2="771.1" /><polyline points="401.00,283.20 399.25,282.00 398.25,282.00 396.50,283.60 396.50,288.40 398.25,290.00 399.25,290.00 401.00,288.80" /><polyline points="402.25,282.00 402.25,290.00 406.50,290.00" /><polyline points="408.00,282.00 413.00,290.00" /><polyline points="413.00,282.00 408.00,290.00" /><polyline points="413.75,282.00 418.75,290.00" /><polyline points="418.75,282.00 413.75,290.00" /><polyline points="366.89,297.00 373.39,297.00" /><polyline points="370.14,297.00 370.14,307.00" /><polyline points="374.36,297.00 374.36,307.00" /><polyline points="380.86,297.00 380.86,307.00" /><polyline points="374.36,301.80 380.86,301.80" /><polyline points="387.36,297.00 381.84,297.00 381.84,301.80 385.74,301.80" /><polyline points="381.84,301.80 381.84,307.00 387.36,307.00" /><polyline points="396.79,307.00 400.04,297.00 403.29,307.00" /><polyline points="397.96,303.50 402.12,303.50" /><polyline points="404.26,307.00 404.26,297.00 408.49,297.00 410.11,298.50 410.11,300.20 408.49,301.50 404.26,301.50 410.11,307.00" /><polyline points="411.74,307.00 411.74,297.00 415.96,297.00 417.59,298.50 417.59,300.20 415.96,301.50 411.74,301.50 417.59,307.00" /><polyline points="422.46,297.00 422.46,307.00" /><polyline points="426.69,297.00 429.94,307.00 433.19,297.00" /><polyline points="434.16,307.00 437.41,297.00 440.66,307.00" /><polyline points="435.33,303.50 439.49,303.50" /><polyline points="441.64,297.00 441.64,307.00 447.16,307.00" /><line x1="270.0" y1="312.0" x2="546.0" y2="312.0" /><line x1="270.0" y1="732.0" x2="546.0" y2="732.0" /><polyline points="370.76,740.75 369.64,741.20 369.36,742.10 369.36,743.90 369.64,744.80 370.76,745.25 371.88,744.80 372.16,743.90 372.16,742.10 371.88,741.20 370.76,740.75" /><polyline points="372.58,745.25 372.58,740.75 374.40,740.75 374.96,741.29 374.96,742.01 374.40,742.55 372.58,742.55 374.40,742.55 374.96,743.09 374.96,744.71 374.40,745.25 372.58,745.25" /><polyline points="375.80,745.25 377.20,740.75 378.60,745.25" /><polyline points="376.30,743.67 378.10,743.67" /><polyline points="379.02,745.25 379.02,740.75 380.42,743.23 381.82,740.75 381.82,745.25" /><polyline points="382.24,745.25 383.64,740.75 385.04,745.25" /><polyline points="382.74,743.67 384.54,743.67" /><polyline points="391.90,745.25 391.90,740.75 393.30,743.23 394.70,740.75 394.70,745.25" /><polyline points="397.50,740.75 395.12,740.75 395.12,742.91 396.80,742.91" /><polyline points="395.12,742.91 395.12,745.25 397.50,745.25" /><polyline points="398.34,740.75 398.34,745.25 400.72,745.25" /><polyline points="402.96,740.75 401.84,741.20 401.56,742.10 401.56,743.90 401.84,744.80 402.96,745.25 404.08,744.80 404.36,743.90 404.36,742.10 404.08,741.20 402.96,740.75" /><polyline points="404.78,745.25 404.78,740.75 407.58,745.25 407.58,740.75" /><polyline points="409.40,740.75 409.40,745.25" /><polyline points="419.06,740.75 419.06,745.25" /><polyline points="420.88,745.25 420.88,740.75 422.70,740.75 423.40,741.42 423.40,742.19 422.70,742.77 420.88,742.77 423.40,745.25" /><polyline points="424.10,745.25 425.50,740.75 426.90,745.25" /><polyline points="424.60,743.67 426.40,743.67" /><polyline points="427.32,745.25 427.32,740.75 430.12,745.25 430.12,740.75" /><polyline points="438.38,740.75 438.38,745.25" /><polyline points="442.72,741.42 441.74,740.75 441.18,740.75 440.20,741.65 440.20,744.35 441.18,745.25 441.74,745.25 442.72,744.58" /><polyline points="445.80,740.75 443.42,740.75 443.42,742.91 445.10,742.91" /><polyline points="443.42,742.91 443.42,745.25 445.80,745.25" /><polyline points="318.88,753.25 323.88,753.25" /><polyline points="321.38,753.25 321.38,760.75" /><polyline points="324.62,753.25 324.62,760.75" /><polyline points="329.62,753.25 329.62,760.75" /><polyline points="324.62,756.85 329.62,756.85" /><polyline points="334.62,753.25 330.38,753.25 330.38,756.85 333.38,756.85" /><polyline points="330.38,756.85 330.38,760.75 334.62,760.75" /><polyline points="341.88,760.75 341.88,753.25 344.38,757.38 346.88,753.25 346.88,760.75" /><polyline points="351.88,753.25 347.62,753.25 347.62,756.85 350.62,756.85" /><polyline points="347.62,756.85 347.62,760.75 351.88,760.75" /><polyline points="357.62,754.00 356.38,753.25 354.88,753.25 353.62,754.38 353.38,755.50 354.12,756.40 355.88,757.00 357.62,757.60 358.38,758.50 358.12,759.62 356.88,760.75 355.12,760.75 353.88,760.00" /><polyline points="363.38,754.00 362.12,753.25 360.62,753.25 359.38,754.38 359.12,755.50 359.88,756.40 361.62,757.00 363.38,757.60 364.12,758.50 363.88,759.62 362.62,760.75 360.88,760.75 359.62,760.00" /><polyline points="364.88,760.75 367.38,753.25 369.88,760.75" /><polyline points="365.77,758.12 368.98,758.12" /><polyline points="375.12,754.38 373.38,753.25 372.38,753.25 370.62,754.75 370.62,759.25 372.38,760.75 373.38,760.75 375.12,759.62 375.12,757.00 373.12,757.00" /><polyline points="380.62,753.25 376.38,753.25 376.38,756.85 379.38,756.85" /><polyline points="376.38,756.85 376.38,760.75 380.62,760.75" /><polyline points="392.38,754.38 390.62,753.25 389.62,753.25 387.88,754.75 387.88,759.25 389.62,760.75 390.62,760.75 392.38,759.62" /><polyline points="393.62,760.75 396.12,753.25 398.62,760.75" /><polyline points="394.52,758.12 397.73,758.12" /><polyline points="399.38,760.75 399.38,753.25 401.88,757.38 404.38,753.25 404.38,760.75" /><polyline points="409.38,753.25 405.12,753.25 405.12,756.85 408.12,756.85" /><polyline points="405.12,756.85 405.12,760.75 409.38,760.75" /><polyline points="416.62,753.25 421.62,753.25" /><polyline points="419.12,753.25 419.12,760.75" /><polyline points="422.38,753.25 423.62,760.75 424.88,755.88 426.12,760.75 427.38,753.25" /><polyline points="430.62,753.25 428.62,754.00 428.12,755.50 428.12,758.50 428.62,760.00 430.62,760.75 432.62,760.00 433.12,758.50 433.12,755.50 432.62,754.00 430.62,753.25" /><polyline points="439.62,753.25 442.12,757.00 444.62,753.25" /><polyline points="442.12,757.00 442.12,760.75" /><polyline points="449.62,753.25 445.38,753.25 445.38,756.85 448.38,756.85" /><polyline points="445.38,756.85 445.38,760.75 449.62,760.75" /><polyline points="451.12,760.75 453.62,753.25 456.12,760.75" /><polyline points="452.02,758.12 455.23,758.12" /><polyline points="456.88,760.75 456.88,753.25 460.12,753.25 461.38,754.38 461.38,755.65 460.12,756.62 456.88,756.62 461.38,760.75" /><polyline points="466.88,754.00 465.62,753.25 464.12,753.25 462.88,754.38 462.62,755.50 463.38,756.40 465.12,757.00 466.88,757.60 467.62,758.50 467.38,759.62 466.12,760.75 464.38,760.75 463.12,760.00" /><polyline points="474.12,753.25 474.12,760.75 478.38,760.75" /><polyline points="479.88,760.75 482.38,753.25 484.88,760.75" /><polyline points="480.77,758.12 483.98,758.12" /><polyline points="485.62,753.25 490.62,753.25" /><polyline points="488.12,753.25 488.12,760.75" /><polyline points="495.62,753.25 491.38,753.25 491.38,756.85 494.38,756.85" /><polyline points="491.38,756.85 491.38,760.75 495.62,760.75" /><polyline points="333.25,773.75 333.25,766.25 336.50,766.25 337.50,767.15 337.50,768.35 336.50,769.25 333.25,769.25 336.50,769.25 337.50,770.15 337.50,772.85 336.50,773.75 333.25,773.75" /><polyline points="339.00,766.25 339.00,771.88 340.00,773.38 343.00,773.38 344.00,771.88 344.00,766.25" /><polyline points="344.75,766.25 349.75,766.25" /><polyline points="347.25,766.25 347.25,773.75" /><polyline points="356.25,766.25 361.25,766.25" /><polyline points="358.75,766.25 358.75,773.75" /><polyline points="362.00,766.25 362.00,773.75" /><polyline points="367.00,766.25 367.00,773.75" /><polyline points="362.00,769.85 367.00,769.85" /><polyline points="372.00,766.25 367.75,766.25 367.75,769.85 370.75,769.85" /><polyline points="367.75,769.85 367.75,773.75 372.00,773.75" /><polyline points="379.25,773.75 379.25,766.25 382.00,766.25 383.75,768.12 383.75,771.88 382.00,773.75 379.25,773.75" /><polyline points="385.00,773.75 387.50,766.25 390.00,773.75" /><polyline points="385.90,771.12 389.10,771.12" /><polyline points="390.75,766.25 393.25,770.00 395.75,766.25" /><polyline points="393.25,770.00 393.25,773.75" /><polyline points="402.25,773.75 404.75,766.25 407.25,773.75" /><polyline points="403.15,771.12 406.35,771.12" /><polyline points="408.00,773.75 408.00,766.25 411.25,766.25 412.50,767.38 412.50,768.65 411.25,769.62 408.00,769.62 412.50,773.75" /><polyline points="413.75,773.75 413.75,766.25 417.00,766.25 418.25,767.38 418.25,768.65 417.00,769.62 413.75,769.62 418.25,773.75" /><polyline points="422.00,766.25 422.00,773.75" /><polyline points="425.25,766.25 427.75,773.75 430.25,766.25" /><polyline points="435.25,766.25 431.00,766.25 431.00,769.85 434.00,769.85" /><polyline points="431.00,769.85 431.00,773.75 435.25,773.75" /><polyline points="436.75,773.75 436.75,766.25 439.50,766.25 441.25,768.12 441.25,771.88 439.50,773.75 436.75,773.75" /><polyline points="448.25,773.75 450.75,766.25 453.25,773.75" /><polyline points="449.15,771.12 452.35,771.12" /><polyline points="454.00,773.75 454.00,766.25 459.00,773.75 459.00,766.25" /><polyline points="459.75,766.25 462.25,770.00 464.75,766.25" /><polyline points="462.25,770.00 462.25,773.75" /><polyline points="465.50,766.25 466.75,773.75 468.00,768.88 469.25,773.75 470.50,766.25" /><polyline points="471.25,773.75 473.75,766.25 476.25,773.75" /><polyline points="472.15,771.12 475.35,771.12" /><polyline points="477.00,766.25 479.50,770.00 482.00,766.25" /><polyline points="479.50,770.00 479.50,773.75" /><polyline points="384.08,779.50 385.68,784.50 387.28,779.50" /><polyline points="389.36,779.50 389.36,784.50" /><polyline points="393.04,784.00 393.04,784.25" /><polyline points="395.12,779.50 398.32,784.50" /><polyline points="398.32,779.50 395.12,784.50" /><polyline points="400.40,779.50 400.40,784.50" /><polyline points="402.48,779.50 405.68,784.50" /><polyline points="405.68,779.50 402.48,784.50" /><polyline points="407.76,784.00 407.76,784.25" /><polyline points="409.84,784.50 409.84,779.50 411.44,782.25 413.04,779.50 413.04,784.50" /><polyline points="413.52,784.50 413.52,779.50 415.12,782.25 416.72,779.50 416.72,784.50" /><polyline points="417.20,779.50 420.40,784.50" /><polyline points="420.40,779.50 417.20,784.50" /><polyline points="420.88,779.50 424.08,784.50" /><polyline points="424.08,779.50 420.88,784.50" /><polyline points="424.56,779.50 426.16,784.50 427.76,779.50" /><polyline points="429.84,779.50 429.84,784.50" /></g><g id="02_Teal_Rays" inkscape:groupmode="layer" inkscape:label="02_Teal_Rays" stroke="#3A7A7A" fill="none" stroke-width="0.75" stroke-linecap="round" stroke-linejoin="round"><line x1="389.28" y1="612.76" x2="459.17" y2="612.76" stroke-width="0.375" stroke-opacity="0.25" /><line x1="389.28" y1="612.76" x2="462.87" y2="610.16" stroke-width="0.4" stroke-opacity="0.27" /><line x1="389.28" y1="612.76" x2="466.56" y2="607.29" stroke-width="0.425" stroke-opacity="0.29" /><line x1="389.28" y1="612.76" x2="470.25" y2="604.15" stroke-width="0.45" stroke-opacity="0.3" /><line x1="389.28" y1="612.76" x2="473.92" y2="600.73" stroke-width="0.475" stroke-opacity="0.32" /><line x1="389.28" y1="612.76" x2="477.57" y2="597.01" stroke-width="0.475" stroke-opacity="0.34" /><line x1="389.28" y1="612.76" x2="481.21" y2="592.99" stroke-width="0.5" stroke-opacity="0.36" /><line x1="389.28" y1="612.76" x2="484.81" y2="588.66" stroke-width="0.525" stroke-opacity="0.37" /><line x1="389.28" y1="612.76" x2="488.38" y2="584.01" stroke-width="0.55" stroke-opacity="0.39" /><line x1="389.28" y1="612.76" x2="491.91" y2="579.01" stroke-width="0.575" stroke-opacity="0.41" /><line x1="389.28" y1="612.76" x2="495.41" y2="573.66" stroke-width="0.6" stroke-opacity="0.42" /><line x1="389.28" y1="612.76" x2="498.86" y2="567.94" stroke-width="0.6" stroke-opacity="0.44" /><line x1="389.28" y1="612.76" x2="502.26" y2="561.82" stroke-width="0.625" stroke-opacity="0.46" /><line x1="389.28" y1="612.76" x2="505.60" y2="555.29" stroke-width="0.65" stroke-opacity="0.47" /><line x1="389.28" y1="612.76" x2="508.89" y2="548.32" stroke-width="0.675" stroke-opacity="0.49" /><line x1="389.28" y1="612.76" x2="512.12" y2="540.87" stroke-width="0.7" stroke-opacity="0.5" /><line x1="389.28" y1="612.76" x2="515.28" y2="532.92" stroke-width="0.7" stroke-opacity="0.52" /><line x1="389.28" y1="612.76" x2="518.37" y2="524.43" stroke-width="0.725" stroke-opacity="0.53" /><line x1="389.28" y1="612.76" x2="521.38" y2="515.35" stroke-width="0.75" stroke-opacity="0.55" /><line x1="389.28" y1="612.76" x2="524.32" y2="505.62" stroke-width="0.775" stroke-opacity="0.56" /><line x1="389.28" y1="612.76" x2="527.18" y2="495.19" stroke-width="0.775" stroke-opacity="0.57" /><line x1="389.28" y1="612.76" x2="529.95" y2="483.98" stroke-width="0.8" stroke-opacity="0.59" /><line x1="389.28" y1="612.76" x2="532.64" y2="471.91" stroke-width="0.825" stroke-opacity="0.6" /><line x1="389.28" y1="612.76" x2="535.23" y2="458.87" stroke-width="0.825" stroke-opacity="0.61" /><line x1="389.28" y1="612.76" x2="537.73" y2="444.74" stroke-width="0.85" stroke-opacity="0.62" /><line x1="389.28" y1="612.76" x2="540.13" y2="429.36" stroke-width="0.85" stroke-opacity="0.64" /><line x1="389.28" y1="612.76" x2="542.43" y2="412.56" stroke-width="0.875" stroke-opacity="0.65" /><line x1="389.28" y1="612.76" x2="544.63" y2="394.11" stroke-width="0.875" stroke-opacity="0.66" /><line x1="389.28" y1="612.76" x2="546.72" y2="373.73" stroke-width="0.9" stroke-opacity="0.67" /><line x1="389.28" y1="612.76" x2="548.70" y2="351.06" stroke-width="0.9" stroke-opacity="0.68" /><line x1="389.28" y1="612.76" x2="541.62" y2="341.59" stroke-width="0.925" stroke-opacity="0.69" /><line x1="389.28" y1="612.76" x2="530.79" y2="338.64" stroke-width="0.925" stroke-opacity="0.69" /><line x1="389.28" y1="612.76" x2="520.05" y2="335.88" stroke-width="0.95" stroke-opacity="0.7" /><line x1="389.28" y1="612.76" x2="509.38" y2="333.32" stroke-width="0.95" stroke-opacity="0.71" /><line x1="389.28" y1="612.76" x2="498.78" y2="330.97" stroke-width="0.95" stroke-opacity="0.72" /><line x1="389.28" y1="612.76" x2="488.23" y2="328.82" stroke-width="0.975" stroke-opacity="0.72" /><line x1="389.28" y1="612.76" x2="477.73" y2="326.87" stroke-width="0.975" stroke-opacity="0.73" /><line x1="389.28" y1="612.76" x2="467.25" y2="325.14" stroke-width="0.975" stroke-opacity="0.73" /><line x1="389.28" y1="612.76" x2="456.81" y2="323.62" stroke-width="0.975" stroke-opacity="0.74" /><line x1="389.28" y1="612.76" x2="446.39" y2="322.31" stroke-width="1" stroke-opacity="0.74" /><line x1="389.28" y1="612.76" x2="435.98" y2="321.22" stroke-width="1" stroke-opacity="0.74" /><line x1="389.28" y1="612.76" x2="425.59" y2="320.34" stroke-width="1" stroke-opacity="0.75" /><line x1="389.28" y1="612.76" x2="415.21" y2="319.69" stroke-width="1" stroke-opacity="0.75" /><line x1="389.28" y1="612.76" x2="404.84" y2="319.25" stroke-width="1" stroke-opacity="0.75" /><line x1="389.28" y1="612.76" x2="394.46" y2="319.03" stroke-width="1" stroke-opacity="0.75" /><line x1="389.28" y1="612.76" x2="384.10" y2="319.03" stroke-width="1" stroke-opacity="0.75" /><line x1="389.28" y1="612.76" x2="373.72" y2="319.25" stroke-width="1" stroke-opacity="0.75" /><line x1="389.28" y1="612.76" x2="363.35" y2="319.69" stroke-width="1" stroke-opacity="0.75" /><line x1="389.28" y1="612.76" x2="352.97" y2="320.34" stroke-width="1" stroke-opacity="0.75" /><line x1="389.28" y1="612.76" x2="342.58" y2="321.22" stroke-width="1" stroke-opacity="0.74" /><line x1="389.28" y1="612.76" x2="332.17" y2="322.31" stroke-width="1" stroke-opacity="0.74" /><line x1="389.28" y1="612.76" x2="321.75" y2="323.62" stroke-width="0.975" stroke-opacity="0.74" /><line x1="389.28" y1="612.76" x2="311.31" y2="325.14" stroke-width="0.975" stroke-opacity="0.73" /><line x1="389.28" y1="612.76" x2="300.83" y2="326.87" stroke-width="0.975" stroke-opacity="0.73" /><line x1="389.28" y1="612.76" x2="290.33" y2="328.82" stroke-width="0.975" stroke-opacity="0.72" /><line x1="389.28" y1="612.76" x2="279.78" y2="330.97" stroke-width="0.95" stroke-opacity="0.72" /><line x1="389.28" y1="612.76" x2="269.18" y2="333.32" stroke-width="0.95" stroke-opacity="0.71" /><line x1="389.28" y1="612.76" x2="259.89" y2="338.79" stroke-width="0.95" stroke-opacity="0.7" /><line x1="389.28" y1="612.76" x2="261.18" y2="364.60" stroke-width="0.925" stroke-opacity="0.69" /><line x1="389.28" y1="612.76" x2="262.56" y2="387.18" stroke-width="0.925" stroke-opacity="0.69" /><line x1="389.28" y1="612.76" x2="264.02" y2="407.14" stroke-width="0.9" stroke-opacity="0.68" /><line x1="389.28" y1="612.76" x2="265.58" y2="424.95" stroke-width="0.9" stroke-opacity="0.67" /><line x1="389.28" y1="612.76" x2="267.22" y2="440.96" stroke-width="0.875" stroke-opacity="0.66" /><line x1="389.28" y1="612.76" x2="268.95" y2="455.46" stroke-width="0.875" stroke-opacity="0.65" /><line x1="389.28" y1="612.76" x2="270.75" y2="468.66" stroke-width="0.85" stroke-opacity="0.64" /><line x1="389.28" y1="612.76" x2="272.64" y2="480.74" stroke-width="0.85" stroke-opacity="0.62" /><line x1="389.28" y1="612.76" x2="274.60" y2="491.85" stroke-width="0.825" stroke-opacity="0.61" /><line x1="389.28" y1="612.76" x2="276.64" y2="502.09" stroke-width="0.825" stroke-opacity="0.6" /><line x1="389.28" y1="612.76" x2="278.75" y2="511.58" stroke-width="0.8" stroke-opacity="0.59" /><line x1="389.28" y1="612.76" x2="280.93" y2="520.39" stroke-width="0.775" stroke-opacity="0.57" /><line x1="389.28" y1="612.76" x2="283.17" y2="528.58" stroke-width="0.775" stroke-opacity="0.56" /><line x1="389.28" y1="612.76" x2="285.48" y2="536.22" stroke-width="0.75" stroke-opacity="0.55" /><line x1="389.28" y1="612.76" x2="287.85" y2="543.36" stroke-width="0.725" stroke-opacity="0.53" /><line x1="389.28" y1="612.76" x2="290.28" y2="550.03" stroke-width="0.7" stroke-opacity="0.52" /><line x1="389.28" y1="612.76" x2="292.77" y2="556.28" stroke-width="0.7" stroke-opacity="0.5" /><line x1="389.28" y1="612.76" x2="295.30" y2="562.13" stroke-width="0.675" stroke-opacity="0.49" /><line x1="389.28" y1="612.76" x2="297.88" y2="567.60" stroke-width="0.65" stroke-opacity="0.47" /><line x1="389.28" y1="612.76" x2="300.51" y2="572.74" stroke-width="0.625" stroke-opacity="0.46" /><line x1="389.28" y1="612.76" x2="303.18" y2="577.54" stroke-width="0.6" stroke-opacity="0.44" /><line x1="389.28" y1="612.76" x2="305.89" y2="582.04" stroke-width="0.6" stroke-opacity="0.42" /><line x1="389.28" y1="612.76" x2="308.64" y2="586.24" stroke-width="0.575" stroke-opacity="0.41" /><line x1="389.28" y1="612.76" x2="311.42" y2="590.17" stroke-width="0.55" stroke-opacity="0.39" /><line x1="389.28" y1="612.76" x2="314.22" y2="593.83" stroke-width="0.525" stroke-opacity="0.37" /><line x1="389.28" y1="612.76" x2="317.05" y2="597.23" stroke-width="0.5" stroke-opacity="0.36" /><line x1="389.28" y1="612.76" x2="319.91" y2="600.39" stroke-width="0.475" stroke-opacity="0.34" /><line x1="389.28" y1="612.76" x2="322.78" y2="603.31" stroke-width="0.475" stroke-opacity="0.32" /><line x1="389.28" y1="612.76" x2="325.66" y2="606.00" stroke-width="0.45" stroke-opacity="0.3" /><line x1="389.28" y1="612.76" x2="328.56" y2="608.47" stroke-width="0.425" stroke-opacity="0.29" /><line x1="389.28" y1="612.76" x2="331.46" y2="610.72" stroke-width="0.4" stroke-opacity="0.27" /><line x1="389.28" y1="612.76" x2="334.37" y2="612.76" stroke-width="0.375" stroke-opacity="0.25" /><path d="M 304.2,612.8 A 85.1,85.1 0 0 1 474.4,612.8" fill="none" stroke-width="0.325" stroke-opacity="0.24" /><path d="M 268.0,612.8 A 121.2,121.2 0 0 1 510.5,612.8" fill="none" stroke-width="0.35" stroke-opacity="0.27" /><path d="M 254.0,612.8 A 157.4,157.4 0 0 1 546.7,612.8" fill="none" stroke-width="0.375" stroke-opacity="0.31" /><path d="M 254.0,612.8 A 193.5,193.5 0 0 1 562.0,612.8" fill="none" stroke-width="0.425" stroke-opacity="0.34" /><path d="M 254.0,612.8 A 229.6,229.6 0 0 1 562.0,612.8" fill="none" stroke-width="0.45" stroke-opacity="0.38" /><path d="M 254.0,612.8 A 265.8,265.8 0 0 1 562.0,612.8" fill="none" stroke-width="0.475" stroke-opacity="0.41" /><line x1="315.65" y1="634.41" x2="462.91" y2="634.41" stroke-width="0.3" stroke-opacity="0.236" /><line x1="307.54" y1="656.06" x2="489.74" y2="656.06" stroke-width="0.3" stroke-opacity="0.252" /><line x1="280.70" y1="677.70" x2="497.86" y2="677.70" stroke-width="0.3" stroke-opacity="0.268" /><line x1="272.59" y1="699.35" x2="524.69" y2="699.35" stroke-width="0.3" stroke-opacity="0.28400000000000003" /></g><g id="03_Gold_Source" inkscape:groupmode="layer" inkscape:label="03_Gold_Source" stroke="#B8960C" fill="none" stroke-width="1.12" stroke-linecap="round" stroke-linejoin="round"><circle cx="389.28" cy="612.76" r="2.80" fill="none" stroke-width="1.05" /><circle cx="389.28" cy="612.76" r="6.20" fill="none" stroke-width="0.875" /><line x1="395.29" y1="618.77" x2="398.83" y2="622.31" stroke-width="0.95" /><line x1="383.27" y1="618.77" x2="379.73" y2="622.31" stroke-width="0.95" /><line x1="383.27" y1="606.75" x2="379.73" y2="603.21" stroke-width="0.95" /><line x1="395.29" y1="606.75" x2="398.83" y2="603.21" stroke-width="0.95" /><line x1="389.28" y1="605.76" x2="389.28" y2="335.32" stroke-width="1" stroke-opacity="0.7" /></g></svg>