<?xml version='1.0' encoding='utf-8'?>
<svg xmlns="http://www.w3.org/2000/svg" xmlns:inkscape="http://www.inkscape.org/namespaces/inkscape" viewBox="204 228 408 600"><style>*{vector-effect:non-scaling-stroke}</style><g id="01_Black_Frame" inkscape:groupmode="layer" inkscape:label="01_Black_Frame" stroke="#1A1A1A" fill="none" stroke-width="0.875" stroke-linecap="round" stroke-linejoin="round"><path d="M 250.0,264.0 L 566.0,264.0 Q 576.0,264.0 576.0,274.0 L 576.0,782.0 Q 576.0,792.0 566.0,792.0 L 250.0,792.0 Q 240.0,792.0 240.0,782.0 L 240.0,274.0 Q 240.0,264.0 250.0,264.0" /><path d="M 253.0,270.0 L 563.0,270.0 Q 570.0,270.0 570.0,277.0 L 570.0,779.0 Q 570.0,786.0 563.0,786.0 L 253.0,786.0 Q 246.0,786.0 246.0,779.0 L 246.0,277.0 Q 246.0,270.0 253.0,270.0" /><line x1="259.0" y1="280.0" x2="263.0" y2="280.0" /><line x1="258.1" y1="282.1" x2="260.9" y2="284.9" /><line x1="256.0" y1="283.0" x2="256.0" y2="287.0" /><line x1="253.9" y1="282.1" x2="251.1" y2="284.9" /><line x1="253.0" y1="280.0" x2="249.0" y2="280.0" /><line x1="253.9" y1="277.9" x2="251.1" y2="275.1" /><line x1="256.0" y1="277.0" x2="256.0" y2="273.0" /><line x1="258.1" y1="277.9" x2="260.9" y2="275.1" /><line x1="563.0" y1="280.0" x2="567.0" y2="280.0" /><line x1="562.1" y1="282.1" x2="564.9" y2="284.9" /><line x1="560.0" y1="283.0" x2="560.0" y2="287.0" /><line x1="557.9" y1="282.1" x2="555.1" y2="284.9" /><line x1="557.0" y1="280.0" x2="553.0" y2="280.0" /><line x1="557.9" y1="277.9" x2="555.1" y2="275.1" /><line x1="560.0" y1="277.0" x2="560.0" y2="273.0" /><line x1="562.1" y1="277.9" x2="564.9" y2="275.1" /><line x1="259.0" y1="776.0" x2="263.0" y2="776.0" /><line x1="258.1" y1="778.1" x2="260.9" y2="780.9" /><line x1="256.0" y1="779.0" x2="256.0" y2="783.0" /><line x1="253.9" y1="778.1" x2="251.1" y2="780.9" /><line x1="253.0" y1="776.0" x2="249.0" y2="776.0" /><line x1="253.9" y1="773.9" x2="251.1" y2="771.1" /><line x1="256.0" y1="773.0" x2="256.0" y2="769.0" /><line x1="258.1" y1="773.9" x2="260.9" y2="771.1" /><line x1="563.0" y1="776.0" x2="567.0" y2="776.0" /><line x1="562.1" y1="778.1" x2="564.9" y2="780.9" /><line x1="560.0" y1="779.0" x2="560.0" y2="783.0" /><line x1="557.9" y1="778.1" x2="555.1" y2="780.9" /><line x1="557.0" y1="776.0" x2="553.0" y2="776.0" /><line x1="557.9" y1="773.9" x2="555.1" y2="771.1" /><line x1="560.0" y1="773.0" x2="560.0" y2="769.0" /><line x1="562.1" y1="773.9" x2="564.9" y2="771.1" /><polyline points="396.50,282.00 401.50,290.00" /><polyline points="401.50,282.00 396.50,290.00" /><polyline points="406.75,283.20 405.00,282.00 404.00,282.00 402.25,283.60 402.25,288.40 404.00,290.00 405.00,290.00 406.75,288.80" /><polyline points="410.50,282.00 410.50,290.00" /><polyline points="413.75,282.00 418.75,290.00" /><polyline points="418.75,282.00 413.75,290.00" /><polyline points="374.36,297.00 380.86,297.00" /><polyline points="377.61,297.00 377.61,307.00" /><polyline points="381.84,297.00 381.84,307.00" /><polyline points="388.34,297.00 388.34,307.00" /><polyline points="381.84,301.80 388.34,301.80" /><polyline points="394.84,297.00 389.31,297.00 389.31,301.80 393.21,301.80" /><polyline points="389.31,301.80 389.31,307.00 394.84,307.00" /><polyline points="404.26,297.00 410.76,297.00" /><polyline points="407.51,297.00 407.51,307.00" /><polyline points="417.26,297.00 411.74,297.00 411.74,301.80 415.64,301.80" /><polyline points="411.74,301.80 411.74,307.00 417.26,307.00" /><polyline points="419.21,307.00 419.21,297.00 423.44,297.00 425.06,298.50 425.06,300.20 423.44,301.50 419.21,301.50 425.06,307.00" /><polyline points="426.69,307.00 426.69,297.00 429.94,302.50 433.19,297.00 433.19,307.00" /><polyline points="439.69,298.00 438.06,297.00 436.11,297.00 434.49,298.50 434.16,300.00 435.14,301.20 437.41,302.00 439.69,302.80 440.66,304.00 440.34,305.50 438.71,307.00 436.44,307.00 434.81,306.00" /><line x1="270.0" y1="312.0" x2="546.0" y2="312.0" /><line x1="270.0" y1="732.0" x2="546.0" y2="732.0" /><polyline points="376.71,741.42 375.73,740.75 375.17,740.75 374.19,741.65 374.19,744.35 375.17,745.25 375.73,745.25 376.71,744.58" /><polyline points="379.79,740.75 377.41,740.75 377.41,742.91 379.09,742.91" /><polyline points="377.41,742.91 377.41,745.25 379.79,745.25" /><polyline points="380.63,745.25 382.03,740.75 383.43,745.25" /><polyline points="381.13,743.67 382.93,743.67" /><polyline points="386.23,741.20 385.53,740.75 384.69,740.75 383.99,741.42 383.85,742.10 384.27,742.64 385.25,743.00 386.23,743.36 386.65,743.90 386.51,744.58 385.81,745.25 384.83,745.25 384.13,744.80" /><polyline points="389.45,740.75 387.07,740.75 387.07,742.91 388.75,742.91" /><polyline points="387.07,742.91 387.07,745.25 389.45,745.25" /><polyline points="392.67,740.75 390.29,740.75 390.29,742.91 391.97,742.91" /><polyline points="390.29,742.91 390.29,745.25" /><polyline points="394.91,740.75 394.91,745.25" /><polyline points="396.73,745.25 396.73,740.75 398.55,740.75 399.25,741.42 399.25,742.19 398.55,742.77 396.73,742.77 399.25,745.25" /><polyline points="402.33,740.75 399.95,740.75 399.95,742.91 401.63,742.91" /><polyline points="399.95,742.91 399.95,745.25 402.33,745.25" /><polyline points="411.01,740.75 409.89,741.20 409.61,742.10 409.61,743.90 409.89,744.80 411.01,745.25 412.13,744.80 412.41,743.90 412.41,742.10 412.13,741.20 411.01,740.75" /><polyline points="414.23,740.75 414.23,745.25" /><polyline points="416.05,740.75 416.05,745.25 418.43,745.25" /><polyline points="425.71,740.75 428.51,740.75" /><polyline points="427.11,740.75 427.11,745.25" /><polyline points="428.93,745.25 430.33,740.75 431.73,745.25" /><polyline points="429.43,743.67 431.23,743.67" /><polyline points="432.15,740.75 432.15,745.25 434.53,745.25" /><polyline points="435.37,740.75 435.37,745.25" /><polyline points="437.89,740.75 435.37,743.00 437.89,745.25" /><polyline points="440.97,741.20 440.27,740.75 439.43,740.75 438.73,741.42 438.59,742.10 439.01,742.64 439.99,743.00 440.97,743.36 441.39,743.90 441.25,744.58 440.55,745.25 439.57,745.25 438.87,744.80" /><polyline points="353.38,753.25 358.38,753.25" /><polyline points="355.88,753.25 355.88,760.75" /><polyline points="359.12,753.25 359.12,760.75" /><polyline points="364.12,753.25 364.12,760.75" /><polyline points="359.12,756.85 364.12,756.85" /><polyline points="369.12,753.25 364.88,753.25 364.88,756.85 367.88,756.85" /><polyline points="364.88,756.85 364.88,760.75 369.12,760.75" /><polyline points="376.38,753.25 377.62,760.75 378.88,755.88 380.12,760.75 381.38,753.25" /><polyline points="384.62,753.25 382.62,754.00 382.12,755.50 382.12,758.50 382.62,760.00 384.62,760.75 386.62,760.00 387.12,758.50 387.12,755.50 386.62,754.00 384.62,753.25" /><polyline points="387.88,760.75 387.88,753.25 391.12,753.25 392.38,754.38 392.38,755.65 391.12,756.62 387.88,756.62 392.38,760.75" /><polyline points="393.62,760.75 393.62,753.25 396.38,753.25 398.12,755.12 398.12,758.88 396.38,760.75 393.62,760.75" /><polyline points="405.12,753.25 405.12,760.75" /><polyline points="410.12,753.25 410.12,760.75" /><polyline points="405.12,756.85 410.12,756.85" /><polyline points="415.12,753.25 410.88,753.25 410.88,756.85 413.88,756.85" /><polyline points="410.88,756.85 410.88,760.75 415.12,760.75" /><polyline points="416.62,753.25 416.62,760.75 420.88,760.75" /><polyline points="422.38,760.75 422.38,753.25 425.12,753.25 426.88,755.12 426.88,758.88 425.12,760.75 422.38,760.75" /><polyline points="438.12,754.00 436.88,753.25 435.38,753.25 434.12,754.38 433.88,755.50 434.62,756.40 436.38,757.00 438.12,757.60 438.88,758.50 438.62,759.62 437.38,760.75 435.62,760.75 434.38,760.00" /><polyline points="439.62,753.25 444.62,753.25" /><polyline points="442.12,753.25 442.12,760.75" /><polyline points="447.88,753.25 447.88,760.75" /><polyline points="451.12,753.25 451.12,760.75 455.38,760.75" /><polyline points="456.88,753.25 456.88,760.75 461.12,760.75" /><polyline points="339.00,766.25 340.25,773.75 341.50,768.88 342.75,773.75 344.00,766.25" /><polyline points="344.75,766.25 344.75,773.75" /><polyline points="349.75,766.25 349.75,773.75" /><polyline points="344.75,769.85 349.75,769.85" /><polyline points="353.00,766.25 353.00,773.75" /><polyline points="356.25,766.25 356.25,773.75 360.50,773.75" /><polyline points="366.25,766.25 362.00,766.25 362.00,769.85 365.00,769.85" /><polyline points="362.00,769.85 362.00,773.75 366.25,773.75" /><polyline points="373.50,766.25 378.50,766.25" /><polyline points="376.00,766.25 376.00,773.75" /><polyline points="379.25,766.25 379.25,773.75" /><polyline points="384.25,766.25 384.25,773.75" /><polyline points="379.25,769.85 384.25,769.85" /><polyline points="389.25,766.25 385.00,766.25 385.00,769.85 388.00,769.85" /><polyline points="385.00,769.85 385.00,773.75 389.25,773.75" /><polyline points="401.00,767.38 399.25,766.25 398.25,766.25 396.50,767.75 396.50,772.25 398.25,773.75 399.25,773.75 401.00,772.62 401.00,770.00 399.00,770.00" /><polyline points="402.25,773.75 402.25,766.25 405.50,766.25 406.75,767.38 406.75,768.65 405.50,769.62 402.25,769.62 406.75,773.75" /><polyline points="410.50,766.25 408.50,767.00 408.00,768.50 408.00,771.50 408.50,773.00 410.50,773.75 412.50,773.00 413.00,771.50 413.00,768.50 412.50,767.00 410.50,766.25" /><polyline points="413.75,766.25 413.75,771.88 414.75,773.38 417.75,773.38 418.75,771.88 418.75,766.25" /><polyline points="419.50,773.75 419.50,766.25 424.50,773.75 424.50,766.25" /><polyline points="425.25,773.75 425.25,766.25 428.00,766.25 429.75,768.12 429.75,771.88 428.00,773.75 425.25,773.75" /><polyline points="436.75,773.75 436.75,766.25 439.50,766.25 441.25,768.12 441.25,771.88 439.50,773.75 436.75,773.75" /><polyline points="445.00,766.25 445.00,773.75" /><polyline points="448.25,773.75 448.25,766.25 451.00,766.25 452.75,768.12 452.75,771.88 451.00,773.75 448.25,773.75" /><polyline points="459.75,773.75 459.75,766.25 464.75,773.75 464.75,766.25" /><polyline points="468.00,766.25 466.00,767.00 465.50,768.50 465.50,771.50 466.00,773.00 468.00,773.75 470.00,773.00 470.50,771.50 470.50,768.50 470.00,767.00 468.00,766.25" /><polyline points="471.25,766.25 476.25,766.25" /><polyline points="473.75,766.25 473.75,773.75" /><polyline points="387.52,779.50 387.52,784.50" /><polyline points="389.60,779.50 391.20,784.50 392.80,779.50" /><polyline points="394.88,784.00 394.88,784.25" /><polyline points="398.56,779.50 398.56,784.50" /><polyline points="400.64,779.50 403.84,784.50" /><polyline points="403.84,779.50 400.64,784.50" /><polyline points="405.92,784.00 405.92,784.25" /><polyline points="408.00,784.50 408.00,779.50 409.60,782.25 411.20,779.50 411.20,784.50" /><polyline points="411.68,784.50 411.68,779.50 413.28,782.25 414.88,779.50 414.88,784.50" /><polyline points="415.36,779.50 418.56,784.50" /><polyline points="418.56,779.50 415.36,784.50" /><polyline points="419.04,779.50 422.24,784.50" /><polyline points="422.24,779.50 419.04,784.50" /><polyline points="422.72,779.50 424.32,784.50 425.92,779.50" /><polyline points="428.00,779.50 428.00,784.50" /></g><g id="02_Teal_Terms" inkscape:groupmode="layer" inkscape:label="02_Teal_Terms" stroke="#2A6A6A" fill="none" stroke-width="1.88" stroke-linecap="round" stroke-linejoin="round"><line x1="258.00" y1="325.00" x2="558.00" y2="325.00" /><line x1="258.00" y1="330.00" x2="558.00" y2="330.00" /><line x1="258.00" y1="335.00" x2="558.00" y2="335.00" /><line x1="258.00" y1="340.00" x2="558.00" y2="340.00" /><line x1="258.00" y1="345.00" x2="558.00" y2="345.00" /><line x1="258.00" y1="350.00" x2="558.00" y2="350.00" /><line x1="258.00" y1="355.00" x2="558.00" y2="355.00" /><line x1="258.00" y1="360.00" x2="558.00" y2="360.00" /><line x1="258.00" y1="365.00" x2="558.00" y2="365.00" /><line x1="258.00" y1="370.00" x2="558.00" y2="370.00" /><line x1="258.00" y1="375.00" x2="558.00" y2="375.00" /><line x1="258.00" y1="380.00" x2="558.00" y2="380.00" /><line x1="258.00" y1="385.00" x2="558.00" y2="385.00" /><line x1="258.00" y1="390.00" x2="558.00" y2="390.00" /><line x1="258.00" y1="395.00" x2="558.00" y2="395.00" /><line x1="258.00" y1="400.00" x2="558.00" y2="400.00" /><line x1="258.00" y1="405.00" x2="558.00" y2="405.00" /><line x1="258.00" y1="410.00" x2="558.00" y2="410.00" /><line x1="258.00" y1="415.00" x2="558.00" y2="415.00" /><line x1="258.00" y1="420.00" x2="558.00" y2="420.00" /><line x1="258.00" y1="425.00" x2="558.00" y2="425.00" /><line x1="258.00" y1="430.00" x2="558.00" y2="430.00" /><line x1="258.00" y1="435.00" x2="558.00" y2="435.00" /><line x1="258.00" y1="440.00" x2="558.00" y2="440.00" /><line x1="258.00" y1="445.00" x2="558.00" y2="445.00" /><line x1="258.00" y1="450.00" x2="558.00" y2="450.00" /><line x1="258.00" y1="455.00" x2="558.00" y2="455.00" /><line x1="258.00" y1="460.00" x2="558.00" y2="460.00" /><line x1="258.00" y1="465.00" x2="422.89" y2="465.00" /><line x1="480.47" y1="465.00" x2="558.00" y2="465.00" /><line x1="258.00" y1="470.00" x2="411.32" y2="470.00" /><line x1="492.04" y1="470.00" x2="558.00" y2="470.00" /><line x1="258.00" y1="475.00" x2="402.91" y2="475.00" /><line x1="500.45" y1="475.00" x2="558.00" y2="475.00" /><line x1="258.00" y1="480.00" x2="396.20" y2="480.00" /><line x1="507.16" y1="480.00" x2="558.00" y2="480.00" /><line x1="258.00" y1="485.00" x2="390.62" y2="485.00" /><line x1="512.74" y1="485.00" x2="558.00" y2="485.00" /><line x1="258.00" y1="490.00" x2="385.89" y2="490.00" /><line x1="517.47" y1="490.00" x2="558.00" y2="490.00" /><line x1="258.00" y1="495.00" x2="381.84" y2="495.00" /><line x1="521.52" y1="495.00" x2="558.00" y2="495.00" /><line x1="258.00" y1="500.00" x2="378.35" y2="500.00" /><line x1="525.01" y1="500.00" x2="558.00" y2="500.00" /><line x1="258.00" y1="505.00" x2="375.34" y2="505.00" /><line x1="528.02" y1="505.00" x2="558.00" y2="505.00" /><line x1="258.00" y1="510.00" x2="372.77" y2="510.00" /><line x1="530.59" y1="510.00" x2="558.00" y2="510.00" /><line x1="258.00" y1="515.00" x2="370.58" y2="515.00" /><line x1="532.78" y1="515.00" x2="558.00" y2="515.00" /><line x1="258.00" y1="520.00" x2="368.75" y2="520.00" /><line x1="534.61" y1="520.00" x2="558.00" y2="520.00" /><line x1="258.00" y1="525.00" x2="367.26" y2="525.00" /><line x1="536.10" y1="525.00" x2="558.00" y2="525.00" /><line x1="258.00" y1="530.00" x2="366.09" y2="530.00" /><line x1="537.27" y1="530.00" x2="558.00" y2="530.00" /><line x1="258.00" y1="535.00" x2="365.22" y2="535.00" /><line x1="538.14" y1="535.00" x2="558.00" y2="535.00" /><line x1="258.00" y1="540.00" x2="364.64" y2="540.00" /><line x1="538.72" y1="540.00" x2="558.00" y2="540.00" /><line x1="258.00" y1="545.00" x2="364.36" y2="545.00" /><line x1="539.00" y1="545.00" x2="558.00" y2="545.00" /><line x1="258.00" y1="550.00" x2="364.36" y2="550.00" /><line x1="539.00" y1="550.00" x2="558.00" y2="550.00" /><line x1="258.00" y1="555.00" x2="364.64" y2="555.00" /><line x1="538.72" y1="555.00" x2="558.00" y2="555.00" /><line x1="258.00" y1="560.00" x2="365.22" y2="560.00" /><line x1="538.14" y1="560.00" x2="558.00" y2="560.00" /><line x1="258.00" y1="565.00" x2="366.09" y2="565.00" /><line x1="537.27" y1="565.00" x2="558.00" y2="565.00" /><line x1="258.00" y1="570.00" x2="367.27" y2="570.00" /><line x1="536.09" y1="570.00" x2="558.00" y2="570.00" /><line x1="258.00" y1="575.00" x2="368.77" y2="575.00" /><line x1="534.59" y1="575.00" x2="558.00" y2="575.00" /><line x1="258.00" y1="580.00" x2="370.60" y2="580.00" /><line x1="532.76" y1="580.00" x2="558.00" y2="580.00" /><line x1="258.00" y1="585.00" x2="372.79" y2="585.00" /><line x1="530.57" y1="585.00" x2="558.00" y2="585.00" /><line x1="258.00" y1="590.00" x2="375.37" y2="590.00" /><line x1="527.99" y1="590.00" x2="558.00" y2="590.00" /><line x1="258.00" y1="595.00" x2="378.38" y2="595.00" /><line x1="524.98" y1="595.00" x2="558.00" y2="595.00" /><line x1="258.00" y1="600.00" x2="381.87" y2="600.00" /><line x1="521.49" y1="600.00" x2="558.00" y2="600.00" /><line x1="258.00" y1="605.00" x2="385.93" y2="605.00" /><line x1="517.43" y1="605.00" x2="558.00" y2="605.00" /><line x1="258.00" y1="610.00" x2="390.66" y2="610.00" /><line x1="512.70" y1="610.00" x2="558.00" y2="610.00" /><line x1="258.00" y1="615.00" x2="396.25" y2="615.00" /><line x1="507.11" y1="615.00" x2="558.00" y2="615.00" /><line x1="258.00" y1="620.00" x2="402.97" y2="620.00" /><line x1="500.39" y1="620.00" x2="558.00" y2="620.00" /><line x1="258.00" y1="625.00" x2="411.40" y2="625.00" /><line x1="491.96" y1="625.00" x2="558.00" y2="625.00" /><line x1="258.00" y1="630.00" x2="423.01" y2="630.00" /><line x1="480.35" y1="630.00" x2="558.00" y2="630.00" /><line x1="258.00" y1="635.00" x2="558.00" y2="635.00" /><line x1="258.00" y1="640.00" x2="558.00" y2="640.00" /><line x1="258.00" y1="645.00" x2="558.00" y2="645.00" /><line x1="258.00" y1="650.00" x2="558.00" y2="650.00" /><line x1="258.00" y1="655.00" x2="558.00" y2="655.00" /><line x1="258.00" y1="660.00" x2="558.00" y2="660.00" /><line x1="258.00" y1="665.00" x2="558.00" y2="665.00" /><line x1="258.00" y1="670.00" x2="558.00" y2="670.00" /><line x1="258.00" y1="675.00" x2="558.00" y2="675.00" /><line x1="258.00" y1="680.00" x2="558.00" y2="680.00" /><line x1="258.00" y1="685.00" x2="558.00" y2="685.00" /><line x1="258.00" y1="690.00" x2="558.00" y2="690.00" /><line x1="258.00" y1="695.00" x2="558.00" y2="695.00" /><line x1="258.00" y1="700.00" x2="558.00" y2="700.00" /><line x1="258.00" y1="705.00" x2="558.00" y2="705.00" /><line x1="258.00" y1="710.00" x2="558.00" y2="710.00" /><line x1="258.00" y1="715.00" x2="558.00" y2="715.00" /><line x1="258.00" y1="720.00" x2="558.00" y2="720.00" /></g><g id="03_Gold_Impact" inkscape:groupmode="layer" inkscape:label="03_Gold_Impact" stroke="#B8960C" fill="none" stroke-width="0.875" stroke-linecap="round" stroke-linejoin="round"><polyline points="454.68,547.48 454.68,547.57 454.67,547.67 454.67,547.76 454.66,547.86 454.64,547.95 454.63,548.04 454.61,548.13 454.59,548.23 454.56,548.32 454.53,548.41 454.50,548.50 454.47,548.58 454.43,548.67 454.39,548.76 454.35,548.84 454.31,548.93 454.26,549.01 454.21,549.09 454.16,549.17 454.11,549.24 454.05,549.32 453.99,549.39 453.93,549.46 453.87,549.53 453.80,549.60 453.73,549.67 453.66,549.73 453.59,549.79 453.52,549.85 453.44,549.91 453.37,549.96 453.29,550.01 453.21,550.06 453.13,550.11 453.04,550.15 452.96,550.19 452.87,550.23 452.78,550.27 452.70,550.30 452.61,550.33 452.52,550.36 452.43,550.39 452.33,550.41 452.24,550.43 452.15,550.44 452.06,550.46 451.96,550.47 451.87,550.47 451.77,550.48 451.68,550.48 451.59,550.48 451.49,550.47 451.40,550.47 451.30,550.46 451.21,550.44 451.12,550.43 451.03,550.41 450.93,550.39 450.84,550.36 450.75,550.33 450.66,550.30 450.58,550.27 450.49,550.23 450.40,550.19 450.32,550.15 450.23,550.11 450.15,550.06 450.07,550.01 449.99,549.96 449.92,549.91 449.84,549.85 449.77,549.79 449.70,549.73 449.63,549.67 449.56,549.60 449.49,549.53 449.43,549.46 449.37,549.39 449.31,549.32 449.25,549.24 449.20,549.17 449.15,549.09 449.10,549.01 449.05,548.93 449.01,548.84 448.97,548.76 448.93,548.67 448.89,548.58 448.86,548.50 448.83,548.41 448.80,548.32 448.77,548.23 448.75,548.13 448.73,548.04 448.72,547.95 448.70,547.86 448.69,547.76 448.69,547.67 448.68,547.57 448.68,547.48 448.68,547.39 448.69,547.29 448.69,547.20 448.70,547.10 448.72,547.01 448.73,546.92 448.75,546.83 448.77,546.73 448.80,546.64 448.83,546.55 448.86,546.46 448.89,546.38 448.93,546.29 448.97,546.20 449.01,546.12 449.05,546.03 449.10,545.95 449.15,545.87 449.20,545.79 449.25,545.72 449.31,545.64 449.37,545.57 449.43,545.50 449.49,545.43 449.56,545.36 449.63,545.29 449.70,545.23 449.77,545.17 449.84,545.11 449.92,545.05 449.99,545.00 450.07,544.95 450.15,544.90 450.23,544.85 450.32,544.81 450.40,544.77 450.49,544.73 450.58,544.69 450.66,544.66 450.75,544.63 450.84,544.60 450.93,544.57 451.03,544.55 451.12,544.53 451.21,544.52 451.30,544.50 451.40,544.49 451.49,544.49 451.59,544.48 451.68,544.48 451.77,544.48 451.87,544.49 451.96,544.49 452.06,544.50 452.15,544.52 452.24,544.53 452.33,544.55 452.43,544.57 452.52,544.60 452.61,544.63 452.70,544.66 452.78,544.69 452.87,544.73 452.96,544.77 453.04,544.81 453.13,544.85 453.21,544.90 453.29,544.95 453.37,545.00 453.44,545.05 453.52,545.11 453.59,545.17 453.66,545.23 453.73,545.29 453.80,545.36 453.87,545.43 453.93,545.50 453.99,545.57 454.05,545.64 454.11,545.72 454.16,545.79 454.21,545.87 454.26,545.95 454.31,546.03 454.35,546.12 454.39,546.20 454.43,546.29 454.47,546.38 454.50,546.46 454.53,546.55 454.56,546.64 454.59,546.73 454.61,546.83 454.63,546.92 454.64,547.01 454.66,547.10 454.67,547.20 454.67,547.29 454.68,547.39 454.68,547.48" /><polyline points="459.18,547.48 459.18,547.72 459.17,547.95 459.15,548.19 459.12,548.42 459.09,548.65 459.05,548.89 459.00,549.12 458.94,549.35 458.88,549.57 458.81,549.80 458.74,550.02 458.65,550.24 458.56,550.46 458.47,550.67 458.36,550.88 458.25,551.09 458.14,551.30 458.01,551.50 457.88,551.70 457.75,551.89 457.61,552.08 457.46,552.26 457.31,552.44 457.15,552.61 456.98,552.78 456.81,552.95 456.64,553.11 456.46,553.26 456.28,553.41 456.09,553.55 455.90,553.68 455.70,553.81 455.50,553.94 455.29,554.05 455.08,554.16 454.87,554.27 454.66,554.36 454.44,554.45 454.22,554.54 454.00,554.61 453.77,554.68 453.55,554.74 453.32,554.80 453.09,554.85 452.85,554.89 452.62,554.92 452.39,554.95 452.15,554.97 451.92,554.98 451.68,554.98 451.44,554.98 451.21,554.97 450.97,554.95 450.74,554.92 450.51,554.89 450.27,554.85 450.04,554.80 449.81,554.74 449.59,554.68 449.36,554.61 449.14,554.54 448.92,554.45 448.70,554.36 448.49,554.27 448.28,554.16 448.07,554.05 447.86,553.94 447.66,553.81 447.46,553.68 447.27,553.55 447.08,553.41 446.90,553.26 446.72,553.11 446.55,552.95 446.38,552.78 446.21,552.61 446.05,552.44 445.90,552.26 445.75,552.08 445.61,551.89 445.48,551.70 445.35,551.50 445.22,551.30 445.11,551.09 445.00,550.88 444.89,550.67 444.80,550.46 444.71,550.24 444.62,550.02 444.55,549.80 444.48,549.57 444.42,549.35 444.36,549.12 444.31,548.89 444.27,548.65 444.24,548.42 444.21,548.19 444.19,547.95 444.18,547.72 444.18,547.48 444.18,547.24 444.19,547.01 444.21,546.77 444.24,546.54 444.27,546.31 444.31,546.07 444.36,545.84 444.42,545.61 444.48,545.39 444.55,545.16 444.62,544.94 444.71,544.72 444.80,544.50 444.89,544.29 445.00,544.08 445.11,543.87 445.22,543.66 445.35,543.46 445.48,543.26 445.61,543.07 445.75,542.88 445.90,542.70 446.05,542.52 446.21,542.35 446.38,542.18 446.55,542.01 446.72,541.85 446.90,541.70 447.08,541.55 447.27,541.41 447.46,541.28 447.66,541.15 447.86,541.02 448.07,540.91 448.28,540.80 448.49,540.69 448.70,540.60 448.92,540.51 449.14,540.42 449.36,540.35 449.59,540.28 449.81,540.22 450.04,540.16 450.27,540.11 450.51,540.07 450.74,540.04 450.97,540.01 451.21,539.99 451.44,539.98 451.68,539.98 451.92,539.98 452.15,539.99 452.39,540.01 452.62,540.04 452.85,540.07 453.09,540.11 453.32,540.16 453.55,540.22 453.77,540.28 454.00,540.35 454.22,540.42 454.44,540.51 454.66,540.60 454.87,540.69 455.08,540.80 455.29,540.91 455.50,541.02 455.70,541.15 455.90,541.28 456.09,541.41 456.28,541.55 456.46,541.70 456.64,541.85 456.81,542.01 456.98,542.18 457.15,542.35 457.31,542.52 457.46,542.70 457.61,542.88 457.75,543.07 457.88,543.26 458.01,543.46 458.14,543.66 458.25,543.87 458.36,544.08 458.47,544.29 458.56,544.50 458.65,544.72 458.74,544.94 458.81,545.16 458.88,545.39 458.94,545.61 459.00,545.84 459.05,546.07 459.09,546.31 459.12,546.54 459.15,546.77 459.17,547.01 459.18,547.24 459.18,547.48" /><polyline points="463.68,547.48 463.67,547.86 463.66,548.23 463.63,548.61 463.59,548.98 463.53,549.36 463.47,549.73 463.39,550.10 463.30,550.46 463.20,550.83 463.09,551.19 462.97,551.54 462.84,551.90 462.69,552.25 462.54,552.59 462.37,552.93 462.20,553.26 462.01,553.59 461.81,553.91 461.60,554.23 461.39,554.53 461.16,554.83 460.93,555.13 460.68,555.42 460.43,555.69 460.17,555.97 459.89,556.23 459.62,556.48 459.33,556.73 459.03,556.96 458.73,557.19 458.43,557.40 458.11,557.61 457.79,557.81 457.46,558.00 457.13,558.17 456.79,558.34 456.45,558.49 456.10,558.64 455.74,558.77 455.39,558.89 455.03,559.00 454.66,559.10 454.30,559.19 453.93,559.27 453.56,559.33 453.18,559.39 452.81,559.43 452.43,559.46 452.06,559.47 451.68,559.48 451.30,559.47 450.93,559.46 450.55,559.43 450.18,559.39 449.80,559.33 449.43,559.27 449.06,559.19 448.70,559.10 448.33,559.00 447.97,558.89 447.62,558.77 447.26,558.64 446.91,558.49 446.57,558.34 446.23,558.17 445.90,558.00 445.57,557.81 445.25,557.61 444.93,557.40 444.63,557.19 444.33,556.96 444.03,556.73 443.74,556.48 443.47,556.23 443.19,555.97 442.93,555.69 442.68,555.42 442.43,555.13 442.20,554.83 441.97,554.53 441.76,554.23 441.55,553.91 441.35,553.59 441.16,553.26 440.99,552.93 440.82,552.59 440.67,552.25 440.52,551.90 440.39,551.54 440.27,551.19 440.16,550.83 440.06,550.46 439.97,550.10 439.89,549.73 439.83,549.36 439.77,548.98 439.73,548.61 439.70,548.23 439.69,547.86 439.68,547.48 439.69,547.10 439.70,546.73 439.73,546.35 439.77,545.98 439.83,545.60 439.89,545.23 439.97,544.86 440.06,544.50 440.16,544.13 440.27,543.77 440.39,543.42 440.52,543.06 440.67,542.71 440.82,542.37 440.99,542.03 441.16,541.70 441.35,541.37 441.55,541.05 441.76,540.73 441.97,540.43 442.20,540.13 442.43,539.83 442.68,539.54 442.93,539.27 443.19,538.99 443.47,538.73 443.74,538.48 444.03,538.23 444.33,538.00 444.63,537.77 444.93,537.56 445.25,537.35 445.57,537.15 445.90,536.96 446.23,536.79 446.57,536.62 446.91,536.47 447.26,536.32 447.62,536.19 447.97,536.07 448.33,535.96 448.70,535.86 449.06,535.77 449.43,535.69 449.80,535.63 450.18,535.57 450.55,535.53 450.93,535.50 451.30,535.49 451.68,535.48 452.06,535.49 452.43,535.50 452.81,535.53 453.18,535.57 453.56,535.63 453.93,535.69 454.30,535.77 454.66,535.86 455.03,535.96 455.39,536.07 455.74,536.19 456.10,536.32 456.45,536.47 456.79,536.62 457.13,536.79 457.46,536.96 457.79,537.15 458.11,537.35 458.43,537.56 458.73,537.77 459.03,538.00 459.33,538.23 459.62,538.48 459.89,538.73 460.17,538.99 460.43,539.27 460.68,539.54 460.93,539.83 461.16,540.13 461.39,540.43 461.60,540.73 461.81,541.05 462.01,541.37 462.20,541.70 462.37,542.03 462.54,542.37 462.69,542.71 462.84,543.06 462.97,543.42 463.09,543.77 463.20,544.13 463.30,544.50 463.39,544.86 463.47,545.23 463.53,545.60 463.59,545.98 463.63,546.35 463.66,546.73 463.67,547.10 463.68,547.48" /><polyline points="468.18,547.48 468.17,548.00 468.15,548.52 468.11,549.03 468.05,549.55 467.98,550.06 467.89,550.57 467.78,551.08 467.66,551.58 467.52,552.08 467.37,552.58 467.20,553.07 467.02,553.55 466.82,554.03 466.61,554.51 466.38,554.97 466.14,555.43 465.88,555.88 465.61,556.32 465.33,556.75 465.03,557.18 464.72,557.59 464.39,558.00 464.06,558.39 463.71,558.78 463.35,559.15 462.98,559.51 462.59,559.86 462.20,560.19 461.79,560.52 461.38,560.83 460.95,561.13 460.52,561.41 460.08,561.68 459.63,561.94 459.17,562.18 458.71,562.41 458.23,562.62 457.75,562.82 457.27,563.00 456.78,563.17 456.28,563.32 455.78,563.46 455.28,563.58 454.77,563.69 454.26,563.78 453.75,563.85 453.23,563.91 452.72,563.95 452.20,563.97 451.68,563.98 451.16,563.97 450.64,563.95 450.13,563.91 449.61,563.85 449.10,563.78 448.59,563.69 448.08,563.58 447.58,563.46 447.08,563.32 446.58,563.17 446.09,563.00 445.61,562.82 445.13,562.62 444.65,562.41 444.19,562.18 443.73,561.94 443.28,561.68 442.84,561.41 442.41,561.13 441.98,560.83 441.57,560.52 441.16,560.19 440.77,559.86 440.38,559.51 440.01,559.15 439.65,558.78 439.30,558.39 438.97,558.00 438.64,557.59 438.33,557.18 438.03,556.75 437.75,556.32 437.48,555.88 437.22,555.43 436.98,554.97 436.75,554.51 436.54,554.03 436.34,553.55 436.16,553.07 435.99,552.58 435.84,552.08 435.70,551.58 435.58,551.08 435.47,550.57 435.38,550.06 435.31,549.55 435.25,549.03 435.21,548.52 435.19,548.00 435.18,547.48 435.19,546.96 435.21,546.44 435.25,545.93 435.31,545.41 435.38,544.90 435.47,544.39 435.58,543.88 435.70,543.38 435.84,542.88 435.99,542.38 436.16,541.89 436.34,541.41 436.54,540.93 436.75,540.45 436.98,539.99 437.22,539.53 437.48,539.08 437.75,538.64 438.03,538.21 438.33,537.78 438.64,537.37 438.97,536.96 439.30,536.57 439.65,536.18 440.01,535.81 440.38,535.45 440.77,535.10 441.16,534.77 441.57,534.44 441.98,534.13 442.41,533.83 442.84,533.55 443.28,533.28 443.73,533.02 444.19,532.78 444.65,532.55 445.13,532.34 445.61,532.14 446.09,531.96 446.58,531.79 447.08,531.64 447.58,531.50 448.08,531.38 448.59,531.27 449.10,531.18 449.61,531.11 450.13,531.05 450.64,531.01 451.16,530.99 451.68,530.98 452.20,530.99 452.72,531.01 453.23,531.05 453.75,531.11 454.26,531.18 454.77,531.27 455.28,531.38 455.78,531.50 456.28,531.64 456.78,531.79 457.27,531.96 457.75,532.14 458.23,532.34 458.71,532.55 459.17,532.78 459.63,533.02 460.08,533.28 460.52,533.55 460.95,533.83 461.38,534.13 461.79,534.44 462.20,534.77 462.59,535.10 462.98,535.45 463.35,535.81 463.71,536.18 464.06,536.57 464.39,536.96 464.72,537.37 465.03,537.78 465.33,538.21 465.61,538.64 465.88,539.08 466.14,539.53 466.38,539.99 466.61,540.45 466.82,540.93 467.02,541.41 467.20,541.89 467.37,542.38 467.52,542.88 467.66,543.38 467.78,543.88 467.89,544.39 467.98,544.90 468.05,545.41 468.11,545.93 468.15,546.44 468.17,546.96 468.18,547.48" /><polyline points="472.68,547.48 472.67,548.14 472.64,548.80 472.59,549.46 472.51,550.11 472.42,550.77 472.31,551.42 472.17,552.06 472.02,552.70 471.85,553.34 471.65,553.97 471.44,554.59 471.21,555.21 470.95,555.82 470.68,556.42 470.39,557.01 470.08,557.60 469.76,558.17 469.41,558.73 469.05,559.28 468.67,559.82 468.27,560.35 467.86,560.87 467.43,561.37 466.99,561.86 466.53,562.33 466.06,562.79 465.57,563.23 465.07,563.66 464.55,564.07 464.02,564.47 463.48,564.85 462.93,565.21 462.37,565.56 461.80,565.88 461.21,566.19 460.62,566.48 460.02,566.75 459.41,567.01 458.79,567.24 458.17,567.45 457.54,567.65 456.90,567.82 456.26,567.97 455.62,568.11 454.97,568.22 454.31,568.31 453.66,568.39 453.00,568.44 452.34,568.47 451.68,568.48 451.02,568.47 450.36,568.44 449.70,568.39 449.05,568.31 448.39,568.22 447.74,568.11 447.10,567.97 446.46,567.82 445.82,567.65 445.19,567.45 444.57,567.24 443.95,567.01 443.34,566.75 442.74,566.48 442.15,566.19 441.56,565.88 440.99,565.56 440.43,565.21 439.88,564.85 439.34,564.47 438.81,564.07 438.29,563.66 437.79,563.23 437.30,562.79 436.83,562.33 436.37,561.86 435.93,561.37 435.50,560.87 435.09,560.35 434.69,559.82 434.31,559.28 433.95,558.73 433.60,558.17 433.28,557.60 432.97,557.01 432.68,556.42 432.41,555.82 432.15,555.21 431.92,554.59 431.71,553.97 431.51,553.34 431.34,552.70 431.19,552.06 431.05,551.42 430.94,550.77 430.85,550.11 430.77,549.46 430.72,548.80 430.69,548.14 430.68,547.48 430.69,546.82 430.72,546.16 430.77,545.50 430.85,544.85 430.94,544.19 431.05,543.54 431.19,542.90 431.34,542.26 431.51,541.62 431.71,540.99 431.92,540.37 432.15,539.75 432.41,539.14 432.68,538.54 432.97,537.95 433.28,537.36 433.60,536.79 433.95,536.23 434.31,535.68 434.69,535.14 435.09,534.61 435.50,534.09 435.93,533.59 436.37,533.10 436.83,532.63 437.30,532.17 437.79,531.73 438.29,531.30 438.81,530.89 439.34,530.49 439.88,530.11 440.43,529.75 440.99,529.40 441.56,529.08 442.15,528.77 442.74,528.48 443.34,528.21 443.95,527.95 444.57,527.72 445.19,527.51 445.82,527.31 446.46,527.14 447.10,526.99 447.74,526.85 448.39,526.74 449.05,526.65 449.70,526.57 450.36,526.52 451.02,526.49 451.68,526.48 452.34,526.49 453.00,526.52 453.66,526.57 454.31,526.65 454.97,526.74 455.62,526.85 456.26,526.99 456.90,527.14 457.54,527.31 458.17,527.51 458.79,527.72 459.41,527.95 460.02,528.21 460.62,528.48 461.21,528.77 461.80,529.08 462.37,529.40 462.93,529.75 463.48,530.11 464.02,530.49 464.55,530.89 465.07,531.30 465.57,531.73 466.06,532.17 466.53,532.63 466.99,533.10 467.43,533.59 467.86,534.09 468.27,534.61 468.67,535.14 469.05,535.68 469.41,536.23 469.76,536.79 470.08,537.36 470.39,537.95 470.68,538.54 470.95,539.14 471.21,539.75 471.44,540.37 471.65,540.99 471.85,541.62 472.02,542.26 472.17,542.90 472.31,543.54 472.42,544.19 472.51,544.85 472.59,545.50 472.64,546.16 472.67,546.82 472.68,547.48" /><polyline points="477.18,547.48 477.17,548.28 477.13,549.08 477.07,549.88 476.98,550.68 476.87,551.47 476.73,552.26 476.57,553.04 476.38,553.82 476.17,554.59 475.93,555.36 475.67,556.12 475.39,556.87 475.08,557.61 474.75,558.34 474.40,559.06 474.03,559.76 473.63,560.46 473.21,561.14 472.77,561.81 472.31,562.47 471.83,563.11 471.33,563.73 470.81,564.34 470.27,564.94 469.71,565.51 469.14,566.07 468.54,566.61 467.93,567.13 467.31,567.63 466.67,568.11 466.01,568.57 465.34,569.01 464.66,569.43 463.96,569.83 463.26,570.20 462.54,570.55 461.81,570.88 461.07,571.19 460.32,571.47 459.56,571.73 458.79,571.97 458.02,572.18 457.24,572.37 456.46,572.53 455.67,572.67 454.88,572.78 454.08,572.87 453.28,572.93 452.48,572.97 451.68,572.98 450.88,572.97 450.08,572.93 449.28,572.87 448.48,572.78 447.69,572.67 446.90,572.53 446.12,572.37 445.34,572.18 444.57,571.97 443.80,571.73 443.04,571.47 442.29,571.19 441.55,570.88 440.82,570.55 440.10,570.20 439.40,569.83 438.70,569.43 438.02,569.01 437.35,568.57 436.69,568.11 436.05,567.63 435.43,567.13 434.82,566.61 434.22,566.07 433.65,565.51 433.09,564.94 432.55,564.34 432.03,563.73 431.53,563.11 431.05,562.47 430.59,561.81 430.15,561.14 429.73,560.46 429.33,559.76 428.96,559.06 428.61,558.34 428.28,557.61 427.97,556.87 427.69,556.12 427.43,555.36 427.19,554.59 426.98,553.82 426.79,553.04 426.63,552.26 426.49,551.47 426.38,550.68 426.29,549.88 426.23,549.08 426.19,548.28 426.18,547.48 426.19,546.68 426.23,545.88 426.29,545.08 426.38,544.28 426.49,543.49 426.63,542.70 426.79,541.92 426.98,541.14 427.19,540.37 427.43,539.60 427.69,538.84 427.97,538.09 428.28,537.35 428.61,536.62 428.96,535.90 429.33,535.20 429.73,534.50 430.15,533.82 430.59,533.15 431.05,532.49 431.53,531.85 432.03,531.23 432.55,530.62 433.09,530.02 433.65,529.45 434.22,528.89 434.82,528.35 435.43,527.83 436.05,527.33 436.69,526.85 437.35,526.39 438.02,525.95 438.70,525.53 439.40,525.13 440.10,524.76 440.82,524.41 441.55,524.08 442.29,523.77 443.04,523.49 443.80,523.23 444.57,522.99 445.34,522.78 446.12,522.59 446.90,522.43 447.69,522.29 448.48,522.18 449.28,522.09 450.08,522.03 450.88,521.99 451.68,521.98 452.48,521.99 453.28,522.03 454.08,522.09 454.88,522.18 455.67,522.29 456.46,522.43 457.24,522.59 458.02,522.78 458.79,522.99 459.56,523.23 460.32,523.49 461.07,523.77 461.81,524.08 462.54,524.41 463.26,524.76 463.96,525.13 464.66,525.53 465.34,525.95 466.01,526.39 466.67,526.85 467.31,527.33 467.93,527.83 468.54,528.35 469.14,528.89 469.71,529.45 470.27,530.02 470.81,530.62 471.33,531.23 471.83,531.85 472.31,532.49 472.77,533.15 473.21,533.82 473.63,534.50 474.03,535.20 474.40,535.90 474.75,536.62 475.08,537.35 475.39,538.09 475.67,538.84 475.93,539.60 476.17,540.37 476.38,541.14 476.57,541.92 476.73,542.70 476.87,543.49 476.98,544.28 477.07,545.08 477.13,545.88 477.17,546.68 477.18,547.48" /><polyline points="481.68,547.48 481.67,548.42 481.62,549.36 481.55,550.30 481.44,551.24 481.31,552.17 481.15,553.10 480.96,554.02 480.74,554.94 480.49,555.85 480.21,556.75 479.91,557.64 479.57,558.52 479.21,559.39 478.82,560.25 478.41,561.10 477.97,561.93 477.50,562.75 477.01,563.55 476.49,564.34 475.95,565.11 475.38,565.87 474.80,566.60 474.18,567.32 473.55,568.02 472.89,568.69 472.22,569.35 471.52,569.98 470.80,570.60 470.07,571.18 469.31,571.75 468.54,572.29 467.75,572.81 466.95,573.30 466.13,573.77 465.30,574.21 464.45,574.62 463.59,575.01 462.72,575.37 461.84,575.71 460.95,576.01 460.05,576.29 459.14,576.54 458.22,576.76 457.30,576.95 456.37,577.11 455.44,577.24 454.50,577.35 453.56,577.42 452.62,577.47 451.68,577.48 450.74,577.47 449.80,577.42 448.86,577.35 447.92,577.24 446.99,577.11 446.06,576.95 445.14,576.76 444.22,576.54 443.31,576.29 442.41,576.01 441.52,575.71 440.64,575.37 439.77,575.01 438.91,574.62 438.06,574.21 437.23,573.77 436.41,573.30 435.61,572.81 434.82,572.29 434.05,571.75 433.29,571.18 432.56,570.60 431.84,569.98 431.14,569.35 430.47,568.69 429.81,568.02 429.18,567.32 428.56,566.60 427.98,565.87 427.41,565.11 426.87,564.34 426.35,563.55 425.86,562.75 425.39,561.93 424.95,561.10 424.54,560.25 424.15,559.39 423.79,558.52 423.45,557.64 423.15,556.75 422.87,555.85 422.62,554.94 422.40,554.02 422.21,553.10 422.05,552.17 421.92,551.24 421.81,550.30 421.74,549.36 421.69,548.42 421.68,547.48 421.69,546.54 421.74,545.60 421.81,544.66 421.92,543.72 422.05,542.79 422.21,541.86 422.40,540.94 422.62,540.02 422.87,539.11 423.15,538.21 423.45,537.32 423.79,536.44 424.15,535.57 424.54,534.71 424.95,533.86 425.39,533.03 425.86,532.21 426.35,531.41 426.87,530.62 427.41,529.85 427.98,529.09 428.56,528.36 429.18,527.64 429.81,526.94 430.47,526.27 431.14,525.61 431.84,524.98 432.56,524.36 433.29,523.78 434.05,523.21 434.82,522.67 435.61,522.15 436.41,521.66 437.23,521.19 438.06,520.75 438.91,520.34 439.77,519.95 440.64,519.59 441.52,519.25 442.41,518.95 443.31,518.67 444.22,518.42 445.14,518.20 446.06,518.01 446.99,517.85 447.92,517.72 448.86,517.61 449.80,517.54 450.74,517.49 451.68,517.48 452.62,517.49 453.56,517.54 454.50,517.61 455.44,517.72 456.37,517.85 457.30,518.01 458.22,518.20 459.14,518.42 460.05,518.67 460.95,518.95 461.84,519.25 462.72,519.59 463.59,519.95 464.45,520.34 465.30,520.75 466.13,521.19 466.95,521.66 467.75,522.15 468.54,522.67 469.31,523.21 470.07,523.78 470.80,524.36 471.52,524.98 472.22,525.61 472.89,526.27 473.55,526.94 474.18,527.64 474.80,528.36 475.38,529.09 475.95,529.85 476.49,530.62 477.01,531.41 477.50,532.21 477.97,533.03 478.41,533.86 478.82,534.71 479.21,535.57 479.57,536.44 479.91,537.32 480.21,538.21 480.49,539.11 480.74,540.02 480.96,540.94 481.15,541.86 481.31,542.79 481.44,543.72 481.55,544.66 481.62,545.60 481.67,546.54 481.68,547.48" /><polyline points="486.18,547.48 486.16,548.56 486.11,549.65 486.03,550.73 485.91,551.80 485.76,552.88 485.57,553.94 485.35,555.01 485.10,556.06 484.81,557.11 484.49,558.14 484.14,559.17 483.76,560.18 483.34,561.18 482.90,562.17 482.42,563.14 481.91,564.10 481.38,565.04 480.81,565.97 480.21,566.87 479.59,567.76 478.94,568.63 478.26,569.47 477.56,570.30 476.83,571.10 476.08,571.88 475.30,572.63 474.50,573.36 473.67,574.06 472.83,574.74 471.96,575.39 471.07,576.01 470.17,576.61 469.24,577.18 468.30,577.71 467.34,578.22 466.37,578.70 465.38,579.14 464.38,579.56 463.37,579.94 462.34,580.29 461.31,580.61 460.26,580.90 459.21,581.15 458.14,581.37 457.08,581.56 456.00,581.71 454.93,581.83 453.85,581.91 452.76,581.96 451.68,581.98 450.60,581.96 449.51,581.91 448.43,581.83 447.36,581.71 446.28,581.56 445.22,581.37 444.15,581.15 443.10,580.90 442.05,580.61 441.02,580.29 439.99,579.94 438.98,579.56 437.98,579.14 436.99,578.70 436.02,578.22 435.06,577.71 434.12,577.18 433.19,576.61 432.29,576.01 431.40,575.39 430.53,574.74 429.69,574.06 428.86,573.36 428.06,572.63 427.28,571.88 426.53,571.10 425.80,570.30 425.10,569.47 424.42,568.63 423.77,567.76 423.15,566.87 422.55,565.97 421.98,565.04 421.45,564.10 420.94,563.14 420.46,562.17 420.02,561.18 419.60,560.18 419.22,559.17 418.87,558.14 418.55,557.11 418.26,556.06 418.01,555.01 417.79,553.94 417.60,552.88 417.45,551.80 417.33,550.73 417.25,549.65 417.20,548.56 417.18,547.48 417.20,546.40 417.25,545.31 417.33,544.23 417.45,543.16 417.60,542.08 417.79,541.02 418.01,539.95 418.26,538.90 418.55,537.85 418.87,536.82 419.22,535.79 419.60,534.78 420.02,533.78 420.46,532.79 420.94,531.82 421.45,530.86 421.98,529.92 422.55,528.99 423.15,528.09 423.77,527.20 424.42,526.33 425.10,525.49 425.80,524.66 426.53,523.86 427.28,523.08 428.06,522.33 428.86,521.60 429.69,520.90 430.53,520.22 431.40,519.57 432.29,518.95 433.19,518.35 434.12,517.78 435.06,517.25 436.02,516.74 436.99,516.26 437.98,515.82 438.98,515.40 439.99,515.02 441.02,514.67 442.05,514.35 443.10,514.06 444.15,513.81 445.22,513.59 446.28,513.40 447.36,513.25 448.43,513.13 449.51,513.05 450.60,513.00 451.68,512.98 452.76,513.00 453.85,513.05 454.93,513.13 456.00,513.25 457.08,513.40 458.14,513.59 459.21,513.81 460.26,514.06 461.31,514.35 462.34,514.67 463.37,515.02 464.38,515.40 465.38,515.82 466.37,516.26 467.34,516.74 468.30,517.25 469.24,517.78 470.17,518.35 471.07,518.95 471.96,519.57 472.83,520.22 473.67,520.90 474.50,521.60 475.30,522.33 476.08,523.08 476.83,523.86 477.56,524.66 478.26,525.49 478.94,526.33 479.59,527.20 480.21,528.09 480.81,528.99 481.38,529.92 481.91,530.86 482.42,531.82 482.90,532.79 483.34,533.78 483.76,534.78 484.14,535.79 484.49,536.82 484.81,537.85 485.10,538.90 485.35,539.95 485.57,541.02 485.76,542.08 485.91,543.16 486.03,544.23 486.11,545.31 486.16,546.40 486.18,547.48" /><polyline points="490.68,547.48 490.66,548.71 490.60,549.93 490.51,551.15 490.37,552.37 490.20,553.58 489.99,554.79 489.74,555.99 489.45,557.18 489.13,558.36 488.77,559.53 488.37,560.69 487.94,561.84 487.47,562.97 486.97,564.09 486.43,565.19 485.86,566.27 485.25,567.33 484.61,568.38 483.94,569.40 483.23,570.40 482.50,571.38 481.73,572.34 480.93,573.27 480.11,574.18 479.26,575.06 478.38,575.91 477.47,576.73 476.54,577.53 475.58,578.30 474.60,579.03 473.60,579.74 472.58,580.41 471.53,581.05 470.47,581.66 469.39,582.23 468.29,582.77 467.17,583.27 466.04,583.74 464.89,584.17 463.73,584.57 462.56,584.93 461.38,585.25 460.19,585.54 458.99,585.79 457.78,586.00 456.57,586.17 455.35,586.31 454.13,586.40 452.91,586.46 451.68,586.48 450.45,586.46 449.23,586.40 448.01,586.31 446.79,586.17 445.58,586.00 444.37,585.79 443.17,585.54 441.98,585.25 440.80,584.93 439.63,584.57 438.47,584.17 437.32,583.74 436.19,583.27 435.07,582.77 433.97,582.23 432.89,581.66 431.83,581.05 430.78,580.41 429.76,579.74 428.76,579.03 427.78,578.30 426.82,577.53 425.89,576.73 424.98,575.91 424.10,575.06 423.25,574.18 422.43,573.27 421.63,572.34 420.86,571.38 420.13,570.40 419.42,569.40 418.75,568.38 418.11,567.33 417.50,566.27 416.93,565.19 416.39,564.09 415.89,562.97 415.42,561.84 414.99,560.69 414.59,559.53 414.23,558.36 413.91,557.18 413.62,555.99 413.37,554.79 413.16,553.58 412.99,552.37 412.85,551.15 412.76,549.93 412.70,548.71 412.68,547.48 412.70,546.25 412.76,545.03 412.85,543.81 412.99,542.59 413.16,541.38 413.37,540.17 413.62,538.97 413.91,537.78 414.23,536.60 414.59,535.43 414.99,534.27 415.42,533.12 415.89,531.99 416.39,530.87 416.93,529.77 417.50,528.69 418.11,527.63 418.75,526.58 419.42,525.56 420.13,524.56 420.86,523.58 421.63,522.62 422.43,521.69 423.25,520.78 424.10,519.90 424.98,519.05 425.89,518.23 426.82,517.43 427.78,516.66 428.76,515.93 429.76,515.22 430.78,514.55 431.83,513.91 432.89,513.30 433.97,512.73 435.07,512.19 436.19,511.69 437.32,511.22 438.47,510.79 439.63,510.39 440.80,510.03 441.98,509.71 443.17,509.42 444.37,509.17 445.58,508.96 446.79,508.79 448.01,508.65 449.23,508.56 450.45,508.50 451.68,508.48 452.91,508.50 454.13,508.56 455.35,508.65 456.57,508.79 457.78,508.96 458.99,509.17 460.19,509.42 461.38,509.71 462.56,510.03 463.73,510.39 464.89,510.79 466.04,511.22 467.17,511.69 468.29,512.19 469.39,512.73 470.47,513.30 471.53,513.91 472.58,514.55 473.60,515.22 474.60,515.93 475.58,516.66 476.54,517.43 477.47,518.23 478.38,519.05 479.26,519.90 480.11,520.78 480.93,521.69 481.73,522.62 482.50,523.58 483.23,524.56 483.94,525.56 484.61,526.58 485.25,527.63 485.86,528.69 486.43,529.77 486.97,530.87 487.47,531.99 487.94,533.12 488.37,534.27 488.77,535.43 489.13,536.60 489.45,537.78 489.74,538.97 489.99,540.17 490.20,541.38 490.37,542.59 490.51,543.81 490.60,545.03 490.66,546.25 490.68,547.48" /><polyline points="495.18,547.48 495.16,548.85 495.09,550.21 494.99,551.57 494.84,552.93 494.64,554.28 494.41,555.63 494.13,556.97 493.81,558.30 493.45,559.62 493.05,560.92 492.61,562.22 492.13,563.49 491.60,564.76 491.04,566.00 490.44,567.23 489.80,568.44 489.12,569.62 488.41,570.79 487.66,571.93 486.87,573.05 486.05,574.14 485.20,575.21 484.31,576.25 483.39,577.26 482.44,578.24 481.46,579.19 480.45,580.11 479.41,581.00 478.34,581.85 477.25,582.67 476.13,583.46 474.99,584.21 473.82,584.92 472.64,585.60 471.43,586.24 470.20,586.84 468.96,587.40 467.69,587.93 466.42,588.41 465.12,588.85 463.82,589.25 462.50,589.61 461.17,589.93 459.83,590.21 458.48,590.44 457.13,590.64 455.77,590.79 454.41,590.89 453.05,590.96 451.68,590.98 450.31,590.96 448.95,590.89 447.59,590.79 446.23,590.64 444.88,590.44 443.53,590.21 442.19,589.93 440.86,589.61 439.54,589.25 438.24,588.85 436.94,588.41 435.67,587.93 434.40,587.40 433.16,586.84 431.93,586.24 430.72,585.60 429.54,584.92 428.37,584.21 427.23,583.46 426.11,582.67 425.02,581.85 423.95,581.00 422.91,580.11 421.90,579.19 420.92,578.24 419.97,577.26 419.05,576.25 418.16,575.21 417.31,574.14 416.49,573.05 415.70,571.93 414.95,570.79 414.24,569.62 413.56,568.44 412.92,567.23 412.32,566.00 411.76,564.76 411.23,563.49 410.75,562.22 410.31,560.92 409.91,559.62 409.55,558.30 409.23,556.97 408.95,555.63 408.72,554.28 408.52,552.93 408.37,551.57 408.27,550.21 408.20,548.85 408.18,547.48 408.20,546.11 408.27,544.75 408.37,543.39 408.52,542.03 408.72,540.68 408.95,539.33 409.23,537.99 409.55,536.66 409.91,535.34 410.31,534.04 410.75,532.74 411.23,531.47 411.76,530.20 412.32,528.96 412.92,527.73 413.56,526.52 414.24,525.34 414.95,524.17 415.70,523.03 416.49,521.91 417.31,520.82 418.16,519.75 419.05,518.71 419.97,517.70 420.92,516.72 421.90,515.77 422.91,514.85 423.95,513.96 425.02,513.11 426.11,512.29 427.23,511.50 428.37,510.75 429.54,510.04 430.72,509.36 431.93,508.72 433.16,508.12 434.40,507.56 435.67,507.03 436.94,506.55 438.24,506.11 439.54,505.71 440.86,505.35 442.19,505.03 443.53,504.75 444.88,504.52 446.23,504.32 447.59,504.17 448.95,504.07 450.31,504.00 451.68,503.98 453.05,504.00 454.41,504.07 455.77,504.17 457.13,504.32 458.48,504.52 459.83,504.75 461.17,505.03 462.50,505.35 463.82,505.71 465.12,506.11 466.42,506.55 467.69,507.03 468.96,507.56 470.20,508.12 471.43,508.72 472.64,509.36 473.82,510.04 474.99,510.75 476.13,511.50 477.25,512.29 478.34,513.11 479.41,513.96 480.45,514.85 481.46,515.77 482.44,516.72 483.39,517.70 484.31,518.71 485.20,519.75 486.05,520.82 486.87,521.91 487.66,523.03 488.41,524.17 489.12,525.34 489.80,526.52 490.44,527.73 491.04,528.96 491.60,530.20 492.13,531.47 492.61,532.74 493.05,534.04 493.45,535.34 493.81,536.66 494.13,537.99 494.41,539.33 494.64,540.68 494.84,542.03 494.99,543.39 495.09,544.75 495.16,546.11 495.18,547.48" /><polyline points="499.68,547.48 499.66,548.99 499.59,550.49 499.47,552.00 499.30,553.50 499.09,554.99 498.83,556.47 498.52,557.95 498.17,559.42 497.77,560.87 497.33,562.31 496.84,563.74 496.31,565.15 495.73,566.54 495.11,567.92 494.45,569.27 493.74,570.60 493.00,571.91 492.21,573.20 491.38,574.46 490.51,575.69 489.61,576.90 488.66,578.08 487.69,579.22 486.67,580.34 485.62,581.42 484.54,582.47 483.42,583.49 482.28,584.46 481.10,585.41 479.89,586.31 478.66,587.18 477.40,588.01 476.11,588.80 474.80,589.54 473.47,590.25 472.12,590.91 470.74,591.53 469.35,592.11 467.94,592.64 466.51,593.13 465.07,593.57 463.62,593.97 462.15,594.32 460.67,594.63 459.19,594.89 457.70,595.10 456.20,595.27 454.69,595.39 453.19,595.46 451.68,595.48 450.17,595.46 448.67,595.39 447.16,595.27 445.66,595.10 444.17,594.89 442.69,594.63 441.21,594.32 439.74,593.97 438.29,593.57 436.85,593.13 435.42,592.64 434.01,592.11 432.62,591.53 431.24,590.91 429.89,590.25 428.56,589.54 427.25,588.80 425.96,588.01 424.70,587.18 423.47,586.31 422.26,585.41 421.08,584.46 419.94,583.49 418.82,582.47 417.74,581.42 416.69,580.34 415.67,579.22 414.70,578.08 413.75,576.90 412.85,575.69 411.98,574.46 411.15,573.20 410.36,571.91 409.62,570.60 408.91,569.27 408.25,567.92 407.63,566.54 407.05,565.15 406.52,563.74 406.03,562.31 405.59,560.87 405.19,559.42 404.84,557.95 404.53,556.47 404.27,554.99 404.06,553.50 403.89,552.00 403.77,550.49 403.70,548.99 403.68,547.48 403.70,545.97 403.77,544.47 403.89,542.96 404.06,541.46 404.27,539.97 404.53,538.49 404.84,537.01 405.19,535.54 405.59,534.09 406.03,532.65 406.52,531.22 407.05,529.81 407.63,528.42 408.25,527.04 408.91,525.69 409.62,524.36 410.36,523.05 411.15,521.76 411.98,520.50 412.85,519.27 413.75,518.06 414.70,516.88 415.67,515.74 416.69,514.62 417.74,513.54 418.82,512.49 419.94,511.47 421.08,510.50 422.26,509.55 423.47,508.65 424.70,507.78 425.96,506.95 427.25,506.16 428.56,505.42 429.89,504.71 431.24,504.05 432.62,503.43 434.01,502.85 435.42,502.32 436.85,501.83 438.29,501.39 439.74,500.99 441.21,500.64 442.69,500.33 444.17,500.07 445.66,499.86 447.16,499.69 448.67,499.57 450.17,499.50 451.68,499.48 453.19,499.50 454.69,499.57 456.20,499.69 457.70,499.86 459.19,500.07 460.67,500.33 462.15,500.64 463.62,500.99 465.07,501.39 466.51,501.83 467.94,502.32 469.35,502.85 470.74,503.43 472.12,504.05 473.47,504.71 474.80,505.42 476.11,506.16 477.40,506.95 478.66,507.78 479.89,508.65 481.10,509.55 482.28,510.50 483.42,511.47 484.54,512.49 485.62,513.54 486.67,514.62 487.69,515.74 488.66,516.88 489.61,518.06 490.51,519.27 491.38,520.50 492.21,521.76 493.00,523.05 493.74,524.36 494.45,525.69 495.11,527.04 495.73,528.42 496.31,529.81 496.84,531.22 497.33,532.65 497.77,534.09 498.17,535.54 498.52,537.01 498.83,538.49 499.09,539.97 499.30,541.46 499.47,542.96 499.59,544.47 499.66,545.97 499.68,547.48" /><polyline points="505.68,547.48 505.65,549.18 505.57,550.87 505.44,552.56 505.25,554.25 505.02,555.93 504.72,557.60 504.38,559.26 503.98,560.91 503.54,562.55 503.04,564.17 502.49,565.77 501.89,567.36 501.24,568.93 500.54,570.47 499.79,572.00 499.00,573.49 498.16,574.97 497.27,576.41 496.34,577.83 495.37,579.22 494.35,580.58 493.29,581.90 492.19,583.19 491.04,584.45 489.86,585.66 488.65,586.84 487.39,587.99 486.10,589.09 484.78,590.15 483.42,591.17 482.03,592.14 480.61,593.07 479.17,593.96 477.69,594.80 476.20,595.59 474.67,596.34 473.13,597.04 471.56,597.69 469.97,598.29 468.37,598.84 466.75,599.34 465.11,599.78 463.46,600.18 461.80,600.52 460.13,600.82 458.45,601.05 456.76,601.24 455.07,601.37 453.38,601.45 451.68,601.48 449.98,601.45 448.29,601.37 446.60,601.24 444.91,601.05 443.23,600.82 441.56,600.52 439.90,600.18 438.25,599.78 436.61,599.34 434.99,598.84 433.39,598.29 431.80,597.69 430.23,597.04 428.69,596.34 427.16,595.59 425.67,594.80 424.19,593.96 422.75,593.07 421.33,592.14 419.94,591.17 418.58,590.15 417.26,589.09 415.97,587.99 414.71,586.84 413.50,585.66 412.32,584.45 411.17,583.19 410.07,581.90 409.01,580.58 407.99,579.22 407.02,577.83 406.09,576.41 405.20,574.97 404.36,573.49 403.57,572.00 402.82,570.47 402.12,568.93 401.47,567.36 400.87,565.77 400.32,564.17 399.82,562.55 399.38,560.91 398.98,559.26 398.64,557.60 398.34,555.93 398.11,554.25 397.92,552.56 397.79,550.87 397.71,549.18 397.68,547.48 397.71,545.78 397.79,544.09 397.92,542.40 398.11,540.71 398.34,539.03 398.64,537.36 398.98,535.70 399.38,534.05 399.82,532.41 400.32,530.79 400.87,529.19 401.47,527.60 402.12,526.03 402.82,524.49 403.57,522.96 404.36,521.47 405.20,519.99 406.09,518.55 407.02,517.13 407.99,515.74 409.01,514.38 410.07,513.06 411.17,511.77 412.32,510.51 413.50,509.30 414.71,508.12 415.97,506.97 417.26,505.87 418.58,504.81 419.94,503.79 421.33,502.82 422.75,501.89 424.19,501.00 425.67,500.16 427.16,499.37 428.69,498.62 430.23,497.92 431.80,497.27 433.39,496.67 434.99,496.12 436.61,495.62 438.25,495.18 439.90,494.78 441.56,494.44 443.23,494.14 444.91,493.91 446.60,493.72 448.29,493.59 449.98,493.51 451.68,493.48 453.38,493.51 455.07,493.59 456.76,493.72 458.45,493.91 460.13,494.14 461.80,494.44 463.46,494.78 465.11,495.18 466.75,495.62 468.37,496.12 469.97,496.67 471.56,497.27 473.13,497.92 474.67,498.62 476.20,499.37 477.69,500.16 479.17,501.00 480.61,501.89 482.03,502.82 483.42,503.79 484.78,504.81 486.10,505.87 487.39,506.97 488.65,508.12 489.86,509.30 491.04,510.51 492.19,511.77 493.29,513.06 494.35,514.38 495.37,515.74 496.34,517.13 497.27,518.55 498.16,519.99 499.00,521.47 499.79,522.96 500.54,524.49 501.24,526.03 501.89,527.60 502.49,529.19 503.04,530.79 503.54,532.41 503.98,534.05 504.38,535.70 504.72,537.36 505.02,539.03 505.25,540.71 505.44,542.40 505.57,544.09 505.65,545.78 505.68,547.48" /><polyline points="511.68,547.48 511.65,549.36 511.56,551.25 511.41,553.13 511.21,555.00 510.94,556.87 510.62,558.72 510.24,560.57 509.79,562.40 509.30,564.22 508.74,566.02 508.13,567.80 507.47,569.57 506.75,571.31 505.97,573.03 505.14,574.72 504.26,576.39 503.32,578.02 502.34,579.63 501.30,581.21 500.22,582.75 499.09,584.25 497.91,585.73 496.69,587.16 495.42,588.55 494.11,589.91 492.75,591.22 491.36,592.49 489.93,593.71 488.45,594.89 486.95,596.02 485.41,597.10 483.83,598.14 482.22,599.12 480.59,600.06 478.92,600.94 477.23,601.77 475.51,602.55 473.77,603.27 472.00,603.93 470.22,604.54 468.42,605.10 466.60,605.59 464.77,606.04 462.92,606.42 461.07,606.74 459.20,607.01 457.33,607.21 455.45,607.36 453.56,607.45 451.68,607.48 449.80,607.45 447.91,607.36 446.03,607.21 444.16,607.01 442.29,606.74 440.44,606.42 438.59,606.04 436.76,605.59 434.94,605.10 433.14,604.54 431.36,603.93 429.59,603.27 427.85,602.55 426.13,601.77 424.44,600.94 422.77,600.06 421.14,599.12 419.53,598.14 417.95,597.10 416.41,596.02 414.91,594.89 413.43,593.71 412.00,592.49 410.61,591.22 409.25,589.91 407.94,588.55 406.67,587.16 405.45,585.73 404.27,584.25 403.14,582.75 402.06,581.21 401.02,579.63 400.04,578.02 399.10,576.39 398.22,574.72 397.39,573.03 396.61,571.31 395.89,569.57 395.23,567.80 394.62,566.02 394.06,564.22 393.57,562.40 393.12,560.57 392.74,558.72 392.42,556.87 392.15,555.00 391.95,553.13 391.80,551.25 391.71,549.36 391.68,547.48 391.71,545.60 391.80,543.71 391.95,541.83 392.15,539.96 392.42,538.09 392.74,536.24 393.12,534.39 393.57,532.56 394.06,530.74 394.62,528.94 395.23,527.16 395.89,525.39 396.61,523.65 397.39,521.93 398.22,520.24 399.10,518.57 400.04,516.94 401.02,515.33 402.06,513.75 403.14,512.21 404.27,510.71 405.45,509.23 406.67,507.80 407.94,506.41 409.25,505.05 410.61,503.74 412.00,502.47 413.43,501.25 414.91,500.07 416.41,498.94 417.95,497.86 419.53,496.82 421.14,495.84 422.77,494.90 424.44,494.02 426.13,493.19 427.85,492.41 429.59,491.69 431.36,491.03 433.14,490.42 434.94,489.86 436.76,489.37 438.59,488.92 440.44,488.54 442.29,488.22 444.16,487.95 446.03,487.75 447.91,487.60 449.80,487.51 451.68,487.48 453.56,487.51 455.45,487.60 457.33,487.75 459.20,487.95 461.07,488.22 462.92,488.54 464.77,488.92 466.60,489.37 468.42,489.86 470.22,490.42 472.00,491.03 473.77,491.69 475.51,492.41 477.23,493.19 478.92,494.02 480.59,494.90 482.22,495.84 483.83,496.82 485.41,497.86 486.95,498.94 488.45,500.07 489.93,501.25 491.36,502.47 492.75,503.74 494.11,505.05 495.42,506.41 496.69,507.80 497.91,509.23 499.09,510.71 500.22,512.21 501.30,513.75 502.34,515.33 503.32,516.94 504.26,518.57 505.14,520.24 505.97,521.93 506.75,523.65 507.47,525.39 508.13,527.16 508.74,528.94 509.30,530.74 509.79,532.56 510.24,534.39 510.62,536.24 510.94,538.09 511.21,539.96 511.41,541.83 511.56,543.71 511.65,545.60 511.68,547.48" /><polyline points="517.68,547.48 517.65,549.55 517.55,551.62 517.39,553.69 517.16,555.75 516.87,557.80 516.51,559.85 516.09,561.88 515.61,563.89 515.06,565.89 514.45,567.88 513.78,569.84 513.05,571.78 512.25,573.69 511.40,575.58 510.49,577.44 509.52,579.28 508.49,581.08 507.41,582.84 506.27,584.58 505.08,586.27 503.83,587.93 502.53,589.55 501.19,591.13 499.79,592.66 498.35,594.15 496.86,595.59 495.33,596.99 493.75,598.33 492.13,599.63 490.47,600.88 488.78,602.07 487.04,603.21 485.28,604.29 483.48,605.32 481.64,606.29 479.78,607.20 477.89,608.05 475.98,608.85 474.04,609.58 472.08,610.25 470.09,610.86 468.09,611.41 466.08,611.89 464.05,612.31 462.00,612.67 459.95,612.96 457.89,613.19 455.82,613.35 453.75,613.45 451.68,613.48 449.61,613.45 447.54,613.35 445.47,613.19 443.41,612.96 441.36,612.67 439.31,612.31 437.28,611.89 435.27,611.41 433.27,610.86 431.28,610.25 429.32,609.58 427.38,608.85 425.47,608.05 423.58,607.20 421.72,606.29 419.88,605.32 418.08,604.29 416.32,603.21 414.58,602.07 412.89,600.88 411.23,599.63 409.61,598.33 408.03,596.99 406.50,595.59 405.01,594.15 403.57,592.66 402.17,591.13 400.83,589.55 399.53,587.93 398.28,586.27 397.09,584.58 395.95,582.84 394.87,581.08 393.84,579.28 392.87,577.44 391.96,575.58 391.11,573.69 390.31,571.78 389.58,569.84 388.91,567.88 388.30,565.89 387.75,563.89 387.27,561.88 386.85,559.85 386.49,557.80 386.20,555.75 385.97,553.69 385.81,551.62 385.71,549.55 385.68,547.48 385.71,545.41 385.81,543.34 385.97,541.27 386.20,539.21 386.49,537.16 386.85,535.11 387.27,533.08 387.75,531.07 388.30,529.07 388.91,527.08 389.58,525.12 390.31,523.18 391.11,521.27 391.96,519.38 392.87,517.52 393.84,515.68 394.87,513.88 395.95,512.12 397.09,510.38 398.28,508.69 399.53,507.03 400.83,505.41 402.17,503.83 403.57,502.30 405.01,500.81 406.50,499.37 408.03,497.97 409.61,496.63 411.23,495.33 412.89,494.08 414.58,492.89 416.32,491.75 418.08,490.67 419.88,489.64 421.72,488.67 423.58,487.76 425.47,486.91 427.38,486.11 429.32,485.38 431.28,484.71 433.27,484.10 435.27,483.55 437.28,483.07 439.31,482.65 441.36,482.29 443.41,482.00 445.47,481.77 447.54,481.61 449.61,481.51 451.68,481.48 453.75,481.51 455.82,481.61 457.89,481.77 459.95,482.00 462.00,482.29 464.05,482.65 466.08,483.07 468.09,483.55 470.09,484.10 472.08,484.71 474.04,485.38 475.98,486.11 477.89,486.91 479.78,487.76 481.64,488.67 483.48,489.64 485.28,490.67 487.04,491.75 488.78,492.89 490.47,494.08 492.13,495.33 493.75,496.63 495.33,497.97 496.86,499.37 498.35,500.81 499.79,502.30 501.19,503.83 502.53,505.41 503.83,507.03 505.08,508.69 506.27,510.38 507.41,512.12 508.49,513.88 509.52,515.68 510.49,517.52 511.40,519.38 512.25,521.27 513.05,523.18 513.78,525.12 514.45,527.08 515.06,529.07 515.61,531.07 516.09,533.08 516.51,535.11 516.87,537.16 517.16,539.21 517.39,541.27 517.55,543.34 517.65,545.41 517.68,547.48" /><polyline points="523.68,547.48 523.64,549.74 523.54,552.00 523.36,554.26 523.11,556.50 522.79,558.74 522.40,560.97 521.95,563.19 521.42,565.39 520.82,567.57 520.16,569.73 519.42,571.87 518.62,573.98 517.76,576.07 516.83,578.14 515.83,580.17 514.77,582.17 513.65,584.13 512.47,586.06 511.23,587.95 509.93,589.80 508.57,591.61 507.16,593.37 505.69,595.09 504.17,596.77 502.59,598.39 500.97,599.97 499.29,601.49 497.57,602.96 495.81,604.37 494.00,605.73 492.15,607.03 490.26,608.27 488.33,609.45 486.37,610.57 484.37,611.63 482.34,612.63 480.27,613.56 478.18,614.42 476.07,615.22 473.93,615.96 471.77,616.62 469.59,617.22 467.39,617.75 465.17,618.20 462.94,618.59 460.70,618.91 458.46,619.16 456.20,619.34 453.94,619.44 451.68,619.48 449.42,619.44 447.16,619.34 444.90,619.16 442.66,618.91 440.42,618.59 438.19,618.20 435.97,617.75 433.77,617.22 431.59,616.62 429.43,615.96 427.29,615.22 425.18,614.42 423.09,613.56 421.02,612.63 418.99,611.63 416.99,610.57 415.03,609.45 413.10,608.27 411.21,607.03 409.36,605.73 407.55,604.37 405.79,602.96 404.07,601.49 402.39,599.97 400.77,598.39 399.19,596.77 397.67,595.09 396.20,593.37 394.79,591.61 393.43,589.80 392.13,587.95 390.89,586.06 389.71,584.13 388.59,582.17 387.53,580.17 386.53,578.14 385.60,576.07 384.74,573.98 383.94,571.87 383.20,569.73 382.54,567.57 381.94,565.39 381.41,563.19 380.96,560.97 380.57,558.74 380.25,556.50 380.00,554.26 379.82,552.00 379.72,549.74 379.68,547.48 379.72,545.22 379.82,542.96 380.00,540.70 380.25,538.46 380.57,536.22 380.96,533.99 381.41,531.77 381.94,529.57 382.54,527.39 383.20,525.23 383.94,523.09 384.74,520.98 385.60,518.89 386.53,516.82 387.53,514.79 388.59,512.79 389.71,510.83 390.89,508.90 392.13,507.01 393.43,505.16 394.79,503.35 396.20,501.59 397.67,499.87 399.19,498.19 400.77,496.57 402.39,494.99 404.07,493.47 405.79,492.00 407.55,490.59 409.36,489.23 411.21,487.93 413.10,486.69 415.03,485.51 416.99,484.39 418.99,483.33 421.02,482.33 423.09,481.40 425.18,480.54 427.29,479.74 429.43,479.00 431.59,478.34 433.77,477.74 435.97,477.21 438.19,476.76 440.42,476.37 442.66,476.05 444.90,475.80 447.16,475.62 449.42,475.52 451.68,475.48 453.94,475.52 456.20,475.62 458.46,475.80 460.70,476.05 462.94,476.37 465.17,476.76 467.39,477.21 469.59,477.74 471.77,478.34 473.93,479.00 476.07,479.74 478.18,480.54 480.27,481.40 482.34,482.33 484.37,483.33 486.37,484.39 488.33,485.51 490.26,486.69 492.15,487.93 494.00,489.23 495.81,490.59 497.57,492.00 499.29,493.47 500.97,494.99 502.59,496.57 504.17,498.19 505.69,499.87 507.16,501.59 508.57,503.35 509.93,505.16 511.23,507.01 512.47,508.90 513.65,510.83 514.77,512.79 515.83,514.79 516.83,516.82 517.76,518.89 518.62,520.98 519.42,523.09 520.16,525.23 520.82,527.39 521.42,529.57 521.95,531.77 522.40,533.99 522.79,536.22 523.11,538.46 523.36,540.70 523.54,542.96 523.64,545.22 523.68,547.48" /><polyline points="529.68,547.48 529.64,549.93 529.53,552.38 529.33,554.82 529.06,557.26 528.72,559.68 528.30,562.10 527.80,564.50 527.23,566.88 526.58,569.24 525.86,571.58 525.07,573.90 524.20,576.19 523.26,578.46 522.26,580.69 521.18,582.89 520.03,585.06 518.82,587.19 517.54,589.27 516.19,591.32 514.78,593.33 513.31,595.29 511.78,597.20 510.19,599.06 508.54,600.87 506.83,602.63 505.07,604.34 503.26,605.99 501.40,607.58 499.49,609.11 497.53,610.58 495.52,611.99 493.47,613.34 491.39,614.62 489.26,615.83 487.09,616.98 484.89,618.06 482.66,619.06 480.39,620.00 478.10,620.87 475.78,621.66 473.44,622.38 471.08,623.03 468.70,623.60 466.30,624.10 463.88,624.52 461.46,624.86 459.02,625.13 456.58,625.33 454.13,625.44 451.68,625.48 449.23,625.44 446.78,625.33 444.34,625.13 441.90,624.86 439.48,624.52 437.06,624.10 434.66,623.60 432.28,623.03 429.92,622.38 427.58,621.66 425.26,620.87 422.97,620.00 420.70,619.06 418.47,618.06 416.27,616.98 414.10,615.83 411.97,614.62 409.89,613.34 407.84,611.99 405.83,610.58 403.87,609.11 401.96,607.58 400.10,605.99 398.29,604.34 396.53,602.63 394.82,600.87 393.17,599.06 391.58,597.20 390.05,595.29 388.58,593.33 387.17,591.32 385.82,589.27 384.54,587.19 383.33,585.06 382.18,582.89 381.10,580.69 380.10,578.46 379.16,576.19 378.29,573.90 377.50,571.58 376.78,569.24 376.13,566.88 375.56,564.50 375.06,562.10 374.64,559.68 374.30,557.26 374.03,554.82 373.83,552.38 373.72,549.93 373.68,547.48 373.72,545.03 373.83,542.58 374.03,540.14 374.30,537.70 374.64,535.28 375.06,532.86 375.56,530.46 376.13,528.08 376.78,525.72 377.50,523.38 378.29,521.06 379.16,518.77 380.10,516.50 381.10,514.27 382.18,512.07 383.33,509.90 384.54,507.77 385.82,505.69 387.17,503.64 388.58,501.63 390.05,499.67 391.58,497.76 393.17,495.90 394.82,494.09 396.53,492.33 398.29,490.62 400.10,488.97 401.96,487.38 403.87,485.85 405.83,484.38 407.84,482.97 409.89,481.62 411.97,480.34 414.10,479.13 416.27,477.98 418.47,476.90 420.70,475.90 422.97,474.96 425.26,474.09 427.58,473.30 429.92,472.58 432.28,471.93 434.66,471.36 437.06,470.86 439.48,470.44 441.90,470.10 444.34,469.83 446.78,469.63 449.23,469.52 451.68,469.48 454.13,469.52 456.58,469.63 459.02,469.83 461.46,470.10 463.88,470.44 466.30,470.86 468.70,471.36 471.08,471.93 473.44,472.58 475.78,473.30 478.10,474.09 480.39,474.96 482.66,475.90 484.89,476.90 487.09,477.98 489.26,479.13 491.39,480.34 493.47,481.62 495.52,482.97 497.53,484.38 499.49,485.85 501.40,487.38 503.26,488.97 505.07,490.62 506.83,492.33 508.54,494.09 510.19,495.90 511.78,497.76 513.31,499.67 514.78,501.63 516.19,503.64 517.54,505.69 518.82,507.77 520.03,509.90 521.18,512.07 522.26,514.27 523.26,516.50 524.20,518.77 525.07,521.06 525.86,523.38 526.58,525.72 527.23,528.08 527.80,530.46 528.30,532.86 528.72,535.28 529.06,537.70 529.33,540.14 529.53,542.58 529.64,545.03 529.68,547.48" /><polyline points="535.68,547.48 535.64,550.12 535.51,552.75 535.31,555.39 535.02,558.01 534.65,560.62 534.19,563.22 533.66,565.80 533.04,568.37 532.34,570.92 531.57,573.44 530.71,575.93 529.78,578.40 528.77,580.84 527.69,583.25 526.52,585.62 525.29,587.95 523.98,590.24 522.60,592.49 521.15,594.70 519.64,596.85 518.05,598.96 516.40,601.02 514.69,603.03 512.91,604.98 511.08,606.88 509.18,608.71 507.23,610.49 505.22,612.20 503.16,613.85 501.05,615.44 498.90,616.95 496.69,618.40 494.44,619.78 492.15,621.09 489.82,622.32 487.45,623.49 485.04,624.57 482.60,625.58 480.13,626.51 477.64,627.37 475.12,628.14 472.57,628.84 470.00,629.46 467.42,629.99 464.82,630.45 462.21,630.82 459.59,631.11 456.95,631.31 454.32,631.44 451.68,631.48 449.04,631.44 446.41,631.31 443.77,631.11 441.15,630.82 438.54,630.45 435.94,629.99 433.36,629.46 430.79,628.84 428.24,628.14 425.72,627.37 423.23,626.51 420.76,625.58 418.32,624.57 415.91,623.49 413.54,622.32 411.21,621.09 408.92,619.78 406.67,618.40 404.46,616.95 402.31,615.44 400.20,613.85 398.14,612.20 396.13,610.49 394.18,608.71 392.28,606.88 390.45,604.98 388.67,603.03 386.96,601.02 385.31,598.96 383.72,596.85 382.21,594.70 380.76,592.49 379.38,590.24 378.07,587.95 376.84,585.62 375.67,583.25 374.59,580.84 373.58,578.40 372.65,575.93 371.79,573.44 371.02,570.92 370.32,568.37 369.70,565.80 369.17,563.22 368.71,560.62 368.34,558.01 368.05,555.39 367.85,552.75 367.72,550.12 367.68,547.48 367.72,544.84 367.85,542.21 368.05,539.57 368.34,536.95 368.71,534.34 369.17,531.74 369.70,529.16 370.32,526.59 371.02,524.04 371.79,521.52 372.65,519.03 373.58,516.56 374.59,514.12 375.67,511.71 376.84,509.34 378.07,507.01 379.38,504.72 380.76,502.47 382.21,500.26 383.72,498.11 385.31,496.00 386.96,493.94 388.67,491.93 390.45,489.98 392.28,488.08 394.18,486.25 396.13,484.47 398.14,482.76 400.20,481.11 402.31,479.52 404.46,478.01 406.67,476.56 408.92,475.18 411.21,473.87 413.54,472.64 415.91,471.47 418.32,470.39 420.76,469.38 423.23,468.45 425.72,467.59 428.24,466.82 430.79,466.12 433.36,465.50 435.94,464.97 438.54,464.51 441.15,464.14 443.77,463.85 446.41,463.65 449.04,463.52 451.68,463.48 454.32,463.52 456.95,463.65 459.59,463.85 462.21,464.14 464.82,464.51 467.42,464.97 470.00,465.50 472.57,466.12 475.12,466.82 477.64,467.59 480.13,468.45 482.60,469.38 485.04,470.39 487.45,471.47 489.82,472.64 492.15,473.87 494.44,475.18 496.69,476.56 498.90,478.01 501.05,479.52 503.16,481.11 505.22,482.76 507.23,484.47 509.18,486.25 511.08,488.08 512.91,489.98 514.69,491.93 516.40,493.94 518.05,496.00 519.64,498.11 521.15,500.26 522.60,502.47 523.98,504.72 525.29,507.01 526.52,509.34 527.69,511.71 528.77,514.12 529.78,516.56 530.71,519.03 531.57,521.52 532.34,524.04 533.04,526.59 533.66,529.16 534.19,531.74 534.65,534.34 535.02,536.95 535.31,539.57 535.51,542.21 535.64,544.84 535.68,547.48" /><polyline points="541.68,547.48 541.64,550.31 541.50,553.13 541.28,555.95 540.97,558.76 540.57,561.56 540.09,564.34 539.51,567.11 538.85,569.86 538.11,572.59 537.28,575.29 536.36,577.97 535.36,580.61 534.28,583.22 533.11,585.80 531.87,588.34 530.55,590.84 529.15,593.29 527.67,595.70 526.12,598.07 524.49,600.38 522.79,602.64 521.03,604.85 519.19,607.00 517.29,609.09 515.32,611.12 513.29,613.09 511.20,614.99 509.05,616.83 506.84,618.59 504.58,620.29 502.27,621.92 499.90,623.47 497.49,624.95 495.04,626.35 492.54,627.67 490.00,628.91 487.42,630.08 484.81,631.16 482.17,632.16 479.49,633.08 476.79,633.91 474.06,634.65 471.31,635.31 468.54,635.89 465.76,636.37 462.96,636.77 460.15,637.08 457.33,637.30 454.51,637.44 451.68,637.48 448.85,637.44 446.03,637.30 443.21,637.08 440.40,636.77 437.60,636.37 434.82,635.89 432.05,635.31 429.30,634.65 426.57,633.91 423.87,633.08 421.19,632.16 418.55,631.16 415.94,630.08 413.36,628.91 410.82,627.67 408.32,626.35 405.87,624.95 403.46,623.47 401.09,621.92 398.78,620.29 396.52,618.59 394.31,616.83 392.16,614.99 390.07,613.09 388.04,611.12 386.07,609.09 384.17,607.00 382.33,604.85 380.57,602.64 378.87,600.38 377.24,598.07 375.69,595.70 374.21,593.29 372.81,590.84 371.49,588.34 370.25,585.80 369.08,583.22 368.00,580.61 367.00,577.97 366.08,575.29 365.25,572.59 364.51,569.86 363.85,567.11 363.27,564.34 362.79,561.56 362.39,558.76 362.08,555.95 361.86,553.13 361.72,550.31 361.68,547.48 361.72,544.65 361.86,541.83 362.08,539.01 362.39,536.20 362.79,533.40 363.27,530.62 363.85,527.85 364.51,525.10 365.25,522.37 366.08,519.67 367.00,516.99 368.00,514.35 369.08,511.74 370.25,509.16 371.49,506.62 372.81,504.12 374.21,501.67 375.69,499.26 377.24,496.89 378.87,494.58 380.57,492.32 382.33,490.11 384.17,487.96 386.07,485.87 388.04,483.84 390.07,481.87 392.16,479.97 394.31,478.13 396.52,476.37 398.78,474.67 401.09,473.04 403.46,471.49 405.87,470.01 408.32,468.61 410.82,467.29 413.36,466.05 415.94,464.88 418.55,463.80 421.19,462.80 423.87,461.88 426.57,461.05 429.30,460.31 432.05,459.65 434.82,459.07 437.60,458.59 440.40,458.19 443.21,457.88 446.03,457.66 448.85,457.52 451.68,457.48 454.51,457.52 457.33,457.66 460.15,457.88 462.96,458.19 465.76,458.59 468.54,459.07 471.31,459.65 474.06,460.31 476.79,461.05 479.49,461.88 482.17,462.80 484.81,463.80 487.42,464.88 490.00,466.05 492.54,467.29 495.04,468.61 497.49,470.01 499.90,471.49 502.27,473.04 504.58,474.67 506.84,476.37 509.05,478.13 511.20,479.97 513.29,481.87 515.32,483.84 517.29,485.87 519.19,487.96 521.03,490.11 522.79,492.32 524.49,494.58 526.12,496.89 527.67,499.26 529.15,501.67 530.55,504.12 531.87,506.62 533.11,509.16 534.28,511.74 535.36,514.35 536.36,516.99 537.28,519.67 538.11,522.37 538.85,525.10 539.51,527.85 540.09,530.62 540.57,533.40 540.97,536.20 541.28,539.01 541.50,541.83 541.64,544.65 541.68,547.48" /><polyline points="550.68,547.48 550.63,550.59 550.48,553.70 550.24,556.80 549.90,559.89 549.46,562.97 548.93,566.03 548.30,569.08 547.57,572.10 546.75,575.10 545.83,578.07 544.83,581.02 543.73,583.92 542.54,586.80 541.26,589.63 539.89,592.43 538.43,595.17 536.89,597.88 535.27,600.53 533.56,603.13 531.77,605.67 529.91,608.16 527.96,610.58 525.94,612.95 523.85,615.25 521.68,617.48 519.45,619.65 517.15,621.74 514.78,623.76 512.36,625.71 509.87,627.57 507.33,629.36 504.73,631.07 502.08,632.69 499.37,634.23 496.63,635.69 493.83,637.06 491.00,638.34 488.12,639.53 485.22,640.63 482.27,641.63 479.30,642.55 476.30,643.37 473.28,644.10 470.23,644.73 467.17,645.26 464.09,645.70 461.00,646.04 457.90,646.28 454.79,646.43 451.68,646.48 448.57,646.43 445.46,646.28 442.36,646.04 439.27,645.70 436.19,645.26 433.13,644.73 430.08,644.10 427.06,643.37 424.06,642.55 421.09,641.63 418.14,640.63 415.24,639.53 412.36,638.34 409.53,637.06 406.73,635.69 403.99,634.23 401.28,632.69 398.63,631.07 396.03,629.36 393.49,627.57 391.00,625.71 388.58,623.76 386.21,621.74 383.91,619.65 381.68,617.48 379.51,615.25 377.42,612.95 375.40,610.58 373.45,608.16 371.59,605.67 369.80,603.13 368.09,600.53 366.47,597.88 364.93,595.17 363.47,592.43 362.10,589.63 360.82,586.80 359.63,583.92 358.53,581.02 357.53,578.07 356.61,575.10 355.79,572.10 355.06,569.08 354.43,566.03 353.90,562.97 353.46,559.89 353.12,556.80 352.88,553.70 352.73,550.59 352.68,547.48 352.73,544.37 352.88,541.26 353.12,538.16 353.46,535.07 353.90,531.99 354.43,528.93 355.06,525.88 355.79,522.86 356.61,519.86 357.53,516.89 358.53,513.94 359.63,511.04 360.82,508.16 362.10,505.33 363.47,502.53 364.93,499.79 366.47,497.08 368.09,494.43 369.80,491.83 371.59,489.29 373.45,486.80 375.40,484.38 377.42,482.01 379.51,479.71 381.68,477.48 383.91,475.31 386.21,473.22 388.58,471.20 391.00,469.25 393.49,467.39 396.03,465.60 398.63,463.89 401.28,462.27 403.99,460.73 406.73,459.27 409.53,457.90 412.36,456.62 415.24,455.43 418.14,454.33 421.09,453.33 424.06,452.41 427.06,451.59 430.08,450.86 433.13,450.23 436.19,449.70 439.27,449.26 442.36,448.92 445.46,448.68 448.57,448.53 451.68,448.48 454.79,448.53 457.90,448.68 461.00,448.92 464.09,449.26 467.17,449.70 470.23,450.23 473.28,450.86 476.30,451.59 479.30,452.41 482.27,453.33 485.22,454.33 488.12,455.43 491.00,456.62 493.83,457.90 496.63,459.27 499.37,460.73 502.08,462.27 504.73,463.89 507.33,465.60 509.87,467.39 512.36,469.25 514.78,471.20 517.15,473.22 519.45,475.31 521.68,477.48 523.85,479.71 525.94,482.01 527.96,484.38 529.91,486.80 531.77,489.29 533.56,491.83 535.27,494.43 536.89,497.08 538.43,499.79 539.89,502.53 541.26,505.33 542.54,508.16 543.73,511.04 544.83,513.94 545.83,516.89 546.75,519.86 547.57,522.86 548.30,525.88 548.93,528.93 549.46,531.99 549.90,535.07 550.24,538.16 550.48,541.26 550.63,544.37 550.68,547.48" /><polyline points="557.77,567.72 557.08,571.04 556.29,574.34 555.39,577.61 554.39,580.85 553.30,584.06 552.10,587.24 550.80,590.37 549.40,593.46 547.91,596.51 546.32,599.51 544.64,602.46 542.87,605.35 541.00,608.19 539.05,610.96 537.02,613.67 534.90,616.32 532.69,618.90 530.41,621.41 528.05,623.85 525.61,626.21 523.10,628.49 520.52,630.70 517.87,632.82 515.16,634.85 512.39,636.80 509.55,638.67 506.66,640.44 503.71,642.12 500.71,643.71 497.66,645.20 494.57,646.60 491.44,647.90 488.26,649.10 485.05,650.19 481.81,651.19 478.54,652.09 475.24,652.88 471.92,653.57 468.57,654.15 465.22,654.63 461.84,655.00 458.46,655.27 455.07,655.43 451.68,655.48 448.29,655.43 444.90,655.27 441.52,655.00 438.14,654.63 434.79,654.15 431.44,653.57 428.12,652.88 424.82,652.09 421.55,651.19 418.31,650.19 415.10,649.10 411.92,647.90 408.79,646.60 405.70,645.20 402.65,643.71 399.65,642.12 396.70,640.44 393.81,638.67 390.97,636.80 388.20,634.85 385.49,632.82 382.84,630.70 380.26,628.49 377.75,626.21 375.31,623.85 372.95,621.41 370.67,618.90 368.46,616.32 366.34,613.67 364.31,610.96 362.36,608.19 360.49,605.35 358.72,602.46 357.04,599.51 355.45,596.51 353.96,593.46 352.56,590.37 351.26,587.24 350.06,584.06 348.97,580.85 347.97,577.61 347.07,574.34 346.28,571.04 345.59,567.72 345.01,564.37 344.53,561.02 344.16,557.64 343.89,554.26 343.73,550.87 343.68,547.48 343.73,544.09 343.89,540.70 344.16,537.32 344.53,533.94 345.01,530.59 345.59,527.24 346.28,523.92 347.07,520.62 347.97,517.35 348.97,514.11 350.06,510.90 351.26,507.72 352.56,504.59 353.96,501.50 355.45,498.45 357.04,495.45 358.72,492.50 360.49,489.61 362.36,486.77 364.31,484.00 366.34,481.29 368.46,478.64 370.67,476.06 372.95,473.55 375.31,471.11 377.75,468.75 380.26,466.47 382.84,464.26 385.49,462.14 388.20,460.11 390.97,458.16 393.81,456.29 396.70,454.52 399.65,452.84 402.65,451.25 405.70,449.76 408.79,448.36 411.92,447.06 415.10,445.86 418.31,444.77 421.55,443.77 424.82,442.87 428.12,442.08 431.44,441.39 434.79,440.81 438.14,440.33 441.52,439.96 444.90,439.69 448.29,439.53 451.68,439.48 455.07,439.53 458.46,439.69 461.84,439.96 465.22,440.33 468.57,440.81 471.92,441.39 475.24,442.08 478.54,442.87 481.81,443.77 485.05,444.77 488.26,445.86 491.44,447.06 494.57,448.36 497.66,449.76 500.71,451.25 503.71,452.84 506.66,454.52 509.55,456.29 512.39,458.16 515.16,460.11 517.87,462.14 520.52,464.26 523.10,466.47 525.61,468.75 528.05,471.11 530.41,473.55 532.69,476.06 534.90,478.64 537.02,481.29 539.05,484.00 541.00,486.77 542.87,489.61 544.64,492.50 546.32,495.45 547.91,498.45 549.40,501.50 550.80,504.59 552.10,507.72 553.30,510.90 554.39,514.11 555.39,517.35 556.29,520.62 557.08,523.92 557.77,527.24" /><polyline points="557.54,597.30 555.93,600.60 554.21,603.85 552.39,607.04 550.47,610.17 548.45,613.24 546.33,616.25 544.13,619.19 541.83,622.06 539.44,624.85 536.97,627.57 534.41,630.21 531.77,632.77 529.05,635.24 526.26,637.63 523.39,639.93 520.45,642.13 517.44,644.25 514.37,646.27 511.24,648.19 508.05,650.01 504.80,651.73 501.50,653.34 498.15,654.86 494.75,656.26 491.31,657.56 487.83,658.75 484.32,659.83 480.78,660.80 477.20,661.66 473.60,662.41 469.98,663.04 466.34,663.56 462.69,663.96 459.03,664.25 455.36,664.42 451.68,664.48 448.00,664.42 444.33,664.25 440.67,663.96 437.02,663.56 433.38,663.04 429.76,662.41 426.16,661.66 422.58,660.80 419.04,659.83 415.53,658.75 412.05,657.56 408.61,656.26 405.21,654.86 401.86,653.34 398.56,651.73 395.31,650.01 392.12,648.19 388.99,646.27 385.92,644.25 382.91,642.13 379.97,639.93 377.10,637.63 374.31,635.24 371.59,632.77 368.95,630.21 366.39,627.57 363.92,624.85 361.53,622.06 359.23,619.19 357.03,616.25 354.91,613.24 352.89,610.17 350.97,607.04 349.15,603.85 347.43,600.60 345.82,597.30 344.30,593.95 342.90,590.55 341.60,587.11 340.41,583.63 339.33,580.12 338.36,576.58 337.50,573.00 336.75,569.40 336.12,565.78 335.60,562.14 335.20,558.49 334.91,554.83 334.74,551.16 334.68,547.48 334.74,543.80 334.91,540.13 335.20,536.47 335.60,532.82 336.12,529.18 336.75,525.56 337.50,521.96 338.36,518.38 339.33,514.84 340.41,511.33 341.60,507.85 342.90,504.41 344.30,501.01 345.82,497.66 347.43,494.36 349.15,491.11 350.97,487.92 352.89,484.79 354.91,481.72 357.03,478.71 359.23,475.77 361.53,472.90 363.92,470.11 366.39,467.39 368.95,464.75 371.59,462.19 374.31,459.72 377.10,457.33 379.97,455.03 382.91,452.83 385.92,450.71 388.99,448.69 392.12,446.77 395.31,444.95 398.56,443.23 401.86,441.62 405.21,440.10 408.61,438.70 412.05,437.40 415.53,436.21 419.04,435.13 422.58,434.16 426.16,433.30 429.76,432.55 433.38,431.92 437.02,431.40 440.67,431.00 444.33,430.71 448.00,430.54 451.68,430.48 455.36,430.54 459.03,430.71 462.69,431.00 466.34,431.40 469.98,431.92 473.60,432.55 477.20,433.30 480.78,434.16 484.32,435.13 487.83,436.21 491.31,437.40 494.75,438.70 498.15,440.10 501.50,441.62 504.80,443.23 508.05,444.95 511.24,446.77 514.37,448.69 517.44,450.71 520.45,452.83 523.39,455.03 526.26,457.33 529.05,459.72 531.77,462.19 534.41,464.75 536.97,467.39 539.44,470.11 541.83,472.90 544.13,475.77 546.33,478.71 548.45,481.72 550.47,484.79 552.39,487.92 554.21,491.11 555.93,494.36 557.54,497.66" /><polyline points="555.89,618.30 553.62,621.54 551.24,624.71 548.76,627.80 546.19,630.81 543.53,633.73 540.78,636.58 537.93,639.33 535.01,641.99 532.00,644.56 528.91,647.04 525.74,649.42 522.50,651.69 519.19,653.87 515.82,655.93 512.38,657.89 508.88,659.75 505.33,661.49 501.72,663.12 498.06,664.63 494.36,666.03 490.62,667.31 486.83,668.48 483.01,669.52 479.17,670.45 475.29,671.25 471.39,671.93 467.47,672.49 463.54,672.92 459.59,673.23 455.64,673.42 451.68,673.48 447.72,673.42 443.77,673.23 439.82,672.92 435.89,672.49 431.97,671.93 428.07,671.25 424.19,670.45 420.35,669.52 416.53,668.48 412.74,667.31 409.00,666.03 405.30,664.63 401.64,663.12 398.03,661.49 394.48,659.75 390.98,657.89 387.54,655.93 384.17,653.87 380.86,651.69 377.62,649.42 374.45,647.04 371.36,644.56 368.35,641.99 365.43,639.33 362.58,636.58 359.83,633.73 357.17,630.81 354.60,627.80 352.12,624.71 349.74,621.54 347.47,618.30 345.29,614.99 343.23,611.62 341.27,608.18 339.41,604.68 337.67,601.13 336.04,597.52 334.53,593.86 333.13,590.16 331.85,586.42 330.68,582.63 329.64,578.81 328.71,574.97 327.91,571.09 327.23,567.19 326.67,563.27 326.24,559.34 325.93,555.39 325.74,551.44 325.68,547.48 325.74,543.52 325.93,539.57 326.24,535.62 326.67,531.69 327.23,527.77 327.91,523.87 328.71,519.99 329.64,516.15 330.68,512.33 331.85,508.54 333.13,504.80 334.53,501.10 336.04,497.44 337.67,493.83 339.41,490.28 341.27,486.78 343.23,483.34 345.29,479.97 347.47,476.66 349.74,473.42 352.12,470.25 354.60,467.16 357.17,464.15 359.83,461.23 362.58,458.38 365.43,455.63 368.35,452.97 371.36,450.40 374.45,447.92 377.62,445.54 380.86,443.27 384.17,441.09 387.54,439.03 390.98,437.07 394.48,435.21 398.03,433.47 401.64,431.84 405.30,430.33 409.00,428.93 412.74,427.65 416.53,426.48 420.35,425.44 424.19,424.51 428.07,423.71 431.97,423.03 435.89,422.47 439.82,422.04 443.77,421.73 447.72,421.54 451.68,421.48 455.64,421.54 459.59,421.73 463.54,422.04 467.47,422.47 471.39,423.03 475.29,423.71 479.17,424.51 483.01,425.44 486.83,426.48 490.62,427.65 494.36,428.93 498.06,430.33 501.72,431.84 505.33,433.47 508.88,435.21 512.38,437.07 515.82,439.03 519.19,441.09 522.50,443.27 525.74,445.54 528.91,447.92 532.00,450.40 535.01,452.97 537.93,455.63 540.78,458.38 543.53,461.23 546.19,464.15 548.76,467.16 551.24,470.25 553.62,473.42 555.89,476.66" /><polyline points="555.70,633.53 552.94,636.76 550.09,639.89 547.14,642.94 544.09,645.89 540.96,648.74 537.73,651.50 534.42,654.15 531.03,656.70 527.56,659.14 524.02,661.46 520.40,663.68 516.72,665.78 512.97,667.77 509.16,669.63 505.29,671.38 501.38,673.00 497.41,674.50 493.40,675.87 489.34,677.12 485.25,678.24 481.13,679.23 476.98,680.09 472.80,680.82 468.60,681.42 464.38,681.88 460.16,682.21 455.92,682.41 451.68,682.48 447.44,682.41 443.20,682.21 438.98,681.88 434.76,681.42 430.56,680.82 426.38,680.09 422.23,679.23 418.11,678.24 414.02,677.12 409.96,675.87 405.95,674.50 401.98,673.00 398.07,671.38 394.20,669.63 390.39,667.77 386.64,665.78 382.96,663.68 379.34,661.46 375.80,659.14 372.33,656.70 368.94,654.15 365.63,651.50 362.40,648.74 359.27,645.89 356.22,642.94 353.27,639.89 350.42,636.76 347.66,633.53 345.01,630.22 342.46,626.83 340.02,623.36 337.70,619.82 335.48,616.20 333.38,612.52 331.39,608.77 329.53,604.96 327.78,601.09 326.16,597.18 324.66,593.21 323.29,589.20 322.04,585.14 320.92,581.05 319.93,576.93 319.07,572.78 318.34,568.60 317.74,564.40 317.28,560.18 316.95,555.96 316.75,551.72 316.68,547.48 316.75,543.24 316.95,539.00 317.28,534.78 317.74,530.56 318.34,526.36 319.07,522.18 319.93,518.03 320.92,513.91 322.04,509.82 323.29,505.76 324.66,501.75 326.16,497.78 327.78,493.87 329.53,490.00 331.39,486.19 333.38,482.44 335.48,478.76 337.70,475.14 340.02,471.60 342.46,468.13 345.01,464.74 347.66,461.43 350.42,458.20 353.27,455.07 356.22,452.02 359.27,449.07 362.40,446.22 365.63,443.46 368.94,440.81 372.33,438.26 375.80,435.82 379.34,433.50 382.96,431.28 386.64,429.18 390.39,427.19 394.20,425.33 398.07,423.58 401.98,421.96 405.95,420.46 409.96,419.09 414.02,417.84 418.11,416.72 422.23,415.73 426.38,414.87 430.56,414.14 434.76,413.54 438.98,413.08 443.20,412.75 447.44,412.55 451.68,412.48 455.92,412.55 460.16,412.75 464.38,413.08 468.60,413.54 472.80,414.14 476.98,414.87 481.13,415.73 485.25,416.72 489.34,417.84 493.40,419.09 497.41,420.46 501.38,421.96 505.29,423.58 509.16,425.33 512.97,427.19 516.72,429.18 520.40,431.28 524.02,433.50 527.56,435.82 531.03,438.26 534.42,440.81 537.73,443.46 540.96,446.22 544.09,449.07 547.14,452.02 550.09,455.07 552.94,458.20 555.70,461.43" /><polyline points="557.04,652.84 553.68,656.10 550.22,659.25 546.66,662.29 543.00,665.21 539.26,668.02 535.43,670.72 531.52,673.28 527.53,675.73 523.46,678.05 519.32,680.24 515.12,682.30 510.86,684.23 506.53,686.02 502.15,687.67 497.72,689.19 493.25,690.56 488.73,691.80 484.18,692.89 479.60,693.84 474.99,694.65 470.35,695.31 465.70,695.82 461.04,696.19 456.36,696.41 451.68,696.48 447.00,696.41 442.32,696.19 437.66,695.82 433.01,695.31 428.37,694.65 423.76,693.84 419.18,692.89 414.63,691.80 410.11,690.56 405.64,689.19 401.21,687.67 396.83,686.02 392.50,684.23 388.24,682.30 384.04,680.24 379.90,678.05 375.83,675.73 371.84,673.28 367.93,670.72 364.10,668.02 360.36,665.21 356.70,662.29 353.14,659.25 349.68,656.10 346.32,652.84 343.06,649.48 339.91,646.02 336.87,642.46 333.95,638.80 331.14,635.06 328.44,631.23 325.88,627.32 323.43,623.33 321.11,619.26 318.92,615.12 316.86,610.92 314.93,606.66 313.14,602.33 311.49,597.95 309.97,593.52 308.60,589.05 307.36,584.53 306.27,579.98 305.32,575.40 304.51,570.79 303.85,566.15 303.34,561.50 302.97,556.84 302.75,552.16 302.68,547.48 302.75,542.80 302.97,538.12 303.34,533.46 303.85,528.81 304.51,524.17 305.32,519.56 306.27,514.98 307.36,510.43 308.60,505.91 309.97,501.44 311.49,497.01 313.14,492.63 314.93,488.30 316.86,484.04 318.92,479.84 321.11,475.70 323.43,471.63 325.88,467.64 328.44,463.73 331.14,459.90 333.95,456.16 336.87,452.50 339.91,448.94 343.06,445.48 346.32,442.12 349.68,438.86 353.14,435.71 356.70,432.67 360.36,429.75 364.10,426.94 367.93,424.24 371.84,421.68 375.83,419.23 379.90,416.91 384.04,414.72 388.24,412.66 392.50,410.73 396.83,408.94 401.21,407.29 405.64,405.77 410.11,404.40 414.63,403.16 419.18,402.07 423.76,401.12 428.37,400.31 433.01,399.65 437.66,399.14 442.32,398.77 447.00,398.55 451.68,398.48 456.36,398.55 461.04,398.77 465.70,399.14 470.35,399.65 474.99,400.31 479.60,401.12 484.18,402.07 488.73,403.16 493.25,404.40 497.72,405.77 502.15,407.29 506.53,408.94 510.86,410.73 515.12,412.66 519.32,414.72 523.46,416.91 527.53,419.23 531.52,421.68 535.43,424.24 539.26,426.94 543.00,429.75 546.66,432.67 550.22,435.71 553.68,438.86 557.04,442.12" /><polyline points="555.58,673.07 551.58,676.28 547.49,679.35 543.30,682.29 539.02,685.11 534.65,687.78 530.21,690.32 525.68,692.71 521.08,694.97 516.42,697.07 511.68,699.03 506.89,700.84 502.05,702.50 497.16,704.01 492.22,705.36 487.24,706.55 482.22,707.59 477.18,708.47 472.11,709.19 467.02,709.76 461.91,710.16 456.80,710.40 451.68,710.48 446.56,710.40 441.45,710.16 436.34,709.76 431.25,709.19 426.18,708.47 421.14,707.59 416.12,706.55 411.14,705.36 406.20,704.01 401.31,702.50 396.47,700.84 391.68,699.03 386.94,697.07 382.28,694.97 377.68,692.71 373.15,690.32 368.71,687.78 364.34,685.11 360.06,682.29 355.87,679.35 351.78,676.28 347.78,673.07 343.89,669.75 340.10,666.30 336.42,662.74 332.86,659.06 329.41,655.27 326.09,651.38 322.88,647.38 319.81,643.29 316.87,639.10 314.05,634.82 311.38,630.45 308.84,626.01 306.45,621.48 304.19,616.88 302.09,612.22 300.13,607.48 298.32,602.69 296.66,597.85 295.15,592.96 293.80,588.02 292.61,583.04 291.57,578.02 290.69,572.98 289.97,567.91 289.40,562.82 289.00,557.71 288.76,552.60 288.68,547.48 288.76,542.36 289.00,537.25 289.40,532.14 289.97,527.05 290.69,521.98 291.57,516.94 292.61,511.92 293.80,506.94 295.15,502.00 296.66,497.11 298.32,492.27 300.13,487.48 302.09,482.74 304.19,478.08 306.45,473.48 308.84,468.95 311.38,464.51 314.05,460.14 316.87,455.86 319.81,451.67 322.88,447.58 326.09,443.58 329.41,439.69 332.86,435.90 336.42,432.22 340.10,428.66 343.89,425.21 347.78,421.89 351.78,418.68 355.87,415.61 360.06,412.67 364.34,409.85 368.71,407.18 373.15,404.64 377.68,402.25 382.28,399.99 386.94,397.89 391.68,395.93 396.47,394.12 401.31,392.46 406.20,390.95 411.14,389.60 416.12,388.41 421.14,387.37 426.18,386.49 431.25,385.77 436.34,385.20 441.45,384.80 446.56,384.56 451.68,384.48 456.80,384.56 461.91,384.80 467.02,385.20 472.11,385.77 477.18,386.49 482.22,387.37 487.24,388.41 492.22,389.60 497.16,390.95 502.05,392.46 506.89,394.12 511.68,395.93 516.42,397.89 521.08,399.99 525.68,402.25 530.21,404.64 534.65,407.18 539.02,409.85 543.30,412.67 547.49,415.61 551.58,418.68 555.58,421.89" /><polyline points="555.72,690.68 551.17,693.87 546.52,696.93 541.78,699.83 536.95,702.59 532.04,705.19 527.04,707.63 521.98,709.92 516.84,712.05 511.64,714.02 506.38,715.82 501.06,717.45 495.70,718.92 490.29,720.22" /><polyline points="413.07,720.22 407.66,718.92 402.30,717.45 396.98,715.82 391.72,714.02 386.52,712.05 381.38,709.92 376.32,707.63 371.32,705.19 366.41,702.59 361.58,699.83 356.84,696.93 352.19,693.87 347.64,690.68 343.20,687.34 338.86,683.86 334.63,680.25 330.52,676.51 326.52,672.64 322.65,668.64 318.91,664.53 315.30,660.30 311.82,655.96 308.48,651.52 305.29,646.97 302.23,642.32 299.33,637.58 296.57,632.75 293.97,627.84 291.53,622.84 289.24,617.78 287.11,612.64 285.14,607.44 283.34,602.18 281.71,596.86 280.24,591.50 278.94,586.09 277.82,580.65 276.86,575.17 276.08,569.66 275.47,564.14 275.03,558.59 274.77,553.04 274.68,547.48 274.77,541.92 275.03,536.37 275.47,530.82 276.08,525.30 276.86,519.79 277.82,514.31 278.94,508.87 280.24,503.46 281.71,498.10 283.34,492.78 285.14,487.52 287.11,482.32 289.24,477.18 291.53,472.12 293.97,467.12 296.57,462.21 299.33,457.38 302.23,452.64 305.29,447.99 308.48,443.44 311.82,439.00 315.30,434.66 318.91,430.43 322.65,426.32 326.52,422.32 330.52,418.45 334.63,414.71 338.86,411.10 343.20,407.62 347.64,404.28 352.19,401.09 356.84,398.03 361.58,395.13 366.41,392.37 371.32,389.77 376.32,387.33 381.38,385.04 386.52,382.91 391.72,380.94 396.98,379.14 402.30,377.51 407.66,376.04 413.07,374.74 418.51,373.62 423.99,372.66 429.50,371.88 435.02,371.27 440.57,370.83 446.12,370.57 451.68,370.48 457.24,370.57 462.79,370.83 468.34,371.27 473.86,371.88 479.37,372.66 484.85,373.62 490.29,374.74 495.70,376.04 501.06,377.51 506.38,379.14 511.64,380.94 516.84,382.91 521.98,385.04 527.04,387.33 532.04,389.77 536.95,392.37 541.78,395.13 546.52,398.03 551.17,401.09 555.72,404.28" /><polyline points="554.02,708.75 548.91,711.88 543.69,714.85 538.39,717.66 533.00,720.30" /><polyline points="370.36,720.30 364.97,717.66 359.67,714.85 354.45,711.88 349.34,708.75 344.32,705.45 339.41,702.00 334.61,698.40 329.93,694.65 325.37,690.75 320.93,686.71 316.62,682.54 312.45,678.23 308.41,673.79 304.51,669.23 300.76,664.55 297.16,659.75 293.71,654.84 290.41,649.82 287.28,644.71 284.31,639.49 281.50,634.19 278.86,628.80 276.39,623.34 274.09,617.79 271.97,612.18 270.03,606.50 268.26,600.77 266.68,594.98 265.28,589.15 264.06,583.27 263.03,577.36 262.19,571.42 261.53,565.45 261.06,559.47 260.77,553.48 260.68,547.48 260.77,541.48 261.06,535.49 261.53,529.51 262.19,523.54 263.03,517.60 264.06,511.69 265.28,505.81 266.68,499.98 268.26,494.19 270.03,488.46 271.97,482.78 274.09,477.17 276.39,471.62 278.86,466.16 281.50,460.77 284.31,455.47 287.28,450.25 290.41,445.14 293.71,440.12 297.16,435.21 300.76,430.41 304.51,425.73 308.41,421.17 312.45,416.73 316.62,412.42 320.93,408.25 325.37,404.21 329.93,400.31 334.61,396.56 339.41,392.96 344.32,389.51 349.34,386.21 354.45,383.08 359.67,380.11 364.97,377.30 370.36,374.66 375.82,372.19 381.37,369.89 386.98,367.77 392.66,365.83 398.39,364.06 404.18,362.48 410.01,361.08 415.89,359.86 421.80,358.83 427.74,357.99 433.71,357.33 439.69,356.86 445.68,356.57 451.68,356.48 457.68,356.57 463.67,356.86 469.65,357.33 475.62,357.99 481.56,358.83 487.47,359.86 493.35,361.08 499.18,362.48 504.97,364.06 510.70,365.83 516.38,367.77 521.99,369.89 527.54,372.19 533.00,374.66 538.39,377.30 543.69,380.11 548.91,383.08 554.02,386.21" /><polyline points="341.84,720.57 336.45,717.03 331.18,713.33 326.03,709.46 321.01,705.44 316.11,701.25 311.35,696.92 306.72,692.44 302.24,687.81 297.91,683.05 293.72,678.15 289.70,673.13 285.83,667.98 282.13,662.71 278.59,657.32 275.23,651.83 272.04,646.24 269.02,640.55 266.19,634.76 263.54,628.90 261.08,622.95 258.80,616.92" /><polyline points="258.80,478.04 261.08,472.01 263.54,466.06 266.19,460.20 269.02,454.41 272.04,448.72 275.23,443.13 278.59,437.64 282.13,432.25 285.83,426.98 289.70,421.83 293.72,416.81 297.91,411.91 302.24,407.15 306.72,402.52 311.35,398.04 316.11,393.71 321.01,389.52 326.03,385.50 331.18,381.63 336.45,377.93 341.84,374.39 347.33,371.03 352.92,367.84 358.61,364.82 364.40,361.99 370.26,359.34 376.21,356.88 382.24,354.60 388.33,352.51 394.49,350.62 400.70,348.92 406.96,347.42 413.27,346.11 419.61,345.00 425.99,344.10 432.39,343.39 438.81,342.88 445.24,342.58 451.68,342.48 458.12,342.58 464.55,342.88 470.97,343.39 477.37,344.10 483.75,345.00 490.09,346.11 496.40,347.42 502.66,348.92 508.87,350.62 515.03,352.51 521.12,354.60 527.15,356.88 533.10,359.34 538.96,361.99 544.75,364.82 550.44,367.84 556.03,371.03" /><polyline points="317.45,720.52 312.08,716.22 306.85,711.75 301.76,707.12 296.82,702.34 292.04,697.40 287.41,692.31 282.94,687.08 278.64,681.71 274.51,676.20 270.55,670.58 266.77,664.83 263.18,658.96 259.77,652.98" /><polyline points="259.77,441.98 263.18,436.00 266.77,430.13 270.55,424.38 274.51,418.76 278.64,413.25 282.94,407.88 287.41,402.65 292.04,397.56 296.82,392.62 301.76,387.84 306.85,383.21 312.08,378.74 317.45,374.44 322.96,370.31 328.58,366.35 334.33,362.57 340.20,358.98 346.18,355.57 352.26,352.35 358.43,349.32 364.70,346.49 371.06,343.86 377.50,341.43 384.01,339.20 390.58,337.18 397.22,335.36 403.91,333.75 410.64,332.36 417.42,331.18 424.23,330.21 431.07,329.45 437.93,328.91 444.80,328.59 451.68,328.48 458.56,328.59 465.43,328.91 472.29,329.45 479.13,330.21 485.94,331.18 492.72,332.36 499.45,333.75 506.14,335.36 512.78,337.18 519.35,339.20 525.86,341.43 532.30,343.86 538.66,346.49 544.93,349.32 551.10,352.35 557.18,355.57" /><polyline points="292.18,717.33 286.92,712.24 281.83,706.98 276.90,701.57 272.15,696.00 267.57,690.29 263.18,684.43 258.97,678.45" /><polyline points="258.97,416.51 263.18,410.53 267.57,404.67 272.15,398.96 276.90,393.39 281.83,387.98 286.92,382.72 292.18,377.63 297.59,372.70 303.16,367.95 308.87,363.37 314.73,358.98 320.71,354.77 326.83,350.75 333.07,346.93 339.43,343.30 345.90,339.88 352.47,336.66 359.14,333.64 365.91,330.84 372.75,328.25 379.68,325.88" /><polyline points="523.68,325.88 530.61,328.25 537.45,330.84 544.22,333.64 550.89,336.66 557.46,339.88" /><polyline points="271.62,716.56 266.40,710.82 261.36,704.92" /><polyline points="261.36,390.04 266.40,384.14 271.62,378.40 277.02,372.82 282.60,367.42 288.34,362.20 294.24,357.16 300.29,352.31 306.50,347.65 312.85,343.19 319.33,338.93 325.95,334.88 332.69,331.03 339.54,327.40" /><polyline points="261.42,368.81 267.13,362.93 273.01,357.22 279.08,351.70 285.31,346.38 291.71,341.25 298.27,336.33 304.98,331.61 311.83,327.11" /><polyline points="263.43,347.01 269.82,341.20 276.39,335.59 283.13,330.19 290.04,325.00" /></g></svg>