<?xml version='1.0' encoding='utf-8'?>
<svg xmlns="http://www.w3.org/2000/svg" xmlns:inkscape="http://www.inkscape.org/namespaces/inkscape" viewBox="204 228 408 600"><style>*{vector-effect:non-scaling-stroke}</style><g id="01_Black_Frame" inkscape:groupmode="layer" inkscape:label="01_Black_Frame" stroke="#1A1A1A" fill="none" stroke-width="0.875" stroke-linecap="round" stroke-linejoin="round"><path d="M 250.0,264.0 L 566.0,264.0 Q 576.0,264.0 576.0,274.0 L 576.0,782.0 Q 576.0,792.0 566.0,792.0 L 250.0,792.0 Q 240.0,792.0 240.0,782.0 L 240.0,274.0 Q 240.0,264.0 250.0,264.0" /><path d="M 253.0,270.0 L 563.0,270.0 Q 570.0,270.0 570.0,277.0 L 570.0,779.0 Q 570.0,786.0 563.0,786.0 L 253.0,786.0 Q 246.0,786.0 246.0,779.0 L 246.0,277.0 Q 246.0,270.0 253.0,270.0" /><line x1="259.0" y1="280.0" x2="263.0" y2="280.0" /><line x1="258.1" y1="282.1" x2="260.9" y2="284.9" /><line x1="256.0" y1="283.0" x2="256.0" y2="287.0" /><line x1="253.9" y1="282.1" x2="251.1" y2="284.9" /><line x1="253.0" y1="280.0" x2="249.0" y2="280.0" /><line x1="253.9" y1="277.9" x2="251.1" y2="275.1" /><line x1="256.0" y1="277.0" x2="256.0" y2="273.0" /><line x1="258.1" y1="277.9" x2="260.9" y2="275.1" /><line x1="563.0" y1="280.0" x2="567.0" y2="280.0" /><line x1="562.1" y1="282.1" x2="564.9" y2="284.9" /><line x1="560.0" y1="283.0" x2="560.0" y2="287.0" /><line x1="557.9" y1="282.1" x2="555.1" y2="284.9" /><line x1="557.0" y1="280.0" x2="553.0" y2="280.0" /><line x1="557.9" y1="277.9" x2="555.1" y2="275.1" /><line x1="560.0" y1="277.0" x2="560.0" y2="273.0" /><line x1="562.1" y1="277.9" x2="564.9" y2="275.1" /><line x1="259.0" y1="776.0" x2="263.0" y2="776.0" /><line x1="258.1" y1="778.1" x2="260.9" y2="780.9" /><line x1="256.0" y1="779.0" x2="256.0" y2="783.0" /><line x1="253.9" y1="778.1" x2="251.1" y2="780.9" /><line x1="253.0" y1="776.0" x2="249.0" y2="776.0" /><line x1="253.9" y1="773.9" x2="251.1" y2="771.1" /><line x1="256.0" y1="773.0" x2="256.0" y2="769.0" /><line x1="258.1" y1="773.9" x2="260.9" y2="771.1" /><line x1="563.0" y1="776.0" x2="567.0" y2="776.0" /><line x1="562.1" y1="778.1" x2="564.9" y2="780.9" /><line x1="560.0" y1="779.0" x2="560.0" y2="783.0" /><line x1="557.9" y1="778.1" x2="555.1" y2="780.9" /><line x1="557.0" y1="776.0" x2="553.0" y2="776.0" /><line x1="557.9" y1="773.9" x2="555.1" y2="771.1" /><line x1="560.0" y1="773.0" x2="560.0" y2="769.0" /><line x1="562.1" y1="773.9" x2="564.9" y2="771.1" /><polyline points="398.12,283.20 396.38,282.00 395.38,282.00 393.62,283.60 393.62,288.40 395.38,290.00 396.38,290.00 398.12,288.80" /><polyline points="399.38,282.00 399.38,290.00 403.62,290.00" /><polyline points="405.12,282.00 410.12,290.00" /><polyline points="410.12,282.00 405.12,290.00" /><polyline points="410.88,282.00 415.88,290.00" /><polyline points="415.88,282.00 410.88,290.00" /><polyline points="416.62,282.00 421.62,290.00" /><polyline points="421.62,282.00 416.62,290.00" /><polyline points="374.36,297.00 380.86,297.00" /><polyline points="377.61,297.00 377.61,307.00" /><polyline points="381.84,297.00 381.84,307.00" /><polyline points="388.34,297.00 388.34,307.00" /><polyline points="381.84,301.80 388.34,301.80" /><polyline points="394.84,297.00 389.31,297.00 389.31,301.80 393.21,301.80" /><polyline points="389.31,301.80 389.31,307.00 394.84,307.00" /><polyline points="409.79,297.00 404.26,297.00 404.26,301.80 408.16,301.80" /><polyline points="404.26,301.80 404.26,307.00" /><polyline points="417.26,297.00 411.74,297.00 411.74,301.80 415.64,301.80" /><polyline points="411.74,301.80 411.74,307.00 417.26,307.00" /><polyline points="419.21,297.00 422.46,307.00 425.71,297.00" /><polyline points="432.21,297.00 426.69,297.00 426.69,301.80 430.59,301.80" /><polyline points="426.69,301.80 426.69,307.00 432.21,307.00" /><polyline points="434.16,307.00 434.16,297.00 438.39,297.00 440.01,298.50 440.01,300.20 438.39,301.50 434.16,301.50 440.01,307.00" /><line x1="270.0" y1="312.0" x2="546.0" y2="312.0" /><line x1="270.0" y1="732.0" x2="546.0" y2="732.0" /><polyline points="375.80,740.75 375.80,745.25" /><polyline points="378.60,740.75 378.60,745.25" /><polyline points="375.80,742.91 378.60,742.91" /><polyline points="381.40,740.75 379.02,740.75 379.02,742.91 380.70,742.91" /><polyline points="379.02,742.91 379.02,745.25 381.40,745.25" /><polyline points="382.24,745.25 383.64,740.75 385.04,745.25" /><polyline points="382.74,743.67 384.54,743.67" /><polyline points="385.46,740.75 388.26,740.75" /><polyline points="386.86,740.75 386.86,745.25" /><polyline points="397.64,741.42 396.66,740.75 396.10,740.75 395.12,741.65 395.12,744.35 396.10,745.25 396.66,745.25 397.64,744.58" /><polyline points="399.74,740.75 398.62,741.20 398.34,742.10 398.34,743.90 398.62,744.80 399.74,745.25 400.86,744.80 401.14,743.90 401.14,742.10 400.86,741.20 399.74,740.75" /><polyline points="401.56,740.75 401.56,744.12 402.12,745.02 403.80,745.02 404.36,744.12 404.36,740.75" /><polyline points="404.78,745.25 404.78,740.75 406.60,740.75 407.30,741.42 407.30,742.19 406.60,742.77 404.78,742.77 407.30,745.25" /><polyline points="408.00,740.75 410.80,740.75" /><polyline points="409.40,740.75 409.40,745.25" /><polyline points="417.66,745.25 417.66,740.75 419.06,743.23 420.46,740.75 420.46,745.25" /><polyline points="422.28,740.75 422.28,745.25" /><polyline points="426.48,741.20 425.78,740.75 424.94,740.75 424.24,741.42 424.10,742.10 424.52,742.64 425.50,743.00 426.48,743.36 426.90,743.90 426.76,744.58 426.06,745.25 425.08,745.25 424.38,744.80" /><polyline points="429.70,741.20 429.00,740.75 428.16,740.75 427.46,741.42 427.32,742.10 427.74,742.64 428.72,743.00 429.70,743.36 430.12,743.90 429.98,744.58 429.28,745.25 428.30,745.25 427.60,744.80" /><polyline points="431.94,740.75 431.94,745.25" /><polyline points="433.76,745.25 433.76,740.75 436.56,745.25 436.56,740.75" /><polyline points="439.50,741.42 438.52,740.75 437.96,740.75 436.98,741.65 436.98,744.35 437.96,745.25 438.52,745.25 439.50,744.58 439.50,743.00 438.38,743.00" /><polyline points="330.38,760.75 332.88,753.25 335.38,760.75" /><polyline points="331.27,758.12 334.48,758.12" /><polyline points="336.12,753.25 336.12,760.75 340.38,760.75" /><polyline points="341.88,753.25 341.88,760.75 346.12,760.75" /><polyline points="353.38,760.75 355.88,753.25 358.38,760.75" /><polyline points="354.27,758.12 357.48,758.12" /><polyline points="359.12,753.25 364.12,753.25" /><polyline points="361.62,753.25 361.62,760.75" /><polyline points="373.12,753.25 371.12,754.00 370.62,755.50 370.62,758.50 371.12,760.00 373.12,760.75 375.12,760.00 375.62,758.50 375.62,755.50 375.12,754.00 373.12,753.25" /><polyline points="376.38,760.75 376.38,753.25 381.38,760.75 381.38,753.25" /><polyline points="386.62,754.38 384.88,753.25 383.88,753.25 382.12,754.75 382.12,759.25 383.88,760.75 384.88,760.75 386.62,759.62" /><polyline points="392.12,753.25 387.88,753.25 387.88,756.85 390.88,756.85" /><polyline points="387.88,756.85 387.88,760.75 392.12,760.75" /><polyline points="399.38,760.75 401.88,753.25 404.38,760.75" /><polyline points="400.27,758.12 403.48,758.12" /><polyline points="405.12,760.75 405.12,753.25 410.12,760.75 410.12,753.25" /><polyline points="410.88,760.75 410.88,753.25 413.62,753.25 415.38,755.12 415.38,758.88 413.62,760.75 410.88,760.75" /><polyline points="422.38,760.75 424.88,753.25 427.38,760.75" /><polyline points="423.27,758.12 426.48,758.12" /><polyline points="428.12,753.25 428.12,760.75 432.38,760.75" /><polyline points="433.88,753.25 433.88,760.75 438.12,760.75" /><polyline points="445.38,760.75 447.88,753.25 450.38,760.75" /><polyline points="446.27,758.12 449.48,758.12" /><polyline points="451.12,753.25 456.12,753.25" /><polyline points="453.62,753.25 453.62,760.75" /><polyline points="465.12,753.25 463.12,754.00 462.62,755.50 462.62,758.50 463.12,760.00 465.12,760.75 467.12,760.00 467.62,758.50 467.62,755.50 467.12,754.00 465.12,753.25" /><polyline points="468.38,760.75 468.38,753.25 473.38,760.75 473.38,753.25" /><polyline points="478.62,754.38 476.88,753.25 475.88,753.25 474.12,754.75 474.12,759.25 475.88,760.75 476.88,760.75 478.62,759.62" /><polyline points="484.12,753.25 479.88,753.25 479.88,756.85 482.88,756.85" /><polyline points="479.88,756.85 479.88,760.75 484.12,760.75" /><polyline points="318.88,766.25 323.88,766.25" /><polyline points="321.38,766.25 321.38,773.75" /><polyline points="324.62,766.25 324.62,773.75" /><polyline points="329.62,766.25 329.62,773.75" /><polyline points="324.62,769.85 329.62,769.85" /><polyline points="334.62,766.25 330.38,766.25 330.38,769.85 333.38,769.85" /><polyline points="330.38,769.85 330.38,773.75 334.62,773.75" /><polyline points="341.88,766.25 343.12,773.75 344.38,768.88 345.62,773.75 346.88,766.25" /><polyline points="347.62,766.25 347.62,773.75" /><polyline points="352.62,766.25 352.62,773.75" /><polyline points="347.62,769.85 352.62,769.85" /><polyline points="355.88,766.25 353.88,767.00 353.38,768.50 353.38,771.50 353.88,773.00 355.88,773.75 357.88,773.00 358.38,771.50 358.38,768.50 357.88,767.00 355.88,766.25" /><polyline points="359.12,766.25 359.12,773.75 363.38,773.75" /><polyline points="369.12,766.25 364.88,766.25 364.88,769.85 367.88,769.85" /><polyline points="364.88,769.85 364.88,773.75 369.12,773.75" /><polyline points="376.38,766.25 381.38,766.25" /><polyline points="378.88,766.25 378.88,773.75" /><polyline points="382.12,766.25 382.12,773.75" /><polyline points="387.12,766.25 387.12,773.75" /><polyline points="382.12,769.85 387.12,769.85" /><polyline points="390.38,766.25 390.38,773.75" /><polyline points="393.62,773.75 393.62,766.25 398.62,773.75 398.62,766.25" /><polyline points="403.88,767.38 402.12,766.25 401.12,766.25 399.38,767.75 399.38,772.25 401.12,773.75 402.12,773.75 403.88,772.62 403.88,770.00 401.88,770.00" /><polyline points="410.88,773.75 410.88,766.25 414.12,766.25 415.12,767.15 415.12,768.35 414.12,769.25 410.88,769.25 414.12,769.25 415.12,770.15 415.12,772.85 414.12,773.75 410.88,773.75" /><polyline points="416.62,773.75 416.62,766.25 419.88,766.25 421.12,767.38 421.12,768.65 419.88,769.62 416.62,769.62 421.12,773.75" /><polyline points="424.88,766.25 422.88,767.00 422.38,768.50 422.38,771.50 422.88,773.00 424.88,773.75 426.88,773.00 427.38,771.50 427.38,768.50 426.88,767.00 424.88,766.25" /><polyline points="428.12,766.25 428.12,773.75" /><polyline points="432.62,766.25 428.12,770.00 432.62,773.75" /><polyline points="438.12,766.25 433.88,766.25 433.88,769.85 436.88,769.85" /><polyline points="433.88,769.85 433.88,773.75 438.12,773.75" /><polyline points="447.88,766.25 445.88,767.00 445.38,768.50 445.38,771.50 445.88,773.00 447.88,773.75 449.88,773.00 450.38,771.50 450.38,768.50 449.88,767.00 447.88,766.25" /><polyline points="451.12,766.25 453.62,773.75 456.12,766.25" /><polyline points="461.12,766.25 456.88,766.25 456.88,769.85 459.88,769.85" /><polyline points="456.88,769.85 456.88,773.75 461.12,773.75" /><polyline points="462.62,773.75 462.62,766.25 465.88,766.25 467.12,767.38 467.12,768.65 465.88,769.62 462.62,769.62 467.12,773.75" /><polyline points="468.38,773.75 468.38,766.25 473.38,773.75 473.38,766.25" /><polyline points="476.62,766.25 476.62,773.75" /><polyline points="484.38,767.38 482.62,766.25 481.62,766.25 479.88,767.75 479.88,772.25 481.62,773.75 482.62,773.75 484.38,772.62 484.38,770.00 482.38,770.00" /><polyline points="485.62,766.25 485.62,773.75" /><polyline points="490.62,766.25 490.62,773.75" /><polyline points="485.62,769.85 490.62,769.85" /><polyline points="491.38,766.25 496.38,766.25" /><polyline points="493.88,766.25 493.88,773.75" /><polyline points="382.24,779.50 383.84,784.50 385.44,779.50" /><polyline points="387.52,779.50 387.52,784.50" /><polyline points="391.20,784.00 391.20,784.25" /><polyline points="393.28,779.50 396.48,784.50" /><polyline points="396.48,779.50 393.28,784.50" /><polyline points="396.96,779.50 400.16,784.50" /><polyline points="400.16,779.50 396.96,784.50" /><polyline points="402.24,779.50 402.24,784.50" /><polyline points="404.32,779.50 407.52,784.50" /><polyline points="407.52,779.50 404.32,784.50" /><polyline points="409.60,784.00 409.60,784.25" /><polyline points="411.68,784.50 411.68,779.50 413.28,782.25 414.88,779.50 414.88,784.50" /><polyline points="415.36,784.50 415.36,779.50 416.96,782.25 418.56,779.50 418.56,784.50" /><polyline points="419.04,779.50 422.24,784.50" /><polyline points="422.24,779.50 419.04,784.50" /><polyline points="422.72,779.50 425.92,784.50" /><polyline points="425.92,779.50 422.72,784.50" /><polyline points="426.40,779.50 428.00,784.50 429.60,779.50" /><polyline points="431.68,779.50 431.68,784.50" /></g><g id="02_Teal_Image" inkscape:groupmode="layer" inkscape:label="02_Teal_Image" stroke="#3A7A7A" fill="none" stroke-width="0.8" stroke-linecap="round" stroke-linejoin="round"><polyline points="372.4,629.1 372.7,631.7 372.8,634.3 372.7,637.0 372.3,639.6 371.6,642.1 370.5,644.6 369.2,646.9 367.7,649.0 366.0,651.0 364.1,652.9 362.2,654.5 360.2,656.1 358.2,657.6 356.2,659.1 354.2,660.6 352.1,662.0 350.1,663.5 347.9,664.8 345.7,666.1 343.4,667.3 340.9,668.3 338.4,669.1 335.8,669.5 333.1,669.7 330.5,669.5 327.9,669.1 325.3,668.3 322.9,667.3 320.5,666.1 318.3,664.8 316.2,663.5 314.1,662.0 312.1,660.6 310.1,659.1 308.1,657.6 306.1,656.1 304.1,654.5 302.1,652.9 300.3,651.0 298.6,649.0 297.0,646.9 295.7,644.6 294.7,642.1 293.9,639.6 293.5,637.0 293.4,634.3 293.5,631.7 293.9,629.1 294.4,626.5 295.1,624.1 295.8,621.6 296.5,619.3 297.3,616.9 298.0,614.6 298.9,612.2 299.7,609.8 300.7,607.4 301.9,605.1 303.2,602.8 304.7,600.7 306.4,598.7 308.4,596.9 310.6,595.3 312.9,594.1 315.4,593.1 317.9,592.4 320.5,591.8 323.1,591.5 325.6,591.4 328.1,591.3 330.6,591.2 333.1,591.2 335.6,591.2 338.1,591.3 340.6,591.4 343.2,591.5 345.8,591.8 348.3,592.4 350.9,593.1 353.3,594.1 355.7,595.3 357.8,596.9 359.8,598.7 361.5,600.7 363.1,602.8 364.4,605.1 365.5,607.4 366.5,609.8 367.4,612.2 368.2,614.6 369.0,616.9 369.7,619.3 370.5,621.6 371.2,624.1 371.8,626.5 372.4,629.1" /><polyline points="414.1,629.1 414.5,634.4 414.2,639.8 413.2,645.0 411.6,650.1 409.3,654.9 406.6,659.5 403.5,663.8 400.2,667.8 396.7,671.6 393.2,675.2 389.7,678.7 386.3,682.2 382.8,685.8 379.4,689.4 375.8,692.9 372.0,696.5 368.0,699.8 363.7,702.9 359.1,705.6 354.2,707.7 349.1,709.2 343.8,710.1 338.4,710.2 333.1,709.7 327.9,708.6 322.9,707.1 318.0,705.2 313.3,703.1 308.7,700.9 304.3,698.7 299.9,696.5 295.4,694.3 291.0,692.1 286.5,689.9 282.0,687.4 277.5,684.7 273.2,681.6 269.2,678.2 265.5,674.3 262.4,669.9 259.8,665.2 257.9,660.2 256.6,655.1 255.9,649.8 255.7,644.5 256.0,639.2 256.5,634.1 257.1,629.1 257.9,624.1 258.6,619.3 259.3,614.4 260.0,609.5 260.7,604.5 261.6,599.5 262.8,594.4 264.3,589.3 266.2,584.4 268.7,579.6 271.7,575.2 275.3,571.3 279.4,567.8 283.8,564.9 288.6,562.5 293.6,560.6 298.6,559.1 303.7,557.9 308.6,557.0 313.6,556.1 318.5,555.3 323.3,554.5 328.2,553.6 333.1,552.8 338.2,552.0 343.3,551.5 348.6,551.3 353.9,551.5 359.2,552.3 364.3,553.7 369.3,555.8 373.9,558.4 378.2,561.7 382.0,565.4 385.4,569.4 388.5,573.7 391.2,578.2 393.6,582.6 396.0,587.1 398.3,591.5 400.6,595.8 402.9,600.2 405.2,604.6 407.5,609.2 409.6,613.9 411.5,618.8 413.1,623.8 414.1,629.1" /><polyline points="456.5,629.1 455.7,637.1 453.9,645.0 451.1,652.5 447.5,659.7 443.5,666.6 439.2,673.0 434.8,679.2 430.4,685.3 426.2,691.3 422.1,697.3 418.0,703.5 413.9,709.8 409.5,716.2 404.8,722.4" /><polyline points="267.9,726.6 260.6,723.6 253.4,720.0" /><polyline points="254.3,539.2 261.5,535.7 268.8,532.8 276.0,530.2 283.2,527.8 290.2,525.5 297.1,523.1 304.0,520.5 311.0,517.9 318.1,515.3 325.5,512.8 333.1,510.6 341.0,509.1 349.0,508.4 357.1,508.6 365.1,509.9 372.8,512.3 380.1,515.7 386.9,520.1 393.1,525.2 398.7,530.9 403.9,536.9 408.6,543.0 413.1,549.1 417.5,555.1 421.9,560.9 426.4,566.7 431.1,572.5 435.8,578.4 440.5,584.6 444.9,591.1 448.9,598.1 452.3,605.4 454.8,613.1 456.2,621.0 456.5,629.1" /><polyline points="494.9,629.1 492.0,639.5 488.2,649.5 483.7,659.0 479.1,668.2 474.5,677.1 470.1,685.8 466.0,694.6 462.2,703.6 458.4,712.8 454.5,722.2" /><polyline points="259.0,500.8 267.5,496.0 275.9,490.9 284.4,485.6 293.2,480.3 302.5,475.2 312.3,470.7 322.5,467.2 333.1,464.9 343.9,464.0 354.7,464.8 365.3,467.2 375.4,471.1 385.0,476.3 393.8,482.5 402.0,489.3 409.6,496.5 416.9,503.8 423.9,510.8 430.8,517.6 438.0,524.2 445.4,530.6 453.0,537.1 460.8,543.8 468.5,550.9 475.9,558.7 482.6,567.2 488.3,576.4 492.7,586.3 495.6,596.8 497.0,607.5 496.7,618.4 494.9,629.1" /><polyline points="526.1,629.1 522.0,641.5 517.9,653.4 514.0,665.1 510.7,676.6 507.8,688.4 505.3,700.4 502.9,712.8 500.2,725.5" /><polyline points="258.7,449.4 269.3,441.1 280.8,433.7 293.0,427.6 306.0,423.3 319.5,421.0 333.1,421.0 346.6,423.1 359.7,427.1 372.2,432.8 383.9,439.6 394.9,447.1 405.3,454.8 415.3,462.3 425.2,469.5 435.2,476.2 445.6,482.5 456.3,488.6 467.4,494.8 478.8,501.4 490.0,508.7 500.7,517.1 510.5,526.6 519.0,537.4 525.7,549.3 530.3,562.1 532.9,575.5 533.5,589.2 532.3,602.9 529.7,616.2 526.1,629.1" /><polyline points="553.8,629.1 551.7,643.4 550.5,657.7 550.0,672.2 549.9,687.2 550.0,702.7 549.5,718.7" /><polyline points="252.9,392.7 268.0,386.1 284.0,382.2 300.5,381.0 317.0,382.5 333.1,386.3 348.7,392.0 363.4,398.8 377.4,406.2 390.8,413.6 403.9,420.6 416.9,426.8 430.2,432.3 443.9,437.1 458.3,441.8 473.1,446.6 488.3,452.2 503.3,458.9 517.6,467.3 530.7,477.5 542.1,489.5 551.2,503.2 557.9,518.2 562.1,534.2 563.9,550.8 563.7,567.3 561.9,583.6 559.3,599.3 556.4,614.4 553.8,629.1" /><polyline points="257.7,347.6 277.2,348.1 296.5,351.3 315.2,356.3 333.1,362.5 350.2,368.9 366.6,374.9 382.7,380.1 398.8,384.1 415.3,387.0 432.5,389.3 450.4,391.3 469.0,393.7 487.9,397.4 506.7,402.9 524.6,410.7 541.1,421.1 555.4,434.1" /><polyline points="273.2,327.8 294.0,332.3 314.0,336.7 333.1,340.1 351.9,342.2 370.8,342.7 390.2,341.9 410.5,340.2 431.8,338.5 453.8,337.7 476.3,338.7 498.7,342.3 520.1,349.2 539.9,359.6 557.3,373.5" /><polyline points="516.9,412.8 517.1,415.5 516.9,418.1 516.2,420.7 515.1,423.2 513.8,425.5 512.3,427.6 510.8,429.7 509.4,431.8 508.2,433.9 506.9,436.1 505.7,438.4 504.4,440.6 503.0,442.9 501.2,444.9 499.2,446.6 496.9,447.9 494.4,448.9 491.8,449.5 489.2,449.8 486.6,450.0 484.1,450.2 481.6,450.4 479.1,450.7 476.6,451.2 474.1,451.6 471.5,452.0 468.8,452.1 466.2,451.9 463.6,451.3 461.2,450.2 458.9,448.8 456.9,447.0 455.0,445.2 453.3,443.2 451.6,441.4 449.9,439.6 448.0,437.9 446.1,436.3 444.2,434.5 442.3,432.7 440.6,430.6 439.2,428.4 438.2,425.9 437.6,423.3 437.5,420.6 437.7,418.0 438.0,415.4 438.4,412.8 438.8,410.4 439.1,407.9 439.2,405.4 439.3,402.8 439.5,400.2 439.8,397.6 440.5,395.0 441.5,392.6 442.9,390.3 444.7,388.3 446.7,386.6 449.0,385.2 451.2,383.9 453.5,382.6 455.6,381.4 457.7,380.0 459.7,378.5 461.8,377.0 464.0,375.5 466.3,374.2 468.8,373.2 471.3,372.6 474.0,372.4 476.6,372.7 479.2,373.3 481.7,374.2 484.1,375.2 486.5,376.1 488.8,377.0 491.2,377.7 493.6,378.4 496.1,379.1 498.6,379.9 501.1,381.0 503.3,382.4 505.3,384.1 507.0,386.2 508.4,388.5 509.4,390.9 510.2,393.4 511.0,395.9 511.7,398.3 512.5,400.7 513.4,403.0 514.4,405.3 515.4,407.7 516.3,410.2 516.9,412.8" /><polyline points="558.4,412.8 557.7,418.2 556.1,423.3 553.8,428.2 551.2,432.8 548.6,437.3 546.2,441.6 544.1,446.1 542.3,450.8 540.7,455.6 538.9,460.6 536.7,465.5 534.0,470.2 530.5,474.3 526.3,477.6 521.6,480.1 516.5,481.9 511.2,483.0 506.0,483.8 501.0,484.5 496.1,485.5 491.3,486.7 486.6,488.3 481.7,490.1 476.6,491.7 471.4,493.0 466.0,493.5 460.7,493.0 455.5,491.6 450.7,489.2 446.3,486.1 442.2,482.6 438.4,479.1 434.7,475.6 430.9,472.5 426.9,469.6 422.6,466.9 418.1,464.1 413.7,461.1 409.6,457.6 406.1,453.6 403.3,449.0 401.5,444.0 400.6,438.7 400.4,433.3 400.7,427.9 401.2,422.8 401.5,417.8 401.4,412.8 401.1,407.9 400.5,402.8 399.9,397.6 399.6,392.2 400.0,386.8 401.2,381.6 403.4,376.7 406.4,372.3 410.2,368.4 414.4,365.1 418.7,362.1 423.0,359.2 427.0,356.3 430.8,353.1 434.4,349.7 438.0,346.0 441.8,342.3 446.0,338.8 450.5,336.0 455.5,333.9 460.7,332.8 466.1,332.7 471.4,333.5 476.6,334.8 481.7,336.4 486.5,337.9 491.3,339.1 496.2,340.0 501.2,340.6 506.3,341.1 511.6,341.9 516.9,343.2 521.9,345.1 526.4,348.0 530.3,351.6 533.5,355.9 536.1,360.7 538.2,365.6 540.1,370.5 542.0,375.1 544.1,379.6 546.5,383.9 549.2,388.2 552.0,392.6 554.6,397.3 556.7,402.3 558.0,407.5 558.4,412.8" /><polyline points="563.9,500.1 557.3,504.8 549.8,508.2 542.0,510.7 534.2,512.6 526.7,514.3 519.5,516.4 512.7,519.0 506.0,522.3 499.2,526.1 492.0,529.9 484.5,533.1 476.6,535.3 468.6,536.0 460.6,534.9 452.9,532.3 445.7,528.3 439.0,523.6 432.8,518.6 426.8,513.9 420.7,509.8 414.2,506.3 407.3,503.2 400.0,500.2 392.6,496.8 385.5,492.7 379.2,487.6 374.0,481.4 370.2,474.3 367.9,466.5 366.9,458.3 366.6,450.2 366.6,442.3 366.4,434.8 365.7,427.5 364.2,420.2 362.2,412.8 360.0,405.2 358.1,397.2 357.2,389.1 357.7,381.0 359.8,373.2 363.5,366.0 368.5,359.5 374.4,353.8 380.6,348.7 386.7,343.8 392.3,338.9 397.4,333.6 402.1,327.8 406.6,321.5" /><polyline points="555.2,323.2 559.1,330.4 562.5,337.5" /><polyline points="560.2,537.8 550.9,541.4 542.2,545.8 534.0,551.4 525.8,557.7 517.2,564.4 508.0,570.5 498.0,575.3 487.5,578.0 476.6,578.3 465.9,576.0 455.7,571.8 446.1,566.2 437.2,560.2 428.5,554.5 419.9,549.8 410.9,546.1 401.3,543.3 391.0,540.9 380.4,538.2 370.0,534.5 360.3,529.2 352.1,522.1 345.7,513.3 341.3,503.3 338.7,492.5 337.4,481.5 336.6,470.9 335.5,460.8 333.6,451.2 330.5,441.9 326.4,432.6 321.8,423.0 317.5,412.8 314.3,402.2 313.0,391.3 314.1,380.5 317.7,370.3 323.4,360.8 330.6,352.3 338.4,344.7 346.1,337.5 353.1,330.3 359.1,322.6" /><polyline points="560.6,583.2 551.4,593.3 541.2,603.0 529.8,611.3 517.2,616.9 503.8,619.3 490.1,618.4 476.6,614.5 463.8,608.6 451.7,601.9 440.3,595.6 429.0,590.6 417.4,587.3 405.1,585.4 392.0,584.5 378.2,583.4 364.3,581.0 351.0,576.6 339.2,569.5 329.7,559.8 322.6,548.0 317.8,534.7 314.8,520.9 312.7,507.5 310.3,494.9 306.8,483.2 301.7,472.2 295.1,461.5 287.4,450.5 279.8,438.8 273.4,426.2 269.4,412.8 268.6,399.2 271.2,385.8 276.8,373.1 284.8,361.4 293.9,350.8 302.9,340.9 310.9,331.1 317.4,320.9" /><polyline points="557.3,650.5 541.8,656.0 525.2,657.2 508.4,654.5 492.1,648.9 476.6,642.0 462.1,635.4 448.0,630.5 433.9,627.8 419.1,627.5 403.3,628.8 386.6,630.2 369.3,630.4 352.4,628.0 336.9,622.0 323.6,612.2 313.2,599.2 305.7,583.8 300.4,567.4 296.4,551.2 292.3,536.0 286.9,522.4 279.5,510.0 270.0,498.4 258.8,486.8" /><polyline points="258.9,354.5 267.7,341.9 274.4,329.1" /><polyline points="550.8,689.5 530.8,685.0 511.6,678.5 493.6,672.0 476.6,667.5 460.1,665.9 443.1,667.6 425.1,671.7 406.0,676.6 385.8,680.4 365.5,681.2 346.2,677.4 329.0,668.6 314.7,655.2 303.7,638.2 295.5,619.4 289.0,600.5 282.7,582.9 275.2,567.4 265.3,554.0 252.7,542.2" /><polyline points="556.1,709.6 534.5,703.7 514.4,699.9 495.4,699.8 476.6,703.8 457.1,711.3 436.1,720.4" /><polyline points="346.5,727.0 328.1,714.1 313.0,696.2 301.2,675.4 291.6,654.0 282.7,634.0 272.7,616.8 260.1,602.7" /><polyline points="305.1,709.9 293.0,687.7 280.2,668.9 264.9,654.3" /><polyline points="298.2,721.9 280.0,707.1 258.2,697.5" /><polyline points="463.8,498.5 463.6,501.3 463.1,504.1 462.3,506.8 461.4,509.5 460.2,512.0 458.9,514.4 457.4,516.8 455.9,519.0 454.3,521.1 452.6,523.2 450.8,525.1 449.1,527.1 447.2,529.0 445.3,530.8 443.3,532.6 441.2,534.3 438.9,535.9 436.6,537.4 434.1,538.7 431.6,539.9 428.9,540.7 426.1,541.4 423.3,541.7 420.5,541.8 417.7,541.6 414.9,541.1 412.2,540.4 409.5,539.4 407.0,538.3 404.6,536.9 402.2,535.5 400.0,533.9 397.9,532.3 395.8,530.6 393.9,528.9 391.9,527.1 390.0,525.2 388.2,523.3 386.4,521.3 384.7,519.2 383.1,517.0 381.6,514.6 380.3,512.2 379.1,509.6 378.3,506.9 377.6,504.2 377.3,501.4 377.2,498.5 377.4,495.7 377.9,492.9 378.6,490.2 379.6,487.6 380.7,485.0 382.1,482.6 383.5,480.3 385.1,478.1 386.7,475.9 388.4,473.9 390.1,471.9 391.9,469.9 393.8,468.1 395.7,466.2 397.7,464.4 399.8,462.7 402.0,461.1 404.4,459.6 406.8,458.3 409.4,457.2 412.1,456.3 414.8,455.7 417.6,455.3 420.5,455.2 423.3,455.4 426.1,455.9 428.8,456.7 431.4,457.6 434.0,458.8 436.4,460.1 438.7,461.6 440.9,463.1 443.1,464.7 445.1,466.4 447.1,468.2 449.1,469.9 450.9,471.8 452.8,473.7 454.6,475.7 456.3,477.8 457.9,480.1 459.4,482.4 460.7,484.9 461.8,487.4 462.7,490.1 463.3,492.9 463.7,495.7 463.8,498.5" /><polyline points="506.0,498.5 505.0,504.1 503.5,509.5 501.7,514.7 499.7,519.7 497.4,524.6 495.0,529.4 492.5,534.0 489.9,538.6 487.2,543.1 484.4,547.6 481.5,552.0 478.4,556.4 475.0,560.7 471.4,564.9 467.4,568.8 463.2,572.5 458.6,575.8 453.7,578.6 448.5,581.0 443.1,582.8 437.5,583.9 431.8,584.5 426.1,584.6 420.5,584.0 414.9,583.0 409.5,581.6 404.3,579.8 399.3,577.7 394.4,575.5 389.6,573.1 385.0,570.6 380.4,568.0 375.9,565.3 371.4,562.5 367.0,559.5 362.6,556.4 358.3,553.1 354.1,549.4 350.2,545.5 346.5,541.2 343.2,536.6 340.4,531.7 338.0,526.5 336.2,521.1 335.1,515.5 334.5,509.8 334.4,504.2 335.0,498.5 336.0,493.0 337.4,487.6 339.2,482.4 341.3,477.3 343.5,472.4 345.9,467.6 348.4,463.0 351.0,458.4 353.7,453.9 356.5,449.4 359.5,445.0 362.6,440.6 365.9,436.3 369.6,432.2 373.5,428.2 377.8,424.6 382.4,421.3 387.3,418.4 392.5,416.1 397.9,414.3 403.5,413.1 409.2,412.5 414.8,412.5 420.5,413.0 426.0,414.0 431.4,415.5 436.6,417.3 441.7,419.3 446.6,421.6 451.4,424.0 456.0,426.5 460.6,429.1 465.1,431.8 469.6,434.6 474.0,437.5 478.4,440.6 482.7,444.0 486.8,447.6 490.8,451.6 494.4,455.8 497.7,460.4 500.6,465.3 502.9,470.5 504.7,475.9 505.9,481.5 506.5,487.2 506.5,492.9 506.0,498.5" /><polyline points="544.2,498.5 542.4,506.5 540.4,514.3 538.2,521.9 535.9,529.5 533.5,536.9 531.0,544.3 528.4,551.8 525.6,559.2 522.5,566.7 519.0,574.1 515.1,581.5 510.6,588.6 505.4,595.4 499.7,601.7 493.3,607.4 486.3,612.4 478.7,616.6 470.8,619.9 462.5,622.3 454.0,623.8 445.5,624.4 437.0,624.3 428.7,623.5 420.5,622.2 412.5,620.5 404.7,618.5 397.1,616.3 389.5,614.0 382.1,611.6 374.7,609.1 367.2,606.5 359.8,603.7 352.3,600.6 344.9,597.1 337.5,593.1 330.4,588.6 323.6,583.5 317.3,577.7 311.6,571.3 306.6,564.3 302.4,556.8 299.1,548.8 296.7,540.5 295.2,532.1 294.6,523.6 294.7,515.1 295.5,506.7 296.8,498.5 298.5,490.5 300.5,482.7 302.7,475.1 305.0,467.6 307.4,460.1 309.9,452.7 312.5,445.3 315.3,437.8 318.4,430.3 321.9,422.9 325.9,415.6 330.4,408.4 335.5,401.6 341.3,395.3 347.7,389.6 354.7,384.6 362.2,380.4 370.2,377.1 378.5,374.7 386.9,373.3 395.4,372.6 403.9,372.8 412.3,373.5 420.5,374.8 428.5,376.6 436.3,378.6 443.9,380.8 451.4,383.1 458.9,385.5 466.3,388.0 473.7,390.6 481.2,393.4 488.7,396.5 496.1,400.0 503.4,403.9 510.6,408.4 517.4,413.6 523.7,419.3 529.4,425.7 534.4,432.7 538.6,440.3 541.9,448.2 544.3,456.5 545.7,465.0 546.4,473.5 546.2,482.0 545.5,490.3 544.2,498.5" /><polyline points="562.5,593.4 557.7,603.8 551.8,613.7 544.9,623.0 537.0,631.3 528.0,638.7 518.3,645.0 507.9,650.0 497.1,653.9 486.0,656.6 474.7,658.4 463.5,659.2 452.5,659.3 441.6,659.0 430.9,658.2 420.5,657.3 410.1,656.3 399.8,655.2 389.5,654.1 379.1,652.9 368.6,651.5 357.9,649.7 347.1,647.4 336.3,644.4 325.6,640.5 315.2,635.7 305.3,629.9 296.0,623.0 287.7,615.0 280.3,606.1 274.0,596.4 269.0,586.0 265.1,575.1 262.4,564.0 260.6,552.8 259.8,541.6 259.7,530.5 260.0,519.6 260.8,509.0 261.7,498.5 262.7,488.2 263.8,477.9 264.9,467.6 266.1,457.2 267.5,446.6 269.3,435.9 271.6,425.1 274.6,414.3 278.5,403.6 283.3,393.2 289.1,383.3 296.0,374.1 304.0,365.7 312.9,358.3 322.6,352.1 333.0,347.0 343.9,343.1 355.0,340.4 366.2,338.7 377.4,337.8 388.5,337.7 399.4,338.1 410.0,338.8 420.5,339.7 430.8,340.7 441.1,341.8 451.4,342.9 461.8,344.1 472.4,345.6 483.1,347.3 493.9,349.7 504.7,352.7 515.4,356.5 525.8,361.3 535.7,367.2 544.9,374.1 553.3,382.0 560.7,391.0" /><polyline points="552.4,670.5 539.2,676.2 525.7,680.7 512.0,684.1 498.4,686.7 485.0,688.6 471.8,690.2 458.9,691.6 446.1,692.9 433.3,694.4 420.5,695.8 407.5,697.2 394.2,698.5 380.5,699.3 366.6,699.5 352.5,698.8 338.3,697.0 324.2,693.8 310.5,689.1 297.4,682.8 285.1,674.9 274.0,665.6 264.1,654.9 255.6,643.1" /><polyline points="253.4,352.0 264.1,342.1 275.9,333.6 288.5,326.5 301.7,320.8" /><polyline points="555.3,700.2 539.9,705.4 524.9,710.2 510.1,714.9 495.5,719.6 481.0,724.6" /><polyline points="272.4,720.1 259.9,707.8" /></g><g id="03_Gold_Accent" inkscape:groupmode="layer" inkscape:label="03_Gold_Accent" stroke="#B8960C" fill="none" stroke-width="1.2" stroke-linecap="round" stroke-linejoin="round"><polyline points="424.0,499.2 427.6,499.8 431.2,500.5 434.6,501.1 437.9,501.7 441.1,502.3 444.5,502.9 448.3,503.6 452.3,504.3 456.4,505.1 460.2,505.8 463.6,506.4 466.5,506.9 469.2,507.4" /><polyline points="424.8,500.8 429.1,503.2 433.2,505.4 437.3,507.6 441.4,509.8 445.8,512.2 450.6,514.7 455.5,517.4 460.2,519.9 464.4,522.2 468.1,524.2 471.6,526.0 475.2,528.0 479.3,530.2" /><polyline points="424.0,502.2 427.5,505.9 431.1,509.6 434.7,513.4 438.6,517.4 442.6,521.6 446.5,525.8 450.2,529.6 453.5,533.1 456.5,536.3 459.6,539.5 463.0,543.1 467.0,547.2 471.4,551.9" /><polyline points="421.7,501.1 423.0,503.7 424.3,506.5 425.7,509.4 427.1,512.3 428.4,515.0 429.7,517.6 430.8,519.9 431.9,522.3 433.1,524.8 434.5,527.6 436.0,530.8 437.6,534.0 439.1,537.1" /><polyline points="421.2,504.1 422.0,510.1 422.9,516.1 423.7,522.1 424.4,527.7 425.1,533.0 425.8,538.2 426.6,543.5 427.3,549.4 428.2,555.9 429.1,562.7 430.0,569.4 430.8,575.3 431.5,580.3" /><polyline points="419.9,501.8 419.3,505.2 418.7,508.4 418.1,511.6 417.6,514.6 417.0,517.6 416.4,520.9 415.8,524.4 415.1,528.2 414.4,531.9 413.8,535.3 413.2,538.3 412.8,540.9 412.3,543.5" /><polyline points="418.1,503.0 415.7,507.4 413.4,511.7 411.1,515.9 408.8,520.3 406.3,524.9 403.6,529.9 400.9,534.9 398.3,539.6 396.0,543.9 394.0,547.7 392.1,551.2 390.0,555.1 387.6,559.6" /><polyline points="416.9,501.9 413.3,505.4 409.7,508.8 406.0,512.4 402.0,516.2 398.0,520.0 394.0,523.8 390.4,527.3 387.1,530.4 384.0,533.3 380.8,536.4 377.2,539.9 373.0,543.9 368.5,548.2" /><polyline points="417.7,499.9 414.8,501.3 411.7,502.7 408.6,504.2 405.5,505.7 402.5,507.2 399.8,508.5 397.2,509.7 394.7,510.9 391.8,512.3 388.6,513.8 385.1,515.5 381.6,517.2 378.3,518.8" /><polyline points="414.8,499.3 408.9,500.1 402.8,500.9 396.9,501.7 391.4,502.4 386.1,503.2 381.0,503.9 375.5,504.6 369.4,505.4 362.8,506.3 356.0,507.2 349.5,508.1 343.8,508.9 339.1,509.5" /><polyline points="417.5,498.0 414.4,497.4 411.4,496.9 408.6,496.4 405.8,495.8 402.9,495.3 399.9,494.8 396.6,494.2 393.1,493.5 389.7,492.9 386.7,492.4 384.1,491.9 381.7,491.5 379.3,491.0" /><polyline points="415.9,496.0 411.4,493.6 407.0,491.2 402.6,488.9 398.0,486.4 393.1,483.8 388.0,481.0 382.8,478.2 378.1,475.7 373.9,473.4 370.1,471.4 366.3,469.3 362.1,467.1 357.2,464.4" /><polyline points="417.2,495.1 413.9,491.6 410.5,488.1 407.0,484.4 403.4,480.6 399.6,476.7 396.1,473.0 392.8,469.6 389.9,466.5 387.0,463.5 383.9,460.3 380.4,456.6 376.5,452.4 372.2,448.0" /><polyline points="419.0,495.5 417.5,492.3 415.9,489.0 414.3,485.6 412.7,482.3 411.2,479.2 409.8,476.3 408.4,473.5 407.1,470.6 405.5,467.5 403.8,463.9 402.0,460.1 400.2,456.3 398.6,453.0" /><polyline points="419.7,492.9 418.9,486.9 418.1,480.9 417.3,475.1 416.6,469.7 415.9,464.5 415.2,459.2 414.4,453.6 413.6,447.4 412.7,440.7 411.8,434.0 410.9,427.7 410.2,422.4 409.6,417.8" /><polyline points="421.0,495.8 421.5,493.0 422.0,490.3 422.4,487.7 422.9,485.2 423.4,482.6 423.9,479.7 424.5,476.7 425.0,473.5 425.6,470.5 426.1,467.9 426.5,465.6 426.9,463.4 427.3,461.2" /><polyline points="423.0,493.8 425.5,489.2 427.9,484.7 430.4,480.1 433.0,475.3 435.7,470.2 438.6,464.9 441.3,459.8 443.9,455.1 446.2,450.8 448.2,447.0 450.4,443.0 452.8,438.5 455.6,433.2" /><polyline points="423.8,495.4 427.1,492.2 430.5,488.9 434.1,485.5 437.8,482.0 441.5,478.4 445.0,475.1 448.2,472.1 451.1,469.2 454.0,466.5 457.2,463.4 460.9,459.9 465.0,456.0 469.2,451.9" /><polyline points="423.7,496.9 427.2,495.3 430.7,493.6 434.4,491.8 437.9,490.2 441.2,488.6 444.2,487.1 447.2,485.7 450.4,484.2 453.9,482.5 457.8,480.6 461.9,478.6 465.8,476.7 469.3,475.0" /><polyline points="426.1,497.8 432.0,497.0 438.0,496.2 443.6,495.4 449.0,494.7 454.2,494.0 459.4,493.3 465.2,492.5 471.5,491.6 478.2,490.7 484.8,489.8 490.7,489.0 495.8,488.4 500.2,487.8" /><circle cx="333.1" cy="629.1" r="3.5" fill="none" /><circle cx="476.6" cy="412.8" r="3.5" fill="none" /><circle cx="420.5" cy="498.5" r="3.5" fill="none" /></g></svg>