<?xml version='1.0' encoding='utf-8'?>
<svg xmlns="http://www.w3.org/2000/svg" xmlns:inkscape="http://www.inkscape.org/namespaces/inkscape" viewBox="204 228 408 600"><style>*{vector-effect:non-scaling-stroke}</style><g id="01_Black_Frame" inkscape:groupmode="layer" inkscape:label="01_Black_Frame" stroke="#1A1A1A" fill="none" stroke-width="0.875" stroke-linecap="round" stroke-linejoin="round"><path d="M 250.0,264.0 L 566.0,264.0 Q 576.0,264.0 576.0,274.0 L 576.0,782.0 Q 576.0,792.0 566.0,792.0 L 250.0,792.0 Q 240.0,792.0 240.0,782.0 L 240.0,274.0 Q 240.0,264.0 250.0,264.0" /><path d="M 253.0,270.0 L 563.0,270.0 Q 570.0,270.0 570.0,277.0 L 570.0,779.0 Q 570.0,786.0 563.0,786.0 L 253.0,786.0 Q 246.0,786.0 246.0,779.0 L 246.0,277.0 Q 246.0,270.0 253.0,270.0" /><line x1="259.0" y1="280.0" x2="263.0" y2="280.0" /><line x1="258.1" y1="282.1" x2="260.9" y2="284.9" /><line x1="256.0" y1="283.0" x2="256.0" y2="287.0" /><line x1="253.9" y1="282.1" x2="251.1" y2="284.9" /><line x1="253.0" y1="280.0" x2="249.0" y2="280.0" /><line x1="253.9" y1="277.9" x2="251.1" y2="275.1" /><line x1="256.0" y1="277.0" x2="256.0" y2="273.0" /><line x1="258.1" y1="277.9" x2="260.9" y2="275.1" /><line x1="563.0" y1="280.0" x2="567.0" y2="280.0" /><line x1="562.1" y1="282.1" x2="564.9" y2="284.9" /><line x1="560.0" y1="283.0" x2="560.0" y2="287.0" /><line x1="557.9" y1="282.1" x2="555.1" y2="284.9" /><line x1="557.0" y1="280.0" x2="553.0" y2="280.0" /><line x1="557.9" y1="277.9" x2="555.1" y2="275.1" /><line x1="560.0" y1="277.0" x2="560.0" y2="273.0" /><line x1="562.1" y1="277.9" x2="564.9" y2="275.1" /><line x1="259.0" y1="776.0" x2="263.0" y2="776.0" /><line x1="258.1" y1="778.1" x2="260.9" y2="780.9" /><line x1="256.0" y1="779.0" x2="256.0" y2="783.0" /><line x1="253.9" y1="778.1" x2="251.1" y2="780.9" /><line x1="253.0" y1="776.0" x2="249.0" y2="776.0" /><line x1="253.9" y1="773.9" x2="251.1" y2="771.1" /><line x1="256.0" y1="773.0" x2="256.0" y2="769.0" /><line x1="258.1" y1="773.9" x2="260.9" y2="771.1" /><line x1="563.0" y1="776.0" x2="567.0" y2="776.0" /><line x1="562.1" y1="778.1" x2="564.9" y2="780.9" /><line x1="560.0" y1="779.0" x2="560.0" y2="783.0" /><line x1="557.9" y1="778.1" x2="555.1" y2="780.9" /><line x1="557.0" y1="776.0" x2="553.0" y2="776.0" /><line x1="557.9" y1="773.9" x2="555.1" y2="771.1" /><line x1="560.0" y1="773.0" x2="560.0" y2="769.0" /><line x1="562.1" y1="773.9" x2="564.9" y2="771.1" /><polyline points="395.25,283.20 393.50,282.00 392.50,282.00 390.75,283.60 390.75,288.40 392.50,290.00 393.50,290.00 395.25,288.80" /><polyline points="396.50,282.00 396.50,290.00 400.75,290.00" /><polyline points="402.25,282.00 407.25,290.00" /><polyline points="407.25,282.00 402.25,290.00" /><polyline points="408.00,282.00 413.00,290.00" /><polyline points="413.00,282.00 408.00,290.00" /><polyline points="416.25,282.00 416.25,290.00" /><polyline points="419.50,282.00 424.50,290.00" /><polyline points="424.50,282.00 419.50,290.00" /><polyline points="378.10,297.00 384.60,297.00" /><polyline points="381.35,297.00 381.35,307.00" /><polyline points="385.58,297.00 385.58,307.00" /><polyline points="392.08,297.00 392.08,307.00" /><polyline points="385.58,301.80 392.08,301.80" /><polyline points="398.57,297.00 393.05,297.00 393.05,301.80 396.95,301.80" /><polyline points="393.05,301.80 393.05,307.00 398.57,307.00" /><polyline points="408.00,297.00 408.00,307.00" /><polyline points="414.50,297.00 414.50,307.00" /><polyline points="408.00,301.80 414.50,301.80" /><polyline points="418.73,297.00 416.12,298.00 415.48,300.00 415.48,304.00 416.12,306.00 418.73,307.00 421.33,306.00 421.98,304.00 421.98,300.00 421.33,298.00 418.73,297.00" /><polyline points="428.48,298.00 426.85,297.00 424.90,297.00 423.28,298.50 422.95,300.00 423.93,301.20 426.20,302.00 428.48,302.80 429.45,304.00 429.13,305.50 427.50,307.00 425.23,307.00 423.60,306.00" /><polyline points="430.43,297.00 436.93,297.00" /><polyline points="433.68,297.00 433.68,307.00" /><line x1="270.0" y1="312.0" x2="546.0" y2="312.0" /><line x1="270.0" y1="732.0" x2="546.0" y2="732.0" /><polyline points="381.54,741.42 380.56,740.75 380.00,740.75 379.02,741.65 379.02,744.35 380.00,745.25 380.56,745.25 381.54,744.58 381.54,743.00 380.42,743.00" /><polyline points="383.64,740.75 382.52,741.20 382.24,742.10 382.24,743.90 382.52,744.80 383.64,745.25 384.76,744.80 385.04,743.90 385.04,742.10 384.76,741.20 383.64,740.75" /><polyline points="385.46,745.25 386.86,740.75 388.26,745.25" /><polyline points="385.96,743.67 387.76,743.67" /><polyline points="388.68,740.75 388.68,745.25 391.06,745.25" /><polyline points="399.74,740.75 398.62,741.20 398.34,742.10 398.34,743.90 398.62,744.80 399.74,745.25 400.86,744.80 401.14,743.90 401.14,742.10 400.86,741.20 399.74,740.75" /><polyline points="400.02,743.90 401.14,745.34" /><polyline points="401.56,740.75 401.56,744.12 402.12,745.02 403.80,745.02 404.36,744.12 404.36,740.75" /><polyline points="404.78,745.25 406.18,740.75 407.58,745.25" /><polyline points="405.28,743.67 407.08,743.67" /><polyline points="408.00,740.75 408.00,745.25" /><polyline points="410.52,740.75 408.00,743.00 410.52,745.25" /><polyline points="413.60,740.75 411.22,740.75 411.22,742.91 412.90,742.91" /><polyline points="411.22,742.91 411.22,745.25 413.60,745.25" /><polyline points="423.26,741.20 422.56,740.75 421.72,740.75 421.02,741.42 420.88,742.10 421.30,742.64 422.28,743.00 423.26,743.36 423.68,743.90 423.54,744.58 422.84,745.25 421.86,745.25 421.16,744.80" /><polyline points="424.10,745.25 424.10,740.75 425.50,743.23 426.90,740.75 426.90,745.25" /><polyline points="428.72,740.75 427.60,741.20 427.32,742.10 427.32,743.90 427.60,744.80 428.72,745.25 429.84,744.80 430.12,743.90 430.12,742.10 429.84,741.20 428.72,740.75" /><polyline points="430.54,740.75 430.54,745.25" /><polyline points="433.06,740.75 430.54,743.00 433.06,745.25" /><polyline points="436.14,740.75 433.76,740.75 433.76,742.91 435.44,742.91" /><polyline points="433.76,742.91 433.76,745.25 436.14,745.25" /><polyline points="362.00,753.25 363.25,760.75 364.50,755.88 365.75,760.75 367.00,753.25" /><polyline points="372.00,753.25 367.75,753.25 367.75,756.85 370.75,756.85" /><polyline points="367.75,756.85 367.75,760.75 372.00,760.75" /><polyline points="383.50,754.00 382.25,753.25 380.75,753.25 379.50,754.38 379.25,755.50 380.00,756.40 381.75,757.00 383.50,757.60 384.25,758.50 384.00,759.62 382.75,760.75 381.00,760.75 379.75,760.00" /><polyline points="389.25,753.25 385.00,753.25 385.00,756.85 388.00,756.85" /><polyline points="385.00,756.85 385.00,760.75 389.25,760.75" /><polyline points="390.75,753.25 395.75,753.25" /><polyline points="393.25,753.25 393.25,760.75" /><polyline points="402.25,753.25 407.25,753.25" /><polyline points="404.75,753.25 404.75,760.75" /><polyline points="408.00,753.25 408.00,760.75" /><polyline points="413.00,753.25 413.00,760.75" /><polyline points="408.00,756.85 413.00,756.85" /><polyline points="418.00,753.25 413.75,753.25 413.75,756.85 416.75,756.85" /><polyline points="413.75,756.85 413.75,760.75 418.00,760.75" /><polyline points="425.25,753.25 430.25,753.25" /><polyline points="427.75,753.25 427.75,760.75" /><polyline points="431.00,760.75 433.50,753.25 436.00,760.75" /><polyline points="431.90,758.12 435.10,758.12" /><polyline points="436.75,760.75 436.75,753.25 440.00,753.25 441.00,754.15 441.00,755.35 440.00,756.25 436.75,756.25 440.00,756.25 441.00,757.15 441.00,759.85 440.00,760.75 436.75,760.75" /><polyline points="442.50,753.25 442.50,760.75 446.75,760.75" /><polyline points="452.50,753.25 448.25,753.25 448.25,756.85 451.25,756.85" /><polyline points="448.25,756.85 448.25,760.75 452.50,760.75" /><polyline points="330.38,766.25 331.62,773.75 332.88,768.88 334.12,773.75 335.38,766.25" /><polyline points="336.12,766.25 336.12,773.75" /><polyline points="341.12,766.25 341.12,773.75" /><polyline points="336.12,769.85 341.12,769.85" /><polyline points="344.38,766.25 344.38,773.75" /><polyline points="347.62,766.25 347.62,773.75 351.88,773.75" /><polyline points="357.62,766.25 353.38,766.25 353.38,769.85 356.38,769.85" /><polyline points="353.38,769.85 353.38,773.75 357.62,773.75" /><polyline points="364.88,766.25 369.88,766.25" /><polyline points="367.38,766.25 367.38,773.75" /><polyline points="370.62,766.25 370.62,773.75" /><polyline points="375.62,766.25 375.62,773.75" /><polyline points="370.62,769.85 375.62,769.85" /><polyline points="380.62,766.25 376.38,766.25 376.38,769.85 379.38,769.85" /><polyline points="376.38,769.85 376.38,773.75 380.62,773.75" /><polyline points="387.88,766.25 387.88,773.75" /><polyline points="392.88,766.25 392.88,773.75" /><polyline points="387.88,769.85 392.88,769.85" /><polyline points="396.12,766.25 394.12,767.00 393.62,768.50 393.62,771.50 394.12,773.00 396.12,773.75 398.12,773.00 398.62,771.50 398.62,768.50 398.12,767.00 396.12,766.25" /><polyline points="399.38,766.25 399.38,771.88 400.38,773.38 403.38,773.38 404.38,771.88 404.38,766.25" /><polyline points="409.38,767.00 408.12,766.25 406.62,766.25 405.38,767.38 405.12,768.50 405.88,769.40 407.62,770.00 409.38,770.60 410.12,771.50 409.88,772.62 408.62,773.75 406.88,773.75 405.62,773.00" /><polyline points="415.12,766.25 410.88,766.25 410.88,769.85 413.88,769.85" /><polyline points="410.88,769.85 410.88,773.75 415.12,773.75" /><polyline points="422.38,766.25 423.62,773.75 424.88,768.88 426.12,773.75 427.38,766.25" /><polyline points="428.12,773.75 430.62,766.25 433.12,773.75" /><polyline points="429.02,771.12 432.23,771.12" /><polyline points="438.12,767.00 436.88,766.25 435.38,766.25 434.12,767.38 433.88,768.50 434.62,769.40 436.38,770.00 438.12,770.60 438.88,771.50 438.62,772.62 437.38,773.75 435.62,773.75 434.38,773.00" /><polyline points="445.38,773.75 445.38,766.25 448.62,766.25 449.62,767.15 449.62,768.35 448.62,769.25 445.38,769.25 448.62,769.25 449.62,770.15 449.62,772.85 448.62,773.75 445.38,773.75" /><polyline points="451.12,766.25 451.12,771.88 452.12,773.38 455.12,773.38 456.12,771.88 456.12,766.25" /><polyline points="456.88,773.75 456.88,766.25 460.12,766.25 461.38,767.38 461.38,768.65 460.12,769.62 456.88,769.62 461.38,773.75" /><polyline points="462.62,773.75 462.62,766.25 467.62,773.75 467.62,766.25" /><polyline points="470.88,766.25 470.88,773.75" /><polyline points="474.12,773.75 474.12,766.25 479.12,773.75 479.12,766.25" /><polyline points="484.38,767.38 482.62,766.25 481.62,766.25 479.88,767.75 479.88,772.25 481.62,773.75 482.62,773.75 484.38,772.62 484.38,770.00 482.38,770.00" /><polyline points="378.56,779.50 380.16,784.50 381.76,779.50" /><polyline points="383.84,779.50 383.84,784.50" /><polyline points="387.52,784.00 387.52,784.25" /><polyline points="389.60,779.50 392.80,784.50" /><polyline points="392.80,779.50 389.60,784.50" /><polyline points="393.28,779.50 396.48,784.50" /><polyline points="396.48,779.50 393.28,784.50" /><polyline points="396.96,779.50 398.56,784.50 400.16,779.50" /><polyline points="402.24,779.50 402.24,784.50" /><polyline points="405.92,779.50 405.92,784.50" /><polyline points="409.60,779.50 409.60,784.50" /><polyline points="413.28,784.00 413.28,784.25" /><polyline points="415.36,784.50 415.36,779.50 416.96,782.25 418.56,779.50 418.56,784.50" /><polyline points="419.04,784.50 419.04,779.50 420.64,782.25 422.24,779.50 422.24,784.50" /><polyline points="422.72,779.50 425.92,784.50" /><polyline points="425.92,779.50 422.72,784.50" /><polyline points="426.40,779.50 429.60,784.50" /><polyline points="429.60,779.50 426.40,784.50" /><polyline points="430.08,779.50 431.68,784.50 433.28,779.50" /><polyline points="435.36,779.50 435.36,784.50" /></g><g id="02_Teal_Image" inkscape:groupmode="layer" inkscape:label="02_Teal_Image" stroke="#3A7A7A" fill="none" stroke-width="0.75" stroke-linecap="round" stroke-linejoin="round"><polyline points="430.0,713.0 430.0,713.8 429.9,714.5 429.9,715.3 429.8,716.1 429.7,716.8 429.5,717.6 429.3,718.3 429.1,719.1 428.9,719.8 428.7,720.5 428.4,721.2 428.1,721.9 427.8,722.6 427.4,723.3 427.1,724.0 426.7,724.7 426.2,725.3 425.8,725.9 425.3,726.5" /><polyline points="390.7,726.5 390.2,725.9 389.8,725.3 389.3,724.7 388.9,724.0 388.6,723.3 388.2,722.6 387.9,721.9 387.6,721.2 387.3,720.5 387.1,719.8 386.9,719.1 386.7,718.3 386.5,717.6 386.3,716.8 386.2,716.1 386.1,715.3 386.1,714.5 386.0,713.8 386.0,713.0 386.0,712.2 386.1,711.5 386.1,710.7 386.2,709.9 386.3,709.2 386.5,708.4 386.7,707.7 386.9,706.9 387.1,706.2 387.3,705.5 387.6,704.8 387.9,704.1 388.2,703.4 388.6,702.7 388.9,702.0 389.3,701.3 389.8,700.7 390.2,700.1 390.7,699.5 391.1,698.9 391.7,698.3 392.2,697.7 392.7,697.2 393.3,696.7 393.9,696.1 394.5,695.7 395.1,695.2 395.7,694.8 396.3,694.3 397.0,693.9 397.7,693.6 398.4,693.2 399.1,692.9 399.8,692.6 400.5,692.3 401.2,692.1 401.9,691.9 402.7,691.7 403.4,691.5 404.2,691.3 404.9,691.2 405.7,691.1 406.5,691.1 407.2,691.0" /><polyline points="408.8,691.0 409.5,691.1 410.3,691.1 411.1,691.2 411.8,691.3 412.6,691.5 413.3,691.7 414.1,691.9 414.8,692.1 415.5,692.3 416.2,692.6 416.9,692.9 417.6,693.2 418.3,693.6 419.0,693.9 419.7,694.3 420.3,694.8 420.9,695.2 421.5,695.7 422.1,696.1 422.7,696.7 423.3,697.2 423.8,697.7 424.3,698.3 424.9,698.9 425.3,699.5 425.8,700.1 426.2,700.7 426.7,701.3 427.1,702.0 427.4,702.7 427.8,703.4 428.1,704.1 428.4,704.8 428.7,705.5 428.9,706.2 429.1,706.9 429.3,707.7 429.5,708.4 429.7,709.2 429.8,709.9 429.9,710.7 429.9,711.5 430.0,712.2 430.0,713.0" /><polyline points="463.0,713.0 463.0,714.9 462.9,716.8 462.7,718.7 462.5,720.7 462.2,722.6 461.8,724.4 461.4,726.3" /><polyline points="354.6,726.3 354.2,724.4 353.8,722.6 353.5,720.7 353.3,718.7 353.1,716.8 353.0,714.9 353.0,713.0 353.0,711.1 353.1,709.2 353.3,707.3 353.5,705.3 353.8,703.4 354.2,701.6 354.6,699.7 355.1,697.8 355.7,696.0 356.3,694.2 357.0,692.4 357.8,690.6 358.6,688.9 359.4,687.2 360.4,685.5 361.4,683.9 362.4,682.2 363.5,680.7 364.7,679.1 365.9,677.6 367.1,676.2 368.4,674.8 369.8,673.4 371.2,672.1 372.6,670.9 374.1,669.7 375.7,668.5 377.2,667.4 378.9,666.4 380.5,665.4 382.2,664.4 383.9,663.6 385.6,662.8 387.4,662.0 389.2,661.3 391.0,660.7 392.8,660.1" /><polyline points="423.2,660.1 425.0,660.7 426.8,661.3 428.6,662.0 430.4,662.8 432.1,663.6 433.8,664.4 435.5,665.4 437.1,666.4 438.8,667.4 440.3,668.5 441.9,669.7 443.4,670.9 444.8,672.1 446.2,673.4 447.6,674.8 448.9,676.2 450.1,677.6 451.3,679.1 452.5,680.7 453.6,682.2 454.6,683.9 455.6,685.5 456.6,687.2 457.4,688.9 458.2,690.6 459.0,692.4 459.7,694.2 460.3,696.0 460.9,697.8 461.4,699.7 461.8,701.6 462.2,703.4 462.5,705.3 462.7,707.3 462.9,709.2 463.0,711.1 463.0,713.0" /><polyline points="508.0,713.0 508.0,715.1 507.9,717.2 507.8,719.3 507.6,721.4 507.5,723.5 507.2,725.5" /><polyline points="308.8,725.5 308.5,723.5 308.4,721.4 308.2,719.3 308.1,717.2 308.0,715.1 308.0,713.0 308.0,710.9 308.1,708.8 308.2,706.7 308.4,704.6 308.5,702.5 308.8,700.5 309.1,698.4 309.4,696.3 309.8,694.3 310.2,692.2 310.6,690.2 311.1,688.1 311.7,686.1 312.3,684.1 312.9,682.1 313.6,680.1 314.3,678.1 315.0,676.2 315.8,674.2 316.6,672.3 317.5,670.4 318.4,668.5 319.4,666.7 320.4,664.8 321.4,663.0 322.5,661.2 323.6,659.4 324.7,657.7 325.9,655.9 327.1,654.2 328.3,652.5 329.6,650.9 330.9,649.3 332.3,647.7 333.7,646.1 335.1,644.5 336.6,643.0 338.0,641.6 339.5,640.1 341.1,638.7 342.7,637.3 344.3,635.9 345.9,634.6 347.5,633.3 349.2,632.1 350.9,630.9 352.7,629.7 354.4,628.6 356.2,627.5" /><polyline points="459.8,627.5 461.6,628.6 463.3,629.7 465.1,630.9 466.8,632.1 468.5,633.3 470.1,634.6 471.7,635.9 473.3,637.3 474.9,638.7 476.5,640.1 478.0,641.6 479.4,643.0 480.9,644.5 482.3,646.1 483.7,647.7 485.1,649.3 486.4,650.9 487.7,652.5 488.9,654.2 490.1,655.9 491.3,657.7 492.4,659.4 493.5,661.2 494.6,663.0 495.6,664.8 496.6,666.7 497.6,668.5 498.5,670.4 499.4,672.3 500.2,674.2 501.0,676.2 501.7,678.1 502.4,680.1 503.1,682.1 503.7,684.1 504.3,686.1 504.9,688.1 505.4,690.2 505.8,692.2 506.2,694.3 506.6,696.3 506.9,698.4 507.2,700.5 507.5,702.5 507.6,704.6 507.8,706.7 507.9,708.8 508.0,710.9 508.0,713.0" /><polyline points="563.0,713.0 563.0,715.1 562.9,717.2 562.9,719.3 562.8,721.4 562.6,723.5 562.5,725.6" /><polyline points="253.6,726.6 253.4,724.5 253.3,722.4 253.2,720.3 253.1,718.2 253.0,716.1 253.0,714.0 253.0,712.0 253.0,709.9 253.1,707.8 253.2,705.7 253.3,703.6 253.4,701.5 253.6,699.4 253.8,697.3 254.0,695.2 254.3,693.2 254.6,691.1 254.9,689.0 255.2,686.9 255.6,684.9 256.0,682.8 256.4,680.8 256.8,678.7 257.3,676.7 257.8,674.7 258.3,672.6 258.9,670.6 259.5,668.6 260.1,666.6 260.7,664.6 261.4,662.6 262.1,660.6 262.8,658.7 263.6,656.7 264.4,654.8 265.2,652.8 266.0,650.9 266.8,649.0 267.7,647.1 268.6,645.2 269.5,643.3 270.5,641.5 271.5,639.6 272.5,637.8 273.5,636.0 274.6,634.1 275.6,632.3 276.7,630.6 277.9,628.8 279.0,627.0 280.2,625.3 281.4,623.6 282.6,621.9 283.8,620.2 285.1,618.5 286.4,616.9 287.7,615.3 289.0,613.6 290.4,612.0 291.8,610.5" /><polyline points="523.5,609.7 524.9,611.2 526.3,612.8 527.6,614.4 529.0,616.1 530.2,617.7 531.5,619.4 532.8,621.0 534.0,622.7 535.2,624.5 536.4,626.2 537.6,627.9 538.7,629.7 539.8,631.5 540.9,633.2 542.0,635.0 543.0,636.9 544.0,638.7 545.0,640.5 546.0,642.4 546.9,644.3 547.8,646.2 548.7,648.0 549.6,650.0 550.4,651.9 551.3,653.8 552.0,655.7 552.8,657.7 553.5,659.7 554.2,661.6 554.9,663.6 555.6,665.6 556.2,667.6 556.8,669.6 557.4,671.6 557.9,673.6 558.4,675.7 558.9,677.7 559.4,679.8 559.8,681.8 560.2,683.9 560.6,685.9 561.0,688.0 561.3,690.0 561.6,692.1 561.9,694.2 562.1,696.3 562.3,698.4 562.5,700.4 562.6,702.5 562.8,704.6 562.9,706.7 562.9,708.8 563.0,710.9 563.0,713.0" /><line x1="433.0" y1="713.0" x2="564.0" y2="713.0" /><line x1="432.9" y1="715.2" x2="564.0" y2="726.6" /><line x1="432.6" y1="717.3" x2="487.4" y2="727.0" /><line x1="432.1" y1="719.5" x2="460.2" y2="727.0" /><line x1="431.5" y1="721.6" x2="446.5" y2="727.0" /><line x1="430.7" y1="723.6" x2="438.0" y2="727.0" /><line x1="429.7" y1="725.5" x2="432.2" y2="727.0" /><line x1="408.0" y1="713.0" x2="428.0" y2="727.0" /><line x1="408.0" y1="713.0" x2="424.7" y2="727.0" /><line x1="408.0" y1="713.0" x2="422.0" y2="727.0" /><line x1="408.0" y1="713.0" x2="419.7" y2="727.0" /><line x1="408.0" y1="713.0" x2="396.3" y2="727.0" /><line x1="408.0" y1="713.0" x2="394.0" y2="727.0" /><line x1="408.0" y1="713.0" x2="391.3" y2="727.0" /><line x1="408.0" y1="713.0" x2="388.0" y2="727.0" /><line x1="386.3" y1="725.5" x2="383.8" y2="727.0" /><line x1="385.3" y1="723.6" x2="378.0" y2="727.0" /><line x1="384.5" y1="721.6" x2="369.5" y2="727.0" /><line x1="383.9" y1="719.5" x2="355.8" y2="727.0" /><line x1="383.4" y1="717.3" x2="328.6" y2="727.0" /><line x1="383.1" y1="715.2" x2="252.0" y2="726.6" /><line x1="383.0" y1="713.0" x2="252.0" y2="713.0" /><line x1="383.1" y1="710.8" x2="252.0" y2="699.4" /><line x1="383.4" y1="708.7" x2="252.0" y2="685.5" /><line x1="383.9" y1="706.5" x2="252.0" y2="671.2" /><line x1="384.5" y1="704.4" x2="252.0" y2="656.2" /><line x1="385.3" y1="702.4" x2="252.0" y2="640.3" /><line x1="386.3" y1="700.5" x2="252.0" y2="622.9" /><line x1="387.5" y1="698.7" x2="252.0" y2="603.8" /><line x1="388.8" y1="696.9" x2="291.0" y2="614.8" /><line x1="390.3" y1="695.3" x2="298.3" y2="603.3" /><line x1="391.9" y1="693.8" x2="305.7" y2="591.0" /><line x1="393.7" y1="692.5" x2="313.0" y2="577.3" /><line x1="395.5" y1="691.3" x2="320.3" y2="561.1" /><line x1="397.4" y1="690.3" x2="327.7" y2="540.7" /><line x1="399.4" y1="689.5" x2="340.9" y2="528.6" /><line x1="401.5" y1="688.9" x2="363.6" y2="547.1" /><line x1="403.7" y1="688.4" x2="382.0" y2="565.6" /><line x1="405.8" y1="688.1" x2="396.7" y2="584.2" /><line x1="408.0" y1="688.0" x2="408.0" y2="602.7" /><line x1="410.2" y1="688.1" x2="419.3" y2="584.2" /><line x1="412.3" y1="688.4" x2="434.0" y2="565.6" /><line x1="414.5" y1="688.9" x2="452.4" y2="547.1" /><line x1="416.6" y1="689.5" x2="475.1" y2="528.6" /><line x1="418.6" y1="690.3" x2="488.3" y2="540.7" /><line x1="420.5" y1="691.3" x2="495.7" y2="561.1" /><line x1="422.3" y1="692.5" x2="503.0" y2="577.3" /><line x1="424.1" y1="693.8" x2="510.3" y2="591.0" /><line x1="425.7" y1="695.3" x2="517.7" y2="603.3" /><line x1="427.2" y1="696.9" x2="525.0" y2="614.8" /><line x1="428.5" y1="698.7" x2="564.0" y2="603.8" /><line x1="429.7" y1="700.5" x2="564.0" y2="622.9" /><line x1="430.7" y1="702.4" x2="564.0" y2="640.3" /><line x1="431.5" y1="704.4" x2="564.0" y2="656.2" /><line x1="432.1" y1="706.5" x2="564.0" y2="671.2" /><line x1="432.6" y1="708.7" x2="564.0" y2="685.5" /><line x1="432.9" y1="710.8" x2="564.0" y2="699.4" /></g><g id="03_Gold_Accent" inkscape:groupmode="layer" inkscape:label="03_Gold_Accent" stroke="#B8960C" fill="none" stroke-width="1.12" stroke-linecap="round" stroke-linejoin="round"><line x1="564.0" y1="717.5" x2="564.0" y2="708.5" /><line x1="563.6" y1="731.1" x2="564.4" y2="722.2" /><line x1="486.6" y1="731.4" x2="488.2" y2="722.6" /><line x1="459.1" y1="731.3" x2="461.4" y2="722.7" /><line x1="444.9" y1="731.2" x2="448.0" y2="722.8" /><line x1="436.1" y1="731.1" x2="439.9" y2="722.9" /><line x1="430.0" y1="730.9" x2="434.5" y2="723.1" /><line x1="425.4" y1="730.7" x2="430.6" y2="723.3" /><line x1="421.8" y1="730.4" x2="427.6" y2="723.6" /><line x1="418.8" y1="730.2" x2="425.2" y2="723.8" /><line x1="416.3" y1="729.9" x2="423.2" y2="724.1" /><line x1="392.8" y1="724.1" x2="399.7" y2="729.9" /><line x1="390.8" y1="723.8" x2="397.2" y2="730.2" /><line x1="388.4" y1="723.6" x2="394.2" y2="730.4" /><line x1="385.4" y1="723.3" x2="390.6" y2="730.7" /><line x1="381.5" y1="723.1" x2="386.0" y2="730.9" /><line x1="376.1" y1="722.9" x2="379.9" y2="731.1" /><line x1="368.0" y1="722.8" x2="371.1" y2="731.2" /><line x1="354.6" y1="722.7" x2="356.9" y2="731.3" /><line x1="327.8" y1="722.6" x2="329.4" y2="731.4" /><line x1="251.6" y1="722.2" x2="252.4" y2="731.1" /><line x1="252.0" y1="708.5" x2="252.0" y2="717.5" /><line x1="252.4" y1="694.9" x2="251.6" y2="703.8" /><line x1="252.8" y1="681.1" x2="251.2" y2="689.9" /><line x1="253.2" y1="666.9" x2="250.8" y2="675.5" /><line x1="253.5" y1="652.0" x2="250.5" y2="660.4" /><line x1="253.9" y1="636.2" x2="250.1" y2="644.3" /><line x1="254.2" y1="619.0" x2="249.8" y2="626.8" /><line x1="254.6" y1="600.1" x2="249.4" y2="607.5" /><circle cx="291.0" cy="614.8" r="2.8" /><circle cx="298.3" cy="603.3" r="2.8" /><circle cx="305.7" cy="591.0" r="2.8" /><circle cx="313.0" cy="577.3" r="2.8" /><circle cx="320.3" cy="561.1" r="2.8" /><circle cx="327.7" cy="540.7" r="2.8" /><circle cx="340.9" cy="528.6" r="2.8" /><circle cx="363.6" cy="547.1" r="2.8" /><circle cx="382.0" cy="565.6" r="2.8" /><circle cx="396.7" cy="584.2" r="2.8" /><circle cx="408.0" cy="602.7" r="2.8" /><circle cx="419.3" cy="584.2" r="2.8" /><circle cx="434.0" cy="565.6" r="2.8" /><circle cx="452.4" cy="547.1" r="2.8" /><circle cx="475.1" cy="528.6" r="2.8" /><circle cx="488.3" cy="540.7" r="2.8" /><circle cx="495.7" cy="561.1" r="2.8" /><circle cx="503.0" cy="577.3" r="2.8" /><circle cx="510.3" cy="591.0" r="2.8" /><circle cx="517.7" cy="603.3" r="2.8" /><circle cx="525.0" cy="614.8" r="2.8" /><line x1="566.6" y1="607.5" x2="561.4" y2="600.1" /><line x1="566.2" y1="626.8" x2="561.8" y2="619.0" /><line x1="565.9" y1="644.3" x2="562.1" y2="636.2" /><line x1="565.5" y1="660.4" x2="562.5" y2="652.0" /><line x1="565.2" y1="675.5" x2="562.8" y2="666.9" /><line x1="564.8" y1="689.9" x2="563.2" y2="681.1" /><line x1="564.4" y1="703.8" x2="563.6" y2="694.9" /><circle cx="408.0" cy="713.0" r="8" /><circle cx="408.0" cy="713.0" r="3.5" /></g></svg>