<?xml version='1.0' encoding='utf-8'?>
<svg xmlns="http://www.w3.org/2000/svg" xmlns:inkscape="http://www.inkscape.org/namespaces/inkscape" viewBox="204 228 408 600"><style>*{vector-effect:non-scaling-stroke}</style><g id="01_Black_Frame" inkscape:groupmode="layer" inkscape:label="01_Black_Frame" stroke="#1A1A1A" fill="none" stroke-width="0.875" stroke-linecap="round" stroke-linejoin="round"><path d="M 250.0,264.0 L 566.0,264.0 Q 576.0,264.0 576.0,274.0 L 576.0,782.0 Q 576.0,792.0 566.0,792.0 L 250.0,792.0 Q 240.0,792.0 240.0,782.0 L 240.0,274.0 Q 240.0,264.0 250.0,264.0" /><path d="M 253.0,270.0 L 563.0,270.0 Q 570.0,270.0 570.0,277.0 L 570.0,779.0 Q 570.0,786.0 563.0,786.0 L 253.0,786.0 Q 246.0,786.0 246.0,779.0 L 246.0,277.0 Q 246.0,270.0 253.0,270.0" /><line x1="259.0" y1="280.0" x2="263.0" y2="280.0" /><line x1="258.1" y1="282.1" x2="260.9" y2="284.9" /><line x1="256.0" y1="283.0" x2="256.0" y2="287.0" /><line x1="253.9" y1="282.1" x2="251.1" y2="284.9" /><line x1="253.0" y1="280.0" x2="249.0" y2="280.0" /><line x1="253.9" y1="277.9" x2="251.1" y2="275.1" /><line x1="256.0" y1="277.0" x2="256.0" y2="273.0" /><line x1="258.1" y1="277.9" x2="260.9" y2="275.1" /><line x1="563.0" y1="280.0" x2="567.0" y2="280.0" /><line x1="562.1" y1="282.1" x2="564.9" y2="284.9" /><line x1="560.0" y1="283.0" x2="560.0" y2="287.0" /><line x1="557.9" y1="282.1" x2="555.1" y2="284.9" /><line x1="557.0" y1="280.0" x2="553.0" y2="280.0" /><line x1="557.9" y1="277.9" x2="555.1" y2="275.1" /><line x1="560.0" y1="277.0" x2="560.0" y2="273.0" /><line x1="562.1" y1="277.9" x2="564.9" y2="275.1" /><line x1="259.0" y1="776.0" x2="263.0" y2="776.0" /><line x1="258.1" y1="778.1" x2="260.9" y2="780.9" /><line x1="256.0" y1="779.0" x2="256.0" y2="783.0" /><line x1="253.9" y1="778.1" x2="251.1" y2="780.9" /><line x1="253.0" y1="776.0" x2="249.0" y2="776.0" /><line x1="253.9" y1="773.9" x2="251.1" y2="771.1" /><line x1="256.0" y1="773.0" x2="256.0" y2="769.0" /><line x1="258.1" y1="773.9" x2="260.9" y2="771.1" /><line x1="563.0" y1="776.0" x2="567.0" y2="776.0" /><line x1="562.1" y1="778.1" x2="564.9" y2="780.9" /><line x1="560.0" y1="779.0" x2="560.0" y2="783.0" /><line x1="557.9" y1="778.1" x2="555.1" y2="780.9" /><line x1="557.0" y1="776.0" x2="553.0" y2="776.0" /><line x1="557.9" y1="773.9" x2="555.1" y2="771.1" /><line x1="560.0" y1="773.0" x2="560.0" y2="769.0" /><line x1="562.1" y1="773.9" x2="564.9" y2="771.1" /><polyline points="403.88,283.20 402.12,282.00 401.12,282.00 399.38,283.60 399.38,288.40 401.12,290.00 402.12,290.00 403.88,288.80" /><polyline points="407.62,282.00 407.62,290.00" /><polyline points="413.38,282.00 413.38,290.00" /><polyline points="359.41,297.00 365.91,297.00" /><polyline points="362.66,297.00 362.66,307.00" /><polyline points="366.89,297.00 366.89,307.00" /><polyline points="373.39,297.00 373.39,307.00" /><polyline points="366.89,301.80 373.39,301.80" /><polyline points="379.89,297.00 374.36,297.00 374.36,301.80 378.26,301.80" /><polyline points="374.36,301.80 374.36,307.00 379.89,307.00" /><polyline points="389.31,297.00 395.81,297.00" /><polyline points="392.56,297.00 392.56,307.00" /><polyline points="396.79,297.00 396.79,307.00" /><polyline points="403.29,297.00 403.29,307.00" /><polyline points="396.79,301.80 403.29,301.80" /><polyline points="404.26,307.00 404.26,297.00 408.49,297.00 410.11,298.50 410.11,300.20 408.49,301.50 404.26,301.50 410.11,307.00" /><polyline points="417.26,297.00 411.74,297.00 411.74,301.80 415.64,301.80" /><polyline points="411.74,301.80 411.74,307.00 417.26,307.00" /><polyline points="424.74,298.00 423.11,297.00 421.16,297.00 419.54,298.50 419.21,300.00 420.19,301.20 422.46,302.00 424.74,302.80 425.71,304.00 425.39,305.50 423.76,307.00 421.49,307.00 419.86,306.00" /><polyline points="426.69,297.00 426.69,307.00" /><polyline points="433.19,297.00 433.19,307.00" /><polyline points="426.69,301.80 433.19,301.80" /><polyline points="437.41,297.00 434.81,298.00 434.16,300.00 434.16,304.00 434.81,306.00 437.41,307.00 440.01,306.00 440.66,304.00 440.66,300.00 440.01,298.00 437.41,297.00" /><polyline points="441.64,297.00 441.64,307.00 447.16,307.00" /><polyline points="449.11,307.00 449.11,297.00 452.69,297.00 454.96,299.50 454.96,304.50 452.69,307.00 449.11,307.00" /><line x1="270.0" y1="312.0" x2="546.0" y2="312.0" /><line x1="270.0" y1="732.0" x2="546.0" y2="732.0" /><polyline points="361.31,745.25 361.31,740.75 362.71,743.23 364.11,740.75 364.11,745.25" /><polyline points="364.53,745.25 365.93,740.75 367.33,745.25" /><polyline points="365.03,743.67 366.83,743.67" /><polyline points="367.75,745.25 367.75,740.75 369.57,740.75 370.27,741.42 370.27,742.19 369.57,742.77 367.75,742.77 370.27,745.25" /><polyline points="370.97,740.75 370.97,745.25" /><polyline points="373.49,740.75 370.97,743.00 373.49,745.25" /><polyline points="376.57,740.75 374.19,740.75 374.19,742.91 375.87,742.91" /><polyline points="374.19,742.91 374.19,745.25 376.57,745.25" /><polyline points="377.41,740.75 380.21,740.75" /><polyline points="378.81,740.75 378.81,745.25" /><polyline points="389.45,741.20 388.75,740.75 387.91,740.75 387.21,741.42 387.07,742.10 387.49,742.64 388.47,743.00 389.45,743.36 389.87,743.90 389.73,744.58 389.03,745.25 388.05,745.25 387.35,744.80" /><polyline points="391.69,740.75 391.69,745.25" /><polyline points="393.51,740.75 396.31,745.25" /><polyline points="396.31,740.75 393.51,745.25" /><polyline points="396.73,740.75 399.53,740.75" /><polyline points="398.13,740.75 398.13,745.25" /><polyline points="402.33,740.75 399.95,740.75 399.95,742.91 401.63,742.91" /><polyline points="399.95,742.91 399.95,745.25 402.33,745.25" /><polyline points="405.55,740.75 403.17,740.75 403.17,742.91 404.85,742.91" /><polyline points="403.17,742.91 403.17,745.25 405.55,745.25" /><polyline points="406.39,745.25 406.39,740.75 409.19,745.25 409.19,740.75" /><polyline points="416.05,745.25 416.05,740.75 417.45,743.23 418.85,740.75 418.85,745.25" /><polyline points="420.67,740.75 420.67,745.25" /><polyline points="424.87,741.20 424.17,740.75 423.33,740.75 422.63,741.42 422.49,742.10 422.91,742.64 423.89,743.00 424.87,743.36 425.29,743.90 425.15,744.58 424.45,745.25 423.47,745.25 422.77,744.80" /><polyline points="428.09,740.75 425.71,740.75 425.71,742.91 427.39,742.91" /><polyline points="425.71,742.91 425.71,745.25" /><polyline points="430.33,740.75 430.33,745.25" /><polyline points="432.15,745.25 432.15,740.75 433.97,740.75 434.67,741.42 434.67,742.19 433.97,742.77 432.15,742.77 434.67,745.25" /><polyline points="437.75,740.75 435.37,740.75 435.37,742.91 437.05,742.91" /><polyline points="435.37,742.91 435.37,745.25 437.75,745.25" /><polyline points="446.43,740.75 446.43,745.25" /><polyline points="450.77,741.42 449.79,740.75 449.23,740.75 448.25,741.65 448.25,744.35 449.23,745.25 449.79,745.25 450.77,744.58" /><polyline points="453.85,740.75 451.47,740.75 451.47,742.91 453.15,742.91" /><polyline points="451.47,742.91 451.47,745.25 453.85,745.25" /><polyline points="331.75,753.25 327.50,753.25 327.50,756.85 330.50,756.85" /><polyline points="327.50,756.85 327.50,760.75 331.75,760.75" /><polyline points="333.25,753.25 335.75,760.75 338.25,753.25" /><polyline points="343.25,753.25 339.00,753.25 339.00,756.85 342.00,756.85" /><polyline points="339.00,756.85 339.00,760.75 343.25,760.75" /><polyline points="344.75,760.75 344.75,753.25 348.00,753.25 349.25,754.38 349.25,755.65 348.00,756.62 344.75,756.62 349.25,760.75" /><polyline points="350.50,753.25 353.00,757.00 355.50,753.25" /><polyline points="353.00,757.00 353.00,760.75" /><polyline points="358.75,753.25 356.75,754.00 356.25,755.50 356.25,758.50 356.75,760.00 358.75,760.75 360.75,760.00 361.25,758.50 361.25,755.50 360.75,754.00 358.75,753.25" /><polyline points="362.00,760.75 362.00,753.25 367.00,760.75 367.00,753.25" /><polyline points="372.00,753.25 367.75,753.25 367.75,756.85 370.75,756.85" /><polyline points="367.75,756.85 367.75,760.75 372.00,760.75" /><polyline points="383.75,754.38 382.00,753.25 381.00,753.25 379.25,754.75 379.25,759.25 381.00,760.75 382.00,760.75 383.75,759.62" /><polyline points="387.50,753.25 385.50,754.00 385.00,755.50 385.00,758.50 385.50,760.00 387.50,760.75 389.50,760.00 390.00,758.50 390.00,755.50 389.50,754.00 387.50,753.25" /><polyline points="390.75,753.25 390.75,758.88 391.75,760.38 394.75,760.38 395.75,758.88 395.75,753.25" /><polyline points="396.50,760.75 396.50,753.25 401.50,760.75 401.50,753.25" /><polyline points="402.25,753.25 407.25,753.25" /><polyline points="404.75,753.25 404.75,760.75" /><polyline points="412.25,754.00 411.00,753.25 409.50,753.25 408.25,754.38 408.00,755.50 408.75,756.40 410.50,757.00 412.25,757.60 413.00,758.50 412.75,759.62 411.50,760.75 409.75,760.75 408.50,760.00" /><polyline points="419.50,753.25 420.75,760.75 422.00,755.88 423.25,760.75 424.50,753.25" /><polyline points="425.25,753.25 425.25,760.75" /><polyline points="430.25,753.25 430.25,760.75" /><polyline points="425.25,756.85 430.25,756.85" /><polyline points="431.00,760.75 433.50,753.25 436.00,760.75" /><polyline points="431.90,758.12 435.10,758.12" /><polyline points="436.75,753.25 441.75,753.25" /><polyline points="439.25,753.25 439.25,760.75" /><polyline points="452.75,754.38 451.00,753.25 450.00,753.25 448.25,754.75 448.25,759.25 450.00,760.75 451.00,760.75 452.75,759.62" /><polyline points="454.00,760.75 454.00,753.25 457.25,753.25 458.50,754.38 458.50,755.65 457.25,756.62 454.00,756.62 458.50,760.75" /><polyline points="462.25,753.25 460.25,754.00 459.75,755.50 459.75,758.50 460.25,760.00 462.25,760.75 464.25,760.00 464.75,758.50 464.75,755.50 464.25,754.00 462.25,753.25" /><polyline points="469.75,754.00 468.50,753.25 467.00,753.25 465.75,754.38 465.50,755.50 466.25,756.40 468.00,757.00 469.75,757.60 470.50,758.50 470.25,759.62 469.00,760.75 467.25,760.75 466.00,760.00" /><polyline points="475.50,754.00 474.25,753.25 472.75,753.25 471.50,754.38 471.25,755.50 472.00,756.40 473.75,757.00 475.50,757.60 476.25,758.50 476.00,759.62 474.75,760.75 473.00,760.75 471.75,760.00" /><polyline points="481.25,753.25 477.00,753.25 477.00,756.85 480.00,756.85" /><polyline points="477.00,756.85 477.00,760.75 481.25,760.75" /><polyline points="482.75,760.75 482.75,753.25 485.50,753.25 487.25,755.12 487.25,758.88 485.50,760.75 482.75,760.75" /><polyline points="339.00,773.75 339.00,766.25 344.00,773.75 344.00,766.25" /><polyline points="347.25,766.25 345.25,767.00 344.75,768.50 344.75,771.50 345.25,773.00 347.25,773.75 349.25,773.00 349.75,771.50 349.75,768.50 349.25,767.00 347.25,766.25" /><polyline points="350.50,773.75 350.50,766.25 353.75,766.25 354.75,767.15 354.75,768.35 353.75,769.25 350.50,769.25 353.75,769.25 354.75,770.15 354.75,772.85 353.75,773.75 350.50,773.75" /><polyline points="358.75,766.25 356.75,767.00 356.25,768.50 356.25,771.50 356.75,773.00 358.75,773.75 360.75,773.00 361.25,771.50 361.25,768.50 360.75,767.00 358.75,766.25" /><polyline points="362.00,773.75 362.00,766.25 364.75,766.25 366.50,768.12 366.50,771.88 364.75,773.75 362.00,773.75" /><polyline points="367.75,766.25 370.25,770.00 372.75,766.25" /><polyline points="370.25,770.00 370.25,773.75" /><polyline points="383.75,767.38 382.00,766.25 381.00,766.25 379.25,767.75 379.25,772.25 381.00,773.75 382.00,773.75 383.75,772.62" /><polyline points="387.50,766.25 385.50,767.00 385.00,768.50 385.00,771.50 385.50,773.00 387.50,773.75 389.50,773.00 390.00,771.50 390.00,768.50 389.50,767.00 387.50,766.25" /><polyline points="390.75,766.25 390.75,771.88 391.75,773.38 394.75,773.38 395.75,771.88 395.75,766.25" /><polyline points="396.50,773.75 396.50,766.25 401.50,773.75 401.50,766.25" /><polyline points="402.25,766.25 407.25,766.25" /><polyline points="404.75,766.25 404.75,773.75" /><polyline points="412.25,767.00 411.00,766.25 409.50,766.25 408.25,767.38 408.00,768.50 408.75,769.40 410.50,770.00 412.25,770.60 413.00,771.50 412.75,772.62 411.50,773.75 409.75,773.75 408.50,773.00" /><polyline points="419.50,766.25 420.75,773.75 422.00,768.88 423.25,773.75 424.50,766.25" /><polyline points="425.25,766.25 425.25,773.75" /><polyline points="430.25,766.25 430.25,773.75" /><polyline points="425.25,769.85 430.25,769.85" /><polyline points="431.00,773.75 433.50,766.25 436.00,773.75" /><polyline points="431.90,771.12 435.10,771.12" /><polyline points="436.75,766.25 441.75,766.25" /><polyline points="439.25,766.25 439.25,773.75" /><polyline points="448.25,766.25 453.25,766.25" /><polyline points="450.75,766.25 450.75,773.75" /><polyline points="454.00,773.75 454.00,766.25 457.25,766.25 458.50,767.38 458.50,768.65 457.25,769.62 454.00,769.62 458.50,773.75" /><polyline points="462.25,766.25 462.25,773.75" /><polyline points="469.75,766.25 465.50,766.25 465.50,769.85 468.50,769.85" /><polyline points="465.50,769.85 465.50,773.75 469.75,773.75" /><polyline points="471.25,773.75 471.25,766.25 474.00,766.25 475.75,768.12 475.75,771.88 474.00,773.75 471.25,773.75" /><polyline points="385.68,779.50 385.68,784.50" /><polyline points="387.76,779.50 389.36,784.50 390.96,779.50" /><polyline points="393.04,784.00 393.04,784.25" /><polyline points="395.12,779.50 398.32,784.50" /><polyline points="398.32,779.50 395.12,784.50" /><polyline points="400.40,779.50 400.40,784.50" /><polyline points="404.08,779.50 404.08,784.50" /><polyline points="407.76,784.00 407.76,784.25" /><polyline points="409.84,784.50 409.84,779.50 411.44,782.25 413.04,779.50 413.04,784.50" /><polyline points="413.52,784.50 413.52,779.50 415.12,782.25 416.72,779.50 416.72,784.50" /><polyline points="417.20,779.50 420.40,784.50" /><polyline points="420.40,779.50 417.20,784.50" /><polyline points="420.88,779.50 424.08,784.50" /><polyline points="424.08,779.50 420.88,784.50" /><polyline points="424.56,779.50 426.16,784.50 427.76,779.50" /><polyline points="429.84,779.50 429.84,784.50" /></g><g id="02_Teal_Rising" inkscape:groupmode="layer" inkscape:label="02_Teal_Rising" stroke="#2B6B6B" fill="none" stroke-width="0.75" stroke-linecap="round" stroke-linejoin="round"><line x1="253.8" y1="727.0" x2="253.8" y2="461.8" /><line x1="256.9" y1="726.1" x2="256.9" y2="485.2" /><line x1="259.5" y1="727.0" x2="259.5" y2="533.9" /><line x1="261.6" y1="727.0" x2="261.6" y2="548.0" /><line x1="264.8" y1="727.0" x2="264.8" y2="567.8" /><line x1="267.1" y1="727.0" x2="267.1" y2="507.5" /><line x1="269.6" y1="727.0" x2="269.6" y2="591.8" /><line x1="271.8" y1="725.9" x2="271.8" y2="603.7" /><line x1="274.7" y1="727.0" x2="274.7" y2="513.5" /><line x1="277.3" y1="727.0" x2="277.3" y2="501.2" /><line x1="279.7" y1="727.0" x2="279.7" y2="499.0" /><line x1="282.3" y1="727.0" x2="282.3" y2="493.7" /><line x1="285.0" y1="725.8" x2="285.0" y2="461.8" /><line x1="287.6" y1="726.4" x2="287.6" y2="553.5" /><line x1="290.3" y1="726.5" x2="290.3" y2="565.9" /><line x1="292.5" y1="726.0" x2="292.5" y2="581.6" /><line x1="295.1" y1="726.9" x2="295.1" y2="556.3" /><line x1="297.9" y1="727.0" x2="297.9" y2="654.3" /><line x1="300.3" y1="727.0" x2="300.3" y2="566.8" /><line x1="303.4" y1="726.2" x2="303.4" y2="533.7" /><line x1="305.6" y1="726.6" x2="305.6" y2="555.8" /><line x1="308.3" y1="725.8" x2="308.3" y2="524.2" /><line x1="310.7" y1="725.9" x2="310.7" y2="589.8" /><line x1="313.2" y1="725.9" x2="313.2" y2="571.9" /><line x1="316.5" y1="727.0" x2="316.5" y2="487.0" /><line x1="319.1" y1="727.0" x2="319.1" y2="568.4" /><line x1="321.6" y1="727.0" x2="321.6" y2="461.8" /><line x1="323.8" y1="727.0" x2="323.8" y2="566.2" /><line x1="326.4" y1="727.0" x2="326.4" y2="519.2" /><line x1="329.3" y1="726.6" x2="329.3" y2="564.9" /><line x1="331.6" y1="727.0" x2="331.6" y2="548.9" /><line x1="334.1" y1="725.7" x2="334.1" y2="477.1" /><line x1="337.1" y1="726.3" x2="337.1" y2="507.3" /><line x1="339.8" y1="725.9" x2="339.8" y2="461.8" /><line x1="342.1" y1="727.0" x2="342.1" y2="533.1" /><line x1="344.7" y1="727.0" x2="344.7" y2="573.4" /><line x1="347.0" y1="725.9" x2="347.0" y2="484.5" /><line x1="349.5" y1="727.0" x2="349.5" y2="515.7" /><line x1="352.1" y1="726.1" x2="352.1" y2="538.6" /><line x1="355.0" y1="725.8" x2="355.0" y2="479.5" /><line x1="357.2" y1="726.0" x2="357.2" y2="535.9" /><line x1="360.1" y1="726.6" x2="360.1" y2="536.8" /><line x1="363.0" y1="726.8" x2="363.0" y2="570.6" /><line x1="365.1" y1="726.0" x2="365.1" y2="595.8" /><line x1="367.6" y1="726.3" x2="367.6" y2="613.9" /><line x1="370.9" y1="725.6" x2="370.9" y2="579.9" /><line x1="372.8" y1="727.0" x2="372.8" y2="492.4" /><line x1="375.5" y1="727.0" x2="375.5" y2="461.8" /><line x1="378.4" y1="727.0" x2="378.4" y2="511.8" /><line x1="380.6" y1="725.7" x2="380.6" y2="597.3" /><line x1="383.7" y1="727.0" x2="383.7" y2="469.6" /><line x1="386.3" y1="727.0" x2="386.3" y2="477.3" /><line x1="388.4" y1="726.9" x2="388.4" y2="568.1" /><line x1="391.3" y1="726.8" x2="391.3" y2="504.0" /><line x1="394.0" y1="726.6" x2="394.0" y2="479.2" /><line x1="396.2" y1="726.9" x2="396.2" y2="650.1" /><line x1="399.3" y1="726.0" x2="399.3" y2="578.6" /><line x1="401.5" y1="725.7" x2="401.5" y2="518.1" /><line x1="404.4" y1="727.0" x2="404.4" y2="550.5" /><line x1="406.9" y1="725.7" x2="406.9" y2="559.1" /><line x1="408.9" y1="726.4" x2="408.9" y2="517.4" /><line x1="412.0" y1="725.6" x2="412.0" y2="509.6" /><line x1="414.7" y1="726.3" x2="414.7" y2="461.8" /><line x1="417.4" y1="726.6" x2="417.4" y2="501.4" /><line x1="419.9" y1="727.0" x2="419.9" y2="461.8" /><line x1="422.3" y1="726.2" x2="422.3" y2="623.9" /><line x1="424.5" y1="726.5" x2="424.5" y2="519.8" /><line x1="427.5" y1="727.0" x2="427.5" y2="545.3" /><line x1="429.8" y1="726.0" x2="429.8" y2="529.2" /><line x1="432.5" y1="727.0" x2="432.5" y2="480.0" /><line x1="435.3" y1="726.6" x2="435.3" y2="582.6" /><line x1="438.1" y1="727.0" x2="438.1" y2="543.2" /><line x1="440.1" y1="726.8" x2="440.1" y2="461.8" /><line x1="442.6" y1="727.0" x2="442.6" y2="644.9" /><line x1="445.2" y1="727.0" x2="445.2" y2="498.5" /><line x1="448.0" y1="727.0" x2="448.0" y2="606.4" /><line x1="450.4" y1="727.0" x2="450.4" y2="533.7" /><line x1="453.0" y1="727.0" x2="453.0" y2="485.6" /><line x1="456.2" y1="727.0" x2="456.2" y2="481.8" /><line x1="458.9" y1="726.0" x2="458.9" y2="504.3" /><line x1="461.4" y1="726.2" x2="461.4" y2="514.7" /><line x1="463.9" y1="726.6" x2="463.9" y2="517.2" /><line x1="466.6" y1="727.0" x2="466.6" y2="551.2" /><line x1="468.6" y1="727.0" x2="468.6" y2="571.6" /><line x1="471.3" y1="725.8" x2="471.3" y2="495.6" /><line x1="474.2" y1="727.0" x2="474.2" y2="641.3" /><line x1="476.8" y1="726.1" x2="476.8" y2="461.8" /><line x1="479.3" y1="726.4" x2="479.3" y2="490.1" /><line x1="482.0" y1="726.0" x2="482.0" y2="633.6" /><line x1="484.0" y1="727.0" x2="484.0" y2="467.0" /><line x1="486.8" y1="725.7" x2="486.8" y2="602.0" /><line x1="489.2" y1="726.0" x2="489.2" y2="542.3" /><line x1="491.8" y1="727.0" x2="491.8" y2="527.4" /><line x1="494.8" y1="725.7" x2="494.8" y2="553.8" /><line x1="497.3" y1="726.0" x2="497.3" y2="551.0" /><line x1="500.2" y1="726.8" x2="500.2" y2="586.0" /><line x1="502.4" y1="727.0" x2="502.4" y2="626.2" /><line x1="505.0" y1="726.1" x2="505.0" y2="553.8" /><line x1="507.4" y1="726.2" x2="507.4" y2="508.9" /><line x1="510.0" y1="727.0" x2="510.0" y2="533.0" /><line x1="512.8" y1="727.0" x2="512.8" y2="546.0" /><line x1="515.4" y1="727.0" x2="515.4" y2="517.1" /><line x1="517.8" y1="727.0" x2="517.8" y2="592.0" /><line x1="520.9" y1="727.0" x2="520.9" y2="511.1" /><line x1="523.5" y1="726.8" x2="523.5" y2="461.8" /><line x1="525.7" y1="727.0" x2="525.7" y2="510.7" /><line x1="528.1" y1="725.8" x2="528.1" y2="461.8" /><line x1="531.1" y1="727.0" x2="531.1" y2="624.3" /><line x1="533.5" y1="726.0" x2="533.5" y2="567.8" /><line x1="535.8" y1="727.0" x2="535.8" y2="480.6" /><line x1="538.4" y1="726.4" x2="538.4" y2="582.6" /><line x1="541.3" y1="726.4" x2="541.3" y2="545.9" /><line x1="544.0" y1="726.3" x2="544.0" y2="461.8" /><line x1="546.1" y1="726.5" x2="546.1" y2="571.2" /><line x1="548.9" y1="727.0" x2="548.9" y2="512.1" /><line x1="551.6" y1="726.6" x2="551.6" y2="533.4" /><line x1="553.8" y1="726.8" x2="553.8" y2="614.2" /><line x1="556.5" y1="726.9" x2="556.5" y2="599.3" /><line x1="559.5" y1="727.0" x2="559.5" y2="508.0" /><line x1="562.3" y1="725.7" x2="562.3" y2="474.0" /></g><g id="03_Sienna_Crossed" inkscape:groupmode="layer" inkscape:label="03_Sienna_Crossed" stroke="#6B3A2A" fill="none" stroke-width="0.75" stroke-linecap="round" stroke-linejoin="round"><polyline points="253.8,461.8 253.1,458.9 252.8,456.1 253.0,453.2 253.6,450.4 254.4,447.5 255.2,444.7 255.7,441.8 255.8,439.0 255.4,436.1 254.6,433.2 253.8,430.4" /><polyline points="285.0,461.8 284.7,459.1 284.5,456.4 284.6,453.7 284.9,451.0 285.4,448.3 286.1,445.6 286.7,442.9 287.3,440.2 287.7,437.5 287.9,434.8 287.8,432.1 287.5,429.4 286.9,426.7 286.2,424.0 285.5,421.3 284.8,418.6 284.2,415.9 283.9,413.2 283.8,410.5 283.9,407.8 284.2,405.1 284.6,402.4 285.0,399.7" /><polyline points="321.6,461.8 322.6,459.0 323.2,456.2 323.2,453.4 322.5,450.5 321.7,447.7 321.1,444.9 321.0,442.1 321.6,439.3" /><polyline points="339.8,461.8 340.2,459.1 340.9,456.3 341.6,453.6 342.2,450.8 342.6,448.1 342.5,445.3 342.1,442.6 341.4,439.8 340.6,437.1 339.9,434.3 339.5,431.6 339.5,428.8 339.8,426.1" /><polyline points="375.5,461.8 375.9,459.1 376.2,456.4 376.1,453.8 375.7,451.1 375.2,448.4 374.4,445.7 373.7,443.1 373.1,440.4 372.7,437.7 372.6,435.0 372.8,432.3 373.3,429.7 373.9,427.0 374.6,424.3 375.1,421.6 375.4,418.9 375.5,416.3" /><polyline points="414.7,461.8 414.5,459.2 414.1,456.5 413.5,453.9 412.9,451.2 412.4,448.6 412.2,445.9 412.2,443.3 412.5,440.6 413.0,438.0 413.8,435.4 414.5,432.7 415.2,430.1 415.7,427.4 416.0,424.8 416.0,422.1 415.7,419.5 415.2,416.8 414.7,414.2" /><polyline points="419.9,461.8 421.2,461.4 422.2,460.9 422.7,460.5 422.7,460.0 422.1,459.6 421.1,459.1 419.9,458.7" /><polyline points="440.1,461.8 441.4,461.3 442.4,460.8 443.0,460.3 443.0,459.8 442.4,459.3 441.4,458.8 440.1,458.4" /><polyline points="476.8,461.8 477.7,460.1 478.2,458.4 478.2,456.7 477.7,454.9 477.1,453.2 476.7,451.5 476.8,449.8" /><polyline points="523.5,461.8 522.6,460.7 521.6,459.7 521.0,458.6 520.9,457.5 521.3,456.5 522.3,455.4 523.5,454.3" /><polyline points="528.1,461.8 529.4,460.6 530.4,459.3 530.9,458.1 530.8,456.8 530.2,455.6 529.2,454.3 528.1,453.1" /><polyline points="544.0,461.8 543.8,458.7 544.4,455.7 545.3,452.6 546.0,449.5 546.1,446.4 545.3,443.4 544.0,440.3" /></g><g id="04_Gold_Threshold" inkscape:groupmode="layer" inkscape:label="04_Gold_Threshold" stroke="#B8960C" fill="none" stroke-width="1.25" stroke-linecap="round" stroke-linejoin="round"><line x1="252.0" y1="461.8" x2="564.0" y2="461.8" /></g></svg>