<?xml version='1.0' encoding='utf-8'?>
<svg xmlns="http://www.w3.org/2000/svg" xmlns:inkscape="http://www.inkscape.org/namespaces/inkscape" viewBox="204 228 408 600"><style>*{vector-effect:non-scaling-stroke}</style><g id="01_Black_Frame" inkscape:groupmode="layer" inkscape:label="01_Black_Frame" stroke="#1A1A1A" fill="none" stroke-width="0.875" stroke-linecap="round" stroke-linejoin="round"><path d="M 250.0,264.0 L 566.0,264.0 Q 576.0,264.0 576.0,274.0 L 576.0,782.0 Q 576.0,792.0 566.0,792.0 L 250.0,792.0 Q 240.0,792.0 240.0,782.0 L 240.0,274.0 Q 240.0,264.0 250.0,264.0" /><path d="M 253.0,270.0 L 563.0,270.0 Q 570.0,270.0 570.0,277.0 L 570.0,779.0 Q 570.0,786.0 563.0,786.0 L 253.0,786.0 Q 246.0,786.0 246.0,779.0 L 246.0,277.0 Q 246.0,270.0 253.0,270.0" /><line x1="259.0" y1="280.0" x2="263.0" y2="280.0" /><line x1="258.1" y1="282.1" x2="260.9" y2="284.9" /><line x1="256.0" y1="283.0" x2="256.0" y2="287.0" /><line x1="253.9" y1="282.1" x2="251.1" y2="284.9" /><line x1="253.0" y1="280.0" x2="249.0" y2="280.0" /><line x1="253.9" y1="277.9" x2="251.1" y2="275.1" /><line x1="256.0" y1="277.0" x2="256.0" y2="273.0" /><line x1="258.1" y1="277.9" x2="260.9" y2="275.1" /><line x1="563.0" y1="280.0" x2="567.0" y2="280.0" /><line x1="562.1" y1="282.1" x2="564.9" y2="284.9" /><line x1="560.0" y1="283.0" x2="560.0" y2="287.0" /><line x1="557.9" y1="282.1" x2="555.1" y2="284.9" /><line x1="557.0" y1="280.0" x2="553.0" y2="280.0" /><line x1="557.9" y1="277.9" x2="555.1" y2="275.1" /><line x1="560.0" y1="277.0" x2="560.0" y2="273.0" /><line x1="562.1" y1="277.9" x2="564.9" y2="275.1" /><line x1="259.0" y1="776.0" x2="263.0" y2="776.0" /><line x1="258.1" y1="778.1" x2="260.9" y2="780.9" /><line x1="256.0" y1="779.0" x2="256.0" y2="783.0" /><line x1="253.9" y1="778.1" x2="251.1" y2="780.9" /><line x1="253.0" y1="776.0" x2="249.0" y2="776.0" /><line x1="253.9" y1="773.9" x2="251.1" y2="771.1" /><line x1="256.0" y1="773.0" x2="256.0" y2="769.0" /><line x1="258.1" y1="773.9" x2="260.9" y2="771.1" /><line x1="563.0" y1="776.0" x2="567.0" y2="776.0" /><line x1="562.1" y1="778.1" x2="564.9" y2="780.9" /><line x1="560.0" y1="779.0" x2="560.0" y2="783.0" /><line x1="557.9" y1="778.1" x2="555.1" y2="780.9" /><line x1="557.0" y1="776.0" x2="553.0" y2="776.0" /><line x1="557.9" y1="773.9" x2="555.1" y2="771.1" /><line x1="560.0" y1="773.0" x2="560.0" y2="769.0" /><line x1="562.1" y1="773.9" x2="564.9" y2="771.1" /><polyline points="396.50,282.00 401.50,290.00" /><polyline points="401.50,282.00 396.50,290.00" /><polyline points="406.75,283.20 405.00,282.00 404.00,282.00 402.25,283.60 402.25,288.40 404.00,290.00 405.00,290.00 406.75,288.80" /><polyline points="408.00,282.00 410.50,290.00 413.00,282.00" /><polyline points="416.25,282.00 416.25,290.00" /><polyline points="370.62,297.00 377.12,297.00" /><polyline points="373.88,297.00 373.88,307.00" /><polyline points="378.10,297.00 378.10,307.00" /><polyline points="384.60,297.00 384.60,307.00" /><polyline points="378.10,301.80 384.60,301.80" /><polyline points="391.10,297.00 385.57,297.00 385.57,301.80 389.47,301.80" /><polyline points="385.57,301.80 385.57,307.00 391.10,307.00" /><polyline points="406.05,298.00 404.42,297.00 402.47,297.00 400.85,298.50 400.52,300.00 401.50,301.20 403.77,302.00 406.05,302.80 407.02,304.00 406.70,305.50 405.07,307.00 402.80,307.00 401.17,306.00" /><polyline points="408.00,297.00 414.50,297.00" /><polyline points="411.25,297.00 411.25,307.00" /><polyline points="415.48,307.00 415.48,297.00 419.70,297.00 421.33,298.50 421.33,300.20 419.70,301.50 415.48,301.50 421.33,307.00" /><polyline points="422.95,307.00 426.20,297.00 429.45,307.00" /><polyline points="424.12,303.50 428.28,303.50" /><polyline points="433.68,297.00 433.68,307.00" /><polyline points="437.90,297.00 444.40,297.00" /><polyline points="441.15,297.00 441.15,307.00" /><line x1="270.0" y1="312.0" x2="546.0" y2="312.0" /><line x1="270.0" y1="732.0" x2="546.0" y2="732.0" /><polyline points="364.32,740.75 363.20,741.20 362.92,742.10 362.92,743.90 363.20,744.80 364.32,745.25 365.44,744.80 365.72,743.90 365.72,742.10 365.44,741.20 364.32,740.75" /><polyline points="367.54,740.75 367.54,745.25" /><polyline points="369.36,740.75 369.36,745.25 371.74,745.25" /><polyline points="379.02,745.25 379.02,740.75 380.84,740.75 381.54,741.42 381.54,742.19 380.84,742.77 379.02,742.77 381.54,745.25" /><polyline points="383.64,740.75 383.64,745.25" /><polyline points="385.46,745.25 385.46,740.75 387.00,740.75 387.98,741.88 387.98,744.12 387.00,745.25 385.46,745.25" /><polyline points="391.20,741.42 390.22,740.75 389.66,740.75 388.68,741.65 388.68,744.35 389.66,745.25 390.22,745.25 391.20,744.58 391.20,743.00 390.08,743.00" /><polyline points="394.28,740.75 391.90,740.75 391.90,742.91 393.58,742.91" /><polyline points="391.90,742.91 391.90,745.25 394.28,745.25" /><polyline points="401.56,745.25 401.56,740.75 403.10,740.75 404.08,741.88 404.08,744.12 403.10,745.25 401.56,745.25" /><polyline points="407.16,740.75 404.78,740.75 404.78,742.91 406.46,742.91" /><polyline points="404.78,742.91 404.78,745.25 407.16,745.25" /><polyline points="408.00,745.25 409.40,740.75 410.80,745.25" /><polyline points="408.50,743.67 410.30,743.67" /><polyline points="411.22,745.25 411.22,740.75 412.76,740.75 413.74,741.88 413.74,744.12 412.76,745.25 411.22,745.25" /><polyline points="414.44,740.75 414.44,745.25 416.82,745.25" /><polyline points="419.06,740.75 419.06,745.25" /><polyline points="420.88,745.25 420.88,740.75 423.68,745.25 423.68,740.75" /><polyline points="426.48,740.75 424.10,740.75 424.10,742.91 425.78,742.91" /><polyline points="424.10,742.91 424.10,745.25 426.48,745.25" /><polyline points="436.14,741.20 435.44,740.75 434.60,740.75 433.90,741.42 433.76,742.10 434.18,742.64 435.16,743.00 436.14,743.36 436.56,743.90 436.42,744.58 435.72,745.25 434.74,745.25 434.04,744.80" /><polyline points="436.98,740.75 439.78,740.75" /><polyline points="438.38,740.75 438.38,745.25" /><polyline points="440.20,745.25 440.20,740.75 442.02,740.75 442.72,741.42 442.72,742.19 442.02,742.77 440.20,742.77 442.72,745.25" /><polyline points="444.82,740.75 444.82,745.25" /><polyline points="446.64,740.75 446.64,745.25" /><polyline points="449.16,740.75 446.64,743.00 449.16,745.25" /><polyline points="452.24,740.75 449.86,740.75 449.86,742.91 451.54,742.91" /><polyline points="449.86,742.91 449.86,745.25 452.24,745.25" /><polyline points="327.50,753.25 332.50,753.25" /><polyline points="330.00,753.25 330.00,760.75" /><polyline points="333.25,753.25 334.50,760.75 335.75,755.88 337.00,760.75 338.25,753.25" /><polyline points="343.25,753.25 339.00,753.25 339.00,756.85 342.00,756.85" /><polyline points="339.00,756.85 339.00,760.75 343.25,760.75" /><polyline points="344.75,760.75 344.75,753.25 349.75,760.75 349.75,753.25" /><polyline points="350.50,753.25 355.50,753.25" /><polyline points="353.00,753.25 353.00,760.75" /><polyline points="356.25,753.25 358.75,757.00 361.25,753.25" /><polyline points="358.75,757.00 358.75,760.75" /><polyline points="367.75,760.75 367.75,753.25 371.00,753.25 372.25,754.38 372.25,755.65 371.00,756.62 367.75,756.62" /><polyline points="377.75,753.25 373.50,753.25 373.50,756.85 376.50,756.85" /><polyline points="373.50,756.85 373.50,760.75 377.75,760.75" /><polyline points="379.25,760.75 379.25,753.25 382.50,753.25 383.75,754.38 383.75,755.65 382.50,756.62 379.25,756.62 383.75,760.75" /><polyline points="389.50,754.38 387.75,753.25 386.75,753.25 385.00,754.75 385.00,759.25 386.75,760.75 387.75,760.75 389.50,759.62" /><polyline points="395.00,753.25 390.75,753.25 390.75,756.85 393.75,756.85" /><polyline points="390.75,756.85 390.75,760.75 395.00,760.75" /><polyline points="396.50,760.75 396.50,753.25 401.50,760.75 401.50,753.25" /><polyline points="402.25,753.25 407.25,753.25" /><polyline points="404.75,753.25 404.75,760.75" /><polyline points="416.25,753.25 414.25,754.00 413.75,755.50 413.75,758.50 414.25,760.00 416.25,760.75 418.25,760.00 418.75,758.50 418.75,755.50 418.25,754.00 416.25,753.25" /><polyline points="423.75,753.25 419.50,753.25 419.50,756.85 422.50,756.85" /><polyline points="419.50,756.85 419.50,760.75" /><polyline points="435.25,753.25 431.00,753.25 431.00,756.85 434.00,756.85" /><polyline points="431.00,756.85 431.00,760.75 435.25,760.75" /><polyline points="436.75,753.25 439.25,760.75 441.75,753.25" /><polyline points="446.75,753.25 442.50,753.25 442.50,756.85 445.50,756.85" /><polyline points="442.50,756.85 442.50,760.75 446.75,760.75" /><polyline points="448.25,760.75 448.25,753.25 451.50,753.25 452.75,754.38 452.75,755.65 451.50,756.62 448.25,756.62 452.75,760.75" /><polyline points="454.00,753.25 456.50,757.00 459.00,753.25" /><polyline points="456.50,757.00 456.50,760.75" /><polyline points="459.75,753.25 464.75,753.25" /><polyline points="462.25,753.25 462.25,760.75" /><polyline points="465.50,753.25 465.50,760.75" /><polyline points="470.50,753.25 470.50,760.75" /><polyline points="465.50,756.85 470.50,756.85" /><polyline points="473.75,753.25 473.75,760.75" /><polyline points="477.00,760.75 477.00,753.25 482.00,760.75 482.00,753.25" /><polyline points="487.25,754.38 485.50,753.25 484.50,753.25 482.75,754.75 482.75,759.25 484.50,760.75 485.50,760.75 487.25,759.62 487.25,757.00 485.25,757.00" /><polyline points="339.00,766.25 344.00,766.25" /><polyline points="341.50,766.25 341.50,773.75" /><polyline points="344.75,766.25 344.75,773.75" /><polyline points="349.75,766.25 349.75,773.75" /><polyline points="344.75,769.85 349.75,769.85" /><polyline points="350.50,773.75 350.50,766.25 353.75,766.25 355.00,767.38 355.00,768.65 353.75,769.62 350.50,769.62 355.00,773.75" /><polyline points="358.75,766.25 356.75,767.00 356.25,768.50 356.25,771.50 356.75,773.00 358.75,773.75 360.75,773.00 361.25,771.50 361.25,768.50 360.75,767.00 358.75,766.25" /><polyline points="362.00,766.25 362.00,771.88 363.00,773.38 366.00,773.38 367.00,771.88 367.00,766.25" /><polyline points="372.25,767.38 370.50,766.25 369.50,766.25 367.75,767.75 367.75,772.25 369.50,773.75 370.50,773.75 372.25,772.62 372.25,770.00 370.25,770.00" /><polyline points="373.50,766.25 373.50,773.75" /><polyline points="378.50,766.25 378.50,773.75" /><polyline points="373.50,769.85 378.50,769.85" /><polyline points="385.00,773.75 387.50,766.25 390.00,773.75" /><polyline points="385.90,771.12 389.10,771.12" /><polyline points="396.50,773.75 396.50,766.25 399.25,766.25 401.00,768.12 401.00,771.88 399.25,773.75 396.50,773.75" /><polyline points="404.75,766.25 402.75,767.00 402.25,768.50 402.25,771.50 402.75,773.00 404.75,773.75 406.75,773.00 407.25,771.50 407.25,768.50 406.75,767.00 404.75,766.25" /><polyline points="410.50,766.25 408.50,767.00 408.00,768.50 408.00,771.50 408.50,773.00 410.50,773.75 412.50,773.00 413.00,771.50 413.00,768.50 412.50,767.00 410.50,766.25" /><polyline points="413.75,773.75 413.75,766.25 417.00,766.25 418.25,767.38 418.25,768.65 417.00,769.62 413.75,769.62 418.25,773.75" /><polyline points="425.25,766.25 430.25,766.25" /><polyline points="427.75,766.25 427.75,773.75" /><polyline points="431.00,766.25 431.00,773.75" /><polyline points="436.00,766.25 436.00,773.75" /><polyline points="431.00,769.85 436.00,769.85" /><polyline points="439.25,766.25 439.25,773.75" /><polyline points="446.75,767.00 445.50,766.25 444.00,766.25 442.75,767.38 442.50,768.50 443.25,769.40 445.00,770.00 446.75,770.60 447.50,771.50 447.25,772.62 446.00,773.75 444.25,773.75 443.00,773.00" /><polyline points="454.00,766.25 459.00,766.25" /><polyline points="456.50,766.25 456.50,773.75" /><polyline points="459.75,766.25 459.75,773.75" /><polyline points="464.75,766.25 464.75,773.75" /><polyline points="459.75,769.85 464.75,769.85" /><polyline points="468.00,766.25 468.00,773.75" /><polyline points="471.25,773.75 471.25,766.25 476.25,773.75 476.25,766.25" /><polyline points="387.52,779.50 387.52,784.50" /><polyline points="389.60,779.50 391.20,784.50 392.80,779.50" /><polyline points="394.88,784.00 394.88,784.25" /><polyline points="396.96,779.50 398.56,784.50 400.16,779.50" /><polyline points="402.24,779.50 402.24,784.50" /><polyline points="405.92,784.00 405.92,784.25" /><polyline points="408.00,784.50 408.00,779.50 409.60,782.25 411.20,779.50 411.20,784.50" /><polyline points="411.68,784.50 411.68,779.50 413.28,782.25 414.88,779.50 414.88,784.50" /><polyline points="415.36,779.50 418.56,784.50" /><polyline points="418.56,779.50 415.36,784.50" /><polyline points="419.04,779.50 422.24,784.50" /><polyline points="422.24,779.50 419.04,784.50" /><polyline points="422.72,779.50 424.32,784.50 425.92,779.50" /><polyline points="428.00,779.50 428.00,784.50" /></g><g id="02_Teal_Water" inkscape:groupmode="layer" inkscape:label="02_Teal_Water" stroke="#2A6B6B" fill="none" stroke-width="0.7" stroke-linecap="round" stroke-linejoin="round"><polyline points="257.50,319.00 259.23,325.38 261.16,331.75 263.30,338.12 265.66,344.50 268.25,350.88 271.11,357.25 274.26,363.62 277.76,370.00 281.65,376.38 285.97,382.75 290.78,389.12 296.08,395.50 301.89,401.88 308.19,408.25 314.93,414.62 322.06,421.00 329.48,427.38 337.07,433.75 344.72,440.12 352.29,446.50 359.63,452.88 366.63,459.25 373.14,465.62 379.06,472.00 384.27,478.38 388.69,484.75 392.24,491.12 394.85,497.50 396.47,503.88 397.08,510.25 396.64,516.62 395.16,523.00 392.66,529.38 389.19,535.75 384.82,542.12 379.64,548.50 373.77,554.88 367.33,561.25 360.47,567.62 353.31,574.00 346.01,580.38 338.66,586.75 331.39,593.12 324.27,599.50 317.38,605.88 310.76,612.25 304.44,618.62 298.44,625.00 292.79,631.38 287.49,637.75 282.55,644.12 277.99,650.50 273.82,656.88 270.06,663.25 266.72,669.62 263.81,676.00 261.32,682.38 259.27,688.75 257.62,695.12 256.36,701.50 255.45,707.88 254.83,714.25 254.45,720.62 254.26,727.00" /><polyline points="264.22,319.00 265.83,325.38 267.59,331.75 269.52,338.12 271.63,344.50 273.95,350.88 276.54,357.25 279.43,363.62 282.69,370.00 286.36,376.38 290.50,382.75 295.13,389.12 300.28,395.50 305.94,401.88 312.09,408.25 318.67,414.62 325.60,421.00 332.79,427.38 340.12,433.75 347.48,440.12 354.74,446.50 361.76,452.88 368.44,459.25 374.65,465.62 380.28,472.00 385.26,478.38 389.48,484.75 392.88,491.12 395.38,497.50 396.94,503.88 397.52,510.25 397.10,516.62 395.67,523.00 393.27,529.38 389.93,535.75 385.74,542.12 380.78,548.50 375.17,554.88 369.03,561.25 362.49,567.62 355.69,574.00 348.73,580.38 341.73,586.75 334.78,593.12 327.96,599.50 321.31,605.88 314.89,612.25 308.74,618.62 302.87,625.00 297.32,631.38 292.12,637.75 287.28,644.12 282.83,650.50 278.79,656.88 275.19,663.25 272.04,669.62 269.35,676.00 267.10,682.38 265.29,688.75 263.88,695.12 262.83,701.50 262.09,707.88 261.60,714.25 261.30,720.62 261.12,727.00" /><polyline points="270.84,319.00 272.27,325.38 273.82,331.75 275.51,338.12 277.37,344.50 279.44,350.88 281.79,357.25 284.47,363.62 287.54,370.00 291.06,376.38 295.06,382.75 299.57,389.12 304.61,395.50 310.14,401.88 316.14,408.25 322.54,414.62 329.25,421.00 336.19,427.38 343.23,433.75 350.27,440.12 357.19,446.50 363.87,452.88 370.22,459.25 376.12,465.62 381.48,472.00 386.22,478.38 390.26,484.75 393.51,491.12 395.91,497.50 397.41,503.88 397.97,510.25 397.56,516.62 396.19,523.00 393.88,529.38 390.69,535.75 386.68,542.12 381.95,548.50 376.60,554.88 370.77,561.25 364.55,567.62 358.08,574.00 351.46,580.38 344.78,586.75 338.12,593.12 331.55,599.50 325.12,605.88 318.89,612.25 312.88,618.62 307.15,625.00 301.72,631.38 296.64,637.75 291.94,644.12 287.66,650.50 283.82,656.88 280.44,663.25 277.54,669.62 275.10,676.00 273.11,682.38 271.53,688.75 270.33,695.12 269.45,701.50 268.83,707.88 268.41,714.25 268.11,720.62 267.89,727.00" /><polyline points="277.29,319.00 278.51,325.38 279.82,331.75 281.27,338.12 282.90,344.50 284.77,350.88 286.93,357.25 289.46,363.62 292.40,370.00 295.82,376.38 299.73,382.75 304.16,389.12 309.09,395.50 314.50,401.88 320.34,408.25 326.53,414.62 333.00,421.00 339.64,427.38 346.35,433.75 353.04,440.12 359.60,446.50 365.94,452.88 371.95,459.25 377.55,465.62 382.65,472.00 387.17,478.38 391.02,484.75 394.14,491.12 396.44,497.50 397.88,503.88 398.41,510.25 398.02,516.62 396.71,523.00 394.51,529.38 391.46,535.75 387.64,542.12 383.14,548.50 378.07,554.88 372.53,561.25 366.63,567.62 360.48,574.00 354.17,580.38 347.77,586.75 341.37,593.12 335.03,599.50 328.80,605.88 322.73,612.25 316.88,618.62 311.30,625.00 306.04,631.38 301.14,637.75 296.64,644.12 292.58,650.50 288.99,656.88 285.88,663.25 283.25,669.62 281.07,676.00 279.33,682.38 277.97,688.75 276.93,695.12 276.17,701.50 275.60,707.88 275.16,714.25 274.81,720.62 274.48,727.00" /><polyline points="283.51,319.00 284.51,325.38 285.60,331.75 286.84,338.12 288.29,344.50 290.00,350.88 292.04,357.25 294.48,363.62 297.35,370.00 300.71,376.38 304.57,382.75 308.92,389.12 313.75,395.50 319.02,401.88 324.66,408.25 330.61,414.62 336.78,421.00 343.09,427.38 349.45,433.75 355.77,440.12 361.97,446.50 367.95,452.88 373.64,459.25 378.95,465.62 383.79,472.00 388.10,478.38 391.78,484.75 394.76,491.12 396.97,497.50 398.35,503.88 398.86,510.25 398.49,516.62 397.24,523.00 395.13,529.38 392.24,535.75 388.61,542.12 384.35,548.50 379.55,554.88 374.30,561.25 368.70,567.62 362.85,574.00 356.81,580.38 350.68,586.75 344.51,593.12 338.38,599.50 332.34,605.88 326.46,612.25 320.79,618.62 315.40,625.00 310.35,631.38 305.68,637.75 301.43,644.12 297.65,650.50 294.35,656.88 291.53,663.25 289.17,669.62 287.25,676.00 285.72,682.38 284.52,688.75 283.59,695.12 282.87,701.50 282.28,707.88 281.78,714.25 281.31,720.62 280.84,727.00" /><polyline points="289.50,319.00 290.29,325.38 291.20,331.75 292.28,338.12 293.60,344.50 295.22,350.88 297.20,357.25 299.60,363.62 302.46,370.00 305.78,376.38 309.59,382.75 313.86,389.12 318.56,395.50 323.64,401.88 329.05,408.25 334.71,414.62 340.56,421.00 346.51,427.38 352.49,433.75 358.43,440.12 364.26,446.50 369.89,452.88 375.27,459.25 380.30,465.62 384.92,472.00 389.02,478.38 392.54,484.75 395.39,491.12 397.50,497.50 398.82,503.88 399.31,510.25 398.95,516.62 397.76,523.00 395.77,529.38 393.03,535.75 389.60,542.12 385.57,548.50 381.03,554.88 376.06,561.25 370.74,567.62 365.15,574.00 359.38,580.38 353.49,586.75 347.54,593.12 341.62,599.50 335.79,605.88 330.11,612.25 324.67,618.62 319.52,625.00 314.72,631.38 310.33,637.75 306.39,644.12 302.92,650.50 299.92,656.88 297.39,663.25 295.29,669.62 293.58,676.00 292.21,682.38 291.10,688.75 290.21,695.12 289.46,701.50 288.80,707.88 288.19,714.25 287.58,720.62 286.95,727.00" /><polyline points="295.28,319.00 295.90,325.38 296.68,331.75 297.66,338.12 298.92,344.50 300.52,350.88 302.50,357.25 304.90,363.62 307.75,370.00 311.05,376.38 314.79,382.75 318.95,389.12 323.48,395.50 328.34,401.88 333.46,408.25 338.80,414.62 344.28,421.00 349.84,427.38 355.44,433.75 361.00,440.12 366.47,446.50 371.78,452.88 376.86,459.25 381.64,465.62 386.03,472.00 389.94,478.38 393.30,484.75 396.02,491.12 398.03,497.50 399.29,503.88 399.75,510.25 399.42,516.62 398.29,523.00 396.41,529.38 393.82,535.75 390.59,542.12 386.80,548.50 382.50,554.88 377.79,561.25 372.73,567.62 367.39,574.00 361.86,580.38 356.20,586.75 350.48,593.12 344.78,599.50 339.18,605.88 333.75,612.25 328.57,618.62 323.70,625.00 319.21,631.38 315.15,637.75 311.53,644.12 308.38,650.50 305.68,656.88 303.41,663.25 301.53,669.62 299.98,676.00 298.70,682.38 297.63,688.75 296.71,695.12 295.88,701.50 295.11,707.88 294.35,714.25 293.61,720.62 292.85,727.00" /><polyline points="300.90,319.00 301.42,325.38 302.13,331.75 303.09,338.12 304.35,344.50 305.98,350.88 307.99,357.25 310.41,363.62 313.25,370.00 316.50,376.38 320.14,382.75 324.14,389.12 328.45,395.50 333.03,401.88 337.83,408.25 342.80,414.62 347.90,421.00 353.08,427.38 358.29,433.75 363.49,440.12 368.62,446.50 373.62,452.88 378.43,459.25 382.97,465.62 387.14,472.00 390.87,478.38 394.07,484.75 396.65,491.12 398.57,497.50 399.76,503.88 400.20,510.25 399.88,516.62 398.82,523.00 397.05,529.38 394.62,535.75 391.58,542.12 388.00,548.50 383.94,554.88 379.47,561.25 374.65,567.62 369.56,574.00 364.26,580.38 358.84,586.75 353.36,593.12 347.91,599.50 342.57,605.88 337.43,612.25 332.56,618.62 328.02,625.00 323.87,631.38 320.15,637.75 316.87,644.12 314.02,650.50 311.59,656.88 309.54,663.25 307.81,669.62 306.35,676.00 305.10,682.38 304.00,688.75 303.01,695.12 302.07,701.50 301.17,707.88 300.29,714.25 299.43,720.62 298.60,727.00" /><polyline points="306.46,319.00 306.95,325.38 307.66,331.75 308.65,338.12 309.96,344.50 311.64,350.88 313.69,357.25 316.12,363.62 318.93,370.00 322.09,376.38 325.58,382.75 329.37,389.12 333.41,395.50 337.66,401.88 342.10,408.25 346.69,414.62 351.40,421.00 356.20,427.38 361.04,433.75 365.90,440.12 370.72,446.50 375.44,452.88 380.00,459.25 384.30,465.62 388.27,472.00 391.81,478.38 394.85,484.75 397.30,491.12 399.11,497.50 400.23,503.88 400.64,510.25 400.35,516.62 399.35,523.00 397.70,529.38 395.42,535.75 392.56,542.12 389.19,548.50 385.35,554.88 381.10,561.25 376.52,567.62 371.66,574.00 366.60,580.38 361.43,586.75 356.21,593.12 351.05,599.50 346.01,605.88 341.20,612.25 336.68,618.62 332.50,625.00 328.71,631.38 325.33,637.75 322.37,644.12 319.80,650.50 317.58,656.88 315.69,663.25 314.05,669.62 312.62,676.00 311.34,682.38 310.17,688.75 309.08,695.12 308.03,701.50 307.02,707.88 306.05,714.25 305.13,720.62 304.28,727.00" /><polyline points="312.05,319.00 312.56,325.38 313.33,331.75 314.40,338.12 315.79,344.50 317.52,350.88 319.59,357.25 322.01,363.62 324.73,370.00 327.75,376.38 331.04,382.75 334.55,389.12 338.28,395.50 342.18,401.88 346.24,408.25 350.45,414.62 354.78,421.00 359.21,427.38 363.72,433.75 368.26,440.12 372.80,446.50 377.26,452.88 381.58,459.25 385.66,465.62 389.42,472.00 392.78,478.38 395.65,484.75 397.95,491.12 399.65,497.50 400.70,503.88 401.09,510.25 400.81,516.62 399.89,523.00 398.34,529.38 396.20,535.75 393.52,542.12 390.34,548.50 386.71,554.88 382.69,561.25 378.33,567.62 373.72,574.00 368.91,580.38 364.01,586.75 359.09,593.12 354.24,599.50 349.56,605.88 345.11,612.25 340.96,618.62 337.15,625.00 333.71,631.38 330.66,637.75 327.97,644.12 325.62,650.50 323.57,656.88 321.77,663.25 320.16,669.62 318.71,676.00 317.37,682.38 316.11,688.75 314.92,695.12 313.78,701.50 312.70,707.88 311.69,714.25 310.78,720.62 309.99,727.00" /><polyline points="317.76,319.00 318.36,325.38 319.22,331.75 320.38,338.12 321.84,344.50 323.60,350.88 325.66,357.25 328.00,363.62 330.59,370.00 333.40,376.38 336.43,382.75 339.63,389.12 343.01,395.50 346.54,401.88 350.23,408.25 354.07,414.62 358.04,421.00 362.15,427.38 366.35,433.75 370.62,440.12 374.89,446.50 379.11,452.88 383.19,459.25 387.05,465.62 390.61,472.00 393.76,478.38 396.46,484.75 398.62,491.12 400.20,497.50 401.18,503.88 401.54,510.25 401.28,516.62 400.42,523.00 398.97,529.38 396.98,535.75 394.46,542.12 391.47,548.50 388.04,554.88 384.24,561.25 380.12,567.62 375.75,574.00 371.23,580.38 366.62,586.75 362.03,593.12 357.54,599.50 353.23,605.88 349.16,612.25 345.39,618.62 341.94,625.00 338.84,631.38 336.07,637.75 333.61,644.12 331.42,650.50 329.47,656.88 327.70,663.25 326.09,669.62 324.58,676.00 323.17,682.38 321.83,688.75 320.57,695.12 319.38,701.50 318.30,707.88 317.33,714.25 316.49,720.62 315.82,727.00" /><polyline points="323.66,319.00 324.37,325.38 325.34,331.75 326.57,338.12 328.08,344.50 329.83,350.88 331.82,357.25 334.02,363.62 336.41,370.00 338.97,376.38 341.69,382.75 344.56,389.12 347.57,395.50 350.75,401.88 354.08,408.25 357.58,414.62 361.24,421.00 365.05,427.38 368.98,433.75 372.99,440.12 377.02,446.50 381.00,452.88 384.85,459.25 388.49,465.62 391.82,472.00 394.77,478.38 397.28,484.75 399.28,491.12 400.75,497.50 401.65,503.88 401.98,510.25 401.74,516.62 400.94,523.00 399.60,529.38 397.74,535.75 395.38,542.12 392.57,548.50 389.34,554.88 385.76,561.25 381.89,567.62 377.80,574.00 373.58,580.38 369.31,586.75 365.07,593.12 360.96,599.50 357.04,605.88 353.35,612.25 349.95,618.62 346.84,625.00 344.02,631.38 341.48,637.75 339.19,644.12 337.11,650.50 335.21,656.88 333.44,663.25 331.79,669.62 330.24,676.00 328.76,682.38 327.38,688.75 326.10,695.12 324.93,701.50 323.91,707.88 323.04,714.25 322.35,720.62 321.85,727.00" /><polyline points="329.80,319.00 330.62,325.38 331.67,331.75 332.95,338.12 334.45,344.50 336.13,350.88 337.99,357.25 339.99,363.62 342.13,370.00 344.39,376.38 346.78,382.75 349.30,389.12 351.97,395.50 354.81,401.88 357.82,408.25 361.02,414.62 364.40,421.00 367.96,427.38 371.64,433.75 375.42,440.12 379.21,446.50 382.96,452.88 386.57,459.25 389.96,465.62 393.06,472.00 395.79,478.38 398.10,484.75 399.95,491.12 401.29,497.50 402.12,503.88 402.43,510.25 402.21,516.62 401.47,523.00 400.22,529.38 398.48,535.75 396.28,542.12 393.65,548.50 390.64,554.88 387.29,561.25 383.68,567.62 379.89,574.00 376.00,580.38 372.08,586.75 368.23,593.12 364.50,599.50 360.96,605.88 357.65,612.25 354.58,618.62 351.77,625.00 349.19,631.38 346.83,637.75 344.66,644.12 342.64,650.50 340.75,656.88 338.97,663.25 337.29,669.62 335.70,676.00 334.21,682.38 332.84,688.75 331.60,695.12 330.53,701.50 329.63,707.88 328.92,714.25 328.42,720.62 328.11,727.00" /><polyline points="336.16,319.00 337.07,325.38 338.17,331.75 339.45,338.12 340.87,344.50 342.42,350.88 344.07,357.25 345.83,363.62 347.67,370.00 349.62,376.38 351.68,382.75 353.87,389.12 356.23,395.50 358.76,401.88 361.50,408.25 364.45,414.62 367.59,421.00 370.92,427.38 374.38,433.75 377.92,440.12 381.48,446.50 384.97,452.88 388.33,459.25 391.47,465.62 394.32,472.00 396.82,478.38 398.93,484.75 400.61,491.12 401.84,497.50 402.59,503.88 402.87,510.25 402.67,516.62 401.99,523.00 400.83,529.38 399.22,535.75 397.18,542.12 394.73,548.50 391.93,554.88 388.84,561.25 385.51,567.62 382.04,574.00 378.49,580.38 374.95,586.75 371.49,593.12 368.15,599.50 364.98,605.88 362.01,612.25 359.24,618.62 356.67,625.00 354.28,631.38 352.05,637.75 349.95,644.12 347.96,650.50 346.08,656.88 344.30,663.25 342.61,669.62 341.03,676.00 339.58,682.38 338.29,688.75 337.17,695.12 336.25,701.50 335.53,707.88 335.02,714.25 334.72,720.62 334.61,727.00" /><polyline points="342.72,319.00 343.67,325.38 344.76,331.75 345.96,338.12 347.24,344.50 348.59,350.88 350.00,357.25 351.48,363.62 353.02,370.00 354.65,376.38 356.40,382.75 358.31,389.12 360.39,395.50 362.67,401.88 365.18,408.25 367.91,414.62 370.85,421.00 373.96,427.38 377.21,433.75 380.51,440.12 383.82,446.50 387.05,452.88 390.13,459.25 392.99,465.62 395.58,472.00 397.84,478.38 399.75,484.75 401.27,491.12 402.38,497.50 403.06,503.88 403.32,510.25 403.13,516.62 402.51,523.00 401.44,529.38 399.96,535.75 398.07,542.12 395.82,548.50 393.24,554.88 390.42,561.25 387.40,567.62 384.26,574.00 381.08,580.38 377.92,586.75 374.83,593.12 371.86,599.50 369.04,605.88 366.36,612.25 363.85,618.62 361.47,625.00 359.23,631.38 357.09,637.75 355.05,644.12 353.09,650.50 351.23,656.88 349.47,663.25 347.83,669.62 346.32,676.00 344.98,682.38 343.83,688.75 342.89,695.12 342.16,701.50 341.66,707.88 341.36,714.25 341.26,720.62 341.32,727.00" /><polyline points="349.41,319.00 350.34,325.38 351.35,331.75 352.40,338.12 353.48,344.50 354.59,350.88 355.73,357.25 356.92,363.62 358.16,370.00 359.51,376.38 361.00,382.75 362.66,389.12 364.52,395.50 366.60,401.88 368.92,408.25 371.47,414.62 374.22,421.00 377.12,427.38 380.14,433.75 383.19,440.12 386.22,446.50 389.16,452.88 391.94,459.25 394.52,465.62 396.84,472.00 398.86,478.38 400.56,484.75 401.92,491.12 402.91,497.50 403.53,503.88 403.76,510.25 403.60,516.62 403.02,523.00 402.05,529.38 400.69,535.75 398.97,542.12 396.92,548.50 394.59,554.88 392.04,561.25 389.34,567.62 386.55,574.00 383.74,580.38 380.95,586.75 378.23,593.12 375.60,599.50 373.07,605.88 370.66,612.25 368.35,618.62 366.14,625.00 364.00,631.38 361.94,637.75 359.96,644.12 358.05,650.50 356.25,656.88 354.57,663.25 353.03,669.62 351.66,676.00 350.50,682.38 349.54,688.75 348.82,695.12 348.32,701.50 348.03,707.88 347.93,714.25 347.98,720.62 348.15,727.00" /><polyline points="356.14,319.00 356.98,325.38 357.83,331.75 358.69,338.12 359.53,344.50 360.38,350.88 361.25,357.25 362.16,363.62 363.15,370.00 364.26,376.38 365.53,382.75 367.00,389.12 368.69,395.50 370.61,401.88 372.78,408.25 375.15,414.62 377.71,421.00 380.39,427.38 383.16,433.75 385.93,440.12 388.67,446.50 391.29,452.88 393.76,459.25 396.03,465.62 398.07,472.00 399.86,478.38 401.36,484.75 402.56,491.12 403.45,497.50 404.00,503.88 404.21,510.25 404.06,516.62 403.54,523.00 402.66,529.38 401.43,535.75 399.88,542.12 398.04,548.50 395.97,554.88 393.72,561.25 391.35,567.62 388.91,574.00 386.45,580.38 384.02,586.75 381.63,593.12 379.30,599.50 377.05,605.88 374.85,612.25 372.72,618.62 370.63,625.00 368.60,631.38 366.63,637.75 364.72,644.12 362.91,650.50 361.22,656.88 359.67,663.25 358.30,669.62 357.13,676.00 356.19,682.38 355.47,688.75 354.98,695.12 354.70,701.50 354.60,707.88 354.65,714.25 354.81,720.62 355.02,727.00" /><polyline points="362.81,319.00 363.49,325.38 364.15,331.75 364.77,338.12 365.36,344.50 365.95,350.88 366.56,357.25 367.24,363.62 368.02,370.00 368.95,376.38 370.07,382.75 371.40,389.12 372.96,395.50 374.75,401.88 376.77,408.25 378.97,414.62 381.32,421.00 383.76,427.38 386.25,433.75 388.72,440.12 391.12,446.50 393.41,452.88 395.55,459.25 397.52,465.62 399.29,472.00 400.83,478.38 402.14,484.75 403.20,491.12 403.98,497.50 404.47,503.88 404.66,510.25 404.52,516.62 404.06,523.00 403.27,529.38 402.18,535.75 400.81,542.12 399.20,548.50 397.39,554.88 395.44,561.25 393.40,567.62 391.30,574.00 389.18,580.38 387.08,586.75 384.99,593.12 382.94,599.50 380.91,605.88 378.90,612.25 376.92,618.62 374.96,625.00 373.05,631.38 371.18,637.75 369.40,644.12 367.74,650.50 366.21,656.88 364.87,663.25 363.72,669.62 362.80,676.00 362.10,682.38 361.63,688.75 361.36,695.12 361.27,701.50 361.32,707.88 361.46,714.25 361.65,720.62 361.84,727.00" /><polyline points="369.33,319.00 369.82,325.38 370.24,331.75 370.62,338.12 370.97,344.50 371.33,350.88 371.74,357.25 372.24,363.62 372.87,370.00 373.68,376.38 374.69,382.75 375.92,389.12 377.38,395.50 379.05,401.88 380.91,408.25 382.92,414.62 385.03,421.00 387.20,427.38 389.37,433.75 391.50,440.12 393.55,446.50 395.50,452.88 397.31,459.25 398.97,465.62 400.47,472.00 401.79,478.38 402.91,484.75 403.82,491.12 404.51,497.50 404.94,503.88 405.10,510.25 404.98,516.62 404.58,523.00 403.89,529.38 402.94,535.75 401.76,542.12 400.38,548.50 398.85,554.88 397.20,561.25 395.47,567.62 393.70,574.00 391.90,580.38 390.10,586.75 388.28,593.12 386.46,599.50 384.63,605.88 382.80,612.25 380.97,618.62 379.16,625.00 377.39,631.38 375.68,637.75 374.08,644.12 372.61,650.50 371.32,656.88 370.22,663.25 369.34,669.62 368.69,676.00 368.24,682.38 368.00,688.75 367.91,695.12 367.96,701.50 368.08,707.88 368.25,714.25 368.40,720.62 368.50,727.00" /><polyline points="375.65,319.00 375.91,325.38 376.11,331.75 376.26,338.12 376.41,344.50 376.59,350.88 376.85,357.25 377.23,363.62 377.78,370.00 378.51,376.38 379.45,382.75 380.61,389.12 381.97,395.50 383.50,401.88 385.18,408.25 386.97,414.62 388.80,421.00 390.66,427.38 392.48,433.75 394.25,440.12 395.94,446.50 397.53,452.88 399.01,459.25 400.38,465.62 401.62,472.00 402.72,478.38 403.67,484.75 404.45,491.12 405.04,497.50 405.41,503.88 405.55,510.25 405.44,516.62 405.10,523.00 404.51,529.38 403.72,535.75 402.73,542.12 401.59,548.50 400.32,554.88 398.97,561.25 397.55,567.62 396.08,574.00 394.58,580.38 393.04,586.75 391.47,593.12 389.86,599.50 388.23,605.88 386.57,612.25 384.91,618.62 383.28,625.00 381.69,631.38 380.20,637.75 378.83,644.12 377.62,650.50 376.60,656.88 375.79,663.25 375.19,669.62 374.79,676.00 374.57,682.38 374.51,688.75 374.56,695.12 374.68,701.50 374.81,707.88 374.93,714.25 374.98,720.62 374.96,727.00" /><polyline points="381.73,319.00 381.77,325.38 381.77,331.75 381.74,338.12 381.74,344.50 381.80,350.88 381.98,357.25 382.31,363.62 382.81,370.00 383.51,376.38 384.40,382.75 385.48,389.12 386.72,395.50 388.09,401.88 389.55,408.25 391.07,414.62 392.59,421.00 394.09,427.38 395.55,433.75 396.94,440.12 398.26,446.50 399.50,452.88 400.67,459.25 401.75,465.62 402.75,472.00 403.64,478.38 404.43,484.75 405.08,491.12 405.57,497.50 405.88,503.88 405.99,510.25 405.91,516.62 405.62,523.00 405.15,529.38 404.50,535.75 403.71,542.12 402.81,548.50 401.81,554.88 400.73,561.25 399.60,567.62 398.41,574.00 397.18,580.38 395.89,586.75 394.54,593.12 393.15,599.50 391.71,605.88 390.25,612.25 388.79,618.62 387.37,625.00 386.03,631.38 384.80,637.75 383.71,644.12 382.80,650.50 382.09,656.88 381.56,663.25 381.23,669.62 381.07,676.00 381.03,682.38 381.10,688.75 381.21,695.12 381.32,701.50 381.41,707.88 381.42,714.25 381.35,720.62 381.17,727.00" /><polyline points="387.59,319.00 387.45,325.38 387.28,331.75 387.13,338.12 387.05,344.50 387.06,350.88 387.22,357.25 387.53,363.62 388.03,370.00 388.70,376.38 389.54,382.75 390.52,389.12 391.61,395.50 392.77,401.88 393.97,408.25 395.16,414.62 396.34,421.00 397.46,427.38 398.53,433.75 399.55,440.12 400.50,446.50 401.41,452.88 402.27,459.25 403.09,465.62 403.86,472.00 404.56,478.38 405.19,484.75 405.70,491.12 406.10,497.50 406.35,503.88 406.44,510.25 406.37,516.62 406.15,523.00 405.79,529.38 405.30,535.75 404.71,542.12 404.03,548.50 403.28,554.88 402.47,561.25 401.61,567.62 400.68,574.00 399.69,580.38 398.63,586.75 397.51,593.12 396.33,599.50 395.12,605.88 393.89,612.25 392.68,618.62 391.52,625.00 390.47,631.38 389.55,637.75 388.78,644.12 388.19,650.50 387.78,656.88 387.53,663.25 387.43,669.62 387.45,676.00 387.53,682.38 387.65,688.75 387.76,695.12 387.82,701.50 387.80,707.88 387.68,714.25 387.47,720.62 387.15,727.00" /><polyline points="393.26,319.00 392.99,325.38 392.73,331.75 392.53,338.12 392.43,344.50 392.45,350.88 392.62,357.25 392.96,363.62 393.45,370.00 394.08,376.38 394.84,382.75 395.68,389.12 396.57,395.50 397.47,401.88 398.36,408.25 399.21,414.62 400.00,421.00 400.74,427.38 401.42,433.75 402.06,440.12 402.68,446.50 403.27,452.88 403.85,459.25 404.42,465.62 404.97,472.00 405.49,478.38 405.95,484.75 406.34,491.12 406.63,497.50 406.82,503.88 406.89,510.25 406.84,516.62 406.68,523.00 406.43,529.38 406.10,535.75 405.70,542.12 405.24,548.50 404.74,554.88 404.18,561.25 403.56,567.62 402.88,574.00 402.12,580.38 401.30,586.75 400.41,593.12 399.47,599.50 398.50,605.88 397.54,612.25 396.62,618.62 395.79,625.00 395.06,631.38 394.47,637.75 394.04,644.12 393.77,650.50 393.64,656.88 393.63,663.25 393.71,669.62 393.84,676.00 393.98,682.38 394.09,688.75 394.14,695.12 394.10,701.50 393.96,707.88 393.71,714.25 393.37,720.62 392.95,727.00" /><polyline points="398.84,319.00 398.50,325.38 398.22,331.75 398.03,338.12 397.96,344.50 398.03,350.88 398.24,357.25 398.59,363.62 399.06,370.00 399.63,376.38 400.25,382.75 400.90,389.12 401.53,395.50 402.13,401.88 402.67,408.25 403.15,414.62 403.55,421.00 403.90,427.38 404.21,433.75 404.50,440.12 404.79,446.50 405.09,452.88 405.41,459.25 405.75,465.62 406.09,472.00 406.42,478.38 406.73,484.75 406.98,491.12 407.17,497.50 407.29,503.88 407.33,510.25 407.30,516.62 407.21,523.00 407.07,529.38 406.89,535.75 406.68,542.12 406.44,548.50 406.16,554.88 405.83,561.25 405.45,567.62 405.00,574.00 404.48,580.38 403.90,586.75 403.26,593.12 402.59,599.50 401.92,605.88 401.27,612.25 400.69,618.62 400.20,625.00 399.83,631.38 399.59,637.75 399.48,644.12 399.50,650.50 399.61,656.88 399.78,663.25 399.98,669.62 400.16,676.00 400.30,682.38 400.35,688.75 400.30,695.12 400.15,701.50 399.89,707.88 399.53,714.25 399.10,720.62 398.64,727.00" /><polyline points="404.41,319.00 404.07,325.38 403.83,331.75 403.70,338.12 403.70,344.50 403.82,350.88 404.07,357.25 404.41,363.62 404.82,370.00 405.27,376.38 405.71,382.75 406.11,389.12 406.44,395.50 406.70,401.88 406.87,408.25 406.96,414.62 406.98,421.00 406.96,427.38 406.92,433.75 406.88,440.12 406.88,446.50 406.91,452.88 406.98,459.25 407.10,465.62 407.23,472.00 407.38,478.38 407.52,484.75 407.63,491.12 407.71,497.50 407.76,503.88 407.78,510.25 407.77,516.62 407.75,523.00 407.72,529.38 407.68,535.75 407.65,542.12 407.60,548.50 407.54,554.88 407.43,561.25 407.28,567.62 407.07,574.00 406.80,580.38 406.48,586.75 406.13,593.12 405.76,599.50 405.42,605.88 405.12,612.25 404.90,618.62 404.78,625.00 404.77,631.38 404.87,637.75 405.05,644.12 405.31,650.50 405.60,656.88 405.89,663.25 406.15,669.62 406.33,676.00 406.41,682.38 406.38,688.75 406.23,695.12 405.97,701.50 405.62,707.88 405.21,714.25 404.76,720.62 404.33,727.00" /><polyline points="410.06,319.00 409.79,325.38 409.63,331.75 409.59,338.12 409.66,344.50 409.83,350.88 410.08,357.25 410.37,363.62 410.67,370.00 410.93,376.38 411.13,382.75 411.23,389.12 411.23,395.50 411.13,401.88 410.92,408.25 410.63,414.62 410.28,421.00 409.92,427.38 409.56,433.75 409.24,440.12 408.96,446.50 408.74,452.88 408.58,459.25 408.48,465.62 408.41,472.00 408.36,478.38 408.32,484.75 408.29,491.12 408.26,497.50 408.23,503.88 408.22,510.25 408.23,516.62 408.28,523.00 408.35,529.38 408.46,535.75 408.60,542.12 408.74,548.50 408.88,554.88 408.99,561.25 409.07,567.62 409.11,574.00 409.11,580.38 409.08,586.75 409.04,593.12 409.02,599.50 409.04,605.88 409.12,612.25 409.28,618.62 409.52,625.00 409.85,631.38 410.25,637.75 410.69,644.12 411.13,650.50 411.54,656.88 411.90,663.25 412.15,669.62 412.29,676.00 412.30,682.38 412.18,688.75 411.95,695.12 411.63,701.50 411.24,707.88 410.83,714.25 410.44,720.62 410.10,727.00" /><polyline points="415.88,319.00 415.71,325.38 415.65,331.75 415.70,338.12 415.83,344.50 416.01,350.88 416.22,357.25 416.40,363.62 416.51,370.00 416.54,376.38 416.45,382.75 416.22,389.12 415.87,395.50 415.39,401.88 414.82,408.25 414.18,414.62 413.50,421.00 412.83,427.38 412.19,433.75 411.60,440.12 411.07,446.50 410.62,452.88 410.23,459.25 409.89,465.62 409.61,472.00 409.36,478.38 409.14,484.75 408.95,491.12 408.81,497.50 408.71,503.88 408.67,510.25 408.70,516.62 408.80,523.00 408.98,529.38 409.23,535.75 409.52,542.12 409.85,548.50 410.19,554.88 410.53,561.25 410.85,567.62 411.15,574.00 411.44,580.38 411.73,586.75 412.04,593.12 412.39,599.50 412.79,605.88 413.26,612.25 413.79,618.62 414.39,625.00 415.02,631.38 415.67,637.75 416.30,644.12 416.87,650.50 417.35,656.88 417.72,663.25 417.94,669.62 418.03,676.00 417.97,682.38 417.79,688.75 417.52,695.12 417.19,701.50 416.84,707.88 416.50,714.25 416.23,720.62 416.04,727.00" /><polyline points="421.91,319.00 421.87,325.38 421.91,331.75 422.02,338.12 422.16,344.50 422.30,350.88 422.39,357.25 422.39,363.62 422.28,370.00 422.02,376.38 421.61,382.75 421.04,389.12 420.33,395.50 419.50,401.88 418.59,408.25 417.64,414.62 416.67,421.00 415.73,427.38 414.83,433.75 414.00,440.12 413.24,446.50 412.55,452.88 411.92,459.25 411.35,465.62 410.84,472.00 410.37,478.38 409.96,484.75 409.62,491.12 409.35,497.50 409.18,503.88 409.11,510.25 409.16,516.62 409.33,523.00 409.61,529.38 409.98,535.75 410.43,542.12 410.94,548.50 411.49,554.88 412.05,561.25 412.63,567.62 413.22,574.00 413.83,580.38 414.47,586.75 415.15,593.12 415.88,599.50 416.67,605.88 417.52,612.25 418.40,618.62 419.31,625.00 420.20,631.38 421.05,637.75 421.82,644.12 422.47,650.50 422.98,656.88 423.33,663.25 423.52,669.62 423.56,676.00 423.47,682.38 423.28,688.75 423.02,695.12 422.75,701.50 422.50,707.88 422.31,714.25 422.21,720.62 422.21,727.00" /><polyline points="428.19,319.00 428.24,325.38 428.35,331.75 428.47,338.12 428.57,344.50 428.60,350.88 428.52,357.25 428.29,363.62 427.90,370.00 427.33,376.38 426.58,382.75 425.68,389.12 424.64,395.50 423.50,401.88 422.29,408.25 421.06,414.62 419.85,421.00 418.66,427.38 417.53,433.75 416.47,440.12 415.47,446.50 414.54,452.88 413.66,459.25 412.85,465.62 412.09,472.00 411.40,478.38 410.79,484.75 410.28,491.12 409.90,497.50 409.65,503.88 409.56,510.25 409.63,516.62 409.85,523.00 410.22,529.38 410.72,535.75 411.33,542.12 412.02,548.50 412.78,554.88 413.59,561.25 414.44,567.62 415.35,574.00 416.30,580.38 417.30,586.75 418.37,593.12 419.49,599.50 420.66,605.88 421.86,612.25 423.06,618.62 424.23,625.00 425.33,631.38 426.33,637.75 427.18,644.12 427.88,650.50 428.39,656.88 428.73,663.25 428.90,669.62 428.93,676.00 428.86,682.38 428.72,688.75 428.56,695.12 428.41,701.50 428.33,707.88 428.32,714.25 428.42,720.62 428.62,727.00" /><polyline points="434.68,319.00 434.80,325.38 434.92,331.75 434.99,338.12 434.97,344.50 434.82,350.88 434.51,357.25 434.02,363.62 433.32,370.00 432.44,376.38 431.37,382.75 430.16,389.12 428.83,395.50 427.42,401.88 425.97,408.25 424.51,414.62 423.07,421.00 421.67,427.38 420.32,433.75 419.03,440.12 417.79,446.50 416.59,452.88 415.45,459.25 414.37,465.62 413.35,472.00 412.43,478.38 411.62,484.75 410.95,491.12 410.44,497.50 410.12,503.88 410.01,510.25 410.09,516.62 410.37,523.00 410.83,529.38 411.46,535.75 412.22,542.12 413.10,548.50 414.08,554.88 415.15,561.25 416.31,567.62 417.54,574.00 418.85,580.38 420.23,586.75 421.68,593.12 423.18,599.50 424.71,605.88 426.22,612.25 427.69,618.62 429.08,625.00 430.34,631.38 431.44,637.75 432.36,644.12 433.08,650.50 433.61,656.88 433.96,663.25 434.15,669.62 434.23,676.00 434.24,682.38 434.22,688.75 434.21,695.12 434.25,701.50 434.36,707.88 434.57,714.25 434.87,720.62 435.25,727.00" /><polyline points="441.33,319.00 441.45,325.38 441.51,331.75 441.47,338.12 441.27,344.50 440.90,350.88 440.33,357.25 439.54,363.62 438.55,370.00 437.36,376.38 436.01,382.75 434.53,389.12 432.96,395.50 431.33,401.88 429.68,408.25 428.03,414.62 426.39,421.00 424.79,427.38 423.21,433.75 421.67,440.12 420.17,446.50 418.69,452.88 417.26,459.25 415.89,465.62 414.61,472.00 413.45,478.38 412.43,484.75 411.60,491.12 410.98,497.50 410.59,503.88 410.45,510.25 410.55,516.62 410.89,523.00 411.44,529.38 412.19,535.75 413.11,542.12 414.19,548.50 415.41,554.88 416.76,561.25 418.23,567.62 419.80,574.00 421.48,580.38 423.24,586.75 425.06,593.12 426.91,599.50 428.76,605.88 430.55,612.25 432.25,618.62 433.80,625.00 435.19,631.38 436.37,637.75 437.34,644.12 438.10,650.50 438.67,656.88 439.07,663.25 439.35,669.62 439.54,676.00 439.70,682.38 439.85,688.75 440.05,695.12 440.30,701.50 440.64,707.88 441.05,714.25 441.52,720.62 442.05,727.00" /><polyline points="448.05,319.00 448.11,325.38 448.05,331.75 447.83,338.12 447.41,344.50 446.78,350.88 445.92,357.25 444.86,363.62 443.59,370.00 442.14,376.38 440.56,382.75 438.87,389.12 437.11,395.50 435.30,401.88 433.48,408.25 431.65,414.62 429.83,421.00 428.01,427.38 426.20,433.75 424.39,440.12 422.60,446.50 420.82,452.88 419.08,459.25 417.42,465.62 415.86,472.00 414.45,478.38 413.23,484.75 412.25,491.12 411.52,497.50 411.06,503.88 410.90,510.25 411.02,516.62 411.41,523.00 412.05,529.38 412.93,535.75 414.02,542.12 415.31,548.50 416.78,554.88 418.42,561.25 420.21,567.62 422.14,574.00 424.18,580.38 426.30,586.75 428.47,593.12 430.64,599.50 432.76,605.88 434.79,612.25 436.67,618.62 438.37,625.00 439.85,631.38 441.12,637.75 442.16,644.12 442.99,650.50 443.65,656.88 444.16,663.25 444.58,669.62 444.95,676.00 445.31,682.38 445.69,688.75 446.12,695.12 446.60,701.50 447.14,707.88 447.72,714.25 448.32,720.62 448.92,727.00" /><polyline points="454.76,319.00 454.68,325.38 454.44,331.75 453.99,338.12 453.33,344.50 452.43,350.88 451.32,357.25 450.00,363.62 448.50,370.00 446.85,376.38 445.09,382.75 443.24,389.12 441.33,395.50 439.39,401.88 437.42,408.25 435.42,414.62 433.40,421.00 431.35,427.38 429.27,433.75 427.16,440.12 425.05,446.50 422.94,452.88 420.88,459.25 418.91,465.62 417.08,472.00 415.43,478.38 414.02,484.75 412.88,491.12 412.05,497.50 411.53,503.88 411.34,510.25 411.48,516.62 411.92,523.00 412.66,529.38 413.67,535.75 414.94,542.12 416.45,548.50 418.19,554.88 420.12,561.25 422.24,567.62 424.51,574.00 426.90,580.38 429.37,586.75 431.85,593.12 434.31,599.50 436.67,605.88 438.89,612.25 440.93,618.62 442.76,625.00 444.35,631.38 445.72,637.75 446.86,644.12 447.82,650.50 448.62,656.88 449.31,663.25 449.94,669.62 450.53,676.00 451.13,682.38 451.76,688.75 452.42,695.12 453.10,701.50 453.81,707.88 454.50,714.25 455.17,720.62 455.76,727.00" /><polyline points="461.35,319.00 461.09,325.38 460.63,331.75 459.94,338.12 459.02,344.50 457.88,350.88 456.54,357.25 455.02,363.62 453.35,370.00 451.55,376.38 449.67,382.75 447.71,389.12 445.69,395.50 443.62,401.88 441.50,408.25 439.32,414.62 437.07,421.00 434.76,427.38 432.38,433.75 429.95,440.12 427.49,446.50 425.05,452.88 422.66,459.25 420.38,465.62 418.27,472.00 416.40,478.38 414.80,484.75 413.51,491.12 412.58,497.50 412.00,503.88 411.79,510.25 411.94,516.62 412.44,523.00 413.27,529.38 414.43,535.75 415.89,542.12 417.63,548.50 419.63,554.88 421.87,561.25 424.31,567.62 426.92,574.00 429.63,580.38 432.41,586.75 435.17,593.12 437.88,599.50 440.45,605.88 442.85,612.25 445.04,618.62 447.00,625.00 448.73,631.38 450.23,637.75 451.53,644.12 452.67,650.50 453.68,656.88 454.60,663.25 455.48,669.62 456.33,676.00 457.19,682.38 458.05,688.75 458.91,695.12 459.76,701.50 460.57,707.88 461.31,714.25 461.96,720.62 462.50,727.00" /><polyline points="467.75,319.00 467.28,325.38 466.58,331.75 465.66,338.12 464.52,344.50 463.18,350.88 461.67,357.25 460.00,363.62 458.22,370.00 456.34,376.38 454.37,382.75 452.33,389.12 450.21,395.50 448.02,401.88 445.73,408.25 443.33,414.62 440.83,421.00 438.22,427.38 435.50,433.75 432.72,440.12 429.90,446.50 427.10,452.88 424.38,459.25 421.80,465.62 419.44,472.00 417.34,478.38 415.56,484.75 414.14,491.12 413.10,497.50 412.47,503.88 412.24,510.25 412.40,516.62 412.96,523.00 413.90,529.38 415.20,535.75 416.85,542.12 418.82,548.50 421.10,554.88 423.63,561.25 426.39,567.62 429.31,574.00 432.33,580.38 435.38,586.75 438.40,593.12 441.33,599.50 444.10,605.88 446.67,612.25 449.02,618.62 451.15,625.00 453.04,631.38 454.73,637.75 456.24,644.12 457.61,650.50 458.88,656.88 460.08,663.25 461.23,669.62 462.35,676.00 463.45,682.38 464.51,688.75 465.53,695.12 466.47,701.50 467.32,707.88 468.04,714.25 468.62,720.62 469.04,727.00" /><polyline points="473.93,319.00 473.23,325.38 472.31,331.75 471.19,338.12 469.88,344.50 468.40,350.88 466.78,357.25 465.04,363.62 463.20,370.00 461.26,376.38 459.24,382.75 457.13,389.12 454.90,395.50 452.55,401.88 450.06,408.25 447.42,414.62 444.62,421.00 441.67,427.38 438.59,433.75 435.44,440.12 432.25,446.50 429.10,452.88 426.05,459.25 423.19,465.62 420.57,472.00 418.27,478.38 416.32,484.75 414.76,491.12 413.63,497.50 412.94,503.88 412.68,510.25 412.87,516.62 413.48,523.00 414.53,529.38 415.98,535.75 417.83,542.12 420.04,548.50 422.58,554.88 425.40,561.25 428.45,567.62 431.66,574.00 434.96,580.38 438.27,586.75 441.52,593.12 444.65,599.50 447.62,605.88 450.38,612.25 452.92,618.62 455.24,625.00 457.36,631.38 459.29,637.75 461.06,644.12 462.72,650.50 464.28,656.88 465.77,663.25 467.20,669.62 468.57,676.00 469.87,682.38 471.08,688.75 472.19,695.12 473.16,701.50 473.98,707.88 474.62,714.25 475.08,720.62 475.35,727.00" /><polyline points="479.87,319.00 478.97,325.38 477.88,331.75 476.61,338.12 475.18,344.50 473.63,350.88 471.96,357.25 470.20,363.62 468.34,370.00 466.38,376.38 464.31,382.75 462.10,389.12 459.74,395.50 457.20,401.88 454.47,408.25 451.52,414.62 448.38,421.00 445.07,427.38 441.61,433.75 438.08,440.12 434.52,446.50 431.03,452.88 427.68,459.25 424.54,465.62 421.69,472.00 419.19,478.38 417.07,484.75 415.39,491.12 414.16,497.50 413.41,503.88 413.13,510.25 413.33,516.62 414.01,523.00 415.16,529.38 416.77,535.75 418.82,542.12 421.26,548.50 424.06,554.88 427.16,561.25 430.48,567.62 433.96,574.00 437.51,580.38 441.06,586.75 444.53,593.12 447.88,599.50 451.05,605.88 454.02,612.25 456.79,618.62 459.36,625.00 461.75,631.38 463.97,637.75 466.06,644.12 468.03,650.50 469.90,656.88 471.67,663.25 473.35,669.62 474.92,676.00 476.36,682.38 477.66,688.75 478.79,695.12 479.72,701.50 480.46,707.88 480.98,714.25 481.29,720.62 481.42,727.00" /><polyline points="485.61,319.00 484.55,325.38 483.34,331.75 481.99,338.12 480.53,344.50 478.96,350.88 477.30,357.25 475.54,363.62 473.68,370.00 471.69,376.38 469.55,382.75 467.22,389.12 464.68,395.50 461.90,401.88 458.87,408.25 455.59,414.62 452.09,421.00 448.38,427.38 444.54,433.75 440.63,440.12 436.72,446.50 432.91,452.88 429.27,459.25 425.87,465.62 422.80,472.00 420.11,478.38 417.84,484.75 416.02,491.12 414.70,497.50 413.88,503.88 413.57,510.25 413.79,516.62 414.54,523.00 415.81,529.38 417.57,535.75 419.81,542.12 422.48,548.50 425.52,554.88 428.88,561.25 432.45,567.62 436.18,574.00 439.97,580.38 443.75,586.75 447.45,593.12 451.02,599.50 454.44,605.88 457.67,612.25 460.71,618.62 463.57,625.00 466.28,631.38 468.83,637.75 471.24,644.12 473.53,650.50 475.70,656.88 477.72,663.25 479.61,669.62 481.32,676.00 482.84,682.38 484.16,688.75 485.24,695.12 486.10,701.50 486.71,707.88 487.09,714.25 487.27,720.62 487.28,727.00" /><polyline points="491.21,319.00 490.07,325.38 488.80,331.75 487.44,338.12 485.99,344.50 484.45,350.88 482.83,357.25 481.09,363.62 479.22,370.00 477.17,376.38 474.92,382.75 472.42,389.12 469.65,395.50 466.59,401.88 463.23,408.25 459.58,414.62 455.68,421.00 451.59,427.38 447.37,433.75 443.10,440.12 438.86,446.50 434.74,452.88 430.83,459.25 427.20,465.62 423.92,472.00 421.04,478.38 418.61,484.75 416.66,491.12 415.24,497.50 414.35,503.88 414.02,510.25 414.26,516.62 415.07,523.00 416.45,529.38 418.37,535.75 420.80,542.12 423.68,548.50 426.96,554.88 430.55,561.25 434.37,567.62 438.33,574.00 442.36,580.38 446.37,586.75 450.32,593.12 454.15,599.50 457.83,605.88 461.36,612.25 464.72,618.62 467.93,625.00 470.97,631.38 473.87,637.75 476.62,644.12 479.21,650.50 481.63,656.88 483.86,663.25 485.89,669.62 487.68,676.00 489.22,682.38 490.49,688.75 491.50,695.12 492.24,701.50 492.72,707.88 492.99,714.25 493.07,720.62 493.00,727.00" /><polyline points="496.77,319.00 495.60,325.38 494.36,331.75 493.04,338.12 491.64,344.50 490.16,350.88 488.57,357.25 486.84,363.62 484.93,370.00 482.78,376.38 480.37,382.75 477.65,389.12 474.59,395.50 471.20,401.88 467.47,408.25 463.44,414.62 459.16,421.00 454.69,427.38 450.10,433.75 445.50,440.12 440.95,446.50 436.56,452.88 432.40,459.25 428.54,465.62 425.05,472.00 421.99,478.38 419.39,484.75 417.31,491.12 415.78,497.50 414.82,503.88 414.46,510.25 414.72,516.62 415.60,523.00 417.09,529.38 419.16,535.75 421.77,542.12 424.86,548.50 428.35,554.88 432.17,561.25 436.22,567.62 440.42,574.00 444.69,580.38 448.96,586.75 453.17,593.12 457.29,599.50 461.29,605.88 465.16,612.25 468.88,618.62 472.44,625.00 475.85,631.38 479.09,637.75 482.15,644.12 485.00,650.50 487.63,656.88 490.00,663.25 492.11,669.62 493.92,676.00 495.42,682.38 496.62,688.75 497.52,695.12 498.14,701.50 498.53,707.88 498.71,714.25 498.75,720.62 498.68,727.00" /><polyline points="502.38,319.00 501.25,325.38 500.07,331.75 498.83,338.12 497.52,344.50 496.09,350.88 494.52,357.25 492.76,363.62 490.75,370.00 488.45,376.38 485.81,382.75 482.82,389.12 479.44,395.50 475.68,401.88 471.58,408.25 467.17,414.62 462.51,421.00 457.68,427.38 452.77,433.75 447.86,440.12 443.03,446.50 438.38,452.88 433.98,459.25 429.91,465.62 426.21,472.00 422.96,478.38 420.19,484.75 417.97,491.12 416.32,497.50 415.29,503.88 414.91,510.25 415.19,516.62 416.14,523.00 417.73,529.38 419.95,535.75 422.73,542.12 426.01,548.50 429.71,554.88 433.75,561.25 438.03,567.62 442.47,574.00 447.00,580.38 451.55,586.75 456.06,593.12 460.51,599.50 464.86,605.88 469.09,612.25 473.19,618.62 477.12,625.00 480.88,631.38 484.44,637.75 487.76,644.12 490.83,650.50 493.60,656.88 496.06,663.25 498.18,669.62 499.96,676.00 501.40,682.38 502.51,688.75 503.31,695.12 503.86,701.50 504.18,707.88 504.35,714.25 504.40,720.62 504.41,727.00" /><polyline points="508.12,319.00 507.09,325.38 506.01,331.75 504.86,338.12 503.61,344.50 502.21,350.88 500.62,357.25 498.76,363.62 496.60,370.00 494.09,376.38 491.18,382.75 487.87,389.12 484.14,395.50 480.01,401.88 475.54,408.25 470.76,414.62 465.76,421.00 460.61,427.38 455.40,433.75 450.21,440.12 445.13,446.50 440.24,452.88 435.61,459.25 431.31,465.62 427.40,472.00 423.95,478.38 421.00,484.75 418.63,491.12 416.87,497.50 415.77,503.88 415.36,510.25 415.66,516.62 416.67,523.00 418.37,529.38 420.72,535.75 423.66,542.12 427.13,548.50 431.04,554.88 435.29,561.25 439.81,567.62 444.51,574.00 449.32,580.38 454.17,586.75 459.03,593.12 463.83,599.50 468.56,605.88 473.18,612.25 477.65,618.62 481.94,625.00 486.02,631.38 489.85,637.75 493.39,644.12 496.61,650.50 499.47,656.88 501.96,663.25 504.06,669.62 505.79,676.00 507.15,682.38 508.19,688.75 508.93,695.12 509.44,701.50 509.78,707.88 509.99,714.25 510.14,720.62 510.28,727.00" /><polyline points="514.07,319.00 513.15,325.38 512.17,331.75 511.10,338.12 509.88,344.50 508.46,350.88 506.78,357.25 504.78,363.62 502.41,370.00 499.63,376.38 496.41,382.75 492.75,389.12 488.67,395.50 484.18,401.88 479.36,408.25 474.25,414.62 468.94,421.00 463.51,427.38 458.03,433.75 452.59,440.12 447.27,446.50 442.14,452.88 437.28,459.25 432.75,465.62 428.62,472.00 424.96,478.38 421.83,484.75 419.29,491.12 417.41,497.50 416.24,503.88 415.80,510.25 416.12,516.62 417.19,523.00 418.99,529.38 421.48,535.75 424.58,542.12 428.23,548.50 432.34,554.88 436.82,561.25 441.58,567.62 446.56,574.00 451.68,580.38 456.87,586.75 462.09,593.12 467.28,599.50 472.40,605.88 477.40,612.25 482.23,618.62 486.85,625.00 491.21,631.38 495.26,637.75 498.96,644.12 502.27,650.50 505.17,656.88 507.65,663.25 509.72,669.62 511.39,676.00 512.71,682.38 513.71,688.75 514.45,695.12 515.00,701.50 515.40,707.88 515.73,714.25 516.04,720.62 516.35,727.00" /><polyline points="520.25,319.00 519.45,325.38 518.55,331.75 517.51,338.12 516.27,344.50 514.77,350.88 512.94,357.25 510.73,363.62 508.09,370.00 505.01,376.38 501.46,382.75 497.46,389.12 493.03,395.50 488.22,401.88 483.08,408.25 477.69,414.62 472.11,421.00 466.42,427.38 460.71,433.75 455.03,440.12 449.48,446.50 444.11,452.88 439.01,459.25 434.23,465.62 429.86,472.00 425.98,478.38 422.65,484.75 419.96,491.12 417.96,497.50 416.71,503.88 416.25,510.25 416.59,516.62 417.72,523.00 419.61,529.38 422.22,535.75 425.48,542.12 429.31,548.50 433.63,554.88 438.34,561.25 443.38,567.62 448.66,574.00 454.11,580.38 459.67,586.75 465.27,593.12 470.85,599.50 476.35,605.88 481.71,612.25 486.88,618.62 491.78,625.00 496.37,631.38 500.58,637.75 504.39,644.12 507.75,650.50 510.67,656.88 513.13,663.25 515.17,669.62 516.82,676.00 518.13,682.38 519.16,688.75 519.96,695.12 520.61,701.50 521.16,707.88 521.66,714.25 522.15,720.62 522.67,727.00" /><polyline points="526.66,319.00 525.94,325.38 525.08,331.75 524.01,338.12 522.69,344.50 521.03,350.88 519.00,357.25 516.53,363.62 513.60,370.00 510.20,376.38 506.32,382.75 502.00,389.12 497.26,395.50 492.16,401.88 486.76,408.25 481.12,414.62 475.31,421.00 469.40,427.38 463.46,433.75 457.56,440.12 451.76,446.50 446.14,452.88 440.78,459.25 435.74,465.62 431.12,472.00 427.01,478.38 423.48,484.75 420.62,491.12 418.50,497.50 417.18,503.88 416.69,510.25 417.05,516.62 418.24,523.00 420.22,529.38 422.96,535.75 426.37,542.12 430.39,548.50 434.92,554.88 439.90,561.25 445.22,567.62 450.83,574.00 456.63,580.38 462.56,586.75 468.54,593.12 474.51,599.50 480.38,605.88 486.08,612.25 491.53,618.62 496.67,625.00 501.43,631.38 505.76,637.75 509.64,644.12 513.04,650.50 515.96,656.88 518.42,663.25 520.47,669.62 522.14,676.00 523.50,682.38 524.62,688.75 525.55,695.12 526.36,701.50 527.10,707.88 527.81,714.25 528.51,720.62 529.22,727.00" /><polyline points="533.26,319.00 532.56,325.38 531.67,331.75 530.52,338.12 529.04,344.50 527.18,350.88 524.89,357.25 522.13,363.62 518.90,370.00 515.19,376.38 511.01,382.75 506.41,389.12 501.41,395.50 496.07,401.88 490.45,408.25 484.60,414.62 478.59,421.00 472.47,427.38 466.31,433.75 460.17,440.12 454.12,446.50 448.23,452.88 442.58,459.25 437.27,465.62 432.39,472.00 428.03,478.38 424.30,484.75 421.28,491.12 419.05,497.50 417.65,503.88 417.14,510.25 417.51,516.62 418.75,523.00 420.83,529.38 423.69,535.75 427.26,542.12 431.48,548.50 436.24,554.88 441.49,561.25 447.12,567.62 453.06,574.00 459.23,580.38 465.54,586.75 471.90,593.12 478.23,599.50 484.43,605.88 490.42,612.25 496.12,618.62 501.44,625.00 506.34,631.38 510.77,637.75 514.70,644.12 518.13,650.50 521.07,656.88 523.57,663.25 525.67,669.62 527.44,676.00 528.92,682.38 530.19,688.75 531.31,695.12 532.33,701.50 533.28,707.88 534.20,714.25 535.09,720.62 535.95,727.00" /><polyline points="539.96,319.00 539.23,325.38 538.24,331.75 536.93,338.12 535.25,344.50 533.14,350.88 530.57,357.25 527.53,363.62 524.01,370.00 520.02,376.38 515.59,382.75 510.75,389.12 505.54,395.50 500.01,401.88 494.21,408.25 488.18,414.62 481.98,421.00 475.65,427.38 469.26,433.75 462.86,440.12 456.53,446.50 450.34,452.88 444.40,459.25 438.79,465.62 433.64,472.00 429.04,478.38 425.11,484.75 421.93,491.12 419.58,497.50 418.12,503.88 417.59,510.25 417.97,516.62 419.27,523.00 421.44,529.38 424.43,535.75 428.16,542.12 432.58,548.50 437.59,554.88 443.12,561.25 449.08,567.62 455.37,574.00 461.90,580.38 468.58,586.75 475.30,593.12 481.96,599.50 488.46,605.88 494.70,612.25 500.60,618.62 506.07,625.00 511.08,631.38 515.58,637.75 519.57,644.12 523.06,650.50 526.08,656.88 528.66,663.25 530.88,669.62 532.80,676.00 534.46,682.38 535.95,688.75 537.29,695.12 538.53,701.50 539.70,707.88 540.80,714.25 541.84,720.62 542.80,727.00" /><polyline points="546.69,319.00 545.85,325.38 544.70,331.75 543.18,338.12 541.25,344.50 538.88,350.88 536.04,357.25 532.73,363.62 528.96,370.00 524.75,376.38 520.11,382.75 515.10,389.12 509.73,395.50 504.05,401.88 498.09,408.25 491.89,414.62 485.49,421.00 478.95,427.38 472.30,433.75 465.62,440.12 458.98,446.50 452.47,452.88 446.21,459.25 440.30,465.62 434.87,472.00 430.03,478.38 425.90,484.75 422.57,491.12 420.11,497.50 418.59,503.88 418.03,510.25 418.44,516.62 419.79,523.00 422.05,529.38 425.17,535.75 429.08,542.12 433.71,548.50 438.99,554.88 444.81,561.25 451.09,567.62 457.73,574.00 464.62,580.38 471.65,586.75 478.70,593.12 485.66,599.50 492.41,605.88 498.86,612.25 504.92,618.62 510.53,625.00 515.64,631.38 520.24,637.75 524.31,644.12 527.90,650.50 531.04,656.88 533.78,663.25 536.18,669.62 538.30,676.00 540.20,682.38 541.92,688.75 543.50,695.12 544.96,701.50 546.31,707.88 547.55,714.25 548.68,720.62 549.67,727.00" /><polyline points="553.33,319.00 552.33,325.38 550.97,331.75 549.22,338.12 547.03,344.50 544.40,350.88 541.32,357.25 537.79,363.62 533.82,370.00 529.44,376.38 524.66,382.75 519.52,389.12 514.03,395.50 508.22,401.88 502.11,408.25 495.74,414.62 489.13,421.00 482.33,427.38 475.40,433.75 468.40,440.12 461.43,446.50 454.59,452.88 448.00,459.25 441.78,465.62 436.08,472.00 431.00,478.38 426.68,484.75 423.20,491.12 420.64,497.50 419.06,503.88 418.48,510.25 418.90,516.62 420.30,523.00 422.66,529.38 425.92,535.75 430.01,542.12 434.87,548.50 440.41,554.88 446.54,561.25 453.15,567.62 460.13,574.00 467.36,580.38 474.71,586.75 482.05,593.12 489.27,599.50 496.25,605.88 502.88,612.25 509.10,618.62 514.83,625.00 520.06,631.38 524.77,637.75 528.99,644.12 532.73,650.50 536.05,656.88 539.01,663.25 541.64,669.62 544.01,676.00 546.17,682.38 548.13,688.75 549.92,695.12 551.56,701.50 553.05,707.88 554.36,714.25 555.51,720.62 556.46,727.00" /><polyline points="559.82,319.00 558.61,325.38 557.02,331.75 555.02,338.12 552.60,344.50 549.75,350.88 546.48,357.25 542.78,363.62 538.68,370.00 534.18,376.38 529.31,382.75 524.08,389.12 518.48,395.50 512.55,401.88 506.28,408.25 499.71,414.62 492.86,421.00 485.77,427.38 478.52,433.75 471.18,440.12 463.85,446.50 456.66,452.88 449.74,459.25 443.22,465.62 437.25,472.00 431.95,478.38 427.45,484.75 423.83,491.12 421.17,497.50 419.53,503.88 418.92,510.25 419.36,516.62 420.82,523.00 423.28,529.38 426.68,535.75 430.97,542.12 436.06,548.50 441.87,554.88 448.30,561.25 455.23,567.62 462.53,574.00 470.07,580.38 477.71,586.75 485.32,593.12 492.77,599.50 499.95,605.88 506.75,612.25 513.12,618.62 519.01,625.00 524.39,631.38 529.27,637.75 533.67,644.12 537.63,650.50 541.19,656.88 544.41,663.25 547.31,669.62 549.95,676.00 552.35,682.38 554.53,688.75 556.50,695.12 558.27,701.50 559.81,707.88 561.14,714.25 562.23,720.62 563.09,727.00" /></g><g id="03_Gold_Land" inkscape:groupmode="layer" inkscape:label="03_Gold_Land" stroke="#B8960C" fill="none" stroke-width="0.95" stroke-linecap="round" stroke-linejoin="round"><polyline points="252.00,421.00 393.46,421.00" /><polyline points="252.00,426.28 393.01,426.28" /><polyline points="252.00,431.56 392.28,431.56" /><polyline points="252.00,436.84 391.15,436.84" /><polyline points="252.00,442.12 389.47,442.12" /><polyline points="252.00,447.40 387.07,447.40" /><polyline points="252.00,452.68 383.78,452.68" /><polyline points="252.00,457.96 379.44,457.96" /><polyline points="252.00,463.24 373.95,463.24" /><polyline points="252.00,468.52 367.33,468.52" /><polyline points="252.00,473.80 359.68,473.80" /><polyline points="252.00,479.08 351.32,479.08" /><polyline points="252.00,484.36 342.67,484.36" /><polyline points="252.00,489.64 334.30,489.64" /><polyline points="252.00,494.92 326.87,494.92" /><polyline points="252.00,500.20 321.00,500.20" /><polyline points="252.00,505.48 317.23,505.48" /><polyline points="252.00,510.76 315.94,510.76" /><polyline points="252.00,516.04 317.23,516.04" /><polyline points="252.00,521.32 321.00,521.32" /><polyline points="252.00,526.60 326.87,526.60" /><polyline points="252.00,531.88 334.30,531.88" /><polyline points="252.00,537.16 342.67,537.16" /><polyline points="252.00,542.44 351.32,542.44" /><polyline points="252.00,547.72 359.68,547.72" /><polyline points="252.00,553.00 367.33,553.00" /><polyline points="252.00,558.28 373.95,558.28" /><polyline points="252.00,563.56 379.44,563.56" /><polyline points="252.00,568.84 383.78,568.84" /><polyline points="252.00,574.12 387.07,574.12" /><polyline points="252.00,579.40 389.47,579.40" /><polyline points="252.00,584.68 391.15,584.68" /><polyline points="252.00,589.96 392.28,589.96" /><polyline points="252.00,595.24 393.01,595.24" /><polyline points="252.00,600.52 393.46,600.52" /><polyline points="422.54,421.00 564.00,421.00" /><polyline points="422.99,426.28 564.00,426.28" /><polyline points="423.72,431.56 564.00,431.56" /><polyline points="424.85,436.84 564.00,436.84" /><polyline points="426.53,442.12 564.00,442.12" /><polyline points="428.93,447.40 564.00,447.40" /><polyline points="432.22,452.68 564.00,452.68" /><polyline points="436.56,457.96 564.00,457.96" /><polyline points="442.05,463.24 564.00,463.24" /><polyline points="448.67,468.52 564.00,468.52" /><polyline points="456.32,473.80 564.00,473.80" /><polyline points="464.68,479.08 564.00,479.08" /><polyline points="473.33,484.36 564.00,484.36" /><polyline points="481.70,489.64 564.00,489.64" /><polyline points="489.13,494.92 564.00,494.92" /><polyline points="495.00,500.20 564.00,500.20" /><polyline points="498.77,505.48 564.00,505.48" /><polyline points="500.06,510.76 564.00,510.76" /><polyline points="498.77,516.04 564.00,516.04" /><polyline points="495.00,521.32 564.00,521.32" /><polyline points="489.13,526.60 564.00,526.60" /><polyline points="481.70,531.88 564.00,531.88" /><polyline points="473.33,537.16 564.00,537.16" /><polyline points="464.68,542.44 564.00,542.44" /><polyline points="456.32,547.72 564.00,547.72" /><polyline points="448.67,553.00 564.00,553.00" /><polyline points="442.05,558.28 564.00,558.28" /><polyline points="436.56,563.56 564.00,563.56" /><polyline points="432.22,568.84 564.00,568.84" /><polyline points="428.93,574.12 564.00,574.12" /><polyline points="426.53,579.40 564.00,579.40" /><polyline points="424.85,584.68 564.00,584.68" /><polyline points="423.72,589.96 564.00,589.96" /><polyline points="422.99,595.24 564.00,595.24" /><polyline points="422.54,600.52 564.00,600.52" /></g><g id="04_Red_Beacon" inkscape:groupmode="layer" inkscape:label="04_Red_Beacon" stroke="#CC3333" fill="none" stroke-width="0.875" stroke-linecap="round" stroke-linejoin="round"><line x1="323.14" y1="449.56" x2="327.64" y2="449.56" /><line x1="322.91" y1="450.62" x2="326.98" y2="452.52" /><line x1="322.25" y1="451.48" x2="325.14" y2="454.92" /><line x1="321.29" y1="451.97" x2="322.45" y2="456.32" /><line x1="320.21" y1="452.02" x2="319.42" y2="456.45" /><line x1="319.21" y1="451.61" x2="316.62" y2="455.29" /><line x1="318.47" y1="450.81" x2="314.58" y2="453.06" /><line x1="318.15" y1="449.78" x2="313.67" y2="450.17" /><line x1="318.29" y1="448.70" x2="314.06" y2="447.17" /><line x1="318.87" y1="447.79" x2="315.69" y2="444.61" /><line x1="319.78" y1="447.21" x2="318.25" y2="442.98" /><line x1="320.86" y1="447.07" x2="321.25" y2="442.59" /><line x1="321.89" y1="447.39" x2="324.14" y2="443.50" /><line x1="322.69" y1="448.13" x2="326.37" y2="445.54" /><line x1="323.10" y1="449.13" x2="327.53" y2="448.34" /><line x1="330.42" y1="451.64" x2="334.33" y2="452.47" /><line x1="328.63" y1="455.58" x2="331.82" y2="457.99" /><line x1="325.33" y1="458.39" x2="327.21" y2="461.92" /><line x1="321.16" y1="459.55" x2="321.37" y2="463.54" /><line x1="316.89" y1="458.83" x2="315.40" y2="462.54" /><line x1="313.33" y1="456.38" x2="310.40" y2="459.11" /><line x1="311.13" y1="452.65" x2="307.33" y2="453.89" /><line x1="310.71" y1="448.34" x2="306.74" y2="447.85" /><line x1="312.16" y1="444.26" x2="308.77" y2="442.14" /><line x1="315.19" y1="441.17" x2="313.02" y2="437.82" /><line x1="319.25" y1="439.66" x2="318.69" y2="435.70" /><line x1="323.56" y1="440.00" x2="324.73" y2="436.17" /><line x1="327.33" y1="442.13" x2="330.01" y2="439.16" /><line x1="329.85" y1="445.65" x2="333.53" y2="444.09" /></g></svg>