<?xml version='1.0' encoding='utf-8'?>
<svg xmlns="http://www.w3.org/2000/svg" xmlns:inkscape="http://www.inkscape.org/namespaces/inkscape" viewBox="204 228 408 600"><style>*{vector-effect:non-scaling-stroke}</style><g id="01_Black_Frame" inkscape:groupmode="layer" inkscape:label="01_Black_Frame" stroke="#1A1A1A" fill="none" stroke-width="0.875" stroke-linecap="round" stroke-linejoin="round"><path d="M 250.0,264.0 L 566.0,264.0 Q 576.0,264.0 576.0,274.0 L 576.0,782.0 Q 576.0,792.0 566.0,792.0 L 250.0,792.0 Q 240.0,792.0 240.0,782.0 L 240.0,274.0 Q 240.0,264.0 250.0,264.0" /><path d="M 253.0,270.0 L 563.0,270.0 Q 570.0,270.0 570.0,277.0 L 570.0,779.0 Q 570.0,786.0 563.0,786.0 L 253.0,786.0 Q 246.0,786.0 246.0,779.0 L 246.0,277.0 Q 246.0,270.0 253.0,270.0" /><line x1="259.0" y1="280.0" x2="263.0" y2="280.0" /><line x1="258.1" y1="282.1" x2="260.9" y2="284.9" /><line x1="256.0" y1="283.0" x2="256.0" y2="287.0" /><line x1="253.9" y1="282.1" x2="251.1" y2="284.9" /><line x1="253.0" y1="280.0" x2="249.0" y2="280.0" /><line x1="253.9" y1="277.9" x2="251.1" y2="275.1" /><line x1="256.0" y1="277.0" x2="256.0" y2="273.0" /><line x1="258.1" y1="277.9" x2="260.9" y2="275.1" /><line x1="563.0" y1="280.0" x2="567.0" y2="280.0" /><line x1="562.1" y1="282.1" x2="564.9" y2="284.9" /><line x1="560.0" y1="283.0" x2="560.0" y2="287.0" /><line x1="557.9" y1="282.1" x2="555.1" y2="284.9" /><line x1="557.0" y1="280.0" x2="553.0" y2="280.0" /><line x1="557.9" y1="277.9" x2="555.1" y2="275.1" /><line x1="560.0" y1="277.0" x2="560.0" y2="273.0" /><line x1="562.1" y1="277.9" x2="564.9" y2="275.1" /><line x1="259.0" y1="776.0" x2="263.0" y2="776.0" /><line x1="258.1" y1="778.1" x2="260.9" y2="780.9" /><line x1="256.0" y1="779.0" x2="256.0" y2="783.0" /><line x1="253.9" y1="778.1" x2="251.1" y2="780.9" /><line x1="253.0" y1="776.0" x2="249.0" y2="776.0" /><line x1="253.9" y1="773.9" x2="251.1" y2="771.1" /><line x1="256.0" y1="773.0" x2="256.0" y2="769.0" /><line x1="258.1" y1="773.9" x2="260.9" y2="771.1" /><line x1="563.0" y1="776.0" x2="567.0" y2="776.0" /><line x1="562.1" y1="778.1" x2="564.9" y2="780.9" /><line x1="560.0" y1="779.0" x2="560.0" y2="783.0" /><line x1="557.9" y1="778.1" x2="555.1" y2="780.9" /><line x1="557.0" y1="776.0" x2="553.0" y2="776.0" /><line x1="557.9" y1="773.9" x2="555.1" y2="771.1" /><line x1="560.0" y1="773.0" x2="560.0" y2="769.0" /><line x1="562.1" y1="773.9" x2="564.9" y2="771.1" /><polyline points="392.38,283.20 390.62,282.00 389.62,282.00 387.88,283.60 387.88,288.40 389.62,290.00 390.62,290.00 392.38,288.80" /><polyline points="393.62,282.00 393.62,290.00 397.88,290.00" /><polyline points="399.38,282.00 404.38,290.00" /><polyline points="404.38,282.00 399.38,290.00" /><polyline points="405.12,282.00 410.12,290.00" /><polyline points="410.12,282.00 405.12,290.00" /><polyline points="413.38,282.00 413.38,290.00" /><polyline points="419.12,282.00 419.12,290.00" /><polyline points="424.88,282.00 424.88,290.00" /><polyline points="378.10,297.00 384.60,297.00" /><polyline points="381.35,297.00 381.35,307.00" /><polyline points="385.58,297.00 385.58,307.00" /><polyline points="392.08,297.00 392.08,307.00" /><polyline points="385.58,301.80 392.08,301.80" /><polyline points="398.57,297.00 393.05,297.00 393.05,301.80 396.95,301.80" /><polyline points="393.05,301.80 393.05,307.00 398.57,307.00" /><polyline points="408.00,307.00 411.25,297.00 414.50,307.00" /><polyline points="409.17,303.50 413.33,303.50" /><polyline points="415.48,307.00 415.48,297.00 419.70,297.00 421.33,298.50 421.33,300.20 419.70,301.50 415.48,301.50" /><polyline points="428.48,297.00 422.95,297.00 422.95,301.80 426.85,301.80" /><polyline points="422.95,301.80 422.95,307.00 428.48,307.00" /><polyline points="430.43,297.00 436.93,307.00" /><polyline points="436.93,297.00 430.43,307.00" /><line x1="270.0" y1="312.0" x2="546.0" y2="312.0" /><line x1="270.0" y1="732.0" x2="546.0" y2="732.0" /><polyline points="375.59,740.75 375.59,745.25" /><polyline points="377.41,745.25 377.41,740.75 379.23,740.75 379.93,741.42 379.93,742.19 379.23,742.77 377.41,742.77 379.93,745.25" /><polyline points="380.63,745.25 382.03,740.75 383.43,745.25" /><polyline points="381.13,743.67 382.93,743.67" /><polyline points="383.85,745.25 383.85,740.75 386.65,745.25 386.65,740.75" /><polyline points="395.89,741.20 395.19,740.75 394.35,740.75 393.65,741.42 393.51,742.10 393.93,742.64 394.91,743.00 395.89,743.36 396.31,743.90 396.17,744.58 395.47,745.25 394.49,745.25 393.79,744.80" /><polyline points="398.13,740.75 397.01,741.20 396.73,742.10 396.73,743.90 397.01,744.80 398.13,745.25 399.25,744.80 399.53,743.90 399.53,742.10 399.25,741.20 398.13,740.75" /><polyline points="399.95,740.75 399.95,745.25 402.33,745.25" /><polyline points="405.55,741.20 404.85,740.75 404.01,740.75 403.31,741.42 403.17,742.10 403.59,742.64 404.57,743.00 405.55,743.36 405.97,743.90 405.83,744.58 405.13,745.25 404.15,745.25 403.45,744.80" /><polyline points="406.39,740.75 409.19,740.75" /><polyline points="407.79,740.75 407.79,745.25" /><polyline points="411.01,740.75 411.01,745.25" /><polyline points="415.35,741.42 414.37,740.75 413.81,740.75 412.83,741.65 412.83,744.35 413.81,745.25 414.37,745.25 415.35,744.58" /><polyline points="418.43,740.75 416.05,740.75 416.05,742.91 417.73,742.91" /><polyline points="416.05,742.91 416.05,745.25 418.43,745.25" /><polyline points="428.09,741.20 427.39,740.75 426.55,740.75 425.85,741.42 425.71,742.10 426.13,742.64 427.11,743.00 428.09,743.36 428.51,743.90 428.37,744.58 427.67,745.25 426.69,745.25 425.99,744.80" /><polyline points="428.93,745.25 428.93,740.75 430.33,743.23 431.73,740.75 431.73,745.25" /><polyline points="433.55,740.75 432.43,741.20 432.15,742.10 432.15,743.90 432.43,744.80 433.55,745.25 434.67,744.80 434.95,743.90 434.95,742.10 434.67,741.20 433.55,740.75" /><polyline points="435.37,740.75 435.37,745.25" /><polyline points="437.89,740.75 435.37,743.00 437.89,745.25" /><polyline points="440.97,740.75 438.59,740.75 438.59,742.91 440.27,742.91" /><polyline points="438.59,742.91 438.59,745.25 440.97,745.25" /><polyline points="295.88,753.25 300.88,753.25" /><polyline points="298.38,753.25 298.38,760.75" /><polyline points="301.62,753.25 301.62,760.75" /><polyline points="306.62,753.25 306.62,760.75" /><polyline points="301.62,756.85 306.62,756.85" /><polyline points="311.62,753.25 307.38,753.25 307.38,756.85 310.38,756.85" /><polyline points="307.38,756.85 307.38,760.75 311.62,760.75" /><polyline points="318.88,753.25 318.88,760.75 323.12,760.75" /><polyline points="327.12,753.25 325.12,754.00 324.62,755.50 324.62,758.50 325.12,760.00 327.12,760.75 329.12,760.00 329.62,758.50 329.62,755.50 329.12,754.00 327.12,753.25" /><polyline points="330.38,760.75 330.38,753.25 335.38,760.75 335.38,753.25" /><polyline points="340.62,754.38 338.88,753.25 337.88,753.25 336.12,754.75 336.12,759.25 337.88,760.75 338.88,760.75 340.62,759.62 340.62,757.00 338.62,757.00" /><polyline points="346.12,753.25 341.88,753.25 341.88,756.85 344.88,756.85" /><polyline points="341.88,756.85 341.88,760.75 346.12,760.75" /><polyline points="351.88,754.00 350.62,753.25 349.12,753.25 347.88,754.38 347.62,755.50 348.38,756.40 350.12,757.00 351.88,757.60 352.62,758.50 352.38,759.62 351.12,760.75 349.38,760.75 348.12,760.00" /><polyline points="353.38,753.25 358.38,753.25" /><polyline points="355.88,753.25 355.88,760.75" /><polyline points="364.88,760.75 364.88,753.25 367.62,753.25 369.38,755.12 369.38,758.88 367.62,760.75 364.88,760.75" /><polyline points="370.62,760.75 373.12,753.25 375.62,760.75" /><polyline points="371.52,758.12 374.73,758.12" /><polyline points="376.38,753.25 378.88,757.00 381.38,753.25" /><polyline points="378.88,757.00 378.88,760.75" /><polyline points="387.88,760.75 387.88,753.25 391.12,753.25 392.38,754.38 392.38,755.65 391.12,756.62 387.88,756.62" /><polyline points="393.62,760.75 396.12,753.25 398.62,760.75" /><polyline points="394.52,758.12 397.73,758.12" /><polyline points="403.62,754.00 402.38,753.25 400.88,753.25 399.62,754.38 399.38,755.50 400.12,756.40 401.88,757.00 403.62,757.60 404.38,758.50 404.12,759.62 402.88,760.75 401.12,760.75 399.88,760.00" /><polyline points="409.38,754.00 408.12,753.25 406.62,753.25 405.38,754.38 405.12,755.50 405.88,756.40 407.62,757.00 409.38,757.60 410.12,758.50 409.88,759.62 408.62,760.75 406.88,760.75 405.62,760.00" /><polyline points="415.12,753.25 410.88,753.25 410.88,756.85 413.88,756.85" /><polyline points="410.88,756.85 410.88,760.75 415.12,760.75" /><polyline points="416.62,760.75 416.62,753.25 419.38,753.25 421.12,755.12 421.12,758.88 419.38,760.75 416.62,760.75" /><polyline points="428.12,753.25 429.38,760.75 430.62,755.88 431.88,760.75 433.12,753.25" /><polyline points="436.38,753.25 436.38,760.75" /><polyline points="439.62,753.25 444.62,753.25" /><polyline points="442.12,753.25 442.12,760.75" /><polyline points="445.38,753.25 445.38,760.75" /><polyline points="450.38,753.25 450.38,760.75" /><polyline points="445.38,756.85 450.38,756.85" /><polyline points="453.62,753.25 451.62,754.00 451.12,755.50 451.12,758.50 451.62,760.00 453.62,760.75 455.62,760.00 456.12,758.50 456.12,755.50 455.62,754.00 453.62,753.25" /><polyline points="456.88,753.25 456.88,758.88 457.88,760.38 460.88,760.38 461.88,758.88 461.88,753.25" /><polyline points="462.62,753.25 467.62,753.25" /><polyline points="465.12,753.25 465.12,760.75" /><polyline points="478.62,754.38 476.88,753.25 475.88,753.25 474.12,754.75 474.12,759.25 475.88,760.75 476.88,760.75 478.62,759.62" /><polyline points="484.12,753.25 479.88,753.25 479.88,756.85 482.88,756.85" /><polyline points="479.88,756.85 479.88,760.75 484.12,760.75" /><polyline points="485.62,760.75 485.62,753.25 488.88,753.25 490.12,754.38 490.12,755.65 488.88,756.62 485.62,756.62 490.12,760.75" /><polyline points="495.62,753.25 491.38,753.25 491.38,756.85 494.38,756.85" /><polyline points="491.38,756.85 491.38,760.75 495.62,760.75" /><polyline points="497.12,760.75 497.12,753.25 499.62,757.38 502.12,753.25 502.12,760.75" /><polyline points="505.38,753.25 503.38,754.00 502.88,755.50 502.88,758.50 503.38,760.00 505.38,760.75 507.38,760.00 507.88,758.50 507.88,755.50 507.38,754.00 505.38,753.25" /><polyline points="508.62,760.75 508.62,753.25 513.62,760.75 513.62,753.25" /><polyline points="514.38,753.25 516.88,757.00 519.38,753.25" /><polyline points="516.88,757.00 516.88,760.75" /><polyline points="304.50,773.75 307.00,766.25 309.50,773.75" /><polyline points="305.40,771.12 308.60,771.12" /><polyline points="310.25,773.75 310.25,766.25 315.25,773.75 315.25,766.25" /><polyline points="316.00,773.75 316.00,766.25 318.75,766.25 320.50,768.12 320.50,771.88 318.75,773.75 316.00,773.75" /><polyline points="327.50,766.25 332.50,766.25" /><polyline points="330.00,766.25 330.00,773.75" /><polyline points="333.25,766.25 333.25,773.75" /><polyline points="338.25,766.25 338.25,773.75" /><polyline points="333.25,769.85 338.25,769.85" /><polyline points="343.25,766.25 339.00,766.25 339.00,769.85 342.00,769.85" /><polyline points="339.00,769.85 339.00,773.75 343.25,773.75" /><polyline points="350.50,766.25 350.50,773.75 354.75,773.75" /><polyline points="358.75,766.25 358.75,773.75" /><polyline points="366.50,767.38 364.75,766.25 363.75,766.25 362.00,767.75 362.00,772.25 363.75,773.75 364.75,773.75 366.50,772.62 366.50,770.00 364.50,770.00" /><polyline points="367.75,766.25 367.75,773.75" /><polyline points="372.75,766.25 372.75,773.75" /><polyline points="367.75,769.85 372.75,769.85" /><polyline points="373.50,766.25 378.50,766.25" /><polyline points="376.00,766.25 376.00,773.75" /><polyline points="385.00,773.75 385.00,766.25 388.25,766.25 389.25,767.15 389.25,768.35 388.25,769.25 385.00,769.25 388.25,769.25 389.25,770.15 389.25,772.85 388.25,773.75 385.00,773.75" /><polyline points="395.00,766.25 390.75,766.25 390.75,769.85 393.75,769.85" /><polyline points="390.75,769.85 390.75,773.75 395.00,773.75" /><polyline points="401.00,767.38 399.25,766.25 398.25,766.25 396.50,767.75 396.50,772.25 398.25,773.75 399.25,773.75 401.00,772.62 401.00,770.00 399.00,770.00" /><polyline points="402.25,773.75 404.75,766.25 407.25,773.75" /><polyline points="403.15,771.12 406.35,771.12" /><polyline points="408.00,773.75 408.00,766.25 413.00,773.75 413.00,766.25" /><polyline points="422.00,766.25 422.00,773.75" /><polyline points="425.25,766.25 430.25,766.25" /><polyline points="427.75,766.25 427.75,773.75" /><polyline points="435.25,767.00 434.00,766.25 432.50,766.25 431.25,767.38 431.00,768.50 431.75,769.40 433.50,770.00 435.25,770.60 436.00,771.50 435.75,772.62 434.50,773.75 432.75,773.75 431.50,773.00" /><polyline points="442.50,766.25 442.50,773.75 446.75,773.75" /><polyline points="450.75,766.25 448.75,767.00 448.25,768.50 448.25,771.50 448.75,773.00 450.75,773.75 452.75,773.00 453.25,771.50 453.25,768.50 452.75,767.00 450.75,766.25" /><polyline points="454.00,773.75 454.00,766.25 459.00,773.75 459.00,766.25" /><polyline points="464.25,767.38 462.50,766.25 461.50,766.25 459.75,767.75 459.75,772.25 461.50,773.75 462.50,773.75 464.25,772.62 464.25,770.00 462.25,770.00" /><polyline points="471.25,766.25 471.25,773.75 475.50,773.75" /><polyline points="481.25,766.25 477.00,766.25 477.00,769.85 480.00,769.85" /><polyline points="477.00,769.85 477.00,773.75 481.25,773.75" /><polyline points="482.75,773.75 485.25,766.25 487.75,773.75" /><polyline points="483.65,771.12 486.85,771.12" /><polyline points="488.50,766.25 491.00,773.75 493.50,766.25" /><polyline points="496.75,766.25 496.75,773.75" /><polyline points="500.00,773.75 500.00,766.25 505.00,773.75 505.00,766.25" /><polyline points="510.25,767.38 508.50,766.25 507.50,766.25 505.75,767.75 505.75,772.25 507.50,773.75 508.50,773.75 510.25,772.62 510.25,770.00 508.25,770.00" /><polyline points="382.24,779.50 383.84,784.50 385.44,779.50" /><polyline points="387.52,779.50 387.52,784.50" /><polyline points="391.20,784.00 391.20,784.25" /><polyline points="393.28,779.50 396.48,784.50" /><polyline points="396.48,779.50 393.28,784.50" /><polyline points="396.96,779.50 400.16,784.50" /><polyline points="400.16,779.50 396.96,784.50" /><polyline points="402.24,779.50 402.24,784.50" /><polyline points="405.92,779.50 405.92,784.50" /><polyline points="409.60,784.00 409.60,784.25" /><polyline points="411.68,784.50 411.68,779.50 413.28,782.25 414.88,779.50 414.88,784.50" /><polyline points="415.36,784.50 415.36,779.50 416.96,782.25 418.56,779.50 418.56,784.50" /><polyline points="419.04,779.50 422.24,784.50" /><polyline points="422.24,779.50 419.04,784.50" /><polyline points="422.72,779.50 425.92,784.50" /><polyline points="425.92,779.50 422.72,784.50" /><polyline points="426.40,779.50 428.00,784.50 429.60,779.50" /><polyline points="431.68,779.50 431.68,784.50" /></g><g id="02_Teal_Ascent" inkscape:groupmode="layer" inkscape:label="02_Teal_Ascent" stroke="#3A7A7A" fill="none" stroke-width="0.75" stroke-linecap="round" stroke-linejoin="round"><line x1="556.00" y1="319.00" x2="564.00" y2="324.20" stroke-width="0.4" stroke-opacity="0.27" /><line x1="548.00" y1="319.00" x2="564.00" y2="329.40" stroke-width="0.4" stroke-opacity="0.27" /><line x1="540.00" y1="319.00" x2="564.00" y2="334.60" stroke-width="0.4" stroke-opacity="0.26" /><line x1="532.00" y1="319.00" x2="564.00" y2="339.80" stroke-width="0.375" stroke-opacity="0.26" /><line x1="524.00" y1="319.00" x2="564.00" y2="345.00" stroke-width="0.375" stroke-opacity="0.26" /><line x1="516.00" y1="319.00" x2="564.00" y2="350.20" stroke-width="0.375" stroke-opacity="0.26" /><line x1="508.00" y1="319.00" x2="564.00" y2="355.40" stroke-width="0.375" stroke-opacity="0.26" /><line x1="500.00" y1="319.00" x2="564.00" y2="360.60" stroke-width="0.375" stroke-opacity="0.26" /><line x1="492.00" y1="319.00" x2="564.00" y2="365.80" stroke-width="0.375" stroke-opacity="0.26" /><line x1="484.00" y1="319.00" x2="564.00" y2="371.00" stroke-width="0.375" stroke-opacity="0.25" /><line x1="476.00" y1="319.00" x2="564.00" y2="376.20" stroke-width="0.375" stroke-opacity="0.25" /><line x1="468.00" y1="319.00" x2="564.00" y2="381.40" stroke-width="0.375" stroke-opacity="0.25" /><line x1="460.00" y1="319.00" x2="564.00" y2="386.60" stroke-width="0.375" stroke-opacity="0.25" /><line x1="452.00" y1="319.00" x2="564.00" y2="391.80" stroke-width="0.375" stroke-opacity="0.25" /><line x1="444.00" y1="319.00" x2="564.00" y2="397.00" stroke-width="0.375" stroke-opacity="0.25" /><line x1="436.00" y1="319.00" x2="564.00" y2="402.20" stroke-width="0.375" stroke-opacity="0.25" /><line x1="428.00" y1="319.00" x2="564.00" y2="407.40" stroke-width="0.375" stroke-opacity="0.24" /><line x1="420.00" y1="319.00" x2="564.00" y2="412.60" stroke-width="0.35" stroke-opacity="0.24" /><line x1="412.00" y1="319.00" x2="564.00" y2="417.80" stroke-width="0.35" stroke-opacity="0.24" /><line x1="404.00" y1="319.00" x2="564.00" y2="423.00" stroke-width="0.35" stroke-opacity="0.24" /><line x1="396.00" y1="319.00" x2="564.00" y2="428.20" stroke-width="0.35" stroke-opacity="0.24" /><line x1="388.00" y1="319.00" x2="564.00" y2="433.40" stroke-width="0.35" stroke-opacity="0.24" /><line x1="380.00" y1="319.00" x2="564.00" y2="438.60" stroke-width="0.35" stroke-opacity="0.24" /><line x1="372.00" y1="319.00" x2="564.00" y2="443.80" stroke-width="0.35" stroke-opacity="0.23" /><line x1="364.00" y1="319.00" x2="564.00" y2="449.00" stroke-width="0.35" stroke-opacity="0.23" /><line x1="356.00" y1="319.00" x2="564.00" y2="454.20" stroke-width="0.35" stroke-opacity="0.23" /><line x1="348.00" y1="319.00" x2="564.00" y2="459.40" stroke-width="0.35" stroke-opacity="0.23" /><line x1="340.00" y1="319.00" x2="564.00" y2="464.60" stroke-width="0.35" stroke-opacity="0.23" /><line x1="332.00" y1="319.00" x2="564.00" y2="469.80" stroke-width="0.35" stroke-opacity="0.23" /><line x1="324.00" y1="319.00" x2="564.00" y2="475.00" stroke-width="0.35" stroke-opacity="0.23" /><line x1="316.00" y1="319.00" x2="564.00" y2="480.20" stroke-width="0.325" stroke-opacity="0.22" /><line x1="308.00" y1="319.00" x2="564.00" y2="485.40" stroke-width="0.325" stroke-opacity="0.22" /><line x1="300.00" y1="319.00" x2="564.00" y2="490.60" stroke-width="0.325" stroke-opacity="0.22" /><line x1="292.00" y1="319.00" x2="564.00" y2="495.80" stroke-width="0.325" stroke-opacity="0.22" /><line x1="284.00" y1="319.00" x2="564.00" y2="501.00" stroke-width="0.325" stroke-opacity="0.22" /><line x1="276.00" y1="319.00" x2="564.00" y2="506.20" stroke-width="0.325" stroke-opacity="0.22" /><line x1="268.00" y1="319.00" x2="564.00" y2="511.40" stroke-width="0.325" stroke-opacity="0.22" /><line x1="260.00" y1="319.00" x2="564.00" y2="516.60" stroke-width="0.325" stroke-opacity="0.21" /><line x1="252.00" y1="319.00" x2="564.00" y2="521.80" stroke-width="0.325" stroke-opacity="0.21" /><line x1="252.00" y1="324.20" x2="564.00" y2="527.00" stroke-width="0.325" stroke-opacity="0.21" /><line x1="252.00" y1="329.40" x2="564.00" y2="532.20" stroke-width="0.325" stroke-opacity="0.21" /><line x1="252.00" y1="334.60" x2="564.00" y2="537.40" stroke-width="0.3" stroke-opacity="0.2" /><line x1="252.00" y1="339.80" x2="564.00" y2="542.60" stroke-width="0.3" stroke-opacity="0.2" /><line x1="252.00" y1="345.00" x2="564.00" y2="547.80" stroke-width="0.3" stroke-opacity="0.2" /><line x1="252.00" y1="350.20" x2="564.00" y2="553.00" stroke-width="0.3" stroke-opacity="0.2" /><line x1="252.00" y1="355.40" x2="564.00" y2="558.20" stroke-width="0.3" stroke-opacity="0.19" /><line x1="252.00" y1="360.60" x2="564.00" y2="563.40" stroke-width="0.3" stroke-opacity="0.19" /><line x1="252.00" y1="365.80" x2="564.00" y2="568.60" stroke-width="0.275" stroke-opacity="0.19" /><line x1="252.00" y1="371.00" x2="564.00" y2="573.80" stroke-width="0.275" stroke-opacity="0.19" /><line x1="252.00" y1="376.20" x2="564.00" y2="579.00" stroke-width="0.275" stroke-opacity="0.18" /><line x1="252.00" y1="381.40" x2="564.00" y2="584.20" stroke-width="0.2" stroke-opacity="0.18" /><line x1="252.00" y1="386.60" x2="564.00" y2="589.40" stroke-width="0.2" stroke-opacity="0.18" /><line x1="252.00" y1="391.80" x2="564.00" y2="594.60" stroke-width="0.2" stroke-opacity="0.18" /><line x1="252.00" y1="397.00" x2="564.00" y2="599.80" stroke-width="0.2" stroke-opacity="0.18" /><line x1="252.00" y1="402.20" x2="564.00" y2="605.00" stroke-width="0.2" stroke-opacity="0.18" /><line x1="252.00" y1="407.40" x2="564.00" y2="610.20" stroke-width="0.2" stroke-opacity="0.17" /><line x1="252.00" y1="412.60" x2="564.00" y2="615.40" stroke-width="0.2" stroke-opacity="0.17" /><line x1="252.00" y1="417.80" x2="564.00" y2="620.60" stroke-width="0.2" stroke-opacity="0.17" /><line x1="252.00" y1="423.00" x2="564.00" y2="625.80" stroke-width="0.2" stroke-opacity="0.17" /><line x1="252.00" y1="428.20" x2="564.00" y2="631.00" stroke-width="0.2" stroke-opacity="0.17" /><line x1="252.00" y1="433.40" x2="564.00" y2="636.20" stroke-width="0.2" stroke-opacity="0.17" /><line x1="252.00" y1="438.60" x2="564.00" y2="641.40" stroke-width="0.2" stroke-opacity="0.17" /><line x1="252.00" y1="443.80" x2="564.00" y2="646.60" stroke-width="0.2" stroke-opacity="0.17" /><line x1="252.00" y1="449.00" x2="564.00" y2="651.80" stroke-width="0.2" stroke-opacity="0.17" /><line x1="252.00" y1="454.20" x2="564.00" y2="657.00" stroke-width="0.2" stroke-opacity="0.17" /><line x1="252.00" y1="459.40" x2="564.00" y2="662.20" stroke-width="0.2" stroke-opacity="0.16" /><line x1="252.00" y1="464.60" x2="564.00" y2="667.40" stroke-width="0.2" stroke-opacity="0.16" /><line x1="252.00" y1="469.80" x2="564.00" y2="672.60" stroke-width="0.2" stroke-opacity="0.16" /><line x1="252.00" y1="475.00" x2="564.00" y2="677.80" stroke-width="0.2" stroke-opacity="0.16" /><line x1="252.00" y1="480.20" x2="564.00" y2="683.00" stroke-width="0.2" stroke-opacity="0.16" /><line x1="252.00" y1="485.40" x2="564.00" y2="688.20" stroke-width="0.2" stroke-opacity="0.16" /><line x1="252.00" y1="490.60" x2="564.00" y2="693.40" stroke-width="0.2" stroke-opacity="0.16" /><line x1="252.00" y1="495.80" x2="564.00" y2="698.60" stroke-width="0.2" stroke-opacity="0.16" /><line x1="252.00" y1="501.00" x2="564.00" y2="703.80" stroke-width="0.2" stroke-opacity="0.16" /><line x1="252.00" y1="506.20" x2="564.00" y2="709.00" stroke-width="0.2" stroke-opacity="0.16" /><line x1="252.00" y1="511.40" x2="564.00" y2="714.20" stroke-width="0.2" stroke-opacity="0.15" /><line x1="252.00" y1="516.60" x2="564.00" y2="719.40" stroke-width="0.2" stroke-opacity="0.15" /><line x1="252.00" y1="521.80" x2="564.00" y2="724.60" stroke-width="0.2" stroke-opacity="0.15" /><line x1="252.00" y1="527.00" x2="559.69" y2="727.00" stroke-width="0.2" stroke-opacity="0.15" /><line x1="252.00" y1="532.20" x2="551.69" y2="727.00" stroke-width="0.2" stroke-opacity="0.15" /><line x1="252.00" y1="537.40" x2="543.69" y2="727.00" stroke-width="0.2" stroke-opacity="0.15" /><line x1="252.00" y1="542.60" x2="535.69" y2="727.00" stroke-width="0.2" stroke-opacity="0.15" /><line x1="252.00" y1="547.80" x2="527.69" y2="727.00" stroke-width="0.2" stroke-opacity="0.15" /><line x1="252.00" y1="553.00" x2="519.69" y2="727.00" stroke-width="0.2" stroke-opacity="0.15" /><line x1="252.00" y1="558.20" x2="511.69" y2="727.00" stroke-width="0.2" stroke-opacity="0.15" /><line x1="252.00" y1="563.40" x2="503.69" y2="727.00" stroke-width="0.2" stroke-opacity="0.15" /><line x1="252.00" y1="568.60" x2="495.69" y2="727.00" stroke-width="0.2" stroke-opacity="0.15" /><line x1="252.00" y1="573.80" x2="487.69" y2="727.00" stroke-width="0.2" stroke-opacity="0.15" /><line x1="252.00" y1="579.00" x2="479.69" y2="727.00" stroke-width="0.2" stroke-opacity="0.15" /><line x1="252.00" y1="584.20" x2="471.69" y2="727.00" stroke-width="0.2" stroke-opacity="0.15" /><line x1="252.00" y1="589.40" x2="463.69" y2="727.00" stroke-width="0.2" stroke-opacity="0.15" /><line x1="252.00" y1="594.60" x2="455.69" y2="727.00" stroke-width="0.2" stroke-opacity="0.14" /><line x1="252.00" y1="599.80" x2="447.69" y2="727.00" stroke-width="0.2" stroke-opacity="0.14" /><line x1="252.00" y1="605.00" x2="439.69" y2="727.00" stroke-width="0.2" stroke-opacity="0.14" /><line x1="252.00" y1="610.20" x2="431.69" y2="727.00" stroke-width="0.2" stroke-opacity="0.14" /><line x1="252.00" y1="615.40" x2="423.69" y2="727.00" stroke-width="0.2" stroke-opacity="0.14" /><line x1="252.00" y1="620.60" x2="415.69" y2="727.00" stroke-width="0.2" stroke-opacity="0.14" /><line x1="252.00" y1="625.80" x2="407.69" y2="727.00" stroke-width="0.2" stroke-opacity="0.14" /><line x1="252.00" y1="631.00" x2="399.69" y2="727.00" stroke-width="0.2" stroke-opacity="0.14" /><line x1="252.00" y1="636.20" x2="391.69" y2="727.00" stroke-width="0.2" stroke-opacity="0.14" /><line x1="252.00" y1="641.40" x2="383.69" y2="727.00" stroke-width="0.2" stroke-opacity="0.14" /><line x1="252.00" y1="646.60" x2="375.69" y2="727.00" stroke-width="0.2" stroke-opacity="0.14" /><line x1="252.00" y1="651.80" x2="367.69" y2="727.00" stroke-width="0.2" stroke-opacity="0.14" /><line x1="252.00" y1="657.00" x2="359.69" y2="727.00" stroke-width="0.2" stroke-opacity="0.14" /><line x1="252.00" y1="662.20" x2="351.69" y2="727.00" stroke-width="0.2" stroke-opacity="0.14" /><line x1="252.00" y1="667.40" x2="343.69" y2="727.00" stroke-width="0.2" stroke-opacity="0.14" /><line x1="252.00" y1="672.60" x2="335.69" y2="727.00" stroke-width="0.2" stroke-opacity="0.14" /><line x1="252.00" y1="677.80" x2="327.69" y2="727.00" stroke-width="0.2" stroke-opacity="0.14" /><line x1="252.00" y1="683.00" x2="319.69" y2="727.00" stroke-width="0.2" stroke-opacity="0.14" /><line x1="252.00" y1="688.20" x2="311.69" y2="727.00" stroke-width="0.2" stroke-opacity="0.14" /><line x1="252.00" y1="693.40" x2="303.69" y2="727.00" stroke-width="0.2" stroke-opacity="0.14" /><line x1="252.00" y1="698.60" x2="295.69" y2="727.00" stroke-width="0.2" stroke-opacity="0.13" /><line x1="252.00" y1="703.80" x2="287.69" y2="727.00" stroke-width="0.2" stroke-opacity="0.13" /><line x1="252.00" y1="709.00" x2="279.69" y2="727.00" stroke-width="0.2" stroke-opacity="0.13" /><line x1="252.00" y1="714.20" x2="271.69" y2="727.00" stroke-width="0.2" stroke-opacity="0.13" /><line x1="252.00" y1="719.40" x2="263.69" y2="727.00" stroke-width="0.2" stroke-opacity="0.13" /><line x1="252.00" y1="724.60" x2="255.69" y2="727.00" stroke-width="0.2" stroke-opacity="0.13" /></g><g id="03_Teal_Descent" inkscape:groupmode="layer" inkscape:label="03_Teal_Descent" stroke="#3A7A7A" fill="none" stroke-width="0.375" stroke-linecap="round" stroke-linejoin="round"><line x1="252.00" y1="454.40" x2="460.31" y2="319.00" stroke-width="0.225" stroke-opacity="0.1" /><line x1="252.00" y1="488.40" x2="512.62" y2="319.00" stroke-width="0.225" stroke-opacity="0.11" /><line x1="252.00" y1="522.40" x2="564.00" y2="319.60" stroke-width="0.225" stroke-opacity="0.12" /><line x1="252.00" y1="556.40" x2="564.00" y2="353.60" stroke-width="0.225" stroke-opacity="0.13" /><line x1="252.00" y1="590.40" x2="564.00" y2="387.60" stroke-width="0.225" stroke-opacity="0.14" /><line x1="252.00" y1="624.40" x2="564.00" y2="421.60" stroke-width="0.225" stroke-opacity="0.14" /><line x1="252.00" y1="658.40" x2="564.00" y2="455.60" stroke-width="0.225" stroke-opacity="0.14" /><line x1="252.00" y1="692.40" x2="564.00" y2="489.60" stroke-width="0.225" stroke-opacity="0.13" /><line x1="252.00" y1="726.40" x2="564.00" y2="523.60" stroke-width="0.225" stroke-opacity="0.12" /><line x1="303.38" y1="727.00" x2="564.00" y2="557.60" stroke-width="0.225" stroke-opacity="0.11" /><line x1="355.69" y1="727.00" x2="564.00" y2="591.60" stroke-width="0.225" stroke-opacity="0.1" /></g><g id="04_Gold_Hinge" inkscape:groupmode="layer" inkscape:label="04_Gold_Hinge" stroke="#B8960C" fill="none" stroke-width="1.12" stroke-linecap="round" stroke-linejoin="round"><line x1="258.00" y1="482.20" x2="558.00" y2="482.20" stroke-width="1.05" stroke-opacity="0.72" /><line x1="258.00" y1="477.20" x2="258.00" y2="487.20" stroke-width="0.875" stroke-opacity="0.55" /><line x1="558.00" y1="477.20" x2="558.00" y2="487.20" stroke-width="0.875" stroke-opacity="0.55" /><line x1="400.00" y1="470.20" x2="416.00" y2="470.20" stroke-width="0.625" stroke-opacity="0.4" /></g></svg>