<?xml version='1.0' encoding='utf-8'?>
<svg xmlns="http://www.w3.org/2000/svg" xmlns:inkscape="http://www.inkscape.org/namespaces/inkscape" viewBox="204 228 408 600"><style>*{vector-effect:non-scaling-stroke}</style><g id="01_Black_Frame" inkscape:groupmode="layer" inkscape:label="01_Black_Frame" stroke="#1A1A1A" fill="none" stroke-width="0.875" stroke-linecap="round" stroke-linejoin="round"><path d="M 250.0,264.0 L 566.0,264.0 Q 576.0,264.0 576.0,274.0 L 576.0,782.0 Q 576.0,792.0 566.0,792.0 L 250.0,792.0 Q 240.0,792.0 240.0,782.0 L 240.0,274.0 Q 240.0,264.0 250.0,264.0" /><path d="M 253.0,270.0 L 563.0,270.0 Q 570.0,270.0 570.0,277.0 L 570.0,779.0 Q 570.0,786.0 563.0,786.0 L 253.0,786.0 Q 246.0,786.0 246.0,779.0 L 246.0,277.0 Q 246.0,270.0 253.0,270.0" /><line x1="259.0" y1="280.0" x2="263.0" y2="280.0" /><line x1="258.1" y1="282.1" x2="260.9" y2="284.9" /><line x1="256.0" y1="283.0" x2="256.0" y2="287.0" /><line x1="253.9" y1="282.1" x2="251.1" y2="284.9" /><line x1="253.0" y1="280.0" x2="249.0" y2="280.0" /><line x1="253.9" y1="277.9" x2="251.1" y2="275.1" /><line x1="256.0" y1="277.0" x2="256.0" y2="273.0" /><line x1="258.1" y1="277.9" x2="260.9" y2="275.1" /><line x1="563.0" y1="280.0" x2="567.0" y2="280.0" /><line x1="562.1" y1="282.1" x2="564.9" y2="284.9" /><line x1="560.0" y1="283.0" x2="560.0" y2="287.0" /><line x1="557.9" y1="282.1" x2="555.1" y2="284.9" /><line x1="557.0" y1="280.0" x2="553.0" y2="280.0" /><line x1="557.9" y1="277.9" x2="555.1" y2="275.1" /><line x1="560.0" y1="277.0" x2="560.0" y2="273.0" /><line x1="562.1" y1="277.9" x2="564.9" y2="275.1" /><line x1="259.0" y1="776.0" x2="263.0" y2="776.0" /><line x1="258.1" y1="778.1" x2="260.9" y2="780.9" /><line x1="256.0" y1="779.0" x2="256.0" y2="783.0" /><line x1="253.9" y1="778.1" x2="251.1" y2="780.9" /><line x1="253.0" y1="776.0" x2="249.0" y2="776.0" /><line x1="253.9" y1="773.9" x2="251.1" y2="771.1" /><line x1="256.0" y1="773.0" x2="256.0" y2="769.0" /><line x1="258.1" y1="773.9" x2="260.9" y2="771.1" /><line x1="563.0" y1="776.0" x2="567.0" y2="776.0" /><line x1="562.1" y1="778.1" x2="564.9" y2="780.9" /><line x1="560.0" y1="779.0" x2="560.0" y2="783.0" /><line x1="557.9" y1="778.1" x2="555.1" y2="780.9" /><line x1="557.0" y1="776.0" x2="553.0" y2="776.0" /><line x1="557.9" y1="773.9" x2="555.1" y2="771.1" /><line x1="560.0" y1="773.0" x2="560.0" y2="769.0" /><line x1="562.1" y1="773.9" x2="564.9" y2="771.1" /><polyline points="401.00,283.20 399.25,282.00 398.25,282.00 396.50,283.60 396.50,288.40 398.25,290.00 399.25,290.00 401.00,288.80" /><polyline points="402.25,282.00 402.25,290.00 406.50,290.00" /><polyline points="408.00,282.00 410.50,290.00 413.00,282.00" /><polyline points="416.25,282.00 416.25,290.00" /><polyline points="370.62,297.00 377.12,297.00" /><polyline points="373.88,297.00 373.88,307.00" /><polyline points="378.10,297.00 378.10,307.00" /><polyline points="384.60,297.00 384.60,307.00" /><polyline points="378.10,301.80 384.60,301.80" /><polyline points="391.10,297.00 385.57,297.00 385.57,301.80 389.47,301.80" /><polyline points="385.57,301.80 385.57,307.00 391.10,307.00" /><polyline points="400.52,297.00 407.02,297.00" /><polyline points="403.77,297.00 403.77,307.00" /><polyline points="408.00,297.00 408.00,307.00" /><polyline points="414.50,297.00 414.50,307.00" /><polyline points="408.00,301.80 414.50,301.80" /><polyline points="415.48,307.00 415.48,297.00 419.70,297.00 421.33,298.50 421.33,300.20 419.70,301.50 415.48,301.50 421.33,307.00" /><polyline points="428.47,297.00 422.95,297.00 422.95,301.80 426.85,301.80" /><polyline points="422.95,301.80 422.95,307.00 428.47,307.00" /><polyline points="430.43,307.00 433.68,297.00 436.93,307.00" /><polyline points="431.60,303.50 435.75,303.50" /><polyline points="437.90,307.00 437.90,297.00 441.47,297.00 443.75,299.50 443.75,304.50 441.47,307.00 437.90,307.00" /><line x1="270.0" y1="312.0" x2="546.0" y2="312.0" /><line x1="270.0" y1="732.0" x2="546.0" y2="732.0" /><polyline points="379.79,741.20 379.09,740.75 378.25,740.75 377.55,741.42 377.41,742.10 377.83,742.64 378.81,743.00 379.79,743.36 380.21,743.90 380.07,744.58 379.37,745.25 378.39,745.25 377.69,744.80" /><polyline points="380.63,740.75 380.63,745.25 383.01,745.25" /><polyline points="386.23,740.75 383.85,740.75 383.85,742.91 385.53,742.91" /><polyline points="383.85,742.91 383.85,745.25 386.23,745.25" /><polyline points="389.45,740.75 387.07,740.75 387.07,742.91 388.75,742.91" /><polyline points="387.07,742.91 387.07,745.25 389.45,745.25" /><polyline points="390.29,745.25 390.29,740.75 392.11,740.75 392.81,741.42 392.81,742.19 392.11,742.77 390.29,742.77" /><polyline points="401.35,740.75 401.35,745.25" /><polyline points="403.17,745.25 403.17,740.75 404.99,740.75 405.69,741.42 405.69,742.19 404.99,742.77 403.17,742.77 405.69,745.25" /><polyline points="406.39,745.25 407.79,740.75 409.19,745.25" /><polyline points="406.89,743.67 408.69,743.67" /><polyline points="409.61,745.25 409.61,740.75 412.41,745.25 412.41,740.75" /><polyline points="419.27,740.75 419.27,745.25" /><polyline points="422.07,740.75 422.07,745.25" /><polyline points="419.27,742.91 422.07,742.91" /><polyline points="422.49,740.75 422.49,744.12 423.05,745.02 424.73,745.02 425.29,744.12 425.29,740.75" /><polyline points="425.71,745.25 425.71,740.75 428.51,745.25 428.51,740.75" /><polyline points="431.45,741.42 430.47,740.75 429.91,740.75 428.93,741.65 428.93,744.35 429.91,745.25 430.47,745.25 431.45,744.58 431.45,743.00 430.33,743.00" /><polyline points="434.53,740.75 432.15,740.75 432.15,742.91 433.83,742.91" /><polyline points="432.15,742.91 432.15,745.25 434.53,745.25" /><polyline points="435.37,745.25 435.37,740.75 437.19,740.75 437.89,741.42 437.89,742.19 437.19,742.77 435.37,742.77 437.89,745.25" /><polyline points="359.12,753.25 364.12,753.25" /><polyline points="361.62,753.25 361.62,760.75" /><polyline points="364.88,753.25 364.88,760.75" /><polyline points="369.88,753.25 369.88,760.75" /><polyline points="364.88,756.85 369.88,756.85" /><polyline points="374.88,753.25 370.62,753.25 370.62,756.85 373.62,756.85" /><polyline points="370.62,756.85 370.62,760.75 374.88,760.75" /><polyline points="382.12,753.25 387.12,753.25" /><polyline points="384.62,753.25 384.62,760.75" /><polyline points="387.88,753.25 387.88,760.75" /><polyline points="392.88,753.25 392.88,760.75" /><polyline points="387.88,756.85 392.88,756.85" /><polyline points="396.12,753.25 396.12,760.75" /><polyline points="399.38,760.75 399.38,753.25 404.38,760.75 404.38,753.25" /><polyline points="405.12,760.75 405.12,753.25 410.12,760.75 410.12,753.25" /><polyline points="415.12,753.25 410.88,753.25 410.88,756.85 413.88,756.85" /><polyline points="410.88,756.85 410.88,760.75 415.12,760.75" /><polyline points="420.88,754.00 419.62,753.25 418.12,753.25 416.88,754.38 416.62,755.50 417.38,756.40 419.12,757.00 420.88,757.60 421.62,758.50 421.38,759.62 420.12,760.75 418.38,760.75 417.12,760.00" /><polyline points="422.38,753.25 427.38,753.25" /><polyline points="424.88,753.25 424.88,760.75" /><polyline points="433.88,753.25 433.88,760.75 438.12,760.75" /><polyline points="442.12,753.25 442.12,760.75" /><polyline points="445.38,760.75 445.38,753.25 450.38,760.75 450.38,753.25" /><polyline points="455.38,753.25 451.12,753.25 451.12,756.85 454.12,756.85" /><polyline points="451.12,756.85 451.12,760.75 455.38,760.75" /><polyline points="321.75,773.75 321.75,766.25 325.00,766.25 326.00,767.15 326.00,768.35 325.00,769.25 321.75,769.25 325.00,769.25 326.00,770.15 326.00,772.85 325.00,773.75 321.75,773.75" /><polyline points="331.75,766.25 327.50,766.25 327.50,769.85 330.50,769.85" /><polyline points="327.50,769.85 327.50,773.75 331.75,773.75" /><polyline points="333.25,766.25 338.25,766.25" /><polyline points="335.75,766.25 335.75,773.75" /><polyline points="339.00,766.25 340.25,773.75 341.50,768.88 342.75,773.75 344.00,766.25" /><polyline points="349.00,766.25 344.75,766.25 344.75,769.85 347.75,769.85" /><polyline points="344.75,769.85 344.75,773.75 349.00,773.75" /><polyline points="354.75,766.25 350.50,766.25 350.50,769.85 353.50,769.85" /><polyline points="350.50,769.85 350.50,773.75 354.75,773.75" /><polyline points="356.25,773.75 356.25,766.25 361.25,773.75 361.25,766.25" /><polyline points="367.75,766.25 372.75,766.25" /><polyline points="370.25,766.25 370.25,773.75" /><polyline points="373.50,766.25 373.50,773.75" /><polyline points="378.50,766.25 378.50,773.75" /><polyline points="373.50,769.85 378.50,769.85" /><polyline points="383.50,766.25 379.25,766.25 379.25,769.85 382.25,769.85" /><polyline points="379.25,769.85 379.25,773.75 383.50,773.75" /><polyline points="390.75,766.25 392.00,773.75 393.25,768.88 394.50,773.75 395.75,766.25" /><polyline points="399.00,766.25 397.00,767.00 396.50,768.50 396.50,771.50 397.00,773.00 399.00,773.75 401.00,773.00 401.50,771.50 401.50,768.50 401.00,767.00 399.00,766.25" /><polyline points="402.25,773.75 402.25,766.25 405.50,766.25 406.75,767.38 406.75,768.65 405.50,769.62 402.25,769.62 406.75,773.75" /><polyline points="408.00,766.25 408.00,773.75 412.25,773.75" /><polyline points="413.75,773.75 413.75,766.25 416.50,766.25 418.25,768.12 418.25,771.88 416.50,773.75 413.75,773.75" /><polyline points="425.25,773.75 427.75,766.25 430.25,773.75" /><polyline points="426.15,771.12 429.35,771.12" /><polyline points="431.00,773.75 431.00,766.25 436.00,773.75 436.00,766.25" /><polyline points="436.75,773.75 436.75,766.25 439.50,766.25 441.25,768.12 441.25,771.88 439.50,773.75 436.75,773.75" /><polyline points="448.25,766.25 453.25,766.25" /><polyline points="450.75,766.25 450.75,773.75" /><polyline points="454.00,766.25 454.00,773.75" /><polyline points="459.00,766.25 459.00,773.75" /><polyline points="454.00,769.85 459.00,769.85" /><polyline points="464.00,766.25 459.75,766.25 459.75,769.85 462.75,769.85" /><polyline points="459.75,769.85 459.75,773.75 464.00,773.75" /><polyline points="475.50,766.25 471.25,766.25 471.25,769.85 474.25,769.85" /><polyline points="471.25,769.85 471.25,773.75" /><polyline points="479.50,766.25 479.50,773.75" /><polyline points="482.75,773.75 482.75,766.25 486.00,766.25 487.25,767.38 487.25,768.65 486.00,769.62 482.75,769.62 487.25,773.75" /><polyline points="492.75,766.25 488.50,766.25 488.50,769.85 491.50,769.85" /><polyline points="488.50,769.85 488.50,773.75 492.75,773.75" /><polyline points="387.76,779.50 389.36,784.50 390.96,779.50" /><polyline points="393.04,779.50 393.04,784.50" /><polyline points="396.72,784.00 396.72,784.25" /><polyline points="398.80,779.50 400.40,784.50 402.00,779.50" /><polyline points="404.08,784.00 404.08,784.25" /><polyline points="406.16,784.50 406.16,779.50 407.76,782.25 409.36,779.50 409.36,784.50" /><polyline points="409.84,784.50 409.84,779.50 411.44,782.25 413.04,779.50 413.04,784.50" /><polyline points="413.52,779.50 416.72,784.50" /><polyline points="416.72,779.50 413.52,784.50" /><polyline points="417.20,779.50 420.40,784.50" /><polyline points="420.40,779.50 417.20,784.50" /><polyline points="420.88,779.50 422.48,784.50 424.08,779.50" /><polyline points="426.16,779.50 426.16,784.50" /></g><g id="02_Teal_Flow" inkscape:groupmode="layer" inkscape:label="02_Teal_Flow" stroke="#3A7A7A" fill="none" stroke-width="0.7" stroke-linecap="round" stroke-linejoin="round"><path d="M 252.0,319.0 L 255.9,326.1 L 259.9,333.3 L 263.8,340.4 L 267.8,347.4 L 271.7,354.5 L 275.7,361.4 L 279.6,368.3 L 283.6,375.2 L 287.5,381.9 L 291.5,388.5 L 295.4,395.0 L 299.4,401.5 L 303.3,407.7 L 307.3,413.9 L 311.2,419.8 L 315.2,425.7 L 319.1,431.3 L 323.1,436.8 L 327.0,442.1 L 331.0,447.2 L 334.9,452.1 L 338.9,456.8 L 342.8,461.2 L 346.8,465.5 L 350.7,469.5 L 354.7,473.3 L 358.6,476.8 L 362.6,480.1 L 366.5,483.1 L 370.5,485.9 L 374.4,488.4 L 378.4,490.6 L 382.3,492.6 L 386.3,494.2 L 390.2,495.7 L 394.2,496.8 L 398.1,497.6 L 402.1,498.2 L 406.0,498.5 L 410.0,498.5 L 413.9,498.2 L 417.9,497.6 L 421.8,496.8 L 425.8,495.7 L 429.7,494.2 L 433.7,492.6 L 437.6,490.6 L 441.6,488.4 L 445.5,485.9 L 449.5,483.1 L 453.4,480.1 L 457.4,476.8 L 461.3,473.3 L 465.3,469.5 L 469.2,465.5 L 473.2,461.2 L 477.1,456.8 L 481.1,452.1 L 485.0,447.2 L 489.0,442.1 L 492.9,436.8 L 496.9,431.3 L 500.8,425.7 L 504.8,419.8 L 508.7,413.9 L 512.7,407.7 L 516.6,401.5 L 520.6,395.0 L 524.5,388.5 L 528.5,381.9 L 532.4,375.2 L 536.4,368.3 L 540.3,361.4 L 544.3,354.5 L 548.2,347.4 L 552.2,340.4 L 556.1,333.3 L 560.1,326.1 L 564.0,319.0" fill="none" /><path d="M 252.0,324.7 L 255.9,331.7 L 259.9,338.6 L 263.8,345.5 L 267.8,352.4 L 271.7,359.2 L 275.7,366.0 L 279.6,372.7 L 283.6,379.3 L 287.5,385.9 L 291.5,392.3 L 295.4,398.7 L 299.4,404.9 L 303.3,411.0 L 307.3,416.9 L 311.2,422.8 L 315.2,428.4 L 319.1,433.9 L 323.1,439.2 L 327.0,444.4 L 331.0,449.3 L 334.9,454.1 L 338.9,458.6 L 342.8,463.0 L 346.8,467.1 L 350.7,471.0 L 354.7,474.7 L 358.6,478.1 L 362.6,481.3 L 366.5,484.2 L 370.5,486.9 L 374.4,489.3 L 378.4,491.5 L 382.3,493.4 L 386.3,495.1 L 390.2,496.4 L 394.2,497.5 L 398.1,498.3 L 402.1,498.9 L 406.0,499.2 L 410.0,499.2 L 413.9,498.9 L 417.9,498.3 L 421.8,497.5 L 425.8,496.4 L 429.7,495.1 L 433.7,493.4 L 437.6,491.5 L 441.6,489.3 L 445.5,486.9 L 449.5,484.2 L 453.4,481.3 L 457.4,478.1 L 461.3,474.7 L 465.3,471.0 L 469.2,467.1 L 473.2,463.0 L 477.1,458.6 L 481.1,454.1 L 485.0,449.3 L 489.0,444.4 L 492.9,439.2 L 496.9,433.9 L 500.8,428.4 L 504.8,422.8 L 508.7,416.9 L 512.7,411.0 L 516.6,404.9 L 520.6,398.7 L 524.5,392.3 L 528.5,385.9 L 532.4,379.3 L 536.4,372.7 L 540.3,366.0 L 544.3,359.2 L 548.2,352.4 L 552.2,345.5 L 556.1,338.6 L 560.1,331.7 L 564.0,324.7" fill="none" /><path d="M 252.0,330.5 L 255.9,337.2 L 259.9,344.0 L 263.8,350.7 L 267.8,357.3 L 271.7,364.0 L 275.7,370.5 L 279.6,377.0 L 283.6,383.5 L 287.5,389.8 L 291.5,396.1 L 295.4,402.3 L 299.4,408.3 L 303.3,414.2 L 307.3,420.0 L 311.2,425.7 L 315.2,431.2 L 319.1,436.5 L 323.1,441.7 L 327.0,446.7 L 331.0,451.5 L 334.9,456.1 L 338.9,460.5 L 342.8,464.7 L 346.8,468.7 L 350.7,472.5 L 354.7,476.1 L 358.6,479.4 L 362.6,482.5 L 366.5,485.3 L 370.5,488.0 L 374.4,490.3 L 378.4,492.4 L 382.3,494.3 L 386.3,495.9 L 390.2,497.2 L 394.2,498.3 L 398.1,499.1 L 402.1,499.6 L 406.0,499.9 L 410.0,499.9 L 413.9,499.6 L 417.9,499.1 L 421.8,498.3 L 425.8,497.2 L 429.7,495.9 L 433.7,494.3 L 437.6,492.4 L 441.6,490.3 L 445.5,488.0 L 449.5,485.3 L 453.4,482.5 L 457.4,479.4 L 461.3,476.1 L 465.3,472.5 L 469.2,468.7 L 473.2,464.7 L 477.1,460.5 L 481.1,456.1 L 485.0,451.5 L 489.0,446.7 L 492.9,441.7 L 496.9,436.5 L 500.8,431.2 L 504.8,425.7 L 508.7,420.0 L 512.7,414.2 L 516.6,408.3 L 520.6,402.3 L 524.5,396.1 L 528.5,389.8 L 532.4,383.5 L 536.4,377.0 L 540.3,370.5 L 544.3,364.0 L 548.2,357.3 L 552.2,350.7 L 556.1,344.0 L 560.1,337.2 L 564.0,330.5" fill="none" /><path d="M 252.0,336.2 L 255.9,342.8 L 259.9,349.3 L 263.8,355.8 L 267.8,362.3 L 271.7,368.7 L 275.7,375.1 L 279.6,381.4 L 283.6,387.6 L 287.5,393.8 L 291.5,399.9 L 295.4,405.9 L 299.4,411.7 L 303.3,417.5 L 307.3,423.1 L 311.2,428.6 L 315.2,433.9 L 319.1,439.1 L 323.1,444.1 L 327.0,448.9 L 331.0,453.6 L 334.9,458.1 L 338.9,462.4 L 342.8,466.5 L 346.8,470.3 L 350.7,474.0 L 354.7,477.5 L 358.6,480.7 L 362.6,483.7 L 366.5,486.5 L 370.5,489.0 L 374.4,491.3 L 378.4,493.3 L 382.3,495.1 L 386.3,496.7 L 390.2,498.0 L 394.2,499.0 L 398.1,499.8 L 402.1,500.3 L 406.0,500.6 L 410.0,500.6 L 413.9,500.3 L 417.9,499.8 L 421.8,499.0 L 425.8,498.0 L 429.7,496.7 L 433.7,495.1 L 437.6,493.3 L 441.6,491.3 L 445.5,489.0 L 449.5,486.5 L 453.4,483.7 L 457.4,480.7 L 461.3,477.5 L 465.3,474.0 L 469.2,470.3 L 473.2,466.5 L 477.1,462.4 L 481.1,458.1 L 485.0,453.6 L 489.0,448.9 L 492.9,444.1 L 496.9,439.1 L 500.8,433.9 L 504.8,428.6 L 508.7,423.1 L 512.7,417.5 L 516.6,411.7 L 520.6,405.9 L 524.5,399.9 L 528.5,393.8 L 532.4,387.6 L 536.4,381.4 L 540.3,375.1 L 544.3,368.7 L 548.2,362.3 L 552.2,355.8 L 556.1,349.3 L 560.1,342.8 L 564.0,336.2" fill="none" /><path d="M 252.0,342.0 L 255.9,348.3 L 259.9,354.6 L 263.8,360.9 L 267.8,367.2 L 271.7,373.5 L 275.7,379.6 L 279.6,385.8 L 283.6,391.8 L 287.5,397.8 L 291.5,403.7 L 295.4,409.5 L 299.4,415.1 L 303.3,420.7 L 307.3,426.2 L 311.2,431.5 L 315.2,436.6 L 319.1,441.7 L 323.1,446.5 L 327.0,451.2 L 331.0,455.7 L 334.9,460.1 L 338.9,464.2 L 342.8,468.2 L 346.8,472.0 L 350.7,475.5 L 354.7,478.9 L 358.6,482.0 L 362.6,484.9 L 366.5,487.6 L 370.5,490.0 L 374.4,492.3 L 378.4,494.2 L 382.3,496.0 L 386.3,497.5 L 390.2,498.7 L 394.2,499.7 L 398.1,500.5 L 402.1,501.0 L 406.0,501.2 L 410.0,501.2 L 413.9,501.0 L 417.9,500.5 L 421.8,499.7 L 425.8,498.7 L 429.7,497.5 L 433.7,496.0 L 437.6,494.2 L 441.6,492.3 L 445.5,490.0 L 449.5,487.6 L 453.4,484.9 L 457.4,482.0 L 461.3,478.9 L 465.3,475.5 L 469.2,472.0 L 473.2,468.2 L 477.1,464.2 L 481.1,460.1 L 485.0,455.7 L 489.0,451.2 L 492.9,446.5 L 496.9,441.7 L 500.8,436.6 L 504.8,431.5 L 508.7,426.2 L 512.7,420.7 L 516.6,415.1 L 520.6,409.5 L 524.5,403.7 L 528.5,397.8 L 532.4,391.8 L 536.4,385.8 L 540.3,379.6 L 544.3,373.5 L 548.2,367.2 L 552.2,360.9 L 556.1,354.6 L 560.1,348.3 L 564.0,342.0" fill="none" /><path d="M 252.0,347.7 L 255.9,353.9 L 259.9,360.0 L 263.8,366.1 L 267.8,372.2 L 271.7,378.2 L 275.7,384.2 L 279.6,390.1 L 283.6,396.0 L 287.5,401.8 L 291.5,407.5 L 295.4,413.1 L 299.4,418.6 L 303.3,424.0 L 307.3,429.2 L 311.2,434.4 L 315.2,439.4 L 319.1,444.2 L 323.1,448.9 L 327.0,453.5 L 331.0,457.9 L 334.9,462.1 L 338.9,466.1 L 342.8,469.9 L 346.8,473.6 L 350.7,477.0 L 354.7,480.3 L 358.6,483.3 L 362.6,486.1 L 366.5,488.7 L 370.5,491.1 L 374.4,493.2 L 378.4,495.2 L 382.3,496.8 L 386.3,498.3 L 390.2,499.5 L 394.2,500.5 L 398.1,501.2 L 402.1,501.7 L 406.0,501.9 L 410.0,501.9 L 413.9,501.7 L 417.9,501.2 L 421.8,500.5 L 425.8,499.5 L 429.7,498.3 L 433.7,496.8 L 437.6,495.2 L 441.6,493.2 L 445.5,491.1 L 449.5,488.7 L 453.4,486.1 L 457.4,483.3 L 461.3,480.3 L 465.3,477.0 L 469.2,473.6 L 473.2,469.9 L 477.1,466.1 L 481.1,462.1 L 485.0,457.9 L 489.0,453.5 L 492.9,448.9 L 496.9,444.2 L 500.8,439.4 L 504.8,434.4 L 508.7,429.2 L 512.7,424.0 L 516.6,418.6 L 520.6,413.1 L 524.5,407.5 L 528.5,401.8 L 532.4,396.0 L 536.4,390.1 L 540.3,384.2 L 544.3,378.2 L 548.2,372.2 L 552.2,366.1 L 556.1,360.0 L 560.1,353.9 L 564.0,347.7" fill="none" /><path d="M 252.0,353.5 L 255.9,359.4 L 259.9,365.3 L 263.8,371.2 L 267.8,377.1 L 271.7,382.9 L 275.7,388.7 L 279.6,394.5 L 283.6,400.1 L 287.5,405.7 L 291.5,411.3 L 295.4,416.7 L 299.4,422.0 L 303.3,427.2 L 307.3,432.3 L 311.2,437.3 L 315.2,442.1 L 319.1,446.8 L 323.1,451.4 L 327.0,455.8 L 331.0,460.0 L 334.9,464.1 L 338.9,468.0 L 342.8,471.7 L 346.8,475.2 L 350.7,478.5 L 354.7,481.7 L 358.6,484.6 L 362.6,487.3 L 366.5,489.8 L 370.5,492.1 L 374.4,494.2 L 378.4,496.1 L 382.3,497.7 L 386.3,499.1 L 390.2,500.3 L 394.2,501.2 L 398.1,501.9 L 402.1,502.4 L 406.0,502.6 L 410.0,502.6 L 413.9,502.4 L 417.9,501.9 L 421.8,501.2 L 425.8,500.3 L 429.7,499.1 L 433.7,497.7 L 437.6,496.1 L 441.6,494.2 L 445.5,492.1 L 449.5,489.8 L 453.4,487.3 L 457.4,484.6 L 461.3,481.7 L 465.3,478.5 L 469.2,475.2 L 473.2,471.7 L 477.1,468.0 L 481.1,464.1 L 485.0,460.0 L 489.0,455.8 L 492.9,451.4 L 496.9,446.8 L 500.8,442.1 L 504.8,437.3 L 508.7,432.3 L 512.7,427.2 L 516.6,422.0 L 520.6,416.7 L 524.5,411.3 L 528.5,405.7 L 532.4,400.1 L 536.4,394.5 L 540.3,388.7 L 544.3,382.9 L 548.2,377.1 L 552.2,371.2 L 556.1,365.3 L 560.1,359.4 L 564.0,353.5" fill="none" /><path d="M 252.0,359.2 L 255.9,365.0 L 259.9,370.7 L 263.8,376.4 L 267.8,382.1 L 271.7,387.7 L 275.7,393.3 L 279.6,398.8 L 283.6,404.3 L 287.5,409.7 L 291.5,415.0 L 295.4,420.3 L 299.4,425.4 L 303.3,430.5 L 307.3,435.4 L 311.2,440.2 L 315.2,444.9 L 319.1,449.4 L 323.1,453.8 L 327.0,458.1 L 331.0,462.1 L 334.9,466.1 L 338.9,469.8 L 342.8,473.4 L 346.8,476.8 L 350.7,480.0 L 354.7,483.1 L 358.6,485.9 L 362.6,488.5 L 366.5,491.0 L 370.5,493.2 L 374.4,495.2 L 378.4,497.0 L 382.3,498.6 L 386.3,499.9 L 390.2,501.0 L 394.2,502.0 L 398.1,502.6 L 402.1,503.1 L 406.0,503.3 L 410.0,503.3 L 413.9,503.1 L 417.9,502.6 L 421.8,502.0 L 425.8,501.0 L 429.7,499.9 L 433.7,498.6 L 437.6,497.0 L 441.6,495.2 L 445.5,493.2 L 449.5,491.0 L 453.4,488.5 L 457.4,485.9 L 461.3,483.1 L 465.3,480.0 L 469.2,476.8 L 473.2,473.4 L 477.1,469.8 L 481.1,466.1 L 485.0,462.1 L 489.0,458.1 L 492.9,453.8 L 496.9,449.4 L 500.8,444.9 L 504.8,440.2 L 508.7,435.4 L 512.7,430.5 L 516.6,425.4 L 520.6,420.3 L 524.5,415.0 L 528.5,409.7 L 532.4,404.3 L 536.4,398.8 L 540.3,393.3 L 544.3,387.7 L 548.2,382.1 L 552.2,376.4 L 556.1,370.7 L 560.1,365.0 L 564.0,359.2" fill="none" /><path d="M 252.0,365.0 L 255.9,370.5 L 259.9,376.0 L 263.8,381.5 L 267.8,387.0 L 271.7,392.4 L 275.7,397.8 L 279.6,403.2 L 283.6,408.5 L 287.5,413.7 L 291.5,418.8 L 295.4,423.9 L 299.4,428.8 L 303.3,433.7 L 307.3,438.5 L 311.2,443.1 L 315.2,447.6 L 319.1,452.0 L 323.1,456.2 L 327.0,460.3 L 331.0,464.3 L 334.9,468.1 L 338.9,471.7 L 342.8,475.2 L 346.8,478.4 L 350.7,481.6 L 354.7,484.5 L 358.6,487.2 L 362.6,489.7 L 366.5,492.1 L 370.5,494.2 L 374.4,496.2 L 378.4,497.9 L 382.3,499.4 L 386.3,500.7 L 390.2,501.8 L 394.2,502.7 L 398.1,503.3 L 402.1,503.8 L 406.0,504.0 L 410.0,504.0 L 413.9,503.8 L 417.9,503.3 L 421.8,502.7 L 425.8,501.8 L 429.7,500.7 L 433.7,499.4 L 437.6,497.9 L 441.6,496.2 L 445.5,494.2 L 449.5,492.1 L 453.4,489.7 L 457.4,487.2 L 461.3,484.5 L 465.3,481.6 L 469.2,478.4 L 473.2,475.2 L 477.1,471.7 L 481.1,468.1 L 485.0,464.3 L 489.0,460.3 L 492.9,456.2 L 496.9,452.0 L 500.8,447.6 L 504.8,443.1 L 508.7,438.5 L 512.7,433.7 L 516.6,428.8 L 520.6,423.9 L 524.5,418.8 L 528.5,413.7 L 532.4,408.5 L 536.4,403.2 L 540.3,397.8 L 544.3,392.4 L 548.2,387.0 L 552.2,381.5 L 556.1,376.0 L 560.1,370.5 L 564.0,365.0" fill="none" /><path d="M 252.0,370.7 L 255.9,376.0 L 259.9,381.4 L 263.8,386.7 L 267.8,391.9 L 271.7,397.2 L 275.7,402.4 L 279.6,407.5 L 283.6,412.6 L 287.5,417.7 L 291.5,422.6 L 295.4,427.5 L 299.4,432.3 L 303.3,437.0 L 307.3,441.5 L 311.2,446.0 L 315.2,450.3 L 319.1,454.6 L 323.1,458.7 L 327.0,462.6 L 331.0,466.4 L 334.9,470.1 L 338.9,473.6 L 342.8,476.9 L 346.8,480.1 L 350.7,483.1 L 354.7,485.9 L 358.6,488.5 L 362.6,491.0 L 366.5,493.2 L 370.5,495.3 L 374.4,497.1 L 378.4,498.8 L 382.3,500.3 L 386.3,501.5 L 390.2,502.6 L 394.2,503.4 L 398.1,504.1 L 402.1,504.5 L 406.0,504.7 L 410.0,504.7 L 413.9,504.5 L 417.9,504.1 L 421.8,503.4 L 425.8,502.6 L 429.7,501.5 L 433.7,500.3 L 437.6,498.8 L 441.6,497.1 L 445.5,495.3 L 449.5,493.2 L 453.4,491.0 L 457.4,488.5 L 461.3,485.9 L 465.3,483.1 L 469.2,480.1 L 473.2,476.9 L 477.1,473.6 L 481.1,470.1 L 485.0,466.4 L 489.0,462.6 L 492.9,458.7 L 496.9,454.6 L 500.8,450.3 L 504.8,446.0 L 508.7,441.5 L 512.7,437.0 L 516.6,432.3 L 520.6,427.5 L 524.5,422.6 L 528.5,417.7 L 532.4,412.6 L 536.4,407.5 L 540.3,402.4 L 544.3,397.2 L 548.2,391.9 L 552.2,386.7 L 556.1,381.4 L 560.1,376.0 L 564.0,370.7" fill="none" /><path d="M 252.0,376.5 L 255.9,381.6 L 259.9,386.7 L 263.8,391.8 L 267.8,396.9 L 271.7,401.9 L 275.7,406.9 L 279.6,411.9 L 283.6,416.8 L 287.5,421.6 L 291.5,426.4 L 295.4,431.1 L 299.4,435.7 L 303.3,440.2 L 307.3,444.6 L 311.2,448.9 L 315.2,453.1 L 319.1,457.2 L 323.1,461.1 L 327.0,464.9 L 331.0,468.5 L 334.9,472.1 L 338.9,475.4 L 342.8,478.6 L 346.8,481.7 L 350.7,484.6 L 354.7,487.3 L 358.6,489.8 L 362.6,492.2 L 366.5,494.3 L 370.5,496.3 L 374.4,498.1 L 378.4,499.7 L 382.3,501.1 L 386.3,502.3 L 390.2,503.4 L 394.2,504.2 L 398.1,504.8 L 402.1,505.2 L 406.0,505.4 L 410.0,505.4 L 413.9,505.2 L 417.9,504.8 L 421.8,504.2 L 425.8,503.4 L 429.7,502.3 L 433.7,501.1 L 437.6,499.7 L 441.6,498.1 L 445.5,496.3 L 449.5,494.3 L 453.4,492.2 L 457.4,489.8 L 461.3,487.3 L 465.3,484.6 L 469.2,481.7 L 473.2,478.6 L 477.1,475.4 L 481.1,472.1 L 485.0,468.5 L 489.0,464.9 L 492.9,461.1 L 496.9,457.2 L 500.8,453.1 L 504.8,448.9 L 508.7,444.6 L 512.7,440.2 L 516.6,435.7 L 520.6,431.1 L 524.5,426.4 L 528.5,421.6 L 532.4,416.8 L 536.4,411.9 L 540.3,406.9 L 544.3,401.9 L 548.2,396.9 L 552.2,391.8 L 556.1,386.7 L 560.1,381.6 L 564.0,376.5" fill="none" /><path d="M 252.0,382.2 L 255.9,387.1 L 259.9,392.1 L 263.8,397.0 L 267.8,401.8 L 271.7,406.7 L 275.7,411.5 L 279.6,416.3 L 283.6,421.0 L 287.5,425.6 L 291.5,430.2 L 295.4,434.7 L 299.4,439.1 L 303.3,443.4 L 307.3,447.7 L 311.2,451.8 L 315.2,455.8 L 319.1,459.7 L 323.1,463.5 L 327.0,467.2 L 331.0,470.7 L 334.9,474.1 L 338.9,477.3 L 342.8,480.4 L 346.8,483.3 L 350.7,486.1 L 354.7,488.7 L 358.6,491.1 L 362.6,493.4 L 366.5,495.5 L 370.5,497.4 L 374.4,499.1 L 378.4,500.6 L 382.3,502.0 L 386.3,503.2 L 390.2,504.1 L 394.2,504.9 L 398.1,505.5 L 402.1,505.9 L 406.0,506.1 L 410.0,506.1 L 413.9,505.9 L 417.9,505.5 L 421.8,504.9 L 425.8,504.1 L 429.7,503.2 L 433.7,502.0 L 437.6,500.6 L 441.6,499.1 L 445.5,497.4 L 449.5,495.5 L 453.4,493.4 L 457.4,491.1 L 461.3,488.7 L 465.3,486.1 L 469.2,483.3 L 473.2,480.4 L 477.1,477.3 L 481.1,474.1 L 485.0,470.7 L 489.0,467.2 L 492.9,463.5 L 496.9,459.7 L 500.8,455.8 L 504.8,451.8 L 508.7,447.7 L 512.7,443.4 L 516.6,439.1 L 520.6,434.7 L 524.5,430.2 L 528.5,425.6 L 532.4,421.0 L 536.4,416.3 L 540.3,411.5 L 544.3,406.7 L 548.2,401.8 L 552.2,397.0 L 556.1,392.1 L 560.1,387.1 L 564.0,382.2" fill="none" /><path d="M 252.0,388.0 L 255.9,392.7 L 259.9,397.4 L 263.8,402.1 L 267.8,406.8 L 271.7,411.4 L 275.7,416.0 L 279.6,420.6 L 283.6,425.1 L 287.5,429.6 L 291.5,434.0 L 295.4,438.3 L 299.4,442.5 L 303.3,446.7 L 307.3,450.8 L 311.2,454.7 L 315.2,458.6 L 319.1,462.3 L 323.1,465.9 L 327.0,469.4 L 331.0,472.8 L 334.9,476.1 L 338.9,479.2 L 342.8,482.1 L 346.8,484.9 L 350.7,487.6 L 354.7,490.1 L 358.6,492.4 L 362.6,494.6 L 366.5,496.6 L 370.5,498.4 L 374.4,500.1 L 378.4,501.5 L 382.3,502.8 L 386.3,504.0 L 390.2,504.9 L 394.2,505.6 L 398.1,506.2 L 402.1,506.6 L 406.0,506.8 L 410.0,506.8 L 413.9,506.6 L 417.9,506.2 L 421.8,505.6 L 425.8,504.9 L 429.7,504.0 L 433.7,502.8 L 437.6,501.5 L 441.6,500.1 L 445.5,498.4 L 449.5,496.6 L 453.4,494.6 L 457.4,492.4 L 461.3,490.1 L 465.3,487.6 L 469.2,484.9 L 473.2,482.1 L 477.1,479.2 L 481.1,476.1 L 485.0,472.8 L 489.0,469.4 L 492.9,465.9 L 496.9,462.3 L 500.8,458.6 L 504.8,454.7 L 508.7,450.8 L 512.7,446.7 L 516.6,442.5 L 520.6,438.3 L 524.5,434.0 L 528.5,429.6 L 532.4,425.1 L 536.4,420.6 L 540.3,416.0 L 544.3,411.4 L 548.2,406.8 L 552.2,402.1 L 556.1,397.4 L 560.1,392.7 L 564.0,388.0" fill="none" /><path d="M 252.0,393.7 L 255.9,398.2 L 259.9,402.7 L 263.8,407.2 L 267.8,411.7 L 271.7,416.2 L 275.7,420.6 L 279.6,425.0 L 283.6,429.3 L 287.5,433.6 L 291.5,437.8 L 295.4,441.9 L 299.4,446.0 L 303.3,449.9 L 307.3,453.8 L 311.2,457.6 L 315.2,461.3 L 319.1,464.9 L 323.1,468.4 L 327.0,471.7 L 331.0,475.0 L 334.9,478.1 L 338.9,481.0 L 342.8,483.9 L 346.8,486.5 L 350.7,489.1 L 354.7,491.5 L 358.6,493.7 L 362.6,495.8 L 366.5,497.7 L 370.5,499.5 L 374.4,501.0 L 378.4,502.5 L 382.3,503.7 L 386.3,504.8 L 390.2,505.7 L 394.2,506.4 L 398.1,506.9 L 402.1,507.3 L 406.0,507.5 L 410.0,507.5 L 413.9,507.3 L 417.9,506.9 L 421.8,506.4 L 425.8,505.7 L 429.7,504.8 L 433.7,503.7 L 437.6,502.5 L 441.6,501.0 L 445.5,499.5 L 449.5,497.7 L 453.4,495.8 L 457.4,493.7 L 461.3,491.5 L 465.3,489.1 L 469.2,486.5 L 473.2,483.9 L 477.1,481.0 L 481.1,478.1 L 485.0,475.0 L 489.0,471.7 L 492.9,468.4 L 496.9,464.9 L 500.8,461.3 L 504.8,457.6 L 508.7,453.8 L 512.7,449.9 L 516.6,446.0 L 520.6,441.9 L 524.5,437.8 L 528.5,433.6 L 532.4,429.3 L 536.4,425.0 L 540.3,420.6 L 544.3,416.2 L 548.2,411.7 L 552.2,407.2 L 556.1,402.7 L 560.1,398.2 L 564.0,393.7" fill="none" /><path d="M 252.0,399.5 L 255.9,403.8 L 259.9,408.1 L 263.8,412.4 L 267.8,416.7 L 271.7,420.9 L 275.7,425.1 L 279.6,429.3 L 283.6,433.5 L 287.5,437.5 L 291.5,441.6 L 295.4,445.5 L 299.4,449.4 L 303.3,453.2 L 307.3,456.9 L 311.2,460.5 L 315.2,464.1 L 319.1,467.5 L 323.1,470.8 L 327.0,474.0 L 331.0,477.1 L 334.9,480.1 L 338.9,482.9 L 342.8,485.6 L 346.8,488.2 L 350.7,490.6 L 354.7,492.9 L 358.6,495.0 L 362.6,497.0 L 366.5,498.8 L 370.5,500.5 L 374.4,502.0 L 378.4,503.4 L 382.3,504.6 L 386.3,505.6 L 390.2,506.4 L 394.2,507.1 L 398.1,507.6 L 402.1,508.0 L 406.0,508.2 L 410.0,508.2 L 413.9,508.0 L 417.9,507.6 L 421.8,507.1 L 425.8,506.4 L 429.7,505.6 L 433.7,504.6 L 437.6,503.4 L 441.6,502.0 L 445.5,500.5 L 449.5,498.8 L 453.4,497.0 L 457.4,495.0 L 461.3,492.9 L 465.3,490.6 L 469.2,488.2 L 473.2,485.6 L 477.1,482.9 L 481.1,480.1 L 485.0,477.1 L 489.0,474.0 L 492.9,470.8 L 496.9,467.5 L 500.8,464.1 L 504.8,460.5 L 508.7,456.9 L 512.7,453.2 L 516.6,449.4 L 520.6,445.5 L 524.5,441.6 L 528.5,437.5 L 532.4,433.5 L 536.4,429.3 L 540.3,425.1 L 544.3,420.9 L 548.2,416.7 L 552.2,412.4 L 556.1,408.1 L 560.1,403.8 L 564.0,399.5" fill="none" /><path d="M 252.0,405.2 L 255.9,409.3 L 259.9,413.4 L 263.8,417.5 L 267.8,421.6 L 271.7,425.7 L 275.7,429.7 L 279.6,433.7 L 283.6,437.6 L 287.5,441.5 L 291.5,445.3 L 295.4,449.1 L 299.4,452.8 L 303.3,456.4 L 307.3,460.0 L 311.2,463.4 L 315.2,466.8 L 319.1,470.1 L 323.1,473.2 L 327.0,476.3 L 331.0,479.2 L 334.9,482.1 L 338.9,484.8 L 342.8,487.3 L 346.8,489.8 L 350.7,492.1 L 354.7,494.3 L 358.6,496.3 L 362.6,498.2 L 366.5,500.0 L 370.5,501.6 L 374.4,503.0 L 378.4,504.3 L 382.3,505.4 L 386.3,506.4 L 390.2,507.2 L 394.2,507.9 L 398.1,508.4 L 402.1,508.7 L 406.0,508.8 L 410.0,508.8 L 413.9,508.7 L 417.9,508.4 L 421.8,507.9 L 425.8,507.2 L 429.7,506.4 L 433.7,505.4 L 437.6,504.3 L 441.6,503.0 L 445.5,501.6 L 449.5,500.0 L 453.4,498.2 L 457.4,496.3 L 461.3,494.3 L 465.3,492.1 L 469.2,489.8 L 473.2,487.3 L 477.1,484.8 L 481.1,482.1 L 485.0,479.2 L 489.0,476.3 L 492.9,473.2 L 496.9,470.1 L 500.8,466.8 L 504.8,463.4 L 508.7,460.0 L 512.7,456.4 L 516.6,452.8 L 520.6,449.1 L 524.5,445.3 L 528.5,441.5 L 532.4,437.6 L 536.4,433.7 L 540.3,429.7 L 544.3,425.7 L 548.2,421.6 L 552.2,417.5 L 556.1,413.4 L 560.1,409.3 L 564.0,405.2" fill="none" /><path d="M 252.0,410.9 L 255.9,414.9 L 259.9,418.8 L 263.8,422.7 L 267.8,426.6 L 271.7,430.4 L 275.7,434.2 L 279.6,438.0 L 283.6,441.8 L 287.5,445.5 L 291.5,449.1 L 295.4,452.7 L 299.4,456.2 L 303.3,459.7 L 307.3,463.1 L 311.2,466.3 L 315.2,469.5 L 319.1,472.6 L 323.1,475.7 L 327.0,478.6 L 331.0,481.4 L 334.9,484.0 L 338.9,486.6 L 342.8,489.1 L 346.8,491.4 L 350.7,493.6 L 354.7,495.7 L 358.6,497.6 L 362.6,499.4 L 366.5,501.1 L 370.5,502.6 L 374.4,504.0 L 378.4,505.2 L 382.3,506.3 L 386.3,507.2 L 390.2,508.0 L 394.2,508.6 L 398.1,509.1 L 402.1,509.4 L 406.0,509.5 L 410.0,509.5 L 413.9,509.4 L 417.9,509.1 L 421.8,508.6 L 425.8,508.0 L 429.7,507.2 L 433.7,506.3 L 437.6,505.2 L 441.6,504.0 L 445.5,502.6 L 449.5,501.1 L 453.4,499.4 L 457.4,497.6 L 461.3,495.7 L 465.3,493.6 L 469.2,491.4 L 473.2,489.1 L 477.1,486.6 L 481.1,484.0 L 485.0,481.4 L 489.0,478.6 L 492.9,475.7 L 496.9,472.6 L 500.8,469.5 L 504.8,466.3 L 508.7,463.1 L 512.7,459.7 L 516.6,456.2 L 520.6,452.7 L 524.5,449.1 L 528.5,445.5 L 532.4,441.8 L 536.4,438.0 L 540.3,434.2 L 544.3,430.4 L 548.2,426.6 L 552.2,422.7 L 556.1,418.8 L 560.1,414.9 L 564.0,410.9" fill="none" /><path d="M 252.0,416.7 L 255.9,420.4 L 259.9,424.1 L 263.8,427.8 L 267.8,431.5 L 271.7,435.2 L 275.7,438.8 L 279.6,442.4 L 283.6,446.0 L 287.5,449.5 L 291.5,452.9 L 295.4,456.3 L 299.4,459.7 L 303.3,462.9 L 307.3,466.1 L 311.2,469.2 L 315.2,472.3 L 319.1,475.2 L 323.1,478.1 L 327.0,480.8 L 331.0,483.5 L 334.9,486.0 L 338.9,488.5 L 342.8,490.8 L 346.8,493.0 L 350.7,495.1 L 354.7,497.1 L 358.6,498.9 L 362.6,500.6 L 366.5,502.2 L 370.5,503.6 L 374.4,504.9 L 378.4,506.1 L 382.3,507.1 L 386.3,508.0 L 390.2,508.7 L 394.2,509.3 L 398.1,509.8 L 402.1,510.1 L 406.0,510.2 L 410.0,510.2 L 413.9,510.1 L 417.9,509.8 L 421.8,509.3 L 425.8,508.7 L 429.7,508.0 L 433.7,507.1 L 437.6,506.1 L 441.6,504.9 L 445.5,503.6 L 449.5,502.2 L 453.4,500.6 L 457.4,498.9 L 461.3,497.1 L 465.3,495.1 L 469.2,493.0 L 473.2,490.8 L 477.1,488.5 L 481.1,486.0 L 485.0,483.5 L 489.0,480.8 L 492.9,478.1 L 496.9,475.2 L 500.8,472.3 L 504.8,469.2 L 508.7,466.1 L 512.7,462.9 L 516.6,459.7 L 520.6,456.3 L 524.5,452.9 L 528.5,449.5 L 532.4,446.0 L 536.4,442.4 L 540.3,438.8 L 544.3,435.2 L 548.2,431.5 L 552.2,427.8 L 556.1,424.1 L 560.1,420.4 L 564.0,416.7" fill="none" /><path d="M 252.0,422.4 L 255.9,426.0 L 259.9,429.5 L 263.8,433.0 L 267.8,436.5 L 271.7,439.9 L 275.7,443.4 L 279.6,446.8 L 283.6,450.1 L 287.5,453.4 L 291.5,456.7 L 295.4,459.9 L 299.4,463.1 L 303.3,466.2 L 307.3,469.2 L 311.2,472.1 L 315.2,475.0 L 319.1,477.8 L 323.1,480.5 L 327.0,483.1 L 331.0,485.6 L 334.9,488.0 L 338.9,490.4 L 342.8,492.6 L 346.8,494.6 L 350.7,496.6 L 354.7,498.5 L 358.6,500.2 L 362.6,501.8 L 366.5,503.3 L 370.5,504.7 L 374.4,505.9 L 378.4,507.0 L 382.3,508.0 L 386.3,508.8 L 390.2,509.5 L 394.2,510.1 L 398.1,510.5 L 402.1,510.8 L 406.0,510.9 L 410.0,510.9 L 413.9,510.8 L 417.9,510.5 L 421.8,510.1 L 425.8,509.5 L 429.7,508.8 L 433.7,508.0 L 437.6,507.0 L 441.6,505.9 L 445.5,504.7 L 449.5,503.3 L 453.4,501.8 L 457.4,500.2 L 461.3,498.5 L 465.3,496.6 L 469.2,494.6 L 473.2,492.6 L 477.1,490.4 L 481.1,488.0 L 485.0,485.6 L 489.0,483.1 L 492.9,480.5 L 496.9,477.8 L 500.8,475.0 L 504.8,472.1 L 508.7,469.2 L 512.7,466.2 L 516.6,463.1 L 520.6,459.9 L 524.5,456.7 L 528.5,453.4 L 532.4,450.1 L 536.4,446.8 L 540.3,443.4 L 544.3,439.9 L 548.2,436.5 L 552.2,433.0 L 556.1,429.5 L 560.1,426.0 L 564.0,422.4" fill="none" /><path d="M 252.0,428.2 L 255.9,431.5 L 259.9,434.8 L 263.8,438.1 L 267.8,441.4 L 271.7,444.7 L 275.7,447.9 L 279.6,451.1 L 283.6,454.3 L 287.5,457.4 L 291.5,460.5 L 295.4,463.5 L 299.4,466.5 L 303.3,469.4 L 307.3,472.3 L 311.2,475.1 L 315.2,477.8 L 319.1,480.4 L 323.1,482.9 L 327.0,485.4 L 331.0,487.8 L 334.9,490.0 L 338.9,492.2 L 342.8,494.3 L 346.8,496.3 L 350.7,498.1 L 354.7,499.9 L 358.6,501.5 L 362.6,503.0 L 366.5,504.5 L 370.5,505.7 L 374.4,506.9 L 378.4,507.9 L 382.3,508.8 L 386.3,509.6 L 390.2,510.3 L 394.2,510.8 L 398.1,511.2 L 402.1,511.5 L 406.0,511.6 L 410.0,511.6 L 413.9,511.5 L 417.9,511.2 L 421.8,510.8 L 425.8,510.3 L 429.7,509.6 L 433.7,508.8 L 437.6,507.9 L 441.6,506.9 L 445.5,505.7 L 449.5,504.5 L 453.4,503.0 L 457.4,501.5 L 461.3,499.9 L 465.3,498.1 L 469.2,496.3 L 473.2,494.3 L 477.1,492.2 L 481.1,490.0 L 485.0,487.8 L 489.0,485.4 L 492.9,482.9 L 496.9,480.4 L 500.8,477.8 L 504.8,475.1 L 508.7,472.3 L 512.7,469.4 L 516.6,466.5 L 520.6,463.5 L 524.5,460.5 L 528.5,457.4 L 532.4,454.3 L 536.4,451.1 L 540.3,447.9 L 544.3,444.7 L 548.2,441.4 L 552.2,438.1 L 556.1,434.8 L 560.1,431.5 L 564.0,428.2" fill="none" /><path d="M 252.0,433.9 L 255.9,437.0 L 259.9,440.2 L 263.8,443.3 L 267.8,446.3 L 271.7,449.4 L 275.7,452.5 L 279.6,455.5 L 283.6,458.4 L 287.5,461.4 L 291.5,464.3 L 295.4,467.1 L 299.4,469.9 L 303.3,472.7 L 307.3,475.3 L 311.2,478.0 L 315.2,480.5 L 319.1,483.0 L 323.1,485.4 L 327.0,487.7 L 331.0,489.9 L 334.9,492.0 L 338.9,494.1 L 342.8,496.0 L 346.8,497.9 L 350.7,499.6 L 354.7,501.3 L 358.6,502.8 L 362.6,504.3 L 366.5,505.6 L 370.5,506.8 L 374.4,507.9 L 378.4,508.9 L 382.3,509.7 L 386.3,510.4 L 390.2,511.1 L 394.2,511.6 L 398.1,511.9 L 402.1,512.2 L 406.0,512.3 L 410.0,512.3 L 413.9,512.2 L 417.9,511.9 L 421.8,511.6 L 425.8,511.1 L 429.7,510.4 L 433.7,509.7 L 437.6,508.9 L 441.6,507.9 L 445.5,506.8 L 449.5,505.6 L 453.4,504.3 L 457.4,502.8 L 461.3,501.3 L 465.3,499.6 L 469.2,497.9 L 473.2,496.0 L 477.1,494.1 L 481.1,492.0 L 485.0,489.9 L 489.0,487.7 L 492.9,485.4 L 496.9,483.0 L 500.8,480.5 L 504.8,478.0 L 508.7,475.3 L 512.7,472.7 L 516.6,469.9 L 520.6,467.1 L 524.5,464.3 L 528.5,461.4 L 532.4,458.4 L 536.4,455.5 L 540.3,452.5 L 544.3,449.4 L 548.2,446.3 L 552.2,443.3 L 556.1,440.2 L 560.1,437.0 L 564.0,433.9" fill="none" /><path d="M 252.0,439.7 L 255.9,442.6 L 259.9,445.5 L 263.8,448.4 L 267.8,451.3 L 271.7,454.2 L 275.7,457.0 L 279.6,459.8 L 283.6,462.6 L 287.5,465.4 L 291.5,468.1 L 295.4,470.7 L 299.4,473.4 L 303.3,475.9 L 307.3,478.4 L 311.2,480.9 L 315.2,483.2 L 319.1,485.6 L 323.1,487.8 L 327.0,490.0 L 331.0,492.0 L 334.9,494.0 L 338.9,496.0 L 342.8,497.8 L 346.8,499.5 L 350.7,501.1 L 354.7,502.7 L 358.6,504.1 L 362.6,505.5 L 366.5,506.7 L 370.5,507.8 L 374.4,508.9 L 378.4,509.8 L 382.3,510.6 L 386.3,511.3 L 390.2,511.8 L 394.2,512.3 L 398.1,512.6 L 402.1,512.9 L 406.0,513.0 L 410.0,513.0 L 413.9,512.9 L 417.9,512.6 L 421.8,512.3 L 425.8,511.8 L 429.7,511.3 L 433.7,510.6 L 437.6,509.8 L 441.6,508.9 L 445.5,507.8 L 449.5,506.7 L 453.4,505.5 L 457.4,504.1 L 461.3,502.7 L 465.3,501.1 L 469.2,499.5 L 473.2,497.8 L 477.1,496.0 L 481.1,494.0 L 485.0,492.0 L 489.0,490.0 L 492.9,487.8 L 496.9,485.6 L 500.8,483.2 L 504.8,480.9 L 508.7,478.4 L 512.7,475.9 L 516.6,473.4 L 520.6,470.7 L 524.5,468.1 L 528.5,465.4 L 532.4,462.6 L 536.4,459.8 L 540.3,457.0 L 544.3,454.2 L 548.2,451.3 L 552.2,448.4 L 556.1,445.5 L 560.1,442.6 L 564.0,439.7" fill="none" /><path d="M 252.0,445.4 L 255.9,448.1 L 259.9,450.8 L 263.8,453.5 L 267.8,456.2 L 271.7,458.9 L 275.7,461.6 L 279.6,464.2 L 283.6,466.8 L 287.5,469.3 L 291.5,471.9 L 295.4,474.3 L 299.4,476.8 L 303.3,479.2 L 307.3,481.5 L 311.2,483.8 L 315.2,486.0 L 319.1,488.1 L 323.1,490.2 L 327.0,492.2 L 331.0,494.2 L 334.9,496.0 L 338.9,497.8 L 342.8,499.5 L 346.8,501.1 L 350.7,502.7 L 354.7,504.1 L 358.6,505.4 L 362.6,506.7 L 366.5,507.8 L 370.5,508.9 L 374.4,509.8 L 378.4,510.7 L 382.3,511.4 L 386.3,512.1 L 390.2,512.6 L 394.2,513.0 L 398.1,513.4 L 402.1,513.6 L 406.0,513.7 L 410.0,513.7 L 413.9,513.6 L 417.9,513.4 L 421.8,513.0 L 425.8,512.6 L 429.7,512.1 L 433.7,511.4 L 437.6,510.7 L 441.6,509.8 L 445.5,508.9 L 449.5,507.8 L 453.4,506.7 L 457.4,505.4 L 461.3,504.1 L 465.3,502.7 L 469.2,501.1 L 473.2,499.5 L 477.1,497.8 L 481.1,496.0 L 485.0,494.2 L 489.0,492.2 L 492.9,490.2 L 496.9,488.1 L 500.8,486.0 L 504.8,483.8 L 508.7,481.5 L 512.7,479.2 L 516.6,476.8 L 520.6,474.3 L 524.5,471.9 L 528.5,469.3 L 532.4,466.8 L 536.4,464.2 L 540.3,461.6 L 544.3,458.9 L 548.2,456.2 L 552.2,453.5 L 556.1,450.8 L 560.1,448.1 L 564.0,445.4" fill="none" /><path d="M 252.0,451.2 L 255.9,453.7 L 259.9,456.2 L 263.8,458.7 L 267.8,461.2 L 271.7,463.7 L 275.7,466.1 L 279.6,468.5 L 283.6,470.9 L 287.5,473.3 L 291.5,475.6 L 295.4,477.9 L 299.4,480.2 L 303.3,482.4 L 307.3,484.6 L 311.2,486.7 L 315.2,488.7 L 319.1,490.7 L 323.1,492.6 L 327.0,494.5 L 331.0,496.3 L 334.9,498.0 L 338.9,499.7 L 342.8,501.3 L 346.8,502.7 L 350.7,504.2 L 354.7,505.5 L 358.6,506.7 L 362.6,507.9 L 366.5,508.9 L 370.5,509.9 L 374.4,510.8 L 378.4,511.6 L 382.3,512.3 L 386.3,512.9 L 390.2,513.4 L 394.2,513.8 L 398.1,514.1 L 402.1,514.3 L 406.0,514.4 L 410.0,514.4 L 413.9,514.3 L 417.9,514.1 L 421.8,513.8 L 425.8,513.4 L 429.7,512.9 L 433.7,512.3 L 437.6,511.6 L 441.6,510.8 L 445.5,509.9 L 449.5,508.9 L 453.4,507.9 L 457.4,506.7 L 461.3,505.5 L 465.3,504.2 L 469.2,502.7 L 473.2,501.3 L 477.1,499.7 L 481.1,498.0 L 485.0,496.3 L 489.0,494.5 L 492.9,492.6 L 496.9,490.7 L 500.8,488.7 L 504.8,486.7 L 508.7,484.6 L 512.7,482.4 L 516.6,480.2 L 520.6,477.9 L 524.5,475.6 L 528.5,473.3 L 532.4,470.9 L 536.4,468.5 L 540.3,466.1 L 544.3,463.7 L 548.2,461.2 L 552.2,458.7 L 556.1,456.2 L 560.1,453.7 L 564.0,451.2" fill="none" /><path d="M 252.0,456.9 L 255.9,459.2 L 259.9,461.5 L 263.8,463.8 L 267.8,466.1 L 271.7,468.4 L 275.7,470.7 L 279.6,472.9 L 283.6,475.1 L 287.5,477.3 L 291.5,479.4 L 295.4,481.6 L 299.4,483.6 L 303.3,485.7 L 307.3,487.6 L 311.2,489.6 L 315.2,491.5 L 319.1,493.3 L 323.1,495.1 L 327.0,496.8 L 331.0,498.4 L 334.9,500.0 L 338.9,501.5 L 342.8,503.0 L 346.8,504.4 L 350.7,505.7 L 354.7,506.9 L 358.6,508.0 L 362.6,509.1 L 366.5,510.1 L 370.5,511.0 L 374.4,511.8 L 378.4,512.5 L 382.3,513.1 L 386.3,513.7 L 390.2,514.1 L 394.2,514.5 L 398.1,514.8 L 402.1,515.0 L 406.0,515.1 L 410.0,515.1 L 413.9,515.0 L 417.9,514.8 L 421.8,514.5 L 425.8,514.1 L 429.7,513.7 L 433.7,513.1 L 437.6,512.5 L 441.6,511.8 L 445.5,511.0 L 449.5,510.1 L 453.4,509.1 L 457.4,508.0 L 461.3,506.9 L 465.3,505.7 L 469.2,504.4 L 473.2,503.0 L 477.1,501.5 L 481.1,500.0 L 485.0,498.4 L 489.0,496.8 L 492.9,495.1 L 496.9,493.3 L 500.8,491.5 L 504.8,489.6 L 508.7,487.6 L 512.7,485.7 L 516.6,483.6 L 520.6,481.6 L 524.5,479.4 L 528.5,477.3 L 532.4,475.1 L 536.4,472.9 L 540.3,470.7 L 544.3,468.4 L 548.2,466.1 L 552.2,463.8 L 556.1,461.5 L 560.1,459.2 L 564.0,456.9" fill="none" /><path d="M 252.0,462.7 L 255.9,464.8 L 259.9,466.9 L 263.8,469.0 L 267.8,471.1 L 271.7,473.2 L 275.7,475.2 L 279.6,477.3 L 283.6,479.3 L 287.5,481.3 L 291.5,483.2 L 295.4,485.2 L 299.4,487.0 L 303.3,488.9 L 307.3,490.7 L 311.2,492.5 L 315.2,494.2 L 319.1,495.9 L 323.1,497.5 L 327.0,499.1 L 331.0,500.6 L 334.9,502.0 L 338.9,503.4 L 342.8,504.7 L 346.8,506.0 L 350.7,507.2 L 354.7,508.3 L 358.6,509.3 L 362.6,510.3 L 366.5,511.2 L 370.5,512.0 L 374.4,512.8 L 378.4,513.4 L 382.3,514.0 L 386.3,514.5 L 390.2,514.9 L 394.2,515.2 L 398.1,515.5 L 402.1,515.7 L 406.0,515.7 L 410.0,515.7 L 413.9,515.7 L 417.9,515.5 L 421.8,515.2 L 425.8,514.9 L 429.7,514.5 L 433.7,514.0 L 437.6,513.4 L 441.6,512.8 L 445.5,512.0 L 449.5,511.2 L 453.4,510.3 L 457.4,509.3 L 461.3,508.3 L 465.3,507.2 L 469.2,506.0 L 473.2,504.7 L 477.1,503.4 L 481.1,502.0 L 485.0,500.6 L 489.0,499.1 L 492.9,497.5 L 496.9,495.9 L 500.8,494.2 L 504.8,492.5 L 508.7,490.7 L 512.7,488.9 L 516.6,487.0 L 520.6,485.2 L 524.5,483.2 L 528.5,481.3 L 532.4,479.3 L 536.4,477.3 L 540.3,475.2 L 544.3,473.2 L 548.2,471.1 L 552.2,469.0 L 556.1,466.9 L 560.1,464.8 L 564.0,462.7" fill="none" /><path d="M 252.0,468.4 L 255.9,470.3 L 259.9,472.2 L 263.8,474.1 L 267.8,476.0 L 271.7,477.9 L 275.7,479.8 L 279.6,481.6 L 283.6,483.4 L 287.5,485.2 L 291.5,487.0 L 295.4,488.8 L 299.4,490.5 L 303.3,492.2 L 307.3,493.8 L 311.2,495.4 L 315.2,497.0 L 319.1,498.5 L 323.1,499.9 L 327.0,501.4 L 331.0,502.7 L 334.9,504.0 L 338.9,505.3 L 342.8,506.5 L 346.8,507.6 L 350.7,508.7 L 354.7,509.7 L 358.6,510.6 L 362.6,511.5 L 366.5,512.3 L 370.5,513.1 L 374.4,513.7 L 378.4,514.3 L 382.3,514.9 L 386.3,515.3 L 390.2,515.7 L 394.2,516.0 L 398.1,516.2 L 402.1,516.4 L 406.0,516.4 L 410.0,516.4 L 413.9,516.4 L 417.9,516.2 L 421.8,516.0 L 425.8,515.7 L 429.7,515.3 L 433.7,514.9 L 437.6,514.3 L 441.6,513.7 L 445.5,513.1 L 449.5,512.3 L 453.4,511.5 L 457.4,510.6 L 461.3,509.7 L 465.3,508.7 L 469.2,507.6 L 473.2,506.5 L 477.1,505.3 L 481.1,504.0 L 485.0,502.7 L 489.0,501.4 L 492.9,499.9 L 496.9,498.5 L 500.8,497.0 L 504.8,495.4 L 508.7,493.8 L 512.7,492.2 L 516.6,490.5 L 520.6,488.8 L 524.5,487.0 L 528.5,485.2 L 532.4,483.4 L 536.4,481.6 L 540.3,479.8 L 544.3,477.9 L 548.2,476.0 L 552.2,474.1 L 556.1,472.2 L 560.1,470.3 L 564.0,468.4" fill="none" /><path d="M 252.0,474.2 L 255.9,475.9 L 259.9,477.6 L 263.8,479.3 L 267.8,481.0 L 271.7,482.6 L 275.7,484.3 L 279.6,486.0 L 283.6,487.6 L 287.5,489.2 L 291.5,490.8 L 295.4,492.4 L 299.4,493.9 L 303.3,495.4 L 307.3,496.9 L 311.2,498.3 L 315.2,499.7 L 319.1,501.1 L 323.1,502.4 L 327.0,503.6 L 331.0,504.8 L 334.9,506.0 L 338.9,507.1 L 342.8,508.2 L 346.8,509.2 L 350.7,510.2 L 354.7,511.1 L 358.6,511.9 L 362.6,512.7 L 366.5,513.4 L 370.5,514.1 L 374.4,514.7 L 378.4,515.2 L 382.3,515.7 L 386.3,516.1 L 390.2,516.5 L 394.2,516.7 L 398.1,516.9 L 402.1,517.1 L 406.0,517.1 L 410.0,517.1 L 413.9,517.1 L 417.9,516.9 L 421.8,516.7 L 425.8,516.5 L 429.7,516.1 L 433.7,515.7 L 437.6,515.2 L 441.6,514.7 L 445.5,514.1 L 449.5,513.4 L 453.4,512.7 L 457.4,511.9 L 461.3,511.1 L 465.3,510.2 L 469.2,509.2 L 473.2,508.2 L 477.1,507.1 L 481.1,506.0 L 485.0,504.8 L 489.0,503.6 L 492.9,502.4 L 496.9,501.1 L 500.8,499.7 L 504.8,498.3 L 508.7,496.9 L 512.7,495.4 L 516.6,493.9 L 520.6,492.4 L 524.5,490.8 L 528.5,489.2 L 532.4,487.6 L 536.4,486.0 L 540.3,484.3 L 544.3,482.6 L 548.2,481.0 L 552.2,479.3 L 556.1,477.6 L 560.1,475.9 L 564.0,474.2" fill="none" /><path d="M 252.0,479.9 L 255.9,481.4 L 259.9,482.9 L 263.8,484.4 L 267.8,485.9 L 271.7,487.4 L 275.7,488.9 L 279.6,490.3 L 283.6,491.8 L 287.5,493.2 L 291.5,494.6 L 295.4,496.0 L 299.4,497.3 L 303.3,498.6 L 307.3,499.9 L 311.2,501.2 L 315.2,502.4 L 319.1,503.6 L 323.1,504.8 L 327.0,505.9 L 331.0,507.0 L 334.9,508.0 L 338.9,509.0 L 342.8,510.0 L 346.8,510.8 L 350.7,511.7 L 354.7,512.5 L 358.6,513.2 L 362.6,513.9 L 366.5,514.6 L 370.5,515.2 L 374.4,515.7 L 378.4,516.2 L 382.3,516.6 L 386.3,516.9 L 390.2,517.2 L 394.2,517.5 L 398.1,517.6 L 402.1,517.8 L 406.0,517.8 L 410.0,517.8 L 413.9,517.8 L 417.9,517.6 L 421.8,517.5 L 425.8,517.2 L 429.7,516.9 L 433.7,516.6 L 437.6,516.2 L 441.6,515.7 L 445.5,515.2 L 449.5,514.6 L 453.4,513.9 L 457.4,513.2 L 461.3,512.5 L 465.3,511.7 L 469.2,510.8 L 473.2,510.0 L 477.1,509.0 L 481.1,508.0 L 485.0,507.0 L 489.0,505.9 L 492.9,504.8 L 496.9,503.6 L 500.8,502.4 L 504.8,501.2 L 508.7,499.9 L 512.7,498.6 L 516.6,497.3 L 520.6,496.0 L 524.5,494.6 L 528.5,493.2 L 532.4,491.8 L 536.4,490.3 L 540.3,488.9 L 544.3,487.4 L 548.2,485.9 L 552.2,484.4 L 556.1,482.9 L 560.1,481.4 L 564.0,479.9" fill="none" /><path d="M 252.0,485.6 L 255.9,487.0 L 259.9,488.3 L 263.8,489.6 L 267.8,490.9 L 271.7,492.1 L 275.7,493.4 L 279.6,494.7 L 283.6,495.9 L 287.5,497.2 L 291.5,498.4 L 295.4,499.6 L 299.4,500.7 L 303.3,501.9 L 307.3,503.0 L 311.2,504.1 L 315.2,505.2 L 319.1,506.2 L 323.1,507.2 L 327.0,508.2 L 331.0,509.1 L 334.9,510.0 L 338.9,510.9 L 342.8,511.7 L 346.8,512.5 L 350.7,513.2 L 354.7,513.9 L 358.6,514.5 L 362.6,515.1 L 366.5,515.7 L 370.5,516.2 L 374.4,516.7 L 378.4,517.1 L 382.3,517.4 L 386.3,517.7 L 390.2,518.0 L 394.2,518.2 L 398.1,518.4 L 402.1,518.5 L 406.0,518.5 L 410.0,518.5 L 413.9,518.5 L 417.9,518.4 L 421.8,518.2 L 425.8,518.0 L 429.7,517.7 L 433.7,517.4 L 437.6,517.1 L 441.6,516.7 L 445.5,516.2 L 449.5,515.7 L 453.4,515.1 L 457.4,514.5 L 461.3,513.9 L 465.3,513.2 L 469.2,512.5 L 473.2,511.7 L 477.1,510.9 L 481.1,510.0 L 485.0,509.1 L 489.0,508.2 L 492.9,507.2 L 496.9,506.2 L 500.8,505.2 L 504.8,504.1 L 508.7,503.0 L 512.7,501.9 L 516.6,500.7 L 520.6,499.6 L 524.5,498.4 L 528.5,497.2 L 532.4,495.9 L 536.4,494.7 L 540.3,493.4 L 544.3,492.1 L 548.2,490.9 L 552.2,489.6 L 556.1,488.3 L 560.1,487.0 L 564.0,485.6" fill="none" /><path d="M 252.0,491.4 L 255.9,492.5 L 259.9,493.6 L 263.8,494.7 L 267.8,495.8 L 271.7,496.9 L 275.7,498.0 L 279.6,499.0 L 283.6,500.1 L 287.5,501.1 L 291.5,502.2 L 295.4,503.2 L 299.4,504.2 L 303.3,505.1 L 307.3,506.1 L 311.2,507.0 L 315.2,507.9 L 319.1,508.8 L 323.1,509.6 L 327.0,510.5 L 331.0,511.3 L 334.9,512.0 L 338.9,512.7 L 342.8,513.4 L 346.8,514.1 L 350.7,514.7 L 354.7,515.3 L 358.6,515.8 L 362.6,516.3 L 366.5,516.8 L 370.5,517.2 L 374.4,517.6 L 378.4,518.0 L 382.3,518.3 L 386.3,518.5 L 390.2,518.8 L 394.2,518.9 L 398.1,519.1 L 402.1,519.2 L 406.0,519.2 L 410.0,519.2 L 413.9,519.2 L 417.9,519.1 L 421.8,518.9 L 425.8,518.8 L 429.7,518.5 L 433.7,518.3 L 437.6,518.0 L 441.6,517.6 L 445.5,517.2 L 449.5,516.8 L 453.4,516.3 L 457.4,515.8 L 461.3,515.3 L 465.3,514.7 L 469.2,514.1 L 473.2,513.4 L 477.1,512.7 L 481.1,512.0 L 485.0,511.3 L 489.0,510.5 L 492.9,509.6 L 496.9,508.8 L 500.8,507.9 L 504.8,507.0 L 508.7,506.1 L 512.7,505.1 L 516.6,504.2 L 520.6,503.2 L 524.5,502.2 L 528.5,501.1 L 532.4,500.1 L 536.4,499.0 L 540.3,498.0 L 544.3,496.9 L 548.2,495.8 L 552.2,494.7 L 556.1,493.6 L 560.1,492.5 L 564.0,491.4" fill="none" /><path d="M 252.0,497.1 L 255.9,498.0 L 259.9,498.9 L 263.8,499.8 L 267.8,500.7 L 271.7,501.6 L 275.7,502.5 L 279.6,503.4 L 283.6,504.3 L 287.5,505.1 L 291.5,506.0 L 295.4,506.8 L 299.4,507.6 L 303.3,508.4 L 307.3,509.2 L 311.2,509.9 L 315.2,510.7 L 319.1,511.4 L 323.1,512.1 L 327.0,512.7 L 331.0,513.4 L 334.9,514.0 L 338.9,514.6 L 342.8,515.2 L 346.8,515.7 L 350.7,516.2 L 354.7,516.7 L 358.6,517.1 L 362.6,517.6 L 366.5,517.9 L 370.5,518.3 L 374.4,518.6 L 378.4,518.9 L 382.3,519.1 L 386.3,519.4 L 390.2,519.5 L 394.2,519.7 L 398.1,519.8 L 402.1,519.9 L 406.0,519.9 L 410.0,519.9 L 413.9,519.9 L 417.9,519.8 L 421.8,519.7 L 425.8,519.5 L 429.7,519.4 L 433.7,519.1 L 437.6,518.9 L 441.6,518.6 L 445.5,518.3 L 449.5,517.9 L 453.4,517.6 L 457.4,517.1 L 461.3,516.7 L 465.3,516.2 L 469.2,515.7 L 473.2,515.2 L 477.1,514.6 L 481.1,514.0 L 485.0,513.4 L 489.0,512.7 L 492.9,512.1 L 496.9,511.4 L 500.8,510.7 L 504.8,509.9 L 508.7,509.2 L 512.7,508.4 L 516.6,507.6 L 520.6,506.8 L 524.5,506.0 L 528.5,505.1 L 532.4,504.3 L 536.4,503.4 L 540.3,502.5 L 544.3,501.6 L 548.2,500.7 L 552.2,499.8 L 556.1,498.9 L 560.1,498.0 L 564.0,497.1" fill="none" /><path d="M 252.0,502.9 L 255.9,503.6 L 259.9,504.3 L 263.8,505.0 L 267.8,505.7 L 271.7,506.4 L 275.7,507.1 L 279.6,507.8 L 283.6,508.4 L 287.5,509.1 L 291.5,509.7 L 295.4,510.4 L 299.4,511.0 L 303.3,511.6 L 307.3,512.2 L 311.2,512.8 L 315.2,513.4 L 319.1,514.0 L 323.1,514.5 L 327.0,515.0 L 331.0,515.5 L 334.9,516.0 L 338.9,516.5 L 342.8,516.9 L 346.8,517.3 L 350.7,517.7 L 354.7,518.1 L 358.6,518.4 L 362.6,518.8 L 366.5,519.1 L 370.5,519.3 L 374.4,519.6 L 378.4,519.8 L 382.3,520.0 L 386.3,520.2 L 390.2,520.3 L 394.2,520.4 L 398.1,520.5 L 402.1,520.6 L 406.0,520.6 L 410.0,520.6 L 413.9,520.6 L 417.9,520.5 L 421.8,520.4 L 425.8,520.3 L 429.7,520.2 L 433.7,520.0 L 437.6,519.8 L 441.6,519.6 L 445.5,519.3 L 449.5,519.1 L 453.4,518.8 L 457.4,518.4 L 461.3,518.1 L 465.3,517.7 L 469.2,517.3 L 473.2,516.9 L 477.1,516.5 L 481.1,516.0 L 485.0,515.5 L 489.0,515.0 L 492.9,514.5 L 496.9,514.0 L 500.8,513.4 L 504.8,512.8 L 508.7,512.2 L 512.7,511.6 L 516.6,511.0 L 520.6,510.4 L 524.5,509.7 L 528.5,509.1 L 532.4,508.4 L 536.4,507.8 L 540.3,507.1 L 544.3,506.4 L 548.2,505.7 L 552.2,505.0 L 556.1,504.3 L 560.1,503.6 L 564.0,502.9" fill="none" /><path d="M 252.0,508.6 L 255.9,509.1 L 259.9,509.6 L 263.8,510.1 L 267.8,510.6 L 271.7,511.1 L 275.7,511.6 L 279.6,512.1 L 283.6,512.6 L 287.5,513.1 L 291.5,513.5 L 295.4,514.0 L 299.4,514.4 L 303.3,514.9 L 307.3,515.3 L 311.2,515.7 L 315.2,516.1 L 319.1,516.5 L 323.1,516.9 L 327.0,517.3 L 331.0,517.7 L 334.9,518.0 L 338.9,518.3 L 342.8,518.7 L 346.8,518.9 L 350.7,519.2 L 354.7,519.5 L 358.6,519.7 L 362.6,520.0 L 366.5,520.2 L 370.5,520.4 L 374.4,520.6 L 378.4,520.7 L 382.3,520.9 L 386.3,521.0 L 390.2,521.1 L 394.2,521.2 L 398.1,521.2 L 402.1,521.3 L 406.0,521.3 L 410.0,521.3 L 413.9,521.3 L 417.9,521.2 L 421.8,521.2 L 425.8,521.1 L 429.7,521.0 L 433.7,520.9 L 437.6,520.7 L 441.6,520.6 L 445.5,520.4 L 449.5,520.2 L 453.4,520.0 L 457.4,519.7 L 461.3,519.5 L 465.3,519.2 L 469.2,518.9 L 473.2,518.7 L 477.1,518.3 L 481.1,518.0 L 485.0,517.7 L 489.0,517.3 L 492.9,516.9 L 496.9,516.5 L 500.8,516.1 L 504.8,515.7 L 508.7,515.3 L 512.7,514.9 L 516.6,514.4 L 520.6,514.0 L 524.5,513.5 L 528.5,513.1 L 532.4,512.6 L 536.4,512.1 L 540.3,511.6 L 544.3,511.1 L 548.2,510.6 L 552.2,510.1 L 556.1,509.6 L 560.1,509.1 L 564.0,508.6" fill="none" /><path d="M 252.0,514.4 L 255.9,514.7 L 259.9,515.0 L 263.8,515.3 L 267.8,515.6 L 271.7,515.9 L 275.7,516.2 L 279.6,516.5 L 283.6,516.8 L 287.5,517.0 L 291.5,517.3 L 295.4,517.6 L 299.4,517.9 L 303.3,518.1 L 307.3,518.4 L 311.2,518.6 L 315.2,518.9 L 319.1,519.1 L 323.1,519.4 L 327.0,519.6 L 331.0,519.8 L 334.9,520.0 L 338.9,520.2 L 342.8,520.4 L 346.8,520.6 L 350.7,520.7 L 354.7,520.9 L 358.6,521.0 L 362.6,521.2 L 366.5,521.3 L 370.5,521.4 L 374.4,521.5 L 378.4,521.6 L 382.3,521.7 L 386.3,521.8 L 390.2,521.8 L 394.2,521.9 L 398.1,521.9 L 402.1,522.0 L 406.0,522.0 L 410.0,522.0 L 413.9,522.0 L 417.9,521.9 L 421.8,521.9 L 425.8,521.8 L 429.7,521.8 L 433.7,521.7 L 437.6,521.6 L 441.6,521.5 L 445.5,521.4 L 449.5,521.3 L 453.4,521.2 L 457.4,521.0 L 461.3,520.9 L 465.3,520.7 L 469.2,520.6 L 473.2,520.4 L 477.1,520.2 L 481.1,520.0 L 485.0,519.8 L 489.0,519.6 L 492.9,519.4 L 496.9,519.1 L 500.8,518.9 L 504.8,518.6 L 508.7,518.4 L 512.7,518.1 L 516.6,517.9 L 520.6,517.6 L 524.5,517.3 L 528.5,517.0 L 532.4,516.8 L 536.4,516.5 L 540.3,516.2 L 544.3,515.9 L 548.2,515.6 L 552.2,515.3 L 556.1,515.0 L 560.1,514.7 L 564.0,514.4" fill="none" /><path d="M 252.0,520.1 L 255.9,520.2 L 259.9,520.3 L 263.8,520.4 L 267.8,520.5 L 271.7,520.6 L 275.7,520.7 L 279.6,520.8 L 283.6,520.9 L 287.5,521.0 L 291.5,521.1 L 295.4,521.2 L 299.4,521.3 L 303.3,521.4 L 307.3,521.5 L 311.2,521.5 L 315.2,521.6 L 319.1,521.7 L 323.1,521.8 L 327.0,521.9 L 331.0,521.9 L 334.9,522.0 L 338.9,522.1 L 342.8,522.1 L 346.8,522.2 L 350.7,522.2 L 354.7,522.3 L 358.6,522.3 L 362.6,522.4 L 366.5,522.4 L 370.5,522.5 L 374.4,522.5 L 378.4,522.5 L 382.3,522.6 L 386.3,522.6 L 390.2,522.6 L 394.2,522.6 L 398.1,522.6 L 402.1,522.7 L 406.0,522.7 L 410.0,522.7 L 413.9,522.7 L 417.9,522.6 L 421.8,522.6 L 425.8,522.6 L 429.7,522.6 L 433.7,522.6 L 437.6,522.5 L 441.6,522.5 L 445.5,522.5 L 449.5,522.4 L 453.4,522.4 L 457.4,522.3 L 461.3,522.3 L 465.3,522.2 L 469.2,522.2 L 473.2,522.1 L 477.1,522.1 L 481.1,522.0 L 485.0,521.9 L 489.0,521.9 L 492.9,521.8 L 496.9,521.7 L 500.8,521.6 L 504.8,521.5 L 508.7,521.5 L 512.7,521.4 L 516.6,521.3 L 520.6,521.2 L 524.5,521.1 L 528.5,521.0 L 532.4,520.9 L 536.4,520.8 L 540.3,520.7 L 544.3,520.6 L 548.2,520.5 L 552.2,520.4 L 556.1,520.3 L 560.1,520.2 L 564.0,520.1" fill="none" /><path d="M 252.0,525.9 L 255.9,525.8 L 259.9,525.7 L 263.8,525.6 L 267.8,525.5 L 271.7,525.4 L 275.7,525.3 L 279.6,525.2 L 283.6,525.1 L 287.5,525.0 L 291.5,524.9 L 295.4,524.8 L 299.4,524.7 L 303.3,524.6 L 307.3,524.5 L 311.2,524.5 L 315.2,524.4 L 319.1,524.3 L 323.1,524.2 L 327.0,524.1 L 331.0,524.1 L 334.9,524.0 L 338.9,523.9 L 342.8,523.9 L 346.8,523.8 L 350.7,523.8 L 354.7,523.7 L 358.6,523.7 L 362.6,523.6 L 366.5,523.6 L 370.5,523.5 L 374.4,523.5 L 378.4,523.5 L 382.3,523.4 L 386.3,523.4 L 390.2,523.4 L 394.2,523.4 L 398.1,523.4 L 402.1,523.3 L 406.0,523.3 L 410.0,523.3 L 413.9,523.3 L 417.9,523.4 L 421.8,523.4 L 425.8,523.4 L 429.7,523.4 L 433.7,523.4 L 437.6,523.5 L 441.6,523.5 L 445.5,523.5 L 449.5,523.6 L 453.4,523.6 L 457.4,523.7 L 461.3,523.7 L 465.3,523.8 L 469.2,523.8 L 473.2,523.9 L 477.1,523.9 L 481.1,524.0 L 485.0,524.1 L 489.0,524.1 L 492.9,524.2 L 496.9,524.3 L 500.8,524.4 L 504.8,524.5 L 508.7,524.5 L 512.7,524.6 L 516.6,524.7 L 520.6,524.8 L 524.5,524.9 L 528.5,525.0 L 532.4,525.1 L 536.4,525.2 L 540.3,525.3 L 544.3,525.4 L 548.2,525.5 L 552.2,525.6 L 556.1,525.7 L 560.1,525.8 L 564.0,525.9" fill="none" /><path d="M 252.0,531.6 L 255.9,531.3 L 259.9,531.0 L 263.8,530.7 L 267.8,530.4 L 271.7,530.1 L 275.7,529.8 L 279.6,529.5 L 283.6,529.2 L 287.5,529.0 L 291.5,528.7 L 295.4,528.4 L 299.4,528.1 L 303.3,527.9 L 307.3,527.6 L 311.2,527.4 L 315.2,527.1 L 319.1,526.9 L 323.1,526.6 L 327.0,526.4 L 331.0,526.2 L 334.9,526.0 L 338.9,525.8 L 342.8,525.6 L 346.8,525.4 L 350.7,525.3 L 354.7,525.1 L 358.6,525.0 L 362.6,524.8 L 366.5,524.7 L 370.5,524.6 L 374.4,524.5 L 378.4,524.4 L 382.3,524.3 L 386.3,524.2 L 390.2,524.2 L 394.2,524.1 L 398.1,524.1 L 402.1,524.0 L 406.0,524.0 L 410.0,524.0 L 413.9,524.0 L 417.9,524.1 L 421.8,524.1 L 425.8,524.2 L 429.7,524.2 L 433.7,524.3 L 437.6,524.4 L 441.6,524.5 L 445.5,524.6 L 449.5,524.7 L 453.4,524.8 L 457.4,525.0 L 461.3,525.1 L 465.3,525.3 L 469.2,525.4 L 473.2,525.6 L 477.1,525.8 L 481.1,526.0 L 485.0,526.2 L 489.0,526.4 L 492.9,526.6 L 496.9,526.9 L 500.8,527.1 L 504.8,527.4 L 508.7,527.6 L 512.7,527.9 L 516.6,528.1 L 520.6,528.4 L 524.5,528.7 L 528.5,529.0 L 532.4,529.2 L 536.4,529.5 L 540.3,529.8 L 544.3,530.1 L 548.2,530.4 L 552.2,530.7 L 556.1,531.0 L 560.1,531.3 L 564.0,531.6" fill="none" /><path d="M 252.0,537.4 L 255.9,536.9 L 259.9,536.4 L 263.8,535.9 L 267.8,535.4 L 271.7,534.9 L 275.7,534.4 L 279.6,533.9 L 283.6,533.4 L 287.5,532.9 L 291.5,532.5 L 295.4,532.0 L 299.4,531.6 L 303.3,531.1 L 307.3,530.7 L 311.2,530.3 L 315.2,529.9 L 319.1,529.5 L 323.1,529.1 L 327.0,528.7 L 331.0,528.3 L 334.9,528.0 L 338.9,527.7 L 342.8,527.3 L 346.8,527.1 L 350.7,526.8 L 354.7,526.5 L 358.6,526.3 L 362.6,526.0 L 366.5,525.8 L 370.5,525.6 L 374.4,525.4 L 378.4,525.3 L 382.3,525.1 L 386.3,525.0 L 390.2,524.9 L 394.2,524.8 L 398.1,524.8 L 402.1,524.7 L 406.0,524.7 L 410.0,524.7 L 413.9,524.7 L 417.9,524.8 L 421.8,524.8 L 425.8,524.9 L 429.7,525.0 L 433.7,525.1 L 437.6,525.3 L 441.6,525.4 L 445.5,525.6 L 449.5,525.8 L 453.4,526.0 L 457.4,526.3 L 461.3,526.5 L 465.3,526.8 L 469.2,527.1 L 473.2,527.3 L 477.1,527.7 L 481.1,528.0 L 485.0,528.3 L 489.0,528.7 L 492.9,529.1 L 496.9,529.5 L 500.8,529.9 L 504.8,530.3 L 508.7,530.7 L 512.7,531.1 L 516.6,531.6 L 520.6,532.0 L 524.5,532.5 L 528.5,532.9 L 532.4,533.4 L 536.4,533.9 L 540.3,534.4 L 544.3,534.9 L 548.2,535.4 L 552.2,535.9 L 556.1,536.4 L 560.1,536.9 L 564.0,537.4" fill="none" /><path d="M 252.0,543.1 L 255.9,542.4 L 259.9,541.7 L 263.8,541.0 L 267.8,540.3 L 271.7,539.6 L 275.7,538.9 L 279.6,538.2 L 283.6,537.6 L 287.5,536.9 L 291.5,536.3 L 295.4,535.6 L 299.4,535.0 L 303.3,534.4 L 307.3,533.8 L 311.2,533.2 L 315.2,532.6 L 319.1,532.0 L 323.1,531.5 L 327.0,531.0 L 331.0,530.5 L 334.9,530.0 L 338.9,529.5 L 342.8,529.1 L 346.8,528.7 L 350.7,528.3 L 354.7,527.9 L 358.6,527.6 L 362.6,527.2 L 366.5,526.9 L 370.5,526.7 L 374.4,526.4 L 378.4,526.2 L 382.3,526.0 L 386.3,525.8 L 390.2,525.7 L 394.2,525.6 L 398.1,525.5 L 402.1,525.4 L 406.0,525.4 L 410.0,525.4 L 413.9,525.4 L 417.9,525.5 L 421.8,525.6 L 425.8,525.7 L 429.7,525.8 L 433.7,526.0 L 437.6,526.2 L 441.6,526.4 L 445.5,526.7 L 449.5,526.9 L 453.4,527.2 L 457.4,527.6 L 461.3,527.9 L 465.3,528.3 L 469.2,528.7 L 473.2,529.1 L 477.1,529.5 L 481.1,530.0 L 485.0,530.5 L 489.0,531.0 L 492.9,531.5 L 496.9,532.0 L 500.8,532.6 L 504.8,533.2 L 508.7,533.8 L 512.7,534.4 L 516.6,535.0 L 520.6,535.6 L 524.5,536.3 L 528.5,536.9 L 532.4,537.6 L 536.4,538.2 L 540.3,538.9 L 544.3,539.6 L 548.2,540.3 L 552.2,541.0 L 556.1,541.7 L 560.1,542.4 L 564.0,543.1" fill="none" /><path d="M 252.0,548.9 L 255.9,548.0 L 259.9,547.1 L 263.8,546.2 L 267.8,545.3 L 271.7,544.4 L 275.7,543.5 L 279.6,542.6 L 283.6,541.7 L 287.5,540.9 L 291.5,540.0 L 295.4,539.2 L 299.4,538.4 L 303.3,537.6 L 307.3,536.8 L 311.2,536.1 L 315.2,535.3 L 319.1,534.6 L 323.1,533.9 L 327.0,533.3 L 331.0,532.6 L 334.9,532.0 L 338.9,531.4 L 342.8,530.8 L 346.8,530.3 L 350.7,529.8 L 354.7,529.3 L 358.6,528.9 L 362.6,528.4 L 366.5,528.1 L 370.5,527.7 L 374.4,527.4 L 378.4,527.1 L 382.3,526.9 L 386.3,526.6 L 390.2,526.5 L 394.2,526.3 L 398.1,526.2 L 402.1,526.1 L 406.0,526.1 L 410.0,526.1 L 413.9,526.1 L 417.9,526.2 L 421.8,526.3 L 425.8,526.5 L 429.7,526.6 L 433.7,526.9 L 437.6,527.1 L 441.6,527.4 L 445.5,527.7 L 449.5,528.1 L 453.4,528.4 L 457.4,528.9 L 461.3,529.3 L 465.3,529.8 L 469.2,530.3 L 473.2,530.8 L 477.1,531.4 L 481.1,532.0 L 485.0,532.6 L 489.0,533.3 L 492.9,533.9 L 496.9,534.6 L 500.8,535.3 L 504.8,536.1 L 508.7,536.8 L 512.7,537.6 L 516.6,538.4 L 520.6,539.2 L 524.5,540.0 L 528.5,540.9 L 532.4,541.7 L 536.4,542.6 L 540.3,543.5 L 544.3,544.4 L 548.2,545.3 L 552.2,546.2 L 556.1,547.1 L 560.1,548.0 L 564.0,548.9" fill="none" /><path d="M 252.0,554.6 L 255.9,553.5 L 259.9,552.4 L 263.8,551.3 L 267.8,550.2 L 271.7,549.1 L 275.7,548.0 L 279.6,547.0 L 283.6,545.9 L 287.5,544.9 L 291.5,543.8 L 295.4,542.8 L 299.4,541.8 L 303.3,540.9 L 307.3,539.9 L 311.2,539.0 L 315.2,538.1 L 319.1,537.2 L 323.1,536.4 L 327.0,535.5 L 331.0,534.7 L 334.9,534.0 L 338.9,533.3 L 342.8,532.6 L 346.8,531.9 L 350.7,531.3 L 354.7,530.7 L 358.6,530.2 L 362.6,529.7 L 366.5,529.2 L 370.5,528.8 L 374.4,528.4 L 378.4,528.0 L 382.3,527.7 L 386.3,527.5 L 390.2,527.2 L 394.2,527.1 L 398.1,526.9 L 402.1,526.8 L 406.0,526.8 L 410.0,526.8 L 413.9,526.8 L 417.9,526.9 L 421.8,527.1 L 425.8,527.2 L 429.7,527.5 L 433.7,527.7 L 437.6,528.0 L 441.6,528.4 L 445.5,528.8 L 449.5,529.2 L 453.4,529.7 L 457.4,530.2 L 461.3,530.7 L 465.3,531.3 L 469.2,531.9 L 473.2,532.6 L 477.1,533.3 L 481.1,534.0 L 485.0,534.7 L 489.0,535.5 L 492.9,536.4 L 496.9,537.2 L 500.8,538.1 L 504.8,539.0 L 508.7,539.9 L 512.7,540.9 L 516.6,541.8 L 520.6,542.8 L 524.5,543.8 L 528.5,544.9 L 532.4,545.9 L 536.4,547.0 L 540.3,548.0 L 544.3,549.1 L 548.2,550.2 L 552.2,551.3 L 556.1,552.4 L 560.1,553.5 L 564.0,554.6" fill="none" /><path d="M 252.0,560.4 L 255.9,559.0 L 259.9,557.7 L 263.8,556.4 L 267.8,555.1 L 271.7,553.9 L 275.7,552.6 L 279.6,551.3 L 283.6,550.1 L 287.5,548.8 L 291.5,547.6 L 295.4,546.4 L 299.4,545.3 L 303.3,544.1 L 307.3,543.0 L 311.2,541.9 L 315.2,540.8 L 319.1,539.8 L 323.1,538.8 L 327.0,537.8 L 331.0,536.9 L 334.9,536.0 L 338.9,535.1 L 342.8,534.3 L 346.8,533.5 L 350.7,532.8 L 354.7,532.1 L 358.6,531.5 L 362.6,530.9 L 366.5,530.3 L 370.5,529.8 L 374.4,529.3 L 378.4,528.9 L 382.3,528.6 L 386.3,528.3 L 390.2,528.0 L 394.2,527.8 L 398.1,527.6 L 402.1,527.5 L 406.0,527.5 L 410.0,527.5 L 413.9,527.5 L 417.9,527.6 L 421.8,527.8 L 425.8,528.0 L 429.7,528.3 L 433.7,528.6 L 437.6,528.9 L 441.6,529.3 L 445.5,529.8 L 449.5,530.3 L 453.4,530.9 L 457.4,531.5 L 461.3,532.1 L 465.3,532.8 L 469.2,533.5 L 473.2,534.3 L 477.1,535.1 L 481.1,536.0 L 485.0,536.9 L 489.0,537.8 L 492.9,538.8 L 496.9,539.8 L 500.8,540.8 L 504.8,541.9 L 508.7,543.0 L 512.7,544.1 L 516.6,545.3 L 520.6,546.4 L 524.5,547.6 L 528.5,548.8 L 532.4,550.1 L 536.4,551.3 L 540.3,552.6 L 544.3,553.9 L 548.2,555.1 L 552.2,556.4 L 556.1,557.7 L 560.1,559.0 L 564.0,560.4" fill="none" /><path d="M 252.0,566.1 L 255.9,564.6 L 259.9,563.1 L 263.8,561.6 L 267.8,560.1 L 271.7,558.6 L 275.7,557.1 L 279.6,555.7 L 283.6,554.2 L 287.5,552.8 L 291.5,551.4 L 295.4,550.0 L 299.4,548.7 L 303.3,547.4 L 307.3,546.1 L 311.2,544.8 L 315.2,543.6 L 319.1,542.4 L 323.1,541.2 L 327.0,540.1 L 331.0,539.0 L 334.9,538.0 L 338.9,537.0 L 342.8,536.0 L 346.8,535.2 L 350.7,534.3 L 354.7,533.5 L 358.6,532.8 L 362.6,532.1 L 366.5,531.4 L 370.5,530.8 L 374.4,530.3 L 378.4,529.8 L 382.3,529.4 L 386.3,529.1 L 390.2,528.8 L 394.2,528.5 L 398.1,528.4 L 402.1,528.2 L 406.0,528.2 L 410.0,528.2 L 413.9,528.2 L 417.9,528.4 L 421.8,528.5 L 425.8,528.8 L 429.7,529.1 L 433.7,529.4 L 437.6,529.8 L 441.6,530.3 L 445.5,530.8 L 449.5,531.4 L 453.4,532.1 L 457.4,532.8 L 461.3,533.5 L 465.3,534.3 L 469.2,535.2 L 473.2,536.0 L 477.1,537.0 L 481.1,538.0 L 485.0,539.0 L 489.0,540.1 L 492.9,541.2 L 496.9,542.4 L 500.8,543.6 L 504.8,544.8 L 508.7,546.1 L 512.7,547.4 L 516.6,548.7 L 520.6,550.0 L 524.5,551.4 L 528.5,552.8 L 532.4,554.2 L 536.4,555.7 L 540.3,557.1 L 544.3,558.6 L 548.2,560.1 L 552.2,561.6 L 556.1,563.1 L 560.1,564.6 L 564.0,566.1" fill="none" /><path d="M 252.0,571.8 L 255.9,570.1 L 259.9,568.4 L 263.8,566.7 L 267.8,565.0 L 271.7,563.4 L 275.7,561.7 L 279.6,560.0 L 283.6,558.4 L 287.5,556.8 L 291.5,555.2 L 295.4,553.6 L 299.4,552.1 L 303.3,550.6 L 307.3,549.1 L 311.2,547.7 L 315.2,546.3 L 319.1,544.9 L 323.1,543.6 L 327.0,542.4 L 331.0,541.2 L 334.9,540.0 L 338.9,538.9 L 342.8,537.8 L 346.8,536.8 L 350.7,535.8 L 354.7,534.9 L 358.6,534.1 L 362.6,533.3 L 366.5,532.6 L 370.5,531.9 L 374.4,531.3 L 378.4,530.8 L 382.3,530.3 L 386.3,529.9 L 390.2,529.5 L 394.2,529.3 L 398.1,529.1 L 402.1,528.9 L 406.0,528.9 L 410.0,528.9 L 413.9,528.9 L 417.9,529.1 L 421.8,529.3 L 425.8,529.5 L 429.7,529.9 L 433.7,530.3 L 437.6,530.8 L 441.6,531.3 L 445.5,531.9 L 449.5,532.6 L 453.4,533.3 L 457.4,534.1 L 461.3,534.9 L 465.3,535.8 L 469.2,536.8 L 473.2,537.8 L 477.1,538.9 L 481.1,540.0 L 485.0,541.2 L 489.0,542.4 L 492.9,543.6 L 496.9,544.9 L 500.8,546.3 L 504.8,547.7 L 508.7,549.1 L 512.7,550.6 L 516.6,552.1 L 520.6,553.6 L 524.5,555.2 L 528.5,556.8 L 532.4,558.4 L 536.4,560.0 L 540.3,561.7 L 544.3,563.4 L 548.2,565.0 L 552.2,566.7 L 556.1,568.4 L 560.1,570.1 L 564.0,571.8" fill="none" /><path d="M 252.0,577.6 L 255.9,575.7 L 259.9,573.8 L 263.8,571.9 L 267.8,570.0 L 271.7,568.1 L 275.7,566.2 L 279.6,564.4 L 283.6,562.6 L 287.5,560.8 L 291.5,559.0 L 295.4,557.2 L 299.4,555.5 L 303.3,553.8 L 307.3,552.2 L 311.2,550.6 L 315.2,549.0 L 319.1,547.5 L 323.1,546.1 L 327.0,544.6 L 331.0,543.3 L 334.9,542.0 L 338.9,540.7 L 342.8,539.5 L 346.8,538.4 L 350.7,537.3 L 354.7,536.3 L 358.6,535.4 L 362.6,534.5 L 366.5,533.7 L 370.5,532.9 L 374.4,532.3 L 378.4,531.7 L 382.3,531.1 L 386.3,530.7 L 390.2,530.3 L 394.2,530.0 L 398.1,529.8 L 402.1,529.6 L 406.0,529.6 L 410.0,529.6 L 413.9,529.6 L 417.9,529.8 L 421.8,530.0 L 425.8,530.3 L 429.7,530.7 L 433.7,531.1 L 437.6,531.7 L 441.6,532.3 L 445.5,532.9 L 449.5,533.7 L 453.4,534.5 L 457.4,535.4 L 461.3,536.3 L 465.3,537.3 L 469.2,538.4 L 473.2,539.5 L 477.1,540.7 L 481.1,542.0 L 485.0,543.3 L 489.0,544.6 L 492.9,546.1 L 496.9,547.5 L 500.8,549.0 L 504.8,550.6 L 508.7,552.2 L 512.7,553.8 L 516.6,555.5 L 520.6,557.2 L 524.5,559.0 L 528.5,560.8 L 532.4,562.6 L 536.4,564.4 L 540.3,566.2 L 544.3,568.1 L 548.2,570.0 L 552.2,571.9 L 556.1,573.8 L 560.1,575.7 L 564.0,577.6" fill="none" /><path d="M 252.0,583.3 L 255.9,581.2 L 259.9,579.1 L 263.8,577.0 L 267.8,574.9 L 271.7,572.8 L 275.7,570.8 L 279.6,568.7 L 283.6,566.7 L 287.5,564.7 L 291.5,562.8 L 295.4,560.8 L 299.4,559.0 L 303.3,557.1 L 307.3,555.3 L 311.2,553.5 L 315.2,551.8 L 319.1,550.1 L 323.1,548.5 L 327.0,546.9 L 331.0,545.4 L 334.9,544.0 L 338.9,542.6 L 342.8,541.3 L 346.8,540.0 L 350.7,538.8 L 354.7,537.7 L 358.6,536.7 L 362.6,535.7 L 366.5,534.8 L 370.5,534.0 L 374.4,533.2 L 378.4,532.6 L 382.3,532.0 L 386.3,531.5 L 390.2,531.1 L 394.2,530.8 L 398.1,530.5 L 402.1,530.3 L 406.0,530.3 L 410.0,530.3 L 413.9,530.3 L 417.9,530.5 L 421.8,530.8 L 425.8,531.1 L 429.7,531.5 L 433.7,532.0 L 437.6,532.6 L 441.6,533.2 L 445.5,534.0 L 449.5,534.8 L 453.4,535.7 L 457.4,536.7 L 461.3,537.7 L 465.3,538.8 L 469.2,540.0 L 473.2,541.3 L 477.1,542.6 L 481.1,544.0 L 485.0,545.4 L 489.0,546.9 L 492.9,548.5 L 496.9,550.1 L 500.8,551.8 L 504.8,553.5 L 508.7,555.3 L 512.7,557.1 L 516.6,559.0 L 520.6,560.8 L 524.5,562.8 L 528.5,564.7 L 532.4,566.7 L 536.4,568.7 L 540.3,570.8 L 544.3,572.8 L 548.2,574.9 L 552.2,577.0 L 556.1,579.1 L 560.1,581.2 L 564.0,583.3" fill="none" /><path d="M 252.0,589.1 L 255.9,586.8 L 259.9,584.5 L 263.8,582.2 L 267.8,579.9 L 271.7,577.6 L 275.7,575.3 L 279.6,573.1 L 283.6,570.9 L 287.5,568.7 L 291.5,566.6 L 295.4,564.4 L 299.4,562.4 L 303.3,560.3 L 307.3,558.4 L 311.2,556.4 L 315.2,554.5 L 319.1,552.7 L 323.1,550.9 L 327.0,549.2 L 331.0,547.6 L 334.9,546.0 L 338.9,544.5 L 342.8,543.0 L 346.8,541.6 L 350.7,540.3 L 354.7,539.1 L 358.6,538.0 L 362.6,536.9 L 366.5,535.9 L 370.5,535.0 L 374.4,534.2 L 378.4,533.5 L 382.3,532.9 L 386.3,532.3 L 390.2,531.9 L 394.2,531.5 L 398.1,531.2 L 402.1,531.0 L 406.0,530.9 L 410.0,530.9 L 413.9,531.0 L 417.9,531.2 L 421.8,531.5 L 425.8,531.9 L 429.7,532.3 L 433.7,532.9 L 437.6,533.5 L 441.6,534.2 L 445.5,535.0 L 449.5,535.9 L 453.4,536.9 L 457.4,538.0 L 461.3,539.1 L 465.3,540.3 L 469.2,541.6 L 473.2,543.0 L 477.1,544.5 L 481.1,546.0 L 485.0,547.6 L 489.0,549.2 L 492.9,550.9 L 496.9,552.7 L 500.8,554.5 L 504.8,556.4 L 508.7,558.4 L 512.7,560.3 L 516.6,562.4 L 520.6,564.4 L 524.5,566.6 L 528.5,568.7 L 532.4,570.9 L 536.4,573.1 L 540.3,575.3 L 544.3,577.6 L 548.2,579.9 L 552.2,582.2 L 556.1,584.5 L 560.1,586.8 L 564.0,589.1" fill="none" /><path d="M 252.0,594.8 L 255.9,592.3 L 259.9,589.8 L 263.8,587.3 L 267.8,584.8 L 271.7,582.3 L 275.7,579.9 L 279.6,577.5 L 283.6,575.1 L 287.5,572.7 L 291.5,570.4 L 295.4,568.1 L 299.4,565.8 L 303.3,563.6 L 307.3,561.4 L 311.2,559.3 L 315.2,557.3 L 319.1,555.3 L 323.1,553.4 L 327.0,551.5 L 331.0,549.7 L 334.9,548.0 L 338.9,546.3 L 342.8,544.7 L 346.8,543.3 L 350.7,541.8 L 354.7,540.5 L 358.6,539.3 L 362.6,538.1 L 366.5,537.1 L 370.5,536.1 L 374.4,535.2 L 378.4,534.4 L 382.3,533.7 L 386.3,533.1 L 390.2,532.6 L 394.2,532.2 L 398.1,531.9 L 402.1,531.7 L 406.0,531.6 L 410.0,531.6 L 413.9,531.7 L 417.9,531.9 L 421.8,532.2 L 425.8,532.6 L 429.7,533.1 L 433.7,533.7 L 437.6,534.4 L 441.6,535.2 L 445.5,536.1 L 449.5,537.1 L 453.4,538.1 L 457.4,539.3 L 461.3,540.5 L 465.3,541.8 L 469.2,543.3 L 473.2,544.7 L 477.1,546.3 L 481.1,548.0 L 485.0,549.7 L 489.0,551.5 L 492.9,553.4 L 496.9,555.3 L 500.8,557.3 L 504.8,559.3 L 508.7,561.4 L 512.7,563.6 L 516.6,565.8 L 520.6,568.1 L 524.5,570.4 L 528.5,572.7 L 532.4,575.1 L 536.4,577.5 L 540.3,579.9 L 544.3,582.3 L 548.2,584.8 L 552.2,587.3 L 556.1,589.8 L 560.1,592.3 L 564.0,594.8" fill="none" /><path d="M 252.0,600.6 L 255.9,597.9 L 259.9,595.2 L 263.8,592.5 L 267.8,589.8 L 271.7,587.1 L 275.7,584.4 L 279.6,581.8 L 283.6,579.2 L 287.5,576.7 L 291.5,574.1 L 295.4,571.7 L 299.4,569.2 L 303.3,566.8 L 307.3,564.5 L 311.2,562.2 L 315.2,560.0 L 319.1,557.9 L 323.1,555.8 L 327.0,553.8 L 331.0,551.8 L 334.9,550.0 L 338.9,548.2 L 342.8,546.5 L 346.8,544.9 L 350.7,543.3 L 354.7,541.9 L 358.6,540.6 L 362.6,539.3 L 366.5,538.2 L 370.5,537.1 L 374.4,536.2 L 378.4,535.3 L 382.3,534.6 L 386.3,533.9 L 390.2,533.4 L 394.2,533.0 L 398.1,532.6 L 402.1,532.4 L 406.0,532.3 L 410.0,532.3 L 413.9,532.4 L 417.9,532.6 L 421.8,533.0 L 425.8,533.4 L 429.7,533.9 L 433.7,534.6 L 437.6,535.3 L 441.6,536.2 L 445.5,537.1 L 449.5,538.2 L 453.4,539.3 L 457.4,540.6 L 461.3,541.9 L 465.3,543.3 L 469.2,544.9 L 473.2,546.5 L 477.1,548.2 L 481.1,550.0 L 485.0,551.8 L 489.0,553.8 L 492.9,555.8 L 496.9,557.9 L 500.8,560.0 L 504.8,562.2 L 508.7,564.5 L 512.7,566.8 L 516.6,569.2 L 520.6,571.7 L 524.5,574.1 L 528.5,576.7 L 532.4,579.2 L 536.4,581.8 L 540.3,584.4 L 544.3,587.1 L 548.2,589.8 L 552.2,592.5 L 556.1,595.2 L 560.1,597.9 L 564.0,600.6" fill="none" /><path d="M 252.0,606.3 L 255.9,603.4 L 259.9,600.5 L 263.8,597.6 L 267.8,594.7 L 271.7,591.8 L 275.7,589.0 L 279.6,586.2 L 283.6,583.4 L 287.5,580.6 L 291.5,577.9 L 295.4,575.3 L 299.4,572.6 L 303.3,570.1 L 307.3,567.6 L 311.2,565.1 L 315.2,562.8 L 319.1,560.4 L 323.1,558.2 L 327.0,556.0 L 331.0,554.0 L 334.9,552.0 L 338.9,550.0 L 342.8,548.2 L 346.8,546.5 L 350.7,544.9 L 354.7,543.3 L 358.6,541.9 L 362.6,540.5 L 366.5,539.3 L 370.5,538.2 L 374.4,537.1 L 378.4,536.2 L 382.3,535.4 L 386.3,534.7 L 390.2,534.2 L 394.2,533.7 L 398.1,533.4 L 402.1,533.1 L 406.0,533.0 L 410.0,533.0 L 413.9,533.1 L 417.9,533.4 L 421.8,533.7 L 425.8,534.2 L 429.7,534.7 L 433.7,535.4 L 437.6,536.2 L 441.6,537.1 L 445.5,538.2 L 449.5,539.3 L 453.4,540.5 L 457.4,541.9 L 461.3,543.3 L 465.3,544.9 L 469.2,546.5 L 473.2,548.2 L 477.1,550.0 L 481.1,552.0 L 485.0,554.0 L 489.0,556.0 L 492.9,558.2 L 496.9,560.4 L 500.8,562.8 L 504.8,565.1 L 508.7,567.6 L 512.7,570.1 L 516.6,572.6 L 520.6,575.3 L 524.5,577.9 L 528.5,580.6 L 532.4,583.4 L 536.4,586.2 L 540.3,589.0 L 544.3,591.8 L 548.2,594.7 L 552.2,597.6 L 556.1,600.5 L 560.1,603.4 L 564.0,606.3" fill="none" /><path d="M 252.0,612.1 L 255.9,609.0 L 259.9,605.8 L 263.8,602.7 L 267.8,599.7 L 271.7,596.6 L 275.7,593.5 L 279.6,590.5 L 283.6,587.6 L 287.5,584.6 L 291.5,581.7 L 295.4,578.9 L 299.4,576.1 L 303.3,573.3 L 307.3,570.7 L 311.2,568.0 L 315.2,565.5 L 319.1,563.0 L 323.1,560.6 L 327.0,558.3 L 331.0,556.1 L 334.9,554.0 L 338.9,551.9 L 342.8,550.0 L 346.8,548.1 L 350.7,546.4 L 354.7,544.7 L 358.6,543.2 L 362.6,541.7 L 366.5,540.4 L 370.5,539.2 L 374.4,538.1 L 378.4,537.1 L 382.3,536.3 L 386.3,535.6 L 390.2,534.9 L 394.2,534.4 L 398.1,534.1 L 402.1,533.8 L 406.0,533.7 L 410.0,533.7 L 413.9,533.8 L 417.9,534.1 L 421.8,534.4 L 425.8,534.9 L 429.7,535.6 L 433.7,536.3 L 437.6,537.1 L 441.6,538.1 L 445.5,539.2 L 449.5,540.4 L 453.4,541.7 L 457.4,543.2 L 461.3,544.7 L 465.3,546.4 L 469.2,548.1 L 473.2,550.0 L 477.1,551.9 L 481.1,554.0 L 485.0,556.1 L 489.0,558.3 L 492.9,560.6 L 496.9,563.0 L 500.8,565.5 L 504.8,568.0 L 508.7,570.7 L 512.7,573.3 L 516.6,576.1 L 520.6,578.9 L 524.5,581.7 L 528.5,584.6 L 532.4,587.6 L 536.4,590.5 L 540.3,593.5 L 544.3,596.6 L 548.2,599.7 L 552.2,602.7 L 556.1,605.8 L 560.1,609.0 L 564.0,612.1" fill="none" /><path d="M 252.0,617.8 L 255.9,614.5 L 259.9,611.2 L 263.8,607.9 L 267.8,604.6 L 271.7,601.3 L 275.7,598.1 L 279.6,594.9 L 283.6,591.7 L 287.5,588.6 L 291.5,585.5 L 295.4,582.5 L 299.4,579.5 L 303.3,576.6 L 307.3,573.7 L 311.2,570.9 L 315.2,568.2 L 319.1,565.6 L 323.1,563.1 L 327.0,560.6 L 331.0,558.2 L 334.9,556.0 L 338.9,553.8 L 342.8,551.7 L 346.8,549.7 L 350.7,547.9 L 354.7,546.1 L 358.6,544.5 L 362.6,543.0 L 366.5,541.5 L 370.5,540.3 L 374.4,539.1 L 378.4,538.1 L 382.3,537.2 L 386.3,536.4 L 390.2,535.7 L 394.2,535.2 L 398.1,534.8 L 402.1,534.5 L 406.0,534.4 L 410.0,534.4 L 413.9,534.5 L 417.9,534.8 L 421.8,535.2 L 425.8,535.7 L 429.7,536.4 L 433.7,537.2 L 437.6,538.1 L 441.6,539.1 L 445.5,540.3 L 449.5,541.5 L 453.4,543.0 L 457.4,544.5 L 461.3,546.1 L 465.3,547.9 L 469.2,549.7 L 473.2,551.7 L 477.1,553.8 L 481.1,556.0 L 485.0,558.2 L 489.0,560.6 L 492.9,563.1 L 496.9,565.6 L 500.8,568.2 L 504.8,570.9 L 508.7,573.7 L 512.7,576.6 L 516.6,579.5 L 520.6,582.5 L 524.5,585.5 L 528.5,588.6 L 532.4,591.7 L 536.4,594.9 L 540.3,598.1 L 544.3,601.3 L 548.2,604.6 L 552.2,607.9 L 556.1,611.2 L 560.1,614.5 L 564.0,617.8" fill="none" /><path d="M 252.0,623.6 L 255.9,620.0 L 259.9,616.5 L 263.8,613.0 L 267.8,609.5 L 271.7,606.1 L 275.7,602.6 L 279.6,599.2 L 283.6,595.9 L 287.5,592.6 L 291.5,589.3 L 295.4,586.1 L 299.4,582.9 L 303.3,579.8 L 307.3,576.8 L 311.2,573.9 L 315.2,571.0 L 319.1,568.2 L 323.1,565.5 L 327.0,562.9 L 331.0,560.4 L 334.9,558.0 L 338.9,555.6 L 342.8,553.4 L 346.8,551.4 L 350.7,549.4 L 354.7,547.5 L 358.6,545.8 L 362.6,544.2 L 366.5,542.7 L 370.5,541.3 L 374.4,540.1 L 378.4,539.0 L 382.3,538.0 L 386.3,537.2 L 390.2,536.5 L 394.2,535.9 L 398.1,535.5 L 402.1,535.2 L 406.0,535.1 L 410.0,535.1 L 413.9,535.2 L 417.9,535.5 L 421.8,535.9 L 425.8,536.5 L 429.7,537.2 L 433.7,538.0 L 437.6,539.0 L 441.6,540.1 L 445.5,541.3 L 449.5,542.7 L 453.4,544.2 L 457.4,545.8 L 461.3,547.5 L 465.3,549.4 L 469.2,551.4 L 473.2,553.4 L 477.1,555.6 L 481.1,558.0 L 485.0,560.4 L 489.0,562.9 L 492.9,565.5 L 496.9,568.2 L 500.8,571.0 L 504.8,573.9 L 508.7,576.8 L 512.7,579.8 L 516.6,582.9 L 520.6,586.1 L 524.5,589.3 L 528.5,592.6 L 532.4,595.9 L 536.4,599.2 L 540.3,602.6 L 544.3,606.1 L 548.2,609.5 L 552.2,613.0 L 556.1,616.5 L 560.1,620.0 L 564.0,623.6" fill="none" /><path d="M 252.0,629.3 L 255.9,625.6 L 259.9,621.9 L 263.8,618.2 L 267.8,614.5 L 271.7,610.8 L 275.7,607.2 L 279.6,603.6 L 283.6,600.0 L 287.5,596.5 L 291.5,593.1 L 295.4,589.7 L 299.4,586.3 L 303.3,583.1 L 307.3,579.9 L 311.2,576.8 L 315.2,573.7 L 319.1,570.8 L 323.1,567.9 L 327.0,565.2 L 331.0,562.5 L 334.9,560.0 L 338.9,557.5 L 342.8,555.2 L 346.8,553.0 L 350.7,550.9 L 354.7,548.9 L 358.6,547.1 L 362.6,545.4 L 366.5,543.8 L 370.5,542.4 L 374.4,541.1 L 378.4,539.9 L 382.3,538.9 L 386.3,538.0 L 390.2,537.3 L 394.2,536.7 L 398.1,536.2 L 402.1,535.9 L 406.0,535.8 L 410.0,535.8 L 413.9,535.9 L 417.9,536.2 L 421.8,536.7 L 425.8,537.3 L 429.7,538.0 L 433.7,538.9 L 437.6,539.9 L 441.6,541.1 L 445.5,542.4 L 449.5,543.8 L 453.4,545.4 L 457.4,547.1 L 461.3,548.9 L 465.3,550.9 L 469.2,553.0 L 473.2,555.2 L 477.1,557.5 L 481.1,560.0 L 485.0,562.5 L 489.0,565.2 L 492.9,567.9 L 496.9,570.8 L 500.8,573.7 L 504.8,576.8 L 508.7,579.9 L 512.7,583.1 L 516.6,586.3 L 520.6,589.7 L 524.5,593.1 L 528.5,596.5 L 532.4,600.0 L 536.4,603.6 L 540.3,607.2 L 544.3,610.8 L 548.2,614.5 L 552.2,618.2 L 556.1,621.9 L 560.1,625.6 L 564.0,629.3" fill="none" /><path d="M 252.0,635.1 L 255.9,631.1 L 259.9,627.2 L 263.8,623.3 L 267.8,619.4 L 271.7,615.6 L 275.7,611.8 L 279.6,608.0 L 283.6,604.2 L 287.5,600.5 L 291.5,596.9 L 295.4,593.3 L 299.4,589.8 L 303.3,586.3 L 307.3,582.9 L 311.2,579.7 L 315.2,576.5 L 319.1,573.4 L 323.1,570.3 L 327.0,567.4 L 331.0,564.6 L 334.9,562.0 L 338.9,559.4 L 342.8,556.9 L 346.8,554.6 L 350.7,552.4 L 354.7,550.3 L 358.6,548.4 L 362.6,546.6 L 366.5,544.9 L 370.5,543.4 L 374.4,542.0 L 378.4,540.8 L 382.3,539.7 L 386.3,538.8 L 390.2,538.0 L 394.2,537.4 L 398.1,536.9 L 402.1,536.6 L 406.0,536.5 L 410.0,536.5 L 413.9,536.6 L 417.9,536.9 L 421.8,537.4 L 425.8,538.0 L 429.7,538.8 L 433.7,539.7 L 437.6,540.8 L 441.6,542.0 L 445.5,543.4 L 449.5,544.9 L 453.4,546.6 L 457.4,548.4 L 461.3,550.3 L 465.3,552.4 L 469.2,554.6 L 473.2,556.9 L 477.1,559.4 L 481.1,562.0 L 485.0,564.6 L 489.0,567.4 L 492.9,570.3 L 496.9,573.4 L 500.8,576.5 L 504.8,579.7 L 508.7,582.9 L 512.7,586.3 L 516.6,589.8 L 520.6,593.3 L 524.5,596.9 L 528.5,600.5 L 532.4,604.2 L 536.4,608.0 L 540.3,611.8 L 544.3,615.6 L 548.2,619.4 L 552.2,623.3 L 556.1,627.2 L 560.1,631.1 L 564.0,635.1" fill="none" /><path d="M 252.0,640.8 L 255.9,636.7 L 259.9,632.6 L 263.8,628.5 L 267.8,624.4 L 271.7,620.3 L 275.7,616.3 L 279.6,612.3 L 283.6,608.4 L 287.5,604.5 L 291.5,600.7 L 295.4,596.9 L 299.4,593.2 L 303.3,589.6 L 307.3,586.0 L 311.2,582.6 L 315.2,579.2 L 319.1,575.9 L 323.1,572.8 L 327.0,569.7 L 331.0,566.8 L 334.9,563.9 L 338.9,561.2 L 342.8,558.7 L 346.8,556.2 L 350.7,553.9 L 354.7,551.7 L 358.6,549.7 L 362.6,547.8 L 366.5,546.0 L 370.5,544.4 L 374.4,543.0 L 378.4,541.7 L 382.3,540.6 L 386.3,539.6 L 390.2,538.8 L 394.2,538.1 L 398.1,537.6 L 402.1,537.3 L 406.0,537.2 L 410.0,537.2 L 413.9,537.3 L 417.9,537.6 L 421.8,538.1 L 425.8,538.8 L 429.7,539.6 L 433.7,540.6 L 437.6,541.7 L 441.6,543.0 L 445.5,544.4 L 449.5,546.0 L 453.4,547.8 L 457.4,549.7 L 461.3,551.7 L 465.3,553.9 L 469.2,556.2 L 473.2,558.7 L 477.1,561.2 L 481.1,563.9 L 485.0,566.8 L 489.0,569.7 L 492.9,572.8 L 496.9,575.9 L 500.8,579.2 L 504.8,582.6 L 508.7,586.0 L 512.7,589.6 L 516.6,593.2 L 520.6,596.9 L 524.5,600.7 L 528.5,604.5 L 532.4,608.4 L 536.4,612.3 L 540.3,616.3 L 544.3,620.3 L 548.2,624.4 L 552.2,628.5 L 556.1,632.6 L 560.1,636.7 L 564.0,640.8" fill="none" /><path d="M 252.0,646.5 L 255.9,642.2 L 259.9,637.9 L 263.8,633.6 L 267.8,629.3 L 271.7,625.1 L 275.7,620.9 L 279.6,616.7 L 283.6,612.5 L 287.5,608.5 L 291.5,604.4 L 295.4,600.5 L 299.4,596.6 L 303.3,592.8 L 307.3,589.1 L 311.2,585.5 L 315.2,581.9 L 319.1,578.5 L 323.1,575.2 L 327.0,572.0 L 331.0,568.9 L 334.9,565.9 L 338.9,563.1 L 342.8,560.4 L 346.8,557.8 L 350.7,555.4 L 354.7,553.1 L 358.6,551.0 L 362.6,549.0 L 366.5,547.2 L 370.5,545.5 L 374.4,544.0 L 378.4,542.6 L 382.3,541.4 L 386.3,540.4 L 390.2,539.6 L 394.2,538.9 L 398.1,538.4 L 402.1,538.0 L 406.0,537.8 L 410.0,537.8 L 413.9,538.0 L 417.9,538.4 L 421.8,538.9 L 425.8,539.6 L 429.7,540.4 L 433.7,541.4 L 437.6,542.6 L 441.6,544.0 L 445.5,545.5 L 449.5,547.2 L 453.4,549.0 L 457.4,551.0 L 461.3,553.1 L 465.3,555.4 L 469.2,557.8 L 473.2,560.4 L 477.1,563.1 L 481.1,565.9 L 485.0,568.9 L 489.0,572.0 L 492.9,575.2 L 496.9,578.5 L 500.8,581.9 L 504.8,585.5 L 508.7,589.1 L 512.7,592.8 L 516.6,596.6 L 520.6,600.5 L 524.5,604.4 L 528.5,608.5 L 532.4,612.5 L 536.4,616.7 L 540.3,620.9 L 544.3,625.1 L 548.2,629.3 L 552.2,633.6 L 556.1,637.9 L 560.1,642.2 L 564.0,646.5" fill="none" /><path d="M 252.0,652.3 L 255.9,647.8 L 259.9,643.3 L 263.8,638.8 L 267.8,634.3 L 271.7,629.8 L 275.7,625.4 L 279.6,621.0 L 283.6,616.7 L 287.5,612.4 L 291.5,608.2 L 295.4,604.1 L 299.4,600.0 L 303.3,596.1 L 307.3,592.2 L 311.2,588.4 L 315.2,584.7 L 319.1,581.1 L 323.1,577.6 L 327.0,574.3 L 331.0,571.0 L 334.9,567.9 L 338.9,565.0 L 342.8,562.1 L 346.8,559.5 L 350.7,556.9 L 354.7,554.5 L 358.6,552.3 L 362.6,550.2 L 366.5,548.3 L 370.5,546.5 L 374.4,545.0 L 378.4,543.5 L 382.3,542.3 L 386.3,541.2 L 390.2,540.3 L 394.2,539.6 L 398.1,539.1 L 402.1,538.7 L 406.0,538.5 L 410.0,538.5 L 413.9,538.7 L 417.9,539.1 L 421.8,539.6 L 425.8,540.3 L 429.7,541.2 L 433.7,542.3 L 437.6,543.5 L 441.6,545.0 L 445.5,546.5 L 449.5,548.3 L 453.4,550.2 L 457.4,552.3 L 461.3,554.5 L 465.3,556.9 L 469.2,559.5 L 473.2,562.1 L 477.1,565.0 L 481.1,567.9 L 485.0,571.0 L 489.0,574.3 L 492.9,577.6 L 496.9,581.1 L 500.8,584.7 L 504.8,588.4 L 508.7,592.2 L 512.7,596.1 L 516.6,600.0 L 520.6,604.1 L 524.5,608.2 L 528.5,612.4 L 532.4,616.7 L 536.4,621.0 L 540.3,625.4 L 544.3,629.8 L 548.2,634.3 L 552.2,638.8 L 556.1,643.3 L 560.1,647.8 L 564.0,652.3" fill="none" /><path d="M 252.0,658.0 L 255.9,653.3 L 259.9,648.6 L 263.8,643.9 L 267.8,639.2 L 271.7,634.6 L 275.7,630.0 L 279.6,625.4 L 283.6,620.9 L 287.5,616.4 L 291.5,612.0 L 295.4,607.7 L 299.4,603.5 L 303.3,599.3 L 307.3,595.2 L 311.2,591.3 L 315.2,587.4 L 319.1,583.7 L 323.1,580.1 L 327.0,576.6 L 331.0,573.2 L 334.9,569.9 L 338.9,566.8 L 342.8,563.9 L 346.8,561.1 L 350.7,558.4 L 354.7,555.9 L 358.6,553.6 L 362.6,551.4 L 366.5,549.4 L 370.5,547.6 L 374.4,545.9 L 378.4,544.5 L 382.3,543.2 L 386.3,542.0 L 390.2,541.1 L 394.2,540.4 L 398.1,539.8 L 402.1,539.4 L 406.0,539.2 L 410.0,539.2 L 413.9,539.4 L 417.9,539.8 L 421.8,540.4 L 425.8,541.1 L 429.7,542.0 L 433.7,543.2 L 437.6,544.5 L 441.6,545.9 L 445.5,547.6 L 449.5,549.4 L 453.4,551.4 L 457.4,553.6 L 461.3,555.9 L 465.3,558.4 L 469.2,561.1 L 473.2,563.9 L 477.1,566.8 L 481.1,569.9 L 485.0,573.2 L 489.0,576.6 L 492.9,580.1 L 496.9,583.7 L 500.8,587.4 L 504.8,591.3 L 508.7,595.2 L 512.7,599.3 L 516.6,603.5 L 520.6,607.7 L 524.5,612.0 L 528.5,616.4 L 532.4,620.9 L 536.4,625.4 L 540.3,630.0 L 544.3,634.6 L 548.2,639.2 L 552.2,643.9 L 556.1,648.6 L 560.1,653.3 L 564.0,658.0" fill="none" /><path d="M 252.0,663.8 L 255.9,658.9 L 259.9,653.9 L 263.8,649.0 L 267.8,644.2 L 271.7,639.3 L 275.7,634.5 L 279.6,629.7 L 283.6,625.0 L 287.5,620.4 L 291.5,615.8 L 295.4,611.3 L 299.4,606.9 L 303.3,602.6 L 307.3,598.3 L 311.2,594.2 L 315.2,590.2 L 319.1,586.3 L 323.1,582.5 L 327.0,578.8 L 331.0,575.3 L 334.9,571.9 L 338.9,568.7 L 342.8,565.6 L 346.8,562.7 L 350.7,559.9 L 354.7,557.3 L 358.6,554.9 L 362.6,552.6 L 366.5,550.5 L 370.5,548.6 L 374.4,546.9 L 378.4,545.4 L 382.3,544.0 L 386.3,542.8 L 390.2,541.9 L 394.2,541.1 L 398.1,540.5 L 402.1,540.1 L 406.0,539.9 L 410.0,539.9 L 413.9,540.1 L 417.9,540.5 L 421.8,541.1 L 425.8,541.9 L 429.7,542.8 L 433.7,544.0 L 437.6,545.4 L 441.6,546.9 L 445.5,548.6 L 449.5,550.5 L 453.4,552.6 L 457.4,554.9 L 461.3,557.3 L 465.3,559.9 L 469.2,562.7 L 473.2,565.6 L 477.1,568.7 L 481.1,571.9 L 485.0,575.3 L 489.0,578.8 L 492.9,582.5 L 496.9,586.3 L 500.8,590.2 L 504.8,594.2 L 508.7,598.3 L 512.7,602.6 L 516.6,606.9 L 520.6,611.3 L 524.5,615.8 L 528.5,620.4 L 532.4,625.0 L 536.4,629.7 L 540.3,634.5 L 544.3,639.3 L 548.2,644.2 L 552.2,649.0 L 556.1,653.9 L 560.1,658.9 L 564.0,663.8" fill="none" /><path d="M 252.0,669.5 L 255.9,664.4 L 259.9,659.3 L 263.8,654.2 L 267.8,649.1 L 271.7,644.1 L 275.7,639.1 L 279.6,634.1 L 283.6,629.2 L 287.5,624.4 L 291.5,619.6 L 295.4,614.9 L 299.4,610.3 L 303.3,605.8 L 307.3,601.4 L 311.2,597.1 L 315.2,592.9 L 319.1,588.8 L 323.1,584.9 L 327.0,581.1 L 331.0,577.5 L 334.9,573.9 L 338.9,570.6 L 342.8,567.4 L 346.8,564.3 L 350.7,561.4 L 354.7,558.7 L 358.6,556.2 L 362.6,553.8 L 366.5,551.7 L 370.5,549.7 L 374.4,547.9 L 378.4,546.3 L 382.3,544.9 L 386.3,543.7 L 390.2,542.6 L 394.2,541.8 L 398.1,541.2 L 402.1,540.8 L 406.0,540.6 L 410.0,540.6 L 413.9,540.8 L 417.9,541.2 L 421.8,541.8 L 425.8,542.6 L 429.7,543.7 L 433.7,544.9 L 437.6,546.3 L 441.6,547.9 L 445.5,549.7 L 449.5,551.7 L 453.4,553.8 L 457.4,556.2 L 461.3,558.7 L 465.3,561.4 L 469.2,564.3 L 473.2,567.4 L 477.1,570.6 L 481.1,573.9 L 485.0,577.5 L 489.0,581.1 L 492.9,584.9 L 496.9,588.8 L 500.8,592.9 L 504.8,597.1 L 508.7,601.4 L 512.7,605.8 L 516.6,610.3 L 520.6,614.9 L 524.5,619.6 L 528.5,624.4 L 532.4,629.2 L 536.4,634.1 L 540.3,639.1 L 544.3,644.1 L 548.2,649.1 L 552.2,654.2 L 556.1,659.3 L 560.1,664.4 L 564.0,669.5" fill="none" /><path d="M 252.0,675.3 L 255.9,670.0 L 259.9,664.6 L 263.8,659.3 L 267.8,654.1 L 271.7,648.8 L 275.7,643.6 L 279.6,638.5 L 283.6,633.4 L 287.5,628.3 L 291.5,623.4 L 295.4,618.5 L 299.4,613.7 L 303.3,609.0 L 307.3,604.5 L 311.2,600.0 L 315.2,595.7 L 319.1,591.4 L 323.1,587.3 L 327.0,583.4 L 331.0,579.6 L 334.9,575.9 L 338.9,572.4 L 342.8,569.1 L 346.8,565.9 L 350.7,562.9 L 354.7,560.1 L 358.6,557.5 L 362.6,555.0 L 366.5,552.8 L 370.5,550.7 L 374.4,548.9 L 378.4,547.2 L 382.3,545.7 L 386.3,544.5 L 390.2,543.4 L 394.2,542.6 L 398.1,541.9 L 402.1,541.5 L 406.0,541.3 L 410.0,541.3 L 413.9,541.5 L 417.9,541.9 L 421.8,542.6 L 425.8,543.4 L 429.7,544.5 L 433.7,545.7 L 437.6,547.2 L 441.6,548.9 L 445.5,550.7 L 449.5,552.8 L 453.4,555.0 L 457.4,557.5 L 461.3,560.1 L 465.3,562.9 L 469.2,565.9 L 473.2,569.1 L 477.1,572.4 L 481.1,575.9 L 485.0,579.6 L 489.0,583.4 L 492.9,587.3 L 496.9,591.4 L 500.8,595.7 L 504.8,600.0 L 508.7,604.5 L 512.7,609.0 L 516.6,613.7 L 520.6,618.5 L 524.5,623.4 L 528.5,628.3 L 532.4,633.4 L 536.4,638.5 L 540.3,643.6 L 544.3,648.8 L 548.2,654.1 L 552.2,659.3 L 556.1,664.6 L 560.1,670.0 L 564.0,675.3" fill="none" /><path d="M 252.0,681.0 L 255.9,675.5 L 259.9,670.0 L 263.8,664.5 L 267.8,659.0 L 271.7,653.6 L 275.7,648.2 L 279.6,642.8 L 283.6,637.5 L 287.5,632.3 L 291.5,627.2 L 295.4,622.1 L 299.4,617.2 L 303.3,612.3 L 307.3,607.5 L 311.2,602.9 L 315.2,598.4 L 319.1,594.0 L 323.1,589.8 L 327.0,585.7 L 331.0,581.7 L 334.9,577.9 L 338.9,574.3 L 342.8,570.8 L 346.8,567.6 L 350.7,564.4 L 354.7,561.5 L 358.6,558.8 L 362.6,556.3 L 366.5,553.9 L 370.5,551.8 L 374.4,549.8 L 378.4,548.1 L 382.3,546.6 L 386.3,545.3 L 390.2,544.2 L 394.2,543.3 L 398.1,542.7 L 402.1,542.2 L 406.0,542.0 L 410.0,542.0 L 413.9,542.2 L 417.9,542.7 L 421.8,543.3 L 425.8,544.2 L 429.7,545.3 L 433.7,546.6 L 437.6,548.1 L 441.6,549.8 L 445.5,551.8 L 449.5,553.9 L 453.4,556.3 L 457.4,558.8 L 461.3,561.5 L 465.3,564.4 L 469.2,567.6 L 473.2,570.8 L 477.1,574.3 L 481.1,577.9 L 485.0,581.7 L 489.0,585.7 L 492.9,589.8 L 496.9,594.0 L 500.8,598.4 L 504.8,602.9 L 508.7,607.5 L 512.7,612.3 L 516.6,617.2 L 520.6,622.1 L 524.5,627.2 L 528.5,632.3 L 532.4,637.5 L 536.4,642.8 L 540.3,648.2 L 544.3,653.6 L 548.2,659.0 L 552.2,664.5 L 556.1,670.0 L 560.1,675.5 L 564.0,681.0" fill="none" /><path d="M 252.0,686.8 L 255.9,681.0 L 259.9,675.3 L 263.8,669.6 L 267.8,663.9 L 271.7,658.3 L 275.7,652.7 L 279.6,647.2 L 283.6,641.7 L 287.5,636.3 L 291.5,631.0 L 295.4,625.7 L 299.4,620.6 L 303.3,615.5 L 307.3,610.6 L 311.2,605.8 L 315.2,601.1 L 319.1,596.6 L 323.1,592.2 L 327.0,587.9 L 331.0,583.9 L 334.9,579.9 L 338.9,576.2 L 342.8,572.6 L 346.8,569.2 L 350.7,566.0 L 354.7,562.9 L 358.6,560.1 L 362.6,557.5 L 366.5,555.0 L 370.5,552.8 L 374.4,550.8 L 378.4,549.0 L 382.3,547.4 L 386.3,546.1 L 390.2,545.0 L 394.2,544.0 L 398.1,543.4 L 402.1,542.9 L 406.0,542.7 L 410.0,542.7 L 413.9,542.9 L 417.9,543.4 L 421.8,544.0 L 425.8,545.0 L 429.7,546.1 L 433.7,547.4 L 437.6,549.0 L 441.6,550.8 L 445.5,552.8 L 449.5,555.0 L 453.4,557.5 L 457.4,560.1 L 461.3,562.9 L 465.3,566.0 L 469.2,569.2 L 473.2,572.6 L 477.1,576.2 L 481.1,579.9 L 485.0,583.9 L 489.0,587.9 L 492.9,592.2 L 496.9,596.6 L 500.8,601.1 L 504.8,605.8 L 508.7,610.6 L 512.7,615.5 L 516.6,620.6 L 520.6,625.7 L 524.5,631.0 L 528.5,636.3 L 532.4,641.7 L 536.4,647.2 L 540.3,652.7 L 544.3,658.3 L 548.2,663.9 L 552.2,669.6 L 556.1,675.3 L 560.1,681.0 L 564.0,686.8" fill="none" /><path d="M 252.0,692.5 L 255.9,686.6 L 259.9,680.7 L 263.8,674.8 L 267.8,668.9 L 271.7,663.1 L 275.7,657.3 L 279.6,651.5 L 283.6,645.9 L 287.5,640.3 L 291.5,634.7 L 295.4,629.3 L 299.4,624.0 L 303.3,618.8 L 307.3,613.7 L 311.2,608.7 L 315.2,603.9 L 319.1,599.2 L 323.1,594.6 L 327.0,590.2 L 331.0,586.0 L 334.9,581.9 L 338.9,578.0 L 342.8,574.3 L 346.8,570.8 L 350.7,567.5 L 354.7,564.3 L 358.6,561.4 L 362.6,558.7 L 366.5,556.2 L 370.5,553.9 L 374.4,551.8 L 378.4,549.9 L 382.3,548.3 L 386.3,546.9 L 390.2,545.7 L 394.2,544.8 L 398.1,544.1 L 402.1,543.6 L 406.0,543.4 L 410.0,543.4 L 413.9,543.6 L 417.9,544.1 L 421.8,544.8 L 425.8,545.7 L 429.7,546.9 L 433.7,548.3 L 437.6,549.9 L 441.6,551.8 L 445.5,553.9 L 449.5,556.2 L 453.4,558.7 L 457.4,561.4 L 461.3,564.3 L 465.3,567.5 L 469.2,570.8 L 473.2,574.3 L 477.1,578.0 L 481.1,581.9 L 485.0,586.0 L 489.0,590.2 L 492.9,594.6 L 496.9,599.2 L 500.8,603.9 L 504.8,608.7 L 508.7,613.7 L 512.7,618.8 L 516.6,624.0 L 520.6,629.3 L 524.5,634.7 L 528.5,640.3 L 532.4,645.9 L 536.4,651.5 L 540.3,657.3 L 544.3,663.1 L 548.2,668.9 L 552.2,674.8 L 556.1,680.7 L 560.1,686.6 L 564.0,692.5" fill="none" /><path d="M 252.0,698.3 L 255.9,692.1 L 259.9,686.0 L 263.8,679.9 L 267.8,673.8 L 271.7,667.8 L 275.7,661.8 L 279.6,655.9 L 283.6,650.0 L 287.5,644.2 L 291.5,638.5 L 295.4,632.9 L 299.4,627.4 L 303.3,622.0 L 307.3,616.8 L 311.2,611.6 L 315.2,606.6 L 319.1,601.8 L 323.1,597.1 L 327.0,592.5 L 331.0,588.1 L 334.9,583.9 L 338.9,579.9 L 342.8,576.1 L 346.8,572.4 L 350.7,569.0 L 354.7,565.7 L 358.6,562.7 L 362.6,559.9 L 366.5,557.3 L 370.5,554.9 L 374.4,552.8 L 378.4,550.8 L 382.3,549.2 L 386.3,547.7 L 390.2,546.5 L 394.2,545.5 L 398.1,544.8 L 402.1,544.3 L 406.0,544.1 L 410.0,544.1 L 413.9,544.3 L 417.9,544.8 L 421.8,545.5 L 425.8,546.5 L 429.7,547.7 L 433.7,549.2 L 437.6,550.8 L 441.6,552.8 L 445.5,554.9 L 449.5,557.3 L 453.4,559.9 L 457.4,562.7 L 461.3,565.7 L 465.3,569.0 L 469.2,572.4 L 473.2,576.1 L 477.1,579.9 L 481.1,583.9 L 485.0,588.1 L 489.0,592.5 L 492.9,597.1 L 496.9,601.8 L 500.8,606.6 L 504.8,611.6 L 508.7,616.8 L 512.7,622.0 L 516.6,627.4 L 520.6,632.9 L 524.5,638.5 L 528.5,644.2 L 532.4,650.0 L 536.4,655.9 L 540.3,661.8 L 544.3,667.8 L 548.2,673.8 L 552.2,679.9 L 556.1,686.0 L 560.1,692.1 L 564.0,698.3" fill="none" /><path d="M 252.0,704.0 L 255.9,697.7 L 259.9,691.4 L 263.8,685.1 L 267.8,678.8 L 271.7,672.5 L 275.7,666.4 L 279.6,660.2 L 283.6,654.2 L 287.5,648.2 L 291.5,642.3 L 295.4,636.5 L 299.4,630.9 L 303.3,625.3 L 307.3,619.8 L 311.2,614.5 L 315.2,609.4 L 319.1,604.3 L 323.1,599.5 L 327.0,594.8 L 331.0,590.3 L 334.9,585.9 L 338.9,581.8 L 342.8,577.8 L 346.8,574.0 L 350.7,570.5 L 354.7,567.1 L 358.6,564.0 L 362.6,561.1 L 366.5,558.4 L 370.5,556.0 L 374.4,553.7 L 378.4,551.8 L 382.3,550.0 L 386.3,548.5 L 390.2,547.3 L 394.2,546.3 L 398.1,545.5 L 402.1,545.0 L 406.0,544.8 L 410.0,544.8 L 413.9,545.0 L 417.9,545.5 L 421.8,546.3 L 425.8,547.3 L 429.7,548.5 L 433.7,550.0 L 437.6,551.8 L 441.6,553.7 L 445.5,556.0 L 449.5,558.4 L 453.4,561.1 L 457.4,564.0 L 461.3,567.1 L 465.3,570.5 L 469.2,574.0 L 473.2,577.8 L 477.1,581.8 L 481.1,585.9 L 485.0,590.3 L 489.0,594.8 L 492.9,599.5 L 496.9,604.3 L 500.8,609.4 L 504.8,614.5 L 508.7,619.8 L 512.7,625.3 L 516.6,630.9 L 520.6,636.5 L 524.5,642.3 L 528.5,648.2 L 532.4,654.2 L 536.4,660.2 L 540.3,666.4 L 544.3,672.5 L 548.2,678.8 L 552.2,685.1 L 556.1,691.4 L 560.1,697.7 L 564.0,704.0" fill="none" /><path d="M 252.0,709.8 L 255.9,703.2 L 259.9,696.7 L 263.8,690.2 L 267.8,683.7 L 271.7,677.3 L 275.7,670.9 L 279.6,664.6 L 283.6,658.4 L 287.5,652.2 L 291.5,646.1 L 295.4,640.1 L 299.4,634.3 L 303.3,628.5 L 307.3,622.9 L 311.2,617.4 L 315.2,612.1 L 319.1,606.9 L 323.1,601.9 L 327.0,597.1 L 331.0,592.4 L 334.9,587.9 L 338.9,583.6 L 342.8,579.5 L 346.8,575.7 L 350.7,572.0 L 354.7,568.5 L 358.6,565.3 L 362.6,562.3 L 366.5,559.5 L 370.5,557.0 L 374.4,554.7 L 378.4,552.7 L 382.3,550.9 L 386.3,549.3 L 390.2,548.0 L 394.2,547.0 L 398.1,546.2 L 402.1,545.7 L 406.0,545.4 L 410.0,545.4 L 413.9,545.7 L 417.9,546.2 L 421.8,547.0 L 425.8,548.0 L 429.7,549.3 L 433.7,550.9 L 437.6,552.7 L 441.6,554.7 L 445.5,557.0 L 449.5,559.5 L 453.4,562.3 L 457.4,565.3 L 461.3,568.5 L 465.3,572.0 L 469.2,575.7 L 473.2,579.5 L 477.1,583.6 L 481.1,587.9 L 485.0,592.4 L 489.0,597.1 L 492.9,601.9 L 496.9,606.9 L 500.8,612.1 L 504.8,617.4 L 508.7,622.9 L 512.7,628.5 L 516.6,634.3 L 520.6,640.1 L 524.5,646.1 L 528.5,652.2 L 532.4,658.4 L 536.4,664.6 L 540.3,670.9 L 544.3,677.3 L 548.2,683.7 L 552.2,690.2 L 556.1,696.7 L 560.1,703.2 L 564.0,709.8" fill="none" /><path d="M 252.0,715.5 L 255.9,708.8 L 259.9,702.0 L 263.8,695.3 L 267.8,688.7 L 271.7,682.0 L 275.7,675.5 L 279.6,669.0 L 283.6,662.5 L 287.5,656.2 L 291.5,649.9 L 295.4,643.7 L 299.4,637.7 L 303.3,631.8 L 307.3,626.0 L 311.2,620.3 L 315.2,614.8 L 319.1,609.5 L 323.1,604.3 L 327.0,599.3 L 331.0,594.5 L 334.9,589.9 L 338.9,585.5 L 342.8,581.3 L 346.8,577.3 L 350.7,573.5 L 354.7,569.9 L 358.6,566.6 L 362.6,563.5 L 366.5,560.7 L 370.5,558.0 L 374.4,555.7 L 378.4,553.6 L 382.3,551.7 L 386.3,550.1 L 390.2,548.8 L 394.2,547.7 L 398.1,546.9 L 402.1,546.4 L 406.0,546.1 L 410.0,546.1 L 413.9,546.4 L 417.9,546.9 L 421.8,547.7 L 425.8,548.8 L 429.7,550.1 L 433.7,551.7 L 437.6,553.6 L 441.6,555.7 L 445.5,558.0 L 449.5,560.7 L 453.4,563.5 L 457.4,566.6 L 461.3,569.9 L 465.3,573.5 L 469.2,577.3 L 473.2,581.3 L 477.1,585.5 L 481.1,589.9 L 485.0,594.5 L 489.0,599.3 L 492.9,604.3 L 496.9,609.5 L 500.8,614.8 L 504.8,620.3 L 508.7,626.0 L 512.7,631.8 L 516.6,637.7 L 520.6,643.7 L 524.5,649.9 L 528.5,656.2 L 532.4,662.5 L 536.4,669.0 L 540.3,675.5 L 544.3,682.0 L 548.2,688.7 L 552.2,695.3 L 556.1,702.0 L 560.1,708.8 L 564.0,715.5" fill="none" /><path d="M 252.0,721.3 L 255.9,714.3 L 259.9,707.4 L 263.8,700.5 L 267.8,693.6 L 271.7,686.8 L 275.7,680.0 L 279.6,673.3 L 283.6,666.7 L 287.5,660.1 L 291.5,653.7 L 295.4,647.3 L 299.4,641.1 L 303.3,635.0 L 307.3,629.1 L 311.2,623.2 L 315.2,617.6 L 319.1,612.1 L 323.1,606.8 L 327.0,601.6 L 331.0,596.7 L 334.9,591.9 L 338.9,587.4 L 342.8,583.0 L 346.8,578.9 L 350.7,575.0 L 354.7,571.3 L 358.6,567.9 L 362.6,564.7 L 366.5,561.8 L 370.5,559.1 L 374.4,556.7 L 378.4,554.5 L 382.3,552.6 L 386.3,550.9 L 390.2,549.6 L 394.2,548.5 L 398.1,547.7 L 402.1,547.1 L 406.0,546.8 L 410.0,546.8 L 413.9,547.1 L 417.9,547.7 L 421.8,548.5 L 425.8,549.6 L 429.7,550.9 L 433.7,552.6 L 437.6,554.5 L 441.6,556.7 L 445.5,559.1 L 449.5,561.8 L 453.4,564.7 L 457.4,567.9 L 461.3,571.3 L 465.3,575.0 L 469.2,578.9 L 473.2,583.0 L 477.1,587.4 L 481.1,591.9 L 485.0,596.7 L 489.0,601.6 L 492.9,606.8 L 496.9,612.1 L 500.8,617.6 L 504.8,623.2 L 508.7,629.1 L 512.7,635.0 L 516.6,641.1 L 520.6,647.3 L 524.5,653.7 L 528.5,660.1 L 532.4,666.7 L 536.4,673.3 L 540.3,680.0 L 544.3,686.8 L 548.2,693.6 L 552.2,700.5 L 556.1,707.4 L 560.1,714.3 L 564.0,721.3" fill="none" /><path d="M 252.0,727.0 L 255.9,719.9 L 259.9,712.7 L 263.8,705.6 L 267.8,698.6 L 271.7,691.5 L 275.7,684.6 L 279.6,677.7 L 283.6,670.8 L 287.5,664.1 L 291.5,657.5 L 295.4,651.0 L 299.4,644.5 L 303.3,638.3 L 307.3,632.1 L 311.2,626.2 L 315.2,620.3 L 319.1,614.7 L 323.1,609.2 L 327.0,603.9 L 331.0,598.8 L 334.9,593.9 L 338.9,589.2 L 342.8,584.8 L 346.8,580.5 L 350.7,576.5 L 354.7,572.7 L 358.6,569.2 L 362.6,565.9 L 366.5,562.9 L 370.5,560.1 L 374.4,557.6 L 378.4,555.4 L 382.3,553.4 L 386.3,551.8 L 390.2,550.3 L 394.2,549.2 L 398.1,548.4 L 402.1,547.8 L 406.0,547.5 L 410.0,547.5 L 413.9,547.8 L 417.9,548.4 L 421.8,549.2 L 425.8,550.3 L 429.7,551.8 L 433.7,553.4 L 437.6,555.4 L 441.6,557.6 L 445.5,560.1 L 449.5,562.9 L 453.4,565.9 L 457.4,569.2 L 461.3,572.7 L 465.3,576.5 L 469.2,580.5 L 473.2,584.8 L 477.1,589.2 L 481.1,593.9 L 485.0,598.8 L 489.0,603.9 L 492.9,609.2 L 496.9,614.7 L 500.8,620.3 L 504.8,626.2 L 508.7,632.1 L 512.7,638.3 L 516.6,644.5 L 520.6,651.0 L 524.5,657.5 L 528.5,664.1 L 532.4,670.8 L 536.4,677.7 L 540.3,684.6 L 544.3,691.5 L 548.2,698.6 L 552.2,705.6 L 556.1,712.7 L 560.1,719.9 L 564.0,727.0" fill="none" /></g><g id="03_Gold_Thread" inkscape:groupmode="layer" inkscape:label="03_Gold_Thread" stroke="#B8960C" fill="none" stroke-width="1.38" stroke-linecap="round" stroke-linejoin="round"><path d="M 252.0,523.5 L 253.4,522.8 L 254.8,522.0 L 256.3,521.3 L 257.7,520.6 L 259.1,520.0 L 260.5,519.6 L 262.0,519.2 L 263.4,519.0 L 264.8,519.0 L 266.2,519.1 L 267.7,519.4 L 269.1,519.8 L 270.5,520.3 L 271.9,520.9 L 273.4,521.6 L 274.8,522.3 L 276.2,523.1 L 277.6,523.9 L 279.1,524.6 L 280.5,525.3 L 281.9,525.9 L 283.3,526.4 L 284.8,526.7 L 286.2,526.9 L 287.6,527.0 L 289.0,526.9 L 290.5,526.7 L 291.9,526.3 L 293.3,525.8 L 294.7,525.2 L 296.2,524.5 L 297.6,523.8 L 299.0,523.0 L 300.4,522.2 L 301.9,521.5 L 303.3,520.8 L 304.7,520.2 L 306.1,519.7 L 307.6,519.3 L 309.0,519.1 L 310.4,519.0 L 311.8,519.1 L 313.3,519.3 L 314.7,519.6 L 316.1,520.1 L 317.5,520.7 L 319.0,521.4 L 320.4,522.1 L 321.8,522.9 L 323.2,523.7 L 324.7,524.4 L 326.1,525.1 L 327.5,525.7 L 328.9,526.2 L 330.4,526.6 L 331.8,526.9 L 333.2,527.0 L 334.6,527.0 L 336.1,526.8 L 337.5,526.4 L 338.9,526.0 L 340.3,525.4 L 341.8,524.7 L 343.2,524.0 L 344.6,523.2 L 346.0,522.4 L 347.5,521.7 L 348.9,521.0 L 350.3,520.4 L 351.7,519.8 L 353.2,519.4 L 354.6,519.1 L 356.0,519.0 L 357.4,519.0 L 358.8,519.2 L 360.3,519.5 L 361.7,520.0 L 363.1,520.5 L 364.5,521.2 L 366.0,521.9 L 367.4,522.7 L 368.8,523.4 L 370.2,524.2 L 371.7,524.9 L 373.1,525.6 L 374.5,526.1 L 375.9,526.5 L 377.4,526.8 L 378.8,527.0 L 380.2,527.0 L 381.6,526.8 L 383.1,526.5 L 384.5,526.1 L 385.9,525.6 L 387.3,524.9 L 388.8,524.2 L 390.2,523.4 L 391.6,522.7 L 393.0,521.9 L 394.5,521.2 L 395.9,520.5 L 397.3,520.0 L 398.7,519.5 L 400.2,519.2 L 401.6,519.0 L 403.0,519.0 L 404.4,519.1 L 405.9,519.4 L 407.3,519.8 L 408.7,520.4 L 410.1,521.0 L 411.6,521.7 L 413.0,522.4 L 414.4,523.2 L 415.8,524.0 L 417.3,524.7 L 418.7,525.4 L 420.1,526.0 L 421.5,526.4 L 423.0,526.8 L 424.4,527.0 L 425.8,527.0 L 427.2,526.9 L 428.7,526.6 L 430.1,526.2 L 431.5,525.7 L 432.9,525.1 L 434.4,524.4 L 435.8,523.7 L 437.2,522.9 L 438.6,522.1 L 440.1,521.4 L 441.5,520.7 L 442.9,520.1 L 444.3,519.6 L 445.8,519.3 L 447.2,519.1 L 448.6,519.0 L 450.0,519.1 L 451.5,519.3 L 452.9,519.7 L 454.3,520.2 L 455.7,520.8 L 457.2,521.5 L 458.6,522.2 L 460.0,523.0 L 461.4,523.8 L 462.8,524.5 L 464.3,525.2 L 465.7,525.8 L 467.1,526.3 L 468.5,526.7 L 470.0,526.9 L 471.4,527.0 L 472.8,526.9 L 474.2,526.7 L 475.7,526.4 L 477.1,525.9 L 478.5,525.3 L 479.9,524.6 L 481.4,523.9 L 482.8,523.1 L 484.2,522.3 L 485.6,521.6 L 487.1,520.9 L 488.5,520.3 L 489.9,519.8 L 491.3,519.4 L 492.8,519.1 L 494.2,519.0 L 495.6,519.0 L 497.0,519.2 L 498.5,519.6 L 499.9,520.0 L 501.3,520.6 L 502.7,521.3 L 504.2,522.0 L 505.6,522.8 L 507.0,523.6 L 508.4,524.3 L 509.9,525.0 L 511.3,525.6 L 512.7,526.2 L 514.1,526.6 L 515.6,526.9 L 517.0,527.0 L 518.4,527.0 L 519.8,526.8 L 521.3,526.5 L 522.7,526.0 L 524.1,525.5 L 525.5,524.8 L 527.0,524.1 L 528.4,523.3 L 529.8,522.6 L 531.2,521.8 L 532.7,521.1 L 534.1,520.4 L 535.5,519.9 L 536.9,519.5 L 538.4,519.2 L 539.8,519.0 L 541.2,519.0 L 542.6,519.2 L 544.1,519.5 L 545.5,519.9 L 546.9,520.4 L 548.3,521.1 L 549.8,521.8 L 551.2,522.6 L 552.6,523.3 L 554.0,524.1 L 555.5,524.8 L 556.9,525.5 L 558.3,526.0 L 559.7,526.5 L 561.2,526.8 L 562.6,527.0 L 564.0,527.0" fill="none" /><line x1="353.4" y1="524.5" x2="350.3" y2="515.0" /><line x1="367.5" y1="528.4" x2="372.2" y2="519.6" /><line x1="390.1" y1="529.2" x2="385.6" y2="520.2" /><line x1="404.7" y1="524.3" x2="407.0" y2="514.5" /><line x1="423.2" y1="531.9" x2="424.4" y2="521.9" /><line x1="443.8" y1="525.1" x2="439.9" y2="516.0" /><line x1="457.4" y1="527.3" x2="462.2" y2="518.5" /></g></svg>