<?xml version='1.0' encoding='utf-8'?>
<svg xmlns="http://www.w3.org/2000/svg" xmlns:inkscape="http://www.inkscape.org/namespaces/inkscape" viewBox="204 228 408 600"><style>*{vector-effect:non-scaling-stroke}</style><g id="01_Black_Frame" inkscape:groupmode="layer" inkscape:label="01_Black_Frame" stroke="#1A1A1A" fill="none" stroke-width="0.875" stroke-linecap="round" stroke-linejoin="round"><path d="M 250.0,264.0 L 566.0,264.0 Q 576.0,264.0 576.0,274.0 L 576.0,782.0 Q 576.0,792.0 566.0,792.0 L 250.0,792.0 Q 240.0,792.0 240.0,782.0 L 240.0,274.0 Q 240.0,264.0 250.0,264.0" /><path d="M 253.0,270.0 L 563.0,270.0 Q 570.0,270.0 570.0,277.0 L 570.0,779.0 Q 570.0,786.0 563.0,786.0 L 253.0,786.0 Q 246.0,786.0 246.0,779.0 L 246.0,277.0 Q 246.0,270.0 253.0,270.0" /><line x1="259.0" y1="280.0" x2="263.0" y2="280.0" /><line x1="258.1" y1="282.1" x2="260.9" y2="284.9" /><line x1="256.0" y1="283.0" x2="256.0" y2="287.0" /><line x1="253.9" y1="282.1" x2="251.1" y2="284.9" /><line x1="253.0" y1="280.0" x2="249.0" y2="280.0" /><line x1="253.9" y1="277.9" x2="251.1" y2="275.1" /><line x1="256.0" y1="277.0" x2="256.0" y2="273.0" /><line x1="258.1" y1="277.9" x2="260.9" y2="275.1" /><line x1="563.0" y1="280.0" x2="567.0" y2="280.0" /><line x1="562.1" y1="282.1" x2="564.9" y2="284.9" /><line x1="560.0" y1="283.0" x2="560.0" y2="287.0" /><line x1="557.9" y1="282.1" x2="555.1" y2="284.9" /><line x1="557.0" y1="280.0" x2="553.0" y2="280.0" /><line x1="557.9" y1="277.9" x2="555.1" y2="275.1" /><line x1="560.0" y1="277.0" x2="560.0" y2="273.0" /><line x1="562.1" y1="277.9" x2="564.9" y2="275.1" /><line x1="259.0" y1="776.0" x2="263.0" y2="776.0" /><line x1="258.1" y1="778.1" x2="260.9" y2="780.9" /><line x1="256.0" y1="779.0" x2="256.0" y2="783.0" /><line x1="253.9" y1="778.1" x2="251.1" y2="780.9" /><line x1="253.0" y1="776.0" x2="249.0" y2="776.0" /><line x1="253.9" y1="773.9" x2="251.1" y2="771.1" /><line x1="256.0" y1="773.0" x2="256.0" y2="769.0" /><line x1="258.1" y1="773.9" x2="260.9" y2="771.1" /><line x1="563.0" y1="776.0" x2="567.0" y2="776.0" /><line x1="562.1" y1="778.1" x2="564.9" y2="780.9" /><line x1="560.0" y1="779.0" x2="560.0" y2="783.0" /><line x1="557.9" y1="778.1" x2="555.1" y2="780.9" /><line x1="557.0" y1="776.0" x2="553.0" y2="776.0" /><line x1="557.9" y1="773.9" x2="555.1" y2="771.1" /><line x1="560.0" y1="773.0" x2="560.0" y2="769.0" /><line x1="562.1" y1="773.9" x2="564.9" y2="771.1" /><polyline points="409.62,283.20 407.88,282.00 406.88,282.00 405.12,283.60 405.12,288.40 406.88,290.00 407.88,290.00 409.62,288.80" /><polyline points="370.62,297.00 377.12,297.00" /><polyline points="373.88,297.00 373.88,307.00" /><polyline points="378.10,297.00 378.10,307.00" /><polyline points="384.60,297.00 384.60,307.00" /><polyline points="378.10,301.80 384.60,301.80" /><polyline points="391.10,297.00 385.57,297.00 385.57,301.80 389.47,301.80" /><polyline points="385.57,301.80 385.57,307.00 391.10,307.00" /><polyline points="400.52,297.00 400.52,307.00 406.05,307.00" /><polyline points="413.52,297.00 408.00,297.00 408.00,301.80 411.90,301.80" /><polyline points="408.00,301.80 408.00,307.00 413.52,307.00" /><polyline points="415.48,307.00 415.48,297.00 419.05,297.00 421.33,299.50 421.33,304.50 419.05,307.00 415.48,307.00" /><polyline points="428.80,298.50 426.52,297.00 425.22,297.00 422.95,299.00 422.95,305.00 425.22,307.00 426.52,307.00 428.80,305.50 428.80,302.00 426.20,302.00" /><polyline points="435.95,297.00 430.43,297.00 430.43,301.80 434.32,301.80" /><polyline points="430.43,301.80 430.43,307.00 435.95,307.00" /><polyline points="437.90,307.00 437.90,297.00 442.12,297.00 443.75,298.50 443.75,300.20 442.12,301.50 437.90,301.50 443.75,307.00" /><line x1="270.0" y1="312.0" x2="546.0" y2="312.0" /><line x1="270.0" y1="732.0" x2="546.0" y2="732.0" /><polyline points="368.03,740.98 369.99,740.98 370.41,741.65 370.13,742.55 369.15,742.91 370.13,743.45 370.41,744.35 369.99,745.02 368.31,745.02 367.89,744.58" /><polyline points="372.37,740.75 371.25,741.20 370.97,742.10 370.97,743.90 371.25,744.80 372.37,745.25 373.49,744.80 373.77,743.90 373.77,742.10 373.49,741.20 372.37,740.75" /><polyline points="375.59,740.75 374.47,741.20 374.19,742.10 374.19,743.90 374.47,744.80 375.59,745.25 376.71,744.80 376.99,743.90 376.99,742.10 376.71,741.20 375.59,740.75" /><polyline points="383.85,745.25 383.85,740.75 385.67,740.75 386.23,741.29 386.23,742.01 385.67,742.55 383.85,742.55 385.67,742.55 386.23,743.09 386.23,744.71 385.67,745.25 383.85,745.25" /><polyline points="387.07,740.75 387.07,744.12 387.63,745.02 389.31,745.02 389.87,744.12 389.87,740.75" /><polyline points="390.29,745.25 390.29,740.75 391.83,740.75 392.81,741.88 392.81,744.12 391.83,745.25 390.29,745.25" /><polyline points="396.03,741.42 395.05,740.75 394.49,740.75 393.51,741.65 393.51,744.35 394.49,745.25 395.05,745.25 396.03,744.58 396.03,743.00 394.91,743.00" /><polyline points="399.11,740.75 396.73,740.75 396.73,742.91 398.41,742.91" /><polyline points="396.73,742.91 396.73,745.25 399.11,745.25" /><polyline points="399.95,740.75 402.75,740.75" /><polyline points="401.35,740.75 401.35,745.25" /><polyline points="409.61,745.25 409.61,740.75 411.43,740.75 411.99,741.29 411.99,742.01 411.43,742.55 409.61,742.55 411.43,742.55 411.99,743.09 411.99,744.71 411.43,745.25 409.61,745.25" /><polyline points="412.83,745.25 414.23,740.75 415.63,745.25" /><polyline points="413.33,743.67 415.13,743.67" /><polyline points="416.05,740.75 416.05,745.25 418.43,745.25" /><polyline points="419.27,740.75 419.27,745.25 421.65,745.25" /><polyline points="423.89,740.75 422.77,741.20 422.49,742.10 422.49,743.90 422.77,744.80 423.89,745.25 425.01,744.80 425.29,743.90 425.29,742.10 425.01,741.20 423.89,740.75" /><polyline points="425.71,740.75 428.51,740.75" /><polyline points="427.11,740.75 427.11,745.25" /><polyline points="435.37,745.25 435.37,740.75 436.91,740.75 437.89,741.88 437.89,744.12 436.91,745.25 435.37,745.25" /><polyline points="439.99,740.75 438.87,741.20 438.59,742.10 438.59,743.90 438.87,744.80 439.99,745.25 441.11,744.80 441.39,743.90 441.39,742.10 441.11,741.20 439.99,740.75" /><polyline points="444.19,741.20 443.49,740.75 442.65,740.75 441.95,741.42 441.81,742.10 442.23,742.64 443.21,743.00 444.19,743.36 444.61,743.90 444.47,744.58 443.77,745.25 442.79,745.25 442.09,744.80" /><polyline points="447.41,740.75 445.03,740.75 445.03,742.91 446.71,742.91" /><polyline points="445.03,742.91 445.03,745.25 447.41,745.25" /><polyline points="360.50,753.25 356.25,753.25 356.25,756.85 359.25,756.85" /><polyline points="356.25,756.85 356.25,760.75 360.50,760.75" /><polyline points="362.00,753.25 364.50,760.75 367.00,753.25" /><polyline points="372.00,753.25 367.75,753.25 367.75,756.85 370.75,756.85" /><polyline points="367.75,756.85 367.75,760.75 372.00,760.75" /><polyline points="373.50,760.75 373.50,753.25 376.75,753.25 378.00,754.38 378.00,755.65 376.75,756.62 373.50,756.62 378.00,760.75" /><polyline points="379.25,753.25 381.75,757.00 384.25,753.25" /><polyline points="381.75,757.00 381.75,760.75" /><polyline points="385.00,753.25 390.00,753.25" /><polyline points="387.50,753.25 387.50,760.75" /><polyline points="390.75,753.25 390.75,760.75" /><polyline points="395.75,753.25 395.75,760.75" /><polyline points="390.75,756.85 395.75,756.85" /><polyline points="399.00,753.25 399.00,760.75" /><polyline points="402.25,760.75 402.25,753.25 407.25,760.75 407.25,753.25" /><polyline points="412.50,754.38 410.75,753.25 409.75,753.25 408.00,754.75 408.00,759.25 409.75,760.75 410.75,760.75 412.50,759.62 412.50,757.00 410.50,757.00" /><polyline points="424.00,754.38 422.25,753.25 421.25,753.25 419.50,754.75 419.50,759.25 421.25,760.75 422.25,760.75 424.00,759.62" /><polyline points="427.75,753.25 425.75,754.00 425.25,755.50 425.25,758.50 425.75,760.00 427.75,760.75 429.75,760.00 430.25,758.50 430.25,755.50 429.75,754.00 427.75,753.25" /><polyline points="431.00,753.25 431.00,758.88 432.00,760.38 435.00,760.38 436.00,758.88 436.00,753.25" /><polyline points="436.75,760.75 436.75,753.25 441.75,760.75 441.75,753.25" /><polyline points="442.50,753.25 447.50,753.25" /><polyline points="445.00,753.25 445.00,760.75" /><polyline points="452.50,753.25 448.25,753.25 448.25,756.85 451.25,756.85" /><polyline points="448.25,756.85 448.25,760.75 452.50,760.75" /><polyline points="454.00,760.75 454.00,753.25 456.75,753.25 458.50,755.12 458.50,758.88 456.75,760.75 454.00,760.75" /><polyline points="364.88,773.75 364.88,766.25 369.88,773.75 369.88,766.25" /><polyline points="373.12,766.25 371.12,767.00 370.62,768.50 370.62,771.50 371.12,773.00 373.12,773.75 375.12,773.00 375.62,771.50 375.62,768.50 375.12,767.00 373.12,766.25" /><polyline points="376.38,766.25 381.38,766.25" /><polyline points="378.88,766.25 378.88,773.75" /><polyline points="382.12,766.25 382.12,773.75" /><polyline points="387.12,766.25 387.12,773.75" /><polyline points="382.12,769.85 387.12,769.85" /><polyline points="390.38,766.25 390.38,773.75" /><polyline points="393.62,773.75 393.62,766.25 398.62,773.75 398.62,766.25" /><polyline points="403.88,767.38 402.12,766.25 401.12,766.25 399.38,767.75 399.38,772.25 401.12,773.75 402.12,773.75 403.88,772.62 403.88,770.00 401.88,770.00" /><polyline points="410.88,773.75 413.38,766.25 415.88,773.75" /><polyline points="411.77,771.12 414.98,771.12" /><polyline points="416.62,773.75 416.62,766.25 419.38,766.25 421.12,768.12 421.12,771.88 419.38,773.75 416.62,773.75" /><polyline points="422.38,773.75 422.38,766.25 425.12,766.25 426.88,768.12 426.88,771.88 425.12,773.75 422.38,773.75" /><polyline points="432.38,767.00 431.12,766.25 429.62,766.25 428.38,767.38 428.12,768.50 428.88,769.40 430.62,770.00 432.38,770.60 433.12,771.50 432.88,772.62 431.62,773.75 429.88,773.75 428.62,773.00" /><polyline points="439.62,766.25 439.62,771.88 440.62,773.38 443.62,773.38 444.62,771.88 444.62,766.25" /><polyline points="445.38,773.75 445.38,766.25 448.62,766.25 449.88,767.38 449.88,768.65 448.62,769.62 445.38,769.62" /><polyline points="389.36,779.50 389.36,784.50" /><polyline points="391.44,779.50 393.04,784.50 394.64,779.50" /><polyline points="396.72,784.00 396.72,784.25" /><polyline points="398.80,779.50 402.00,784.50" /><polyline points="402.00,779.50 398.80,784.50" /><polyline points="404.08,784.00 404.08,784.25" /><polyline points="406.16,784.50 406.16,779.50 407.76,782.25 409.36,779.50 409.36,784.50" /><polyline points="409.84,784.50 409.84,779.50 411.44,782.25 413.04,779.50 413.04,784.50" /><polyline points="413.52,779.50 416.72,784.50" /><polyline points="416.72,779.50 413.52,784.50" /><polyline points="417.20,779.50 420.40,784.50" /><polyline points="420.40,779.50 417.20,784.50" /><polyline points="420.88,779.50 422.48,784.50 424.08,779.50" /><polyline points="426.16,779.50 426.16,784.50" /></g><g id="02_Teal_Rules" inkscape:groupmode="layer" inkscape:label="02_Teal_Rules" stroke="#3A7A7A" fill="none" stroke-width="0.625" stroke-linecap="round" stroke-linejoin="round"><line x1="255.0" y1="330.3" x2="561.0" y2="330.3" /><line x1="255.0" y1="341.7" x2="408.7" y2="341.7" /><line x1="415.1" y1="341.7" x2="561.0" y2="341.7" /><line x1="255.0" y1="353.0" x2="561.0" y2="353.0" /><line x1="255.0" y1="364.3" x2="561.0" y2="364.3" /><line x1="255.0" y1="375.7" x2="491.9" y2="375.7" /><line x1="499.5" y1="375.7" x2="561.0" y2="375.7" /><line x1="255.0" y1="387.0" x2="482.3" y2="387.0" /><line x1="490.5" y1="387.0" x2="561.0" y2="387.0" /><line x1="255.0" y1="398.3" x2="561.0" y2="398.3" /><line x1="255.0" y1="409.7" x2="561.0" y2="409.7" /><line x1="255.0" y1="421.0" x2="561.0" y2="421.0" /><line x1="255.0" y1="432.3" x2="561.0" y2="432.3" /><line x1="255.0" y1="443.7" x2="501.8" y2="443.7" /><line x1="510.5" y1="443.7" x2="561.0" y2="443.7" /><line x1="255.0" y1="455.0" x2="377.6" y2="455.0" /><line x1="385.4" y1="455.0" x2="405.1" y2="455.0" /><line x1="412.6" y1="455.0" x2="555.7" y2="455.0" /><line x1="255.0" y1="466.3" x2="282.6" y2="466.3" /><line x1="290.6" y1="466.3" x2="555.9" y2="466.3" /><line x1="255.0" y1="477.7" x2="301.7" y2="477.7" /><line x1="313.7" y1="477.7" x2="419.3" y2="477.7" /><line x1="426.8" y1="477.7" x2="472.1" y2="477.7" /><line x1="479.9" y1="477.7" x2="561.0" y2="477.7" /><line x1="255.0" y1="489.0" x2="286.8" y2="489.0" /><line x1="302.5" y1="489.0" x2="369.2" y2="489.0" /><line x1="379.2" y1="489.0" x2="424.1" y2="489.0" /><line x1="439.4" y1="489.0" x2="561.0" y2="489.0" /><line x1="255.0" y1="500.3" x2="409.9" y2="500.3" /><line x1="424.2" y1="500.3" x2="437.6" y2="500.3" /><line x1="448.4" y1="500.3" x2="561.0" y2="500.3" /><line x1="255.0" y1="511.7" x2="336.6" y2="511.7" /><line x1="346.6" y1="511.7" x2="413.3" y2="511.7" /><line x1="417.7" y1="511.7" x2="534.2" y2="511.7" /><line x1="545.0" y1="511.7" x2="561.0" y2="511.7" /><line x1="255.0" y1="523.0" x2="486.7" y2="523.0" /><line x1="503.0" y1="523.0" x2="561.0" y2="523.0" /><line x1="255.0" y1="534.3" x2="302.2" y2="534.3" /><line x1="320.0" y1="534.3" x2="414.9" y2="534.3" /><line x1="429.4" y1="534.3" x2="472.3" y2="534.3" /><line x1="483.0" y1="534.3" x2="561.0" y2="534.3" /><line x1="255.0" y1="545.7" x2="445.5" y2="545.7" /><line x1="456.9" y1="545.7" x2="561.0" y2="545.7" /><line x1="255.0" y1="557.0" x2="471.5" y2="557.0" /><line x1="491.8" y1="557.0" x2="549.7" y2="557.0" /><line x1="558.0" y1="557.0" x2="561.0" y2="557.0" /><line x1="255.0" y1="568.3" x2="339.6" y2="568.3" /><line x1="344.2" y1="568.3" x2="388.2" y2="568.3" /><line x1="397.4" y1="568.3" x2="401.8" y2="568.3" /><line x1="421.3" y1="568.3" x2="454.1" y2="568.3" /><line x1="467.7" y1="568.3" x2="496.7" y2="568.3" /><line x1="509.6" y1="568.3" x2="561.0" y2="568.3" /><line x1="255.0" y1="579.7" x2="270.0" y2="579.7" /><line x1="279.2" y1="579.7" x2="366.5" y2="579.7" /><line x1="374.2" y1="579.7" x2="388.5" y2="579.7" /><line x1="404.6" y1="579.7" x2="465.0" y2="579.7" /><line x1="477.5" y1="579.7" x2="486.9" y2="579.7" /><line x1="518.8" y1="579.7" x2="561.0" y2="579.7" /><line x1="255.0" y1="591.0" x2="279.0" y2="591.0" /><line x1="288.1" y1="591.0" x2="412.5" y2="591.0" /><line x1="425.0" y1="591.0" x2="464.0" y2="591.0" /><line x1="482.9" y1="591.0" x2="509.4" y2="591.0" /><line x1="522.4" y1="591.0" x2="531.4" y2="591.0" /><line x1="537.2" y1="591.0" x2="545.7" y2="591.0" /><line x1="255.0" y1="602.3" x2="262.9" y2="602.3" /><line x1="266.3" y1="602.3" x2="276.1" y2="602.3" /><line x1="279.9" y1="602.3" x2="282.9" y2="602.3" /><line x1="288.2" y1="602.3" x2="296.4" y2="602.3" /><line x1="303.0" y1="602.3" x2="313.8" y2="602.3" /><line x1="325.2" y1="602.3" x2="369.6" y2="602.3" /><line x1="377.4" y1="602.3" x2="384.6" y2="602.3" /><line x1="387.3" y1="602.3" x2="393.6" y2="602.3" /><line x1="408.2" y1="602.3" x2="415.0" y2="602.3" /><line x1="417.8" y1="602.3" x2="422.0" y2="602.3" /><line x1="427.9" y1="602.3" x2="436.2" y2="602.3" /><line x1="440.7" y1="602.3" x2="447.3" y2="602.3" /><line x1="450.0" y1="602.3" x2="460.3" y2="602.3" /><line x1="464.1" y1="602.3" x2="475.8" y2="602.3" /><line x1="479.7" y1="602.3" x2="483.4" y2="602.3" /><line x1="489.5" y1="602.3" x2="498.4" y2="602.3" /><line x1="505.0" y1="602.3" x2="507.6" y2="602.3" /><line x1="520.4" y1="602.3" x2="531.3" y2="602.3" /><line x1="537.1" y1="602.3" x2="546.2" y2="602.3" /><line x1="550.5" y1="602.3" x2="561.0" y2="602.3" /><line x1="255.0" y1="613.7" x2="262.9" y2="613.7" /><line x1="269.1" y1="613.7" x2="276.2" y2="613.7" /><line x1="292.6" y1="613.7" x2="305.6" y2="613.7" /><line x1="340.5" y1="613.7" x2="349.9" y2="613.7" /><line x1="356.2" y1="613.7" x2="360.4" y2="613.7" /><line x1="365.1" y1="613.7" x2="375.1" y2="613.7" /><line x1="379.7" y1="613.7" x2="388.3" y2="613.7" /><line x1="399.1" y1="613.7" x2="429.2" y2="613.7" /><line x1="454.8" y1="613.7" x2="461.6" y2="613.7" /><line x1="465.7" y1="613.7" x2="469.4" y2="613.7" /><line x1="472.9" y1="613.7" x2="479.0" y2="613.7" /><line x1="482.3" y1="613.7" x2="489.8" y2="613.7" /><line x1="495.7" y1="613.7" x2="502.4" y2="613.7" /><line x1="506.8" y1="613.7" x2="512.7" y2="613.7" /><line x1="517.1" y1="613.7" x2="521.2" y2="613.7" /><line x1="527.2" y1="613.7" x2="537.3" y2="613.7" /><line x1="543.4" y1="613.7" x2="554.1" y2="613.7" /><line x1="557.2" y1="613.7" x2="561.0" y2="613.7" /><line x1="255.0" y1="625.0" x2="264.4" y2="625.0" /><line x1="269.2" y1="625.0" x2="277.3" y2="625.0" /><line x1="280.4" y1="625.0" x2="286.1" y2="625.0" /><line x1="289.4" y1="625.0" x2="297.4" y2="625.0" /><line x1="299.9" y1="625.0" x2="305.3" y2="625.0" /><line x1="322.1" y1="625.0" x2="331.3" y2="625.0" /><line x1="337.1" y1="625.0" x2="346.6" y2="625.0" /><line x1="349.5" y1="625.0" x2="358.2" y2="625.0" /><line x1="362.7" y1="625.0" x2="368.2" y2="625.0" /><line x1="374.4" y1="625.0" x2="380.0" y2="625.0" /><line x1="401.1" y1="625.0" x2="404.6" y2="625.0" /><line x1="408.7" y1="625.0" x2="419.8" y2="625.0" /><line x1="425.7" y1="625.0" x2="429.4" y2="625.0" /><line x1="444.6" y1="625.0" x2="447.8" y2="625.0" /><line x1="450.4" y1="625.0" x2="459.6" y2="625.0" /><line x1="464.5" y1="625.0" x2="475.9" y2="625.0" /><line x1="479.7" y1="625.0" x2="489.7" y2="625.0" /><line x1="494.7" y1="625.0" x2="503.6" y2="625.0" /><line x1="508.7" y1="625.0" x2="511.5" y2="625.0" /><line x1="529.4" y1="625.0" x2="536.6" y2="625.0" /><line x1="555.8" y1="625.0" x2="561.0" y2="625.0" /><line x1="255.0" y1="636.3" x2="266.1" y2="636.3" /><line x1="270.8" y1="636.3" x2="276.9" y2="636.3" /><line x1="281.7" y1="636.3" x2="291.2" y2="636.3" /><line x1="293.8" y1="636.3" x2="296.2" y2="636.3" /><line x1="316.7" y1="636.3" x2="322.9" y2="636.3" /><line x1="328.1" y1="636.3" x2="337.0" y2="636.3" /><line x1="339.2" y1="636.3" x2="347.4" y2="636.3" /><line x1="351.1" y1="636.3" x2="357.6" y2="636.3" /><line x1="360.8" y1="636.3" x2="365.5" y2="636.3" /><line x1="393.8" y1="636.3" x2="401.7" y2="636.3" /><line x1="407.0" y1="636.3" x2="418.4" y2="636.3" /><line x1="423.8" y1="636.3" x2="430.4" y2="636.3" /><line x1="433.7" y1="636.3" x2="438.0" y2="636.3" /><line x1="440.1" y1="636.3" x2="445.6" y2="636.3" /><line x1="450.0" y1="636.3" x2="455.4" y2="636.3" /><line x1="458.9" y1="636.3" x2="461.7" y2="636.3" /><line x1="476.0" y1="636.3" x2="543.7" y2="636.3" /><line x1="255.0" y1="647.7" x2="264.7" y2="647.7" /><line x1="294.4" y1="647.7" x2="325.7" y2="647.7" /><line x1="337.2" y1="647.7" x2="342.6" y2="647.7" /><line x1="348.9" y1="647.7" x2="355.3" y2="647.7" /><line x1="376.4" y1="647.7" x2="480.0" y2="647.7" /><line x1="485.2" y1="647.7" x2="503.8" y2="647.7" /><line x1="526.7" y1="647.7" x2="531.1" y2="647.7" /><line x1="535.2" y1="647.7" x2="542.6" y2="647.7" /><line x1="544.6" y1="647.7" x2="550.8" y2="647.7" /><line x1="557.6" y1="647.7" x2="561.0" y2="647.7" /><line x1="255.0" y1="659.0" x2="300.8" y2="659.0" /><line x1="321.7" y1="659.0" x2="326.6" y2="659.0" /><line x1="332.9" y1="659.0" x2="341.1" y2="659.0" /><line x1="346.0" y1="659.0" x2="357.6" y2="659.0" /><line x1="361.5" y1="659.0" x2="370.3" y2="659.0" /><line x1="391.0" y1="659.0" x2="449.2" y2="659.0" /><line x1="455.1" y1="659.0" x2="462.7" y2="659.0" /><line x1="465.1" y1="659.0" x2="474.7" y2="659.0" /><line x1="478.4" y1="659.0" x2="483.7" y2="659.0" /><line x1="485.9" y1="659.0" x2="494.3" y2="659.0" /><line x1="500.2" y1="659.0" x2="504.7" y2="659.0" /><line x1="508.1" y1="659.0" x2="516.0" y2="659.0" /><line x1="519.8" y1="659.0" x2="531.5" y2="659.0" /><line x1="534.5" y1="659.0" x2="544.2" y2="659.0" /><line x1="546.2" y1="659.0" x2="554.7" y2="659.0" /><line x1="559.1" y1="659.0" x2="561.0" y2="659.0" /><line x1="255.0" y1="670.3" x2="308.5" y2="670.3" /><line x1="331.6" y1="670.3" x2="343.5" y2="670.3" /><line x1="347.9" y1="670.3" x2="358.8" y2="670.3" /><line x1="364.4" y1="670.3" x2="370.8" y2="670.3" /><line x1="383.5" y1="670.3" x2="412.4" y2="670.3" /><line x1="437.1" y1="670.3" x2="450.4" y2="670.3" /><line x1="454.5" y1="670.3" x2="465.7" y2="670.3" /><line x1="468.3" y1="670.3" x2="476.0" y2="670.3" /><line x1="482.1" y1="670.3" x2="491.3" y2="670.3" /><line x1="495.5" y1="670.3" x2="503.8" y2="670.3" /><line x1="506.2" y1="670.3" x2="516.2" y2="670.3" /><line x1="518.7" y1="670.3" x2="526.1" y2="670.3" /><line x1="529.7" y1="670.3" x2="539.5" y2="670.3" /><line x1="542.6" y1="670.3" x2="548.5" y2="670.3" /><line x1="553.0" y1="670.3" x2="559.0" y2="670.3" /><line x1="255.0" y1="681.7" x2="305.7" y2="681.7" /><line x1="327.6" y1="681.7" x2="333.0" y2="681.7" /><line x1="339.2" y1="681.7" x2="345.0" y2="681.7" /><line x1="351.2" y1="681.7" x2="358.2" y2="681.7" /><line x1="361.0" y1="681.7" x2="369.6" y2="681.7" /><line x1="372.8" y1="681.7" x2="379.3" y2="681.7" /><line x1="387.6" y1="681.7" x2="393.2" y2="681.7" /><line x1="397.5" y1="681.7" x2="404.1" y2="681.7" /><line x1="406.2" y1="681.7" x2="415.7" y2="681.7" /><line x1="421.0" y1="681.7" x2="427.1" y2="681.7" /><line x1="432.5" y1="681.7" x2="443.8" y2="681.7" /><line x1="450.3" y1="681.7" x2="460.9" y2="681.7" /><line x1="476.4" y1="681.7" x2="493.0" y2="681.7" /><line x1="508.0" y1="681.7" x2="512.9" y2="681.7" /><line x1="516.6" y1="681.7" x2="522.6" y2="681.7" /><line x1="529.2" y1="681.7" x2="538.7" y2="681.7" /><line x1="540.8" y1="681.7" x2="548.8" y2="681.7" /><line x1="552.1" y1="681.7" x2="558.1" y2="681.7" /><line x1="255.0" y1="693.0" x2="263.5" y2="693.0" /><line x1="286.2" y1="693.0" x2="294.8" y2="693.0" /><line x1="298.6" y1="693.0" x2="306.6" y2="693.0" /><line x1="309.6" y1="693.0" x2="319.5" y2="693.0" /><line x1="326.4" y1="693.0" x2="330.8" y2="693.0" /><line x1="337.7" y1="693.0" x2="349.2" y2="693.0" /><line x1="352.2" y1="693.0" x2="361.3" y2="693.0" /><line x1="366.8" y1="693.0" x2="370.5" y2="693.0" /><line x1="374.6" y1="693.0" x2="382.3" y2="693.0" /><line x1="387.3" y1="693.0" x2="391.5" y2="693.0" /><line x1="393.6" y1="693.0" x2="405.1" y2="693.0" /><line x1="407.3" y1="693.0" x2="415.2" y2="693.0" /><line x1="419.8" y1="693.0" x2="424.9" y2="693.0" /><line x1="431.6" y1="693.0" x2="438.8" y2="693.0" /><line x1="444.2" y1="693.0" x2="448.3" y2="693.0" /><line x1="468.7" y1="693.0" x2="476.1" y2="693.0" /><line x1="479.7" y1="693.0" x2="484.9" y2="693.0" /><line x1="527.9" y1="693.0" x2="538.8" y2="693.0" /><line x1="550.9" y1="693.0" x2="561.0" y2="693.0" /><line x1="255.0" y1="704.3" x2="318.8" y2="704.3" /><line x1="330.0" y1="704.3" x2="335.1" y2="704.3" /><line x1="358.3" y1="704.3" x2="381.6" y2="704.3" /><line x1="387.3" y1="704.3" x2="509.3" y2="704.3" /><line x1="523.4" y1="704.3" x2="561.0" y2="704.3" /><line x1="255.0" y1="715.7" x2="283.1" y2="715.7" /><line x1="301.7" y1="715.7" x2="436.4" y2="715.7" /><line x1="453.1" y1="715.7" x2="455.5" y2="715.7" /><line x1="468.9" y1="715.7" x2="512.5" y2="715.7" /><line x1="541.8" y1="715.7" x2="550.4" y2="715.7" /></g><g id="03_Gold_Tally" inkscape:groupmode="layer" inkscape:label="03_Gold_Tally" stroke="#B8960C" fill="none" stroke-width="1" stroke-linecap="round" stroke-linejoin="round"><line x1="466.3" y1="534.3" x2="466.3" y2="539.7" /><line x1="441.3" y1="629.2" x2="441.3" y2="633.6" /><line x1="409.1" y1="488.6" x2="409.1" y2="491.6" /><line x1="342.8" y1="498.2" x2="342.8" y2="502.5" /><line x1="373.2" y1="669.2" x2="373.2" y2="675.5" /><line x1="507.9" y1="663.4" x2="507.9" y2="668.1" /><line x1="335.8" y1="584.1" x2="335.8" y2="589.4" /><line x1="432.9" y1="678.1" x2="432.9" y2="681.7" /><line x1="365.4" y1="688.7" x2="365.4" y2="693.4" /><line x1="462.1" y1="693.9" x2="462.1" y2="698.4" /><line x1="489.8" y1="574.3" x2="489.8" y2="577.9" /><line x1="389.1" y1="502.1" x2="389.1" y2="506.1" /><line x1="522.9" y1="590.2" x2="522.9" y2="593.5" /><line x1="305.9" y1="608.7" x2="305.9" y2="615.2" /><line x1="433.2" y1="636.5" x2="433.2" y2="641.5" /><line x1="391.4" y1="597.8" x2="391.4" y2="602.9" /><line x1="372.3" y1="703.2" x2="372.3" y2="709.3" /><line x1="512.6" y1="492.7" x2="512.6" y2="498.5" /><line x1="342.8" y1="532.2" x2="342.8" y2="536.4" /><line x1="382.7" y1="498.2" x2="382.7" y2="504.7" /><line x1="424.8" y1="696.8" x2="424.8" y2="702.0" /><line x1="485.6" y1="592.4" x2="485.6" y2="599.2" /><line x1="280.9" y1="652.9" x2="280.9" y2="657.0" /><line x1="500.3" y1="514.9" x2="500.3" y2="519.3" /><line x1="415.3" y1="548.9" x2="415.3" y2="552.1" /><line x1="404.5" y1="544.1" x2="404.5" y2="550.3" /><line x1="342.5" y1="562.2" x2="342.5" y2="567.7" /><line x1="421.9" y1="699.2" x2="421.9" y2="705.5" /><line x1="430.7" y1="678.1" x2="430.7" y2="682.6" /><line x1="443.8" y1="656.8" x2="443.8" y2="663.5" /><line x1="349.0" y1="678.0" x2="349.0" y2="684.0" /><line x1="457.5" y1="536.9" x2="457.5" y2="543.2" /><line x1="370.7" y1="585.7" x2="370.7" y2="588.8" /><line x1="421.5" y1="566.9" x2="421.5" y2="573.2" /><line x1="437.1" y1="466.7" x2="437.1" y2="473.6" /><line x1="519.8" y1="544.3" x2="519.8" y2="550.2" /><line x1="415.1" y1="540.9" x2="415.1" y2="545.7" /><line x1="482.4" y1="508.8" x2="482.4" y2="514.2" /><line x1="490.8" y1="475.3" x2="490.8" y2="479.4" /><line x1="326.2" y1="523.8" x2="326.2" y2="527.6" /><line x1="295.8" y1="596.3" x2="295.8" y2="602.9" /><line x1="396.4" y1="507.6" x2="396.4" y2="513.2" /><line x1="430.0" y1="500.1" x2="430.0" y2="506.6" /><line x1="404.5" y1="523.0" x2="404.5" y2="526.9" /><line x1="377.9" y1="542.5" x2="377.9" y2="547.1" /><line x1="331.4" y1="513.3" x2="331.4" y2="519.6" /><line x1="512.7" y1="701.6" x2="512.7" y2="705.2" /><line x1="408.0" y1="660.5" x2="408.0" y2="665.5" /><line x1="408.9" y1="567.9" x2="408.9" y2="572.7" /><line x1="426.0" y1="551.8" x2="426.0" y2="555.7" /><line x1="322.1" y1="636.0" x2="322.1" y2="642.0" /><line x1="401.7" y1="469.9" x2="401.7" y2="475.5" /><line x1="426.3" y1="595.8" x2="426.3" y2="600.4" /><line x1="440.9" y1="515.7" x2="440.9" y2="521.7" /><line x1="397.5" y1="492.4" x2="397.5" y2="499.3" /><line x1="389.7" y1="487.3" x2="389.7" y2="490.6" /><line x1="361.9" y1="452.4" x2="361.9" y2="459.4" /><line x1="441.4" y1="513.4" x2="441.4" y2="517.5" /><line x1="323.6" y1="606.9" x2="323.6" y2="611.6" /><line x1="280.1" y1="402.4" x2="280.1" y2="406.3" /><line x1="415.4" y1="464.6" x2="415.4" y2="467.8" /><line x1="500.8" y1="593.0" x2="500.8" y2="598.2" /><line x1="434.9" y1="644.2" x2="434.9" y2="647.7" /><line x1="314.9" y1="509.8" x2="314.9" y2="515.2" /><line x1="415.7" y1="647.9" x2="415.7" y2="654.6" /><line x1="394.0" y1="462.9" x2="394.0" y2="469.1" /><line x1="458.9" y1="561.6" x2="458.9" y2="565.3" /><line x1="481.7" y1="629.3" x2="481.7" y2="633.1" /><line x1="439.4" y1="489.5" x2="439.4" y2="495.9" /><line x1="418.8" y1="616.3" x2="418.8" y2="621.4" /><line x1="476.4" y1="629.3" x2="476.4" y2="636.3" /><line x1="469.9" y1="553.8" x2="469.9" y2="558.3" /><line x1="353.4" y1="604.8" x2="353.4" y2="610.1" /><line x1="456.9" y1="642.0" x2="456.9" y2="646.6" /><line x1="421.9" y1="664.8" x2="421.9" y2="668.2" /><line x1="365.5" y1="406.9" x2="365.5" y2="411.9" /><line x1="479.0" y1="577.0" x2="479.0" y2="582.0" /><line x1="419.8" y1="622.0" x2="419.8" y2="626.5" /><line x1="334.6" y1="668.1" x2="334.6" y2="675.0" /><line x1="260.0" y1="403.1" x2="260.0" y2="408.9" /><line x1="281.9" y1="606.6" x2="281.9" y2="610.4" /><line x1="313.6" y1="484.1" x2="313.6" y2="487.2" /><line x1="461.2" y1="487.3" x2="461.2" y2="490.6" /><line x1="470.4" y1="478.7" x2="470.4" y2="482.3" /><line x1="439.3" y1="603.9" x2="439.3" y2="607.4" /><line x1="404.8" y1="639.9" x2="404.8" y2="643.1" /><line x1="314.0" y1="536.5" x2="314.0" y2="542.7" /><line x1="456.7" y1="647.5" x2="456.7" y2="651.7" /><line x1="277.4" y1="599.3" x2="277.4" y2="603.7" /><line x1="472.0" y1="525.1" x2="472.0" y2="529.7" /><line x1="503.3" y1="569.3" x2="503.3" y2="574.0" /><line x1="390.1" y1="661.5" x2="390.1" y2="665.9" /><line x1="483.1" y1="436.3" x2="483.1" y2="441.4" /><line x1="380.9" y1="672.2" x2="380.9" y2="677.5" /><line x1="432.7" y1="611.0" x2="432.7" y2="615.1" /><line x1="426.6" y1="505.1" x2="426.6" y2="510.1" /><line x1="407.1" y1="413.5" x2="407.1" y2="417.1" /><line x1="338.0" y1="646.4" x2="338.0" y2="650.2" /><line x1="435.1" y1="657.6" x2="435.1" y2="661.9" /><line x1="329.2" y1="505.3" x2="329.2" y2="509.6" /><line x1="351.1" y1="684.6" x2="351.1" y2="688.9" /><line x1="497.3" y1="569.6" x2="497.3" y2="574.7" /><line x1="443.4" y1="539.6" x2="443.4" y2="545.4" /><line x1="500.6" y1="622.4" x2="500.6" y2="627.8" /><line x1="464.5" y1="658.1" x2="464.5" y2="661.6" /><line x1="404.5" y1="608.4" x2="404.5" y2="611.4" /><line x1="352.3" y1="626.9" x2="352.3" y2="630.7" /><line x1="361.5" y1="625.1" x2="361.5" y2="628.8" /><line x1="324.7" y1="573.9" x2="324.7" y2="580.1" /><line x1="503.3" y1="656.2" x2="503.3" y2="662.5" /><line x1="451.7" y1="466.2" x2="451.7" y2="469.9" /><line x1="380.6" y1="527.7" x2="380.6" y2="533.9" /><line x1="367.7" y1="637.1" x2="367.7" y2="643.5" /><line x1="385.3" y1="520.6" x2="385.3" y2="526.2" /><line x1="303.3" y1="491.7" x2="303.3" y2="497.0" /><line x1="260.0" y1="462.2" x2="260.0" y2="466.6" /><line x1="357.7" y1="484.8" x2="357.7" y2="490.2" /><line x1="353.3" y1="483.1" x2="353.3" y2="487.2" /><line x1="439.5" y1="662.5" x2="439.5" y2="666.9" /><line x1="426.5" y1="443.8" x2="426.5" y2="449.5" /><line x1="499.4" y1="682.8" x2="499.4" y2="686.8" /><line x1="408.9" y1="683.3" x2="408.9" y2="690.0" /><line x1="404.2" y1="619.9" x2="404.2" y2="624.2" /><line x1="362.9" y1="546.8" x2="362.9" y2="550.2" /><line x1="278.7" y1="564.9" x2="278.7" y2="570.3" /><line x1="469.5" y1="686.4" x2="469.5" y2="690.5" /><line x1="416.4" y1="562.6" x2="416.4" y2="567.3" /><line x1="322.0" y1="677.8" x2="322.0" y2="683.0" /><line x1="260.0" y1="591.1" x2="260.0" y2="594.9" /><line x1="346.8" y1="573.9" x2="346.8" y2="577.7" /><line x1="556.0" y1="635.0" x2="556.0" y2="640.7" /><line x1="323.6" y1="585.0" x2="323.6" y2="591.6" /><line x1="436.9" y1="533.5" x2="436.9" y2="536.8" /><line x1="343.0" y1="665.5" x2="343.0" y2="668.9" /><line x1="363.1" y1="519.5" x2="363.1" y2="523.0" /><line x1="381.9" y1="707.4" x2="381.9" y2="710.8" /><line x1="440.9" y1="419.8" x2="440.9" y2="423.0" /><line x1="449.4" y1="430.3" x2="449.4" y2="435.8" /><line x1="489.7" y1="654.1" x2="489.7" y2="659.2" /><line x1="335.1" y1="664.9" x2="335.1" y2="669.0" /><line x1="444.0" y1="456.7" x2="444.0" y2="461.2" /><line x1="379.8" y1="715.7" x2="379.8" y2="720.4" /><line x1="529.1" y1="566.6" x2="529.1" y2="571.0" /><line x1="430.9" y1="610.8" x2="430.9" y2="616.8" /><line x1="441.3" y1="562.8" x2="441.3" y2="566.2" /><line x1="434.9" y1="510.1" x2="434.9" y2="514.5" /><line x1="343.1" y1="405.2" x2="343.1" y2="410.0" /><line x1="433.7" y1="635.9" x2="433.7" y2="639.3" /><line x1="366.8" y1="582.9" x2="366.8" y2="587.6" /><line x1="355.7" y1="419.1" x2="355.7" y2="422.9" /><line x1="339.1" y1="496.1" x2="339.1" y2="501.8" /><line x1="400.9" y1="381.6" x2="400.9" y2="385.0" /><line x1="542.2" y1="526.6" x2="542.2" y2="530.4" /><line x1="442.3" y1="614.3" x2="442.3" y2="617.8" /><line x1="435.7" y1="594.9" x2="435.7" y2="598.2" /><line x1="468.7" y1="413.2" x2="468.7" y2="418.5" /><line x1="308.5" y1="699.2" x2="308.5" y2="703.1" /><line x1="351.2" y1="625.7" x2="351.2" y2="632.0" /><line x1="389.0" y1="438.4" x2="389.0" y2="443.4" /><line x1="448.3" y1="556.9" x2="448.3" y2="560.0" /><line x1="486.6" y1="637.2" x2="486.6" y2="641.5" /><line x1="270.1" y1="510.7" x2="270.1" y2="517.6" /><line x1="333.0" y1="594.1" x2="333.0" y2="600.3" /><line x1="522.9" y1="525.1" x2="522.9" y2="531.7" /><line x1="499.6" y1="692.9" x2="499.6" y2="696.5" /><line x1="384.3" y1="538.6" x2="384.3" y2="542.1" /><line x1="346.9" y1="602.6" x2="346.9" y2="606.2" /><line x1="556.0" y1="458.7" x2="556.0" y2="464.5" /><line x1="340.9" y1="437.0" x2="340.9" y2="443.5" /><line x1="408.3" y1="659.2" x2="408.3" y2="662.6" /><line x1="365.9" y1="597.2" x2="365.9" y2="600.5" /><line x1="382.8" y1="575.1" x2="382.8" y2="580.1" /><line x1="426.4" y1="417.8" x2="426.4" y2="421.9" /><line x1="363.0" y1="571.3" x2="363.0" y2="575.9" /><line x1="395.8" y1="495.6" x2="395.8" y2="500.3" /><line x1="411.6" y1="646.8" x2="411.6" y2="653.7" /><line x1="359.7" y1="692.1" x2="359.7" y2="696.1" /><line x1="445.1" y1="676.7" x2="445.1" y2="682.6" /><line x1="503.6" y1="558.5" x2="503.6" y2="562.3" /><line x1="456.9" y1="463.0" x2="456.9" y2="468.2" /><line x1="445.0" y1="574.7" x2="445.0" y2="579.7" /><line x1="446.2" y1="713.9" x2="446.2" y2="717.1" /><line x1="539.3" y1="563.5" x2="539.3" y2="570.2" /><line x1="412.9" y1="585.8" x2="412.9" y2="591.5" /><line x1="443.9" y1="495.2" x2="443.9" y2="500.5" /><line x1="457.7" y1="675.5" x2="457.7" y2="682.3" /><line x1="376.0" y1="557.9" x2="376.0" y2="563.4" /><line x1="437.6" y1="548.0" x2="437.6" y2="551.3" /><line x1="449.9" y1="542.6" x2="449.9" y2="547.0" /><line x1="482.7" y1="367.1" x2="482.7" y2="371.0" /><line x1="442.4" y1="636.9" x2="442.4" y2="643.9" /><line x1="447.0" y1="641.0" x2="447.0" y2="647.6" /><line x1="374.0" y1="555.1" x2="374.0" y2="560.9" /><line x1="363.5" y1="644.2" x2="363.5" y2="650.5" /><line x1="464.1" y1="663.7" x2="464.1" y2="668.7" /><line x1="295.9" y1="523.0" x2="295.9" y2="526.3" /><line x1="356.2" y1="624.5" x2="356.2" y2="631.4" /><line x1="428.3" y1="604.1" x2="428.3" y2="610.3" /><line x1="451.8" y1="553.8" x2="451.8" y2="560.5" /><line x1="494.4" y1="530.2" x2="494.4" y2="536.2" /><line x1="363.7" y1="663.9" x2="363.7" y2="668.5" /><line x1="444.7" y1="580.0" x2="444.7" y2="585.4" /><line x1="466.0" y1="588.6" x2="466.0" y2="592.0" /><line x1="521.2" y1="683.2" x2="521.2" y2="690.0" /><line x1="452.4" y1="537.1" x2="452.4" y2="543.5" /><line x1="475.3" y1="625.2" x2="475.3" y2="629.1" /><line x1="386.4" y1="584.1" x2="386.4" y2="589.5" /><line x1="474.1" y1="426.0" x2="474.1" y2="429.9" /><line x1="496.4" y1="540.5" x2="496.4" y2="545.1" /><line x1="457.9" y1="531.5" x2="457.9" y2="537.1" /><line x1="475.1" y1="344.3" x2="475.1" y2="348.5" /><line x1="479.6" y1="571.6" x2="479.6" y2="576.4" /><line x1="381.8" y1="625.0" x2="381.8" y2="631.7" /><line x1="405.7" y1="451.2" x2="405.7" y2="457.7" /><line x1="397.2" y1="602.1" x2="397.2" y2="608.2" /><line x1="309.2" y1="600.5" x2="309.2" y2="606.9" /><line x1="373.9" y1="569.6" x2="373.9" y2="573.7" /><line x1="392.0" y1="605.5" x2="392.0" y2="610.9" /><line x1="459.5" y1="650.9" x2="459.5" y2="656.3" /><line x1="309.8" y1="469.9" x2="309.8" y2="476.7" /><line x1="395.3" y1="648.6" x2="395.3" y2="651.8" /><line x1="556.0" y1="644.1" x2="556.0" y2="650.1" /><line x1="453.4" y1="571.1" x2="453.4" y2="576.7" /><line x1="450.0" y1="365.5" x2="450.0" y2="370.6" /><line x1="340.7" y1="603.9" x2="340.7" y2="608.8" /><line x1="358.9" y1="471.4" x2="358.9" y2="476.7" /><line x1="306.4" y1="596.9" x2="306.4" y2="603.1" /><line x1="402.4" y1="489.6" x2="402.4" y2="494.3" /><line x1="352.9" y1="677.4" x2="352.9" y2="683.1" /><line x1="511.5" y1="614.9" x2="511.5" y2="619.3" /><line x1="416.8" y1="420.0" x2="416.8" y2="426.6" /><line x1="495.2" y1="612.5" x2="495.2" y2="618.0" /><line x1="417.2" y1="427.2" x2="417.2" y2="433.7" /><line x1="302.1" y1="519.9" x2="302.1" y2="524.3" /><line x1="292.4" y1="567.3" x2="292.4" y2="573.8" /><line x1="384.4" y1="603.5" x2="384.4" y2="608.4" /><line x1="441.9" y1="589.9" x2="441.9" y2="596.8" /><line x1="346.3" y1="450.3" x2="346.3" y2="456.5" /><line x1="362.6" y1="493.5" x2="362.6" y2="497.0" /><line x1="334.7" y1="550.4" x2="334.7" y2="555.3" /><line x1="289.4" y1="639.4" x2="289.4" y2="644.0" /><line x1="556.0" y1="601.5" x2="556.0" y2="605.4" /><line x1="438.7" y1="378.8" x2="438.7" y2="383.0" /><line x1="404.9" y1="664.6" x2="404.9" y2="667.8" /><line x1="430.1" y1="519.5" x2="430.1" y2="526.4" /><line x1="369.4" y1="548.4" x2="369.4" y2="552.1" /><line x1="329.5" y1="706.1" x2="329.5" y2="712.6" /><line x1="364.8" y1="646.3" x2="364.8" y2="652.2" /><line x1="325.0" y1="431.7" x2="325.0" y2="435.8" /><line x1="400.7" y1="590.4" x2="400.7" y2="594.6" /><line x1="426.3" y1="524.5" x2="426.3" y2="530.8" /><line x1="328.2" y1="696.9" x2="328.2" y2="701.5" /><line x1="485.8" y1="586.9" x2="485.8" y2="590.5" /><line x1="404.5" y1="600.2" x2="404.5" y2="605.0" /><line x1="358.5" y1="545.8" x2="358.5" y2="551.2" /><line x1="443.3" y1="639.6" x2="443.3" y2="642.6" /><line x1="497.2" y1="394.9" x2="497.2" y2="400.4" /><line x1="486.3" y1="589.8" x2="486.3" y2="593.5" /><line x1="329.4" y1="679.2" x2="329.4" y2="684.4" /><line x1="349.9" y1="553.2" x2="349.9" y2="559.3" /><line x1="431.1" y1="685.2" x2="431.1" y2="691.4" /><line x1="402.1" y1="450.4" x2="402.1" y2="454.4" /><line x1="531.9" y1="550.9" x2="531.9" y2="557.1" /><line x1="556.0" y1="488.6" x2="556.0" y2="493.3" /><line x1="381.4" y1="605.2" x2="381.4" y2="609.7" /><line x1="382.7" y1="641.8" x2="382.7" y2="646.9" /><line x1="316.2" y1="576.7" x2="316.2" y2="581.2" /><line x1="545.7" y1="621.1" x2="545.7" y2="626.1" /><line x1="459.6" y1="594.6" x2="459.6" y2="601.4" /><line x1="420.3" y1="680.2" x2="420.3" y2="686.4" /><line x1="407.6" y1="565.8" x2="407.6" y2="570.1" /><line x1="409.2" y1="477.4" x2="409.2" y2="480.7" /><line x1="464.9" y1="574.7" x2="464.9" y2="580.7" /><line x1="379.4" y1="648.0" x2="379.4" y2="651.1" /><line x1="445.8" y1="607.4" x2="445.8" y2="612.7" /><line x1="389.1" y1="506.1" x2="389.1" y2="511.5" /><line x1="493.4" y1="627.9" x2="493.4" y2="634.7" /><line x1="333.0" y1="530.6" x2="333.0" y2="536.5" /><line x1="414.9" y1="525.2" x2="414.9" y2="531.3" /><line x1="353.4" y1="396.4" x2="353.4" y2="401.6" /><line x1="260.0" y1="621.5" x2="260.0" y2="626.3" /><line x1="331.8" y1="414.1" x2="331.8" y2="418.9" /><line x1="370.1" y1="542.8" x2="370.1" y2="549.6" /><line x1="334.0" y1="527.5" x2="334.0" y2="530.5" /><line x1="473.5" y1="585.7" x2="473.5" y2="591.5" /><line x1="283.3" y1="593.1" x2="283.3" y2="596.8" /><line x1="397.6" y1="550.6" x2="397.6" y2="555.3" /><line x1="459.7" y1="485.5" x2="459.7" y2="490.4" /><line x1="317.9" y1="567.3" x2="317.9" y2="570.8" /><line x1="356.3" y1="410.9" x2="356.3" y2="414.4" /><line x1="440.6" y1="390.4" x2="440.6" y2="396.0" /><line x1="310.7" y1="594.6" x2="310.7" y2="601.4" /><line x1="270.3" y1="535.5" x2="270.3" y2="539.0" /><line x1="391.3" y1="659.0" x2="391.3" y2="663.0" /><line x1="358.5" y1="572.9" x2="358.5" y2="578.1" /><line x1="465.0" y1="473.9" x2="465.0" y2="478.6" /><line x1="376.8" y1="546.3" x2="376.8" y2="550.0" /><line x1="294.5" y1="546.1" x2="294.5" y2="551.9" /><line x1="350.2" y1="713.1" x2="350.2" y2="718.5" /><line x1="376.7" y1="697.4" x2="376.7" y2="701.9" /></g></svg>