<?xml version='1.0' encoding='utf-8'?>
<svg xmlns="http://www.w3.org/2000/svg" xmlns:inkscape="http://www.inkscape.org/namespaces/inkscape" viewBox="204 228 408 600"><style>*{vector-effect:non-scaling-stroke}</style><g id="01_Black_Frame" inkscape:groupmode="layer" inkscape:label="01_Black_Frame" stroke="#1A1A1A" fill="none" stroke-width="0.875" stroke-linecap="round" stroke-linejoin="round"><path d="M 250.0,264.0 L 566.0,264.0 Q 576.0,264.0 576.0,274.0 L 576.0,782.0 Q 576.0,792.0 566.0,792.0 L 250.0,792.0 Q 240.0,792.0 240.0,782.0 L 240.0,274.0 Q 240.0,264.0 250.0,264.0" /><path d="M 253.0,270.0 L 563.0,270.0 Q 570.0,270.0 570.0,277.0 L 570.0,779.0 Q 570.0,786.0 563.0,786.0 L 253.0,786.0 Q 246.0,786.0 246.0,779.0 L 246.0,277.0 Q 246.0,270.0 253.0,270.0" /><line x1="259.0" y1="280.0" x2="263.0" y2="280.0" /><line x1="258.1" y1="282.1" x2="260.9" y2="284.9" /><line x1="256.0" y1="283.0" x2="256.0" y2="287.0" /><line x1="253.9" y1="282.1" x2="251.1" y2="284.9" /><line x1="253.0" y1="280.0" x2="249.0" y2="280.0" /><line x1="253.9" y1="277.9" x2="251.1" y2="275.1" /><line x1="256.0" y1="277.0" x2="256.0" y2="273.0" /><line x1="258.1" y1="277.9" x2="260.9" y2="275.1" /><line x1="563.0" y1="280.0" x2="567.0" y2="280.0" /><line x1="562.1" y1="282.1" x2="564.9" y2="284.9" /><line x1="560.0" y1="283.0" x2="560.0" y2="287.0" /><line x1="557.9" y1="282.1" x2="555.1" y2="284.9" /><line x1="557.0" y1="280.0" x2="553.0" y2="280.0" /><line x1="557.9" y1="277.9" x2="555.1" y2="275.1" /><line x1="560.0" y1="277.0" x2="560.0" y2="273.0" /><line x1="562.1" y1="277.9" x2="564.9" y2="275.1" /><line x1="259.0" y1="776.0" x2="263.0" y2="776.0" /><line x1="258.1" y1="778.1" x2="260.9" y2="780.9" /><line x1="256.0" y1="779.0" x2="256.0" y2="783.0" /><line x1="253.9" y1="778.1" x2="251.1" y2="780.9" /><line x1="253.0" y1="776.0" x2="249.0" y2="776.0" /><line x1="253.9" y1="773.9" x2="251.1" y2="771.1" /><line x1="256.0" y1="773.0" x2="256.0" y2="769.0" /><line x1="258.1" y1="773.9" x2="260.9" y2="771.1" /><line x1="563.0" y1="776.0" x2="567.0" y2="776.0" /><line x1="562.1" y1="778.1" x2="564.9" y2="780.9" /><line x1="560.0" y1="779.0" x2="560.0" y2="783.0" /><line x1="557.9" y1="778.1" x2="555.1" y2="780.9" /><line x1="557.0" y1="776.0" x2="553.0" y2="776.0" /><line x1="557.9" y1="773.9" x2="555.1" y2="771.1" /><line x1="560.0" y1="773.0" x2="560.0" y2="769.0" /><line x1="562.1" y1="773.9" x2="564.9" y2="771.1" /><polyline points="395.25,283.20 393.50,282.00 392.50,282.00 390.75,283.60 390.75,288.40 392.50,290.00 393.50,290.00 395.25,288.80" /><polyline points="396.50,282.00 401.50,290.00" /><polyline points="401.50,282.00 396.50,290.00" /><polyline points="402.25,282.00 407.25,290.00" /><polyline points="407.25,282.00 402.25,290.00" /><polyline points="408.00,282.00 410.50,290.00 413.00,282.00" /><polyline points="416.25,282.00 416.25,290.00" /><polyline points="422.00,282.00 422.00,290.00" /><polyline points="351.94,297.00 358.44,297.00" /><polyline points="355.19,297.00 355.19,307.00" /><polyline points="359.41,297.00 359.41,307.00" /><polyline points="365.91,297.00 365.91,307.00" /><polyline points="359.41,301.80 365.91,301.80" /><polyline points="372.41,297.00 366.89,297.00 366.89,301.80 370.79,301.80" /><polyline points="366.89,301.80 366.89,307.00 372.41,307.00" /><polyline points="381.84,297.00 388.34,297.00" /><polyline points="385.09,297.00 385.09,307.00" /><polyline points="389.31,307.00 389.31,297.00 393.54,297.00 395.16,298.50 395.16,300.20 393.54,301.50 389.31,301.50 395.16,307.00" /><polyline points="396.79,307.00 400.04,297.00 403.29,307.00" /><polyline points="397.96,303.50 402.12,303.50" /><polyline points="404.26,307.00 404.26,297.00 410.76,307.00 410.76,297.00" /><polyline points="417.26,298.00 415.64,297.00 413.69,297.00 412.06,298.50 411.74,300.00 412.71,301.20 414.99,302.00 417.26,302.80 418.24,304.00 417.91,305.50 416.29,307.00 414.01,307.00 412.39,306.00" /><polyline points="419.21,307.00 419.21,297.00 422.46,302.50 425.71,297.00 425.71,307.00" /><polyline points="429.94,297.00 429.94,307.00" /><polyline points="434.16,297.00 440.66,297.00" /><polyline points="437.41,297.00 437.41,307.00" /><polyline points="441.64,297.00 448.14,297.00" /><polyline points="444.89,297.00 444.89,307.00" /><polyline points="454.64,297.00 449.11,297.00 449.11,301.80 453.01,301.80" /><polyline points="449.11,301.80 449.11,307.00 454.64,307.00" /><polyline points="456.59,307.00 456.59,297.00 460.81,297.00 462.44,298.50 462.44,300.20 460.81,301.50 456.59,301.50 462.44,307.00" /><line x1="270.0" y1="312.0" x2="546.0" y2="312.0" /><line x1="270.0" y1="732.0" x2="546.0" y2="732.0" /><polyline points="370.97,740.75 373.77,740.75" /><polyline points="372.37,740.75 372.37,745.25" /><polyline points="374.19,740.75 374.19,744.12 374.75,745.02 376.43,745.02 376.99,744.12 376.99,740.75" /><polyline points="377.41,745.25 377.41,740.75 379.23,740.75 379.93,741.42 379.93,742.19 379.23,742.77 377.41,742.77 379.93,745.25" /><polyline points="380.63,745.25 380.63,740.75 383.43,745.25 383.43,740.75" /><polyline points="386.23,740.75 383.85,740.75 383.85,742.91 385.53,742.91" /><polyline points="383.85,742.91 383.85,745.25 386.23,745.25" /><polyline points="387.07,745.25 387.07,740.75 388.89,740.75 389.59,741.42 389.59,742.19 388.89,742.77 387.07,742.77 389.59,745.25" /><polyline points="396.73,745.25 396.73,740.75 398.55,740.75 399.11,741.29 399.11,742.01 398.55,742.55 396.73,742.55 398.55,742.55 399.11,743.09 399.11,744.71 398.55,745.25 396.73,745.25" /><polyline points="399.95,745.25 399.95,740.75 401.77,740.75 402.47,741.42 402.47,742.19 401.77,742.77 399.95,742.77 402.47,745.25" /><polyline points="405.55,740.75 403.17,740.75 403.17,742.91 404.85,742.91" /><polyline points="403.17,742.91 403.17,745.25 405.55,745.25" /><polyline points="406.39,745.25 407.79,740.75 409.19,745.25" /><polyline points="406.89,743.67 408.69,743.67" /><polyline points="412.13,741.42 411.15,740.75 410.59,740.75 409.61,741.65 409.61,744.35 410.59,745.25 411.15,745.25 412.13,744.58" /><polyline points="412.83,740.75 412.83,745.25" /><polyline points="415.63,740.75 415.63,745.25" /><polyline points="412.83,742.91 415.63,742.91" /><polyline points="422.49,740.75 423.89,745.25 425.29,740.75" /><polyline points="425.71,745.25 427.11,740.75 428.51,745.25" /><polyline points="426.21,743.67 428.01,743.67" /><polyline points="428.93,740.75 431.73,740.75" /><polyline points="430.33,740.75 430.33,745.25" /><polyline points="433.55,740.75 433.55,745.25" /><polyline points="437.89,741.42 436.91,740.75 436.35,740.75 435.37,741.65 435.37,744.35 436.35,745.25 436.91,745.25 437.89,744.58" /><polyline points="438.59,745.25 439.99,740.75 441.39,745.25" /><polyline points="439.09,743.67 440.89,743.67" /><polyline points="441.81,745.25 441.81,740.75 444.61,745.25 444.61,740.75" /><polyline points="366.25,753.25 362.00,753.25 362.00,756.85 365.00,756.85" /><polyline points="362.00,756.85 362.00,760.75 366.25,760.75" /><polyline points="367.75,753.25 370.25,760.75 372.75,753.25" /><polyline points="377.75,753.25 373.50,753.25 373.50,756.85 376.50,756.85" /><polyline points="373.50,756.85 373.50,760.75 377.75,760.75" /><polyline points="379.25,760.75 379.25,753.25 382.50,753.25 383.75,754.38 383.75,755.65 382.50,756.62 379.25,756.62 383.75,760.75" /><polyline points="385.00,753.25 387.50,757.00 390.00,753.25" /><polyline points="387.50,757.00 387.50,760.75" /><polyline points="390.75,753.25 395.75,753.25" /><polyline points="393.25,753.25 393.25,760.75" /><polyline points="396.50,753.25 396.50,760.75" /><polyline points="401.50,753.25 401.50,760.75" /><polyline points="396.50,756.85 401.50,756.85" /><polyline points="404.75,753.25 404.75,760.75" /><polyline points="408.00,760.75 408.00,753.25 413.00,760.75 413.00,753.25" /><polyline points="418.25,754.38 416.50,753.25 415.50,753.25 413.75,754.75 413.75,759.25 415.50,760.75 416.50,760.75 418.25,759.62 418.25,757.00 416.25,757.00" /><polyline points="429.50,754.00 428.25,753.25 426.75,753.25 425.50,754.38 425.25,755.50 426.00,756.40 427.75,757.00 429.50,757.60 430.25,758.50 430.00,759.62 428.75,760.75 427.00,760.75 425.75,760.00" /><polyline points="435.25,753.25 431.00,753.25 431.00,756.85 434.00,756.85" /><polyline points="431.00,756.85 431.00,760.75 435.25,760.75" /><polyline points="436.75,760.75 436.75,753.25 441.75,760.75 441.75,753.25" /><polyline points="442.50,760.75 442.50,753.25 445.25,753.25 447.00,755.12 447.00,758.88 445.25,760.75 442.50,760.75" /><polyline points="452.50,754.00 451.25,753.25 449.75,753.25 448.50,754.38 448.25,755.50 449.00,756.40 450.75,757.00 452.50,757.60 453.25,758.50 453.00,759.62 451.75,760.75 450.00,760.75 448.75,760.00" /><polyline points="362.00,773.75 362.00,766.25 367.00,773.75 367.00,766.25" /><polyline points="370.25,766.25 368.25,767.00 367.75,768.50 367.75,771.50 368.25,773.00 370.25,773.75 372.25,773.00 372.75,771.50 372.75,768.50 372.25,767.00 370.25,766.25" /><polyline points="373.50,766.25 378.50,766.25" /><polyline points="376.00,766.25 376.00,773.75" /><polyline points="379.25,766.25 379.25,773.75" /><polyline points="384.25,766.25 384.25,773.75" /><polyline points="379.25,769.85 384.25,769.85" /><polyline points="387.50,766.25 387.50,773.75" /><polyline points="390.75,773.75 390.75,766.25 395.75,773.75 395.75,766.25" /><polyline points="401.00,767.38 399.25,766.25 398.25,766.25 396.50,767.75 396.50,772.25 398.25,773.75 399.25,773.75 401.00,772.62 401.00,770.00 399.00,770.00" /><polyline points="408.00,773.75 408.00,766.25 411.25,766.25 412.50,767.38 412.50,768.65 411.25,769.62 408.00,769.62 412.50,773.75" /><polyline points="418.00,766.25 413.75,766.25 413.75,769.85 416.75,769.85" /><polyline points="413.75,769.85 413.75,773.75 418.00,773.75" /><polyline points="424.00,767.38 422.25,766.25 421.25,766.25 419.50,767.75 419.50,772.25 421.25,773.75 422.25,773.75 424.00,772.62" /><polyline points="429.50,766.25 425.25,766.25 425.25,769.85 428.25,769.85" /><polyline points="425.25,769.85 425.25,773.75 429.50,773.75" /><polyline points="433.50,766.25 433.50,773.75" /><polyline points="436.75,766.25 439.25,773.75 441.75,766.25" /><polyline points="446.75,766.25 442.50,766.25 442.50,769.85 445.50,769.85" /><polyline points="442.50,769.85 442.50,773.75 446.75,773.75" /><polyline points="452.50,767.00 451.25,766.25 449.75,766.25 448.50,767.38 448.25,768.50 449.00,769.40 450.75,770.00 452.50,770.60 453.25,771.50 453.00,772.62 451.75,773.75 450.00,773.75 448.75,773.00" /><polyline points="385.92,779.50 387.52,784.50 389.12,779.50" /><polyline points="391.20,779.50 391.20,784.50" /><polyline points="394.88,779.50 394.88,784.50" /><polyline points="398.56,784.00 398.56,784.25" /><polyline points="400.64,779.50 402.24,784.50 403.84,779.50" /><polyline points="405.92,784.00 405.92,784.25" /><polyline points="408.00,784.50 408.00,779.50 409.60,782.25 411.20,779.50 411.20,784.50" /><polyline points="411.68,784.50 411.68,779.50 413.28,782.25 414.88,779.50 414.88,784.50" /><polyline points="415.36,779.50 418.56,784.50" /><polyline points="418.56,779.50 415.36,784.50" /><polyline points="419.04,779.50 422.24,784.50" /><polyline points="422.24,779.50 419.04,784.50" /><polyline points="422.72,779.50 424.32,784.50 425.92,779.50" /><polyline points="428.00,779.50 428.00,784.50" /></g><g id="02_Teal_Signal" inkscape:groupmode="layer" inkscape:label="02_Teal_Signal" stroke="#3A7A7A" fill="none" stroke-width="0.625" stroke-linecap="round" stroke-linejoin="round"><line x1="380.6" y1="453.4" x2="387.9" y2="453.2" /><line x1="391.0" y1="453.1" x2="398.1" y2="453.0" /><line x1="401.5" y1="452.9" x2="408.4" y2="452.7" /><line x1="412.2" y1="452.6" x2="418.8" y2="452.5" /><line x1="423.0" y1="452.4" x2="429.4" y2="452.2" /><line x1="434.0" y1="452.1" x2="440.2" y2="452.0" /><line x1="445.3" y1="451.8" x2="451.3" y2="451.7" /><line x1="456.8" y1="451.5" x2="462.6" y2="451.4" /><line x1="468.7" y1="451.3" x2="474.3" y2="451.1" /><line x1="481.0" y1="451.0" x2="486.4" y2="450.8" /><line x1="493.8" y1="450.7" x2="498.9" y2="450.5" /><line x1="507.0" y1="450.3" x2="511.8" y2="450.2" /><line x1="520.7" y1="450.0" x2="525.3" y2="449.9" /><line x1="535.0" y1="449.7" x2="539.3" y2="449.5" /><line x1="550.0" y1="449.3" x2="554.0" y2="449.2" /><line x1="380.5" y1="454.6" x2="387.8" y2="455.3" /><line x1="390.9" y1="455.6" x2="398.0" y2="456.2" /><line x1="401.4" y1="456.6" x2="408.3" y2="457.2" /><line x1="412.0" y1="457.6" x2="418.6" y2="458.2" /><line x1="422.7" y1="458.6" x2="429.2" y2="459.2" /><line x1="433.7" y1="459.6" x2="439.9" y2="460.2" /><line x1="444.9" y1="460.7" x2="451.0" y2="461.2" /><line x1="456.5" y1="461.8" x2="462.3" y2="462.3" /><line x1="468.3" y1="462.9" x2="473.9" y2="463.4" /><line x1="493.3" y1="465.3" x2="498.3" y2="465.7" /><line x1="520.1" y1="467.8" x2="524.6" y2="468.2" /><line x1="549.2" y1="470.5" x2="553.2" y2="470.9" /><line x1="380.3" y1="455.7" x2="387.5" y2="457.2" /><line x1="390.6" y1="457.8" x2="397.5" y2="459.3" /><line x1="400.9" y1="460.0" x2="407.6" y2="461.4" /><line x1="411.3" y1="462.2" x2="417.8" y2="463.6" /><line x1="432.6" y1="466.7" x2="438.8" y2="468.0" /><line x1="443.7" y1="469.0" x2="449.6" y2="470.2" /><line x1="455.0" y1="471.4" x2="460.7" y2="472.6" /><line x1="466.7" y1="473.8" x2="472.1" y2="475.0" /><line x1="491.2" y1="479.0" x2="496.2" y2="480.0" /><line x1="531.5" y1="487.5" x2="535.7" y2="488.4" /><line x1="546.2" y1="490.5" x2="550.1" y2="491.4" /><line x1="380.1" y1="456.5" x2="387.1" y2="458.6" /><line x1="390.2" y1="459.5" x2="397.0" y2="461.5" /><line x1="400.2" y1="462.5" x2="406.9" y2="464.4" /><line x1="410.4" y1="465.5" x2="416.8" y2="467.4" /><line x1="420.8" y1="468.6" x2="427.0" y2="470.4" /><line x1="431.4" y1="471.7" x2="437.4" y2="473.5" /><line x1="442.2" y1="474.9" x2="448.0" y2="476.7" /><line x1="464.7" y1="481.7" x2="470.0" y2="483.2" /><line x1="476.5" y1="485.2" x2="481.6" y2="486.7" /><line x1="488.7" y1="488.8" x2="493.6" y2="490.2" /><line x1="501.3" y1="492.6" x2="506.0" y2="493.9" /><line x1="514.5" y1="496.5" x2="518.9" y2="497.8" /><line x1="528.2" y1="500.6" x2="532.3" y2="501.8" /><line x1="542.6" y1="504.8" x2="546.4" y2="506.0" /><line x1="557.6" y1="509.3" x2="561.1" y2="510.3" /><line x1="379.9" y1="457.3" x2="386.7" y2="460.0" /><line x1="389.6" y1="461.1" x2="396.2" y2="463.7" /><line x1="399.4" y1="465.0" x2="405.8" y2="467.5" /><line x1="409.3" y1="468.9" x2="415.5" y2="471.3" /><line x1="419.3" y1="472.8" x2="425.4" y2="475.2" /><line x1="440.1" y1="481.0" x2="445.7" y2="483.2" /><line x1="450.9" y1="485.2" x2="456.3" y2="487.3" /><line x1="462.0" y1="489.6" x2="467.2" y2="491.6" /><line x1="473.4" y1="494.1" x2="478.4" y2="496.0" /><line x1="485.3" y1="498.7" x2="490.0" y2="500.6" /><line x1="537.6" y1="519.3" x2="541.3" y2="520.7" /><line x1="552.2" y1="525.0" x2="555.6" y2="526.3" /><line x1="379.3" y1="458.4" x2="385.7" y2="462.0" /><line x1="388.5" y1="463.5" x2="394.7" y2="466.9" /><line x1="397.7" y1="468.5" x2="403.8" y2="471.8" /><line x1="407.0" y1="473.6" x2="412.9" y2="476.9" /><line x1="416.5" y1="478.8" x2="422.2" y2="482.0" /><line x1="436.1" y1="489.6" x2="441.4" y2="492.5" /><line x1="446.2" y1="495.1" x2="451.3" y2="497.9" /><line x1="456.7" y1="500.9" x2="461.6" y2="503.5" /><line x1="467.5" y1="506.8" x2="472.1" y2="509.3" /><line x1="478.6" y1="512.9" x2="483.1" y2="515.3" /><line x1="490.2" y1="519.2" x2="494.5" y2="521.6" /><line x1="527.9" y1="539.9" x2="531.4" y2="541.8" /><line x1="541.6" y1="547.4" x2="544.9" y2="549.2" /><line x1="556.0" y1="555.3" x2="559.0" y2="557.0" /><line x1="378.8" y1="459.3" x2="384.8" y2="463.5" /><line x1="387.4" y1="465.3" x2="393.2" y2="469.4" /><line x1="396.0" y1="471.3" x2="401.6" y2="475.3" /><line x1="404.7" y1="477.4" x2="410.2" y2="481.2" /><line x1="413.6" y1="483.6" x2="418.9" y2="487.3" /><line x1="422.6" y1="489.9" x2="427.8" y2="493.4" /><line x1="431.9" y1="496.3" x2="436.9" y2="499.7" /><line x1="441.4" y1="502.9" x2="446.2" y2="506.2" /><line x1="451.2" y1="509.7" x2="455.8" y2="512.9" /><line x1="461.3" y1="516.7" x2="465.7" y2="519.8" /><line x1="471.8" y1="524.0" x2="475.9" y2="526.9" /><line x1="482.6" y1="531.5" x2="486.6" y2="534.3" /><line x1="493.9" y1="539.4" x2="497.6" y2="542.0" /><line x1="505.6" y1="547.6" x2="509.1" y2="550.0" /><line x1="517.9" y1="556.1" x2="521.2" y2="558.4" /><line x1="558.4" y1="584.3" x2="560.9" y2="586.0" /><line x1="378.3" y1="460.0" x2="383.9" y2="464.6" /><line x1="386.4" y1="466.6" x2="391.9" y2="471.1" /><line x1="394.5" y1="473.3" x2="399.8" y2="477.7" /><line x1="402.7" y1="480.0" x2="407.9" y2="484.3" /><line x1="411.1" y1="486.9" x2="416.1" y2="491.0" /><line x1="419.6" y1="493.9" x2="424.4" y2="497.9" /><line x1="437.2" y1="508.4" x2="441.7" y2="512.1" /><line x1="446.5" y1="516.0" x2="450.8" y2="519.5" /><line x1="456.0" y1="523.8" x2="460.1" y2="527.2" /><line x1="476.0" y1="540.2" x2="479.8" y2="543.3" /><line x1="486.6" y1="549.0" x2="490.2" y2="551.9" /><line x1="497.7" y1="558.0" x2="501.0" y2="560.8" /><line x1="509.2" y1="567.5" x2="512.3" y2="570.1" /><line x1="521.3" y1="577.5" x2="524.2" y2="579.8" /><line x1="534.0" y1="587.9" x2="536.6" y2="590.0" /><line x1="377.7" y1="460.7" x2="382.8" y2="465.8" /><line x1="385.1" y1="468.1" x2="390.1" y2="473.1" /><line x1="392.5" y1="475.5" x2="397.4" y2="480.3" /><line x1="400.1" y1="483.0" x2="404.8" y2="487.7" /><line x1="407.7" y1="490.6" x2="412.3" y2="495.2" /><line x1="415.5" y1="498.4" x2="420.0" y2="502.8" /><line x1="423.5" y1="506.3" x2="427.8" y2="510.6" /><line x1="431.8" y1="514.5" x2="435.9" y2="518.6" /><line x1="440.2" y1="522.9" x2="444.2" y2="526.8" /><line x1="448.9" y1="531.6" x2="452.7" y2="535.3" /><line x1="467.3" y1="549.8" x2="470.8" y2="553.3" /><line x1="497.8" y1="580.2" x2="500.7" y2="583.0" /><line x1="508.9" y1="591.2" x2="511.5" y2="593.8" /><line x1="520.6" y1="602.8" x2="523.0" y2="605.2" /><line x1="532.8" y1="614.9" x2="535.0" y2="617.1" /><line x1="545.7" y1="627.8" x2="547.6" y2="629.7" /><line x1="559.3" y1="641.3" x2="561.0" y2="642.9" /><line x1="376.7" y1="461.5" x2="381.2" y2="467.3" /><line x1="383.2" y1="469.7" x2="387.6" y2="475.3" /><line x1="389.7" y1="478.0" x2="393.9" y2="483.4" /><line x1="402.9" y1="494.9" x2="406.9" y2="500.0" /><line x1="409.7" y1="503.6" x2="413.6" y2="508.5" /><line x1="416.7" y1="512.4" x2="420.4" y2="517.2" /><line x1="423.8" y1="521.6" x2="427.4" y2="526.1" /><line x1="431.1" y1="530.9" x2="434.6" y2="535.3" /><line x1="438.7" y1="540.6" x2="442.0" y2="544.8" /><line x1="446.6" y1="550.6" x2="449.7" y2="554.6" /><line x1="463.2" y1="571.8" x2="466.0" y2="575.4" /><line x1="472.0" y1="583.1" x2="474.7" y2="586.5" /><line x1="481.3" y1="594.9" x2="483.7" y2="598.0" /><line x1="501.1" y1="620.1" x2="503.1" y2="622.8" /><line x1="511.7" y1="633.7" x2="513.6" y2="636.1" /><line x1="560.6" y1="696.1" x2="561.5" y2="697.3" /><line x1="376.1" y1="462.0" x2="380.1" y2="468.0" /><line x1="381.9" y1="470.7" x2="385.8" y2="476.6" /><line x1="387.7" y1="479.4" x2="391.5" y2="485.2" /><line x1="393.6" y1="488.3" x2="397.3" y2="493.9" /><line x1="399.6" y1="497.3" x2="403.2" y2="502.7" /><line x1="405.7" y1="506.5" x2="409.2" y2="511.7" /><line x1="411.9" y1="515.8" x2="415.3" y2="520.9" /><line x1="425.0" y1="535.4" x2="428.0" y2="540.1" /><line x1="431.8" y1="545.7" x2="434.7" y2="550.1" /><line x1="438.8" y1="556.3" x2="441.6" y2="560.5" /><line x1="446.1" y1="567.3" x2="448.8" y2="571.3" /><line x1="453.7" y1="578.7" x2="456.3" y2="582.5" /><line x1="461.7" y1="590.6" x2="464.0" y2="594.2" /><line x1="469.9" y1="603.1" x2="472.2" y2="606.4" /><line x1="478.6" y1="616.1" x2="480.7" y2="619.2" /><line x1="497.3" y1="644.1" x2="498.9" y2="646.7" /><line x1="507.3" y1="659.3" x2="508.8" y2="661.5" /><line x1="518.0" y1="675.3" x2="519.3" y2="677.2" /><line x1="375.2" y1="462.5" x2="378.6" y2="469.0" /><line x1="380.0" y1="471.8" x2="383.3" y2="478.1" /><line x1="384.9" y1="481.1" x2="388.1" y2="487.2" /><line x1="394.8" y1="500.1" x2="397.8" y2="505.8" /><line x1="399.9" y1="509.9" x2="402.8" y2="515.4" /><line x1="405.1" y1="519.9" x2="407.9" y2="525.2" /><line x1="410.5" y1="530.1" x2="413.2" y2="535.3" /><line x1="416.0" y1="540.7" x2="418.6" y2="545.7" /><line x1="421.7" y1="551.6" x2="424.1" y2="556.4" /><line x1="427.6" y1="562.9" x2="429.9" y2="567.4" /><line x1="433.7" y1="574.6" x2="435.9" y2="578.9" /><line x1="440.0" y1="586.8" x2="442.1" y2="590.8" /><line x1="446.7" y1="599.5" x2="448.6" y2="603.3" /><line x1="476.4" y1="656.5" x2="477.8" y2="659.2" /><line x1="484.8" y1="672.6" x2="486.0" y2="675.0" /><line x1="503.1" y1="707.7" x2="504.0" y2="709.4" /><line x1="374.3" y1="462.9" x2="377.1" y2="469.7" /><line x1="378.3" y1="472.6" x2="380.9" y2="479.2" /><line x1="382.2" y1="482.3" x2="384.8" y2="488.7" /><line x1="386.2" y1="492.2" x2="388.8" y2="498.4" /><line x1="390.3" y1="502.2" x2="392.7" y2="508.2" /><line x1="394.5" y1="512.4" x2="396.8" y2="518.2" /><line x1="398.7" y1="522.8" x2="401.0" y2="528.4" /><line x1="403.1" y1="533.6" x2="405.3" y2="539.0" /><line x1="407.6" y1="544.6" x2="409.7" y2="549.8" /><line x1="412.2" y1="556.0" x2="414.2" y2="561.0" /><line x1="417.0" y1="567.8" x2="418.9" y2="572.5" /><line x1="422.0" y1="580.0" x2="423.8" y2="584.5" /><line x1="427.2" y1="592.8" x2="428.9" y2="597.0" /><line x1="432.5" y1="606.0" x2="434.2" y2="610.0" /><line x1="438.2" y1="619.9" x2="439.7" y2="623.6" /><line x1="444.1" y1="634.4" x2="445.5" y2="637.8" /><line x1="450.3" y1="649.6" x2="451.5" y2="652.7" /><line x1="463.6" y1="682.4" x2="464.6" y2="684.9" /><line x1="478.5" y1="719.1" x2="479.2" y2="720.8" /><line x1="373.6" y1="463.2" x2="375.8" y2="470.1" /><line x1="376.8" y1="473.1" x2="378.9" y2="479.9" /><line x1="380.0" y1="483.1" x2="382.1" y2="489.7" /><line x1="383.2" y1="493.3" x2="385.2" y2="499.7" /><line x1="389.8" y1="514.1" x2="391.7" y2="520.0" /><line x1="393.2" y1="524.8" x2="395.1" y2="530.6" /><line x1="396.8" y1="535.9" x2="398.5" y2="541.4" /><line x1="400.4" y1="547.2" x2="402.1" y2="552.5" /><line x1="404.1" y1="558.9" x2="405.7" y2="564.0" /><line x1="408.0" y1="571.1" x2="409.5" y2="575.9" /><line x1="412.0" y1="583.7" x2="413.5" y2="588.3" /><line x1="416.2" y1="596.7" x2="417.5" y2="601.1" /><line x1="420.5" y1="610.4" x2="421.8" y2="614.5" /><line x1="425.0" y1="624.6" x2="426.2" y2="628.4" /><line x1="429.8" y1="639.5" x2="430.9" y2="643.1" /><line x1="440.0" y1="671.6" x2="440.9" y2="674.5" /><line x1="372.7" y1="463.4" x2="374.2" y2="470.6" /><line x1="374.8" y1="473.6" x2="376.3" y2="480.6" /><line x1="377.0" y1="483.9" x2="378.5" y2="490.7" /><line x1="379.3" y1="494.3" x2="380.7" y2="500.9" /><line x1="381.5" y1="504.9" x2="382.9" y2="511.2" /><line x1="383.8" y1="515.7" x2="385.1" y2="521.8" /><line x1="386.2" y1="526.7" x2="387.5" y2="532.6" /><line x1="388.6" y1="538.0" x2="389.8" y2="543.7" /><line x1="391.1" y1="549.7" x2="392.3" y2="555.1" /><line x1="393.7" y1="561.7" x2="394.8" y2="566.9" /><line x1="399.1" y1="587.1" x2="400.1" y2="591.8" /><line x1="402.0" y1="600.5" x2="402.9" y2="605.0" /><line x1="408.1" y1="629.1" x2="408.9" y2="633.0" /><line x1="411.4" y1="644.4" x2="412.1" y2="648.0" /><line x1="418.4" y1="677.4" x2="419.0" y2="680.3" /><line x1="422.2" y1="695.2" x2="422.8" y2="697.8" /><line x1="426.2" y1="713.9" x2="426.7" y2="716.2" /><line x1="371.6" y1="463.6" x2="372.3" y2="470.9" /><line x1="372.6" y1="474.0" x2="373.3" y2="481.1" /><line x1="373.7" y1="484.5" x2="374.4" y2="491.3" /><line x1="374.7" y1="495.0" x2="375.4" y2="501.7" /><line x1="375.8" y1="505.8" x2="376.5" y2="512.2" /><line x1="376.9" y1="516.8" x2="377.6" y2="523.0" /><line x1="379.2" y1="539.5" x2="379.8" y2="545.3" /><line x1="380.4" y1="551.4" x2="381.0" y2="556.9" /><line x1="381.7" y1="563.6" x2="382.2" y2="568.9" /><line x1="384.3" y1="589.4" x2="384.7" y2="594.2" /><line x1="385.6" y1="603.1" x2="386.1" y2="607.6" /><line x1="390.2" y1="647.8" x2="390.5" y2="651.4" /><line x1="391.8" y1="664.1" x2="392.1" y2="667.4" /><line x1="395.4" y1="699.4" x2="395.6" y2="702.0" /><line x1="370.5" y1="463.6" x2="370.5" y2="470.9" /><line x1="370.5" y1="474.1" x2="370.5" y2="481.2" /><line x1="370.5" y1="484.6" x2="370.4" y2="491.5" /><line x1="370.4" y1="495.2" x2="370.4" y2="501.9" /><line x1="370.4" y1="506.1" x2="370.4" y2="512.5" /><line x1="370.4" y1="517.1" x2="370.4" y2="523.3" /><line x1="370.3" y1="528.4" x2="370.3" y2="534.4" /><line x1="370.3" y1="539.9" x2="370.3" y2="545.7" /><line x1="370.3" y1="551.9" x2="370.2" y2="557.4" /><line x1="370.2" y1="564.2" x2="370.2" y2="569.5" /><line x1="370.2" y1="576.9" x2="370.2" y2="582.0" /><line x1="370.2" y1="590.1" x2="370.1" y2="594.9" /><line x1="370.1" y1="603.8" x2="370.1" y2="608.4" /><line x1="370.1" y1="618.1" x2="370.1" y2="622.4" /><line x1="370.0" y1="633.1" x2="370.0" y2="637.1" /><line x1="370.0" y1="648.7" x2="370.0" y2="652.4" /><line x1="369.9" y1="682.4" x2="369.9" y2="685.5" /><line x1="369.8" y1="700.6" x2="369.8" y2="703.3" /><line x1="369.8" y1="719.8" x2="369.8" y2="722.1" /><line x1="369.6" y1="463.6" x2="368.9" y2="470.9" /><line x1="368.6" y1="474.0" x2="367.9" y2="481.1" /><line x1="367.6" y1="484.5" x2="366.9" y2="491.3" /><line x1="366.6" y1="495.1" x2="366.0" y2="501.7" /><line x1="365.6" y1="505.8" x2="364.9" y2="512.3" /><line x1="363.4" y1="528.0" x2="362.9" y2="534.0" /><line x1="362.3" y1="539.5" x2="361.8" y2="545.3" /><line x1="361.2" y1="551.4" x2="360.7" y2="557.0" /><line x1="360.0" y1="563.7" x2="359.5" y2="569.0" /><line x1="358.8" y1="576.3" x2="358.3" y2="581.4" /><line x1="357.5" y1="589.5" x2="357.1" y2="594.3" /><line x1="356.2" y1="603.1" x2="355.8" y2="607.7" /><line x1="353.4" y1="632.3" x2="353.0" y2="636.3" /><line x1="351.9" y1="647.9" x2="351.6" y2="651.5" /><line x1="348.7" y1="681.4" x2="348.4" y2="684.4" /><line x1="345.2" y1="718.6" x2="344.9" y2="720.9" /><line x1="368.8" y1="463.5" x2="367.5" y2="470.7" /><line x1="367.0" y1="473.8" x2="365.8" y2="480.8" /><line x1="365.2" y1="484.1" x2="364.0" y2="490.9" /><line x1="363.3" y1="494.6" x2="362.1" y2="501.2" /><line x1="361.4" y1="505.2" x2="360.3" y2="511.6" /><line x1="359.5" y1="516.1" x2="358.4" y2="522.3" /><line x1="357.5" y1="527.2" x2="356.5" y2="533.2" /><line x1="355.5" y1="538.6" x2="354.5" y2="544.3" /><line x1="353.4" y1="550.3" x2="352.4" y2="555.8" /><line x1="351.3" y1="562.5" x2="350.3" y2="567.7" /><line x1="346.7" y1="588.0" x2="345.9" y2="592.8" /><line x1="341.9" y1="615.6" x2="341.1" y2="619.8" /><line x1="336.5" y1="645.8" x2="335.9" y2="649.4" /><line x1="327.5" y1="696.8" x2="327.0" y2="699.5" /><line x1="367.4" y1="463.1" x2="365.2" y2="470.1" /><line x1="364.2" y1="473.1" x2="362.0" y2="479.8" /><line x1="360.9" y1="483.1" x2="358.8" y2="489.6" /><line x1="354.2" y1="503.4" x2="352.2" y2="509.6" /><line x1="350.8" y1="513.9" x2="348.8" y2="519.9" /><line x1="347.3" y1="524.6" x2="345.4" y2="530.4" /><line x1="343.7" y1="535.6" x2="341.9" y2="541.2" /><line x1="336.1" y1="558.7" x2="334.4" y2="563.7" /><line x1="332.1" y1="570.7" x2="330.6" y2="575.6" /><line x1="328.0" y1="583.3" x2="326.5" y2="587.9" /><line x1="323.7" y1="596.3" x2="322.3" y2="600.7" /><line x1="319.3" y1="609.9" x2="318.0" y2="614.0" /><line x1="314.6" y1="624.2" x2="313.4" y2="628.0" /><line x1="299.2" y1="671.0" x2="298.3" y2="673.9" /><line x1="293.6" y1="688.3" x2="292.7" y2="690.9" /><line x1="287.6" y1="706.6" x2="286.9" y2="708.8" /><line x1="366.6" y1="462.8" x2="363.8" y2="469.5" /><line x1="362.5" y1="472.4" x2="359.7" y2="479.0" /><line x1="358.4" y1="482.1" x2="355.7" y2="488.5" /><line x1="354.2" y1="491.9" x2="351.6" y2="498.0" /><line x1="349.9" y1="501.8" x2="347.4" y2="507.8" /><line x1="345.6" y1="512.0" x2="343.1" y2="517.7" /><line x1="341.2" y1="522.3" x2="338.8" y2="527.9" /><line x1="336.6" y1="533.0" x2="334.3" y2="538.3" /><line x1="331.9" y1="543.9" x2="329.7" y2="549.1" /><line x1="327.1" y1="555.2" x2="325.0" y2="560.2" /><line x1="322.1" y1="566.9" x2="320.1" y2="571.6" /><line x1="316.9" y1="579.1" x2="315.0" y2="583.5" /><line x1="311.5" y1="591.7" x2="309.7" y2="595.9" /><line x1="305.8" y1="604.9" x2="304.2" y2="608.8" /><line x1="300.0" y1="618.6" x2="298.4" y2="622.3" /><line x1="293.8" y1="633.0" x2="292.4" y2="636.4" /><line x1="287.3" y1="648.1" x2="286.0" y2="651.2" /><line x1="273.4" y1="680.7" x2="272.3" y2="683.2" /><line x1="257.8" y1="717.1" x2="257.1" y2="718.8" /><line x1="365.9" y1="462.5" x2="362.5" y2="469.0" /><line x1="361.0" y1="471.7" x2="357.7" y2="478.0" /><line x1="356.1" y1="481.0" x2="352.9" y2="487.1" /><line x1="351.2" y1="490.5" x2="348.1" y2="496.4" /><line x1="341.0" y1="509.8" x2="338.1" y2="515.3" /><line x1="335.8" y1="519.7" x2="332.9" y2="525.1" /><line x1="330.4" y1="530.0" x2="327.6" y2="535.1" /><line x1="324.8" y1="540.5" x2="322.2" y2="545.5" /><line x1="319.1" y1="551.4" x2="316.6" y2="556.2" /><line x1="313.1" y1="562.7" x2="310.8" y2="567.2" /><line x1="307.0" y1="574.4" x2="304.7" y2="578.7" /><line x1="300.6" y1="586.5" x2="298.5" y2="590.6" /><line x1="293.9" y1="599.2" x2="291.9" y2="603.0" /><line x1="255.5" y1="672.2" x2="254.2" y2="674.6" /><line x1="364.9" y1="461.9" x2="360.8" y2="467.9" /><line x1="359.0" y1="470.5" x2="355.0" y2="476.4" /><line x1="353.1" y1="479.2" x2="349.2" y2="484.9" /><line x1="347.1" y1="488.0" x2="343.3" y2="493.5" /><line x1="340.9" y1="496.9" x2="337.3" y2="502.2" /><line x1="334.7" y1="506.0" x2="331.2" y2="511.1" /><line x1="328.3" y1="515.3" x2="324.9" y2="520.3" /><line x1="321.8" y1="524.8" x2="318.5" y2="529.6" /><line x1="300.9" y1="555.3" x2="298.0" y2="559.5" /><line x1="285.7" y1="577.6" x2="283.1" y2="581.3" /><line x1="277.6" y1="589.4" x2="275.2" y2="592.9" /><line x1="269.2" y1="601.7" x2="266.9" y2="605.0" /><line x1="364.2" y1="461.4" x2="359.6" y2="467.0" /><line x1="357.6" y1="469.5" x2="353.1" y2="475.0" /><line x1="351.0" y1="477.6" x2="346.6" y2="483.0" /><line x1="344.2" y1="485.9" x2="340.0" y2="491.0" /><line x1="337.4" y1="494.2" x2="333.3" y2="499.2" /><line x1="330.4" y1="502.7" x2="326.4" y2="507.6" /><line x1="323.3" y1="511.5" x2="319.4" y2="516.2" /><line x1="315.9" y1="520.4" x2="312.3" y2="524.9" /><line x1="308.4" y1="529.7" x2="304.9" y2="534.0" /><line x1="300.6" y1="539.2" x2="297.2" y2="543.3" /><line x1="284.2" y1="559.3" x2="281.1" y2="563.0" /><line x1="275.5" y1="569.9" x2="272.6" y2="573.5" /><line x1="266.4" y1="581.0" x2="263.7" y2="584.3" /><line x1="257.0" y1="592.6" x2="254.4" y2="595.7" /><line x1="363.5" y1="460.7" x2="358.3" y2="465.9" /><line x1="356.1" y1="468.1" x2="351.1" y2="473.1" /><line x1="348.6" y1="475.5" x2="343.8" y2="480.4" /><line x1="341.1" y1="483.0" x2="336.4" y2="487.8" /><line x1="333.5" y1="490.7" x2="328.9" y2="495.3" /><line x1="325.7" y1="498.5" x2="321.2" y2="502.9" /><line x1="317.7" y1="506.4" x2="313.4" y2="510.7" /><line x1="309.5" y1="514.6" x2="305.4" y2="518.7" /><line x1="292.4" y1="531.7" x2="288.6" y2="535.5" /><line x1="264.3" y1="559.8" x2="261.1" y2="563.0" /><line x1="362.7" y1="459.8" x2="356.9" y2="464.3" /><line x1="354.4" y1="466.2" x2="348.8" y2="470.6" /><line x1="346.1" y1="472.7" x2="340.7" y2="476.9" /><line x1="337.8" y1="479.2" x2="332.5" y2="483.4" /><line x1="329.2" y1="485.9" x2="324.1" y2="489.9" /><line x1="320.6" y1="492.7" x2="315.6" y2="496.5" /><line x1="311.7" y1="499.6" x2="306.9" y2="503.3" /><line x1="302.5" y1="506.7" x2="298.0" y2="510.3" /><line x1="273.4" y1="529.5" x2="269.4" y2="532.6" /><line x1="263.0" y1="537.6" x2="259.2" y2="540.6" /><line x1="362.3" y1="459.2" x2="356.2" y2="463.3" /><line x1="353.6" y1="465.1" x2="347.7" y2="469.1" /><line x1="344.9" y1="471.0" x2="339.2" y2="474.9" /><line x1="336.1" y1="476.9" x2="330.6" y2="480.7" /><line x1="318.0" y1="489.2" x2="312.8" y2="492.7" /><line x1="308.7" y1="495.5" x2="303.7" y2="498.9" /><line x1="299.1" y1="502.0" x2="294.3" y2="505.2" /><line x1="289.2" y1="508.7" x2="284.6" y2="511.8" /><line x1="279.0" y1="515.5" x2="274.6" y2="518.5" /><line x1="268.5" y1="522.7" x2="264.2" y2="525.5" /><line x1="257.5" y1="530.1" x2="253.5" y2="532.8" /><line x1="352.3" y1="462.8" x2="346.0" y2="466.0" /><line x1="342.9" y1="467.6" x2="336.7" y2="470.7" /><line x1="333.4" y1="472.4" x2="327.4" y2="475.4" /><line x1="313.9" y1="482.2" x2="308.3" y2="485.0" /><line x1="303.8" y1="487.3" x2="298.4" y2="490.0" /><line x1="293.5" y1="492.5" x2="288.3" y2="495.1" /><line x1="271.9" y1="503.4" x2="267.1" y2="505.8" /><line x1="260.5" y1="509.1" x2="256.0" y2="511.4" /><line x1="361.3" y1="457.5" x2="354.6" y2="460.2" /><line x1="351.6" y1="461.4" x2="345.1" y2="464.1" /><line x1="341.9" y1="465.4" x2="335.6" y2="468.1" /><line x1="332.1" y1="469.5" x2="325.9" y2="472.0" /><line x1="322.1" y1="473.6" x2="316.1" y2="476.1" /><line x1="311.9" y1="477.8" x2="306.1" y2="480.2" /><line x1="301.5" y1="482.1" x2="295.9" y2="484.4" /><line x1="290.8" y1="486.5" x2="285.4" y2="488.7" /><line x1="279.8" y1="491.1" x2="274.6" y2="493.2" /><line x1="268.4" y1="495.8" x2="263.4" y2="497.8" /><line x1="361.0" y1="456.6" x2="354.0" y2="458.7" /><line x1="351.0" y1="459.7" x2="344.2" y2="461.8" /><line x1="341.0" y1="462.8" x2="334.4" y2="464.8" /><line x1="330.8" y1="465.9" x2="324.4" y2="467.9" /><line x1="320.5" y1="469.1" x2="314.3" y2="471.0" /><line x1="309.9" y1="472.3" x2="304.0" y2="474.2" /><line x1="299.2" y1="475.7" x2="293.4" y2="477.5" /><line x1="288.1" y1="479.1" x2="282.6" y2="480.8" /><line x1="276.7" y1="482.6" x2="271.4" y2="484.3" /><line x1="265.0" y1="486.2" x2="259.9" y2="487.8" /><line x1="360.7" y1="455.6" x2="353.6" y2="457.0" /><line x1="350.5" y1="457.6" x2="343.5" y2="458.9" /><line x1="340.2" y1="459.6" x2="333.4" y2="460.9" /><line x1="329.7" y1="461.7" x2="323.2" y2="462.9" /><line x1="319.1" y1="463.7" x2="312.8" y2="465.0" /><line x1="308.3" y1="465.9" x2="302.2" y2="467.1" /><line x1="297.2" y1="468.0" x2="291.3" y2="469.2" /><line x1="285.9" y1="470.3" x2="280.2" y2="471.4" /><line x1="274.2" y1="472.6" x2="268.7" y2="473.6" /><line x1="360.6" y1="454.8" x2="353.4" y2="455.6" /><line x1="350.2" y1="456.0" x2="343.2" y2="456.8" /><line x1="339.8" y1="457.2" x2="332.9" y2="458.0" /><line x1="329.2" y1="458.4" x2="322.6" y2="459.2" /><line x1="318.5" y1="459.7" x2="312.1" y2="460.4" /><line x1="296.3" y1="462.2" x2="290.3" y2="462.9" /><line x1="273.0" y1="465.0" x2="267.5" y2="465.6" /><line x1="260.8" y1="466.4" x2="255.5" y2="467.0" /><line x1="360.6" y1="453.4" x2="353.3" y2="453.3" /><line x1="350.1" y1="453.2" x2="343.0" y2="453.1" /><line x1="339.6" y1="453.0" x2="332.7" y2="452.9" /><line x1="318.2" y1="452.6" x2="311.7" y2="452.5" /><line x1="307.1" y1="452.4" x2="300.9" y2="452.2" /><line x1="295.9" y1="452.1" x2="289.8" y2="452.0" /><line x1="284.3" y1="451.9" x2="278.5" y2="451.8" /><line x1="272.4" y1="451.7" x2="266.8" y2="451.5" /><line x1="260.1" y1="451.4" x2="254.7" y2="451.3" /><line x1="350.2" y1="451.4" x2="343.2" y2="450.7" /><line x1="339.8" y1="450.3" x2="332.9" y2="449.6" /><line x1="329.2" y1="449.2" x2="322.5" y2="448.4" /><line x1="318.5" y1="448.0" x2="312.0" y2="447.3" /><line x1="307.5" y1="446.8" x2="301.3" y2="446.1" /><line x1="296.3" y1="445.6" x2="290.3" y2="445.0" /><line x1="260.7" y1="441.7" x2="255.4" y2="441.2" /><line x1="360.7" y1="451.9" x2="353.5" y2="450.6" /><line x1="350.4" y1="450.1" x2="343.4" y2="448.8" /><line x1="340.1" y1="448.2" x2="333.3" y2="447.0" /><line x1="329.6" y1="446.4" x2="323.0" y2="445.2" /><line x1="318.9" y1="444.5" x2="312.6" y2="443.4" /><line x1="308.1" y1="442.6" x2="301.9" y2="441.5" /><line x1="297.0" y1="440.6" x2="291.0" y2="439.6" /><line x1="273.9" y1="436.5" x2="268.4" y2="435.6" /><line x1="261.7" y1="434.4" x2="256.5" y2="433.5" /><line x1="360.9" y1="451.0" x2="353.9" y2="449.0" /><line x1="350.9" y1="448.2" x2="344.0" y2="446.3" /><line x1="340.7" y1="445.3" x2="334.1" y2="443.5" /><line x1="330.5" y1="442.5" x2="324.0" y2="440.7" /><line x1="320.1" y1="439.6" x2="313.8" y2="437.9" /><line x1="309.4" y1="436.6" x2="303.4" y2="435.0" /><line x1="298.6" y1="433.6" x2="292.8" y2="432.0" /><line x1="287.4" y1="430.5" x2="281.8" y2="428.9" /><line x1="275.9" y1="427.3" x2="270.6" y2="425.8" /><line x1="264.1" y1="424.0" x2="258.9" y2="422.6" /><line x1="361.3" y1="449.7" x2="354.6" y2="446.9" /><line x1="351.7" y1="445.7" x2="345.2" y2="442.9" /><line x1="342.0" y1="441.6" x2="335.7" y2="438.9" /><line x1="332.2" y1="437.4" x2="326.1" y2="434.8" /><line x1="322.3" y1="433.2" x2="316.3" y2="430.7" /><line x1="301.7" y1="424.6" x2="296.2" y2="422.2" /><line x1="291.1" y1="420.0" x2="285.7" y2="417.8" /><line x1="268.8" y1="410.6" x2="263.8" y2="408.5" /><line x1="257.0" y1="405.7" x2="252.3" y2="403.7" /><line x1="361.7" y1="449.1" x2="355.2" y2="445.7" /><line x1="352.4" y1="444.3" x2="346.1" y2="441.0" /><line x1="343.0" y1="439.5" x2="336.9" y2="436.3" /><line x1="324.0" y1="429.6" x2="318.2" y2="426.7" /><line x1="314.2" y1="424.6" x2="308.6" y2="421.7" /><line x1="304.1" y1="419.4" x2="298.8" y2="416.7" /><line x1="293.8" y1="414.1" x2="288.7" y2="411.5" /><line x1="283.2" y1="408.7" x2="278.3" y2="406.1" /><line x1="261.0" y1="397.2" x2="256.5" y2="394.9" /><line x1="362.3" y1="448.1" x2="356.2" y2="444.0" /><line x1="353.6" y1="442.3" x2="347.7" y2="438.3" /><line x1="344.8" y1="436.4" x2="339.1" y2="432.6" /><line x1="336.0" y1="430.5" x2="330.4" y2="426.8" /><line x1="327.0" y1="424.5" x2="321.6" y2="420.9" /><line x1="317.9" y1="418.3" x2="312.7" y2="414.9" /><line x1="308.5" y1="412.1" x2="303.5" y2="408.7" /><line x1="298.9" y1="405.6" x2="294.0" y2="402.4" /><line x1="289.0" y1="399.0" x2="284.3" y2="395.9" /><line x1="278.7" y1="392.1" x2="274.3" y2="389.2" /><line x1="268.2" y1="385.1" x2="263.9" y2="382.2" /><line x1="363.0" y1="447.1" x2="357.4" y2="442.4" /><line x1="355.0" y1="440.4" x2="349.6" y2="435.7" /><line x1="347.0" y1="433.5" x2="341.8" y2="429.0" /><line x1="338.9" y1="426.6" x2="333.8" y2="422.3" /><line x1="330.7" y1="419.6" x2="325.8" y2="415.4" /><line x1="322.3" y1="412.4" x2="317.6" y2="408.4" /><line x1="313.8" y1="405.1" x2="309.2" y2="401.2" /><line x1="305.0" y1="397.6" x2="300.5" y2="393.8" /><line x1="295.9" y1="389.8" x2="291.6" y2="386.2" /><line x1="266.8" y1="365.0" x2="263.1" y2="361.9" /><line x1="256.4" y1="356.1" x2="252.9" y2="353.1" /><line x1="355.9" y1="439.4" x2="350.8" y2="434.4" /><line x1="348.4" y1="432.0" x2="343.4" y2="427.2" /><line x1="340.8" y1="424.6" x2="336.0" y2="419.9" /><line x1="333.0" y1="417.1" x2="328.4" y2="412.6" /><line x1="317.0" y1="401.5" x2="312.7" y2="397.3" /><line x1="308.7" y1="393.4" x2="304.6" y2="389.4" /><line x1="300.2" y1="385.1" x2="296.2" y2="381.2" /><line x1="291.4" y1="376.5" x2="287.6" y2="372.8" /><line x1="364.4" y1="445.8" x2="359.9" y2="440.0" /><line x1="357.9" y1="437.5" x2="353.6" y2="432.0" /><line x1="351.5" y1="429.3" x2="347.2" y2="423.8" /><line x1="344.9" y1="420.9" x2="340.8" y2="415.6" /><line x1="338.2" y1="412.4" x2="334.2" y2="407.3" /><line x1="331.4" y1="403.7" x2="327.6" y2="398.8" /><line x1="324.5" y1="394.8" x2="320.7" y2="390.1" /><line x1="317.3" y1="385.7" x2="313.7" y2="381.1" /><line x1="310.0" y1="376.3" x2="306.5" y2="371.9" /><line x1="302.4" y1="366.7" x2="299.1" y2="362.5" /><line x1="277.9" y1="335.4" x2="275.1" y2="331.8" /><line x1="269.1" y1="324.2" x2="266.4" y2="320.8" /><line x1="364.9" y1="445.4" x2="360.8" y2="439.4" /><line x1="359.0" y1="436.8" x2="355.0" y2="430.9" /><line x1="353.0" y1="428.1" x2="349.1" y2="422.4" /><line x1="347.0" y1="419.3" x2="343.3" y2="413.8" /><line x1="340.9" y1="410.4" x2="337.3" y2="405.1" /><line x1="334.7" y1="401.3" x2="331.1" y2="396.2" /><line x1="328.3" y1="392.0" x2="324.9" y2="387.0" /><line x1="321.8" y1="382.5" x2="318.5" y2="377.7" /><line x1="308.1" y1="362.5" x2="305.0" y2="358.1" /><line x1="300.9" y1="352.0" x2="298.0" y2="347.8" /><line x1="365.9" y1="444.8" x2="362.5" y2="438.3" /><line x1="361.0" y1="435.6" x2="357.7" y2="429.3" /><line x1="356.1" y1="426.3" x2="352.9" y2="420.2" /><line x1="351.1" y1="416.9" x2="348.0" y2="410.9" /><line x1="346.1" y1="407.3" x2="343.0" y2="401.6" /><line x1="340.9" y1="397.6" x2="338.0" y2="392.0" /><line x1="335.7" y1="387.6" x2="332.8" y2="382.2" /><line x1="330.2" y1="377.3" x2="327.5" y2="372.2" /><line x1="318.9" y1="355.9" x2="316.4" y2="351.2" /><line x1="313.0" y1="344.7" x2="310.6" y2="340.2" /><line x1="306.8" y1="333.0" x2="304.6" y2="328.7" /><line x1="366.8" y1="444.4" x2="364.0" y2="437.6" /><line x1="362.8" y1="434.7" x2="360.1" y2="428.1" /><line x1="358.8" y1="425.0" x2="356.2" y2="418.6" /><line x1="354.8" y1="415.1" x2="352.2" y2="409.0" /><line x1="350.7" y1="405.2" x2="348.2" y2="399.2" /><line x1="346.5" y1="395.0" x2="344.1" y2="389.2" /><line x1="342.2" y1="384.5" x2="339.9" y2="378.9" /><line x1="333.3" y1="362.8" x2="331.2" y2="357.6" /><line x1="328.6" y1="351.4" x2="326.6" y2="346.5" /><line x1="323.8" y1="339.6" x2="321.8" y2="334.9" /><line x1="367.8" y1="444.0" x2="365.8" y2="437.0" /><line x1="364.9" y1="434.0" x2="362.9" y2="427.2" /><line x1="362.0" y1="423.9" x2="360.1" y2="417.2" /><line x1="356.1" y1="403.3" x2="354.3" y2="397.0" /><line x1="349.9" y1="381.8" x2="348.2" y2="376.0" /><line x1="346.7" y1="370.7" x2="345.1" y2="365.1" /><line x1="343.4" y1="359.3" x2="341.9" y2="353.9" /><line x1="340.0" y1="347.4" x2="338.5" y2="342.3" /><line x1="336.5" y1="335.2" x2="335.1" y2="330.3" /><line x1="368.6" y1="443.8" x2="367.1" y2="436.7" /><line x1="366.5" y1="433.6" x2="365.0" y2="426.6" /><line x1="364.3" y1="423.3" x2="363.0" y2="416.5" /><line x1="362.2" y1="412.9" x2="360.9" y2="406.3" /><line x1="360.0" y1="402.3" x2="358.7" y2="396.0" /><line x1="357.8" y1="391.5" x2="356.6" y2="385.4" /><line x1="355.6" y1="380.4" x2="354.3" y2="374.5" /><line x1="353.2" y1="369.1" x2="352.1" y2="363.4" /><line x1="350.8" y1="357.4" x2="349.7" y2="352.0" /><line x1="348.4" y1="345.4" x2="347.3" y2="340.1" /><line x1="345.8" y1="332.9" x2="344.8" y2="327.9" /><line x1="369.6" y1="443.7" x2="368.8" y2="436.4" /><line x1="368.5" y1="433.3" x2="367.8" y2="426.2" /><line x1="367.4" y1="422.8" x2="366.8" y2="416.0" /><line x1="366.4" y1="412.2" x2="365.7" y2="405.6" /><line x1="365.3" y1="401.5" x2="364.6" y2="395.0" /><line x1="364.2" y1="390.5" x2="363.6" y2="384.3" /><line x1="361.9" y1="367.8" x2="361.3" y2="362.0" /><line x1="360.7" y1="355.9" x2="360.1" y2="350.4" /><line x1="359.5" y1="343.7" x2="358.9" y2="338.4" /><line x1="358.2" y1="331.0" x2="357.7" y2="325.9" /><line x1="370.7" y1="443.6" x2="370.9" y2="436.3" /><line x1="370.9" y1="433.2" x2="371.0" y2="426.1" /><line x1="371.1" y1="422.7" x2="371.2" y2="415.8" /><line x1="371.3" y1="412.0" x2="371.4" y2="405.4" /><line x1="371.5" y1="401.2" x2="371.6" y2="394.8" /><line x1="371.6" y1="390.2" x2="371.7" y2="384.0" /><line x1="371.8" y1="378.9" x2="371.9" y2="372.9" /><line x1="372.0" y1="367.4" x2="372.1" y2="361.5" /><line x1="372.2" y1="355.4" x2="372.3" y2="349.9" /><line x1="372.4" y1="343.1" x2="372.5" y2="337.8" /><line x1="372.7" y1="330.4" x2="372.7" y2="325.3" /><line x1="371.6" y1="443.7" x2="372.3" y2="436.4" /><line x1="372.6" y1="433.3" x2="373.4" y2="426.2" /><line x1="373.7" y1="422.8" x2="374.4" y2="416.0" /><line x1="374.8" y1="412.3" x2="375.5" y2="405.6" /><line x1="375.9" y1="401.5" x2="376.6" y2="395.1" /><line x1="377.0" y1="390.5" x2="377.7" y2="384.3" /><line x1="378.2" y1="379.3" x2="378.8" y2="373.3" /><line x1="379.4" y1="367.8" x2="380.0" y2="362.0" /><line x1="380.6" y1="355.9" x2="381.2" y2="350.4" /><line x1="381.9" y1="343.7" x2="382.4" y2="338.4" /><line x1="372.7" y1="443.9" x2="374.2" y2="436.7" /><line x1="374.9" y1="433.6" x2="376.4" y2="426.7" /><line x1="377.1" y1="423.4" x2="378.6" y2="416.6" /><line x1="379.4" y1="413.0" x2="380.8" y2="406.4" /><line x1="381.7" y1="402.4" x2="383.0" y2="396.1" /><line x1="384.0" y1="391.6" x2="385.3" y2="385.5" /><line x1="386.4" y1="380.6" x2="387.7" y2="374.7" /><line x1="388.8" y1="369.3" x2="390.1" y2="363.6" /><line x1="391.3" y1="357.7" x2="392.5" y2="352.2" /><line x1="394.0" y1="345.6" x2="395.1" y2="340.4" /><line x1="373.6" y1="444.1" x2="375.7" y2="437.1" /><line x1="376.7" y1="434.1" x2="378.8" y2="427.4" /><line x1="379.8" y1="424.1" x2="381.9" y2="417.5" /><line x1="383.0" y1="413.9" x2="385.0" y2="407.6" /><line x1="386.3" y1="403.6" x2="388.2" y2="397.5" /><line x1="389.6" y1="393.1" x2="391.5" y2="387.2" /><line x1="393.0" y1="382.4" x2="394.8" y2="376.6" /><line x1="396.4" y1="371.3" x2="398.2" y2="365.8" /><line x1="400.0" y1="359.9" x2="401.7" y2="354.6" /><line x1="403.7" y1="348.2" x2="405.3" y2="343.1" /><line x1="407.5" y1="336.1" x2="409.0" y2="331.2" /><line x1="374.4" y1="444.4" x2="377.2" y2="437.7" /><line x1="378.4" y1="434.7" x2="381.1" y2="428.2" /><line x1="382.4" y1="425.0" x2="385.1" y2="418.7" /><line x1="386.5" y1="415.2" x2="389.1" y2="409.0" /><line x1="394.9" y1="395.0" x2="397.3" y2="389.3" /><line x1="399.2" y1="384.6" x2="401.5" y2="379.0" /><line x1="403.6" y1="373.9" x2="405.8" y2="368.6" /><line x1="408.2" y1="362.9" x2="410.3" y2="357.8" /><line x1="417.8" y1="339.8" x2="419.7" y2="335.1" /><line x1="422.8" y1="327.6" x2="424.7" y2="323.1" /><line x1="395.0" y1="407.3" x2="398.0" y2="401.5" /><line x1="400.1" y1="397.5" x2="403.0" y2="392.0" /><line x1="405.3" y1="387.5" x2="408.1" y2="382.2" /><line x1="410.7" y1="377.3" x2="413.4" y2="372.1" /><line x1="416.3" y1="366.7" x2="418.9" y2="361.8" /><line x1="422.0" y1="355.8" x2="424.5" y2="351.1" /><line x1="427.9" y1="344.6" x2="430.3" y2="340.0" /><line x1="376.0" y1="445.3" x2="380.0" y2="439.1" /><line x1="381.7" y1="436.5" x2="385.6" y2="430.5" /><line x1="387.4" y1="427.7" x2="391.2" y2="421.9" /><line x1="393.2" y1="418.7" x2="396.8" y2="413.1" /><line x1="405.1" y1="400.4" x2="408.5" y2="395.2" /><line x1="411.2" y1="391.0" x2="414.5" y2="385.9" /><line x1="417.5" y1="381.3" x2="420.7" y2="376.4" /><line x1="430.7" y1="360.9" x2="433.6" y2="356.4" /><line x1="437.6" y1="350.2" x2="440.4" y2="346.0" /><line x1="444.8" y1="339.2" x2="447.5" y2="335.1" /><line x1="452.3" y1="327.6" x2="454.8" y2="323.8" /><line x1="383.6" y1="437.9" x2="388.1" y2="432.4" /><line x1="390.3" y1="429.8" x2="394.7" y2="424.4" /><line x1="397.1" y1="421.6" x2="401.3" y2="416.4" /><line x1="403.9" y1="413.2" x2="408.1" y2="408.2" /><line x1="411.0" y1="404.7" x2="414.9" y2="399.9" /><line x1="418.1" y1="396.0" x2="422.0" y2="391.4" /><line x1="425.5" y1="387.1" x2="429.2" y2="382.6" /><line x1="433.1" y1="377.9" x2="436.7" y2="373.6" /><line x1="440.9" y1="368.4" x2="444.3" y2="364.3" /><line x1="449.1" y1="358.6" x2="452.3" y2="354.7" /><line x1="466.2" y1="337.8" x2="469.1" y2="334.3" /><line x1="475.3" y1="326.8" x2="478.1" y2="323.5" /><line x1="377.5" y1="446.4" x2="382.5" y2="441.2" /><line x1="384.7" y1="438.9" x2="389.6" y2="433.8" /><line x1="392.0" y1="431.3" x2="396.8" y2="426.3" /><line x1="399.4" y1="423.6" x2="404.0" y2="418.8" /><line x1="406.9" y1="415.8" x2="411.4" y2="411.2" /><line x1="414.5" y1="407.9" x2="418.8" y2="403.4" /><line x1="430.3" y1="391.4" x2="434.4" y2="387.2" /><line x1="438.6" y1="382.8" x2="442.5" y2="378.8" /><line x1="474.6" y1="345.3" x2="477.8" y2="342.0" /><line x1="494.9" y1="324.2" x2="497.6" y2="321.3" /><line x1="378.1" y1="447.1" x2="383.7" y2="442.4" /><line x1="386.1" y1="440.3" x2="391.4" y2="435.7" /><line x1="394.0" y1="433.4" x2="399.3" y2="428.9" /><line x1="402.1" y1="426.5" x2="407.2" y2="422.1" /><line x1="410.3" y1="419.5" x2="415.2" y2="415.2" /><line x1="418.6" y1="412.3" x2="423.4" y2="408.2" /><line x1="427.2" y1="404.9" x2="431.8" y2="401.0" /><line x1="436.0" y1="397.4" x2="440.4" y2="393.6" /><line x1="445.0" y1="389.6" x2="449.2" y2="385.9" /><line x1="454.3" y1="381.6" x2="458.4" y2="378.1" /><line x1="474.0" y1="364.6" x2="477.7" y2="361.5" /><line x1="484.4" y1="355.7" x2="487.9" y2="352.7" /><line x1="495.3" y1="346.3" x2="498.5" y2="343.5" /><line x1="506.6" y1="336.6" x2="509.6" y2="334.0" /><line x1="518.5" y1="326.4" x2="521.2" y2="324.0" /><line x1="379.0" y1="448.3" x2="385.1" y2="444.3" /><line x1="387.8" y1="442.6" x2="393.8" y2="438.8" /><line x1="396.7" y1="437.0" x2="402.5" y2="433.3" /><line x1="405.6" y1="431.3" x2="411.3" y2="427.7" /><line x1="414.7" y1="425.5" x2="420.2" y2="422.0" /><line x1="424.0" y1="419.5" x2="429.3" y2="416.2" /><line x1="433.5" y1="413.5" x2="438.6" y2="410.2" /><line x1="443.3" y1="407.2" x2="448.2" y2="404.1" /><line x1="453.4" y1="400.8" x2="458.1" y2="397.8" /><line x1="463.7" y1="394.2" x2="468.2" y2="391.3" /><line x1="474.5" y1="387.4" x2="478.8" y2="384.6" /><line x1="497.2" y1="372.9" x2="501.0" y2="370.4" /><line x1="509.2" y1="365.2" x2="512.9" y2="362.9" /><line x1="521.8" y1="357.1" x2="525.2" y2="355.0" /><line x1="548.9" y1="339.9" x2="551.7" y2="338.1" /><line x1="379.3" y1="448.8" x2="385.7" y2="445.3" /><line x1="388.5" y1="443.8" x2="394.7" y2="440.4" /><line x1="397.7" y1="438.7" x2="403.8" y2="435.4" /><line x1="407.0" y1="433.6" x2="412.9" y2="430.4" /><line x1="416.5" y1="428.4" x2="422.2" y2="425.3" /><line x1="426.2" y1="423.1" x2="431.7" y2="420.1" /><line x1="436.1" y1="417.7" x2="441.4" y2="414.8" /><line x1="446.2" y1="412.1" x2="451.3" y2="409.3" /><line x1="456.7" y1="406.4" x2="461.6" y2="403.7" /><line x1="467.5" y1="400.5" x2="472.1" y2="397.9" /><line x1="490.2" y1="388.0" x2="494.4" y2="385.7" /><line x1="502.2" y1="381.4" x2="506.2" y2="379.2" /><line x1="514.8" y1="374.5" x2="518.5" y2="372.5" /><line x1="527.9" y1="367.3" x2="531.4" y2="365.4" /><line x1="541.6" y1="359.8" x2="544.8" y2="358.0" /><line x1="379.8" y1="449.7" x2="386.5" y2="446.9" /><line x1="389.4" y1="445.7" x2="395.9" y2="442.9" /><line x1="399.1" y1="441.6" x2="405.4" y2="438.9" /><line x1="418.8" y1="433.2" x2="424.8" y2="430.7" /><line x1="439.4" y1="424.6" x2="445.0" y2="422.2" /><line x1="461.0" y1="415.4" x2="466.2" y2="413.3" /><line x1="484.1" y1="405.7" x2="488.8" y2="403.7" /><line x1="496.3" y1="400.5" x2="500.7" y2="398.7" /><line x1="508.9" y1="395.2" x2="513.1" y2="393.4" /><line x1="535.9" y1="383.8" x2="539.6" y2="382.3" /><line x1="550.3" y1="377.7" x2="553.7" y2="376.3" /><line x1="380.1" y1="450.8" x2="387.1" y2="448.7" /><line x1="390.2" y1="447.8" x2="397.0" y2="445.7" /><line x1="400.2" y1="444.8" x2="406.8" y2="442.8" /><line x1="410.4" y1="441.7" x2="416.8" y2="439.8" /><line x1="431.3" y1="435.5" x2="437.3" y2="433.7" /><line x1="442.1" y1="432.2" x2="447.9" y2="430.5" /><line x1="453.2" y1="428.9" x2="458.8" y2="427.3" /><line x1="464.7" y1="425.5" x2="470.0" y2="423.9" /><line x1="476.4" y1="422.0" x2="481.6" y2="420.5" /><line x1="488.6" y1="418.3" x2="493.5" y2="416.9" /><line x1="514.5" y1="410.6" x2="518.8" y2="409.3" /><line x1="542.5" y1="402.3" x2="546.3" y2="401.1" /><line x1="557.5" y1="397.8" x2="561.0" y2="396.7" /><line x1="380.3" y1="451.6" x2="387.5" y2="450.0" /><line x1="390.6" y1="449.4" x2="397.5" y2="447.9" /><line x1="400.9" y1="447.2" x2="407.6" y2="445.7" /><line x1="411.3" y1="445.0" x2="417.8" y2="443.6" /><line x1="421.8" y1="442.7" x2="428.2" y2="441.4" /><line x1="432.6" y1="440.4" x2="438.7" y2="439.1" /><line x1="443.6" y1="438.1" x2="449.5" y2="436.8" /><line x1="455.0" y1="435.6" x2="460.6" y2="434.4" /><line x1="478.6" y1="430.6" x2="483.9" y2="429.5" /><line x1="491.1" y1="427.9" x2="496.1" y2="426.9" /><line x1="517.4" y1="422.3" x2="521.9" y2="421.4" /><line x1="546.1" y1="416.2" x2="550.0" y2="415.4" /><line x1="380.5" y1="452.6" x2="387.8" y2="451.9" /><line x1="390.9" y1="451.6" x2="398.0" y2="450.8" /><line x1="401.4" y1="450.5" x2="408.2" y2="449.8" /><line x1="411.9" y1="449.4" x2="418.6" y2="448.7" /><line x1="422.7" y1="448.3" x2="429.1" y2="447.6" /><line x1="433.7" y1="447.2" x2="439.9" y2="446.5" /><line x1="444.9" y1="446.0" x2="450.9" y2="445.4" /><line x1="456.4" y1="444.8" x2="462.2" y2="444.2" /><line x1="468.3" y1="443.6" x2="473.8" y2="443.0" /><line x1="480.5" y1="442.4" x2="485.8" y2="441.8" /><line x1="506.3" y1="439.7" x2="511.1" y2="439.2" /><line x1="520.0" y1="438.3" x2="524.5" y2="437.8" /><line x1="534.2" y1="436.8" x2="538.5" y2="436.4" /><line x1="549.1" y1="435.3" x2="553.1" y2="434.9" /><line x1="271.2" y1="349.3" x2="272.0" y2="350.1" /><line x1="426.2" y1="339.8" x2="427.0" y2="340.6" /><line x1="540.8" y1="438.8" x2="541.6" y2="439.6" /><line x1="411.6" y1="604.5" x2="412.4" y2="605.3" /><line x1="307.2" y1="589.9" x2="308.0" y2="590.7" /><line x1="316.4" y1="562.9" x2="317.2" y2="563.7" /><line x1="505.2" y1="515.2" x2="506.0" y2="516.0" /><line x1="450.0" y1="329.8" x2="450.8" y2="330.6" /><line x1="261.2" y1="352.0" x2="262.0" y2="352.8" /><line x1="525.4" y1="466.0" x2="526.2" y2="466.8" /><line x1="296.9" y1="323.2" x2="297.7" y2="324.0" /><line x1="533.8" y1="498.4" x2="534.6" y2="499.2" /><line x1="328.1" y1="641.5" x2="328.9" y2="642.3" /><line x1="509.5" y1="565.4" x2="510.3" y2="566.2" /><line x1="407.1" y1="339.5" x2="407.9" y2="340.3" /><line x1="346.6" y1="633.9" x2="347.4" y2="634.7" /><line x1="402.2" y1="616.6" x2="403.0" y2="617.4" /><line x1="342.5" y1="323.8" x2="343.3" y2="324.6" /><line x1="392.4" y1="637.9" x2="393.2" y2="638.7" /><line x1="465.0" y1="521.1" x2="465.8" y2="521.9" /><line x1="507.9" y1="514.5" x2="508.7" y2="515.3" /><line x1="308.4" y1="349.0" x2="309.2" y2="349.8" /><line x1="497.2" y1="472.6" x2="498.0" y2="473.4" /><line x1="434.1" y1="602.8" x2="434.9" y2="603.6" /><line x1="270.7" y1="356.6" x2="271.5" y2="357.4" /><line x1="424.9" y1="623.7" x2="425.7" y2="624.5" /><line x1="489.5" y1="354.7" x2="490.3" y2="355.5" /></g><g id="03_Gold_Source" inkscape:groupmode="layer" inkscape:label="03_Gold_Source" stroke="#B8960C" fill="none" stroke-width="1" stroke-linecap="round" stroke-linejoin="round"><line x1="372.6" y1="453.6" x2="375.3" y2="453.6" /><line x1="372.5" y1="454.1" x2="376.6" y2="454.9" /><line x1="372.4" y1="454.5" x2="376.9" y2="456.5" /><line x1="372.2" y1="454.8" x2="376.1" y2="457.7" /><line x1="371.9" y1="455.1" x2="374.6" y2="458.1" /><line x1="371.6" y1="455.4" x2="372.8" y2="457.6" /><line x1="371.2" y1="455.5" x2="372.0" y2="458.2" /><line x1="370.8" y1="455.6" x2="371.2" y2="459.8" /><line x1="370.4" y1="455.6" x2="369.8" y2="460.5" /><line x1="369.9" y1="455.5" x2="368.4" y2="460.2" /><line x1="369.6" y1="455.4" x2="367.6" y2="458.8" /><line x1="369.2" y1="455.1" x2="367.5" y2="457.0" /><line x1="368.9" y1="454.8" x2="366.7" y2="456.5" /><line x1="368.7" y1="454.5" x2="364.9" y2="456.1" /><line x1="368.6" y1="454.1" x2="363.8" y2="455.1" /><line x1="368.6" y1="453.6" x2="363.7" y2="453.6" /><line x1="368.6" y1="453.2" x2="364.7" y2="452.4" /><line x1="368.7" y1="452.8" x2="366.4" y2="451.8" /><line x1="368.9" y1="452.5" x2="366.7" y2="450.8" /><line x1="369.2" y1="452.2" x2="366.4" y2="449.1" /><line x1="369.6" y1="451.9" x2="367.1" y2="447.6" /><line x1="369.9" y1="451.7" x2="368.4" y2="447.1" /><line x1="370.4" y1="451.7" x2="369.9" y2="447.7" /><line x1="370.8" y1="451.7" x2="371.0" y2="449.1" /><line x1="371.2" y1="451.7" x2="372.0" y2="449.1" /><line x1="371.6" y1="451.9" x2="373.6" y2="448.3" /><line x1="371.9" y1="452.2" x2="375.2" y2="448.5" /><line x1="372.2" y1="452.5" x2="376.1" y2="449.6" /><line x1="372.4" y1="452.8" x2="376.0" y2="451.2" /><line x1="372.5" y1="453.2" x2="375.0" y2="452.7" /><polyline points="374.1,453.6 374.0,454.1 373.9,454.6 373.8,455.1 373.5,455.5 373.2,455.9 372.9,456.2 372.5,456.5 372.1,456.8 371.6,457.0 371.2,457.1 370.7,457.1 370.2,457.1 369.7,457.0 369.2,456.9 368.8,456.7 368.4,456.4 368.0,456.1 367.7,455.7 367.5,455.3 367.3,454.8 367.1,454.4 367.1,453.9 367.1,453.4 367.1,452.9 367.3,452.4 367.5,452.0 367.7,451.6 368.0,451.2 368.4,450.9 368.8,450.6 369.2,450.4 369.7,450.2 370.2,450.2 370.7,450.1 371.2,450.2 371.6,450.3 372.1,450.5 372.5,450.7 372.9,451.0 373.2,451.4 373.5,451.8 373.8,452.2 373.9,452.7 374.0,453.2 374.1,453.6" /><polyline points="376.6,453.6 376.5,454.5 376.3,455.3 376.0,456.1 375.6,456.8 375.2,457.5 374.6,458.1 373.9,458.6 373.2,459.0 372.4,459.3 371.6,459.5 370.8,459.6 369.9,459.6 369.1,459.5 368.3,459.2 367.6,458.8 366.9,458.4 366.2,457.8 365.7,457.2 365.3,456.5 364.9,455.7 364.7,454.9 364.6,454.1 364.6,453.2 364.7,452.4 364.9,451.6 365.3,450.8 365.7,450.1 366.2,449.5 366.9,448.9 367.6,448.4 368.3,448.1 369.1,447.8 369.9,447.7 370.8,447.6 371.6,447.7 372.4,447.9 373.2,448.2 373.9,448.7 374.6,449.2 375.2,449.8 375.6,450.5 376.0,451.2 376.3,452.0 376.5,452.8 376.6,453.6" /><polyline points="412.0,436.1 413.1,438.9 414.0,441.8 414.7,444.7 415.2,447.7 415.5,450.6 415.6,453.6 415.5,456.6 415.2,459.6 414.7,462.6 414.0,465.5 413.1,468.4 412.0,471.2 410.7,473.9 409.3,476.5 407.7,479.0 405.9,481.5 404.0,483.8 401.9,485.9" /><polyline points="436.6,408.5 438.3,411.0 439.9,413.7 441.3,416.4 442.7,419.1 444.0,421.9 445.2,424.8 446.2,427.7 447.2,430.6 448.0,433.5 448.7,436.5 449.3,439.6 449.8,442.6 450.2,445.7 450.4,448.7 450.5,451.8 450.6,454.9 450.4,457.9 450.2,461.0 449.9,464.1 449.4,467.1 448.8,470.1 448.1,473.1 447.3,476.1 446.4,479.0 445.4,481.9 444.2,484.8" /><polyline points="494.8,415.2 495.6,418.1 496.4,421.1 497.1,424.0 497.8,427.0 498.4,429.9 498.9,432.9 499.3,435.9 499.7,438.9 500.0,442.0 500.3,445.0 500.4,448.0 500.5,451.0 500.6,454.1 500.5,457.1 500.4,460.1 500.2,463.2 500.0,466.2 499.6,469.2 499.2,472.2 498.8,475.2 498.2,478.2 497.6,481.2 496.9,484.1 496.2,487.1 495.4,490.0 494.5,492.9 493.5,495.8 492.5,498.6 491.4,501.5 490.3,504.3" /></g></svg>