<?xml version='1.0' encoding='utf-8'?>
<svg xmlns="http://www.w3.org/2000/svg" xmlns:inkscape="http://www.inkscape.org/namespaces/inkscape" viewBox="204 228 408 600"><style>*{vector-effect:non-scaling-stroke}</style><g id="01_Black_Frame" inkscape:groupmode="layer" inkscape:label="01_Black_Frame" stroke="#1A1A1A" fill="none" stroke-width="0.875" stroke-linecap="round" stroke-linejoin="round"><path d="M 250.0,264.0 L 566.0,264.0 Q 576.0,264.0 576.0,274.0 L 576.0,782.0 Q 576.0,792.0 566.0,792.0 L 250.0,792.0 Q 240.0,792.0 240.0,782.0 L 240.0,274.0 Q 240.0,264.0 250.0,264.0" /><path d="M 253.0,270.0 L 563.0,270.0 Q 570.0,270.0 570.0,277.0 L 570.0,779.0 Q 570.0,786.0 563.0,786.0 L 253.0,786.0 Q 246.0,786.0 246.0,779.0 L 246.0,277.0 Q 246.0,270.0 253.0,270.0" /><line x1="259.0" y1="280.0" x2="263.0" y2="280.0" /><line x1="258.1" y1="282.1" x2="260.9" y2="284.9" /><line x1="256.0" y1="283.0" x2="256.0" y2="287.0" /><line x1="253.9" y1="282.1" x2="251.1" y2="284.9" /><line x1="253.0" y1="280.0" x2="249.0" y2="280.0" /><line x1="253.9" y1="277.9" x2="251.1" y2="275.1" /><line x1="256.0" y1="277.0" x2="256.0" y2="273.0" /><line x1="258.1" y1="277.9" x2="260.9" y2="275.1" /><line x1="563.0" y1="280.0" x2="567.0" y2="280.0" /><line x1="562.1" y1="282.1" x2="564.9" y2="284.9" /><line x1="560.0" y1="283.0" x2="560.0" y2="287.0" /><line x1="557.9" y1="282.1" x2="555.1" y2="284.9" /><line x1="557.0" y1="280.0" x2="553.0" y2="280.0" /><line x1="557.9" y1="277.9" x2="555.1" y2="275.1" /><line x1="560.0" y1="277.0" x2="560.0" y2="273.0" /><line x1="562.1" y1="277.9" x2="564.9" y2="275.1" /><line x1="259.0" y1="776.0" x2="263.0" y2="776.0" /><line x1="258.1" y1="778.1" x2="260.9" y2="780.9" /><line x1="256.0" y1="779.0" x2="256.0" y2="783.0" /><line x1="253.9" y1="778.1" x2="251.1" y2="780.9" /><line x1="253.0" y1="776.0" x2="249.0" y2="776.0" /><line x1="253.9" y1="773.9" x2="251.1" y2="771.1" /><line x1="256.0" y1="773.0" x2="256.0" y2="769.0" /><line x1="258.1" y1="773.9" x2="260.9" y2="771.1" /><line x1="563.0" y1="776.0" x2="567.0" y2="776.0" /><line x1="562.1" y1="778.1" x2="564.9" y2="780.9" /><line x1="560.0" y1="779.0" x2="560.0" y2="783.0" /><line x1="557.9" y1="778.1" x2="555.1" y2="780.9" /><line x1="557.0" y1="776.0" x2="553.0" y2="776.0" /><line x1="557.9" y1="773.9" x2="555.1" y2="771.1" /><line x1="560.0" y1="773.0" x2="560.0" y2="769.0" /><line x1="562.1" y1="773.9" x2="564.9" y2="771.1" /><polyline points="401.00,283.20 399.25,282.00 398.25,282.00 396.50,283.60 396.50,288.40 398.25,290.00 399.25,290.00 401.00,288.80" /><polyline points="402.25,282.00 407.25,290.00" /><polyline points="407.25,282.00 402.25,290.00" /><polyline points="410.50,282.00 410.50,290.00" /><polyline points="416.25,282.00 416.25,290.00" /><polyline points="355.68,297.00 362.18,297.00" /><polyline points="358.93,297.00 358.93,307.00" /><polyline points="363.15,297.00 363.15,307.00" /><polyline points="369.65,297.00 369.65,307.00" /><polyline points="363.15,301.80 369.65,301.80" /><polyline points="376.15,297.00 370.62,297.00 370.62,301.80 374.52,301.80" /><polyline points="370.62,301.80 370.62,307.00 376.15,307.00" /><polyline points="385.57,307.00 385.57,297.00 388.82,302.50 392.07,297.00 392.07,307.00" /><polyline points="396.30,297.00 393.70,298.00 393.05,300.00 393.05,304.00 393.70,306.00 396.30,307.00 398.90,306.00 399.55,304.00 399.55,300.00 398.90,298.00 396.30,297.00" /><polyline points="400.52,307.00 400.52,297.00 404.75,297.00 406.38,298.50 406.38,300.20 404.75,301.50 400.52,301.50 406.38,307.00" /><polyline points="408.00,307.00 411.25,297.00 414.50,307.00" /><polyline points="409.17,303.50 413.33,303.50" /><polyline points="415.48,297.00 421.98,297.00" /><polyline points="418.73,297.00 418.73,307.00" /><polyline points="426.20,297.00 423.60,298.00 422.95,300.00 422.95,304.00 423.60,306.00 426.20,307.00 428.80,306.00 429.45,304.00 429.45,300.00 428.80,298.00 426.20,297.00" /><polyline points="430.43,307.00 430.43,297.00 434.65,297.00 436.28,298.50 436.28,300.20 434.65,301.50 430.43,301.50 436.28,307.00" /><polyline points="441.15,297.00 441.15,307.00" /><polyline points="445.38,297.00 445.38,304.50 446.68,306.50 450.57,306.50 451.88,304.50 451.88,297.00" /><polyline points="452.85,307.00 452.85,297.00 456.10,302.50 459.35,297.00 459.35,307.00" /><line x1="270.0" y1="312.0" x2="546.0" y2="312.0" /><line x1="270.0" y1="732.0" x2="546.0" y2="732.0" /><polyline points="372.58,745.25 372.58,740.75 374.40,740.75 374.96,741.29 374.96,742.01 374.40,742.55 372.58,742.55 374.40,742.55 374.96,743.09 374.96,744.71 374.40,745.25 372.58,745.25" /><polyline points="375.80,740.75 375.80,745.25 378.18,745.25" /><polyline points="380.42,740.75 379.30,741.20 379.02,742.10 379.02,743.90 379.30,744.80 380.42,745.25 381.54,744.80 381.82,743.90 381.82,742.10 381.54,741.20 380.42,740.75" /><polyline points="384.76,741.42 383.78,740.75 383.22,740.75 382.24,741.65 382.24,744.35 383.22,745.25 383.78,745.25 384.76,744.58" /><polyline points="385.46,740.75 385.46,745.25" /><polyline points="387.98,740.75 385.46,743.00 387.98,745.25" /><polyline points="388.68,745.25 390.08,740.75 391.48,745.25" /><polyline points="389.18,743.67 390.98,743.67" /><polyline points="391.90,745.25 391.90,740.75 393.44,740.75 394.42,741.88 394.42,744.12 393.44,745.25 391.90,745.25" /><polyline points="397.50,740.75 395.12,740.75 395.12,742.91 396.80,742.91" /><polyline points="395.12,742.91 395.12,745.25 397.50,745.25" /><polyline points="407.16,740.75 404.78,740.75 404.78,742.91 406.46,742.91" /><polyline points="404.78,742.91 404.78,745.25 407.16,745.25" /><polyline points="408.00,745.25 409.40,740.75 410.80,745.25" /><polyline points="408.50,743.67 410.30,743.67" /><polyline points="411.22,745.25 411.22,740.75 413.04,740.75 413.74,741.42 413.74,742.19 413.04,742.77 411.22,742.77 413.74,745.25" /><polyline points="414.44,740.75 417.24,740.75" /><polyline points="415.84,740.75 415.84,745.25" /><polyline points="417.66,740.75 417.66,745.25" /><polyline points="420.46,740.75 420.46,745.25" /><polyline points="417.66,742.91 420.46,742.91" /><polyline points="427.32,745.25 427.32,740.75 429.14,740.75 429.84,741.42 429.84,742.19 429.14,742.77 427.32,742.77" /><polyline points="430.54,745.25 431.94,740.75 433.34,745.25" /><polyline points="431.04,743.67 432.84,743.67" /><polyline points="433.76,740.75 433.76,744.12 434.32,745.02 436.00,745.02 436.56,744.12 436.56,740.75" /><polyline points="439.36,741.20 438.66,740.75 437.82,740.75 437.12,741.42 436.98,742.10 437.40,742.64 438.38,743.00 439.36,743.36 439.78,743.90 439.64,744.58 438.94,745.25 437.96,745.25 437.26,744.80" /><polyline points="442.58,740.75 440.20,740.75 440.20,742.91 441.88,742.91" /><polyline points="440.20,742.91 440.20,745.25 442.58,745.25" /><polyline points="360.50,753.25 356.25,753.25 356.25,756.85 359.25,756.85" /><polyline points="356.25,756.85 356.25,760.75 360.50,760.75" /><polyline points="362.00,753.25 364.50,760.75 367.00,753.25" /><polyline points="372.00,753.25 367.75,753.25 367.75,756.85 370.75,756.85" /><polyline points="367.75,756.85 367.75,760.75 372.00,760.75" /><polyline points="373.50,760.75 373.50,753.25 376.75,753.25 378.00,754.38 378.00,755.65 376.75,756.62 373.50,756.62 378.00,760.75" /><polyline points="379.25,753.25 381.75,757.00 384.25,753.25" /><polyline points="381.75,757.00 381.75,760.75" /><polyline points="385.00,753.25 390.00,753.25" /><polyline points="387.50,753.25 387.50,760.75" /><polyline points="390.75,753.25 390.75,760.75" /><polyline points="395.75,753.25 395.75,760.75" /><polyline points="390.75,756.85 395.75,756.85" /><polyline points="399.00,753.25 399.00,760.75" /><polyline points="402.25,760.75 402.25,753.25 407.25,760.75 407.25,753.25" /><polyline points="412.50,754.38 410.75,753.25 409.75,753.25 408.00,754.75 408.00,759.25 409.75,760.75 410.75,760.75 412.50,759.62 412.50,757.00 410.50,757.00" /><polyline points="423.75,754.00 422.50,753.25 421.00,753.25 419.75,754.38 419.50,755.50 420.25,756.40 422.00,757.00 423.75,757.60 424.50,758.50 424.25,759.62 423.00,760.75 421.25,760.75 420.00,760.00" /><polyline points="425.25,753.25 430.25,753.25" /><polyline points="427.75,753.25 427.75,760.75" /><polyline points="433.50,753.25 431.50,754.00 431.00,755.50 431.00,758.50 431.50,760.00 433.50,760.75 435.50,760.00 436.00,758.50 436.00,755.50 435.50,754.00 433.50,753.25" /><polyline points="436.75,760.75 436.75,753.25 440.00,753.25 441.25,754.38 441.25,755.65 440.00,756.62 436.75,756.62" /><polyline points="442.50,760.75 442.50,753.25 445.75,753.25 447.00,754.38 447.00,755.65 445.75,756.62 442.50,756.62" /><polyline points="452.50,753.25 448.25,753.25 448.25,756.85 451.25,756.85" /><polyline points="448.25,756.85 448.25,760.75 452.50,760.75" /><polyline points="454.00,760.75 454.00,753.25 456.75,753.25 458.50,755.12 458.50,758.88 456.75,760.75 454.00,760.75" /><polyline points="334.62,766.25 330.38,766.25 330.38,769.85 333.38,769.85" /><polyline points="330.38,769.85 330.38,773.75 334.62,773.75" /><polyline points="336.12,766.25 341.12,773.75" /><polyline points="341.12,766.25 336.12,773.75" /><polyline points="346.38,767.38 344.62,766.25 343.62,766.25 341.88,767.75 341.88,772.25 343.62,773.75 344.62,773.75 346.38,772.62" /><polyline points="351.88,766.25 347.62,766.25 347.62,769.85 350.62,769.85" /><polyline points="347.62,769.85 347.62,773.75 351.88,773.75" /><polyline points="353.38,773.75 353.38,766.25 356.62,766.25 357.88,767.38 357.88,768.65 356.62,769.62 353.38,769.62" /><polyline points="359.12,766.25 364.12,766.25" /><polyline points="361.62,766.25 361.62,773.75" /><polyline points="370.62,766.25 375.62,766.25" /><polyline points="373.12,766.25 373.12,773.75" /><polyline points="376.38,766.25 376.38,773.75" /><polyline points="381.38,766.25 381.38,773.75" /><polyline points="376.38,769.85 381.38,769.85" /><polyline points="386.38,766.25 382.12,766.25 382.12,769.85 385.12,769.85" /><polyline points="382.12,769.85 382.12,773.75 386.38,773.75" /><polyline points="393.62,766.25 398.62,766.25" /><polyline points="396.12,766.25 396.12,773.75" /><polyline points="399.38,766.25 399.38,773.75" /><polyline points="404.38,766.25 404.38,773.75" /><polyline points="399.38,769.85 404.38,769.85" /><polyline points="407.62,766.25 407.62,773.75" /><polyline points="410.88,773.75 410.88,766.25 415.88,773.75 415.88,766.25" /><polyline points="421.12,767.38 419.38,766.25 418.38,766.25 416.62,767.75 416.62,772.25 418.38,773.75 419.38,773.75 421.12,772.62 421.12,770.00 419.12,770.00" /><polyline points="428.12,766.25 428.12,771.88 429.12,773.38 432.12,773.38 433.12,771.88 433.12,766.25" /><polyline points="433.88,773.75 433.88,766.25 438.88,773.75 438.88,766.25" /><polyline points="439.62,773.75 439.62,766.25 442.38,766.25 444.12,768.12 444.12,771.88 442.38,773.75 439.62,773.75" /><polyline points="449.62,766.25 445.38,766.25 445.38,769.85 448.38,769.85" /><polyline points="445.38,769.85 445.38,773.75 449.62,773.75" /><polyline points="451.12,773.75 451.12,766.25 454.38,766.25 455.62,767.38 455.62,768.65 454.38,769.62 451.12,769.62 455.62,773.75" /><polyline points="456.88,773.75 456.88,766.25 461.88,773.75 461.88,766.25" /><polyline points="466.88,766.25 462.62,766.25 462.62,769.85 465.62,769.85" /><polyline points="462.62,769.85 462.62,773.75 466.88,773.75" /><polyline points="468.38,773.75 470.88,766.25 473.38,773.75" /><polyline points="469.27,771.12 472.48,771.12" /><polyline points="474.12,766.25 479.12,766.25" /><polyline points="476.62,766.25 476.62,773.75" /><polyline points="479.88,766.25 479.88,773.75" /><polyline points="484.88,766.25 484.88,773.75" /><polyline points="479.88,769.85 484.88,769.85" /><polyline points="383.84,779.50 383.84,784.50" /><polyline points="385.92,779.50 387.52,784.50 389.12,779.50" /><polyline points="391.20,784.00 391.20,784.25" /><polyline points="393.28,779.50 396.48,784.50" /><polyline points="396.48,779.50 393.28,784.50" /><polyline points="396.96,779.50 400.16,784.50" /><polyline points="400.16,779.50 396.96,784.50" /><polyline points="402.24,779.50 402.24,784.50" /><polyline points="405.92,779.50 405.92,784.50" /><polyline points="409.60,784.00 409.60,784.25" /><polyline points="411.68,784.50 411.68,779.50 413.28,782.25 414.88,779.50 414.88,784.50" /><polyline points="415.36,784.50 415.36,779.50 416.96,782.25 418.56,779.50 418.56,784.50" /><polyline points="419.04,779.50 422.24,784.50" /><polyline points="422.24,779.50 419.04,784.50" /><polyline points="422.72,779.50 425.92,784.50" /><polyline points="425.92,779.50 422.72,784.50" /><polyline points="426.40,779.50 428.00,784.50 429.60,779.50" /><polyline points="431.68,779.50 431.68,784.50" /></g><g id="02_Teal_Surface" inkscape:groupmode="layer" inkscape:label="02_Teal_Surface" stroke="#3A7A7A" fill="none" stroke-width="0.75" stroke-linecap="round" stroke-linejoin="round"><path d="M 262.0,329.0 L 264.9,329.0 L 267.8,329.0 L 270.8,329.0 L 273.7,329.0 L 276.6,329.0 L 279.5,329.0 L 282.4,329.0 L 285.4,329.0 L 288.3,329.0 L 291.2,329.0 L 294.1,329.0 L 297.0,329.0 L 300.0,329.0 L 302.9,329.0 L 305.8,329.0 L 308.7,329.0 L 311.6,329.0 L 314.6,329.0 L 317.5,329.0 L 320.4,329.0 L 323.3,329.0 L 326.2,329.0 L 329.2,329.0 L 332.1,329.0 L 335.0,329.0 L 337.9,329.0 L 340.8,329.0 L 343.8,329.0 L 346.7,329.0 L 349.6,329.0 L 352.5,329.0 L 355.4,329.0 L 358.4,329.0 L 361.3,329.0 L 364.2,329.0 L 367.1,329.0 L 370.0,329.0 L 373.0,329.0 L 375.9,329.0 L 378.8,329.0 L 381.7,329.0 L 384.6,329.0 L 387.6,329.0 L 390.5,329.0 L 393.4,329.0 L 396.3,329.0 L 399.2,329.0 L 402.2,329.0 L 405.1,329.0 L 408.0,329.0 L 410.9,329.0 L 413.8,329.0 L 416.8,329.0 L 419.7,329.0 L 422.6,329.0 L 425.5,329.0 L 428.4,329.0 L 431.4,329.0 L 434.3,329.0 L 437.2,329.0 L 440.1,329.0 L 443.0,329.0 L 446.0,329.0 L 448.9,329.0 L 451.8,329.0 L 454.7,329.0 L 457.6,329.0 L 460.6,329.0 L 463.5,329.0 L 466.4,329.0 L 469.3,329.0 L 472.2,329.0 L 475.2,329.0 L 478.1,329.0 L 481.0,329.0 L 483.9,329.0 L 486.8,329.0 L 489.8,329.0 L 492.7,329.0 L 495.6,329.0 L 498.5,329.0 L 501.4,329.0 L 504.4,329.0 L 507.3,329.0 L 510.2,329.0 L 513.1,329.0 L 516.0,329.0 L 519.0,329.0 L 521.9,329.0 L 524.8,329.0 L 527.7,329.0 L 530.6,329.0 L 533.6,329.0 L 536.5,329.0 L 539.4,329.0 L 542.3,329.0 L 545.2,329.0 L 548.2,329.0 L 551.1,329.0 L 554.0,329.0" fill="none" /><path d="M 262.0,338.5 L 264.9,338.5 L 267.8,338.5 L 270.8,338.5 L 273.7,338.5 L 276.6,338.5 L 279.5,338.5 L 282.4,338.5 L 285.4,338.5 L 288.3,338.5 L 291.2,338.5 L 294.1,338.5 L 297.0,338.5 L 300.0,338.5 L 302.9,338.5 L 305.8,338.5 L 308.7,338.5 L 311.6,338.5 L 314.6,338.5 L 317.5,338.5 L 320.4,338.5 L 323.3,338.5 L 326.2,338.5 L 329.2,338.5 L 332.1,338.5 L 335.0,338.5 L 337.9,338.5 L 340.8,338.5 L 343.8,338.5 L 346.7,338.5 L 349.6,338.5 L 352.5,338.5 L 355.4,338.5 L 358.4,338.5 L 361.3,338.5 L 364.2,338.5 L 367.1,338.5 L 370.0,338.5 L 373.0,338.5 L 375.9,338.5 L 378.8,338.5 L 381.7,338.5 L 384.6,338.5 L 387.6,338.5 L 390.5,338.5 L 393.4,338.5 L 396.3,338.5 L 399.2,338.5 L 402.2,338.5 L 405.1,338.5 L 408.0,338.5 L 410.9,338.5 L 413.8,338.5 L 416.8,338.5 L 419.7,338.5 L 422.6,338.5 L 425.5,338.5 L 428.4,338.5 L 431.4,338.5 L 434.3,338.5 L 437.2,338.5 L 440.1,338.5 L 443.0,338.5 L 446.0,338.5 L 448.9,338.5 L 451.8,338.5 L 454.7,338.5 L 457.6,338.5 L 460.6,338.5 L 463.5,338.5 L 466.4,338.5 L 469.3,338.5 L 472.2,338.5 L 475.2,338.5 L 478.1,338.5 L 481.0,338.5 L 483.9,338.5 L 486.8,338.5 L 489.8,338.5 L 492.7,338.5 L 495.6,338.5 L 498.5,338.5 L 501.4,338.5 L 504.4,338.5 L 507.3,338.5 L 510.2,338.5 L 513.1,338.5 L 516.0,338.5 L 519.0,338.5 L 521.9,338.5 L 524.8,338.5 L 527.7,338.5 L 530.6,338.5 L 533.6,338.5 L 536.5,338.5 L 539.4,338.5 L 542.3,338.5 L 545.2,338.5 L 548.2,338.5 L 551.1,338.5 L 554.0,338.5" fill="none" /><path d="M 262.0,347.9 L 264.9,347.9 L 267.8,347.9 L 270.8,347.9 L 273.7,347.9 L 276.6,347.9 L 279.5,347.9 L 282.4,347.9 L 285.4,347.9 L 288.3,347.9 L 291.2,347.9 L 294.1,347.9 L 297.0,347.9 L 300.0,347.9 L 302.9,347.9 L 305.8,347.9 L 308.7,347.9 L 311.6,347.9 L 314.6,347.9 L 317.5,347.9 L 320.4,347.9 L 323.3,347.9 L 326.2,347.9 L 329.2,347.9 L 332.1,347.9 L 335.0,347.9 L 337.9,347.9 L 340.8,347.9 L 343.8,347.9 L 346.7,347.9 L 349.6,347.9 L 352.5,347.9 L 355.4,347.9 L 358.4,347.9 L 361.3,347.9 L 364.2,347.9 L 367.1,347.9 L 370.0,347.9 L 373.0,347.9 L 375.9,347.9 L 378.8,347.9 L 381.7,347.9 L 384.6,347.9 L 387.6,347.9 L 390.5,347.9 L 393.4,347.9 L 396.3,347.9 L 399.2,347.9 L 402.2,347.9 L 405.1,347.9 L 408.0,347.9 L 410.9,347.9 L 413.8,347.9 L 416.8,347.9 L 419.7,347.9 L 422.6,347.9 L 425.5,347.9 L 428.4,347.9 L 431.4,347.9 L 434.3,347.9 L 437.2,347.9 L 440.1,347.9 L 443.0,347.9 L 446.0,347.9 L 448.9,347.9 L 451.8,347.9 L 454.7,347.9 L 457.6,347.9 L 460.6,347.9 L 463.5,347.9 L 466.4,347.9 L 469.3,347.9 L 472.2,347.9 L 475.2,347.9 L 478.1,347.9 L 481.0,347.9 L 483.9,347.9 L 486.8,347.9 L 489.8,347.9 L 492.7,347.9 L 495.6,347.9 L 498.5,347.9 L 501.4,347.9 L 504.4,347.9 L 507.3,347.9 L 510.2,347.9 L 513.1,347.9 L 516.0,347.9 L 519.0,347.9 L 521.9,347.9 L 524.8,347.9 L 527.7,347.9 L 530.6,347.9 L 533.6,347.9 L 536.5,347.9 L 539.4,347.9 L 542.3,347.9 L 545.2,347.9 L 548.2,347.9 L 551.1,347.9 L 554.0,347.9" fill="none" /><path d="M 262.0,357.4 L 264.9,357.4 L 267.8,357.4 L 270.8,357.4 L 273.7,357.4 L 276.6,357.4 L 279.5,357.4 L 282.4,357.4 L 285.4,357.4 L 288.3,357.4 L 291.2,357.4 L 294.1,357.4 L 297.0,357.4 L 300.0,357.4 L 302.9,357.4 L 305.8,357.4 L 308.7,357.4 L 311.6,357.4 L 314.6,357.4 L 317.5,357.4 L 320.4,357.4 L 323.3,357.4 L 326.2,357.4 L 329.2,357.4 L 332.1,357.4 L 335.0,357.4 L 337.9,357.4 L 340.8,357.4 L 343.8,357.4 L 346.7,357.4 L 349.6,357.4 L 352.5,357.4 L 355.4,357.4 L 358.4,357.4 L 361.3,357.4 L 364.2,357.4 L 367.1,357.4 L 370.0,357.4 L 373.0,357.4 L 375.9,357.4 L 378.8,357.4 L 381.7,357.4 L 384.6,357.4 L 387.6,357.4 L 390.5,357.4 L 393.4,357.4 L 396.3,357.4 L 399.2,357.4 L 402.2,357.4 L 405.1,357.4 L 408.0,357.4 L 410.9,357.4 L 413.8,357.4 L 416.8,357.4 L 419.7,357.4 L 422.6,357.4 L 425.5,357.4 L 428.4,357.4 L 431.4,357.4 L 434.3,357.4 L 437.2,357.4 L 440.1,357.4 L 443.0,357.4 L 446.0,357.4 L 448.9,357.4 L 451.8,357.4 L 454.7,357.4 L 457.6,357.4 L 460.6,357.4 L 463.5,357.4 L 466.4,357.4 L 469.3,357.4 L 472.2,357.4 L 475.2,357.4 L 478.1,357.4 L 481.0,357.4 L 483.9,357.4 L 486.8,357.4 L 489.8,357.4 L 492.7,357.4 L 495.6,357.4 L 498.5,357.4 L 501.4,357.4 L 504.4,357.4 L 507.3,357.4 L 510.2,357.4 L 513.1,357.4 L 516.0,357.4 L 519.0,357.4 L 521.9,357.4 L 524.8,357.4 L 527.7,357.4 L 530.6,357.4 L 533.6,357.4 L 536.5,357.4 L 539.4,357.4 L 542.3,357.4 L 545.2,357.4 L 548.2,357.4 L 551.1,357.4 L 554.0,357.4" fill="none" /><path d="M 262.0,366.9 L 264.9,366.9 L 267.8,366.9 L 270.8,366.9 L 273.7,366.9 L 276.6,366.9 L 279.5,366.9 L 282.4,366.9 L 285.4,366.9 L 288.3,366.9 L 291.2,366.9 L 294.1,366.9 L 297.0,366.9 L 300.0,366.9 L 302.9,366.9 L 305.8,366.9 L 308.7,366.9 L 311.6,366.9 L 314.6,366.9 L 317.5,366.9 L 320.4,366.9 L 323.3,366.9 L 326.2,366.9 L 329.2,366.9 L 332.1,366.9 L 335.0,366.9 L 337.9,366.9 L 340.8,366.9 L 343.8,366.9 L 346.7,366.9 L 349.6,366.9 L 352.5,366.9 L 355.4,366.9 L 358.4,366.9 L 361.3,366.9 L 364.2,366.8 L 367.1,366.8 L 370.0,366.8 L 373.0,366.8 L 375.9,366.8 L 378.8,366.9 L 381.7,366.9 L 384.6,366.9 L 387.6,366.9 L 390.5,366.9 L 393.4,366.9 L 396.3,366.9 L 399.2,366.9 L 402.2,366.9 L 405.1,366.9 L 408.0,366.9 L 410.9,366.9 L 413.8,366.8 L 416.8,366.8 L 419.7,366.8 L 422.6,366.8 L 425.5,366.8 L 428.4,366.8 L 431.4,366.8 L 434.3,366.8 L 437.2,366.8 L 440.1,366.8 L 443.0,366.8 L 446.0,366.8 L 448.9,366.8 L 451.8,366.8 L 454.7,366.8 L 457.6,366.8 L 460.6,366.8 L 463.5,366.8 L 466.4,366.8 L 469.3,366.8 L 472.2,366.8 L 475.2,366.8 L 478.1,366.8 L 481.0,366.8 L 483.9,366.8 L 486.8,366.8 L 489.8,366.8 L 492.7,366.8 L 495.6,366.8 L 498.5,366.8 L 501.4,366.8 L 504.4,366.8 L 507.3,366.8 L 510.2,366.8 L 513.1,366.8 L 516.0,366.8 L 519.0,366.8 L 521.9,366.8 L 524.8,366.8 L 527.7,366.8 L 530.6,366.8 L 533.6,366.8 L 536.5,366.8 L 539.4,366.8 L 542.3,366.8 L 545.2,366.8 L 548.2,366.9 L 551.1,366.9 L 554.0,366.9" fill="none" /><path d="M 262.0,376.3 L 264.9,376.3 L 267.8,376.3 L 270.8,376.3 L 273.7,376.3 L 276.6,376.3 L 279.5,376.3 L 282.4,376.3 L 285.4,376.3 L 288.3,376.3 L 291.2,376.3 L 294.1,376.3 L 297.0,376.3 L 300.0,376.3 L 302.9,376.3 L 305.8,376.3 L 308.7,376.3 L 311.6,376.3 L 314.6,376.3 L 317.5,376.3 L 320.4,376.3 L 323.3,376.3 L 326.2,376.3 L 329.2,376.3 L 332.1,376.3 L 335.0,376.3 L 337.9,376.3 L 340.8,376.3 L 343.8,376.3 L 346.7,376.3 L 349.6,376.3 L 352.5,376.3 L 355.4,376.3 L 358.4,376.3 L 361.3,376.3 L 364.2,376.3 L 367.1,376.3 L 370.0,376.3 L 373.0,376.3 L 375.9,376.3 L 378.8,376.3 L 381.7,376.3 L 384.6,376.3 L 387.6,376.3 L 390.5,376.3 L 393.4,376.3 L 396.3,376.3 L 399.2,376.3 L 402.2,376.3 L 405.1,376.3 L 408.0,376.3 L 410.9,376.3 L 413.8,376.3 L 416.8,376.3 L 419.7,376.3 L 422.6,376.3 L 425.5,376.3 L 428.4,376.3 L 431.4,376.3 L 434.3,376.3 L 437.2,376.3 L 440.1,376.3 L 443.0,376.3 L 446.0,376.3 L 448.9,376.3 L 451.8,376.3 L 454.7,376.3 L 457.6,376.3 L 460.6,376.3 L 463.5,376.3 L 466.4,376.3 L 469.3,376.3 L 472.2,376.3 L 475.2,376.3 L 478.1,376.3 L 481.0,376.3 L 483.9,376.3 L 486.8,376.3 L 489.8,376.3 L 492.7,376.3 L 495.6,376.3 L 498.5,376.3 L 501.4,376.3 L 504.4,376.3 L 507.3,376.3 L 510.2,376.3 L 513.1,376.3 L 516.0,376.3 L 519.0,376.3 L 521.9,376.3 L 524.8,376.3 L 527.7,376.3 L 530.6,376.3 L 533.6,376.3 L 536.5,376.3 L 539.4,376.3 L 542.3,376.3 L 545.2,376.3 L 548.2,376.3 L 551.1,376.3 L 554.0,376.3" fill="none" /><path d="M 262.0,385.8 L 264.9,385.8 L 267.8,385.8 L 270.8,385.8 L 273.7,385.8 L 276.6,385.8 L 279.5,385.8 L 282.4,385.8 L 285.4,385.8 L 288.3,385.8 L 291.2,385.8 L 294.1,385.8 L 297.0,385.8 L 300.0,385.8 L 302.9,385.8 L 305.8,385.8 L 308.7,385.8 L 311.6,385.8 L 314.6,385.8 L 317.5,385.8 L 320.4,385.8 L 323.3,385.8 L 326.2,385.8 L 329.2,385.8 L 332.1,385.8 L 335.0,385.8 L 337.9,385.8 L 340.8,385.8 L 343.8,385.8 L 346.7,385.8 L 349.6,385.8 L 352.5,385.8 L 355.4,385.8 L 358.4,385.8 L 361.3,385.8 L 364.2,385.8 L 367.1,385.8 L 370.0,385.8 L 373.0,385.8 L 375.9,385.8 L 378.8,385.8 L 381.7,385.8 L 384.6,385.8 L 387.6,385.8 L 390.5,385.7 L 393.4,385.7 L 396.3,385.7 L 399.2,385.7 L 402.2,385.7 L 405.1,385.7 L 408.0,385.7 L 410.9,385.7 L 413.8,385.7 L 416.8,385.7 L 419.7,385.7 L 422.6,385.7 L 425.5,385.7 L 428.4,385.7 L 431.4,385.7 L 434.3,385.7 L 437.2,385.7 L 440.1,385.7 L 443.0,385.7 L 446.0,385.7 L 448.9,385.8 L 451.8,385.8 L 454.7,385.8 L 457.6,385.8 L 460.6,385.8 L 463.5,385.8 L 466.4,385.8 L 469.3,385.8 L 472.2,385.8 L 475.2,385.8 L 478.1,385.8 L 481.0,385.8 L 483.9,385.8 L 486.8,385.8 L 489.8,385.8 L 492.7,385.8 L 495.6,385.8 L 498.5,385.8 L 501.4,385.8 L 504.4,385.8 L 507.3,385.8 L 510.2,385.8 L 513.1,385.8 L 516.0,385.8 L 519.0,385.8 L 521.9,385.8 L 524.8,385.8 L 527.7,385.8 L 530.6,385.8 L 533.6,385.8 L 536.5,385.8 L 539.4,385.8 L 542.3,385.8 L 545.2,385.8 L 548.2,385.8 L 551.1,385.8 L 554.0,385.8" fill="none" /><path d="M 262.0,395.2 L 264.9,395.2 L 267.8,395.2 L 270.8,395.2 L 273.7,395.2 L 276.6,395.2 L 279.5,395.2 L 282.4,395.2 L 285.4,395.2 L 288.3,395.2 L 291.2,395.2 L 294.1,395.2 L 297.0,395.2 L 300.0,395.2 L 302.9,395.2 L 305.8,395.2 L 308.7,395.2 L 311.6,395.2 L 314.6,395.2 L 317.5,395.2 L 320.4,395.2 L 323.3,395.2 L 326.2,395.2 L 329.2,395.2 L 332.1,395.2 L 335.0,395.2 L 337.9,395.2 L 340.8,395.2 L 343.8,395.2 L 346.7,395.2 L 349.6,395.2 L 352.5,395.2 L 355.4,395.2 L 358.4,395.2 L 361.3,395.2 L 364.2,395.2 L 367.1,395.2 L 370.0,395.2 L 373.0,395.2 L 375.9,395.2 L 378.8,395.2 L 381.7,395.2 L 384.6,395.2 L 387.6,395.2 L 390.5,395.2 L 393.4,395.2 L 396.3,395.2 L 399.2,395.2 L 402.2,395.2 L 405.1,395.2 L 408.0,395.2 L 410.9,395.2 L 413.8,395.2 L 416.8,395.2 L 419.7,395.2 L 422.6,395.2 L 425.5,395.2 L 428.4,395.2 L 431.4,395.2 L 434.3,395.2 L 437.2,395.2 L 440.1,395.2 L 443.0,395.3 L 446.0,395.3 L 448.9,395.3 L 451.8,395.3 L 454.7,395.3 L 457.6,395.3 L 460.6,395.3 L 463.5,395.3 L 466.4,395.3 L 469.3,395.3 L 472.2,395.3 L 475.2,395.3 L 478.1,395.3 L 481.0,395.3 L 483.9,395.3 L 486.8,395.3 L 489.8,395.3 L 492.7,395.3 L 495.6,395.3 L 498.5,395.3 L 501.4,395.4 L 504.4,395.4 L 507.3,395.4 L 510.2,395.4 L 513.1,395.4 L 516.0,395.4 L 519.0,395.3 L 521.9,395.3 L 524.8,395.3 L 527.7,395.3 L 530.6,395.3 L 533.6,395.3 L 536.5,395.3 L 539.4,395.3 L 542.3,395.3 L 545.2,395.3 L 548.2,395.3 L 551.1,395.3 L 554.0,395.3" fill="none" /><path d="M 262.0,404.7 L 264.9,404.7 L 267.8,404.7 L 270.8,404.7 L 273.7,404.7 L 276.6,404.7 L 279.5,404.7 L 282.4,404.7 L 285.4,404.7 L 288.3,404.7 L 291.2,404.7 L 294.1,404.7 L 297.0,404.7 L 300.0,404.7 L 302.9,404.7 L 305.8,404.6 L 308.7,404.6 L 311.6,404.6 L 314.6,404.6 L 317.5,404.6 L 320.4,404.6 L 323.3,404.6 L 326.2,404.6 L 329.2,404.6 L 332.1,404.6 L 335.0,404.6 L 337.9,404.6 L 340.8,404.6 L 343.8,404.6 L 346.7,404.6 L 349.6,404.6 L 352.5,404.6 L 355.4,404.6 L 358.4,404.6 L 361.3,404.6 L 364.2,404.6 L 367.1,404.6 L 370.0,404.6 L 373.0,404.6 L 375.9,404.7 L 378.8,404.7 L 381.7,404.7 L 384.6,404.7 L 387.6,404.7 L 390.5,404.7 L 393.4,404.7 L 396.3,404.7 L 399.2,404.7 L 402.2,404.7 L 405.1,404.7 L 408.0,404.7 L 410.9,404.7 L 413.8,404.8 L 416.8,404.8 L 419.7,404.8 L 422.6,404.8 L 425.5,404.8 L 428.4,404.8 L 431.4,404.8 L 434.3,404.8 L 437.2,404.8 L 440.1,404.8 L 443.0,404.8 L 446.0,404.8 L 448.9,404.8 L 451.8,404.9 L 454.7,404.9 L 457.6,404.9 L 460.6,404.9 L 463.5,404.9 L 466.4,404.9 L 469.3,404.9 L 472.2,404.9 L 475.2,404.9 L 478.1,404.9 L 481.0,404.9 L 483.9,404.9 L 486.8,404.9 L 489.8,404.9 L 492.7,404.8 L 495.6,404.8 L 498.5,404.8 L 501.4,404.8 L 504.4,404.8 L 507.3,404.8 L 510.2,404.8 L 513.1,404.8 L 516.0,404.8 L 519.0,404.8 L 521.9,404.8 L 524.8,404.8 L 527.7,404.7 L 530.6,404.7 L 533.6,404.7 L 536.5,404.7 L 539.4,404.7 L 542.3,404.7 L 545.2,404.7 L 548.2,404.7 L 551.1,404.7 L 554.0,404.6" fill="none" /><path d="M 262.0,414.1 L 264.9,414.1 L 267.8,414.1 L 270.8,414.1 L 273.7,414.1 L 276.6,414.1 L 279.5,414.1 L 282.4,414.1 L 285.4,414.1 L 288.3,414.1 L 291.2,414.1 L 294.1,414.1 L 297.0,414.1 L 300.0,414.1 L 302.9,414.1 L 305.8,414.1 L 308.7,414.1 L 311.6,414.1 L 314.6,414.1 L 317.5,414.1 L 320.4,414.1 L 323.3,414.1 L 326.2,414.1 L 329.2,414.1 L 332.1,414.1 L 335.0,414.1 L 337.9,414.1 L 340.8,414.1 L 343.8,414.1 L 346.7,414.1 L 349.6,414.1 L 352.5,414.1 L 355.4,414.2 L 358.4,414.2 L 361.3,414.2 L 364.2,414.2 L 367.1,414.2 L 370.0,414.2 L 373.0,414.2 L 375.9,414.2 L 378.8,414.2 L 381.7,414.3 L 384.6,414.3 L 387.6,414.3 L 390.5,414.3 L 393.4,414.3 L 396.3,414.3 L 399.2,414.3 L 402.2,414.3 L 405.1,414.4 L 408.0,414.4 L 410.9,414.4 L 413.8,414.4 L 416.8,414.4 L 419.7,414.4 L 422.6,414.4 L 425.5,414.4 L 428.4,414.4 L 431.4,414.4 L 434.3,414.4 L 437.2,414.4 L 440.1,414.4 L 443.0,414.4 L 446.0,414.4 L 448.9,414.4 L 451.8,414.4 L 454.7,414.4 L 457.6,414.4 L 460.6,414.3 L 463.5,414.3 L 466.4,414.3 L 469.3,414.3 L 472.2,414.3 L 475.2,414.3 L 478.1,414.3 L 481.0,414.3 L 483.9,414.2 L 486.8,414.2 L 489.8,414.2 L 492.7,414.2 L 495.6,414.2 L 498.5,414.2 L 501.4,414.2 L 504.4,414.1 L 507.3,414.1 L 510.2,414.1 L 513.1,414.1 L 516.0,414.1 L 519.0,414.1 L 521.9,414.1 L 524.8,414.0 L 527.7,414.0 L 530.6,414.0 L 533.6,414.0 L 536.5,414.0 L 539.4,414.0 L 542.3,414.0 L 545.2,414.0 L 548.2,414.0 L 551.1,414.0 L 554.0,414.0" fill="none" /><path d="M 262.0,423.5 L 264.9,423.5 L 267.8,423.5 L 270.8,423.5 L 273.7,423.5 L 276.6,423.5 L 279.5,423.5 L 282.4,423.5 L 285.4,423.5 L 288.3,423.5 L 291.2,423.5 L 294.1,423.5 L 297.0,423.5 L 300.0,423.5 L 302.9,423.6 L 305.8,423.6 L 308.7,423.6 L 311.6,423.6 L 314.6,423.6 L 317.5,423.6 L 320.4,423.6 L 323.3,423.6 L 326.2,423.7 L 329.2,423.7 L 332.1,423.7 L 335.0,423.7 L 337.9,423.7 L 340.8,423.7 L 343.8,423.8 L 346.7,423.8 L 349.6,423.8 L 352.5,423.8 L 355.4,423.8 L 358.4,423.8 L 361.3,423.9 L 364.2,423.9 L 367.1,423.9 L 370.0,423.9 L 373.0,423.9 L 375.9,423.9 L 378.8,423.9 L 381.7,423.9 L 384.6,423.9 L 387.6,423.9 L 390.5,423.9 L 393.4,423.9 L 396.3,423.9 L 399.2,423.9 L 402.2,423.9 L 405.1,423.9 L 408.0,423.9 L 410.9,423.9 L 413.8,423.9 L 416.8,423.9 L 419.7,423.9 L 422.6,423.9 L 425.5,423.9 L 428.4,423.8 L 431.4,423.8 L 434.3,423.8 L 437.2,423.8 L 440.1,423.8 L 443.0,423.8 L 446.0,423.7 L 448.9,423.7 L 451.8,423.7 L 454.7,423.7 L 457.6,423.6 L 460.6,423.6 L 463.5,423.6 L 466.4,423.6 L 469.3,423.6 L 472.2,423.5 L 475.2,423.5 L 478.1,423.5 L 481.0,423.5 L 483.9,423.5 L 486.8,423.5 L 489.8,423.4 L 492.7,423.4 L 495.6,423.4 L 498.5,423.4 L 501.4,423.4 L 504.4,423.4 L 507.3,423.4 L 510.2,423.4 L 513.1,423.4 L 516.0,423.4 L 519.0,423.4 L 521.9,423.4 L 524.8,423.4 L 527.7,423.4 L 530.6,423.4 L 533.6,423.4 L 536.5,423.4 L 539.4,423.4 L 542.3,423.4 L 545.2,423.4 L 548.2,423.4 L 551.1,423.4 L 554.0,423.4" fill="none" /><path d="M 262.0,433.0 L 264.9,433.0 L 267.8,433.0 L 270.8,433.0 L 273.7,433.0 L 276.6,433.1 L 279.5,433.1 L 282.4,433.1 L 285.4,433.1 L 288.3,433.1 L 291.2,433.2 L 294.1,433.2 L 297.0,433.2 L 300.0,433.2 L 302.9,433.2 L 305.8,433.3 L 308.7,433.3 L 311.6,433.3 L 314.6,433.3 L 317.5,433.3 L 320.4,433.4 L 323.3,433.4 L 326.2,433.4 L 329.2,433.4 L 332.1,433.4 L 335.0,433.4 L 337.9,433.5 L 340.8,433.5 L 343.8,433.5 L 346.7,433.5 L 349.6,433.5 L 352.5,433.5 L 355.4,433.5 L 358.4,433.5 L 361.3,433.5 L 364.2,433.5 L 367.1,433.5 L 370.0,433.5 L 373.0,433.5 L 375.9,433.5 L 378.8,433.4 L 381.7,433.4 L 384.6,433.4 L 387.6,433.4 L 390.5,433.4 L 393.4,433.4 L 396.3,433.3 L 399.2,433.3 L 402.2,433.3 L 405.1,433.3 L 408.0,433.2 L 410.9,433.2 L 413.8,433.2 L 416.8,433.1 L 419.7,433.1 L 422.6,433.1 L 425.5,433.1 L 428.4,433.0 L 431.4,433.0 L 434.3,433.0 L 437.2,433.0 L 440.1,432.9 L 443.0,432.9 L 446.0,432.9 L 448.9,432.9 L 451.8,432.8 L 454.7,432.8 L 457.6,432.8 L 460.6,432.8 L 463.5,432.8 L 466.4,432.8 L 469.3,432.8 L 472.2,432.8 L 475.2,432.7 L 478.1,432.7 L 481.0,432.7 L 483.9,432.7 L 486.8,432.7 L 489.8,432.7 L 492.7,432.8 L 495.6,432.8 L 498.5,432.8 L 501.4,432.8 L 504.4,432.8 L 507.3,432.8 L 510.2,432.8 L 513.1,432.8 L 516.0,432.8 L 519.0,432.9 L 521.9,432.9 L 524.8,432.9 L 527.7,432.9 L 530.6,432.9 L 533.6,432.9 L 536.5,433.0 L 539.4,433.0 L 542.3,433.0 L 545.2,433.0 L 548.2,433.0 L 551.1,433.0 L 554.0,433.0" fill="none" /><path d="M 262.0,442.7 L 264.9,442.8 L 267.8,442.8 L 270.8,442.8 L 273.7,442.8 L 276.6,442.9 L 279.5,442.9 L 282.4,442.9 L 285.4,442.9 L 288.3,443.0 L 291.2,443.0 L 294.1,443.0 L 297.0,443.0 L 300.0,443.0 L 302.9,443.0 L 305.8,443.1 L 308.7,443.1 L 311.6,443.1 L 314.6,443.1 L 317.5,443.1 L 320.4,443.1 L 323.3,443.1 L 326.2,443.1 L 329.2,443.1 L 332.1,443.1 L 335.0,443.0 L 337.9,443.0 L 340.8,443.0 L 343.8,443.0 L 346.7,443.0 L 349.6,442.9 L 352.5,442.9 L 355.4,442.9 L 358.4,442.9 L 361.3,442.8 L 364.2,442.8 L 367.1,442.8 L 370.0,442.7 L 373.0,442.7 L 375.9,442.6 L 378.8,442.6 L 381.7,442.6 L 384.6,442.5 L 387.6,442.5 L 390.5,442.5 L 393.4,442.4 L 396.3,442.4 L 399.2,442.4 L 402.2,442.3 L 405.1,442.3 L 408.0,442.3 L 410.9,442.2 L 413.8,442.2 L 416.8,442.2 L 419.7,442.2 L 422.6,442.2 L 425.5,442.1 L 428.4,442.1 L 431.4,442.1 L 434.3,442.1 L 437.2,442.1 L 440.1,442.1 L 443.0,442.1 L 446.0,442.1 L 448.9,442.1 L 451.8,442.1 L 454.7,442.1 L 457.6,442.1 L 460.6,442.1 L 463.5,442.1 L 466.4,442.1 L 469.3,442.2 L 472.2,442.2 L 475.2,442.2 L 478.1,442.2 L 481.0,442.2 L 483.9,442.3 L 486.8,442.3 L 489.8,442.3 L 492.7,442.3 L 495.6,442.4 L 498.5,442.4 L 501.4,442.4 L 504.4,442.4 L 507.3,442.4 L 510.2,442.5 L 513.1,442.5 L 516.0,442.5 L 519.0,442.5 L 521.9,442.5 L 524.8,442.6 L 527.7,442.6 L 530.6,442.6 L 533.6,442.6 L 536.5,442.6 L 539.4,442.6 L 542.3,442.6 L 545.2,442.6 L 548.2,442.6 L 551.1,442.6 L 554.0,442.6" fill="none" /><path d="M 262.0,452.6 L 264.9,452.6 L 267.8,452.6 L 270.8,452.7 L 273.7,452.7 L 276.6,452.7 L 279.5,452.7 L 282.4,452.7 L 285.4,452.7 L 288.3,452.7 L 291.2,452.7 L 294.1,452.6 L 297.0,452.6 L 300.0,452.6 L 302.9,452.6 L 305.8,452.6 L 308.7,452.5 L 311.6,452.5 L 314.6,452.5 L 317.5,452.4 L 320.4,452.4 L 323.3,452.4 L 326.2,452.3 L 329.2,452.3 L 332.1,452.2 L 335.0,452.2 L 337.9,452.1 L 340.8,452.1 L 343.8,452.0 L 346.7,452.0 L 349.6,451.9 L 352.5,451.9 L 355.4,451.8 L 358.4,451.8 L 361.3,451.8 L 364.2,451.7 L 367.1,451.7 L 370.0,451.6 L 373.0,451.6 L 375.9,451.6 L 378.8,451.5 L 381.7,451.5 L 384.6,451.5 L 387.6,451.5 L 390.5,451.5 L 393.4,451.4 L 396.3,451.4 L 399.2,451.4 L 402.2,451.4 L 405.1,451.4 L 408.0,451.4 L 410.9,451.4 L 413.8,451.4 L 416.8,451.4 L 419.7,451.4 L 422.6,451.5 L 425.5,451.5 L 428.4,451.5 L 431.4,451.5 L 434.3,451.5 L 437.2,451.6 L 440.1,451.6 L 443.0,451.6 L 446.0,451.6 L 448.9,451.7 L 451.8,451.7 L 454.7,451.7 L 457.6,451.8 L 460.6,451.8 L 463.5,451.8 L 466.4,451.8 L 469.3,451.9 L 472.2,451.9 L 475.2,451.9 L 478.1,452.0 L 481.0,452.0 L 483.9,452.0 L 486.8,452.0 L 489.8,452.1 L 492.7,452.1 L 495.6,452.1 L 498.5,452.1 L 501.4,452.1 L 504.4,452.1 L 507.3,452.1 L 510.2,452.2 L 513.1,452.2 L 516.0,452.2 L 519.0,452.2 L 521.9,452.2 L 524.8,452.2 L 527.7,452.2 L 530.6,452.2 L 533.6,452.2 L 536.5,452.2 L 539.4,452.2 L 542.3,452.2 L 545.2,452.2 L 548.2,452.2 L 551.1,452.2 L 554.0,452.2" fill="none" /><path d="M 262.0,462.2 L 264.9,462.2 L 267.8,462.1 L 270.8,462.1 L 273.7,462.1 L 276.6,462.0 L 279.5,462.0 L 282.4,461.9 L 285.4,461.9 L 288.3,461.8 L 291.2,461.8 L 294.1,461.7 L 297.0,461.7 L 300.0,461.6 L 302.9,461.5 L 305.8,461.5 L 308.7,461.4 L 311.6,461.4 L 314.6,461.3 L 317.5,461.3 L 320.4,461.2 L 323.3,461.1 L 326.2,461.1 L 329.2,461.0 L 332.1,461.0 L 335.0,461.0 L 337.9,460.9 L 340.8,460.9 L 343.8,460.8 L 346.7,460.8 L 349.6,460.8 L 352.5,460.8 L 355.4,460.7 L 358.4,460.7 L 361.3,460.7 L 364.2,460.7 L 367.1,460.7 L 370.0,460.7 L 373.0,460.7 L 375.9,460.7 L 378.8,460.7 L 381.7,460.7 L 384.6,460.8 L 387.6,460.8 L 390.5,460.8 L 393.4,460.8 L 396.3,460.9 L 399.2,460.9 L 402.2,460.9 L 405.1,461.0 L 408.0,461.0 L 410.9,461.0 L 413.8,461.1 L 416.8,461.1 L 419.7,461.2 L 422.6,461.2 L 425.5,461.2 L 428.4,461.3 L 431.4,461.3 L 434.3,461.4 L 437.2,461.4 L 440.1,461.4 L 443.0,461.5 L 446.0,461.5 L 448.9,461.5 L 451.8,461.5 L 454.7,461.6 L 457.6,461.6 L 460.6,461.6 L 463.5,461.6 L 466.4,461.7 L 469.3,461.7 L 472.2,461.7 L 475.2,461.7 L 478.1,461.7 L 481.0,461.7 L 483.9,461.7 L 486.8,461.7 L 489.8,461.7 L 492.7,461.7 L 495.6,461.7 L 498.5,461.7 L 501.4,461.7 L 504.4,461.7 L 507.3,461.7 L 510.2,461.7 L 513.1,461.7 L 516.0,461.7 L 519.0,461.7 L 521.9,461.7 L 524.8,461.7 L 527.7,461.7 L 530.6,461.7 L 533.6,461.7 L 536.5,461.7 L 539.4,461.7 L 542.3,461.7 L 545.2,461.7 L 548.2,461.7 L 551.1,461.7 L 554.0,461.7" fill="none" /><path d="M 262.0,471.1 L 264.9,471.0 L 267.8,470.9 L 270.8,470.9 L 273.7,470.8 L 276.6,470.7 L 279.5,470.7 L 282.4,470.6 L 285.4,470.5 L 288.3,470.5 L 291.2,470.4 L 294.1,470.3 L 297.0,470.3 L 300.0,470.2 L 302.9,470.2 L 305.8,470.1 L 308.7,470.1 L 311.6,470.1 L 314.6,470.0 L 317.5,470.0 L 320.4,470.0 L 323.3,470.0 L 326.2,470.0 L 329.2,470.0 L 332.1,470.0 L 335.0,470.0 L 337.9,470.0 L 340.8,470.0 L 343.8,470.0 L 346.7,470.0 L 349.6,470.1 L 352.5,470.1 L 355.4,470.1 L 358.4,470.2 L 361.3,470.2 L 364.2,470.3 L 367.1,470.3 L 370.0,470.3 L 373.0,470.4 L 375.9,470.4 L 378.8,470.5 L 381.7,470.5 L 384.6,470.6 L 387.6,470.6 L 390.5,470.7 L 393.4,470.7 L 396.3,470.8 L 399.2,470.8 L 402.2,470.9 L 405.1,470.9 L 408.0,471.0 L 410.9,471.0 L 413.8,471.1 L 416.8,471.1 L 419.7,471.1 L 422.6,471.1 L 425.5,471.2 L 428.4,471.2 L 431.4,471.2 L 434.3,471.2 L 437.2,471.2 L 440.1,471.3 L 443.0,471.3 L 446.0,471.3 L 448.9,471.3 L 451.8,471.3 L 454.7,471.3 L 457.6,471.3 L 460.6,471.3 L 463.5,471.3 L 466.4,471.3 L 469.3,471.3 L 472.2,471.3 L 475.2,471.3 L 478.1,471.2 L 481.0,471.2 L 483.9,471.2 L 486.8,471.2 L 489.8,471.2 L 492.7,471.2 L 495.6,471.2 L 498.5,471.2 L 501.4,471.2 L 504.4,471.2 L 507.3,471.2 L 510.2,471.2 L 513.1,471.2 L 516.0,471.2 L 519.0,471.2 L 521.9,471.2 L 524.8,471.3 L 527.7,471.3 L 530.6,471.3 L 533.6,471.3 L 536.5,471.3 L 539.4,471.3 L 542.3,471.3 L 545.2,471.4 L 548.2,471.4 L 551.1,471.4 L 554.0,471.4" fill="none" /><path d="M 262.0,479.5 L 264.9,479.5 L 267.8,479.4 L 270.8,479.4 L 273.7,479.3 L 276.6,479.3 L 279.5,479.3 L 282.4,479.2 L 285.4,479.2 L 288.3,479.2 L 291.2,479.2 L 294.1,479.2 L 297.0,479.2 L 300.0,479.2 L 302.9,479.2 L 305.8,479.3 L 308.7,479.3 L 311.6,479.3 L 314.6,479.4 L 317.5,479.4 L 320.4,479.5 L 323.3,479.5 L 326.2,479.6 L 329.2,479.6 L 332.1,479.7 L 335.0,479.7 L 337.9,479.8 L 340.8,479.9 L 343.8,479.9 L 346.7,480.0 L 349.6,480.1 L 352.5,480.1 L 355.4,480.2 L 358.4,480.2 L 361.3,480.3 L 364.2,480.4 L 367.1,480.4 L 370.0,480.5 L 373.0,480.5 L 375.9,480.6 L 378.8,480.6 L 381.7,480.7 L 384.6,480.7 L 387.6,480.7 L 390.5,480.8 L 393.4,480.8 L 396.3,480.8 L 399.2,480.8 L 402.2,480.8 L 405.1,480.9 L 408.0,480.9 L 410.9,480.9 L 413.8,480.9 L 416.8,480.9 L 419.7,480.9 L 422.6,480.9 L 425.5,480.9 L 428.4,480.9 L 431.4,480.8 L 434.3,480.8 L 437.2,480.8 L 440.1,480.8 L 443.0,480.8 L 446.0,480.8 L 448.9,480.8 L 451.8,480.8 L 454.7,480.8 L 457.6,480.8 L 460.6,480.8 L 463.5,480.8 L 466.4,480.7 L 469.3,480.7 L 472.2,480.7 L 475.2,480.8 L 478.1,480.8 L 481.0,480.8 L 483.9,480.8 L 486.8,480.8 L 489.8,480.8 L 492.7,480.8 L 495.6,480.8 L 498.5,480.8 L 501.4,480.8 L 504.4,480.9 L 507.3,480.9 L 510.2,480.9 L 513.1,480.9 L 516.0,480.9 L 519.0,481.0 L 521.9,481.0 L 524.8,481.0 L 527.7,481.0 L 530.6,481.0 L 533.6,481.0 L 536.5,481.0 L 539.4,481.0 L 542.3,481.0 L 545.2,481.0 L 548.2,481.0 L 551.1,481.0 L 554.0,481.0" fill="none" /><path d="M 262.0,488.4 L 264.9,488.4 L 267.8,488.5 L 270.8,488.5 L 273.7,488.6 L 276.6,488.6 L 279.5,488.7 L 282.4,488.7 L 285.4,488.8 L 288.3,488.8 L 291.2,488.9 L 294.1,489.0 L 297.0,489.1 L 300.0,489.1 L 302.9,489.2 L 305.8,489.3 L 308.7,489.4 L 311.6,489.5 L 314.6,489.5 L 317.5,489.6 L 320.4,489.7 L 323.3,489.8 L 326.2,489.8 L 329.2,489.9 L 332.1,490.0 L 335.0,490.0 L 337.9,490.1 L 340.8,490.2 L 343.8,490.2 L 346.7,490.3 L 349.6,490.3 L 352.5,490.3 L 355.4,490.4 L 358.4,490.4 L 361.3,490.4 L 364.2,490.4 L 367.1,490.5 L 370.0,490.5 L 373.0,490.5 L 375.9,490.5 L 378.8,490.5 L 381.7,490.5 L 384.6,490.5 L 387.6,490.5 L 390.5,490.5 L 393.4,490.5 L 396.3,490.4 L 399.2,490.4 L 402.2,490.4 L 405.1,490.4 L 408.0,490.4 L 410.9,490.4 L 413.8,490.4 L 416.8,490.3 L 419.7,490.3 L 422.6,490.3 L 425.5,490.3 L 428.4,490.3 L 431.4,490.3 L 434.3,490.3 L 437.2,490.3 L 440.1,490.3 L 443.0,490.3 L 446.0,490.3 L 448.9,490.3 L 451.8,490.3 L 454.7,490.3 L 457.6,490.3 L 460.6,490.3 L 463.5,490.4 L 466.4,490.4 L 469.3,490.4 L 472.2,490.4 L 475.2,490.4 L 478.1,490.5 L 481.0,490.5 L 483.9,490.5 L 486.8,490.5 L 489.8,490.5 L 492.7,490.5 L 495.6,490.5 L 498.5,490.6 L 501.4,490.6 L 504.4,490.6 L 507.3,490.6 L 510.2,490.6 L 513.1,490.6 L 516.0,490.5 L 519.0,490.5 L 521.9,490.5 L 524.8,490.5 L 527.7,490.5 L 530.6,490.4 L 533.6,490.4 L 536.5,490.3 L 539.4,490.3 L 542.3,490.2 L 545.2,490.2 L 548.2,490.1 L 551.1,490.1 L 554.0,490.0" fill="none" /><path d="M 262.0,498.5 L 264.9,498.6 L 267.8,498.7 L 270.8,498.8 L 273.7,498.9 L 276.6,499.0 L 279.5,499.0 L 282.4,499.1 L 285.4,499.2 L 288.3,499.3 L 291.2,499.4 L 294.1,499.5 L 297.0,499.6 L 300.0,499.7 L 302.9,499.7 L 305.8,499.8 L 308.7,499.8 L 311.6,499.9 L 314.6,500.0 L 317.5,500.0 L 320.4,500.0 L 323.3,500.1 L 326.2,500.1 L 329.2,500.1 L 332.1,500.1 L 335.0,500.1 L 337.9,500.1 L 340.8,500.1 L 343.8,500.1 L 346.7,500.1 L 349.6,500.1 L 352.5,500.1 L 355.4,500.1 L 358.4,500.1 L 361.3,500.1 L 364.2,500.0 L 367.1,500.0 L 370.0,500.0 L 373.0,500.0 L 375.9,500.0 L 378.8,499.9 L 381.7,499.9 L 384.6,499.9 L 387.6,499.9 L 390.5,499.9 L 393.4,499.9 L 396.3,499.8 L 399.2,499.8 L 402.2,499.8 L 405.1,499.8 L 408.0,499.8 L 410.9,499.8 L 413.8,499.8 L 416.8,499.8 L 419.7,499.8 L 422.6,499.9 L 425.5,499.9 L 428.4,499.9 L 431.4,499.9 L 434.3,499.9 L 437.2,499.9 L 440.1,500.0 L 443.0,500.0 L 446.0,500.0 L 448.9,500.0 L 451.8,500.0 L 454.7,500.0 L 457.6,500.1 L 460.6,500.1 L 463.5,500.1 L 466.4,500.1 L 469.3,500.1 L 472.2,500.1 L 475.2,500.1 L 478.1,500.1 L 481.0,500.0 L 483.9,500.0 L 486.8,500.0 L 489.8,500.0 L 492.7,499.9 L 495.6,499.9 L 498.5,499.8 L 501.4,499.8 L 504.4,499.7 L 507.3,499.6 L 510.2,499.6 L 513.1,499.5 L 516.0,499.4 L 519.0,499.3 L 521.9,499.2 L 524.8,499.2 L 527.7,499.1 L 530.6,499.0 L 533.6,498.9 L 536.5,498.8 L 539.4,498.7 L 542.3,498.6 L 545.2,498.5 L 548.2,498.4 L 551.1,498.3 L 554.0,498.2" fill="none" opacity="0.88" /><path d="M 262.0,509.2 L 264.9,509.3 L 267.8,509.4 L 270.8,509.5 L 273.7,509.5 L 276.6,509.6 L 279.5,509.6 L 282.4,509.7 L 285.4,509.7 L 288.3,509.8 L 291.2,509.8 L 294.1,509.8 L 297.0,509.8 L 300.0,509.8 L 302.9,509.8 L 305.8,509.8 L 308.7,509.8 L 311.6,509.8 L 314.6,509.8 L 317.5,509.8 L 320.4,509.8 L 323.3,509.7 L 326.2,509.7 L 329.2,509.7 L 332.1,509.6 L 335.0,509.6 L 337.9,509.6 L 340.8,509.6 L 343.8,509.5 L 346.7,509.5 L 349.6,509.5 L 352.5,509.4 L 355.4,509.4 L 358.4,509.4 L 361.3,509.4 L 364.2,509.4 L 367.1,509.4 L 370.0,509.4 L 373.0,509.4 L 375.9,509.3 L 378.8,509.4 L 381.7,509.4 L 384.6,509.4 L 387.6,509.4 L 390.5,509.4 L 393.4,509.4 L 396.3,509.4 L 399.2,509.4 L 402.2,509.4 L 405.1,509.5 L 408.0,509.5 L 410.9,509.5 L 413.8,509.5 L 416.8,509.5 L 419.7,509.5 L 422.6,509.6 L 425.5,509.6 L 428.4,509.6 L 431.4,509.6 L 434.3,509.6 L 437.2,509.6 L 440.1,509.5 L 443.0,509.5 L 446.0,509.5 L 448.9,509.5 L 451.8,509.4 L 454.7,509.4 L 457.6,509.3 L 460.6,509.3 L 463.5,509.2 L 466.4,509.2 L 469.3,509.1 L 472.2,509.0 L 475.2,508.9 L 478.1,508.8 L 481.0,508.7 L 483.9,508.7 L 486.8,508.6 L 489.8,508.4 L 492.7,508.3 L 495.6,508.2 L 498.5,508.1 L 501.4,508.0 L 504.4,507.9 L 507.3,507.8 L 510.2,507.7 L 513.1,507.6 L 516.0,507.5 L 519.0,507.4 L 521.9,507.3 L 524.8,507.2 L 527.7,507.1 L 530.6,507.0 L 533.6,506.9 L 536.5,506.9 L 539.4,506.8 L 542.3,506.8 L 545.2,506.7 L 548.2,506.7 L 551.1,506.7 L 554.0,506.7" fill="none" opacity="0.73" /><path d="M 262.0,519.6 L 264.9,519.6 L 267.8,519.6 L 270.8,519.6 L 273.7,519.5 L 276.6,519.5 L 279.5,519.5 L 282.4,519.5 L 285.4,519.4 L 288.3,519.4 L 291.2,519.4 L 294.1,519.3 L 297.0,519.3 L 300.0,519.2 L 302.9,519.2 L 305.8,519.2 L 308.7,519.1 L 311.6,519.1 L 314.6,519.0 L 317.5,519.0 L 320.4,519.0 L 323.3,518.9 L 326.2,518.9 L 329.2,518.9 L 332.1,518.9 L 335.0,518.9 L 337.9,518.9 L 340.8,518.9 L 343.8,518.9 L 346.7,518.9 L 349.6,518.9 L 352.5,518.9 L 355.4,518.9 L 358.4,518.9 L 361.3,518.9 L 364.2,518.9 L 367.1,518.9 L 370.0,519.0 L 373.0,519.0 L 375.9,519.0 L 378.8,519.0 L 381.7,519.0 L 384.6,519.0 L 387.6,519.0 L 390.5,519.0 L 393.4,519.0 L 396.3,519.0 L 399.2,519.0 L 402.2,519.0 L 405.1,519.0 L 408.0,519.0 L 410.9,518.9 L 413.8,518.9 L 416.8,518.9 L 419.7,518.8 L 422.6,518.7 L 425.5,518.7 L 428.4,518.6 L 431.4,518.5 L 434.3,518.4 L 437.2,518.3 L 440.1,518.2 L 443.0,518.1 L 446.0,518.0 L 448.9,517.9 L 451.8,517.8 L 454.7,517.7 L 457.6,517.6 L 460.6,517.4 L 463.5,517.3 L 466.4,517.2 L 469.3,517.1 L 472.2,517.0 L 475.2,516.8 L 478.1,516.7 L 481.0,516.6 L 483.9,516.5 L 486.8,516.4 L 489.8,516.3 L 492.7,516.2 L 495.6,516.1 L 498.5,516.0 L 501.4,516.0 L 504.4,515.9 L 507.3,515.9 L 510.2,515.9 L 513.1,515.8 L 516.0,515.8 L 519.0,515.8 L 521.9,515.8 L 524.8,515.9 L 527.7,515.9 L 530.6,515.9 L 533.6,516.0 L 536.5,516.1 L 539.4,516.2 L 542.3,516.3 L 545.2,516.4 L 548.2,516.5 L 551.1,516.6 L 554.0,516.7" fill="none" opacity="0.58" /><path d="M 262.0,528.9 L 264.9,528.9 L 267.8,528.8 L 270.8,528.8 L 273.7,528.7 L 276.6,528.6 L 279.5,528.6 L 282.4,528.6 L 285.4,528.5 L 288.3,528.5 L 291.2,528.4 L 294.1,528.4 L 297.0,528.4 L 300.0,528.4 L 302.9,528.4 L 305.8,528.3 L 308.7,528.3 L 311.6,528.3 L 314.6,528.3 L 317.5,528.3 L 320.4,528.3 L 323.3,528.4 L 326.2,528.4 L 329.2,528.4 L 332.1,528.4 L 335.0,528.4 L 337.9,528.4 L 340.8,528.4 L 343.8,528.5 L 346.7,528.5 L 349.6,528.5 L 352.5,528.5 L 355.4,528.5 L 358.4,528.5 L 361.3,528.5 L 364.2,528.5 L 367.1,528.4 L 370.0,528.4 L 373.0,528.4 L 375.9,528.3 L 378.8,528.3 L 381.7,528.2 L 384.6,528.2 L 387.6,528.1 L 390.5,528.0 L 393.4,527.9 L 396.3,527.8 L 399.2,527.7 L 402.2,527.6 L 405.1,527.5 L 408.0,527.4 L 410.9,527.3 L 413.8,527.2 L 416.8,527.0 L 419.7,526.9 L 422.6,526.8 L 425.5,526.6 L 428.4,526.5 L 431.4,526.3 L 434.3,526.2 L 437.2,526.1 L 440.1,525.9 L 443.0,525.8 L 446.0,525.7 L 448.9,525.6 L 451.8,525.5 L 454.7,525.4 L 457.6,525.3 L 460.6,525.2 L 463.5,525.1 L 466.4,525.1 L 469.3,525.0 L 472.2,525.0 L 475.2,525.0 L 478.1,524.9 L 481.0,524.9 L 483.9,525.0 L 486.8,525.0 L 489.8,525.0 L 492.7,525.1 L 495.6,525.2 L 498.5,525.2 L 501.4,525.3 L 504.4,525.5 L 507.3,525.6 L 510.2,525.7 L 513.1,525.9 L 516.0,526.0 L 519.0,526.2 L 521.9,526.3 L 524.8,526.5 L 527.7,526.7 L 530.6,526.9 L 533.6,527.1 L 536.5,527.3 L 539.4,527.5 L 542.3,527.7 L 545.2,527.9 L 548.2,528.1 L 551.1,528.3 L 554.0,528.5" fill="none" opacity="0.42" /><path d="M 262.0,537.9 L 264.9,537.8 L 267.8,537.8 L 270.8,537.8 L 273.7,537.8 L 276.6,537.8 L 279.5,537.8 L 282.4,537.8 L 285.4,537.8 L 288.3,537.8 L 291.2,537.8 L 294.1,537.8 L 297.0,537.8 L 300.0,537.8 L 302.9,537.8 L 305.8,537.9 L 308.7,537.9 L 311.6,537.9 L 314.6,537.9 L 317.5,537.9 L 320.4,537.9 L 323.3,537.9 L 326.2,537.9 L 329.2,537.8 L 332.1,537.8 L 335.0,537.8 L 337.9,537.7 L 340.8,537.7 L 343.8,537.6 L 346.7,537.6 L 349.6,537.5 L 352.5,537.4 L 355.4,537.3 L 358.4,537.2 L 361.3,537.1 L 364.2,537.0 L 367.1,536.9 L 370.0,536.8 L 373.0,536.6 L 375.9,536.5 L 378.8,536.3 L 381.7,536.2 L 384.6,536.0 L 387.6,535.9 L 390.5,535.7 L 393.4,535.6 L 396.3,535.4 L 399.2,535.3 L 402.2,535.2 L 405.1,535.0 L 408.0,534.9 L 410.9,534.8 L 413.8,534.6 L 416.8,534.5 L 419.7,534.4 L 422.6,534.3 L 425.5,534.3 L 428.4,534.2 L 431.4,534.1 L 434.3,534.1 L 437.2,534.1 L 440.1,534.1 L 443.0,534.1 L 446.0,534.1 L 448.9,534.1 L 451.8,534.2 L 454.7,534.2 L 457.6,534.3 L 460.6,534.4 L 463.5,534.5 L 466.4,534.6 L 469.3,534.8 L 472.2,534.9 L 475.2,535.1 L 478.1,535.3 L 481.0,535.5 L 483.9,535.6 L 486.8,535.9 L 489.8,536.1 L 492.7,536.3 L 495.6,536.5 L 498.5,536.7 L 501.4,537.0 L 504.4,537.2 L 507.3,537.4 L 510.2,537.7 L 513.1,537.9 L 516.0,538.1 L 519.0,538.3 L 521.9,538.6 L 524.8,538.8 L 527.7,539.0 L 530.6,539.1 L 533.6,539.3 L 536.5,539.5 L 539.4,539.6 L 542.3,539.8 L 545.2,539.9 L 548.2,540.0 L 551.1,540.1 L 554.0,540.2" fill="none" opacity="0.27" /><path d="M 262.0,547.2 L 264.9,547.2 L 267.8,547.2 L 270.8,547.2 L 273.7,547.2 L 276.6,547.2 L 279.5,547.2 L 282.4,547.2 L 285.4,547.2 L 288.3,547.2 L 291.2,547.2 L 294.1,547.2 L 297.0,547.1 L 300.0,547.1 L 302.9,547.1 L 305.8,547.0 L 308.7,546.9 L 311.6,546.9 L 314.6,546.8 L 317.5,546.7 L 320.4,546.6 L 323.3,546.5 L 326.2,546.3 L 329.2,546.2 L 332.1,546.1 L 335.0,545.9 L 337.9,545.8 L 340.8,545.6 L 343.8,545.5 L 346.7,545.3 L 349.6,545.2 L 352.5,545.0 L 355.4,544.8 L 358.4,544.7 L 361.3,544.5 L 364.2,544.4 L 367.1,544.2 L 370.0,544.1 L 373.0,543.9 L 375.9,543.8 L 378.8,543.7 L 381.7,543.6 L 384.6,543.5 L 387.6,543.4 L 390.5,543.3 L 393.4,543.2 L 396.3,543.2 L 399.2,543.2 L 402.2,543.1 L 405.1,543.1 L 408.0,543.2 L 410.9,543.2 L 413.8,543.3 L 416.8,543.3 L 419.7,543.4 L 422.6,543.5 L 425.5,543.7 L 428.4,543.8 L 431.4,544.0 L 434.3,544.1 L 437.2,544.3 L 440.1,544.5 L 443.0,544.7 L 446.0,545.0 L 448.9,545.2 L 451.8,545.4 L 454.7,545.7 L 457.6,545.9 L 460.6,546.2 L 463.5,546.5 L 466.4,546.7 L 469.3,547.0 L 472.2,547.3 L 475.2,547.5 L 478.1,547.8 L 481.0,548.0 L 483.9,548.3 L 486.8,548.5 L 489.8,548.7 L 492.7,549.0 L 495.6,549.2 L 498.5,549.4 L 501.4,549.5 L 504.4,549.7 L 507.3,549.8 L 510.2,550.0 L 513.1,550.1 L 516.0,550.2 L 519.0,550.2 L 521.9,550.3 L 524.8,550.3 L 527.7,550.4 L 530.6,550.4 L 533.6,550.3 L 536.5,550.3 L 539.4,550.3 L 542.3,550.2 L 545.2,550.1 L 548.2,550.0 L 551.1,549.9 L 554.0,549.8" fill="none" opacity="0.12" /></g><g id="03_Gold_Beneath" inkscape:groupmode="layer" inkscape:label="03_Gold_Beneath" stroke="#B8960C" fill="none" stroke-width="1" stroke-linecap="round" stroke-linejoin="round"><path d="M 262.0,498.5 L 264.9,498.6 L 267.8,498.7 L 270.8,498.8 L 273.7,498.9 L 276.6,499.0 L 279.5,499.0 L 282.4,499.1 L 285.4,499.2 L 288.3,499.3 L 291.2,499.4 L 294.1,499.5 L 297.0,499.6 L 300.0,499.7 L 302.9,499.7 L 305.8,499.8 L 308.7,499.8 L 311.6,499.9 L 314.6,500.0 L 317.5,500.0 L 320.4,500.0 L 323.3,500.1 L 326.2,500.1 L 329.2,500.1 L 332.1,500.1 L 335.0,500.1 L 337.9,500.1 L 340.8,500.1 L 343.8,500.1 L 346.7,500.1 L 349.6,500.1 L 352.5,500.1 L 355.4,500.1 L 358.4,500.1 L 361.3,500.1 L 364.2,500.0 L 367.1,500.0 L 370.0,500.0 L 373.0,500.0 L 375.9,500.0 L 378.8,499.9 L 381.7,499.9 L 384.6,499.9 L 387.6,499.9 L 390.5,499.9 L 393.4,499.9 L 396.3,499.8 L 399.2,499.8 L 402.2,499.8 L 405.1,499.8 L 408.0,499.8 L 410.9,499.8 L 413.8,499.8 L 416.8,499.8 L 419.7,499.8 L 422.6,499.9 L 425.5,499.9 L 428.4,499.9 L 431.4,499.9 L 434.3,499.9 L 437.2,499.9 L 440.1,500.0 L 443.0,500.0 L 446.0,500.0 L 448.9,500.0 L 451.8,500.0 L 454.7,500.0 L 457.6,500.1 L 460.6,500.1 L 463.5,500.1 L 466.4,500.1 L 469.3,500.1 L 472.2,500.1 L 475.2,500.1 L 478.1,500.1 L 481.0,500.0 L 483.9,500.0 L 486.8,500.0 L 489.8,500.0 L 492.7,499.9 L 495.6,499.9 L 498.5,499.8 L 501.4,499.8 L 504.4,499.7 L 507.3,499.6 L 510.2,499.6 L 513.1,499.5 L 516.0,499.4 L 519.0,499.3 L 521.9,499.2 L 524.8,499.2 L 527.7,499.1 L 530.6,499.0 L 533.6,498.9 L 536.5,498.8 L 539.4,498.7 L 542.3,498.6 L 545.2,498.5 L 548.2,498.4 L 551.1,498.3 L 554.0,498.2" fill="none" opacity="0.12" /><path d="M 262.0,509.2 L 264.9,509.3 L 267.8,509.4 L 270.8,509.5 L 273.7,509.5 L 276.6,509.6 L 279.5,509.6 L 282.4,509.7 L 285.4,509.7 L 288.3,509.8 L 291.2,509.8 L 294.1,509.8 L 297.0,509.8 L 300.0,509.8 L 302.9,509.8 L 305.8,509.8 L 308.7,509.8 L 311.6,509.8 L 314.6,509.8 L 317.5,509.8 L 320.4,509.8 L 323.3,509.7 L 326.2,509.7 L 329.2,509.7 L 332.1,509.6 L 335.0,509.6 L 337.9,509.6 L 340.8,509.6 L 343.8,509.5 L 346.7,509.5 L 349.6,509.5 L 352.5,509.4 L 355.4,509.4 L 358.4,509.4 L 361.3,509.4 L 364.2,509.4 L 367.1,509.4 L 370.0,509.4 L 373.0,509.4 L 375.9,509.3 L 378.8,509.4 L 381.7,509.4 L 384.6,509.4 L 387.6,509.4 L 390.5,509.4 L 393.4,509.4 L 396.3,509.4 L 399.2,509.4 L 402.2,509.4 L 405.1,509.5 L 408.0,509.5 L 410.9,509.5 L 413.8,509.5 L 416.8,509.5 L 419.7,509.5 L 422.6,509.6 L 425.5,509.6 L 428.4,509.6 L 431.4,509.6 L 434.3,509.6 L 437.2,509.6 L 440.1,509.5 L 443.0,509.5 L 446.0,509.5 L 448.9,509.5 L 451.8,509.4 L 454.7,509.4 L 457.6,509.3 L 460.6,509.3 L 463.5,509.2 L 466.4,509.2 L 469.3,509.1 L 472.2,509.0 L 475.2,508.9 L 478.1,508.8 L 481.0,508.7 L 483.9,508.7 L 486.8,508.6 L 489.8,508.4 L 492.7,508.3 L 495.6,508.2 L 498.5,508.1 L 501.4,508.0 L 504.4,507.9 L 507.3,507.8 L 510.2,507.7 L 513.1,507.6 L 516.0,507.5 L 519.0,507.4 L 521.9,507.3 L 524.8,507.2 L 527.7,507.1 L 530.6,507.0 L 533.6,506.9 L 536.5,506.9 L 539.4,506.8 L 542.3,506.8 L 545.2,506.7 L 548.2,506.7 L 551.1,506.7 L 554.0,506.7" fill="none" opacity="0.27" /><path d="M 262.0,519.6 L 264.9,519.6 L 267.8,519.6 L 270.8,519.6 L 273.7,519.5 L 276.6,519.5 L 279.5,519.5 L 282.4,519.5 L 285.4,519.4 L 288.3,519.4 L 291.2,519.4 L 294.1,519.3 L 297.0,519.3 L 300.0,519.2 L 302.9,519.2 L 305.8,519.2 L 308.7,519.1 L 311.6,519.1 L 314.6,519.0 L 317.5,519.0 L 320.4,519.0 L 323.3,518.9 L 326.2,518.9 L 329.2,518.9 L 332.1,518.9 L 335.0,518.9 L 337.9,518.9 L 340.8,518.9 L 343.8,518.9 L 346.7,518.9 L 349.6,518.9 L 352.5,518.9 L 355.4,518.9 L 358.4,518.9 L 361.3,518.9 L 364.2,518.9 L 367.1,518.9 L 370.0,519.0 L 373.0,519.0 L 375.9,519.0 L 378.8,519.0 L 381.7,519.0 L 384.6,519.0 L 387.6,519.0 L 390.5,519.0 L 393.4,519.0 L 396.3,519.0 L 399.2,519.0 L 402.2,519.0 L 405.1,519.0 L 408.0,519.0 L 410.9,518.9 L 413.8,518.9 L 416.8,518.9 L 419.7,518.8 L 422.6,518.7 L 425.5,518.7 L 428.4,518.6 L 431.4,518.5 L 434.3,518.4 L 437.2,518.3 L 440.1,518.2 L 443.0,518.1 L 446.0,518.0 L 448.9,517.9 L 451.8,517.8 L 454.7,517.7 L 457.6,517.6 L 460.6,517.4 L 463.5,517.3 L 466.4,517.2 L 469.3,517.1 L 472.2,517.0 L 475.2,516.8 L 478.1,516.7 L 481.0,516.6 L 483.9,516.5 L 486.8,516.4 L 489.8,516.3 L 492.7,516.2 L 495.6,516.1 L 498.5,516.0 L 501.4,516.0 L 504.4,515.9 L 507.3,515.9 L 510.2,515.9 L 513.1,515.8 L 516.0,515.8 L 519.0,515.8 L 521.9,515.8 L 524.8,515.9 L 527.7,515.9 L 530.6,515.9 L 533.6,516.0 L 536.5,516.1 L 539.4,516.2 L 542.3,516.3 L 545.2,516.4 L 548.2,516.5 L 551.1,516.6 L 554.0,516.7" fill="none" opacity="0.42" /><path d="M 262.0,528.9 L 264.9,528.9 L 267.8,528.8 L 270.8,528.8 L 273.7,528.7 L 276.6,528.6 L 279.5,528.6 L 282.4,528.6 L 285.4,528.5 L 288.3,528.5 L 291.2,528.4 L 294.1,528.4 L 297.0,528.4 L 300.0,528.4 L 302.9,528.4 L 305.8,528.3 L 308.7,528.3 L 311.6,528.3 L 314.6,528.3 L 317.5,528.3 L 320.4,528.3 L 323.3,528.4 L 326.2,528.4 L 329.2,528.4 L 332.1,528.4 L 335.0,528.4 L 337.9,528.4 L 340.8,528.4 L 343.8,528.5 L 346.7,528.5 L 349.6,528.5 L 352.5,528.5 L 355.4,528.5 L 358.4,528.5 L 361.3,528.5 L 364.2,528.5 L 367.1,528.4 L 370.0,528.4 L 373.0,528.4 L 375.9,528.3 L 378.8,528.3 L 381.7,528.2 L 384.6,528.2 L 387.6,528.1 L 390.5,528.0 L 393.4,527.9 L 396.3,527.8 L 399.2,527.7 L 402.2,527.6 L 405.1,527.5 L 408.0,527.4 L 410.9,527.3 L 413.8,527.2 L 416.8,527.0 L 419.7,526.9 L 422.6,526.8 L 425.5,526.6 L 428.4,526.5 L 431.4,526.3 L 434.3,526.2 L 437.2,526.1 L 440.1,525.9 L 443.0,525.8 L 446.0,525.7 L 448.9,525.6 L 451.8,525.5 L 454.7,525.4 L 457.6,525.3 L 460.6,525.2 L 463.5,525.1 L 466.4,525.1 L 469.3,525.0 L 472.2,525.0 L 475.2,525.0 L 478.1,524.9 L 481.0,524.9 L 483.9,525.0 L 486.8,525.0 L 489.8,525.0 L 492.7,525.1 L 495.6,525.2 L 498.5,525.2 L 501.4,525.3 L 504.4,525.5 L 507.3,525.6 L 510.2,525.7 L 513.1,525.9 L 516.0,526.0 L 519.0,526.2 L 521.9,526.3 L 524.8,526.5 L 527.7,526.7 L 530.6,526.9 L 533.6,527.1 L 536.5,527.3 L 539.4,527.5 L 542.3,527.7 L 545.2,527.9 L 548.2,528.1 L 551.1,528.3 L 554.0,528.5" fill="none" opacity="0.58" /><path d="M 262.0,537.9 L 264.9,537.8 L 267.8,537.8 L 270.8,537.8 L 273.7,537.8 L 276.6,537.8 L 279.5,537.8 L 282.4,537.8 L 285.4,537.8 L 288.3,537.8 L 291.2,537.8 L 294.1,537.8 L 297.0,537.8 L 300.0,537.8 L 302.9,537.8 L 305.8,537.9 L 308.7,537.9 L 311.6,537.9 L 314.6,537.9 L 317.5,537.9 L 320.4,537.9 L 323.3,537.9 L 326.2,537.9 L 329.2,537.8 L 332.1,537.8 L 335.0,537.8 L 337.9,537.7 L 340.8,537.7 L 343.8,537.6 L 346.7,537.6 L 349.6,537.5 L 352.5,537.4 L 355.4,537.3 L 358.4,537.2 L 361.3,537.1 L 364.2,537.0 L 367.1,536.9 L 370.0,536.8 L 373.0,536.6 L 375.9,536.5 L 378.8,536.3 L 381.7,536.2 L 384.6,536.0 L 387.6,535.9 L 390.5,535.7 L 393.4,535.6 L 396.3,535.4 L 399.2,535.3 L 402.2,535.2 L 405.1,535.0 L 408.0,534.9 L 410.9,534.8 L 413.8,534.6 L 416.8,534.5 L 419.7,534.4 L 422.6,534.3 L 425.5,534.3 L 428.4,534.2 L 431.4,534.1 L 434.3,534.1 L 437.2,534.1 L 440.1,534.1 L 443.0,534.1 L 446.0,534.1 L 448.9,534.1 L 451.8,534.2 L 454.7,534.2 L 457.6,534.3 L 460.6,534.4 L 463.5,534.5 L 466.4,534.6 L 469.3,534.8 L 472.2,534.9 L 475.2,535.1 L 478.1,535.3 L 481.0,535.5 L 483.9,535.6 L 486.8,535.9 L 489.8,536.1 L 492.7,536.3 L 495.6,536.5 L 498.5,536.7 L 501.4,537.0 L 504.4,537.2 L 507.3,537.4 L 510.2,537.7 L 513.1,537.9 L 516.0,538.1 L 519.0,538.3 L 521.9,538.6 L 524.8,538.8 L 527.7,539.0 L 530.6,539.1 L 533.6,539.3 L 536.5,539.5 L 539.4,539.6 L 542.3,539.8 L 545.2,539.9 L 548.2,540.0 L 551.1,540.1 L 554.0,540.2" fill="none" opacity="0.73" /><path d="M 262.0,547.2 L 264.9,547.2 L 267.8,547.2 L 270.8,547.2 L 273.7,547.2 L 276.6,547.2 L 279.5,547.2 L 282.4,547.2 L 285.4,547.2 L 288.3,547.2 L 291.2,547.2 L 294.1,547.2 L 297.0,547.1 L 300.0,547.1 L 302.9,547.1 L 305.8,547.0 L 308.7,546.9 L 311.6,546.9 L 314.6,546.8 L 317.5,546.7 L 320.4,546.6 L 323.3,546.5 L 326.2,546.3 L 329.2,546.2 L 332.1,546.1 L 335.0,545.9 L 337.9,545.8 L 340.8,545.6 L 343.8,545.5 L 346.7,545.3 L 349.6,545.2 L 352.5,545.0 L 355.4,544.8 L 358.4,544.7 L 361.3,544.5 L 364.2,544.4 L 367.1,544.2 L 370.0,544.1 L 373.0,543.9 L 375.9,543.8 L 378.8,543.7 L 381.7,543.6 L 384.6,543.5 L 387.6,543.4 L 390.5,543.3 L 393.4,543.2 L 396.3,543.2 L 399.2,543.2 L 402.2,543.1 L 405.1,543.1 L 408.0,543.2 L 410.9,543.2 L 413.8,543.3 L 416.8,543.3 L 419.7,543.4 L 422.6,543.5 L 425.5,543.7 L 428.4,543.8 L 431.4,544.0 L 434.3,544.1 L 437.2,544.3 L 440.1,544.5 L 443.0,544.7 L 446.0,545.0 L 448.9,545.2 L 451.8,545.4 L 454.7,545.7 L 457.6,545.9 L 460.6,546.2 L 463.5,546.5 L 466.4,546.7 L 469.3,547.0 L 472.2,547.3 L 475.2,547.5 L 478.1,547.8 L 481.0,548.0 L 483.9,548.3 L 486.8,548.5 L 489.8,548.7 L 492.7,549.0 L 495.6,549.2 L 498.5,549.4 L 501.4,549.5 L 504.4,549.7 L 507.3,549.8 L 510.2,550.0 L 513.1,550.1 L 516.0,550.2 L 519.0,550.2 L 521.9,550.3 L 524.8,550.3 L 527.7,550.4 L 530.6,550.4 L 533.6,550.3 L 536.5,550.3 L 539.4,550.3 L 542.3,550.2 L 545.2,550.1 L 548.2,550.0 L 551.1,549.9 L 554.0,549.8" fill="none" opacity="0.88" /><path d="M 262.0,556.4 L 264.9,556.4 L 267.8,556.3 L 270.8,556.3 L 273.7,556.2 L 276.6,556.1 L 279.5,556.0 L 282.4,555.9 L 285.4,555.8 L 288.3,555.6 L 291.2,555.5 L 294.1,555.4 L 297.0,555.2 L 300.0,555.1 L 302.9,554.9 L 305.8,554.7 L 308.7,554.6 L 311.6,554.4 L 314.6,554.2 L 317.5,554.1 L 320.4,553.9 L 323.3,553.7 L 326.2,553.5 L 329.2,553.4 L 332.1,553.2 L 335.0,553.1 L 337.9,552.9 L 340.8,552.8 L 343.8,552.7 L 346.7,552.6 L 349.6,552.5 L 352.5,552.4 L 355.4,552.3 L 358.4,552.3 L 361.3,552.2 L 364.2,552.2 L 367.1,552.2 L 370.0,552.3 L 373.0,552.3 L 375.9,552.4 L 378.8,552.5 L 381.7,552.6 L 384.6,552.7 L 387.6,552.8 L 390.5,553.0 L 393.4,553.2 L 396.3,553.3 L 399.2,553.6 L 402.2,553.8 L 405.1,554.0 L 408.0,554.3 L 410.9,554.5 L 413.8,554.8 L 416.8,555.1 L 419.7,555.4 L 422.6,555.7 L 425.5,556.0 L 428.4,556.3 L 431.4,556.6 L 434.3,556.9 L 437.2,557.2 L 440.1,557.5 L 443.0,557.8 L 446.0,558.0 L 448.9,558.3 L 451.8,558.6 L 454.7,558.8 L 457.6,559.1 L 460.6,559.3 L 463.5,559.5 L 466.4,559.7 L 469.3,559.8 L 472.2,560.0 L 475.2,560.1 L 478.1,560.2 L 481.0,560.3 L 483.9,560.4 L 486.8,560.4 L 489.8,560.4 L 492.7,560.4 L 495.6,560.4 L 498.5,560.4 L 501.4,560.3 L 504.4,560.2 L 507.3,560.2 L 510.2,560.0 L 513.1,559.9 L 516.0,559.8 L 519.0,559.6 L 521.9,559.5 L 524.8,559.3 L 527.7,559.1 L 530.6,558.9 L 533.6,558.7 L 536.5,558.5 L 539.4,558.3 L 542.3,558.1 L 545.2,557.8 L 548.2,557.6 L 551.1,557.4 L 554.0,557.2" fill="none" /><path d="M 262.0,564.3 L 264.9,564.2 L 267.8,564.0 L 270.8,563.8 L 273.7,563.6 L 276.6,563.4 L 279.5,563.3 L 282.4,563.1 L 285.4,562.9 L 288.3,562.7 L 291.2,562.5 L 294.1,562.4 L 297.0,562.2 L 300.0,562.1 L 302.9,561.9 L 305.8,561.8 L 308.7,561.7 L 311.6,561.6 L 314.6,561.5 L 317.5,561.4 L 320.4,561.4 L 323.3,561.3 L 326.2,561.3 L 329.2,561.3 L 332.1,561.3 L 335.0,561.4 L 337.9,561.5 L 340.8,561.6 L 343.8,561.7 L 346.7,561.8 L 349.6,562.0 L 352.5,562.2 L 355.4,562.3 L 358.4,562.6 L 361.3,562.8 L 364.2,563.1 L 367.1,563.3 L 370.0,563.6 L 373.0,563.9 L 375.9,564.2 L 378.8,564.5 L 381.7,564.9 L 384.6,565.2 L 387.6,565.5 L 390.5,565.9 L 393.4,566.2 L 396.3,566.5 L 399.2,566.9 L 402.2,567.2 L 405.1,567.5 L 408.0,567.9 L 410.9,568.2 L 413.8,568.5 L 416.8,568.7 L 419.7,569.0 L 422.6,569.2 L 425.5,569.5 L 428.4,569.7 L 431.4,569.9 L 434.3,570.0 L 437.2,570.2 L 440.1,570.3 L 443.0,570.4 L 446.0,570.5 L 448.9,570.5 L 451.8,570.6 L 454.7,570.6 L 457.6,570.6 L 460.6,570.5 L 463.5,570.4 L 466.4,570.4 L 469.3,570.2 L 472.2,570.1 L 475.2,570.0 L 478.1,569.8 L 481.0,569.6 L 483.9,569.4 L 486.8,569.2 L 489.8,569.0 L 492.7,568.8 L 495.6,568.5 L 498.5,568.3 L 501.4,568.1 L 504.4,567.8 L 507.3,567.5 L 510.2,567.3 L 513.1,567.0 L 516.0,566.8 L 519.0,566.5 L 521.9,566.3 L 524.8,566.1 L 527.7,565.9 L 530.6,565.6 L 533.6,565.4 L 536.5,565.2 L 539.4,565.1 L 542.3,564.9 L 545.2,564.8 L 548.2,564.6 L 551.1,564.5 L 554.0,564.4" fill="none" /><path d="M 262.0,571.2 L 264.9,571.0 L 267.8,570.9 L 270.8,570.8 L 273.7,570.7 L 276.6,570.6 L 279.5,570.5 L 282.4,570.4 L 285.4,570.4 L 288.3,570.4 L 291.2,570.4 L 294.1,570.4 L 297.0,570.5 L 300.0,570.6 L 302.9,570.7 L 305.8,570.8 L 308.7,571.0 L 311.6,571.1 L 314.6,571.3 L 317.5,571.6 L 320.4,571.8 L 323.3,572.1 L 326.2,572.3 L 329.2,572.6 L 332.1,573.0 L 335.0,573.3 L 337.9,573.6 L 340.8,574.0 L 343.8,574.3 L 346.7,574.7 L 349.6,575.1 L 352.5,575.5 L 355.4,575.9 L 358.4,576.2 L 361.3,576.6 L 364.2,577.0 L 367.1,577.4 L 370.0,577.7 L 373.0,578.1 L 375.9,578.4 L 378.8,578.7 L 381.7,579.0 L 384.6,579.3 L 387.6,579.5 L 390.5,579.8 L 393.4,580.0 L 396.3,580.2 L 399.2,580.3 L 402.2,580.5 L 405.1,580.6 L 408.0,580.7 L 410.9,580.7 L 413.8,580.8 L 416.8,580.8 L 419.7,580.8 L 422.6,580.7 L 425.5,580.6 L 428.4,580.5 L 431.4,580.4 L 434.3,580.3 L 437.2,580.1 L 440.1,579.9 L 443.0,579.7 L 446.0,579.5 L 448.9,579.2 L 451.8,579.0 L 454.7,578.7 L 457.6,578.4 L 460.6,578.2 L 463.5,577.9 L 466.4,577.6 L 469.3,577.3 L 472.2,577.0 L 475.2,576.7 L 478.1,576.4 L 481.0,576.1 L 483.9,575.8 L 486.8,575.6 L 489.8,575.3 L 492.7,575.0 L 495.6,574.8 L 498.5,574.6 L 501.4,574.4 L 504.4,574.2 L 507.3,574.0 L 510.2,573.8 L 513.1,573.7 L 516.0,573.5 L 519.0,573.4 L 521.9,573.3 L 524.8,573.2 L 527.7,573.2 L 530.6,573.1 L 533.6,573.1 L 536.5,573.0 L 539.4,573.0 L 542.3,573.0 L 545.2,573.0 L 548.2,573.0 L 551.1,573.1 L 554.0,573.1" fill="none" /><path d="M 262.0,579.7 L 264.9,579.8 L 267.8,580.0 L 270.8,580.1 L 273.7,580.3 L 276.6,580.5 L 279.5,580.8 L 282.4,581.0 L 285.4,581.3 L 288.3,581.6 L 291.2,582.0 L 294.1,582.3 L 297.0,582.7 L 300.0,583.1 L 302.9,583.5 L 305.8,583.9 L 308.7,584.3 L 311.6,584.7 L 314.6,585.1 L 317.5,585.5 L 320.4,586.0 L 323.3,586.4 L 326.2,586.8 L 329.2,587.2 L 332.1,587.6 L 335.0,588.0 L 337.9,588.4 L 340.8,588.7 L 343.8,589.0 L 346.7,589.4 L 349.6,589.7 L 352.5,589.9 L 355.4,590.2 L 358.4,590.4 L 361.3,590.6 L 364.2,590.7 L 367.1,590.8 L 370.0,590.9 L 373.0,591.0 L 375.9,591.0 L 378.8,591.1 L 381.7,591.0 L 384.6,591.0 L 387.6,590.9 L 390.5,590.8 L 393.4,590.6 L 396.3,590.5 L 399.2,590.3 L 402.2,590.1 L 405.1,589.8 L 408.0,589.6 L 410.9,589.3 L 413.8,589.0 L 416.8,588.7 L 419.7,588.4 L 422.6,588.1 L 425.5,587.7 L 428.4,587.4 L 431.4,587.0 L 434.3,586.7 L 437.2,586.4 L 440.1,586.0 L 443.0,585.7 L 446.0,585.4 L 448.9,585.0 L 451.8,584.7 L 454.7,584.4 L 457.6,584.1 L 460.6,583.9 L 463.5,583.6 L 466.4,583.4 L 469.3,583.2 L 472.2,583.0 L 475.2,582.8 L 478.1,582.6 L 481.0,582.5 L 483.9,582.4 L 486.8,582.3 L 489.8,582.2 L 492.7,582.1 L 495.6,582.1 L 498.5,582.0 L 501.4,582.0 L 504.4,582.0 L 507.3,582.0 L 510.2,582.0 L 513.1,582.1 L 516.0,582.1 L 519.0,582.2 L 521.9,582.2 L 524.8,582.3 L 527.7,582.4 L 530.6,582.4 L 533.6,582.5 L 536.5,582.6 L 539.4,582.7 L 542.3,582.7 L 545.2,582.8 L 548.2,582.8 L 551.1,582.9 L 554.0,582.9" fill="none" /><path d="M 262.0,592.5 L 264.9,593.0 L 267.8,593.4 L 270.8,593.9 L 273.7,594.3 L 276.6,594.8 L 279.5,595.3 L 282.4,595.7 L 285.4,596.2 L 288.3,596.7 L 291.2,597.1 L 294.1,597.6 L 297.0,598.0 L 300.0,598.4 L 302.9,598.8 L 305.8,599.2 L 308.7,599.5 L 311.6,599.8 L 314.6,600.1 L 317.5,600.4 L 320.4,600.6 L 323.3,600.9 L 326.2,601.0 L 329.2,601.2 L 332.1,601.3 L 335.0,601.4 L 337.9,601.4 L 340.8,601.4 L 343.8,601.4 L 346.7,601.3 L 349.6,601.2 L 352.5,601.1 L 355.4,600.9 L 358.4,600.7 L 361.3,600.5 L 364.2,600.3 L 367.1,600.0 L 370.0,599.7 L 373.0,599.4 L 375.9,599.1 L 378.8,598.7 L 381.7,598.4 L 384.6,598.0 L 387.6,597.6 L 390.5,597.2 L 393.4,596.8 L 396.3,596.4 L 399.2,596.0 L 402.2,595.6 L 405.1,595.2 L 408.0,594.9 L 410.9,594.5 L 413.8,594.1 L 416.8,593.8 L 419.7,593.5 L 422.6,593.2 L 425.5,592.9 L 428.4,592.6 L 431.4,592.3 L 434.3,592.1 L 437.2,591.9 L 440.1,591.7 L 443.0,591.5 L 446.0,591.4 L 448.9,591.3 L 451.8,591.2 L 454.7,591.1 L 457.6,591.0 L 460.6,591.0 L 463.5,590.9 L 466.4,590.9 L 469.3,591.0 L 472.2,591.0 L 475.2,591.0 L 478.1,591.1 L 481.0,591.1 L 483.9,591.2 L 486.8,591.3 L 489.8,591.4 L 492.7,591.5 L 495.6,591.6 L 498.5,591.7 L 501.4,591.7 L 504.4,591.8 L 507.3,591.9 L 510.2,592.0 L 513.1,592.1 L 516.0,592.2 L 519.0,592.2 L 521.9,592.3 L 524.8,592.3 L 527.7,592.3 L 530.6,592.4 L 533.6,592.4 L 536.5,592.4 L 539.4,592.4 L 542.3,592.4 L 545.2,592.3 L 548.2,592.3 L 551.1,592.3 L 554.0,592.2" fill="none" /><path d="M 262.0,608.5 L 264.9,608.9 L 267.8,609.3 L 270.8,609.7 L 273.7,610.1 L 276.6,610.4 L 279.5,610.7 L 282.4,611.0 L 285.4,611.2 L 288.3,611.4 L 291.2,611.6 L 294.1,611.7 L 297.0,611.8 L 300.0,611.8 L 302.9,611.8 L 305.8,611.8 L 308.7,611.7 L 311.6,611.6 L 314.6,611.5 L 317.5,611.3 L 320.4,611.1 L 323.3,610.8 L 326.2,610.6 L 329.2,610.2 L 332.1,609.9 L 335.0,609.6 L 337.9,609.2 L 340.8,608.8 L 343.8,608.4 L 346.7,608.0 L 349.6,607.5 L 352.5,607.1 L 355.4,606.6 L 358.4,606.2 L 361.3,605.7 L 364.2,605.3 L 367.1,604.8 L 370.0,604.4 L 373.0,604.0 L 375.9,603.6 L 378.8,603.2 L 381.7,602.8 L 384.6,602.4 L 387.6,602.1 L 390.5,601.7 L 393.4,601.4 L 396.3,601.2 L 399.2,600.9 L 402.2,600.7 L 405.1,600.5 L 408.0,600.3 L 410.9,600.2 L 413.8,600.1 L 416.8,600.0 L 419.7,599.9 L 422.6,599.8 L 425.5,599.8 L 428.4,599.8 L 431.4,599.8 L 434.3,599.8 L 437.2,599.9 L 440.1,600.0 L 443.0,600.0 L 446.0,600.1 L 448.9,600.2 L 451.8,600.3 L 454.7,600.4 L 457.6,600.6 L 460.6,600.7 L 463.5,600.8 L 466.4,600.9 L 469.3,601.0 L 472.2,601.1 L 475.2,601.2 L 478.1,601.3 L 481.0,601.4 L 483.9,601.5 L 486.8,601.6 L 489.8,601.6 L 492.7,601.7 L 495.6,601.7 L 498.5,601.7 L 501.4,601.8 L 504.4,601.8 L 507.3,601.7 L 510.2,601.7 L 513.1,601.7 L 516.0,601.7 L 519.0,601.6 L 521.9,601.6 L 524.8,601.5 L 527.7,601.4 L 530.6,601.4 L 533.6,601.3 L 536.5,601.3 L 539.4,601.2 L 542.3,601.1 L 545.2,601.1 L 548.2,601.0 L 551.1,601.0 L 554.0,601.0" fill="none" /><path d="M 262.0,622.3 L 264.9,622.3 L 267.8,622.3 L 270.8,622.2 L 273.7,622.1 L 276.6,621.9 L 279.5,621.7 L 282.4,621.5 L 285.4,621.2 L 288.3,620.9 L 291.2,620.6 L 294.1,620.2 L 297.0,619.8 L 300.0,619.4 L 302.9,618.9 L 305.8,618.4 L 308.7,618.0 L 311.6,617.5 L 314.6,617.0 L 317.5,616.5 L 320.4,615.9 L 323.3,615.4 L 326.2,614.9 L 329.2,614.4 L 332.1,613.9 L 335.0,613.4 L 337.9,612.9 L 340.8,612.5 L 343.8,612.0 L 346.7,611.6 L 349.6,611.2 L 352.5,610.9 L 355.4,610.5 L 358.4,610.2 L 361.3,609.9 L 364.2,609.6 L 367.1,609.4 L 370.0,609.2 L 373.0,609.0 L 375.9,608.9 L 378.8,608.8 L 381.7,608.7 L 384.6,608.6 L 387.6,608.6 L 390.5,608.6 L 393.4,608.6 L 396.3,608.6 L 399.2,608.7 L 402.2,608.8 L 405.1,608.9 L 408.0,609.0 L 410.9,609.1 L 413.8,609.2 L 416.8,609.3 L 419.7,609.5 L 422.6,609.6 L 425.5,609.8 L 428.4,609.9 L 431.4,610.1 L 434.3,610.2 L 437.2,610.3 L 440.1,610.5 L 443.0,610.6 L 446.0,610.7 L 448.9,610.8 L 451.8,610.9 L 454.7,611.0 L 457.6,611.0 L 460.6,611.1 L 463.5,611.1 L 466.4,611.1 L 469.3,611.2 L 472.2,611.2 L 475.2,611.1 L 478.1,611.1 L 481.0,611.1 L 483.9,611.1 L 486.8,611.0 L 489.8,610.9 L 492.7,610.9 L 495.6,610.8 L 498.5,610.8 L 501.4,610.7 L 504.4,610.7 L 507.3,610.6 L 510.2,610.6 L 513.1,610.5 L 516.0,610.5 L 519.0,610.5 L 521.9,610.5 L 524.8,610.5 L 527.7,610.5 L 530.6,610.6 L 533.6,610.6 L 536.5,610.7 L 539.4,610.8 L 542.3,610.9 L 545.2,611.1 L 548.2,611.3 L 551.1,611.5 L 554.0,611.7" fill="none" /><path d="M 262.0,629.6 L 264.9,629.1 L 267.8,628.6 L 270.8,628.0 L 273.7,627.5 L 276.6,626.9 L 279.5,626.3 L 282.4,625.7 L 285.4,625.1 L 288.3,624.6 L 291.2,624.0 L 294.1,623.4 L 297.0,622.9 L 300.0,622.3 L 302.9,621.8 L 305.8,621.3 L 308.7,620.8 L 311.6,620.4 L 314.6,619.9 L 317.5,619.5 L 320.4,619.2 L 323.3,618.8 L 326.2,618.5 L 329.2,618.3 L 332.1,618.0 L 335.0,617.8 L 337.9,617.7 L 340.8,617.5 L 343.8,617.4 L 346.7,617.3 L 349.6,617.3 L 352.5,617.3 L 355.4,617.3 L 358.4,617.3 L 361.3,617.4 L 364.2,617.5 L 367.1,617.6 L 370.0,617.7 L 373.0,617.9 L 375.9,618.0 L 378.8,618.2 L 381.7,618.3 L 384.6,618.5 L 387.6,618.7 L 390.5,618.9 L 393.4,619.1 L 396.3,619.2 L 399.2,619.4 L 402.2,619.6 L 405.1,619.7 L 408.0,619.9 L 410.9,620.0 L 413.8,620.1 L 416.8,620.2 L 419.7,620.3 L 422.6,620.4 L 425.5,620.5 L 428.4,620.5 L 431.4,620.6 L 434.3,620.6 L 437.2,620.6 L 440.1,620.6 L 443.0,620.6 L 446.0,620.6 L 448.9,620.5 L 451.8,620.5 L 454.7,620.4 L 457.6,620.4 L 460.6,620.3 L 463.5,620.3 L 466.4,620.2 L 469.3,620.2 L 472.2,620.1 L 475.2,620.1 L 478.1,620.0 L 481.0,620.0 L 483.9,620.0 L 486.8,620.0 L 489.8,620.0 L 492.7,620.1 L 495.6,620.1 L 498.5,620.2 L 501.4,620.3 L 504.4,620.4 L 507.3,620.6 L 510.2,620.7 L 513.1,620.9 L 516.0,621.1 L 519.0,621.4 L 521.9,621.6 L 524.8,621.9 L 527.7,622.2 L 530.6,622.5 L 533.6,622.9 L 536.5,623.2 L 539.4,623.6 L 542.3,624.0 L 545.2,624.3 L 548.2,624.7 L 551.1,625.1 L 554.0,625.5" fill="none" /><path d="M 262.0,631.7 L 264.9,631.1 L 267.8,630.5 L 270.8,630.0 L 273.7,629.5 L 276.6,629.0 L 279.5,628.5 L 282.4,628.1 L 285.4,627.7 L 288.3,627.4 L 291.2,627.0 L 294.1,626.8 L 297.0,626.5 L 300.0,626.3 L 302.9,626.2 L 305.8,626.0 L 308.7,626.0 L 311.6,625.9 L 314.6,625.9 L 317.5,625.9 L 320.4,625.9 L 323.3,626.0 L 326.2,626.1 L 329.2,626.2 L 332.1,626.4 L 335.0,626.5 L 337.9,626.7 L 340.8,626.9 L 343.8,627.1 L 346.7,627.3 L 349.6,627.5 L 352.5,627.8 L 355.4,628.0 L 358.4,628.2 L 361.3,628.4 L 364.2,628.6 L 367.1,628.8 L 370.0,629.0 L 373.0,629.2 L 375.9,629.4 L 378.8,629.5 L 381.7,629.6 L 384.6,629.8 L 387.6,629.9 L 390.5,629.9 L 393.4,630.0 L 396.3,630.1 L 399.2,630.1 L 402.2,630.1 L 405.1,630.1 L 408.0,630.1 L 410.9,630.1 L 413.8,630.0 L 416.8,630.0 L 419.7,630.0 L 422.6,629.9 L 425.5,629.9 L 428.4,629.8 L 431.4,629.7 L 434.3,629.7 L 437.2,629.6 L 440.1,629.6 L 443.0,629.6 L 446.0,629.6 L 448.9,629.6 L 451.8,629.6 L 454.7,629.6 L 457.6,629.7 L 460.6,629.7 L 463.5,629.8 L 466.4,629.9 L 469.3,630.1 L 472.2,630.2 L 475.2,630.4 L 478.1,630.6 L 481.0,630.9 L 483.9,631.1 L 486.8,631.4 L 489.8,631.7 L 492.7,632.0 L 495.6,632.4 L 498.5,632.7 L 501.4,633.1 L 504.4,633.5 L 507.3,633.9 L 510.2,634.3 L 513.1,634.7 L 516.0,635.1 L 519.0,635.5 L 521.9,635.9 L 524.8,636.3 L 527.7,636.7 L 530.6,637.1 L 533.6,637.5 L 536.5,637.8 L 539.4,638.1 L 542.3,638.4 L 545.2,638.7 L 548.2,638.9 L 551.1,639.1 L 554.0,639.3" fill="none" /><path d="M 262.0,634.9 L 264.9,634.7 L 267.8,634.6 L 270.8,634.5 L 273.7,634.4 L 276.6,634.4 L 279.5,634.4 L 282.4,634.5 L 285.4,634.5 L 288.3,634.7 L 291.2,634.8 L 294.1,635.0 L 297.0,635.1 L 300.0,635.4 L 302.9,635.6 L 305.8,635.8 L 308.7,636.1 L 311.6,636.3 L 314.6,636.6 L 317.5,636.9 L 320.4,637.1 L 323.3,637.4 L 326.2,637.6 L 329.2,637.9 L 332.1,638.1 L 335.0,638.3 L 337.9,638.5 L 340.8,638.7 L 343.8,638.9 L 346.7,639.1 L 349.6,639.2 L 352.5,639.3 L 355.4,639.4 L 358.4,639.5 L 361.3,639.6 L 364.2,639.6 L 367.1,639.7 L 370.0,639.7 L 373.0,639.7 L 375.9,639.6 L 378.8,639.6 L 381.7,639.6 L 384.6,639.5 L 387.6,639.5 L 390.5,639.4 L 393.4,639.4 L 396.3,639.3 L 399.2,639.3 L 402.2,639.2 L 405.1,639.2 L 408.0,639.2 L 410.9,639.1 L 413.8,639.2 L 416.8,639.2 L 419.7,639.2 L 422.6,639.3 L 425.5,639.4 L 428.4,639.5 L 431.4,639.6 L 434.3,639.7 L 437.2,639.9 L 440.1,640.1 L 443.0,640.3 L 446.0,640.6 L 448.9,640.9 L 451.8,641.2 L 454.7,641.5 L 457.6,641.8 L 460.6,642.2 L 463.5,642.6 L 466.4,643.0 L 469.3,643.4 L 472.2,643.8 L 475.2,644.2 L 478.1,644.7 L 481.0,645.1 L 483.9,645.5 L 486.8,645.9 L 489.8,646.3 L 492.7,646.7 L 495.6,647.1 L 498.5,647.5 L 501.4,647.8 L 504.4,648.1 L 507.3,648.4 L 510.2,648.6 L 513.1,648.8 L 516.0,649.0 L 519.0,649.2 L 521.9,649.2 L 524.8,649.3 L 527.7,649.3 L 530.6,649.2 L 533.6,649.2 L 536.5,649.0 L 539.4,648.8 L 542.3,648.6 L 545.2,648.3 L 548.2,648.0 L 551.1,647.6 L 554.0,647.1" fill="none" /><path d="M 262.0,643.9 L 264.9,644.2 L 267.8,644.4 L 270.8,644.7 L 273.7,645.0 L 276.6,645.3 L 279.5,645.6 L 282.4,646.0 L 285.4,646.3 L 288.3,646.6 L 291.2,646.9 L 294.1,647.2 L 297.0,647.4 L 300.0,647.7 L 302.9,647.9 L 305.8,648.2 L 308.7,648.4 L 311.6,648.6 L 314.6,648.7 L 317.5,648.9 L 320.4,649.0 L 323.3,649.1 L 326.2,649.2 L 329.2,649.2 L 332.1,649.2 L 335.0,649.3 L 337.9,649.3 L 340.8,649.3 L 343.8,649.2 L 346.7,649.2 L 349.6,649.1 L 352.5,649.1 L 355.4,649.0 L 358.4,649.0 L 361.3,648.9 L 364.2,648.9 L 367.1,648.8 L 370.0,648.8 L 373.0,648.8 L 375.9,648.8 L 378.8,648.8 L 381.7,648.8 L 384.6,648.8 L 387.6,648.9 L 390.5,649.0 L 393.4,649.1 L 396.3,649.3 L 399.2,649.4 L 402.2,649.6 L 405.1,649.8 L 408.0,650.1 L 410.9,650.3 L 413.8,650.6 L 416.8,651.0 L 419.7,651.3 L 422.6,651.7 L 425.5,652.1 L 428.4,652.5 L 431.4,652.9 L 434.3,653.3 L 437.2,653.7 L 440.1,654.2 L 443.0,654.6 L 446.0,655.0 L 448.9,655.5 L 451.8,655.9 L 454.7,656.3 L 457.6,656.7 L 460.6,657.1 L 463.5,657.4 L 466.4,657.8 L 469.3,658.0 L 472.2,658.3 L 475.2,658.5 L 478.1,658.7 L 481.0,658.9 L 483.9,659.0 L 486.8,659.0 L 489.8,659.0 L 492.7,659.0 L 495.6,658.9 L 498.5,658.7 L 501.4,658.5 L 504.4,658.3 L 507.3,658.0 L 510.2,657.6 L 513.1,657.2 L 516.0,656.8 L 519.0,656.3 L 521.9,655.7 L 524.8,655.1 L 527.7,654.5 L 530.6,653.8 L 533.6,653.2 L 536.5,652.4 L 539.4,651.7 L 542.3,650.9 L 545.2,650.1 L 548.2,649.3 L 551.1,648.5 L 554.0,647.7" fill="none" /><path d="M 262.0,656.8 L 264.9,657.1 L 267.8,657.4 L 270.8,657.6 L 273.7,657.9 L 276.6,658.1 L 279.5,658.3 L 282.4,658.4 L 285.4,658.6 L 288.3,658.7 L 291.2,658.8 L 294.1,658.8 L 297.0,658.9 L 300.0,658.9 L 302.9,658.9 L 305.8,658.9 L 308.7,658.9 L 311.6,658.8 L 314.6,658.8 L 317.5,658.7 L 320.4,658.7 L 323.3,658.6 L 326.2,658.6 L 329.2,658.5 L 332.1,658.5 L 335.0,658.4 L 337.9,658.4 L 340.8,658.4 L 343.8,658.4 L 346.7,658.4 L 349.6,658.5 L 352.5,658.6 L 355.4,658.6 L 358.4,658.8 L 361.3,658.9 L 364.2,659.1 L 367.1,659.3 L 370.0,659.5 L 373.0,659.8 L 375.9,660.1 L 378.8,660.4 L 381.7,660.7 L 384.6,661.1 L 387.6,661.5 L 390.5,661.9 L 393.4,662.3 L 396.3,662.7 L 399.2,663.2 L 402.2,663.6 L 405.1,664.1 L 408.0,664.5 L 410.9,664.9 L 413.8,665.4 L 416.8,665.8 L 419.7,666.2 L 422.6,666.6 L 425.5,667.0 L 428.4,667.3 L 431.4,667.6 L 434.3,667.9 L 437.2,668.2 L 440.1,668.4 L 443.0,668.5 L 446.0,668.6 L 448.9,668.7 L 451.8,668.7 L 454.7,668.6 L 457.6,668.5 L 460.6,668.4 L 463.5,668.2 L 466.4,667.9 L 469.3,667.6 L 472.2,667.2 L 475.2,666.8 L 478.1,666.3 L 481.0,665.8 L 483.9,665.2 L 486.8,664.6 L 489.8,663.9 L 492.7,663.2 L 495.6,662.5 L 498.5,661.7 L 501.4,660.9 L 504.4,660.1 L 507.3,659.3 L 510.2,658.4 L 513.1,657.6 L 516.0,656.7 L 519.0,655.8 L 521.9,655.0 L 524.8,654.2 L 527.7,653.3 L 530.6,652.5 L 533.6,651.8 L 536.5,651.0 L 539.4,650.3 L 542.3,649.7 L 545.2,649.1 L 548.2,648.5 L 551.1,648.0 L 554.0,647.5" fill="none" /><path d="M 262.0,668.6 L 264.9,668.6 L 267.8,668.6 L 270.8,668.6 L 273.7,668.6 L 276.6,668.5 L 279.5,668.5 L 282.4,668.4 L 285.4,668.4 L 288.3,668.3 L 291.2,668.2 L 294.1,668.2 L 297.0,668.1 L 300.0,668.1 L 302.9,668.0 L 305.8,668.0 L 308.7,668.0 L 311.6,668.1 L 314.6,668.1 L 317.5,668.2 L 320.4,668.3 L 323.3,668.4 L 326.2,668.6 L 329.2,668.8 L 332.1,669.0 L 335.0,669.2 L 337.9,669.5 L 340.8,669.8 L 343.8,670.1 L 346.7,670.5 L 349.6,670.9 L 352.5,671.3 L 355.4,671.7 L 358.4,672.1 L 361.3,672.5 L 364.2,673.0 L 367.1,673.4 L 370.0,673.9 L 373.0,674.4 L 375.9,674.8 L 378.8,675.3 L 381.7,675.7 L 384.6,676.1 L 387.6,676.5 L 390.5,676.8 L 393.4,677.1 L 396.3,677.4 L 399.2,677.7 L 402.2,677.9 L 405.1,678.1 L 408.0,678.2 L 410.9,678.3 L 413.8,678.3 L 416.8,678.2 L 419.7,678.1 L 422.6,678.0 L 425.5,677.8 L 428.4,677.5 L 431.4,677.2 L 434.3,676.8 L 437.2,676.3 L 440.1,675.8 L 443.0,675.3 L 446.0,674.7 L 448.9,674.0 L 451.8,673.3 L 454.7,672.6 L 457.6,671.8 L 460.6,671.0 L 463.5,670.1 L 466.4,669.3 L 469.3,668.4 L 472.2,667.5 L 475.2,666.6 L 478.1,665.6 L 481.0,664.7 L 483.9,663.8 L 486.8,662.9 L 489.8,662.0 L 492.7,661.2 L 495.6,660.4 L 498.5,659.6 L 501.4,658.8 L 504.4,658.1 L 507.3,657.5 L 510.2,656.9 L 513.1,656.3 L 516.0,655.8 L 519.0,655.4 L 521.9,655.1 L 524.8,654.8 L 527.7,654.6 L 530.6,654.4 L 533.6,654.3 L 536.5,654.3 L 539.4,654.4 L 542.3,654.6 L 545.2,654.8 L 548.2,655.1 L 551.1,655.4 L 554.0,655.9" fill="none" /><path d="M 262.0,677.8 L 264.9,677.7 L 267.8,677.7 L 270.8,677.7 L 273.7,677.7 L 276.6,677.7 L 279.5,677.7 L 282.4,677.8 L 285.4,677.9 L 288.3,678.1 L 291.2,678.2 L 294.1,678.4 L 297.0,678.6 L 300.0,678.9 L 302.9,679.2 L 305.8,679.5 L 308.7,679.8 L 311.6,680.2 L 314.6,680.6 L 317.5,681.0 L 320.4,681.4 L 323.3,681.9 L 326.2,682.3 L 329.2,682.8 L 332.1,683.2 L 335.0,683.7 L 337.9,684.2 L 340.8,684.6 L 343.8,685.0 L 346.7,685.5 L 349.6,685.9 L 352.5,686.2 L 355.4,686.6 L 358.4,686.9 L 361.3,687.1 L 364.2,687.4 L 367.1,687.6 L 370.0,687.7 L 373.0,687.8 L 375.9,687.8 L 378.8,687.7 L 381.7,687.7 L 384.6,687.5 L 387.6,687.3 L 390.5,687.0 L 393.4,686.7 L 396.3,686.3 L 399.2,685.8 L 402.2,685.3 L 405.1,684.7 L 408.0,684.1 L 410.9,683.4 L 413.8,682.7 L 416.8,681.9 L 419.7,681.1 L 422.6,680.2 L 425.5,679.3 L 428.4,678.4 L 431.4,677.5 L 434.3,676.5 L 437.2,675.5 L 440.1,674.6 L 443.0,673.6 L 446.0,672.6 L 448.9,671.7 L 451.8,670.7 L 454.7,669.8 L 457.6,668.9 L 460.6,668.1 L 463.5,667.3 L 466.4,666.5 L 469.3,665.8 L 472.2,665.2 L 475.2,664.6 L 478.1,664.1 L 481.0,663.6 L 483.9,663.3 L 486.8,663.0 L 489.8,662.7 L 492.7,662.6 L 495.6,662.5 L 498.5,662.5 L 501.4,662.6 L 504.4,662.8 L 507.3,663.0 L 510.2,663.4 L 513.1,663.8 L 516.0,664.2 L 519.0,664.8 L 521.9,665.4 L 524.8,666.1 L 527.7,666.8 L 530.6,667.6 L 533.6,668.4 L 536.5,669.3 L 539.4,670.2 L 542.3,671.1 L 545.2,672.1 L 548.2,673.1 L 551.1,674.1 L 554.0,675.1" fill="none" /><path d="M 262.0,688.3 L 264.9,688.5 L 267.8,688.8 L 270.8,689.1 L 273.7,689.5 L 276.6,689.8 L 279.5,690.2 L 282.4,690.7 L 285.4,691.1 L 288.3,691.5 L 291.2,692.0 L 294.1,692.5 L 297.0,692.9 L 300.0,693.4 L 302.9,693.9 L 305.8,694.3 L 308.7,694.7 L 311.6,695.2 L 314.6,695.5 L 317.5,695.9 L 320.4,696.2 L 323.3,696.5 L 326.2,696.7 L 329.2,696.9 L 332.1,697.1 L 335.0,697.2 L 337.9,697.2 L 340.8,697.2 L 343.8,697.1 L 346.7,696.9 L 349.6,696.7 L 352.5,696.4 L 355.4,696.1 L 358.4,695.7 L 361.3,695.2 L 364.2,694.7 L 367.1,694.1 L 370.0,693.4 L 373.0,692.7 L 375.9,692.0 L 378.8,691.1 L 381.7,690.3 L 384.6,689.4 L 387.6,688.5 L 390.5,687.5 L 393.4,686.5 L 396.3,685.5 L 399.2,684.5 L 402.2,683.4 L 405.1,682.4 L 408.0,681.4 L 410.9,680.4 L 413.8,679.4 L 416.8,678.4 L 419.7,677.5 L 422.6,676.6 L 425.5,675.8 L 428.4,675.0 L 431.4,674.2 L 434.3,673.5 L 437.2,672.9 L 440.1,672.4 L 443.0,671.9 L 446.0,671.5 L 448.9,671.2 L 451.8,670.9 L 454.7,670.8 L 457.6,670.7 L 460.6,670.7 L 463.5,670.9 L 466.4,671.0 L 469.3,671.3 L 472.2,671.7 L 475.2,672.1 L 478.1,672.6 L 481.0,673.2 L 483.9,673.9 L 486.8,674.7 L 489.8,675.5 L 492.7,676.3 L 495.6,677.2 L 498.5,678.2 L 501.4,679.2 L 504.4,680.2 L 507.3,681.3 L 510.2,682.4 L 513.1,683.5 L 516.0,684.7 L 519.0,685.8 L 521.9,686.9 L 524.8,688.0 L 527.7,689.1 L 530.6,690.2 L 533.6,691.3 L 536.5,692.3 L 539.4,693.3 L 542.3,694.3 L 545.2,695.2 L 548.2,696.1 L 551.1,696.9 L 554.0,697.6" fill="none" /><path d="M 262.0,702.6 L 264.9,703.0 L 267.8,703.5 L 270.8,703.9 L 273.7,704.3 L 276.6,704.7 L 279.5,705.1 L 282.4,705.5 L 285.4,705.7 L 288.3,706.0 L 291.2,706.2 L 294.1,706.4 L 297.0,706.5 L 300.0,706.5 L 302.9,706.5 L 305.8,706.4 L 308.7,706.3 L 311.6,706.1 L 314.6,705.8 L 317.5,705.5 L 320.4,705.0 L 323.3,704.6 L 326.2,704.0 L 329.2,703.4 L 332.1,702.7 L 335.0,702.0 L 337.9,701.2 L 340.8,700.4 L 343.8,699.5 L 346.7,698.5 L 349.6,697.6 L 352.5,696.6 L 355.4,695.5 L 358.4,694.5 L 361.3,693.4 L 364.2,692.3 L 367.1,691.3 L 370.0,690.2 L 373.0,689.1 L 375.9,688.1 L 378.8,687.1 L 381.7,686.1 L 384.6,685.1 L 387.6,684.2 L 390.5,683.4 L 393.4,682.6 L 396.3,681.9 L 399.2,681.2 L 402.2,680.7 L 405.1,680.2 L 408.0,679.7 L 410.9,679.4 L 413.8,679.2 L 416.8,679.0 L 419.7,678.9 L 422.6,679.0 L 425.5,679.1 L 428.4,679.3 L 431.4,679.6 L 434.3,680.0 L 437.2,680.5 L 440.1,681.1 L 443.0,681.8 L 446.0,682.5 L 448.9,683.3 L 451.8,684.2 L 454.7,685.2 L 457.6,686.2 L 460.6,687.2 L 463.5,688.3 L 466.4,689.5 L 469.3,690.7 L 472.2,691.9 L 475.2,693.1 L 478.1,694.4 L 481.0,695.6 L 483.9,696.9 L 486.8,698.1 L 489.8,699.3 L 492.7,700.5 L 495.6,701.7 L 498.5,702.9 L 501.4,704.0 L 504.4,705.0 L 507.3,706.1 L 510.2,707.0 L 513.1,707.9 L 516.0,708.8 L 519.0,709.6 L 521.9,710.3 L 524.8,710.9 L 527.7,711.5 L 530.6,712.0 L 533.6,712.5 L 536.5,712.8 L 539.4,713.1 L 542.3,713.4 L 545.2,713.5 L 548.2,713.6 L 551.1,713.7 L 554.0,713.7" fill="none" /><path d="M 262.0,715.7 L 264.9,715.8 L 267.8,715.7 L 270.8,715.6 L 273.7,715.4 L 276.6,715.1 L 279.5,714.7 L 282.4,714.3 L 285.4,713.9 L 288.3,713.3 L 291.2,712.7 L 294.1,712.0 L 297.0,711.2 L 300.0,710.4 L 302.9,709.6 L 305.8,708.6 L 308.7,707.7 L 311.6,706.7 L 314.6,705.6 L 317.5,704.6 L 320.4,703.5 L 323.3,702.3 L 326.2,701.2 L 329.2,700.1 L 332.1,699.0 L 335.0,697.9 L 337.9,696.8 L 340.8,695.7 L 343.8,694.7 L 346.7,693.7 L 349.6,692.7 L 352.5,691.9 L 355.4,691.0 L 358.4,690.3 L 361.3,689.6 L 364.2,689.0 L 367.1,688.5 L 370.0,688.0 L 373.0,687.7 L 375.9,687.4 L 378.8,687.3 L 381.7,687.2 L 384.6,687.3 L 387.6,687.4 L 390.5,687.7 L 393.4,688.0 L 396.3,688.5 L 399.2,689.0 L 402.2,689.6 L 405.1,690.4 L 408.0,691.2 L 410.9,692.1 L 413.8,693.0 L 416.8,694.1 L 419.7,695.2 L 422.6,696.3 L 425.5,697.6 L 428.4,698.8 L 431.4,700.1 L 434.3,701.5 L 437.2,702.8 L 440.1,704.2 L 443.0,705.6 L 446.0,706.9 L 448.9,708.3 L 451.8,709.7 L 454.7,711.0 L 457.6,712.3 L 460.6,713.6 L 463.5,714.8 L 466.4,716.0 L 469.3,717.1 L 472.2,718.2 L 475.2,719.2 L 478.1,720.1 L 481.0,721.0 L 483.9,721.8 L 486.8,722.5 L 489.8,723.2 L 492.7,723.8 L 495.6,724.2 L 498.5,724.7 L 501.4,725.0 L 504.4,725.3 L 507.3,725.4 L 510.2,725.5 L 513.1,725.6 L 516.0,725.6 L 519.0,725.5 L 521.9,725.3 L 524.8,725.1 L 527.7,724.9 L 530.6,724.6 L 533.6,724.2 L 536.5,723.8 L 539.4,723.4 L 542.3,723.0 L 545.2,722.5 L 548.2,722.1 L 551.1,721.6 L 554.0,721.1" fill="none" /><path d="M 262.0,719.6 L 264.9,718.7 L 267.8,717.8 L 270.8,716.8 L 273.7,715.8 L 276.6,714.7 L 279.5,713.6 L 282.4,712.5 L 285.4,711.3 L 288.3,710.1 L 291.2,709.0 L 294.1,707.8 L 297.0,706.6 L 300.0,705.5 L 302.9,704.4 L 305.8,703.3 L 308.7,702.3 L 311.6,701.3 L 314.6,700.4 L 317.5,699.5 L 320.4,698.7 L 323.3,698.0 L 326.2,697.4 L 329.2,696.8 L 332.1,696.4 L 335.0,696.0 L 337.9,695.8 L 340.8,695.6 L 343.8,695.6 L 346.7,695.6 L 349.6,695.8 L 352.5,696.1 L 355.4,696.5 L 358.4,697.0 L 361.3,697.5 L 364.2,698.2 L 367.1,699.0 L 370.0,699.9 L 373.0,700.9 L 375.9,702.0 L 378.8,703.1 L 381.7,704.3 L 384.6,705.6 L 387.6,706.9 L 390.5,708.3 L 393.4,709.7 L 396.3,711.2 L 399.2,712.6 L 402.2,714.1 L 405.1,715.7 L 408.0,717.2 L 410.9,718.7 L 413.8,720.2 L 416.8,721.6 L 419.7,723.1 L 422.6,724.5 L 425.5,725.8 L 428.4,727.1 L 431.4,728.4 L 434.3,729.6 L 437.2,730.7 L 440.1,731.7 L 443.0,732.7 L 446.0,733.6 L 448.9,734.4 L 451.8,735.1 L 454.7,735.7 L 457.6,736.3 L 460.6,736.7 L 463.5,737.1 L 466.4,737.4 L 469.3,737.6 L 472.2,737.7 L 475.2,737.7 L 478.1,737.7 L 481.0,737.6 L 483.9,737.4 L 486.8,737.2 L 489.8,736.8 L 492.7,736.5 L 495.6,736.1 L 498.5,735.6 L 501.4,735.2 L 504.4,734.6 L 507.3,734.1 L 510.2,733.5 L 513.1,733.0 L 516.0,732.4 L 519.0,731.8 L 521.9,731.2 L 524.8,730.7 L 527.7,730.1 L 530.6,729.5 L 533.6,729.0 L 536.5,728.5 L 539.4,728.0 L 542.3,727.6 L 545.2,727.2 L 548.2,726.8 L 551.1,726.4 L 554.0,726.1" fill="none" /><path d="M 289.9,437.8 L 290.0,443.2 L 287.8,448.7 L 286.0,454.1 L 292.1,459.5 L 291.3,464.9 L 286.8,470.3 L 289.0,475.7 L 289.4,481.2 L 290.0,486.6 L 290.5,492.0" fill="none" stroke-width="1.38" /><path d="M 341.9,462.5 L 341.6,465.6 L 340.8,468.6 L 339.1,471.7 L 343.9,474.8 L 343.5,477.9 L 341.9,480.9 L 344.4,484.0 L 341.7,487.1 L 339.4,490.1 L 343.9,493.2" fill="none" stroke-width="1.38" /><path d="M 384.6,454.5 L 387.3,457.2 L 387.3,460.0 L 384.7,462.7 L 382.4,465.4 L 385.7,468.2 L 387.6,470.9 L 387.3,473.7 L 386.0,476.4 L 387.6,479.1 L 383.4,481.9" fill="none" stroke-width="1.38" /><path d="M 423.5,464.5 L 423.6,468.8 L 426.8,473.2 L 425.5,477.6 L 428.4,481.9 L 429.8,486.3 L 423.1,490.7 L 425.5,495.0 L 424.8,499.4 L 425.5,503.8 L 429.1,508.1" fill="none" stroke-width="1.38" /><path d="M 477.2,446.2 L 479.4,450.0 L 481.0,453.8 L 477.6,457.6 L 481.6,461.4 L 480.6,465.2 L 480.6,469.1 L 481.6,472.9 L 481.8,476.7 L 480.6,480.5 L 480.5,484.3" fill="none" stroke-width="1.38" /><path d="M 528.0,447.7 L 528.3,451.7 L 529.9,455.8 L 533.1,459.8 L 528.8,463.8 L 533.0,467.8 L 533.9,471.8 L 531.4,475.8 L 528.3,479.8 L 531.9,483.8 L 527.5,487.8" fill="none" stroke-width="1.38" /></g></svg>