<?xml version='1.0' encoding='utf-8'?>
<svg xmlns="http://www.w3.org/2000/svg" xmlns:inkscape="http://www.inkscape.org/namespaces/inkscape" viewBox="204 228 408 600"><style>*{vector-effect:non-scaling-stroke}</style><g id="01_Black_Frame" inkscape:groupmode="layer" inkscape:label="01_Black_Frame" stroke="#1A1A1A" fill="none" stroke-width="0.875" stroke-linecap="round" stroke-linejoin="round"><path d="M 250.0,264.0 L 566.0,264.0 Q 576.0,264.0 576.0,274.0 L 576.0,782.0 Q 576.0,792.0 566.0,792.0 L 250.0,792.0 Q 240.0,792.0 240.0,782.0 L 240.0,274.0 Q 240.0,264.0 250.0,264.0" /><path d="M 253.0,270.0 L 563.0,270.0 Q 570.0,270.0 570.0,277.0 L 570.0,779.0 Q 570.0,786.0 563.0,786.0 L 253.0,786.0 Q 246.0,786.0 246.0,779.0 L 246.0,277.0 Q 246.0,270.0 253.0,270.0" /><line x1="259.0" y1="280.0" x2="263.0" y2="280.0" /><line x1="258.1" y1="282.1" x2="260.9" y2="284.9" /><line x1="256.0" y1="283.0" x2="256.0" y2="287.0" /><line x1="253.9" y1="282.1" x2="251.1" y2="284.9" /><line x1="253.0" y1="280.0" x2="249.0" y2="280.0" /><line x1="253.9" y1="277.9" x2="251.1" y2="275.1" /><line x1="256.0" y1="277.0" x2="256.0" y2="273.0" /><line x1="258.1" y1="277.9" x2="260.9" y2="275.1" /><line x1="563.0" y1="280.0" x2="567.0" y2="280.0" /><line x1="562.1" y1="282.1" x2="564.9" y2="284.9" /><line x1="560.0" y1="283.0" x2="560.0" y2="287.0" /><line x1="557.9" y1="282.1" x2="555.1" y2="284.9" /><line x1="557.0" y1="280.0" x2="553.0" y2="280.0" /><line x1="557.9" y1="277.9" x2="555.1" y2="275.1" /><line x1="560.0" y1="277.0" x2="560.0" y2="273.0" /><line x1="562.1" y1="277.9" x2="564.9" y2="275.1" /><line x1="259.0" y1="776.0" x2="263.0" y2="776.0" /><line x1="258.1" y1="778.1" x2="260.9" y2="780.9" /><line x1="256.0" y1="779.0" x2="256.0" y2="783.0" /><line x1="253.9" y1="778.1" x2="251.1" y2="780.9" /><line x1="253.0" y1="776.0" x2="249.0" y2="776.0" /><line x1="253.9" y1="773.9" x2="251.1" y2="771.1" /><line x1="256.0" y1="773.0" x2="256.0" y2="769.0" /><line x1="258.1" y1="773.9" x2="260.9" y2="771.1" /><line x1="563.0" y1="776.0" x2="567.0" y2="776.0" /><line x1="562.1" y1="778.1" x2="564.9" y2="780.9" /><line x1="560.0" y1="779.0" x2="560.0" y2="783.0" /><line x1="557.9" y1="778.1" x2="555.1" y2="780.9" /><line x1="557.0" y1="776.0" x2="553.0" y2="776.0" /><line x1="557.9" y1="773.9" x2="555.1" y2="771.1" /><line x1="560.0" y1="773.0" x2="560.0" y2="769.0" /><line x1="562.1" y1="773.9" x2="564.9" y2="771.1" /><polyline points="403.88,283.20 402.12,282.00 401.12,282.00 399.38,283.60 399.38,288.40 401.12,290.00 402.12,290.00 403.88,288.80" /><polyline points="407.62,282.00 407.62,290.00" /><polyline points="410.88,282.00 413.38,290.00 415.88,282.00" /><polyline points="363.15,297.00 369.65,297.00" /><polyline points="366.40,297.00 366.40,307.00" /><polyline points="370.62,297.00 370.62,307.00" /><polyline points="377.12,297.00 377.12,307.00" /><polyline points="370.62,301.80 377.12,301.80" /><polyline points="383.62,297.00 378.10,297.00 378.10,301.80 382.00,301.80" /><polyline points="378.10,301.80 378.10,307.00 383.62,307.00" /><polyline points="398.90,298.50 396.62,297.00 395.32,297.00 393.05,299.00 393.05,305.00 395.32,307.00 396.62,307.00 398.90,305.50" /><polyline points="400.52,307.00 400.52,297.00 404.75,297.00 406.38,298.50 406.38,300.20 404.75,301.50 400.52,301.50 406.38,307.00" /><polyline points="411.25,297.00 408.65,298.00 408.00,300.00 408.00,304.00 408.65,306.00 411.25,307.00 413.85,306.00 414.50,304.00 414.50,300.00 413.85,298.00 411.25,297.00" /><polyline points="421.00,298.00 419.37,297.00 417.42,297.00 415.80,298.50 415.47,300.00 416.45,301.20 418.72,302.00 421.00,302.80 421.97,304.00 421.65,305.50 420.02,307.00 417.75,307.00 416.12,306.00" /><polyline points="428.47,298.00 426.85,297.00 424.90,297.00 423.27,298.50 422.95,300.00 423.93,301.20 426.20,302.00 428.47,302.80 429.45,304.00 429.12,305.50 427.50,307.00 425.22,307.00 423.60,306.00" /><polyline points="433.67,297.00 433.67,307.00" /><polyline points="437.90,307.00 437.90,297.00 444.40,307.00 444.40,297.00" /><polyline points="451.23,298.50 448.95,297.00 447.65,297.00 445.38,299.00 445.38,305.00 447.65,307.00 448.95,307.00 451.23,305.50 451.23,302.00 448.62,302.00" /><line x1="270.0" y1="312.0" x2="546.0" y2="312.0" /><line x1="270.0" y1="732.0" x2="546.0" y2="732.0" /><polyline points="374.19,745.25 374.19,740.75 376.01,740.75 376.57,741.29 376.57,742.01 376.01,742.55 374.19,742.55 376.01,742.55 376.57,743.09 376.57,744.71 376.01,745.25 374.19,745.25" /><polyline points="377.41,740.75 377.41,745.25 379.79,745.25" /><polyline points="382.03,740.75 380.91,741.20 380.63,742.10 380.63,743.90 380.91,744.80 382.03,745.25 383.15,744.80 383.43,743.90 383.43,742.10 383.15,741.20 382.03,740.75" /><polyline points="386.37,741.42 385.39,740.75 384.83,740.75 383.85,741.65 383.85,744.35 384.83,745.25 385.39,745.25 386.37,744.58" /><polyline points="387.07,740.75 387.07,745.25" /><polyline points="389.59,740.75 387.07,743.00 389.59,745.25" /><polyline points="390.29,745.25 391.69,740.75 393.09,745.25" /><polyline points="390.79,743.67 392.59,743.67" /><polyline points="393.51,745.25 393.51,740.75 395.05,740.75 396.03,741.88 396.03,744.12 395.05,745.25 393.51,745.25" /><polyline points="399.11,740.75 396.73,740.75 396.73,742.91 398.41,742.91" /><polyline points="396.73,742.91 396.73,745.25 399.11,745.25" /><polyline points="406.39,745.25 406.39,740.75 408.21,740.75 408.77,741.29 408.77,742.01 408.21,742.55 406.39,742.55 408.21,742.55 408.77,743.09 408.77,744.71 408.21,745.25 406.39,745.25" /><polyline points="409.61,740.75 409.61,745.25 411.99,745.25" /><polyline points="414.23,740.75 413.11,741.20 412.83,742.10 412.83,743.90 413.11,744.80 414.23,745.25 415.35,744.80 415.63,743.90 415.63,742.10 415.35,741.20 414.23,740.75" /><polyline points="417.45,740.75 416.33,741.20 416.05,742.10 416.05,743.90 416.33,744.80 417.45,745.25 418.57,744.80 418.85,743.90 418.85,742.10 418.57,741.20 417.45,740.75" /><polyline points="419.27,745.25 419.27,740.75 420.81,740.75 421.79,741.88 421.79,744.12 420.81,745.25 419.27,745.25" /><polyline points="431.31,740.75 428.93,740.75 428.93,742.91 430.61,742.91" /><polyline points="428.93,742.91 428.93,745.25" /><polyline points="432.15,745.25 433.55,740.75 434.95,745.25" /><polyline points="432.65,743.67 434.45,743.67" /><polyline points="435.37,740.75 435.37,745.25 437.75,745.25" /><polyline points="438.59,740.75 438.59,745.25 440.97,745.25" /><polyline points="344.75,753.25 349.75,753.25" /><polyline points="347.25,753.25 347.25,760.75" /><polyline points="350.50,753.25 350.50,760.75" /><polyline points="355.50,753.25 355.50,760.75" /><polyline points="350.50,756.85 355.50,756.85" /><polyline points="360.50,753.25 356.25,753.25 356.25,756.85 359.25,756.85" /><polyline points="356.25,756.85 356.25,760.75 360.50,760.75" /><polyline points="372.00,754.00 370.75,753.25 369.25,753.25 368.00,754.38 367.75,755.50 368.50,756.40 370.25,757.00 372.00,757.60 372.75,758.50 372.50,759.62 371.25,760.75 369.50,760.75 368.25,760.00" /><polyline points="373.50,753.25 373.50,760.75" /><polyline points="378.50,753.25 378.50,760.75" /><polyline points="373.50,756.85 378.50,756.85" /><polyline points="381.75,753.25 381.75,760.75" /><polyline points="385.00,760.75 385.00,753.25 388.25,753.25 389.50,754.38 389.50,755.65 388.25,756.62 385.00,756.62" /><polyline points="395.00,754.00 393.75,753.25 392.25,753.25 391.00,754.38 390.75,755.50 391.50,756.40 393.25,757.00 395.00,757.60 395.75,758.50 395.50,759.62 394.25,760.75 392.50,760.75 391.25,760.00" /><polyline points="406.75,754.38 405.00,753.25 404.00,753.25 402.25,754.75 402.25,759.25 404.00,760.75 405.00,760.75 406.75,759.62" /><polyline points="408.00,760.75 408.00,753.25 411.25,753.25 412.50,754.38 412.50,755.65 411.25,756.62 408.00,756.62 412.50,760.75" /><polyline points="416.25,753.25 414.25,754.00 413.75,755.50 413.75,758.50 414.25,760.00 416.25,760.75 418.25,760.00 418.75,758.50 418.75,755.50 418.25,754.00 416.25,753.25" /><polyline points="423.75,754.00 422.50,753.25 421.00,753.25 419.75,754.38 419.50,755.50 420.25,756.40 422.00,757.00 423.75,757.60 424.50,758.50 424.25,759.62 423.00,760.75 421.25,760.75 420.00,760.00" /><polyline points="429.50,754.00 428.25,753.25 426.75,753.25 425.50,754.38 425.25,755.50 426.00,756.40 427.75,757.00 429.50,757.60 430.25,758.50 430.00,759.62 428.75,760.75 427.00,760.75 425.75,760.00" /><polyline points="436.75,760.75 439.25,753.25 441.75,760.75" /><polyline points="437.65,758.12 440.85,758.12" /><polyline points="442.50,760.75 442.50,753.25 447.50,760.75 447.50,753.25" /><polyline points="448.25,753.25 450.75,757.00 453.25,753.25" /><polyline points="450.75,757.00 450.75,760.75" /><polyline points="454.00,753.25 455.25,760.75 456.50,755.88 457.75,760.75 459.00,753.25" /><polyline points="459.75,760.75 462.25,753.25 464.75,760.75" /><polyline points="460.65,758.12 463.85,758.12" /><polyline points="465.50,753.25 468.00,757.00 470.50,753.25" /><polyline points="468.00,757.00 468.00,760.75" /><polyline points="336.12,766.25 341.12,766.25" /><polyline points="338.62,766.25 338.62,773.75" /><polyline points="341.88,766.25 341.88,773.75" /><polyline points="346.88,766.25 346.88,773.75" /><polyline points="341.88,769.85 346.88,769.85" /><polyline points="351.88,766.25 347.62,766.25 347.62,769.85 350.62,769.85" /><polyline points="347.62,769.85 347.62,773.75 351.88,773.75" /><polyline points="359.12,766.25 360.38,773.75 361.62,768.88 362.88,773.75 364.12,766.25" /><polyline points="364.88,773.75 367.38,766.25 369.88,773.75" /><polyline points="365.77,771.12 368.98,771.12" /><polyline points="370.62,766.25 370.62,773.75 374.88,773.75" /><polyline points="376.38,766.25 376.38,773.75 380.62,773.75" /><polyline points="387.88,766.25 389.12,773.75 390.38,768.88 391.62,773.75 392.88,766.25" /><polyline points="393.62,773.75 396.12,766.25 398.62,773.75" /><polyline points="394.52,771.12 397.73,771.12" /><polyline points="403.62,767.00 402.38,766.25 400.88,766.25 399.62,767.38 399.38,768.50 400.12,769.40 401.88,770.00 403.62,770.60 404.38,771.50 404.12,772.62 402.88,773.75 401.12,773.75 399.88,773.00" /><polyline points="410.88,773.75 413.38,766.25 415.88,773.75" /><polyline points="411.77,771.12 414.98,771.12" /><polyline points="416.62,766.25 416.62,773.75 420.88,773.75" /><polyline points="422.38,766.25 423.62,773.75 424.88,768.88 426.12,773.75 427.38,766.25" /><polyline points="428.12,773.75 430.62,766.25 433.12,773.75" /><polyline points="429.02,771.12 432.23,771.12" /><polyline points="433.88,766.25 436.38,770.00 438.88,766.25" /><polyline points="436.38,770.00 436.38,773.75" /><polyline points="443.88,767.00 442.62,766.25 441.12,766.25 439.88,767.38 439.62,768.50 440.38,769.40 442.12,770.00 443.88,770.60 444.62,771.50 444.38,772.62 443.12,773.75 441.38,773.75 440.12,773.00" /><polyline points="451.12,766.25 452.38,773.75 453.62,768.88 454.88,773.75 456.12,766.25" /><polyline points="456.88,773.75 459.38,766.25 461.88,773.75" /><polyline points="457.77,771.12 460.98,771.12" /><polyline points="462.62,766.25 467.62,766.25" /><polyline points="465.12,766.25 465.12,773.75" /><polyline points="472.62,766.25 468.38,766.25 468.38,769.85 471.38,769.85" /><polyline points="468.38,769.85 468.38,773.75 472.62,773.75" /><polyline points="474.12,773.75 474.12,766.25 477.38,766.25 478.62,767.38 478.62,768.65 477.38,769.62 474.12,769.62 478.62,773.75" /><polyline points="385.68,779.50 385.68,784.50" /><polyline points="387.76,779.50 389.36,784.50 390.96,779.50" /><polyline points="393.04,784.00 393.04,784.25" /><polyline points="395.12,779.50 398.32,784.50" /><polyline points="398.32,779.50 395.12,784.50" /><polyline points="400.40,779.50 400.40,784.50" /><polyline points="402.48,779.50 404.08,784.50 405.68,779.50" /><polyline points="407.76,784.00 407.76,784.25" /><polyline points="409.84,784.50 409.84,779.50 411.44,782.25 413.04,779.50 413.04,784.50" /><polyline points="413.52,784.50 413.52,779.50 415.12,782.25 416.72,779.50 416.72,784.50" /><polyline points="417.20,779.50 420.40,784.50" /><polyline points="420.40,779.50 417.20,784.50" /><polyline points="420.88,779.50 424.08,784.50" /><polyline points="424.08,779.50 420.88,784.50" /><polyline points="424.56,779.50 426.16,784.50 427.76,779.50" /><polyline points="429.84,779.50 429.84,784.50" /></g><g id="02_Teal_Flow" inkscape:groupmode="layer" inkscape:label="02_Teal_Flow" stroke="#3A7A7A" fill="none" stroke-width="0.75" stroke-linecap="round" stroke-linejoin="round"><polyline points="256.00,338.81 258.04,339.06 260.08,339.34 262.12,339.65 264.16,339.97 266.20,340.26 268.24,340.52 270.28,340.73 272.32,340.87 274.36,340.94 276.40,340.93 278.44,340.84 280.48,340.69 282.52,340.47 284.56,340.21 286.60,339.93 288.64,339.64 290.68,339.38 292.72,339.15 294.77,338.99 296.81,338.90 298.85,338.90 300.89,338.99 302.93,339.19 304.97,339.48 307.01,339.87 309.05,340.33 311.09,340.87 313.13,341.46 315.17,342.10 317.21,342.76 319.25,343.44 321.29,344.14 323.33,344.85 325.37,345.57 327.41,346.32 329.45,347.11 331.49,347.96 333.53,348.90 335.57,349.96 337.61,351.17 339.65,352.57 341.69,354.17 343.73,356.02 345.77,358.13 347.81,360.51 349.85,363.19 351.89,366.16 353.93,369.41 355.97,372.94 358.01,376.73 360.05,380.75 362.09,384.98 364.13,389.38 366.17,393.92 368.21,398.56 370.26,403.28 372.30,407.27 374.34,410.02 376.38,412.75 378.42,415.42 380.46,418.01 382.50,420.49 384.54,422.82 386.58,424.97 388.62,426.97 390.66,428.88 392.70,430.47 394.74,431.71" /><polyline points="256.00,348.93 258.04,348.35 260.08,347.82 262.12,347.41 264.16,347.13 266.20,347.02 268.24,347.08 270.28,347.31 272.32,347.68 274.36,348.18 276.40,348.76 278.44,349.36 280.48,349.96 282.52,350.48 284.56,350.91 286.60,351.19 288.64,351.31 290.68,351.27 292.72,351.07 294.77,350.74 296.81,350.30 298.85,349.80 300.89,349.29 302.93,348.83 304.97,348.46 307.01,348.23 309.05,348.17 311.09,348.32 313.13,348.68 315.17,349.25 317.21,350.02 319.25,350.95 321.29,352.03 323.33,353.20 325.37,354.43 327.41,355.68 329.45,356.92 331.49,358.13 333.53,359.31 335.57,360.48 337.61,361.64 339.65,362.83 341.69,364.11 343.73,365.53 345.77,367.14 347.81,368.99 349.85,371.13 351.89,373.61 353.93,376.43 355.97,379.61 358.01,383.14 360.05,386.99 362.09,391.12 364.13,395.49 366.17,400.04 368.21,404.71 370.26,409.44 372.30,413.41 374.34,416.09 376.38,418.69 378.42,421.17 380.46,423.51 382.50,425.69 384.54,427.70 386.58,429.50 388.62,431.10 390.66,432.46 392.70,433.58 394.74,434.41" /><polyline points="256.00,361.90 258.04,361.96 260.08,361.85 262.12,361.58 264.16,361.17 266.20,360.64 268.24,360.00 270.28,359.30 272.32,358.56 274.36,357.81 276.40,357.11 278.44,356.47 280.48,355.93 282.52,355.52 284.56,355.25 286.60,355.14 288.64,355.21 290.68,355.43 292.72,355.82 294.77,356.35 296.81,357.01 298.85,357.76 300.89,358.57 302.93,359.43 304.97,360.28 307.01,361.11 309.05,361.88 311.09,362.57 313.13,363.17 315.17,363.65 317.21,364.03 319.25,364.31 321.29,364.50 323.33,364.62 325.37,364.71 327.41,364.81 329.45,364.94 331.49,365.17 333.53,365.53 335.57,366.07 337.61,366.84 339.65,367.87 341.69,369.19 343.73,370.83 345.77,372.81 347.81,375.12 349.85,377.77 351.89,380.74 353.93,384.02 355.97,387.57 358.01,391.36 360.05,395.35 362.09,399.49 364.13,403.76 366.17,408.10 368.21,412.48 370.26,416.86 372.30,421.22 374.34,425.52 376.38,429.73 378.42,433.85 380.46,437.85 382.50,441.70 384.54,445.41 386.58,448.93 388.62,452.26 390.66,455.37 392.70,458.23 394.74,460.83 396.78,463.13 398.82,465.11 400.86,466.74 402.90,468.00 404.94,468.88 406.98,469.36 409.02,469.44 411.06,469.10 413.10,468.36 415.14,467.23 417.18,465.72 419.22,463.84 421.26,461.62 423.30,459.06 425.34,456.21 427.38,453.07 429.42,449.66 431.46,446.01 433.50,442.14 435.54,438.07 437.58,433.84 439.62,429.45 441.66,424.96 443.70,420.39 445.74,415.79 447.79,411.19 449.83,406.65 451.87,402.21 453.91,397.92 455.95,393.83 457.99,389.98 460.03,386.40 462.07,383.14 464.11,380.20 466.15,377.61 468.19,375.37 470.23,373.46 472.27,371.86 474.31,370.57 476.35,369.53 478.39,368.71 480.43,368.06 482.47,367.55 484.51,367.12 486.55,366.72 488.59,366.33 490.63,365.91 492.67,365.43 494.71,364.88 496.75,364.24 498.79,363.51 500.83,362.70 502.87,361.83 504.91,360.91 506.95,359.98 508.99,359.05 511.03,358.17 513.07,357.35 515.11,356.64 517.15,356.06 519.19,355.62 521.23,355.34 523.28,355.24 525.32,355.30 527.36,355.53 529.40,355.92 531.44,356.43 533.48,357.05 535.52,357.74 537.56,358.48 539.60,359.22 541.64,359.93 543.68,360.57 545.72,361.12 547.76,361.54 549.80,361.83 551.84,361.96 553.88,361.92 555.92,361.73 557.96,361.38 560.00,360.90" /><polyline points="256.00,367.61 258.04,367.40 260.08,367.20 262.12,367.03 264.16,366.89 266.20,366.79 268.24,366.72 270.28,366.70 272.32,366.71 274.36,366.77 276.40,366.87 278.44,367.00 280.48,367.17 282.52,367.37 284.56,367.59 286.60,367.83 288.64,368.07 290.68,368.32 292.72,368.57 294.77,368.81 296.81,369.04 298.85,369.25 300.89,369.43 302.93,369.60 304.97,369.75 307.01,369.88 309.05,370.00 311.09,370.11 313.13,370.22 315.17,370.35 317.21,370.49 319.25,370.68 321.29,370.91 323.33,371.21 325.37,371.59 327.41,372.08 329.45,372.68 331.49,373.41 333.53,374.28 335.57,375.32 337.61,376.54 339.65,377.94 341.69,379.54 343.73,381.34 345.77,383.35 347.81,385.56 349.85,387.99 351.89,390.62 353.93,393.45 355.97,396.48 358.01,399.68 360.05,403.06 362.09,406.58 364.13,410.25 366.17,414.03 368.21,417.90 370.26,421.85 372.30,425.85 374.34,429.86 376.38,433.88 378.42,437.86 380.46,441.79 382.50,445.61 384.54,449.32 386.58,452.87 388.62,456.22 390.66,459.36 392.70,462.24 394.74,464.84 396.78,467.13 398.82,469.08 400.86,470.66 402.90,471.86 404.94,472.67 406.98,473.07 409.02,473.06 411.06,472.64 413.10,471.81 415.14,470.58 417.18,468.97 419.22,467.01 421.26,464.70 423.30,462.09 425.34,459.19 427.38,456.05 429.42,452.69 431.46,449.15 433.50,445.46 435.54,441.66 437.58,437.76 439.62,433.81 441.66,429.84 443.70,425.87 445.74,421.92 447.79,418.02 449.83,414.20 451.87,410.46 453.91,406.84 455.95,403.35 457.99,400.00 460.03,396.81 462.07,393.79 464.11,390.94 466.15,388.29 468.19,385.83 470.23,383.57 472.27,381.51 474.31,379.65 476.35,377.98 478.39,376.51 480.43,375.23 482.47,374.12 484.51,373.18 486.55,372.39 488.59,371.75 490.63,371.23 492.67,370.82 494.71,370.51 496.75,370.28 498.79,370.12 500.83,370.00 502.87,369.92 504.91,369.86 506.95,369.81 508.99,369.76 511.03,369.70 513.07,369.63 515.11,369.53 517.15,369.41 519.19,369.27 521.23,369.10 523.28,368.91 525.32,368.70 527.36,368.47 529.40,368.23 531.44,367.99 533.48,367.75 535.52,367.52 537.56,367.31 539.60,367.12 541.64,366.96 543.68,366.84 545.72,366.75 547.76,366.70 549.80,366.69 551.84,366.73 553.88,366.80 555.92,366.92 557.96,367.06 560.00,367.24" /><polyline points="256.00,380.99 258.04,381.11 260.08,381.01 262.12,380.70 264.16,380.20 266.20,379.53 268.24,378.73 270.28,377.85 272.32,376.94 274.36,376.05 276.40,375.24 278.44,374.55 280.48,374.02 282.52,373.68 284.56,373.56 286.60,373.66 288.64,373.97 290.68,374.49 292.72,375.18 294.77,376.02 296.81,376.94 298.85,377.92 300.89,378.89 302.93,379.80 304.97,380.62 307.01,381.30 309.05,381.82 311.09,382.16 313.13,382.32 315.17,382.30 317.21,382.14 319.25,381.86 321.29,381.51 323.33,381.14 325.37,380.81 327.41,380.58 329.45,380.52 331.49,380.68 333.53,381.10 335.57,381.83 337.61,382.89 339.65,384.30 341.69,386.06 343.73,388.15 345.77,390.55 347.81,393.23 349.85,396.14 351.89,399.24 353.93,402.48 355.97,405.82 358.01,409.21 360.05,412.62 362.09,416.02 364.13,419.39 366.17,422.73 368.21,426.04 370.26,429.33 372.30,432.59 374.34,435.85 376.38,439.12 378.42,442.39 380.46,445.67 382.50,448.95 384.54,452.21 386.58,455.42 388.62,458.56 390.66,461.59 392.70,464.45 394.74,467.12 396.78,469.54 398.82,471.68 400.86,473.50 402.90,474.96 404.94,476.05 406.98,476.73 409.02,477.01 411.06,476.86 413.10,476.29 415.14,475.29 417.18,473.87 419.22,472.03 421.26,469.80 423.30,467.18 425.34,464.21 427.38,460.90 429.42,457.31 431.46,453.47 433.50,449.45 435.54,445.30 437.58,441.07 439.62,436.85 441.66,432.69 443.70,428.66 445.74,424.80 447.79,421.17 449.83,417.79 451.87,414.69 453.91,411.86 455.95,409.30 457.99,406.98 460.03,404.88 462.07,402.95 464.11,401.15 466.15,399.42 468.19,397.74 470.23,396.06 472.27,394.36 474.31,392.61 476.35,390.82 478.39,388.99 480.43,387.14 482.47,385.29 484.51,383.49 486.55,381.78 488.59,380.19 490.63,378.77 492.67,377.56 494.71,376.58 496.75,375.87 498.79,375.42 500.83,375.25 502.87,375.33 504.91,375.64 506.95,376.15 508.99,376.81 511.03,377.56 513.07,378.36 515.11,379.14 517.15,379.86 519.19,380.47 521.23,380.92 523.28,381.18 525.32,381.24 527.36,381.09 529.40,380.73 531.44,380.18 533.48,379.47 535.52,378.65 537.56,377.75 539.60,376.83 541.64,375.94 543.68,375.13 545.72,374.45 547.76,373.93 549.80,373.61 551.84,373.49 553.88,373.60 555.92,373.92 557.96,374.43 560.00,375.11" /><polyline points="256.00,383.37 258.04,383.43 260.08,383.62 262.12,383.92 264.16,384.32 266.20,384.80 268.24,385.35 270.28,385.96 272.32,386.58 274.36,387.22 276.40,387.84 278.44,388.42 280.48,388.94 282.52,389.38 284.56,389.73 286.60,389.98 288.64,390.12 290.68,390.14 292.72,390.05 294.77,389.86 296.81,389.56 298.85,389.18 300.89,388.74 302.93,388.25 304.97,387.75 307.01,387.24 309.05,386.77 311.09,386.35 313.13,386.02 315.17,385.80 317.21,385.70 319.25,385.76 321.29,385.98 323.33,386.39 325.37,386.98 327.41,387.76 329.45,388.74 331.49,389.91 333.53,391.27 335.57,392.79 337.61,394.48 339.65,396.32 341.69,398.28 343.73,400.37 345.77,402.56 347.81,404.83 349.85,407.19 351.89,409.61 353.93,412.10 355.97,414.65 358.01,417.25 360.05,419.92 362.09,422.64 364.13,425.44 366.17,428.30 368.21,431.24 370.26,434.25 372.30,437.33 374.34,440.47 376.38,443.67 378.42,446.90 380.46,450.16 382.50,453.40 384.54,456.60 386.58,459.73 388.62,462.76 390.66,465.63 392.70,468.33 394.74,470.80 396.78,473.02 398.82,474.95 400.86,476.57 402.90,477.85 404.94,478.79 406.98,479.36 409.02,479.56 411.06,479.39 413.10,478.85 415.14,477.95 417.18,476.69 419.22,475.09 421.26,473.15 423.30,470.91 425.34,468.37 427.38,465.56 429.42,462.50 431.46,459.22 433.50,455.73 435.54,452.09 437.58,448.31 439.62,444.45 441.66,440.52 443.70,436.58 445.74,432.68 447.79,428.83 449.83,425.10 451.87,421.51 453.91,418.11 455.95,414.92 457.99,411.96 460.03,409.25 462.07,406.81 464.11,404.64 466.15,402.74 468.19,401.10 470.23,399.70 472.27,398.53 474.31,397.55 476.35,396.75 478.39,396.08 480.43,395.53 482.47,395.05 484.51,394.63 486.55,394.22 488.59,393.82 490.63,393.38 492.67,392.92 494.71,392.40 496.75,391.83 498.79,391.20 500.83,390.52 502.87,389.79 504.91,389.04 506.95,388.27 508.99,387.49 511.03,386.74 513.07,386.03 515.11,385.37 517.15,384.79 519.19,384.30 521.23,383.92 523.28,383.65 525.32,383.50 527.36,383.48 529.40,383.59 531.44,383.81 533.48,384.14 535.52,384.57 537.56,385.07 539.60,385.64 541.64,386.25 543.68,386.88 545.72,387.50 547.76,388.10 549.80,388.64 551.84,389.12 553.88,389.51 555.92,389.80 557.96,389.98 560.00,390.04" /><polyline points="256.00,397.40 258.04,397.78 260.08,398.03 262.12,398.14 264.16,398.10 266.20,397.91 268.24,397.58 270.28,397.15 272.32,396.64 274.36,396.10 276.40,395.55 278.44,395.05 280.48,394.63 282.52,394.32 284.56,394.16 286.60,394.14 288.64,394.28 290.68,394.56 292.72,394.98 294.77,395.49 296.81,396.07 298.85,396.68 300.89,397.28 302.93,397.83 304.97,398.30 307.01,398.66 309.05,398.90 311.09,399.02 313.13,399.02 315.17,398.93 317.21,398.76 319.25,398.57 321.29,398.40 323.33,398.28 325.37,398.28 327.41,398.44 329.45,398.78 331.49,399.35 333.53,400.16 335.57,401.22 337.61,402.53 339.65,404.06 341.69,405.81 343.73,407.73 345.77,409.80 347.81,411.97 349.85,414.23 351.89,416.54 353.93,418.89 355.97,421.27 358.01,423.66 360.05,426.09 362.09,428.56 364.13,431.10 366.17,433.72 368.21,436.43 370.26,439.26 372.30,442.21 374.34,445.28 376.38,448.45 378.42,451.71 380.46,455.02 382.50,458.33 384.54,461.62 386.58,464.82 388.62,467.88 390.66,470.77 392.70,473.42 394.74,475.81 396.78,477.90 398.82,479.65 400.86,481.06 402.90,482.09 404.94,482.75 406.98,483.03 409.02,482.92 411.06,482.44 413.10,481.59 415.14,480.39 417.18,478.86 419.22,477.03 421.26,474.92 423.30,472.58 425.34,470.04 427.38,467.34 429.42,464.52 431.46,461.62 433.50,458.66 435.54,455.68 437.58,452.69 439.62,449.70 441.66,446.72 443.70,443.74 445.74,440.76 447.79,437.78 449.83,434.79 451.87,431.80 453.91,428.81 455.95,425.83 457.99,422.89 460.03,420.01 462.07,417.24 464.11,414.60 466.15,412.14 468.19,409.89 470.23,407.88 472.27,406.13 474.31,404.66 476.35,403.47 478.39,402.54 480.43,401.85 482.47,401.37 484.51,401.06 486.55,400.86 488.59,400.74 490.63,400.64 492.67,400.51 494.71,400.33 496.75,400.06 498.79,399.70 500.83,399.24 502.87,398.68 504.91,398.05 506.95,397.37 508.99,396.68 511.03,396.02 513.07,395.42 515.11,394.92 517.15,394.55 519.19,394.32 521.23,394.25 523.28,394.35 525.32,394.59 527.36,394.95 529.40,395.42 531.44,395.94 533.48,396.48 535.52,397.00 537.56,397.46 539.60,397.82 541.64,398.06 543.68,398.15 545.72,398.09 547.76,397.89 549.80,397.55 551.84,397.11 553.88,396.59 555.92,396.04 557.96,395.49 560.00,394.99" /><polyline points="256.00,403.80 258.04,403.65 260.08,403.59 262.12,403.60 264.16,403.69 266.20,403.87 268.24,404.11 270.28,404.41 272.32,404.76 274.36,405.14 276.40,405.54 278.44,405.94 280.48,406.32 282.52,406.67 284.56,406.98 286.60,407.23 288.64,407.41 290.68,407.51 292.72,407.54 294.77,407.50 296.81,407.39 298.85,407.21 300.89,406.98 302.93,406.72 304.97,406.44 307.01,406.15 309.05,405.89 311.09,405.66 313.13,405.50 315.17,405.41 317.21,405.42 319.25,405.54 321.29,405.79 323.33,406.17 325.37,406.69 327.41,407.35 329.45,408.16 331.49,409.11 333.53,410.20 335.57,411.42 337.61,412.75 339.65,414.20 341.69,415.74 343.73,417.38 345.77,419.10 347.81,420.90 349.85,422.77 351.89,424.70 353.93,426.71 355.97,428.79 358.01,430.95 360.05,433.19 362.09,435.51 364.13,437.92 366.17,440.42 368.21,443.02 370.26,445.71 372.30,448.48 374.34,451.33 376.38,454.23 378.42,457.17 380.46,460.13 382.50,463.08 384.54,465.97 386.58,468.80 388.62,471.51 390.66,474.07 392.70,476.45 394.74,478.62 396.78,480.55 398.82,482.22 400.86,483.59 402.90,484.66 404.94,485.42 406.98,485.84 409.02,485.93 411.06,485.69 413.10,485.11 415.14,484.20 417.18,482.98 419.22,481.45 421.26,479.63 423.30,477.53 425.34,475.18 427.38,472.61 429.42,469.83 431.46,466.89 433.50,463.81 435.54,460.63 437.58,457.39 439.62,454.13 441.66,450.88 443.70,447.69 445.74,444.57 447.79,441.56 449.83,438.69 451.87,435.98 453.91,433.44 455.95,431.07 457.99,428.89 460.03,426.89 462.07,425.05 464.11,423.38 466.15,421.85 468.19,420.44 470.23,419.15 472.27,417.94 474.31,416.80 476.35,415.72 478.39,414.68 480.43,413.68 482.47,412.70 484.51,411.74 486.55,410.81 488.59,409.90 490.63,409.03 492.67,408.19 494.71,407.41 496.75,406.69 498.79,406.04 500.83,405.48 502.87,405.00 504.91,404.63 506.95,404.35 508.99,404.18 511.03,404.11 513.07,404.14 515.11,404.26 517.15,404.47 519.19,404.73 521.23,405.05 523.28,405.40 525.32,405.77 527.36,406.14 529.40,406.48 531.44,406.80 533.48,407.06 535.52,407.26 537.56,407.39 539.60,407.44 541.64,407.41 543.68,407.30 545.72,407.12 547.76,406.86 549.80,406.55 551.84,406.20 553.88,405.82 555.92,405.42 557.96,405.03 560.00,404.66" /><polyline points="256.00,413.48 258.04,413.29 260.08,413.20 262.12,413.21 264.16,413.33 266.20,413.53 268.24,413.82 270.28,414.18 272.32,414.58 274.36,415.00 276.40,415.41 278.44,415.80 280.48,416.13 282.52,416.40 284.56,416.58 286.60,416.67 288.64,416.66 290.68,416.55 292.72,416.35 294.77,416.08 296.81,415.76 298.85,415.40 300.89,415.05 302.93,414.71 304.97,414.42 307.01,414.20 309.05,414.08 311.09,414.06 313.13,414.18 315.17,414.42 317.21,414.80 319.25,415.30 321.29,415.92 323.33,416.65 325.37,417.47 327.41,418.35 329.45,419.29 331.49,420.26 333.53,421.25 335.57,422.25 337.61,423.26 339.65,424.27 341.69,425.29 343.73,426.35 345.77,427.44 347.81,428.60 349.85,429.84 351.89,431.20 353.93,432.70 355.97,434.36 358.01,436.20 360.05,438.22 362.09,440.44 364.13,442.84 366.17,445.43 368.21,448.17 370.26,451.04 372.30,454.02 374.34,457.06 376.38,460.13 378.42,463.18 380.46,466.19 382.50,469.11 384.54,471.91 386.58,474.55 388.62,477.02 390.66,479.28 392.70,481.33 394.74,483.13 396.78,484.68 398.82,485.97 400.86,486.98 402.90,487.72 404.94,488.17 406.98,488.33 409.02,488.20 411.06,487.80 413.10,487.12 415.14,486.18 417.18,484.99 419.22,483.57 421.26,481.94 423.30,480.12 425.34,478.14 427.38,476.02 429.42,473.77 431.46,471.42 433.50,468.98 435.54,466.46 437.58,463.88 439.62,461.25 441.66,458.56 443.70,455.84 445.74,453.10 447.79,450.34 449.83,447.57 451.87,444.83 453.91,442.12 455.95,439.47 457.99,436.91 460.03,434.47 462.07,432.17 464.11,430.03 466.15,428.08 468.19,426.34 470.23,424.80 472.27,423.49 474.31,422.39 476.35,421.49 478.39,420.78 480.43,420.23 482.47,419.82 484.51,419.52 486.55,419.29 488.59,419.10 490.63,418.92 492.67,418.74 494.71,418.52 496.75,418.25 498.79,417.92 500.83,417.54 502.87,417.10 504.91,416.62 506.95,416.10 508.99,415.58 511.03,415.06 513.07,414.58 515.11,414.15 517.15,413.80 519.19,413.54 521.23,413.37 523.28,413.32 525.32,413.37 527.36,413.53 529.40,413.77 531.44,414.09 533.48,414.46 535.52,414.87 537.56,415.28 539.60,415.67 541.64,416.01 543.68,416.29 545.72,416.49 547.76,416.60 549.80,416.60 551.84,416.51 553.88,416.32 555.92,416.04 557.96,415.70 560.00,415.31" /><polyline points="256.00,423.37 258.04,423.58 260.08,423.82 262.12,424.07 264.16,424.33 266.20,424.59 268.24,424.84 270.28,425.07 272.32,425.28 274.36,425.45 276.40,425.59 278.44,425.69 280.48,425.75 282.52,425.76 284.56,425.73 286.60,425.66 288.64,425.54 290.68,425.39 292.72,425.21 294.77,425.01 296.81,424.80 298.85,424.59 300.89,424.38 302.93,424.20 304.97,424.03 307.01,423.91 309.05,423.83 311.09,423.81 313.13,423.85 315.17,423.97 317.21,424.16 319.25,424.43 321.29,424.79 323.33,425.24 325.37,425.78 327.41,426.40 329.45,427.12 331.49,427.92 333.53,428.81 335.57,429.78 337.61,430.83 339.65,431.95 341.69,433.16 343.73,434.44 345.77,435.79 347.81,437.22 349.85,438.72 351.89,440.30 353.93,441.96 355.97,443.70 358.01,445.52 360.05,447.42 362.09,449.41 364.13,451.48 366.17,453.64 368.21,455.87 370.26,458.17 372.30,460.54 374.34,462.96 376.38,465.42 378.42,467.89 380.46,470.37 382.50,472.82 384.54,475.22 386.58,477.55 388.62,479.77 390.66,481.88 392.70,483.83 394.74,485.61 396.78,487.18 398.82,488.54 400.86,489.67 402.90,490.55 404.94,491.16 406.98,491.52 409.02,491.60 411.06,491.41 413.10,490.95 415.14,490.23 417.18,489.25 419.22,488.03 421.26,486.58 423.30,484.90 425.34,483.03 427.38,480.97 429.42,478.75 431.46,476.39 433.50,473.90 435.54,471.32 437.58,468.66 439.62,465.96 441.66,463.23 443.70,460.50 445.74,457.80 447.79,455.15 449.83,452.57 451.87,450.09 453.91,447.72 455.95,445.47 457.99,443.37 460.03,441.42 462.07,439.63 464.11,437.99 466.15,436.52 468.19,435.21 470.23,434.05 472.27,433.03 474.31,432.14 476.35,431.37 478.39,430.71 480.43,430.14 482.47,429.64 484.51,429.21 486.55,428.82 488.59,428.47 490.63,428.14 492.67,427.82 494.71,427.51 496.75,427.20 498.79,426.88 500.83,426.56 502.87,426.22 504.91,425.88 506.95,425.53 508.99,425.18 511.03,424.84 513.07,424.51 515.11,424.19 517.15,423.90 519.19,423.63 521.23,423.40 523.28,423.21 525.32,423.07 527.36,422.97 529.40,422.92 531.44,422.93 533.48,422.98 535.52,423.07 537.56,423.21 539.60,423.39 541.64,423.60 543.68,423.83 545.72,424.08 547.76,424.33 549.80,424.59 551.84,424.84 553.88,425.07 555.92,425.27 557.96,425.44 560.00,425.58" /><polyline points="256.00,434.94 258.04,435.65 260.08,436.24 262.12,436.67 264.16,436.90 266.20,436.94 268.24,436.77 270.28,436.41 272.32,435.88 274.36,435.21 276.40,434.44 278.44,433.63 280.48,432.83 282.52,432.08 284.56,431.45 286.60,430.96 288.64,430.65 290.68,430.54 292.72,430.64 294.77,430.94 296.81,431.44 298.85,432.09 300.89,432.87 302.93,433.72 304.97,434.61 307.01,435.47 309.05,436.26 311.09,436.94 313.13,437.47 315.17,437.84 317.21,438.04 319.25,438.07 321.29,437.94 323.33,437.69 325.37,437.36 327.41,436.99 329.45,436.66 331.49,436.40 333.53,436.28 335.57,436.35 337.61,436.65 339.65,437.21 341.69,438.06 343.73,439.19 345.77,440.60 347.81,442.27 349.85,444.16 351.89,446.24 353.93,448.45 355.97,450.75 358.01,453.10 360.05,455.45 362.09,457.76 364.13,460.01 366.17,462.19 368.21,464.29 370.26,466.32 372.30,468.27 374.34,470.18 376.38,472.06 378.42,473.92 380.46,475.77 382.50,477.63 384.54,479.50 386.58,481.36 388.62,483.21 390.66,485.01 392.70,486.75 394.74,488.40 396.78,489.92 398.82,491.29 400.86,492.47 402.90,493.45 404.94,494.20 406.98,494.70 409.02,494.94 411.06,494.92 413.10,494.63 415.14,494.06 417.18,493.20 419.22,492.08 421.26,490.68 423.30,489.02 425.34,487.12 427.38,484.99 429.42,482.67 431.46,480.19 433.50,477.59 435.54,474.93 437.58,472.24 439.62,469.59 441.66,467.03 443.70,464.59 445.74,462.31 447.79,460.22 449.83,458.33 451.87,456.65 453.91,455.15 455.95,453.82 457.99,452.62 460.03,451.52 462.07,450.46 464.11,449.41 466.15,448.34 468.19,447.20 470.23,445.99 472.27,444.70 474.31,443.32 476.35,441.88 478.39,440.40 480.43,438.93 482.47,437.50 484.51,436.16 486.55,434.95 488.59,433.92 490.63,433.09 492.67,432.50 494.71,432.16 496.75,432.05 498.79,432.18 500.83,432.52 502.87,433.02 504.91,433.64 506.95,434.33 508.99,435.04 511.03,435.70 513.07,436.28 515.11,436.73 517.15,437.01 519.19,437.10 521.23,436.99 523.28,436.69 525.32,436.21 527.36,435.58 529.40,434.83 531.44,434.02 533.48,433.20 535.52,432.41 537.56,431.70 539.60,431.13 541.64,430.71 543.68,430.49 545.72,430.48 547.76,430.67 549.80,431.05 551.84,431.60 553.88,432.28 555.92,433.06 557.96,433.87 560.00,434.68" /><polyline points="256.00,445.27 258.04,444.38 260.08,443.40 262.12,442.40 264.16,441.45 266.20,440.60 268.24,439.91 270.28,439.42 272.32,439.17 274.36,439.16 276.40,439.40 278.44,439.88 280.48,440.56 282.52,441.41 284.56,442.36 286.60,443.37 288.64,444.36 290.68,445.28 292.72,446.07 294.77,446.68 296.81,447.08 298.85,447.24 300.89,447.16 302.93,446.85 304.97,446.32 307.01,445.63 309.05,444.82 311.09,443.95 313.13,443.08 315.17,442.29 317.21,441.63 319.25,441.16 321.29,440.93 323.33,440.97 325.37,441.30 327.41,441.91 329.45,442.80 331.49,443.93 333.53,445.28 335.57,446.77 337.61,448.37 339.65,450.01 341.69,451.64 343.73,453.20 345.77,454.67 347.81,456.02 349.85,457.24 351.89,458.34 353.93,459.33 355.97,460.24 358.01,461.13 360.05,462.03 362.09,463.01 364.13,464.09 366.17,465.33 368.21,466.76 370.26,468.39 372.30,470.22 374.34,472.25 376.38,474.45 378.42,476.78 380.46,479.19 382.50,481.64 384.54,484.06 386.58,486.41 388.62,488.64 390.66,490.70 392.70,492.56 394.74,494.19 396.78,495.57 398.82,496.68 400.86,497.52 402.90,498.08 404.94,498.37 406.98,498.38 409.02,498.13 411.06,497.63 413.10,496.88 415.14,495.91 417.18,494.73 419.22,493.37 421.26,491.87 423.30,490.25 425.34,488.55 427.38,486.81 429.42,485.06 431.46,483.34 433.50,481.65 435.54,480.02 437.58,478.45 439.62,476.93 441.66,475.44 443.70,473.97 445.74,472.47 447.79,470.92 449.83,469.29 451.87,467.56 453.91,465.72 455.95,463.76 457.99,461.70 460.03,459.55 462.07,457.37 464.11,455.18 466.15,453.05 468.19,451.04 470.23,449.20 472.27,447.58 474.31,446.23 476.35,445.18 478.39,444.44 480.43,444.02 482.47,443.89 484.51,444.03 486.55,444.39 488.59,444.90 490.63,445.52 492.67,446.17 494.71,446.77 496.75,447.28 498.79,447.64 500.83,447.81 502.87,447.75 504.91,447.48 506.95,446.98 508.99,446.28 511.03,445.42 513.07,444.44 515.11,443.41 517.15,442.37 519.19,441.40 521.23,440.56 523.28,439.88 525.32,439.42 527.36,439.20 529.40,439.23 531.44,439.51 533.48,440.02 535.52,440.73 537.56,441.59 539.60,442.55 541.64,443.54 543.68,444.51 545.72,445.39 547.76,446.13 549.80,446.68 551.84,447.00 553.88,447.07 555.92,446.90 557.96,446.49 560.00,445.86" /><polyline points="256.00,454.53 258.04,454.65 260.08,454.68 262.12,454.63 264.16,454.48 266.20,454.26 268.24,453.96 270.28,453.61 272.32,453.21 274.36,452.78 276.40,452.34 278.44,451.91 280.48,451.50 282.52,451.14 284.56,450.83 286.60,450.60 288.64,450.45 290.68,450.39 292.72,450.42 294.77,450.54 296.81,450.75 298.85,451.04 300.89,451.41 302.93,451.84 304.97,452.31 307.01,452.81 309.05,453.33 311.09,453.84 313.13,454.33 315.17,454.80 317.21,455.22 319.25,455.59 321.29,455.90 323.33,456.16 325.37,456.37 327.41,456.53 329.45,456.66 331.49,456.77 333.53,456.88 335.57,457.01 337.61,457.18 339.65,457.41 341.69,457.73 343.73,458.16 345.77,458.71 347.81,459.41 349.85,460.26 351.89,461.27 353.93,462.45 355.97,463.79 358.01,465.29 360.05,466.94 362.09,468.71 364.13,470.59 366.17,472.56 368.21,474.59 370.26,476.67 372.30,478.75 374.34,480.83 376.38,482.88 378.42,484.87 380.46,486.79 382.50,488.63 384.54,490.36 386.58,491.98 388.62,493.48 390.66,494.85 392.70,496.07 394.74,497.15 396.78,498.07 398.82,498.83 400.86,499.42 402.90,499.84 404.94,500.08 406.98,500.15 409.02,500.03 411.06,499.73 413.10,499.27 415.14,498.63 417.18,497.84 419.22,496.90 421.26,495.84 423.30,494.65 425.34,493.38 427.38,492.02 429.42,490.59 431.46,489.11 433.50,487.59 435.54,486.04 437.58,484.47 439.62,482.88 441.66,481.28 443.70,479.66 445.74,478.03 447.79,476.39 449.83,474.74 451.87,473.08 453.91,471.41 455.95,469.74 457.99,468.08 460.03,466.44 462.07,464.84 464.11,463.28 466.15,461.78 468.19,460.36 470.23,459.03 472.27,457.82 474.31,456.72 476.35,455.77 478.39,454.96 480.43,454.29 482.47,453.77 484.51,453.40 486.55,453.17 488.59,453.06 490.63,453.06 492.67,453.16 494.71,453.33 496.75,453.56 498.79,453.82 500.83,454.09 502.87,454.35 504.91,454.58 506.95,454.76 508.99,454.88 511.03,454.94 513.07,454.91 515.11,454.81 517.15,454.62 519.19,454.37 521.23,454.04 523.28,453.66 525.32,453.24 527.36,452.80 529.40,452.34 531.44,451.90 533.48,451.49 535.52,451.11 537.56,450.80 539.60,450.56 541.64,450.40 543.68,450.33 545.72,450.34 547.76,450.45 549.80,450.64 551.84,450.90 553.88,451.24 555.92,451.62 557.96,452.04 560.00,452.48" /><polyline points="256.00,462.95 258.04,462.71 260.08,462.43 262.12,462.11 264.16,461.78 266.20,461.45 268.24,461.16 270.28,460.91 272.32,460.72 274.36,460.60 276.40,460.57 278.44,460.61 280.48,460.74 282.52,460.93 284.56,461.19 286.60,461.50 288.64,461.83 290.68,462.17 292.72,462.51 294.77,462.81 296.81,463.06 298.85,463.26 300.89,463.39 302.93,463.44 304.97,463.42 307.01,463.34 309.05,463.19 311.09,463.00 313.13,462.79 315.17,462.58 317.21,462.38 319.25,462.23 321.29,462.14 323.33,462.14 325.37,462.23 327.41,462.43 329.45,462.76 331.49,463.20 333.53,463.76 335.57,464.43 337.61,465.21 339.65,466.06 341.69,466.99 343.73,467.97 345.77,468.99 347.81,470.03 349.85,471.09 351.89,472.15 353.93,473.22 355.97,474.29 358.01,475.37 360.05,476.46 362.09,477.58 364.13,478.74 366.17,479.95 368.21,481.21 370.26,482.54 372.30,483.94 374.34,485.40 376.38,486.92 378.42,488.48 380.46,490.07 382.50,491.68 384.54,493.27 386.58,494.83 388.62,496.32 390.66,497.74 392.70,499.04 394.74,500.22 396.78,501.26 398.82,502.14 400.86,502.86 402.90,503.39 404.94,503.74 406.98,503.91 409.02,503.88 411.06,503.67 413.10,503.27 415.14,502.70 417.18,501.95 419.22,501.05 421.26,499.99 423.30,498.81 425.34,497.52 427.38,496.13 429.42,494.68 431.46,493.18 433.50,491.66 435.54,490.14 437.58,488.63 439.62,487.15 441.66,485.70 443.70,484.30 445.74,482.95 447.79,481.64 449.83,480.36 451.87,479.12 453.91,477.89 455.95,476.68 457.99,475.48 460.03,474.28 462.07,473.08 464.11,471.89 466.15,470.72 468.19,469.57 470.23,468.46 472.27,467.41 474.31,466.43 476.35,465.54 478.39,464.75 480.43,464.08 482.47,463.53 484.51,463.11 486.55,462.81 488.59,462.63 490.63,462.56 492.67,462.58 494.71,462.68 496.75,462.82 498.79,463.00 500.83,463.17 502.87,463.33 504.91,463.46 506.95,463.53 508.99,463.54 511.03,463.48 513.07,463.34 515.11,463.14 517.15,462.88 519.19,462.58 521.23,462.24 523.28,461.90 525.32,461.56 527.36,461.24 529.40,460.97 531.44,460.77 533.48,460.63 535.52,460.57 537.56,460.60 539.60,460.71 541.64,460.89 543.68,461.13 545.72,461.42 547.76,461.74 549.80,462.07 551.84,462.39 553.88,462.68 555.92,462.93 557.96,463.11 560.00,463.22" /><polyline points="256.00,471.29 258.04,471.64 260.08,471.99 262.12,472.32 264.16,472.61 266.20,472.86 268.24,473.06 270.28,473.21 272.32,473.29 274.36,473.31 276.40,473.27 278.44,473.16 280.48,472.99 282.52,472.77 284.56,472.51 286.60,472.21 288.64,471.88 290.68,471.53 292.72,471.18 294.77,470.85 296.81,470.53 298.85,470.24 300.89,470.00 302.93,469.81 304.97,469.68 307.01,469.62 309.05,469.63 311.09,469.71 313.13,469.87 315.17,470.11 317.21,470.42 319.25,470.80 321.29,471.24 323.33,471.73 325.37,472.27 327.41,472.85 329.45,473.46 331.49,474.09 333.53,474.73 335.57,475.38 337.61,476.02 339.65,476.67 341.69,477.30 343.73,477.93 345.77,478.56 347.81,479.19 349.85,479.82 351.89,480.46 353.93,481.13 355.97,481.83 358.01,482.57 360.05,483.36 362.09,484.20 364.13,485.11 366.17,486.09 368.21,487.14 370.26,488.26 372.30,489.44 374.34,490.69 376.38,491.99 378.42,493.32 380.46,494.68 382.50,496.05 384.54,497.40 386.58,498.73 388.62,500.01 390.66,501.22 392.70,502.36 394.74,503.39 396.78,504.31 398.82,505.11 400.86,505.78 402.90,506.30 404.94,506.68 406.98,506.91 409.02,506.99 411.06,506.92 413.10,506.69 415.14,506.32 417.18,505.79 419.22,505.13 421.26,504.33 423.30,503.40 425.34,502.35 427.38,501.18 429.42,499.91 431.46,498.55 433.50,497.12 435.54,495.63 437.58,494.09 439.62,492.54 441.66,490.98 443.70,489.44 445.74,487.93 447.79,486.47 449.83,485.09 451.87,483.79 453.91,482.58 455.95,481.48 457.99,480.49 460.03,479.62 462.07,478.86 464.11,478.20 466.15,477.65 468.19,477.19 470.23,476.81 472.27,476.49 474.31,476.23 476.35,476.01 478.39,475.82 480.43,475.63 482.47,475.45 484.51,475.25 486.55,475.03 488.59,474.79 490.63,474.51 492.67,474.21 494.71,473.86 496.75,473.49 498.79,473.09 500.83,472.67 502.87,472.24 504.91,471.81 506.95,471.39 508.99,470.98 511.03,470.60 513.07,470.26 515.11,469.96 517.15,469.71 519.19,469.53 521.23,469.41 523.28,469.36 525.32,469.37 527.36,469.45 529.40,469.59 531.44,469.79 533.48,470.04 535.52,470.34 537.56,470.66 539.60,471.01 541.64,471.37 543.68,471.72 545.72,472.07 547.76,472.39 549.80,472.67 551.84,472.91 553.88,473.10 555.92,473.23 557.96,473.30 560.00,473.30" /><polyline points="256.00,476.87 258.04,476.88 260.08,477.05 262.12,477.37 264.16,477.83 266.20,478.40 268.24,479.08 270.28,479.82 272.32,480.60 274.36,481.38 276.40,482.13 278.44,482.83 280.48,483.44 282.52,483.93 284.56,484.30 286.60,484.51 288.64,484.57 290.68,484.47 292.72,484.21 294.77,483.82 296.81,483.30 298.85,482.67 300.89,481.98 302.93,481.24 304.97,480.49 307.01,479.77 309.05,479.10 311.09,478.52 313.13,478.05 315.17,477.73 317.21,477.57 319.25,477.57 321.29,477.75 323.33,478.11 325.37,478.64 327.41,479.31 329.45,480.12 331.49,481.05 333.53,482.05 335.57,483.10 337.61,484.18 339.65,485.24 341.69,486.28 343.73,487.25 345.77,488.15 347.81,488.96 349.85,489.67 351.89,490.29 353.93,490.82 355.97,491.29 358.01,491.69 360.05,492.07 362.09,492.44 364.13,492.82 366.17,493.25 368.21,493.75 370.26,494.33 372.30,495.01 374.34,495.79 376.38,496.67 378.42,497.64 380.46,498.71 382.50,499.84 384.54,501.01 386.58,502.21 388.62,503.40 390.66,504.56 392.70,505.67 394.74,506.70 396.78,507.63 398.82,508.46 400.86,509.16 402.90,509.73 404.94,510.16 406.98,510.44 409.02,510.58 411.06,510.57 413.10,510.40 415.14,510.08 417.18,509.61 419.22,508.98 421.26,508.21 423.30,507.30 425.34,506.25 427.38,505.07 429.42,503.79 431.46,502.42 433.50,500.99 435.54,499.53 437.58,498.05 439.62,496.60 441.66,495.21 443.70,493.90 445.74,492.70 447.79,491.63 449.83,490.70 451.87,489.94 453.91,489.32 455.95,488.85 457.99,488.52 460.03,488.31 462.07,488.18 464.11,488.11 466.15,488.08 468.19,488.04 470.23,487.97 472.27,487.84 474.31,487.62 476.35,487.31 478.39,486.89 480.43,486.36 482.47,485.71 484.51,484.97 486.55,484.14 488.59,483.26 490.63,482.33 492.67,481.41 494.71,480.50 496.75,479.66 498.79,478.89 500.83,478.24 502.87,477.72 504.91,477.36 506.95,477.15 508.99,477.12 511.03,477.25 513.07,477.54 515.11,477.97 517.15,478.53 519.19,479.18 521.23,479.91 523.28,480.67 525.32,481.44 527.36,482.19 529.40,482.87 531.44,483.47 533.48,483.95 535.52,484.30 537.56,484.50 539.60,484.54 541.64,484.43 543.68,484.16 545.72,483.74 547.76,483.20 549.80,482.56 551.84,481.84 553.88,481.07 555.92,480.28 557.96,479.52 560.00,478.80" /><polyline points="256.00,491.63 258.04,491.67 260.08,491.67 262.12,491.63 264.16,491.56 266.20,491.45 268.24,491.30 270.28,491.13 272.32,490.94 274.36,490.72 276.40,490.49 278.44,490.25 280.48,490.01 282.52,489.77 284.56,489.53 286.60,489.32 288.64,489.12 290.68,488.95 292.72,488.81 294.77,488.71 296.81,488.64 298.85,488.61 300.89,488.63 302.93,488.68 304.97,488.78 307.01,488.91 309.05,489.09 311.09,489.30 313.13,489.54 315.17,489.82 317.21,490.12 319.25,490.44 321.29,490.77 323.33,491.12 325.37,491.48 327.41,491.84 329.45,492.19 331.49,492.55 333.53,492.90 335.57,493.25 337.61,493.58 339.65,493.92 341.69,494.24 343.73,494.57 345.77,494.90 347.81,495.23 349.85,495.58 351.89,495.94 353.93,496.33 355.97,496.74 358.01,497.19 360.05,497.67 362.09,498.20 364.13,498.77 366.17,499.39 368.21,500.05 370.26,500.76 372.30,501.52 374.34,502.31 376.38,503.13 378.42,503.97 380.46,504.83 382.50,505.69 384.54,506.55 386.58,507.39 388.62,508.20 390.66,508.97 392.70,509.68 394.74,510.34 396.78,510.93 398.82,511.45 400.86,511.88 402.90,512.23 404.94,512.48 406.98,512.65 409.02,512.72 411.06,512.70 413.10,512.59 415.14,512.38 417.18,512.09 419.22,511.72 421.26,511.26 423.30,510.73 425.34,510.12 427.38,509.44 429.42,508.70 431.46,507.90 433.50,507.05 435.54,506.15 437.58,505.21 439.62,504.24 441.66,503.25 443.70,502.25 445.74,501.24 447.79,500.25 449.83,499.27 451.87,498.32 453.91,497.41 455.95,496.54 457.99,495.73 460.03,494.99 462.07,494.30 464.11,493.69 466.15,493.16 468.19,492.70 470.23,492.31 472.27,492.00 474.31,491.76 476.35,491.58 478.39,491.46 480.43,491.40 482.47,491.38 484.51,491.39 486.55,491.44 488.59,491.51 490.63,491.59 492.67,491.67 494.71,491.75 496.75,491.82 498.79,491.88 500.83,491.91 502.87,491.92 504.91,491.90 506.95,491.85 508.99,491.77 511.03,491.66 513.07,491.52 515.11,491.35 517.15,491.15 519.19,490.94 521.23,490.71 523.28,490.46 525.32,490.21 527.36,489.96 529.40,489.72 531.44,489.48 533.48,489.26 535.52,489.06 537.56,488.89 539.60,488.75 541.64,488.64 543.68,488.57 545.72,488.53 547.76,488.54 549.80,488.58 551.84,488.66 553.88,488.77 555.92,488.92 557.96,489.09 560.00,489.29" /><polyline points="256.00,499.45 258.04,499.75 260.08,500.05 262.12,500.34 264.16,500.60 266.20,500.83 268.24,501.03 270.28,501.19 272.32,501.31 274.36,501.37 276.40,501.39 278.44,501.36 280.48,501.29 282.52,501.16 284.56,501.00 286.60,500.79 288.64,500.55 290.68,500.29 292.72,500.01 294.77,499.72 296.81,499.42 298.85,499.13 300.89,498.85 302.93,498.59 304.97,498.37 307.01,498.18 309.05,498.03 311.09,497.93 313.13,497.88 315.17,497.89 317.21,497.95 319.25,498.07 321.29,498.25 323.33,498.48 325.37,498.76 327.41,499.09 329.45,499.47 331.49,499.88 333.53,500.31 335.57,500.78 337.61,501.26 339.65,501.74 341.69,502.23 343.73,502.72 345.77,503.20 347.81,503.67 349.85,504.13 351.89,504.57 353.93,504.99 355.97,505.39 358.01,505.78 360.05,506.16 362.09,506.54 364.13,506.91 366.17,507.28 368.21,507.66 370.26,508.04 372.30,508.44 374.34,508.86 376.38,509.29 378.42,509.74 380.46,510.21 382.50,510.69 384.54,511.17 386.58,511.66 388.62,512.14 390.66,512.62 392.70,513.07 394.74,513.49 396.78,513.89 398.82,514.24 400.86,514.54 402.90,514.80 404.94,515.00 406.98,515.14 409.02,515.22 411.06,515.25 413.10,515.21 415.14,515.12 417.18,514.98 419.22,514.79 421.26,514.54 423.30,514.25 425.34,513.92 427.38,513.54 429.42,513.12 431.46,512.65 433.50,512.15 435.54,511.60 437.58,511.02 439.62,510.40 441.66,509.75 443.70,509.07 445.74,508.36 447.79,507.63 449.83,506.88 451.87,506.13 453.91,505.38 455.95,504.63 457.99,503.90 460.03,503.20 462.07,502.54 464.11,501.91 466.15,501.34 468.19,500.83 470.23,500.38 472.27,500.00 474.31,499.70 476.35,499.46 478.39,499.29 480.43,499.20 482.47,499.17 484.51,499.20 486.55,499.29 488.59,499.42 490.63,499.59 492.67,499.79 494.71,500.01 496.75,500.24 498.79,500.47 500.83,500.70 502.87,500.90 504.91,501.09 506.95,501.24 508.99,501.35 511.03,501.43 513.07,501.46 515.11,501.44 517.15,501.38 519.19,501.27 521.23,501.12 523.28,500.93 525.32,500.70 527.36,500.44 529.40,500.16 531.44,499.86 533.48,499.56 535.52,499.25 537.56,498.95 539.60,498.67 541.64,498.40 543.68,498.17 545.72,497.97 547.76,497.81 549.80,497.70 551.84,497.63 553.88,497.61 555.92,497.64 557.96,497.72 560.00,497.85" /><polyline points="256.00,508.86 258.04,508.51 260.08,508.16 262.12,507.82 264.16,507.51 266.20,507.23 268.24,506.98 270.28,506.78 272.32,506.62 274.36,506.50 276.40,506.44 278.44,506.43 280.48,506.47 282.52,506.56 284.56,506.70 286.60,506.89 288.64,507.12 290.68,507.39 292.72,507.70 294.77,508.02 296.81,508.37 298.85,508.73 300.89,509.10 302.93,509.46 304.97,509.81 307.01,510.15 309.05,510.47 311.09,510.75 313.13,511.00 315.17,511.21 317.21,511.38 319.25,511.51 321.29,511.59 323.33,511.62 325.37,511.61 327.41,511.55 329.45,511.46 331.49,511.34 333.53,511.19 335.57,511.01 337.61,510.83 339.65,510.64 341.69,510.46 343.73,510.29 345.77,510.14 347.81,510.02 349.85,509.94 351.89,509.91 353.93,509.93 355.97,510.01 358.01,510.15 360.05,510.34 362.09,510.60 364.13,510.92 366.17,511.29 368.21,511.71 370.26,512.18 372.30,512.68 374.34,513.21 376.38,513.76 378.42,514.31 380.46,514.87 382.50,515.42 384.54,515.95 386.58,516.46 388.62,516.93 390.66,517.37 392.70,517.77 394.74,518.13 396.78,518.44 398.82,518.70 400.86,518.91 402.90,519.08 404.94,519.19 406.98,519.26 409.02,519.28 411.06,519.25 413.10,519.18 415.14,519.05 417.18,518.88 419.22,518.66 421.26,518.39 423.30,518.07 425.34,517.70 427.38,517.30 429.42,516.85 431.46,516.36 433.50,515.84 435.54,515.29 437.58,514.72 439.62,514.14 441.66,513.56 443.70,512.98 445.74,512.42 447.79,511.89 449.83,511.39 451.87,510.93 453.91,510.52 455.95,510.17 457.99,509.87 460.03,509.64 462.07,509.47 464.11,509.37 466.15,509.32 468.19,509.34 470.23,509.41 472.27,509.52 474.31,509.67 476.35,509.86 478.39,510.06 480.43,510.28 482.47,510.51 484.51,510.73 486.55,510.93 488.59,511.12 490.63,511.28 492.67,511.40 494.71,511.49 496.75,511.53 498.79,511.53 500.83,511.48 502.87,511.38 504.91,511.24 506.95,511.05 508.99,510.82 511.03,510.55 513.07,510.25 515.11,509.93 517.15,509.58 519.19,509.22 521.23,508.86 523.28,508.50 525.32,508.15 527.36,507.81 529.40,507.50 531.44,507.22 533.48,506.97 535.52,506.77 537.56,506.61 539.60,506.50 541.64,506.44 543.68,506.43 545.72,506.47 547.76,506.57 549.80,506.71 551.84,506.90 553.88,507.13 555.92,507.40 557.96,507.70 560.00,508.03" /><polyline points="256.00,516.28 258.04,515.81 260.08,515.50 262.12,515.37 264.16,515.41 266.20,515.64 268.24,516.04 270.28,516.57 272.32,517.21 274.36,517.93 276.40,518.66 278.44,519.37 280.48,520.02 282.52,520.55 284.56,520.95 286.60,521.18 288.64,521.24 290.68,521.11 292.72,520.80 294.77,520.34 296.81,519.75 298.85,519.08 300.89,518.36 302.93,517.63 304.97,516.95 307.01,516.36 309.05,515.89 311.09,515.58 313.13,515.44 315.17,515.48 317.21,515.71 319.25,516.10 321.29,516.64 323.33,517.28 325.37,517.99 327.41,518.72 329.45,519.44 331.49,520.08 333.53,520.63 335.57,521.03 337.61,521.28 339.65,521.36 341.69,521.28 343.73,521.04 345.77,520.66 347.81,520.19 349.85,519.65 351.89,519.10 353.93,518.57 355.97,518.10 358.01,517.73 360.05,517.49 362.09,517.39 364.13,517.43 366.17,517.62 368.21,517.94 370.26,518.37 372.30,518.87 374.34,519.42 376.38,519.98 378.42,520.52 380.46,521.02 382.50,521.44 384.54,521.79 386.58,522.04 388.62,522.20 390.66,522.28 392.70,522.27 394.74,522.20 396.78,522.08 398.82,521.91 400.86,521.72 402.90,521.52 404.94,521.31 406.98,521.10 409.02,520.90 411.06,520.72 413.10,520.57 415.14,520.44 417.18,520.36 419.22,520.33 421.26,520.35 423.30,520.42 425.34,520.55 427.38,520.72 429.42,520.94 431.46,521.17 433.50,521.42 435.54,521.64 437.58,521.81 439.62,521.92 441.66,521.93 443.70,521.84 445.74,521.62 447.79,521.28 449.83,520.83 451.87,520.27 453.91,519.65 455.95,518.98 457.99,518.32 460.03,517.69 462.07,517.14 464.11,516.71 466.15,516.41 468.19,516.28 470.23,516.33 472.27,516.54 474.31,516.90 476.35,517.40 478.39,517.99 480.43,518.64 482.47,519.30 484.51,519.92 486.55,520.46 488.59,520.89 490.63,521.16 492.67,521.27 494.71,521.21 496.75,520.96 498.79,520.56 500.83,520.01 502.87,519.36 504.91,518.65 506.95,517.91 508.99,517.20 511.03,516.56 513.07,516.03 515.11,515.64 517.15,515.42 519.19,515.38 521.23,515.53 523.28,515.84 525.32,516.31 527.36,516.91 529.40,517.59 531.44,518.32 533.48,519.05 535.52,519.73 537.56,520.32 539.60,520.79 541.64,521.10 543.68,521.23 545.72,521.19 547.76,520.96 549.80,520.57 551.84,520.04 553.88,519.39 555.92,518.68 557.96,517.95 560.00,517.24" /><polyline points="256.00,527.33 258.04,527.11 260.08,526.90 262.12,526.71 264.16,526.55 266.20,526.41 268.24,526.30 270.28,526.22 272.32,526.17 274.36,526.16 276.40,526.19 278.44,526.25 280.48,526.34 282.52,526.47 284.56,526.62 286.60,526.80 288.64,527.00 290.68,527.21 292.72,527.44 294.77,527.67 296.81,527.90 298.85,528.12 300.89,528.34 302.93,528.54 304.97,528.72 307.01,528.87 309.05,528.99 311.09,529.09 313.13,529.14 315.17,529.17 317.21,529.15 319.25,529.10 321.29,529.01 323.33,528.89 325.37,528.73 327.41,528.55 329.45,528.34 331.49,528.12 333.53,527.87 335.57,527.62 337.61,527.36 339.65,527.10 341.69,526.85 343.73,526.61 345.77,526.38 347.81,526.18 349.85,525.99 351.89,525.84 353.93,525.70 355.97,525.60 358.01,525.52 360.05,525.46 362.09,525.43 364.13,525.41 366.17,525.42 368.21,525.43 370.26,525.45 372.30,525.48 374.34,525.50 376.38,525.52 378.42,525.54 380.46,525.54 382.50,525.54 384.54,525.52 386.58,525.49 388.62,525.45 390.66,525.40 392.70,525.34 394.74,525.28 396.78,525.22 398.82,525.15 400.86,525.09 402.90,525.04 404.94,524.98 406.98,524.94 409.02,524.90 411.06,524.86 413.10,524.84 415.14,524.82 417.18,524.80 419.22,524.79 421.26,524.78 423.30,524.77 425.34,524.76 427.38,524.75 429.42,524.75 431.46,524.75 433.50,524.76 435.54,524.78 437.58,524.81 439.62,524.86 441.66,524.92 443.70,525.00 445.74,525.10 447.79,525.23 449.83,525.38 451.87,525.56 453.91,525.76 455.95,525.98 457.99,526.22 460.03,526.48 462.07,526.75 464.11,527.02 466.15,527.30 468.19,527.57 470.23,527.83 472.27,528.08 474.31,528.31 476.35,528.51 478.39,528.68 480.43,528.81 482.47,528.92 484.51,528.98 486.55,529.01 488.59,529.00 490.63,528.95 492.67,528.86 494.71,528.74 496.75,528.59 498.79,528.42 500.83,528.23 502.87,528.02 504.91,527.79 506.95,527.57 508.99,527.34 511.03,527.13 513.07,526.92 515.11,526.73 517.15,526.56 519.19,526.42 521.23,526.31 523.28,526.22 525.32,526.17 527.36,526.16 529.40,526.18 531.44,526.24 533.48,526.33 535.52,526.45 537.56,526.60 539.60,526.78 541.64,526.97 543.68,527.18 545.72,527.41 547.76,527.64 549.80,527.87 551.84,528.10 553.88,528.32 555.92,528.53 557.96,528.71 560.00,528.88" /><polyline points="256.00,537.84 258.04,537.48 260.08,537.12 262.12,536.76 264.16,536.40 266.20,536.06 268.24,535.74 270.28,535.46 272.32,535.21 274.36,535.01 276.40,534.85 278.44,534.75 280.48,534.70 282.52,534.71 284.56,534.77 286.60,534.88 288.64,535.05 290.68,535.26 292.72,535.52 294.77,535.80 296.81,536.12 298.85,536.46 300.89,536.81 302.93,537.17 304.97,537.52 307.01,537.86 309.05,538.17 311.09,538.45 313.13,538.70 315.17,538.90 317.21,539.05 319.25,539.14 321.29,539.17 323.33,539.14 325.37,539.05 327.41,538.90 329.45,538.68 331.49,538.41 333.53,538.09 335.57,537.71 337.61,537.30 339.65,536.85 341.69,536.38 343.73,535.88 345.77,535.38 347.81,534.88 349.85,534.38 351.89,533.90 353.93,533.43 355.97,533.00 358.01,532.59 360.05,532.21 362.09,531.86 364.13,531.55 366.17,531.27 368.21,531.01 370.26,530.79 372.30,530.58 374.34,530.39 376.38,530.22 378.42,530.05 380.46,529.89 382.50,529.73 384.54,529.57 386.58,529.41 388.62,529.25 390.66,529.10 392.70,528.95 394.74,528.80 396.78,528.67 398.82,528.55 400.86,528.44 402.90,528.36 404.94,528.30 406.98,528.27 409.02,528.27 411.06,528.29 413.10,528.34 415.14,528.41 417.18,528.50 419.22,528.62 421.26,528.74 423.30,528.88 425.34,529.02 427.38,529.17 429.42,529.33 431.46,529.48 433.50,529.64 435.54,529.80 437.58,529.97 439.62,530.14 441.66,530.33 443.70,530.53 445.74,530.75 447.79,530.99 449.83,531.26 451.87,531.57 453.91,531.90 455.95,532.27 457.99,532.67 460.03,533.10 462.07,533.56 464.11,534.04 466.15,534.53 468.19,535.04 470.23,535.55 472.27,536.05 474.31,536.54 476.35,537.01 478.39,537.45 480.43,537.85 482.47,538.21 484.51,538.51 486.55,538.76 488.59,538.95 490.63,539.07 492.67,539.14 494.71,539.14 496.75,539.08 498.79,538.96 500.83,538.79 502.87,538.56 504.91,538.30 506.95,538.00 508.99,537.68 511.03,537.33 513.07,536.98 515.11,536.63 517.15,536.28 519.19,535.95 521.23,535.65 523.28,535.38 525.32,535.14 527.36,534.96 529.40,534.82 531.44,534.73 533.48,534.69 535.52,534.72 537.56,534.79 539.60,534.92 541.64,535.10 543.68,535.33 545.72,535.60 547.76,535.90 549.80,536.23 551.84,536.58 553.88,536.94 555.92,537.31 557.96,537.67 560.00,538.02" /><polyline points="256.00,547.38 258.04,547.79 260.08,548.13 262.12,548.35 264.16,548.47 266.20,548.46 268.24,548.33 270.28,548.08 272.32,547.74 274.36,547.32 276.40,546.84 278.44,546.35 280.48,545.86 282.52,545.42 284.56,545.04 286.60,544.75 288.64,544.56 290.68,544.50 292.72,544.56 294.77,544.74 296.81,545.02 298.85,545.39 300.89,545.82 302.93,546.29 304.97,546.77 307.01,547.21 309.05,547.60 311.09,547.91 313.13,548.11 315.17,548.19 317.21,548.14 319.25,547.96 321.29,547.66 323.33,547.25 325.37,546.75 327.41,546.18 329.45,545.59 331.49,544.99 333.53,544.41 335.57,543.88 337.61,543.42 339.65,543.04 341.69,542.75 343.73,542.56 345.77,542.44 347.81,542.40 349.85,542.40 351.89,542.41 353.93,542.43 355.97,542.40 358.01,542.31 360.05,542.14 362.09,541.87 364.13,541.48 366.17,540.98 368.21,540.37 370.26,539.66 372.30,538.87 374.34,538.02 376.38,537.14 378.42,536.25 380.46,535.37 382.50,534.53 384.54,533.75 386.58,533.04 388.62,532.42 390.66,531.88 392.70,531.43 394.74,531.07 396.78,530.80 398.82,530.61 400.86,530.50 402.90,530.47 404.94,530.50 406.98,530.59 409.02,530.74 411.06,530.95 413.10,531.20 415.14,531.49 417.18,531.81 419.22,532.15 421.26,532.50 423.30,532.86 425.34,533.21 427.38,533.56 429.42,533.90 431.46,534.23 433.50,534.56 435.54,534.90 437.58,535.25 439.62,535.65 441.66,536.09 443.70,536.59 445.74,537.15 447.79,537.80 449.83,538.51 451.87,539.29 453.91,540.12 455.95,540.98 457.99,541.85 460.03,542.71 462.07,543.52 464.11,544.25 466.15,544.89 468.19,545.40 470.23,545.78 472.27,546.03 474.31,546.13 476.35,546.11 478.39,545.97 480.43,545.74 482.47,545.45 484.51,545.13 486.55,544.82 488.59,544.53 490.63,544.31 492.67,544.17 494.71,544.14 496.75,544.21 498.79,544.39 500.83,544.68 502.87,545.07 504.91,545.52 506.95,546.02 508.99,546.54 511.03,547.04 513.07,547.50 515.11,547.89 517.15,548.19 519.19,548.38 521.23,548.44 523.28,548.39 525.32,548.21 527.36,547.92 529.40,547.54 531.44,547.09 533.48,546.61 535.52,546.12 537.56,545.65 539.60,545.23 541.64,544.90 543.68,544.66 545.72,544.53 547.76,544.53 549.80,544.65 551.84,544.89 553.88,545.22 555.92,545.64 557.96,546.11 560.00,546.60" /><polyline points="256.00,555.76 258.04,555.32 260.08,554.91 262.12,554.51 264.16,554.15 266.20,553.83 268.24,553.56 270.28,553.34 272.32,553.19 274.36,553.10 276.40,553.07 278.44,553.12 280.48,553.22 282.52,553.40 284.56,553.63 286.60,553.91 288.64,554.24 290.68,554.60 292.72,555.00 294.77,555.41 296.81,555.83 298.85,556.25 300.89,556.66 302.93,557.04 304.97,557.38 307.01,557.69 309.05,557.94 311.09,558.12 313.13,558.24 315.17,558.29 317.21,558.26 319.25,558.15 321.29,557.96 323.33,557.69 325.37,557.35 327.41,556.93 329.45,556.45 331.49,555.90 333.53,555.31 335.57,554.66 337.61,553.98 339.65,553.28 341.69,552.55 343.73,551.82 345.77,551.08 347.81,550.35 349.85,549.63 351.89,548.92 353.93,548.24 355.97,547.57 358.01,546.93 360.05,546.30 362.09,545.70 364.13,545.11 366.17,544.53 368.21,543.95 370.26,543.38 372.30,542.80 374.34,542.22 376.38,541.62 378.42,541.02 380.46,540.41 382.50,539.80 384.54,539.18 386.58,538.56 388.62,537.95 390.66,537.36 392.70,536.80 394.74,536.27 396.78,535.79 398.82,535.36 400.86,534.99 402.90,534.69 404.94,534.46 406.98,534.31 409.02,534.24 411.06,534.24 413.10,534.32 415.14,534.47 417.18,534.70 419.22,534.98 421.26,535.33 423.30,535.73 425.34,536.18 427.38,536.67 429.42,537.21 431.46,537.78 433.50,538.39 435.54,539.04 437.58,539.73 439.62,540.45 441.66,541.21 443.70,542.00 445.74,542.82 447.79,543.68 449.83,544.58 451.87,545.49 453.91,546.43 455.95,547.39 457.99,548.35 460.03,549.31 462.07,550.26 464.11,551.19 466.15,552.09 468.19,552.94 470.23,553.75 472.27,554.49 474.31,555.16 476.35,555.76 478.39,556.27 480.43,556.69 482.47,557.02 484.51,557.26 486.55,557.41 488.59,557.46 490.63,557.44 492.67,557.33 494.71,557.16 496.75,556.92 498.79,556.63 500.83,556.30 502.87,555.93 504.91,555.55 506.95,555.17 508.99,554.78 511.03,554.42 513.07,554.08 515.11,553.77 517.15,553.52 519.19,553.31 521.23,553.16 523.28,553.07 525.32,553.05 527.36,553.09 529.40,553.20 531.44,553.37 533.48,553.60 535.52,553.89 537.56,554.22 539.60,554.59 541.64,554.99 543.68,555.41 545.72,555.85 547.76,556.28 549.80,556.71 551.84,557.12 553.88,557.49 555.92,557.83 557.96,558.13 560.00,558.37" /><polyline points="256.00,567.61 258.04,567.67 260.08,567.60 262.12,567.40 264.16,567.09 266.20,566.69 268.24,566.20 270.28,565.67 272.32,565.11 274.36,564.57 276.40,564.06 278.44,563.63 280.48,563.28 282.52,563.04 284.56,562.92 286.60,562.93 288.64,563.07 290.68,563.33 292.72,563.69 294.77,564.13 296.81,564.63 298.85,565.16 300.89,565.69 302.93,566.18 304.97,566.61 307.01,566.96 309.05,567.19 311.09,567.30 313.13,567.27 315.17,567.09 317.21,566.79 319.25,566.35 321.29,565.81 323.33,565.18 325.37,564.49 327.41,563.76 329.45,563.03 331.49,562.32 333.53,561.65 335.57,561.04 337.61,560.51 339.65,560.06 341.69,559.69 343.73,559.39 345.77,559.15 347.81,558.94 349.85,558.75 351.89,558.54 353.93,558.28 355.97,557.95 358.01,557.53 360.05,556.98 362.09,556.31 364.13,555.49 366.17,554.54 368.21,553.46 370.26,552.26 372.30,550.97 374.34,549.61 376.38,548.21 378.42,546.79 380.46,545.40 382.50,544.05 384.54,542.77 386.58,541.57 388.62,540.48 390.66,539.51 392.70,538.67 394.74,537.95 396.78,537.36 398.82,536.91 400.86,536.59 402.90,536.39 404.94,536.33 406.98,536.38 409.02,536.56 411.06,536.85 413.10,537.25 415.14,537.75 417.18,538.33 419.22,539.00 421.26,539.72 423.30,540.49 425.34,541.29 427.38,542.10 429.42,542.93 431.46,543.74 433.50,544.55 435.54,545.35 437.58,546.13 439.62,546.92 441.66,547.71 443.70,548.53 445.74,549.37 447.79,550.26 449.83,551.21 451.87,552.22 453.91,553.28 455.95,554.41 457.99,555.58 460.03,556.77 462.07,557.98 464.11,559.17 466.15,560.31 468.19,561.38 470.23,562.35 472.27,563.20 474.31,563.90 476.35,564.45 478.39,564.83 480.43,565.05 482.47,565.11 484.51,565.03 486.55,564.84 488.59,564.55 490.63,564.21 492.67,563.83 494.71,563.46 496.75,563.13 498.79,562.86 500.83,562.68 502.87,562.60 504.91,562.64 506.95,562.80 508.99,563.07 511.03,563.44 513.07,563.91 515.11,564.43 517.15,564.99 519.19,565.56 521.23,566.11 523.28,566.61 525.32,567.03 527.36,567.36 529.40,567.57 531.44,567.65 533.48,567.60 535.52,567.42 537.56,567.13 539.60,566.74 541.64,566.26 543.68,565.74 545.72,565.19 547.76,564.64 549.80,564.13 551.84,563.68 553.88,563.33 555.92,563.08 557.96,562.95 560.00,562.95" /><polyline points="256.00,576.09 258.04,576.56 260.08,576.95 262.12,577.24 264.16,577.42 266.20,577.49 268.24,577.45 270.28,577.28 272.32,577.01 274.36,576.64 276.40,576.19 278.44,575.68 280.48,575.12 282.52,574.55 284.56,573.97 286.60,573.43 288.64,572.94 290.68,572.52 292.72,572.18 294.77,571.95 296.81,571.83 298.85,571.82 300.89,571.92 302.93,572.12 304.97,572.42 307.01,572.80 309.05,573.24 311.09,573.71 313.13,574.20 315.17,574.67 317.21,575.10 319.25,575.46 321.29,575.74 323.33,575.90 325.37,575.94 327.41,575.83 329.45,575.58 331.49,575.18 333.53,574.63 335.57,573.94 337.61,573.13 339.65,572.19 341.69,571.17 343.73,570.07 345.77,568.91 347.81,567.73 349.85,566.53 351.89,565.34 353.93,564.18 355.97,563.04 358.01,561.94 360.05,560.88 362.09,559.86 364.13,558.87 366.17,557.90 368.21,556.95 370.26,556.00 372.30,555.04 374.34,554.05 376.38,553.05 378.42,552.01 380.46,550.94 382.50,549.84 384.54,548.72 386.58,547.60 388.62,546.48 390.66,545.39 392.70,544.33 394.74,543.34 396.78,542.43 398.82,541.61 400.86,540.89 402.90,540.30 404.94,539.84 406.98,539.52 409.02,539.33 411.06,539.30 413.10,539.41 415.14,539.66 417.18,540.07 419.22,540.62 421.26,541.32 423.30,542.16 425.34,543.14 427.38,544.25 429.42,545.49 431.46,546.85 433.50,548.32 435.54,549.87 437.58,551.50 439.62,553.17 441.66,554.87 443.70,556.56 445.74,558.22 447.79,559.83 449.83,561.34 451.87,562.75 453.91,564.03 455.95,565.16 457.99,566.15 460.03,566.97 462.07,567.64 464.11,568.16 466.15,568.56 468.19,568.84 470.23,569.03 472.27,569.15 474.31,569.24 476.35,569.31 478.39,569.39 480.43,569.51 482.47,569.68 484.51,569.91 486.55,570.22 488.59,570.61 490.63,571.08 492.67,571.61 494.71,572.21 496.75,572.85 498.79,573.52 500.83,574.19 502.87,574.85 504.91,575.47 506.95,576.03 508.99,576.51 511.03,576.90 513.07,577.17 515.11,577.33 517.15,577.36 519.19,577.28 521.23,577.08 523.28,576.77 525.32,576.37 527.36,575.89 529.40,575.36 531.44,574.80 533.48,574.23 535.52,573.68 537.56,573.18 539.60,572.73 541.64,572.37 543.68,572.10 545.72,571.94 547.76,571.90 549.80,571.98 551.84,572.17 553.88,572.46 555.92,572.85 557.96,573.32 560.00,573.84" /><polyline points="256.00,584.97 258.04,585.58 260.08,586.15 262.12,586.67 264.16,587.12 266.20,587.48 268.24,587.75 270.28,587.92 272.32,587.99 274.36,587.95 276.40,587.81 278.44,587.57 280.48,587.22 282.52,586.80 284.56,586.29 286.60,585.73 288.64,585.12 290.68,584.48 292.72,583.82 294.77,583.17 296.81,582.53 298.85,581.93 300.89,581.39 302.93,580.90 304.97,580.49 307.01,580.16 309.05,579.92 311.09,579.78 313.13,579.72 315.17,579.75 317.21,579.87 319.25,580.05 321.29,580.30 323.33,580.58 325.37,580.90 327.41,581.22 329.45,581.52 331.49,581.79 333.53,582.00 335.57,582.12 337.61,582.15 339.65,582.06 341.69,581.82 343.73,581.44 345.77,580.89 347.81,580.18 349.85,579.29 351.89,578.24 353.93,577.01 355.97,575.63 358.01,574.11 360.05,572.46 362.09,570.70 364.13,568.86 366.17,566.95 368.21,564.99 370.26,563.02 372.30,561.06 374.34,559.12 376.38,557.23 378.42,555.40 380.46,553.65 382.50,551.99 384.54,550.44 386.58,549.01 388.62,547.69 390.66,546.51 392.70,545.47 394.74,544.56 396.78,543.80 398.82,543.20 400.86,542.74 402.90,542.45 404.94,542.32 406.98,542.36 409.02,542.57 411.06,542.94 413.10,543.48 415.14,544.17 417.18,545.02 419.22,546.01 421.26,547.12 423.30,548.35 425.34,549.67 427.38,551.06 429.42,552.50 431.46,553.97 433.50,555.44 435.54,556.90 437.58,558.33 439.62,559.71 441.66,561.03 443.70,562.29 445.74,563.47 447.79,564.59 449.83,565.63 451.87,566.60 453.91,567.52 455.95,568.40 457.99,569.25 460.03,570.07 462.07,570.89 464.11,571.71 466.15,572.54 468.19,573.40 470.23,574.28 472.27,575.20 474.31,576.14 476.35,577.11 478.39,578.09 480.43,579.09 482.47,580.10 484.51,581.09 486.55,582.06 488.59,582.99 490.63,583.87 492.67,584.68 494.71,585.41 496.75,586.05 498.79,586.58 500.83,587.01 502.87,587.32 504.91,587.51 506.95,587.58 508.99,587.53 511.03,587.37 513.07,587.10 515.11,586.74 517.15,586.29 519.19,585.77 521.23,585.20 523.28,584.59 525.32,583.97 527.36,583.34 529.40,582.73 531.44,582.15 533.48,581.63 535.52,581.17 537.56,580.78 539.60,580.49 541.64,580.29 543.68,580.20 545.72,580.21 547.76,580.33 549.80,580.55 551.84,580.87 553.88,581.27 555.92,581.75 557.96,582.30 560.00,582.89" /><polyline points="256.00,590.91 258.04,590.89 260.08,590.92 262.12,591.00 264.16,591.13 266.20,591.31 268.24,591.52 270.28,591.78 272.32,592.06 274.36,592.38 276.40,592.71 278.44,593.06 280.48,593.42 282.52,593.77 284.56,594.12 286.60,594.46 288.64,594.77 290.68,595.06 292.72,595.31 294.77,595.52 296.81,595.68 298.85,595.79 300.89,595.85 302.93,595.86 304.97,595.80 307.01,595.68 309.05,595.50 311.09,595.26 313.13,594.95 315.17,594.59 317.21,594.17 319.25,593.70 321.29,593.17 323.33,592.59 325.37,591.97 327.41,591.30 329.45,590.60 331.49,589.86 333.53,589.08 335.57,588.28 337.61,587.44 339.65,586.58 341.69,585.68 343.73,584.76 345.77,583.81 347.81,582.82 349.85,581.80 351.89,580.74 353.93,579.64 355.97,578.49 358.01,577.30 360.05,576.05 362.09,574.75 364.13,573.39 366.17,571.98 368.21,570.51 370.26,568.99 372.30,567.42 374.34,565.81 376.38,564.17 378.42,562.51 380.46,560.84 382.50,559.18 384.54,557.55 386.58,555.95 388.62,554.42 390.66,552.96 392.70,551.61 394.74,550.37 396.78,549.26 398.82,548.29 400.86,547.49 402.90,546.86 404.94,546.41 406.98,546.14 409.02,546.05 411.06,546.15 413.10,546.44 415.14,546.89 417.18,547.52 419.22,548.31 421.26,549.25 423.30,550.32 425.34,551.52 427.38,552.83 429.42,554.24 431.46,555.73 433.50,557.30 435.54,558.93 437.58,560.62 439.62,562.34 441.66,564.09 443.70,565.86 445.74,567.65 447.79,569.43 449.83,571.21 451.87,572.98 453.91,574.72 455.95,576.42 457.99,578.09 460.03,579.71 462.07,581.28 464.11,582.78 466.15,584.21 468.19,585.56 470.23,586.83 472.27,588.02 474.31,589.10 476.35,590.10 478.39,590.99 480.43,591.78 482.47,592.46 484.51,593.05 486.55,593.53 488.59,593.92 490.63,594.21 492.67,594.41 494.71,594.52 496.75,594.56 498.79,594.52 500.83,594.42 502.87,594.26 504.91,594.06 506.95,593.81 508.99,593.54 511.03,593.24 513.07,592.94 515.11,592.63 517.15,592.32 519.19,592.03 521.23,591.76 523.28,591.51 525.32,591.30 527.36,591.13 529.40,591.00 531.44,590.91 533.48,590.87 535.52,590.88 537.56,590.94 539.60,591.05 541.64,591.21 543.68,591.40 545.72,591.64 547.76,591.91 549.80,592.22 551.84,592.55 553.88,592.89 555.92,593.25 557.96,593.61 560.00,593.97" /><polyline points="256.00,602.54 258.04,602.20 260.08,601.88 262.12,601.58 264.16,601.31 266.20,601.06 268.24,600.86 270.28,600.69 272.32,600.57 274.36,600.50 276.40,600.47 278.44,600.49 280.48,600.56 282.52,600.67 284.56,600.83 286.60,601.03 288.64,601.26 290.68,601.51 292.72,601.80 294.77,602.09 296.81,602.40 298.85,602.71 300.89,603.01 302.93,603.29 304.97,603.55 307.01,603.78 309.05,603.96 311.09,604.10 313.13,604.18 315.17,604.20 317.21,604.15 319.25,604.02 321.29,603.81 323.33,603.51 325.37,603.13 327.41,602.65 329.45,602.08 331.49,601.42 333.53,600.66 335.57,599.81 337.61,598.86 339.65,597.82 341.69,596.69 343.73,595.48 345.77,594.19 347.81,592.82 349.85,591.37 351.89,589.86 353.93,588.28 355.97,586.65 358.01,584.95 360.05,583.21 362.09,581.42 364.13,579.60 366.17,577.74 368.21,575.85 370.26,573.95 372.30,572.03 374.34,570.10 376.38,568.18 378.42,566.28 380.46,564.41 382.50,562.57 384.54,560.79 386.58,559.08 388.62,557.45 390.66,555.93 392.70,554.53 394.74,553.26 396.78,552.14 398.82,551.18 400.86,550.41 402.90,549.82 404.94,549.44 406.98,549.26 409.02,549.29 411.06,549.52 413.10,549.96 415.14,550.61 417.18,551.44 419.22,552.45 421.26,553.62 423.30,554.95 425.34,556.40 427.38,557.97 429.42,559.63 431.46,561.37 433.50,563.17 435.54,565.01 437.58,566.88 439.62,568.76 441.66,570.63 443.70,572.50 445.74,574.34 447.79,576.16 449.83,577.94 451.87,579.68 453.91,581.37 455.95,583.02 457.99,584.63 460.03,586.18 462.07,587.69 464.11,589.14 466.15,590.54 468.19,591.88 470.23,593.17 472.27,594.40 474.31,595.57 476.35,596.68 478.39,597.73 480.43,598.71 482.47,599.62 484.51,600.46 486.55,601.23 488.59,601.92 490.63,602.53 492.67,603.06 494.71,603.52 496.75,603.90 498.79,604.20 500.83,604.42 502.87,604.57 504.91,604.65 506.95,604.66 508.99,604.61 511.03,604.50 513.07,604.34 515.11,604.14 517.15,603.89 519.19,603.62 521.23,603.32 523.28,603.00 525.32,602.68 527.36,602.35 529.40,602.04 531.44,601.73 533.48,601.45 535.52,601.19 537.56,600.97 539.60,600.78 541.64,600.64 543.68,600.54 545.72,600.49 547.76,600.48 549.80,600.53 551.84,600.62 553.88,600.76 555.92,600.94 557.96,601.16 560.00,601.41" /><polyline points="256.00,610.72 258.04,611.55 260.08,612.42 262.12,613.28 264.16,614.09 266.20,614.82 268.24,615.43 270.28,615.89 272.32,616.17 274.36,616.27 276.40,616.18 278.44,615.90 280.48,615.45 282.52,614.85 284.56,614.12 286.60,613.30 288.64,612.42 290.68,611.54 292.72,610.68 294.77,609.89 296.81,609.21 298.85,608.66 300.89,608.26 302.93,608.04 304.97,608.00 307.01,608.13 309.05,608.42 311.09,608.85 313.13,609.40 315.17,610.01 317.21,610.66 319.25,611.30 321.29,611.88 323.33,612.35 325.37,612.68 327.41,612.82 329.45,612.74 331.49,612.43 333.53,611.87 335.57,611.05 337.61,609.98 339.65,608.66 341.69,607.14 343.73,605.43 345.77,603.56 347.81,601.58 349.85,599.53 351.89,597.43 353.93,595.32 355.97,593.22 358.01,591.17 360.05,589.17 362.09,587.23 364.13,585.35 366.17,583.51 368.21,581.72 370.26,579.94 372.30,578.17 374.34,576.39 376.38,574.58 378.42,572.74 380.46,570.87 382.50,568.96 384.54,567.03 386.58,565.10 388.62,563.19 390.66,561.32 392.70,559.52 394.74,557.84 396.78,556.28 398.82,554.90 400.86,553.70 402.90,552.71 404.94,551.94 406.98,551.42 409.02,551.15 411.06,551.13 413.10,551.37 415.14,551.88 417.18,552.64 419.22,553.66 421.26,554.94 423.30,556.47 425.34,558.24 427.38,560.24 429.42,562.45 431.46,564.85 433.50,567.41 435.54,570.11 437.58,572.89 439.62,575.71 441.66,578.54 443.70,581.31 445.74,583.99 447.79,586.54 449.83,588.90 451.87,591.06 453.91,592.99 455.95,594.67 457.99,596.12 460.03,597.33 462.07,598.33 464.11,599.15 466.15,599.82 468.19,600.38 470.23,600.87 472.27,601.34 474.31,601.83 476.35,602.36 478.39,602.97 480.43,603.68 482.47,604.49 484.51,605.40 486.55,606.41 488.59,607.50 490.63,608.64 492.67,609.81 494.71,610.96 496.75,612.06 498.79,613.08 500.83,613.97 502.87,614.71 504.91,615.28 506.95,615.65 508.99,615.81 511.03,615.77 513.07,615.53 515.11,615.11 517.15,614.53 519.19,613.83 521.23,613.04 523.28,612.20 525.32,611.36 527.36,610.55 529.40,609.82 531.44,609.20 533.48,608.73 535.52,608.42 537.56,608.30 539.60,608.36 541.64,608.62 543.68,609.04 545.72,609.62 547.76,610.33 549.80,611.13 551.84,611.99 553.88,612.86 555.92,613.70 557.96,614.48 560.00,615.15" /><polyline points="256.00,623.63 258.04,623.22 260.08,622.73 262.12,622.18 264.16,621.61 266.20,621.04 268.24,620.50 270.28,620.03 272.32,619.66 274.36,619.40 276.40,619.27 278.44,619.27 280.48,619.41 282.52,619.67 284.56,620.05 286.60,620.51 288.64,621.04 290.68,621.59 292.72,622.14 294.77,622.65 296.81,623.10 298.85,623.45 300.89,623.67 302.93,623.76 304.97,623.70 307.01,623.49 309.05,623.13 311.09,622.64 313.13,622.03 315.17,621.32 317.21,620.55 319.25,619.74 321.29,618.91 323.33,618.10 325.37,617.33 327.41,616.60 329.45,615.94 331.49,615.35 333.53,614.81 335.57,614.32 337.61,613.85 339.65,613.37 341.69,612.85 343.73,612.27 345.77,611.57 347.81,610.72 349.85,609.70 351.89,608.47 353.93,607.02 355.97,605.34 358.01,603.43 360.05,601.28 362.09,598.94 364.13,596.40 366.17,593.72 368.21,590.93 370.26,588.06 372.30,585.15 374.34,582.25 376.38,579.40 378.42,576.61 380.46,573.93 382.50,571.38 384.54,568.97 386.58,566.73 388.62,564.65 390.66,562.77 392.70,561.07 394.74,559.57 396.78,558.29 398.82,557.21 400.86,556.36 402.90,555.74 404.94,555.34 406.98,555.19 409.02,555.27 411.06,555.58 413.10,556.12 415.14,556.88 417.18,557.85 419.22,559.02 421.26,560.36 423.30,561.88 425.34,563.54 427.38,565.35 429.42,567.30 431.46,569.36 433.50,571.55 435.54,573.85 437.58,576.25 439.62,578.76 441.66,581.35 443.70,584.02 445.74,586.74 447.79,589.50 449.83,592.26 451.87,595.00 453.91,597.67 455.95,600.25 457.99,602.70 460.03,604.99 462.07,607.08 464.11,608.95 466.15,610.58 468.19,611.98 470.23,613.13 472.27,614.06 474.31,614.77 476.35,615.30 478.39,615.69 480.43,615.95 482.47,616.14 484.51,616.30 486.55,616.45 488.59,616.63 490.63,616.87 492.67,617.19 494.71,617.58 496.75,618.07 498.79,618.64 500.83,619.27 502.87,619.95 504.91,620.66 506.95,621.36 508.99,622.03 511.03,622.63 513.07,623.15 515.11,623.55 517.15,623.82 519.19,623.95 521.23,623.93 523.28,623.78 525.32,623.49 527.36,623.10 529.40,622.61 531.44,622.07 533.48,621.51 535.52,620.95 537.56,620.42 539.60,619.97 541.64,619.62 543.68,619.38 545.72,619.27 547.76,619.30 549.80,619.46 551.84,619.75 553.88,620.14 555.92,620.63 557.96,621.18 560.00,621.75" /><polyline points="256.00,630.03 258.04,629.81 260.08,629.67 262.12,629.62 264.16,629.67 266.20,629.82 268.24,630.05 270.28,630.34 272.32,630.69 274.36,631.06 276.40,631.43 278.44,631.78 280.48,632.08 282.52,632.31 284.56,632.46 286.60,632.51 288.64,632.46 290.68,632.31 292.72,632.08 294.77,631.76 296.81,631.38 298.85,630.97 300.89,630.53 302.93,630.11 304.97,629.71 307.01,629.35 309.05,629.06 311.09,628.84 313.13,628.69 315.17,628.60 317.21,628.57 319.25,628.57 321.29,628.58 323.33,628.58 325.37,628.53 327.41,628.41 329.45,628.17 331.49,627.80 333.53,627.28 335.57,626.57 337.61,625.68 339.65,624.60 341.69,623.32 343.73,621.86 345.77,620.23 347.81,618.44 349.85,616.52 351.89,614.49 353.93,612.37 355.97,610.17 358.01,607.92 360.05,605.62 362.09,603.28 364.13,600.90 366.17,598.49 368.21,596.04 370.26,593.55 372.30,591.02 374.34,588.45 376.38,585.84 378.42,583.20 380.46,580.56 382.50,577.91 384.54,575.30 386.58,572.75 388.62,570.28 390.66,567.94 392.70,565.75 394.74,563.75 396.78,561.97 398.82,560.44 400.86,559.17 402.90,558.19 404.94,557.51 406.98,557.14 409.02,557.09 411.06,557.36 413.10,557.94 415.14,558.84 417.18,560.04 419.22,561.53 421.26,563.29 423.30,565.29 425.34,567.52 427.38,569.93 429.42,572.50 431.46,575.19 433.50,577.96 435.54,580.77 437.58,583.59 439.62,586.39 441.66,589.13 443.70,591.80 445.74,594.38 447.79,596.86 449.83,599.24 451.87,601.53 453.91,603.73 455.95,605.85 457.99,607.90 460.03,609.89 462.07,611.83 464.11,613.73 466.15,615.58 468.19,617.37 470.23,619.10 472.27,620.75 474.31,622.31 476.35,623.75 478.39,625.07 480.43,626.23 482.47,627.24 484.51,628.07 486.55,628.74 488.59,629.23 490.63,629.56 492.67,629.75 494.71,629.82 496.75,629.78 498.79,629.68 500.83,629.54 502.87,629.39 504.91,629.26 506.95,629.17 508.99,629.14 511.03,629.19 513.07,629.31 515.11,629.52 517.15,629.79 519.19,630.13 521.23,630.51 523.28,630.92 525.32,631.32 527.36,631.70 529.40,632.02 531.44,632.28 533.48,632.46 535.52,632.54 537.56,632.52 539.60,632.41 541.64,632.21 543.68,631.93 545.72,631.60 547.76,631.23 549.80,630.86 551.84,630.49 553.88,630.17 555.92,629.91 557.96,629.73 560.00,629.64" /><polyline points="256.00,640.13 258.04,640.57 260.08,641.00 262.12,641.41 264.16,641.76 266.20,642.05 268.24,642.24 270.28,642.34 272.32,642.34 274.36,642.23 276.40,642.02 278.44,641.73 280.48,641.36 282.52,640.95 284.56,640.50 286.60,640.05 288.64,639.62 290.68,639.22 292.72,638.89 294.77,638.63 296.81,638.46 298.85,638.38 300.89,638.40 302.93,638.50 304.97,638.68 307.01,638.91 309.05,639.17 311.09,639.45 313.13,639.70 315.17,639.91 317.21,640.04 319.25,640.07 321.29,639.97 323.33,639.72 325.37,639.32 327.41,638.74 329.45,638.00 331.49,637.08 333.53,636.00 335.57,634.77 337.61,633.40 339.65,631.92 341.69,630.33 343.73,628.65 345.77,626.90 347.81,625.09 349.85,623.23 351.89,621.32 353.93,619.35 355.97,617.33 358.01,615.24 360.05,613.08 362.09,610.83 364.13,608.47 366.17,606.01 368.21,603.43 370.26,600.74 372.30,597.93 374.34,595.03 376.38,592.04 378.42,589.00 380.46,585.93 382.50,582.88 384.54,579.86 386.58,576.94 388.62,574.14 390.66,571.50 392.70,569.07 394.74,566.87 396.78,564.94 398.82,563.29 400.86,561.96 402.90,560.95 404.94,560.27 406.98,559.94 409.02,559.96 411.06,560.33 413.10,561.04 415.14,562.08 417.18,563.44 419.22,565.11 421.26,567.06 423.30,569.26 425.34,571.69 427.38,574.31 429.42,577.08 431.46,579.96 433.50,582.92 435.54,585.92 437.58,588.92 439.62,591.90 441.66,594.82 443.70,597.66 445.74,600.42 447.79,603.09 449.83,605.66 451.87,608.13 453.91,610.51 455.95,612.82 457.99,615.05 460.03,617.23 462.07,619.35 464.11,621.41 466.15,623.42 468.19,625.38 470.23,627.27 472.27,629.07 474.31,630.79 476.35,632.39 478.39,633.86 480.43,635.18 482.47,636.35 484.51,637.34 486.55,638.15 488.59,638.79 490.63,639.24 492.67,639.53 494.71,639.68 496.75,639.69 498.79,639.59 500.83,639.42 502.87,639.20 504.91,638.96 506.95,638.72 508.99,638.52 511.03,638.38 513.07,638.31 515.11,638.32 517.15,638.43 519.19,638.62 521.23,638.90 523.28,639.25 525.32,639.66 527.36,640.10 529.40,640.56 531.44,641.00 533.48,641.42 535.52,641.77 537.56,642.05 539.60,642.25 541.64,642.34 543.68,642.33 545.72,642.22 547.76,642.01 549.80,641.71 551.84,641.35 553.88,640.94 555.92,640.50 557.96,640.07 560.00,639.65" /><polyline points="256.00,651.64 258.04,652.19 260.08,652.65 262.12,653.02 264.16,653.26 266.20,653.39 268.24,653.38 270.28,653.24 272.32,652.98 274.36,652.60 276.40,652.12 278.44,651.56 280.48,650.93 282.52,650.26 284.56,649.58 286.60,648.90 288.64,648.25 290.68,647.65 292.72,647.13 294.77,646.70 296.81,646.37 298.85,646.16 300.89,646.06 302.93,646.08 304.97,646.21 307.01,646.43 309.05,646.74 311.09,647.11 313.13,647.51 315.17,647.93 317.21,648.32 319.25,648.67 321.29,648.93 323.33,649.08 325.37,649.09 327.41,648.93 329.45,648.58 331.49,648.02 333.53,647.24 335.57,646.23 337.61,644.98 339.65,643.51 341.69,641.80 343.73,639.89 345.77,637.77 347.81,635.48 349.85,633.02 351.89,630.43 353.93,627.73 355.97,624.93 358.01,622.06 360.05,619.13 362.09,616.17 364.13,613.18 366.17,610.18 368.21,607.17 370.26,604.17 372.30,601.17 374.34,598.18 376.38,595.22 378.42,592.28 380.46,589.39 382.50,586.54 384.54,583.76 386.58,581.07 388.62,578.48 390.66,576.03 392.70,573.75 394.74,571.65 396.78,569.77 398.82,568.14 400.86,566.77 402.90,565.68 404.94,564.90 406.98,564.44 409.02,564.29 411.06,564.47 413.10,564.96 415.14,565.77 417.18,566.89 419.22,568.29 421.26,569.97 423.30,571.91 425.34,574.09 427.38,576.51 429.42,579.13 431.46,581.95 433.50,584.95 435.54,588.10 437.58,591.39 439.62,594.80 441.66,598.30 443.70,601.85 445.74,605.45 447.79,609.04 449.83,612.60 451.87,616.10 453.91,619.49 455.95,622.74 457.99,625.82 460.03,628.71 462.07,631.37 464.11,633.78 466.15,635.94 468.19,637.82 470.23,639.44 472.27,640.79 474.31,641.88 476.35,642.74 478.39,643.39 480.43,643.85 482.47,644.15 484.51,644.34 486.55,644.43 488.59,644.46 490.63,644.47 492.67,644.49 494.71,644.54 496.75,644.64 498.79,644.82 500.83,645.08 502.87,645.42 504.91,645.86 506.95,646.38 508.99,646.98 511.03,647.64 513.07,648.35 515.11,649.09 517.15,649.82 519.19,650.54 521.23,651.22 523.28,651.84 525.32,652.37 527.36,652.80 529.40,653.11 531.44,653.30 533.48,653.36 535.52,653.28 537.56,653.08 539.60,652.76 541.64,652.32 543.68,651.80 545.72,651.21 547.76,650.56 549.80,649.89 551.84,649.22 553.88,648.58 555.92,647.98 557.96,647.45 560.00,647.02" /><polyline points="256.00,660.72 258.04,660.85 260.08,660.92 262.12,660.95 264.16,660.93 266.20,660.86 268.24,660.74 270.28,660.57 272.32,660.36 274.36,660.12 276.40,659.86 278.44,659.57 280.48,659.27 282.52,658.97 284.56,658.68 286.60,658.40 288.64,658.14 290.68,657.91 292.72,657.71 294.77,657.55 296.81,657.43 298.85,657.35 300.89,657.30 302.93,657.29 304.97,657.31 307.01,657.35 309.05,657.41 311.09,657.47 313.13,657.52 315.17,657.55 317.21,657.55 319.25,657.50 321.29,657.37 323.33,657.17 325.37,656.87 327.41,656.46 329.45,655.92 331.49,655.24 333.53,654.41 335.57,653.42 337.61,652.26 339.65,650.92 341.69,649.40 343.73,647.70 345.77,645.82 347.81,643.75 349.85,641.51 351.89,639.10 353.93,636.52 355.97,633.79 358.01,630.92 360.05,627.91 362.09,624.79 364.13,621.57 366.17,618.26 368.21,614.88 370.26,611.45 372.30,607.99 374.34,604.51 376.38,601.04 378.42,597.60 380.46,594.22 382.50,590.91 384.54,587.71 386.58,584.65 388.62,581.74 390.66,579.02 392.70,576.52 394.74,574.26 396.78,572.27 398.82,570.57 400.86,569.19 402.90,568.13 404.94,567.43 406.98,567.07 409.02,567.08 411.06,567.44 413.10,568.16 415.14,569.22 417.18,570.61 419.22,572.31 421.26,574.31 423.30,576.57 425.34,579.08 427.38,581.80 429.42,584.71 431.46,587.78 433.50,590.97 435.54,594.27 437.58,597.65 439.62,601.08 441.66,604.53 443.70,607.99 445.74,611.44 447.79,614.85 449.83,618.22 451.87,621.51 453.91,624.71 455.95,627.82 457.99,630.81 460.03,633.67 462.07,636.40 464.11,638.97 466.15,641.39 468.19,643.64 470.23,645.71 472.27,647.61 474.31,649.33 476.35,650.87 478.39,652.23 480.43,653.41 482.47,654.43 484.51,655.28 486.55,655.98 488.59,656.54 490.63,656.98 492.67,657.29 494.71,657.51 496.75,657.64 498.79,657.69 500.83,657.70 502.87,657.66 504.91,657.60 506.95,657.53 508.99,657.45 511.03,657.39 513.07,657.35 515.11,657.33 517.15,657.35 519.19,657.41 521.23,657.51 523.28,657.65 525.32,657.82 527.36,658.03 529.40,658.28 531.44,658.55 533.48,658.83 535.52,659.13 537.56,659.43 539.60,659.72 541.64,660.00 543.68,660.25 545.72,660.47 547.76,660.66 549.80,660.80 551.84,660.90 553.88,660.95 555.92,660.95 557.96,660.89 560.00,660.79" /><polyline points="256.00,668.84 258.04,669.41 260.08,669.95 262.12,670.46 264.16,670.91 266.20,671.30 268.24,671.61 270.28,671.83 272.32,671.95 274.36,671.98 276.40,671.90 278.44,671.73 280.48,671.46 282.52,671.11 284.56,670.68 286.60,670.19 288.64,669.64 290.68,669.06 292.72,668.46 294.77,667.85 296.81,667.25 298.85,666.68 300.89,666.14 302.93,665.65 304.97,665.23 307.01,664.87 309.05,664.57 311.09,664.34 313.13,664.18 315.17,664.08 317.21,664.02 319.25,663.99 321.29,663.97 323.33,663.95 325.37,663.90 327.41,663.79 329.45,663.61 331.49,663.31 333.53,662.89 335.57,662.30 337.61,661.53 339.65,660.55 341.69,659.34 343.73,657.89 345.77,656.19 347.81,654.23 349.85,652.00 351.89,649.51 353.93,646.77 355.97,643.79 358.01,640.58 360.05,637.17 362.09,633.58 364.13,629.84 366.17,625.97 368.21,622.01 370.26,618.00 372.30,613.96 374.34,609.93 376.38,605.94 378.42,602.02 380.46,598.21 382.50,594.52 384.54,591.00 386.58,587.67 388.62,584.55 390.66,581.67 392.70,579.05 394.74,576.72 396.78,574.70 398.82,573.01 400.86,571.67 402.90,570.69 404.94,570.09 406.98,569.87 409.02,570.04 411.06,570.59 413.10,571.53 415.14,572.84 417.18,574.49 419.22,576.48 421.26,578.78 423.30,581.35 425.34,584.15 427.38,587.16 429.42,590.34 431.46,593.65 433.50,597.05 435.54,600.51 437.58,604.00 439.62,607.49 441.66,610.95 443.70,614.37 445.74,617.74 447.79,621.03 449.83,624.25 451.87,627.38 453.91,630.42 455.95,633.38 457.99,636.26 460.03,639.04 462.07,641.74 464.11,644.35 466.15,646.87 468.19,649.30 470.23,651.63 472.27,653.86 474.31,655.97 476.35,657.97 478.39,659.84 480.43,661.57 482.47,663.15 484.51,664.58 486.55,665.85 488.59,666.96 490.63,667.89 492.67,668.66 494.71,669.26 496.75,669.69 498.79,669.96 500.83,670.09 502.87,670.08 504.91,669.95 506.95,669.71 508.99,669.38 511.03,668.98 513.07,668.54 515.11,668.06 517.15,667.57 519.19,667.10 521.23,666.65 523.28,666.25 525.32,665.91 527.36,665.64 529.40,665.45 531.44,665.36 533.48,665.36 535.52,665.46 537.56,665.65 539.60,665.93 541.64,666.29 543.68,666.72 545.72,667.21 547.76,667.74 549.80,668.30 551.84,668.87 553.88,669.44 555.92,669.98 557.96,670.49 560.00,670.94" /><polyline points="256.00,677.18 258.04,677.70 260.08,678.25 262.12,678.79 264.16,679.28 266.20,679.68 268.24,679.96 270.28,680.11 272.32,680.11 274.36,679.97 276.40,679.68 278.44,679.28 280.48,678.78 282.52,678.23 284.56,677.67 286.60,677.12 288.64,676.64 290.68,676.25 292.72,675.98 294.77,675.84 296.81,675.84 298.85,675.97 300.89,676.21 302.93,676.55 304.97,676.94 307.01,677.34 309.05,677.72 311.09,678.02 313.13,678.20 315.17,678.23 317.21,678.07 319.25,677.72 321.29,677.16 323.33,676.38 325.37,675.42 327.41,674.27 329.45,672.97 331.49,671.54 333.53,670.03 335.57,668.44 337.61,666.82 339.65,665.16 341.69,663.49 343.73,661.78 345.77,660.04 347.81,658.24 349.85,656.34 351.89,654.32 353.93,652.13 355.97,649.74 358.01,647.12 360.05,644.24 362.09,641.10 364.13,637.68 366.17,634.02 368.21,630.12 370.26,626.03 372.30,621.78 374.34,617.45 376.38,613.07 378.42,608.71 380.46,604.43 382.50,600.29 384.54,596.32 386.58,592.57 388.62,589.08 390.66,585.89 392.70,583.00 394.74,580.45 396.78,578.26 398.82,576.43 400.86,574.98 402.90,573.92 404.94,573.25 406.98,572.98 409.02,573.09 411.06,573.60 413.10,574.48 415.14,575.73 417.18,577.32 419.22,579.24 421.26,581.46 423.30,583.96 425.34,586.72 427.38,589.72 429.42,592.94 431.46,596.36 433.50,599.96 435.54,603.73 437.58,607.65 439.62,611.69 441.66,615.84 443.70,620.06 445.74,624.30 447.79,628.54 449.83,632.72 451.87,636.78 453.91,640.69 455.95,644.40 457.99,647.85 460.03,651.03 462.07,653.90 464.11,656.45 466.15,658.69 468.19,660.63 470.23,662.30 472.27,663.73 474.31,664.97 476.35,666.06 478.39,667.05 480.43,667.98 482.47,668.89 484.51,669.81 486.55,670.76 488.59,671.74 490.63,672.75 492.67,673.78 494.71,674.80 496.75,675.79 498.79,676.71 500.83,677.54 502.87,678.23 504.91,678.78 506.95,679.15 508.99,679.34 511.03,679.37 513.07,679.22 515.11,678.94 517.15,678.55 519.19,678.08 521.23,677.59 523.28,677.10 525.32,676.67 527.36,676.32 529.40,676.09 531.44,675.99 533.48,676.04 535.52,676.23 537.56,676.55 539.60,676.98 541.64,677.49 543.68,678.04 545.72,678.59 547.76,679.11 549.80,679.55 551.84,679.88 553.88,680.08 555.92,680.14 557.96,680.05 560.00,679.82" /><polyline points="256.00,684.48 258.04,684.51 260.08,684.66 262.12,684.93 264.16,685.32 266.20,685.79 268.24,686.33 270.28,686.93 272.32,687.55 274.36,688.16 276.40,688.74 278.44,689.27 280.48,689.72 282.52,690.07 284.56,690.30 286.60,690.41 288.64,690.39 290.68,690.23 292.72,689.94 294.77,689.53 296.81,689.02 298.85,688.41 300.89,687.74 302.93,687.02 304.97,686.28 307.01,685.53 309.05,684.81 311.09,684.12 313.13,683.49 315.17,682.92 317.21,682.42 319.25,681.99 321.29,681.62 323.33,681.30 325.37,681.00 327.41,680.71 329.45,680.39 331.49,680.00 333.53,679.52 335.57,678.91 337.61,678.12 339.65,677.12 341.69,675.89 343.73,674.39 345.77,672.59 347.81,670.50 349.85,668.09 351.89,665.36 353.93,662.33 355.97,659.02 358.01,655.43 360.05,651.60 362.09,647.56 364.13,643.35 366.17,639.01 368.21,634.58 370.26,630.09 372.30,625.58 374.34,621.10 376.38,616.68 378.42,612.35 380.46,608.15 382.50,604.09 384.54,600.21 386.58,596.54 388.62,593.10 390.66,589.91 392.70,587.01 394.74,584.41 396.78,582.13 398.82,580.21 400.86,578.67 402.90,577.51 404.94,576.75 406.98,576.41 409.02,576.48 411.06,576.97 413.10,577.87 415.14,579.17 417.18,580.85 419.22,582.88 421.26,585.24 423.30,587.90 425.34,590.83 427.38,594.01 429.42,597.39 431.46,600.97 433.50,604.70 435.54,608.56 437.58,612.54 439.62,616.61 441.66,620.74 443.70,624.93 445.74,629.15 447.79,633.38 449.83,637.59 451.87,641.75 453.91,645.85 455.95,649.85 457.99,653.73 460.03,657.44 462.07,660.96 464.11,664.26 466.15,667.32 468.19,670.11 470.23,672.62 472.27,674.84 474.31,676.75 476.35,678.37 478.39,679.71 480.43,680.77 482.47,681.58 484.51,682.17 486.55,682.57 488.59,682.82 490.63,682.94 492.67,682.98 494.71,682.97 496.75,682.95 498.79,682.95 500.83,682.99 502.87,683.09 504.91,683.28 506.95,683.55 508.99,683.91 511.03,684.37 513.07,684.90 515.11,685.50 517.15,686.15 519.19,686.82 521.23,687.50 523.28,688.16 525.32,688.77 527.36,689.32 529.40,689.78 531.44,690.13 533.48,690.37 535.52,690.47 537.56,690.45 539.60,690.29 541.64,690.02 543.68,689.63 545.72,689.16 547.76,688.61 549.80,688.01 551.84,687.39 553.88,686.78 555.92,686.19 557.96,685.66 560.00,685.21" /><polyline points="256.00,695.08 258.04,695.62 260.08,696.22 262.12,696.83 264.16,697.45 266.20,698.05 268.24,698.61 270.28,699.10 272.32,699.51 274.36,699.82 276.40,700.02 278.44,700.10 280.48,700.07 282.52,699.91 284.56,699.63 286.60,699.25 288.64,698.77 290.68,698.21 292.72,697.59 294.77,696.93 296.81,696.25 298.85,695.56 300.89,694.90 302.93,694.27 304.97,693.70 307.01,693.19 309.05,692.76 311.09,692.41 313.13,692.13 315.17,691.92 317.21,691.78 319.25,691.67 321.29,691.59 323.33,691.51 325.37,691.39 327.41,691.21 329.45,690.93 331.49,690.52 333.53,689.95 335.57,689.17 337.61,688.17 339.65,686.91 341.69,685.38 343.73,683.55 345.77,681.41 347.81,678.97 349.85,676.21 351.89,673.15 353.93,669.81 355.97,666.19 358.01,662.33 360.05,658.25 362.09,653.99 364.13,649.58 366.17,645.05 368.21,640.44 370.26,635.79 372.30,631.88 374.34,629.25 376.38,626.68 378.42,624.19 380.46,621.82 382.50,619.59 384.54,617.54 386.58,615.69 388.62,614.07 390.66,612.72 392.70,611.65 394.74,610.90" /><polyline points="256.00,704.78 258.04,705.09 260.08,705.42 262.12,705.79 264.16,706.16 266.20,706.54 268.24,706.91 270.28,707.26 272.32,707.59 274.36,707.88 276.40,708.13 278.44,708.33 280.48,708.47 282.52,708.55 284.56,708.57 286.60,708.52 288.64,708.41 290.68,708.23 292.72,707.99 294.77,707.69 296.81,707.33 298.85,706.93 300.89,706.48 302.93,706.00 304.97,705.48 307.01,704.93 309.05,704.37 311.09,703.79 313.13,703.20 315.17,702.60 317.21,701.98 319.25,701.35 321.29,700.70 323.33,700.03 325.37,699.33 327.41,698.58 329.45,697.78 331.49,696.90 333.53,695.94 335.57,694.86 337.61,693.66 339.65,692.31 341.69,690.79 343.73,689.07 345.77,687.15 347.81,685.00 349.85,682.61 351.89,679.96 353.93,677.05 355.97,673.87 358.01,670.43 360.05,666.63 362.09,662.54 364.13,658.26 366.17,653.81 368.21,649.21 370.26,644.49 372.30,640.43 374.34,637.56 376.38,634.66 378.42,631.74 380.46,628.82 382.50,626.00 384.54,623.33 386.58,620.87 388.62,618.64 390.66,616.71 392.70,615.11 394.74,613.88" /></g><g id="03_Gold_Wall" inkscape:groupmode="layer" inkscape:label="03_Gold_Wall" stroke="#B8960C" fill="none" stroke-width="1.12" stroke-linecap="round" stroke-linejoin="round"><line x1="363.09" y1="383.52" x2="363.09" y2="388.49" /><line x1="394.65" y1="452.49" x2="394.65" y2="463.37" /><line x1="352.23" y1="363.68" x2="352.23" y2="367.55" /><line x1="389.73" y1="444.02" x2="389.73" y2="454.02" /><line x1="475.77" y1="349.06" x2="475.77" y2="352.35" /><line x1="355.17" y1="368.44" x2="355.17" y2="372.54" /><line x1="426.34" y1="443.88" x2="426.34" y2="453.87" /><line x1="397.14" y1="455.95" x2="397.14" y2="467.18" /><line x1="361.74" y1="380.75" x2="361.74" y2="385.55" /><line x1="407.26" y1="462.97" x2="407.26" y2="474.96" /><line x1="481.27" y1="344.68" x2="481.27" y2="347.84" /><line x1="477.72" y1="347.36" x2="477.72" y2="350.59" /><line x1="399.02" y1="458.13" x2="399.02" y2="469.60" /><line x1="432.47" y1="430.98" x2="432.47" y2="439.72" /><line x1="454.29" y1="380.68" x2="454.29" y2="385.47" /><line x1="411.12" y1="462.40" x2="411.12" y2="474.34" /><line x1="449.44" y1="391.04" x2="449.44" y2="396.52" /><line x1="429.17" y1="438.18" x2="429.17" y2="447.61" /><line x1="372.37" y1="404.51" x2="372.37" y2="410.98" /><line x1="399.35" y1="458.47" x2="399.35" y2="469.98" /><line x1="418.23" y1="456.71" x2="418.23" y2="468.03" /><line x1="476.92" y1="348.04" x2="476.92" y2="351.29" /><line x1="404.06" y1="462.05" x2="404.06" y2="473.94" /><line x1="366.26" y1="390.38" x2="366.26" y2="395.81" /><line x1="398.00" y1="456.99" x2="398.00" y2="468.34" /><line x1="418.87" y1="455.92" x2="418.87" y2="467.16" /><line x1="334.21" y1="344.33" x2="334.21" y2="347.48" /><line x1="465.74" y1="360.76" x2="465.74" y2="364.50" /><line x1="417.78" y1="457.25" x2="417.78" y2="468.63" /><line x1="454.07" y1="381.13" x2="454.07" y2="385.96" /><line x1="346.55" y1="355.82" x2="346.55" y2="359.35" /><line x1="392.45" y1="448.94" x2="392.45" y2="459.45" /><line x1="458.13" y1="373.22" x2="458.13" y2="377.58" /><line x1="450.05" y1="389.69" x2="450.05" y2="395.08" /><line x1="403.35" y1="461.67" x2="403.35" y2="473.53" /><line x1="367.61" y1="652.59" x2="367.61" y2="646.95" /><line x1="335.82" y1="700.55" x2="335.82" y2="697.37" /><line x1="399.55" y1="587.32" x2="399.55" y2="575.79" /><line x1="369.47" y1="648.31" x2="369.47" y2="642.36" /><line x1="397.25" y1="589.91" x2="397.25" y2="578.66" /><line x1="436.94" y1="625.44" x2="436.94" y2="617.65" /><line x1="430.84" y1="611.39" x2="430.84" y2="602.31" /><line x1="459.78" y1="675.74" x2="459.78" y2="671.54" /><line x1="433.74" y1="617.93" x2="433.74" y2="609.46" /><line x1="407.24" y1="583.04" x2="407.24" y2="571.04" /><line x1="477.80" y1="698.71" x2="477.80" y2="695.47" /><line x1="475.59" y1="696.77" x2="475.59" y2="693.48" /><line x1="370.83" y1="645.13" x2="370.83" y2="638.94" /><line x1="406.93" y1="583.07" x2="406.93" y2="571.08" /><line x1="382.92" y1="616.42" x2="382.92" y2="607.81" /><line x1="387.92" y1="605.56" x2="387.92" y2="595.91" /><line x1="373.65" y1="638.43" x2="373.65" y2="631.72" /><line x1="353.75" y1="679.92" x2="353.75" y2="675.94" /><line x1="403.93" y1="584.02" x2="403.93" y2="572.13" /><line x1="480.10" y1="700.50" x2="480.10" y2="697.32" /><line x1="382.53" y1="617.29" x2="382.53" y2="608.77" /><line x1="482.90" y1="702.38" x2="482.90" y2="699.25" /><line x1="343.43" y1="693.77" x2="343.43" y2="690.38" /><line x1="380.22" y1="622.69" x2="380.22" y2="614.65" /><line x1="359.37" y1="669.95" x2="359.37" y2="665.43" /><line x1="419.32" y1="590.65" x2="419.32" y2="579.48" /><line x1="382.72" y1="616.87" x2="382.72" y2="608.30" /><line x1="400.34" y1="586.56" x2="400.34" y2="574.95" /><line x1="452.42" y1="661.44" x2="452.42" y2="656.39" /><line x1="466.33" y1="686.07" x2="466.33" y2="682.38" /><line x1="346.60" y1="690.11" x2="346.60" y2="686.58" /><line x1="360.41" y1="667.92" x2="360.41" y2="663.28" /><line x1="483.56" y1="702.78" x2="483.56" y2="699.66" /><line x1="449.75" y1="655.64" x2="449.75" y2="650.22" /><line x1="478.85" y1="699.55" x2="478.85" y2="696.35" /><line x1="416.45" y1="587.32" x2="416.45" y2="575.79" /><line x1="369.90" y1="647.31" x2="369.90" y2="641.29" /><line x1="404.26" y1="583.86" x2="404.26" y2="571.95" /><line x1="483.10" y1="702.50" x2="483.10" y2="699.37" /><line x1="481.50" y1="701.48" x2="481.50" y2="698.32" /><line x1="385.66" y1="610.30" x2="385.66" y2="601.12" /><line x1="470.37" y1="691.29" x2="470.37" y2="687.80" /><line x1="365.46" y1="657.40" x2="365.46" y2="652.09" /><line x1="408.00" y1="463.00" x2="408.00" y2="469.00" /><line x1="408.00" y1="475.00" x2="408.00" y2="481.00" /><line x1="408.00" y1="511.00" x2="408.00" y2="517.00" /><line x1="408.00" y1="523.00" x2="408.00" y2="529.00" /><line x1="408.00" y1="535.00" x2="408.00" y2="541.00" /><line x1="408.00" y1="547.00" x2="408.00" y2="553.00" /><line x1="408.00" y1="559.00" x2="408.00" y2="565.00" /><line x1="408.00" y1="571.00" x2="408.00" y2="577.00" /><line x1="515.79" y1="646.93" x2="519.79" y2="650.93" /><line x1="519.79" y1="646.93" x2="515.79" y2="650.93" /><line x1="517.30" y1="636.71" x2="521.30" y2="640.71" /><line x1="521.30" y1="636.71" x2="517.30" y2="640.71" /><line x1="510.66" y1="408.60" x2="514.66" y2="412.60" /><line x1="514.66" y1="408.60" x2="510.66" y2="412.60" /><line x1="506.42" y1="573.96" x2="510.42" y2="577.96" /><line x1="510.42" y1="573.96" x2="506.42" y2="577.96" /><line x1="509.42" y1="519.29" x2="513.42" y2="523.29" /><line x1="513.42" y1="519.29" x2="509.42" y2="523.29" /><line x1="477.76" y1="558.40" x2="481.76" y2="562.40" /><line x1="481.76" y1="558.40" x2="477.76" y2="562.40" /></g></svg>