<?xml version='1.0' encoding='utf-8'?>
<svg xmlns="http://www.w3.org/2000/svg" xmlns:inkscape="http://www.inkscape.org/namespaces/inkscape" viewBox="204 228 408 600"><style>*{vector-effect:non-scaling-stroke}</style><g id="01_Black_Frame" inkscape:groupmode="layer" inkscape:label="01_Black_Frame" stroke="#1A1A1A" fill="none" stroke-width="0.875" stroke-linecap="round" stroke-linejoin="round"><path d="M 250.0,264.0 L 566.0,264.0 Q 576.0,264.0 576.0,274.0 L 576.0,782.0 Q 576.0,792.0 566.0,792.0 L 250.0,792.0 Q 240.0,792.0 240.0,782.0 L 240.0,274.0 Q 240.0,264.0 250.0,264.0" /><path d="M 253.0,270.0 L 563.0,270.0 Q 570.0,270.0 570.0,277.0 L 570.0,779.0 Q 570.0,786.0 563.0,786.0 L 253.0,786.0 Q 246.0,786.0 246.0,779.0 L 246.0,277.0 Q 246.0,270.0 253.0,270.0" /><line x1="259.0" y1="280.0" x2="263.0" y2="280.0" /><line x1="258.1" y1="282.1" x2="260.9" y2="284.9" /><line x1="256.0" y1="283.0" x2="256.0" y2="287.0" /><line x1="253.9" y1="282.1" x2="251.1" y2="284.9" /><line x1="253.0" y1="280.0" x2="249.0" y2="280.0" /><line x1="253.9" y1="277.9" x2="251.1" y2="275.1" /><line x1="256.0" y1="277.0" x2="256.0" y2="273.0" /><line x1="258.1" y1="277.9" x2="260.9" y2="275.1" /><line x1="563.0" y1="280.0" x2="567.0" y2="280.0" /><line x1="562.1" y1="282.1" x2="564.9" y2="284.9" /><line x1="560.0" y1="283.0" x2="560.0" y2="287.0" /><line x1="557.9" y1="282.1" x2="555.1" y2="284.9" /><line x1="557.0" y1="280.0" x2="553.0" y2="280.0" /><line x1="557.9" y1="277.9" x2="555.1" y2="275.1" /><line x1="560.0" y1="277.0" x2="560.0" y2="273.0" /><line x1="562.1" y1="277.9" x2="564.9" y2="275.1" /><line x1="259.0" y1="776.0" x2="263.0" y2="776.0" /><line x1="258.1" y1="778.1" x2="260.9" y2="780.9" /><line x1="256.0" y1="779.0" x2="256.0" y2="783.0" /><line x1="253.9" y1="778.1" x2="251.1" y2="780.9" /><line x1="253.0" y1="776.0" x2="249.0" y2="776.0" /><line x1="253.9" y1="773.9" x2="251.1" y2="771.1" /><line x1="256.0" y1="773.0" x2="256.0" y2="769.0" /><line x1="258.1" y1="773.9" x2="260.9" y2="771.1" /><line x1="563.0" y1="776.0" x2="567.0" y2="776.0" /><line x1="562.1" y1="778.1" x2="564.9" y2="780.9" /><line x1="560.0" y1="779.0" x2="560.0" y2="783.0" /><line x1="557.9" y1="778.1" x2="555.1" y2="780.9" /><line x1="557.0" y1="776.0" x2="553.0" y2="776.0" /><line x1="557.9" y1="773.9" x2="555.1" y2="771.1" /><line x1="560.0" y1="773.0" x2="560.0" y2="769.0" /><line x1="562.1" y1="773.9" x2="564.9" y2="771.1" /><polyline points="395.25,283.20 393.50,282.00 392.50,282.00 390.75,283.60 390.75,288.40 392.50,290.00 393.50,290.00 395.25,288.80" /><polyline points="396.50,282.00 396.50,290.00 400.75,290.00" /><polyline points="402.25,282.00 407.25,290.00" /><polyline points="407.25,282.00 402.25,290.00" /><polyline points="410.50,282.00 410.50,290.00" /><polyline points="416.25,282.00 416.25,290.00" /><polyline points="422.00,282.00 422.00,290.00" /><polyline points="363.15,297.00 369.65,297.00" /><polyline points="366.40,297.00 366.40,307.00" /><polyline points="370.62,297.00 370.62,307.00" /><polyline points="377.12,297.00 377.12,307.00" /><polyline points="370.62,301.80 377.12,301.80" /><polyline points="383.62,297.00 378.10,297.00 378.10,301.80 382.00,301.80" /><polyline points="378.10,301.80 378.10,307.00 383.62,307.00" /><polyline points="398.90,298.50 396.62,297.00 395.32,297.00 393.05,299.00 393.05,305.00 395.32,307.00 396.62,307.00 398.90,305.50" /><polyline points="400.52,307.00 400.52,297.00 404.75,297.00 406.38,298.50 406.38,300.20 404.75,301.50 400.52,301.50 406.38,307.00" /><polyline points="411.25,297.00 408.65,298.00 408.00,300.00 408.00,304.00 408.65,306.00 411.25,307.00 413.85,306.00 414.50,304.00 414.50,300.00 413.85,298.00 411.25,297.00" /><polyline points="421.00,298.00 419.37,297.00 417.42,297.00 415.80,298.50 415.47,300.00 416.45,301.20 418.72,302.00 421.00,302.80 421.97,304.00 421.65,305.50 420.02,307.00 417.75,307.00 416.12,306.00" /><polyline points="428.47,298.00 426.85,297.00 424.90,297.00 423.27,298.50 422.95,300.00 423.93,301.20 426.20,302.00 428.47,302.80 429.45,304.00 429.12,305.50 427.50,307.00 425.22,307.00 423.60,306.00" /><polyline points="433.67,297.00 433.67,307.00" /><polyline points="437.90,307.00 437.90,297.00 444.40,307.00 444.40,297.00" /><polyline points="451.23,298.50 448.95,297.00 447.65,297.00 445.38,299.00 445.38,305.00 447.65,307.00 448.95,307.00 451.23,305.50 451.23,302.00 448.62,302.00" /><line x1="270.0" y1="312.0" x2="546.0" y2="312.0" /><line x1="270.0" y1="732.0" x2="546.0" y2="732.0" /><polyline points="385.25,740.75 385.25,745.25" /><polyline points="387.07,745.25 387.07,740.75 388.89,740.75 389.59,741.42 389.59,742.19 388.89,742.77 387.07,742.77" /><polyline points="391.69,740.75 390.57,741.20 390.29,742.10 390.29,743.90 390.57,744.80 391.69,745.25 392.81,744.80 393.09,743.90 393.09,742.10 392.81,741.20 391.69,740.75" /><polyline points="399.95,740.75 401.35,743.00 402.75,740.75" /><polyline points="401.35,743.00 401.35,745.25" /><polyline points="404.57,740.75 403.45,741.20 403.17,742.10 403.17,743.90 403.45,744.80 404.57,745.25 405.69,744.80 405.97,743.90 405.97,742.10 405.69,741.20 404.57,740.75" /><polyline points="407.79,740.75 406.67,741.20 406.39,742.10 406.39,743.90 406.67,744.80 407.79,745.25 408.91,744.80 409.19,743.90 409.19,742.10 408.91,741.20 407.79,740.75" /><polyline points="409.61,745.25 409.61,740.75 412.41,745.25 412.41,740.75" /><polyline points="421.79,741.42 420.81,740.75 420.25,740.75 419.27,741.65 419.27,744.35 420.25,745.25 420.81,745.25 421.79,744.58" /><polyline points="423.89,740.75 422.77,741.20 422.49,742.10 422.49,743.90 422.77,744.80 423.89,745.25 425.01,744.80 425.29,743.90 425.29,742.10 425.01,741.20 423.89,740.75" /><polyline points="425.71,745.25 425.71,740.75 427.53,740.75 428.23,741.42 428.23,742.19 427.53,742.77 425.71,742.77" /><polyline points="428.93,745.25 430.33,740.75 431.73,745.25" /><polyline points="429.43,743.67 431.23,743.67" /><polyline points="301.62,753.25 306.62,753.25" /><polyline points="304.12,753.25 304.12,760.75" /><polyline points="307.38,753.25 307.38,760.75" /><polyline points="312.38,753.25 312.38,760.75" /><polyline points="307.38,756.85 312.38,756.85" /><polyline points="317.38,753.25 313.12,753.25 313.12,756.85 316.12,756.85" /><polyline points="313.12,756.85 313.12,760.75 317.38,760.75" /><polyline points="324.62,753.25 329.62,753.25" /><polyline points="327.12,753.25 327.12,760.75" /><polyline points="330.38,753.25 330.38,760.75" /><polyline points="335.38,753.25 335.38,760.75" /><polyline points="330.38,756.85 335.38,756.85" /><polyline points="336.12,760.75 336.12,753.25 339.38,753.25 340.62,754.38 340.62,755.65 339.38,756.62 336.12,756.62 340.62,760.75" /><polyline points="346.12,753.25 341.88,753.25 341.88,756.85 344.88,756.85" /><polyline points="341.88,756.85 341.88,760.75 346.12,760.75" /><polyline points="351.88,754.00 350.62,753.25 349.12,753.25 347.88,754.38 347.62,755.50 348.38,756.40 350.12,757.00 351.88,757.60 352.62,758.50 352.38,759.62 351.12,760.75 349.38,760.75 348.12,760.00" /><polyline points="353.38,753.25 353.38,760.75" /><polyline points="358.38,753.25 358.38,760.75" /><polyline points="353.38,756.85 358.38,756.85" /><polyline points="361.62,753.25 359.62,754.00 359.12,755.50 359.12,758.50 359.62,760.00 361.62,760.75 363.62,760.00 364.12,758.50 364.12,755.50 363.62,754.00 361.62,753.25" /><polyline points="364.88,753.25 364.88,760.75 369.12,760.75" /><polyline points="370.62,760.75 370.62,753.25 373.38,753.25 375.12,755.12 375.12,758.88 373.38,760.75 370.62,760.75" /><polyline points="382.12,760.75 382.12,753.25 384.88,753.25 386.62,755.12 386.62,758.88 384.88,760.75 382.12,760.75" /><polyline points="390.38,753.25 390.38,760.75" /><polyline points="393.62,760.75 393.62,753.25 396.38,753.25 398.12,755.12 398.12,758.88 396.38,760.75 393.62,760.75" /><polyline points="405.12,760.75 405.12,753.25 410.12,760.75 410.12,753.25" /><polyline points="413.38,753.25 411.38,754.00 410.88,755.50 410.88,758.50 411.38,760.00 413.38,760.75 415.38,760.00 415.88,758.50 415.88,755.50 415.38,754.00 413.38,753.25" /><polyline points="416.62,753.25 421.62,753.25" /><polyline points="419.12,753.25 419.12,760.75" /><polyline points="428.12,760.75 430.62,753.25 433.12,760.75" /><polyline points="429.02,758.12 432.23,758.12" /><polyline points="433.88,760.75 433.88,753.25 438.88,760.75 438.88,753.25" /><polyline points="439.62,760.75 439.62,753.25 444.62,760.75 444.62,753.25" /><polyline points="447.88,753.25 445.88,754.00 445.38,755.50 445.38,758.50 445.88,760.00 447.88,760.75 449.88,760.00 450.38,758.50 450.38,755.50 449.88,754.00 447.88,753.25" /><polyline points="451.12,753.25 451.12,758.88 452.12,760.38 455.12,760.38 456.12,758.88 456.12,753.25" /><polyline points="456.88,760.75 456.88,753.25 461.88,760.75 461.88,753.25" /><polyline points="467.12,754.38 465.38,753.25 464.38,753.25 462.62,754.75 462.62,759.25 464.38,760.75 465.38,760.75 467.12,759.62" /><polyline points="472.62,753.25 468.38,753.25 468.38,756.85 471.38,756.85" /><polyline points="468.38,756.85 468.38,760.75 472.62,760.75" /><polyline points="482.38,753.25 482.38,760.75" /><polyline points="485.62,753.25 490.62,753.25" /><polyline points="488.12,753.25 488.12,760.75" /><polyline points="495.62,754.00 494.38,753.25 492.88,753.25 491.62,754.38 491.38,755.50 492.12,756.40 493.88,757.00 495.62,757.60 496.38,758.50 496.12,759.62 494.88,760.75 493.12,760.75 491.88,760.00" /><polyline points="501.38,753.25 497.12,753.25 497.12,756.85 500.12,756.85" /><polyline points="497.12,756.85 497.12,760.75 501.38,760.75" /><polyline points="502.88,753.25 502.88,760.75 507.12,760.75" /><polyline points="512.88,753.25 508.62,753.25 508.62,756.85 511.62,756.85" /><polyline points="508.62,756.85 508.62,760.75" /><polyline points="318.88,766.25 318.88,773.75" /><polyline points="323.88,766.25 323.88,773.75" /><polyline points="318.88,769.85 323.88,769.85" /><polyline points="328.88,766.25 324.62,766.25 324.62,769.85 327.62,769.85" /><polyline points="324.62,769.85 324.62,773.75 328.88,773.75" /><polyline points="336.12,766.25 337.38,773.75 338.62,768.88 339.88,773.75 341.12,766.25" /><polyline points="341.88,773.75 344.38,766.25 346.88,773.75" /><polyline points="342.77,771.12 345.98,771.12" /><polyline points="351.88,767.00 350.62,766.25 349.12,766.25 347.88,767.38 347.62,768.50 348.38,769.40 350.12,770.00 351.88,770.60 352.62,771.50 352.38,772.62 351.12,773.75 349.38,773.75 348.12,773.00" /><polyline points="363.38,767.00 362.12,766.25 360.62,766.25 359.38,767.38 359.12,768.50 359.88,769.40 361.62,770.00 363.38,770.60 364.12,771.50 363.88,772.62 362.62,773.75 360.88,773.75 359.62,773.00" /><polyline points="367.38,766.25 367.38,773.75" /><polyline points="370.62,773.75 370.62,766.25 373.12,770.38 375.62,766.25 375.62,773.75" /><polyline points="376.38,773.75 376.38,766.25 379.62,766.25 380.88,767.38 380.88,768.65 379.62,769.62 376.38,769.62" /><polyline points="382.12,766.25 382.12,773.75 386.38,773.75" /><polyline points="387.88,766.25 390.38,770.00 392.88,766.25" /><polyline points="390.38,770.00 390.38,773.75" /><polyline points="401.88,766.25 399.88,767.00 399.38,768.50 399.38,771.50 399.88,773.00 401.88,773.75 403.88,773.00 404.38,771.50 404.38,768.50 403.88,767.00 401.88,766.25" /><polyline points="405.12,773.75 405.12,766.25 410.12,773.75 410.12,766.25" /><polyline points="416.62,766.25 421.62,766.25" /><polyline points="419.12,766.25 419.12,773.75" /><polyline points="422.38,766.25 422.38,773.75" /><polyline points="427.38,766.25 427.38,773.75" /><polyline points="422.38,769.85 427.38,769.85" /><polyline points="432.38,766.25 428.12,766.25 428.12,769.85 431.12,769.85" /><polyline points="428.12,769.85 428.12,773.75 432.38,773.75" /><polyline points="442.12,766.25 440.12,767.00 439.62,768.50 439.62,771.50 440.12,773.00 442.12,773.75 444.12,773.00 444.62,771.50 444.62,768.50 444.12,767.00 442.12,766.25" /><polyline points="445.38,766.25 450.38,766.25" /><polyline points="447.88,766.25 447.88,773.75" /><polyline points="451.12,766.25 451.12,773.75" /><polyline points="456.12,766.25 456.12,773.75" /><polyline points="451.12,769.85 456.12,769.85" /><polyline points="461.12,766.25 456.88,766.25 456.88,769.85 459.88,769.85" /><polyline points="456.88,769.85 456.88,773.75 461.12,773.75" /><polyline points="462.62,773.75 462.62,766.25 465.88,766.25 467.12,767.38 467.12,768.65 465.88,769.62 462.62,769.62 467.12,773.75" /><polyline points="478.38,767.00 477.12,766.25 475.62,766.25 474.38,767.38 474.12,768.50 474.88,769.40 476.62,770.00 478.38,770.60 479.12,771.50 478.88,772.62 477.62,773.75 475.88,773.75 474.62,773.00" /><polyline points="482.38,766.25 482.38,773.75" /><polyline points="485.62,773.75 485.62,766.25 488.38,766.25 490.12,768.12 490.12,771.88 488.38,773.75 485.62,773.75" /><polyline points="495.62,766.25 491.38,766.25 491.38,769.85 494.38,769.85" /><polyline points="491.38,769.85 491.38,773.75 495.62,773.75" /><polyline points="384.08,779.50 385.68,784.50 387.28,779.50" /><polyline points="389.36,779.50 389.36,784.50" /><polyline points="393.04,784.00 393.04,784.25" /><polyline points="395.12,779.50 398.32,784.50" /><polyline points="398.32,779.50 395.12,784.50" /><polyline points="400.40,779.50 400.40,784.50" /><polyline points="404.08,779.50 404.08,784.50" /><polyline points="407.76,784.00 407.76,784.25" /><polyline points="409.84,784.50 409.84,779.50 411.44,782.25 413.04,779.50 413.04,784.50" /><polyline points="413.52,784.50 413.52,779.50 415.12,782.25 416.72,779.50 416.72,784.50" /><polyline points="417.20,779.50 420.40,784.50" /><polyline points="420.40,779.50 417.20,784.50" /><polyline points="420.88,779.50 424.08,784.50" /><polyline points="424.08,779.50 420.88,784.50" /><polyline points="424.56,779.50 426.16,784.50 427.76,779.50" /><polyline points="429.84,779.50 429.84,784.50" /></g><g id="02_Teal_Image" inkscape:groupmode="layer" inkscape:label="02_Teal_Image" stroke="#3A7A7A" fill="none" stroke-width="0.75" stroke-linecap="round" stroke-linejoin="round"><line x1="256.30" y1="326.28" x2="263.30" y2="326.29" /><line x1="271.90" y1="326.21" x2="278.90" y2="326.36" /><line x1="287.51" y1="326.08" x2="294.49" y2="326.49" /><line x1="303.12" y1="325.88" x2="310.08" y2="326.69" /><line x1="318.76" y1="325.63" x2="325.64" y2="326.94" /><line x1="334.43" y1="325.33" x2="341.17" y2="327.24" /><line x1="350.14" y1="325.00" x2="356.66" y2="327.57" /><line x1="365.90" y1="324.65" x2="372.10" y2="327.92" /><line x1="381.72" y1="324.30" x2="387.48" y2="328.27" /><line x1="397.58" y1="323.97" x2="402.82" y2="328.60" /><line x1="413.48" y1="323.66" x2="418.12" y2="328.91" /><line x1="429.42" y1="323.40" x2="433.38" y2="329.17" /><line x1="445.37" y1="323.19" x2="448.63" y2="329.38" /><line x1="461.32" y1="323.03" x2="463.88" y2="329.54" /><line x1="477.25" y1="322.92" x2="479.15" y2="329.65" /><line x1="493.15" y1="322.85" x2="494.45" y2="329.72" /><line x1="509.00" y1="322.81" x2="509.80" y2="329.76" /><line x1="524.79" y1="322.79" x2="525.21" y2="329.78" /><line x1="540.52" y1="322.79" x2="540.68" y2="329.78" /><line x1="556.19" y1="322.79" x2="556.21" y2="329.79" /><line x1="256.30" y1="340.85" x2="263.30" y2="340.87" /><line x1="271.90" y1="340.78" x2="278.90" y2="340.93" /><line x1="287.51" y1="340.65" x2="294.49" y2="341.07" /><line x1="303.12" y1="340.45" x2="310.08" y2="341.26" /><line x1="318.76" y1="340.20" x2="325.64" y2="341.51" /><line x1="334.43" y1="339.91" x2="341.17" y2="341.81" /><line x1="350.14" y1="339.58" x2="356.66" y2="342.14" /><line x1="365.90" y1="339.23" x2="372.10" y2="342.49" /><line x1="381.72" y1="338.87" x2="387.48" y2="342.84" /><line x1="397.58" y1="338.54" x2="402.82" y2="343.17" /><line x1="413.48" y1="338.23" x2="418.12" y2="343.48" /><line x1="429.42" y1="337.97" x2="433.38" y2="343.74" /><line x1="445.37" y1="337.76" x2="448.63" y2="343.95" /><line x1="461.32" y1="337.60" x2="463.88" y2="344.11" /><line x1="477.25" y1="337.49" x2="479.15" y2="344.23" /><line x1="493.15" y1="337.42" x2="494.45" y2="344.30" /><line x1="509.00" y1="337.38" x2="509.80" y2="344.33" /><line x1="524.79" y1="337.36" x2="525.21" y2="344.35" /><line x1="540.52" y1="337.36" x2="540.68" y2="344.36" /><line x1="556.19" y1="337.36" x2="556.21" y2="344.36" /><line x1="256.30" y1="355.42" x2="263.30" y2="355.44" /><line x1="271.90" y1="355.35" x2="278.90" y2="355.50" /><line x1="287.51" y1="355.22" x2="294.49" y2="355.64" /><line x1="303.12" y1="355.02" x2="310.08" y2="355.83" /><line x1="318.76" y1="354.77" x2="325.64" y2="356.08" /><line x1="334.43" y1="354.48" x2="341.17" y2="356.38" /><line x1="350.14" y1="354.15" x2="356.66" y2="356.71" /><line x1="365.90" y1="353.80" x2="372.10" y2="357.06" /><line x1="381.72" y1="353.45" x2="387.48" y2="357.41" /><line x1="397.58" y1="353.11" x2="402.82" y2="357.75" /><line x1="413.48" y1="352.81" x2="418.12" y2="358.05" /><line x1="429.42" y1="352.54" x2="433.38" y2="358.31" /><line x1="445.37" y1="352.33" x2="448.63" y2="358.53" /><line x1="461.32" y1="352.17" x2="463.88" y2="358.69" /><line x1="477.25" y1="352.06" x2="479.15" y2="358.80" /><line x1="493.15" y1="351.99" x2="494.45" y2="358.87" /><line x1="509.00" y1="351.95" x2="509.80" y2="358.91" /><line x1="524.79" y1="351.93" x2="525.21" y2="358.92" /><line x1="540.52" y1="351.93" x2="540.68" y2="358.93" /><line x1="556.19" y1="351.93" x2="556.21" y2="358.93" /><line x1="256.30" y1="369.99" x2="263.30" y2="370.01" /><line x1="271.90" y1="369.92" x2="278.90" y2="370.08" /><line x1="287.51" y1="369.79" x2="294.49" y2="370.21" /><line x1="303.12" y1="369.60" x2="310.08" y2="370.40" /><line x1="318.76" y1="369.35" x2="325.64" y2="370.65" /><line x1="334.43" y1="369.05" x2="341.17" y2="370.95" /><line x1="350.14" y1="368.72" x2="356.66" y2="371.28" /><line x1="365.90" y1="368.37" x2="372.10" y2="371.63" /><line x1="381.72" y1="368.02" x2="387.48" y2="371.98" /><line x1="397.58" y1="367.68" x2="402.82" y2="372.32" /><line x1="413.48" y1="367.38" x2="418.12" y2="372.62" /><line x1="429.42" y1="367.12" x2="433.38" y2="372.88" /><line x1="445.37" y1="366.90" x2="448.63" y2="373.10" /><line x1="461.32" y1="366.74" x2="463.88" y2="373.26" /><line x1="477.25" y1="366.63" x2="479.15" y2="373.37" /><line x1="493.15" y1="366.56" x2="494.45" y2="373.44" /><line x1="509.00" y1="366.52" x2="509.80" y2="373.48" /><line x1="524.79" y1="366.51" x2="525.21" y2="373.49" /><line x1="540.52" y1="366.50" x2="540.68" y2="373.50" /><line x1="556.19" y1="366.50" x2="556.21" y2="373.50" /><line x1="256.30" y1="384.56" x2="263.30" y2="384.58" /><line x1="271.90" y1="384.50" x2="278.90" y2="384.65" /><line x1="287.51" y1="384.36" x2="294.49" y2="384.78" /><line x1="303.12" y1="384.17" x2="310.08" y2="384.98" /><line x1="318.76" y1="383.92" x2="325.64" y2="385.23" /><line x1="334.43" y1="383.62" x2="341.17" y2="385.52" /><line x1="350.14" y1="383.29" x2="356.66" y2="385.85" /><line x1="365.90" y1="382.94" x2="372.10" y2="386.20" /><line x1="381.72" y1="382.59" x2="387.48" y2="386.55" /><line x1="397.58" y1="382.25" x2="402.82" y2="386.89" /><line x1="413.48" y1="381.95" x2="418.12" y2="387.19" /><line x1="429.42" y1="381.69" x2="433.38" y2="387.46" /><line x1="445.37" y1="381.47" x2="448.63" y2="387.67" /><line x1="461.32" y1="381.31" x2="463.88" y2="387.83" /><line x1="477.25" y1="381.20" x2="479.15" y2="387.94" /><line x1="493.15" y1="381.13" x2="494.45" y2="388.01" /><line x1="509.00" y1="381.09" x2="509.80" y2="388.05" /><line x1="524.79" y1="381.08" x2="525.21" y2="388.07" /><line x1="540.52" y1="381.07" x2="540.68" y2="388.07" /><line x1="556.19" y1="381.07" x2="556.21" y2="388.07" /><line x1="256.30" y1="399.13" x2="263.30" y2="399.15" /><line x1="271.90" y1="399.07" x2="278.90" y2="399.22" /><line x1="287.51" y1="398.93" x2="294.49" y2="399.35" /><line x1="303.12" y1="398.74" x2="310.08" y2="399.55" /><line x1="318.76" y1="398.49" x2="325.64" y2="399.80" /><line x1="334.43" y1="398.19" x2="341.17" y2="400.09" /><line x1="350.14" y1="397.86" x2="356.66" y2="400.42" /><line x1="365.90" y1="397.51" x2="372.10" y2="400.77" /><line x1="381.72" y1="397.16" x2="387.48" y2="401.13" /><line x1="397.58" y1="396.83" x2="402.82" y2="401.46" /><line x1="413.48" y1="396.52" x2="418.12" y2="401.77" /><line x1="429.42" y1="396.26" x2="433.38" y2="402.03" /><line x1="445.37" y1="396.05" x2="448.63" y2="402.24" /><line x1="461.32" y1="395.89" x2="463.88" y2="402.40" /><line x1="477.25" y1="395.77" x2="479.15" y2="402.51" /><line x1="493.15" y1="395.70" x2="494.45" y2="402.58" /><line x1="509.00" y1="395.67" x2="509.80" y2="402.62" /><line x1="524.79" y1="395.65" x2="525.21" y2="402.64" /><line x1="540.52" y1="395.64" x2="540.68" y2="402.64" /><line x1="556.19" y1="395.64" x2="556.21" y2="402.64" /><line x1="256.30" y1="413.71" x2="263.30" y2="413.72" /><line x1="271.90" y1="413.64" x2="278.90" y2="413.79" /><line x1="287.51" y1="413.51" x2="294.49" y2="413.92" /><line x1="303.12" y1="413.31" x2="310.08" y2="414.12" /><line x1="318.76" y1="413.06" x2="325.64" y2="414.37" /><line x1="334.43" y1="412.76" x2="341.17" y2="414.67" /><line x1="350.14" y1="412.43" x2="356.66" y2="415.00" /><line x1="365.90" y1="412.08" x2="372.10" y2="415.35" /><line x1="381.72" y1="411.73" x2="387.48" y2="415.70" /><line x1="397.58" y1="411.40" x2="402.82" y2="416.03" /><line x1="413.48" y1="411.09" x2="418.12" y2="416.34" /><line x1="429.42" y1="410.83" x2="433.38" y2="416.60" /><line x1="445.37" y1="410.62" x2="448.63" y2="416.81" /><line x1="461.32" y1="410.46" x2="463.88" y2="416.97" /><line x1="477.25" y1="410.35" x2="479.15" y2="417.08" /><line x1="493.15" y1="410.28" x2="494.45" y2="417.15" /><line x1="509.00" y1="410.24" x2="509.80" y2="417.19" /><line x1="524.79" y1="410.22" x2="525.21" y2="417.21" /><line x1="540.52" y1="410.22" x2="540.68" y2="417.21" /><line x1="556.19" y1="410.21" x2="556.21" y2="417.21" /><line x1="256.30" y1="428.28" x2="263.30" y2="428.29" /><line x1="271.90" y1="428.21" x2="278.90" y2="428.36" /><line x1="287.51" y1="428.08" x2="294.49" y2="428.49" /><line x1="303.12" y1="427.88" x2="310.08" y2="428.69" /><line x1="318.76" y1="427.63" x2="325.64" y2="428.94" /><line x1="334.43" y1="427.33" x2="341.17" y2="429.24" /><line x1="350.14" y1="427.00" x2="356.66" y2="429.57" /><line x1="365.90" y1="426.65" x2="372.10" y2="429.92" /><line x1="381.72" y1="426.30" x2="387.48" y2="430.27" /><line x1="397.58" y1="425.97" x2="402.82" y2="430.60" /><line x1="413.48" y1="425.66" x2="418.12" y2="430.91" /><line x1="429.42" y1="425.40" x2="433.38" y2="431.17" /><line x1="445.37" y1="425.19" x2="448.63" y2="431.38" /><line x1="461.32" y1="425.03" x2="463.88" y2="431.54" /><line x1="477.25" y1="424.92" x2="479.15" y2="431.65" /><line x1="493.15" y1="424.85" x2="494.45" y2="431.72" /><line x1="509.00" y1="424.81" x2="509.80" y2="431.76" /><line x1="524.79" y1="424.79" x2="525.21" y2="431.78" /><line x1="540.52" y1="424.79" x2="540.68" y2="431.78" /><line x1="556.19" y1="424.79" x2="556.21" y2="431.79" /><line x1="256.30" y1="442.85" x2="263.30" y2="442.87" /><line x1="271.90" y1="442.78" x2="278.90" y2="442.93" /><line x1="287.51" y1="442.65" x2="294.49" y2="443.07" /><line x1="303.12" y1="442.45" x2="310.08" y2="443.26" /><line x1="318.76" y1="442.20" x2="325.64" y2="443.51" /><line x1="334.43" y1="441.91" x2="341.17" y2="443.81" /><line x1="350.14" y1="441.58" x2="356.66" y2="444.14" /><line x1="365.90" y1="441.23" x2="372.10" y2="444.49" /><line x1="381.72" y1="440.87" x2="387.48" y2="444.84" /><line x1="397.58" y1="440.54" x2="402.82" y2="445.17" /><line x1="413.48" y1="440.23" x2="418.12" y2="445.48" /><line x1="429.42" y1="439.97" x2="433.38" y2="445.74" /><line x1="445.37" y1="439.76" x2="448.63" y2="445.95" /><line x1="461.32" y1="439.60" x2="463.88" y2="446.11" /><line x1="477.25" y1="439.49" x2="479.15" y2="446.23" /><line x1="493.15" y1="439.42" x2="494.45" y2="446.30" /><line x1="509.00" y1="439.38" x2="509.80" y2="446.33" /><line x1="524.79" y1="439.36" x2="525.21" y2="446.35" /><line x1="540.52" y1="439.36" x2="540.68" y2="446.36" /><line x1="556.19" y1="439.36" x2="556.21" y2="446.36" /><line x1="256.30" y1="457.42" x2="263.30" y2="457.44" /><line x1="271.90" y1="457.35" x2="278.90" y2="457.50" /><line x1="287.51" y1="457.22" x2="294.49" y2="457.64" /><line x1="303.12" y1="457.02" x2="310.08" y2="457.83" /><line x1="318.76" y1="456.77" x2="325.64" y2="458.08" /><line x1="334.43" y1="456.48" x2="341.17" y2="458.38" /><line x1="350.14" y1="456.15" x2="356.66" y2="458.71" /><line x1="365.90" y1="455.80" x2="372.10" y2="459.06" /><line x1="381.72" y1="455.45" x2="387.48" y2="459.41" /><line x1="397.58" y1="455.11" x2="402.82" y2="459.75" /><line x1="413.48" y1="454.81" x2="418.12" y2="460.05" /><line x1="429.42" y1="454.54" x2="433.38" y2="460.31" /><line x1="445.37" y1="454.33" x2="448.63" y2="460.53" /><line x1="461.32" y1="454.17" x2="463.88" y2="460.69" /><line x1="477.25" y1="454.06" x2="479.15" y2="460.80" /><line x1="493.15" y1="453.99" x2="494.45" y2="460.87" /><line x1="509.00" y1="453.95" x2="509.80" y2="460.91" /><line x1="524.79" y1="453.93" x2="525.21" y2="460.92" /><line x1="540.52" y1="453.93" x2="540.68" y2="460.93" /><line x1="556.19" y1="453.93" x2="556.21" y2="460.93" /><line x1="256.30" y1="471.99" x2="263.30" y2="472.01" /><line x1="271.90" y1="471.92" x2="278.90" y2="472.08" /><line x1="287.51" y1="471.79" x2="294.49" y2="472.21" /><line x1="303.12" y1="471.60" x2="310.08" y2="472.40" /><line x1="318.76" y1="471.35" x2="325.64" y2="472.65" /><line x1="334.43" y1="471.05" x2="341.17" y2="472.95" /><line x1="350.14" y1="470.72" x2="356.66" y2="473.28" /><line x1="365.90" y1="470.37" x2="372.10" y2="473.63" /><line x1="381.72" y1="470.02" x2="387.48" y2="473.98" /><line x1="397.58" y1="469.68" x2="402.82" y2="474.32" /><line x1="413.48" y1="469.38" x2="418.12" y2="474.62" /><line x1="429.42" y1="469.12" x2="433.38" y2="474.88" /><line x1="445.37" y1="468.90" x2="448.63" y2="475.10" /><line x1="461.32" y1="468.74" x2="463.88" y2="475.26" /><line x1="477.25" y1="468.63" x2="479.15" y2="475.37" /><line x1="493.15" y1="468.56" x2="494.45" y2="475.44" /><line x1="509.00" y1="468.52" x2="509.80" y2="475.48" /><line x1="524.79" y1="468.51" x2="525.21" y2="475.49" /><line x1="540.52" y1="468.50" x2="540.68" y2="475.50" /><line x1="556.19" y1="468.50" x2="556.21" y2="475.50" /><line x1="256.30" y1="486.56" x2="263.30" y2="486.58" /><line x1="271.90" y1="486.50" x2="278.90" y2="486.65" /><line x1="287.51" y1="486.36" x2="294.49" y2="486.78" /><line x1="303.12" y1="486.17" x2="310.08" y2="486.98" /><line x1="318.76" y1="485.92" x2="325.64" y2="487.23" /><line x1="334.43" y1="485.62" x2="341.17" y2="487.52" /><line x1="350.14" y1="485.29" x2="356.66" y2="487.85" /><line x1="365.90" y1="484.94" x2="372.10" y2="488.20" /><line x1="381.72" y1="484.59" x2="387.48" y2="488.55" /><line x1="397.58" y1="484.25" x2="402.82" y2="488.89" /><line x1="413.48" y1="483.95" x2="418.12" y2="489.19" /><line x1="429.42" y1="483.69" x2="433.38" y2="489.46" /><line x1="445.37" y1="483.47" x2="448.63" y2="489.67" /><line x1="461.32" y1="483.31" x2="463.88" y2="489.83" /><line x1="477.25" y1="483.20" x2="479.15" y2="489.94" /><line x1="493.15" y1="483.13" x2="494.45" y2="490.01" /><line x1="509.00" y1="483.09" x2="509.80" y2="490.05" /><line x1="524.79" y1="483.08" x2="525.21" y2="490.07" /><line x1="540.52" y1="483.07" x2="540.68" y2="490.07" /><line x1="556.19" y1="483.07" x2="556.21" y2="490.07" /><line x1="256.30" y1="501.13" x2="263.30" y2="501.15" /><line x1="271.90" y1="501.07" x2="278.90" y2="501.22" /><line x1="287.51" y1="500.93" x2="294.49" y2="501.35" /><line x1="303.12" y1="500.74" x2="310.08" y2="501.55" /><line x1="318.76" y1="500.49" x2="325.64" y2="501.80" /><line x1="334.43" y1="500.19" x2="341.17" y2="502.09" /><line x1="350.14" y1="499.86" x2="356.66" y2="502.42" /><line x1="365.90" y1="499.51" x2="372.10" y2="502.77" /><line x1="381.72" y1="499.16" x2="387.48" y2="503.13" /><line x1="397.58" y1="498.83" x2="402.82" y2="503.46" /><line x1="413.48" y1="498.52" x2="418.12" y2="503.77" /><line x1="429.42" y1="498.26" x2="433.38" y2="504.03" /><line x1="445.37" y1="498.05" x2="448.63" y2="504.24" /><line x1="461.32" y1="497.89" x2="463.88" y2="504.40" /><line x1="477.25" y1="497.77" x2="479.15" y2="504.51" /><line x1="493.15" y1="497.70" x2="494.45" y2="504.58" /><line x1="509.00" y1="497.67" x2="509.80" y2="504.62" /><line x1="524.79" y1="497.65" x2="525.21" y2="504.64" /><line x1="540.52" y1="497.64" x2="540.68" y2="504.64" /><line x1="556.19" y1="497.64" x2="556.21" y2="504.64" /><line x1="256.30" y1="515.71" x2="263.30" y2="515.72" /><line x1="271.90" y1="515.64" x2="278.90" y2="515.79" /><line x1="287.51" y1="515.51" x2="294.49" y2="515.92" /><line x1="303.12" y1="515.31" x2="310.08" y2="516.12" /><line x1="318.76" y1="515.06" x2="325.64" y2="516.37" /><line x1="334.43" y1="514.76" x2="341.17" y2="516.67" /><line x1="350.14" y1="514.43" x2="356.66" y2="517.00" /><line x1="365.90" y1="514.08" x2="372.10" y2="517.35" /><line x1="381.72" y1="513.73" x2="387.48" y2="517.70" /><line x1="397.58" y1="513.40" x2="402.82" y2="518.03" /><line x1="413.48" y1="513.09" x2="418.12" y2="518.34" /><line x1="429.42" y1="512.83" x2="433.38" y2="518.60" /><line x1="445.37" y1="512.62" x2="448.63" y2="518.81" /><line x1="461.32" y1="512.46" x2="463.88" y2="518.97" /><line x1="477.25" y1="512.35" x2="479.15" y2="519.08" /><line x1="493.15" y1="512.28" x2="494.45" y2="519.15" /><line x1="509.00" y1="512.24" x2="509.80" y2="519.19" /><line x1="524.79" y1="512.22" x2="525.21" y2="519.21" /><line x1="540.52" y1="512.22" x2="540.68" y2="519.21" /><line x1="556.19" y1="512.21" x2="556.21" y2="519.21" /><line x1="256.30" y1="530.28" x2="263.30" y2="530.29" /><line x1="271.90" y1="530.21" x2="278.90" y2="530.36" /><line x1="287.51" y1="530.08" x2="294.49" y2="530.49" /><line x1="303.12" y1="529.88" x2="310.08" y2="530.69" /><line x1="318.76" y1="529.63" x2="325.64" y2="530.94" /><line x1="334.43" y1="529.33" x2="341.17" y2="531.24" /><line x1="350.14" y1="529.00" x2="356.66" y2="531.57" /><line x1="365.90" y1="528.65" x2="372.10" y2="531.92" /><line x1="381.72" y1="528.30" x2="387.48" y2="532.27" /><line x1="397.58" y1="527.97" x2="402.82" y2="532.60" /><line x1="413.48" y1="527.66" x2="418.12" y2="532.91" /><line x1="429.42" y1="527.40" x2="433.38" y2="533.17" /><line x1="445.37" y1="527.19" x2="448.63" y2="533.38" /><line x1="461.32" y1="527.03" x2="463.88" y2="533.54" /><line x1="477.25" y1="526.92" x2="479.15" y2="533.65" /><line x1="493.15" y1="526.85" x2="494.45" y2="533.72" /><line x1="509.00" y1="526.81" x2="509.80" y2="533.76" /><line x1="524.79" y1="526.79" x2="525.21" y2="533.78" /><line x1="540.52" y1="526.79" x2="540.68" y2="533.78" /><line x1="556.19" y1="526.79" x2="556.21" y2="533.79" /><line x1="256.30" y1="544.85" x2="263.30" y2="544.87" /><line x1="271.90" y1="544.78" x2="278.90" y2="544.93" /><line x1="287.51" y1="544.65" x2="294.49" y2="545.07" /><line x1="303.12" y1="544.45" x2="310.08" y2="545.26" /><line x1="318.76" y1="544.20" x2="325.64" y2="545.51" /><line x1="334.43" y1="543.91" x2="341.17" y2="545.81" /><line x1="350.14" y1="543.58" x2="356.66" y2="546.14" /><line x1="365.90" y1="543.23" x2="372.10" y2="546.49" /><line x1="381.72" y1="542.87" x2="387.48" y2="546.84" /><line x1="397.58" y1="542.54" x2="402.82" y2="547.17" /><line x1="413.48" y1="542.23" x2="418.12" y2="547.48" /><line x1="429.42" y1="541.97" x2="433.38" y2="547.74" /><line x1="445.37" y1="541.76" x2="448.63" y2="547.95" /><line x1="461.32" y1="541.60" x2="463.88" y2="548.11" /><line x1="477.25" y1="541.49" x2="479.15" y2="548.23" /><line x1="493.15" y1="541.42" x2="494.45" y2="548.30" /><line x1="509.00" y1="541.38" x2="509.80" y2="548.33" /><line x1="524.79" y1="541.36" x2="525.21" y2="548.35" /><line x1="540.52" y1="541.36" x2="540.68" y2="548.36" /><line x1="556.19" y1="541.36" x2="556.21" y2="548.36" /><line x1="256.30" y1="559.42" x2="263.30" y2="559.44" /><line x1="271.90" y1="559.35" x2="278.90" y2="559.50" /><line x1="287.51" y1="559.22" x2="294.49" y2="559.64" /><line x1="303.12" y1="559.02" x2="310.08" y2="559.83" /><line x1="318.76" y1="558.77" x2="325.64" y2="560.08" /><line x1="334.43" y1="558.48" x2="341.17" y2="560.38" /><line x1="350.14" y1="558.15" x2="356.66" y2="560.71" /><line x1="365.90" y1="557.80" x2="372.10" y2="561.06" /><line x1="381.72" y1="557.45" x2="387.48" y2="561.41" /><line x1="397.58" y1="557.11" x2="402.82" y2="561.75" /><line x1="413.48" y1="556.81" x2="418.12" y2="562.05" /><line x1="429.42" y1="556.54" x2="433.38" y2="562.31" /><line x1="445.37" y1="556.33" x2="448.63" y2="562.53" /><line x1="461.32" y1="556.17" x2="463.88" y2="562.69" /><line x1="477.25" y1="556.06" x2="479.15" y2="562.80" /><line x1="493.15" y1="555.99" x2="494.45" y2="562.87" /><line x1="509.00" y1="555.95" x2="509.80" y2="562.91" /><line x1="524.79" y1="555.93" x2="525.21" y2="562.92" /><line x1="540.52" y1="555.93" x2="540.68" y2="562.93" /><line x1="556.19" y1="555.93" x2="556.21" y2="562.93" /><line x1="256.30" y1="573.99" x2="263.30" y2="574.01" /><line x1="271.90" y1="573.92" x2="278.90" y2="574.08" /><line x1="287.51" y1="573.79" x2="294.49" y2="574.21" /><line x1="303.12" y1="573.60" x2="310.08" y2="574.40" /><line x1="318.76" y1="573.35" x2="325.64" y2="574.65" /><line x1="334.43" y1="573.05" x2="341.17" y2="574.95" /><line x1="350.14" y1="572.72" x2="356.66" y2="575.28" /><line x1="365.90" y1="572.37" x2="372.10" y2="575.63" /><line x1="381.72" y1="572.02" x2="387.48" y2="575.98" /><line x1="397.58" y1="571.68" x2="402.82" y2="576.32" /><line x1="413.48" y1="571.38" x2="418.12" y2="576.62" /><line x1="429.42" y1="571.12" x2="433.38" y2="576.88" /><line x1="445.37" y1="570.90" x2="448.63" y2="577.10" /><line x1="461.32" y1="570.74" x2="463.88" y2="577.26" /><line x1="477.25" y1="570.63" x2="479.15" y2="577.37" /><line x1="493.15" y1="570.56" x2="494.45" y2="577.44" /><line x1="509.00" y1="570.52" x2="509.80" y2="577.48" /><line x1="524.79" y1="570.51" x2="525.21" y2="577.49" /><line x1="540.52" y1="570.50" x2="540.68" y2="577.50" /><line x1="556.19" y1="570.50" x2="556.21" y2="577.50" /><line x1="256.30" y1="588.56" x2="263.30" y2="588.58" /><line x1="271.90" y1="588.50" x2="278.90" y2="588.65" /><line x1="287.51" y1="588.36" x2="294.49" y2="588.78" /><line x1="303.12" y1="588.17" x2="310.08" y2="588.98" /><line x1="318.76" y1="587.92" x2="325.64" y2="589.23" /><line x1="334.43" y1="587.62" x2="341.17" y2="589.52" /><line x1="350.14" y1="587.29" x2="356.66" y2="589.85" /><line x1="365.90" y1="586.94" x2="372.10" y2="590.20" /><line x1="381.72" y1="586.59" x2="387.48" y2="590.55" /><line x1="397.58" y1="586.25" x2="402.82" y2="590.89" /><line x1="413.48" y1="585.95" x2="418.12" y2="591.19" /><line x1="429.42" y1="585.69" x2="433.38" y2="591.46" /><line x1="445.37" y1="585.47" x2="448.63" y2="591.67" /><line x1="461.32" y1="585.31" x2="463.88" y2="591.83" /><line x1="477.25" y1="585.20" x2="479.15" y2="591.94" /><line x1="493.15" y1="585.13" x2="494.45" y2="592.01" /><line x1="509.00" y1="585.09" x2="509.80" y2="592.05" /><line x1="524.79" y1="585.08" x2="525.21" y2="592.07" /><line x1="540.52" y1="585.07" x2="540.68" y2="592.07" /><line x1="556.19" y1="585.07" x2="556.21" y2="592.07" /><line x1="256.30" y1="603.13" x2="263.30" y2="603.15" /><line x1="271.90" y1="603.07" x2="278.90" y2="603.22" /><line x1="287.51" y1="602.93" x2="294.49" y2="603.35" /><line x1="303.12" y1="602.74" x2="310.08" y2="603.55" /><line x1="318.76" y1="602.49" x2="325.64" y2="603.80" /><line x1="334.43" y1="602.19" x2="341.17" y2="604.09" /><line x1="350.14" y1="601.86" x2="356.66" y2="604.42" /><line x1="365.90" y1="601.51" x2="372.10" y2="604.77" /><line x1="381.72" y1="601.16" x2="387.48" y2="605.13" /><line x1="397.58" y1="600.83" x2="402.82" y2="605.46" /><line x1="413.48" y1="600.52" x2="418.12" y2="605.77" /><line x1="429.42" y1="600.26" x2="433.38" y2="606.03" /><line x1="445.37" y1="600.05" x2="448.63" y2="606.24" /><line x1="461.32" y1="599.89" x2="463.88" y2="606.40" /><line x1="477.25" y1="599.77" x2="479.15" y2="606.51" /><line x1="493.15" y1="599.70" x2="494.45" y2="606.58" /><line x1="509.00" y1="599.67" x2="509.80" y2="606.62" /><line x1="524.79" y1="599.65" x2="525.21" y2="606.64" /><line x1="540.52" y1="599.64" x2="540.68" y2="606.64" /><line x1="556.19" y1="599.64" x2="556.21" y2="606.64" /><line x1="256.30" y1="617.71" x2="263.30" y2="617.72" /><line x1="271.90" y1="617.64" x2="278.90" y2="617.79" /><line x1="287.51" y1="617.51" x2="294.49" y2="617.92" /><line x1="303.12" y1="617.31" x2="310.08" y2="618.12" /><line x1="318.76" y1="617.06" x2="325.64" y2="618.37" /><line x1="334.43" y1="616.76" x2="341.17" y2="618.67" /><line x1="350.14" y1="616.43" x2="356.66" y2="619.00" /><line x1="365.90" y1="616.08" x2="372.10" y2="619.35" /><line x1="381.72" y1="615.73" x2="387.48" y2="619.70" /><line x1="397.58" y1="615.40" x2="402.82" y2="620.03" /><line x1="413.48" y1="615.09" x2="418.12" y2="620.34" /><line x1="429.42" y1="614.83" x2="433.38" y2="620.60" /><line x1="445.37" y1="614.62" x2="448.63" y2="620.81" /><line x1="461.32" y1="614.46" x2="463.88" y2="620.97" /><line x1="477.25" y1="614.35" x2="479.15" y2="621.08" /><line x1="493.15" y1="614.28" x2="494.45" y2="621.15" /><line x1="509.00" y1="614.24" x2="509.80" y2="621.19" /><line x1="524.79" y1="614.22" x2="525.21" y2="621.21" /><line x1="540.52" y1="614.22" x2="540.68" y2="621.21" /><line x1="556.19" y1="614.21" x2="556.21" y2="621.21" /><line x1="256.30" y1="632.28" x2="263.30" y2="632.29" /><line x1="271.90" y1="632.21" x2="278.90" y2="632.36" /><line x1="287.51" y1="632.08" x2="294.49" y2="632.49" /><line x1="303.12" y1="631.88" x2="310.08" y2="632.69" /><line x1="318.76" y1="631.63" x2="325.64" y2="632.94" /><line x1="334.43" y1="631.33" x2="341.17" y2="633.24" /><line x1="350.14" y1="631.00" x2="356.66" y2="633.57" /><line x1="365.90" y1="630.65" x2="372.10" y2="633.92" /><line x1="381.72" y1="630.30" x2="387.48" y2="634.27" /><line x1="397.58" y1="629.97" x2="402.82" y2="634.60" /><line x1="413.48" y1="629.66" x2="418.12" y2="634.91" /><line x1="429.42" y1="629.40" x2="433.38" y2="635.17" /><line x1="445.37" y1="629.19" x2="448.63" y2="635.38" /><line x1="461.32" y1="629.03" x2="463.88" y2="635.54" /><line x1="477.25" y1="628.92" x2="479.15" y2="635.65" /><line x1="493.15" y1="628.85" x2="494.45" y2="635.72" /><line x1="509.00" y1="628.81" x2="509.80" y2="635.76" /><line x1="524.79" y1="628.79" x2="525.21" y2="635.78" /><line x1="540.52" y1="628.79" x2="540.68" y2="635.78" /><line x1="556.19" y1="628.79" x2="556.21" y2="635.79" /><line x1="256.30" y1="646.85" x2="263.30" y2="646.87" /><line x1="271.90" y1="646.78" x2="278.90" y2="646.93" /><line x1="287.51" y1="646.65" x2="294.49" y2="647.07" /><line x1="303.12" y1="646.45" x2="310.08" y2="647.26" /><line x1="318.76" y1="646.20" x2="325.64" y2="647.51" /><line x1="334.43" y1="645.91" x2="341.17" y2="647.81" /><line x1="350.14" y1="645.58" x2="356.66" y2="648.14" /><line x1="365.90" y1="645.23" x2="372.10" y2="648.49" /><line x1="381.72" y1="644.87" x2="387.48" y2="648.84" /><line x1="397.58" y1="644.54" x2="402.82" y2="649.17" /><line x1="413.48" y1="644.23" x2="418.12" y2="649.48" /><line x1="429.42" y1="643.97" x2="433.38" y2="649.74" /><line x1="445.37" y1="643.76" x2="448.63" y2="649.95" /><line x1="461.32" y1="643.60" x2="463.88" y2="650.11" /><line x1="477.25" y1="643.49" x2="479.15" y2="650.23" /><line x1="493.15" y1="643.42" x2="494.45" y2="650.30" /><line x1="509.00" y1="643.38" x2="509.80" y2="650.33" /><line x1="524.79" y1="643.36" x2="525.21" y2="650.35" /><line x1="540.52" y1="643.36" x2="540.68" y2="650.36" /><line x1="556.19" y1="643.36" x2="556.21" y2="650.36" /><line x1="256.30" y1="661.42" x2="263.30" y2="661.44" /><line x1="271.90" y1="661.35" x2="278.90" y2="661.50" /><line x1="287.51" y1="661.22" x2="294.49" y2="661.64" /><line x1="303.12" y1="661.02" x2="310.08" y2="661.83" /><line x1="318.76" y1="660.77" x2="325.64" y2="662.08" /><line x1="334.43" y1="660.48" x2="341.17" y2="662.38" /><line x1="350.14" y1="660.15" x2="356.66" y2="662.71" /><line x1="365.90" y1="659.80" x2="372.10" y2="663.06" /><line x1="381.72" y1="659.45" x2="387.48" y2="663.41" /><line x1="397.58" y1="659.11" x2="402.82" y2="663.75" /><line x1="413.48" y1="658.81" x2="418.12" y2="664.05" /><line x1="429.42" y1="658.54" x2="433.38" y2="664.31" /><line x1="445.37" y1="658.33" x2="448.63" y2="664.53" /><line x1="461.32" y1="658.17" x2="463.88" y2="664.69" /><line x1="477.25" y1="658.06" x2="479.15" y2="664.80" /><line x1="493.15" y1="657.99" x2="494.45" y2="664.87" /><line x1="509.00" y1="657.95" x2="509.80" y2="664.91" /><line x1="524.79" y1="657.93" x2="525.21" y2="664.92" /><line x1="540.52" y1="657.93" x2="540.68" y2="664.93" /><line x1="556.19" y1="657.93" x2="556.21" y2="664.93" /><line x1="256.30" y1="675.99" x2="263.30" y2="676.01" /><line x1="271.90" y1="675.92" x2="278.90" y2="676.08" /><line x1="287.51" y1="675.79" x2="294.49" y2="676.21" /><line x1="303.12" y1="675.60" x2="310.08" y2="676.40" /><line x1="318.76" y1="675.35" x2="325.64" y2="676.65" /><line x1="334.43" y1="675.05" x2="341.17" y2="676.95" /><line x1="350.14" y1="674.72" x2="356.66" y2="677.28" /><line x1="365.90" y1="674.37" x2="372.10" y2="677.63" /><line x1="381.72" y1="674.02" x2="387.48" y2="677.98" /><line x1="397.58" y1="673.68" x2="402.82" y2="678.32" /><line x1="413.48" y1="673.38" x2="418.12" y2="678.62" /><line x1="429.42" y1="673.12" x2="433.38" y2="678.88" /><line x1="445.37" y1="672.90" x2="448.63" y2="679.10" /><line x1="461.32" y1="672.74" x2="463.88" y2="679.26" /><line x1="477.25" y1="672.63" x2="479.15" y2="679.37" /><line x1="493.15" y1="672.56" x2="494.45" y2="679.44" /><line x1="509.00" y1="672.52" x2="509.80" y2="679.48" /><line x1="524.79" y1="672.51" x2="525.21" y2="679.49" /><line x1="540.52" y1="672.50" x2="540.68" y2="679.50" /><line x1="556.19" y1="672.50" x2="556.21" y2="679.50" /><line x1="256.30" y1="690.56" x2="263.30" y2="690.58" /><line x1="271.90" y1="690.50" x2="278.90" y2="690.65" /><line x1="287.51" y1="690.36" x2="294.49" y2="690.78" /><line x1="303.12" y1="690.17" x2="310.08" y2="690.98" /><line x1="318.76" y1="689.92" x2="325.64" y2="691.23" /><line x1="334.43" y1="689.62" x2="341.17" y2="691.52" /><line x1="350.14" y1="689.29" x2="356.66" y2="691.85" /><line x1="365.90" y1="688.94" x2="372.10" y2="692.20" /><line x1="381.72" y1="688.59" x2="387.48" y2="692.55" /><line x1="397.58" y1="688.25" x2="402.82" y2="692.89" /><line x1="413.48" y1="687.95" x2="418.12" y2="693.19" /><line x1="429.42" y1="687.69" x2="433.38" y2="693.46" /><line x1="445.37" y1="687.47" x2="448.63" y2="693.67" /><line x1="461.32" y1="687.31" x2="463.88" y2="693.83" /><line x1="477.25" y1="687.20" x2="479.15" y2="693.94" /><line x1="493.15" y1="687.13" x2="494.45" y2="694.01" /><line x1="509.00" y1="687.09" x2="509.80" y2="694.05" /><line x1="524.79" y1="687.08" x2="525.21" y2="694.07" /><line x1="540.52" y1="687.07" x2="540.68" y2="694.07" /><line x1="556.19" y1="687.07" x2="556.21" y2="694.07" /><line x1="256.30" y1="705.13" x2="263.30" y2="705.15" /><line x1="271.90" y1="705.07" x2="278.90" y2="705.22" /><line x1="287.51" y1="704.93" x2="294.49" y2="705.35" /><line x1="303.12" y1="704.74" x2="310.08" y2="705.55" /><line x1="318.76" y1="704.49" x2="325.64" y2="705.80" /><line x1="334.43" y1="704.19" x2="341.17" y2="706.09" /><line x1="350.14" y1="703.86" x2="356.66" y2="706.42" /><line x1="365.90" y1="703.51" x2="372.10" y2="706.77" /><line x1="381.72" y1="703.16" x2="387.48" y2="707.13" /><line x1="397.58" y1="702.83" x2="402.82" y2="707.46" /><line x1="413.48" y1="702.52" x2="418.12" y2="707.77" /><line x1="429.42" y1="702.26" x2="433.38" y2="708.03" /><line x1="445.37" y1="702.05" x2="448.63" y2="708.24" /><line x1="461.32" y1="701.89" x2="463.88" y2="708.40" /><line x1="477.25" y1="701.77" x2="479.15" y2="708.51" /><line x1="493.15" y1="701.70" x2="494.45" y2="708.58" /><line x1="509.00" y1="701.67" x2="509.80" y2="708.62" /><line x1="524.79" y1="701.65" x2="525.21" y2="708.64" /><line x1="540.52" y1="701.64" x2="540.68" y2="708.64" /><line x1="556.19" y1="701.64" x2="556.21" y2="708.64" /><line x1="256.30" y1="719.71" x2="263.30" y2="719.72" /><line x1="271.90" y1="719.64" x2="278.90" y2="719.79" /><line x1="287.51" y1="719.51" x2="294.49" y2="719.92" /><line x1="303.12" y1="719.31" x2="310.08" y2="720.12" /><line x1="318.76" y1="719.06" x2="325.64" y2="720.37" /><line x1="334.43" y1="718.76" x2="341.17" y2="720.67" /><line x1="350.14" y1="718.43" x2="356.66" y2="721.00" /><line x1="365.90" y1="718.08" x2="372.10" y2="721.35" /><line x1="381.72" y1="717.73" x2="387.48" y2="721.70" /><line x1="397.58" y1="717.40" x2="402.82" y2="722.03" /><line x1="413.48" y1="717.09" x2="418.12" y2="722.34" /><line x1="429.42" y1="716.83" x2="433.38" y2="722.60" /><line x1="445.37" y1="716.62" x2="448.63" y2="722.81" /><line x1="461.32" y1="716.46" x2="463.88" y2="722.97" /><line x1="477.25" y1="716.35" x2="479.15" y2="723.08" /><line x1="493.15" y1="716.28" x2="494.45" y2="723.15" /><line x1="509.00" y1="716.24" x2="509.80" y2="723.19" /><line x1="524.79" y1="716.22" x2="525.21" y2="723.21" /><line x1="540.52" y1="716.22" x2="540.68" y2="723.21" /><line x1="556.19" y1="716.21" x2="556.21" y2="723.21" /></g><g id="03_Gold_Accent" inkscape:groupmode="layer" inkscape:label="03_Gold_Accent" stroke="#B8960C" fill="none" stroke-width="1.25" stroke-linecap="round" stroke-linejoin="round"><line x1="408.00" y1="367.96" x2="408.00" y2="678.04" stroke-width="1.25" /><line x1="526.56" y1="421.00" x2="526.56" y2="625.00" stroke-width="0.625" /></g></svg>