<?xml version='1.0' encoding='utf-8'?>
<svg xmlns="http://www.w3.org/2000/svg" xmlns:inkscape="http://www.inkscape.org/namespaces/inkscape" viewBox="204 228 408 600"><style>*{vector-effect:non-scaling-stroke}</style><g id="01_Black_Frame" inkscape:groupmode="layer" inkscape:label="01_Black_Frame" stroke="#1A1A1A" fill="none" stroke-width="0.875" stroke-linecap="round" stroke-linejoin="round"><path d="M 250.0,264.0 L 566.0,264.0 Q 576.0,264.0 576.0,274.0 L 576.0,782.0 Q 576.0,792.0 566.0,792.0 L 250.0,792.0 Q 240.0,792.0 240.0,782.0 L 240.0,274.0 Q 240.0,264.0 250.0,264.0" /><path d="M 253.0,270.0 L 563.0,270.0 Q 570.0,270.0 570.0,277.0 L 570.0,779.0 Q 570.0,786.0 563.0,786.0 L 253.0,786.0 Q 246.0,786.0 246.0,779.0 L 246.0,277.0 Q 246.0,270.0 253.0,270.0" /><line x1="259.0" y1="280.0" x2="263.0" y2="280.0" /><line x1="258.1" y1="282.1" x2="260.9" y2="284.9" /><line x1="256.0" y1="283.0" x2="256.0" y2="287.0" /><line x1="253.9" y1="282.1" x2="251.1" y2="284.9" /><line x1="253.0" y1="280.0" x2="249.0" y2="280.0" /><line x1="253.9" y1="277.9" x2="251.1" y2="275.1" /><line x1="256.0" y1="277.0" x2="256.0" y2="273.0" /><line x1="258.1" y1="277.9" x2="260.9" y2="275.1" /><line x1="563.0" y1="280.0" x2="567.0" y2="280.0" /><line x1="562.1" y1="282.1" x2="564.9" y2="284.9" /><line x1="560.0" y1="283.0" x2="560.0" y2="287.0" /><line x1="557.9" y1="282.1" x2="555.1" y2="284.9" /><line x1="557.0" y1="280.0" x2="553.0" y2="280.0" /><line x1="557.9" y1="277.9" x2="555.1" y2="275.1" /><line x1="560.0" y1="277.0" x2="560.0" y2="273.0" /><line x1="562.1" y1="277.9" x2="564.9" y2="275.1" /><line x1="259.0" y1="776.0" x2="263.0" y2="776.0" /><line x1="258.1" y1="778.1" x2="260.9" y2="780.9" /><line x1="256.0" y1="779.0" x2="256.0" y2="783.0" /><line x1="253.9" y1="778.1" x2="251.1" y2="780.9" /><line x1="253.0" y1="776.0" x2="249.0" y2="776.0" /><line x1="253.9" y1="773.9" x2="251.1" y2="771.1" /><line x1="256.0" y1="773.0" x2="256.0" y2="769.0" /><line x1="258.1" y1="773.9" x2="260.9" y2="771.1" /><line x1="563.0" y1="776.0" x2="567.0" y2="776.0" /><line x1="562.1" y1="778.1" x2="564.9" y2="780.9" /><line x1="560.0" y1="779.0" x2="560.0" y2="783.0" /><line x1="557.9" y1="778.1" x2="555.1" y2="780.9" /><line x1="557.0" y1="776.0" x2="553.0" y2="776.0" /><line x1="557.9" y1="773.9" x2="555.1" y2="771.1" /><line x1="560.0" y1="773.0" x2="560.0" y2="769.0" /><line x1="562.1" y1="773.9" x2="564.9" y2="771.1" /><polyline points="398.12,283.20 396.38,282.00 395.38,282.00 393.62,283.60 393.62,288.40 395.38,290.00 396.38,290.00 398.12,288.80" /><polyline points="399.38,282.00 404.38,290.00" /><polyline points="404.38,282.00 399.38,290.00" /><polyline points="405.12,282.00 410.12,290.00" /><polyline points="410.12,282.00 405.12,290.00" /><polyline points="413.38,282.00 413.38,290.00" /><polyline points="416.62,282.00 419.12,290.00 421.62,282.00" /><polyline points="370.62,297.00 377.12,297.00" /><polyline points="373.88,297.00 373.88,307.00" /><polyline points="378.10,297.00 378.10,307.00" /><polyline points="384.60,297.00 384.60,307.00" /><polyline points="378.10,301.80 384.60,301.80" /><polyline points="391.10,297.00 385.57,297.00 385.57,301.80 389.47,301.80" /><polyline points="385.57,301.80 385.57,307.00 391.10,307.00" /><polyline points="400.52,297.00 400.52,307.00 406.05,307.00" /><polyline points="413.52,297.00 408.00,297.00 408.00,301.80 411.90,301.80" /><polyline points="408.00,301.80 408.00,307.00 413.52,307.00" /><polyline points="415.48,307.00 415.48,297.00 419.05,297.00 421.33,299.50 421.33,304.50 419.05,307.00 415.48,307.00" /><polyline points="428.80,298.50 426.52,297.00 425.22,297.00 422.95,299.00 422.95,305.00 425.22,307.00 426.52,307.00 428.80,305.50 428.80,302.00 426.20,302.00" /><polyline points="435.95,297.00 430.43,297.00 430.43,301.80 434.32,301.80" /><polyline points="430.43,301.80 430.43,307.00 435.95,307.00" /><polyline points="437.90,307.00 437.90,297.00 442.12,297.00 443.75,298.50 443.75,300.20 442.12,301.50 437.90,301.50 443.75,307.00" /><line x1="270.0" y1="312.0" x2="546.0" y2="312.0" /><line x1="270.0" y1="732.0" x2="546.0" y2="732.0" /><polyline points="374.96,741.20 374.26,740.75 373.42,740.75 372.72,741.42 372.58,742.10 373.00,742.64 373.98,743.00 374.96,743.36 375.38,743.90 375.24,744.58 374.54,745.25 373.56,745.25 372.86,744.80" /><polyline points="375.80,745.25 375.80,740.75 377.62,740.75 378.32,741.42 378.32,742.19 377.62,742.77 375.80,742.77" /><polyline points="380.42,740.75 380.42,745.25" /><polyline points="382.24,745.25 382.24,740.75 384.06,740.75 384.76,741.42 384.76,742.19 384.06,742.77 382.24,742.77 384.76,745.25" /><polyline points="386.86,740.75 386.86,745.25" /><polyline points="388.68,740.75 391.48,740.75" /><polyline points="390.08,740.75 390.08,745.25" /><polyline points="398.34,740.75 398.34,745.25" /><polyline points="401.14,740.75 401.14,745.25" /><polyline points="398.34,742.91 401.14,742.91" /><polyline points="402.96,740.75 401.84,741.20 401.56,742.10 401.56,743.90 401.84,744.80 402.96,745.25 404.08,744.80 404.36,743.90 404.36,742.10 404.08,741.20 402.96,740.75" /><polyline points="404.78,745.25 404.78,740.75 407.58,745.25 407.58,740.75" /><polyline points="408.00,745.25 408.00,740.75 409.54,740.75 410.52,741.88 410.52,744.12 409.54,745.25 408.00,745.25" /><polyline points="412.62,740.75 412.62,745.25" /><polyline points="414.44,740.75 414.44,744.12 415.00,745.02 416.68,745.02 417.24,744.12 417.24,740.75" /><polyline points="420.04,741.20 419.34,740.75 418.50,740.75 417.80,741.42 417.66,742.10 418.08,742.64 419.06,743.00 420.04,743.36 420.46,743.90 420.32,744.58 419.62,745.25 418.64,745.25 417.94,744.80" /><polyline points="427.32,745.25 427.32,740.75 429.14,740.75 429.84,741.42 429.84,742.19 429.14,742.77 427.32,742.77" /><polyline points="430.54,745.25 430.54,740.75 432.36,740.75 433.06,741.42 433.06,742.19 432.36,742.77 430.54,742.77 433.06,745.25" /><polyline points="436.14,740.75 433.76,740.75 433.76,742.91 435.44,742.91" /><polyline points="433.76,742.91 433.76,745.25 436.14,745.25" /><polyline points="439.36,741.20 438.66,740.75 437.82,740.75 437.12,741.42 436.98,742.10 437.40,742.64 438.38,743.00 439.36,743.36 439.78,743.90 439.64,744.58 438.94,745.25 437.96,745.25 437.26,744.80" /><polyline points="442.58,741.20 441.88,740.75 441.04,740.75 440.34,741.42 440.20,742.10 440.62,742.64 441.60,743.00 442.58,743.36 443.00,743.90 442.86,744.58 442.16,745.25 441.18,745.25 440.48,744.80" /><polyline points="347.62,753.25 348.88,760.75 350.12,755.88 351.38,760.75 352.62,753.25" /><polyline points="353.38,753.25 353.38,760.75" /><polyline points="358.38,753.25 358.38,760.75" /><polyline points="353.38,756.85 358.38,756.85" /><polyline points="359.12,760.75 361.62,753.25 364.12,760.75" /><polyline points="360.02,758.12 363.23,758.12" /><polyline points="364.88,753.25 369.88,753.25" /><polyline points="367.38,753.25 367.38,760.75" /><polyline points="376.38,753.25 377.62,760.75 378.88,755.88 380.12,760.75 381.38,753.25" /><polyline points="382.12,760.75 384.62,753.25 387.12,760.75" /><polyline points="383.02,758.12 386.23,758.12" /><polyline points="392.12,754.00 390.88,753.25 389.38,753.25 388.12,754.38 387.88,755.50 388.62,756.40 390.38,757.00 392.12,757.60 392.88,758.50 392.62,759.62 391.38,760.75 389.62,760.75 388.38,760.00" /><polyline points="399.38,760.75 401.88,753.25 404.38,760.75" /><polyline points="400.27,758.12 403.48,758.12" /><polyline points="405.12,753.25 405.12,760.75 409.38,760.75" /><polyline points="410.88,760.75 410.88,753.25 414.12,753.25 415.38,754.38 415.38,755.65 414.12,756.62 410.88,756.62 415.38,760.75" /><polyline points="420.88,753.25 416.62,753.25 416.62,756.85 419.62,756.85" /><polyline points="416.62,756.85 416.62,760.75 420.88,760.75" /><polyline points="422.38,760.75 424.88,753.25 427.38,760.75" /><polyline points="423.27,758.12 426.48,758.12" /><polyline points="428.12,760.75 428.12,753.25 430.88,753.25 432.62,755.12 432.62,758.88 430.88,760.75 428.12,760.75" /><polyline points="433.88,753.25 436.38,757.00 438.88,753.25" /><polyline points="436.38,757.00 436.38,760.75" /><polyline points="445.38,753.25 450.38,753.25" /><polyline points="447.88,753.25 447.88,760.75" /><polyline points="451.12,760.75 451.12,753.25 454.38,753.25 455.62,754.38 455.62,755.65 454.38,756.62 451.12,756.62 455.62,760.75" /><polyline points="456.88,753.25 456.88,758.88 457.88,760.38 460.88,760.38 461.88,758.88 461.88,753.25" /><polyline points="466.88,753.25 462.62,753.25 462.62,756.85 465.62,756.85" /><polyline points="462.62,756.85 462.62,760.75 466.88,760.75" /><polyline points="349.25,767.38 347.50,766.25 346.50,766.25 344.75,767.75 344.75,772.25 346.50,773.75 347.50,773.75 349.25,772.62 349.25,770.00 347.25,770.00" /><polyline points="353.00,766.25 351.00,767.00 350.50,768.50 350.50,771.50 351.00,773.00 353.00,773.75 355.00,773.00 355.50,771.50 355.50,768.50 355.00,767.00 353.00,766.25" /><polyline points="356.25,766.25 361.25,766.25" /><polyline points="358.75,766.25 358.75,773.75" /><polyline points="367.75,766.25 369.00,773.75 370.25,768.88 371.50,773.75 372.75,766.25" /><polyline points="373.50,773.75 373.50,766.25 376.75,766.25 378.00,767.38 378.00,768.65 376.75,769.62 373.50,769.62 378.00,773.75" /><polyline points="381.75,766.25 381.75,773.75" /><polyline points="385.00,766.25 390.00,766.25" /><polyline points="387.50,766.25 387.50,773.75" /><polyline points="390.75,766.25 395.75,766.25" /><polyline points="393.25,766.25 393.25,773.75" /><polyline points="400.75,766.25 396.50,766.25 396.50,769.85 399.50,769.85" /><polyline points="396.50,769.85 396.50,773.75 400.75,773.75" /><polyline points="402.25,773.75 402.25,766.25 407.25,773.75 407.25,766.25" /><polyline points="413.75,773.75 413.75,766.25 416.50,766.25 418.25,768.12 418.25,771.88 416.50,773.75 413.75,773.75" /><polyline points="422.00,766.25 420.00,767.00 419.50,768.50 419.50,771.50 420.00,773.00 422.00,773.75 424.00,773.00 424.50,771.50 424.50,768.50 424.00,767.00 422.00,766.25" /><polyline points="425.25,766.25 426.50,773.75 427.75,768.88 429.00,773.75 430.25,766.25" /><polyline points="431.00,773.75 431.00,766.25 436.00,773.75 436.00,766.25" /><polyline points="442.50,766.25 447.50,766.25" /><polyline points="445.00,766.25 445.00,773.75" /><polyline points="450.75,766.25 448.75,767.00 448.25,768.50 448.25,771.50 448.75,773.00 450.75,773.75 452.75,773.00 453.25,771.50 453.25,768.50 452.75,767.00 450.75,766.25" /><polyline points="454.00,773.75 454.00,766.25 456.75,766.25 458.50,768.12 458.50,771.88 456.75,773.75 454.00,773.75" /><polyline points="459.75,773.75 462.25,766.25 464.75,773.75" /><polyline points="460.65,771.12 463.85,771.12" /><polyline points="465.50,766.25 468.00,770.00 470.50,766.25" /><polyline points="468.00,770.00 468.00,773.75" /><polyline points="387.76,779.50 389.36,784.50 390.96,779.50" /><polyline points="393.04,784.00 393.04,784.25" /><polyline points="396.72,779.50 396.72,784.50" /><polyline points="398.80,779.50 400.40,784.50 402.00,779.50" /><polyline points="404.08,784.00 404.08,784.25" /><polyline points="406.16,784.50 406.16,779.50 407.76,782.25 409.36,779.50 409.36,784.50" /><polyline points="409.84,784.50 409.84,779.50 411.44,782.25 413.04,779.50 413.04,784.50" /><polyline points="413.52,779.50 416.72,784.50" /><polyline points="416.72,779.50 413.52,784.50" /><polyline points="417.20,779.50 420.40,784.50" /><polyline points="420.40,779.50 417.20,784.50" /><polyline points="420.88,779.50 422.48,784.50 424.08,779.50" /><polyline points="426.16,779.50 426.16,784.50" /></g><g id="02_Slate_Old" inkscape:groupmode="layer" inkscape:label="02_Slate_Old" stroke="#3A4858" fill="none" stroke-width="0.55" stroke-linecap="round" stroke-linejoin="round"><line x1="261.00" x2="555.00" y1="329.74" y2="329.74" /><line x1="261.00" x2="555.00" y1="351.21" y2="351.21" /><line x1="261.00" x2="555.00" y1="372.68" y2="372.68" /><line x1="261.00" x2="555.00" y1="394.16" y2="394.16" /><line x1="261.00" x2="555.00" y1="415.63" y2="415.63" /><line x1="261.00" x2="555.00" y1="437.11" y2="437.11" /><line x1="261.00" x2="555.00" y1="458.58" y2="458.58" /><line x1="261.00" x2="555.00" y1="480.05" y2="480.05" /><line x1="261.00" x2="555.00" y1="501.53" y2="501.53" /><line x1="261.00" x2="555.00" y1="523.00" y2="523.00" /><line x1="261.00" x2="555.00" y1="544.47" y2="544.47" /><line x1="261.00" x2="555.00" y1="565.95" y2="565.95" /><line x1="261.00" x2="555.00" y1="587.42" y2="587.42" /><line x1="261.00" x2="555.00" y1="608.89" y2="608.89" /><line x1="261.00" x2="555.00" y1="630.37" y2="630.37" /><line x1="261.00" x2="555.00" y1="651.84" y2="651.84" /><line x1="261.00" x2="555.00" y1="673.32" y2="673.32" /><line x1="261.00" x2="555.00" y1="694.79" y2="694.79" /><line x1="261.00" x2="555.00" y1="716.26" y2="716.26" /><line x1="309.10" y1="323.12" x2="309.10" y2="334.44" /><line x1="312.11" y1="322.61" x2="312.11" y2="334.13" /><line x1="313.56" y1="322.25" x2="313.56" y2="334.58" /><line x1="317.11" y1="323.17" x2="317.11" y2="334.00" /><line x1="308.49" y1="334.19" x2="319.56" y2="323.37" /><line x1="518.53" y1="324.02" x2="518.53" y2="335.66" /><line x1="521.35" y1="323.60" x2="521.35" y2="336.40" /><line x1="524.07" y1="323.97" x2="524.07" y2="334.86" /><line x1="525.55" y1="323.64" x2="525.55" y2="335.20" /><line x1="517.66" y1="335.96" x2="529.92" y2="323.56" /><line x1="500.38" y1="343.01" x2="500.38" y2="355.54" /><line x1="502.50" y1="343.35" x2="502.50" y2="354.99" /><line x1="271.49" y1="387.10" x2="271.49" y2="399.00" /><line x1="274.22" y1="386.93" x2="274.22" y2="399.43" /><line x1="276.69" y1="387.32" x2="276.69" y2="400.04" /><line x1="279.09" y1="387.09" x2="279.09" y2="398.99" /><line x1="270.87" y1="399.68" x2="283.01" y2="387.40" /><line x1="424.09" y1="387.97" x2="424.09" y2="400.09" /><line x1="427.14" y1="387.67" x2="427.14" y2="399.20" /><line x1="429.77" y1="388.18" x2="429.77" y2="400.70" /><line x1="432.14" y1="387.51" x2="432.14" y2="399.17" /><line x1="423.58" y1="399.60" x2="435.24" y2="386.73" /><line x1="516.91" y1="408.99" x2="516.91" y2="421.58" /><line x1="519.02" y1="408.85" x2="519.02" y2="420.72" /><line x1="521.11" y1="409.11" x2="521.11" y2="421.01" /><line x1="524.01" y1="409.11" x2="524.01" y2="420.96" /><line x1="515.65" y1="420.76" x2="527.01" y2="409.75" /><line x1="349.94" y1="473.54" x2="349.94" y2="485.43" /><line x1="352.69" y1="473.55" x2="352.69" y2="485.25" /><line x1="355.78" y1="473.71" x2="355.78" y2="484.88" /><line x1="358.02" y1="472.79" x2="358.02" y2="484.45" /><line x1="348.78" y1="484.07" x2="361.07" y2="473.49" /><line x1="532.36" y1="473.06" x2="532.36" y2="484.60" /><line x1="534.84" y1="472.67" x2="534.84" y2="485.62" /><line x1="537.76" y1="473.46" x2="537.76" y2="484.83" /><line x1="540.31" y1="473.18" x2="540.31" y2="485.53" /><line x1="292.98" y1="494.69" x2="292.98" y2="506.33" /><line x1="294.64" y1="493.79" x2="294.64" y2="506.57" /><line x1="297.18" y1="494.17" x2="297.18" y2="506.93" /><line x1="300.36" y1="494.17" x2="300.36" y2="506.08" /><line x1="480.27" y1="516.22" x2="480.27" y2="527.92" /><line x1="483.04" y1="515.85" x2="483.04" y2="528.35" /><line x1="485.88" y1="516.11" x2="485.88" y2="529.01" /><line x1="488.62" y1="516.78" x2="488.62" y2="528.26" /><line x1="391.12" y1="560.40" x2="391.12" y2="571.75" /><line x1="393.82" y1="560.00" x2="393.82" y2="572.39" /><line x1="396.67" y1="561.22" x2="396.67" y2="571.92" /><line x1="398.66" y1="559.58" x2="398.66" y2="571.90" /><line x1="389.52" y1="572.30" x2="402.45" y2="560.11" /><line x1="504.64" y1="560.06" x2="504.64" y2="572.08" /><line x1="507.33" y1="560.46" x2="507.33" y2="572.15" /><line x1="510.06" y1="559.36" x2="510.06" y2="571.86" /><line x1="512.23" y1="559.97" x2="512.23" y2="571.93" /><line x1="336.36" y1="580.50" x2="336.36" y2="593.07" /><line x1="338.21" y1="580.77" x2="338.21" y2="592.17" /><line x1="341.88" y1="581.17" x2="341.88" y2="592.64" /><line x1="343.14" y1="581.09" x2="343.14" y2="593.18" /><line x1="335.32" y1="592.41" x2="346.98" y2="580.74" /><line x1="369.45" y1="579.27" x2="369.45" y2="591.65" /><line x1="372.09" y1="579.76" x2="372.09" y2="591.55" /><line x1="374.48" y1="579.61" x2="374.48" y2="590.92" /><line x1="376.80" y1="579.35" x2="376.80" y2="591.86" /><line x1="367.73" y1="591.79" x2="379.46" y2="579.55" /><line x1="505.61" y1="581.61" x2="505.61" y2="593.59" /><line x1="507.88" y1="581.32" x2="507.88" y2="593.04" /><line x1="509.47" y1="581.24" x2="509.47" y2="592.96" /><line x1="512.43" y1="581.20" x2="512.43" y2="593.18" /><line x1="503.93" y1="593.21" x2="515.46" y2="581.15" /><line x1="465.48" y1="601.49" x2="465.48" y2="613.38" /><line x1="467.89" y1="602.14" x2="467.89" y2="614.04" /><line x1="471.62" y1="601.88" x2="471.62" y2="612.77" /><line x1="473.80" y1="601.70" x2="473.80" y2="613.95" /><line x1="464.77" y1="613.71" x2="476.99" y2="602.16" /></g><g id="03_Amber_Today" inkscape:groupmode="layer" inkscape:label="03_Amber_Today" stroke="#A84818" fill="none" stroke-width="1.05" stroke-linecap="round" stroke-linejoin="round"><line x1="286.07" y1="688.21" x2="286.07" y2="700.35" /><line x1="288.53" y1="688.26" x2="288.53" y2="700.35" /><line x1="290.00" y1="687.74" x2="290.00" y2="699.94" /><line x1="293.52" y1="687.96" x2="293.52" y2="700.17" /><line x1="285.09" y1="700.34" x2="297.42" y2="689.05" /><line x1="341.92" y1="688.05" x2="341.92" y2="699.67" /><line x1="345.50" y1="687.89" x2="345.50" y2="700.24" /><line x1="347.99" y1="687.97" x2="347.99" y2="699.66" /><line x1="350.56" y1="688.03" x2="350.56" y2="700.37" /><line x1="340.75" y1="699.92" x2="353.14" y2="687.95" /><line x1="398.13" y1="688.38" x2="398.13" y2="699.57" /><line x1="400.71" y1="687.81" x2="400.71" y2="700.21" /><line x1="403.49" y1="687.54" x2="403.49" y2="699.65" /><line x1="406.10" y1="687.50" x2="406.10" y2="700.20" /><line x1="396.93" y1="700.09" x2="409.48" y2="688.30" /><line x1="455.04" y1="688.54" x2="455.04" y2="700.76" /><line x1="457.53" y1="689.19" x2="457.53" y2="699.79" /><line x1="460.08" y1="688.05" x2="460.08" y2="699.75" /><line x1="461.90" y1="688.53" x2="461.90" y2="699.91" /><line x1="453.31" y1="700.03" x2="465.42" y2="688.78" /><line x1="513.59" y1="687.70" x2="513.59" y2="699.84" /><line x1="515.62" y1="688.00" x2="515.62" y2="699.73" /><line x1="519.80" y1="687.13" x2="519.80" y2="699.69" /><circle cx="517.68" cy="699.73" r="0.6" /></g></svg>