<?xml version='1.0' encoding='utf-8'?>
<svg xmlns="http://www.w3.org/2000/svg" xmlns:inkscape="http://www.inkscape.org/namespaces/inkscape" viewBox="204 228 408 600"><style>*{vector-effect:non-scaling-stroke}</style><g id="01_Black_Frame" inkscape:groupmode="layer" inkscape:label="01_Black_Frame" stroke="#1A1A1A" fill="none" stroke-width="0.875" stroke-linecap="round" stroke-linejoin="round"><path d="M 250.0,264.0 L 566.0,264.0 Q 576.0,264.0 576.0,274.0 L 576.0,782.0 Q 576.0,792.0 566.0,792.0 L 250.0,792.0 Q 240.0,792.0 240.0,782.0 L 240.0,274.0 Q 240.0,264.0 250.0,264.0" /><path d="M 253.0,270.0 L 563.0,270.0 Q 570.0,270.0 570.0,277.0 L 570.0,779.0 Q 570.0,786.0 563.0,786.0 L 253.0,786.0 Q 246.0,786.0 246.0,779.0 L 246.0,277.0 Q 246.0,270.0 253.0,270.0" /><line x1="259.0" y1="280.0" x2="263.0" y2="280.0" /><line x1="258.1" y1="282.1" x2="260.9" y2="284.9" /><line x1="256.0" y1="283.0" x2="256.0" y2="287.0" /><line x1="253.9" y1="282.1" x2="251.1" y2="284.9" /><line x1="253.0" y1="280.0" x2="249.0" y2="280.0" /><line x1="253.9" y1="277.9" x2="251.1" y2="275.1" /><line x1="256.0" y1="277.0" x2="256.0" y2="273.0" /><line x1="258.1" y1="277.9" x2="260.9" y2="275.1" /><line x1="563.0" y1="280.0" x2="567.0" y2="280.0" /><line x1="562.1" y1="282.1" x2="564.9" y2="284.9" /><line x1="560.0" y1="283.0" x2="560.0" y2="287.0" /><line x1="557.9" y1="282.1" x2="555.1" y2="284.9" /><line x1="557.0" y1="280.0" x2="553.0" y2="280.0" /><line x1="557.9" y1="277.9" x2="555.1" y2="275.1" /><line x1="560.0" y1="277.0" x2="560.0" y2="273.0" /><line x1="562.1" y1="277.9" x2="564.9" y2="275.1" /><line x1="259.0" y1="776.0" x2="263.0" y2="776.0" /><line x1="258.1" y1="778.1" x2="260.9" y2="780.9" /><line x1="256.0" y1="779.0" x2="256.0" y2="783.0" /><line x1="253.9" y1="778.1" x2="251.1" y2="780.9" /><line x1="253.0" y1="776.0" x2="249.0" y2="776.0" /><line x1="253.9" y1="773.9" x2="251.1" y2="771.1" /><line x1="256.0" y1="773.0" x2="256.0" y2="769.0" /><line x1="258.1" y1="773.9" x2="260.9" y2="771.1" /><line x1="563.0" y1="776.0" x2="567.0" y2="776.0" /><line x1="562.1" y1="778.1" x2="564.9" y2="780.9" /><line x1="560.0" y1="779.0" x2="560.0" y2="783.0" /><line x1="557.9" y1="778.1" x2="555.1" y2="780.9" /><line x1="557.0" y1="776.0" x2="553.0" y2="776.0" /><line x1="557.9" y1="773.9" x2="555.1" y2="771.1" /><line x1="560.0" y1="773.0" x2="560.0" y2="769.0" /><line x1="562.1" y1="773.9" x2="564.9" y2="771.1" /><polyline points="395.25,283.20 393.50,282.00 392.50,282.00 390.75,283.60 390.75,288.40 392.50,290.00 393.50,290.00 395.25,288.80" /><polyline points="396.50,282.00 401.50,290.00" /><polyline points="401.50,282.00 396.50,290.00" /><polyline points="402.25,282.00 407.25,290.00" /><polyline points="407.25,282.00 402.25,290.00" /><polyline points="408.00,282.00 413.00,290.00" /><polyline points="413.00,282.00 408.00,290.00" /><polyline points="413.75,282.00 416.25,290.00 418.75,282.00" /><polyline points="422.00,282.00 422.00,290.00" /><polyline points="378.10,297.00 384.60,297.00" /><polyline points="381.35,297.00 381.35,307.00" /><polyline points="385.58,297.00 385.58,307.00" /><polyline points="392.08,297.00 392.08,307.00" /><polyline points="385.58,301.80 392.08,301.80" /><polyline points="398.57,297.00 393.05,297.00 393.05,301.80 396.95,301.80" /><polyline points="393.05,301.80 393.05,307.00 398.57,307.00" /><polyline points="408.00,297.00 408.00,307.00" /><polyline points="413.85,297.00 408.00,302.00 413.85,307.00" /><polyline points="421.00,297.00 415.48,297.00 415.48,301.80 419.38,301.80" /><polyline points="415.48,301.80 415.48,307.00 421.00,307.00" /><polyline points="422.95,307.00 422.95,297.00 427.18,297.00 428.80,298.50 428.80,300.20 427.18,301.50 422.95,301.50" /><polyline points="430.43,297.00 436.93,297.00" /><polyline points="433.68,297.00 433.68,307.00" /><line x1="270.0" y1="312.0" x2="546.0" y2="312.0" /><line x1="270.0" y1="732.0" x2="546.0" y2="732.0" /><polyline points="376.71,741.42 375.73,740.75 375.17,740.75 374.19,741.65 374.19,744.35 375.17,745.25 375.73,745.25 376.71,744.58" /><polyline points="377.41,745.25 378.81,740.75 380.21,745.25" /><polyline points="377.91,743.67 379.71,743.67" /><polyline points="380.63,740.75 382.03,745.25 383.43,740.75" /><polyline points="386.23,740.75 383.85,740.75 383.85,742.91 385.53,742.91" /><polyline points="383.85,742.91 383.85,745.25 386.23,745.25" /><polyline points="395.89,741.20 395.19,740.75 394.35,740.75 393.65,741.42 393.51,742.10 393.93,742.64 394.91,743.00 395.89,743.36 396.31,743.90 396.17,744.58 395.47,745.25 394.49,745.25 393.79,744.80" /><polyline points="396.73,740.75 396.73,744.12 397.29,745.02 398.97,745.02 399.53,744.12 399.53,740.75" /><polyline points="399.95,745.25 399.95,740.75 401.35,743.23 402.75,740.75 402.75,745.25" /><polyline points="403.17,745.25 403.17,740.75 404.57,743.23 405.97,740.75 405.97,745.25" /><polyline points="407.79,740.75 407.79,745.25" /><polyline points="409.61,740.75 412.41,740.75" /><polyline points="411.01,740.75 411.01,745.25" /><polyline points="421.79,741.42 420.81,740.75 420.25,740.75 419.27,741.65 419.27,744.35 420.25,745.25 420.81,745.25 421.79,744.58 421.79,743.00 420.67,743.00" /><polyline points="422.49,745.25 422.49,740.75 424.31,740.75 425.01,741.42 425.01,742.19 424.31,742.77 422.49,742.77 425.01,745.25" /><polyline points="425.71,745.25 427.11,740.75 428.51,745.25" /><polyline points="426.21,743.67 428.01,743.67" /><polyline points="428.93,740.75 430.33,745.25 431.73,740.75" /><polyline points="433.55,740.75 433.55,745.25" /><polyline points="435.37,740.75 438.17,740.75" /><polyline points="436.77,740.75 436.77,745.25" /><polyline points="438.59,740.75 439.99,743.00 441.39,740.75" /><polyline points="439.99,743.00 439.99,745.25" /><polyline points="316.00,753.25 321.00,753.25" /><polyline points="318.50,753.25 318.50,760.75" /><polyline points="321.75,753.25 321.75,760.75" /><polyline points="326.75,753.25 326.75,760.75" /><polyline points="321.75,756.85 326.75,756.85" /><polyline points="331.75,753.25 327.50,753.25 327.50,756.85 330.50,756.85" /><polyline points="327.50,756.85 327.50,760.75 331.75,760.75" /><polyline points="333.25,753.25 335.75,757.00 338.25,753.25" /><polyline points="335.75,757.00 335.75,760.75" /><polyline points="344.75,753.25 346.00,760.75 347.25,755.88 348.50,760.75 349.75,753.25" /><polyline points="354.75,753.25 350.50,753.25 350.50,756.85 353.50,756.85" /><polyline points="350.50,756.85 350.50,760.75 354.75,760.75" /><polyline points="356.25,760.75 356.25,753.25 361.25,760.75 361.25,753.25" /><polyline points="362.00,753.25 367.00,753.25" /><polyline points="364.50,753.25 364.50,760.75" /><polyline points="373.50,760.75 373.50,753.25 376.25,753.25 378.00,755.12 378.00,758.88 376.25,760.75 373.50,760.75" /><polyline points="381.75,753.25 379.75,754.00 379.25,755.50 379.25,758.50 379.75,760.00 381.75,760.75 383.75,760.00 384.25,758.50 384.25,755.50 383.75,754.00 381.75,753.25" /><polyline points="385.00,753.25 386.25,760.75 387.50,755.88 388.75,760.75 390.00,753.25" /><polyline points="390.75,760.75 390.75,753.25 395.75,760.75 395.75,753.25" /><polyline points="402.25,753.25 407.25,753.25" /><polyline points="404.75,753.25 404.75,760.75" /><polyline points="410.50,753.25 408.50,754.00 408.00,755.50 408.00,758.50 408.50,760.00 410.50,760.75 412.50,760.00 413.00,758.50 413.00,755.50 412.50,754.00 410.50,753.25" /><polyline points="419.50,753.25 419.50,760.75 423.75,760.75" /><polyline points="429.50,753.25 425.25,753.25 425.25,756.85 428.25,756.85" /><polyline points="425.25,756.85 425.25,760.75 429.50,760.75" /><polyline points="431.00,760.75 433.50,753.25 436.00,760.75" /><polyline points="431.90,758.12 435.10,758.12" /><polyline points="436.75,760.75 436.75,753.25 440.00,753.25 441.25,754.38 441.25,755.65 440.00,756.62 436.75,756.62 441.25,760.75" /><polyline points="442.50,760.75 442.50,753.25 447.50,760.75 447.50,753.25" /><polyline points="454.00,753.25 459.00,753.25" /><polyline points="456.50,753.25 456.50,760.75" /><polyline points="459.75,753.25 459.75,760.75" /><polyline points="464.75,753.25 464.75,760.75" /><polyline points="459.75,756.85 464.75,756.85" /><polyline points="469.75,753.25 465.50,753.25 465.50,756.85 468.50,756.85" /><polyline points="465.50,756.85 465.50,760.75 469.75,760.75" /><polyline points="477.00,760.75 477.00,753.25 479.75,753.25 481.50,755.12 481.50,758.88 479.75,760.75 477.00,760.75" /><polyline points="482.75,760.75 485.25,753.25 487.75,760.75" /><polyline points="483.65,758.12 486.85,758.12" /><polyline points="488.50,760.75 488.50,753.25 491.75,753.25 493.00,754.38 493.00,755.65 491.75,756.62 488.50,756.62 493.00,760.75" /><polyline points="494.25,753.25 494.25,760.75" /><polyline points="498.75,753.25 494.25,757.00 498.75,760.75" /><polyline points="324.62,766.25 329.62,766.25" /><polyline points="327.12,766.25 327.12,773.75" /><polyline points="330.38,766.25 330.38,773.75" /><polyline points="335.38,766.25 335.38,773.75" /><polyline points="330.38,769.85 335.38,769.85" /><polyline points="340.38,766.25 336.12,766.25 336.12,769.85 339.12,769.85" /><polyline points="336.12,769.85 336.12,773.75 340.38,773.75" /><polyline points="347.62,773.75 347.62,766.25 350.38,766.25 352.12,768.12 352.12,771.88 350.38,773.75 347.62,773.75" /><polyline points="353.38,773.75 355.88,766.25 358.38,773.75" /><polyline points="354.27,771.12 357.48,771.12" /><polyline points="359.12,773.75 359.12,766.25 362.38,766.25 363.62,767.38 363.62,768.65 362.38,769.62 359.12,769.62 363.62,773.75" /><polyline points="364.88,766.25 364.88,773.75" /><polyline points="369.38,766.25 364.88,770.00 369.38,773.75" /><polyline points="376.38,766.25 377.62,773.75 378.88,768.88 380.12,773.75 381.38,766.25" /><polyline points="382.12,773.75 384.62,766.25 387.12,773.75" /><polyline points="383.02,771.12 386.23,771.12" /><polyline points="392.12,767.00 390.88,766.25 389.38,766.25 388.12,767.38 387.88,768.50 388.62,769.40 390.38,770.00 392.12,770.60 392.88,771.50 392.62,772.62 391.38,773.75 389.62,773.75 388.38,773.00" /><polyline points="399.38,773.75 401.88,766.25 404.38,773.75" /><polyline points="400.27,771.12 403.48,771.12" /><polyline points="410.88,773.75 410.88,766.25 414.12,766.25 415.12,767.15 415.12,768.35 414.12,769.25 410.88,769.25 414.12,769.25 415.12,770.15 415.12,772.85 414.12,773.75 410.88,773.75" /><polyline points="420.88,766.25 416.62,766.25 416.62,769.85 419.62,769.85" /><polyline points="416.62,769.85 416.62,773.75 420.88,773.75" /><polyline points="422.38,766.25 427.38,766.25" /><polyline points="424.88,766.25 424.88,773.75" /><polyline points="428.12,766.25 433.12,766.25" /><polyline points="430.62,766.25 430.62,773.75" /><polyline points="438.12,766.25 433.88,766.25 433.88,769.85 436.88,769.85" /><polyline points="433.88,769.85 433.88,773.75 438.12,773.75" /><polyline points="439.62,773.75 439.62,766.25 442.88,766.25 444.12,767.38 444.12,768.65 442.88,769.62 439.62,769.62 444.12,773.75" /><polyline points="455.38,767.00 454.12,766.25 452.62,766.25 451.38,767.38 451.12,768.50 451.88,769.40 453.62,770.00 455.38,770.60 456.12,771.50 455.88,772.62 454.62,773.75 452.88,773.75 451.62,773.00" /><polyline points="456.88,766.25 461.88,766.25" /><polyline points="459.38,766.25 459.38,773.75" /><polyline points="462.62,766.25 462.62,771.88 463.62,773.38 466.62,773.38 467.62,771.88 467.62,766.25" /><polyline points="468.38,773.75 468.38,766.25 471.12,766.25 472.88,768.12 472.88,771.88 471.12,773.75 468.38,773.75" /><polyline points="478.38,766.25 474.12,766.25 474.12,769.85 477.12,769.85" /><polyline points="474.12,769.85 474.12,773.75 478.38,773.75" /><polyline points="479.88,773.75 479.88,766.25 484.88,773.75 484.88,766.25" /><polyline points="485.62,766.25 490.62,766.25" /><polyline points="488.12,766.25 488.12,773.75" /><polyline points="385.92,779.50 387.52,784.50 389.12,779.50" /><polyline points="391.20,784.00 391.20,784.25" /><polyline points="393.28,779.50 396.48,784.50" /><polyline points="396.48,779.50 393.28,784.50" /><polyline points="396.96,779.50 398.56,784.50 400.16,779.50" /><polyline points="402.24,779.50 402.24,784.50" /><polyline points="405.92,784.00 405.92,784.25" /><polyline points="408.00,784.50 408.00,779.50 409.60,782.25 411.20,779.50 411.20,784.50" /><polyline points="411.68,784.50 411.68,779.50 413.28,782.25 414.88,779.50 414.88,784.50" /><polyline points="415.36,779.50 418.56,784.50" /><polyline points="418.56,779.50 415.36,784.50" /><polyline points="419.04,779.50 422.24,784.50" /><polyline points="422.24,779.50 419.04,784.50" /><polyline points="422.72,779.50 424.32,784.50 425.92,779.50" /><polyline points="428.00,779.50 428.00,784.50" /></g><g id="02_Teal_Image" inkscape:groupmode="layer" inkscape:label="02_Teal_Image" stroke="#3A7A7A" fill="none" stroke-width="0.75" stroke-linecap="round" stroke-linejoin="round"><polyline points="253.7,331.5 255.3,331.6 256.9,331.6 258.4,331.6 260.0,331.6 261.5,331.7 263.1,331.7 264.7,331.7 266.2,331.8 267.8,331.8 269.3,331.8 270.9,331.8 272.5,331.9 274.0,331.9 275.6,331.9 277.1,331.9 278.7,332.0 280.2,332.0 281.8,332.0 283.4,332.1 284.9,332.1 286.5,332.1 288.0,332.1 289.6,332.2 291.1,332.2 292.7,332.2 294.2,332.2 295.8,332.3 297.3,332.3 298.9,332.3 300.4,332.4 302.0,332.4 303.5,332.4 305.1,332.5 306.6,332.5 308.2,332.5 309.7,332.5 311.3,332.6 312.8,332.6 314.4,332.6 315.9,332.7 317.5,332.7 319.0,332.7 320.6,332.7 322.1,332.8 323.7,332.8 325.2,332.8 326.8,332.9 328.3,332.9 329.8,332.9 331.4,332.9 332.9,333.0 334.5,333.0 336.0,333.0 337.6,333.0 339.1,333.1 340.6,333.1 342.2,333.1 343.7,333.1 345.2,333.2 346.8,333.2 348.3,333.2 349.9,333.2 351.4,333.3 352.9,333.3 354.5,333.3 356.0,333.3 357.5,333.4 359.1,333.4 360.6,333.4 362.1,333.4 363.7,333.4 365.2,333.5 366.7,333.5 368.3,333.5 369.8,333.5 371.3,333.5 372.9,333.5 374.4,333.6 375.9,333.6 377.5,333.6 379.0,333.6 380.5,333.6 382.0,333.6 383.6,333.6 385.1,333.6 386.6,333.7 388.2,333.7 389.7,333.7 391.2,333.7 392.7,333.7 394.3,333.7 395.8,333.7 397.3,333.7 398.8,333.7 400.4,333.7 401.9,333.7 403.4,333.7 404.9,333.7 406.5,333.7 408.0,333.7 409.5,333.7 411.1,333.7 412.6,333.7 414.1,333.7 415.6,333.7 417.2,333.7 418.7,333.7 420.2,333.7 421.7,333.7 423.3,333.7 424.8,333.7 426.3,333.7 427.8,333.7 429.4,333.7 430.9,333.6 432.4,333.6 434.0,333.6 435.5,333.6 437.0,333.6 438.5,333.6 440.1,333.6 441.6,333.6 443.1,333.5 444.7,333.5 446.2,333.5 447.7,333.5 449.3,333.5 450.8,333.5 452.3,333.4 453.9,333.4 455.4,333.4 456.9,333.4 458.5,333.4 460.0,333.3 461.5,333.3 463.1,333.3 464.6,333.3 466.1,333.2 467.7,333.2 469.2,333.2 470.8,333.2 472.3,333.1 473.8,333.1 475.4,333.1 476.9,333.1 478.4,333.0 480.0,333.0 481.5,333.0 483.1,333.0 484.6,332.9 486.2,332.9 487.7,332.9 489.2,332.9 490.8,332.8 492.3,332.8 493.9,332.8 495.4,332.7 497.0,332.7 498.5,332.7 500.1,332.7 501.6,332.6 503.2,332.6 504.7,332.6 506.3,332.5 507.8,332.5 509.4,332.5 510.9,332.5 512.5,332.4 514.0,332.4 515.6,332.4 517.1,332.3 518.7,332.3 520.2,332.3 521.8,332.2 523.3,332.2 524.9,332.2 526.4,332.2 528.0,332.1 529.5,332.1 531.1,332.1 532.6,332.1 534.2,332.0 535.8,332.0 537.3,332.0 538.9,331.9 540.4,331.9 542.0,331.9 543.5,331.9 545.1,331.8 546.7,331.8 548.2,331.8 549.8,331.8 551.3,331.7 552.9,331.7 554.5,331.7 556.0,331.6 557.6,331.6 559.1,331.6 560.7,331.6 562.3,331.5" /><polyline points="254.1,352.2 255.7,352.2 257.2,352.2 258.8,352.3 260.4,352.3 261.9,352.3 263.5,352.4 265.0,352.4 266.6,352.4 268.2,352.5 269.7,352.5 271.3,352.5 272.9,352.6 274.4,352.6 276.0,352.6 277.5,352.7 279.1,352.7 280.7,352.7 282.2,352.8 283.8,352.8 285.3,352.8 286.9,352.9 288.4,352.9 290.0,353.0 291.6,353.0 293.1,353.0 294.7,353.1 296.2,353.1 297.8,353.1 299.3,353.2 300.9,353.2 302.4,353.3 304.0,353.3 305.5,353.3 307.1,353.4 308.6,353.4 310.2,353.5 311.7,353.5 313.3,353.5 314.8,353.6 316.4,353.6 317.9,353.6 319.5,353.7 321.0,353.7 322.6,353.8 324.1,353.8 325.6,353.8 327.2,353.9 328.7,353.9 330.3,354.0 331.8,354.0 333.3,354.0 334.9,354.1 336.4,354.1 338.0,354.1 339.5,354.2 341.0,354.2 342.6,354.3 344.1,354.3 345.6,354.3 347.2,354.4 348.7,354.4 350.2,354.4 351.8,354.5 353.3,354.5 354.8,354.5 356.3,354.6 357.9,354.6 359.4,354.6 360.9,354.7 362.5,354.7 364.0,354.7 365.5,354.7 367.0,354.8 368.6,354.8 370.1,354.8 371.6,354.8 373.1,354.9 374.6,354.9 376.2,354.9 377.7,354.9 379.2,355.0 380.7,355.0 382.2,355.0 383.8,355.0 385.3,355.0 386.8,355.0 388.3,355.1 389.8,355.1 391.3,355.1 392.9,355.1 394.4,355.1 395.9,355.1 397.4,355.1 398.9,355.1 400.4,355.1 401.9,355.1 403.5,355.2 405.0,355.2 406.5,355.2 408.0,355.2 409.5,355.2 411.0,355.2 412.5,355.2 414.1,355.1 415.6,355.1 417.1,355.1 418.6,355.1 420.1,355.1 421.6,355.1 423.1,355.1 424.7,355.1 426.2,355.1 427.7,355.1 429.2,355.0 430.7,355.0 432.2,355.0 433.8,355.0 435.3,355.0 436.8,355.0 438.3,354.9 439.8,354.9 441.4,354.9 442.9,354.9 444.4,354.8 445.9,354.8 447.4,354.8 449.0,354.8 450.5,354.7 452.0,354.7 453.5,354.7 455.1,354.7 456.6,354.6 458.1,354.6 459.7,354.6 461.2,354.5 462.7,354.5 464.2,354.5 465.8,354.4 467.3,354.4 468.8,354.4 470.4,354.3 471.9,354.3 473.4,354.3 475.0,354.2 476.5,354.2 478.0,354.1 479.6,354.1 481.1,354.1 482.7,354.0 484.2,354.0 485.7,354.0 487.3,353.9 488.8,353.9 490.4,353.8 491.9,353.8 493.4,353.8 495.0,353.7 496.5,353.7 498.1,353.6 499.6,353.6 501.2,353.6 502.7,353.5 504.3,353.5 505.8,353.5 507.4,353.4 508.9,353.4 510.5,353.3 512.0,353.3 513.6,353.3 515.1,353.2 516.7,353.2 518.2,353.1 519.8,353.1 521.3,353.1 522.9,353.0 524.4,353.0 526.0,353.0 527.6,352.9 529.1,352.9 530.7,352.8 532.2,352.8 533.8,352.8 535.3,352.7 536.9,352.7 538.5,352.7 540.0,352.6 541.6,352.6 543.1,352.6 544.7,352.5 546.3,352.5 547.8,352.5 549.4,352.4 551.0,352.4 552.5,352.4 554.1,352.3 555.6,352.3 557.2,352.3 558.8,352.2 560.3,352.2 561.9,352.2" /><polyline points="254.6,372.8 256.1,372.8 257.7,372.9 259.3,372.9 260.8,372.9 262.4,373.0 264.0,373.0 265.5,373.1 267.1,373.1 268.7,373.1 270.2,373.2 271.8,373.2 273.4,373.3 274.9,373.3 276.5,373.4 278.1,373.4 279.6,373.5 281.2,373.5 282.8,373.5 284.3,373.6 285.9,373.6 287.4,373.7 289.0,373.7 290.6,373.8 292.1,373.8 293.7,373.9 295.2,373.9 296.8,374.0 298.4,374.0 299.9,374.1 301.5,374.1 303.0,374.2 304.6,374.2 306.1,374.3 307.7,374.4 309.2,374.4 310.8,374.5 312.3,374.5 313.9,374.6 315.4,374.6 317.0,374.7 318.5,374.7 320.1,374.8 321.6,374.8 323.2,374.9 324.7,375.0 326.3,375.0 327.8,375.1 329.3,375.1 330.9,375.2 332.4,375.2 333.9,375.3 335.5,375.3 337.0,375.4 338.5,375.4 340.1,375.5 341.6,375.6 343.1,375.6 344.7,375.7 346.2,375.7 347.7,375.8 349.2,375.8 350.8,375.9 352.3,375.9 353.8,376.0 355.3,376.0 356.9,376.1 358.4,376.1 359.9,376.2 361.4,376.2 362.9,376.2 364.4,376.3 366.0,376.3 367.5,376.4 369.0,376.4 370.5,376.5 372.0,376.5 373.5,376.5 375.0,376.6 376.5,376.6 378.0,376.6 379.5,376.7 381.0,376.7 382.5,376.7 384.0,376.8 385.5,376.8 387.0,376.8 388.5,376.8 390.0,376.9 391.5,376.9 393.0,376.9 394.5,376.9 396.0,376.9 397.5,376.9 399.0,376.9 400.5,377.0 402.0,377.0 403.5,377.0 405.0,377.0 406.5,377.0 408.0,377.0 409.5,377.0 411.0,377.0 412.5,377.0 414.0,377.0 415.5,377.0 417.0,376.9 418.5,376.9 420.0,376.9 421.5,376.9 423.0,376.9 424.5,376.9 426.0,376.9 427.5,376.8 429.0,376.8 430.5,376.8 432.0,376.8 433.5,376.7 435.0,376.7 436.5,376.7 438.0,376.6 439.5,376.6 441.0,376.6 442.5,376.5 444.0,376.5 445.5,376.5 447.0,376.4 448.5,376.4 450.0,376.3 451.6,376.3 453.1,376.2 454.6,376.2 456.1,376.2 457.6,376.1 459.1,376.1 460.7,376.0 462.2,376.0 463.7,375.9 465.2,375.9 466.8,375.8 468.3,375.8 469.8,375.7 471.3,375.7 472.9,375.6 474.4,375.6 475.9,375.5 477.5,375.4 479.0,375.4 480.5,375.3 482.1,375.3 483.6,375.2 485.1,375.2 486.7,375.1 488.2,375.1 489.7,375.0 491.3,375.0 492.8,374.9 494.4,374.8 495.9,374.8 497.5,374.7 499.0,374.7 500.6,374.6 502.1,374.6 503.7,374.5 505.2,374.5 506.8,374.4 508.3,374.4 509.9,374.3 511.4,374.2 513.0,374.2 514.5,374.1 516.1,374.1 517.6,374.0 519.2,374.0 520.8,373.9 522.3,373.9 523.9,373.8 525.4,373.8 527.0,373.7 528.6,373.7 530.1,373.6 531.7,373.6 533.2,373.5 534.8,373.5 536.4,373.5 537.9,373.4 539.5,373.4 541.1,373.3 542.6,373.3 544.2,373.2 545.8,373.2 547.3,373.1 548.9,373.1 550.5,373.1 552.0,373.0 553.6,373.0 555.2,372.9 556.7,372.9 558.3,372.9 559.9,372.8 561.4,372.8" /><polyline points="255.1,393.4 256.7,393.4 258.3,393.5 259.8,393.5 261.4,393.6 263.0,393.6 264.6,393.7 266.1,393.7 267.7,393.8 269.3,393.8 270.9,393.9 272.5,393.9 274.0,394.0 275.6,394.0 277.2,394.1 278.7,394.2 280.3,394.2 281.9,394.3 283.5,394.3 285.0,394.4 286.6,394.5 288.2,394.5 289.7,394.6 291.3,394.7 292.9,394.7 294.4,394.8 296.0,394.9 297.6,394.9 299.1,395.0 300.7,395.1 302.3,395.1 303.8,395.2 305.4,395.3 307.0,395.3 308.5,395.4 310.1,395.5 311.6,395.6 313.2,395.6 314.7,395.7 316.3,395.8 317.8,395.9 319.4,396.0 320.9,396.0 322.5,396.1 324.0,396.2 325.6,396.3 327.1,396.3 328.7,396.4 330.2,396.5 331.7,396.6 333.3,396.7 334.8,396.8 336.4,396.8 337.9,396.9 339.4,397.0 340.9,397.1 342.5,397.2 344.0,397.2 345.5,397.3 347.0,397.4 348.6,397.5 350.1,397.6 351.6,397.6 353.1,397.7 354.6,397.8 356.1,397.9 357.6,397.9 359.2,398.0 360.7,398.1 362.2,398.2 363.7,398.2 365.2,398.3 366.7,398.4 368.2,398.4 369.6,398.5 371.1,398.6 372.6,398.6 374.1,398.7 375.6,398.7 377.1,398.8 378.6,398.9 380.1,398.9 381.5,399.0 383.0,399.0 384.5,399.1 386.0,399.1 387.4,399.1 388.9,399.2 390.4,399.2 391.9,399.2 393.3,399.3 394.8,399.3 396.3,399.3 397.7,399.3 399.2,399.4 400.7,399.4 402.1,399.4 403.6,399.4 405.1,399.4 406.5,399.4 408.0,399.4 409.5,399.4 410.9,399.4 412.4,399.4 413.9,399.4 415.3,399.4 416.8,399.4 418.3,399.3 419.7,399.3 421.2,399.3 422.7,399.3 424.1,399.2 425.6,399.2 427.1,399.2 428.6,399.1 430.0,399.1 431.5,399.1 433.0,399.0 434.5,399.0 435.9,398.9 437.4,398.9 438.9,398.8 440.4,398.7 441.9,398.7 443.4,398.6 444.9,398.6 446.4,398.5 447.8,398.4 449.3,398.4 450.8,398.3 452.3,398.2 453.8,398.2 455.3,398.1 456.8,398.0 458.4,397.9 459.9,397.9 461.4,397.8 462.9,397.7 464.4,397.6 465.9,397.6 467.4,397.5 469.0,397.4 470.5,397.3 472.0,397.2 473.5,397.2 475.1,397.1 476.6,397.0 478.1,396.9 479.6,396.8 481.2,396.8 482.7,396.7 484.3,396.6 485.8,396.5 487.3,396.4 488.9,396.3 490.4,396.3 492.0,396.2 493.5,396.1 495.1,396.0 496.6,396.0 498.2,395.9 499.7,395.8 501.3,395.7 502.8,395.6 504.4,395.6 505.9,395.5 507.5,395.4 509.0,395.3 510.6,395.3 512.2,395.2 513.7,395.1 515.3,395.1 516.9,395.0 518.4,394.9 520.0,394.9 521.6,394.8 523.1,394.7 524.7,394.7 526.3,394.6 527.8,394.5 529.4,394.5 531.0,394.4 532.5,394.3 534.1,394.3 535.7,394.2 537.3,394.2 538.8,394.1 540.4,394.0 542.0,394.0 543.5,393.9 545.1,393.9 546.7,393.8 548.3,393.8 549.9,393.7 551.4,393.7 553.0,393.6 554.6,393.6 556.2,393.5 557.7,393.5 559.3,393.4 560.9,393.4" /><polyline points="255.8,413.9 257.4,414.0 259.0,414.0 260.5,414.1 262.1,414.1 263.7,414.2 265.3,414.3 266.9,414.3 268.5,414.4 270.1,414.5 271.7,414.5 273.3,414.6 274.8,414.7 276.4,414.7 278.0,414.8 279.6,414.9 281.2,415.0 282.8,415.0 284.4,415.1 286.0,415.2 287.5,415.3 289.1,415.4 290.7,415.4 292.3,415.5 293.9,415.6 295.5,415.7 297.0,415.8 298.6,415.9 300.2,416.0 301.8,416.1 303.4,416.2 304.9,416.3 306.5,416.4 308.1,416.5 309.7,416.6 311.2,416.7 312.8,416.8 314.4,416.9 315.9,417.0 317.5,417.1 319.1,417.2 320.6,417.3 322.2,417.4 323.7,417.5 325.3,417.6 326.9,417.8 328.4,417.9 330.0,418.0 331.5,418.1 333.0,418.2 334.6,418.4 336.1,418.5 337.7,418.6 339.2,418.7 340.7,418.9 342.3,419.0 343.8,419.1 345.3,419.2 346.8,419.4 348.4,419.5 349.9,419.6 351.4,419.7 352.9,419.9 354.4,420.0 355.9,420.1 357.4,420.2 358.9,420.4 360.4,420.5 361.9,420.6 363.4,420.7 364.9,420.8 366.3,421.0 367.8,421.1 369.3,421.2 370.8,421.3 372.2,421.4 373.7,421.5 375.1,421.6 376.6,421.7 378.0,421.8 379.5,421.9 380.9,422.0 382.4,422.1 383.8,422.2 385.3,422.3 386.7,422.3 388.1,422.4 389.6,422.5 391.0,422.5 392.4,422.6 393.8,422.6 395.3,422.7 396.7,422.7 398.1,422.8 399.5,422.8 400.9,422.8 402.3,422.9 403.8,422.9 405.2,422.9 406.6,422.9 408.0,422.9 409.4,422.9 410.8,422.9 412.2,422.9 413.7,422.9 415.1,422.8 416.5,422.8 417.9,422.8 419.3,422.7 420.7,422.7 422.2,422.6 423.6,422.6 425.0,422.5 426.4,422.5 427.9,422.4 429.3,422.3 430.7,422.3 432.2,422.2 433.6,422.1 435.1,422.0 436.5,421.9 438.0,421.8 439.4,421.7 440.9,421.6 442.3,421.5 443.8,421.4 445.2,421.3 446.7,421.2 448.2,421.1 449.7,421.0 451.1,420.8 452.6,420.7 454.1,420.6 455.6,420.5 457.1,420.4 458.6,420.2 460.1,420.1 461.6,420.0 463.1,419.9 464.6,419.7 466.1,419.6 467.6,419.5 469.2,419.4 470.7,419.2 472.2,419.1 473.7,419.0 475.3,418.9 476.8,418.7 478.3,418.6 479.9,418.5 481.4,418.4 483.0,418.2 484.5,418.1 486.0,418.0 487.6,417.9 489.1,417.8 490.7,417.6 492.3,417.5 493.8,417.4 495.4,417.3 496.9,417.2 498.5,417.1 500.1,417.0 501.6,416.9 503.2,416.8 504.8,416.7 506.3,416.6 507.9,416.5 509.5,416.4 511.1,416.3 512.6,416.2 514.2,416.1 515.8,416.0 517.4,415.9 519.0,415.8 520.5,415.7 522.1,415.6 523.7,415.5 525.3,415.4 526.9,415.4 528.5,415.3 530.0,415.2 531.6,415.1 533.2,415.0 534.8,415.0 536.4,414.9 538.0,414.8 539.6,414.7 541.2,414.7 542.7,414.6 544.3,414.5 545.9,414.5 547.5,414.4 549.1,414.3 550.7,414.3 552.3,414.2 553.9,414.1 555.5,414.1 557.0,414.0 558.6,414.0 560.2,413.9" /><polyline points="256.6,434.4 258.2,434.4 259.8,434.5 261.4,434.6 263.0,434.6 264.6,434.7 266.2,434.8 267.8,434.9 269.4,434.9 271.0,435.0 272.6,435.1 274.3,435.2 275.9,435.3 277.5,435.3 279.1,435.4 280.7,435.5 282.3,435.6 283.9,435.7 285.5,435.8 287.1,435.9 288.7,436.0 290.4,436.1 292.0,436.2 293.6,436.3 295.2,436.4 296.8,436.5 298.4,436.7 300.0,436.8 301.6,436.9 303.2,437.0 304.8,437.2 306.4,437.3 308.0,437.4 309.6,437.6 311.2,437.7 312.8,437.8 314.4,438.0 316.0,438.1 317.6,438.3 319.2,438.4 320.8,438.6 322.4,438.8 324.0,438.9 325.6,439.1 327.1,439.3 328.7,439.4 330.3,439.6 331.9,439.8 333.4,440.0 335.0,440.1 336.6,440.3 338.1,440.5 339.7,440.7 341.3,440.9 342.8,441.1 344.4,441.3 345.9,441.5 347.4,441.7 349.0,441.9 350.5,442.1 352.0,442.3 353.5,442.5 355.0,442.7 356.6,442.9 358.1,443.2 359.5,443.4 361.0,443.6 362.5,443.8 364.0,444.0 365.5,444.2 366.9,444.4 368.4,444.6 369.8,444.8 371.3,445.0 372.7,445.2 374.1,445.4 375.6,445.6 377.0,445.8 378.4,446.0 379.8,446.2 381.2,446.4 382.6,446.5 383.9,446.7 385.3,446.9 386.7,447.0 388.1,447.2 389.4,447.3 390.8,447.4 392.1,447.6 393.5,447.7 394.8,447.8 396.1,447.9 397.5,448.0 398.8,448.1 400.1,448.1 401.4,448.2 402.7,448.2 404.1,448.3 405.4,448.3 406.7,448.3 408.0,448.3 409.3,448.3 410.6,448.3 411.9,448.3 413.3,448.2 414.6,448.2 415.9,448.1 417.2,448.1 418.5,448.0 419.9,447.9 421.2,447.8 422.5,447.7 423.9,447.6 425.2,447.4 426.6,447.3 427.9,447.2 429.3,447.0 430.7,446.9 432.1,446.7 433.4,446.5 434.8,446.4 436.2,446.2 437.6,446.0 439.0,445.8 440.4,445.6 441.9,445.4 443.3,445.2 444.7,445.0 446.2,444.8 447.6,444.6 449.1,444.4 450.5,444.2 452.0,444.0 453.5,443.8 455.0,443.6 456.5,443.4 457.9,443.2 459.4,442.9 461.0,442.7 462.5,442.5 464.0,442.3 465.5,442.1 467.0,441.9 468.6,441.7 470.1,441.5 471.6,441.3 473.2,441.1 474.7,440.9 476.3,440.7 477.9,440.5 479.4,440.3 481.0,440.1 482.6,440.0 484.1,439.8 485.7,439.6 487.3,439.4 488.9,439.3 490.4,439.1 492.0,438.9 493.6,438.8 495.2,438.6 496.8,438.4 498.4,438.3 500.0,438.1 501.6,438.0 503.2,437.8 504.8,437.7 506.4,437.6 508.0,437.4 509.6,437.3 511.2,437.2 512.8,437.0 514.4,436.9 516.0,436.8 517.6,436.7 519.2,436.5 520.8,436.4 522.4,436.3 524.0,436.2 525.6,436.1 527.3,436.0 528.9,435.9 530.5,435.8 532.1,435.7 533.7,435.6 535.3,435.5 536.9,435.4 538.5,435.3 540.1,435.3 541.7,435.2 543.4,435.1 545.0,435.0 546.6,434.9 548.2,434.9 549.8,434.8 551.4,434.7 553.0,434.6 554.6,434.6 556.2,434.5 557.8,434.4 559.4,434.4" /><polyline points="257.4,454.7 259.1,454.7 260.7,454.8 262.3,454.9 264.0,455.0 265.6,455.0 267.2,455.1 268.9,455.2 270.5,455.3 272.1,455.4 273.8,455.5 275.4,455.6 277.1,455.7 278.7,455.8 280.4,455.9 282.0,456.0 283.6,456.1 285.3,456.2 286.9,456.3 288.6,456.4 290.2,456.5 291.9,456.7 293.5,456.8 295.2,456.9 296.8,457.1 298.5,457.2 300.1,457.4 301.8,457.5 303.4,457.7 305.1,457.8 306.7,458.0 308.4,458.2 310.1,458.3 311.7,458.5 313.4,458.7 315.0,458.9 316.7,459.1 318.3,459.3 320.0,459.5 321.6,459.7 323.3,459.9 324.9,460.1 326.6,460.4 328.2,460.6 329.8,460.8 331.5,461.1 333.1,461.4 334.8,461.6 336.4,461.9 338.0,462.2 339.6,462.4 341.3,462.7 342.9,463.0 344.5,463.3 346.1,463.7 347.7,464.0 349.3,464.3 350.9,464.6 352.5,465.0 354.0,465.3 355.6,465.7 357.2,466.0 358.7,466.4 360.3,466.8 361.8,467.1 363.3,467.5 364.8,467.9 366.3,468.3 367.8,468.7 369.3,469.1 370.7,469.5 372.2,469.8 373.6,470.2 375.0,470.6 376.4,471.0 377.8,471.4 379.2,471.8 380.5,472.2 381.9,472.6 383.2,473.0 384.5,473.3 385.8,473.7 387.1,474.1 388.4,474.4 389.6,474.7 390.9,475.0 392.1,475.3 393.3,475.6 394.5,475.9 395.6,476.2 396.8,476.4 398.0,476.6 399.1,476.8 400.2,477.0 401.4,477.2 402.5,477.3 403.6,477.4 404.7,477.5 405.8,477.5 406.9,477.6 408.0,477.6 409.1,477.6 410.2,477.5 411.3,477.5 412.4,477.4 413.5,477.3 414.6,477.2 415.8,477.0 416.9,476.8 418.0,476.6 419.2,476.4 420.4,476.2 421.5,475.9 422.7,475.6 423.9,475.3 425.1,475.0 426.4,474.7 427.6,474.4 428.9,474.1 430.2,473.7 431.5,473.3 432.8,473.0 434.1,472.6 435.5,472.2 436.8,471.8 438.2,471.4 439.6,471.0 441.0,470.6 442.4,470.2 443.8,469.8 445.3,469.5 446.7,469.1 448.2,468.7 449.7,468.3 451.2,467.9 452.7,467.5 454.2,467.1 455.7,466.8 457.3,466.4 458.8,466.0 460.4,465.7 462.0,465.3 463.5,465.0 465.1,464.6 466.7,464.3 468.3,464.0 469.9,463.7 471.5,463.3 473.1,463.0 474.7,462.7 476.4,462.4 478.0,462.2 479.6,461.9 481.2,461.6 482.9,461.4 484.5,461.1 486.2,460.8 487.8,460.6 489.4,460.4 491.1,460.1 492.7,459.9 494.4,459.7 496.0,459.5 497.7,459.3 499.3,459.1 501.0,458.9 502.6,458.7 504.3,458.5 505.9,458.3 507.6,458.2 509.3,458.0 510.9,457.8 512.6,457.7 514.2,457.5 515.9,457.4 517.5,457.2 519.2,457.1 520.8,456.9 522.5,456.8 524.1,456.7 525.8,456.5 527.4,456.4 529.1,456.3 530.7,456.2 532.4,456.1 534.0,456.0 535.6,455.9 537.3,455.8 538.9,455.7 540.6,455.6 542.2,455.5 543.9,455.4 545.5,455.3 547.1,455.2 548.8,455.1 550.4,455.0 552.0,455.0 553.7,454.9 555.3,454.8 556.9,454.7 558.6,454.7" /><polyline points="258.4,474.7 260.0,474.8 261.7,474.9 263.3,475.0 265.0,475.0 266.7,475.1 268.3,475.2 270.0,475.3 271.7,475.4 273.4,475.5 275.0,475.6 276.7,475.7 278.4,475.8 280.1,475.9 281.8,476.0 283.5,476.1 285.2,476.2 286.9,476.3 288.6,476.5 290.3,476.6 292.0,476.7 293.7,476.9 295.4,477.0 297.1,477.2 298.8,477.3 300.5,477.5 302.2,477.6 304.0,477.8 305.7,478.0 307.4,478.2 309.1,478.4 310.9,478.6 312.6,478.8 314.4,479.0 316.1,479.2 317.8,479.5 319.6,479.7 321.3,480.0 323.1,480.2 324.9,480.5 326.6,480.8 328.4,481.1 330.1,481.4 331.9,481.7 333.7,482.0 335.4,482.4 337.2,482.7 339.0,483.1 340.7,483.5 342.5,483.9 344.3,484.3 346.0,484.7 347.8,485.2 349.5,485.7 351.3,486.1 353.1,486.6 354.8,487.2 356.6,487.7 358.3,488.2 360.0,488.8 361.7,489.4 363.4,490.0 365.1,490.7 366.8,491.3 368.5,492.0 370.2,492.7 371.8,493.4 373.4,494.1 375.0,494.9 376.6,495.6 378.2,496.4 379.7,497.2 381.2,498.1 382.7,498.9 383.7,498.9 384.6,498.9 385.5,498.9 386.5,498.9 387.4,498.9 388.3,498.9 389.3,498.9 390.2,498.9 391.2,498.9 392.1,498.9 393.0,498.9 394.0,498.9 394.9,498.9 395.8,498.9 396.8,498.9 397.7,498.9 398.6,498.9 399.6,498.9 400.5,498.9 401.4,498.9 402.4,498.9 403.3,498.9 404.3,498.9 405.2,498.9 406.1,498.9 407.1,498.9 408.0,498.9 408.9,498.9 409.9,498.9 410.8,498.9 411.7,498.9 412.7,498.9 413.6,498.9 414.6,498.9 415.5,498.9 416.4,498.9 417.4,498.9 418.3,498.9 419.2,498.9 420.2,498.9 421.1,498.9 422.0,498.9 423.0,498.9 423.9,498.9 424.8,498.9 425.8,498.9 426.7,498.9 427.7,498.9 428.6,498.9 429.5,498.9 430.5,498.9 431.4,498.9 432.3,498.9 433.3,498.9 434.8,498.1 436.3,497.2 437.8,496.4 439.4,495.6 441.0,494.9 442.6,494.1 444.2,493.4 445.8,492.7 447.5,492.0 449.2,491.3 450.9,490.7 452.6,490.0 454.3,489.4 456.0,488.8 457.7,488.2 459.4,487.7 461.2,487.2 462.9,486.6 464.7,486.1 466.5,485.7 468.2,485.2 470.0,484.7 471.7,484.3 473.5,483.9 475.3,483.5 477.0,483.1 478.8,482.7 480.6,482.4 482.3,482.0 484.1,481.7 485.9,481.4 487.6,481.1 489.4,480.8 491.1,480.5 492.9,480.2 494.7,480.0 496.4,479.7 498.2,479.5 499.9,479.2 501.6,479.0 503.4,478.8 505.1,478.6 506.9,478.4 508.6,478.2 510.3,478.0 512.0,477.8 513.8,477.6 515.5,477.5 517.2,477.3 518.9,477.2 520.6,477.0 522.3,476.9 524.0,476.7 525.7,476.6 527.4,476.5 529.1,476.3 530.8,476.2 532.5,476.1 534.2,476.0 535.9,475.9 537.6,475.8 539.3,475.7 541.0,475.6 542.6,475.5 544.3,475.4 546.0,475.3 547.7,475.2 549.3,475.1 551.0,475.0 552.7,475.0 554.3,474.9 556.0,474.8 557.6,474.7" /><polyline points="259.2,494.6 260.9,494.6 262.6,494.7 264.3,494.8 266.0,494.8 267.7,494.9 269.4,495.0 271.1,495.0 272.8,495.1 274.5,495.2 276.3,495.3 278.0,495.4 279.7,495.5 281.4,495.6 283.2,495.7 284.9,495.8 286.7,495.9 288.4,496.0 290.2,496.1 292.0,496.2 293.7,496.4 295.5,496.5 297.3,496.6 299.1,496.8 300.9,496.9 302.7,497.1 304.5,497.2 306.3,497.4 308.1,497.6 310.0,497.8 311.8,498.0 313.7,498.2 315.5,498.4 317.4,498.6 319.3,498.9 321.1,499.1 323.0,499.4 324.9,499.7 326.9,500.0 328.8,500.3 330.7,500.6 332.7,500.9 334.6,501.3 336.6,501.6 338.6,502.0 340.5,502.4 342.6,502.9 344.6,503.3 346.6,503.8 348.6,504.3 350.7,504.8 352.7,505.4 354.8,506.0 356.9,506.6 359.0,507.3 361.1,508.0 363.2,508.7 365.4,509.5 367.5,510.3 369.6,511.2 370.6,511.2 371.5,511.2 372.4,511.2 373.4,511.2 374.3,511.2 375.2,511.2 376.2,511.2 377.1,511.2 378.0,511.2 379.0,511.2 379.9,511.2 380.9,511.2 381.8,511.2 382.7,511.2 383.7,511.2 384.6,511.2 385.5,511.2 386.5,511.2 387.4,511.2 388.3,511.2 389.3,511.2 390.2,511.2 391.2,511.2 392.1,511.2 393.0,511.2 394.0,511.2 394.9,511.2 395.8,511.2 396.8,511.2 397.7,511.2 398.6,511.2 399.6,511.2 400.5,511.2 401.4,511.2 402.4,511.2 403.3,511.2 404.3,511.2 405.2,511.2 406.1,511.2 407.1,511.2 408.0,511.2 408.9,511.2 409.9,511.2 410.8,511.2 411.7,511.2 412.7,511.2 413.6,511.2 414.6,511.2 415.5,511.2 416.4,511.2 417.4,511.2 418.3,511.2 419.2,511.2 420.2,511.2 421.1,511.2 422.0,511.2 423.0,511.2 423.9,511.2 424.8,511.2 425.8,511.2 426.7,511.2 427.7,511.2 428.6,511.2 429.5,511.2 430.5,511.2 431.4,511.2 432.3,511.2 433.3,511.2 434.2,511.2 435.1,511.2 436.1,511.2 437.0,511.2 438.0,511.2 438.9,511.2 439.8,511.2 440.8,511.2 441.7,511.2 442.6,511.2 443.6,511.2 444.5,511.2 445.4,511.2 446.4,511.2 448.5,510.3 450.6,509.5 452.8,508.7 454.9,508.0 457.0,507.3 459.1,506.6 461.2,506.0 463.3,505.4 465.3,504.8 467.4,504.3 469.4,503.8 471.4,503.3 473.4,502.9 475.5,502.4 477.4,502.0 479.4,501.6 481.4,501.3 483.3,500.9 485.3,500.6 487.2,500.3 489.1,500.0 491.1,499.7 493.0,499.4 494.9,499.1 496.7,498.9 498.6,498.6 500.5,498.4 502.3,498.2 504.2,498.0 506.0,497.8 507.9,497.6 509.7,497.4 511.5,497.2 513.3,497.1 515.1,496.9 516.9,496.8 518.7,496.6 520.5,496.5 522.3,496.4 524.0,496.2 525.8,496.1 527.6,496.0 529.3,495.9 531.1,495.8 532.8,495.7 534.6,495.6 536.3,495.5 538.0,495.4 539.7,495.3 541.5,495.2 543.2,495.1 544.9,495.0 546.6,495.0 548.3,494.9 550.0,494.8 551.7,494.8 553.4,494.7 555.1,494.6 556.8,494.6" /><polyline points="258.9,592.0 260.6,591.9 262.2,591.8 263.9,591.8 265.6,591.7 267.3,591.6 269.0,591.5 270.7,591.5 272.4,591.4 274.1,591.3 275.8,591.2 277.5,591.1 279.2,591.0 280.9,590.9 282.6,590.8 284.4,590.7 286.1,590.6 287.8,590.4 289.6,590.3 291.3,590.2 293.0,590.1 294.8,589.9 296.5,589.8 298.3,589.6 300.1,589.5 301.8,589.3 303.6,589.1 305.4,589.0 307.2,588.8 308.9,588.6 310.7,588.4 312.5,588.2 314.3,587.9 316.2,587.7 318.0,587.5 319.8,587.2 321.6,587.0 323.5,586.7 325.3,586.4 327.2,586.1 329.0,585.8 330.9,585.5 332.7,585.1 334.6,584.8 336.5,584.4 338.4,584.0 340.3,583.6 342.2,583.2 344.1,582.7 346.0,582.2 347.9,581.7 349.8,581.2 351.8,580.7 353.7,580.1 355.6,579.5 357.6,578.9 359.5,578.2 361.4,577.6 363.4,576.8 365.3,576.1 367.2,575.3 369.2,574.5 371.1,573.6 373.0,572.7 374.3,572.4 375.2,572.4 376.2,572.4 377.1,572.4 378.0,572.4 379.0,572.4 379.9,572.4 380.9,572.4 381.8,572.4 382.7,572.4 383.7,572.4 384.6,572.4 385.5,572.4 386.5,572.4 387.4,572.4 388.3,572.4 389.3,572.4 390.2,572.4 391.2,572.4 392.1,572.4 393.0,572.4 394.0,572.4 394.9,572.4 395.8,572.4 396.8,572.4 397.7,572.4 398.6,572.4 399.6,572.4 400.5,572.4 401.4,572.4 402.4,572.4 403.3,572.4 404.3,572.4 405.2,572.4 406.1,572.4 407.1,572.4 408.0,572.4 408.9,572.4 409.9,572.4 410.8,572.4 411.7,572.4 412.7,572.4 413.6,572.4 414.6,572.4 415.5,572.4 416.4,572.4 417.4,572.4 418.3,572.4 419.2,572.4 420.2,572.4 421.1,572.4 422.0,572.4 423.0,572.4 423.9,572.4 424.8,572.4 425.8,572.4 426.7,572.4 427.7,572.4 428.6,572.4 429.5,572.4 430.5,572.4 431.4,572.4 432.3,572.4 433.3,572.4 434.2,572.4 435.1,572.4 436.1,572.4 437.0,572.4 438.0,572.4 438.9,572.4 439.8,572.4 440.8,572.4 441.7,572.4 443.0,572.7 444.9,573.6 446.8,574.5 448.8,575.3 450.7,576.1 452.6,576.8 454.6,577.6 456.5,578.2 458.4,578.9 460.4,579.5 462.3,580.1 464.2,580.7 466.2,581.2 468.1,581.7 470.0,582.2 471.9,582.7 473.8,583.2 475.7,583.6 477.6,584.0 479.5,584.4 481.4,584.8 483.3,585.1 485.1,585.5 487.0,585.8 488.8,586.1 490.7,586.4 492.5,586.7 494.4,587.0 496.2,587.2 498.0,587.5 499.8,587.7 501.7,587.9 503.5,588.2 505.3,588.4 507.1,588.6 508.8,588.8 510.6,589.0 512.4,589.1 514.2,589.3 515.9,589.5 517.7,589.6 519.5,589.8 521.2,589.9 523.0,590.1 524.7,590.2 526.4,590.3 528.2,590.4 529.9,590.6 531.6,590.7 533.4,590.8 535.1,590.9 536.8,591.0 538.5,591.1 540.2,591.2 541.9,591.3 543.6,591.4 545.3,591.5 547.0,591.5 548.7,591.6 550.4,591.7 552.1,591.8 553.8,591.8 555.4,591.9 557.1,592.0" /><polyline points="258.0,611.9 259.6,611.8 261.3,611.8 262.9,611.7 264.6,611.6 266.2,611.5 267.9,611.4 269.6,611.3 271.2,611.3 272.9,611.2 274.5,611.1 276.2,611.0 277.9,610.9 279.5,610.8 281.2,610.7 282.9,610.6 284.5,610.4 286.2,610.3 287.9,610.2 289.6,610.1 291.2,609.9 292.9,609.8 294.6,609.7 296.3,609.5 298.0,609.4 299.7,609.2 301.4,609.0 303.1,608.9 304.7,608.7 306.4,608.5 308.1,608.3 309.8,608.2 311.5,608.0 313.2,607.8 314.9,607.5 316.6,607.3 318.3,607.1 320.0,606.9 321.8,606.6 323.5,606.4 325.2,606.1 326.9,605.8 328.6,605.6 330.3,605.3 332.0,605.0 333.7,604.7 335.4,604.4 337.1,604.0 338.8,603.7 340.5,603.4 342.2,603.0 343.9,602.6 345.6,602.2 347.3,601.8 348.9,601.4 350.6,601.0 352.3,600.6 353.9,600.1 355.6,599.7 357.2,599.2 358.9,598.7 360.5,598.2 362.1,597.7 363.7,597.2 365.3,596.7 366.9,596.1 368.5,595.6 370.0,595.0 371.6,594.4 373.1,593.8 374.6,593.2 376.0,592.6 377.5,592.0 378.9,591.4 380.3,590.8 381.7,590.2 383.1,589.6 384.4,588.9 385.7,588.3 387.0,587.7 388.3,587.1 389.5,586.5 390.7,585.9 391.8,585.3 393.0,584.8 394.0,584.6 394.9,584.6 395.8,584.6 396.8,584.6 397.7,584.6 398.6,584.6 399.6,584.6 400.5,584.6 401.4,584.6 402.4,584.6 403.3,584.6 404.3,584.6 405.2,584.6 406.1,584.6 407.1,584.6 408.0,584.6 408.9,584.6 409.9,584.6 410.8,584.6 411.7,584.6 412.7,584.6 413.6,584.6 414.6,584.6 415.5,584.6 416.4,584.6 417.4,584.6 418.3,584.6 419.2,584.6 420.2,584.6 421.1,584.6 422.0,584.6 423.0,584.8 424.2,585.3 425.3,585.9 426.5,586.5 427.7,587.1 429.0,587.7 430.3,588.3 431.6,588.9 432.9,589.6 434.3,590.2 435.7,590.8 437.1,591.4 438.5,592.0 440.0,592.6 441.4,593.2 442.9,593.8 444.4,594.4 446.0,595.0 447.5,595.6 449.1,596.1 450.7,596.7 452.3,597.2 453.9,597.7 455.5,598.2 457.1,598.7 458.8,599.2 460.4,599.7 462.1,600.1 463.7,600.6 465.4,601.0 467.1,601.4 468.7,601.8 470.4,602.2 472.1,602.6 473.8,603.0 475.5,603.4 477.2,603.7 478.9,604.0 480.6,604.4 482.3,604.7 484.0,605.0 485.7,605.3 487.4,605.6 489.1,605.8 490.8,606.1 492.5,606.4 494.2,606.6 496.0,606.9 497.7,607.1 499.4,607.3 501.1,607.5 502.8,607.8 504.5,608.0 506.2,608.2 507.9,608.3 509.6,608.5 511.3,608.7 512.9,608.9 514.6,609.0 516.3,609.2 518.0,609.4 519.7,609.5 521.4,609.7 523.1,609.8 524.8,609.9 526.4,610.1 528.1,610.2 529.8,610.3 531.5,610.4 533.1,610.6 534.8,610.7 536.5,610.8 538.1,610.9 539.8,611.0 541.5,611.1 543.1,611.2 544.8,611.3 546.4,611.3 548.1,611.4 549.8,611.5 551.4,611.6 553.1,611.7 554.7,611.8 556.4,611.8 558.0,611.9" /><polyline points="257.1,632.1 258.7,632.0 260.3,631.9 261.9,631.9 263.6,631.8 265.2,631.7 266.8,631.6 268.4,631.6 270.1,631.5 271.7,631.4 273.3,631.3 274.9,631.2 276.6,631.1 278.2,631.0 279.8,630.9 281.5,630.8 283.1,630.7 284.7,630.6 286.3,630.5 288.0,630.4 289.6,630.3 291.2,630.2 292.9,630.0 294.5,629.9 296.1,629.8 297.8,629.7 299.4,629.5 301.0,629.4 302.7,629.2 304.3,629.1 305.9,629.0 307.5,628.8 309.2,628.6 310.8,628.5 312.4,628.3 314.1,628.1 315.7,628.0 317.3,627.8 318.9,627.6 320.6,627.4 322.2,627.2 323.8,627.0 325.4,626.8 327.0,626.6 328.6,626.4 330.3,626.2 331.9,626.0 333.5,625.8 335.1,625.5 336.7,625.3 338.3,625.0 339.9,624.8 341.4,624.5 343.0,624.3 344.6,624.0 346.2,623.8 347.7,623.5 349.3,623.2 350.8,623.0 352.4,622.7 353.9,622.4 355.5,622.1 357.0,621.8 358.5,621.5 360.0,621.2 361.5,620.9 363.0,620.6 364.5,620.3 366.0,620.0 367.5,619.7 368.9,619.4 370.4,619.1 371.8,618.8 373.2,618.5 374.6,618.2 376.0,617.9 377.4,617.6 378.8,617.3 380.2,617.0 381.5,616.8 382.9,616.5 384.2,616.2 385.6,616.0 386.9,615.7 388.2,615.5 389.5,615.3 390.8,615.0 392.0,614.8 393.3,614.6 394.6,614.4 395.8,614.3 397.0,614.1 398.3,614.0 399.5,613.9 400.7,613.8 402.0,613.7 403.2,613.6 404.4,613.5 405.6,613.5 406.8,613.5 408.0,613.4 409.2,613.5 410.4,613.5 411.6,613.5 412.8,613.6 414.0,613.7 415.3,613.8 416.5,613.9 417.7,614.0 419.0,614.1 420.2,614.3 421.4,614.4 422.7,614.6 424.0,614.8 425.2,615.0 426.5,615.3 427.8,615.5 429.1,615.7 430.4,616.0 431.8,616.2 433.1,616.5 434.5,616.8 435.8,617.0 437.2,617.3 438.6,617.6 440.0,617.9 441.4,618.2 442.8,618.5 444.2,618.8 445.6,619.1 447.1,619.4 448.5,619.7 450.0,620.0 451.5,620.3 453.0,620.6 454.5,620.9 456.0,621.2 457.5,621.5 459.0,621.8 460.5,622.1 462.1,622.4 463.6,622.7 465.2,623.0 466.7,623.2 468.3,623.5 469.8,623.8 471.4,624.0 473.0,624.3 474.6,624.5 476.1,624.8 477.7,625.0 479.3,625.3 480.9,625.5 482.5,625.8 484.1,626.0 485.7,626.2 487.4,626.4 489.0,626.6 490.6,626.8 492.2,627.0 493.8,627.2 495.4,627.4 497.1,627.6 498.7,627.8 500.3,628.0 501.9,628.1 503.6,628.3 505.2,628.5 506.8,628.6 508.5,628.8 510.1,629.0 511.7,629.1 513.3,629.2 515.0,629.4 516.6,629.5 518.2,629.7 519.9,629.8 521.5,629.9 523.1,630.0 524.8,630.2 526.4,630.3 528.0,630.4 529.7,630.5 531.3,630.6 532.9,630.7 534.5,630.8 536.2,630.9 537.8,631.0 539.4,631.1 541.1,631.2 542.7,631.3 544.3,631.4 545.9,631.5 547.6,631.6 549.2,631.6 550.8,631.7 552.4,631.8 554.1,631.9 555.7,631.9 557.3,632.0 558.9,632.1" /><polyline points="256.2,652.4 257.8,652.4 259.4,652.3 261.0,652.3 262.6,652.2 264.2,652.1 265.8,652.1 267.4,652.0 269.0,651.9 270.6,651.8 272.2,651.8 273.8,651.7 275.4,651.6 277.0,651.5 278.6,651.4 280.2,651.4 281.8,651.3 283.4,651.2 285.0,651.1 286.6,651.0 288.2,650.9 289.8,650.8 291.4,650.7 293.0,650.6 294.6,650.5 296.2,650.4 297.8,650.3 299.4,650.2 301.0,650.1 302.6,650.0 304.2,649.9 305.8,649.8 307.4,649.6 308.9,649.5 310.5,649.4 312.1,649.3 313.7,649.1 315.3,649.0 316.9,648.9 318.5,648.7 320.0,648.6 321.6,648.5 323.2,648.3 324.7,648.2 326.3,648.0 327.9,647.9 329.5,647.7 331.0,647.6 332.6,647.4 334.1,647.3 335.7,647.1 337.2,647.0 338.8,646.8 340.3,646.6 341.9,646.5 343.4,646.3 344.9,646.2 346.5,646.0 348.0,645.8 349.5,645.6 351.0,645.5 352.5,645.3 354.1,645.1 355.6,645.0 357.1,644.8 358.6,644.6 360.0,644.5 361.5,644.3 363.0,644.1 364.5,644.0 366.0,643.8 367.4,643.6 368.9,643.5 370.3,643.3 371.8,643.1 373.2,643.0 374.7,642.8 376.1,642.7 377.5,642.6 379.0,642.4 380.4,642.3 381.8,642.1 383.2,642.0 384.6,641.9 386.0,641.8 387.4,641.7 388.8,641.6 390.2,641.5 391.6,641.4 393.0,641.3 394.3,641.2 395.7,641.1 397.1,641.1 398.5,641.0 399.8,641.0 401.2,640.9 402.6,640.9 403.9,640.8 405.3,640.8 406.6,640.8 408.0,640.8 409.4,640.8 410.7,640.8 412.1,640.8 413.4,640.9 414.8,640.9 416.2,641.0 417.5,641.0 418.9,641.1 420.3,641.1 421.7,641.2 423.0,641.3 424.4,641.4 425.8,641.5 427.2,641.6 428.6,641.7 430.0,641.8 431.4,641.9 432.8,642.0 434.2,642.1 435.6,642.3 437.0,642.4 438.5,642.6 439.9,642.7 441.3,642.8 442.8,643.0 444.2,643.1 445.7,643.3 447.1,643.5 448.6,643.6 450.0,643.8 451.5,644.0 453.0,644.1 454.5,644.3 456.0,644.5 457.4,644.6 458.9,644.8 460.4,645.0 461.9,645.1 463.5,645.3 465.0,645.5 466.5,645.6 468.0,645.8 469.5,646.0 471.1,646.2 472.6,646.3 474.1,646.5 475.7,646.6 477.2,646.8 478.8,647.0 480.3,647.1 481.9,647.3 483.4,647.4 485.0,647.6 486.5,647.7 488.1,647.9 489.7,648.0 491.3,648.2 492.8,648.3 494.4,648.5 496.0,648.6 497.5,648.7 499.1,648.9 500.7,649.0 502.3,649.1 503.9,649.3 505.5,649.4 507.1,649.5 508.6,649.6 510.2,649.8 511.8,649.9 513.4,650.0 515.0,650.1 516.6,650.2 518.2,650.3 519.8,650.4 521.4,650.5 523.0,650.6 524.6,650.7 526.2,650.8 527.8,650.9 529.4,651.0 531.0,651.1 532.6,651.2 534.2,651.3 535.8,651.4 537.4,651.4 539.0,651.5 540.6,651.6 542.2,651.7 543.8,651.8 545.4,651.8 547.0,651.9 548.6,652.0 550.2,652.1 551.8,652.1 553.4,652.2 555.0,652.3 556.6,652.3 558.2,652.4 559.8,652.4" /><polyline points="255.5,672.9 257.1,672.9 258.7,672.8 260.2,672.8 261.8,672.7 263.4,672.7 265.0,672.6 266.6,672.5 268.2,672.5 269.8,672.4 271.3,672.4 272.9,672.3 274.5,672.2 276.1,672.2 277.7,672.1 279.2,672.0 280.8,672.0 282.4,671.9 284.0,671.8 285.6,671.8 287.1,671.7 288.7,671.6 290.3,671.5 291.9,671.5 293.4,671.4 295.0,671.3 296.6,671.2 298.2,671.1 299.7,671.1 301.3,671.0 302.9,670.9 304.4,670.8 306.0,670.7 307.6,670.6 309.1,670.5 310.7,670.5 312.3,670.4 313.8,670.3 315.4,670.2 317.0,670.1 318.5,670.0 320.1,669.9 321.6,669.8 323.2,669.7 324.7,669.6 326.3,669.5 327.8,669.4 329.4,669.3 330.9,669.2 332.5,669.1 334.0,669.0 335.5,668.9 337.1,668.8 338.6,668.7 340.1,668.6 341.7,668.5 343.2,668.4 344.7,668.3 346.2,668.1 347.8,668.0 349.3,667.9 350.8,667.8 352.3,667.7 353.8,667.6 355.3,667.5 356.8,667.4 358.3,667.3 359.8,667.2 361.3,667.1 362.8,667.0 364.3,666.9 365.8,666.8 367.3,666.7 368.8,666.7 370.2,666.6 371.7,666.5 373.2,666.4 374.7,666.3 376.1,666.2 377.6,666.2 379.1,666.1 380.5,666.0 382.0,665.9 383.4,665.9 384.9,665.8 386.4,665.7 387.8,665.7 389.3,665.6 390.7,665.6 392.2,665.5 393.6,665.5 395.0,665.5 396.5,665.4 397.9,665.4 399.4,665.4 400.8,665.3 402.2,665.3 403.7,665.3 405.1,665.3 406.6,665.3 408.0,665.3 409.4,665.3 410.9,665.3 412.3,665.3 413.8,665.3 415.2,665.3 416.6,665.4 418.1,665.4 419.5,665.4 421.0,665.5 422.4,665.5 423.8,665.5 425.3,665.6 426.7,665.6 428.2,665.7 429.6,665.7 431.1,665.8 432.6,665.9 434.0,665.9 435.5,666.0 436.9,666.1 438.4,666.2 439.9,666.2 441.3,666.3 442.8,666.4 444.3,666.5 445.8,666.6 447.2,666.7 448.7,666.7 450.2,666.8 451.7,666.9 453.2,667.0 454.7,667.1 456.2,667.2 457.7,667.3 459.2,667.4 460.7,667.5 462.2,667.6 463.7,667.7 465.2,667.8 466.7,667.9 468.2,668.0 469.8,668.1 471.3,668.3 472.8,668.4 474.3,668.5 475.9,668.6 477.4,668.7 478.9,668.8 480.5,668.9 482.0,669.0 483.5,669.1 485.1,669.2 486.6,669.3 488.2,669.4 489.7,669.5 491.3,669.6 492.8,669.7 494.4,669.8 495.9,669.9 497.5,670.0 499.0,670.1 500.6,670.2 502.2,670.3 503.7,670.4 505.3,670.5 506.9,670.5 508.4,670.6 510.0,670.7 511.6,670.8 513.1,670.9 514.7,671.0 516.3,671.1 517.8,671.1 519.4,671.2 521.0,671.3 522.6,671.4 524.1,671.5 525.7,671.5 527.3,671.6 528.9,671.7 530.4,671.8 532.0,671.8 533.6,671.9 535.2,672.0 536.8,672.0 538.3,672.1 539.9,672.2 541.5,672.2 543.1,672.3 544.7,672.4 546.2,672.4 547.8,672.5 549.4,672.5 551.0,672.6 552.6,672.7 554.2,672.7 555.8,672.8 557.3,672.8 558.9,672.9 560.5,672.9" /><polyline points="254.9,693.5 256.4,693.5 258.0,693.4 259.6,693.4 261.2,693.3 262.7,693.3 264.3,693.2 265.9,693.2 267.5,693.1 269.0,693.1 270.6,693.0 272.2,693.0 273.7,692.9 275.3,692.9 276.9,692.8 278.5,692.8 280.0,692.7 281.6,692.7 283.2,692.6 284.7,692.6 286.3,692.5 287.9,692.5 289.4,692.4 291.0,692.3 292.6,692.3 294.1,692.2 295.7,692.2 297.2,692.1 298.8,692.0 300.4,692.0 301.9,691.9 303.5,691.9 305.0,691.8 306.6,691.7 308.1,691.7 309.7,691.6 311.3,691.5 312.8,691.5 314.4,691.4 315.9,691.3 317.5,691.3 319.0,691.2 320.6,691.1 322.1,691.1 323.6,691.0 325.2,690.9 326.7,690.9 328.3,690.8 329.8,690.7 331.4,690.6 332.9,690.6 334.4,690.5 336.0,690.4 337.5,690.4 339.0,690.3 340.6,690.2 342.1,690.2 343.6,690.1 345.1,690.0 346.7,690.0 348.2,689.9 349.7,689.8 351.2,689.8 352.7,689.7 354.3,689.6 355.8,689.6 357.3,689.5 358.8,689.4 360.3,689.4 361.8,689.3 363.3,689.3 364.8,689.2 366.3,689.2 367.8,689.1 369.3,689.0 370.8,689.0 372.3,688.9 373.8,688.9 375.3,688.8 376.8,688.8 378.3,688.8 379.8,688.7 381.3,688.7 382.8,688.6 384.3,688.6 385.8,688.6 387.3,688.5 388.7,688.5 390.2,688.5 391.7,688.4 393.2,688.4 394.7,688.4 396.2,688.4 397.6,688.4 399.1,688.3 400.6,688.3 402.1,688.3 403.6,688.3 405.0,688.3 406.5,688.3 408.0,688.3 409.5,688.3 411.0,688.3 412.4,688.3 413.9,688.3 415.4,688.3 416.9,688.3 418.4,688.4 419.8,688.4 421.3,688.4 422.8,688.4 424.3,688.4 425.8,688.5 427.3,688.5 428.7,688.5 430.2,688.6 431.7,688.6 433.2,688.6 434.7,688.7 436.2,688.7 437.7,688.8 439.2,688.8 440.7,688.8 442.2,688.9 443.7,688.9 445.2,689.0 446.7,689.0 448.2,689.1 449.7,689.2 451.2,689.2 452.7,689.3 454.2,689.3 455.7,689.4 457.2,689.4 458.7,689.5 460.2,689.6 461.7,689.6 463.3,689.7 464.8,689.8 466.3,689.8 467.8,689.9 469.3,690.0 470.9,690.0 472.4,690.1 473.9,690.2 475.4,690.2 477.0,690.3 478.5,690.4 480.0,690.4 481.6,690.5 483.1,690.6 484.6,690.6 486.2,690.7 487.7,690.8 489.3,690.9 490.8,690.9 492.4,691.0 493.9,691.1 495.4,691.1 497.0,691.2 498.5,691.3 500.1,691.3 501.6,691.4 503.2,691.5 504.7,691.5 506.3,691.6 507.9,691.7 509.4,691.7 511.0,691.8 512.5,691.9 514.1,691.9 515.6,692.0 517.2,692.0 518.8,692.1 520.3,692.2 521.9,692.2 523.4,692.3 525.0,692.3 526.6,692.4 528.1,692.5 529.7,692.5 531.3,692.6 532.8,692.6 534.4,692.7 536.0,692.7 537.5,692.8 539.1,692.8 540.7,692.9 542.3,692.9 543.8,693.0 545.4,693.0 547.0,693.1 548.5,693.1 550.1,693.2 551.7,693.2 553.3,693.3 554.8,693.3 556.4,693.4 558.0,693.4 559.6,693.5 561.1,693.5" /><polyline points="254.4,714.1 255.9,714.1 257.5,714.0 259.1,714.0 260.6,714.0 262.2,713.9 263.8,713.9 265.3,713.9 266.9,713.8 268.5,713.8 270.0,713.7 271.6,713.7 273.2,713.7 274.7,713.6 276.3,713.6 277.8,713.5 279.4,713.5 281.0,713.5 282.5,713.4 284.1,713.4 285.6,713.3 287.2,713.3 288.8,713.2 290.3,713.2 291.9,713.1 293.4,713.1 295.0,713.1 296.5,713.0 298.1,713.0 299.7,712.9 301.2,712.9 302.8,712.8 304.3,712.8 305.9,712.7 307.4,712.7 309.0,712.6 310.5,712.6 312.1,712.5 313.6,712.5 315.2,712.5 316.7,712.4 318.3,712.4 319.8,712.3 321.4,712.3 322.9,712.2 324.4,712.2 326.0,712.1 327.5,712.1 329.1,712.0 330.6,712.0 332.1,711.9 333.7,711.9 335.2,711.8 336.8,711.8 338.3,711.7 339.8,711.7 341.4,711.6 342.9,711.6 344.4,711.6 345.9,711.5 347.5,711.5 349.0,711.4 350.5,711.4 352.1,711.3 353.6,711.3 355.1,711.3 356.6,711.2 358.2,711.2 359.7,711.1 361.2,711.1 362.7,711.1 364.2,711.0 365.8,711.0 367.3,711.0 368.8,710.9 370.3,710.9 371.8,710.9 373.3,710.8 374.8,710.8 376.4,710.8 377.9,710.7 379.4,710.7 380.9,710.7 382.4,710.7 383.9,710.6 385.4,710.6 386.9,710.6 388.4,710.6 389.9,710.6 391.4,710.5 393.0,710.5 394.5,710.5 396.0,710.5 397.5,710.5 399.0,710.5 400.5,710.5 402.0,710.5 403.5,710.5 405.0,710.5 406.5,710.5 408.0,710.5 409.5,710.5 411.0,710.5 412.5,710.5 414.0,710.5 415.5,710.5 417.0,710.5 418.5,710.5 420.0,710.5 421.5,710.5 423.0,710.5 424.6,710.5 426.1,710.6 427.6,710.6 429.1,710.6 430.6,710.6 432.1,710.6 433.6,710.7 435.1,710.7 436.6,710.7 438.1,710.7 439.6,710.8 441.2,710.8 442.7,710.8 444.2,710.9 445.7,710.9 447.2,710.9 448.7,711.0 450.2,711.0 451.8,711.0 453.3,711.1 454.8,711.1 456.3,711.1 457.8,711.2 459.4,711.2 460.9,711.3 462.4,711.3 463.9,711.3 465.5,711.4 467.0,711.4 468.5,711.5 470.1,711.5 471.6,711.6 473.1,711.6 474.6,711.6 476.2,711.7 477.7,711.7 479.2,711.8 480.8,711.8 482.3,711.9 483.9,711.9 485.4,712.0 486.9,712.0 488.5,712.1 490.0,712.1 491.6,712.2 493.1,712.2 494.6,712.3 496.2,712.3 497.7,712.4 499.3,712.4 500.8,712.5 502.4,712.5 503.9,712.5 505.5,712.6 507.0,712.6 508.6,712.7 510.1,712.7 511.7,712.8 513.2,712.8 514.8,712.9 516.3,712.9 517.9,713.0 519.5,713.0 521.0,713.1 522.6,713.1 524.1,713.1 525.7,713.2 527.2,713.2 528.8,713.3 530.4,713.3 531.9,713.4 533.5,713.4 535.0,713.5 536.6,713.5 538.2,713.5 539.7,713.6 541.3,713.6 542.8,713.7 544.4,713.7 546.0,713.7 547.5,713.8 549.1,713.8 550.7,713.9 552.2,713.9 553.8,713.9 555.4,714.0 556.9,714.0 558.5,714.0 560.1,714.1 561.6,714.1" /><polyline points="264.0,321.4 264.0,323.5 264.0,325.5 264.1,327.6 264.1,329.7 264.1,331.7 264.2,333.8 264.2,335.8 264.2,337.9 264.3,340.0 264.3,342.0 264.4,344.1 264.4,346.2 264.4,348.2 264.5,350.3 264.5,352.4 264.6,354.4 264.6,356.5 264.7,358.6 264.7,360.6 264.8,362.7 264.8,364.8 264.9,366.8 264.9,368.9 265.0,371.0 265.0,373.0 265.1,375.1 265.1,377.2 265.2,379.2 265.2,381.3 265.3,383.4 265.4,385.4 265.4,387.5 265.5,389.6 265.6,391.6 265.6,393.7 265.7,395.8 265.8,397.8 265.8,399.9 265.9,401.9 266.0,404.0 266.1,406.1 266.1,408.1 266.2,410.2 266.3,412.3 266.4,414.3 266.5,416.4 266.5,418.4 266.6,420.5 266.7,422.5 266.8,424.6 266.9,426.6 267.0,428.7 267.1,430.7 267.2,432.8 267.3,434.8 267.4,436.9 267.5,438.9 267.6,441.0 267.7,443.0 267.8,445.0 267.9,447.1 268.0,449.1 268.1,451.1 268.2,453.1 268.3,455.2 268.4,457.2 268.6,459.2 268.7,461.2 268.8,463.2 268.9,465.3 269.0,467.3 269.1,469.3 269.2,471.3 269.3,473.3 269.5,475.3 269.6,477.3 269.7,479.2 269.8,481.2 269.9,483.2 270.0,485.2 270.1,487.2 270.2,489.1 270.3,491.1 270.4,493.1 270.5,495.0 270.6,497.0 270.7,498.9 270.8,500.9 270.9,502.8 271.0,504.8 271.1,506.7 271.2,508.6 271.2,510.6 271.3,512.5 271.4,514.4 271.4,516.4 271.5,518.3 271.6,520.2 271.6,522.1 271.7,524.0 271.7,526.0 271.7,527.9 271.8,529.8 271.8,531.7 271.8,533.6 271.8,535.5 271.8,537.4 271.8,539.3 271.8,541.2 271.8,543.1 271.8,545.0 271.8,547.0 271.8,548.9 271.7,550.8 271.7,552.7 271.7,554.6 271.6,556.5 271.6,558.4 271.5,560.4 271.4,562.3 271.4,564.2 271.3,566.1 271.2,568.1 271.2,570.0 271.1,571.9 271.0,573.9 270.9,575.8 270.8,577.8 270.7,579.7 270.6,581.7 270.5,583.6 270.4,585.6 270.3,587.5 270.2,589.5 270.1,591.5 270.0,593.5 269.9,595.4 269.8,597.4 269.7,599.4 269.6,601.4 269.5,603.4 269.3,605.4 269.2,607.4 269.1,609.4 269.0,611.4 268.9,613.4 268.8,615.4 268.7,617.4 268.6,619.4 268.4,621.4 268.3,623.5 268.2,625.5 268.1,627.5 268.0,629.5 267.9,631.6 267.8,633.6 267.7,635.7 267.6,637.7 267.5,639.7 267.4,641.8 267.3,643.8 267.2,645.9 267.1,647.9 267.0,650.0 266.9,652.0 266.8,654.1 266.7,656.1 266.6,658.2 266.5,660.2 266.5,662.3 266.4,664.3 266.3,666.4 266.2,668.4 266.1,670.5 266.1,672.6 266.0,674.6 265.9,676.7 265.8,678.8 265.8,680.8 265.7,682.9 265.6,684.9 265.6,687.0 265.5,689.1 265.4,691.1 265.4,693.2 265.3,695.3 265.2,697.3 265.2,699.4 265.1,701.5 265.1,703.5 265.0,705.6 265.0,707.7 264.9,709.7 264.9,711.8 264.8,713.9 264.8,715.9 264.7,718.0 264.7,720.1 264.6,722.1 264.6,724.2" /><polyline points="284.7,321.7 284.8,323.8 284.8,325.9 284.8,327.9 284.9,330.0 284.9,332.1 284.9,334.2 285.0,336.2 285.0,338.3 285.1,340.4 285.1,342.5 285.1,344.5 285.2,346.6 285.2,348.7 285.3,350.8 285.3,352.8 285.4,354.9 285.4,357.0 285.5,359.1 285.5,361.2 285.6,363.2 285.6,365.3 285.7,367.4 285.8,369.5 285.8,371.6 285.9,373.6 285.9,375.7 286.0,377.8 286.1,379.9 286.1,382.0 286.2,384.0 286.3,386.1 286.4,388.2 286.4,390.3 286.5,392.4 286.6,394.5 286.7,396.5 286.8,398.6 286.9,400.7 286.9,402.8 287.0,404.9 287.1,407.0 287.2,409.0 287.3,411.1 287.4,413.2 287.5,415.3 287.6,417.3 287.8,419.4 287.9,421.5 288.0,423.6 288.1,425.7 288.2,427.7 288.4,429.8 288.5,431.9 288.6,433.9 288.7,436.0 288.9,438.1 289.0,440.1 289.2,442.2 289.3,444.3 289.5,446.3 289.6,448.4 289.8,450.4 289.9,452.5 290.1,454.5 290.2,456.5 290.4,458.6 290.6,460.6 290.7,462.6 290.9,464.7 291.1,466.7 291.2,468.7 291.4,470.7 291.6,472.7 291.8,474.7 292.0,476.7 292.1,478.7 292.3,480.7 292.5,482.7 292.7,484.7 292.9,486.6 293.0,488.6 293.2,490.5 293.4,492.5 293.6,494.4 293.7,496.4 293.9,498.3 294.1,500.2 294.2,502.1 294.4,504.0 294.5,505.9 294.7,507.8 294.8,509.7 295.0,511.6 295.1,513.5 295.2,515.4 295.3,517.2 295.4,519.1 295.5,520.9 295.6,522.8 295.7,524.6 295.8,526.5 295.9,528.3 295.9,530.2 296.0,532.0 296.0,533.8 296.0,535.7 296.0,537.5 296.0,539.3 296.0,541.2 296.0,543.0 296.0,544.8 296.0,546.6 295.9,548.5 295.9,550.3 295.8,552.2 295.7,554.0 295.6,555.9 295.5,557.7 295.4,559.6 295.3,561.4 295.2,563.3 295.1,565.2 295.0,567.0 294.8,568.9 294.7,570.8 294.5,572.7 294.4,574.6 294.2,576.5 294.1,578.4 293.9,580.4 293.7,582.3 293.6,584.2 293.4,586.2 293.2,588.1 293.0,590.1 292.9,592.0 292.7,594.0 292.5,596.0 292.3,597.9 292.1,599.9 292.0,601.9 291.8,603.9 291.6,605.9 291.4,607.9 291.2,609.9 291.1,612.0 290.9,614.0 290.7,616.0 290.6,618.0 290.4,620.1 290.2,622.1 290.1,624.1 289.9,626.2 289.8,628.2 289.6,630.3 289.5,632.3 289.3,634.4 289.2,636.4 289.0,638.5 288.9,640.6 288.7,642.6 288.6,644.7 288.5,646.8 288.4,648.8 288.2,650.9 288.1,653.0 288.0,655.1 287.9,657.1 287.8,659.2 287.6,661.3 287.5,663.4 287.4,665.4 287.3,667.5 287.2,669.6 287.1,671.7 287.0,673.8 286.9,675.9 286.9,677.9 286.8,680.0 286.7,682.1 286.6,684.2 286.5,686.3 286.4,688.3 286.4,690.4 286.3,692.5 286.2,694.6 286.1,696.7 286.1,698.8 286.0,700.8 285.9,702.9 285.9,705.0 285.8,707.1 285.8,709.2 285.7,711.2 285.6,713.3 285.6,715.4 285.5,717.5 285.5,719.6 285.4,721.6 285.4,723.7" /><polyline points="305.4,322.0 305.5,324.1 305.5,326.2 305.5,328.3 305.6,330.4 305.6,332.5 305.7,334.5 305.7,336.6 305.7,338.7 305.8,340.8 305.8,342.9 305.9,345.0 305.9,347.1 306.0,349.2 306.0,351.3 306.1,353.3 306.1,355.4 306.2,357.5 306.2,359.6 306.3,361.7 306.3,363.8 306.4,365.9 306.5,368.0 306.5,370.1 306.6,372.2 306.7,374.3 306.7,376.4 306.8,378.5 306.9,380.6 306.9,382.7 307.0,384.8 307.1,386.9 307.2,389.0 307.3,391.2 307.4,393.3 307.5,395.4 307.6,397.5 307.7,399.6 307.8,401.7 307.9,403.8 308.0,405.9 308.1,408.0 308.2,410.1 308.3,412.3 308.5,414.4 308.6,416.5 308.7,418.6 308.9,420.7 309.0,422.8 309.2,424.9 309.3,427.1 309.5,429.2 309.6,431.3 309.8,433.4 310.0,435.5 310.2,437.6 310.3,439.7 310.5,441.8 310.7,443.9 310.9,446.0 311.1,448.1 311.3,450.2 311.6,452.3 311.8,454.4 312.0,456.5 312.3,458.6 312.5,460.6 312.7,462.7 313.0,464.8 313.3,466.8 313.5,468.9 313.8,471.0 314.1,473.0 314.4,475.0 314.6,477.1 314.9,479.1 315.2,481.1 315.5,483.1 315.8,485.1 316.1,487.1 316.5,489.0 316.8,491.0 317.1,492.9 317.4,494.9 317.7,496.8 318.0,498.7 318.3,500.6 318.6,502.5 318.9,504.4 319.2,506.2 319.5,508.1 319.8,509.9 320.1,511.7 320.3,513.5 320.6,515.3 320.8,517.1 321.1,518.9 321.3,520.6 321.5,522.3 321.7,524.1 321.8,525.8 322.0,527.5 322.1,529.2 322.2,530.9 322.3,532.6 322.4,534.3 322.4,536.0 322.5,537.6 322.5,539.3 322.5,541.0 322.4,542.7 322.4,544.4 322.3,546.0 322.2,547.7 322.1,549.4 322.0,551.1 321.8,552.8 321.7,554.6 321.5,556.3 321.3,558.0 321.1,559.8 320.8,561.5 320.6,563.3 320.3,565.1 320.1,566.9 319.8,568.7 319.5,570.6 319.2,572.4 318.9,574.3 318.6,576.1 318.3,578.0 318.0,579.9 317.7,581.8 317.4,583.8 317.1,585.7 316.8,587.6 316.5,589.6 316.1,591.6 315.8,593.6 315.5,595.5 315.2,597.5 314.9,599.6 314.6,601.6 314.4,603.6 314.1,605.6 313.8,607.7 313.5,609.7 313.3,611.8 313.0,613.9 312.7,615.9 312.5,618.0 312.3,620.1 312.0,622.2 311.8,624.2 311.6,626.3 311.3,628.4 311.1,630.5 310.9,632.6 310.7,634.7 310.5,636.8 310.3,638.9 310.2,641.0 310.0,643.1 309.8,645.3 309.6,647.4 309.5,649.5 309.3,651.6 309.2,653.7 309.0,655.8 308.9,657.9 308.7,660.0 308.6,662.2 308.5,664.3 308.3,666.4 308.2,668.5 308.1,670.6 308.0,672.7 307.9,674.8 307.8,676.9 307.7,679.1 307.6,681.2 307.5,683.3 307.4,685.4 307.3,687.5 307.2,689.6 307.1,691.7 307.0,693.8 306.9,695.9 306.9,698.0 306.8,700.1 306.7,702.2 306.7,704.3 306.6,706.4 306.5,708.5 306.5,710.6 306.4,712.7 306.3,714.8 306.3,716.9 306.2,719.0 306.2,721.1 306.1,723.2" /><polyline points="326.1,322.4 326.1,324.5 326.1,326.6 326.2,328.7 326.2,330.7 326.2,332.8 326.3,334.9 326.3,337.0 326.4,339.1 326.4,341.2 326.4,343.3 326.5,345.4 326.5,347.5 326.6,349.7 326.6,351.8 326.7,353.9 326.7,356.0 326.8,358.1 326.8,360.2 326.9,362.3 326.9,364.4 327.0,366.6 327.1,368.7 327.1,370.8 327.2,372.9 327.3,375.0 327.4,377.2 327.4,379.3 327.5,381.4 327.6,383.6 327.7,385.7 327.8,387.8 327.9,390.0 328.0,392.1 328.0,394.3 328.2,396.4 328.3,398.5 328.4,400.7 328.5,402.8 328.6,405.0 328.7,407.2 328.9,409.3 329.0,411.5 329.1,413.6 329.3,415.8 329.4,418.0 329.6,420.1 329.8,422.3 329.9,424.5 330.1,426.6 330.3,428.8 330.5,431.0 330.7,433.2 330.9,435.4 331.1,437.5 331.4,439.7 331.6,441.9 331.8,444.1 332.1,446.3 332.4,448.4 332.6,450.6 332.9,452.8 333.2,455.0 333.6,457.2 333.9,459.4 334.2,461.5 334.6,463.7 334.9,465.9 335.3,468.0 335.7,470.2 336.1,472.3 336.5,474.5 337.0,476.6 337.4,478.8 337.9,480.9 338.4,483.0 338.9,485.1 339.4,487.2 339.9,489.2 340.4,491.3 341.0,493.3 341.6,495.3 342.1,497.3 342.7,499.3 343.3,501.2 343.9,503.2 344.5,505.1 345.1,506.9 345.7,508.8 346.3,510.6 346.9,512.4 347.5,514.1 348.1,515.8 348.7,517.5 349.2,519.2 349.8,520.8 350.3,522.3 350.8,523.9 351.3,525.4 351.7,526.9 352.1,528.4 352.5,529.8 352.8,531.2 353.1,532.6 353.3,534.0 353.5,535.3 353.6,536.7 353.7,538.0 353.7,539.3 353.7,540.7 353.6,542.0 353.5,543.3 353.3,544.7 353.1,546.1 352.8,547.4 352.5,548.9 352.1,550.3 351.7,551.7 351.3,553.2 350.8,554.7 350.3,556.3 349.8,557.9 349.2,559.5 348.7,561.1 348.1,562.8 347.5,564.5 346.9,566.3 346.3,568.1 345.7,569.9 345.1,571.7 344.5,573.6 343.9,575.5 343.3,577.4 342.7,579.3 342.1,581.3 341.6,583.3 341.0,585.3 340.4,587.4 339.9,589.4 339.4,591.5 338.9,593.6 338.4,595.7 337.9,597.8 337.4,599.9 337.0,602.0 336.5,604.2 336.1,606.3 335.7,608.4 335.3,610.6 334.9,612.8 334.6,614.9 334.2,617.1 333.9,619.3 333.6,621.5 333.2,623.6 332.9,625.8 332.6,628.0 332.4,630.2 332.1,632.4 331.8,634.6 331.6,636.7 331.4,638.9 331.1,641.1 330.9,643.3 330.7,645.5 330.5,647.6 330.3,649.8 330.1,652.0 329.9,654.2 329.8,656.3 329.6,658.5 329.4,660.7 329.3,662.8 329.1,665.0 329.0,667.2 328.9,669.3 328.7,671.5 328.6,673.6 328.5,675.8 328.4,677.9 328.3,680.1 328.2,682.2 328.0,684.4 328.0,686.5 327.9,688.7 327.8,690.8 327.7,692.9 327.6,695.1 327.5,697.2 327.4,699.3 327.4,701.5 327.3,703.6 327.2,705.7 327.1,707.8 327.1,710.0 327.0,712.1 326.9,714.2 326.9,716.3 326.8,718.4 326.8,720.5 326.7,722.7" /><polyline points="346.6,322.7 346.7,324.8 346.7,326.9 346.7,329.0 346.8,331.1 346.8,333.2 346.8,335.3 346.9,337.4 346.9,339.5 346.9,341.6 347.0,343.8 347.0,345.9 347.0,348.0 347.1,350.1 347.1,352.2 347.2,354.4 347.2,356.5 347.3,358.6 347.3,360.8 347.4,362.9 347.4,365.0 347.5,367.2 347.5,369.3 347.6,371.5 347.7,373.6 347.7,375.8 347.8,377.9 347.9,380.1 347.9,382.2 348.0,384.4 348.1,386.6 348.2,388.7 348.3,390.9 348.4,393.1 348.5,395.3 348.6,397.5 348.7,399.7 348.8,401.9 348.9,404.1 349.0,406.3 349.1,408.5 349.3,410.7 349.4,412.9 349.6,415.1 349.7,417.4 349.9,419.6 350.0,421.9 350.2,424.1 350.4,426.4 350.6,428.6 350.8,430.9 351.0,433.2 351.3,435.4 351.5,437.7 351.7,440.0 352.0,442.3 352.3,444.6 352.6,446.9 352.9,449.3 353.2,451.6 353.6,453.9 353.9,456.2 354.3,458.6 354.7,460.9 355.2,463.3 355.6,465.7 356.1,468.0 356.6,470.4 357.1,472.8 357.7,475.2 358.3,477.5 358.9,479.9 359.5,482.3 360.2,484.7 361.0,487.0 361.7,489.4 362.5,491.8 363.4,494.1 364.3,496.5 365.2,498.8 366.2,501.1 367.2,503.3 368.3,505.6 369.4,507.8 370.6,509.9 370.6,511.2 370.6,512.4 370.6,513.6 370.6,514.8 370.6,516.1 370.6,517.3 370.6,518.5 370.6,519.7 370.6,521.0 370.6,522.2 370.6,523.4 370.6,524.6 370.6,525.9 370.6,527.1 370.6,528.3 370.6,529.5 370.6,530.8 370.6,532.0 370.6,533.2 370.6,534.4 370.6,535.6 370.6,536.9 370.6,538.1 370.6,539.3 370.6,540.5 370.6,541.8 370.6,543.0 370.6,544.2 370.6,545.4 370.6,546.7 370.6,547.9 370.6,549.1 370.6,550.3 370.6,551.6 370.6,552.8 370.6,554.0 370.6,555.2 370.6,556.5 370.6,557.7 370.6,558.9 370.6,560.1 370.6,561.4 370.6,562.6 370.6,563.8 370.6,565.0 370.6,566.2 370.6,567.5 370.6,568.7 369.4,570.8 368.3,573.0 367.2,575.3 366.2,577.6 365.2,579.9 364.3,582.2 363.4,584.5 362.5,586.9 361.7,589.2 361.0,591.6 360.2,594.0 359.5,596.3 358.9,598.7 358.3,601.1 357.7,603.5 357.1,605.9 356.6,608.2 356.1,610.6 355.6,613.0 355.2,615.3 354.7,617.7 354.3,620.0 353.9,622.4 353.6,624.7 353.2,627.1 352.9,629.4 352.6,631.7 352.3,634.0 352.0,636.3 351.7,638.6 351.5,640.9 351.3,643.2 351.0,645.5 350.8,647.8 350.6,650.0 350.4,652.3 350.2,654.5 350.0,656.8 349.9,659.0 349.7,661.3 349.6,663.5 349.4,665.7 349.3,667.9 349.1,670.2 349.0,672.4 348.9,674.6 348.8,676.8 348.7,679.0 348.6,681.2 348.5,683.4 348.4,685.5 348.3,687.7 348.2,689.9 348.1,692.1 348.0,694.2 347.9,696.4 347.9,698.6 347.8,700.7 347.7,702.9 347.7,705.0 347.6,707.2 347.5,709.3 347.5,711.5 347.4,713.6 347.4,715.7 347.3,717.9 347.3,720.0 347.2,722.1" /><polyline points="367.1,322.9 367.2,325.0 367.2,327.1 367.2,329.2 367.2,331.4 367.2,333.5 367.3,335.6 367.3,337.7 367.3,339.8 367.3,342.0 367.4,344.1 367.4,346.2 367.4,348.4 367.5,350.5 367.5,352.6 367.5,354.8 367.6,356.9 367.6,359.1 367.6,361.2 367.7,363.4 367.7,365.5 367.8,367.7 367.8,369.9 367.9,372.0 367.9,374.2 368.0,376.4 368.0,378.6 368.1,380.8 368.1,383.0 368.2,385.2 368.3,387.4 368.3,389.6 368.4,391.8 368.5,394.0 368.6,396.2 368.7,398.5 368.7,400.7 368.8,402.9 368.9,405.2 369.0,407.5 369.1,409.7 369.3,412.0 369.4,414.3 369.5,416.6 369.6,418.9 369.8,421.2 369.9,423.6 370.1,425.9 370.3,428.3 370.4,430.6 370.6,433.0 370.8,435.4 371.0,437.8 371.3,440.2 371.5,442.7 371.8,445.1 372.0,447.6 372.3,450.1 372.6,452.6 373.0,455.1 373.3,457.7 373.7,460.2 374.1,462.8 374.5,465.5 375.0,468.1 375.5,470.8 376.0,473.5 376.6,476.2 377.2,479.0 377.9,481.7 378.6,484.6 379.4,487.4 380.2,490.3 381.1,493.2 382.1,496.2 383.0,498.9 383.0,500.2 383.0,501.4 383.0,502.6 383.0,503.8 383.0,505.0 383.0,506.3 383.0,507.5 383.0,508.7 383.0,509.9 383.0,511.2 383.0,512.4 383.0,513.6 383.0,514.8 383.0,516.1 383.0,517.3 383.0,518.5 383.0,519.7 383.0,521.0 383.0,522.2 383.0,523.4 383.0,524.6 383.0,525.9 383.0,527.1 383.0,528.3 383.0,529.5 383.0,530.8 383.0,532.0 383.0,533.2 383.0,534.4 383.0,535.6 383.0,536.9 383.0,538.1 383.0,539.3 383.0,540.5 383.0,541.8 383.0,543.0 383.0,544.2 383.0,545.4 383.0,546.7 383.0,547.9 383.0,549.1 383.0,550.3 383.0,551.6 383.0,552.8 383.0,554.0 383.0,555.2 383.0,556.5 383.0,557.7 383.0,558.9 383.0,560.1 383.0,561.4 383.0,562.6 383.0,563.8 383.0,565.0 383.0,566.2 383.0,567.5 383.0,568.7 383.0,569.9 383.0,571.1 383.0,572.4 383.0,573.6 383.0,574.8 383.0,576.0 383.0,577.3 383.0,578.5 383.0,579.7 382.1,582.5 381.1,585.4 380.2,588.3 379.4,591.2 378.6,594.1 377.9,596.9 377.2,599.7 376.6,602.4 376.0,605.2 375.5,607.9 375.0,610.5 374.5,613.2 374.1,615.8 373.7,618.4 373.3,621.0 373.0,623.5 372.6,626.1 372.3,628.6 372.0,631.1 371.8,633.5 371.5,636.0 371.3,638.4 371.0,640.8 370.8,643.3 370.6,645.6 370.4,648.0 370.3,650.4 370.1,652.7 369.9,655.1 369.8,657.4 369.6,659.7 369.5,662.0 369.4,664.3 369.3,666.6 369.1,668.9 369.0,671.2 368.9,673.4 368.8,675.7 368.7,677.9 368.7,680.2 368.6,682.4 368.5,684.6 368.4,686.9 368.3,689.1 368.3,691.3 368.2,693.5 368.1,695.7 368.1,697.9 368.0,700.1 368.0,702.3 367.9,704.4 367.9,706.6 367.8,708.8 367.8,710.9 367.7,713.1 367.7,715.3 367.6,717.4 367.6,719.6 367.6,721.7" /><polyline points="448.9,322.9 448.8,325.0 448.8,327.1 448.8,329.2 448.8,331.4 448.8,333.5 448.7,335.6 448.7,337.7 448.7,339.8 448.7,342.0 448.6,344.1 448.6,346.2 448.6,348.4 448.5,350.5 448.5,352.6 448.5,354.8 448.4,356.9 448.4,359.1 448.4,361.2 448.3,363.4 448.3,365.5 448.2,367.7 448.2,369.9 448.1,372.0 448.1,374.2 448.0,376.4 448.0,378.6 447.9,380.8 447.9,383.0 447.8,385.2 447.7,387.4 447.7,389.6 447.6,391.8 447.5,394.0 447.4,396.2 447.3,398.5 447.3,400.7 447.2,402.9 447.1,405.2 447.0,407.5 446.9,409.7 446.7,412.0 446.6,414.3 446.5,416.6 446.4,418.9 446.2,421.2 446.1,423.6 445.9,425.9 445.7,428.3 445.6,430.6 445.4,433.0 445.2,435.4 445.0,437.8 444.7,440.2 444.5,442.7 444.2,445.1 444.0,447.6 443.7,450.1 443.4,452.6 443.0,455.1 442.7,457.7 442.3,460.2 441.9,462.8 441.5,465.5 441.0,468.1 440.5,470.8 440.0,473.5 439.4,476.2 438.8,479.0 438.1,481.7 437.4,484.6 436.6,487.4 435.8,490.3 434.9,493.2 433.9,496.2 433.0,498.9 433.0,500.2 433.0,501.4 433.0,502.6 433.0,503.8 433.0,505.0 433.0,506.3 433.0,507.5 433.0,508.7 433.0,509.9 433.0,511.2 433.0,512.4 433.0,513.6 433.0,514.8 433.0,516.1 433.0,517.3 433.0,518.5 433.0,519.7 433.0,521.0 433.0,522.2 433.0,523.4 433.0,524.6 433.0,525.9 433.0,527.1 433.0,528.3 433.0,529.5 433.0,530.8 433.0,532.0 433.0,533.2 433.0,534.4 433.0,535.6 433.0,536.9 433.0,538.1 433.0,539.3 433.0,540.5 433.0,541.8 433.0,543.0 433.0,544.2 433.0,545.4 433.0,546.7 433.0,547.9 433.0,549.1 433.0,550.3 433.0,551.6 433.0,552.8 433.0,554.0 433.0,555.2 433.0,556.5 433.0,557.7 433.0,558.9 433.0,560.1 433.0,561.4 433.0,562.6 433.0,563.8 433.0,565.0 433.0,566.2 433.0,567.5 433.0,568.7 433.0,569.9 433.0,571.1 433.0,572.4 433.0,573.6 433.0,574.8 433.0,576.0 433.0,577.3 433.0,578.5 433.0,579.7 433.9,582.5 434.9,585.4 435.8,588.3 436.6,591.2 437.4,594.1 438.1,596.9 438.8,599.7 439.4,602.4 440.0,605.2 440.5,607.9 441.0,610.5 441.5,613.2 441.9,615.8 442.3,618.4 442.7,621.0 443.0,623.5 443.4,626.1 443.7,628.6 444.0,631.1 444.2,633.5 444.5,636.0 444.7,638.4 445.0,640.8 445.2,643.3 445.4,645.6 445.6,648.0 445.7,650.4 445.9,652.7 446.1,655.1 446.2,657.4 446.4,659.7 446.5,662.0 446.6,664.3 446.7,666.6 446.9,668.9 447.0,671.2 447.1,673.4 447.2,675.7 447.3,677.9 447.3,680.2 447.4,682.4 447.5,684.6 447.6,686.9 447.7,689.1 447.7,691.3 447.8,693.5 447.9,695.7 447.9,697.9 448.0,700.1 448.0,702.3 448.1,704.4 448.1,706.6 448.2,708.8 448.2,710.9 448.3,713.1 448.3,715.3 448.4,717.4 448.4,719.6 448.4,721.7" /><polyline points="469.4,322.7 469.3,324.8 469.3,326.9 469.3,329.0 469.2,331.1 469.2,333.2 469.2,335.3 469.1,337.4 469.1,339.5 469.1,341.6 469.0,343.8 469.0,345.9 469.0,348.0 468.9,350.1 468.9,352.2 468.8,354.4 468.8,356.5 468.7,358.6 468.7,360.8 468.6,362.9 468.6,365.0 468.5,367.2 468.5,369.3 468.4,371.5 468.3,373.6 468.3,375.8 468.2,377.9 468.1,380.1 468.1,382.2 468.0,384.4 467.9,386.6 467.8,388.7 467.7,390.9 467.6,393.1 467.5,395.3 467.4,397.5 467.3,399.7 467.2,401.9 467.1,404.1 467.0,406.3 466.9,408.5 466.7,410.7 466.6,412.9 466.4,415.1 466.3,417.4 466.1,419.6 466.0,421.9 465.8,424.1 465.6,426.4 465.4,428.6 465.2,430.9 465.0,433.2 464.7,435.4 464.5,437.7 464.3,440.0 464.0,442.3 463.7,444.6 463.4,446.9 463.1,449.3 462.8,451.6 462.4,453.9 462.1,456.2 461.7,458.6 461.3,460.9 460.8,463.3 460.4,465.7 459.9,468.0 459.4,470.4 458.9,472.8 458.3,475.2 457.7,477.5 457.1,479.9 456.5,482.3 455.8,484.7 455.0,487.0 454.3,489.4 453.5,491.8 452.6,494.1 451.7,496.5 450.8,498.8 449.8,501.1 448.8,503.3 447.7,505.6 446.6,507.8 445.4,509.9 445.4,511.2 445.4,512.4 445.4,513.6 445.4,514.8 445.4,516.1 445.4,517.3 445.4,518.5 445.4,519.7 445.4,521.0 445.4,522.2 445.4,523.4 445.4,524.6 445.4,525.9 445.4,527.1 445.4,528.3 445.4,529.5 445.4,530.8 445.4,532.0 445.4,533.2 445.4,534.4 445.4,535.6 445.4,536.9 445.4,538.1 445.4,539.3 445.4,540.5 445.4,541.8 445.4,543.0 445.4,544.2 445.4,545.4 445.4,546.7 445.4,547.9 445.4,549.1 445.4,550.3 445.4,551.6 445.4,552.8 445.4,554.0 445.4,555.2 445.4,556.5 445.4,557.7 445.4,558.9 445.4,560.1 445.4,561.4 445.4,562.6 445.4,563.8 445.4,565.0 445.4,566.2 445.4,567.5 445.4,568.7 446.6,570.8 447.7,573.0 448.8,575.3 449.8,577.6 450.8,579.9 451.7,582.2 452.6,584.5 453.5,586.9 454.3,589.2 455.0,591.6 455.8,594.0 456.5,596.3 457.1,598.7 457.7,601.1 458.3,603.5 458.9,605.9 459.4,608.2 459.9,610.6 460.4,613.0 460.8,615.3 461.3,617.7 461.7,620.0 462.1,622.4 462.4,624.7 462.8,627.1 463.1,629.4 463.4,631.7 463.7,634.0 464.0,636.3 464.3,638.6 464.5,640.9 464.7,643.2 465.0,645.5 465.2,647.8 465.4,650.0 465.6,652.3 465.8,654.5 466.0,656.8 466.1,659.0 466.3,661.3 466.4,663.5 466.6,665.7 466.7,667.9 466.9,670.2 467.0,672.4 467.1,674.6 467.2,676.8 467.3,679.0 467.4,681.2 467.5,683.4 467.6,685.5 467.7,687.7 467.8,689.9 467.9,692.1 468.0,694.2 468.1,696.4 468.1,698.6 468.2,700.7 468.3,702.9 468.3,705.0 468.4,707.2 468.5,709.3 468.5,711.5 468.6,713.6 468.6,715.7 468.7,717.9 468.7,720.0 468.8,722.1" /><polyline points="489.9,322.4 489.9,324.5 489.9,326.6 489.8,328.7 489.8,330.7 489.8,332.8 489.7,334.9 489.7,337.0 489.6,339.1 489.6,341.2 489.6,343.3 489.5,345.4 489.5,347.5 489.4,349.7 489.4,351.8 489.3,353.9 489.3,356.0 489.2,358.1 489.2,360.2 489.1,362.3 489.1,364.4 489.0,366.6 488.9,368.7 488.9,370.8 488.8,372.9 488.7,375.0 488.6,377.2 488.6,379.3 488.5,381.4 488.4,383.6 488.3,385.7 488.2,387.8 488.1,390.0 488.0,392.1 488.0,394.3 487.8,396.4 487.7,398.5 487.6,400.7 487.5,402.8 487.4,405.0 487.3,407.2 487.1,409.3 487.0,411.5 486.9,413.6 486.7,415.8 486.6,418.0 486.4,420.1 486.2,422.3 486.1,424.5 485.9,426.6 485.7,428.8 485.5,431.0 485.3,433.2 485.1,435.4 484.9,437.5 484.6,439.7 484.4,441.9 484.2,444.1 483.9,446.3 483.6,448.4 483.4,450.6 483.1,452.8 482.8,455.0 482.4,457.2 482.1,459.4 481.8,461.5 481.4,463.7 481.1,465.9 480.7,468.0 480.3,470.2 479.9,472.3 479.5,474.5 479.0,476.6 478.6,478.8 478.1,480.9 477.6,483.0 477.1,485.1 476.6,487.2 476.1,489.2 475.6,491.3 475.0,493.3 474.4,495.3 473.9,497.3 473.3,499.3 472.7,501.2 472.1,503.2 471.5,505.1 470.9,506.9 470.3,508.8 469.7,510.6 469.1,512.4 468.5,514.1 467.9,515.8 467.3,517.5 466.8,519.2 466.2,520.8 465.7,522.3 465.2,523.9 464.7,525.4 464.3,526.9 463.9,528.4 463.5,529.8 463.2,531.2 462.9,532.6 462.7,534.0 462.5,535.3 462.4,536.7 462.3,538.0 462.3,539.3 462.3,540.7 462.4,542.0 462.5,543.3 462.7,544.7 462.9,546.1 463.2,547.4 463.5,548.9 463.9,550.3 464.3,551.7 464.7,553.2 465.2,554.7 465.7,556.3 466.2,557.9 466.8,559.5 467.3,561.1 467.9,562.8 468.5,564.5 469.1,566.3 469.7,568.1 470.3,569.9 470.9,571.7 471.5,573.6 472.1,575.5 472.7,577.4 473.3,579.3 473.9,581.3 474.4,583.3 475.0,585.3 475.6,587.4 476.1,589.4 476.6,591.5 477.1,593.6 477.6,595.7 478.1,597.8 478.6,599.9 479.0,602.0 479.5,604.2 479.9,606.3 480.3,608.4 480.7,610.6 481.1,612.8 481.4,614.9 481.8,617.1 482.1,619.3 482.4,621.5 482.8,623.6 483.1,625.8 483.4,628.0 483.6,630.2 483.9,632.4 484.2,634.6 484.4,636.7 484.6,638.9 484.9,641.1 485.1,643.3 485.3,645.5 485.5,647.6 485.7,649.8 485.9,652.0 486.1,654.2 486.2,656.3 486.4,658.5 486.6,660.7 486.7,662.8 486.9,665.0 487.0,667.2 487.1,669.3 487.3,671.5 487.4,673.6 487.5,675.8 487.6,677.9 487.7,680.1 487.8,682.2 488.0,684.4 488.0,686.5 488.1,688.7 488.2,690.8 488.3,692.9 488.4,695.1 488.5,697.2 488.6,699.3 488.6,701.5 488.7,703.6 488.8,705.7 488.9,707.8 488.9,710.0 489.0,712.1 489.1,714.2 489.1,716.3 489.2,718.4 489.2,720.5 489.3,722.7" /><polyline points="510.6,322.0 510.5,324.1 510.5,326.2 510.5,328.3 510.4,330.4 510.4,332.5 510.3,334.5 510.3,336.6 510.3,338.7 510.2,340.8 510.2,342.9 510.1,345.0 510.1,347.1 510.0,349.2 510.0,351.3 509.9,353.3 509.9,355.4 509.8,357.5 509.8,359.6 509.7,361.7 509.7,363.8 509.6,365.9 509.5,368.0 509.5,370.1 509.4,372.2 509.3,374.3 509.3,376.4 509.2,378.5 509.1,380.6 509.1,382.7 509.0,384.8 508.9,386.9 508.8,389.0 508.7,391.2 508.6,393.3 508.5,395.4 508.4,397.5 508.3,399.6 508.2,401.7 508.1,403.8 508.0,405.9 507.9,408.0 507.8,410.1 507.7,412.3 507.5,414.4 507.4,416.5 507.3,418.6 507.1,420.7 507.0,422.8 506.8,424.9 506.7,427.1 506.5,429.2 506.4,431.3 506.2,433.4 506.0,435.5 505.8,437.6 505.7,439.7 505.5,441.8 505.3,443.9 505.1,446.0 504.9,448.1 504.7,450.2 504.4,452.3 504.2,454.4 504.0,456.5 503.7,458.6 503.5,460.6 503.3,462.7 503.0,464.8 502.7,466.8 502.5,468.9 502.2,471.0 501.9,473.0 501.6,475.0 501.4,477.1 501.1,479.1 500.8,481.1 500.5,483.1 500.2,485.1 499.9,487.1 499.5,489.0 499.2,491.0 498.9,492.9 498.6,494.9 498.3,496.8 498.0,498.7 497.7,500.6 497.4,502.5 497.1,504.4 496.8,506.2 496.5,508.1 496.2,509.9 495.9,511.7 495.7,513.5 495.4,515.3 495.2,517.1 494.9,518.9 494.7,520.6 494.5,522.3 494.3,524.1 494.2,525.8 494.0,527.5 493.9,529.2 493.8,530.9 493.7,532.6 493.6,534.3 493.6,536.0 493.5,537.6 493.5,539.3 493.5,541.0 493.6,542.7 493.6,544.4 493.7,546.0 493.8,547.7 493.9,549.4 494.0,551.1 494.2,552.8 494.3,554.6 494.5,556.3 494.7,558.0 494.9,559.8 495.2,561.5 495.4,563.3 495.7,565.1 495.9,566.9 496.2,568.7 496.5,570.6 496.8,572.4 497.1,574.3 497.4,576.1 497.7,578.0 498.0,579.9 498.3,581.8 498.6,583.8 498.9,585.7 499.2,587.6 499.5,589.6 499.9,591.6 500.2,593.6 500.5,595.5 500.8,597.5 501.1,599.6 501.4,601.6 501.6,603.6 501.9,605.6 502.2,607.7 502.5,609.7 502.7,611.8 503.0,613.9 503.3,615.9 503.5,618.0 503.7,620.1 504.0,622.2 504.2,624.2 504.4,626.3 504.7,628.4 504.9,630.5 505.1,632.6 505.3,634.7 505.5,636.8 505.7,638.9 505.8,641.0 506.0,643.1 506.2,645.3 506.4,647.4 506.5,649.5 506.7,651.6 506.8,653.7 507.0,655.8 507.1,657.9 507.3,660.0 507.4,662.2 507.5,664.3 507.7,666.4 507.8,668.5 507.9,670.6 508.0,672.7 508.1,674.8 508.2,676.9 508.3,679.1 508.4,681.2 508.5,683.3 508.6,685.4 508.7,687.5 508.8,689.6 508.9,691.7 509.0,693.8 509.1,695.9 509.1,698.0 509.2,700.1 509.3,702.2 509.3,704.3 509.4,706.4 509.5,708.5 509.5,710.6 509.6,712.7 509.7,714.8 509.7,716.9 509.8,719.0 509.8,721.1 509.9,723.2" /><polyline points="531.3,321.7 531.2,323.8 531.2,325.9 531.2,327.9 531.1,330.0 531.1,332.1 531.1,334.2 531.0,336.2 531.0,338.3 530.9,340.4 530.9,342.5 530.9,344.5 530.8,346.6 530.8,348.7 530.7,350.8 530.7,352.8 530.6,354.9 530.6,357.0 530.5,359.1 530.5,361.2 530.4,363.2 530.4,365.3 530.3,367.4 530.2,369.5 530.2,371.6 530.1,373.6 530.1,375.7 530.0,377.8 529.9,379.9 529.9,382.0 529.8,384.0 529.7,386.1 529.6,388.2 529.6,390.3 529.5,392.4 529.4,394.5 529.3,396.5 529.2,398.6 529.1,400.7 529.1,402.8 529.0,404.9 528.9,407.0 528.8,409.0 528.7,411.1 528.6,413.2 528.5,415.3 528.4,417.3 528.2,419.4 528.1,421.5 528.0,423.6 527.9,425.7 527.8,427.7 527.6,429.8 527.5,431.9 527.4,433.9 527.3,436.0 527.1,438.1 527.0,440.1 526.8,442.2 526.7,444.3 526.5,446.3 526.4,448.4 526.2,450.4 526.1,452.5 525.9,454.5 525.8,456.5 525.6,458.6 525.4,460.6 525.3,462.6 525.1,464.7 524.9,466.7 524.8,468.7 524.6,470.7 524.4,472.7 524.2,474.7 524.0,476.7 523.9,478.7 523.7,480.7 523.5,482.7 523.3,484.7 523.1,486.6 523.0,488.6 522.8,490.5 522.6,492.5 522.4,494.4 522.3,496.4 522.1,498.3 521.9,500.2 521.8,502.1 521.6,504.0 521.5,505.9 521.3,507.8 521.2,509.7 521.0,511.6 520.9,513.5 520.8,515.4 520.7,517.2 520.6,519.1 520.5,520.9 520.4,522.8 520.3,524.6 520.2,526.5 520.1,528.3 520.1,530.2 520.0,532.0 520.0,533.8 520.0,535.7 520.0,537.5 520.0,539.3 520.0,541.2 520.0,543.0 520.0,544.8 520.0,546.6 520.1,548.5 520.1,550.3 520.2,552.2 520.3,554.0 520.4,555.9 520.5,557.7 520.6,559.6 520.7,561.4 520.8,563.3 520.9,565.2 521.0,567.0 521.2,568.9 521.3,570.8 521.5,572.7 521.6,574.6 521.8,576.5 521.9,578.4 522.1,580.4 522.3,582.3 522.4,584.2 522.6,586.2 522.8,588.1 523.0,590.1 523.1,592.0 523.3,594.0 523.5,596.0 523.7,597.9 523.9,599.9 524.0,601.9 524.2,603.9 524.4,605.9 524.6,607.9 524.8,609.9 524.9,612.0 525.1,614.0 525.3,616.0 525.4,618.0 525.6,620.1 525.8,622.1 525.9,624.1 526.1,626.2 526.2,628.2 526.4,630.3 526.5,632.3 526.7,634.4 526.8,636.4 527.0,638.5 527.1,640.6 527.3,642.6 527.4,644.7 527.5,646.8 527.6,648.8 527.8,650.9 527.9,653.0 528.0,655.1 528.1,657.1 528.2,659.2 528.4,661.3 528.5,663.4 528.6,665.4 528.7,667.5 528.8,669.6 528.9,671.7 529.0,673.8 529.1,675.9 529.1,677.9 529.2,680.0 529.3,682.1 529.4,684.2 529.5,686.3 529.6,688.3 529.6,690.4 529.7,692.5 529.8,694.6 529.9,696.7 529.9,698.8 530.0,700.8 530.1,702.9 530.1,705.0 530.2,707.1 530.2,709.2 530.3,711.2 530.4,713.3 530.4,715.4 530.5,717.5 530.5,719.6 530.6,721.6 530.6,723.7" /><polyline points="552.0,321.4 552.0,323.5 552.0,325.5 551.9,327.6 551.9,329.7 551.9,331.7 551.8,333.8 551.8,335.8 551.8,337.9 551.7,340.0 551.7,342.0 551.6,344.1 551.6,346.2 551.6,348.2 551.5,350.3 551.5,352.4 551.4,354.4 551.4,356.5 551.3,358.6 551.3,360.6 551.2,362.7 551.2,364.8 551.1,366.8 551.1,368.9 551.0,371.0 551.0,373.0 550.9,375.1 550.9,377.2 550.8,379.2 550.8,381.3 550.7,383.4 550.6,385.4 550.6,387.5 550.5,389.6 550.4,391.6 550.4,393.7 550.3,395.8 550.2,397.8 550.2,399.9 550.1,401.9 550.0,404.0 549.9,406.1 549.9,408.1 549.8,410.2 549.7,412.3 549.6,414.3 549.5,416.4 549.5,418.4 549.4,420.5 549.3,422.5 549.2,424.6 549.1,426.6 549.0,428.7 548.9,430.7 548.8,432.8 548.7,434.8 548.6,436.9 548.5,438.9 548.4,441.0 548.3,443.0 548.2,445.0 548.1,447.1 548.0,449.1 547.9,451.1 547.8,453.1 547.7,455.2 547.6,457.2 547.4,459.2 547.3,461.2 547.2,463.2 547.1,465.3 547.0,467.3 546.9,469.3 546.8,471.3 546.7,473.3 546.5,475.3 546.4,477.3 546.3,479.2 546.2,481.2 546.1,483.2 546.0,485.2 545.9,487.2 545.8,489.1 545.7,491.1 545.6,493.1 545.5,495.0 545.4,497.0 545.3,498.9 545.2,500.9 545.1,502.8 545.0,504.8 544.9,506.7 544.8,508.6 544.8,510.6 544.7,512.5 544.6,514.4 544.6,516.4 544.5,518.3 544.4,520.2 544.4,522.1 544.3,524.0 544.3,526.0 544.3,527.9 544.2,529.8 544.2,531.7 544.2,533.6 544.2,535.5 544.2,537.4 544.2,539.3 544.2,541.2 544.2,543.1 544.2,545.0 544.2,547.0 544.2,548.9 544.3,550.8 544.3,552.7 544.3,554.6 544.4,556.5 544.4,558.4 544.5,560.4 544.6,562.3 544.6,564.2 544.7,566.1 544.8,568.1 544.8,570.0 544.9,571.9 545.0,573.9 545.1,575.8 545.2,577.8 545.3,579.7 545.4,581.7 545.5,583.6 545.6,585.6 545.7,587.5 545.8,589.5 545.9,591.5 546.0,593.5 546.1,595.4 546.2,597.4 546.3,599.4 546.4,601.4 546.5,603.4 546.7,605.4 546.8,607.4 546.9,609.4 547.0,611.4 547.1,613.4 547.2,615.4 547.3,617.4 547.4,619.4 547.6,621.4 547.7,623.5 547.8,625.5 547.9,627.5 548.0,629.5 548.1,631.6 548.2,633.6 548.3,635.7 548.4,637.7 548.5,639.7 548.6,641.8 548.7,643.8 548.8,645.9 548.9,647.9 549.0,650.0 549.1,652.0 549.2,654.1 549.3,656.1 549.4,658.2 549.5,660.2 549.5,662.3 549.6,664.3 549.7,666.4 549.8,668.4 549.9,670.5 549.9,672.6 550.0,674.6 550.1,676.7 550.2,678.8 550.2,680.8 550.3,682.9 550.4,684.9 550.4,687.0 550.5,689.1 550.6,691.1 550.6,693.2 550.7,695.3 550.8,697.3 550.8,699.4 550.9,701.5 550.9,703.5 551.0,705.6 551.0,707.7 551.1,709.7 551.1,711.8 551.2,713.9 551.2,715.9 551.3,718.0 551.3,720.1 551.4,722.1 551.4,724.2" /></g><g id="03_Gold_Accent" inkscape:groupmode="layer" inkscape:label="03_Gold_Accent" stroke="#B8960C" fill="none" stroke-width="1" stroke-linecap="round" stroke-linejoin="round"><polyline points="259.9,514.1 261.6,514.2 263.3,514.2 265.0,514.3 266.8,514.3 268.5,514.4 270.2,514.4 272.0,514.5 273.7,514.5 275.5,514.6 277.2,514.6 279.0,514.7 280.8,514.7 282.5,514.8 284.3,514.9 286.1,514.9 287.9,515.0 289.7,515.1 291.6,515.2 293.4,515.3 295.2,515.4 297.1,515.4 298.9,515.5 300.8,515.6 302.7,515.8 304.6,515.9 306.5,516.0 308.4,516.1 310.3,516.3 312.2,516.4 314.2,516.5 316.2,516.7 318.1,516.9 320.2,517.0 322.2,517.2 324.2,517.4 326.3,517.6 328.4,517.8 330.5,518.1 332.6,518.3 334.7,518.6 336.9,518.8 339.1,519.1 341.3,519.4 343.6,519.8 345.9,520.1 348.2,520.5 350.6,520.9 353.0,521.3 355.4,521.8 357.9,522.3 360.4,522.8 363.0,523.4 364.0,523.4 364.9,523.4 365.9,523.4 366.8,523.4 367.8,523.4 368.7,523.4 369.6,523.4 370.6,523.4 371.5,523.4 372.4,523.4 373.4,523.4 374.3,523.4 375.2,523.4 376.2,523.4 377.1,523.4 378.0,523.4 379.0,523.4 379.9,523.4 380.9,523.4 381.8,523.4 382.7,523.4 383.7,523.4 384.6,523.4 385.5,523.4 386.5,523.4 387.4,523.4 388.3,523.4 389.3,523.4 390.2,523.4 391.2,523.4 392.1,523.4 393.0,523.4 394.0,523.4" /><polyline points="422.0,523.4 423.0,523.4 423.9,523.4 424.8,523.4 425.8,523.4 426.7,523.4 427.7,523.4 428.6,523.4 429.5,523.4 430.5,523.4 431.4,523.4 432.3,523.4 433.3,523.4 434.2,523.4 435.1,523.4 436.1,523.4 437.0,523.4 438.0,523.4 438.9,523.4 439.8,523.4 440.8,523.4 441.7,523.4 442.6,523.4 443.6,523.4 444.5,523.4 445.4,523.4 446.4,523.4 447.3,523.4 448.2,523.4 449.2,523.4 450.1,523.4 451.1,523.4 452.0,523.4 453.0,523.4 455.6,522.8 458.1,522.3 460.6,521.8 463.0,521.3 465.4,520.9 467.8,520.5 470.1,520.1 472.4,519.8 474.7,519.4 476.9,519.1 479.1,518.8 481.3,518.6 483.4,518.3 485.5,518.1 487.6,517.8 489.7,517.6 491.8,517.4 493.8,517.2 495.8,517.0 497.9,516.9 499.8,516.7 501.8,516.5 503.8,516.4 505.7,516.3 507.6,516.1 509.5,516.0 511.4,515.9 513.3,515.8 515.2,515.6 517.1,515.5 518.9,515.4 520.8,515.4 522.6,515.3 524.4,515.2 526.3,515.1 528.1,515.0 529.9,514.9 531.7,514.9 533.5,514.8 535.2,514.7 537.0,514.7 538.8,514.6 540.5,514.6 542.3,514.5 544.0,514.5 545.8,514.4 547.5,514.4 549.2,514.3 551.0,514.3 552.7,514.2 554.4,514.2 556.1,514.1" /><polyline points="260.2,533.5 261.9,533.5 263.7,533.5 265.4,533.6 267.1,533.6 268.9,533.6 270.6,533.6 272.4,533.6 274.2,533.6 275.9,533.6 277.7,533.6 279.5,533.7 281.3,533.7 283.1,533.7 284.9,533.7 286.7,533.7 288.6,533.7 290.4,533.8 292.3,533.8 294.1,533.8 296.0,533.8 297.9,533.9 299.8,533.9 301.7,533.9 303.6,533.9 305.6,534.0 307.5,534.0 309.5,534.0 311.5,534.1 313.5,534.1 315.5,534.1 317.5,534.2 319.6,534.2 321.7,534.3 323.8,534.3 325.9,534.4 328.1,534.4 330.3,534.5 332.5,534.5 334.8,534.6 337.1,534.7 339.4,534.8 341.8,534.8 344.2,534.9 346.7,535.0 349.2,535.1 351.7,535.2 354.3,535.3 357.0,535.5 359.8,535.6 361.2,535.6 362.1,535.6 363.1,535.6 364.0,535.6 364.9,535.6 365.9,535.6 366.8,535.6 367.8,535.6 368.7,535.6 369.6,535.6 370.6,535.6 371.5,535.6 372.4,535.6 373.4,535.6 374.3,535.6 375.2,535.6 376.2,535.6 377.1,535.6 378.0,535.6 379.0,535.6 379.9,535.6 380.9,535.6 381.8,535.6 382.7,535.6 383.7,535.6 384.6,535.6 385.5,535.6 386.5,535.6" /><polyline points="429.5,535.6 430.5,535.6 431.4,535.6 432.3,535.6 433.3,535.6 434.2,535.6 435.1,535.6 436.1,535.6 437.0,535.6 438.0,535.6 438.9,535.6 439.8,535.6 440.8,535.6 441.7,535.6 442.6,535.6 443.6,535.6 444.5,535.6 445.4,535.6 446.4,535.6 447.3,535.6 448.2,535.6 449.2,535.6 450.1,535.6 451.1,535.6 452.0,535.6 452.9,535.6 453.9,535.6 454.8,535.6 456.2,535.6 459.0,535.5 461.7,535.3 464.3,535.2 466.8,535.1 469.3,535.0 471.8,534.9 474.2,534.8 476.6,534.8 478.9,534.7 481.2,534.6 483.5,534.5 485.7,534.5 487.9,534.4 490.1,534.4 492.2,534.3 494.3,534.3 496.4,534.2 498.5,534.2 500.5,534.1 502.5,534.1 504.5,534.1 506.5,534.0 508.5,534.0 510.4,534.0 512.4,533.9 514.3,533.9 516.2,533.9 518.1,533.9 520.0,533.8 521.9,533.8 523.7,533.8 525.6,533.8 527.4,533.7 529.3,533.7 531.1,533.7 532.9,533.7 534.7,533.7 536.5,533.7 538.3,533.6 540.1,533.6 541.8,533.6 543.6,533.6 545.4,533.6 547.1,533.6 548.9,533.6 550.6,533.6 552.3,533.5 554.1,533.5 555.8,533.5" /><polyline points="260.1,552.9 261.8,552.8 263.6,552.8 265.3,552.8 267.0,552.8 268.8,552.7 270.5,552.7 272.3,552.7 274.0,552.6 275.8,552.6 277.6,552.6 279.4,552.5 281.2,552.5 283.0,552.5 284.8,552.4 286.6,552.4 288.4,552.4 290.2,552.3 292.1,552.3 293.9,552.2 295.8,552.2 297.7,552.1 299.6,552.0 301.5,552.0 303.4,551.9 305.3,551.9 307.2,551.8 309.2,551.7 311.2,551.6 313.1,551.5 315.2,551.5 317.2,551.4 319.2,551.3 321.3,551.2 323.4,551.1 325.5,550.9 327.6,550.8 329.8,550.7 332.0,550.5 334.2,550.4 336.5,550.2 338.7,550.1 341.1,549.9 343.4,549.7 345.8,549.5 348.3,549.3 350.8,549.0 353.3,548.8 355.9,548.5 358.6,548.2 361.2,547.9 362.1,547.9 363.1,547.9 364.0,547.9 364.9,547.9 365.9,547.9 366.8,547.9 367.8,547.9 368.7,547.9 369.6,547.9 370.6,547.9 371.5,547.9 372.4,547.9 373.4,547.9 374.3,547.9 375.2,547.9 376.2,547.9 377.1,547.9 378.0,547.9 379.0,547.9 379.9,547.9 380.9,547.9 381.8,547.9 382.7,547.9 383.7,547.9 384.6,547.9 385.5,547.9 386.5,547.9 387.4,547.9 388.3,547.9" /><polyline points="427.7,547.9 428.6,547.9 429.5,547.9 430.5,547.9 431.4,547.9 432.3,547.9 433.3,547.9 434.2,547.9 435.1,547.9 436.1,547.9 437.0,547.9 438.0,547.9 438.9,547.9 439.8,547.9 440.8,547.9 441.7,547.9 442.6,547.9 443.6,547.9 444.5,547.9 445.4,547.9 446.4,547.9 447.3,547.9 448.2,547.9 449.2,547.9 450.1,547.9 451.1,547.9 452.0,547.9 452.9,547.9 453.9,547.9 454.8,547.9 457.4,548.2 460.1,548.5 462.7,548.8 465.2,549.0 467.7,549.3 470.2,549.5 472.6,549.7 474.9,549.9 477.3,550.1 479.5,550.2 481.8,550.4 484.0,550.5 486.2,550.7 488.4,550.8 490.5,550.9 492.6,551.1 494.7,551.2 496.8,551.3 498.8,551.4 500.8,551.5 502.9,551.5 504.8,551.6 506.8,551.7 508.8,551.8 510.7,551.9 512.6,551.9 514.5,552.0 516.4,552.0 518.3,552.1 520.2,552.2 522.1,552.2 523.9,552.3 525.8,552.3 527.6,552.4 529.4,552.4 531.2,552.4 533.0,552.5 534.8,552.5 536.6,552.5 538.4,552.6 540.2,552.6 542.0,552.6 543.7,552.7 545.5,552.7 547.2,552.7 549.0,552.8 550.7,552.8 552.4,552.8 554.2,552.8 555.9,552.9" /><polyline points="259.6,572.3 261.3,572.3 263.1,572.2 264.8,572.1 266.5,572.1 268.2,572.0 269.9,572.0 271.7,571.9 273.4,571.8 275.1,571.8 276.9,571.7 278.6,571.6 280.4,571.6 282.2,571.5 283.9,571.4 285.7,571.3 287.5,571.2 289.3,571.1 291.1,571.0 292.9,570.9 294.7,570.8 296.5,570.7 298.3,570.6 300.2,570.5 302.0,570.3 303.9,570.2 305.7,570.0 307.6,569.9 309.5,569.7 311.4,569.6 313.3,569.4 315.2,569.2 317.2,569.0 319.1,568.8 321.1,568.6 323.1,568.4 325.1,568.1 327.1,567.9 329.1,567.6 331.2,567.3 333.2,567.0 335.3,566.7 337.4,566.4 339.5,566.0 341.7,565.6 343.9,565.2 346.0,564.8 348.3,564.4 350.5,563.9 352.8,563.4 355.1,562.8 357.4,562.3 359.8,561.7 362.2,561.0 364.6,560.3 365.9,560.1 366.8,560.1 367.8,560.1 368.7,560.1 369.6,560.1 370.6,560.1 371.5,560.1 372.4,560.1 373.4,560.1 374.3,560.1 375.2,560.1 376.2,560.1 377.1,560.1 378.0,560.1 379.0,560.1 379.9,560.1 380.9,560.1 381.8,560.1 382.7,560.1 383.7,560.1 384.6,560.1 385.5,560.1 386.5,560.1 387.4,560.1 388.3,560.1 389.3,560.1 390.2,560.1 391.2,560.1 392.1,560.1 393.0,560.1 394.0,560.1 394.9,560.1 395.8,560.1 396.8,560.1 397.7,560.1 398.6,560.1 399.6,560.1 400.5,560.1 401.4,560.1 402.4,560.1 403.3,560.1 404.3,560.1" /><polyline points="411.7,560.1 412.7,560.1 413.6,560.1 414.6,560.1 415.5,560.1 416.4,560.1 417.4,560.1 418.3,560.1 419.2,560.1 420.2,560.1 421.1,560.1 422.0,560.1 423.0,560.1 423.9,560.1 424.8,560.1 425.8,560.1 426.7,560.1 427.7,560.1 428.6,560.1 429.5,560.1 430.5,560.1 431.4,560.1 432.3,560.1 433.3,560.1 434.2,560.1 435.1,560.1 436.1,560.1 437.0,560.1 438.0,560.1 438.9,560.1 439.8,560.1 440.8,560.1 441.7,560.1 442.6,560.1 443.6,560.1 444.5,560.1 445.4,560.1 446.4,560.1 447.3,560.1 448.2,560.1 449.2,560.1 450.1,560.1 451.4,560.3 453.8,561.0 456.2,561.7 458.6,562.3 460.9,562.8 463.2,563.4 465.5,563.9 467.7,564.4 470.0,564.8 472.1,565.2 474.3,565.6 476.5,566.0 478.6,566.4 480.7,566.7 482.8,567.0 484.8,567.3 486.9,567.6 488.9,567.9 490.9,568.1 492.9,568.4 494.9,568.6 496.9,568.8 498.8,569.0 500.8,569.2 502.7,569.4 504.6,569.6 506.5,569.7 508.4,569.9 510.3,570.0 512.1,570.2 514.0,570.3 515.8,570.5 517.7,570.6 519.5,570.7 521.3,570.8 523.1,570.9 524.9,571.0 526.7,571.1 528.5,571.2 530.3,571.3 532.1,571.4 533.8,571.5 535.6,571.6 537.4,571.6 539.1,571.7 540.9,571.8 542.6,571.8 544.3,571.9 546.1,572.0 547.8,572.0 549.5,572.1 551.2,572.1 552.9,572.2 554.7,572.3 556.4,572.3" /><polyline points="387.6,323.1 387.6,325.2 387.6,327.3 387.6,329.4 387.6,331.5 387.6,333.7 387.7,335.8 387.7,337.9 387.7,340.1 387.7,342.2 387.7,344.3 387.7,346.5 387.7,348.6 387.8,350.8 387.8,352.9 387.8,355.1 387.8,357.2 387.8,359.4 387.9,361.5 387.9,363.7 387.9,365.9 387.9,368.1 388.0,370.2 388.0,372.4 388.0,374.6 388.0,376.8 388.1,379.0 388.1,381.2 388.1,383.4 388.2,385.7 388.2,387.9 388.2,390.1 388.3,392.4 388.3,394.6 388.4,396.9 388.4,399.2 388.5,401.4 388.5,403.7 388.6,406.0 388.6,408.3 388.7,410.7 388.8,413.0 388.8,415.3 388.9,417.7 389.0,420.1 389.1,422.4 389.2,424.9 389.3,427.3 389.4,429.7 389.5,432.2 389.6,434.6 389.7,437.1 389.9,439.7 390.0,442.2 390.2,444.8 390.3,447.4 390.5,450.0 390.7,452.7 390.9,455.4 391.1,458.1 391.3,460.9 391.6,463.7 391.9,466.6 392.2,469.5 392.5,472.5 392.9,475.5 393.3,478.6 393.7,481.8 394.2,485.1 394.7,488.4 395.2,491.8 395.5,494.0 395.5,495.3 395.5,496.5 395.5,497.7 395.5,498.9 395.5,500.2 395.5,501.4 395.5,502.6 395.5,503.8 395.5,505.0 395.5,506.3 395.5,507.5 395.5,508.7 395.5,509.9 395.5,511.2 395.5,512.4 395.5,513.6 395.5,514.8 395.5,516.1 395.5,517.3 395.5,518.5 395.5,519.7 395.5,521.0 395.5,522.2" /><polyline points="395.5,556.5 395.5,557.7 395.5,558.9 395.5,560.1 395.5,561.4 395.5,562.6 395.5,563.8 395.5,565.0 395.5,566.2 395.5,567.5 395.5,568.7 395.5,569.9 395.5,571.1 395.5,572.4 395.5,573.6 395.5,574.8 395.5,576.0 395.5,577.3 395.5,578.5 395.5,579.7 395.5,580.9 395.5,582.2 395.5,583.4 395.5,584.6 395.2,586.9 394.7,590.3 394.2,593.6 393.7,596.8 393.3,600.0 392.9,603.1 392.5,606.1 392.2,609.1 391.9,612.0 391.6,614.9 391.3,617.7 391.1,620.5 390.9,623.2 390.7,625.9 390.5,628.6 390.3,631.2 390.2,633.8 390.0,636.4 389.9,639.0 389.7,641.5 389.6,644.0 389.5,646.5 389.4,648.9 389.3,651.4 389.2,653.8 389.1,656.2 389.0,658.6 388.9,661.0 388.8,663.3 388.8,665.7 388.7,668.0 388.6,670.3 388.6,672.6 388.5,674.9 388.5,677.2 388.4,679.5 388.4,681.7 388.3,684.0 388.3,686.3 388.2,688.5 388.2,690.7 388.2,693.0 388.1,695.2 388.1,697.4 388.1,699.6 388.0,701.8 388.0,704.0 388.0,706.2 388.0,708.4 387.9,710.6 387.9,712.8 387.9,714.9 387.9,717.1 387.8,719.3 387.8,721.4" /><polyline points="408.0,323.1 408.0,325.2 408.0,327.4 408.0,329.5 408.0,331.6 408.0,333.7 408.0,335.9 408.0,338.0 408.0,340.1 408.0,342.3 408.0,344.4 408.0,346.5 408.0,348.7 408.0,350.8 408.0,353.0 408.0,355.2 408.0,357.3 408.0,359.5 408.0,361.7 408.0,363.8 408.0,366.0 408.0,368.2 408.0,370.4 408.0,372.6 408.0,374.8 408.0,377.0 408.0,379.2 408.0,381.4 408.0,383.6 408.0,385.9 408.0,388.1 408.0,390.3 408.0,392.6 408.0,394.9 408.0,397.1 408.0,399.4 408.0,401.7 408.0,404.0 408.0,406.3 408.0,408.7 408.0,411.0 408.0,413.3 408.0,415.7 408.0,418.1 408.0,420.5 408.0,422.9 408.0,425.3 408.0,427.8 408.0,430.3 408.0,432.8 408.0,435.3 408.0,437.8 408.0,440.4 408.0,443.0 408.0,445.6 408.0,448.3 408.0,451.0 408.0,453.8 408.0,456.5 408.0,459.4 408.0,462.3 408.0,465.2 408.0,468.2 408.0,471.3 408.0,474.4 408.0,477.6 408.0,480.9 408.0,484.3 408.0,487.8 408.0,491.4 408.0,492.8 408.0,494.0 408.0,495.3 408.0,496.5 408.0,497.7 408.0,498.9 408.0,500.2 408.0,501.4 408.0,502.6 408.0,503.8 408.0,505.0 408.0,506.3 408.0,507.5 408.0,508.7 408.0,509.9 408.0,511.2 408.0,512.4 408.0,513.6 408.0,514.8 408.0,516.1 408.0,517.3" /><polyline points="408.0,561.4 408.0,562.6 408.0,563.8 408.0,565.0 408.0,566.2 408.0,567.5 408.0,568.7 408.0,569.9 408.0,571.1 408.0,572.4 408.0,573.6 408.0,574.8 408.0,576.0 408.0,577.3 408.0,578.5 408.0,579.7 408.0,580.9 408.0,582.2 408.0,583.4 408.0,584.6 408.0,585.8 408.0,587.3 408.0,590.9 408.0,594.4 408.0,597.8 408.0,601.0 408.0,604.3 408.0,607.4 408.0,610.4 408.0,613.4 408.0,616.4 408.0,619.3 408.0,622.1 408.0,624.9 408.0,627.6 408.0,630.3 408.0,633.0 408.0,635.6 408.0,638.2 408.0,640.8 408.0,643.4 408.0,645.9 408.0,648.4 408.0,650.8 408.0,653.3 408.0,655.7 408.0,658.1 408.0,660.5 408.0,662.9 408.0,665.3 408.0,667.6 408.0,670.0 408.0,672.3 408.0,674.6 408.0,676.9 408.0,679.2 408.0,681.5 408.0,683.8 408.0,686.0 408.0,688.3 408.0,690.5 408.0,692.8 408.0,695.0 408.0,697.2 408.0,699.5 408.0,701.7 408.0,703.9 408.0,706.1 408.0,708.3 408.0,710.5 408.0,712.6 408.0,714.8 408.0,717.0 408.0,719.2 408.0,721.3" /><polyline points="428.4,323.1 428.4,325.2 428.4,327.3 428.4,329.4 428.4,331.5 428.4,333.7 428.3,335.8 428.3,337.9 428.3,340.1 428.3,342.2 428.3,344.3 428.3,346.5 428.3,348.6 428.2,350.8 428.2,352.9 428.2,355.1 428.2,357.2 428.2,359.4 428.1,361.5 428.1,363.7 428.1,365.9 428.1,368.1 428.0,370.2 428.0,372.4 428.0,374.6 428.0,376.8 427.9,379.0 427.9,381.2 427.9,383.4 427.8,385.7 427.8,387.9 427.8,390.1 427.7,392.4 427.7,394.6 427.6,396.9 427.6,399.2 427.5,401.4 427.5,403.7 427.4,406.0 427.4,408.3 427.3,410.7 427.2,413.0 427.2,415.3 427.1,417.7 427.0,420.1 426.9,422.4 426.8,424.9 426.7,427.3 426.6,429.7 426.5,432.2 426.4,434.6 426.3,437.1 426.1,439.7 426.0,442.2 425.8,444.8 425.7,447.4 425.5,450.0 425.3,452.7 425.1,455.4 424.9,458.1 424.7,460.9 424.4,463.7 424.1,466.6 423.8,469.5 423.5,472.5 423.1,475.5 422.7,478.6 422.3,481.8 421.8,485.1 421.3,488.4 420.8,491.8 420.5,494.0 420.5,495.3 420.5,496.5 420.5,497.7 420.5,498.9 420.5,500.2 420.5,501.4 420.5,502.6 420.5,503.8 420.5,505.0 420.5,506.3 420.5,507.5 420.5,508.7 420.5,509.9 420.5,511.2 420.5,512.4 420.5,513.6 420.5,514.8 420.5,516.1 420.5,517.3 420.5,518.5 420.5,519.7 420.5,521.0 420.5,522.2" /><polyline points="420.5,556.5 420.5,557.7 420.5,558.9 420.5,560.1 420.5,561.4 420.5,562.6 420.5,563.8 420.5,565.0 420.5,566.2 420.5,567.5 420.5,568.7 420.5,569.9 420.5,571.1 420.5,572.4 420.5,573.6 420.5,574.8 420.5,576.0 420.5,577.3 420.5,578.5 420.5,579.7 420.5,580.9 420.5,582.2 420.5,583.4 420.5,584.6 420.8,586.9 421.3,590.3 421.8,593.6 422.3,596.8 422.7,600.0 423.1,603.1 423.5,606.1 423.8,609.1 424.1,612.0 424.4,614.9 424.7,617.7 424.9,620.5 425.1,623.2 425.3,625.9 425.5,628.6 425.7,631.2 425.8,633.8 426.0,636.4 426.1,639.0 426.3,641.5 426.4,644.0 426.5,646.5 426.6,648.9 426.7,651.4 426.8,653.8 426.9,656.2 427.0,658.6 427.1,661.0 427.2,663.3 427.2,665.7 427.3,668.0 427.4,670.3 427.4,672.6 427.5,674.9 427.5,677.2 427.6,679.5 427.6,681.7 427.7,684.0 427.7,686.3 427.8,688.5 427.8,690.7 427.8,693.0 427.9,695.2 427.9,697.4 427.9,699.6 428.0,701.8 428.0,704.0 428.0,706.2 428.0,708.4 428.1,710.6 428.1,712.8 428.1,714.9 428.1,717.1 428.2,719.3 428.2,721.4" /></g></svg>