<?xml version='1.0' encoding='utf-8'?>
<svg xmlns="http://www.w3.org/2000/svg" xmlns:inkscape="http://www.inkscape.org/namespaces/inkscape" viewBox="204 228 408 600"><style>*{vector-effect:non-scaling-stroke}</style><g id="01_Black_Frame" inkscape:groupmode="layer" inkscape:label="01_Black_Frame" stroke="#1A1A1A" fill="none" stroke-width="0.875" stroke-linecap="round" stroke-linejoin="round"><path d="M 250.0,264.0 L 566.0,264.0 Q 576.0,264.0 576.0,274.0 L 576.0,782.0 Q 576.0,792.0 566.0,792.0 L 250.0,792.0 Q 240.0,792.0 240.0,782.0 L 240.0,274.0 Q 240.0,264.0 250.0,264.0" /><path d="M 253.0,270.0 L 563.0,270.0 Q 570.0,270.0 570.0,277.0 L 570.0,779.0 Q 570.0,786.0 563.0,786.0 L 253.0,786.0 Q 246.0,786.0 246.0,779.0 L 246.0,277.0 Q 246.0,270.0 253.0,270.0" /><line x1="259.0" y1="280.0" x2="263.0" y2="280.0" /><line x1="258.1" y1="282.1" x2="260.9" y2="284.9" /><line x1="256.0" y1="283.0" x2="256.0" y2="287.0" /><line x1="253.9" y1="282.1" x2="251.1" y2="284.9" /><line x1="253.0" y1="280.0" x2="249.0" y2="280.0" /><line x1="253.9" y1="277.9" x2="251.1" y2="275.1" /><line x1="256.0" y1="277.0" x2="256.0" y2="273.0" /><line x1="258.1" y1="277.9" x2="260.9" y2="275.1" /><line x1="563.0" y1="280.0" x2="567.0" y2="280.0" /><line x1="562.1" y1="282.1" x2="564.9" y2="284.9" /><line x1="560.0" y1="283.0" x2="560.0" y2="287.0" /><line x1="557.9" y1="282.1" x2="555.1" y2="284.9" /><line x1="557.0" y1="280.0" x2="553.0" y2="280.0" /><line x1="557.9" y1="277.9" x2="555.1" y2="275.1" /><line x1="560.0" y1="277.0" x2="560.0" y2="273.0" /><line x1="562.1" y1="277.9" x2="564.9" y2="275.1" /><line x1="259.0" y1="776.0" x2="263.0" y2="776.0" /><line x1="258.1" y1="778.1" x2="260.9" y2="780.9" /><line x1="256.0" y1="779.0" x2="256.0" y2="783.0" /><line x1="253.9" y1="778.1" x2="251.1" y2="780.9" /><line x1="253.0" y1="776.0" x2="249.0" y2="776.0" /><line x1="253.9" y1="773.9" x2="251.1" y2="771.1" /><line x1="256.0" y1="773.0" x2="256.0" y2="769.0" /><line x1="258.1" y1="773.9" x2="260.9" y2="771.1" /><line x1="563.0" y1="776.0" x2="567.0" y2="776.0" /><line x1="562.1" y1="778.1" x2="564.9" y2="780.9" /><line x1="560.0" y1="779.0" x2="560.0" y2="783.0" /><line x1="557.9" y1="778.1" x2="555.1" y2="780.9" /><line x1="557.0" y1="776.0" x2="553.0" y2="776.0" /><line x1="557.9" y1="773.9" x2="555.1" y2="771.1" /><line x1="560.0" y1="773.0" x2="560.0" y2="769.0" /><line x1="562.1" y1="773.9" x2="564.9" y2="771.1" /><polyline points="406.75,283.20 405.00,282.00 404.00,282.00 402.25,283.60 402.25,288.40 404.00,290.00 405.00,290.00 406.75,288.80" /><polyline points="408.00,282.00 408.00,290.00 412.25,290.00" /><polyline points="370.62,297.00 377.12,297.00" /><polyline points="373.88,297.00 373.88,307.00" /><polyline points="378.10,297.00 378.10,307.00" /><polyline points="384.60,297.00 384.60,307.00" /><polyline points="378.10,301.80 384.60,301.80" /><polyline points="391.10,297.00 385.57,297.00 385.57,301.80 389.47,301.80" /><polyline points="385.57,301.80 385.57,307.00 391.10,307.00" /><polyline points="400.52,297.00 402.15,307.00 403.77,300.50 405.40,307.00 407.02,297.00" /><polyline points="413.52,297.00 408.00,297.00 408.00,301.80 411.90,301.80" /><polyline points="408.00,301.80 408.00,307.00 413.52,307.00" /><polyline points="418.73,297.00 418.73,307.00" /><polyline points="428.80,298.50 426.52,297.00 425.22,297.00 422.95,299.00 422.95,305.00 425.22,307.00 426.52,307.00 428.80,305.50 428.80,302.00 426.20,302.00" /><polyline points="430.43,297.00 430.43,307.00" /><polyline points="436.93,297.00 436.93,307.00" /><polyline points="430.43,301.80 436.93,301.80" /><polyline points="437.90,297.00 444.40,297.00" /><polyline points="441.15,297.00 441.15,307.00" /><line x1="270.0" y1="312.0" x2="546.0" y2="312.0" /><line x1="270.0" y1="732.0" x2="546.0" y2="732.0" /><polyline points="369.15,740.75 369.15,745.25" /><polyline points="370.97,745.25 370.97,740.75 373.77,745.25 373.77,740.75" /><polyline points="376.57,740.75 374.19,740.75 374.19,742.91 375.87,742.91" /><polyline points="374.19,742.91 374.19,745.25" /><polyline points="377.41,740.75 377.41,745.25 379.79,745.25" /><polyline points="380.63,745.25 382.03,740.75 383.43,745.25" /><polyline points="381.13,743.67 382.93,743.67" /><polyline points="383.85,740.75 386.65,740.75" /><polyline points="385.25,740.75 385.25,745.25" /><polyline points="388.47,740.75 388.47,745.25" /><polyline points="391.69,740.75 390.57,741.20 390.29,742.10 390.29,743.90 390.57,744.80 391.69,745.25 392.81,744.80 393.09,743.90 393.09,742.10 392.81,741.20 391.69,740.75" /><polyline points="393.51,745.25 393.51,740.75 396.31,745.25 396.31,740.75" /><polyline points="403.17,745.25 403.17,740.75 404.99,740.75 405.55,741.29 405.55,742.01 404.99,742.55 403.17,742.55 404.99,742.55 405.55,743.09 405.55,744.71 404.99,745.25 403.17,745.25" /><polyline points="408.77,740.75 406.39,740.75 406.39,742.91 408.07,742.91" /><polyline points="406.39,742.91 406.39,745.25 408.77,745.25" /><polyline points="411.01,740.75 411.01,745.25" /><polyline points="412.83,745.25 412.83,740.75 414.65,740.75 415.35,741.42 415.35,742.19 414.65,742.77 412.83,742.77 415.35,745.25" /><polyline points="416.05,740.75 416.05,744.12 416.61,745.02 418.29,745.02 418.85,744.12 418.85,740.75" /><polyline points="419.27,740.75 422.07,740.75" /><polyline points="420.67,740.75 420.67,745.25" /><polyline points="428.93,745.25 428.93,740.75 430.75,740.75 431.45,741.42 431.45,742.19 430.75,742.77 428.93,742.77 431.45,745.25" /><polyline points="433.55,740.75 432.43,741.20 432.15,742.10 432.15,743.90 432.43,744.80 433.55,745.25 434.67,744.80 434.95,743.90 434.95,742.10 434.67,741.20 433.55,740.75" /><polyline points="437.89,741.42 436.91,740.75 436.35,740.75 435.37,741.65 435.37,744.35 436.35,745.25 436.91,745.25 437.89,744.58" /><polyline points="438.59,740.75 438.59,745.25" /><polyline points="441.11,740.75 438.59,743.00 441.11,745.25" /><polyline points="444.19,740.75 441.81,740.75 441.81,742.91 443.49,742.91" /><polyline points="441.81,742.91 441.81,745.25 444.19,745.25" /><polyline points="445.03,740.75 447.83,740.75" /><polyline points="446.43,740.75 446.43,745.25" /><polyline points="337.50,753.25 333.25,753.25 333.25,756.85 336.25,756.85" /><polyline points="333.25,756.85 333.25,760.75 337.50,760.75" /><polyline points="339.00,753.25 341.50,760.75 344.00,753.25" /><polyline points="349.00,753.25 344.75,753.25 344.75,756.85 347.75,756.85" /><polyline points="344.75,756.85 344.75,760.75 349.00,760.75" /><polyline points="350.50,760.75 350.50,753.25 353.75,753.25 355.00,754.38 355.00,755.65 353.75,756.62 350.50,756.62 355.00,760.75" /><polyline points="356.25,753.25 358.75,757.00 361.25,753.25" /><polyline points="358.75,757.00 358.75,760.75" /><polyline points="362.00,753.25 367.00,753.25" /><polyline points="364.50,753.25 364.50,760.75" /><polyline points="367.75,753.25 367.75,760.75" /><polyline points="372.75,753.25 372.75,760.75" /><polyline points="367.75,756.85 372.75,756.85" /><polyline points="376.00,753.25 376.00,760.75" /><polyline points="379.25,760.75 379.25,753.25 384.25,760.75 384.25,753.25" /><polyline points="389.50,754.38 387.75,753.25 386.75,753.25 385.00,754.75 385.00,759.25 386.75,760.75 387.75,760.75 389.50,759.62 389.50,757.00 387.50,757.00" /><polyline points="401.00,754.38 399.25,753.25 398.25,753.25 396.50,754.75 396.50,759.25 398.25,760.75 399.25,760.75 401.00,759.62" /><polyline points="402.25,760.75 404.75,753.25 407.25,760.75" /><polyline points="403.15,758.12 406.35,758.12" /><polyline points="408.00,760.75 408.00,753.25 410.50,757.38 413.00,753.25 413.00,760.75" /><polyline points="418.00,753.25 413.75,753.25 413.75,756.85 416.75,756.85" /><polyline points="413.75,756.85 413.75,760.75 418.00,760.75" /><polyline points="425.25,760.75 425.25,753.25 428.00,753.25 429.75,755.12 429.75,758.88 428.00,760.75 425.25,760.75" /><polyline points="433.50,753.25 431.50,754.00 431.00,755.50 431.00,758.50 431.50,760.00 433.50,760.75 435.50,760.00 436.00,758.50 436.00,755.50 435.50,754.00 433.50,753.25" /><polyline points="436.75,753.25 438.00,760.75 439.25,755.88 440.50,760.75 441.75,753.25" /><polyline points="442.50,760.75 442.50,753.25 447.50,760.75 447.50,753.25" /><polyline points="454.00,753.25 459.00,753.25" /><polyline points="456.50,753.25 456.50,760.75" /><polyline points="462.25,753.25 460.25,754.00 459.75,755.50 459.75,758.50 460.25,760.00 462.25,760.75 464.25,760.00 464.75,758.50 464.75,755.50 464.25,754.00 462.25,753.25" /><polyline points="465.50,760.75 465.50,753.25 468.25,753.25 470.00,755.12 470.00,758.88 468.25,760.75 465.50,760.75" /><polyline points="471.25,760.75 473.75,753.25 476.25,760.75" /><polyline points="472.15,758.12 475.35,758.12" /><polyline points="477.00,753.25 479.50,757.00 482.00,753.25" /><polyline points="479.50,757.00 479.50,760.75" /><polyline points="339.00,766.25 344.00,766.25" /><polyline points="341.50,766.25 341.50,773.75" /><polyline points="344.75,766.25 344.75,773.75" /><polyline points="349.75,766.25 349.75,773.75" /><polyline points="344.75,769.85 349.75,769.85" /><polyline points="354.75,766.25 350.50,766.25 350.50,769.85 353.50,769.85" /><polyline points="350.50,769.85 350.50,773.75 354.75,773.75" /><polyline points="366.50,767.38 364.75,766.25 363.75,766.25 362.00,767.75 362.00,772.25 363.75,773.75 364.75,773.75 366.50,772.62 366.50,770.00 364.50,770.00" /><polyline points="367.75,773.75 367.75,766.25 371.00,766.25 372.25,767.38 372.25,768.65 371.00,769.62 367.75,769.62 372.25,773.75" /><polyline points="376.00,766.25 374.00,767.00 373.50,768.50 373.50,771.50 374.00,773.00 376.00,773.75 378.00,773.00 378.50,771.50 378.50,768.50 378.00,767.00 376.00,766.25" /><polyline points="379.25,766.25 379.25,771.88 380.25,773.38 383.25,773.38 384.25,771.88 384.25,766.25" /><polyline points="385.00,773.75 385.00,766.25 390.00,773.75 390.00,766.25" /><polyline points="390.75,773.75 390.75,766.25 393.50,766.25 395.25,768.12 395.25,771.88 393.50,773.75 390.75,773.75" /><polyline points="402.25,766.25 402.25,773.75" /><polyline points="407.25,766.25 407.25,773.75" /><polyline points="402.25,769.85 407.25,769.85" /><polyline points="412.25,766.25 408.00,766.25 408.00,769.85 411.00,769.85" /><polyline points="408.00,769.85 408.00,773.75 412.25,773.75" /><polyline points="413.75,766.25 413.75,773.75 418.00,773.75" /><polyline points="419.50,773.75 419.50,766.25 422.25,766.25 424.00,768.12 424.00,771.88 422.25,773.75 419.50,773.75" /><polyline points="427.75,773.00 427.75,773.38" /><polyline points="436.75,773.75 436.75,766.25 440.00,766.25 441.00,767.15 441.00,768.35 440.00,769.25 436.75,769.25 440.00,769.25 441.00,770.15 441.00,772.85 440.00,773.75 436.75,773.75" /><polyline points="442.50,773.75 445.00,766.25 447.50,773.75" /><polyline points="443.40,771.12 446.60,771.12" /><polyline points="448.25,773.75 448.25,766.25 451.50,766.25 452.75,767.38 452.75,768.65 451.50,769.62 448.25,769.62 452.75,773.75" /><polyline points="458.25,766.25 454.00,766.25 454.00,769.85 457.00,769.85" /><polyline points="454.00,769.85 454.00,773.75 458.25,773.75" /><polyline points="459.75,766.25 459.75,773.75 464.00,773.75" /><polyline points="465.50,766.25 468.00,770.00 470.50,766.25" /><polyline points="468.00,770.00 468.00,773.75" /><polyline points="473.75,773.00 473.75,773.38" /><polyline points="385.92,779.50 387.52,784.50 389.12,779.50" /><polyline points="391.20,784.00 391.20,784.25" /><polyline points="393.28,779.50 396.48,784.50" /><polyline points="396.48,779.50 393.28,784.50" /><polyline points="396.96,779.50 400.16,784.50" /><polyline points="400.16,779.50 396.96,784.50" /><polyline points="400.64,779.50 403.84,784.50" /><polyline points="403.84,779.50 400.64,784.50" /><polyline points="405.92,784.00 405.92,784.25" /><polyline points="408.00,784.50 408.00,779.50 409.60,782.25 411.20,779.50 411.20,784.50" /><polyline points="411.68,784.50 411.68,779.50 413.28,782.25 414.88,779.50 414.88,784.50" /><polyline points="415.36,779.50 418.56,784.50" /><polyline points="418.56,779.50 415.36,784.50" /><polyline points="419.04,779.50 422.24,784.50" /><polyline points="422.24,779.50 419.04,784.50" /><polyline points="422.72,779.50 424.32,784.50 425.92,779.50" /><polyline points="428.00,779.50 428.00,784.50" /></g><g id="02_Teal_Weight" inkscape:groupmode="layer" inkscape:label="02_Teal_Weight" stroke="#3A7A7A" fill="none" stroke-width="0.7" stroke-linecap="round" stroke-linejoin="round"><polyline points="257.0,324.0 262.1,324.0 267.2,324.0 272.4,324.0 277.5,324.0 282.6,324.0 287.7,324.0 292.8,324.0 297.9,324.0 303.1,324.0 308.2,324.0 313.3,324.0 318.4,324.0 323.5,324.0 328.7,324.0 333.8,324.0 338.9,324.0 344.0,324.0 349.1,324.0 354.3,324.0 359.4,324.0 364.5,324.0 369.6,324.0 374.7,324.0 379.8,324.0 385.0,324.0 390.1,324.0 395.2,324.0 400.3,324.0 405.4,324.0 410.6,324.0 415.7,324.0 420.8,324.0 425.9,324.0 431.0,324.0 436.2,324.0 441.3,324.0 446.4,324.0 451.5,324.0 456.6,324.0 461.7,324.0 466.9,324.0 472.0,324.0 477.1,324.0 482.2,324.0 487.3,324.0 492.5,324.0 497.6,324.0 502.7,324.0 507.8,324.0 512.9,324.0 518.1,324.0 523.2,324.0 528.3,324.0 533.4,324.0 538.5,324.0 543.6,324.0 548.8,324.0 553.9,324.0 559.0,324.0" /><polyline points="257.0,333.3 262.1,333.3 267.2,333.3 272.4,333.3 277.5,333.3 282.6,333.3 287.7,333.3 292.8,333.3 297.9,333.3 303.1,333.3 308.2,333.3 313.3,333.3 318.4,333.3 323.5,333.3 328.7,333.3 333.8,333.3 338.9,333.3 344.0,333.3 349.1,333.3 354.3,333.3 359.4,333.3 364.5,333.3 369.6,333.3 374.7,333.3 379.8,333.3 385.0,333.3 390.1,333.3 395.2,333.3 400.3,333.3 405.4,333.3 410.6,333.3 415.7,333.3 420.8,333.3 425.9,333.3 431.0,333.3 436.2,333.3 441.3,333.3 446.4,333.3 451.5,333.3 456.6,333.3 461.7,333.3 466.9,333.3 472.0,333.3 477.1,333.3 482.2,333.3 487.3,333.3 492.5,333.3 497.6,333.3 502.7,333.3 507.8,333.3 512.9,333.3 518.1,333.3 523.2,333.3 528.3,333.3 533.4,333.3 538.5,333.3 543.6,333.3 548.8,333.3 553.9,333.3 559.0,333.3" /><polyline points="257.0,342.5 262.1,342.5 267.2,342.5 272.4,342.6 277.5,342.6 282.6,342.6 287.7,342.6 292.8,342.6 297.9,342.7 303.1,342.7 308.2,342.7 313.3,342.7 318.4,342.7 323.5,342.7 328.7,342.7 333.8,342.8 338.9,342.8 344.0,342.8 349.1,342.8 354.3,342.8 359.4,342.8 364.5,342.8 369.6,342.8 374.7,342.8 379.8,342.8 385.0,342.8 390.1,342.8 395.2,342.8 400.3,342.8 405.4,342.8 410.6,342.8 415.7,342.8 420.8,342.8 425.9,342.8 431.0,342.8 436.2,342.8 441.3,342.8 446.4,342.8 451.5,342.8 456.6,342.8 461.7,342.8 466.9,342.8 472.0,342.8 477.1,342.8 482.2,342.8 487.3,342.7 492.5,342.7 497.6,342.7 502.7,342.7 507.8,342.7 512.9,342.7 518.1,342.7 523.2,342.6 528.3,342.6 533.4,342.6 538.5,342.6 543.6,342.6 548.8,342.5 553.9,342.5 559.0,342.5" /><polyline points="257.0,351.8 262.1,351.8 267.2,351.8 272.4,351.9 277.5,351.9 282.6,352.0 287.7,352.0 292.8,352.0 297.9,352.1 303.1,352.1 308.2,352.2 313.3,352.2 318.4,352.2 323.5,352.2 328.7,352.3 333.8,352.3 338.9,352.3 344.0,352.4 349.1,352.4 354.3,352.4 359.4,352.4 364.5,352.4 369.6,352.5 374.7,352.5 379.8,352.5 385.0,352.5 390.1,352.5 395.2,352.5 400.3,352.5 405.4,352.5 410.6,352.5 415.7,352.5 420.8,352.5 425.9,352.5 431.0,352.5 436.2,352.5 441.3,352.5 446.4,352.5 451.5,352.4 456.6,352.4 461.7,352.4 466.9,352.4 472.0,352.4 477.1,352.3 482.2,352.3 487.3,352.3 492.5,352.2 497.6,352.2 502.7,352.2 507.8,352.2 512.9,352.1 518.1,352.1 523.2,352.0 528.3,352.0 533.4,352.0 538.5,351.9 543.6,351.9 548.8,351.8 553.9,351.8 559.0,351.8" /><polyline points="257.0,361.0 262.1,361.1 267.2,361.2 272.4,361.2 277.5,361.3 282.6,361.4 287.7,361.4 292.8,361.5 297.9,361.6 303.1,361.6 308.2,361.7 313.3,361.8 318.4,361.8 323.5,361.9 328.7,361.9 333.8,362.0 338.9,362.0 344.0,362.1 349.1,362.1 354.3,362.2 359.4,362.2 364.5,362.2 369.6,362.3 374.7,362.3 379.8,362.3 385.0,362.3 390.1,362.3 395.2,362.4 400.3,362.4 405.4,362.4 410.6,362.4 415.7,362.4 420.8,362.4 425.9,362.3 431.0,362.3 436.2,362.3 441.3,362.3 446.4,362.3 451.5,362.2 456.6,362.2 461.7,362.2 466.9,362.1 472.0,362.1 477.1,362.0 482.2,362.0 487.3,361.9 492.5,361.9 497.6,361.8 502.7,361.8 507.8,361.7 512.9,361.6 518.1,361.6 523.2,361.5 528.3,361.4 533.4,361.4 538.5,361.3 543.6,361.2 548.8,361.2 553.9,361.1 559.0,361.0" /><polyline points="257.0,370.3 262.1,370.4 267.2,370.5 272.4,370.6 277.5,370.7 282.6,370.8 287.7,370.9 292.8,371.0 297.9,371.1 303.1,371.2 308.2,371.3 313.3,371.4 318.4,371.5 323.5,371.6 328.7,371.7 333.8,371.8 338.9,371.9 344.0,371.9 349.1,372.0 354.3,372.1 359.4,372.1 364.5,372.2 369.6,372.2 374.7,372.3 379.8,372.3 385.0,372.3 390.1,372.3 395.2,372.4 400.3,372.4 405.4,372.4 410.6,372.4 415.7,372.4 420.8,372.4 425.9,372.3 431.0,372.3 436.2,372.3 441.3,372.3 446.4,372.2 451.5,372.2 456.6,372.1 461.7,372.1 466.9,372.0 472.0,371.9 477.1,371.9 482.2,371.8 487.3,371.7 492.5,371.6 497.6,371.5 502.7,371.4 507.8,371.3 512.9,371.2 518.1,371.1 523.2,371.0 528.3,370.9 533.4,370.8 538.5,370.7 543.6,370.6 548.8,370.5 553.9,370.4 559.0,370.3" /><polyline points="257.0,379.5 262.1,379.7 267.2,379.9 272.4,380.0 277.5,380.2 282.6,380.3 287.7,380.5 292.8,380.6 297.9,380.8 303.1,380.9 308.2,381.1 313.3,381.2 318.4,381.3 323.5,381.5 328.7,381.6 333.8,381.7 338.9,381.8 344.0,381.9 349.1,382.0 354.3,382.1 359.4,382.2 364.5,382.2 369.6,382.3 374.7,382.4 379.8,382.4 385.0,382.5 390.1,382.5 395.2,382.5 400.3,382.5 405.4,382.6 410.6,382.6 415.7,382.5 420.8,382.5 425.9,382.5 431.0,382.5 436.2,382.4 441.3,382.4 446.4,382.3 451.5,382.2 456.6,382.2 461.7,382.1 466.9,382.0 472.0,381.9 477.1,381.8 482.2,381.7 487.3,381.6 492.5,381.5 497.6,381.3 502.7,381.2 507.8,381.1 512.9,380.9 518.1,380.8 523.2,380.6 528.3,380.5 533.4,380.3 538.5,380.2 543.6,380.0 548.8,379.9 553.9,379.7 559.0,379.5" /><polyline points="257.0,388.8 262.1,389.0 267.2,389.2 272.4,389.4 277.5,389.7 282.6,389.9 287.7,390.1 292.8,390.3 297.9,390.5 303.1,390.7 308.2,390.9 313.3,391.1 318.4,391.2 323.5,391.4 328.7,391.6 333.8,391.7 338.9,391.9 344.0,392.0 349.1,392.2 354.3,392.3 359.4,392.4 364.5,392.5 369.6,392.6 374.7,392.7 379.8,392.7 385.0,392.8 390.1,392.8 395.2,392.9 400.3,392.9 405.4,392.9 410.6,392.9 415.7,392.9 420.8,392.9 425.9,392.8 431.0,392.8 436.2,392.7 441.3,392.7 446.4,392.6 451.5,392.5 456.6,392.4 461.7,392.3 466.9,392.2 472.0,392.0 477.1,391.9 482.2,391.7 487.3,391.6 492.5,391.4 497.6,391.2 502.7,391.1 507.8,390.9 512.9,390.7 518.1,390.5 523.2,390.3 528.3,390.1 533.4,389.9 538.5,389.7 543.6,389.4 548.8,389.2 553.9,389.0 559.0,388.8" /><polyline points="257.0,398.0 262.1,398.3 267.2,398.6 272.4,398.9 277.5,399.2 282.6,399.5 287.7,399.7 292.8,400.0 297.9,400.3 303.1,400.5 308.2,400.8 313.3,401.0 318.4,401.2 323.5,401.5 328.7,401.7 333.8,401.9 338.9,402.1 344.0,402.3 349.1,402.4 354.3,402.6 359.4,402.7 364.5,402.9 369.6,403.0 374.7,403.1 379.8,403.2 385.0,403.3 390.1,403.3 395.2,403.4 400.3,403.4 405.4,403.4 410.6,403.4 415.7,403.4 420.8,403.4 425.9,403.3 431.0,403.3 436.2,403.2 441.3,403.1 446.4,403.0 451.5,402.9 456.6,402.7 461.7,402.6 466.9,402.4 472.0,402.3 477.1,402.1 482.2,401.9 487.3,401.7 492.5,401.5 497.6,401.2 502.7,401.0 507.8,400.8 512.9,400.5 518.1,400.3 523.2,400.0 528.3,399.7 533.4,399.5 538.5,399.2 543.6,398.9 548.8,398.6 553.9,398.3 559.0,398.0" /><polyline points="257.0,407.3 262.1,407.7 267.2,408.0 272.4,408.4 277.5,408.7 282.6,409.1 287.7,409.4 292.8,409.8 297.9,410.1 303.1,410.4 308.2,410.8 313.3,411.1 318.4,411.4 323.5,411.6 328.7,411.9 333.8,412.2 338.9,412.4 344.0,412.6 349.1,412.9 354.3,413.1 359.4,413.2 364.5,413.4 369.6,413.6 374.7,413.7 379.8,413.8 385.0,413.9 390.1,414.0 395.2,414.0 400.3,414.1 405.4,414.1 410.6,414.1 415.7,414.1 420.8,414.0 425.9,414.0 431.0,413.9 436.2,413.8 441.3,413.7 446.4,413.6 451.5,413.4 456.6,413.2 461.7,413.1 466.9,412.9 472.0,412.6 477.1,412.4 482.2,412.2 487.3,411.9 492.5,411.6 497.6,411.4 502.7,411.1 507.8,410.8 512.9,410.4 518.1,410.1 523.2,409.8 528.3,409.4 533.4,409.1 538.5,408.7 543.6,408.4 548.8,408.0 553.9,407.7 559.0,407.3" /><polyline points="257.0,416.6 262.1,417.0 267.2,417.4 272.4,417.9 277.5,418.3 282.6,418.8 287.7,419.2 292.8,419.6 297.9,420.0 303.1,420.4 308.2,420.8 313.3,421.2 318.4,421.6 323.5,421.9 328.7,422.2 333.8,422.6 338.9,422.9 344.0,423.2 349.1,423.4 354.3,423.7 359.4,423.9 364.5,424.1 369.6,424.3 374.7,424.4 379.8,424.6 385.0,424.7 390.1,424.8 395.2,424.9 400.3,424.9 405.4,424.9 410.6,424.9 415.7,424.9 420.8,424.9 425.9,424.8 431.0,424.7 436.2,424.6 441.3,424.4 446.4,424.3 451.5,424.1 456.6,423.9 461.7,423.7 466.9,423.4 472.0,423.2 477.1,422.9 482.2,422.6 487.3,422.2 492.5,421.9 497.6,421.6 502.7,421.2 507.8,420.8 512.9,420.4 518.1,420.0 523.2,419.6 528.3,419.2 533.4,418.8 538.5,418.3 543.6,417.9 548.8,417.4 553.9,417.0 559.0,416.6" /><polyline points="257.0,425.8 262.1,426.4 267.2,426.9 272.4,427.4 277.5,428.0 282.6,428.5 287.7,429.0 292.8,429.5 297.9,430.0 303.1,430.5 308.2,431.0 313.3,431.4 318.4,431.9 323.5,432.3 328.7,432.7 333.8,433.1 338.9,433.4 344.0,433.8 349.1,434.1 354.3,434.4 359.4,434.7 364.5,434.9 369.6,435.2 374.7,435.4 379.8,435.5 385.0,435.7 390.1,435.8 395.2,435.9 400.3,435.9 405.4,436.0 410.6,436.0 415.7,435.9 420.8,435.9 425.9,435.8 431.0,435.7 436.2,435.5 441.3,435.4 446.4,435.2 451.5,434.9 456.6,434.7 461.7,434.4 466.9,434.1 472.0,433.8 477.1,433.4 482.2,433.1 487.3,432.7 492.5,432.3 497.6,431.9 502.7,431.4 507.8,431.0 512.9,430.5 518.1,430.0 523.2,429.5 528.3,429.0 533.4,428.5 538.5,428.0 543.6,427.4 548.8,426.9 553.9,426.4 559.0,425.8" /><polyline points="257.0,435.1 262.1,435.7 267.2,436.4 272.4,437.0 277.5,437.6 282.6,438.2 287.7,438.9 292.8,439.5 297.9,440.1 303.1,440.6 308.2,441.2 313.3,441.7 318.4,442.3 323.5,442.8 328.7,443.3 333.8,443.7 338.9,444.2 344.0,444.6 349.1,445.0 354.3,445.3 359.4,445.6 364.5,445.9 369.6,446.2 374.7,446.4 379.8,446.6 385.0,446.8 390.1,446.9 395.2,447.0 400.3,447.1 405.4,447.1 410.6,447.1 415.7,447.1 420.8,447.0 425.9,446.9 431.0,446.8 436.2,446.6 441.3,446.4 446.4,446.2 451.5,445.9 456.6,445.6 461.7,445.3 466.9,445.0 472.0,444.6 477.1,444.2 482.2,443.7 487.3,443.3 492.5,442.8 497.6,442.3 502.7,441.7 507.8,441.2 512.9,440.6 518.1,440.1 523.2,439.5 528.3,438.9 533.4,438.2 538.5,437.6 543.6,437.0 548.8,436.4 553.9,435.7 559.0,435.1" /><polyline points="257.0,444.3 262.1,445.1 267.2,445.8 272.4,446.6 277.5,447.3 282.6,448.1 287.7,448.8 292.8,449.5 297.9,450.2 303.1,450.9 308.2,451.5 313.3,452.2 318.4,452.8 323.5,453.4 328.7,453.9 333.8,454.5 338.9,455.0 344.0,455.5 349.1,455.9 354.3,456.3 359.4,456.7 364.5,457.1 369.6,457.4 374.7,457.7 379.8,457.9 385.0,458.1 390.1,458.3 395.2,458.4 400.3,458.5 405.4,458.5 410.6,458.5 415.7,458.5 420.8,458.4 425.9,458.3 431.0,458.1 436.2,457.9 441.3,457.7 446.4,457.4 451.5,457.1 456.6,456.7 461.7,456.3 466.9,455.9 472.0,455.5 477.1,455.0 482.2,454.5 487.3,453.9 492.5,453.4 497.6,452.8 502.7,452.2 507.8,451.5 512.9,450.9 518.1,450.2 523.2,449.5 528.3,448.8 533.4,448.1 538.5,447.3 543.6,446.6 548.8,445.8 553.9,445.1 559.0,444.3" /><polyline points="257.0,453.6 262.1,454.5 267.2,455.3 272.4,456.2 277.5,457.1 282.6,457.9 287.7,458.7 292.8,459.6 297.9,460.4 303.1,461.2 308.2,461.9 313.3,462.7 318.4,463.4 323.5,464.1 328.7,464.7 333.8,465.4 338.9,465.9 344.0,466.5 349.1,467.0 354.3,467.5 359.4,468.0 364.5,468.4 369.6,468.7 374.7,469.0 379.8,469.3 385.0,469.5 390.1,469.7 395.2,469.9 400.3,470.0 405.4,470.0 410.6,470.0 415.7,470.0 420.8,469.9 425.9,469.7 431.0,469.5 436.2,469.3 441.3,469.0 446.4,468.7 451.5,468.4 456.6,468.0 461.7,467.5 466.9,467.0 472.0,466.5 477.1,465.9 482.2,465.4 487.3,464.7 492.5,464.1 497.6,463.4 502.7,462.7 507.8,461.9 512.9,461.2 518.1,460.4 523.2,459.6 528.3,458.7 533.4,457.9 538.5,457.1 543.6,456.2 548.8,455.3 553.9,454.5 559.0,453.6" /><polyline points="257.0,462.8 262.1,463.8 267.2,464.8 272.4,465.8 277.5,466.8 282.6,467.8 287.7,468.8 292.8,469.7 297.9,470.6 303.1,471.5 308.2,472.4 313.3,473.3 318.4,474.1 323.5,474.9 328.7,475.6 333.8,476.4 338.9,477.0 344.0,477.7 349.1,478.3 354.3,478.8 359.4,479.3 364.5,479.8 369.6,480.2 374.7,480.6 379.8,480.9 385.0,481.2 390.1,481.4 395.2,481.5 400.3,481.6 405.4,481.7 410.6,481.7 415.7,481.6 420.8,481.5 425.9,481.4 431.0,481.2 436.2,480.9 441.3,480.6 446.4,480.2 451.5,479.8 456.6,479.3 461.7,478.8 466.9,478.3 472.0,477.7 477.1,477.0 482.2,476.4 487.3,475.6 492.5,474.9 497.6,474.1 502.7,473.3 507.8,472.4 512.9,471.5 518.1,470.6 523.2,469.7 528.3,468.8 533.4,467.8 538.5,466.8 543.6,465.8 548.8,464.8 553.9,463.8 559.0,462.8" /><polyline points="257.0,472.1 262.1,473.2 267.2,474.4 272.4,475.5 277.5,476.6 282.6,477.7 287.7,478.8 292.8,479.9 297.9,481.0 303.1,482.0 308.2,483.0 313.3,484.0 318.4,484.9 323.5,485.8 328.7,486.7 333.8,487.5 338.9,488.2 344.0,489.0 349.1,489.7 354.3,490.3 359.4,490.9 364.5,491.4 369.6,491.9 374.7,492.3 379.8,492.6 385.0,492.9 390.1,493.2 395.2,493.4 400.3,493.5 405.4,493.6 410.6,493.6 415.7,493.5 420.8,493.4 425.9,493.2 431.0,492.9 436.2,492.6 441.3,492.3 446.4,491.9 451.5,491.4 456.6,490.9 461.7,490.3 466.9,489.7 472.0,489.0 477.1,488.2 482.2,487.5 487.3,486.7 492.5,485.8 497.6,484.9 502.7,484.0 507.8,483.0 512.9,482.0 518.1,481.0 523.2,479.9 528.3,478.8 533.4,477.7 538.5,476.6 543.6,475.5 548.8,474.4 553.9,473.2 559.0,472.1" /><polyline points="257.0,481.3 262.1,482.6 267.2,483.9 272.4,485.2 277.5,486.5 282.6,487.7 287.7,489.0 292.8,490.2 297.9,491.4 303.1,492.5 308.2,493.7 313.3,494.7 318.4,495.8 323.5,496.8 328.7,497.8 333.8,498.7 338.9,499.6 344.0,500.4 349.1,501.2 354.3,501.9 359.4,502.5 364.5,503.1 369.6,503.7 374.7,504.1 379.8,504.5 385.0,504.9 390.1,505.2 395.2,505.4 400.3,505.5 405.4,505.6 410.6,505.6 415.7,505.5 420.8,505.4 425.9,505.2 431.0,504.9 436.2,504.5 441.3,504.1 446.4,503.7 451.5,503.1 456.6,502.5 461.7,501.9 466.9,501.2 472.0,500.4 477.1,499.6 482.2,498.7 487.3,497.8 492.5,496.8 497.6,495.8 502.7,494.7 507.8,493.7 512.9,492.5 518.1,491.4 523.2,490.2 528.3,489.0 533.4,487.7 538.5,486.5 543.6,485.2 548.8,483.9 553.9,482.6 559.0,481.3" /><polyline points="257.0,490.6 262.1,492.1 267.2,493.5 272.4,494.9 277.5,496.3 282.6,497.8 287.7,499.1 292.8,500.5 297.9,501.8 303.1,503.1 308.2,504.4 313.3,505.6 318.4,506.8 323.5,507.9 328.7,509.0 333.8,510.1 338.9,511.1 344.0,512.0 349.1,512.8 354.3,513.6 359.4,514.4 364.5,515.0 369.6,515.6 374.7,516.2 379.8,516.6 385.0,517.0 390.1,517.3 395.2,517.5 400.3,517.7 405.4,517.8 410.6,517.8 415.7,517.7 420.8,517.5 425.9,517.3 431.0,517.0 436.2,516.6 441.3,516.2 446.4,515.6 451.5,515.0 456.6,514.4 461.7,513.6 466.9,512.8 472.0,512.0 477.1,511.1 482.2,510.1 487.3,509.0 492.5,507.9 497.6,506.8 502.7,505.6 507.8,504.4 512.9,503.1 518.1,501.8 523.2,500.5 528.3,499.1 533.4,497.8 538.5,496.3 543.6,494.9 548.8,493.5 553.9,492.1 559.0,490.6" /><polyline points="257.0,499.9 262.1,501.5 267.2,503.1 272.4,504.7 277.5,506.3 282.6,507.8 287.7,509.4 292.8,510.9 297.9,512.4 303.1,513.8 308.2,515.2 313.3,516.6 318.4,517.9 323.5,519.2 328.7,520.4 333.8,521.5 338.9,522.6 344.0,523.7 349.1,524.6 354.3,525.5 359.4,526.3 364.5,527.1 369.6,527.7 374.7,528.3 379.8,528.8 385.0,529.3 390.1,529.6 395.2,529.9 400.3,530.0 405.4,530.1 410.6,530.1 415.7,530.0 420.8,529.9 425.9,529.6 431.0,529.3 436.2,528.8 441.3,528.3 446.4,527.7 451.5,527.1 456.6,526.3 461.7,525.5 466.9,524.6 472.0,523.7 477.1,522.6 482.2,521.5 487.3,520.4 492.5,519.2 497.6,517.9 502.7,516.6 507.8,515.2 512.9,513.8 518.1,512.4 523.2,510.9 528.3,509.4 533.4,507.8 538.5,506.3 543.6,504.7 548.8,503.1 553.9,501.5 559.0,499.9" /><polyline points="257.0,509.1 262.1,510.9 267.2,512.7 272.4,514.5 277.5,516.2 282.6,517.9 287.7,519.7 292.8,521.3 297.9,523.0 303.1,524.6 308.2,526.1 313.3,527.7 318.4,529.1 323.5,530.5 328.7,531.9 333.8,533.1 338.9,534.4 344.0,535.5 349.1,536.6 354.3,537.5 359.4,538.5 364.5,539.3 369.6,540.0 374.7,540.7 379.8,541.2 385.0,541.7 390.1,542.1 395.2,542.4 400.3,542.5 405.4,542.6 410.6,542.6 415.7,542.5 420.8,542.4 425.9,542.1 431.0,541.7 436.2,541.2 441.3,540.7 446.4,540.0 451.5,539.3 456.6,538.5 461.7,537.5 466.9,536.6 472.0,535.5 477.1,534.4 482.2,533.1 487.3,531.9 492.5,530.5 497.6,529.1 502.7,527.7 507.8,526.1 512.9,524.6 518.1,523.0 523.2,521.3 528.3,519.7 533.4,517.9 538.5,516.2 543.6,514.5 548.8,512.7 553.9,510.9 559.0,509.1" /><polyline points="257.0,518.4 262.1,520.3 267.2,522.3 272.4,524.3 277.5,526.2 282.6,528.1 287.7,530.0 292.8,531.8 297.9,533.7 303.1,535.4 308.2,537.1 313.3,538.8 318.4,540.4 323.5,542.0 328.7,543.5 333.8,544.9 338.9,546.2 344.0,547.5 349.1,548.6 354.3,549.7 359.4,550.7 364.5,551.6 369.6,552.4 374.7,553.2 379.8,553.8 385.0,554.3 390.1,554.7 395.2,555.0 400.3,555.2 405.4,555.3 410.6,555.3 415.7,555.2 420.8,555.0 425.9,554.7 431.0,554.3 436.2,553.8 441.3,553.2 446.4,552.4 451.5,551.6 456.6,550.7 461.7,549.7 466.9,548.6 472.0,547.5 477.1,546.2 482.2,544.9 487.3,543.5 492.5,542.0 497.6,540.4 502.7,538.8 507.8,537.1 512.9,535.4 518.1,533.7 523.2,531.8 528.3,530.0 533.4,528.1 538.5,526.2 543.6,524.3 548.8,522.3 553.9,520.3 559.0,518.4" /><polyline points="257.0,527.6 262.1,529.8 267.2,531.9 272.4,534.1 277.5,536.2 282.6,538.3 287.7,540.4 292.8,542.4 297.9,544.4 303.1,546.3 308.2,548.2 313.3,550.1 318.4,551.8 323.5,553.5 328.7,555.2 333.8,556.7 338.9,558.2 344.0,559.5 349.1,560.8 354.3,562.0 359.4,563.1 364.5,564.1 369.6,565.0 374.7,565.8 379.8,566.5 385.0,567.1 390.1,567.5 395.2,567.9 400.3,568.1 405.4,568.2 410.6,568.2 415.7,568.1 420.8,567.9 425.9,567.5 431.0,567.1 436.2,566.5 441.3,565.8 446.4,565.0 451.5,564.1 456.6,563.1 461.7,562.0 466.9,560.8 472.0,559.5 477.1,558.2 482.2,556.7 487.3,555.2 492.5,553.5 497.6,551.8 502.7,550.1 507.8,548.2 512.9,546.3 518.1,544.4 523.2,542.4 528.3,540.4 533.4,538.3 538.5,536.2 543.6,534.1 548.8,531.9 553.9,529.8 559.0,527.6" /><polyline points="257.0,536.9 262.1,539.2 267.2,541.6 272.4,543.9 277.5,546.3 282.6,548.6 287.7,550.8 292.8,553.0 297.9,555.2 303.1,557.3 308.2,559.4 313.3,561.4 318.4,563.3 323.5,565.2 328.7,567.0 333.8,568.7 338.9,570.3 344.0,571.8 349.1,573.2 354.3,574.5 359.4,575.7 364.5,576.8 369.6,577.8 374.7,578.6 379.8,579.4 385.0,580.0 390.1,580.5 395.2,580.8 400.3,581.1 405.4,581.2 410.6,581.2 415.7,581.1 420.8,580.8 425.9,580.5 431.0,580.0 436.2,579.4 441.3,578.6 446.4,577.8 451.5,576.8 456.6,575.7 461.7,574.5 466.9,573.2 472.0,571.8 477.1,570.3 482.2,568.7 487.3,567.0 492.5,565.2 497.6,563.3 502.7,561.4 507.8,559.4 512.9,557.3 518.1,555.2 523.2,553.0 528.3,550.8 533.4,548.6 538.5,546.3 543.6,543.9 548.8,541.6 553.9,539.2 559.0,536.9" /><polyline points="257.0,546.1 262.1,548.7 267.2,551.3 272.4,553.8 277.5,556.3 282.6,558.8 287.7,561.3 292.8,563.7 297.9,566.1 303.1,568.4 308.2,570.7 313.3,572.8 318.4,574.9 323.5,577.0 328.7,578.9 333.8,580.7 338.9,582.5 344.0,584.1 349.1,585.7 354.3,587.1 359.4,588.4 364.5,589.6 369.6,590.6 374.7,591.6 379.8,592.4 385.0,593.1 390.1,593.6 395.2,594.0 400.3,594.3 405.4,594.4 410.6,594.4 415.7,594.3 420.8,594.0 425.9,593.6 431.0,593.1 436.2,592.4 441.3,591.6 446.4,590.6 451.5,589.6 456.6,588.4 461.7,587.1 466.9,585.7 472.0,584.1 477.1,582.5 482.2,580.7 487.3,578.9 492.5,577.0 497.6,574.9 502.7,572.8 507.8,570.7 512.9,568.4 518.1,566.1 523.2,563.7 528.3,561.3 533.4,558.8 538.5,556.3 543.6,553.8 548.8,551.3 553.9,548.7 559.0,546.1" /><polyline points="257.0,555.4 262.1,558.2 267.2,561.0 272.4,563.7 277.5,566.5 282.6,569.2 287.7,571.9 292.8,574.5 297.9,577.1 303.1,579.6 308.2,582.0 313.3,584.4 318.4,586.6 323.5,588.8 328.7,590.9 333.8,592.9 338.9,594.8 344.0,596.6 349.1,598.3 354.3,599.8 359.4,601.2 364.5,602.5 369.6,603.7 374.7,604.7 379.8,605.6 385.0,606.3 390.1,606.9 395.2,607.3 400.3,607.6 405.4,607.8 410.6,607.8 415.7,607.6 420.8,607.3 425.9,606.9 431.0,606.3 436.2,605.6 441.3,604.7 446.4,603.7 451.5,602.5 456.6,601.2 461.7,599.8 466.9,598.3 472.0,596.6 477.1,594.8 482.2,592.9 487.3,590.9 492.5,588.8 497.6,586.6 502.7,584.4 507.8,582.0 512.9,579.6 518.1,577.1 523.2,574.5 528.3,571.9 533.4,569.2 538.5,566.5 543.6,563.7 548.8,561.0 553.9,558.2 559.0,555.4" /><polyline points="257.0,564.7 262.1,567.7 267.2,570.7 272.4,573.7 277.5,576.6 282.6,579.6 287.7,582.5 292.8,585.3 297.9,588.1 303.1,590.8 308.2,593.4 313.3,596.0 318.4,598.5 323.5,600.8 328.7,603.1 333.8,605.3 338.9,607.3 344.0,609.2 349.1,611.0 354.3,612.7 359.4,614.2 364.5,615.6 369.6,616.9 374.7,618.0 379.8,618.9 385.0,619.7 390.1,620.4 395.2,620.8 400.3,621.2 405.4,621.3 410.6,621.3 415.7,621.2 420.8,620.8 425.9,620.4 431.0,619.7 436.2,618.9 441.3,618.0 446.4,616.9 451.5,615.6 456.6,614.2 461.7,612.7 466.9,611.0 472.0,609.2 477.1,607.3 482.2,605.3 487.3,603.1 492.5,600.8 497.6,598.5 502.7,596.0 507.8,593.4 512.9,590.8 518.1,588.1 523.2,585.3 528.3,582.5 533.4,579.6 538.5,576.6 543.6,573.7 548.8,570.7 553.9,567.7 559.0,564.7" /><polyline points="257.0,573.9 262.1,577.2 267.2,580.4 272.4,583.6 277.5,586.8 282.6,590.0 287.7,593.1 292.8,596.2 297.9,599.2 303.1,602.1 308.2,604.9 313.3,607.7 318.4,610.4 323.5,612.9 328.7,615.4 333.8,617.7 338.9,619.9 344.0,622.0 349.1,623.9 354.3,625.7 359.4,627.4 364.5,628.9 369.6,630.2 374.7,631.4 379.8,632.4 385.0,633.3 390.1,634.0 395.2,634.5 400.3,634.8 405.4,635.0 410.6,635.0 415.7,634.8 420.8,634.5 425.9,634.0 431.0,633.3 436.2,632.4 441.3,631.4 446.4,630.2 451.5,628.9 456.6,627.4 461.7,625.7 466.9,623.9 472.0,622.0 477.1,619.9 482.2,617.7 487.3,615.4 492.5,612.9 497.6,610.4 502.7,607.7 507.8,604.9 512.9,602.1 518.1,599.2 523.2,596.2 528.3,593.1 533.4,590.0 538.5,586.8 543.6,583.6 548.8,580.4 553.9,577.2 559.0,573.9" /><polyline points="257.0,583.2 262.1,586.7 267.2,590.2 272.4,593.6 277.5,597.1 282.6,600.5 287.7,603.8 292.8,607.1 297.9,610.3 303.1,613.5 308.2,616.5 313.3,619.5 318.4,622.4 323.5,625.1 328.7,627.8 333.8,630.3 338.9,632.6 344.0,634.9 349.1,637.0 354.3,638.9 359.4,640.7 364.5,642.3 369.6,643.7 374.7,645.0 379.8,646.1 385.0,647.0 390.1,647.8 395.2,648.3 400.3,648.7 405.4,648.9 410.6,648.9 415.7,648.7 420.8,648.3 425.9,647.8 431.0,647.0 436.2,646.1 441.3,645.0 446.4,643.7 451.5,642.3 456.6,640.7 461.7,638.9 466.9,637.0 472.0,634.9 477.1,632.6 482.2,630.3 487.3,627.8 492.5,625.1 497.6,622.4 502.7,619.5 507.8,616.5 512.9,613.5 518.1,610.3 523.2,607.1 528.3,603.8 533.4,600.5 538.5,597.1 543.6,593.6 548.8,590.2 553.9,586.7 559.0,583.2" /><polyline points="257.0,638.7 262.1,643.9 267.2,649.0 272.4,654.1 277.5,659.2 282.6,664.2 287.7,669.1 292.8,674.0 297.9,678.8 303.1,683.4 308.2,687.9 313.3,692.3 318.4,696.5 323.5,700.6 328.7,704.4 333.8,708.1 338.9,711.6 344.0,714.9 349.1,718.0 354.3,720.9 359.4,723.5 364.5,725.9 369.6,727.0 374.7,727.0 379.8,727.0 385.0,727.0 390.1,727.0 395.2,727.0 400.3,727.0 405.4,727.0 410.6,727.0 415.7,727.0 420.8,727.0 425.9,727.0 431.0,727.0 436.2,727.0 441.3,727.0 446.4,727.0 451.5,725.9 456.6,723.5 461.7,720.9 466.9,718.0 472.0,714.9 477.1,711.6 482.2,708.1 487.3,704.4 492.5,700.6 497.6,696.5 502.7,692.3 507.8,687.9 512.9,683.4 518.1,678.8 523.2,674.0 528.3,669.1 533.4,664.2 538.5,659.2 543.6,654.1 548.8,649.0 553.9,643.9 559.0,638.7" /><polyline points="257.0,648.0 262.1,653.4 267.2,658.9 272.4,664.3 277.5,669.7 282.6,675.0 287.7,680.2 292.8,685.4 297.9,690.4 303.1,695.3 308.2,700.1 313.3,704.7 318.4,709.2 323.5,713.5 328.7,717.6 333.8,721.5 338.9,725.3 344.0,727.0 349.1,727.0 354.3,727.0 359.4,727.0 364.5,727.0 369.6,727.0 374.7,727.0 379.8,727.0 385.0,727.0 390.1,727.0 395.2,727.0 400.3,727.0 405.4,727.0 410.6,727.0 415.7,727.0 420.8,727.0 425.9,727.0 431.0,727.0 436.2,727.0 441.3,727.0 446.4,727.0 451.5,727.0 456.6,727.0 461.7,727.0 466.9,727.0 472.0,727.0 477.1,725.3 482.2,721.5 487.3,717.6 492.5,713.5 497.6,709.2 502.7,704.7 507.8,700.1 512.9,695.3 518.1,690.4 523.2,685.4 528.3,680.2 533.4,675.0 538.5,669.7 543.6,664.3 548.8,658.9 553.9,653.4 559.0,648.0" /><polyline points="257.0,657.2 262.1,663.0 267.2,668.8 272.4,674.5 277.5,680.2 282.6,685.8 287.7,691.3 292.8,696.8 297.9,702.1 303.1,707.3 308.2,712.4 313.3,717.3 318.4,722.0 323.5,726.6 328.7,727.0 333.8,727.0 338.9,727.0 344.0,727.0 349.1,727.0 354.3,727.0 359.4,727.0 364.5,727.0 369.6,727.0 374.7,727.0 379.8,727.0 385.0,727.0 390.1,727.0 395.2,727.0 400.3,727.0 405.4,727.0 410.6,727.0 415.7,727.0 420.8,727.0 425.9,727.0 431.0,727.0 436.2,727.0 441.3,727.0 446.4,727.0 451.5,727.0 456.6,727.0 461.7,727.0 466.9,727.0 472.0,727.0 477.1,727.0 482.2,727.0 487.3,727.0 492.5,726.6 497.6,722.0 502.7,717.3 507.8,712.4 512.9,707.3 518.1,702.1 523.2,696.8 528.3,691.3 533.4,685.8 538.5,680.2 543.6,674.5 548.8,668.8 553.9,663.0 559.0,657.2" /><polyline points="257.0,666.5 262.1,672.6 267.2,678.7 272.4,684.7 277.5,690.7 282.6,696.7 287.7,702.5 292.8,708.3 297.9,713.9 303.1,719.4 308.2,724.7 313.3,727.0 318.4,727.0 323.5,727.0 328.7,727.0 333.8,727.0 338.9,727.0 344.0,727.0 349.1,727.0 354.3,727.0 359.4,727.0 364.5,727.0 369.6,727.0 374.7,727.0 379.8,727.0 385.0,727.0 390.1,727.0 395.2,727.0 400.3,727.0 405.4,727.0 410.6,727.0 415.7,727.0 420.8,727.0 425.9,727.0 431.0,727.0 436.2,727.0 441.3,727.0 446.4,727.0 451.5,727.0 456.6,727.0 461.7,727.0 466.9,727.0 472.0,727.0 477.1,727.0 482.2,727.0 487.3,727.0 492.5,727.0 497.6,727.0 502.7,727.0 507.8,724.7 512.9,719.4 518.1,713.9 523.2,708.3 528.3,702.5 533.4,696.7 538.5,690.7 543.6,684.7 548.8,678.7 553.9,672.6 559.0,666.5" /><polyline points="257.0,675.7 262.1,682.2 267.2,688.6 272.4,695.0 277.5,701.3 282.6,707.6 287.7,713.7 292.8,719.8 297.9,725.8 303.1,727.0 308.2,727.0 313.3,727.0 318.4,727.0 323.5,727.0 328.7,727.0 333.8,727.0 338.9,727.0 344.0,727.0 349.1,727.0 354.3,727.0 359.4,727.0 364.5,727.0 369.6,727.0 374.7,727.0 379.8,727.0 385.0,727.0 390.1,727.0 395.2,727.0 400.3,727.0 405.4,727.0 410.6,727.0 415.7,727.0 420.8,727.0 425.9,727.0 431.0,727.0 436.2,727.0 441.3,727.0 446.4,727.0 451.5,727.0 456.6,727.0 461.7,727.0 466.9,727.0 472.0,727.0 477.1,727.0 482.2,727.0 487.3,727.0 492.5,727.0 497.6,727.0 502.7,727.0 507.8,727.0 512.9,727.0 518.1,725.8 523.2,719.8 528.3,713.7 533.4,707.6 538.5,701.3 543.6,695.0 548.8,688.6 553.9,682.2 559.0,675.7" /><polyline points="257.0,685.0 262.1,691.8 267.2,698.5 272.4,705.3 277.5,711.9 282.6,718.5 287.7,725.0 292.8,727.0 297.9,727.0 303.1,727.0 308.2,727.0 313.3,727.0 318.4,727.0 323.5,727.0 328.7,727.0 333.8,727.0 338.9,727.0 344.0,727.0 349.1,727.0 354.3,727.0 359.4,727.0 364.5,727.0 369.6,727.0 374.7,727.0 379.8,727.0 385.0,727.0 390.1,727.0 395.2,727.0 400.3,727.0 405.4,727.0 410.6,727.0 415.7,727.0 420.8,727.0 425.9,727.0 431.0,727.0 436.2,727.0 441.3,727.0 446.4,727.0 451.5,727.0 456.6,727.0 461.7,727.0 466.9,727.0 472.0,727.0 477.1,727.0 482.2,727.0 487.3,727.0 492.5,727.0 497.6,727.0 502.7,727.0 507.8,727.0 512.9,727.0 518.1,727.0 523.2,727.0 528.3,725.0 533.4,718.5 538.5,711.9 543.6,705.3 548.8,698.5 553.9,691.8 559.0,685.0" /><polyline points="257.0,694.2 262.1,701.4 267.2,708.5 272.4,715.6 277.5,722.6 282.6,727.0 287.7,727.0 292.8,727.0 297.9,727.0 303.1,727.0 308.2,727.0 313.3,727.0 318.4,727.0 323.5,727.0 328.7,727.0 333.8,727.0 338.9,727.0 344.0,727.0 349.1,727.0 354.3,727.0 359.4,727.0 364.5,727.0 369.6,727.0 374.7,727.0 379.8,727.0 385.0,727.0 390.1,727.0 395.2,727.0 400.3,727.0 405.4,727.0 410.6,727.0 415.7,727.0 420.8,727.0 425.9,727.0 431.0,727.0 436.2,727.0 441.3,727.0 446.4,727.0 451.5,727.0 456.6,727.0 461.7,727.0 466.9,727.0 472.0,727.0 477.1,727.0 482.2,727.0 487.3,727.0 492.5,727.0 497.6,727.0 502.7,727.0 507.8,727.0 512.9,727.0 518.1,727.0 523.2,727.0 528.3,727.0 533.4,727.0 538.5,722.6 543.6,715.6 548.8,708.5 553.9,701.4 559.0,694.2" /><polyline points="257.0,703.5 262.1,711.0 267.2,718.5 272.4,725.9 277.5,727.0 282.6,727.0 287.7,727.0 292.8,727.0 297.9,727.0 303.1,727.0 308.2,727.0 313.3,727.0 318.4,727.0 323.5,727.0 328.7,727.0 333.8,727.0 338.9,727.0 344.0,727.0 349.1,727.0 354.3,727.0 359.4,727.0 364.5,727.0 369.6,727.0 374.7,727.0 379.8,727.0 385.0,727.0 390.1,727.0 395.2,727.0 400.3,727.0 405.4,727.0 410.6,727.0 415.7,727.0 420.8,727.0 425.9,727.0 431.0,727.0 436.2,727.0 441.3,727.0 446.4,727.0 451.5,727.0 456.6,727.0 461.7,727.0 466.9,727.0 472.0,727.0 477.1,727.0 482.2,727.0 487.3,727.0 492.5,727.0 497.6,727.0 502.7,727.0 507.8,727.0 512.9,727.0 518.1,727.0 523.2,727.0 528.3,727.0 533.4,727.0 538.5,727.0 543.6,725.9 548.8,718.5 553.9,711.0 559.0,703.5" /><polyline points="257.0,712.7 262.1,720.6 267.2,727.0 272.4,727.0 277.5,727.0 282.6,727.0 287.7,727.0 292.8,727.0 297.9,727.0 303.1,727.0 308.2,727.0 313.3,727.0 318.4,727.0 323.5,727.0 328.7,727.0 333.8,727.0 338.9,727.0 344.0,727.0 349.1,727.0 354.3,727.0 359.4,727.0 364.5,727.0 369.6,727.0 374.7,727.0 379.8,727.0 385.0,727.0 390.1,727.0 395.2,727.0 400.3,727.0 405.4,727.0 410.6,727.0 415.7,727.0 420.8,727.0 425.9,727.0 431.0,727.0 436.2,727.0 441.3,727.0 446.4,727.0 451.5,727.0 456.6,727.0 461.7,727.0 466.9,727.0 472.0,727.0 477.1,727.0 482.2,727.0 487.3,727.0 492.5,727.0 497.6,727.0 502.7,727.0 507.8,727.0 512.9,727.0 518.1,727.0 523.2,727.0 528.3,727.0 533.4,727.0 538.5,727.0 543.6,727.0 548.8,727.0 553.9,720.6 559.0,712.7" /><polyline points="257.0,722.0 262.1,727.0 267.2,727.0 272.4,727.0 277.5,727.0 282.6,727.0 287.7,727.0 292.8,727.0 297.9,727.0 303.1,727.0 308.2,727.0 313.3,727.0 318.4,727.0 323.5,727.0 328.7,727.0 333.8,727.0 338.9,727.0 344.0,727.0 349.1,727.0 354.3,727.0 359.4,727.0 364.5,727.0 369.6,727.0 374.7,727.0 379.8,727.0 385.0,727.0 390.1,727.0 395.2,727.0 400.3,727.0 405.4,727.0 410.6,727.0 415.7,727.0 420.8,727.0 425.9,727.0 431.0,727.0 436.2,727.0 441.3,727.0 446.4,727.0 451.5,727.0 456.6,727.0 461.7,727.0 466.9,727.0 472.0,727.0 477.1,727.0 482.2,727.0 487.3,727.0 492.5,727.0 497.6,727.0 502.7,727.0 507.8,727.0 512.9,727.0 518.1,727.0 523.2,727.0 528.3,727.0 533.4,727.0 538.5,727.0 543.6,727.0 548.8,727.0 553.9,727.0 559.0,722.0" /></g><g id="03_Gold_Tension" inkscape:groupmode="layer" inkscape:label="03_Gold_Tension" stroke="#B8960C" fill="none" stroke-width="1.12" stroke-linecap="round" stroke-linejoin="round"><polyline points="257.0,592.4 262.1,596.2 267.2,599.9 272.4,603.6 277.5,607.3 282.6,611.0 287.7,614.6 292.8,618.1 297.9,621.6 303.1,624.9 308.2,628.2 313.3,631.4 318.4,634.5 323.5,637.4 328.7,640.3 333.8,642.9 338.9,645.5 344.0,647.9 349.1,650.1 354.3,652.2 359.4,654.1 364.5,655.8 369.6,657.4 374.7,658.8 379.8,659.9 385.0,660.9 390.1,661.7 395.2,662.3 400.3,662.7 405.4,662.9 410.6,662.9 415.7,662.7 420.8,662.3 425.9,661.7 431.0,660.9 436.2,659.9 441.3,658.8 446.4,657.4 451.5,655.8 456.6,654.1 461.7,652.2 466.9,650.1 472.0,647.9 477.1,645.5 482.2,642.9 487.3,640.3 492.5,637.4 497.6,634.5 502.7,631.4 507.8,628.2 512.9,624.9 518.1,621.6 523.2,618.1 528.3,614.6 533.4,611.0 538.5,607.3 543.6,603.6 548.8,599.9 553.9,596.2 559.0,592.4" /><polyline points="257.0,601.7 262.1,605.7 267.2,609.7 272.4,613.7 277.5,617.6 282.6,621.5 287.7,625.4 292.8,629.2 297.9,632.9 303.1,636.5 308.2,640.0 313.3,643.4 318.4,646.7 323.5,649.8 328.7,652.9 333.8,655.7 338.9,658.5 344.0,661.0 349.1,663.4 354.3,665.6 359.4,667.7 364.5,669.5 369.6,671.2 374.7,672.7 379.8,673.9 385.0,675.0 390.1,675.8 395.2,676.5 400.3,676.9 405.4,677.1 410.6,677.1 415.7,676.9 420.8,676.5 425.9,675.8 431.0,675.0 436.2,673.9 441.3,672.7 446.4,671.2 451.5,669.5 456.6,667.7 461.7,665.6 466.9,663.4 472.0,661.0 477.1,658.5 482.2,655.7 487.3,652.9 492.5,649.8 497.6,646.7 502.7,643.4 507.8,640.0 512.9,636.5 518.1,632.9 523.2,629.2 528.3,625.4 533.4,621.5 538.5,617.6 543.6,613.7 548.8,609.7 553.9,605.7 559.0,601.7" /><polyline points="257.0,610.9 262.1,615.2 267.2,619.5 272.4,623.7 277.5,628.0 282.6,632.1 287.7,636.2 292.8,640.3 297.9,644.2 303.1,648.1 308.2,651.8 313.3,655.5 318.4,659.0 323.5,662.4 328.7,665.6 333.8,668.7 338.9,671.6 344.0,674.3 349.1,676.9 354.3,679.2 359.4,681.4 364.5,683.4 369.6,685.2 374.7,686.7 379.8,688.1 385.0,689.2 390.1,690.1 395.2,690.8 400.3,691.3 405.4,691.5 410.6,691.5 415.7,691.3 420.8,690.8 425.9,690.1 431.0,689.2 436.2,688.1 441.3,686.7 446.4,685.2 451.5,683.4 456.6,681.4 461.7,679.2 466.9,676.9 472.0,674.3 477.1,671.6 482.2,668.7 487.3,665.6 492.5,662.4 497.6,659.0 502.7,655.5 507.8,651.8 512.9,648.1 518.1,644.2 523.2,640.3 528.3,636.2 533.4,632.1 538.5,628.0 543.6,623.7 548.8,619.5 553.9,615.2 559.0,610.9" /><polyline points="257.0,620.2 262.1,624.8 267.2,629.3 272.4,633.8 277.5,638.3 282.6,642.8 287.7,647.2 292.8,651.5 297.9,655.7 303.1,659.8 308.2,663.8 313.3,667.7 318.4,671.4 323.5,675.0 328.7,678.4 333.8,681.7 338.9,684.8 344.0,687.7 349.1,690.4 354.3,693.0 359.4,695.3 364.5,697.4 369.6,699.3 374.7,701.0 379.8,702.4 385.0,703.6 390.1,704.6 395.2,705.3 400.3,705.8 405.4,706.0 410.6,706.0 415.7,705.8 420.8,705.3 425.9,704.6 431.0,703.6 436.2,702.4 441.3,701.0 446.4,699.3 451.5,697.4 456.6,695.3 461.7,693.0 466.9,690.4 472.0,687.7 477.1,684.8 482.2,681.7 487.3,678.4 492.5,675.0 497.6,671.4 502.7,667.7 507.8,663.8 512.9,659.8 518.1,655.7 523.2,651.5 528.3,647.2 533.4,642.8 538.5,638.3 543.6,633.8 548.8,629.3 553.9,624.8 559.0,620.2" /><polyline points="257.0,629.4 262.1,634.3 267.2,639.1 272.4,644.0 277.5,648.7 282.6,653.5 287.7,658.1 292.8,662.7 297.9,667.2 303.1,671.5 308.2,675.8 313.3,679.9 318.4,683.9 323.5,687.7 328.7,691.4 333.8,694.9 338.9,698.2 344.0,701.3 349.1,704.2 354.3,706.9 359.4,709.3 364.5,711.6 369.6,713.6 374.7,715.3 379.8,716.9 385.0,718.1 390.1,719.2 395.2,719.9 400.3,720.5 405.4,720.7 410.6,720.7 415.7,720.5 420.8,719.9 425.9,719.2 431.0,718.1 436.2,716.9 441.3,715.3 446.4,713.6 451.5,711.6 456.6,709.3 461.7,706.9 466.9,704.2 472.0,701.3 477.1,698.2 482.2,694.9 487.3,691.4 492.5,687.7 497.6,683.9 502.7,679.9 507.8,675.8 512.9,671.5 518.1,667.2 523.2,662.7 528.3,658.1 533.4,653.5 538.5,648.7 543.6,644.0 548.8,639.1 553.9,634.3 559.0,629.4" /></g></svg>