<?xml version='1.0' encoding='utf-8'?>
<svg xmlns="http://www.w3.org/2000/svg" xmlns:inkscape="http://www.inkscape.org/namespaces/inkscape" viewBox="204 228 408 600"><style>*{vector-effect:non-scaling-stroke}</style><g id="01_Black_Frame" inkscape:groupmode="layer" inkscape:label="01_Black_Frame" stroke="#1A1A1A" fill="none" stroke-width="0.875" stroke-linecap="round" stroke-linejoin="round"><path d="M 250.0,264.0 L 566.0,264.0 Q 576.0,264.0 576.0,274.0 L 576.0,782.0 Q 576.0,792.0 566.0,792.0 L 250.0,792.0 Q 240.0,792.0 240.0,782.0 L 240.0,274.0 Q 240.0,264.0 250.0,264.0" /><path d="M 253.0,270.0 L 563.0,270.0 Q 570.0,270.0 570.0,277.0 L 570.0,779.0 Q 570.0,786.0 563.0,786.0 L 253.0,786.0 Q 246.0,786.0 246.0,779.0 L 246.0,277.0 Q 246.0,270.0 253.0,270.0" /><line x1="259.0" y1="280.0" x2="263.0" y2="280.0" /><line x1="258.1" y1="282.1" x2="260.9" y2="284.9" /><line x1="256.0" y1="283.0" x2="256.0" y2="287.0" /><line x1="253.9" y1="282.1" x2="251.1" y2="284.9" /><line x1="253.0" y1="280.0" x2="249.0" y2="280.0" /><line x1="253.9" y1="277.9" x2="251.1" y2="275.1" /><line x1="256.0" y1="277.0" x2="256.0" y2="273.0" /><line x1="258.1" y1="277.9" x2="260.9" y2="275.1" /><line x1="563.0" y1="280.0" x2="567.0" y2="280.0" /><line x1="562.1" y1="282.1" x2="564.9" y2="284.9" /><line x1="560.0" y1="283.0" x2="560.0" y2="287.0" /><line x1="557.9" y1="282.1" x2="555.1" y2="284.9" /><line x1="557.0" y1="280.0" x2="553.0" y2="280.0" /><line x1="557.9" y1="277.9" x2="555.1" y2="275.1" /><line x1="560.0" y1="277.0" x2="560.0" y2="273.0" /><line x1="562.1" y1="277.9" x2="564.9" y2="275.1" /><line x1="259.0" y1="776.0" x2="263.0" y2="776.0" /><line x1="258.1" y1="778.1" x2="260.9" y2="780.9" /><line x1="256.0" y1="779.0" x2="256.0" y2="783.0" /><line x1="253.9" y1="778.1" x2="251.1" y2="780.9" /><line x1="253.0" y1="776.0" x2="249.0" y2="776.0" /><line x1="253.9" y1="773.9" x2="251.1" y2="771.1" /><line x1="256.0" y1="773.0" x2="256.0" y2="769.0" /><line x1="258.1" y1="773.9" x2="260.9" y2="771.1" /><line x1="563.0" y1="776.0" x2="567.0" y2="776.0" /><line x1="562.1" y1="778.1" x2="564.9" y2="780.9" /><line x1="560.0" y1="779.0" x2="560.0" y2="783.0" /><line x1="557.9" y1="778.1" x2="555.1" y2="780.9" /><line x1="557.0" y1="776.0" x2="553.0" y2="776.0" /><line x1="557.9" y1="773.9" x2="555.1" y2="771.1" /><line x1="560.0" y1="773.0" x2="560.0" y2="769.0" /><line x1="562.1" y1="773.9" x2="564.9" y2="771.1" /><polyline points="398.12,283.20 396.38,282.00 395.38,282.00 393.62,283.60 393.62,288.40 395.38,290.00 396.38,290.00 398.12,288.80" /><polyline points="399.38,282.00 401.88,290.00 404.38,282.00" /><polyline points="407.62,282.00 407.62,290.00" /><polyline points="413.38,282.00 413.38,290.00" /><polyline points="419.12,282.00 419.12,290.00" /><polyline points="381.84,297.00 388.34,297.00" /><polyline points="385.09,297.00 385.09,307.00" /><polyline points="389.31,297.00 389.31,307.00" /><polyline points="395.81,297.00 395.81,307.00" /><polyline points="389.31,301.80 395.81,301.80" /><polyline points="402.31,297.00 396.79,297.00 396.79,301.80 400.69,301.80" /><polyline points="396.79,301.80 396.79,307.00 402.31,307.00" /><polyline points="411.74,297.00 411.74,307.00 417.26,307.00" /><polyline points="422.46,297.00 419.86,298.00 419.21,300.00 419.21,304.00 419.86,306.00 422.46,307.00 425.06,306.00 425.71,304.00 425.71,300.00 425.06,298.00 422.46,297.00" /><polyline points="426.69,297.00 433.19,297.00" /><polyline points="429.94,297.00 429.94,307.00" /><line x1="270.0" y1="312.0" x2="546.0" y2="312.0" /><line x1="270.0" y1="732.0" x2="546.0" y2="732.0" /><polyline points="374.19,740.75 376.99,740.75" /><polyline points="375.59,740.75 375.59,745.25" /><polyline points="378.81,740.75 378.81,745.25" /><polyline points="380.63,740.75 383.43,740.75" /><polyline points="382.03,740.75 382.03,745.25" /><polyline points="383.85,745.25 385.25,740.75 386.65,745.25" /><polyline points="384.35,743.67 386.15,743.67" /><polyline points="387.07,745.25 387.07,740.75 389.87,745.25 389.87,740.75" /><polyline points="391.69,740.75 391.69,745.25" /><polyline points="396.03,741.42 395.05,740.75 394.49,740.75 393.51,741.65 393.51,744.35 394.49,745.25 395.05,745.25 396.03,744.58" /><polyline points="403.17,740.75 403.17,745.25" /><polyline points="405.69,740.75 403.17,743.00 405.69,745.25" /><polyline points="406.39,740.75 407.79,743.00 409.19,740.75" /><polyline points="407.79,743.00 407.79,745.25" /><polyline points="411.01,740.75 411.01,745.25" /><polyline points="412.83,740.75 414.23,745.25 415.63,740.75" /><polyline points="422.49,745.25 422.49,740.75 424.31,740.75 424.87,741.29 424.87,742.01 424.31,742.55 422.49,742.55 424.31,742.55 424.87,743.09 424.87,744.71 424.31,745.25 422.49,745.25" /><polyline points="428.09,740.75 425.71,740.75 425.71,742.91 427.39,742.91" /><polyline points="425.71,742.91 425.71,745.25 428.09,745.25" /><polyline points="430.33,740.75 430.33,745.25" /><polyline points="432.15,745.25 432.15,740.75 433.97,740.75 434.67,741.42 434.67,742.19 433.97,742.77 432.15,742.77 434.67,745.25" /><polyline points="435.37,740.75 435.37,744.12 435.93,745.02 437.61,745.02 438.17,744.12 438.17,740.75" /><polyline points="438.59,740.75 441.39,740.75" /><polyline points="439.99,740.75 439.99,745.25" /><polyline points="321.75,753.25 326.75,753.25" /><polyline points="324.25,753.25 324.25,760.75" /><polyline points="327.50,753.25 327.50,760.75" /><polyline points="332.50,753.25 332.50,760.75" /><polyline points="327.50,756.85 332.50,756.85" /><polyline points="337.50,753.25 333.25,753.25 333.25,756.85 336.25,756.85" /><polyline points="333.25,756.85 333.25,760.75 337.50,760.75" /><polyline points="344.75,753.25 347.25,760.75 349.75,753.25" /><polyline points="354.75,753.25 350.50,753.25 350.50,756.85 353.50,756.85" /><polyline points="350.50,756.85 350.50,760.75 354.75,760.75" /><polyline points="360.50,754.00 359.25,753.25 357.75,753.25 356.50,754.38 356.25,755.50 357.00,756.40 358.75,757.00 360.50,757.60 361.25,758.50 361.00,759.62 359.75,760.75 358.00,760.75 356.75,760.00" /><polyline points="362.00,753.25 367.00,753.25" /><polyline points="364.50,753.25 364.50,760.75" /><polyline points="378.00,754.38 376.25,753.25 375.25,753.25 373.50,754.75 373.50,759.25 375.25,760.75 376.25,760.75 378.00,759.62" /><polyline points="381.75,753.25 379.75,754.00 379.25,755.50 379.25,758.50 379.75,760.00 381.75,760.75 383.75,760.00 384.25,758.50 384.25,755.50 383.75,754.00 381.75,753.25" /><polyline points="385.00,753.25 385.00,758.88 386.00,760.38 389.00,760.38 390.00,758.88 390.00,753.25" /><polyline points="390.75,753.25 390.75,760.75 395.00,760.75" /><polyline points="396.50,760.75 396.50,753.25 399.25,753.25 401.00,755.12 401.00,758.88 399.25,760.75 396.50,760.75" /><polyline points="408.00,760.75 408.00,753.25 413.00,760.75 413.00,753.25" /><polyline points="416.25,753.25 414.25,754.00 413.75,755.50 413.75,758.50 414.25,760.00 416.25,760.75 418.25,760.00 418.75,758.50 418.75,755.50 418.25,754.00 416.25,753.25" /><polyline points="419.50,753.25 424.50,753.25" /><polyline points="422.00,753.25 422.00,760.75" /><polyline points="431.00,753.25 431.00,760.75" /><polyline points="436.00,753.25 436.00,760.75" /><polyline points="431.00,756.85 436.00,756.85" /><polyline points="439.25,753.25 437.25,754.00 436.75,755.50 436.75,758.50 437.25,760.00 439.25,760.75 441.25,760.00 441.75,758.50 441.75,755.50 441.25,754.00 439.25,753.25" /><polyline points="442.50,753.25 442.50,760.75 446.75,760.75" /><polyline points="448.25,760.75 448.25,753.25 451.00,753.25 452.75,755.12 452.75,758.88 451.00,760.75 448.25,760.75" /><polyline points="459.75,753.25 459.75,760.75" /><polyline points="464.75,753.25 464.75,760.75" /><polyline points="459.75,756.85 464.75,756.85" /><polyline points="468.00,753.25 468.00,760.75" /><polyline points="471.25,760.75 471.25,753.25 473.75,757.38 476.25,753.25 476.25,760.75" /><polyline points="482.75,753.25 482.75,758.88 483.75,760.38 486.75,760.38 487.75,758.88 487.75,753.25" /><polyline points="488.50,760.75 488.50,753.25 491.75,753.25 493.00,754.38 493.00,755.65 491.75,756.62 488.50,756.62" /><polyline points="315.62,766.25 315.62,773.75" /><polyline points="318.88,766.25 323.88,766.25" /><polyline points="321.38,766.25 321.38,773.75" /><polyline points="330.38,766.25 330.38,773.75" /><polyline points="335.38,766.25 335.38,773.75" /><polyline points="330.38,769.85 335.38,769.85" /><polyline points="340.38,766.25 336.12,766.25 336.12,769.85 339.12,769.85" /><polyline points="336.12,769.85 336.12,773.75 340.38,773.75" /><polyline points="341.88,766.25 341.88,773.75 346.12,773.75" /><polyline points="347.62,773.75 347.62,766.25 350.38,766.25 352.12,768.12 352.12,771.88 350.38,773.75 347.62,773.75" /><polyline points="359.12,766.25 359.12,773.75" /><polyline points="364.12,766.25 364.12,773.75" /><polyline points="359.12,769.85 364.12,769.85" /><polyline points="367.38,766.25 367.38,773.75" /><polyline points="374.88,767.00 373.62,766.25 372.12,766.25 370.88,767.38 370.62,768.50 371.38,769.40 373.12,770.00 374.88,770.60 375.62,771.50 375.38,772.62 374.12,773.75 372.38,773.75 371.12,773.00" /><polyline points="382.12,773.75 382.12,766.25 387.12,773.75 387.12,766.25" /><polyline points="387.88,773.75 390.38,766.25 392.88,773.75" /><polyline points="388.77,771.12 391.98,771.12" /><polyline points="393.62,773.75 393.62,766.25 396.12,770.38 398.62,766.25 398.62,773.75" /><polyline points="403.62,766.25 399.38,766.25 399.38,769.85 402.38,769.85" /><polyline points="399.38,769.85 399.38,773.75 403.62,773.75" /><polyline points="410.88,773.75 413.38,766.25 415.88,773.75" /><polyline points="411.77,771.12 414.98,771.12" /><polyline points="426.88,767.38 425.12,766.25 424.12,766.25 422.38,767.75 422.38,772.25 424.12,773.75 425.12,773.75 426.88,772.62" /><polyline points="432.38,766.25 428.12,766.25 428.12,769.85 431.12,769.85" /><polyline points="428.12,769.85 428.12,773.75 432.38,773.75" /><polyline points="433.88,773.75 433.88,766.25 438.88,773.75 438.88,766.25" /><polyline points="439.62,766.25 444.62,766.25" /><polyline points="442.12,766.25 442.12,773.75" /><polyline points="445.38,766.25 445.38,771.88 446.38,773.38 449.38,773.38 450.38,771.88 450.38,766.25" /><polyline points="451.12,773.75 451.12,766.25 454.38,766.25 455.62,767.38 455.62,768.65 454.38,769.62 451.12,769.62 455.62,773.75" /><polyline points="456.88,766.25 459.38,770.00 461.88,766.25" /><polyline points="459.38,770.00 459.38,773.75" /><polyline points="468.38,766.25 468.38,773.75 472.62,773.75" /><polyline points="476.62,766.25 474.62,767.00 474.12,768.50 474.12,771.50 474.62,773.00 476.62,773.75 478.62,773.00 479.12,771.50 479.12,768.50 478.62,767.00 476.62,766.25" /><polyline points="479.88,773.75 479.88,766.25 484.88,773.75 484.88,766.25" /><polyline points="490.12,767.38 488.38,766.25 487.38,766.25 485.62,767.75 485.62,772.25 487.38,773.75 488.38,773.75 490.12,772.62 490.12,770.00 488.12,770.00" /><polyline points="495.62,766.25 491.38,766.25 491.38,769.85 494.38,769.85" /><polyline points="491.38,769.85 491.38,773.75 495.62,773.75" /><polyline points="497.12,773.75 497.12,766.25 500.38,766.25 501.62,767.38 501.62,768.65 500.38,769.62 497.12,769.62 501.62,773.75" /><polyline points="382.00,779.50 382.00,784.50" /><polyline points="384.08,779.50 385.68,784.50 387.28,779.50" /><polyline points="389.36,784.00 389.36,784.25" /><polyline points="391.44,779.50 394.64,784.50" /><polyline points="394.64,779.50 391.44,784.50" /><polyline points="395.12,779.50 396.72,784.50 398.32,779.50" /><polyline points="400.40,779.50 400.40,784.50" /><polyline points="404.08,779.50 404.08,784.50" /><polyline points="407.76,779.50 407.76,784.50" /><polyline points="411.44,784.00 411.44,784.25" /><polyline points="413.52,784.50 413.52,779.50 415.12,782.25 416.72,779.50 416.72,784.50" /><polyline points="417.20,784.50 417.20,779.50 418.80,782.25 420.40,779.50 420.40,784.50" /><polyline points="420.88,779.50 424.08,784.50" /><polyline points="424.08,779.50 420.88,784.50" /><polyline points="424.56,779.50 427.76,784.50" /><polyline points="427.76,779.50 424.56,784.50" /><polyline points="428.24,779.50 429.84,784.50 431.44,779.50" /><polyline points="433.52,779.50 433.52,784.50" /></g><g id="02_Teal_Vest" inkscape:groupmode="layer" inkscape:label="02_Teal_Vest" stroke="#3A7A7A" fill="none" stroke-width="0.875" stroke-linecap="round" stroke-linejoin="round"><path d="M 339.36,396.52 L 392.90,396.52 L 392.90,431.77 L 423.10,431.77 L 423.10,396.52 L 476.64,396.52 L 476.64,592.36 L 339.36,592.36 L 339.36,396.52" /><line x1="339.36" y1="443.52" x2="476.64" y2="443.52" /><line x1="339.36" y1="476.81" x2="476.64" y2="476.81" /><line x1="339.36" y1="510.11" x2="476.64" y2="510.11" /><line x1="339.36" y1="543.40" x2="476.64" y2="543.40" /><line x1="339.36" y1="576.69" x2="476.64" y2="576.69" /><line x1="346.99" y1="454.34" x2="346.99" y2="465.99" /><line x1="362.24" y1="454.34" x2="362.24" y2="465.99" /><line x1="377.49" y1="454.34" x2="377.49" y2="465.99" /><line x1="392.75" y1="454.34" x2="392.75" y2="465.99" /><line x1="408.00" y1="454.34" x2="408.00" y2="465.99" /><line x1="423.25" y1="454.34" x2="423.25" y2="465.99" /><line x1="438.51" y1="454.34" x2="438.51" y2="465.99" /><line x1="453.76" y1="454.34" x2="453.76" y2="465.99" /><line x1="469.01" y1="454.34" x2="469.01" y2="465.99" /><line x1="346.99" y1="487.63" x2="346.99" y2="499.29" /><line x1="362.24" y1="487.63" x2="362.24" y2="499.29" /><line x1="377.49" y1="487.63" x2="377.49" y2="499.29" /><line x1="392.75" y1="487.63" x2="392.75" y2="499.29" /><line x1="408.00" y1="487.63" x2="408.00" y2="499.29" /><line x1="423.25" y1="487.63" x2="423.25" y2="499.29" /><line x1="438.51" y1="487.63" x2="438.51" y2="499.29" /><line x1="453.76" y1="487.63" x2="453.76" y2="499.29" /><line x1="469.01" y1="487.63" x2="469.01" y2="499.29" /><line x1="346.99" y1="520.93" x2="346.99" y2="532.58" /><line x1="362.24" y1="520.93" x2="362.24" y2="532.58" /><line x1="377.49" y1="520.93" x2="377.49" y2="532.58" /><line x1="392.75" y1="520.93" x2="392.75" y2="532.58" /><line x1="408.00" y1="520.93" x2="408.00" y2="532.58" /><line x1="423.25" y1="520.93" x2="423.25" y2="532.58" /><line x1="438.51" y1="520.93" x2="438.51" y2="532.58" /><line x1="453.76" y1="520.93" x2="453.76" y2="532.58" /><line x1="469.01" y1="520.93" x2="469.01" y2="532.58" /><line x1="346.99" y1="554.22" x2="346.99" y2="565.87" /><line x1="362.24" y1="554.22" x2="362.24" y2="565.87" /><line x1="377.49" y1="554.22" x2="377.49" y2="565.87" /><line x1="392.75" y1="554.22" x2="392.75" y2="565.87" /><line x1="408.00" y1="554.22" x2="408.00" y2="565.87" /><line x1="423.25" y1="554.22" x2="423.25" y2="565.87" /><line x1="438.51" y1="554.22" x2="438.51" y2="565.87" /><line x1="453.76" y1="554.22" x2="453.76" y2="565.87" /><line x1="469.01" y1="554.22" x2="469.01" y2="565.87" /><path d="M 339.36,410.01 L 344.87,410.88 L 349.85,413.42 L 353.80,417.36 L 356.33,422.34 L 357.21,427.85 L 356.33,433.37 L 353.80,438.34 L 349.85,442.29 L 344.87,444.83 L 339.36,445.70" /><path d="M 476.64,445.70 L 471.13,444.83 L 466.15,442.29 L 462.20,438.34 L 459.67,433.37 L 458.79,427.85 L 459.67,422.34 L 462.20,417.36 L 466.15,413.42 L 471.13,410.88 L 476.64,410.01" /></g><g id="02b_Teal_Water" inkscape:groupmode="layer" inkscape:label="02b_Teal_Water" stroke="#3A7A7A" fill="none" stroke-width="0.625" stroke-linecap="round" stroke-linejoin="round"><path d="M 252.00,612.76 L 257.20,613.22 L 262.40,613.65 L 267.60,614.05 L 272.80,614.39 L 278.00,614.67 L 283.20,614.85 L 288.40,614.95 L 293.60,614.95 L 298.80,614.85 L 304.00,614.67 L 309.20,614.39 L 314.40,614.05 L 319.60,613.65 L 324.80,613.22 L 330.00,612.76 L 335.20,612.30 L 340.40,611.87 L 345.60,611.47 L 350.80,611.13 L 356.00,610.85 L 361.20,610.67 L 366.40,610.57 L 371.60,610.57 L 376.80,610.67 L 382.00,610.85 L 387.20,611.13 L 392.40,611.47 L 397.60,611.87 L 402.80,612.30 L 408.00,612.76 L 413.20,613.22 L 418.40,613.65 L 423.60,614.05 L 428.80,614.39 L 434.00,614.67 L 439.20,614.85 L 444.40,614.95 L 449.60,614.95 L 454.80,614.85 L 460.00,614.67 L 465.20,614.39 L 470.40,614.05 L 475.60,613.65 L 480.80,613.22 L 486.00,612.76 L 491.20,612.30 L 496.40,611.87 L 501.60,611.47 L 506.80,611.13 L 512.00,610.85 L 517.20,610.67 L 522.40,610.57 L 527.60,610.57 L 532.80,610.67 L 538.00,610.85 L 543.20,611.13 L 548.40,611.47 L 553.60,611.87 L 558.80,612.30 L 564.00,612.76" /><path d="M 252.00,667.09 L 257.20,667.32 L 262.40,667.49 L 267.60,667.58 L 272.80,667.60 L 278.00,667.53 L 283.20,667.39 L 288.40,667.18 L 293.60,666.91 L 298.80,666.59 L 304.00,666.24 L 309.20,665.87 L 314.40,665.49 L 319.60,665.13 L 324.80,664.80 L 330.00,664.51 L 335.20,664.28 L 340.40,664.11 L 345.60,664.02 L 350.80,664.00 L 356.00,664.07 L 361.20,664.21 L 366.40,664.42 L 371.60,664.69 L 376.80,665.01 L 382.00,665.36 L 387.20,665.73 L 392.40,666.11 L 397.60,666.47 L 402.80,666.80 L 408.00,667.09 L 413.20,667.32 L 418.40,667.49 L 423.60,667.58 L 428.80,667.60 L 434.00,667.53 L 439.20,667.39 L 444.40,667.18 L 449.60,666.91 L 454.80,666.59 L 460.00,666.24 L 465.20,665.87 L 470.40,665.49 L 475.60,665.13 L 480.80,664.80 L 486.00,664.51 L 491.20,664.28 L 496.40,664.11 L 501.60,664.02 L 506.80,664.00 L 512.00,664.07 L 517.20,664.21 L 522.40,664.42 L 527.60,664.69 L 532.80,665.01 L 538.00,665.36 L 543.20,665.73 L 548.40,666.11 L 553.60,666.47 L 558.80,666.80 L 564.00,667.09" /><path d="M 252.00,720.24 L 257.20,720.20 L 262.40,720.10 L 267.60,719.95 L 272.80,719.75 L 278.00,719.50 L 283.20,719.23 L 288.40,718.95 L 293.60,718.65 L 298.80,718.37 L 304.00,718.10 L 309.20,717.87 L 314.40,717.68 L 319.60,717.54 L 324.80,717.46 L 330.00,717.44 L 335.20,717.48 L 340.40,717.58 L 345.60,717.73 L 350.80,717.93 L 356.00,718.18 L 361.20,718.45 L 366.40,718.73 L 371.60,719.03 L 376.80,719.31 L 382.00,719.58 L 387.20,719.81 L 392.40,720.00 L 397.60,720.14 L 402.80,720.22 L 408.00,720.24 L 413.20,720.20 L 418.40,720.10 L 423.60,719.95 L 428.80,719.75 L 434.00,719.50 L 439.20,719.23 L 444.40,718.95 L 449.60,718.65 L 454.80,718.37 L 460.00,718.10 L 465.20,717.87 L 470.40,717.68 L 475.60,717.54 L 480.80,717.46 L 486.00,717.44 L 491.20,717.48 L 496.40,717.58 L 501.60,717.73 L 506.80,717.93 L 512.00,718.18 L 517.20,718.45 L 522.40,718.73 L 527.60,719.03 L 532.80,719.31 L 538.00,719.58 L 543.20,719.81 L 548.40,720.00 L 553.60,720.14 L 558.80,720.22 L 564.00,720.24" /></g><g id="03_Gold_Thread" inkscape:groupmode="layer" inkscape:label="03_Gold_Thread" stroke="#B8960C" fill="none" stroke-width="1.25" stroke-linecap="round" stroke-linejoin="round"><line x1="320.43" y1="387.90" x2="328.15" y2="398.59" /><line x1="336.20" y1="408.73" x2="343.92" y2="418.26" /><line x1="352.79" y1="428.53" x2="360.12" y2="438.93" /><line x1="368.45" y1="448.50" x2="375.64" y2="457.97" /><line x1="384.64" y1="468.99" x2="391.60" y2="478.64" /><line x1="399.48" y1="488.09" x2="407.53" y2="498.87" /><line x1="416.54" y1="508.82" x2="423.57" y2="518.11" /><line x1="432.09" y1="528.49" x2="440.34" y2="539.13" /><line x1="447.20" y1="548.24" x2="456.24" y2="558.31" /><line x1="464.13" y1="568.97" x2="471.84" y2="578.25" /><line x1="479.21" y1="588.77" x2="487.02" y2="599.25" /><path d="M 488.36,603.68 L 494.36,603.68 L 494.36,609.68 L 488.36,609.68 L 488.36,603.68" /></g></svg>