<?xml version='1.0' encoding='utf-8'?>
<svg xmlns="http://www.w3.org/2000/svg" xmlns:inkscape="http://www.inkscape.org/namespaces/inkscape" viewBox="204 228 408 600"><style>*{vector-effect:non-scaling-stroke}</style><g id="01_Black_Frame" inkscape:groupmode="layer" inkscape:label="01_Black_Frame" stroke="#1A1A1A" fill="none" stroke-width="0.875" stroke-linecap="round" stroke-linejoin="round"><path d="M 250.0,264.0 L 566.0,264.0 Q 576.0,264.0 576.0,274.0 L 576.0,782.0 Q 576.0,792.0 566.0,792.0 L 250.0,792.0 Q 240.0,792.0 240.0,782.0 L 240.0,274.0 Q 240.0,264.0 250.0,264.0" /><path d="M 253.0,270.0 L 563.0,270.0 Q 570.0,270.0 570.0,277.0 L 570.0,779.0 Q 570.0,786.0 563.0,786.0 L 253.0,786.0 Q 246.0,786.0 246.0,779.0 L 246.0,277.0 Q 246.0,270.0 253.0,270.0" /><line x1="259.0" y1="280.0" x2="263.0" y2="280.0" /><line x1="258.1" y1="282.1" x2="260.9" y2="284.9" /><line x1="256.0" y1="283.0" x2="256.0" y2="287.0" /><line x1="253.9" y1="282.1" x2="251.1" y2="284.9" /><line x1="253.0" y1="280.0" x2="249.0" y2="280.0" /><line x1="253.9" y1="277.9" x2="251.1" y2="275.1" /><line x1="256.0" y1="277.0" x2="256.0" y2="273.0" /><line x1="258.1" y1="277.9" x2="260.9" y2="275.1" /><line x1="563.0" y1="280.0" x2="567.0" y2="280.0" /><line x1="562.1" y1="282.1" x2="564.9" y2="284.9" /><line x1="560.0" y1="283.0" x2="560.0" y2="287.0" /><line x1="557.9" y1="282.1" x2="555.1" y2="284.9" /><line x1="557.0" y1="280.0" x2="553.0" y2="280.0" /><line x1="557.9" y1="277.9" x2="555.1" y2="275.1" /><line x1="560.0" y1="277.0" x2="560.0" y2="273.0" /><line x1="562.1" y1="277.9" x2="564.9" y2="275.1" /><line x1="259.0" y1="776.0" x2="263.0" y2="776.0" /><line x1="258.1" y1="778.1" x2="260.9" y2="780.9" /><line x1="256.0" y1="779.0" x2="256.0" y2="783.0" /><line x1="253.9" y1="778.1" x2="251.1" y2="780.9" /><line x1="253.0" y1="776.0" x2="249.0" y2="776.0" /><line x1="253.9" y1="773.9" x2="251.1" y2="771.1" /><line x1="256.0" y1="773.0" x2="256.0" y2="769.0" /><line x1="258.1" y1="773.9" x2="260.9" y2="771.1" /><line x1="563.0" y1="776.0" x2="567.0" y2="776.0" /><line x1="562.1" y1="778.1" x2="564.9" y2="780.9" /><line x1="560.0" y1="779.0" x2="560.0" y2="783.0" /><line x1="557.9" y1="778.1" x2="555.1" y2="780.9" /><line x1="557.0" y1="776.0" x2="553.0" y2="776.0" /><line x1="557.9" y1="773.9" x2="555.1" y2="771.1" /><line x1="560.0" y1="773.0" x2="560.0" y2="769.0" /><line x1="562.1" y1="773.9" x2="564.9" y2="771.1" /><polyline points="389.50,283.20 387.75,282.00 386.75,282.00 385.00,283.60 385.00,288.40 386.75,290.00 387.75,290.00 389.50,288.80" /><polyline points="390.75,282.00 390.75,290.00 395.00,290.00" /><polyline points="396.50,282.00 401.50,290.00" /><polyline points="401.50,282.00 396.50,290.00" /><polyline points="402.25,282.00 407.25,290.00" /><polyline points="407.25,282.00 402.25,290.00" /><polyline points="408.00,282.00 410.50,290.00 413.00,282.00" /><polyline points="416.25,282.00 416.25,290.00" /><polyline points="422.00,282.00 422.00,290.00" /><polyline points="427.75,282.00 427.75,290.00" /><polyline points="374.36,297.00 380.86,297.00" /><polyline points="377.61,297.00 377.61,307.00" /><polyline points="381.84,297.00 381.84,307.00" /><polyline points="388.34,297.00 388.34,307.00" /><polyline points="381.84,301.80 388.34,301.80" /><polyline points="394.84,297.00 389.31,297.00 389.31,301.80 393.21,301.80" /><polyline points="389.31,301.80 389.31,307.00 394.84,307.00" /><polyline points="409.79,297.00 404.26,297.00 404.26,301.80 408.16,301.80" /><polyline points="404.26,301.80 404.26,307.00" /><polyline points="411.74,307.00 414.99,297.00 418.24,307.00" /><polyline points="412.91,303.50 417.07,303.50" /><polyline points="419.21,297.00 419.21,304.50 420.51,306.50 424.41,306.50 425.71,304.50 425.71,297.00" /><polyline points="426.69,297.00 426.69,307.00 432.21,307.00" /><polyline points="434.16,297.00 440.66,297.00" /><polyline points="437.41,297.00 437.41,307.00" /><line x1="270.0" y1="312.0" x2="546.0" y2="312.0" /><line x1="270.0" y1="732.0" x2="546.0" y2="732.0" /><polyline points="380.42,740.75 380.42,745.25" /><polyline points="382.24,745.25 382.24,740.75 384.06,740.75 384.76,741.42 384.76,742.19 384.06,742.77 382.24,742.77 384.76,745.25" /><polyline points="385.46,745.25 386.86,740.75 388.26,745.25" /><polyline points="385.96,743.67 387.76,743.67" /><polyline points="388.68,745.25 388.68,740.75 391.48,745.25 391.48,740.75" /><polyline points="400.86,741.42 399.88,740.75 399.32,740.75 398.34,741.65 398.34,744.35 399.32,745.25 399.88,745.25 400.86,744.58 400.86,743.00 399.74,743.00" /><polyline points="401.56,745.25 401.56,740.75 403.38,740.75 404.08,741.42 404.08,742.19 403.38,742.77 401.56,742.77 404.08,745.25" /><polyline points="406.18,740.75 405.06,741.20 404.78,742.10 404.78,743.90 405.06,744.80 406.18,745.25 407.30,744.80 407.58,743.90 407.58,742.10 407.30,741.20 406.18,740.75" /><polyline points="408.00,740.75 408.00,744.12 408.56,745.02 410.24,745.02 410.80,744.12 410.80,740.75" /><polyline points="411.22,745.25 411.22,740.75 414.02,745.25 414.02,740.75" /><polyline points="414.44,745.25 414.44,740.75 415.98,740.75 416.96,741.88 416.96,744.12 415.98,745.25 414.44,745.25" /><polyline points="424.10,745.25 424.10,740.75 425.64,740.75 426.62,741.88 426.62,744.12 425.64,745.25 424.10,745.25" /><polyline points="429.70,740.75 427.32,740.75 427.32,742.91 429.00,742.91" /><polyline points="427.32,742.91 427.32,745.25 429.70,745.25" /><polyline points="430.54,745.25 431.94,740.75 433.34,745.25" /><polyline points="431.04,743.67 432.84,743.67" /><polyline points="433.76,740.75 433.76,745.25 436.14,745.25" /><polyline points="327.50,753.25 328.75,760.75 330.00,755.88 331.25,760.75 332.50,753.25" /><polyline points="333.25,753.25 333.25,760.75" /><polyline points="338.25,753.25 338.25,760.75" /><polyline points="333.25,756.85 338.25,756.85" /><polyline points="343.25,753.25 339.00,753.25 339.00,756.85 342.00,756.85" /><polyline points="339.00,756.85 339.00,760.75 343.25,760.75" /><polyline points="344.75,760.75 344.75,753.25 348.00,753.25 349.25,754.38 349.25,755.65 348.00,756.62 344.75,756.62 349.25,760.75" /><polyline points="354.75,753.25 350.50,753.25 350.50,756.85 353.50,756.85" /><polyline points="350.50,756.85 350.50,760.75 354.75,760.75" /><polyline points="362.00,753.25 367.00,753.25" /><polyline points="364.50,753.25 364.50,760.75" /><polyline points="367.75,753.25 367.75,760.75" /><polyline points="372.75,753.25 372.75,760.75" /><polyline points="367.75,756.85 372.75,756.85" /><polyline points="377.75,753.25 373.50,753.25 373.50,756.85 376.50,756.85" /><polyline points="373.50,756.85 373.50,760.75 377.75,760.75" /><polyline points="389.50,754.38 387.75,753.25 386.75,753.25 385.00,754.75 385.00,759.25 386.75,760.75 387.75,760.75 389.50,759.62 389.50,757.00 387.50,757.00" /><polyline points="390.75,760.75 390.75,753.25 394.00,753.25 395.25,754.38 395.25,755.65 394.00,756.62 390.75,756.62 395.25,760.75" /><polyline points="399.00,753.25 397.00,754.00 396.50,755.50 396.50,758.50 397.00,760.00 399.00,760.75 401.00,760.00 401.50,758.50 401.50,755.50 401.00,754.00 399.00,753.25" /><polyline points="402.25,753.25 402.25,758.88 403.25,760.38 406.25,760.38 407.25,758.88 407.25,753.25" /><polyline points="408.00,760.75 408.00,753.25 413.00,760.75 413.00,753.25" /><polyline points="413.75,760.75 413.75,753.25 416.50,753.25 418.25,755.12 418.25,758.88 416.50,760.75 413.75,760.75" /><polyline points="429.75,754.38 428.00,753.25 427.00,753.25 425.25,754.75 425.25,759.25 427.00,760.75 428.00,760.75 429.75,759.62" /><polyline points="433.50,753.25 431.50,754.00 431.00,755.50 431.00,758.50 431.50,760.00 433.50,760.75 435.50,760.00 436.00,758.50 436.00,755.50 435.50,754.00 433.50,753.25" /><polyline points="436.75,760.75 436.75,753.25 439.25,757.38 441.75,753.25 441.75,760.75" /><polyline points="446.75,753.25 442.50,753.25 442.50,756.85 445.50,756.85" /><polyline points="442.50,756.85 442.50,760.75 446.75,760.75" /><polyline points="452.50,754.00 451.25,753.25 449.75,753.25 448.50,754.38 448.25,755.50 449.00,756.40 450.75,757.00 452.50,757.60 453.25,758.50 453.00,759.62 451.75,760.75 450.00,760.75 448.75,760.00" /><polyline points="459.75,760.75 462.25,753.25 464.75,760.75" /><polyline points="460.65,758.12 463.85,758.12" /><polyline points="465.50,760.75 465.50,753.25 468.75,753.25 470.00,754.38 470.00,755.65 468.75,756.62 465.50,756.62" /><polyline points="471.25,760.75 473.75,753.25 476.25,760.75" /><polyline points="472.15,758.12 475.35,758.12" /><polyline points="477.00,760.75 477.00,753.25 480.25,753.25 481.50,754.38 481.50,755.65 480.25,756.62 477.00,756.62 481.50,760.75" /><polyline points="482.75,753.25 487.75,753.25" /><polyline points="485.25,753.25 485.25,760.75" /><polyline points="333.25,773.75 335.75,766.25 338.25,773.75" /><polyline points="334.15,771.12 337.35,771.12" /><polyline points="339.00,773.75 339.00,766.25 344.00,773.75 344.00,766.25" /><polyline points="344.75,773.75 344.75,766.25 347.50,766.25 349.25,768.12 349.25,771.88 347.50,773.75 344.75,773.75" /><polyline points="356.25,766.25 361.25,766.25" /><polyline points="358.75,766.25 358.75,773.75" /><polyline points="362.00,773.75 364.50,766.25 367.00,773.75" /><polyline points="362.90,771.12 366.10,771.12" /><polyline points="367.75,766.25 367.75,773.75" /><polyline points="372.25,766.25 367.75,770.00 372.25,773.75" /><polyline points="377.75,766.25 373.50,766.25 373.50,769.85 376.50,769.85" /><polyline points="373.50,769.85 373.50,773.75 377.75,773.75" /><polyline points="383.50,767.00 382.25,766.25 380.75,766.25 379.50,767.38 379.25,768.50 380.00,769.40 381.75,770.00 383.50,770.60 384.25,771.50 384.00,772.62 382.75,773.75 381.00,773.75 379.75,773.00" /><polyline points="390.75,766.25 392.00,773.75 393.25,768.88 394.50,773.75 395.75,766.25" /><polyline points="396.50,766.25 396.50,773.75" /><polyline points="401.50,766.25 401.50,773.75" /><polyline points="396.50,769.85 401.50,769.85" /><polyline points="402.25,773.75 404.75,766.25 407.25,773.75" /><polyline points="403.15,771.12 406.35,771.12" /><polyline points="408.00,766.25 413.00,766.25" /><polyline points="410.50,766.25 410.50,773.75" /><polyline points="423.75,767.00 422.50,766.25 421.00,766.25 419.75,767.38 419.50,768.50 420.25,769.40 422.00,770.00 423.75,770.60 424.50,771.50 424.25,772.62 423.00,773.75 421.25,773.75 420.00,773.00" /><polyline points="425.25,766.25 430.25,766.25" /><polyline points="427.75,766.25 427.75,773.75" /><polyline points="433.50,766.25 431.50,767.00 431.00,768.50 431.00,771.50 431.50,773.00 433.50,773.75 435.50,773.00 436.00,771.50 436.00,768.50 435.50,767.00 433.50,766.25" /><polyline points="439.25,766.25 437.25,767.00 436.75,768.50 436.75,771.50 437.25,773.00 439.25,773.75 441.25,773.00 441.75,771.50 441.75,768.50 441.25,767.00 439.25,766.25" /><polyline points="442.50,773.75 442.50,766.25 445.25,766.25 447.00,768.12 447.00,771.88 445.25,773.75 442.50,773.75" /><polyline points="454.00,766.25 459.00,766.25" /><polyline points="456.50,766.25 456.50,773.75" /><polyline points="459.75,766.25 459.75,773.75" /><polyline points="464.75,766.25 464.75,773.75" /><polyline points="459.75,769.85 464.75,769.85" /><polyline points="469.75,766.25 465.50,766.25 465.50,769.85 468.50,769.85" /><polyline points="465.50,769.85 465.50,773.75 469.75,773.75" /><polyline points="471.25,773.75 471.25,766.25 474.50,766.25 475.75,767.38 475.75,768.65 474.50,769.62 471.25,769.62 475.75,773.75" /><polyline points="481.25,766.25 477.00,766.25 477.00,769.85 480.00,769.85" /><polyline points="477.00,769.85 477.00,773.75 481.25,773.75" /><polyline points="380.40,779.50 382.00,784.50 383.60,779.50" /><polyline points="385.68,779.50 385.68,784.50" /><polyline points="389.36,784.00 389.36,784.25" /><polyline points="391.44,779.50 394.64,784.50" /><polyline points="394.64,779.50 391.44,784.50" /><polyline points="395.12,779.50 398.32,784.50" /><polyline points="398.32,779.50 395.12,784.50" /><polyline points="398.80,779.50 400.40,784.50 402.00,779.50" /><polyline points="404.08,779.50 404.08,784.50" /><polyline points="407.76,779.50 407.76,784.50" /><polyline points="411.44,784.00 411.44,784.25" /><polyline points="413.52,784.50 413.52,779.50 415.12,782.25 416.72,779.50 416.72,784.50" /><polyline points="417.20,784.50 417.20,779.50 418.80,782.25 420.40,779.50 420.40,784.50" /><polyline points="420.88,779.50 424.08,784.50" /><polyline points="424.08,779.50 420.88,784.50" /><polyline points="424.56,779.50 427.76,784.50" /><polyline points="427.76,779.50 424.56,784.50" /><polyline points="428.24,779.50 429.84,784.50 431.44,779.50" /><polyline points="433.52,779.50 433.52,784.50" /></g><g id="02_Teal_Image" inkscape:groupmode="layer" inkscape:label="02_Teal_Image" stroke="#3A7A7A" fill="none" stroke-width="0.75" stroke-linecap="round" stroke-linejoin="round"><line x1="252.0" y1="319.0" x2="389.0" y2="319.0" /><line x1="391.0" y1="343.0" x2="564.0" y2="343.0" /><line x1="252.0" y1="328.0" x2="390.2" y2="328.0" /><line x1="392.2" y1="352.0" x2="564.0" y2="352.0" /><line x1="252.0" y1="336.9" x2="391.5" y2="336.9" /><line x1="393.5" y1="360.9" x2="564.0" y2="360.9" /><line x1="252.0" y1="345.7" x2="392.7" y2="345.7" /><line x1="394.7" y1="369.7" x2="564.0" y2="369.7" /><line x1="252.0" y1="354.3" x2="393.9" y2="354.3" /><line x1="395.9" y1="378.3" x2="564.0" y2="378.3" /><line x1="252.0" y1="362.9" x2="395.0" y2="362.9" /><line x1="397.0" y1="386.9" x2="564.0" y2="386.9" /><line x1="252.0" y1="371.4" x2="396.2" y2="371.4" /><line x1="398.2" y1="395.4" x2="564.0" y2="395.4" /><line x1="252.0" y1="379.7" x2="397.3" y2="379.7" /><line x1="399.3" y1="403.7" x2="564.0" y2="403.7" /><line x1="252.0" y1="388.0" x2="398.5" y2="388.0" /><line x1="400.5" y1="412.0" x2="564.0" y2="412.0" /><line x1="252.0" y1="396.1" x2="399.6" y2="396.1" /><line x1="401.6" y1="420.1" x2="564.0" y2="420.1" /><line x1="252.0" y1="404.2" x2="400.7" y2="404.2" /><line x1="402.7" y1="428.2" x2="564.0" y2="428.2" /><line x1="252.0" y1="412.2" x2="401.8" y2="412.2" /><line x1="403.8" y1="436.2" x2="564.0" y2="436.2" /><line x1="252.0" y1="420.0" x2="402.9" y2="420.0" /><line x1="404.9" y1="444.0" x2="564.0" y2="444.0" /><line x1="252.0" y1="427.8" x2="403.9" y2="427.8" /><line x1="405.9" y1="451.8" x2="564.0" y2="451.8" /><line x1="252.0" y1="435.4" x2="405.0" y2="435.4" /><line x1="407.0" y1="459.4" x2="564.0" y2="459.4" /><line x1="252.0" y1="443.0" x2="406.0" y2="443.0" /><line x1="408.0" y1="467.0" x2="564.0" y2="467.0" /><line x1="252.0" y1="450.5" x2="407.0" y2="450.5" /><line x1="409.0" y1="474.5" x2="564.0" y2="474.5" /><line x1="252.0" y1="457.9" x2="408.1" y2="457.9" /><line x1="410.1" y1="481.9" x2="564.0" y2="481.9" /><line x1="252.0" y1="465.2" x2="409.1" y2="465.2" /><line x1="411.1" y1="489.2" x2="564.0" y2="489.2" /><line x1="252.0" y1="472.4" x2="410.1" y2="472.4" /><line x1="412.1" y1="496.4" x2="564.0" y2="496.4" /><line x1="252.0" y1="479.5" x2="411.0" y2="479.5" /><line x1="413.0" y1="503.5" x2="564.0" y2="503.5" /><line x1="252.0" y1="486.5" x2="412.0" y2="486.5" /><line x1="414.0" y1="510.5" x2="564.0" y2="510.5" /><line x1="252.0" y1="493.5" x2="412.9" y2="493.5" /><line x1="414.9" y1="517.5" x2="564.0" y2="517.5" /><line x1="252.0" y1="500.3" x2="413.9" y2="500.3" /><line x1="415.9" y1="524.3" x2="564.0" y2="524.3" /><line x1="252.0" y1="507.1" x2="414.8" y2="507.1" /><line x1="416.8" y1="531.1" x2="564.0" y2="531.1" /><line x1="252.0" y1="513.8" x2="415.7" y2="513.8" /><line x1="417.7" y1="537.8" x2="564.0" y2="537.8" /><line x1="252.0" y1="520.4" x2="416.6" y2="520.4" /><line x1="418.6" y1="544.4" x2="564.0" y2="544.4" /><line x1="252.0" y1="527.0" x2="417.5" y2="527.0" /><line x1="419.5" y1="551.0" x2="564.0" y2="551.0" /><line x1="252.0" y1="533.4" x2="418.4" y2="533.4" /><line x1="420.4" y1="557.4" x2="564.0" y2="557.4" /><line x1="252.0" y1="539.8" x2="419.3" y2="539.8" /><line x1="421.3" y1="563.8" x2="564.0" y2="563.8" /><line x1="252.0" y1="546.1" x2="420.2" y2="546.1" /><line x1="422.2" y1="570.1" x2="564.0" y2="570.1" /><line x1="252.0" y1="552.3" x2="421.0" y2="552.3" /><line x1="423.0" y1="576.3" x2="564.0" y2="576.3" /><line x1="252.0" y1="558.4" x2="421.9" y2="558.4" /><line x1="423.9" y1="582.4" x2="564.0" y2="582.4" /><line x1="252.0" y1="564.5" x2="422.7" y2="564.5" /><line x1="424.7" y1="588.5" x2="564.0" y2="588.5" /><line x1="252.0" y1="570.5" x2="423.5" y2="570.5" /><line x1="425.5" y1="594.5" x2="564.0" y2="594.5" /><line x1="252.0" y1="576.4" x2="424.3" y2="576.4" /><line x1="426.3" y1="600.4" x2="564.0" y2="600.4" /><line x1="252.0" y1="582.3" x2="425.1" y2="582.3" /><line x1="427.1" y1="606.3" x2="564.0" y2="606.3" /><line x1="252.0" y1="588.0" x2="425.9" y2="588.0" /><line x1="427.9" y1="612.0" x2="564.0" y2="612.0" /><line x1="252.0" y1="593.7" x2="426.7" y2="593.7" /><line x1="428.7" y1="617.7" x2="564.0" y2="617.7" /><line x1="252.0" y1="599.4" x2="427.5" y2="599.4" /><line x1="429.5" y1="623.4" x2="564.0" y2="623.4" /><line x1="252.0" y1="604.9" x2="428.2" y2="604.9" /><line x1="430.2" y1="628.9" x2="564.0" y2="628.9" /><line x1="252.0" y1="610.4" x2="429.0" y2="610.4" /><line x1="431.0" y1="634.4" x2="564.0" y2="634.4" /><line x1="252.0" y1="615.9" x2="429.7" y2="615.9" /><line x1="431.7" y1="639.9" x2="564.0" y2="639.9" /><line x1="252.0" y1="621.2" x2="430.5" y2="621.2" /><line x1="432.5" y1="645.2" x2="564.0" y2="645.2" /><line x1="252.0" y1="626.5" x2="431.2" y2="626.5" /><line x1="433.2" y1="650.5" x2="564.0" y2="650.5" /><line x1="252.0" y1="631.7" x2="431.9" y2="631.7" /><line x1="433.9" y1="655.7" x2="564.0" y2="655.7" /><line x1="252.0" y1="636.9" x2="432.6" y2="636.9" /><line x1="434.6" y1="660.9" x2="564.0" y2="660.9" /><line x1="252.0" y1="642.0" x2="433.3" y2="642.0" /><line x1="435.3" y1="666.0" x2="564.0" y2="666.0" /><line x1="252.0" y1="647.1" x2="434.0" y2="647.1" /><line x1="436.0" y1="671.1" x2="564.0" y2="671.1" /><line x1="252.0" y1="652.0" x2="434.7" y2="652.0" /><line x1="436.7" y1="676.0" x2="564.0" y2="676.0" /><line x1="252.0" y1="657.0" x2="435.4" y2="657.0" /><line x1="437.4" y1="681.0" x2="564.0" y2="681.0" /><line x1="252.0" y1="661.8" x2="436.1" y2="661.8" /><line x1="438.1" y1="685.8" x2="564.0" y2="685.8" /><line x1="252.0" y1="666.6" x2="436.7" y2="666.6" /><line x1="438.7" y1="690.6" x2="564.0" y2="690.6" /><line x1="252.0" y1="671.4" x2="437.4" y2="671.4" /><line x1="439.4" y1="695.4" x2="564.0" y2="695.4" /><line x1="252.0" y1="676.0" x2="438.0" y2="676.0" /><line x1="440.0" y1="700.0" x2="564.0" y2="700.0" /><line x1="252.0" y1="680.7" x2="438.6" y2="680.7" /><line x1="440.6" y1="704.7" x2="564.0" y2="704.7" /><line x1="252.0" y1="685.2" x2="439.3" y2="685.2" /><line x1="441.3" y1="709.2" x2="564.0" y2="709.2" /><line x1="252.0" y1="689.7" x2="439.9" y2="689.7" /><line x1="441.9" y1="713.7" x2="564.0" y2="713.7" /><line x1="252.0" y1="694.2" x2="440.5" y2="694.2" /><line x1="442.5" y1="718.2" x2="564.0" y2="718.2" /><line x1="252.0" y1="698.6" x2="441.1" y2="698.6" /><line x1="443.1" y1="722.6" x2="564.0" y2="722.6" /><line x1="252.0" y1="703.0" x2="441.7" y2="703.0" /><line x1="443.7" y1="727.0" x2="564.0" y2="727.0" /><line x1="252.0" y1="707.2" x2="442.3" y2="707.2" /><line x1="252.0" y1="711.5" x2="442.9" y2="711.5" /><line x1="252.0" y1="715.7" x2="443.4" y2="715.7" /><line x1="252.0" y1="719.8" x2="444.0" y2="719.8" /><line x1="252.0" y1="723.9" x2="444.6" y2="723.9" /></g><g id="03_Gold_Accent" inkscape:groupmode="layer" inkscape:label="03_Gold_Accent" stroke="#B8960C" fill="none" stroke-width="1.12" stroke-linecap="round" stroke-linejoin="round"><polyline points="390.0,319.0 394.6,329.2 391.5,339.4 395.3,349.6 398.4,359.8 394.1,370.0 397.4,380.2 401.0,390.4 398.0,400.6 402.8,410.8 407.1,421.0 404.1,431.2 408.0,441.4 410.9,451.6 406.6,461.8 410.2,472.0 413.5,482.2 410.5,492.4 415.5,502.6 419.7,512.8 416.6,523.0 420.7,533.2 423.4,543.4 419.2,553.6 422.9,563.8 426.0,574.0 423.1,584.2 428.3,594.4 432.2,604.6 429.2,614.8 433.5,625.0 435.9,635.2 431.7,645.4 435.6,655.6 438.5,665.8 435.6,676.0 441.0,686.2 444.7,696.4 441.7,706.6 446.2,716.8 448.4,727.0" /><line x1="400.6" y1="380.2" x2="378.0" y2="357.6" /><line x1="400.6" y1="380.2" x2="384.3" y2="372.6" /><line x1="411.2" y1="449.6" x2="398.2" y2="427.0" /><line x1="411.2" y1="449.6" x2="399.7" y2="441.5" /><line x1="421.0" y1="531.2" x2="408.0" y2="495.5" /><line x1="421.0" y1="531.2" x2="408.1" y2="515.8" /><line x1="427.8" y1="596.4" x2="411.7" y2="573.5" /><line x1="434.4" y1="653.6" x2="425.1" y2="633.6" /><line x1="434.4" y1="653.6" x2="422.1" y2="643.3" /><line x1="405.3" y1="408.8" x2="422.2" y2="391.8" /><line x1="417.8" y1="502.6" x2="432.8" y2="476.6" /><line x1="424.4" y1="563.8" x2="443.4" y2="552.8" /><line x1="431.0" y1="625.0" x2="442.5" y2="611.2" /></g></svg>