<?xml version='1.0' encoding='utf-8'?>
<svg xmlns="http://www.w3.org/2000/svg" xmlns:inkscape="http://www.inkscape.org/namespaces/inkscape" viewBox="204 228 408 600"><style>*{vector-effect:non-scaling-stroke}</style><g id="01_Black_Frame" inkscape:groupmode="layer" inkscape:label="01_Black_Frame" stroke="#1A1A1A" fill="none" stroke-width="0.875" stroke-linecap="round" stroke-linejoin="round"><path d="M 250.0,264.0 L 566.0,264.0 Q 576.0,264.0 576.0,274.0 L 576.0,782.0 Q 576.0,792.0 566.0,792.0 L 250.0,792.0 Q 240.0,792.0 240.0,782.0 L 240.0,274.0 Q 240.0,264.0 250.0,264.0" /><path d="M 253.0,270.0 L 563.0,270.0 Q 570.0,270.0 570.0,277.0 L 570.0,779.0 Q 570.0,786.0 563.0,786.0 L 253.0,786.0 Q 246.0,786.0 246.0,779.0 L 246.0,277.0 Q 246.0,270.0 253.0,270.0" /><line x1="259.0" y1="280.0" x2="263.0" y2="280.0" /><line x1="258.1" y1="282.1" x2="260.9" y2="284.9" /><line x1="256.0" y1="283.0" x2="256.0" y2="287.0" /><line x1="253.9" y1="282.1" x2="251.1" y2="284.9" /><line x1="253.0" y1="280.0" x2="249.0" y2="280.0" /><line x1="253.9" y1="277.9" x2="251.1" y2="275.1" /><line x1="256.0" y1="277.0" x2="256.0" y2="273.0" /><line x1="258.1" y1="277.9" x2="260.9" y2="275.1" /><line x1="563.0" y1="280.0" x2="567.0" y2="280.0" /><line x1="562.1" y1="282.1" x2="564.9" y2="284.9" /><line x1="560.0" y1="283.0" x2="560.0" y2="287.0" /><line x1="557.9" y1="282.1" x2="555.1" y2="284.9" /><line x1="557.0" y1="280.0" x2="553.0" y2="280.0" /><line x1="557.9" y1="277.9" x2="555.1" y2="275.1" /><line x1="560.0" y1="277.0" x2="560.0" y2="273.0" /><line x1="562.1" y1="277.9" x2="564.9" y2="275.1" /><line x1="259.0" y1="776.0" x2="263.0" y2="776.0" /><line x1="258.1" y1="778.1" x2="260.9" y2="780.9" /><line x1="256.0" y1="779.0" x2="256.0" y2="783.0" /><line x1="253.9" y1="778.1" x2="251.1" y2="780.9" /><line x1="253.0" y1="776.0" x2="249.0" y2="776.0" /><line x1="253.9" y1="773.9" x2="251.1" y2="771.1" /><line x1="256.0" y1="773.0" x2="256.0" y2="769.0" /><line x1="258.1" y1="773.9" x2="260.9" y2="771.1" /><line x1="563.0" y1="776.0" x2="567.0" y2="776.0" /><line x1="562.1" y1="778.1" x2="564.9" y2="780.9" /><line x1="560.0" y1="779.0" x2="560.0" y2="783.0" /><line x1="557.9" y1="778.1" x2="555.1" y2="780.9" /><line x1="557.0" y1="776.0" x2="553.0" y2="776.0" /><line x1="557.9" y1="773.9" x2="555.1" y2="771.1" /><line x1="560.0" y1="773.0" x2="560.0" y2="769.0" /><line x1="562.1" y1="773.9" x2="564.9" y2="771.1" /><polyline points="398.12,283.20 396.38,282.00 395.38,282.00 393.62,283.60 393.62,288.40 395.38,290.00 396.38,290.00 398.12,288.80" /><polyline points="399.38,282.00 399.38,290.00 403.62,290.00" /><polyline points="405.12,282.00 410.12,290.00" /><polyline points="410.12,282.00 405.12,290.00" /><polyline points="410.88,282.00 413.38,290.00 415.88,282.00" /><polyline points="419.12,282.00 419.12,290.00" /><polyline points="374.36,297.00 380.86,297.00" /><polyline points="377.61,297.00 377.61,307.00" /><polyline points="381.84,297.00 381.84,307.00" /><polyline points="388.34,297.00 388.34,307.00" /><polyline points="381.84,301.80 388.34,301.80" /><polyline points="394.84,297.00 389.31,297.00 389.31,301.80 393.21,301.80" /><polyline points="389.31,301.80 389.31,307.00 394.84,307.00" /><polyline points="404.26,297.00 407.51,307.00 410.76,297.00" /><polyline points="411.74,307.00 414.99,297.00 418.24,307.00" /><polyline points="412.91,303.50 417.07,303.50" /><polyline points="419.21,297.00 419.21,304.50 420.51,306.50 424.41,306.50 425.71,304.50 425.71,297.00" /><polyline points="426.69,297.00 426.69,307.00 432.21,307.00" /><polyline points="434.16,297.00 440.66,297.00" /><polyline points="437.41,297.00 437.41,307.00" /><line x1="270.0" y1="312.0" x2="546.0" y2="312.0" /><line x1="270.0" y1="732.0" x2="546.0" y2="732.0" /><polyline points="363.83,741.42 362.85,740.75 362.29,740.75 361.31,741.65 361.31,744.35 362.29,745.25 362.85,745.25 363.83,744.58" /><polyline points="366.91,740.75 364.53,740.75 364.53,742.91 366.21,742.91" /><polyline points="364.53,742.91 364.53,745.25 366.91,745.25" /><polyline points="367.75,745.25 369.15,740.75 370.55,745.25" /><polyline points="368.25,743.67 370.05,743.67" /><polyline points="373.35,741.20 372.65,740.75 371.81,740.75 371.11,741.42 370.97,742.10 371.39,742.64 372.37,743.00 373.35,743.36 373.77,743.90 373.63,744.58 372.93,745.25 371.95,745.25 371.25,744.80" /><polyline points="376.57,740.75 374.19,740.75 374.19,742.91 375.87,742.91" /><polyline points="374.19,742.91 374.19,745.25 376.57,745.25" /><polyline points="379.79,740.75 377.41,740.75 377.41,742.91 379.09,742.91" /><polyline points="377.41,742.91 377.41,745.25" /><polyline points="382.03,740.75 382.03,745.25" /><polyline points="383.85,745.25 383.85,740.75 385.67,740.75 386.37,741.42 386.37,742.19 385.67,742.77 383.85,742.77 386.37,745.25" /><polyline points="389.45,740.75 387.07,740.75 387.07,742.91 388.75,742.91" /><polyline points="387.07,742.91 387.07,745.25 389.45,745.25" /><polyline points="399.25,741.42 398.27,740.75 397.71,740.75 396.73,741.65 396.73,744.35 397.71,745.25 398.27,745.25 399.25,744.58" /><polyline points="399.95,745.25 401.35,740.75 402.75,745.25" /><polyline points="400.45,743.67 402.25,743.67" /><polyline points="403.17,740.75 405.97,740.75" /><polyline points="404.57,740.75 404.57,745.25" /><polyline points="406.39,740.75 406.39,745.25" /><polyline points="409.19,740.75 409.19,745.25" /><polyline points="406.39,742.91 409.19,742.91" /><polyline points="411.99,740.75 409.61,740.75 409.61,742.91 411.29,742.91" /><polyline points="409.61,742.91 409.61,745.25 411.99,745.25" /><polyline points="412.83,745.25 412.83,740.75 414.37,740.75 415.35,741.88 415.35,744.12 414.37,745.25 412.83,745.25" /><polyline points="416.05,745.25 416.05,740.75 417.87,740.75 418.57,741.42 418.57,742.19 417.87,742.77 416.05,742.77 418.57,745.25" /><polyline points="419.27,745.25 420.67,740.75 422.07,745.25" /><polyline points="419.77,743.67 421.57,743.67" /><polyline points="422.49,740.75 422.49,745.25 424.87,745.25" /><polyline points="434.67,741.42 433.69,740.75 433.13,740.75 432.15,741.65 432.15,744.35 433.13,745.25 433.69,745.25 434.67,744.58" /><polyline points="435.37,740.75 435.37,744.12 435.93,745.02 437.61,745.02 438.17,744.12 438.17,740.75" /><polyline points="438.59,745.25 438.59,740.75 440.41,740.75 441.11,741.42 441.11,742.19 440.41,742.77 438.59,742.77 441.11,745.25" /><polyline points="441.81,745.25 441.81,740.75 443.63,740.75 444.33,741.42 444.33,742.19 443.63,742.77 441.81,742.77 444.33,745.25" /><polyline points="447.41,740.75 445.03,740.75 445.03,742.91 446.71,742.91" /><polyline points="445.03,742.91 445.03,745.25 447.41,745.25" /><polyline points="448.25,745.25 448.25,740.75 451.05,745.25 451.05,740.75" /><polyline points="451.47,740.75 454.27,740.75" /><polyline points="452.87,740.75 452.87,745.25" /><polyline points="330.38,753.25 331.62,760.75 332.88,755.88 334.12,760.75 335.38,753.25" /><polyline points="336.12,753.25 336.12,760.75" /><polyline points="341.12,753.25 341.12,760.75" /><polyline points="336.12,756.85 341.12,756.85" /><polyline points="341.88,760.75 344.38,753.25 346.88,760.75" /><polyline points="342.77,758.12 345.98,758.12" /><polyline points="347.62,753.25 352.62,753.25" /><polyline points="350.12,753.25 350.12,760.75" /><polyline points="363.38,754.00 362.12,753.25 360.62,753.25 359.38,754.38 359.12,755.50 359.88,756.40 361.62,757.00 363.38,757.60 364.12,758.50 363.88,759.62 362.62,760.75 360.88,760.75 359.62,760.00" /><polyline points="364.88,753.25 369.88,753.25" /><polyline points="367.38,753.25 367.38,760.75" /><polyline points="373.12,753.25 371.12,754.00 370.62,755.50 370.62,758.50 371.12,760.00 373.12,760.75 375.12,760.00 375.62,758.50 375.62,755.50 375.12,754.00 373.12,753.25" /><polyline points="378.88,753.25 376.88,754.00 376.38,755.50 376.38,758.50 376.88,760.00 378.88,760.75 380.88,760.00 381.38,758.50 381.38,755.50 380.88,754.00 378.88,753.25" /><polyline points="382.12,760.75 382.12,753.25 384.88,753.25 386.62,755.12 386.62,758.88 384.88,760.75 382.12,760.75" /><polyline points="393.62,760.75 396.12,753.25 398.62,760.75" /><polyline points="394.52,758.12 397.73,758.12" /><polyline points="405.12,753.25 410.12,753.25" /><polyline points="407.62,753.25 407.62,760.75" /><polyline points="410.88,753.25 410.88,760.75" /><polyline points="415.88,753.25 415.88,760.75" /><polyline points="410.88,756.85 415.88,756.85" /><polyline points="419.12,753.25 417.12,754.00 416.62,755.50 416.62,758.50 417.12,760.00 419.12,760.75 421.12,760.00 421.62,758.50 421.62,755.50 421.12,754.00 419.12,753.25" /><polyline points="422.38,753.25 422.38,758.88 423.38,760.38 426.38,760.38 427.38,758.88 427.38,753.25" /><polyline points="432.38,754.00 431.12,753.25 429.62,753.25 428.38,754.38 428.12,755.50 428.88,756.40 430.62,757.00 432.38,757.60 433.12,758.50 432.88,759.62 431.62,760.75 429.88,760.75 428.62,760.00" /><polyline points="433.88,760.75 436.38,753.25 438.88,760.75" /><polyline points="434.77,758.12 437.98,758.12" /><polyline points="439.62,760.75 439.62,753.25 444.62,760.75 444.62,753.25" /><polyline points="445.38,760.75 445.38,753.25 448.12,753.25 449.88,755.12 449.88,758.88 448.12,760.75 445.38,760.75" /><polyline points="456.88,753.25 459.38,757.00 461.88,753.25" /><polyline points="459.38,757.00 459.38,760.75" /><polyline points="466.88,753.25 462.62,753.25 462.62,756.85 465.62,756.85" /><polyline points="462.62,756.85 462.62,760.75 466.88,760.75" /><polyline points="468.38,760.75 470.88,753.25 473.38,760.75" /><polyline points="469.27,758.12 472.48,758.12" /><polyline points="474.12,760.75 474.12,753.25 477.38,753.25 478.62,754.38 478.62,755.65 477.38,756.62 474.12,756.62 478.62,760.75" /><polyline points="484.12,754.00 482.88,753.25 481.38,753.25 480.12,754.38 479.88,755.50 480.62,756.40 482.38,757.00 484.12,757.60 484.88,758.50 484.62,759.62 483.38,760.75 481.62,760.75 480.38,760.00" /><polyline points="353.38,773.75 353.38,766.25 356.12,766.25 357.88,768.12 357.88,771.88 356.12,773.75 353.38,773.75" /><polyline points="361.62,766.25 361.62,773.75" /><polyline points="364.88,773.75 364.88,766.25 367.62,766.25 369.38,768.12 369.38,771.88 367.62,773.75 364.88,773.75" /><polyline points="376.38,773.75 376.38,766.25 381.38,773.75 381.38,766.25" /><polyline points="384.62,766.25 382.62,767.00 382.12,768.50 382.12,771.50 382.62,773.00 384.62,773.75 386.62,773.00 387.12,771.50 387.12,768.50 386.62,767.00 384.62,766.25" /><polyline points="387.88,766.25 392.88,766.25" /><polyline points="390.38,766.25 390.38,773.75" /><polyline points="403.62,767.00 402.38,766.25 400.88,766.25 399.62,767.38 399.38,768.50 400.12,769.40 401.88,770.00 403.62,770.60 404.38,771.50 404.12,772.62 402.88,773.75 401.12,773.75 399.88,773.00" /><polyline points="405.12,766.25 410.12,766.25" /><polyline points="407.62,766.25 407.62,773.75" /><polyline points="410.88,773.75 413.38,766.25 415.88,773.75" /><polyline points="411.77,771.12 414.98,771.12" /><polyline points="416.62,773.75 416.62,766.25 421.62,773.75 421.62,766.25" /><polyline points="422.38,773.75 422.38,766.25 425.12,766.25 426.88,768.12 426.88,771.88 425.12,773.75 422.38,773.75" /><polyline points="433.88,766.25 438.88,766.25" /><polyline points="436.38,766.25 436.38,773.75" /><polyline points="442.12,766.25 440.12,767.00 439.62,768.50 439.62,771.50 440.12,773.00 442.12,773.75 444.12,773.00 444.62,771.50 444.62,768.50 444.12,767.00 442.12,766.25" /><polyline points="445.38,773.75 445.38,766.25 448.12,766.25 449.88,768.12 449.88,771.88 448.12,773.75 445.38,773.75" /><polyline points="451.12,773.75 453.62,766.25 456.12,773.75" /><polyline points="452.02,771.12 455.23,771.12" /><polyline points="456.88,766.25 459.38,770.00 461.88,766.25" /><polyline points="459.38,770.00 459.38,773.75" /><polyline points="385.92,779.50 387.52,784.50 389.12,779.50" /><polyline points="391.20,779.50 391.20,784.50" /><polyline points="394.88,784.00 394.88,784.25" /><polyline points="396.96,779.50 400.16,784.50" /><polyline points="400.16,779.50 396.96,784.50" /><polyline points="400.64,779.50 402.24,784.50 403.84,779.50" /><polyline points="405.92,784.00 405.92,784.25" /><polyline points="408.00,784.50 408.00,779.50 409.60,782.25 411.20,779.50 411.20,784.50" /><polyline points="411.68,784.50 411.68,779.50 413.28,782.25 414.88,779.50 414.88,784.50" /><polyline points="415.36,779.50 418.56,784.50" /><polyline points="418.56,779.50 415.36,784.50" /><polyline points="419.04,779.50 422.24,784.50" /><polyline points="422.24,779.50 419.04,784.50" /><polyline points="422.72,779.50 424.32,784.50 425.92,779.50" /><polyline points="428.00,779.50 428.00,784.50" /></g><g id="02_Teal_Arch" inkscape:groupmode="layer" inkscape:label="02_Teal_Arch" stroke="#3A7A7A" fill="none" stroke-width="0.75" stroke-linecap="round" stroke-linejoin="round"><path d="M 264.5,723.0 A 278.7,278.7 0 0 1 408.0,351.6 A 278.7,278.7 0 0 1 551.5,723.0" fill="none" stroke-width="1.38" /><path d="M 278.1,723.0 A 275.5,275.5 0 0 1 408.0,351.6 A 275.5,275.5 0 0 1 537.9,723.0" fill="none" stroke-width="1.29" /><path d="M 291.6,723.0 A 272.5,272.5 0 0 1 408.0,351.6 A 272.5,272.5 0 0 1 524.4,723.0" fill="none" stroke-width="1.2" /><path d="M 305.2,723.0 A 269.8,269.8 0 0 1 408.0,351.6 A 269.8,269.8 0 0 1 510.8,723.0" fill="none" stroke-width="1.11" /><path d="M 318.8,723.0 A 267.4,267.4 0 0 1 408.0,351.6 A 267.4,267.4 0 0 1 497.2,723.0" fill="none" stroke-width="1.03" /><path d="M 332.3,723.0 A 265.3,265.3 0 0 1 408.0,351.6 A 265.3,265.3 0 0 1 483.7,723.0" fill="none" stroke-width="0.938" /><path d="M 345.9,723.0 A 263.6,263.6 0 0 1 408.0,351.6 A 263.6,263.6 0 0 1 470.1,723.0" fill="none" stroke-width="0.85" /><path d="M 359.5,723.0 A 262.2,262.2 0 0 1 408.0,351.6 A 262.2,262.2 0 0 1 456.5,723.0" fill="none" stroke-width="0.763" /><path d="M 373.1,723.0 A 261.2,261.2 0 0 1 408.0,351.6 A 261.2,261.2 0 0 1 442.9,723.0" fill="none" stroke-width="0.675" /><path d="M 386.6,723.0 A 260.4,260.4 0 0 1 408.0,351.6 A 260.4,260.4 0 0 1 429.4,723.0" fill="none" stroke-width="0.588" /><path d="M 400.2,723.0 A 260.1,260.1 0 0 1 408.0,351.6 A 260.1,260.1 0 0 1 415.8,723.0" fill="none" stroke-width="0.5" /><line x1="264.48" y1="723.00" x2="264.48" y2="749.52" stroke-width="1" /><line x1="551.52" y1="723.00" x2="551.52" y2="749.52" stroke-width="1" /><line x1="286.01" y1="723.00" x2="286.01" y2="745.87" stroke-width="1" /><line x1="529.99" y1="723.00" x2="529.99" y2="745.87" stroke-width="1" /><line x1="307.54" y1="723.00" x2="307.54" y2="742.23" stroke-width="1" /><line x1="508.46" y1="723.00" x2="508.46" y2="742.23" stroke-width="1" /><line x1="329.06" y1="723.00" x2="329.06" y2="738.58" stroke-width="1" /><line x1="486.94" y1="723.00" x2="486.94" y2="738.58" stroke-width="1" /><line x1="350.59" y1="723.00" x2="350.59" y2="734.93" stroke-width="1" /><line x1="465.41" y1="723.00" x2="465.41" y2="734.93" stroke-width="1" /><line x1="286.42" y1="666.22" x2="529.58" y2="666.22" stroke-width="0.45" /><line x1="301.18" y1="628.02" x2="514.82" y2="628.02" stroke-width="0.45" /><line x1="315.94" y1="589.81" x2="500.06" y2="589.81" stroke-width="0.45" /><line x1="330.70" y1="551.61" x2="485.30" y2="551.61" stroke-width="0.45" /><line x1="345.47" y1="513.40" x2="470.53" y2="513.40" stroke-width="0.45" /><line x1="360.23" y1="475.20" x2="455.77" y2="475.20" stroke-width="0.45" /><path d="M 436.1,404.6 L 437.4,418.9 L 435.9,438.0 L 434.4,454.6 L 437.9,467.5 L 432.1,481.3 L 430.4,500.6 L 433.8,518.8 L 438.4,529.7 L 448.8,541.7 L 456.2,558.6" fill="none" stroke-width="0.875" stroke-opacity="0.85" /></g><g id="03_Gold_Key" inkscape:groupmode="layer" inkscape:label="03_Gold_Key" stroke="#B8960C" fill="none" stroke-width="1.12" stroke-linecap="round" stroke-linejoin="round"><circle cx="408.00" cy="351.56" r="3.50" fill="none" stroke-width="1" /><circle cx="408.00" cy="351.56" r="7.50" fill="none" stroke-width="0.875" /><line x1="408.00" y1="351.56" x2="420.00" y2="351.56" stroke-width="0.95" /><line x1="408.00" y1="351.56" x2="416.49" y2="360.05" stroke-width="0.95" /><line x1="408.00" y1="351.56" x2="408.00" y2="363.56" stroke-width="0.95" /><line x1="408.00" y1="351.56" x2="399.51" y2="360.05" stroke-width="0.95" /><line x1="408.00" y1="351.56" x2="396.00" y2="351.56" stroke-width="0.95" /><line x1="408.00" y1="351.56" x2="399.51" y2="343.07" stroke-width="0.95" /><line x1="408.00" y1="351.56" x2="408.00" y2="339.56" stroke-width="0.95" /><line x1="408.00" y1="351.56" x2="416.49" y2="343.07" stroke-width="0.95" /><line x1="373.68" y1="433.16" x2="442.32" y2="433.16" stroke-width="1.25" /><line x1="373.68" y1="430.16" x2="373.68" y2="436.16" stroke-width="0.95" /><line x1="442.32" y1="430.16" x2="442.32" y2="436.16" stroke-width="0.95" /></g></svg>