<?xml version='1.0' encoding='utf-8'?>
<svg xmlns="http://www.w3.org/2000/svg" xmlns:inkscape="http://www.inkscape.org/namespaces/inkscape" viewBox="204 228 408 600"><style>*{vector-effect:non-scaling-stroke}</style><g id="01_Black_Frame" inkscape:groupmode="layer" inkscape:label="01_Black_Frame" stroke="#1A1A1A" fill="none" stroke-width="0.875" stroke-linecap="round" stroke-linejoin="round"><path d="M 250.0,264.0 L 566.0,264.0 Q 576.0,264.0 576.0,274.0 L 576.0,782.0 Q 576.0,792.0 566.0,792.0 L 250.0,792.0 Q 240.0,792.0 240.0,782.0 L 240.0,274.0 Q 240.0,264.0 250.0,264.0" /><path d="M 253.0,270.0 L 563.0,270.0 Q 570.0,270.0 570.0,277.0 L 570.0,779.0 Q 570.0,786.0 563.0,786.0 L 253.0,786.0 Q 246.0,786.0 246.0,779.0 L 246.0,277.0 Q 246.0,270.0 253.0,270.0" /><line x1="259.0" y1="280.0" x2="263.0" y2="280.0" /><line x1="258.1" y1="282.1" x2="260.9" y2="284.9" /><line x1="256.0" y1="283.0" x2="256.0" y2="287.0" /><line x1="253.9" y1="282.1" x2="251.1" y2="284.9" /><line x1="253.0" y1="280.0" x2="249.0" y2="280.0" /><line x1="253.9" y1="277.9" x2="251.1" y2="275.1" /><line x1="256.0" y1="277.0" x2="256.0" y2="273.0" /><line x1="258.1" y1="277.9" x2="260.9" y2="275.1" /><line x1="563.0" y1="280.0" x2="567.0" y2="280.0" /><line x1="562.1" y1="282.1" x2="564.9" y2="284.9" /><line x1="560.0" y1="283.0" x2="560.0" y2="287.0" /><line x1="557.9" y1="282.1" x2="555.1" y2="284.9" /><line x1="557.0" y1="280.0" x2="553.0" y2="280.0" /><line x1="557.9" y1="277.9" x2="555.1" y2="275.1" /><line x1="560.0" y1="277.0" x2="560.0" y2="273.0" /><line x1="562.1" y1="277.9" x2="564.9" y2="275.1" /><line x1="259.0" y1="776.0" x2="263.0" y2="776.0" /><line x1="258.1" y1="778.1" x2="260.9" y2="780.9" /><line x1="256.0" y1="779.0" x2="256.0" y2="783.0" /><line x1="253.9" y1="778.1" x2="251.1" y2="780.9" /><line x1="253.0" y1="776.0" x2="249.0" y2="776.0" /><line x1="253.9" y1="773.9" x2="251.1" y2="771.1" /><line x1="256.0" y1="773.0" x2="256.0" y2="769.0" /><line x1="258.1" y1="773.9" x2="260.9" y2="771.1" /><line x1="563.0" y1="776.0" x2="567.0" y2="776.0" /><line x1="562.1" y1="778.1" x2="564.9" y2="780.9" /><line x1="560.0" y1="779.0" x2="560.0" y2="783.0" /><line x1="557.9" y1="778.1" x2="555.1" y2="780.9" /><line x1="557.0" y1="776.0" x2="553.0" y2="776.0" /><line x1="557.9" y1="773.9" x2="555.1" y2="771.1" /><line x1="560.0" y1="773.0" x2="560.0" y2="769.0" /><line x1="562.1" y1="773.9" x2="564.9" y2="771.1" /><polyline points="398.12,283.20 396.38,282.00 395.38,282.00 393.62,283.60 393.62,288.40 395.38,290.00 396.38,290.00 398.12,288.80" /><polyline points="399.38,282.00 404.38,290.00" /><polyline points="404.38,282.00 399.38,290.00" /><polyline points="405.12,282.00 410.12,290.00" /><polyline points="410.12,282.00 405.12,290.00" /><polyline points="410.88,282.00 415.88,290.00" /><polyline points="415.88,282.00 410.88,290.00" /><polyline points="419.12,282.00 419.12,290.00" /><polyline points="363.15,297.00 369.65,297.00" /><polyline points="366.40,297.00 366.40,307.00" /><polyline points="370.62,297.00 370.62,307.00" /><polyline points="377.12,297.00 377.12,307.00" /><polyline points="370.62,301.80 377.12,301.80" /><polyline points="383.62,297.00 378.10,297.00 378.10,301.80 382.00,301.80" /><polyline points="378.10,301.80 378.10,307.00 383.62,307.00" /><polyline points="393.05,297.00 393.05,304.50 394.35,306.50 398.25,306.50 399.55,304.50 399.55,297.00" /><polyline points="400.52,307.00 400.52,297.00 407.02,307.00 407.02,297.00" /><polyline points="408.00,307.00 408.00,297.00 411.57,297.00 413.85,299.50 413.85,304.50 411.57,307.00 408.00,307.00" /><polyline points="421.00,297.00 415.47,297.00 415.47,301.80 419.37,301.80" /><polyline points="415.47,301.80 415.47,307.00 421.00,307.00" /><polyline points="422.95,307.00 422.95,297.00 427.18,297.00 428.80,298.50 428.80,300.20 427.18,301.50 422.95,301.50 428.80,307.00" /><polyline points="430.42,297.00 436.92,297.00" /><polyline points="433.67,297.00 433.67,307.00" /><polyline points="441.15,297.00 438.55,298.00 437.90,300.00 437.90,304.00 438.55,306.00 441.15,307.00 443.75,306.00 444.40,304.00 444.40,300.00 443.75,298.00 441.15,297.00" /><polyline points="445.38,297.00 447.00,307.00 448.62,300.50 450.25,307.00 451.88,297.00" /><line x1="270.0" y1="312.0" x2="546.0" y2="312.0" /><line x1="270.0" y1="732.0" x2="546.0" y2="732.0" /><polyline points="377.41,740.75 378.81,745.25 380.21,740.75" /><polyline points="382.03,740.75 380.91,741.20 380.63,742.10 380.63,743.90 380.91,744.80 382.03,745.25 383.15,744.80 383.43,743.90 383.43,742.10 383.15,741.20 382.03,740.75" /><polyline points="383.85,740.75 386.65,740.75" /><polyline points="385.25,740.75 385.25,745.25" /><polyline points="389.45,740.75 387.07,740.75 387.07,742.91 388.75,742.91" /><polyline points="387.07,742.91 387.07,745.25 389.45,745.25" /><polyline points="399.11,741.20 398.41,740.75 397.57,740.75 396.87,741.42 396.73,742.10 397.15,742.64 398.13,743.00 399.11,743.36 399.53,743.90 399.39,744.58 398.69,745.25 397.71,745.25 397.01,744.80" /><polyline points="399.95,740.75 399.95,745.25" /><polyline points="402.75,740.75 402.75,745.25" /><polyline points="399.95,742.91 402.75,742.91" /><polyline points="404.57,740.75 404.57,745.25" /><polyline points="408.77,740.75 406.39,740.75 406.39,742.91 408.07,742.91" /><polyline points="406.39,742.91 406.39,745.25" /><polyline points="409.61,740.75 412.41,740.75" /><polyline points="411.01,740.75 411.01,745.25" /><polyline points="421.79,741.42 420.81,740.75 420.25,740.75 419.27,741.65 419.27,744.35 420.25,745.25 420.81,745.25 421.79,744.58 421.79,743.00 420.67,743.00" /><polyline points="422.49,745.25 422.49,740.75 424.31,740.75 425.01,741.42 425.01,742.19 424.31,742.77 422.49,742.77 425.01,745.25" /><polyline points="427.11,740.75 425.99,741.20 425.71,742.10 425.71,743.90 425.99,744.80 427.11,745.25 428.23,744.80 428.51,743.90 428.51,742.10 428.23,741.20 427.11,740.75" /><polyline points="428.93,740.75 428.93,744.12 429.49,745.02 431.17,745.02 431.73,744.12 431.73,740.75" /><polyline points="432.15,745.25 432.15,740.75 434.95,745.25 434.95,740.75" /><polyline points="435.37,745.25 435.37,740.75 436.91,740.75 437.89,741.88 437.89,744.12 436.91,745.25 435.37,745.25" /><polyline points="327.50,753.25 332.50,753.25" /><polyline points="330.00,753.25 330.00,760.75" /><polyline points="333.25,753.25 333.25,760.75" /><polyline points="338.25,753.25 338.25,760.75" /><polyline points="333.25,756.85 338.25,756.85" /><polyline points="343.25,753.25 339.00,753.25 339.00,756.85 342.00,756.85" /><polyline points="339.00,756.85 339.00,760.75 343.25,760.75" /><polyline points="355.00,754.38 353.25,753.25 352.25,753.25 350.50,754.75 350.50,759.25 352.25,760.75 353.25,760.75 355.00,759.62" /><polyline points="356.25,753.25 356.25,758.88 357.25,760.38 360.25,760.38 361.25,758.88 361.25,753.25" /><polyline points="362.00,760.75 362.00,753.25 365.25,753.25 366.50,754.38 366.50,755.65 365.25,756.62 362.00,756.62 366.50,760.75" /><polyline points="367.75,760.75 367.75,753.25 371.00,753.25 372.25,754.38 372.25,755.65 371.00,756.62 367.75,756.62 372.25,760.75" /><polyline points="377.75,753.25 373.50,753.25 373.50,756.85 376.50,756.85" /><polyline points="373.50,756.85 373.50,760.75 377.75,760.75" /><polyline points="379.25,760.75 379.25,753.25 384.25,760.75 384.25,753.25" /><polyline points="385.00,753.25 390.00,753.25" /><polyline points="387.50,753.25 387.50,760.75" /><polyline points="396.50,753.25 397.75,760.75 399.00,755.88 400.25,760.75 401.50,753.25" /><polyline points="402.25,760.75 404.75,753.25 407.25,760.75" /><polyline points="403.15,758.12 406.35,758.12" /><polyline points="412.25,754.00 411.00,753.25 409.50,753.25 408.25,754.38 408.00,755.50 408.75,756.40 410.50,757.00 412.25,757.60 413.00,758.50 412.75,759.62 411.50,760.75 409.75,760.75 408.50,760.00" /><polyline points="419.50,760.75 422.00,753.25 424.50,760.75" /><polyline points="420.40,758.12 423.60,758.12" /><polyline points="425.25,753.25 425.25,760.75 429.50,760.75" /><polyline points="431.00,753.25 432.25,760.75 433.50,755.88 434.75,760.75 436.00,753.25" /><polyline points="436.75,760.75 439.25,753.25 441.75,760.75" /><polyline points="437.65,758.12 440.85,758.12" /><polyline points="442.50,753.25 445.00,757.00 447.50,753.25" /><polyline points="445.00,757.00 445.00,760.75" /><polyline points="452.50,754.00 451.25,753.25 449.75,753.25 448.50,754.38 448.25,755.50 449.00,756.40 450.75,757.00 452.50,757.60 453.25,758.50 453.00,759.62 451.75,760.75 450.00,760.75 448.75,760.00" /><polyline points="459.75,753.25 464.75,753.25" /><polyline points="462.25,753.25 462.25,760.75" /><polyline points="465.50,753.25 465.50,760.75" /><polyline points="470.50,753.25 470.50,760.75" /><polyline points="465.50,756.85 470.50,756.85" /><polyline points="475.50,753.25 471.25,753.25 471.25,756.85 474.25,756.85" /><polyline points="471.25,756.85 471.25,760.75 475.50,760.75" /><polyline points="477.00,760.75 477.00,753.25 480.25,753.25 481.50,754.38 481.50,755.65 480.25,756.62 477.00,756.62 481.50,760.75" /><polyline points="487.00,753.25 482.75,753.25 482.75,756.85 485.75,756.85" /><polyline points="482.75,756.85 482.75,760.75 487.00,760.75" /><polyline points="344.75,766.25 349.75,766.25" /><polyline points="347.25,766.25 347.25,773.75" /><polyline points="350.50,766.25 350.50,773.75" /><polyline points="355.50,766.25 355.50,773.75" /><polyline points="350.50,769.85 355.50,769.85" /><polyline points="360.50,766.25 356.25,766.25 356.25,769.85 359.25,769.85" /><polyline points="356.25,769.85 356.25,773.75 360.50,773.75" /><polyline points="372.00,767.00 370.75,766.25 369.25,766.25 368.00,767.38 367.75,768.50 368.50,769.40 370.25,770.00 372.00,770.60 372.75,771.50 372.50,772.62 371.25,773.75 369.50,773.75 368.25,773.00" /><polyline points="373.50,766.25 373.50,773.75" /><polyline points="378.50,766.25 378.50,773.75" /><polyline points="373.50,769.85 378.50,769.85" /><polyline points="381.75,766.25 379.75,767.00 379.25,768.50 379.25,771.50 379.75,773.00 381.75,773.75 383.75,773.00 384.25,771.50 384.25,768.50 383.75,767.00 381.75,766.25" /><polyline points="385.00,773.75 385.00,766.25 388.25,766.25 389.50,767.38 389.50,768.65 388.25,769.62 385.00,769.62 389.50,773.75" /><polyline points="395.00,766.25 390.75,766.25 390.75,769.85 393.75,769.85" /><polyline points="390.75,769.85 390.75,773.75 395.00,773.75" /><polyline points="403.25,766.25 406.50,766.25" /><polyline points="405.00,766.25 405.00,771.88 404.50,773.00 403.50,773.75 402.75,773.38 402.50,772.25" /><polyline points="408.00,766.25 408.00,771.88 409.00,773.38 412.00,773.38 413.00,771.88 413.00,766.25" /><polyline points="418.00,767.00 416.75,766.25 415.25,766.25 414.00,767.38 413.75,768.50 414.50,769.40 416.25,770.00 418.00,770.60 418.75,771.50 418.50,772.62 417.25,773.75 415.50,773.75 414.25,773.00" /><polyline points="419.50,766.25 424.50,766.25" /><polyline points="422.00,766.25 422.00,773.75" /><polyline points="431.00,773.75 431.00,766.25 436.00,773.75 436.00,766.25" /><polyline points="439.25,766.25 437.25,767.00 436.75,768.50 436.75,771.50 437.25,773.00 439.25,773.75 441.25,773.00 441.75,771.50 441.75,768.50 441.25,767.00 439.25,766.25" /><polyline points="442.50,766.25 447.50,766.25" /><polyline points="445.00,766.25 445.00,773.75" /><polyline points="450.75,766.25 450.75,773.75" /><polyline points="458.50,767.38 456.75,766.25 455.75,766.25 454.00,767.75 454.00,772.25 455.75,773.75 456.75,773.75 458.50,772.62" /><polyline points="464.00,766.25 459.75,766.25 459.75,769.85 462.75,769.85" /><polyline points="459.75,769.85 459.75,773.75 464.00,773.75" /><polyline points="465.50,773.75 465.50,766.25 468.25,766.25 470.00,768.12 470.00,771.88 468.25,773.75 465.50,773.75" /><polyline points="387.76,779.50 389.36,784.50 390.96,779.50" /><polyline points="393.04,784.00 393.04,784.25" /><polyline points="395.12,779.50 398.32,784.50" /><polyline points="398.32,779.50 395.12,784.50" /><polyline points="400.40,779.50 400.40,784.50" /><polyline points="404.08,784.00 404.08,784.25" /><polyline points="406.16,784.50 406.16,779.50 407.76,782.25 409.36,779.50 409.36,784.50" /><polyline points="409.84,784.50 409.84,779.50 411.44,782.25 413.04,779.50 413.04,784.50" /><polyline points="413.52,779.50 416.72,784.50" /><polyline points="416.72,779.50 413.52,784.50" /><polyline points="417.20,779.50 420.40,784.50" /><polyline points="420.40,779.50 417.20,784.50" /><polyline points="420.88,779.50 422.48,784.50 424.08,779.50" /><polyline points="426.16,779.50 426.16,784.50" /></g><g id="02_Teal_Surface" inkscape:groupmode="layer" inkscape:label="02_Teal_Surface" stroke="#5A9E9E" fill="none" stroke-width="0.625" stroke-linecap="round" stroke-linejoin="round"><polyline points="260.6,328.0 270.7,327.7 280.9,328.5 291.0,328.4 301.1,328.6 311.3,329.1 321.4,329.1 331.6,329.0 341.7,328.6 351.9,328.2 362.0,328.1 372.2,328.3 382.3,327.7 392.5,326.9 402.6,327.2 412.8,327.1 422.9,326.6 433.1,326.3 443.2,326.4 453.4,326.4 463.5,326.8 473.7,327.1 483.8,327.1 494.0,327.3 504.1,328.2 514.2,328.2 524.4,328.3 534.5,328.4 544.7,328.8 554.8,328.5" /><polyline points="265.6,333.4 275.5,334.4 285.4,334.2 295.3,333.8 305.2,334.6 315.1,333.9 325.1,333.5 335.0,333.7 344.9,333.7 354.8,332.7 364.7,332.6 374.6,332.6 384.5,332.1 394.4,332.3 404.3,332.0 414.2,331.5 424.1,332.1 434.0,331.8 444.0,332.3 453.9,332.5 463.8,332.6 473.7,333.3 483.6,333.2 493.5,333.9 503.4,333.7 513.3,334.3 523.2,334.2 533.1,334.5 543.0,333.9 552.9,333.7" /><polyline points="265.9,339.6 275.9,339.2 285.8,339.4 295.8,339.2 305.7,338.9 315.6,339.0 325.6,338.4 335.5,338.3 345.5,338.2 355.4,337.6 365.4,337.3 375.3,337.2 385.3,337.5 395.2,337.1 405.1,336.9 415.1,337.2 425.0,337.9 435.0,338.2 444.9,338.7 454.9,338.9 464.8,338.8 474.8,339.2 484.7,339.2 494.6,339.6 504.6,339.8 514.5,339.0 524.5,339.1 534.4,338.9 544.4,338.9 554.3,338.4" /><polyline points="259.0,344.4 269.1,344.1 279.2,344.6 289.3,344.2 299.3,344.0 309.4,343.0 319.5,342.6 329.6,342.8 339.7,342.9 349.8,342.8 359.9,342.3 370.0,342.8 380.1,343.0 390.2,342.8 400.2,343.3 410.3,343.4 420.4,343.9 430.5,344.2 440.6,344.3 450.7,344.5 460.8,344.6 470.9,344.9 481.0,345.2 491.1,344.4 501.1,344.6 511.2,344.3 521.3,343.7 531.4,343.8 541.5,343.3 551.6,342.9" /><polyline points="264.7,349.0 274.7,349.1 284.7,348.8 294.6,348.6 304.6,347.8 314.5,348.1 324.5,347.9 334.4,348.1 344.4,347.6 354.4,347.7 364.3,348.4 374.3,348.0 384.2,348.9 394.2,349.2 404.1,349.5 414.1,349.9 424.1,350.0 434.0,349.9 444.0,350.1 453.9,350.4 463.9,349.7 473.9,349.7 483.8,349.4 493.8,349.7 503.7,349.3 513.7,348.6 523.6,348.4 533.6,348.5 543.6,348.3 553.5,348.0" /><polyline points="260.5,353.9 270.6,353.7 280.7,353.3 290.9,352.9 301.0,353.0 311.1,353.0 321.2,353.4 331.3,353.7 341.4,353.6 351.5,353.8 361.7,354.2 371.8,354.5 381.9,355.2 392.0,355.4 402.1,355.5 412.2,355.7 422.4,355.7 432.5,355.3 442.6,354.9 452.7,355.3 462.8,355.2 472.9,354.4 483.1,354.0 493.2,353.5 503.3,353.7 513.4,353.5 523.5,353.0 533.6,352.8 543.7,352.8 553.9,352.8" /><polyline points="264.3,358.7 274.4,358.8 284.5,358.3 294.6,358.4 304.7,358.4 314.8,359.0 324.9,359.2 335.0,359.2 345.1,359.3 355.2,360.4 365.2,360.3 375.3,360.5 385.4,360.5 395.5,360.7 405.6,360.7 415.7,360.4 425.8,360.2 435.9,360.7 446.0,359.7 456.1,359.7 466.2,359.0 476.2,359.2 486.3,358.9 496.4,358.8 506.5,358.2 516.6,358.2 526.7,358.8 536.8,358.2 546.9,358.7 557.0,358.9" /><polyline points="265.3,363.7 275.3,363.6 285.4,364.3 295.4,364.3 305.4,364.4 315.4,364.6 325.4,365.4 335.4,365.5 345.5,365.6 355.5,365.8 365.5,366.2 375.5,365.9 385.5,365.8 395.6,366.1 405.6,365.9 415.6,365.2 425.6,365.2 435.6,364.8 445.6,364.3 455.7,364.1 465.7,364.0 475.7,363.6 485.7,363.7 495.7,363.5 505.8,363.7 515.8,364.1 525.8,364.6 535.8,364.8 545.8,364.9 555.9,365.0" /><polyline points="262.9,369.4 272.9,369.6 282.9,370.3 292.9,370.1 303.0,370.5 313.0,370.6 323.0,371.0 333.0,371.5 343.0,371.6 353.1,371.7 363.1,371.5 373.1,370.9 383.1,371.1 393.1,370.7 403.1,370.1 413.2,369.8 423.2,369.5 433.2,369.3 443.2,369.1 453.2,369.1 463.2,369.1 473.3,368.8 483.3,368.8 493.3,369.6 503.3,369.4 513.3,369.7 523.4,370.2 533.4,371.0 543.4,371.2 553.4,371.4" /><polyline points="262.2,376.0 272.2,376.2 282.3,375.8 292.4,376.6 302.5,376.5 312.5,377.0 322.6,376.4 332.7,377.1 342.7,376.6 352.8,376.2 362.9,376.0 372.9,375.5 383.0,375.8 393.1,375.1 403.2,374.6 413.2,374.9 423.3,374.8 433.4,374.6 443.4,374.3 453.5,374.1 463.6,375.0 473.6,374.6 483.7,375.4 493.8,375.5 503.9,375.8 513.9,376.3 524.0,376.7 534.1,376.7 544.1,376.8 554.2,377.0" /><polyline points="259.1,382.0 269.3,382.0 279.6,382.2 289.8,381.9 300.1,382.0 310.3,381.5 320.6,381.8 330.8,381.4 341.1,381.2 351.3,381.1 361.6,380.6 371.8,380.5 382.1,380.3 392.3,380.0 402.6,379.7 412.8,379.4 423.1,379.4 433.3,380.0 443.6,379.9 453.8,380.0 464.1,380.5 474.3,381.4 484.6,381.0 494.8,381.2 505.1,382.1 515.3,382.1 525.6,382.0 535.8,382.4 546.1,382.0 556.3,382.0" /><polyline points="262.2,387.3 272.4,387.3 282.6,387.0 292.7,386.8 302.9,386.9 313.0,386.7 323.2,386.1 333.4,385.7 343.5,385.8 353.7,385.8 363.8,385.0 374.0,385.2 384.1,384.8 394.3,384.9 404.5,385.1 414.6,385.6 424.8,385.7 434.9,385.8 445.1,386.2 455.3,386.2 465.4,386.9 475.6,387.1 485.7,387.4 495.9,387.6 506.1,387.6 516.2,387.4 526.4,387.6 536.5,386.7 546.7,386.4 556.8,386.2" /><polyline points="265.5,392.4 275.4,392.1 285.4,392.0 295.4,391.5 305.3,391.5 315.3,390.8 325.2,390.8 335.2,390.3 345.2,390.3 355.1,390.5 365.1,390.2 375.0,390.5 385.0,390.7 395.0,390.4 404.9,390.7 414.9,391.0 424.8,391.6 434.8,392.3 444.8,392.1 454.7,392.2 464.7,392.8 474.6,392.7 484.6,392.9 494.6,392.2 504.5,392.2 514.5,391.9 524.5,392.1 534.4,391.5 544.4,391.1 554.3,390.6" /><polyline points="259.5,396.9 269.7,396.6 279.9,396.8 290.1,396.3 300.4,395.7 310.6,396.2 320.8,395.8 331.0,395.6 341.2,395.9 351.5,395.6 361.7,395.9 371.9,396.2 382.1,396.4 392.3,397.2 402.6,397.4 412.8,397.4 423.0,397.7 433.2,398.1 443.4,397.7 453.7,398.3 463.9,398.3 474.1,397.8 484.3,397.5 494.5,397.3 504.8,397.1 515.0,396.8 525.2,396.4 535.4,396.4 545.7,395.8 555.9,396.1" /><polyline points="259.2,401.6 269.5,401.6 279.8,401.5 290.1,401.4 300.3,401.1 310.6,401.2 320.9,400.9 331.2,401.4 341.5,401.1 351.8,401.5 362.1,401.8 372.4,402.7 382.7,403.1 392.9,403.0 403.2,403.0 413.5,403.3 423.8,403.7 434.1,403.2 444.4,403.3 454.7,402.6 465.0,402.9 475.3,402.3 485.5,402.2 495.8,401.5 506.1,401.2 516.4,401.0 526.7,400.9 537.0,401.1 547.3,401.0 557.6,401.3" /><polyline points="262.3,406.8 272.2,406.0 282.1,406.5 292.1,406.2 302.0,406.5 311.9,407.1 321.9,407.1 331.8,407.4 341.7,407.8 351.6,408.0 361.6,408.4 371.5,408.9 381.4,408.7 391.4,408.9 401.3,408.6 411.2,408.9 421.1,408.8 431.1,408.4 441.0,407.6 450.9,407.5 460.9,406.9 470.8,407.3 480.7,406.6 490.6,406.3 500.6,406.3 510.5,406.6 520.4,406.4 530.4,406.3 540.3,406.5 550.2,406.7" /><polyline points="260.2,412.0 270.3,411.6 280.5,411.9 290.6,412.4 300.7,412.5 310.9,412.5 321.0,412.9 331.2,413.8 341.3,413.5 351.5,413.6 361.6,414.4 371.8,414.0 381.9,414.1 392.0,413.7 402.2,413.6 412.3,413.7 422.5,412.7 432.6,413.0 442.8,412.1 452.9,412.5 463.1,411.8 473.2,411.4 483.3,412.0 493.5,411.7 503.6,411.5 513.8,411.7 523.9,412.0 534.1,412.2 544.2,412.4 554.3,413.3" /><polyline points="259.6,417.2 269.6,417.9 279.7,418.3 289.7,418.0 299.8,418.9 309.8,418.6 319.9,418.8 329.9,419.3 339.9,419.5 350.0,419.1 360.0,419.3 370.1,419.1 380.1,418.6 390.2,418.5 400.2,418.0 410.2,417.8 420.3,417.6 430.3,417.3 440.4,417.2 450.4,416.9 460.5,416.8 470.5,416.9 480.6,417.1 490.6,417.6 500.6,417.9 510.7,417.8 520.7,418.6 530.8,418.6 540.8,419.0 550.9,419.0" /><polyline points="258.0,423.2 268.3,424.1 278.5,424.2 288.7,424.1 298.9,424.5 309.2,424.6 319.4,425.0 329.6,424.9 339.8,424.7 350.0,424.5 360.3,424.2 370.5,423.7 380.7,423.7 390.9,423.4 401.2,422.9 411.4,422.3 421.6,422.6 431.8,421.9 442.1,422.1 452.3,422.4 462.5,422.8 472.7,422.6 482.9,423.2 493.2,423.1 503.4,423.6 513.6,423.9 523.8,424.7 534.1,424.5 544.3,425.0 554.5,424.7" /><polyline points="261.1,429.6 271.3,429.8 281.5,429.8 291.7,430.3 302.0,429.8 312.2,429.9 322.4,429.4 332.6,429.4 342.8,428.9 353.1,428.8 363.3,428.7 373.5,427.8 383.7,428.2 393.9,427.9 404.2,427.5 414.4,427.4 424.6,427.3 434.8,427.6 445.0,428.0 455.3,428.1 465.5,428.6 475.7,428.6 485.9,429.0 496.1,429.8 506.4,429.9 516.6,429.9 526.8,429.8 537.0,430.2 547.2,429.5 557.5,430.1" /><polyline points="262.7,435.6 272.6,435.2 282.6,435.3 292.5,434.7 302.5,434.8 312.4,434.8 322.4,434.6 332.3,433.6 342.3,433.3 352.2,433.3 362.2,433.1 372.1,433.2 382.1,432.8 392.0,433.1 402.0,433.1 411.9,433.3 421.9,433.7 431.8,433.9 441.8,434.2 451.7,434.4 461.7,434.7 471.6,434.6 481.6,435.3 491.5,435.4 501.5,435.4 511.4,434.9 521.4,435.3 531.3,434.9 541.3,434.4 551.2,434.0" /><polyline points="258.3,440.4 268.5,440.2 278.8,439.8 289.1,439.5 299.3,439.5 309.6,439.0 319.9,438.7 330.1,438.5 340.4,438.6 350.7,438.0 360.9,438.2 371.2,438.2 381.5,438.3 391.7,438.5 402.0,438.7 412.3,439.1 422.5,439.8 432.8,440.2 443.1,440.2 453.3,440.5 463.6,440.4 473.9,440.8 484.1,440.4 494.4,440.3 504.6,440.0 514.9,440.3 525.2,439.9 535.4,439.6 545.7,438.8 556.0,438.4" /><polyline points="262.7,445.4 272.8,444.7 282.9,444.4 293.0,444.1 303.1,444.1 313.2,443.6 323.3,443.3 333.4,443.9 343.5,443.5 353.6,444.1 363.7,443.9 373.8,444.0 383.9,444.3 394.0,444.9 404.1,445.3 414.2,445.5 424.3,446.0 434.4,445.8 444.5,446.2 454.6,445.7 464.8,445.7 474.9,445.4 485.0,445.8 495.1,445.4 505.2,444.9 515.3,444.2 525.4,444.0 535.5,443.7 545.6,443.7 555.7,443.4" /><polyline points="260.3,449.3 270.5,449.4 280.6,448.9 290.8,449.4 300.9,448.6 311.1,449.1 321.2,448.8 331.4,449.4 341.5,449.3 351.7,449.9 361.8,450.2 372.0,450.8 382.1,450.5 392.3,451.2 402.4,451.5 412.6,451.6 422.7,451.2 432.9,451.0 443.0,451.0 453.2,451.0 463.3,450.4 473.5,450.0 483.6,450.1 493.8,449.3 503.9,449.7 514.1,449.0 524.2,448.9 534.4,449.0 544.5,449.1 554.7,449.0" /><polyline points="263.5,454.0 273.5,454.0 283.5,454.2 293.5,453.9 303.6,454.1 313.6,454.5 323.6,454.9 333.6,455.4 343.7,455.9 353.7,455.5 363.7,456.3 373.7,456.2 383.8,456.6 393.8,456.5 403.8,456.9 413.9,456.3 423.9,456.6 433.9,456.4 443.9,456.1 454.0,455.7 464.0,455.5 474.0,454.6 484.0,454.6 494.1,454.4 504.1,453.9 514.1,454.4 524.1,454.1 534.2,454.6 544.2,454.4 554.2,455.0" /><polyline points="262.9,459.7 272.8,459.5 282.8,460.0 292.7,460.0 302.6,460.0 312.6,460.4 322.5,461.3 332.4,461.3 342.4,461.9 352.3,461.7 362.2,461.5 372.2,461.6 382.1,461.7 392.0,461.6 402.0,461.8 411.9,460.9 421.9,460.7 431.8,460.9 441.7,460.6 451.7,460.4 461.6,459.6 471.5,459.4 481.5,459.3 491.4,459.2 501.3,459.3 511.3,459.5 521.2,460.3 531.2,460.6 541.1,460.8 551.0,461.2" /><polyline points="262.2,465.5 272.3,465.9 282.4,465.8 292.6,466.6 302.7,466.4 312.8,466.9 322.9,467.3 333.0,467.3 343.1,467.3 353.3,467.6 363.4,467.3 373.5,466.7 383.6,466.7 393.7,466.6 403.8,466.2 414.0,465.5 424.1,465.7 434.2,465.6 444.3,464.9 454.4,465.0 464.5,464.9 474.7,464.6 484.8,465.1 494.9,464.9 505.0,465.7 515.1,466.1 525.2,466.3 535.4,466.7 545.5,467.1 555.6,467.3" /><polyline points="343.4,429.8 351.8,430.0 360.1,429.5 368.5,430.0 376.9,429.6 385.3,429.4 393.7,428.9 402.1,428.7 410.5,429.6 418.9,428.7 427.3,428.7 435.7,429.0 444.1,429.2 452.5,429.8 460.8,430.3" /><polyline points="313.5,435.1 323.2,434.8 332.8,433.9 342.4,434.4 352.1,434.9 361.7,434.4 371.4,434.1 381.0,434.0 390.6,434.2 400.3,434.8 409.9,433.6 419.6,434.6 429.2,434.9 438.8,434.9 448.5,434.6" /><polyline points="269.2,420.5 274.5,420.2 279.8,420.4 285.2,420.3 290.5,419.2 295.9,419.1 301.2,420.0 306.5,418.9 311.9,419.1 317.2,419.1 322.5,419.3 327.9,419.1 333.2,420.4 338.6,420.4 343.9,420.4" /><polyline points="334.2,374.2 338.8,374.0 343.4,374.4 348.1,373.9 352.7,372.9 357.3,373.5 361.9,373.0 366.5,373.1 371.1,373.3 375.8,372.9 380.4,373.3 385.0,373.0 389.6,373.5 394.2,374.4 398.9,373.8" /><polyline points="259.1,394.0 268.0,393.6 276.9,394.1 285.7,393.7 294.6,393.0 303.5,392.7 312.4,393.3 321.2,392.6 330.1,393.0 339.0,392.6 347.8,393.4 356.7,393.1 365.6,393.9 374.5,394.2 383.3,393.9" /><polyline points="260.0,400.4 268.9,400.0 277.7,400.3 286.6,400.4 295.4,399.2 304.3,399.7 313.1,399.4 322.0,399.0 330.8,398.9 339.7,398.9 348.5,399.1 357.4,400.4 366.3,400.3 375.1,399.6 384.0,400.4" /><polyline points="330.8,441.9 335.3,441.3 339.8,441.6 344.2,442.3 348.7,442.0 353.2,441.1 357.6,440.9 362.1,441.2 366.5,440.7 371.0,440.7 375.5,441.6 379.9,440.7 384.4,441.7 388.9,442.3 393.3,442.1" /><polyline points="296.6,440.3 302.4,440.3 308.1,440.3 313.9,438.8 319.7,439.1 325.5,439.3 331.3,438.7 337.1,438.8 342.9,438.9 348.7,439.9 354.4,438.7 360.2,440.3 366.0,440.3 371.8,439.3 377.6,440.1" /><polyline points="382.1,416.8 389.9,416.9 397.8,416.9 405.6,416.3 413.4,416.5 421.2,416.5 429.0,415.5 436.9,415.3 444.7,415.4 452.5,416.3 460.3,416.2 468.1,415.7 476.0,416.9 483.8,416.8 491.6,416.2" /><polyline points="283.9,404.0 291.2,403.4 298.5,404.4 305.9,404.3 313.2,404.0 320.5,402.8 327.9,403.1 335.2,403.4 342.5,402.8 349.9,402.9 357.2,402.8 364.5,403.0 371.9,403.2 379.2,403.6 386.5,404.4" /><polyline points="324.6,439.7 330.9,439.4 337.2,438.8 343.5,439.3 349.8,438.4 356.0,439.2 362.3,438.6 368.6,438.1 374.9,438.4 381.1,439.3 387.4,438.7 393.7,438.2 400.0,439.6 406.3,439.4 412.5,439.0" /><polyline points="360.9,361.1 367.2,361.7 373.6,361.7 380.0,360.9 386.4,360.1 392.7,360.7 399.1,360.1 405.5,360.9 411.9,360.3 418.3,360.5 424.6,361.6 431.0,361.5 437.4,361.4 443.8,361.7 450.2,361.1" /></g><g id="03_Dark_Undertow" inkscape:groupmode="layer" inkscape:label="03_Dark_Undertow" stroke="#1A4A4A" fill="none" stroke-width="0.75" stroke-linecap="round" stroke-linejoin="round"><polyline points="269.6,542.6 274.5,544.5 279.8,545.8 284.6,548.1 289.5,550.2 294.8,551.1 300.0,552.1 305.3,553.1 310.3,555.1 315.3,556.9 320.5,558.4 325.7,559.7 330.9,560.7 336.2,561.7 341.5,562.6 346.3,565.0 351.4,566.5 356.7,567.6 361.5,569.9 366.5,571.8 371.7,573.2 376.9,574.3" /><polyline points="259.6,594.9 262.7,597.9 266.2,600.3 269.1,603.5 272.3,606.3 275.4,609.3 279.0,611.6 282.1,614.6 285.0,617.8 288.6,620.2 291.4,623.4 294.7,626.2 298.0,628.9 301.0,631.9" /><polyline points="259.3,577.4 262.9,578.7 266.6,579.3 270.0,581.0 273.7,582.0 277.2,583.6 280.9,584.5 284.5,585.6 288.0,587.0 291.7,588.2 295.1,589.7 298.7,591.1 302.3,592.3 305.8,593.8 309.4,594.9 313.0,596.2 316.7,597.1 320.2,598.7 323.5,600.5 327.0,602.1 330.5,603.6 334.0,605.2 337.3,607.0 340.9,608.2" /><polyline points="270.3,595.5 273.2,596.7 276.1,597.9 279.1,598.9 282.0,600.1 284.9,601.2 287.8,602.5 290.6,603.9 293.6,605.0 296.5,606.1 299.5,607.1 302.5,608.1 305.5,609.1 308.5,609.9 311.5,610.8 314.5,611.8 317.3,613.3 320.2,614.5 323.0,616.0 325.8,617.3" /><polyline points="265.4,573.3 268.3,574.7 271.1,576.3 273.9,577.8 276.3,579.9 279.1,581.6 281.7,583.4 284.3,585.3 287.1,586.9 289.7,588.7 292.6,590.2 295.2,592.0 298.0,593.7 300.7,595.5 303.1,597.6 305.4,599.8 307.9,601.8 310.2,604.1 313.0,605.8 315.7,607.5 318.2,609.4 320.5,611.7 322.9,613.8 325.6,615.5 328.2,617.5 330.7,619.5 333.1,621.7 335.4,623.9" /><polyline points="268.5,700.3 271.6,702.3 274.3,704.7 277.6,706.5 280.2,709.1 283.2,711.2 286.3,713.2 289.1,715.5 292.3,717.4 295.4,719.3" /><polyline points="309.8,498.8 312.9,500.2 315.7,502.3 318.6,504.2 321.7,505.7 324.4,507.7 327.5,509.2 330.3,511.3 333.4,512.8 336.1,514.9 339.0,516.8 341.7,518.8 344.6,520.7 347.6,522.5 350.3,524.5 353.2,526.5 356.3,528.0 359.1,530.0 362.0,531.8 364.8,533.9 367.4,536.1 370.3,537.9 373.1,539.8 376.2,541.4 378.8,543.6 381.5,545.8 384.2,547.9 386.7,550.3" /><polyline points="272.0,506.3 274.8,508.3 278.0,509.5 280.8,511.5 283.9,513.0 287.0,514.3 289.7,516.4 292.9,517.7 296.0,519.2 299.2,520.5 302.4,521.8 305.2,523.7 308.4,525.1 311.5,526.4 314.7,527.8 317.3,529.9 320.3,531.6 323.3,533.4 326.4,534.7 329.1,536.9 331.9,538.8 335.1,540.3 337.8,542.3 340.8,543.9 343.9,545.5 346.7,547.5 349.6,549.4 352.2,551.6" /><polyline points="495.4,487.1 500.2,489.2 505.2,490.7 509.8,493.0 514.5,495.2 519.5,496.6 524.5,498.0 529.3,500.0 534.0,502.1 539.0,503.7 544.0,505.2 548.6,507.4 553.3,509.8 557.9,512.1" /><polyline points="552.8,496.4 557.1,498.0" /><polyline points="273.7,488.6 277.6,489.4 281.3,490.7 285.1,491.6 288.9,492.5 292.5,494.1 296.2,495.3 299.8,496.9 303.3,498.5 306.8,500.4 310.6,501.3 314.2,502.8 318.0,503.9 321.5,505.6 325.2,507.0 328.9,508.0 332.6,509.4 336.0,511.3 339.8,512.4 343.6,513.4 347.1,515.2 350.7,516.8 354.3,518.2" /><polyline points="405.9,483.3 408.3,484.2 410.8,484.6 413.3,485.0 415.7,485.8 418.1,486.8 420.6,487.3 423.0,488.2 425.4,488.9 427.9,489.6 430.3,490.5 432.8,491.0" /><polyline points="271.9,643.0 275.9,644.2 279.6,645.9 283.5,647.3 287.5,648.2 291.5,649.4 295.3,650.9 298.9,652.9 302.6,654.7 306.6,655.9 310.5,657.3 314.4,658.3 318.4,659.5 322.4,660.4 326.2,662.0 330.2,663.0 334.0,664.6 337.8,666.2 341.5,667.9 345.5,669.0 349.4,670.4 353.4,671.5 357.3,672.8 361.1,674.2" /><polyline points="269.9,526.3 274.1,528.8 277.9,531.9 281.8,534.7 286.0,537.1 289.9,540.0 294.3,542.0 298.5,544.4 302.4,547.3 306.3,550.2 310.7,552.2 315.0,554.4 318.6,557.6 322.8,560.1 326.8,562.9 330.8,565.6" /><polyline points="344.2,489.2 347.2,490.6 350.1,492.3 353.0,494.0 355.9,495.6 359.0,497.0 362.1,498.1 365.0,499.7 368.1,501.1 371.3,502.1 374.1,503.9 377.0,505.5 380.2,506.6 383.0,508.4 385.8,510.3 388.8,511.7" /><polyline points="270.9,594.6 276.2,597.9 280.5,602.6 285.3,606.6 289.7,611.2 294.4,615.4 299.6,619.0 304.0,623.5 308.8,627.6 313.3,632.0 318.3,635.9 323.6,639.3 328.4,643.4 332.5,648.1 337.1,652.6 341.2,657.3 345.6,661.9 349.9,666.5 353.9,671.3 359.0,675.1 363.3,679.7" /><polyline points="294.3,492.4 299.2,493.1 304.2,494.1 309.0,495.4 314.0,496.2 318.9,497.4 323.8,498.7 328.8,499.2 333.8,499.9 338.7,500.9 343.5,502.4 348.5,503.2 353.3,504.5 358.1,506.1 363.1,506.7 368.0,507.9 372.8,509.3 377.8,509.8 382.6,511.3" /><polyline points="328.7,479.4 332.5,480.9 336.6,481.3 340.4,482.5 344.4,483.4 348.3,484.8 352.1,486.2 356.1,487.1 360.1,487.9 364.2,488.3 368.2,488.8 372.3,489.5 376.2,490.6" /><polyline points="318.2,491.4 320.3,492.4 322.4,493.4 324.5,494.5 326.5,495.6 328.6,496.7 330.6,498.0 332.7,499.0 334.8,500.0 337.0,500.8 339.1,502.0 341.3,502.7 343.3,503.9 345.5,504.8 347.6,505.8 349.6,507.0 351.8,507.9 353.8,509.1" /><polyline points="387.4,489.7 390.2,490.2 392.9,491.1 395.7,491.8 398.4,492.7 401.2,492.9 403.9,493.7 406.7,494.3 409.5,494.9 412.2,495.6 415.0,496.2 417.8,496.8" /><polyline points="266.9,602.8 269.3,604.7 271.9,606.3 274.5,607.9 277.2,609.2 279.9,610.8 282.6,612.1 285.0,614.0 287.5,615.7 290.2,617.2 292.7,618.9 295.5,620.1 298.2,621.5 301.0,622.7" /><polyline points="303.7,497.6 306.7,498.8 309.8,500.0 312.9,500.8 315.9,502.1 319.0,503.1 322.0,504.4 325.1,505.4 328.2,506.6 331.1,508.0 334.2,509.2 337.1,510.6 340.2,511.5 343.4,512.3 346.4,513.4 349.5,514.5 352.6,515.6 355.6,516.8 358.8,517.6 361.8,518.7 365.0,519.5 368.1,520.4 371.2,521.4" /><polyline points="264.7,711.9 267.3,713.0 269.8,714.3 272.3,715.6 274.8,716.9 277.1,718.4 279.7,719.7" /><polyline points="331.4,490.3 335.0,491.8 338.8,492.9 342.6,493.8 346.4,494.9 350.3,495.3 354.1,496.2 357.7,497.7 361.4,499.2 365.2,500.1 369.1,500.7 372.9,501.7 376.7,502.6 380.4,503.8 384.1,505.2 387.9,506.2 391.7,507.2 395.3,508.7 399.2,509.5 403.1,510.0 406.8,511.2 410.6,512.1 414.4,513.3 417.9,514.9 421.6,516.4 425.2,517.9 428.9,519.3" /><polyline points="267.8,519.9 272.6,523.0 277.5,525.8 282.6,528.5 287.6,531.3 292.3,534.5 297.0,537.8 302.3,540.1 306.9,543.4 311.9,546.2 316.4,549.7 321.5,552.2 326.1,555.7 331.0,558.6 335.6,561.9 340.3,565.2 344.8,568.7 349.4,572.2 353.9,575.7 358.2,579.4 362.5,583.2 367.5,586.0 371.7,589.9 376.7,592.6 380.8,596.6 385.7,599.6 390.3,603.0 395.3,605.7 400.3,608.5" /><polyline points="266.2,707.7 269.5,710.3 272.7,713.0 275.5,716.2 278.8,718.8" /><polyline points="465.5,486.5 468.3,487.5 470.9,488.9 473.5,490.3 476.2,491.7 478.9,492.7 481.8,493.5 484.6,494.5 487.5,495.4 490.3,496.1 493.1,497.1 495.8,498.4 498.6,499.5 501.2,500.8 503.9,502.2" /><polyline points="269.0,660.2 270.9,662.2 273.0,664.2 275.0,666.1 277.3,667.8 279.4,669.7 281.5,671.6 283.5,673.5 285.7,675.3 288.1,676.9 290.3,678.6 292.3,680.6 294.6,682.3 296.8,684.0 299.1,685.7 301.4,687.3 303.6,689.1 305.6,691.0 307.7,693.0 309.7,695.0 311.5,697.1 313.4,699.3 315.6,700.9 317.7,702.9 320.0,704.5" /><polyline points="371.3,495.7 375.4,497.2 379.5,498.7 383.6,500.1 387.6,501.8 391.6,503.6 395.8,504.9 399.9,506.3 404.0,507.9 408.0,509.6 411.9,511.5 415.9,513.2 420.0,514.7 424.3,515.7 428.3,517.4 432.2,519.5 436.1,521.4 439.8,523.6 443.7,525.6 447.5,527.7 451.4,529.8 455.1,532.1 459.2,533.5 463.3,534.9 467.2,536.9 471.2,538.6" /><polyline points="383.5,496.9 389.0,498.0 394.6,498.9 400.0,500.4 405.2,502.6 410.7,503.7 416.2,504.8 421.5,506.6 426.7,508.8 432.2,510.2 437.7,511.6 443.2,512.8 448.4,514.8 454.0,515.7 459.5,516.8 464.7,518.9 470.3,520.0 475.4,522.3 480.9,523.7 486.0,526.0 491.3,527.9 496.7,529.6 501.7,532.2 507.0,534.1" /><polyline points="513.2,492.8 515.8,493.6 518.5,494.0 521.2,494.9 523.8,495.6 526.5,496.3 529.1,497.1 531.8,497.6 534.5,498.2 537.2,498.6 539.9,499.4 542.4,500.4 545.1,501.3 547.8,501.6 550.5,502.3 553.2,502.8 555.9,503.3" /><polyline points="307.5,495.7 311.4,496.7 315.2,498.0 318.9,499.5 322.6,501.3 326.5,502.1 330.3,503.5 334.2,504.4 338.0,505.8 341.8,507.3 345.6,508.5 349.4,510.0 353.2,511.1 357.0,512.6 360.9,513.6 364.7,514.9 368.6,516.2 372.1,518.1 376.0,519.0 380.0,519.9 383.6,521.8" /><polyline points="259.2,506.6 261.7,507.6 264.0,508.9 266.2,510.4 268.5,511.8 270.9,513.0 273.2,514.4 275.3,516.0 277.7,517.1 279.9,518.6 282.4,519.7 284.8,520.9 287.0,522.3 289.2,523.8 291.7,524.9 293.8,526.5 296.0,528.0 298.2,529.6 300.5,530.9 302.8,532.2" /><polyline points="390.5,483.9 395.2,485.1 400.1,486.2 404.8,487.5 409.7,488.3 414.4,489.8 419.1,491.3 423.7,493.0 428.4,494.5 433.0,496.2 437.9,497.2 442.7,497.9 447.6,498.7 452.5,499.6 457.2,500.9 462.0,502.2 466.7,503.4 471.3,505.3 475.8,507.3 480.5,508.9 485.2,510.2 490.0,511.3 494.9,512.2 499.7,513.1 504.5,514.3 509.3,515.6" /><polyline points="265.8,617.4 268.0,618.8 270.2,620.1 272.3,621.4 274.4,622.8 276.8,623.7 278.9,625.2 281.2,626.4 283.3,627.7 285.4,629.2 287.5,630.6 289.9,631.5 292.2,632.5 294.3,633.9 296.5,635.2 298.6,636.8" /><polyline points="265.4,482.5 269.3,482.8 273.0,483.9 276.8,484.6 280.7,485.1 284.4,486.3 288.1,487.5 291.9,488.5 295.7,489.3 299.5,490.1 303.3,491.0 307.2,491.2" /><polyline points="386.1,487.1 391.3,489.9 396.6,492.5 402.2,494.3 407.7,496.2 413.3,498.1 418.3,501.2 423.8,503.2 429.2,505.4 434.7,507.6 439.9,510.3 445.2,512.9 450.7,514.7 456.0,517.2 461.4,519.6 466.3,522.9 471.7,525.3 476.7,528.3 481.9,531.0 486.9,534.1 492.3,536.5 497.7,538.7 503.1,540.9 508.3,543.7 513.9,545.6 518.8,548.9 523.5,552.3 528.3,555.8" /><polyline points="496.9,489.4 501.3,490.2 505.7,490.7 510.2,491.2 514.6,491.9 519.1,492.1 523.6,492.4 527.9,493.6 532.4,493.9 536.7,495.2 541.2,495.5 545.7,496.0 550.1,496.9 554.4,498.1" /><polyline points="259.5,518.6 262.1,519.5 264.8,519.8 267.5,520.4 270.3,520.7 272.9,521.6 275.6,522.3 278.3,522.7 281.1,523.0 283.8,523.5 286.5,523.9 289.2,524.6 291.9,525.0 294.6,525.7 297.3,526.5 300.0,526.9 302.7,527.6 305.4,528.0 308.1,528.6 310.9,528.8 313.6,529.6 316.3,529.8 318.9,530.7 321.6,531.1" /><polyline points="263.6,628.4 268.0,630.8 272.3,633.1 277.0,634.7 281.6,636.5 286.0,638.5 290.3,641.0 294.6,643.5 298.7,646.2 303.2,648.3 307.6,650.6 311.8,653.1 316.1,655.6 320.1,658.3" /><polyline points="487.4,493.8 491.7,494.9 495.9,496.2 500.3,497.0 504.7,497.2 509.0,498.4 513.3,499.3 517.8,499.6 522.2,500.2 526.4,501.4 530.7,502.4 535.1,502.9 539.4,504.0 543.8,504.9 548.0,506.1 552.2,507.6 556.5,508.6" /><polyline points="258.7,631.0 260.9,633.0 263.4,634.5 265.5,636.6 267.9,638.3 269.9,640.5 272.1,642.5 274.5,644.3 276.8,646.1 278.8,648.2 280.9,650.4 283.2,652.2 285.5,654.0 287.9,655.8 290.0,657.9 292.1,660.0 294.1,662.1 296.1,664.3 298.2,666.4 300.6,668.1" /><polyline points="417.8,487.6 419.7,488.8 421.6,489.9 423.5,491.0 425.4,492.3 427.5,493.1 429.4,494.3 431.3,495.4 433.2,496.6 435.2,497.7 437.3,498.6 439.3,499.6 441.2,500.7 443.2,501.7 445.2,502.8 446.9,504.2 448.9,505.3 450.9,506.3 452.8,507.5 454.7,508.7 456.6,509.9 458.6,510.8" /><polyline points="403.4,480.5 406.1,481.3 408.7,482.3 411.4,483.4 414.0,484.5 416.8,485.1 419.4,486.1 422.1,487.0 424.8,488.0 427.6,488.8 430.2,489.8 433.0,490.2 435.7,491.2 438.5,492.0 441.1,493.0 443.9,493.7 446.7,494.2 449.4,495.2 452.1,495.8 454.9,496.5 457.6,497.5 460.1,498.7 462.8,499.8 465.4,501.0 468.1,501.9 470.8,502.9 473.5,503.5" /><polyline points="266.9,571.8 269.4,573.4 272.0,574.6 274.4,576.3 277.0,577.6 279.7,578.6 282.3,580.0 284.8,581.4 287.2,583.2 289.7,584.6 292.4,585.7 295.0,587.0 297.4,588.6 299.8,590.3 302.4,591.7 305.0,592.9 307.6,594.3 310.1,595.8 312.6,597.2 315.2,598.7 317.8,600.0 320.1,601.7" /><polyline points="265.4,524.5 268.9,526.2 272.6,527.4 276.1,529.2 279.7,530.6 283.0,532.7 286.3,534.7 289.8,536.5 293.2,538.3 296.8,539.9 300.4,541.2 304.0,542.7 307.5,544.6 311.1,546.0 314.4,548.0 317.9,549.8 321.1,552.0 324.3,554.2 327.5,556.3 331.0,558.1 334.4,560.0 337.6,562.3 340.9,564.3 344.3,566.2 347.7,568.0" /><polyline points="263.9,574.9 267.8,577.5 271.9,579.7 275.9,582.1 280.2,584.1 283.7,587.2 287.2,590.3 291.0,592.9 294.6,596.0 298.7,598.1 302.7,600.7 306.1,603.8 309.7,606.8 313.4,609.8 317.1,612.6 320.5,615.8 324.3,618.6 328.0,621.4 332.1,623.7" /><polyline points="262.9,497.0 267.7,500.0 272.5,503.1 277.0,506.5 281.6,510.0 286.3,513.1 291.3,515.8 295.5,519.5 300.2,522.8 304.6,526.3 309.0,530.0 313.2,533.8 317.5,537.4 322.6,539.9 327.2,543.3 331.9,546.5 336.9,549.1 341.4,552.6 345.7,556.3 350.3,559.6 354.3,563.6 358.8,567.0 363.7,570.0 367.8,573.8 372.4,577.2 376.8,580.7" /><polyline points="267.3,499.4 270.5,500.3 273.8,501.1 277.0,502.3 280.2,503.0 283.5,503.8 286.5,505.3 289.6,506.7 292.8,507.7 295.8,509.2 299.1,510.1 302.0,511.7 305.3,512.5" /><polyline points="259.0,483.6 262.3,484.7 265.7,485.8 269.1,487.0 272.4,488.0 275.9,488.8 279.4,489.3 282.9,489.8 286.5,490.2 289.9,491.0 293.3,492.1 296.7,493.0 300.3,493.5 303.7,494.5 307.2,494.8 310.7,495.7 314.0,496.8 317.5,497.1 320.9,498.2 324.3,499.2 327.9,499.5" /><polyline points="390.1,492.4 392.9,493.2 395.6,494.3 398.4,495.2 401.3,495.6 404.1,496.4 406.7,497.6 409.4,498.8 412.2,499.5 415.1,500.3 417.8,501.2 420.5,502.2 423.2,503.4 426.0,504.3 428.8,505.0 431.6,506.0 434.3,507.0 437.1,507.9 439.8,509.0 442.5,510.0 445.4,510.5" /><polyline points="302.5,496.1 306.0,498.0 309.5,499.8 312.9,501.9 316.5,503.4 320.1,505.2 323.7,506.9 327.3,508.4 331.0,509.9 334.4,512.1 337.9,513.8 341.5,515.5 344.9,517.5 348.3,519.6 351.5,522.0 355.0,523.8 358.6,525.6 361.9,527.8 365.3,529.9 368.7,531.8 372.4,533.5 375.9,535.2 379.3,537.2 382.7,539.3 386.2,541.2" /><polyline points="533.6,493.9 536.6,495.7 539.5,497.7 542.4,499.6 545.2,501.6 548.1,503.5 551.2,505.1 554.4,506.5 557.4,508.3" /><polyline points="460.8,493.4 463.5,493.6 466.1,493.8 468.7,494.1 471.3,494.6 473.9,495.1 476.4,496.1 479.0,496.5 481.6,497.1 484.2,497.5 486.7,498.2 489.3,498.8 491.7,499.8 494.2,500.7 496.8,501.1 499.4,501.4 502.1,501.7 504.5,502.7 507.1,503.1 509.8,503.4 512.4,503.7 514.9,504.5 517.5,505.2 519.9,506.1 522.5,506.8 525.1,507.2" /><polyline points="271.0,639.6 274.2,641.5 277.3,643.4 280.0,646.1 282.7,648.7 285.9,650.5 288.8,652.9 291.9,655.0 294.6,657.5 297.7,659.6 300.6,662.0 303.5,664.3 306.0,667.1 309.0,669.4 312.1,671.3 315.2,673.5 317.8,676.1 320.9,678.2" /><polyline points="472.4,485.7 476.1,486.1 479.7,487.2 483.3,488.1 486.9,489.1 490.6,489.9 494.1,491.1 497.7,492.4 501.3,493.3 505.0,494.1 508.7,494.5 512.3,495.5 515.9,496.5 519.6,497.1" /><polyline points="547.8,497.5 550.6,497.7 553.3,498.3 555.9,499.3" /><polyline points="266.7,641.4 269.9,642.7 272.7,644.7 275.6,646.7 278.9,647.9 281.7,649.9 284.8,651.6 288.0,652.9 291.1,654.5 294.3,655.7 297.4,657.3 300.4,659.1 303.6,660.5 306.8,662.0 309.7,663.9 312.9,665.2 316.1,666.5 318.9,668.6 322.2,669.8 325.1,671.7 328.2,673.3 331.0,675.4 334.2,676.7 337.0,678.8" /><polyline points="266.6,710.8 268.7,712.4 271.1,713.7 273.2,715.3 275.4,716.9 277.5,718.5 279.7,720.0" /><polyline points="271.5,492.8 275.6,494.8 279.8,496.6 284.2,497.9 288.4,499.6 292.7,501.2 296.9,503.1 301.2,504.5 305.5,506.1 309.9,507.3 314.3,508.5 318.6,510.1 323.0,511.2 327.5,512.1" /><polyline points="262.3,551.1 266.6,553.3 271.1,554.8 275.3,557.1 279.4,559.6 283.5,562.1 287.8,564.4 292.2,566.1 296.7,567.9 301.1,569.8 305.4,571.8 309.9,573.6 314.1,575.9 318.1,578.6 322.5,580.4 326.9,582.3 330.8,585.1 335.3,586.8 339.6,589.0 343.6,591.6" /><polyline points="365.3,482.0 368.7,482.3 372.1,482.9 375.4,483.8 378.7,484.6 382.1,485.1 385.6,485.4 389.0,485.7 392.4,486.0 395.7,486.9 399.1,487.7 402.5,488.2 405.8,489.0 409.3,489.3 412.7,489.9 416.1,490.1 419.3,491.2 422.6,492.3 425.9,493.3 429.3,493.9 432.6,494.8" /><polyline points="261.5,644.5 266.6,648.5 271.7,652.3 277.3,655.5 282.9,658.6 287.6,662.9 293.4,665.7 298.4,669.6 303.8,673.1 308.9,677.0 314.5,680.1 320.1,683.3 325.1,687.2 330.5,690.7 335.1,695.1 340.6,698.5 346.2,701.5 351.5,705.1 357.0,708.3 362.6,711.6" /><polyline points="263.8,513.6 267.2,515.5 270.8,517.0 274.4,518.7 278.1,520.1 281.8,521.4 285.6,522.5 289.1,524.4 292.6,526.1 296.4,527.3 300.1,528.8 303.9,529.8 307.3,531.9 310.9,533.4" /><polyline points="271.4,533.9 275.1,535.5 278.9,536.7 282.6,538.1 286.5,539.0 290.1,540.6 293.8,542.2 297.4,543.8 301.1,545.1 305.0,546.2 308.8,547.2 312.7,548.2 316.3,549.8 320.0,551.4 323.7,552.8 327.6,553.6 331.1,555.4 334.8,556.9 338.6,558.0" /><polyline points="264.3,680.5 267.8,683.0 271.4,685.5 275.0,687.8 278.7,690.0 282.0,692.9 285.7,694.9 289.4,697.2 293.2,699.3 296.7,701.7 300.5,703.8 303.9,706.5 307.6,708.6 311.2,711.0" /><polyline points="423.1,496.6 427.8,497.8 432.3,499.5 436.9,500.9 441.5,502.4 446.2,503.5 451.0,504.2 455.7,505.3 460.5,506.1 465.1,507.6 469.6,509.3 474.1,511.1 478.8,512.2 483.6,512.8 488.2,514.3 492.9,515.2 497.3,517.1 502.0,518.4 506.7,519.7 511.3,521.1 516.0,522.3 520.6,523.5 525.4,524.1 530.0,525.6 534.6,527.2 539.2,528.5 543.6,530.5 548.3,531.8 552.7,533.7" /><polyline points="268.2,705.9 273.9,708.5 278.7,712.5 283.4,716.5 288.4,720.2" /><polyline points="429.3,492.9 432.2,494.3 435.0,496.0 437.9,497.5 440.6,499.2 443.5,500.5 446.4,502.1 449.2,503.6 452.2,505.0 455.2,506.2 458.2,507.3 461.3,508.4 464.0,510.2 466.8,511.8 469.5,513.6 472.3,515.3 474.9,517.2 477.8,518.5" /><polyline points="370.0,497.2 372.1,498.3 373.9,499.5 375.8,500.9 377.7,502.1 379.8,502.9 381.7,504.1 383.7,505.2 385.7,506.2 387.8,507.0 389.7,508.3 391.8,509.3 393.6,510.6 395.6,511.6 397.6,512.7 399.6,513.8 401.7,514.6 403.6,515.9 405.7,516.6 407.5,518.0 409.6,519.0 411.6,519.9 413.6,521.0 415.7,521.8 417.6,523.2 419.5,524.3 421.6,525.3 423.5,526.5" /><polyline points="263.1,556.2 267.3,557.7 271.0,560.0 275.1,561.4 278.8,563.8 282.7,565.7 286.5,567.9 290.4,569.9 294.4,571.6 298.5,573.2 302.6,574.7 306.5,576.8 310.1,579.3 313.9,581.3 318.1,582.8" /><polyline points="270.1,544.1 273.8,546.2 277.0,549.0 280.3,551.7 283.7,554.2 287.3,556.4 291.0,558.5 294.2,561.2 297.4,564.0 300.7,566.7 304.1,569.1 307.3,571.9 310.5,574.7 313.6,577.5 317.3,579.6 320.7,582.1 324.2,584.5 327.7,586.8 331.2,589.2 334.3,592.1 337.4,594.9 340.4,597.9 343.4,601.0 346.6,603.7 350.1,606.0 353.4,608.7 356.6,611.5 360.2,613.7 363.9,615.8" /><polyline points="490.4,485.3 494.1,486.3 497.7,487.1 501.2,488.5 504.7,490.0 508.3,491.0 511.9,492.1 515.6,492.5 519.0,494.0 522.7,494.7 526.2,496.1 529.9,496.7 533.6,497.3 537.1,498.5 540.6,500.0 544.3,500.7 548.0,501.5 551.6,502.3 555.3,503.0" /><polyline points="259.4,522.9 262.8,524.2 266.4,524.8 269.8,526.0 273.3,526.7 276.8,527.5 280.4,528.2 283.8,529.6 287.3,530.3 290.8,531.4 294.3,532.3 297.7,533.3 301.3,534.0 304.9,534.7 308.3,535.7" /><polyline points="303.2,481.5 307.1,483.5 311.3,485.0 315.4,486.8 319.6,488.1 323.7,490.0 328.0,490.8 332.1,492.6 336.3,493.9 340.6,495.1 344.8,496.5 349.1,497.9 353.3,499.1 357.5,500.7 361.8,501.7 365.9,503.4 370.3,504.3 374.5,505.8 378.8,506.9 382.8,508.9 387.0,510.2 390.9,512.3 394.9,514.2 398.9,516.2 403.2,517.4 407.2,519.3 411.3,521.1 415.4,522.7 419.7,523.8" /><polyline points="468.1,496.8 471.5,498.9 475.2,500.3 478.4,502.7 481.6,505.0 484.7,507.4 488.3,509.1 491.7,511.2 495.1,513.2 498.3,515.5 502.0,517.1 505.3,519.3 508.5,521.5 511.9,523.5 515.5,525.2 519.0,527.1 522.4,529.1 525.7,531.3 529.0,533.5 532.4,535.5 535.9,537.5 539.2,539.6 542.8,541.3" /><polyline points="265.1,695.8 267.3,698.3 270.1,700.2 272.6,702.4 275.2,704.6 277.6,706.9 279.9,709.3 282.2,711.8 284.9,713.8 287.3,716.2 289.6,718.6" /><polyline points="260.0,673.2 265.2,676.4 269.7,680.6 274.0,685.1 278.3,689.5 283.3,693.0 288.4,696.6 293.4,700.2 298.1,704.1 302.3,708.7 306.7,712.9 310.8,717.6" /><polyline points="259.5,535.6 264.1,537.2 268.7,539.0 273.5,540.0 278.0,542.0 282.7,543.2 287.3,544.7 291.8,546.6 296.7,547.4 301.4,548.8 306.1,550.1 310.5,552.1 315.2,553.3 320.0,554.4 324.6,556.1 329.0,558.2 333.7,559.5 338.5,560.4 343.3,561.5 348.0,562.8" /><polyline points="520.8,493.0 524.7,494.0 528.6,495.1 532.4,496.1 536.2,497.2 539.9,498.8 543.9,499.4 547.8,500.1 551.7,500.7 555.7,501.4" /><polyline points="365.6,497.8 369.3,498.4 373.0,499.1 376.7,499.7 380.5,500.2 384.1,501.3 387.7,502.0 391.5,502.5 395.1,503.5 398.8,504.3 402.4,505.3 405.9,506.6 409.5,507.9 413.1,508.9 416.7,509.8 420.3,511.0 424.0,511.9 427.6,512.7 431.4,513.2 434.8,514.7" /><polyline points="430.3,492.5 435.5,493.9 440.8,495.0 446.2,495.5 451.3,497.3 456.6,497.8 461.9,499.1 467.0,500.9 472.3,501.9 477.6,502.8 482.7,504.6 488.0,505.6 493.4,506.5 498.5,508.3 503.6,510.0 508.8,511.5 514.1,512.5" /><polyline points="272.4,515.6 278.2,516.3 283.9,517.5 289.4,519.5 295.1,520.7 300.8,521.9 306.5,523.1 312.3,523.8 317.9,525.3 323.7,526.0 329.1,528.1 334.5,530.3 340.1,531.7" /><polyline points="261.7,658.2 266.2,661.6 270.9,664.7 274.8,668.8 279.1,672.5 283.9,675.6 288.1,679.3 292.6,682.7 296.3,687.0 300.9,690.3 305.5,693.6 309.7,697.4 313.7,701.4 318.2,704.8 322.5,708.4 326.9,711.9 330.5,716.3 334.9,719.9" /><polyline points="268.8,531.4 271.4,532.2 273.9,533.3 276.2,534.8 278.8,535.5 281.2,536.8 283.6,537.9 285.9,539.3 288.2,540.7 290.8,541.6 293.4,542.5 295.7,543.8 298.3,544.7 300.7,545.8 303.2,546.9 305.6,548.3" /><polyline points="259.0,484.1 262.4,485.6 265.7,487.2 268.8,489.2 272.1,490.9 275.1,493.0 278.4,494.8 281.4,496.9 284.5,498.8 287.6,500.8 290.8,502.7 294.2,504.2" /><polyline points="455.0,482.4 457.6,483.9 460.2,485.4 463.0,486.4 465.7,487.8 468.4,489.0 471.2,490.3 473.8,491.7 476.6,493.0 479.1,494.5 481.9,495.7 484.7,496.9 487.3,498.4 490.1,499.5 492.7,500.9 495.4,502.3 498.0,503.8 500.8,505.0 503.3,506.5 505.9,508.1 508.4,509.7 511.1,511.2 513.7,512.7" /><line x1="541.7" y1="692.6" x2="551.0" y2="698.7" /><line x1="390.0" y1="699.9" x2="403.5" y2="706.4" /><line x1="326.9" y1="554.2" x2="348.7" y2="557.1" /><line x1="276.5" y1="690.3" x2="290.5" y2="697.5" /><line x1="362.8" y1="615.4" x2="378.4" y2="620.3" /><line x1="344.8" y1="657.2" x2="359.0" y2="666.7" /><line x1="261.4" y1="698.9" x2="279.7" y2="707.8" /><line x1="371.2" y1="604.8" x2="390.0" y2="615.3" /><line x1="361.1" y1="598.7" x2="372.8" y2="601.7" /><line x1="421.8" y1="635.9" x2="431.6" y2="640.5" /><line x1="529.8" y1="573.9" x2="537.3" y2="577.5" /><line x1="414.4" y1="691.1" x2="435.7" y2="703.0" /><line x1="271.6" y1="588.2" x2="287.0" y2="593.8" /><line x1="386.4" y1="700.7" x2="401.3" y2="703.5" /><line x1="431.6" y1="677.0" x2="447.5" y2="682.7" /><line x1="455.1" y1="600.5" x2="468.0" y2="607.4" /><line x1="550.4" y1="618.7" x2="558.0" y2="630.0" /><line x1="387.2" y1="681.5" x2="395.6" y2="682.7" /><line x1="344.8" y1="566.3" x2="365.4" y2="572.3" /><line x1="351.8" y1="598.9" x2="371.0" y2="602.7" /><line x1="521.9" y1="586.1" x2="542.1" y2="593.0" /><line x1="299.8" y1="688.1" x2="310.1" y2="690.4" /><line x1="487.7" y1="682.8" x2="497.9" y2="685.0" /><line x1="345.7" y1="557.0" x2="357.9" y2="561.4" /><line x1="483.3" y1="587.9" x2="494.2" y2="593.5" /><line x1="511.1" y1="588.1" x2="520.3" y2="590.3" /><line x1="452.5" y1="650.0" x2="461.9" y2="654.2" /><line x1="379.7" y1="701.0" x2="402.4" y2="710.8" /><line x1="461.9" y1="648.0" x2="478.3" y2="657.4" /><line x1="444.6" y1="578.2" x2="461.5" y2="585.5" /><line x1="533.0" y1="624.7" x2="549.5" y2="628.3" /><line x1="527.6" y1="564.9" x2="549.6" y2="572.7" /><line x1="320.2" y1="583.4" x2="334.9" y2="587.7" /><line x1="553.3" y1="634.5" x2="558.0" y2="642.6" /><line x1="399.0" y1="631.3" x2="412.4" y2="640.1" /><line x1="500.5" y1="595.7" x2="517.8" y2="606.3" /><line x1="347.5" y1="638.1" x2="364.6" y2="644.3" /><line x1="518.4" y1="690.8" x2="533.9" y2="693.3" /><line x1="490.6" y1="694.6" x2="509.5" y2="704.0" /><line x1="260.8" y1="631.9" x2="278.7" y2="641.4" /><line x1="370.6" y1="579.5" x2="379.6" y2="582.3" /><line x1="327.9" y1="603.7" x2="342.9" y2="609.7" /><line x1="482.7" y1="571.9" x2="490.9" y2="576.7" /><line x1="547.9" y1="621.9" x2="558.0" y2="629.5" /><line x1="339.8" y1="659.6" x2="349.6" y2="661.5" /><line x1="302.3" y1="618.7" x2="323.3" y2="630.3" /><line x1="400.4" y1="638.5" x2="408.4" y2="641.4" /><line x1="539.9" y1="637.8" x2="552.6" y2="640.7" /><line x1="494.1" y1="594.8" x2="509.1" y2="598.9" /><line x1="333.1" y1="654.9" x2="343.2" y2="657.4" /><line x1="470.5" y1="566.3" x2="485.3" y2="569.9" /><line x1="364.8" y1="660.2" x2="388.9" y2="664.4" /><line x1="518.8" y1="595.0" x2="538.6" y2="597.6" /><line x1="343.0" y1="613.8" x2="361.4" y2="617.0" /><line x1="432.0" y1="591.6" x2="441.4" y2="595.6" /><line x1="394.1" y1="640.3" x2="404.6" y2="645.8" /><line x1="349.8" y1="601.4" x2="371.1" y2="610.5" /><line x1="295.0" y1="645.9" x2="313.2" y2="655.2" /><line x1="495.9" y1="648.4" x2="513.4" y2="655.7" /><line x1="386.2" y1="631.2" x2="400.7" y2="633.5" /></g><g id="04_Gold_Break" inkscape:groupmode="layer" inkscape:label="04_Gold_Break" stroke="#B8960C" fill="none" stroke-width="0.875" stroke-linecap="round" stroke-linejoin="round"><polyline points="404.5,489.3 404.9,487.1 404.9,484.9 403.0,482.7 405.0,480.5 404.1,478.3 404.4,476.1 403.4,473.8 404.9,471.6 403.0,469.4 403.6,467.2 402.8,465.0 404.2,462.8 402.4,460.6 402.6,458.3" /><polyline points="317.7,513.7 318.6,508.7 319.3,503.7 320.0,498.7 321.8,493.7 322.0,488.7 321.8,483.7 325.1,478.7 326.0,473.7 325.2,468.7 327.4,463.7 327.7,458.8 328.8,453.8 329.5,448.8 330.7,443.8" /><polyline points="412.4,503.4 412.9,500.7 413.6,498.0 413.8,495.3 414.8,492.6 415.9,489.9 416.1,487.2 416.8,484.6 416.8,481.9 419.8,479.2 418.4,476.5 421.3,473.8 421.4,471.1 420.1,468.4 421.6,465.7" /><polyline points="441.5,531.6 441.3,525.3 440.8,518.9 441.0,512.6 440.5,506.3 440.3,500.0 440.5,493.6 440.9,487.3 441.2,481.0 440.4,474.6 439.8,468.3 438.9,462.0 440.0,455.7 440.2,449.3 439.4,443.0" /><polyline points="292.0,522.5 292.4,518.1 293.0,513.7 292.2,509.3 292.3,505.0 292.2,500.6 292.4,496.2 292.6,491.9 293.5,487.5 293.6,483.1 291.7,478.8 294.3,474.4 292.1,470.0 293.8,465.7 293.0,461.3" /><polyline points="471.2,508.4 471.5,504.5 471.1,500.6 470.9,496.7 470.1,492.8 469.8,488.9 471.1,485.0 469.0,481.1 469.6,477.2 471.0,473.3 469.9,469.4 469.2,465.5 469.3,461.6 469.2,457.7 468.9,453.8" /><polyline points="298.8,505.6 298.8,502.3 298.8,499.0 300.0,495.7 300.2,492.4 300.3,489.1 300.2,485.8 302.5,482.5 301.8,479.2 301.4,475.9 301.7,472.6 303.7,469.3 302.8,466.0 304.5,462.8 305.4,459.5" /><polyline points="340.5,520.7 340.6,516.3 341.5,511.8 341.3,507.3 342.5,502.8 342.9,498.3 342.6,493.8 343.6,489.4 345.4,484.9 342.9,480.4 345.9,475.9 345.4,471.4 346.7,466.9 346.1,462.4 346.8,458.0" /><polyline points="327.4,528.5 327.4,523.4 328.0,518.3 328.9,513.3 329.3,508.2 329.6,503.1 330.1,498.0 331.4,492.9 332.8,487.8 333.1,482.7 331.4,477.7 333.3,472.6 333.5,467.5 333.0,462.4 334.8,457.3" /><polyline points="330.8,522.5 331.6,516.9 332.8,511.3 333.4,505.6 334.1,500.0 335.0,494.3 337.1,488.7 335.4,483.1 336.6,477.4 339.5,471.8 338.3,466.1 339.6,460.5 340.7,454.9 341.1,449.2 342.0,443.6" /><polyline points="327.4,523.1 327.4,518.0 328.6,513.0 329.8,507.9 330.7,502.8 331.5,497.8 332.4,492.7 334.5,487.6 334.5,482.6 334.2,477.5 337.3,472.4 338.1,467.4 337.5,462.3 339.1,457.2 340.2,452.2" /><polyline points="300.1,525.7 300.0,520.1 300.0,514.5 299.5,508.9 299.1,503.3 298.7,497.7 298.8,492.1 297.4,486.5 298.8,480.9 298.1,475.3 297.0,469.7 296.2,464.0 296.5,458.4 295.8,452.8 295.8,447.2" /><polyline points="461.8,503.8 461.5,500.8 460.9,497.8 460.1,494.9 460.1,491.9 460.8,488.9 458.1,485.9 459.8,483.0 458.4,480.0 457.3,477.0 457.3,474.0 458.5,471.1 457.7,468.1 456.2,465.1 456.4,462.1" /><polyline points="514.7,515.1 514.7,509.9 513.1,504.7 512.8,499.6 512.3,494.4 510.8,489.2 511.6,484.0 509.0,478.8 510.4,473.6 506.8,468.5 507.5,463.3 506.5,458.1 505.8,452.9 504.7,447.7 504.0,442.5" /><line x1="258.0" y1="472.5" x2="264.6" y2="472.1" /><line x1="265.7" y1="473.2" x2="273.4" y2="472.9" /><line x1="273.4" y1="473.1" x2="276.9" y2="473.3" /><line x1="281.1" y1="472.4" x2="284.8" y2="472.4" /><line x1="288.8" y1="475.3" x2="296.1" y2="475.3" /><line x1="296.5" y1="472.8" x2="300.4" y2="473.0" /><line x1="304.2" y1="472.7" x2="310.6" y2="472.7" /><line x1="311.8" y1="475.9" x2="316.5" y2="476.1" /><line x1="319.5" y1="474.1" x2="323.0" y2="474.1" /><line x1="327.2" y1="475.4" x2="332.9" y2="475.4" /><line x1="334.9" y1="473.5" x2="342.8" y2="473.2" /><line x1="342.6" y1="475.0" x2="347.3" y2="474.9" /><line x1="350.3" y1="475.5" x2="355.0" y2="475.0" /><line x1="358.0" y1="474.2" x2="362.7" y2="474.4" /><line x1="365.7" y1="472.3" x2="374.3" y2="472.5" /><line x1="373.4" y1="473.3" x2="379.3" y2="473.2" /><line x1="381.1" y1="475.4" x2="387.2" y2="475.5" /><line x1="388.8" y1="474.5" x2="394.6" y2="474.5" /><line x1="396.5" y1="474.6" x2="402.6" y2="474.9" /><line x1="404.2" y1="473.1" x2="407.2" y2="473.1" /><line x1="411.8" y1="473.9" x2="417.7" y2="474.0" /><line x1="419.5" y1="474.2" x2="424.3" y2="474.4" /><line x1="427.2" y1="473.2" x2="431.7" y2="473.6" /><line x1="434.9" y1="474.3" x2="440.1" y2="474.5" /><line x1="442.6" y1="474.2" x2="445.9" y2="473.9" /><line x1="450.3" y1="474.5" x2="458.6" y2="474.7" /><line x1="458.0" y1="474.4" x2="461.1" y2="474.0" /><line x1="465.7" y1="473.6" x2="469.4" y2="473.6" /><line x1="473.4" y1="474.7" x2="476.5" y2="475.1" /><line x1="481.1" y1="472.4" x2="489.6" y2="472.3" /><line x1="488.8" y1="473.8" x2="493.7" y2="473.8" /><line x1="496.5" y1="474.0" x2="505.0" y2="473.7" /><line x1="504.2" y1="473.4" x2="511.1" y2="473.4" /><line x1="511.8" y1="474.8" x2="519.4" y2="474.7" /><line x1="519.5" y1="474.0" x2="526.1" y2="473.6" /><line x1="527.2" y1="474.2" x2="535.1" y2="474.3" /><line x1="534.9" y1="474.5" x2="540.2" y2="474.7" /><line x1="542.6" y1="474.9" x2="546.9" y2="474.8" /><line x1="550.3" y1="473.8" x2="557.9" y2="473.7" /><line x1="558.0" y1="473.3" x2="565.1" y2="473.6" /><circle cx="299.8" cy="466.5" r="4.3" /><circle cx="361.5" cy="473.1" r="3.9" /><circle cx="290.5" cy="479.0" r="3.8" /><circle cx="432.7" cy="469.1" r="4.0" /><circle cx="330.2" cy="472.3" r="4.5" /><circle cx="305.9" cy="471.0" r="2.8" /><circle cx="410.4" cy="476.5" r="3.6" /></g></svg>