<?xml version='1.0' encoding='utf-8'?>
<svg xmlns="http://www.w3.org/2000/svg" xmlns:inkscape="http://www.inkscape.org/namespaces/inkscape" viewBox="204 228 408 600"><style>*{vector-effect:non-scaling-stroke}</style><g id="01_Black_Frame" inkscape:groupmode="layer" inkscape:label="01_Black_Frame" stroke="#1A1A1A" fill="none" stroke-width="0.875" stroke-linecap="round" stroke-linejoin="round"><path d="M 250.0,264.0 L 566.0,264.0 Q 576.0,264.0 576.0,274.0 L 576.0,782.0 Q 576.0,792.0 566.0,792.0 L 250.0,792.0 Q 240.0,792.0 240.0,782.0 L 240.0,274.0 Q 240.0,264.0 250.0,264.0" /><path d="M 253.0,270.0 L 563.0,270.0 Q 570.0,270.0 570.0,277.0 L 570.0,779.0 Q 570.0,786.0 563.0,786.0 L 253.0,786.0 Q 246.0,786.0 246.0,779.0 L 246.0,277.0 Q 246.0,270.0 253.0,270.0" /><line x1="259.0" y1="280.0" x2="263.0" y2="280.0" /><line x1="258.1" y1="282.1" x2="260.9" y2="284.9" /><line x1="256.0" y1="283.0" x2="256.0" y2="287.0" /><line x1="253.9" y1="282.1" x2="251.1" y2="284.9" /><line x1="253.0" y1="280.0" x2="249.0" y2="280.0" /><line x1="253.9" y1="277.9" x2="251.1" y2="275.1" /><line x1="256.0" y1="277.0" x2="256.0" y2="273.0" /><line x1="258.1" y1="277.9" x2="260.9" y2="275.1" /><line x1="563.0" y1="280.0" x2="567.0" y2="280.0" /><line x1="562.1" y1="282.1" x2="564.9" y2="284.9" /><line x1="560.0" y1="283.0" x2="560.0" y2="287.0" /><line x1="557.9" y1="282.1" x2="555.1" y2="284.9" /><line x1="557.0" y1="280.0" x2="553.0" y2="280.0" /><line x1="557.9" y1="277.9" x2="555.1" y2="275.1" /><line x1="560.0" y1="277.0" x2="560.0" y2="273.0" /><line x1="562.1" y1="277.9" x2="564.9" y2="275.1" /><line x1="259.0" y1="776.0" x2="263.0" y2="776.0" /><line x1="258.1" y1="778.1" x2="260.9" y2="780.9" /><line x1="256.0" y1="779.0" x2="256.0" y2="783.0" /><line x1="253.9" y1="778.1" x2="251.1" y2="780.9" /><line x1="253.0" y1="776.0" x2="249.0" y2="776.0" /><line x1="253.9" y1="773.9" x2="251.1" y2="771.1" /><line x1="256.0" y1="773.0" x2="256.0" y2="769.0" /><line x1="258.1" y1="773.9" x2="260.9" y2="771.1" /><line x1="563.0" y1="776.0" x2="567.0" y2="776.0" /><line x1="562.1" y1="778.1" x2="564.9" y2="780.9" /><line x1="560.0" y1="779.0" x2="560.0" y2="783.0" /><line x1="557.9" y1="778.1" x2="555.1" y2="780.9" /><line x1="557.0" y1="776.0" x2="553.0" y2="776.0" /><line x1="557.9" y1="773.9" x2="555.1" y2="771.1" /><line x1="560.0" y1="773.0" x2="560.0" y2="769.0" /><line x1="562.1" y1="773.9" x2="564.9" y2="771.1" /><polyline points="401.00,283.20 399.25,282.00 398.25,282.00 396.50,283.60 396.50,288.40 398.25,290.00 399.25,290.00 401.00,288.80" /><polyline points="402.25,282.00 402.25,290.00 406.50,290.00" /><polyline points="410.50,282.00 410.50,290.00" /><polyline points="413.75,282.00 416.25,290.00 418.75,282.00" /><polyline points="374.36,297.00 380.86,297.00" /><polyline points="377.61,297.00 377.61,307.00" /><polyline points="381.84,297.00 381.84,307.00" /><polyline points="388.34,297.00 388.34,307.00" /><polyline points="381.84,301.80 388.34,301.80" /><polyline points="394.84,297.00 389.31,297.00 389.31,301.80 393.21,301.80" /><polyline points="389.31,301.80 389.31,307.00 394.84,307.00" /><polyline points="409.79,297.00 404.26,297.00 404.26,301.80 408.16,301.80" /><polyline points="404.26,301.80 404.26,307.00" /><polyline points="414.99,297.00 412.39,298.00 411.74,300.00 411.74,304.00 412.39,306.00 414.99,307.00 417.59,306.00 418.24,304.00 418.24,300.00 417.59,298.00 414.99,297.00" /><polyline points="419.21,307.00 419.21,297.00 423.44,297.00 425.06,298.50 425.06,300.20 423.44,301.50 419.21,301.50 425.06,307.00" /><polyline points="426.69,297.00 426.69,304.50 427.99,306.50 431.89,306.50 433.19,304.50 433.19,297.00" /><polyline points="434.16,307.00 434.16,297.00 437.41,302.50 440.66,297.00 440.66,307.00" /><line x1="270.0" y1="312.0" x2="546.0" y2="312.0" /><line x1="270.0" y1="732.0" x2="546.0" y2="732.0" /><polyline points="378.18,740.75 375.80,740.75 375.80,742.91 377.48,742.91" /><polyline points="375.80,742.91 375.80,745.25" /><polyline points="380.42,740.75 379.30,741.20 379.02,742.10 379.02,743.90 379.30,744.80 380.42,745.25 381.54,744.80 381.82,743.90 381.82,742.10 381.54,741.20 380.42,740.75" /><polyline points="382.24,745.25 382.24,740.75 384.06,740.75 384.76,741.42 384.76,742.19 384.06,742.77 382.24,742.77 384.76,745.25" /><polyline points="385.46,740.75 385.46,744.12 386.02,745.02 387.70,745.02 388.26,744.12 388.26,740.75" /><polyline points="388.68,745.25 388.68,740.75 390.08,743.23 391.48,740.75 391.48,745.25" /><polyline points="398.34,745.25 398.34,740.75 399.88,740.75 400.86,741.88 400.86,744.12 399.88,745.25 398.34,745.25" /><polyline points="401.56,745.25 401.56,740.75 403.38,740.75 404.08,741.42 404.08,742.19 403.38,742.77 401.56,742.77 404.08,745.25" /><polyline points="406.18,740.75 405.06,741.20 404.78,742.10 404.78,743.90 405.06,744.80 406.18,745.25 407.30,744.80 407.58,743.90 407.58,742.10 407.30,741.20 406.18,740.75" /><polyline points="408.00,745.25 408.00,740.75 410.80,745.25 410.80,740.75" /><polyline points="413.60,740.75 411.22,740.75 411.22,742.91 412.90,742.91" /><polyline points="411.22,742.91 411.22,745.25 413.60,745.25" /><polyline points="420.88,740.75 420.88,745.25" /><polyline points="423.68,740.75 423.68,745.25" /><polyline points="420.88,742.91 423.68,742.91" /><polyline points="424.10,745.25 425.50,740.75 426.90,745.25" /><polyline points="424.60,743.67 426.40,743.67" /><polyline points="427.32,745.25 427.32,740.75 429.14,740.75 429.84,741.42 429.84,742.19 429.14,742.77 427.32,742.77 429.84,745.25" /><polyline points="430.54,745.25 430.54,740.75 432.36,740.75 432.92,741.29 432.92,742.01 432.36,742.55 430.54,742.55 432.36,742.55 432.92,743.09 432.92,744.71 432.36,745.25 430.54,745.25" /><polyline points="435.16,740.75 434.04,741.20 433.76,742.10 433.76,743.90 434.04,744.80 435.16,745.25 436.28,744.80 436.56,743.90 436.56,742.10 436.28,741.20 435.16,740.75" /><polyline points="436.98,745.25 436.98,740.75 438.80,740.75 439.50,741.42 439.50,742.19 438.80,742.77 436.98,742.77 439.50,745.25" /><polyline points="339.00,753.25 344.00,753.25" /><polyline points="341.50,753.25 341.50,760.75" /><polyline points="344.75,753.25 344.75,760.75" /><polyline points="349.75,753.25 349.75,760.75" /><polyline points="344.75,756.85 349.75,756.85" /><polyline points="354.75,753.25 350.50,753.25 350.50,756.85 353.50,756.85" /><polyline points="350.50,756.85 350.50,760.75 354.75,760.75" /><polyline points="366.25,754.00 365.00,753.25 363.50,753.25 362.25,754.38 362.00,755.50 362.75,756.40 364.50,757.00 366.25,757.60 367.00,758.50 366.75,759.62 365.50,760.75 363.75,760.75 362.50,760.00" /><polyline points="367.75,760.75 367.75,753.25 371.00,753.25 372.25,754.38 372.25,755.65 371.00,756.62 367.75,756.62" /><polyline points="377.75,753.25 373.50,753.25 373.50,756.85 376.50,756.85" /><polyline points="373.50,756.85 373.50,760.75 377.75,760.75" /><polyline points="383.50,753.25 379.25,753.25 379.25,756.85 382.25,756.85" /><polyline points="379.25,756.85 379.25,760.75 383.50,760.75" /><polyline points="389.50,754.38 387.75,753.25 386.75,753.25 385.00,754.75 385.00,759.25 386.75,760.75 387.75,760.75 389.50,759.62" /><polyline points="390.75,753.25 390.75,760.75" /><polyline points="395.75,753.25 395.75,760.75" /><polyline points="390.75,756.85 395.75,756.85" /><polyline points="402.25,753.25 403.50,760.75 404.75,755.88 406.00,760.75 407.25,753.25" /><polyline points="408.00,760.75 410.50,753.25 413.00,760.75" /><polyline points="408.90,758.12 412.10,758.12" /><polyline points="418.00,754.00 416.75,753.25 415.25,753.25 414.00,754.38 413.75,755.50 414.50,756.40 416.25,757.00 418.00,757.60 418.75,758.50 418.50,759.62 417.25,760.75 415.50,760.75 414.25,760.00" /><polyline points="425.25,753.25 427.75,760.75 430.25,753.25" /><polyline points="435.25,753.25 431.00,753.25 431.00,756.85 434.00,756.85" /><polyline points="431.00,756.85 431.00,760.75 435.25,760.75" /><polyline points="436.75,760.75 436.75,753.25 440.00,753.25 441.25,754.38 441.25,755.65 440.00,756.62 436.75,756.62 441.25,760.75" /><polyline points="442.50,753.25 445.00,757.00 447.50,753.25" /><polyline points="445.00,757.00 445.00,760.75" /><polyline points="458.50,754.38 456.75,753.25 455.75,753.25 454.00,754.75 454.00,759.25 455.75,760.75 456.75,760.75 458.50,759.62 458.50,757.00 456.50,757.00" /><polyline points="462.25,753.25 460.25,754.00 459.75,755.50 459.75,758.50 460.25,760.00 462.25,760.75 464.25,760.00 464.75,758.50 464.75,755.50 464.25,754.00 462.25,753.25" /><polyline points="468.00,753.25 466.00,754.00 465.50,755.50 465.50,758.50 466.00,760.00 468.00,760.75 470.00,760.00 470.50,758.50 470.50,755.50 470.00,754.00 468.00,753.25" /><polyline points="471.25,760.75 471.25,753.25 474.00,753.25 475.75,755.12 475.75,758.88 474.00,760.75 471.25,760.75" /><polyline points="344.75,766.25 349.75,766.25" /><polyline points="347.25,766.25 347.25,773.75" /><polyline points="350.50,766.25 350.50,773.75" /><polyline points="355.50,766.25 355.50,773.75" /><polyline points="350.50,769.85 355.50,769.85" /><polyline points="360.50,766.25 356.25,766.25 356.25,769.85 359.25,769.85" /><polyline points="356.25,769.85 356.25,773.75 360.50,773.75" /><polyline points="367.75,766.25 367.75,773.75" /><polyline points="372.75,766.25 372.75,773.75" /><polyline points="367.75,769.85 372.75,769.85" /><polyline points="373.50,773.75 376.00,766.25 378.50,773.75" /><polyline points="374.40,771.12 377.60,771.12" /><polyline points="379.25,773.75 379.25,766.25 382.50,766.25 383.75,767.38 383.75,768.65 382.50,769.62 379.25,769.62 383.75,773.75" /><polyline points="385.00,773.75 385.00,766.25 388.25,766.25 389.25,767.15 389.25,768.35 388.25,769.25 385.00,769.25 388.25,769.25 389.25,770.15 389.25,772.85 388.25,773.75 385.00,773.75" /><polyline points="393.25,766.25 391.25,767.00 390.75,768.50 390.75,771.50 391.25,773.00 393.25,773.75 395.25,773.00 395.75,771.50 395.75,768.50 395.25,767.00 393.25,766.25" /><polyline points="396.50,773.75 396.50,766.25 399.75,766.25 401.00,767.38 401.00,768.65 399.75,769.62 396.50,769.62 401.00,773.75" /><polyline points="408.00,766.25 409.25,773.75 410.50,768.88 411.75,773.75 413.00,766.25" /><polyline points="413.75,773.75 416.25,766.25 418.75,773.75" /><polyline points="414.65,771.12 417.85,771.12" /><polyline points="423.75,767.00 422.50,766.25 421.00,766.25 419.75,767.38 419.50,768.50 420.25,769.40 422.00,770.00 423.75,770.60 424.50,771.50 424.25,772.62 423.00,773.75 421.25,773.75 420.00,773.00" /><polyline points="433.50,766.25 431.50,767.00 431.00,768.50 431.00,771.50 431.50,773.00 433.50,773.75 435.50,773.00 436.00,771.50 436.00,768.50 435.50,767.00 433.50,766.25" /><polyline points="436.75,773.75 436.75,766.25 441.75,773.75 441.75,766.25" /><polyline points="452.50,766.25 448.25,766.25 448.25,769.85 451.25,769.85" /><polyline points="448.25,769.85 448.25,773.75" /><polyline points="456.50,766.25 456.50,773.75" /><polyline points="459.75,773.75 459.75,766.25 463.00,766.25 464.25,767.38 464.25,768.65 463.00,769.62 459.75,769.62 464.25,773.75" /><polyline points="469.75,766.25 465.50,766.25 465.50,769.85 468.50,769.85" /><polyline points="465.50,769.85 465.50,773.75 469.75,773.75" /><polyline points="384.08,779.50 385.68,784.50 387.28,779.50" /><polyline points="389.36,779.50 389.36,784.50" /><polyline points="393.04,784.00 393.04,784.25" /><polyline points="396.72,779.50 396.72,784.50" /><polyline points="400.40,779.50 400.40,784.50" /><polyline points="404.08,779.50 404.08,784.50" /><polyline points="407.76,784.00 407.76,784.25" /><polyline points="409.84,784.50 409.84,779.50 411.44,782.25 413.04,779.50 413.04,784.50" /><polyline points="413.52,784.50 413.52,779.50 415.12,782.25 416.72,779.50 416.72,784.50" /><polyline points="417.20,779.50 420.40,784.50" /><polyline points="420.40,779.50 417.20,784.50" /><polyline points="420.88,779.50 424.08,784.50" /><polyline points="424.08,779.50 420.88,784.50" /><polyline points="424.56,779.50 426.16,784.50 427.76,779.50" /><polyline points="429.84,779.50 429.84,784.50" /></g><g id="02_Teal_Table" inkscape:groupmode="layer" inkscape:label="02_Teal_Table" stroke="#3A7A7A" fill="none" stroke-width="0.7" stroke-linecap="round" stroke-linejoin="round"><line x1="273.84000000000003" y1="563.8" x2="542.16" y2="563.8" /><line x1="273.49333333333334" y1="566.5" x2="542.5066666666667" y2="566.5" /><line x1="273.1466666666667" y1="569.2" x2="542.8533333333334" y2="569.2" /><line x1="272.8" y1="572.0" x2="543.1999999999999" y2="572.0" /><line x1="272.4533333333334" y1="574.7" x2="543.5466666666666" y2="574.7" /><line x1="272.1066666666667" y1="577.4" x2="543.8933333333333" y2="577.4" /><line x1="271.76000000000005" y1="580.1" x2="544.24" y2="580.1" /><line x1="271.41333333333336" y1="582.8" x2="544.5866666666666" y2="582.8" /><line x1="271.0666666666667" y1="585.6" x2="544.9333333333333" y2="585.6" /><line x1="270.72" y1="588.3" x2="545.28" y2="588.3" /><line x1="298.8" y1="588.3" x2="298.8" y2="620.9" /><line x1="345.6" y1="588.3" x2="345.6" y2="620.9" /><line x1="392.4" y1="588.3" x2="392.4" y2="620.9" /><line x1="439.2" y1="588.3" x2="439.2" y2="620.9" /><line x1="486.0" y1="588.3" x2="486.0" y2="620.9" /><line x1="526.6" y1="588.3" x2="526.6" y2="620.9" /><line x1="270.72" y1="620.9" x2="545.28" y2="620.9" /></g><g id="03_Gold_Fire" inkscape:groupmode="layer" inkscape:label="03_Gold_Fire" stroke="#B8960C" fill="none" stroke-width="0.95" stroke-linecap="round" stroke-linejoin="round"><line x1="320.6" y1="565.8" x2="308.2" y2="497.6" /><line x1="308.2" y1="497.6" x2="278.8" y2="460.2" /><line x1="278.8" y1="460.2" x2="252.0" y2="445.9" /><line x1="252.0" y1="445.9" x2="252.0" y2="445.5" /><line x1="252.0" y1="445.5" x2="252.0" y2="451.5" /><line x1="252.0" y1="451.5" x2="252.0" y2="459.0" /><line x1="252.0" y1="459.0" x2="252.0" y2="466.6" /><line x1="252.0" y1="466.6" x2="252.0" y2="473.3" /><line x1="252.0" y1="466.6" x2="252.0" y2="470.8" /><line x1="252.0" y1="459.0" x2="252.0" y2="462.4" /><line x1="252.0" y1="462.4" x2="252.0" y2="464.3" /><line x1="252.0" y1="451.5" x2="252.0" y2="452.2" /><line x1="252.0" y1="452.2" x2="252.0" y2="455.1" /><line x1="252.0" y1="455.1" x2="252.0" y2="458.3" /><line x1="252.0" y1="455.1" x2="252.0" y2="456.4" /><line x1="252.0" y1="452.2" x2="252.0" y2="450.0" /><line x1="252.0" y1="450.0" x2="252.0" y2="450.4" /><line x1="252.0" y1="450.0" x2="252.0" y2="447.4" /><line x1="252.0" y1="445.5" x2="252.0" y2="440.6" /><line x1="252.0" y1="440.6" x2="252.0" y2="440.4" /><line x1="252.0" y1="440.4" x2="252.0" y2="443.0" /><line x1="252.0" y1="443.0" x2="252.0" y2="446.3" /><line x1="252.0" y1="443.0" x2="252.0" y2="443.8" /><line x1="252.0" y1="440.4" x2="252.0" y2="437.5" /><line x1="252.0" y1="437.5" x2="252.0" y2="435.5" /><line x1="252.0" y1="440.6" x2="252.0" y2="433.0" /><line x1="252.0" y1="433.0" x2="252.0" y2="429.2" /><line x1="252.0" y1="429.2" x2="252.0" y2="427.8" /><line x1="252.0" y1="429.2" x2="252.0" y2="425.1" /><line x1="252.0" y1="433.0" x2="252.0" y2="426.3" /><line x1="252.0" y1="426.3" x2="252.0" y2="422.2" /><line x1="252.0" y1="445.9" x2="252.0" y2="427.7" /><line x1="252.0" y1="427.7" x2="252.0" y2="420.9" /><line x1="252.0" y1="420.9" x2="252.0" y2="419.6" /><line x1="252.0" y1="419.6" x2="252.0" y2="422.2" /><line x1="252.0" y1="422.2" x2="252.0" y2="424.8" /><line x1="252.0" y1="422.2" x2="252.0" y2="422.8" /><line x1="252.0" y1="419.6" x2="252.0" y2="415.6" /><line x1="252.0" y1="415.6" x2="252.0" y2="414.4" /><line x1="252.0" y1="415.6" x2="252.0" y2="411.6" /><line x1="252.0" y1="420.9" x2="252.0" y2="412.4" /><line x1="252.0" y1="412.4" x2="252.0" y2="408.1" /><line x1="252.0" y1="408.1" x2="252.0" y2="405.2" /><line x1="252.0" y1="412.4" x2="252.0" y2="405.4" /><line x1="252.0" y1="405.4" x2="252.0" y2="401.7" /><line x1="252.0" y1="405.4" x2="252.0" y2="400.3" /><line x1="252.0" y1="427.7" x2="252.0" y2="412.2" /><line x1="252.0" y1="412.2" x2="252.0" y2="403.7" /><line x1="252.0" y1="403.7" x2="252.0" y2="400.6" /><line x1="252.0" y1="400.6" x2="252.0" y2="399.7" /><line x1="252.0" y1="400.6" x2="252.0" y2="397.5" /><line x1="252.0" y1="403.7" x2="252.0" y2="395.9" /><line x1="252.0" y1="395.9" x2="252.0" y2="391.1" /><line x1="252.0" y1="395.9" x2="252.0" y2="389.5" /><line x1="252.0" y1="412.2" x2="252.0" y2="400.5" /><line x1="252.0" y1="400.5" x2="252.0" y2="392.8" /><line x1="252.0" y1="392.8" x2="252.0" y2="388.2" /><line x1="252.0" y1="392.8" x2="252.0" y2="387.1" /><line x1="252.0" y1="400.5" x2="252.5" y2="392.7" /><line x1="252.5" y1="392.7" x2="253.4" y2="387.2" /><line x1="278.8" y1="460.2" x2="273.5" y2="428.9" /><line x1="273.5" y1="428.9" x2="262.2" y2="411.0" /><line x1="262.2" y1="411.0" x2="252.0" y2="403.1" /><line x1="252.0" y1="403.1" x2="252.0" y2="401.4" /><line x1="252.0" y1="401.4" x2="252.0" y2="402.4" /><line x1="252.0" y1="402.4" x2="252.0" y2="402.8" /><line x1="252.0" y1="401.4" x2="252.0" y2="398.5" /><line x1="252.0" y1="398.5" x2="252.0" y2="397.3" /><line x1="252.0" y1="398.5" x2="252.0" y2="395.9" /><line x1="252.0" y1="403.1" x2="252.0" y2="395.5" /><line x1="252.0" y1="395.5" x2="252.0" y2="391.8" /><line x1="252.0" y1="391.8" x2="252.0" y2="390.7" /><line x1="252.0" y1="391.8" x2="252.0" y2="388.4" /><line x1="252.0" y1="395.5" x2="252.0" y2="389.0" /><line x1="252.0" y1="389.0" x2="252.0" y2="385.0" /><line x1="252.0" y1="389.0" x2="252.0" y2="383.9" /><line x1="262.2" y1="411.0" x2="260.8" y2="397.3" /><line x1="260.8" y1="397.3" x2="257.5" y2="387.8" /><line x1="257.5" y1="387.8" x2="253.0" y2="382.5" /><line x1="253.0" y1="382.5" x2="252.0" y2="379.7" /><line x1="253.0" y1="382.5" x2="252.0" y2="378.2" /><line x1="257.5" y1="387.8" x2="257.0" y2="380.8" /><line x1="257.0" y1="380.8" x2="257.0" y2="375.7" /><line x1="260.8" y1="397.3" x2="263.0" y2="388.0" /><line x1="263.0" y1="388.0" x2="263.1" y2="381.2" /><line x1="263.1" y1="381.2" x2="263.4" y2="376.5" /><line x1="263.0" y1="388.0" x2="267.0" y2="382.0" /><line x1="267.0" y1="382.0" x2="268.6" y2="377.0" /><line x1="267.0" y1="382.0" x2="270.8" y2="378.3" /><line x1="273.5" y1="428.9" x2="278.2" y2="409.0" /><line x1="278.2" y1="409.0" x2="277.0" y2="394.6" /><line x1="277.0" y1="394.6" x2="272.4" y2="386.1" /><line x1="272.4" y1="386.1" x2="267.4" y2="381.8" /><line x1="267.4" y1="381.8" x2="263.3" y2="380.2" /><line x1="267.4" y1="381.8" x2="264.6" y2="378.1" /><line x1="272.4" y1="386.1" x2="271.5" y2="379.4" /><line x1="271.5" y1="379.4" x2="270.8" y2="375.1" /><line x1="277.0" y1="394.6" x2="279.4" y2="384.5" /><line x1="279.4" y1="384.5" x2="278.8" y2="376.8" /><line x1="278.8" y1="376.8" x2="277.1" y2="371.9" /><line x1="278.8" y1="376.8" x2="279.4" y2="371.5" /><line x1="279.4" y1="384.5" x2="282.4" y2="377.7" /><line x1="282.4" y1="377.7" x2="283.3" y2="372.2" /><line x1="282.4" y1="377.7" x2="285.4" y2="373.5" /><line x1="278.2" y1="409.0" x2="287.3" y2="397.6" /><line x1="287.3" y1="397.6" x2="290.4" y2="387.7" /><line x1="290.4" y1="387.7" x2="290.9" y2="380.5" /><line x1="290.9" y1="380.5" x2="291.4" y2="375.5" /><line x1="290.4" y1="387.7" x2="294.3" y2="381.4" /><line x1="294.3" y1="381.4" x2="297.0" y2="377.3" /><line x1="287.3" y1="397.6" x2="295.8" y2="393.0" /><line x1="295.8" y1="393.0" x2="301.1" y2="388.7" /><line x1="301.1" y1="388.7" x2="304.0" y2="384.5" /><line x1="301.1" y1="388.7" x2="305.8" y2="386.8" /><line x1="295.8" y1="393.0" x2="302.2" y2="392.1" /><line x1="302.2" y1="392.1" x2="306.5" y2="390.4" /><line x1="302.2" y1="392.1" x2="306.4" y2="392.6" /><line x1="308.2" y1="497.6" x2="321.4" y2="450.3" /><line x1="321.4" y1="450.3" x2="313.6" y2="415.1" /><line x1="313.6" y1="415.1" x2="299.7" y2="391.5" /><line x1="299.7" y1="391.5" x2="283.9" y2="379.3" /><line x1="283.9" y1="379.3" x2="270.8" y2="375.7" /><line x1="270.8" y1="375.7" x2="260.7" y2="375.5" /><line x1="260.7" y1="375.5" x2="253.3" y2="377.1" /><line x1="260.7" y1="375.5" x2="253.8" y2="373.8" /><line x1="270.8" y1="375.7" x2="263.6" y2="370.5" /><line x1="263.6" y1="370.5" x2="258.3" y2="367.8" /><line x1="263.6" y1="370.5" x2="259.8" y2="366.2" /><line x1="283.9" y1="379.3" x2="275.7" y2="368.4" /><line x1="275.7" y1="368.4" x2="268.4" y2="362.1" /><line x1="268.4" y1="362.1" x2="262.7" y2="358.9" /><line x1="268.4" y1="362.1" x2="264.4" y2="356.8" /><line x1="275.7" y1="368.4" x2="271.9" y2="359.3" /><line x1="271.9" y1="359.3" x2="269.3" y2="352.5" /><line x1="299.7" y1="391.5" x2="295.1" y2="372.6" /><line x1="295.1" y1="372.6" x2="287.6" y2="362.2" /><line x1="287.6" y1="362.2" x2="280.4" y2="357.0" /><line x1="280.4" y1="357.0" x2="275.6" y2="352.7" /><line x1="287.6" y1="362.2" x2="284.5" y2="353.8" /><line x1="284.5" y1="353.8" x2="281.0" y2="348.7" /><line x1="284.5" y1="353.8" x2="283.3" y2="347.8" /><line x1="295.1" y1="372.6" x2="296.0" y2="358.4" /><line x1="296.0" y1="358.4" x2="293.9" y2="348.1" /><line x1="293.9" y1="348.1" x2="292.5" y2="340.6" /><line x1="296.0" y1="358.4" x2="299.1" y2="348.4" /><line x1="299.1" y1="348.4" x2="298.8" y2="340.5" /><line x1="299.1" y1="348.4" x2="303.6" y2="342.3" /><line x1="313.6" y1="415.1" x2="320.0" y2="392.4" /><line x1="320.0" y1="392.4" x2="320.3" y2="375.0" /><line x1="320.3" y1="375.0" x2="317.8" y2="363.9" /><line x1="317.8" y1="363.9" x2="314.0" y2="356.6" /><line x1="314.0" y1="356.6" x2="309.9" y2="352.5" /><line x1="314.0" y1="356.6" x2="312.7" y2="350.4" /><line x1="317.8" y1="363.9" x2="319.0" y2="356.2" /><line x1="319.0" y1="356.2" x2="318.8" y2="350.6" /><line x1="319.0" y1="356.2" x2="321.2" y2="351.3" /><line x1="320.3" y1="375.0" x2="323.9" y2="363.9" /><line x1="323.9" y1="363.9" x2="323.9" y2="355.2" /><line x1="323.9" y1="355.2" x2="322.6" y2="349.4" /><line x1="323.9" y1="355.2" x2="325.1" y2="349.4" /><line x1="323.9" y1="363.9" x2="329.0" y2="357.9" /><line x1="329.0" y1="357.9" x2="332.0" y2="353.8" /><line x1="320.0" y1="392.4" x2="329.7" y2="380.6" /><line x1="329.7" y1="380.6" x2="334.7" y2="370.4" /><line x1="334.7" y1="370.4" x2="335.7" y2="363.1" /><line x1="335.7" y1="363.1" x2="336.3" y2="357.9" /><line x1="334.7" y1="370.4" x2="340.4" y2="364.4" /><line x1="340.4" y1="364.4" x2="342.6" y2="359.4" /><line x1="340.4" y1="364.4" x2="344.9" y2="360.9" /><line x1="329.7" y1="380.6" x2="339.8" y2="374.8" /><line x1="339.8" y1="374.8" x2="345.6" y2="368.3" /><line x1="345.6" y1="368.3" x2="348.9" y2="362.9" /><line x1="345.6" y1="368.3" x2="350.7" y2="364.8" /><line x1="339.8" y1="374.8" x2="347.8" y2="373.3" /><line x1="347.8" y1="373.3" x2="352.5" y2="371.2" /><line x1="347.8" y1="373.3" x2="353.1" y2="373.5" /><line x1="321.4" y1="450.3" x2="345.8" y2="425.1" /><line x1="345.8" y1="425.1" x2="355.0" y2="403.5" /><line x1="355.0" y1="403.5" x2="356.7" y2="387.3" /><line x1="356.7" y1="387.3" x2="353.5" y2="376.7" /><line x1="353.5" y1="376.7" x2="349.3" y2="370.2" /><line x1="349.3" y1="370.2" x2="345.7" y2="366.0" /><line x1="349.3" y1="370.2" x2="347.5" y2="364.7" /><line x1="353.5" y1="376.7" x2="353.7" y2="368.4" /><line x1="353.7" y1="368.4" x2="352.4" y2="362.4" /><line x1="353.7" y1="368.4" x2="355.4" y2="363.0" /><line x1="356.7" y1="387.3" x2="362.4" y2="377.6" /><line x1="362.4" y1="377.6" x2="364.4" y2="369.5" /><line x1="364.4" y1="369.5" x2="364.5" y2="364.1" /><line x1="364.4" y1="369.5" x2="366.9" y2="364.6" /><line x1="362.4" y1="377.6" x2="368.2" y2="372.7" /><line x1="368.2" y1="372.7" x2="372.2" y2="369.4" /><line x1="355.0" y1="403.5" x2="366.0" y2="390.9" /><line x1="366.0" y1="390.9" x2="369.9" y2="378.8" /><line x1="369.9" y1="378.8" x2="370.3" y2="370.1" /><line x1="370.3" y1="370.1" x2="369.5" y2="364.0" /><line x1="369.9" y1="378.8" x2="375.8" y2="371.5" /><line x1="375.8" y1="371.5" x2="378.7" y2="366.0" /><line x1="375.8" y1="371.5" x2="380.9" y2="367.2" /><line x1="366.0" y1="390.9" x2="377.0" y2="385.1" /><line x1="377.0" y1="385.1" x2="383.1" y2="380.1" /><line x1="383.1" y1="380.1" x2="387.5" y2="376.8" /><line x1="377.0" y1="385.1" x2="385.5" y2="382.7" /><line x1="385.5" y1="382.7" x2="390.8" y2="380.1" /><line x1="385.5" y1="382.7" x2="392.1" y2="382.6" /><line x1="345.8" y1="425.1" x2="368.5" y2="416.9" /><line x1="368.5" y1="416.9" x2="381.4" y2="407.2" /><line x1="381.4" y1="407.2" x2="387.7" y2="398.8" /><line x1="387.7" y1="398.8" x2="390.4" y2="392.2" /><line x1="390.4" y1="392.2" x2="392.0" y2="387.6" /><line x1="387.7" y1="398.8" x2="393.6" y2="394.2" /><line x1="393.6" y1="394.2" x2="396.4" y2="389.7" /><line x1="393.6" y1="394.2" x2="398.8" y2="392.4" /><line x1="381.4" y1="407.2" x2="392.3" y2="403.3" /><line x1="392.3" y1="403.3" x2="399.3" y2="398.3" /><line x1="399.3" y1="398.3" x2="403.3" y2="394.4" /><line x1="399.3" y1="398.3" x2="404.6" y2="395.9" /><line x1="392.3" y1="403.3" x2="400.2" y2="403.2" /><line x1="400.2" y1="403.2" x2="406.1" y2="403.1" /><line x1="368.5" y1="416.9" x2="385.7" y2="417.9" /><line x1="385.7" y1="417.9" x2="396.5" y2="413.8" /><line x1="396.5" y1="413.8" x2="403.1" y2="408.5" /><line x1="403.1" y1="408.5" x2="406.5" y2="403.4" /><line x1="403.1" y1="408.5" x2="408.6" y2="405.6" /><line x1="396.5" y1="413.8" x2="404.8" y2="413.7" /><line x1="404.8" y1="413.7" x2="410.1" y2="413.7" /><line x1="385.7" y1="417.9" x2="397.2" y2="422.3" /><line x1="397.2" y1="422.3" x2="406.5" y2="422.9" /><line x1="406.5" y1="422.9" x2="413.4" y2="423.9" /><line x1="397.2" y1="422.3" x2="404.0" y2="426.8" /><line x1="404.0" y1="426.8" x2="408.9" y2="430.2" /><line x1="383.0" y1="560.8" x2="385.8" y2="491.5" /><line x1="385.8" y1="491.5" x2="364.7" y2="449.6" /><line x1="364.7" y1="449.6" x2="339.3" y2="432.5" /><line x1="339.3" y1="432.5" x2="318.7" y2="428.7" /><line x1="318.7" y1="428.7" x2="305.5" y2="432.0" /><line x1="305.5" y1="432.0" x2="297.7" y2="437.3" /><line x1="297.7" y1="437.3" x2="293.5" y2="442.6" /><line x1="293.5" y1="442.6" x2="290.6" y2="446.7" /><line x1="297.7" y1="437.3" x2="291.1" y2="439.8" /><line x1="291.1" y1="439.8" x2="287.1" y2="443.1" /><line x1="291.1" y1="439.8" x2="286.2" y2="440.8" /><line x1="305.5" y1="432.0" x2="296.4" y2="432.0" /><line x1="296.4" y1="432.0" x2="290.1" y2="434.2" /><line x1="290.1" y1="434.2" x2="286.3" y2="436.7" /><line x1="290.1" y1="434.2" x2="285.3" y2="434.4" /><line x1="296.4" y1="432.0" x2="290.5" y2="430.1" /><line x1="290.5" y1="430.1" x2="286.0" y2="429.7" /><line x1="290.5" y1="430.1" x2="286.6" y2="428.1" /><line x1="318.7" y1="428.7" x2="306.3" y2="422.7" /><line x1="306.3" y1="422.7" x2="297.4" y2="421.0" /><line x1="297.4" y1="421.0" x2="291.7" y2="421.6" /><line x1="291.7" y1="421.6" x2="287.3" y2="421.6" /><line x1="297.4" y1="421.0" x2="291.6" y2="417.6" /><line x1="291.6" y1="417.6" x2="287.6" y2="414.5" /><line x1="306.3" y1="422.7" x2="299.2" y2="416.4" /><line x1="299.2" y1="416.4" x2="292.7" y2="414.1" /><line x1="292.7" y1="414.1" x2="288.7" y2="412.2" /><line x1="299.2" y1="416.4" x2="295.9" y2="410.3" /><line x1="295.9" y1="410.3" x2="293.2" y2="405.8" /><line x1="339.3" y1="432.5" x2="326.0" y2="413.7" /><line x1="326.0" y1="413.7" x2="314.0" y2="404.9" /><line x1="314.0" y1="404.9" x2="303.1" y2="402.2" /><line x1="303.1" y1="402.2" x2="295.6" y2="402.2" /><line x1="295.6" y1="402.2" x2="290.7" y2="403.7" /><line x1="295.6" y1="402.2" x2="290.5" y2="401.4" /><line x1="303.1" y1="402.2" x2="296.6" y2="397.7" /><line x1="296.6" y1="397.7" x2="292.4" y2="394.2" /><line x1="314.0" y1="404.9" x2="307.3" y2="396.2" /><line x1="307.3" y1="396.2" x2="300.6" y2="391.6" /><line x1="300.6" y1="391.6" x2="296.3" y2="388.1" /><line x1="307.3" y1="396.2" x2="304.1" y2="389.4" /><line x1="304.1" y1="389.4" x2="301.2" y2="384.6" /><line x1="326.0" y1="413.7" x2="320.1" y2="397.4" /><line x1="320.1" y1="397.4" x2="312.2" y2="387.7" /><line x1="312.2" y1="387.7" x2="305.2" y2="382.6" /><line x1="305.2" y1="382.6" x2="300.2" y2="379.9" /><line x1="312.2" y1="387.7" x2="309.0" y2="380.2" /><line x1="309.0" y1="380.2" x2="305.4" y2="376.1" /><line x1="309.0" y1="380.2" x2="308.2" y2="374.5" /><line x1="320.1" y1="397.4" x2="319.1" y2="386.2" /><line x1="319.1" y1="386.2" x2="316.0" y2="379.6" /><line x1="316.0" y1="379.6" x2="313.7" y2="375.3" /><line x1="319.1" y1="386.2" x2="320.7" y2="379.1" /><line x1="320.7" y1="379.1" x2="321.8" y2="374.4" /><line x1="364.7" y1="449.6" x2="366.5" y2="416.4" /><line x1="366.5" y1="416.4" x2="357.8" y2="393.0" /><line x1="357.8" y1="393.0" x2="345.6" y2="379.8" /><line x1="345.6" y1="379.8" x2="335.6" y2="373.5" /><line x1="335.6" y1="373.5" x2="327.2" y2="371.4" /><line x1="327.2" y1="371.4" x2="321.2" y2="371.5" /><line x1="327.2" y1="371.4" x2="322.2" y2="368.2" /><line x1="335.6" y1="373.5" x2="330.5" y2="366.9" /><line x1="330.5" y1="366.9" x2="326.7" y2="362.4" /><line x1="345.6" y1="379.8" x2="339.6" y2="367.7" /><line x1="339.6" y1="367.7" x2="333.1" y2="361.3" /><line x1="333.1" y1="361.3" x2="328.6" y2="356.4" /><line x1="339.6" y1="367.7" x2="338.4" y2="358.5" /><line x1="338.4" y1="358.5" x2="335.7" y2="352.4" /><line x1="338.4" y1="358.5" x2="339.2" y2="352.2" /><line x1="357.8" y1="393.0" x2="358.2" y2="376.1" /><line x1="358.2" y1="376.1" x2="353.9" y2="365.2" /><line x1="353.9" y1="365.2" x2="348.8" y2="358.9" /><line x1="348.8" y1="358.9" x2="343.5" y2="355.7" /><line x1="348.8" y1="358.9" x2="346.3" y2="353.8" /><line x1="353.9" y1="365.2" x2="353.8" y2="356.5" /><line x1="353.8" y1="356.5" x2="353.1" y2="350.2" /><line x1="358.2" y1="376.1" x2="363.5" y2="364.6" /><line x1="363.5" y1="364.6" x2="364.4" y2="355.5" /><line x1="364.4" y1="355.5" x2="364.0" y2="349.4" /><line x1="364.4" y1="355.5" x2="366.2" y2="349.7" /><line x1="363.5" y1="364.6" x2="369.3" y2="357.8" /><line x1="369.3" y1="357.8" x2="373.5" y2="353.1" /><line x1="366.5" y1="416.4" x2="376.0" y2="394.1" /><line x1="376.0" y1="394.1" x2="376.4" y2="377.6" /><line x1="376.4" y1="377.6" x2="372.9" y2="366.7" /><line x1="372.9" y1="366.7" x2="368.9" y2="359.5" /><line x1="368.9" y1="359.5" x2="365.3" y2="355.0" /><line x1="368.9" y1="359.5" x2="367.1" y2="353.6" /><line x1="372.9" y1="366.7" x2="372.6" y2="358.8" /><line x1="372.6" y1="358.8" x2="371.1" y2="353.5" /><line x1="372.6" y1="358.8" x2="374.0" y2="353.8" /><line x1="376.4" y1="377.6" x2="380.9" y2="366.4" /><line x1="380.9" y1="366.4" x2="382.0" y2="357.8" /><line x1="382.0" y1="357.8" x2="382.9" y2="351.3" /><line x1="380.9" y1="366.4" x2="386.5" y2="360.6" /><line x1="386.5" y1="360.6" x2="390.7" y2="357.0" /><line x1="376.0" y1="394.1" x2="386.0" y2="381.8" /><line x1="386.0" y1="381.8" x2="389.0" y2="371.6" /><line x1="389.0" y1="371.6" x2="388.7" y2="364.6" /><line x1="388.7" y1="364.6" x2="388.0" y2="360.0" /><line x1="389.0" y1="371.6" x2="393.2" y2="365.5" /><line x1="393.2" y1="365.5" x2="394.6" y2="360.7" /><line x1="393.2" y1="365.5" x2="396.9" y2="362.4" /><line x1="386.0" y1="381.8" x2="395.1" y2="374.6" /><line x1="395.1" y1="374.6" x2="399.6" y2="368.1" /><line x1="399.6" y1="368.1" x2="401.1" y2="362.9" /><line x1="399.6" y1="368.1" x2="403.9" y2="364.0" /><line x1="395.1" y1="374.6" x2="402.2" y2="370.9" /><line x1="402.2" y1="370.9" x2="407.0" y2="368.8" /><line x1="385.8" y1="491.5" x2="409.1" y2="448.7" /><line x1="409.1" y1="448.7" x2="411.6" y2="414.1" /><line x1="411.6" y1="414.1" x2="403.1" y2="391.6" /><line x1="403.1" y1="391.6" x2="392.5" y2="377.6" /><line x1="392.5" y1="377.6" x2="383.0" y2="370.4" /><line x1="383.0" y1="370.4" x2="375.0" y2="366.6" /><line x1="375.0" y1="366.6" x2="369.0" y2="364.0" /><line x1="383.0" y1="370.4" x2="378.8" y2="364.1" /><line x1="378.8" y1="364.1" x2="374.6" y2="360.8" /><line x1="378.8" y1="364.1" x2="377.4" y2="358.5" /><line x1="392.5" y1="377.6" x2="388.3" y2="365.3" /><line x1="388.3" y1="365.3" x2="382.6" y2="358.3" /><line x1="382.6" y1="358.3" x2="377.7" y2="354.2" /><line x1="382.6" y1="358.3" x2="379.9" y2="353.2" /><line x1="388.3" y1="365.3" x2="387.3" y2="356.2" /><line x1="387.3" y1="356.2" x2="385.7" y2="350.4" /><line x1="387.3" y1="356.2" x2="387.8" y2="350.1" /><line x1="403.1" y1="391.6" x2="401.5" y2="376.1" /><line x1="401.5" y1="376.1" x2="396.7" y2="367.2" /><line x1="396.7" y1="367.2" x2="391.8" y2="362.5" /><line x1="391.8" y1="362.5" x2="388.5" y2="359.7" /><line x1="396.7" y1="367.2" x2="394.8" y2="360.6" /><line x1="394.8" y1="360.6" x2="392.3" y2="356.3" /><line x1="394.8" y1="360.6" x2="394.9" y2="355.5" /><line x1="401.5" y1="376.1" x2="404.8" y2="365.9" /><line x1="404.8" y1="365.9" x2="405.6" y2="359.0" /><line x1="405.6" y1="359.0" x2="406.2" y2="353.9" /><line x1="404.8" y1="365.9" x2="408.6" y2="358.9" /><line x1="408.6" y1="358.9" x2="410.4" y2="353.5" /><line x1="408.6" y1="358.9" x2="412.1" y2="355.2" /><line x1="411.6" y1="414.1" x2="421.4" y2="390.2" /><line x1="421.4" y1="390.2" x2="420.6" y2="370.6" /><line x1="420.6" y1="370.6" x2="416.0" y2="356.6" /><line x1="416.0" y1="356.6" x2="410.4" y2="348.8" /><line x1="410.4" y1="348.8" x2="405.3" y2="345.2" /><line x1="410.4" y1="348.8" x2="408.1" y2="343.1" /><line x1="416.0" y1="356.6" x2="415.2" y2="347.1" /><line x1="415.2" y1="347.1" x2="415.3" y2="340.5" /><line x1="420.6" y1="370.6" x2="424.3" y2="357.3" /><line x1="424.3" y1="357.3" x2="424.6" y2="347.6" /><line x1="424.6" y1="347.6" x2="423.7" y2="341.0" /><line x1="424.6" y1="347.6" x2="426.8" y2="341.4" /><line x1="424.3" y1="357.3" x2="429.4" y2="349.9" /><line x1="429.4" y1="349.9" x2="431.2" y2="344.2" /><line x1="429.4" y1="349.9" x2="434.4" y2="345.8" /><line x1="421.4" y1="390.2" x2="434.3" y2="375.7" /><line x1="434.3" y1="375.7" x2="438.8" y2="363.9" /><line x1="438.8" y1="363.9" x2="438.9" y2="355.1" /><line x1="438.9" y1="355.1" x2="439.5" y2="349.0" /><line x1="438.8" y1="363.9" x2="443.8" y2="356.5" /><line x1="443.8" y1="356.5" x2="447.1" y2="351.2" /><line x1="434.3" y1="375.7" x2="446.5" y2="368.2" /><line x1="446.5" y1="368.2" x2="454.1" y2="361.3" /><line x1="454.1" y1="361.3" x2="457.3" y2="355.5" /><line x1="454.1" y1="361.3" x2="460.6" y2="357.8" /><line x1="446.5" y1="368.2" x2="456.7" y2="364.6" /><line x1="456.7" y1="364.6" x2="462.5" y2="360.0" /><line x1="456.7" y1="364.6" x2="464.0" y2="364.0" /><line x1="409.1" y1="448.7" x2="439.2" y2="427.9" /><line x1="439.2" y1="427.9" x2="454.6" y2="406.8" /><line x1="454.6" y1="406.8" x2="458.5" y2="388.4" /><line x1="458.5" y1="388.4" x2="457.3" y2="376.3" /><line x1="457.3" y1="376.3" x2="453.5" y2="367.9" /><line x1="453.5" y1="367.9" x2="449.6" y2="362.8" /><line x1="453.5" y1="367.9" x2="452.4" y2="362.0" /><line x1="457.3" y1="376.3" x2="458.2" y2="368.5" /><line x1="458.2" y1="368.5" x2="458.4" y2="363.2" /><line x1="458.5" y1="388.4" x2="465.5" y2="376.4" /><line x1="465.5" y1="376.4" x2="467.9" y2="366.5" /><line x1="467.9" y1="366.5" x2="469.6" y2="359.9" /><line x1="465.5" y1="376.4" x2="472.4" y2="370.6" /><line x1="472.4" y1="370.6" x2="477.1" y2="366.2" /><line x1="454.6" y1="406.8" x2="468.5" y2="396.6" /><line x1="468.5" y1="396.6" x2="475.2" y2="386.8" /><line x1="475.2" y1="386.8" x2="478.0" y2="379.6" /><line x1="478.0" y1="379.6" x2="478.6" y2="374.3" /><line x1="478.0" y1="379.6" x2="480.8" y2="374.6" /><line x1="475.2" y1="386.8" x2="482.3" y2="381.8" /><line x1="482.3" y1="381.8" x2="485.6" y2="376.9" /><line x1="482.3" y1="381.8" x2="487.4" y2="379.4" /><line x1="468.5" y1="396.6" x2="479.7" y2="392.9" /><line x1="479.7" y1="392.9" x2="486.6" y2="387.5" /><line x1="486.6" y1="387.5" x2="491.3" y2="384.1" /><line x1="479.7" y1="392.9" x2="488.4" y2="393.3" /><line x1="488.4" y1="393.3" x2="494.5" y2="394.4" /><line x1="439.2" y1="427.9" x2="465.0" y2="423.7" /><line x1="465.0" y1="423.7" x2="481.0" y2="412.6" /><line x1="481.0" y1="412.6" x2="488.0" y2="401.2" /><line x1="488.0" y1="401.2" x2="490.1" y2="391.5" /><line x1="490.1" y1="391.5" x2="490.6" y2="384.0" /><line x1="490.1" y1="391.5" x2="493.6" y2="385.1" /><line x1="488.0" y1="401.2" x2="493.9" y2="394.9" /><line x1="493.9" y1="394.9" x2="497.8" y2="390.7" /><line x1="481.0" y1="412.6" x2="495.1" y2="409.3" /><line x1="495.1" y1="409.3" x2="504.1" y2="404.5" /><line x1="504.1" y1="404.5" x2="509.2" y2="400.3" /><line x1="504.1" y1="404.5" x2="511.2" y2="402.4" /><line x1="495.1" y1="409.3" x2="504.8" y2="409.8" /><line x1="504.8" y1="409.8" x2="511.9" y2="410.9" /><line x1="465.0" y1="423.7" x2="482.4" y2="425.8" /><line x1="482.4" y1="425.8" x2="494.5" y2="423.1" /><line x1="494.5" y1="423.1" x2="502.2" y2="419.4" /><line x1="502.2" y1="419.4" x2="506.9" y2="415.2" /><line x1="502.2" y1="419.4" x2="507.6" y2="417.7" /><line x1="494.5" y1="423.1" x2="503.3" y2="423.5" /><line x1="503.3" y1="423.5" x2="509.8" y2="423.7" /><line x1="482.4" y1="425.8" x2="493.4" y2="429.8" /><line x1="493.4" y1="429.8" x2="501.3" y2="429.7" /><line x1="501.3" y1="429.7" x2="506.6" y2="427.9" /><line x1="501.3" y1="429.7" x2="506.9" y2="431.5" /><line x1="493.4" y1="429.8" x2="500.6" y2="434.3" /><line x1="500.6" y1="434.3" x2="505.6" y2="437.4" /><line x1="445.4" y1="563.8" x2="453.7" y2="494.9" /><line x1="453.7" y1="494.9" x2="442.4" y2="451.2" /><line x1="442.4" y1="451.2" x2="424.6" y2="426.0" /><line x1="424.6" y1="426.0" x2="405.1" y2="413.5" /><line x1="405.1" y1="413.5" x2="390.6" y2="409.8" /><line x1="390.6" y1="409.8" x2="379.2" y2="410.5" /><line x1="379.2" y1="410.5" x2="371.6" y2="413.7" /><line x1="371.6" y1="413.7" x2="365.7" y2="415.7" /><line x1="379.2" y1="410.5" x2="371.8" y2="408.3" /><line x1="371.8" y1="408.3" x2="366.4" y2="406.7" /><line x1="390.6" y1="409.8" x2="382.1" y2="404.1" /><line x1="382.1" y1="404.1" x2="375.0" y2="401.8" /><line x1="375.0" y1="401.8" x2="370.1" y2="401.2" /><line x1="375.0" y1="401.8" x2="370.3" y2="399.2" /><line x1="382.1" y1="404.1" x2="378.1" y2="398.6" /><line x1="378.1" y1="398.6" x2="374.9" y2="395.6" /><line x1="378.1" y1="398.6" x2="376.6" y2="394.4" /><line x1="405.1" y1="413.5" x2="395.3" y2="401.3" /><line x1="395.3" y1="401.3" x2="385.3" y2="395.2" /><line x1="385.3" y1="395.2" x2="376.7" y2="393.2" /><line x1="376.7" y1="393.2" x2="370.9" y2="391.9" /><line x1="385.3" y1="395.2" x2="379.1" y2="389.2" /><line x1="379.1" y1="389.2" x2="375.4" y2="384.7" /><line x1="395.3" y1="401.3" x2="391.1" y2="390.5" /><line x1="391.1" y1="390.5" x2="386.0" y2="384.7" /><line x1="386.0" y1="384.7" x2="382.0" y2="381.7" /><line x1="386.0" y1="384.7" x2="383.5" y2="379.8" /><line x1="391.1" y1="390.5" x2="390.6" y2="383.0" /><line x1="390.6" y1="383.0" x2="390.4" y2="377.4" /><line x1="424.6" y1="426.0" x2="418.7" y2="405.2" /><line x1="418.7" y1="405.2" x2="410.6" y2="392.6" /><line x1="410.6" y1="392.6" x2="402.0" y2="386.1" /><line x1="402.0" y1="386.1" x2="394.7" y2="383.5" /><line x1="394.7" y1="383.5" x2="390.1" y2="381.4" /><line x1="402.0" y1="386.1" x2="397.3" y2="380.7" /><line x1="397.3" y1="380.7" x2="393.4" y2="377.7" /><line x1="397.3" y1="380.7" x2="395.3" y2="376.3" /><line x1="410.6" y1="392.6" x2="407.0" y2="382.7" /><line x1="407.0" y1="382.7" x2="402.4" y2="377.0" /><line x1="402.4" y1="377.0" x2="398.9" y2="372.9" /><line x1="407.0" y1="382.7" x2="407.0" y2="375.2" /><line x1="407.0" y1="375.2" x2="405.5" y2="369.8" /><line x1="407.0" y1="375.2" x2="408.6" y2="370.1" /><line x1="418.7" y1="405.2" x2="419.0" y2="390.7" /><line x1="419.0" y1="390.7" x2="416.5" y2="381.7" /><line x1="416.5" y1="381.7" x2="413.0" y2="376.7" /><line x1="413.0" y1="376.7" x2="409.7" y2="373.8" /><line x1="413.0" y1="376.7" x2="411.2" y2="373.1" /><line x1="416.5" y1="381.7" x2="416.3" y2="375.4" /><line x1="416.3" y1="375.4" x2="414.8" y2="371.1" /><line x1="416.3" y1="375.4" x2="417.4" y2="370.9" /><line x1="419.0" y1="390.7" x2="422.9" y2="381.9" /><line x1="422.9" y1="381.9" x2="423.7" y2="374.8" /><line x1="423.7" y1="374.8" x2="424.4" y2="369.7" /><line x1="422.9" y1="381.9" x2="427.7" y2="376.6" /><line x1="427.7" y1="376.6" x2="431.0" y2="372.9" /><line x1="442.4" y1="451.2" x2="451.3" y2="419.0" /><line x1="451.3" y1="419.0" x2="450.7" y2="397.3" /><line x1="450.7" y1="397.3" x2="443.5" y2="383.2" /><line x1="443.5" y1="383.2" x2="435.5" y2="375.3" /><line x1="435.5" y1="375.3" x2="428.8" y2="370.9" /><line x1="428.8" y1="370.9" x2="424.5" y2="368.1" /><line x1="435.5" y1="375.3" x2="431.4" y2="368.2" /><line x1="431.4" y1="368.2" x2="428.7" y2="363.4" /><line x1="443.5" y1="383.2" x2="441.2" y2="372.4" /><line x1="441.2" y1="372.4" x2="436.8" y2="365.5" /><line x1="436.8" y1="365.5" x2="433.3" y2="361.6" /><line x1="436.8" y1="365.5" x2="434.8" y2="360.6" /><line x1="441.2" y1="372.4" x2="441.6" y2="365.0" /><line x1="441.6" y1="365.0" x2="441.8" y2="360.1" /><line x1="450.7" y1="397.3" x2="455.0" y2="381.7" /><line x1="455.0" y1="381.7" x2="454.3" y2="369.9" /><line x1="454.3" y1="369.9" x2="451.4" y2="362.6" /><line x1="451.4" y1="362.6" x2="447.9" y2="358.6" /><line x1="451.4" y1="362.6" x2="450.8" y2="357.0" /><line x1="454.3" y1="369.9" x2="456.4" y2="362.4" /><line x1="456.4" y1="362.4" x2="457.0" y2="357.1" /><line x1="456.4" y1="362.4" x2="458.6" y2="357.4" /><line x1="455.0" y1="381.7" x2="460.8" y2="371.8" /><line x1="460.8" y1="371.8" x2="462.8" y2="364.4" /><line x1="462.8" y1="364.4" x2="462.5" y2="359.4" /><line x1="462.8" y1="364.4" x2="465.9" y2="359.4" /><line x1="460.8" y1="371.8" x2="466.5" y2="366.6" /><line x1="466.5" y1="366.6" x2="470.9" y2="363.3" /><line x1="451.3" y1="419.0" x2="466.7" y2="399.2" /><line x1="466.7" y1="399.2" x2="472.7" y2="383.6" /><line x1="472.7" y1="383.6" x2="472.5" y2="372.6" /><line x1="472.5" y1="372.6" x2="470.4" y2="364.8" /><line x1="470.4" y1="364.8" x2="467.9" y2="359.4" /><line x1="470.4" y1="364.8" x2="470.4" y2="359.4" /><line x1="472.5" y1="372.6" x2="474.6" y2="365.8" /><line x1="474.6" y1="365.8" x2="476.4" y2="361.2" /><line x1="472.7" y1="383.6" x2="480.4" y2="374.1" /><line x1="480.4" y1="374.1" x2="483.4" y2="366.5" /><line x1="483.4" y1="366.5" x2="486.1" y2="361.2" /><line x1="480.4" y1="374.1" x2="487.2" y2="368.4" /><line x1="487.2" y1="368.4" x2="492.6" y2="364.7" /><line x1="466.7" y1="399.2" x2="479.7" y2="389.7" /><line x1="479.7" y1="389.7" x2="486.3" y2="380.8" /><line x1="486.3" y1="380.8" x2="488.9" y2="373.7" /><line x1="488.9" y1="373.7" x2="490.6" y2="368.8" /><line x1="486.3" y1="380.8" x2="492.3" y2="376.0" /><line x1="492.3" y1="376.0" x2="496.0" y2="372.0" /><line x1="492.3" y1="376.0" x2="497.5" y2="374.3" /><line x1="479.7" y1="389.7" x2="490.5" y2="385.2" /><line x1="490.5" y1="385.2" x2="497.4" y2="379.7" /><line x1="497.4" y1="379.7" x2="502.0" y2="376.4" /><line x1="490.5" y1="385.2" x2="498.3" y2="384.1" /><line x1="498.3" y1="384.1" x2="504.4" y2="383.7" /><line x1="453.7" y1="494.9" x2="477.1" y2="455.4" /><line x1="477.1" y1="455.4" x2="481.4" y2="422.4" /><line x1="481.4" y1="422.4" x2="476.5" y2="398.8" /><line x1="476.5" y1="398.8" x2="468.1" y2="385.2" /><line x1="468.1" y1="385.2" x2="459.5" y2="376.8" /><line x1="459.5" y1="376.8" x2="452.5" y2="372.5" /><line x1="452.5" y1="372.5" x2="447.1" y2="370.5" /><line x1="452.5" y1="372.5" x2="448.2" y2="368.1" /><line x1="459.5" y1="376.8" x2="455.4" y2="370.2" /><line x1="455.4" y1="370.2" x2="452.2" y2="365.5" /><line x1="468.1" y1="385.2" x2="464.9" y2="374.5" /><line x1="464.9" y1="374.5" x2="460.7" y2="367.6" /><line x1="460.7" y1="367.6" x2="458.0" y2="362.8" /><line x1="464.9" y1="374.5" x2="465.5" y2="367.2" /><line x1="465.5" y1="367.2" x2="466.0" y2="361.9" /><line x1="476.5" y1="398.8" x2="479.4" y2="383.4" /><line x1="479.4" y1="383.4" x2="477.6" y2="372.3" /><line x1="477.6" y1="372.3" x2="474.1" y2="364.5" /><line x1="474.1" y1="364.5" x2="470.3" y2="359.9" /><line x1="474.1" y1="364.5" x2="472.7" y2="358.6" /><line x1="477.6" y1="372.3" x2="477.9" y2="364.7" /><line x1="477.9" y1="364.7" x2="478.3" y2="359.0" /><line x1="479.4" y1="383.4" x2="484.4" y2="374.4" /><line x1="484.4" y1="374.4" x2="486.4" y2="367.2" /><line x1="486.4" y1="367.2" x2="488.3" y2="362.5" /><line x1="484.4" y1="374.4" x2="489.9" y2="369.5" /><line x1="489.9" y1="369.5" x2="493.9" y2="365.7" /><line x1="481.4" y1="422.4" x2="493.2" y2="402.5" /><line x1="493.2" y1="402.5" x2="496.2" y2="385.6" /><line x1="496.2" y1="385.6" x2="493.8" y2="373.5" /><line x1="493.8" y1="373.5" x2="489.9" y2="366.0" /><line x1="489.9" y1="366.0" x2="486.7" y2="360.5" /><line x1="493.8" y1="373.5" x2="494.6" y2="364.5" /><line x1="494.6" y1="364.5" x2="495.0" y2="358.2" /><line x1="496.2" y1="385.6" x2="503.3" y2="374.6" /><line x1="503.3" y1="374.6" x2="505.1" y2="366.5" /><line x1="505.1" y1="366.5" x2="504.4" y2="360.3" /><line x1="505.1" y1="366.5" x2="508.0" y2="361.3" /><line x1="503.3" y1="374.6" x2="510.0" y2="368.9" /><line x1="510.0" y1="368.9" x2="513.4" y2="363.4" /><line x1="510.0" y1="368.9" x2="515.4" y2="366.8" /><line x1="493.2" y1="402.5" x2="506.8" y2="391.9" /><line x1="506.8" y1="391.9" x2="513.1" y2="380.5" /><line x1="513.1" y1="380.5" x2="514.4" y2="372.3" /><line x1="514.4" y1="372.3" x2="514.0" y2="366.6" /><line x1="514.4" y1="372.3" x2="516.6" y2="367.1" /><line x1="513.1" y1="380.5" x2="520.0" y2="373.9" /><line x1="520.0" y1="373.9" x2="523.8" y2="369.0" /><line x1="520.0" y1="373.9" x2="525.7" y2="370.3" /><line x1="506.8" y1="391.9" x2="518.4" y2="387.3" /><line x1="518.4" y1="387.3" x2="524.5" y2="382.0" /><line x1="524.5" y1="382.0" x2="527.8" y2="377.7" /><line x1="524.5" y1="382.0" x2="529.6" y2="379.6" /><line x1="518.4" y1="387.3" x2="527.1" y2="386.0" /><line x1="527.1" y1="386.0" x2="532.5" y2="384.1" /><line x1="527.1" y1="386.0" x2="533.0" y2="386.0" /><line x1="477.1" y1="455.4" x2="504.2" y2="437.7" /><line x1="504.2" y1="437.7" x2="517.9" y2="419.7" /><line x1="517.9" y1="419.7" x2="523.0" y2="405.5" /><line x1="523.0" y1="405.5" x2="523.3" y2="395.4" /><line x1="523.3" y1="395.4" x2="521.9" y2="388.8" /><line x1="521.9" y1="388.8" x2="520.8" y2="384.3" /><line x1="523.3" y1="395.4" x2="525.6" y2="388.7" /><line x1="525.6" y1="388.7" x2="526.3" y2="383.8" /><line x1="525.6" y1="388.7" x2="528.5" y2="384.2" /><line x1="523.0" y1="405.5" x2="529.0" y2="397.4" /><line x1="529.0" y1="397.4" x2="531.4" y2="390.6" /><line x1="531.4" y1="390.6" x2="533.1" y2="386.2" /><line x1="529.0" y1="397.4" x2="534.2" y2="393.5" /><line x1="534.2" y1="393.5" x2="537.7" y2="390.7" /><line x1="517.9" y1="419.7" x2="530.3" y2="410.6" /><line x1="530.3" y1="410.6" x2="537.0" y2="401.3" /><line x1="537.0" y1="401.3" x2="539.6" y2="393.9" /><line x1="539.6" y1="393.9" x2="540.8" y2="388.9" /><line x1="537.0" y1="401.3" x2="544.1" y2="396.6" /><line x1="544.1" y1="396.6" x2="548.8" y2="393.5" /><line x1="530.3" y1="410.6" x2="539.6" y2="407.2" /><line x1="539.6" y1="407.2" x2="545.5" y2="403.6" /><line x1="545.5" y1="403.6" x2="549.4" y2="401.0" /><line x1="539.6" y1="407.2" x2="546.6" y2="406.0" /><line x1="546.6" y1="406.0" x2="551.3" y2="404.3" /><line x1="546.6" y1="406.0" x2="551.9" y2="405.9" /><line x1="504.2" y1="437.7" x2="525.3" y2="431.8" /><line x1="525.3" y1="431.8" x2="536.4" y2="422.9" /><line x1="536.4" y1="422.9" x2="541.2" y2="414.4" /><line x1="541.2" y1="414.4" x2="542.3" y2="408.1" /><line x1="542.3" y1="408.1" x2="543.1" y2="403.4" /><line x1="541.2" y1="414.4" x2="545.8" y2="408.9" /><line x1="545.8" y1="408.9" x2="548.2" y2="404.2" /><line x1="545.8" y1="408.9" x2="549.9" y2="406.1" /><line x1="536.4" y1="422.9" x2="546.2" y2="419.9" /><line x1="546.2" y1="419.9" x2="551.8" y2="415.9" /><line x1="551.8" y1="415.9" x2="555.0" y2="412.2" /><line x1="551.8" y1="415.9" x2="556.3" y2="414.4" /><line x1="546.2" y1="419.9" x2="553.9" y2="420.2" /><line x1="553.9" y1="420.2" x2="559.0" y2="419.6" /><line x1="553.9" y1="420.2" x2="558.6" y2="421.4" /><line x1="525.3" y1="431.8" x2="540.0" y2="432.9" /><line x1="540.0" y1="432.9" x2="550.7" y2="430.8" /><line x1="550.7" y1="430.8" x2="557.4" y2="428.1" /><line x1="557.4" y1="428.1" x2="561.4" y2="424.6" /><line x1="557.4" y1="428.1" x2="562.7" y2="427.5" /><line x1="550.7" y1="430.8" x2="558.4" y2="431.6" /><line x1="558.4" y1="431.6" x2="564.0" y2="431.1" /><line x1="558.4" y1="431.6" x2="563.6" y2="433.5" /><line x1="540.0" y1="432.9" x2="549.0" y2="437.0" /><line x1="549.0" y1="437.0" x2="555.8" y2="437.8" /><line x1="555.8" y1="437.8" x2="560.4" y2="436.9" /><line x1="555.8" y1="437.8" x2="559.8" y2="439.5" /><line x1="549.0" y1="437.0" x2="554.2" y2="441.4" /><line x1="554.2" y1="441.4" x2="557.7" y2="444.4" /><line x1="501.6" y1="564.8" x2="497.4" y2="495.6" /><line x1="497.4" y1="495.6" x2="475.5" y2="456.9" /><line x1="475.5" y1="456.9" x2="450.2" y2="440.6" /><line x1="450.2" y1="440.6" x2="428.3" y2="438.5" /><line x1="428.3" y1="438.5" x2="413.3" y2="441.2" /><line x1="413.3" y1="441.2" x2="403.8" y2="446.2" /><line x1="403.8" y1="446.2" x2="398.7" y2="451.5" /><line x1="398.7" y1="451.5" x2="394.9" y2="455.2" /><line x1="403.8" y1="446.2" x2="396.3" y2="447.5" /><line x1="396.3" y1="447.5" x2="391.2" y2="448.5" /><line x1="413.3" y1="441.2" x2="402.3" y2="438.8" /><line x1="402.3" y1="438.8" x2="394.8" y2="439.1" /><line x1="394.8" y1="439.1" x2="389.6" y2="439.2" /><line x1="402.3" y1="438.8" x2="395.6" y2="435.5" /><line x1="395.6" y1="435.5" x2="390.7" y2="433.0" /><line x1="428.3" y1="438.5" x2="415.2" y2="430.7" /><line x1="415.2" y1="430.7" x2="405.5" y2="428.4" /><line x1="405.5" y1="428.4" x2="398.8" y2="428.5" /><line x1="398.8" y1="428.5" x2="393.9" y2="429.3" /><line x1="405.5" y1="428.4" x2="399.9" y2="424.7" /><line x1="399.9" y1="424.7" x2="396.1" y2="421.5" /><line x1="415.2" y1="430.7" x2="408.1" y2="422.8" /><line x1="408.1" y1="422.8" x2="401.7" y2="418.9" /><line x1="401.7" y1="418.9" x2="396.7" y2="417.2" /><line x1="401.7" y1="418.9" x2="397.5" y2="415.2" /><line x1="408.1" y1="422.8" x2="405.3" y2="415.3" /><line x1="405.3" y1="415.3" x2="402.1" y2="410.5" /><line x1="405.3" y1="415.3" x2="404.4" y2="409.4" /><line x1="450.2" y1="440.6" x2="438.3" y2="424.9" /><line x1="438.3" y1="424.9" x2="425.6" y2="417.5" /><line x1="425.6" y1="417.5" x2="415.8" y2="416.3" /><line x1="415.8" y1="416.3" x2="408.7" y2="417.0" /><line x1="408.7" y1="417.0" x2="404.0" y2="418.3" /><line x1="408.7" y1="417.0" x2="403.9" y2="416.5" /><line x1="415.8" y1="416.3" x2="409.0" y2="413.5" /><line x1="409.0" y1="413.5" x2="404.8" y2="411.5" /><line x1="425.6" y1="417.5" x2="419.2" y2="408.6" /><line x1="419.2" y1="408.6" x2="413.4" y2="403.6" /><line x1="413.4" y1="403.6" x2="409.4" y2="400.0" /><line x1="419.2" y1="408.6" x2="416.2" y2="400.9" /><line x1="416.2" y1="400.9" x2="413.5" y2="396.2" /><line x1="416.2" y1="400.9" x2="415.5" y2="394.9" /><line x1="438.3" y1="424.9" x2="435.7" y2="411.9" /><line x1="435.7" y1="411.9" x2="431.3" y2="402.7" /><line x1="431.3" y1="402.7" x2="427.2" y2="397.7" /><line x1="427.2" y1="397.7" x2="424.5" y2="394.2" /><line x1="431.3" y1="402.7" x2="429.7" y2="395.9" /><line x1="429.7" y1="395.9" x2="428.7" y2="391.4" /><line x1="435.7" y1="411.9" x2="436.8" y2="401.9" /><line x1="436.8" y1="401.9" x2="436.3" y2="395.1" /><line x1="436.3" y1="395.1" x2="436.1" y2="390.6" /><line x1="436.8" y1="401.9" x2="439.2" y2="395.4" /><line x1="439.2" y1="395.4" x2="439.9" y2="390.6" /><line x1="439.2" y1="395.4" x2="441.8" y2="391.9" /><line x1="475.5" y1="456.9" x2="471.5" y2="424.6" /><line x1="471.5" y1="424.6" x2="459.7" y2="403.8" /><line x1="459.7" y1="403.8" x2="448.2" y2="393.3" /><line x1="448.2" y1="393.3" x2="438.1" y2="388.7" /><line x1="438.1" y1="388.7" x2="429.9" y2="387.8" /><line x1="429.9" y1="387.8" x2="424.4" y2="387.1" /><line x1="438.1" y1="388.7" x2="432.2" y2="383.5" /><line x1="432.2" y1="383.5" x2="427.5" y2="381.3" /><line x1="432.2" y1="383.5" x2="429.3" y2="378.9" /><line x1="448.2" y1="393.3" x2="443.6" y2="383.8" /><line x1="443.6" y1="383.8" x2="438.7" y2="377.7" /><line x1="438.7" y1="377.7" x2="435.0" y2="374.1" /><line x1="443.6" y1="383.8" x2="442.8" y2="376.2" /><line x1="442.8" y1="376.2" x2="442.0" y2="370.4" /><line x1="459.7" y1="403.8" x2="456.9" y2="387.1" /><line x1="456.9" y1="387.1" x2="451.5" y2="376.0" /><line x1="451.5" y1="376.0" x2="444.9" y2="370.0" /><line x1="444.9" y1="370.0" x2="440.3" y2="366.5" /><line x1="451.5" y1="376.0" x2="450.6" y2="366.9" /><line x1="450.6" y1="366.9" x2="448.4" y2="361.2" /><line x1="450.6" y1="366.9" x2="452.2" y2="360.8" /><line x1="456.9" y1="387.1" x2="459.3" y2="375.3" /><line x1="459.3" y1="375.3" x2="458.6" y2="367.1" /><line x1="458.6" y1="367.1" x2="457.6" y2="361.1" /><line x1="459.3" y1="375.3" x2="462.8" y2="367.5" /><line x1="462.8" y1="367.5" x2="465.7" y2="361.8" /><line x1="471.5" y1="424.6" x2="478.6" y2="404.7" /><line x1="478.6" y1="404.7" x2="478.5" y2="389.4" /><line x1="478.5" y1="389.4" x2="474.9" y2="378.6" /><line x1="474.9" y1="378.6" x2="469.7" y2="372.3" /><line x1="469.7" y1="372.3" x2="465.6" y2="368.3" /><line x1="474.9" y1="378.6" x2="475.0" y2="371.0" /><line x1="475.0" y1="371.0" x2="473.7" y2="366.0" /><line x1="475.0" y1="371.0" x2="476.1" y2="365.5" /><line x1="478.5" y1="389.4" x2="482.3" y2="379.6" /><line x1="482.3" y1="379.6" x2="483.4" y2="372.4" /><line x1="483.4" y1="372.4" x2="482.4" y2="367.7" /><line x1="483.4" y1="372.4" x2="485.1" y2="368.0" /><line x1="482.3" y1="379.6" x2="487.2" y2="373.9" /><line x1="487.2" y1="373.9" x2="489.8" y2="369.4" /><line x1="487.2" y1="373.9" x2="491.7" y2="370.7" /><line x1="478.6" y1="404.7" x2="488.1" y2="394.4" /><line x1="488.1" y1="394.4" x2="492.5" y2="385.2" /><line x1="492.5" y1="385.2" x2="494.0" y2="378.5" /><line x1="494.0" y1="378.5" x2="495.0" y2="374.0" /><line x1="492.5" y1="385.2" x2="497.9" y2="380.2" /><line x1="497.9" y1="380.2" x2="500.9" y2="376.6" /><line x1="488.1" y1="394.4" x2="496.8" y2="388.6" /><line x1="496.8" y1="388.6" x2="501.1" y2="383.4" /><line x1="501.1" y1="383.4" x2="503.3" y2="379.3" /><line x1="501.1" y1="383.4" x2="505.1" y2="380.5" /><line x1="496.8" y1="388.6" x2="503.6" y2="386.4" /><line x1="503.6" y1="386.4" x2="508.8" y2="385.3" /><line x1="497.4" y1="495.6" x2="520.9" y2="449.6" /><line x1="520.9" y1="449.6" x2="522.4" y2="414.6" /><line x1="522.4" y1="414.6" x2="512.3" y2="390.4" /><line x1="512.3" y1="390.4" x2="500.4" y2="375.8" /><line x1="500.4" y1="375.8" x2="488.9" y2="367.2" /><line x1="488.9" y1="367.2" x2="479.4" y2="362.7" /><line x1="479.4" y1="362.7" x2="472.7" y2="358.5" /><line x1="488.9" y1="367.2" x2="483.9" y2="359.6" /><line x1="483.9" y1="359.6" x2="480.4" y2="354.3" /><line x1="500.4" y1="375.8" x2="495.5" y2="363.3" /><line x1="495.5" y1="363.3" x2="490.6" y2="356.0" /><line x1="490.6" y1="356.0" x2="487.2" y2="350.8" /><line x1="495.5" y1="363.3" x2="494.5" y2="353.2" /><line x1="494.5" y1="353.2" x2="492.3" y2="345.9" /><line x1="494.5" y1="353.2" x2="494.8" y2="346.3" /><line x1="512.3" y1="390.4" x2="513.3" y2="372.4" /><line x1="513.3" y1="372.4" x2="510.7" y2="360.7" /><line x1="510.7" y1="360.7" x2="506.8" y2="353.4" /><line x1="506.8" y1="353.4" x2="503.3" y2="349.2" /><line x1="506.8" y1="353.4" x2="505.6" y2="347.6" /><line x1="510.7" y1="360.7" x2="511.1" y2="353.0" /><line x1="511.1" y1="353.0" x2="511.7" y2="347.9" /><line x1="513.3" y1="372.4" x2="517.4" y2="361.4" /><line x1="517.4" y1="361.4" x2="517.3" y2="352.6" /><line x1="517.3" y1="352.6" x2="518.2" y2="346.5" /><line x1="517.4" y1="361.4" x2="522.3" y2="354.4" /><line x1="522.3" y1="354.4" x2="526.3" y2="349.4" /><line x1="522.4" y1="414.6" x2="533.3" y2="391.4" /><line x1="533.3" y1="391.4" x2="533.9" y2="373.5" /><line x1="533.9" y1="373.5" x2="530.0" y2="362.6" /><line x1="530.0" y1="362.6" x2="524.5" y2="356.2" /><line x1="524.5" y1="356.2" x2="520.0" y2="351.8" /><line x1="530.0" y1="362.6" x2="529.8" y2="354.1" /><line x1="529.8" y1="354.1" x2="527.7" y2="348.0" /><line x1="529.8" y1="354.1" x2="531.5" y2="348.2" /><line x1="533.9" y1="373.5" x2="538.0" y2="361.2" /><line x1="538.0" y1="361.2" x2="538.1" y2="352.1" /><line x1="538.1" y1="352.1" x2="537.3" y2="345.4" /><line x1="538.0" y1="361.2" x2="543.0" y2="353.8" /><line x1="543.0" y1="353.8" x2="546.3" y2="349.1" /><line x1="533.3" y1="391.4" x2="545.2" y2="379.0" /><line x1="545.2" y1="379.0" x2="550.8" y2="367.6" /><line x1="550.8" y1="367.6" x2="552.5" y2="358.9" /><line x1="552.5" y1="358.9" x2="552.6" y2="352.2" /><line x1="552.5" y1="358.9" x2="554.5" y2="353.4" /><line x1="550.8" y1="367.6" x2="556.2" y2="361.2" /><line x1="556.2" y1="361.2" x2="558.8" y2="356.3" /><line x1="556.2" y1="361.2" x2="561.0" y2="357.6" /><line x1="545.2" y1="379.0" x2="554.9" y2="373.6" /><line x1="554.9" y1="373.6" x2="559.8" y2="367.9" /><line x1="559.8" y1="367.9" x2="563.5" y2="364.5" /><line x1="554.9" y1="373.6" x2="562.8" y2="371.0" /><line x1="562.8" y1="371.0" x2="564.0" y2="367.5" /><line x1="562.8" y1="371.0" x2="564.0" y2="371.0" /><line x1="520.9" y1="449.6" x2="551.2" y2="429.4" /><line x1="551.2" y1="429.4" x2="564.0" y2="409.7" /><line x1="564.0" y1="409.7" x2="564.0" y2="392.4" /><line x1="564.0" y1="392.4" x2="561.8" y2="379.3" /><line x1="561.8" y1="379.3" x2="557.6" y2="371.7" /><line x1="557.6" y1="371.7" x2="554.6" y2="366.4" /><line x1="561.8" y1="379.3" x2="563.4" y2="369.7" /><line x1="563.4" y1="369.7" x2="563.4" y2="362.6" /><line x1="563.4" y1="369.7" x2="564.0" y2="363.7" /><line x1="564.0" y1="392.4" x2="564.0" y2="381.7" /><line x1="564.0" y1="381.7" x2="564.0" y2="373.3" /><line x1="564.0" y1="373.3" x2="564.0" y2="367.4" /><line x1="564.0" y1="381.7" x2="564.0" y2="375.1" /><line x1="564.0" y1="375.1" x2="564.0" y2="370.9" /><line x1="564.0" y1="409.7" x2="564.0" y2="400.2" /><line x1="564.0" y1="400.2" x2="564.0" y2="390.9" /><line x1="564.0" y1="390.9" x2="564.0" y2="383.3" /><line x1="564.0" y1="383.3" x2="564.0" y2="378.5" /><line x1="564.0" y1="390.9" x2="564.0" y2="386.1" /><line x1="564.0" y1="386.1" x2="564.0" y2="382.7" /><line x1="564.0" y1="400.2" x2="564.0" y2="396.9" /><line x1="564.0" y1="396.9" x2="564.0" y2="392.4" /><line x1="564.0" y1="392.4" x2="564.0" y2="388.7" /><line x1="564.0" y1="396.9" x2="564.0" y2="397.5" /><line x1="564.0" y1="397.5" x2="564.0" y2="397.9" /><line x1="551.2" y1="429.4" x2="564.0" y2="425.1" /><line x1="564.0" y1="425.1" x2="564.0" y2="416.4" /><line x1="564.0" y1="416.4" x2="564.0" y2="406.2" /><line x1="564.0" y1="406.2" x2="564.0" y2="398.3" /><line x1="564.0" y1="398.3" x2="564.0" y2="392.7" /><line x1="564.0" y1="398.3" x2="564.0" y2="393.9" /><line x1="564.0" y1="406.2" x2="564.0" y2="401.2" /><line x1="564.0" y1="401.2" x2="564.0" y2="397.9" /><line x1="564.0" y1="416.4" x2="564.0" y2="413.6" /><line x1="564.0" y1="413.6" x2="564.0" y2="408.6" /><line x1="564.0" y1="408.6" x2="564.0" y2="406.2" /><line x1="564.0" y1="413.6" x2="564.0" y2="413.3" /><line x1="564.0" y1="413.3" x2="564.0" y2="412.1" /><line x1="564.0" y1="413.3" x2="564.0" y2="414.4" /><line x1="564.0" y1="425.1" x2="564.0" y2="429.8" /><line x1="564.0" y1="429.8" x2="564.0" y2="428.2" /><line x1="564.0" y1="428.2" x2="564.0" y2="424.6" /><line x1="564.0" y1="424.6" x2="564.0" y2="420.8" /><line x1="564.0" y1="424.6" x2="564.0" y2="423.8" /><line x1="564.0" y1="428.2" x2="564.0" y2="429.3" /><line x1="564.0" y1="429.3" x2="564.0" y2="428.2" /><line x1="564.0" y1="429.3" x2="564.0" y2="432.0" /><line x1="564.0" y1="429.8" x2="564.0" y2="437.1" /><line x1="564.0" y1="437.1" x2="564.0" y2="439.8" /><line x1="564.0" y1="439.8" x2="564.0" y2="441.2" /><line x1="564.0" y1="437.1" x2="564.0" y2="444.8" /><line x1="564.0" y1="444.8" x2="564.0" y2="450.0" /></g></svg>