<?xml version='1.0' encoding='utf-8'?>
<svg xmlns="http://www.w3.org/2000/svg" xmlns:inkscape="http://www.inkscape.org/namespaces/inkscape" viewBox="204 228 408 600"><style>*{vector-effect:non-scaling-stroke}</style><g id="01_Black_Frame" inkscape:groupmode="layer" inkscape:label="01_Black_Frame" stroke="#1A1A1A" fill="none" stroke-width="0.875" stroke-linecap="round" stroke-linejoin="round"><path d="M 250.0,264.0 L 566.0,264.0 Q 576.0,264.0 576.0,274.0 L 576.0,782.0 Q 576.0,792.0 566.0,792.0 L 250.0,792.0 Q 240.0,792.0 240.0,782.0 L 240.0,274.0 Q 240.0,264.0 250.0,264.0" /><path d="M 253.0,270.0 L 563.0,270.0 Q 570.0,270.0 570.0,277.0 L 570.0,779.0 Q 570.0,786.0 563.0,786.0 L 253.0,786.0 Q 246.0,786.0 246.0,779.0 L 246.0,277.0 Q 246.0,270.0 253.0,270.0" /><line x1="259.0" y1="280.0" x2="263.0" y2="280.0" /><line x1="258.1" y1="282.1" x2="260.9" y2="284.9" /><line x1="256.0" y1="283.0" x2="256.0" y2="287.0" /><line x1="253.9" y1="282.1" x2="251.1" y2="284.9" /><line x1="253.0" y1="280.0" x2="249.0" y2="280.0" /><line x1="253.9" y1="277.9" x2="251.1" y2="275.1" /><line x1="256.0" y1="277.0" x2="256.0" y2="273.0" /><line x1="258.1" y1="277.9" x2="260.9" y2="275.1" /><line x1="563.0" y1="280.0" x2="567.0" y2="280.0" /><line x1="562.1" y1="282.1" x2="564.9" y2="284.9" /><line x1="560.0" y1="283.0" x2="560.0" y2="287.0" /><line x1="557.9" y1="282.1" x2="555.1" y2="284.9" /><line x1="557.0" y1="280.0" x2="553.0" y2="280.0" /><line x1="557.9" y1="277.9" x2="555.1" y2="275.1" /><line x1="560.0" y1="277.0" x2="560.0" y2="273.0" /><line x1="562.1" y1="277.9" x2="564.9" y2="275.1" /><line x1="259.0" y1="776.0" x2="263.0" y2="776.0" /><line x1="258.1" y1="778.1" x2="260.9" y2="780.9" /><line x1="256.0" y1="779.0" x2="256.0" y2="783.0" /><line x1="253.9" y1="778.1" x2="251.1" y2="780.9" /><line x1="253.0" y1="776.0" x2="249.0" y2="776.0" /><line x1="253.9" y1="773.9" x2="251.1" y2="771.1" /><line x1="256.0" y1="773.0" x2="256.0" y2="769.0" /><line x1="258.1" y1="773.9" x2="260.9" y2="771.1" /><line x1="563.0" y1="776.0" x2="567.0" y2="776.0" /><line x1="562.1" y1="778.1" x2="564.9" y2="780.9" /><line x1="560.0" y1="779.0" x2="560.0" y2="783.0" /><line x1="557.9" y1="778.1" x2="555.1" y2="780.9" /><line x1="557.0" y1="776.0" x2="553.0" y2="776.0" /><line x1="557.9" y1="773.9" x2="555.1" y2="771.1" /><line x1="560.0" y1="773.0" x2="560.0" y2="769.0" /><line x1="562.1" y1="773.9" x2="564.9" y2="771.1" /><polyline points="392.38,283.20 390.62,282.00 389.62,282.00 387.88,283.60 387.88,288.40 389.62,290.00 390.62,290.00 392.38,288.80" /><polyline points="393.62,282.00 393.62,290.00 397.88,290.00" /><polyline points="399.38,282.00 404.38,290.00" /><polyline points="404.38,282.00 399.38,290.00" /><polyline points="405.12,282.00 410.12,290.00" /><polyline points="410.12,282.00 405.12,290.00" /><polyline points="410.88,282.00 413.38,290.00 415.88,282.00" /><polyline points="419.12,282.00 419.12,290.00" /><polyline points="424.88,282.00 424.88,290.00" /><polyline points="363.15,297.00 369.65,297.00" /><polyline points="366.40,297.00 366.40,307.00" /><polyline points="370.62,297.00 370.62,307.00" /><polyline points="377.12,297.00 377.12,307.00" /><polyline points="370.62,301.80 377.12,301.80" /><polyline points="383.62,297.00 378.10,297.00 378.10,301.80 382.00,301.80" /><polyline points="378.10,301.80 378.10,307.00 383.62,307.00" /><polyline points="393.05,307.00 393.05,297.00 397.27,297.00 398.90,298.50 398.90,300.20 397.27,301.50 393.05,301.50 398.90,307.00" /><polyline points="406.05,297.00 400.52,297.00 400.52,301.80 404.42,301.80" /><polyline points="400.52,301.80 400.52,307.00 406.05,307.00" /><polyline points="408.00,307.00 408.00,297.00 412.23,297.00 413.85,298.50 413.85,300.20 412.23,301.50 408.00,301.50" /><polyline points="415.47,307.00 415.47,297.00 419.70,297.00 421.32,298.50 421.32,300.20 419.70,301.50 415.47,301.50 421.32,307.00" /><polyline points="426.20,297.00 426.20,307.00" /><polyline points="435.95,297.00 430.42,297.00 430.42,301.80 434.32,301.80" /><polyline points="430.42,301.80 430.42,307.00 435.95,307.00" /><polyline points="437.90,297.00 441.15,307.00 444.40,297.00" /><polyline points="450.90,297.00 445.38,297.00 445.38,301.80 449.27,301.80" /><polyline points="445.38,301.80 445.38,307.00 450.90,307.00" /><line x1="270.0" y1="312.0" x2="546.0" y2="312.0" /><line x1="270.0" y1="732.0" x2="546.0" y2="732.0" /><polyline points="367.75,740.75 367.75,745.25" /><polyline points="370.55,740.75 370.55,745.25" /><polyline points="367.75,742.91 370.55,742.91" /><polyline points="370.97,745.25 372.37,740.75 373.77,745.25" /><polyline points="371.47,743.67 373.27,743.67" /><polyline points="375.59,740.75 375.59,745.25" /><polyline points="377.41,740.75 380.21,740.75" /><polyline points="378.81,740.75 378.81,745.25" /><polyline points="382.03,740.75 382.03,745.25" /><polyline points="383.85,745.25 385.25,740.75 386.65,745.25" /><polyline points="384.35,743.67 386.15,743.67" /><polyline points="387.07,745.25 387.07,740.75 389.87,745.25 389.87,740.75" /><polyline points="392.67,741.20 391.97,740.75 391.13,740.75 390.43,741.42 390.29,742.10 390.71,742.64 391.69,743.00 392.67,743.36 393.09,743.90 392.95,744.58 392.25,745.25 391.27,745.25 390.57,744.80" /><polyline points="402.33,741.20 401.63,740.75 400.79,740.75 400.09,741.42 399.95,742.10 400.37,742.64 401.35,743.00 402.33,743.36 402.75,743.90 402.61,744.58 401.91,745.25 400.93,745.25 400.23,744.80" /><polyline points="403.17,745.25 404.57,740.75 405.97,745.25" /><polyline points="403.67,743.67 405.47,743.67" /><polyline points="407.79,740.75 407.79,745.25" /><polyline points="409.61,740.75 409.61,745.25 411.99,745.25" /><polyline points="414.23,740.75 413.11,741.20 412.83,742.10 412.83,743.90 413.11,744.80 414.23,745.25 415.35,744.80 415.63,743.90 415.63,742.10 415.35,741.20 414.23,740.75" /><polyline points="416.05,745.25 416.05,740.75 417.87,740.75 418.57,741.42 418.57,742.19 417.87,742.77 416.05,742.77 418.57,745.25" /><polyline points="421.65,741.20 420.95,740.75 420.11,740.75 419.41,741.42 419.27,742.10 419.69,742.64 420.67,743.00 421.65,743.36 422.07,743.90 421.93,744.58 421.23,745.25 420.25,745.25 419.55,744.80" /><polyline points="428.93,745.25 428.93,740.75 430.75,740.75 431.31,741.29 431.31,742.01 430.75,742.55 428.93,742.55 430.75,742.55 431.31,743.09 431.31,744.71 430.75,745.25 428.93,745.25" /><polyline points="433.55,740.75 432.43,741.20 432.15,742.10 432.15,743.90 432.43,744.80 433.55,745.25 434.67,744.80 434.95,743.90 434.95,742.10 434.67,741.20 433.55,740.75" /><polyline points="435.37,740.75 435.37,745.25 437.75,745.25" /><polyline points="438.59,740.75 441.39,740.75" /><polyline points="439.99,740.75 439.99,745.25" /><polyline points="443.21,740.75 442.09,741.20 441.81,742.10 441.81,743.90 442.09,744.80 443.21,745.25 444.33,744.80 444.61,743.90 444.61,742.10 444.33,741.20 443.21,740.75" /><polyline points="445.03,745.25 445.03,740.75 447.83,745.25 447.83,740.75" /><polyline points="324.62,753.25 329.62,753.25" /><polyline points="327.12,753.25 327.12,760.75" /><polyline points="334.62,753.25 330.38,753.25 330.38,756.85 333.38,756.85" /><polyline points="330.38,756.85 330.38,760.75 334.62,760.75" /><polyline points="336.12,760.75 336.12,753.25 338.62,757.38 341.12,753.25 341.12,760.75" /><polyline points="341.88,760.75 341.88,753.25 345.12,753.25 346.38,754.38 346.38,755.65 345.12,756.62 341.88,756.62" /><polyline points="350.12,753.25 348.12,754.00 347.62,755.50 347.62,758.50 348.12,760.00 350.12,760.75 352.12,760.00 352.62,758.50 352.62,755.50 352.12,754.00 350.12,753.25" /><polyline points="353.38,760.75 353.38,753.25 356.62,753.25 357.88,754.38 357.88,755.65 356.62,756.62 353.38,756.62 357.88,760.75" /><polyline points="359.12,760.75 361.62,753.25 364.12,760.75" /><polyline points="360.02,758.12 363.23,758.12" /><polyline points="364.88,760.75 364.88,753.25 368.12,753.25 369.38,754.38 369.38,755.65 368.12,756.62 364.88,756.62 369.38,760.75" /><polyline points="370.62,753.25 373.12,757.00 375.62,753.25" /><polyline points="373.12,757.00 373.12,760.75" /><polyline points="382.12,753.25 383.38,760.75 384.62,755.88 385.88,760.75 387.12,753.25" /><polyline points="387.88,760.75 390.38,753.25 392.88,760.75" /><polyline points="388.77,758.12 391.98,758.12" /><polyline points="397.88,754.00 396.62,753.25 395.12,753.25 393.88,754.38 393.62,755.50 394.38,756.40 396.12,757.00 397.88,757.60 398.62,758.50 398.38,759.62 397.12,760.75 395.38,760.75 394.12,760.00" /><polyline points="405.12,760.75 407.62,753.25 410.12,760.75" /><polyline points="406.02,758.12 409.23,758.12" /><polyline points="410.88,753.25 410.88,760.75 415.12,760.75" /><polyline points="416.62,753.25 417.88,760.75 419.12,755.88 420.38,760.75 421.62,753.25" /><polyline points="422.38,760.75 424.88,753.25 427.38,760.75" /><polyline points="423.27,758.12 426.48,758.12" /><polyline points="428.12,753.25 430.62,757.00 433.12,753.25" /><polyline points="430.62,757.00 430.62,760.75" /><polyline points="438.12,754.00 436.88,753.25 435.38,753.25 434.12,754.38 433.88,755.50 434.62,756.40 436.38,757.00 438.12,757.60 438.88,758.50 438.62,759.62 437.38,760.75 435.62,760.75 434.38,760.00" /><polyline points="445.38,753.25 450.38,753.25" /><polyline points="447.88,753.25 447.88,760.75" /><polyline points="451.12,753.25 451.12,760.75" /><polyline points="456.12,753.25 456.12,760.75" /><polyline points="451.12,756.85 456.12,756.85" /><polyline points="461.12,753.25 456.88,753.25 456.88,756.85 459.88,756.85" /><polyline points="456.88,756.85 456.88,760.75 461.12,760.75" /><polyline points="468.38,753.25 469.62,760.75 470.88,755.88 472.12,760.75 473.38,753.25" /><polyline points="476.62,753.25 474.62,754.00 474.12,755.50 474.12,758.50 474.62,760.00 476.62,760.75 478.62,760.00 479.12,758.50 479.12,755.50 478.62,754.00 476.62,753.25" /><polyline points="479.88,760.75 479.88,753.25 483.12,753.25 484.38,754.38 484.38,755.65 483.12,756.62 479.88,756.62 484.38,760.75" /><polyline points="485.62,760.75 485.62,753.25 488.38,753.25 490.12,755.12 490.12,758.88 488.38,760.75 485.62,760.75" /><polyline points="336.12,766.25 341.12,766.25" /><polyline points="338.62,766.25 338.62,773.75" /><polyline points="341.88,766.25 341.88,773.75" /><polyline points="346.88,766.25 346.88,773.75" /><polyline points="341.88,769.85 346.88,769.85" /><polyline points="351.88,766.25 347.62,766.25 347.62,769.85 350.62,769.85" /><polyline points="347.62,769.85 347.62,773.75 351.88,773.75" /><polyline points="353.38,766.25 355.88,770.00 358.38,766.25" /><polyline points="355.88,770.00 355.88,773.75" /><polyline points="369.12,767.00 367.88,766.25 366.38,766.25 365.12,767.38 364.88,768.50 365.62,769.40 367.38,770.00 369.12,770.60 369.88,771.50 369.62,772.62 368.38,773.75 366.62,773.75 365.38,773.00" /><polyline points="370.62,773.75 373.12,766.25 375.62,773.75" /><polyline points="371.52,771.12 374.73,771.12" /><polyline points="378.88,766.25 378.88,773.75" /><polyline points="382.12,773.75 382.12,766.25 384.88,766.25 386.62,768.12 386.62,771.88 384.88,773.75 382.12,773.75" /><polyline points="396.12,766.25 396.12,773.75" /><polyline points="399.38,766.25 404.38,766.25" /><polyline points="401.88,766.25 401.88,773.75" /><polyline points="410.88,766.25 415.88,766.25" /><polyline points="413.38,766.25 413.38,773.75" /><polyline points="419.12,766.25 417.12,767.00 416.62,768.50 416.62,771.50 417.12,773.00 419.12,773.75 421.12,773.00 421.62,771.50 421.62,768.50 421.12,767.00 419.12,766.25" /><polyline points="428.12,766.25 430.62,770.00 433.12,766.25" /><polyline points="430.62,770.00 430.62,773.75" /><polyline points="436.38,766.25 434.38,767.00 433.88,768.50 433.88,771.50 434.38,773.00 436.38,773.75 438.38,773.00 438.88,771.50 438.88,768.50 438.38,767.00 436.38,766.25" /><polyline points="439.62,766.25 439.62,771.88 440.62,773.38 443.62,773.38 444.62,771.88 444.62,766.25" /><polyline points="445.38,773.75 445.38,766.25 448.62,766.25 449.88,767.38 449.88,768.65 448.62,769.62 445.38,769.62 449.88,773.75" /><polyline points="461.12,766.25 456.88,766.25 456.88,769.85 459.88,769.85" /><polyline points="456.88,769.85 456.88,773.75" /><polyline points="462.62,773.75 465.12,766.25 467.62,773.75" /><polyline points="463.52,771.12 466.73,771.12" /><polyline points="472.88,767.38 471.12,766.25 470.12,766.25 468.38,767.75 468.38,772.25 470.12,773.75 471.12,773.75 472.88,772.62" /><polyline points="478.38,766.25 474.12,766.25 474.12,769.85 477.12,769.85" /><polyline points="474.12,769.85 474.12,773.75 478.38,773.75" /><polyline points="382.24,779.50 383.84,784.50 385.44,779.50" /><polyline points="387.52,779.50 387.52,784.50" /><polyline points="391.20,784.00 391.20,784.25" /><polyline points="393.28,779.50 396.48,784.50" /><polyline points="396.48,779.50 393.28,784.50" /><polyline points="396.96,779.50 400.16,784.50" /><polyline points="400.16,779.50 396.96,784.50" /><polyline points="400.64,779.50 402.24,784.50 403.84,779.50" /><polyline points="405.92,779.50 405.92,784.50" /><polyline points="409.60,784.00 409.60,784.25" /><polyline points="411.68,784.50 411.68,779.50 413.28,782.25 414.88,779.50 414.88,784.50" /><polyline points="415.36,784.50 415.36,779.50 416.96,782.25 418.56,779.50 418.56,784.50" /><polyline points="419.04,779.50 422.24,784.50" /><polyline points="422.24,779.50 419.04,784.50" /><polyline points="422.72,779.50 425.92,784.50" /><polyline points="425.92,779.50 422.72,784.50" /><polyline points="426.40,779.50 428.00,784.50 429.60,779.50" /><polyline points="431.68,779.50 431.68,784.50" /></g><g id="02_Teal_Image" inkscape:groupmode="layer" inkscape:label="02_Teal_Image" stroke="#2A6B7B" fill="none" stroke-width="0.75" stroke-linecap="round" stroke-linejoin="round"><line x1="252.0" y1="319.0" x2="252.0" y2="319.0" /><line x1="252.0" y1="328.4" x2="258.9" y2="319.0" /><line x1="252.0" y1="337.7" x2="265.8" y2="319.0" /><line x1="252.0" y1="347.1" x2="272.7" y2="319.0" /><line x1="252.0" y1="356.5" x2="279.7" y2="319.0" /><line x1="252.0" y1="365.9" x2="286.6" y2="319.0" /><line x1="252.0" y1="375.2" x2="293.5" y2="319.0" /><line x1="252.0" y1="384.6" x2="300.4" y2="319.0" /><line x1="252.0" y1="394.0" x2="307.3" y2="319.0" /><line x1="252.0" y1="403.4" x2="314.2" y2="319.0" /><line x1="252.0" y1="412.7" x2="321.1" y2="319.0" /><line x1="252.0" y1="422.1" x2="328.1" y2="319.0" /><line x1="252.0" y1="431.5" x2="335.0" y2="319.0" /><line x1="252.0" y1="440.8" x2="341.9" y2="319.0" /><line x1="252.0" y1="450.2" x2="348.8" y2="319.0" /><line x1="252.0" y1="459.6" x2="355.7" y2="319.0" /><line x1="252.0" y1="469.0" x2="362.6" y2="319.0" /><line x1="252.0" y1="478.3" x2="369.5" y2="319.0" /><line x1="252.0" y1="487.7" x2="376.5" y2="319.0" /><line x1="252.0" y1="497.1" x2="383.4" y2="319.0" /><line x1="252.0" y1="506.5" x2="390.3" y2="319.0" /><line x1="252.0" y1="515.8" x2="397.2" y2="319.0" /><line x1="252.0" y1="525.2" x2="404.1" y2="319.0" /><line x1="252.0" y1="534.6" x2="411.0" y2="319.0" /><line x1="252.0" y1="544.0" x2="418.0" y2="319.0" /><line x1="252.0" y1="553.3" x2="424.9" y2="319.0" /><line x1="252.0" y1="562.7" x2="431.8" y2="319.0" /><line x1="252.0" y1="572.1" x2="438.7" y2="319.0" /><line x1="252.0" y1="581.4" x2="445.6" y2="319.0" /><line x1="252.0" y1="590.8" x2="452.5" y2="319.0" /><line x1="252.0" y1="600.2" x2="459.4" y2="319.0" /><line x1="252.0" y1="609.6" x2="466.4" y2="319.0" /><line x1="252.0" y1="618.9" x2="473.3" y2="319.0" /><line x1="252.0" y1="628.3" x2="480.2" y2="319.0" /><line x1="252.0" y1="637.7" x2="487.1" y2="319.0" /><line x1="252.0" y1="647.1" x2="494.0" y2="319.0" /><line x1="252.0" y1="656.4" x2="500.9" y2="319.0" /><line x1="252.0" y1="665.8" x2="507.8" y2="319.0" /><line x1="564.0" y1="319.0" x2="564.0" y2="319.0" /><line x1="564.0" y1="328.4" x2="557.1" y2="319.0" /><line x1="564.0" y1="337.7" x2="550.2" y2="319.0" /><line x1="564.0" y1="347.1" x2="543.3" y2="319.0" /><line x1="564.0" y1="356.5" x2="536.3" y2="319.0" /><line x1="564.0" y1="365.9" x2="529.4" y2="319.0" /><line x1="564.0" y1="375.2" x2="522.5" y2="319.0" /><line x1="564.0" y1="384.6" x2="515.6" y2="319.0" /><line x1="564.0" y1="394.0" x2="508.7" y2="319.0" /><line x1="564.0" y1="403.4" x2="501.8" y2="319.0" /><line x1="564.0" y1="412.7" x2="494.9" y2="319.0" /><line x1="564.0" y1="422.1" x2="487.9" y2="319.0" /><line x1="564.0" y1="431.5" x2="481.0" y2="319.0" /><line x1="564.0" y1="440.8" x2="474.1" y2="319.0" /><line x1="564.0" y1="450.2" x2="467.2" y2="319.0" /><line x1="564.0" y1="459.6" x2="460.3" y2="319.0" /><line x1="564.0" y1="469.0" x2="453.4" y2="319.0" /><line x1="564.0" y1="478.3" x2="446.5" y2="319.0" /><line x1="564.0" y1="487.7" x2="439.5" y2="319.0" /><line x1="564.0" y1="497.1" x2="432.6" y2="319.0" /><line x1="564.0" y1="506.5" x2="425.7" y2="319.0" /><line x1="564.0" y1="515.8" x2="418.8" y2="319.0" /><line x1="564.0" y1="525.2" x2="411.9" y2="319.0" /><line x1="564.0" y1="534.6" x2="405.0" y2="319.0" /><line x1="564.0" y1="544.0" x2="398.0" y2="319.0" /><line x1="564.0" y1="553.3" x2="391.1" y2="319.0" /><line x1="564.0" y1="562.7" x2="384.2" y2="319.0" /><line x1="564.0" y1="572.1" x2="377.3" y2="319.0" /><line x1="564.0" y1="581.4" x2="370.4" y2="319.0" /><line x1="564.0" y1="590.8" x2="363.5" y2="319.0" /><line x1="564.0" y1="600.2" x2="356.6" y2="319.0" /><line x1="564.0" y1="609.6" x2="349.6" y2="319.0" /><line x1="564.0" y1="618.9" x2="342.7" y2="319.0" /><line x1="564.0" y1="628.3" x2="335.8" y2="319.0" /><line x1="564.0" y1="637.7" x2="328.9" y2="319.0" /><line x1="564.0" y1="647.1" x2="322.0" y2="319.0" /><line x1="564.0" y1="656.4" x2="315.1" y2="319.0" /><line x1="564.0" y1="665.8" x2="308.2" y2="319.0" /><line x1="252.0" y1="727.0" x2="252.0" y2="727.0" /><line x1="252.0" y1="717.6" x2="258.9" y2="727.0" /><line x1="252.0" y1="708.3" x2="265.8" y2="727.0" /><line x1="252.0" y1="698.9" x2="272.7" y2="727.0" /><line x1="252.0" y1="689.5" x2="279.7" y2="727.0" /><line x1="252.0" y1="680.1" x2="286.6" y2="727.0" /><line x1="252.0" y1="670.8" x2="293.5" y2="727.0" /><line x1="252.0" y1="661.4" x2="300.4" y2="727.0" /><line x1="252.0" y1="652.0" x2="307.3" y2="727.0" /><line x1="252.0" y1="642.6" x2="314.2" y2="727.0" /><line x1="252.0" y1="633.3" x2="321.1" y2="727.0" /><line x1="252.0" y1="623.9" x2="328.1" y2="727.0" /><line x1="252.0" y1="614.5" x2="335.0" y2="727.0" /><line x1="252.0" y1="605.2" x2="341.9" y2="727.0" /><line x1="252.0" y1="595.8" x2="348.8" y2="727.0" /><line x1="252.0" y1="586.4" x2="355.7" y2="727.0" /><line x1="252.0" y1="577.0" x2="362.6" y2="727.0" /><line x1="252.0" y1="567.7" x2="369.5" y2="727.0" /><line x1="252.0" y1="558.3" x2="376.5" y2="727.0" /><line x1="252.0" y1="548.9" x2="383.4" y2="727.0" /><line x1="252.0" y1="539.5" x2="390.3" y2="727.0" /><line x1="252.0" y1="530.2" x2="397.2" y2="727.0" /><line x1="252.0" y1="520.8" x2="404.1" y2="727.0" /><line x1="252.0" y1="511.4" x2="411.0" y2="727.0" /><line x1="252.0" y1="502.0" x2="418.0" y2="727.0" /><line x1="252.0" y1="492.7" x2="424.9" y2="727.0" /><line x1="252.0" y1="483.3" x2="431.8" y2="727.0" /><line x1="252.0" y1="473.9" x2="438.7" y2="727.0" /><line x1="252.0" y1="464.6" x2="445.6" y2="727.0" /><line x1="252.0" y1="455.2" x2="452.5" y2="727.0" /><line x1="252.0" y1="445.8" x2="459.4" y2="727.0" /><line x1="252.0" y1="436.4" x2="466.4" y2="727.0" /><line x1="252.0" y1="427.1" x2="473.3" y2="727.0" /><line x1="252.0" y1="417.7" x2="480.2" y2="727.0" /><line x1="252.0" y1="408.3" x2="487.1" y2="727.0" /><line x1="252.0" y1="398.9" x2="494.0" y2="727.0" /><line x1="252.0" y1="389.6" x2="500.9" y2="727.0" /><line x1="252.0" y1="380.2" x2="507.8" y2="727.0" /><line x1="564.0" y1="727.0" x2="564.0" y2="727.0" /><line x1="564.0" y1="717.6" x2="557.1" y2="727.0" /><line x1="564.0" y1="708.3" x2="550.2" y2="727.0" /><line x1="564.0" y1="698.9" x2="543.3" y2="727.0" /><line x1="564.0" y1="689.5" x2="536.3" y2="727.0" /><line x1="564.0" y1="680.1" x2="529.4" y2="727.0" /><line x1="564.0" y1="670.8" x2="522.5" y2="727.0" /><line x1="564.0" y1="661.4" x2="515.6" y2="727.0" /><line x1="564.0" y1="652.0" x2="508.7" y2="727.0" /><line x1="564.0" y1="642.6" x2="501.8" y2="727.0" /><line x1="564.0" y1="633.3" x2="494.9" y2="727.0" /><line x1="564.0" y1="623.9" x2="487.9" y2="727.0" /><line x1="564.0" y1="614.5" x2="481.0" y2="727.0" /><line x1="564.0" y1="605.2" x2="474.1" y2="727.0" /><line x1="564.0" y1="595.8" x2="467.2" y2="727.0" /><line x1="564.0" y1="586.4" x2="460.3" y2="727.0" /><line x1="564.0" y1="577.0" x2="453.4" y2="727.0" /><line x1="564.0" y1="567.7" x2="446.5" y2="727.0" /><line x1="564.0" y1="558.3" x2="439.5" y2="727.0" /><line x1="564.0" y1="548.9" x2="432.6" y2="727.0" /><line x1="564.0" y1="539.5" x2="425.7" y2="727.0" /><line x1="564.0" y1="530.2" x2="418.8" y2="727.0" /><line x1="564.0" y1="520.8" x2="411.9" y2="727.0" /><line x1="564.0" y1="511.4" x2="405.0" y2="727.0" /><line x1="564.0" y1="502.0" x2="398.0" y2="727.0" /><line x1="564.0" y1="492.7" x2="391.1" y2="727.0" /><line x1="564.0" y1="483.3" x2="384.2" y2="727.0" /><line x1="564.0" y1="473.9" x2="377.3" y2="727.0" /><line x1="564.0" y1="464.6" x2="370.4" y2="727.0" /><line x1="564.0" y1="455.2" x2="363.5" y2="727.0" /><line x1="564.0" y1="445.8" x2="356.6" y2="727.0" /><line x1="564.0" y1="436.4" x2="349.6" y2="727.0" /><line x1="564.0" y1="427.1" x2="342.7" y2="727.0" /><line x1="564.0" y1="417.7" x2="335.8" y2="727.0" /><line x1="564.0" y1="408.3" x2="328.9" y2="727.0" /><line x1="564.0" y1="398.9" x2="322.0" y2="727.0" /><line x1="564.0" y1="389.6" x2="315.1" y2="727.0" /><line x1="564.0" y1="380.2" x2="308.2" y2="727.0" /></g><g id="03_Gold_Accent" inkscape:groupmode="layer" inkscape:label="03_Gold_Accent" stroke="#B8960C" fill="none" stroke-width="1.12" stroke-linecap="round" stroke-linejoin="round"><polyline points="455.5,552.7 452.9,556.4 450.1,559.9 447.0,563.2 443.6,566.2 440.0,568.9 436.2,571.4 432.2,573.5 428.1,575.3 423.8,576.7 419.4,577.8 414.9,578.6 410.4,578.9 405.9,579.0 401.4,578.6 397.0,577.9 392.6,576.8 388.3,575.4 384.1,573.6 380.1,571.6 376.3,569.2 372.7,566.4 369.3,563.5 366.1,560.2 363.3,556.7 360.7,553.0 358.4,549.1 356.5,545.0 354.9,540.8 353.6,536.4 352.7,532.0 352.2,527.5 352.0,523.0 352.2,518.5 352.7,514.0 353.6,509.6 354.9,505.2 356.5,501.0 358.4,496.9 360.7,493.0 363.3,489.3 366.1,485.8 369.3,482.5 372.7,479.6 376.3,476.8 380.1,474.4 384.1,472.4 388.3,470.6 392.6,469.2 397.0,468.1 401.4,467.4 405.9,467.0 410.4,467.1 414.9,467.4 419.4,468.2 423.8,469.3 428.1,470.7 432.2,472.5 436.2,474.6 440.0,477.1 443.6,479.8 447.0,482.8 450.1,486.1 452.9,489.6 455.5,493.3" fill="none" /><line x1="417.5" y1="499.0" x2="426.5" y2="499.0" /><line x1="422.0" y1="494.5" x2="422.0" y2="503.5" /><line x1="373.5" y1="529.0" x2="382.5" y2="529.0" /><line x1="378.0" y1="524.5" x2="378.0" y2="533.5" /><line x1="411.5" y1="557.0" x2="420.5" y2="557.0" /><line x1="416.0" y1="552.5" x2="416.0" y2="561.5" /><line x1="391.5" y1="485.0" x2="400.5" y2="485.0" /><line x1="396.0" y1="480.5" x2="396.0" y2="489.5" /><line x1="435.5" y1="537.0" x2="444.5" y2="537.0" /><line x1="440.0" y1="532.5" x2="440.0" y2="541.5" /><line x1="381.5" y1="513.0" x2="390.5" y2="513.0" /><line x1="386.0" y1="508.5" x2="386.0" y2="517.5" /></g></svg>