<?xml version='1.0' encoding='utf-8'?>
<svg xmlns="http://www.w3.org/2000/svg" xmlns:inkscape="http://www.inkscape.org/namespaces/inkscape" viewBox="204 228 408 600"><style>*{vector-effect:non-scaling-stroke}</style><g id="01_Black_Frame" inkscape:groupmode="layer" inkscape:label="01_Black_Frame" stroke="#1A1A1A" fill="none" stroke-width="0.875" stroke-linecap="round" stroke-linejoin="round"><path d="M 250.0,264.0 L 566.0,264.0 Q 576.0,264.0 576.0,274.0 L 576.0,782.0 Q 576.0,792.0 566.0,792.0 L 250.0,792.0 Q 240.0,792.0 240.0,782.0 L 240.0,274.0 Q 240.0,264.0 250.0,264.0" /><path d="M 253.0,270.0 L 563.0,270.0 Q 570.0,270.0 570.0,277.0 L 570.0,779.0 Q 570.0,786.0 563.0,786.0 L 253.0,786.0 Q 246.0,786.0 246.0,779.0 L 246.0,277.0 Q 246.0,270.0 253.0,270.0" /><line x1="259.0" y1="280.0" x2="263.0" y2="280.0" /><line x1="258.1" y1="282.1" x2="260.9" y2="284.9" /><line x1="256.0" y1="283.0" x2="256.0" y2="287.0" /><line x1="253.9" y1="282.1" x2="251.1" y2="284.9" /><line x1="253.0" y1="280.0" x2="249.0" y2="280.0" /><line x1="253.9" y1="277.9" x2="251.1" y2="275.1" /><line x1="256.0" y1="277.0" x2="256.0" y2="273.0" /><line x1="258.1" y1="277.9" x2="260.9" y2="275.1" /><line x1="563.0" y1="280.0" x2="567.0" y2="280.0" /><line x1="562.1" y1="282.1" x2="564.9" y2="284.9" /><line x1="560.0" y1="283.0" x2="560.0" y2="287.0" /><line x1="557.9" y1="282.1" x2="555.1" y2="284.9" /><line x1="557.0" y1="280.0" x2="553.0" y2="280.0" /><line x1="557.9" y1="277.9" x2="555.1" y2="275.1" /><line x1="560.0" y1="277.0" x2="560.0" y2="273.0" /><line x1="562.1" y1="277.9" x2="564.9" y2="275.1" /><line x1="259.0" y1="776.0" x2="263.0" y2="776.0" /><line x1="258.1" y1="778.1" x2="260.9" y2="780.9" /><line x1="256.0" y1="779.0" x2="256.0" y2="783.0" /><line x1="253.9" y1="778.1" x2="251.1" y2="780.9" /><line x1="253.0" y1="776.0" x2="249.0" y2="776.0" /><line x1="253.9" y1="773.9" x2="251.1" y2="771.1" /><line x1="256.0" y1="773.0" x2="256.0" y2="769.0" /><line x1="258.1" y1="773.9" x2="260.9" y2="771.1" /><line x1="563.0" y1="776.0" x2="567.0" y2="776.0" /><line x1="562.1" y1="778.1" x2="564.9" y2="780.9" /><line x1="560.0" y1="779.0" x2="560.0" y2="783.0" /><line x1="557.9" y1="778.1" x2="555.1" y2="780.9" /><line x1="557.0" y1="776.0" x2="553.0" y2="776.0" /><line x1="557.9" y1="773.9" x2="555.1" y2="771.1" /><line x1="560.0" y1="773.0" x2="560.0" y2="769.0" /><line x1="562.1" y1="773.9" x2="564.9" y2="771.1" /><polyline points="398.12,283.20 396.38,282.00 395.38,282.00 393.62,283.60 393.62,288.40 395.38,290.00 396.38,290.00 398.12,288.80" /><polyline points="403.88,283.20 402.12,282.00 401.12,282.00 399.38,283.60 399.38,288.40 401.12,290.00 402.12,290.00 403.88,288.80" /><polyline points="405.12,282.00 410.12,290.00" /><polyline points="410.12,282.00 405.12,290.00" /><polyline points="410.88,282.00 410.88,290.00 415.12,290.00" /><polyline points="419.12,282.00 419.12,290.00" /><polyline points="355.68,297.00 362.18,297.00" /><polyline points="358.93,297.00 358.93,307.00" /><polyline points="363.15,297.00 363.15,307.00" /><polyline points="369.65,297.00 369.65,307.00" /><polyline points="363.15,301.80 369.65,301.80" /><polyline points="376.15,297.00 370.62,297.00 370.62,301.80 374.52,301.80" /><polyline points="370.62,301.80 370.62,307.00 376.15,307.00" /><polyline points="391.10,298.00 389.47,297.00 387.52,297.00 385.90,298.50 385.57,300.00 386.55,301.20 388.82,302.00 391.10,302.80 392.07,304.00 391.75,305.50 390.12,307.00 387.85,307.00 386.22,306.00" /><polyline points="393.05,297.00 393.05,304.50 394.35,306.50 398.25,306.50 399.55,304.50 399.55,297.00" /><polyline points="406.38,298.50 404.10,297.00 402.80,297.00 400.52,299.00 400.52,305.00 402.80,307.00 404.10,307.00 406.38,305.50" /><polyline points="413.85,298.50 411.57,297.00 410.27,297.00 408.00,299.00 408.00,305.00 410.27,307.00 411.57,307.00 413.85,305.50" /><polyline points="421.00,297.00 415.48,297.00 415.48,301.80 419.38,301.80" /><polyline points="415.48,301.80 415.48,307.00 421.00,307.00" /><polyline points="428.47,298.00 426.85,297.00 424.90,297.00 423.27,298.50 422.95,300.00 423.93,301.20 426.20,302.00 428.47,302.80 429.45,304.00 429.12,305.50 427.50,307.00 425.22,307.00 423.60,306.00" /><polyline points="435.95,298.00 434.32,297.00 432.38,297.00 430.75,298.50 430.43,300.00 431.40,301.20 433.68,302.00 435.95,302.80 436.93,304.00 436.60,305.50 434.98,307.00 432.70,307.00 431.07,306.00" /><polyline points="441.15,297.00 441.15,307.00" /><polyline points="448.62,297.00 446.02,298.00 445.38,300.00 445.38,304.00 446.02,306.00 448.62,307.00 451.23,306.00 451.88,304.00 451.88,300.00 451.23,298.00 448.62,297.00" /><polyline points="452.85,307.00 452.85,297.00 459.35,307.00 459.35,297.00" /><line x1="270.0" y1="312.0" x2="546.0" y2="312.0" /><line x1="270.0" y1="732.0" x2="546.0" y2="732.0" /><polyline points="372.58,740.75 375.38,740.75" /><polyline points="373.98,740.75 373.98,745.25" /><polyline points="375.80,740.75 375.80,745.25" /><polyline points="378.60,740.75 378.60,745.25" /><polyline points="375.80,742.91 378.60,742.91" /><polyline points="379.02,745.25 379.02,740.75 380.84,740.75 381.54,741.42 381.54,742.19 380.84,742.77 379.02,742.77 381.54,745.25" /><polyline points="383.64,740.75 382.52,741.20 382.24,742.10 382.24,743.90 382.52,744.80 383.64,745.25 384.76,744.80 385.04,743.90 385.04,742.10 384.76,741.20 383.64,740.75" /><polyline points="385.46,745.25 385.46,740.75 388.26,745.25 388.26,740.75" /><polyline points="391.06,740.75 388.68,740.75 388.68,742.91 390.36,742.91" /><polyline points="388.68,742.91 388.68,745.25 391.06,745.25" /><polyline points="398.34,745.25 398.34,740.75 399.74,743.23 401.14,740.75 401.14,745.25" /><polyline points="401.56,740.75 401.56,744.12 402.12,745.02 403.80,745.02 404.36,744.12 404.36,740.75" /><polyline points="404.78,740.75 407.58,740.75" /><polyline points="406.18,740.75 406.18,745.25" /><polyline points="409.40,740.75 409.40,745.25" /><polyline points="411.22,745.25 411.22,740.75 414.02,745.25 414.02,740.75" /><polyline points="414.44,740.75 415.84,743.00 417.24,740.75" /><polyline points="415.84,743.00 415.84,745.25" /><polyline points="426.48,741.20 425.78,740.75 424.94,740.75 424.24,741.42 424.10,742.10 424.52,742.64 425.50,743.00 426.48,743.36 426.90,743.90 426.76,744.58 426.06,745.25 425.08,745.25 424.38,744.80" /><polyline points="428.72,740.75 428.72,745.25" /><polyline points="433.06,741.42 432.08,740.75 431.52,740.75 430.54,741.65 430.54,744.35 431.52,745.25 432.08,745.25 433.06,744.58 433.06,743.00 431.94,743.00" /><polyline points="433.76,745.25 433.76,740.75 436.56,745.25 436.56,740.75" /><polyline points="436.98,745.25 438.38,740.75 439.78,745.25" /><polyline points="437.48,743.67 439.28,743.67" /><polyline points="440.20,740.75 440.20,745.25 442.58,745.25" /><polyline points="334.62,754.00 333.38,753.25 331.88,753.25 330.62,754.38 330.38,755.50 331.12,756.40 332.88,757.00 334.62,757.60 335.38,758.50 335.12,759.62 333.88,760.75 332.12,760.75 330.88,760.00" /><polyline points="338.62,753.25 336.62,754.00 336.12,755.50 336.12,758.50 336.62,760.00 338.62,760.75 340.62,760.00 341.12,758.50 341.12,755.50 340.62,754.00 338.62,753.25" /><polyline points="341.88,760.75 341.88,753.25 344.38,757.38 346.88,753.25 346.88,760.75" /><polyline points="351.88,753.25 347.62,753.25 347.62,756.85 350.62,756.85" /><polyline points="347.62,756.85 347.62,760.75 351.88,760.75" /><polyline points="363.62,754.38 361.88,753.25 360.88,753.25 359.12,754.75 359.12,759.25 360.88,760.75 361.88,760.75 363.62,759.62" /><polyline points="364.88,760.75 364.88,753.25 368.12,753.25 369.38,754.38 369.38,755.65 368.12,756.62 364.88,756.62 369.38,760.75" /><polyline points="373.12,753.25 371.12,754.00 370.62,755.50 370.62,758.50 371.12,760.00 373.12,760.75 375.12,760.00 375.62,758.50 375.62,755.50 375.12,754.00 373.12,753.25" /><polyline points="376.38,753.25 377.62,760.75 378.88,755.88 380.12,760.75 381.38,753.25" /><polyline points="382.12,760.75 382.12,753.25 387.12,760.75 387.12,753.25" /><polyline points="392.12,754.00 390.88,753.25 389.38,753.25 388.12,754.38 387.88,755.50 388.62,756.40 390.38,757.00 392.12,757.60 392.88,758.50 392.62,759.62 391.38,760.75 389.62,760.75 388.38,760.00" /><polyline points="399.38,753.25 400.62,760.75 401.88,755.88 403.12,760.75 404.38,753.25" /><polyline points="405.12,760.75 407.62,753.25 410.12,760.75" /><polyline points="406.02,758.12 409.23,758.12" /><polyline points="413.38,753.25 413.38,760.75" /><polyline points="416.62,753.25 421.62,753.25" /><polyline points="419.12,753.25 419.12,760.75" /><polyline points="428.12,753.25 433.12,753.25" /><polyline points="430.62,753.25 430.62,760.75" /><polyline points="433.88,753.25 433.88,760.75" /><polyline points="438.88,753.25 438.88,760.75" /><polyline points="433.88,756.85 438.88,756.85" /><polyline points="443.88,753.25 439.62,753.25 439.62,756.85 442.62,756.85" /><polyline points="439.62,756.85 439.62,760.75 443.88,760.75" /><polyline points="447.88,753.25 447.88,760.75" /><polyline points="451.12,760.75 451.12,753.25 454.38,753.25 455.62,754.38 455.62,755.65 454.38,756.62 451.12,756.62 455.62,760.75" /><polyline points="462.62,753.25 467.62,753.25" /><polyline points="465.12,753.25 465.12,760.75" /><polyline points="468.38,753.25 468.38,758.88 469.38,760.38 472.38,760.38 473.38,758.88 473.38,753.25" /><polyline points="474.12,760.75 474.12,753.25 477.38,753.25 478.62,754.38 478.62,755.65 477.38,756.62 474.12,756.62 478.62,760.75" /><polyline points="479.88,760.75 479.88,753.25 484.88,760.75 484.88,753.25" /><polyline points="330.00,766.25 328.00,767.00 327.50,768.50 327.50,771.50 328.00,773.00 330.00,773.75 332.00,773.00 332.50,771.50 332.50,768.50 332.00,767.00 330.00,766.25" /><polyline points="333.25,766.25 338.25,766.25" /><polyline points="335.75,766.25 335.75,773.75" /><polyline points="339.00,766.25 339.00,773.75" /><polyline points="344.00,766.25 344.00,773.75" /><polyline points="339.00,769.85 344.00,769.85" /><polyline points="349.00,766.25 344.75,766.25 344.75,769.85 347.75,769.85" /><polyline points="344.75,769.85 344.75,773.75 349.00,773.75" /><polyline points="350.50,773.75 350.50,766.25 353.75,766.25 355.00,767.38 355.00,768.65 353.75,769.62 350.50,769.62 355.00,773.75" /><polyline points="360.50,767.00 359.25,766.25 357.75,766.25 356.50,767.38 356.25,768.50 357.00,769.40 358.75,770.00 360.50,770.60 361.25,771.50 361.00,772.62 359.75,773.75 358.00,773.75 356.75,773.00" /><polyline points="367.75,773.75 370.25,766.25 372.75,773.75" /><polyline points="368.65,771.12 371.85,771.12" /><polyline points="373.50,773.75 373.50,766.25 376.75,766.25 378.00,767.38 378.00,768.65 376.75,769.62 373.50,769.62 378.00,773.75" /><polyline points="383.50,766.25 379.25,766.25 379.25,769.85 382.25,769.85" /><polyline points="379.25,769.85 379.25,773.75 383.50,773.75" /><polyline points="390.75,766.25 395.75,766.25" /><polyline points="393.25,766.25 393.25,773.75" /><polyline points="396.50,773.75 399.00,766.25 401.50,773.75" /><polyline points="397.40,771.12 400.60,771.12" /><polyline points="402.25,766.25 402.25,773.75" /><polyline points="406.75,766.25 402.25,770.00 406.75,773.75" /><polyline points="412.25,766.25 408.00,766.25 408.00,769.85 411.00,769.85" /><polyline points="408.00,769.85 408.00,773.75 412.25,773.75" /><polyline points="413.75,773.75 413.75,766.25 418.75,773.75 418.75,766.25" /><polyline points="425.25,773.75 427.75,766.25 430.25,773.75" /><polyline points="426.15,771.12 429.35,771.12" /><polyline points="431.00,766.25 436.00,766.25" /><polyline points="433.50,766.25 433.50,773.75" /><polyline points="447.00,767.38 445.25,766.25 444.25,766.25 442.50,767.75 442.50,772.25 444.25,773.75 445.25,773.75 447.00,772.62 447.00,770.00 445.00,770.00" /><polyline points="448.25,766.25 448.25,771.88 449.25,773.38 452.25,773.38 453.25,771.88 453.25,766.25" /><polyline points="454.00,773.75 454.00,766.25 459.00,773.75 459.00,766.25" /><polyline points="459.75,773.75 459.75,766.25 463.00,766.25 464.25,767.38 464.25,768.65 463.00,769.62 459.75,769.62" /><polyline points="468.00,766.25 466.00,767.00 465.50,768.50 465.50,771.50 466.00,773.00 468.00,773.75 470.00,773.00 470.50,771.50 470.50,768.50 470.00,767.00 468.00,766.25" /><polyline points="473.75,766.25 473.75,773.75" /><polyline points="477.00,773.75 477.00,766.25 482.00,773.75 482.00,766.25" /><polyline points="482.75,766.25 487.75,766.25" /><polyline points="485.25,766.25 485.25,773.75" /><polyline points="378.56,779.50 380.16,784.50 381.76,779.50" /><polyline points="383.84,779.50 383.84,784.50" /><polyline points="387.52,779.50 387.52,784.50" /><polyline points="391.20,779.50 391.20,784.50" /><polyline points="394.88,784.00 394.88,784.25" /><polyline points="396.96,779.50 400.16,784.50" /><polyline points="400.16,779.50 396.96,784.50" /><polyline points="400.64,779.50 403.84,784.50" /><polyline points="403.84,779.50 400.64,784.50" /><polyline points="405.92,779.50 405.92,784.50" /><polyline points="408.00,779.50 411.20,784.50" /><polyline points="411.20,779.50 408.00,784.50" /><polyline points="413.28,784.00 413.28,784.25" /><polyline points="415.36,784.50 415.36,779.50 416.96,782.25 418.56,779.50 418.56,784.50" /><polyline points="419.04,784.50 419.04,779.50 420.64,782.25 422.24,779.50 422.24,784.50" /><polyline points="422.72,779.50 425.92,784.50" /><polyline points="425.92,779.50 422.72,784.50" /><polyline points="426.40,779.50 429.60,784.50" /><polyline points="429.60,779.50 426.40,784.50" /><polyline points="430.08,779.50 431.68,784.50 433.28,779.50" /><polyline points="435.36,779.50 435.36,784.50" /></g><g id="02_Teal_Ripple" inkscape:groupmode="layer" inkscape:label="02_Teal_Ripple" stroke="#3A7A7A" fill="none" stroke-width="0.7" stroke-linecap="round" stroke-linejoin="round"><polyline points="378.00,400.60 377.97,402.05 377.87,403.50 377.71,404.95 377.48,406.39 377.19,407.81 376.83,409.22 376.41,410.61 375.93,411.98 375.39,413.33 374.79,414.66 374.13,415.95 373.41,417.22 372.64,418.45 371.81,419.64 370.93,420.80 370.00,421.92 369.02,422.99 367.99,424.02 366.92,425.00 365.80,425.93 364.64,426.81 363.45,427.64 362.22,428.41 360.95,429.13 359.66,429.79 358.33,430.39 356.98,430.93 355.61,431.41 354.22,431.83 352.81,432.19 351.39,432.48 349.95,432.71 348.50,432.87 347.05,432.97 345.60,433.00 344.15,432.97 342.70,432.87 341.25,432.71 339.81,432.48 338.39,432.19 336.98,431.83 335.59,431.41 334.22,430.93 332.87,430.39 331.54,429.79 330.25,429.13 328.98,428.41 327.75,427.64 326.56,426.81 325.40,425.93 324.28,425.00 323.21,424.02 322.18,422.99 321.20,421.92 320.27,420.80 319.39,419.64 318.56,418.45 317.79,417.22 317.07,415.95 316.41,414.66 315.81,413.33 315.27,411.98 314.79,410.61 314.37,409.22 314.01,407.81 313.72,406.39 313.49,404.95 313.33,403.50 313.23,402.05 313.20,400.60 313.23,399.15 313.33,397.70 313.49,396.25 313.72,394.81 314.01,393.39 314.37,391.98 314.79,390.59 315.27,389.22 315.81,387.87 316.41,386.54 317.07,385.25 317.79,383.98 318.56,382.75 319.39,381.56 320.27,380.40 321.20,379.28 322.18,378.21 323.21,377.18 324.28,376.20 325.40,375.27 326.56,374.39 327.75,373.56 328.98,372.79 330.25,372.07 331.54,371.41 332.87,370.81 334.22,370.27 335.59,369.79 336.98,369.37 338.39,369.01 339.81,368.72 341.25,368.49 342.70,368.33 344.15,368.23 345.60,368.20 347.05,368.23 348.50,368.33 349.95,368.49 351.39,368.72 352.81,369.01 354.22,369.37 355.61,369.79 356.98,370.27 358.33,370.81 359.66,371.41 360.95,372.07 362.22,372.79 363.45,373.56 364.64,374.39 365.80,375.27 366.92,376.20 367.99,377.18 369.02,378.21 370.00,379.28 370.93,380.40 371.81,381.56 372.64,382.75 373.41,383.98 374.13,385.25 374.79,386.54 375.39,387.87 375.93,389.22 376.41,390.59 376.83,391.98 377.19,393.39 377.48,394.81 377.71,396.25 377.87,397.70 377.97,399.15 378.00,400.60" stroke_width="0.22" stroke_opacity="0.80" /><polyline points="410.40,400.60 410.33,403.51 410.14,406.41 409.81,409.30 409.36,412.17 408.78,415.02 408.06,417.84 407.23,420.62 406.27,423.37 405.19,426.07 403.98,428.72 402.66,431.31 401.23,433.84 399.68,436.30 398.02,438.69 396.26,441.00 394.40,443.23 392.44,445.38 390.38,447.44 388.23,449.40 386.00,451.26 383.69,453.02 381.30,454.68 378.84,456.23 376.31,457.66 373.72,458.98 371.07,460.19 368.37,461.27 365.62,462.23 362.84,463.06 360.02,463.78 357.17,464.36 354.30,464.81 351.41,465.14 348.51,465.33 345.60,465.40 342.69,465.33 339.79,465.14 336.90,464.81 334.03,464.36 331.18,463.78 328.36,463.06 325.58,462.23 322.83,461.27 320.13,460.19 317.48,458.98 314.89,457.66 312.36,456.23 309.90,454.68 307.51,453.02 305.20,451.26 302.97,449.40 300.82,447.44 298.76,445.38 296.80,443.23 294.94,441.00 293.18,438.69 291.52,436.30 289.97,433.84 288.54,431.31 287.22,428.72 286.01,426.07 284.93,423.37 283.97,420.62 283.14,417.84 282.42,415.02 281.84,412.17 281.39,409.30 281.06,406.41 280.87,403.51 280.80,400.60 280.87,397.69 281.06,394.79 281.39,391.90 281.84,389.03 282.42,386.18 283.14,383.36 283.97,380.58 284.93,377.83 286.01,375.13 287.22,372.48 288.54,369.89 289.97,367.36 291.52,364.90 293.18,362.51 294.94,360.20 296.80,357.97 298.76,355.82 300.82,353.76 302.97,351.80 305.20,349.94 307.51,348.18 309.90,346.52 312.36,344.97 314.89,343.54 317.48,342.22 320.13,341.01 322.83,339.93 325.58,338.97 328.36,338.14 331.18,337.42 334.03,336.84 336.90,336.39 339.79,336.06 342.69,335.87 345.60,335.80 348.51,335.87 351.41,336.06 354.30,336.39 357.17,336.84 360.02,337.42 362.84,338.14 365.62,338.97 368.37,339.93 371.07,341.01 373.72,342.22 376.31,343.54 378.84,344.97 381.30,346.52 383.69,348.18 386.00,349.94 388.23,351.80 390.38,353.76 392.44,355.82 394.40,357.97 396.26,360.20 398.02,362.51 399.68,364.90 401.23,367.36 402.66,369.89 403.98,372.48 405.19,375.13 406.27,377.83 407.23,380.58 408.06,383.36 408.78,386.18 409.36,389.03 409.81,391.90 410.14,394.79 410.33,397.69 410.40,400.60" stroke_width="0.22" stroke_opacity="0.75" /><polyline points="442.80,400.60 442.70,404.96 442.41,409.31 441.92,413.65 441.24,417.96 440.36,422.23 439.30,426.46 438.04,430.64 436.60,434.75 434.98,438.80 433.17,442.77 431.19,446.66 429.04,450.45 426.72,454.15 424.24,457.73 421.59,461.20 418.80,464.55 415.86,467.77 412.77,470.86 409.55,473.80 406.20,476.59 402.73,479.24 399.15,481.72 395.45,484.04 391.66,486.19 387.77,488.17 383.80,489.98 379.75,491.60 375.64,493.04 371.46,494.30 367.23,495.36 362.96,496.24 358.65,496.92 354.31,497.41 349.96,497.70 345.60,497.80 341.24,497.70 336.89,497.41 332.55,496.92 328.24,496.24 323.97,495.36 319.74,494.30 315.56,493.04 311.45,491.60 307.40,489.98 303.43,488.17 299.54,486.19 295.75,484.04 292.05,481.72 288.47,479.24 285.00,476.59 281.65,473.80 278.43,470.86 275.34,467.77 272.40,464.55 269.61,461.20 266.96,457.73 264.48,454.15 262.16,450.45 260.01,446.66 258.03,442.77 256.22,438.80 254.60,434.75 253.16,430.64" stroke_width="0.22" stroke_opacity="0.70" /><polyline points="253.16,370.56 254.60,366.45 256.22,362.40 258.03,358.43 260.01,354.54 262.16,350.75 264.48,347.05 266.96,343.47 269.61,340.00 272.40,336.65 275.34,333.43 278.43,330.34 281.65,327.40 285.00,324.61 288.47,321.96 292.05,319.48" stroke_width="0.22" stroke_opacity="0.70" /><polyline points="399.15,319.48 402.73,321.96 406.20,324.61 409.55,327.40 412.77,330.34 415.86,333.43 418.80,336.65 421.59,340.00 424.24,343.47 426.72,347.05 429.04,350.75 431.19,354.54 433.17,358.43 434.98,362.40 436.60,366.45 438.04,370.56 439.30,374.74 440.36,378.97 441.24,383.24 441.92,387.55 442.41,391.89 442.70,396.24 442.80,400.60" stroke_width="0.22" stroke_opacity="0.70" /><polyline points="475.20,400.60 475.07,406.41 474.68,412.22 474.03,418.00 473.12,423.74 471.95,429.44 470.53,435.08 468.86,440.65 466.94,446.14 464.77,451.54 462.37,456.83 459.73,462.01 456.85,467.07 453.76,472.00 450.45,476.78 446.93,481.40 443.20,485.87 439.27,490.16 435.16,494.27 430.87,498.20 426.40,501.93 421.78,505.45 417.00,508.76 412.07,511.85 407.01,514.73 401.83,517.37 396.54,519.77 391.14,521.94 385.65,523.86 380.08,525.53 374.44,526.95 368.74,528.12 363.00,529.03 357.22,529.68 351.41,530.07 345.60,530.20 339.79,530.07 333.98,529.68 328.20,529.03 322.46,528.12 316.76,526.95 311.12,525.53 305.55,523.86 300.06,521.94 294.66,519.77 289.37,517.37 284.19,514.73 279.13,511.85 274.20,508.76 269.42,505.45 264.80,501.93 260.33,498.20 256.04,494.27" stroke_width="0.22" stroke_opacity="0.65" /><polyline points="446.93,319.80 450.45,324.42 453.76,329.20 456.85,334.13 459.73,339.19 462.37,344.37 464.77,349.66 466.94,355.06 468.86,360.55 470.53,366.12 471.95,371.76 473.12,377.46 474.03,383.20 474.68,388.98 475.07,394.79 475.20,400.60" stroke_width="0.22" stroke_opacity="0.65" /><polyline points="507.60,400.60 507.44,407.87 506.95,415.12 506.13,422.35 505.00,429.53 503.54,436.65 501.76,443.70 499.67,450.66 497.27,457.52 494.56,464.27 491.56,470.89 488.26,477.37 484.67,483.69 480.80,489.85 476.66,495.82 472.26,501.61 467.60,507.19 462.69,512.55 457.55,517.69 452.19,522.60 446.61,527.26 440.82,531.66 434.85,535.80 428.69,539.67 422.37,543.26 415.89,546.56 409.27,549.56 402.52,552.27 395.66,554.67 388.70,556.76 381.65,558.54 374.53,560.00 367.35,561.13 360.12,561.95 352.87,562.44 345.60,562.60 338.33,562.44 331.08,561.95 323.85,561.13 316.67,560.00 309.55,558.54 302.50,556.76 295.54,554.67 288.68,552.27 281.93,549.56 275.31,546.56 268.83,543.26 262.51,539.67 256.35,535.80" stroke_width="0.22" stroke_opacity="0.60" /><polyline points="488.26,323.83 491.56,330.31 494.56,336.93 497.27,343.68 499.67,350.54 501.76,357.50 503.54,364.55 505.00,371.67 506.13,378.85 506.95,386.08 507.44,393.33 507.60,400.60" stroke_width="0.22" stroke_opacity="0.60" /><polyline points="540.00,400.60 539.80,409.32 539.22,418.03 538.24,426.69 536.88,435.31 535.13,443.86 532.99,452.32 530.49,460.67 527.60,468.91 524.36,477.00 520.75,484.95 516.79,492.72 512.48,500.31 507.84,507.69 502.87,514.87 497.59,521.81 492.00,528.50 486.11,534.94 479.94,541.11 473.50,547.00 466.81,552.59 459.87,557.87 452.69,562.84 445.31,567.48 437.72,571.79 429.95,575.75 422.00,579.36 413.91,582.60 405.67,585.49 397.32,587.99 388.86,590.13 380.31,591.88 371.69,593.24 363.03,594.22 354.32,594.80 345.60,595.00 336.88,594.80 328.17,594.22 319.51,593.24 310.89,591.88 302.34,590.13 293.88,587.99 285.53,585.49 277.29,582.60 269.20,579.36 261.25,575.75 253.48,571.79" stroke_width="0.22" stroke_opacity="0.55" /><polyline points="524.36,324.20 527.60,332.29 530.49,340.53 532.99,348.88 535.13,357.34 536.88,365.89 538.24,374.51 539.22,383.17 539.80,391.88 540.00,400.60" stroke_width="0.22" stroke_opacity="0.55" /><polyline points="561.30,470.69 557.94,480.29 554.15,489.74 549.94,499.00 545.32,508.07 540.30,516.93 534.88,525.54 529.09,533.91 522.92,542.01 516.40,549.82 509.53,557.33 502.33,564.53 494.82,571.40 487.01,577.92 478.91,584.09 470.54,589.88 461.93,595.30 453.07,600.32 444.00,604.94 434.74,609.15 425.29,612.94 415.69,616.30 405.94,619.23 396.07,621.71 386.10,623.76 376.04,625.35 365.93,626.49 355.78,627.17 345.60,627.40 335.42,627.17 325.27,626.49 315.16,625.35 305.10,623.76 295.13,621.71 285.26,619.23 275.51,616.30 265.91,612.94 256.46,609.15" stroke_width="0.22" stroke_opacity="0.50" /><polyline points="557.94,320.91 561.30,330.51" stroke_width="0.22" stroke_opacity="0.50" /><polyline points="561.92,543.39 555.30,552.95 548.25,562.21 540.80,571.14 532.95,579.72 524.72,587.95 516.14,595.80 507.21,603.25 497.95,610.30 488.39,616.92 478.54,623.11 468.43,628.85 458.06,634.13 447.47,638.94 436.68,643.27 425.70,647.11 414.56,650.46 403.28,653.30 391.88,655.63 380.39,657.45 368.83,658.76 357.23,659.54 345.60,659.80 333.97,659.54 322.37,658.76 310.81,657.45 299.32,655.63 287.92,653.30 276.64,650.46 265.50,647.11 254.52,643.27" stroke_width="0.22" stroke_opacity="0.45" /><polyline points="556.37,602.11 547.11,611.37 537.45,620.20 527.41,628.58 517.00,636.51 506.24,643.96 495.16,650.92 483.78,657.38 472.12,663.32 460.21,668.73 448.06,673.61 435.71,677.93 423.18,681.69 410.49,684.89 397.67,687.51 384.74,689.56 371.74,691.03 358.68,691.91 345.60,692.20 332.52,691.91 319.46,691.03 306.46,689.56 293.53,687.51 280.71,684.89 268.02,681.69 255.49,677.93" stroke_width="0.22" stroke_opacity="0.40" /><polyline points="558.77,644.60 547.61,653.91 536.04,662.72 524.09,671.00 511.78,678.74 499.13,685.91 486.18,692.51 472.94,698.53 459.45,703.94 445.72,708.74 431.80,712.92 417.70,716.48 403.45,719.39 389.09,721.67 374.64,723.30 360.14,724.27 345.60,724.60 331.06,724.27 316.56,723.30 302.11,721.67 287.75,719.39 273.50,716.48 259.40,712.92" stroke_width="0.22" stroke_opacity="0.35" /><polyline points="555.09,688.93 541.94,698.04 528.40,706.55 514.49,714.44 500.24,721.71" stroke_width="0.22" stroke_opacity="0.30" /><circle cx="345.60" cy="400.60" r="2.00" stroke-width="0.875" /><circle cx="345.60" cy="400.60" r="3.40" stroke-width="0.875" /></g><g id="03_Gold_Burst" inkscape:groupmode="layer" inkscape:label="03_Gold_Burst" stroke="#B8960C" fill="none" stroke-width="1.12" stroke-linecap="round" stroke-linejoin="round"><polyline points="457.92,616.84 410.69,581.04 408.01,584.57" stroke-width="1.2" stroke-opacity="0.74" /><polyline points="457.92,616.84 457.16,598.35 457.86,598.32" stroke-width="1.23" stroke-opacity="0.71" /><line x1="457.92" y1="616.84" x2="515.87" y2="613.81" stroke-width="0.9" stroke-opacity="0.88" /><polyline points="457.92,616.84 440.15,548.49 439.21,548.73" stroke-width="0.475" stroke-opacity="0.80" /><line x1="457.92" y1="616.84" x2="553.41" y2="579.12" stroke-width="1.15" stroke-opacity="0.56" /><line x1="457.92" y1="616.84" x2="375.76" y2="612.18" stroke-width="1.07" stroke-opacity="0.73" /><polyline points="457.92,616.84 473.82,618.04 473.84,617.81" stroke-width="1.2" stroke-opacity="0.40" /><line x1="457.92" y1="616.84" x2="564.00" y2="654.50" stroke-width="0.825" stroke-opacity="0.70" /><line x1="457.92" y1="616.84" x2="497.25" y2="622.78" stroke-width="0.85" stroke-opacity="0.39" /><line x1="457.92" y1="616.84" x2="438.22" y2="537.83" stroke-width="0.825" stroke-opacity="0.52" /><line x1="457.92" y1="616.84" x2="421.66" y2="608.11" stroke-width="1.15" stroke-opacity="0.60" /><line x1="457.92" y1="616.84" x2="500.86" y2="564.07" stroke-width="0.625" stroke-opacity="0.51" /><polyline points="457.92,616.84 497.16,623.16 497.10,623.56" stroke-width="0.575" stroke-opacity="0.54" /><line x1="457.92" y1="616.84" x2="564.00" y2="579.82" stroke-width="0.675" stroke-opacity="0.89" /><polyline points="457.92,616.84 466.81,646.14 464.11,646.96" stroke-width="0.8" stroke-opacity="0.60" /><polyline points="457.92,616.84 469.36,604.92 467.95,603.57" stroke-width="1.15" stroke-opacity="0.81" /><line x1="457.92" y1="616.84" x2="458.40" y2="536.95" stroke-width="0.625" stroke-opacity="0.66" /><polyline points="457.92,616.84 466.00,647.72 462.82,648.55" stroke-width="1.2" stroke-opacity="0.93" /><polyline points="457.92,616.84 523.74,622.01 523.64,623.24" stroke-width="1.12" stroke-opacity="0.71" /><polyline points="457.92,616.84 425.14,553.26 423.71,554.00" stroke-width="0.625" stroke-opacity="0.38" /><line x1="457.92" y1="616.84" x2="495.39" y2="659.74" stroke-width="0.9" stroke-opacity="0.54" /><polyline points="457.92,616.84 376.60,579.83 376.42,580.23" stroke-width="0.65" stroke-opacity="0.71" /><line x1="457.92" y1="616.84" x2="356.54" y2="727.00" stroke-width="1.1" stroke-opacity="0.93" /><polyline points="457.92,616.84 428.92,584.32 430.96,582.50" stroke-width="0.825" stroke-opacity="0.46" /><line x1="457.92" y1="616.84" x2="290.82" y2="589.61" stroke-width="0.675" stroke-opacity="0.81" /><polyline points="457.92,616.84 439.58,610.96 439.33,611.75" stroke-width="0.725" stroke-opacity="0.93" /><line x1="457.92" y1="616.84" x2="449.80" y2="584.89" stroke-width="0.95" stroke-opacity="0.63" /><line x1="457.92" y1="616.84" x2="506.77" y2="609.63" stroke-width="0.85" stroke-opacity="0.85" /><line x1="457.92" y1="616.84" x2="430.67" y2="485.97" stroke-width="1.12" stroke-opacity="0.71" /><line x1="457.92" y1="616.84" x2="468.73" y2="534.85" stroke-width="1.23" stroke-opacity="0.88" /><polyline points="457.92,616.84 472.69,548.77 476.06,549.50" stroke-width="0.45" stroke-opacity="0.46" /><polyline points="457.92,616.84 438.68,619.27 439.35,624.59" stroke-width="1.25" stroke-opacity="0.44" /><line x1="457.92" y1="616.84" x2="466.97" y2="540.67" stroke-width="1.12" stroke-opacity="0.71" /><line x1="457.92" y1="616.84" x2="564.00" y2="601.18" stroke-width="1.12" stroke-opacity="0.70" /><line x1="457.92" y1="616.84" x2="457.28" y2="581.35" stroke-width="0.7" stroke-opacity="0.86" /><line x1="457.92" y1="616.84" x2="414.50" y2="623.48" stroke-width="0.55" stroke-opacity="0.63" /><line x1="457.92" y1="616.84" x2="484.76" y2="727.00" stroke-width="0.575" stroke-opacity="0.47" /><polyline points="457.92,616.84 505.69,592.72 503.88,589.13" stroke-width="0.725" stroke-opacity="0.87" /><polyline points="457.92,616.84 475.94,619.41 475.80,620.40" stroke-width="1.17" stroke-opacity="0.93" /><line x1="457.92" y1="616.84" x2="366.18" y2="506.46" stroke-width="1" stroke-opacity="0.72" /><line x1="457.92" y1="616.84" x2="425.45" y2="603.73" stroke-width="0.825" stroke-opacity="0.64" /><line x1="457.92" y1="616.84" x2="294.91" y2="570.14" stroke-width="0.475" stroke-opacity="0.52" /><polyline points="457.92,616.84 463.34,693.63 461.51,693.75" stroke-width="1.02" stroke-opacity="0.92" /><polyline points="457.92,616.84 399.55,591.85 401.98,586.16" stroke-width="0.475" stroke-opacity="0.78" /><line x1="457.92" y1="616.84" x2="377.15" y2="445.86" stroke-width="0.65" stroke-opacity="0.82" /><line x1="457.92" y1="616.84" x2="448.67" y2="570.69" stroke-width="1.07" stroke-opacity="0.68" /><line x1="457.92" y1="616.84" x2="298.64" y2="562.18" stroke-width="0.65" stroke-opacity="0.81" /><polyline points="457.92,616.84 448.11,678.19 445.43,677.76" stroke-width="0.875" stroke-opacity="0.90" /><line x1="457.92" y1="616.84" x2="438.53" y2="441.32" stroke-width="0.65" stroke-opacity="0.68" /><line x1="457.92" y1="616.84" x2="528.36" y2="629.51" stroke-width="1.02" stroke-opacity="0.89" /><polyline points="457.92,616.84 458.67,634.85 461.47,634.73" stroke-width="0.475" stroke-opacity="0.53" /><polyline points="457.92,616.84 486.15,608.31 485.99,607.78" stroke-width="0.7" stroke-opacity="0.48" /><line x1="457.92" y1="616.84" x2="380.35" y2="565.62" stroke-width="0.85" stroke-opacity="0.90" /><polyline points="457.92,616.84 435.01,620.88 433.93,614.80" stroke-width="0.75" stroke-opacity="0.83" /><line x1="457.92" y1="616.84" x2="480.19" y2="705.15" stroke-width="1.1" stroke-opacity="0.78" /><line x1="457.92" y1="616.84" x2="384.41" y2="671.55" stroke-width="0.9" stroke-opacity="0.90" /><line x1="457.92" y1="616.84" x2="470.00" y2="658.43" stroke-width="1.15" stroke-opacity="0.78" /><line x1="457.92" y1="616.84" x2="467.98" y2="727.00" stroke-width="0.85" stroke-opacity="0.88" /><line x1="457.92" y1="616.84" x2="541.37" y2="611.47" stroke-width="0.95" stroke-opacity="0.35" /><line x1="457.92" y1="616.84" x2="288.80" y2="675.99" stroke-width="0.7" stroke-opacity="0.50" /><line x1="457.92" y1="616.84" x2="435.02" y2="727.00" stroke-width="0.475" stroke-opacity="0.49" /><line x1="457.92" y1="616.84" x2="422.19" y2="601.98" stroke-width="0.7" stroke-opacity="0.43" /><line x1="457.92" y1="616.84" x2="368.96" y2="458.43" stroke-width="1.17" stroke-opacity="0.52" /><polyline points="457.92,616.84 518.03,637.64 518.74,635.60" stroke-width="1" stroke-opacity="0.87" /><line x1="457.92" y1="616.84" x2="564.00" y2="594.75" stroke-width="0.725" stroke-opacity="0.92" /><polyline points="457.92,616.84 412.30,545.64 414.42,544.28" stroke-width="0.95" stroke-opacity="0.56" /><polyline points="457.92,616.84 469.06,667.50 469.34,667.44" stroke-width="0.85" stroke-opacity="0.44" /><line x1="457.92" y1="616.84" x2="431.35" y2="455.18" stroke-width="0.55" stroke-opacity="0.79" /><line x1="457.92" y1="616.84" x2="445.26" y2="536.68" stroke-width="0.65" stroke-opacity="0.82" /><line x1="457.92" y1="616.84" x2="458.87" y2="555.97" stroke-width="0.975" stroke-opacity="0.42" /><line x1="457.92" y1="616.84" x2="553.91" y2="486.66" stroke-width="0.825" stroke-opacity="0.65" /><polyline points="457.92,616.84 366.87,586.83 368.76,581.10" stroke-width="0.65" stroke-opacity="0.76" /><line x1="457.92" y1="616.84" x2="300.77" y2="706.76" stroke-width="1.07" stroke-opacity="0.92" /><line x1="457.92" y1="616.84" x2="414.89" y2="643.58" stroke-width="0.575" stroke-opacity="0.60" /><line x1="457.92" y1="616.84" x2="492.11" y2="727.00" stroke-width="0.7" stroke-opacity="0.82" /><line x1="457.92" y1="616.84" x2="406.17" y2="572.58" stroke-width="0.625" stroke-opacity="0.62" /><line x1="457.92" y1="616.84" x2="521.61" y2="579.05" stroke-width="1.15" stroke-opacity="0.42" /><polyline points="457.92,616.84 477.94,621.42 478.46,619.15" stroke-width="1.02" stroke-opacity="0.80" /><line x1="457.92" y1="616.84" x2="544.41" y2="727.00" stroke-width="1.02" stroke-opacity="0.68" /><polyline points="457.92,616.84 420.25,614.63 420.10,617.21" stroke-width="0.6" stroke-opacity="0.86" /><line x1="457.92" y1="616.84" x2="476.07" y2="584.51" stroke-width="0.625" stroke-opacity="0.65" /><polyline points="457.92,616.84 449.75,642.54 455.67,644.42" stroke-width="0.9" stroke-opacity="0.58" /><line x1="457.92" y1="616.84" x2="496.91" y2="633.81" stroke-width="0.775" stroke-opacity="0.48" /><polyline points="457.92,616.84 387.38,605.31 386.39,611.38" stroke-width="0.625" stroke-opacity="0.54" /><polyline points="457.92,616.84 410.94,566.67 413.21,564.54" stroke-width="1.25" stroke-opacity="0.71" /><polyline points="457.92,616.84 383.52,568.20 383.46,568.29" stroke-width="1.15" stroke-opacity="0.83" /><line x1="457.92" y1="616.84" x2="444.15" y2="675.82" stroke-width="0.85" stroke-opacity="0.76" /><line x1="457.92" y1="616.84" x2="383.41" y2="604.89" stroke-width="0.7" stroke-opacity="0.67" /><line x1="457.92" y1="616.84" x2="371.51" y2="535.93" stroke-width="0.825" stroke-opacity="0.80" /><line x1="457.92" y1="616.84" x2="564.00" y2="511.29" stroke-width="0.65" stroke-opacity="0.44" /><line x1="457.92" y1="616.84" x2="303.26" y2="590.60" stroke-width="0.55" stroke-opacity="0.41" /><polyline points="457.92,616.84 497.75,600.47 498.11,601.34" stroke-width="1.12" stroke-opacity="0.72" /><line x1="457.92" y1="616.84" x2="509.17" y2="727.00" stroke-width="1.02" stroke-opacity="0.53" /><polyline points="457.92,616.84 427.89,601.87 428.57,600.51" stroke-width="1.02" stroke-opacity="0.40" /><polyline points="457.92,616.84 523.34,680.71 527.27,676.68" stroke-width="0.95" stroke-opacity="0.75" /><polyline points="457.92,616.84 430.93,680.75 431.96,681.19" stroke-width="0.525" stroke-opacity="0.36" /><line x1="457.92" y1="616.84" x2="521.40" y2="608.40" stroke-width="0.475" stroke-opacity="0.45" /><line x1="457.92" y1="616.84" x2="427.48" y2="601.47" stroke-width="0.9" stroke-opacity="0.72" /><line x1="457.92" y1="616.84" x2="302.70" y2="689.51" stroke-width="1.17" stroke-opacity="0.58" /><line x1="457.92" y1="616.84" x2="501.04" y2="719.43" stroke-width="0.5" stroke-opacity="0.50" /><line x1="457.92" y1="616.84" x2="456.07" y2="620.20" stroke-width="1.38" /><line x1="457.92" y1="616.84" x2="455.17" y2="616.75" stroke-width="1.38" /><line x1="457.92" y1="616.84" x2="459.48" y2="616.19" stroke-width="1.38" /><line x1="457.92" y1="616.84" x2="461.56" y2="615.97" stroke-width="1.38" /><line x1="457.92" y1="616.84" x2="463.03" y2="615.54" stroke-width="1.38" /><line x1="457.92" y1="616.84" x2="453.22" y2="620.03" stroke-width="1.38" /><line x1="457.92" y1="616.84" x2="459.41" y2="619.72" stroke-width="1.38" /><line x1="457.92" y1="616.84" x2="459.68" y2="619.27" stroke-width="1.38" /><line x1="457.92" y1="616.84" x2="454.03" y2="616.66" stroke-width="1.38" /><line x1="457.92" y1="616.84" x2="456.71" y2="616.67" stroke-width="1.38" /><line x1="457.92" y1="616.84" x2="458.40" y2="614.75" stroke-width="1.38" /><line x1="457.92" y1="616.84" x2="460.28" y2="621.31" stroke-width="1.38" /><line x1="457.92" y1="616.84" x2="458.27" y2="612.33" stroke-width="1.38" /><line x1="457.92" y1="616.84" x2="460.81" y2="620.37" stroke-width="1.38" /><line x1="457.92" y1="616.84" x2="458.76" y2="619.37" stroke-width="1.38" /><line x1="457.92" y1="616.84" x2="459.12" y2="615.90" stroke-width="1.38" /><line x1="457.92" y1="616.84" x2="460.12" y2="616.43" stroke-width="1.38" /><line x1="457.92" y1="616.84" x2="455.57" y2="617.71" stroke-width="1.38" /><line x1="457.92" y1="616.84" x2="452.51" y2="616.33" stroke-width="1.38" /><line x1="457.92" y1="616.84" x2="460.22" y2="616.07" stroke-width="1.38" /><line x1="457.92" y1="616.84" x2="457.71" y2="615.26" stroke-width="1.38" /><line x1="457.92" y1="616.84" x2="458.70" y2="618.55" stroke-width="1.38" /><line x1="457.92" y1="616.84" x2="459.69" y2="613.78" stroke-width="1.38" /><line x1="457.92" y1="616.84" x2="458.90" y2="618.17" stroke-width="1.38" /><line x1="457.92" y1="616.84" x2="462.31" y2="613.97" stroke-width="1.38" /><line x1="457.92" y1="616.84" x2="453.79" y2="621.05" stroke-width="1.38" /><line x1="457.92" y1="616.84" x2="463.43" y2="616.56" stroke-width="1.38" /><line x1="457.92" y1="616.84" x2="458.79" y2="613.89" stroke-width="1.38" /><line x1="457.92" y1="616.84" x2="454.39" y2="617.95" stroke-width="1.38" /><line x1="457.92" y1="616.84" x2="456.84" y2="611.33" stroke-width="1.38" /><line x1="457.92" y1="616.84" x2="459.07" y2="622.10" stroke-width="1.38" /><line x1="457.92" y1="616.84" x2="458.63" y2="621.55" stroke-width="1.38" /><line x1="457.92" y1="616.84" x2="463.61" y2="618.05" stroke-width="1.38" /><line x1="457.92" y1="616.84" x2="458.15" y2="611.35" stroke-width="1.38" /><line x1="457.92" y1="616.84" x2="459.38" y2="614.04" stroke-width="1.38" /><line x1="457.92" y1="616.84" x2="453.43" y2="615.23" stroke-width="1.38" /><line x1="457.92" y1="616.84" x2="458.04" y2="615.31" stroke-width="1.38" /><line x1="457.92" y1="616.84" x2="455.61" y2="618.34" stroke-width="1.38" /><line x1="457.92" y1="616.84" x2="458.23" y2="620.10" stroke-width="1.38" /><line x1="457.92" y1="616.84" x2="452.49" y2="616.58" stroke-width="1.38" /><circle cx="333.08" cy="526.51" r="0.44" fill="#B8960C" stroke="none" fill-opacity="0.58" /><circle cx="374.76" cy="537.22" r="0.43" fill="#B8960C" stroke="none" fill-opacity="0.47" /><circle cx="420.79" cy="492.04" r="0.52" fill="#B8960C" stroke="none" fill-opacity="0.34" /><circle cx="384.13" cy="450.98" r="0.34" fill="#B8960C" stroke="none" fill-opacity="0.47" /><circle cx="525.17" cy="529.04" r="0.36" fill="#B8960C" stroke="none" fill-opacity="0.34" /><circle cx="535.94" cy="503.50" r="0.30" fill="#B8960C" stroke="none" fill-opacity="0.73" /><circle cx="431.72" cy="558.03" r="0.32" fill="#B8960C" stroke="none" fill-opacity="0.61" /><circle cx="343.13" cy="709.46" r="0.28" fill="#B8960C" stroke="none" fill-opacity="0.56" /><circle cx="465.06" cy="545.58" r="0.35" fill="#B8960C" stroke="none" fill-opacity="0.32" /><circle cx="538.32" cy="700.46" r="0.33" fill="#B8960C" stroke="none" fill-opacity="0.51" /><circle cx="520.24" cy="430.62" r="0.37" fill="#B8960C" stroke="none" fill-opacity="0.36" /><circle cx="424.13" cy="673.10" r="0.29" fill="#B8960C" stroke="none" fill-opacity="0.54" /><circle cx="407.37" cy="525.12" r="0.28" fill="#B8960C" stroke="none" fill-opacity="0.66" /><circle cx="530.96" cy="626.59" r="0.28" fill="#B8960C" stroke="none" fill-opacity="0.39" /><circle cx="497.58" cy="466.36" r="0.29" fill="#B8960C" stroke="none" fill-opacity="0.69" /><circle cx="363.59" cy="507.60" r="0.44" fill="#B8960C" stroke="none" fill-opacity="0.37" /><circle cx="411.14" cy="462.14" r="0.45" fill="#B8960C" stroke="none" fill-opacity="0.62" /><circle cx="441.96" cy="513.89" r="0.32" fill="#B8960C" stroke="none" fill-opacity="0.72" /><circle cx="530.11" cy="694.11" r="0.46" fill="#B8960C" stroke="none" fill-opacity="0.43" /><circle cx="468.64" cy="543.25" r="0.40" fill="#B8960C" stroke="none" fill-opacity="0.38" /><circle cx="331.13" cy="722.52" r="0.39" fill="#B8960C" stroke="none" fill-opacity="0.33" /><circle cx="509.32" cy="725.96" r="0.39" fill="#B8960C" stroke="none" fill-opacity="0.52" /><circle cx="442.27" cy="697.20" r="0.31" fill="#B8960C" stroke="none" fill-opacity="0.41" /><circle cx="527.66" cy="627.86" r="0.33" fill="#B8960C" stroke="none" fill-opacity="0.45" /><circle cx="365.39" cy="505.22" r="0.47" fill="#B8960C" stroke="none" fill-opacity="0.50" /><circle cx="489.40" cy="451.57" r="0.37" fill="#B8960C" stroke="none" fill-opacity="0.56" /><circle cx="417.96" cy="661.85" r="0.42" fill="#B8960C" stroke="none" fill-opacity="0.49" /><circle cx="540.54" cy="521.22" r="0.49" fill="#B8960C" stroke="none" fill-opacity="0.52" /><circle cx="467.51" cy="694.24" r="0.49" fill="#B8960C" stroke="none" fill-opacity="0.71" /><circle cx="405.03" cy="489.03" r="0.45" fill="#B8960C" stroke="none" fill-opacity="0.43" /><circle cx="458.53" cy="551.94" r="0.31" fill="#B8960C" stroke="none" fill-opacity="0.62" /><circle cx="492.64" cy="492.68" r="0.31" fill="#B8960C" stroke="none" fill-opacity="0.53" /><circle cx="496.33" cy="680.39" r="0.55" fill="#B8960C" stroke="none" fill-opacity="0.68" /><circle cx="366.76" cy="621.29" r="0.35" fill="#B8960C" stroke="none" fill-opacity="0.48" /><circle cx="511.45" cy="566.45" r="0.48" fill="#B8960C" stroke="none" fill-opacity="0.50" /><circle cx="522.37" cy="552.39" r="0.29" fill="#B8960C" stroke="none" fill-opacity="0.44" /><circle cx="363.21" cy="457.26" r="0.44" fill="#B8960C" stroke="none" fill-opacity="0.46" /><circle cx="311.86" cy="682.29" r="0.28" fill="#B8960C" stroke="none" fill-opacity="0.66" /><circle cx="366.25" cy="700.30" r="0.31" fill="#B8960C" stroke="none" fill-opacity="0.63" /><circle cx="370.37" cy="520.13" r="0.36" fill="#B8960C" stroke="none" fill-opacity="0.57" /><circle cx="372.75" cy="669.04" r="0.32" fill="#B8960C" stroke="none" fill-opacity="0.31" /><circle cx="493.98" cy="452.53" r="0.44" fill="#B8960C" stroke="none" fill-opacity="0.46" /><circle cx="535.81" cy="482.77" r="0.37" fill="#B8960C" stroke="none" fill-opacity="0.50" /><circle cx="349.25" cy="645.89" r="0.27" fill="#B8960C" stroke="none" fill-opacity="0.35" /><circle cx="463.55" cy="506.50" r="0.30" fill="#B8960C" stroke="none" fill-opacity="0.58" /><circle cx="360.99" cy="635.33" r="0.40" fill="#B8960C" stroke="none" fill-opacity="0.53" /><circle cx="381.05" cy="707.53" r="0.40" fill="#B8960C" stroke="none" fill-opacity="0.48" /><circle cx="486.83" cy="695.42" r="0.43" fill="#B8960C" stroke="none" fill-opacity="0.42" /><circle cx="359.94" cy="459.96" r="0.40" fill="#B8960C" stroke="none" fill-opacity="0.74" /><circle cx="323.70" cy="699.48" r="0.53" fill="#B8960C" stroke="none" fill-opacity="0.49" /><circle cx="340.45" cy="566.04" r="0.40" fill="#B8960C" stroke="none" fill-opacity="0.51" /><circle cx="549.48" cy="595.36" r="0.33" fill="#B8960C" stroke="none" fill-opacity="0.41" /><circle cx="410.16" cy="679.00" r="0.52" fill="#B8960C" stroke="none" fill-opacity="0.72" /><circle cx="556.99" cy="500.07" r="0.26" fill="#B8960C" stroke="none" fill-opacity="0.73" /><circle cx="409.47" cy="683.87" r="0.45" fill="#B8960C" stroke="none" fill-opacity="0.65" /><circle cx="514.26" cy="575.13" r="0.55" fill="#B8960C" stroke="none" fill-opacity="0.72" /><circle cx="410.67" cy="468.70" r="0.41" fill="#B8960C" stroke="none" fill-opacity="0.34" /><circle cx="357.97" cy="656.06" r="0.34" fill="#B8960C" stroke="none" fill-opacity="0.31" /><circle cx="374.35" cy="605.85" r="0.48" fill="#B8960C" stroke="none" fill-opacity="0.59" /><circle cx="375.09" cy="474.87" r="0.52" fill="#B8960C" stroke="none" fill-opacity="0.51" /><circle cx="357.97" cy="629.68" r="0.43" fill="#B8960C" stroke="none" fill-opacity="0.54" /></g></svg>