<?xml version='1.0' encoding='utf-8'?>
<svg xmlns="http://www.w3.org/2000/svg" xmlns:inkscape="http://www.inkscape.org/namespaces/inkscape" viewBox="204 228 408 600"><style>*{vector-effect:non-scaling-stroke}</style><g id="01_Black_Frame" inkscape:groupmode="layer" inkscape:label="01_Black_Frame" stroke="#1A1A1A" fill="none" stroke-width="0.875" stroke-linecap="round" stroke-linejoin="round"><path d="M 250.0,264.0 L 566.0,264.0 Q 576.0,264.0 576.0,274.0 L 576.0,782.0 Q 576.0,792.0 566.0,792.0 L 250.0,792.0 Q 240.0,792.0 240.0,782.0 L 240.0,274.0 Q 240.0,264.0 250.0,264.0" /><path d="M 253.0,270.0 L 563.0,270.0 Q 570.0,270.0 570.0,277.0 L 570.0,779.0 Q 570.0,786.0 563.0,786.0 L 253.0,786.0 Q 246.0,786.0 246.0,779.0 L 246.0,277.0 Q 246.0,270.0 253.0,270.0" /><line x1="259.0" y1="280.0" x2="263.0" y2="280.0" /><line x1="258.1" y1="282.1" x2="260.9" y2="284.9" /><line x1="256.0" y1="283.0" x2="256.0" y2="287.0" /><line x1="253.9" y1="282.1" x2="251.1" y2="284.9" /><line x1="253.0" y1="280.0" x2="249.0" y2="280.0" /><line x1="253.9" y1="277.9" x2="251.1" y2="275.1" /><line x1="256.0" y1="277.0" x2="256.0" y2="273.0" /><line x1="258.1" y1="277.9" x2="260.9" y2="275.1" /><line x1="563.0" y1="280.0" x2="567.0" y2="280.0" /><line x1="562.1" y1="282.1" x2="564.9" y2="284.9" /><line x1="560.0" y1="283.0" x2="560.0" y2="287.0" /><line x1="557.9" y1="282.1" x2="555.1" y2="284.9" /><line x1="557.0" y1="280.0" x2="553.0" y2="280.0" /><line x1="557.9" y1="277.9" x2="555.1" y2="275.1" /><line x1="560.0" y1="277.0" x2="560.0" y2="273.0" /><line x1="562.1" y1="277.9" x2="564.9" y2="275.1" /><line x1="259.0" y1="776.0" x2="263.0" y2="776.0" /><line x1="258.1" y1="778.1" x2="260.9" y2="780.9" /><line x1="256.0" y1="779.0" x2="256.0" y2="783.0" /><line x1="253.9" y1="778.1" x2="251.1" y2="780.9" /><line x1="253.0" y1="776.0" x2="249.0" y2="776.0" /><line x1="253.9" y1="773.9" x2="251.1" y2="771.1" /><line x1="256.0" y1="773.0" x2="256.0" y2="769.0" /><line x1="258.1" y1="773.9" x2="260.9" y2="771.1" /><line x1="563.0" y1="776.0" x2="567.0" y2="776.0" /><line x1="562.1" y1="778.1" x2="564.9" y2="780.9" /><line x1="560.0" y1="779.0" x2="560.0" y2="783.0" /><line x1="557.9" y1="778.1" x2="555.1" y2="780.9" /><line x1="557.0" y1="776.0" x2="553.0" y2="776.0" /><line x1="557.9" y1="773.9" x2="555.1" y2="771.1" /><line x1="560.0" y1="773.0" x2="560.0" y2="769.0" /><line x1="562.1" y1="773.9" x2="564.9" y2="771.1" /><polyline points="403.88,283.20 402.12,282.00 401.12,282.00 399.38,283.60 399.38,288.40 401.12,290.00 402.12,290.00 403.88,288.80" /><polyline points="405.12,282.00 405.12,290.00 409.38,290.00" /><polyline points="410.88,282.00 413.38,290.00 415.88,282.00" /><polyline points="363.15,297.00 369.65,297.00" /><polyline points="366.40,297.00 366.40,307.00" /><polyline points="370.62,297.00 370.62,307.00" /><polyline points="377.12,297.00 377.12,307.00" /><polyline points="370.62,301.80 377.12,301.80" /><polyline points="383.62,297.00 378.10,297.00 378.10,301.80 382.00,301.80" /><polyline points="378.10,301.80 378.10,307.00 383.62,307.00" /><polyline points="393.05,307.00 396.30,297.00 399.55,307.00" /><polyline points="394.22,303.50 398.38,303.50" /><polyline points="406.05,298.00 404.42,297.00 402.47,297.00 400.85,298.50 400.52,300.00 401.50,301.20 403.77,302.00 406.05,302.80 407.02,304.00 406.70,305.50 405.07,307.00 402.80,307.00 401.17,306.00" /><polyline points="408.00,297.00 414.50,297.00" /><polyline points="411.25,297.00 411.25,307.00" /><polyline points="421.00,297.00 415.47,297.00 415.47,301.80 419.37,301.80" /><polyline points="415.47,301.80 415.47,307.00 421.00,307.00" /><polyline points="422.95,307.00 422.95,297.00 427.18,297.00 428.80,298.50 428.80,300.20 427.18,301.50 422.95,301.50 428.80,307.00" /><polyline points="433.67,297.00 433.67,307.00" /><polyline points="443.42,298.00 441.80,297.00 439.85,297.00 438.22,298.50 437.90,300.00 438.88,301.20 441.15,302.00 443.42,302.80 444.40,304.00 444.07,305.50 442.45,307.00 440.17,307.00 438.55,306.00" /><polyline points="445.38,297.00 445.38,307.00" /><polyline points="451.23,297.00 445.38,302.00 451.23,307.00" /><line x1="270.0" y1="312.0" x2="546.0" y2="312.0" /><line x1="270.0" y1="732.0" x2="546.0" y2="732.0" /><polyline points="366.14,740.75 366.84,745.25 367.54,742.33 368.24,745.25 368.94,740.75" /><polyline points="370.76,740.75 369.64,741.20 369.36,742.10 369.36,743.90 369.64,744.80 370.76,745.25 371.88,744.80 372.16,743.90 372.16,742.10 371.88,741.20 370.76,740.75" /><polyline points="372.58,745.25 372.58,740.75 374.40,740.75 375.10,741.42 375.10,742.19 374.40,742.77 372.58,742.77 375.10,745.25" /><polyline points="375.80,740.75 375.80,745.25" /><polyline points="378.32,740.75 375.80,743.00 378.32,745.25" /><polyline points="381.40,740.75 379.02,740.75 379.02,742.91 380.70,742.91" /><polyline points="379.02,742.91 379.02,745.25 381.40,745.25" /><polyline points="382.24,745.25 382.24,740.75 384.06,740.75 384.76,741.42 384.76,742.19 384.06,742.77 382.24,742.77 384.76,745.25" /><polyline points="387.84,741.20 387.14,740.75 386.30,740.75 385.60,741.42 385.46,742.10 385.88,742.64 386.86,743.00 387.84,743.36 388.26,743.90 388.12,744.58 387.42,745.25 386.44,745.25 385.74,744.80" /><polyline points="397.50,741.20 396.80,740.75 395.96,740.75 395.26,741.42 395.12,742.10 395.54,742.64 396.52,743.00 397.50,743.36 397.92,743.90 397.78,744.58 397.08,745.25 396.10,745.25 395.40,744.80" /><polyline points="398.34,740.75 401.14,740.75" /><polyline points="399.74,740.75 399.74,745.25" /><polyline points="401.56,745.25 401.56,740.75 403.38,740.75 404.08,741.42 404.08,742.19 403.38,742.77 401.56,742.77 404.08,745.25" /><polyline points="406.18,740.75 406.18,745.25" /><polyline points="408.00,740.75 408.00,745.25" /><polyline points="410.52,740.75 408.00,743.00 410.52,745.25" /><polyline points="413.60,740.75 411.22,740.75 411.22,742.91 412.90,742.91" /><polyline points="411.22,742.91 411.22,745.25 413.60,745.25" /><polyline points="416.82,741.20 416.12,740.75 415.28,740.75 414.58,741.42 414.44,742.10 414.86,742.64 415.84,743.00 416.82,743.36 417.24,743.90 417.10,744.58 416.40,745.25 415.42,745.25 414.72,744.80" /><polyline points="424.10,745.25 424.10,740.75 425.50,743.23 426.90,740.75 426.90,745.25" /><polyline points="428.72,740.75 427.60,741.20 427.32,742.10 427.32,743.90 427.60,744.80 428.72,745.25 429.84,744.80 430.12,743.90 430.12,742.10 429.84,741.20 428.72,740.75" /><polyline points="430.54,745.25 430.54,740.75 432.08,740.75 433.06,741.88 433.06,744.12 432.08,745.25 430.54,745.25" /><polyline points="436.14,740.75 433.76,740.75 433.76,742.91 435.44,742.91" /><polyline points="433.76,742.91 433.76,745.25 436.14,745.25" /><polyline points="436.98,745.25 436.98,740.75 438.80,740.75 439.50,741.42 439.50,742.19 438.80,742.77 436.98,742.77 439.50,745.25" /><polyline points="440.20,745.25 441.60,740.75 443.00,745.25" /><polyline points="440.70,743.67 442.50,743.67" /><polyline points="443.42,740.75 446.22,740.75" /><polyline points="444.82,740.75 444.82,745.25" /><polyline points="449.02,740.75 446.64,740.75 446.64,742.91 448.32,742.91" /><polyline points="446.64,742.91 446.64,745.25 449.02,745.25" /><polyline points="328.88,754.00 327.62,753.25 326.12,753.25 324.88,754.38 324.62,755.50 325.38,756.40 327.12,757.00 328.88,757.60 329.62,758.50 329.38,759.62 328.12,760.75 326.38,760.75 325.12,760.00" /><polyline points="330.38,753.25 330.38,760.75" /><polyline points="335.38,753.25 335.38,760.75" /><polyline points="330.38,756.85 335.38,756.85" /><polyline points="338.62,753.25 336.62,754.00 336.12,755.50 336.12,758.50 336.62,760.00 338.62,760.75 340.62,760.00 341.12,758.50 341.12,755.50 340.62,754.00 338.62,753.25" /><polyline points="344.38,753.25 342.38,754.00 341.88,755.50 341.88,758.50 342.38,760.00 344.38,760.75 346.38,760.00 346.88,758.50 346.88,755.50 346.38,754.00 344.38,753.25" /><polyline points="347.62,753.25 352.62,753.25" /><polyline points="350.12,753.25 350.12,760.75" /><polyline points="355.88,753.25 355.88,760.75" /><polyline points="359.12,760.75 359.12,753.25 364.12,760.75 364.12,753.25" /><polyline points="369.38,754.38 367.62,753.25 366.62,753.25 364.88,754.75 364.88,759.25 366.62,760.75 367.62,760.75 369.38,759.62 369.38,757.00 367.38,757.00" /><polyline points="378.88,753.25 378.88,760.75" /><polyline points="382.12,760.75 382.12,753.25 387.12,760.75 387.12,753.25" /><polyline points="393.62,760.75 396.12,753.25 398.62,760.75" /><polyline points="394.52,758.12 397.73,758.12" /><polyline points="405.12,760.75 405.12,753.25 407.62,757.38 410.12,753.25 410.12,760.75" /><polyline points="413.38,753.25 411.38,754.00 410.88,755.50 410.88,758.50 411.38,760.00 413.38,760.75 415.38,760.00 415.88,758.50 415.88,755.50 415.38,754.00 413.38,753.25" /><polyline points="416.62,760.75 416.62,753.25 419.38,753.25 421.12,755.12 421.12,758.88 419.38,760.75 416.62,760.75" /><polyline points="426.62,753.25 422.38,753.25 422.38,756.85 425.38,756.85" /><polyline points="422.38,756.85 422.38,760.75 426.62,760.75" /><polyline points="428.12,760.75 428.12,753.25 431.38,753.25 432.62,754.38 432.62,755.65 431.38,756.62 428.12,756.62 432.62,760.75" /><polyline points="433.88,760.75 436.38,753.25 438.88,760.75" /><polyline points="434.77,758.12 437.98,758.12" /><polyline points="439.62,753.25 444.62,753.25" /><polyline points="442.12,753.25 442.12,760.75" /><polyline points="449.62,753.25 445.38,753.25 445.38,756.85 448.38,756.85" /><polyline points="445.38,756.85 445.38,760.75 449.62,760.75" /><polyline points="456.88,760.75 456.88,753.25 459.38,757.38 461.88,753.25 461.88,760.75" /><polyline points="462.62,760.75 465.12,753.25 467.62,760.75" /><polyline points="463.52,758.12 466.73,758.12" /><polyline points="468.38,760.75 468.38,753.25 473.38,760.75 473.38,753.25" /><polyline points="474.12,760.75 474.12,753.25 479.12,760.75 479.12,753.25" /><polyline points="484.12,753.25 479.88,753.25 479.88,756.85 482.88,756.85" /><polyline points="479.88,756.85 479.88,760.75 484.12,760.75" /><polyline points="485.62,760.75 485.62,753.25 488.88,753.25 490.12,754.38 490.12,755.65 488.88,756.62 485.62,756.62 490.12,760.75" /><polyline points="344.38,766.25 344.38,773.75" /><polyline points="351.88,767.00 350.62,766.25 349.12,766.25 347.88,767.38 347.62,768.50 348.38,769.40 350.12,770.00 351.88,770.60 352.62,771.50 352.38,772.62 351.12,773.75 349.38,773.75 348.12,773.00" /><polyline points="359.12,766.25 360.38,773.75 361.62,768.88 362.88,773.75 364.12,766.25" /><polyline points="364.88,766.25 364.88,773.75" /><polyline points="369.88,766.25 369.88,773.75" /><polyline points="364.88,769.85 369.88,769.85" /><polyline points="370.62,773.75 373.12,766.25 375.62,773.75" /><polyline points="371.52,771.12 374.73,771.12" /><polyline points="376.38,766.25 381.38,766.25" /><polyline points="378.88,766.25 378.88,773.75" /><polyline points="387.88,766.25 392.88,766.25" /><polyline points="390.38,766.25 390.38,773.75" /><polyline points="393.62,766.25 393.62,773.75" /><polyline points="398.62,766.25 398.62,773.75" /><polyline points="393.62,769.85 398.62,769.85" /><polyline points="403.62,766.25 399.38,766.25 399.38,769.85 402.38,769.85" /><polyline points="399.38,769.85 399.38,773.75 403.62,773.75" /><polyline points="405.12,766.25 407.62,770.00 410.12,766.25" /><polyline points="407.62,770.00 407.62,773.75" /><polyline points="421.12,767.38 419.38,766.25 418.38,766.25 416.62,767.75 416.62,772.25 418.38,773.75 419.38,773.75 421.12,772.62" /><polyline points="422.38,773.75 424.88,766.25 427.38,773.75" /><polyline points="423.27,771.12 426.48,771.12" /><polyline points="428.12,766.25 428.12,773.75 432.38,773.75" /><polyline points="433.88,766.25 433.88,773.75 438.12,773.75" /><polyline points="445.38,773.75 445.38,766.25 448.62,766.25 449.88,767.38 449.88,768.65 448.62,769.62 445.38,769.62" /><polyline points="455.38,766.25 451.12,766.25 451.12,769.85 454.12,769.85" /><polyline points="451.12,769.85 451.12,773.75 455.38,773.75" /><polyline points="456.88,773.75 459.38,766.25 461.88,773.75" /><polyline points="457.77,771.12 460.98,771.12" /><polyline points="467.12,767.38 465.38,766.25 464.38,766.25 462.62,767.75 462.62,772.25 464.38,773.75 465.38,773.75 467.12,772.62" /><polyline points="472.62,766.25 468.38,766.25 468.38,769.85 471.38,769.85" /><polyline points="468.38,769.85 468.38,773.75 472.62,773.75" /><polyline points="385.92,779.50 387.52,784.50 389.12,779.50" /><polyline points="391.20,779.50 391.20,784.50" /><polyline points="394.88,784.00 394.88,784.25" /><polyline points="398.56,779.50 398.56,784.50" /><polyline points="400.64,779.50 402.24,784.50 403.84,779.50" /><polyline points="405.92,784.00 405.92,784.25" /><polyline points="408.00,784.50 408.00,779.50 409.60,782.25 411.20,779.50 411.20,784.50" /><polyline points="411.68,784.50 411.68,779.50 413.28,782.25 414.88,779.50 414.88,784.50" /><polyline points="415.36,779.50 418.56,784.50" /><polyline points="418.56,779.50 415.36,784.50" /><polyline points="419.04,779.50 422.24,784.50" /><polyline points="422.24,779.50 419.04,784.50" /><polyline points="422.72,779.50 424.32,784.50 425.92,779.50" /><polyline points="428.00,779.50 428.00,784.50" /></g><g id="02_Teal_Arms" inkscape:groupmode="layer" inkscape:label="02_Teal_Arms" stroke="#3A7A7A" fill="none" stroke-width="0.7" stroke-linecap="round" stroke-linejoin="round"><line x1="420.11" y1="528.01" x2="420.11" y2="528.01" /><line x1="429.08" y1="528.94" x2="427.11" y2="533.71" /><line x1="437.91" y1="530.23" x2="434.26" y2="539.03" /><line x1="446.58" y1="531.89" x2="441.57" y2="543.99" /><line x1="455.10" y1="533.92" x2="449.02" y2="548.58" /><line x1="463.47" y1="536.31" x2="456.63" y2="552.81" /><line x1="471.68" y1="539.07" x2="464.39" y2="556.67" /><line x1="479.75" y1="542.20" x2="472.31" y2="560.16" /><line x1="487.66" y1="545.69" x2="480.37" y2="563.28" /><line x1="495.42" y1="549.55" x2="488.59" y2="566.04" /><line x1="503.03" y1="553.77" x2="496.96" y2="568.44" /><line x1="510.49" y1="558.37" x2="505.48" y2="570.46" /><line x1="517.79" y1="563.32" x2="514.15" y2="572.12" /><line x1="524.95" y1="568.65" x2="522.97" y2="573.41" /><line x1="531.95" y1="574.34" x2="531.95" y2="574.34" /><line x1="413.01" y1="535.11" x2="413.01" y2="535.11" /><line x1="418.71" y1="542.11" x2="413.94" y2="544.08" /><line x1="424.03" y1="549.26" x2="415.23" y2="552.91" /><line x1="428.99" y1="556.57" x2="416.89" y2="561.58" /><line x1="433.58" y1="564.02" x2="418.92" y2="570.10" /><line x1="437.81" y1="571.63" x2="421.31" y2="578.47" /><line x1="441.67" y1="579.39" x2="424.07" y2="586.68" /><line x1="445.16" y1="587.31" x2="427.20" y2="594.75" /><line x1="448.28" y1="595.37" x2="430.69" y2="602.66" /><line x1="451.04" y1="603.59" x2="434.55" y2="610.42" /><line x1="453.44" y1="611.96" x2="438.77" y2="618.03" /><line x1="455.46" y1="620.48" x2="443.37" y2="625.49" /><line x1="457.12" y1="629.15" x2="448.32" y2="632.79" /><line x1="458.41" y1="637.97" x2="453.65" y2="639.95" /><line x1="459.34" y1="646.95" x2="459.34" y2="646.95" /><line x1="402.99" y1="535.11" x2="402.99" y2="535.11" /><line x1="402.06" y1="544.08" x2="397.29" y2="542.11" /><line x1="400.77" y1="552.91" x2="391.97" y2="549.26" /><line x1="399.11" y1="561.58" x2="387.01" y2="556.57" /><line x1="397.08" y1="570.10" x2="382.42" y2="564.02" /><line x1="394.69" y1="578.47" x2="378.19" y2="571.63" /><line x1="391.93" y1="586.68" x2="374.33" y2="579.39" /><line x1="388.80" y1="594.75" x2="370.84" y2="587.31" /><line x1="385.31" y1="602.66" x2="367.72" y2="595.37" /><line x1="381.45" y1="610.42" x2="364.96" y2="603.59" /><line x1="377.23" y1="618.03" x2="362.56" y2="611.96" /><line x1="372.63" y1="625.49" x2="360.54" y2="620.48" /><line x1="367.68" y1="632.79" x2="358.88" y2="629.15" /><line x1="362.35" y1="639.95" x2="357.59" y2="637.97" /><line x1="356.66" y1="646.95" x2="356.66" y2="646.95" /><line x1="395.89" y1="528.01" x2="395.89" y2="528.01" /><line x1="388.89" y1="533.71" x2="386.92" y2="528.94" /><line x1="381.74" y1="539.03" x2="378.09" y2="530.23" /><line x1="374.43" y1="543.99" x2="369.42" y2="531.89" /><line x1="366.98" y1="548.58" x2="360.90" y2="533.92" /><line x1="359.37" y1="552.81" x2="352.53" y2="536.31" /><line x1="351.61" y1="556.67" x2="344.32" y2="539.07" /><line x1="343.69" y1="560.16" x2="336.25" y2="542.20" /><line x1="335.63" y1="563.28" x2="328.34" y2="545.69" /><line x1="327.41" y1="566.04" x2="320.58" y2="549.55" /><line x1="319.04" y1="568.44" x2="312.97" y2="553.77" /><line x1="310.52" y1="570.46" x2="305.51" y2="558.37" /><line x1="301.85" y1="572.12" x2="298.21" y2="563.32" /><line x1="293.03" y1="573.41" x2="291.05" y2="568.65" /><line x1="284.05" y1="574.34" x2="284.05" y2="574.34" /><line x1="395.89" y1="517.99" x2="395.89" y2="517.99" /><line x1="386.92" y1="517.06" x2="388.89" y2="512.29" /><line x1="378.09" y1="515.77" x2="381.74" y2="506.97" /><line x1="369.42" y1="514.11" x2="374.43" y2="502.01" /><line x1="360.90" y1="512.08" x2="366.98" y2="497.42" /><line x1="352.53" y1="509.69" x2="359.37" y2="493.19" /><line x1="344.32" y1="506.93" x2="351.61" y2="489.33" /><line x1="336.25" y1="503.80" x2="343.69" y2="485.84" /><line x1="328.34" y1="500.31" x2="335.63" y2="482.72" /><line x1="320.58" y1="496.45" x2="327.41" y2="479.96" /><line x1="312.97" y1="492.23" x2="319.04" y2="477.56" /><line x1="305.51" y1="487.63" x2="310.52" y2="475.54" /><line x1="298.21" y1="482.68" x2="301.85" y2="473.88" /><line x1="291.05" y1="477.35" x2="293.03" y2="472.59" /><line x1="284.05" y1="471.66" x2="284.05" y2="471.66" /><line x1="402.99" y1="510.89" x2="402.99" y2="510.89" /><line x1="397.29" y1="503.89" x2="402.06" y2="501.92" /><line x1="391.97" y1="496.74" x2="400.77" y2="493.09" /><line x1="387.01" y1="489.43" x2="399.11" y2="484.42" /><line x1="382.42" y1="481.98" x2="397.08" y2="475.90" /><line x1="378.19" y1="474.37" x2="394.69" y2="467.53" /><line x1="374.33" y1="466.61" x2="391.93" y2="459.32" /><line x1="370.84" y1="458.69" x2="388.80" y2="451.25" /><line x1="367.72" y1="450.63" x2="385.31" y2="443.34" /><line x1="364.96" y1="442.41" x2="381.45" y2="435.58" /><line x1="362.56" y1="434.04" x2="377.23" y2="427.97" /><line x1="360.54" y1="425.52" x2="372.63" y2="420.51" /><line x1="358.88" y1="416.85" x2="367.68" y2="413.21" /><line x1="357.59" y1="408.03" x2="362.35" y2="406.05" /><line x1="356.66" y1="399.05" x2="356.66" y2="399.05" /><line x1="413.01" y1="510.89" x2="413.01" y2="510.89" /><line x1="413.94" y1="501.92" x2="418.71" y2="503.89" /><line x1="415.23" y1="493.09" x2="424.03" y2="496.74" /><line x1="416.89" y1="484.42" x2="428.99" y2="489.43" /><line x1="418.92" y1="475.90" x2="433.58" y2="481.98" /><line x1="421.31" y1="467.53" x2="437.81" y2="474.37" /><line x1="424.07" y1="459.32" x2="441.67" y2="466.61" /><line x1="427.20" y1="451.25" x2="445.16" y2="458.69" /><line x1="430.69" y1="443.34" x2="448.28" y2="450.63" /><line x1="434.55" y1="435.58" x2="451.04" y2="442.41" /><line x1="438.77" y1="427.97" x2="453.44" y2="434.04" /><line x1="443.37" y1="420.51" x2="455.46" y2="425.52" /><line x1="448.32" y1="413.21" x2="457.12" y2="416.85" /><line x1="453.65" y1="406.05" x2="458.41" y2="408.03" /><line x1="459.34" y1="399.05" x2="459.34" y2="399.05" /><line x1="420.11" y1="517.99" x2="420.11" y2="517.99" /><line x1="427.11" y1="512.29" x2="429.08" y2="517.06" /><line x1="434.26" y1="506.97" x2="437.91" y2="515.77" /><line x1="441.57" y1="502.01" x2="446.58" y2="514.11" /><line x1="449.02" y1="497.42" x2="455.10" y2="512.08" /><line x1="456.63" y1="493.19" x2="463.47" y2="509.69" /><line x1="464.39" y1="489.33" x2="471.68" y2="506.93" /><line x1="472.31" y1="485.84" x2="479.75" y2="503.80" /><line x1="480.37" y1="482.72" x2="487.66" y2="500.31" /><line x1="488.59" y1="479.96" x2="495.42" y2="496.45" /><line x1="496.96" y1="477.56" x2="503.03" y2="492.23" /><line x1="505.48" y1="475.54" x2="510.49" y2="487.63" /><line x1="514.15" y1="473.88" x2="517.79" y2="482.68" /><line x1="522.97" y1="472.59" x2="524.95" y2="477.35" /><line x1="531.95" y1="471.66" x2="531.95" y2="471.66" /></g><g id="03_Gold_Beyond" inkscape:groupmode="layer" inkscape:label="03_Gold_Beyond" stroke="#B8960C" fill="none" stroke-width="0.55" stroke-linecap="round" stroke-linejoin="round"><line x1="539.38" y1="577.42" x2="564.00" y2="710.36" /><line x1="462.42" y1="654.38" x2="564.00" y2="727.00" /><line x1="353.58" y1="654.38" x2="252.00" y2="727.00" /><line x1="276.62" y1="577.42" x2="252.00" y2="710.36" /><line x1="276.62" y1="468.58" x2="252.00" y2="335.64" /><line x1="353.58" y1="391.62" x2="252.00" y2="319.00" /><line x1="462.42" y1="391.62" x2="564.00" y2="319.00" /><line x1="539.38" y1="468.58" x2="564.00" y2="335.64" /><line x1="413.39" y1="530.74" x2="411.53" y2="531.75" /><line x1="411.53" y1="531.75" x2="409.50" y2="532.32" /><line x1="409.50" y1="532.32" x2="407.39" y2="532.41" /><line x1="407.39" y1="532.41" x2="405.31" y2="532.04" /><line x1="405.31" y1="532.04" x2="403.36" y2="531.22" /><line x1="403.36" y1="531.22" x2="401.65" y2="529.98" /><line x1="401.65" y1="529.98" x2="400.26" y2="528.39" /><line x1="400.26" y1="528.39" x2="399.25" y2="526.53" /><line x1="399.25" y1="526.53" x2="398.68" y2="524.50" /><line x1="398.68" y1="524.50" x2="398.59" y2="522.39" /><line x1="398.59" y1="522.39" x2="398.96" y2="520.31" /><line x1="398.96" y1="520.31" x2="399.78" y2="518.36" /><line x1="399.78" y1="518.36" x2="401.02" y2="516.65" /><line x1="401.02" y1="516.65" x2="402.61" y2="515.26" /><line x1="402.61" y1="515.26" x2="404.47" y2="514.25" /><line x1="404.47" y1="514.25" x2="406.50" y2="513.68" /><line x1="406.50" y1="513.68" x2="408.61" y2="513.59" /><line x1="408.61" y1="513.59" x2="410.69" y2="513.96" /><line x1="410.69" y1="513.96" x2="412.64" y2="514.78" /><line x1="412.64" y1="514.78" x2="414.35" y2="516.02" /><line x1="414.35" y1="516.02" x2="415.74" y2="517.61" /><line x1="415.74" y1="517.61" x2="416.75" y2="519.47" /><line x1="416.75" y1="519.47" x2="417.32" y2="521.50" /></g></svg>