<?xml version='1.0' encoding='utf-8'?>
<svg xmlns="http://www.w3.org/2000/svg" xmlns:inkscape="http://www.inkscape.org/namespaces/inkscape" viewBox="204 228 408 600"><style>*{vector-effect:non-scaling-stroke}</style><g id="01_Black_Frame" inkscape:groupmode="layer" inkscape:label="01_Black_Frame" stroke="#1A1A1A" fill="none" stroke-width="0.875" stroke-linecap="round" stroke-linejoin="round"><path d="M 250.0,264.0 L 566.0,264.0 Q 576.0,264.0 576.0,274.0 L 576.0,782.0 Q 576.0,792.0 566.0,792.0 L 250.0,792.0 Q 240.0,792.0 240.0,782.0 L 240.0,274.0 Q 240.0,264.0 250.0,264.0" /><path d="M 253.0,270.0 L 563.0,270.0 Q 570.0,270.0 570.0,277.0 L 570.0,779.0 Q 570.0,786.0 563.0,786.0 L 253.0,786.0 Q 246.0,786.0 246.0,779.0 L 246.0,277.0 Q 246.0,270.0 253.0,270.0" /><line x1="259.0" y1="280.0" x2="263.0" y2="280.0" /><line x1="258.1" y1="282.1" x2="260.9" y2="284.9" /><line x1="256.0" y1="283.0" x2="256.0" y2="287.0" /><line x1="253.9" y1="282.1" x2="251.1" y2="284.9" /><line x1="253.0" y1="280.0" x2="249.0" y2="280.0" /><line x1="253.9" y1="277.9" x2="251.1" y2="275.1" /><line x1="256.0" y1="277.0" x2="256.0" y2="273.0" /><line x1="258.1" y1="277.9" x2="260.9" y2="275.1" /><line x1="563.0" y1="280.0" x2="567.0" y2="280.0" /><line x1="562.1" y1="282.1" x2="564.9" y2="284.9" /><line x1="560.0" y1="283.0" x2="560.0" y2="287.0" /><line x1="557.9" y1="282.1" x2="555.1" y2="284.9" /><line x1="557.0" y1="280.0" x2="553.0" y2="280.0" /><line x1="557.9" y1="277.9" x2="555.1" y2="275.1" /><line x1="560.0" y1="277.0" x2="560.0" y2="273.0" /><line x1="562.1" y1="277.9" x2="564.9" y2="275.1" /><line x1="259.0" y1="776.0" x2="263.0" y2="776.0" /><line x1="258.1" y1="778.1" x2="260.9" y2="780.9" /><line x1="256.0" y1="779.0" x2="256.0" y2="783.0" /><line x1="253.9" y1="778.1" x2="251.1" y2="780.9" /><line x1="253.0" y1="776.0" x2="249.0" y2="776.0" /><line x1="253.9" y1="773.9" x2="251.1" y2="771.1" /><line x1="256.0" y1="773.0" x2="256.0" y2="769.0" /><line x1="258.1" y1="773.9" x2="260.9" y2="771.1" /><line x1="563.0" y1="776.0" x2="567.0" y2="776.0" /><line x1="562.1" y1="778.1" x2="564.9" y2="780.9" /><line x1="560.0" y1="779.0" x2="560.0" y2="783.0" /><line x1="557.9" y1="778.1" x2="555.1" y2="780.9" /><line x1="557.0" y1="776.0" x2="553.0" y2="776.0" /><line x1="557.9" y1="773.9" x2="555.1" y2="771.1" /><line x1="560.0" y1="773.0" x2="560.0" y2="769.0" /><line x1="562.1" y1="773.9" x2="564.9" y2="771.1" /><polyline points="395.25,283.20 393.50,282.00 392.50,282.00 390.75,283.60 390.75,288.40 392.50,290.00 393.50,290.00 395.25,288.80" /><polyline points="396.50,282.00 396.50,290.00 400.75,290.00" /><polyline points="402.25,282.00 407.25,290.00" /><polyline points="407.25,282.00 402.25,290.00" /><polyline points="408.00,282.00 413.00,290.00" /><polyline points="413.00,282.00 408.00,290.00" /><polyline points="416.25,282.00 416.25,290.00" /><polyline points="419.50,282.00 422.00,290.00 424.50,282.00" /><polyline points="366.89,297.00 373.39,297.00" /><polyline points="370.14,297.00 370.14,307.00" /><polyline points="374.36,297.00 374.36,307.00" /><polyline points="380.86,297.00 380.86,307.00" /><polyline points="374.36,301.80 380.86,301.80" /><polyline points="387.36,297.00 381.84,297.00 381.84,301.80 385.74,301.80" /><polyline points="381.84,301.80 381.84,307.00 387.36,307.00" /><polyline points="396.79,307.00 396.79,297.00 403.29,307.00 403.29,297.00" /><polyline points="404.26,307.00 407.51,297.00 410.76,307.00" /><polyline points="405.43,303.50 409.59,303.50" /><polyline points="411.74,307.00 411.74,297.00 415.96,297.00 417.59,298.50 417.59,300.20 415.96,301.50 411.74,301.50 417.59,307.00" /><polyline points="419.21,307.00 419.21,297.00 423.44,297.00 425.06,298.50 425.06,300.20 423.44,301.50 419.21,301.50 425.06,307.00" /><polyline points="429.94,297.00 427.34,298.00 426.69,300.00 426.69,304.00 427.34,306.00 429.94,307.00 432.54,306.00 433.19,304.00 433.19,300.00 432.54,298.00 429.94,297.00" /><polyline points="434.16,297.00 435.79,307.00 437.41,300.50 439.04,307.00 440.66,297.00" /><polyline points="447.16,298.00 445.54,297.00 443.59,297.00 441.96,298.50 441.64,300.00 442.61,301.20 444.89,302.00 447.16,302.80 448.14,304.00 447.81,305.50 446.19,307.00 443.91,307.00 442.29,306.00" /><line x1="270.0" y1="312.0" x2="546.0" y2="312.0" /><line x1="270.0" y1="732.0" x2="546.0" y2="732.0" /><polyline points="375.59,740.75 375.59,745.25" /><polyline points="377.41,745.25 377.41,740.75 379.23,740.75 379.93,741.42 379.93,742.19 379.23,742.77 377.41,742.77 379.93,745.25" /><polyline points="380.63,745.25 382.03,740.75 383.43,745.25" /><polyline points="381.13,743.67 382.93,743.67" /><polyline points="383.85,745.25 383.85,740.75 386.65,745.25 386.65,740.75" /><polyline points="393.51,740.75 393.51,745.25" /><polyline points="396.31,740.75 396.31,745.25" /><polyline points="393.51,742.91 396.31,742.91" /><polyline points="399.11,740.75 396.73,740.75 396.73,742.91 398.41,742.91" /><polyline points="396.73,742.91 396.73,745.25 399.11,745.25" /><polyline points="399.95,745.25 401.35,740.75 402.75,745.25" /><polyline points="400.45,743.67 402.25,743.67" /><polyline points="403.17,740.75 405.97,740.75" /><polyline points="404.57,740.75 404.57,745.25" /><polyline points="415.35,741.42 414.37,740.75 413.81,740.75 412.83,741.65 412.83,744.35 413.81,745.25 414.37,745.25 415.35,744.58" /><polyline points="418.43,740.75 416.05,740.75 416.05,742.91 417.73,742.91" /><polyline points="416.05,742.91 416.05,745.25 418.43,745.25" /><polyline points="419.27,745.25 420.67,740.75 422.07,745.25" /><polyline points="419.77,743.67 421.57,743.67" /><polyline points="424.87,741.20 424.17,740.75 423.33,740.75 422.63,741.42 422.49,742.10 422.91,742.64 423.89,743.00 424.87,743.36 425.29,743.90 425.15,744.58 424.45,745.25 423.47,745.25 422.77,744.80" /><polyline points="428.09,740.75 425.71,740.75 425.71,742.91 427.39,742.91" /><polyline points="425.71,742.91 425.71,745.25 428.09,745.25" /><polyline points="431.31,740.75 428.93,740.75 428.93,742.91 430.61,742.91" /><polyline points="428.93,742.91 428.93,745.25" /><polyline points="433.55,740.75 433.55,745.25" /><polyline points="435.37,745.25 435.37,740.75 437.19,740.75 437.89,741.42 437.89,742.19 437.19,742.77 435.37,742.77 437.89,745.25" /><polyline points="440.97,740.75 438.59,740.75 438.59,742.91 440.27,742.91" /><polyline points="438.59,742.91 438.59,745.25 440.97,745.25" /><polyline points="324.62,753.25 329.62,753.25" /><polyline points="327.12,753.25 327.12,760.75" /><polyline points="330.38,753.25 330.38,760.75" /><polyline points="335.38,753.25 335.38,760.75" /><polyline points="330.38,756.85 335.38,756.85" /><polyline points="340.38,753.25 336.12,753.25 336.12,756.85 339.12,756.85" /><polyline points="336.12,756.85 336.12,760.75 340.38,760.75" /><polyline points="347.62,753.25 348.88,760.75 350.12,755.88 351.38,760.75 352.62,753.25" /><polyline points="355.88,753.25 353.88,754.00 353.38,755.50 353.38,758.50 353.88,760.00 355.88,760.75 357.88,760.00 358.38,758.50 358.38,755.50 357.88,754.00 355.88,753.25" /><polyline points="359.12,760.75 359.12,753.25 362.38,753.25 363.62,754.38 363.62,755.65 362.38,756.62 359.12,756.62 363.62,760.75" /><polyline points="364.88,753.25 364.88,760.75 369.12,760.75" /><polyline points="370.62,760.75 370.62,753.25 373.38,753.25 375.12,755.12 375.12,758.88 373.38,760.75 370.62,760.75" /><polyline points="382.12,753.25 382.12,760.75" /><polyline points="387.12,753.25 387.12,760.75" /><polyline points="382.12,756.85 387.12,756.85" /><polyline points="392.12,753.25 387.88,753.25 387.88,756.85 390.88,756.85" /><polyline points="387.88,756.85 387.88,760.75 392.12,760.75" /><polyline points="393.62,753.25 393.62,760.75 397.88,760.75" /><polyline points="399.38,760.75 399.38,753.25 402.12,753.25 403.88,755.12 403.88,758.88 402.12,760.75 399.38,760.75" /><polyline points="410.88,760.75 413.38,753.25 415.88,760.75" /><polyline points="411.77,758.12 414.98,758.12" /><polyline points="416.62,753.25 421.62,753.25" /><polyline points="419.12,753.25 419.12,760.75" /><polyline points="428.12,753.25 433.12,753.25" /><polyline points="430.62,753.25 430.62,760.75" /><polyline points="433.88,753.25 433.88,760.75" /><polyline points="438.88,753.25 438.88,760.75" /><polyline points="433.88,756.85 438.88,756.85" /><polyline points="443.88,753.25 439.62,753.25 439.62,756.85 442.62,756.85" /><polyline points="439.62,756.85 439.62,760.75 443.88,760.75" /><polyline points="451.12,760.75 451.12,753.25 456.12,760.75 456.12,753.25" /><polyline points="456.88,760.75 459.38,753.25 461.88,760.75" /><polyline points="457.77,758.12 460.98,758.12" /><polyline points="462.62,760.75 462.62,753.25 465.88,753.25 467.12,754.38 467.12,755.65 465.88,756.62 462.62,756.62 467.12,760.75" /><polyline points="468.38,760.75 468.38,753.25 471.62,753.25 472.88,754.38 472.88,755.65 471.62,756.62 468.38,756.62 472.88,760.75" /><polyline points="476.62,753.25 474.62,754.00 474.12,755.50 474.12,758.50 474.62,760.00 476.62,760.75 478.62,760.00 479.12,758.50 479.12,755.50 478.62,754.00 476.62,753.25" /><polyline points="479.88,753.25 481.12,760.75 482.38,755.88 483.62,760.75 484.88,753.25" /><polyline points="489.88,754.00 488.62,753.25 487.12,753.25 485.88,754.38 485.62,755.50 486.38,756.40 488.12,757.00 489.88,757.60 490.62,758.50 490.38,759.62 489.12,760.75 487.38,760.75 486.12,760.00" /><polyline points="315.62,766.25 313.62,767.00 313.12,768.50 313.12,771.50 313.62,773.00 315.62,773.75 317.62,773.00 318.12,771.50 318.12,768.50 317.62,767.00 315.62,766.25" /><polyline points="321.38,766.25 321.38,773.75" /><polyline points="324.62,766.25 324.62,773.75 328.88,773.75" /><polyline points="338.62,766.25 336.62,767.00 336.12,768.50 336.12,771.50 336.62,773.00 338.62,773.75 340.62,773.00 341.12,771.50 341.12,768.50 340.62,767.00 338.62,766.25" /><polyline points="341.88,773.75 341.88,766.25 345.12,766.25 346.38,767.38 346.38,768.65 345.12,769.62 341.88,769.62 346.38,773.75" /><polyline points="353.38,773.75 353.38,766.25 356.62,766.25 357.62,767.15 357.62,768.35 356.62,769.25 353.38,769.25 356.62,769.25 357.62,770.15 357.62,772.85 356.62,773.75 353.38,773.75" /><polyline points="359.12,766.25 359.12,773.75 363.38,773.75" /><polyline points="367.38,766.25 365.38,767.00 364.88,768.50 364.88,771.50 365.38,773.00 367.38,773.75 369.38,773.00 369.88,771.50 369.88,768.50 369.38,767.00 367.38,766.25" /><polyline points="373.12,766.25 371.12,767.00 370.62,768.50 370.62,771.50 371.12,773.00 373.12,773.75 375.12,773.00 375.62,771.50 375.62,768.50 375.12,767.00 373.12,766.25" /><polyline points="376.38,773.75 376.38,766.25 379.12,766.25 380.88,768.12 380.88,771.88 379.12,773.75 376.38,773.75" /><polyline points="384.62,773.00 384.62,773.38" /><polyline points="393.62,766.25 394.88,773.75 396.12,768.88 397.38,773.75 398.62,766.25" /><polyline points="399.38,766.25 399.38,773.75" /><polyline points="404.38,766.25 404.38,773.75" /><polyline points="399.38,769.85 404.38,769.85" /><polyline points="407.62,766.25 405.62,767.00 405.12,768.50 405.12,771.50 405.62,773.00 407.62,773.75 409.62,773.00 410.12,771.50 410.12,768.50 409.62,767.00 407.62,766.25" /><polyline points="419.12,766.25 417.12,767.00 416.62,768.50 416.62,771.50 417.12,773.00 419.12,773.75 421.12,773.00 421.62,771.50 421.62,768.50 421.12,767.00 419.12,766.25" /><polyline points="422.38,773.75 422.38,766.25 425.62,766.25 426.88,767.38 426.88,768.65 425.62,769.62 422.38,769.62" /><polyline points="432.38,766.25 428.12,766.25 428.12,769.85 431.12,769.85" /><polyline points="428.12,769.85 428.12,773.75 432.38,773.75" /><polyline points="433.88,773.75 433.88,766.25 438.88,773.75 438.88,766.25" /><polyline points="443.88,767.00 442.62,766.25 441.12,766.25 439.88,767.38 439.62,768.50 440.38,769.40 442.12,770.00 443.88,770.60 444.62,771.50 444.38,772.62 443.12,773.75 441.38,773.75 440.12,773.00" /><polyline points="451.12,766.25 456.12,766.25" /><polyline points="453.62,766.25 453.62,773.75" /><polyline points="456.88,766.25 456.88,773.75" /><polyline points="461.88,766.25 461.88,773.75" /><polyline points="456.88,769.85 461.88,769.85" /><polyline points="466.88,766.25 462.62,766.25 462.62,769.85 465.62,769.85" /><polyline points="462.62,769.85 462.62,773.75 466.88,773.75" /><polyline points="474.12,773.75 474.12,766.25 476.88,766.25 478.62,768.12 478.62,771.88 476.88,773.75 474.12,773.75" /><polyline points="482.38,766.25 480.38,767.00 479.88,768.50 479.88,771.50 480.38,773.00 482.38,773.75 484.38,773.00 484.88,771.50 484.88,768.50 484.38,767.00 482.38,766.25" /><polyline points="488.12,766.25 486.12,767.00 485.62,768.50 485.62,771.50 486.12,773.00 488.12,773.75 490.12,773.00 490.62,771.50 490.62,768.50 490.12,767.00 488.12,766.25" /><polyline points="491.38,773.75 491.38,766.25 494.62,766.25 495.88,767.38 495.88,768.65 494.62,769.62 491.38,769.62 495.88,773.75" /><polyline points="499.62,773.00 499.62,773.38" /><polyline points="380.40,779.50 382.00,784.50 383.60,779.50" /><polyline points="385.68,779.50 385.68,784.50" /><polyline points="389.36,784.00 389.36,784.25" /><polyline points="391.44,779.50 394.64,784.50" /><polyline points="394.64,779.50 391.44,784.50" /><polyline points="395.12,779.50 398.32,784.50" /><polyline points="398.32,779.50 395.12,784.50" /><polyline points="400.40,779.50 400.40,784.50" /><polyline points="404.08,779.50 404.08,784.50" /><polyline points="407.76,779.50 407.76,784.50" /><polyline points="411.44,784.00 411.44,784.25" /><polyline points="413.52,784.50 413.52,779.50 415.12,782.25 416.72,779.50 416.72,784.50" /><polyline points="417.20,784.50 417.20,779.50 418.80,782.25 420.40,779.50 420.40,784.50" /><polyline points="420.88,779.50 424.08,784.50" /><polyline points="424.08,779.50 420.88,784.50" /><polyline points="424.56,779.50 427.76,784.50" /><polyline points="427.76,779.50 424.56,784.50" /><polyline points="428.24,779.50 429.84,784.50 431.44,779.50" /><polyline points="433.52,779.50 433.52,784.50" /></g><g id="02_Teal_Flow" inkscape:groupmode="layer" inkscape:label="02_Teal_Flow" stroke="#3A7A7A" fill="none" stroke-width="0.75" stroke-linecap="round" stroke-linejoin="round"><path d="M 252.0,319.0 C 252.0,421.0 379.9,453.6 379.9,474.0 C 379.9,494.4 252.0,625.0 252.0,727.0" fill="none" stroke-width="0.525" stroke-opacity="0.31" /><path d="M 256.2,319.0 C 256.2,421.0 380.7,453.6 380.7,474.0 C 380.7,494.4 256.2,625.0 256.2,727.0" fill="none" stroke-width="0.525" stroke-opacity="0.31" /><path d="M 260.4,319.0 C 260.4,421.0 381.4,453.6 381.4,474.0 C 381.4,494.4 260.4,625.0 260.4,727.0" fill="none" stroke-width="0.525" stroke-opacity="0.32" /><path d="M 264.6,319.0 C 264.6,421.0 382.2,453.6 382.2,474.0 C 382.2,494.4 264.6,625.0 264.6,727.0" fill="none" stroke-width="0.55" stroke-opacity="0.32" /><path d="M 268.9,319.0 C 268.9,421.0 383.0,453.6 383.0,474.0 C 383.0,494.4 268.9,625.0 268.9,727.0" fill="none" stroke-width="0.55" stroke-opacity="0.32" /><path d="M 273.1,319.0 C 273.1,421.0 383.7,453.6 383.7,474.0 C 383.7,494.4 273.1,625.0 273.1,727.0" fill="none" stroke-width="0.55" stroke-opacity="0.32" /><path d="M 277.3,319.0 C 277.3,421.0 384.5,453.6 384.5,474.0 C 384.5,494.4 277.3,625.0 277.3,727.0" fill="none" stroke-width="0.55" stroke-opacity="0.33" /><path d="M 281.5,319.0 C 281.5,421.0 385.2,453.6 385.2,474.0 C 385.2,494.4 281.5,625.0 281.5,727.0" fill="none" stroke-width="0.55" stroke-opacity="0.33" /><path d="M 285.7,319.0 C 285.7,421.0 386.0,453.6 386.0,474.0 C 386.0,494.4 285.7,625.0 285.7,727.0" fill="none" stroke-width="0.575" stroke-opacity="0.33" /><path d="M 289.9,319.0 C 289.9,421.0 386.8,453.6 386.8,474.0 C 386.8,494.4 289.9,625.0 289.9,727.0" fill="none" stroke-width="0.575" stroke-opacity="0.34" /><path d="M 294.2,319.0 C 294.2,421.0 387.5,453.6 387.5,474.0 C 387.5,494.4 294.2,625.0 294.2,727.0" fill="none" stroke-width="0.575" stroke-opacity="0.34" /><path d="M 298.4,319.0 C 298.4,421.0 388.3,453.6 388.3,474.0 C 388.3,494.4 298.4,625.0 298.4,727.0" fill="none" stroke-width="0.575" stroke-opacity="0.34" /><path d="M 302.6,319.0 C 302.6,421.0 389.0,453.6 389.0,474.0 C 389.0,494.4 302.6,625.0 302.6,727.0" fill="none" stroke-width="0.575" stroke-opacity="0.35" /><path d="M 306.8,319.0 C 306.8,421.0 389.8,453.6 389.8,474.0 C 389.8,494.4 306.8,625.0 306.8,727.0" fill="none" stroke-width="0.575" stroke-opacity="0.35" /><path d="M 311.0,319.0 C 311.0,421.0 390.5,453.6 390.5,474.0 C 390.5,494.4 311.0,625.0 311.0,727.0" fill="none" stroke-width="0.6" stroke-opacity="0.35" /><path d="M 315.2,319.0 C 315.2,421.0 391.3,453.6 391.3,474.0 C 391.3,494.4 315.2,625.0 315.2,727.0" fill="none" stroke-width="0.6" stroke-opacity="0.35" /><path d="M 319.5,319.0 C 319.5,421.0 392.1,453.6 392.1,474.0 C 392.1,494.4 319.5,625.0 319.5,727.0" fill="none" stroke-width="0.6" stroke-opacity="0.36" /><path d="M 323.7,319.0 C 323.7,421.0 392.8,453.6 392.8,474.0 C 392.8,494.4 323.7,625.0 323.7,727.0" fill="none" stroke-width="0.6" stroke-opacity="0.36" /><path d="M 327.9,319.0 C 327.9,421.0 393.6,453.6 393.6,474.0 C 393.6,494.4 327.9,625.0 327.9,727.0" fill="none" stroke-width="0.6" stroke-opacity="0.36" /><path d="M 332.1,319.0 C 332.1,421.0 394.3,453.6 394.3,474.0 C 394.3,494.4 332.1,625.0 332.1,727.0" fill="none" stroke-width="0.625" stroke-opacity="0.37" /><path d="M 336.3,319.0 C 336.3,421.0 395.1,453.6 395.1,474.0 C 395.1,494.4 336.3,625.0 336.3,727.0" fill="none" stroke-width="0.625" stroke-opacity="0.37" /><path d="M 340.5,319.0 C 340.5,421.0 395.9,453.6 395.9,474.0 C 395.9,494.4 340.5,625.0 340.5,727.0" fill="none" stroke-width="0.625" stroke-opacity="0.37" /><path d="M 344.8,319.0 C 344.8,421.0 396.6,453.6 396.6,474.0 C 396.6,494.4 344.8,625.0 344.8,727.0" fill="none" stroke-width="0.625" stroke-opacity="0.38" /><path d="M 349.0,319.0 C 349.0,421.0 397.4,453.6 397.4,474.0 C 397.4,494.4 349.0,625.0 349.0,727.0" fill="none" stroke-width="0.625" stroke-opacity="0.38" /><path d="M 353.2,319.0 C 353.2,421.0 398.1,453.6 398.1,474.0 C 398.1,494.4 353.2,625.0 353.2,727.0" fill="none" stroke-width="0.65" stroke-opacity="0.38" /><path d="M 357.4,319.0 C 357.4,421.0 398.9,453.6 398.9,474.0 C 398.9,494.4 357.4,625.0 357.4,727.0" fill="none" stroke-width="0.65" stroke-opacity="0.38" /><path d="M 361.6,319.0 C 361.6,421.0 399.7,453.6 399.7,474.0 C 399.7,494.4 361.6,625.0 361.6,727.0" fill="none" stroke-width="0.65" stroke-opacity="0.39" /><path d="M 365.8,319.0 C 365.8,421.0 400.4,453.6 400.4,474.0 C 400.4,494.4 365.8,625.0 365.8,727.0" fill="none" stroke-width="0.65" stroke-opacity="0.39" /><path d="M 370.1,319.0 C 370.1,421.0 401.2,453.6 401.2,474.0 C 401.2,494.4 370.1,625.0 370.1,727.0" fill="none" stroke-width="0.65" stroke-opacity="0.39" /><path d="M 374.3,319.0 C 374.3,421.0 401.9,453.6 401.9,474.0 C 401.9,494.4 374.3,625.0 374.3,727.0" fill="none" stroke-width="0.65" stroke-opacity="0.40" /><path d="M 378.5,319.0 C 378.5,421.0 402.7,453.6 402.7,474.0 C 402.7,494.4 378.5,625.0 378.5,727.0" fill="none" stroke-width="0.675" stroke-opacity="0.40" /><path d="M 382.7,319.0 C 382.7,421.0 403.4,453.6 403.4,474.0 C 403.4,494.4 382.7,625.0 382.7,727.0" fill="none" stroke-width="0.675" stroke-opacity="0.40" /><path d="M 386.9,319.0 C 386.9,421.0 404.2,453.6 404.2,474.0 C 404.2,494.4 386.9,625.0 386.9,727.0" fill="none" stroke-width="0.675" stroke-opacity="0.41" /><path d="M 391.1,319.0 C 391.1,421.0 405.0,453.6 405.0,474.0 C 405.0,494.4 391.1,625.0 391.1,727.0" fill="none" stroke-width="0.675" stroke-opacity="0.41" /><path d="M 395.4,319.0 C 395.4,421.0 405.7,453.6 405.7,474.0 C 405.7,494.4 395.4,625.0 395.4,727.0" fill="none" stroke-width="0.675" stroke-opacity="0.41" /><path d="M 399.6,319.0 C 399.6,421.0 406.5,453.6 406.5,474.0 C 406.5,494.4 399.6,625.0 399.6,727.0" fill="none" stroke-width="0.7" stroke-opacity="0.41" /><path d="M 403.8,319.0 C 403.8,421.0 407.2,453.6 407.2,474.0 C 407.2,494.4 403.8,625.0 403.8,727.0" fill="none" stroke-width="0.7" stroke-opacity="0.42" /><path d="M 408.0,319.0 C 408.0,421.0 408.0,453.6 408.0,474.0 C 408.0,494.4 408.0,625.0 408.0,727.0" fill="none" stroke-width="0.7" stroke-opacity="0.42" /><path d="M 412.2,319.0 C 412.2,421.0 408.8,453.6 408.8,474.0 C 408.8,494.4 412.2,625.0 412.2,727.0" fill="none" stroke-width="0.7" stroke-opacity="0.42" /><path d="M 416.4,319.0 C 416.4,421.0 409.5,453.6 409.5,474.0 C 409.5,494.4 416.4,625.0 416.4,727.0" fill="none" stroke-width="0.7" stroke-opacity="0.41" /><path d="M 420.6,319.0 C 420.6,421.0 410.3,453.6 410.3,474.0 C 410.3,494.4 420.6,625.0 420.6,727.0" fill="none" stroke-width="0.675" stroke-opacity="0.41" /><path d="M 424.9,319.0 C 424.9,421.0 411.0,453.6 411.0,474.0 C 411.0,494.4 424.9,625.0 424.9,727.0" fill="none" stroke-width="0.675" stroke-opacity="0.41" /><path d="M 429.1,319.0 C 429.1,421.0 411.8,453.6 411.8,474.0 C 411.8,494.4 429.1,625.0 429.1,727.0" fill="none" stroke-width="0.675" stroke-opacity="0.41" /><path d="M 433.3,319.0 C 433.3,421.0 412.6,453.6 412.6,474.0 C 412.6,494.4 433.3,625.0 433.3,727.0" fill="none" stroke-width="0.675" stroke-opacity="0.40" /><path d="M 437.5,319.0 C 437.5,421.0 413.3,453.6 413.3,474.0 C 413.3,494.4 437.5,625.0 437.5,727.0" fill="none" stroke-width="0.675" stroke-opacity="0.40" /><path d="M 441.7,319.0 C 441.7,421.0 414.1,453.6 414.1,474.0 C 414.1,494.4 441.7,625.0 441.7,727.0" fill="none" stroke-width="0.65" stroke-opacity="0.40" /><path d="M 445.9,319.0 C 445.9,421.0 414.8,453.6 414.8,474.0 C 414.8,494.4 445.9,625.0 445.9,727.0" fill="none" stroke-width="0.65" stroke-opacity="0.39" /><path d="M 450.2,319.0 C 450.2,421.0 415.6,453.6 415.6,474.0 C 415.6,494.4 450.2,625.0 450.2,727.0" fill="none" stroke-width="0.65" stroke-opacity="0.39" /><path d="M 454.4,319.0 C 454.4,421.0 416.3,453.6 416.3,474.0 C 416.3,494.4 454.4,625.0 454.4,727.0" fill="none" stroke-width="0.65" stroke-opacity="0.39" /><path d="M 458.6,319.0 C 458.6,421.0 417.1,453.6 417.1,474.0 C 417.1,494.4 458.6,625.0 458.6,727.0" fill="none" stroke-width="0.65" stroke-opacity="0.38" /><path d="M 462.8,319.0 C 462.8,421.0 417.9,453.6 417.9,474.0 C 417.9,494.4 462.8,625.0 462.8,727.0" fill="none" stroke-width="0.65" stroke-opacity="0.38" /><path d="M 467.0,319.0 C 467.0,421.0 418.6,453.6 418.6,474.0 C 418.6,494.4 467.0,625.0 467.0,727.0" fill="none" stroke-width="0.625" stroke-opacity="0.38" /><path d="M 471.2,319.0 C 471.2,421.0 419.4,453.6 419.4,474.0 C 419.4,494.4 471.2,625.0 471.2,727.0" fill="none" stroke-width="0.625" stroke-opacity="0.38" /><path d="M 475.5,319.0 C 475.5,421.0 420.1,453.6 420.1,474.0 C 420.1,494.4 475.5,625.0 475.5,727.0" fill="none" stroke-width="0.625" stroke-opacity="0.37" /><path d="M 479.7,319.0 C 479.7,421.0 420.9,453.6 420.9,474.0 C 420.9,494.4 479.7,625.0 479.7,727.0" fill="none" stroke-width="0.625" stroke-opacity="0.37" /><path d="M 483.9,319.0 C 483.9,421.0 421.7,453.6 421.7,474.0 C 421.7,494.4 483.9,625.0 483.9,727.0" fill="none" stroke-width="0.625" stroke-opacity="0.37" /><path d="M 488.1,319.0 C 488.1,421.0 422.4,453.6 422.4,474.0 C 422.4,494.4 488.1,625.0 488.1,727.0" fill="none" stroke-width="0.6" stroke-opacity="0.36" /><path d="M 492.3,319.0 C 492.3,421.0 423.2,453.6 423.2,474.0 C 423.2,494.4 492.3,625.0 492.3,727.0" fill="none" stroke-width="0.6" stroke-opacity="0.36" /><path d="M 496.5,319.0 C 496.5,421.0 423.9,453.6 423.9,474.0 C 423.9,494.4 496.5,625.0 496.5,727.0" fill="none" stroke-width="0.6" stroke-opacity="0.36" /><path d="M 500.8,319.0 C 500.8,421.0 424.7,453.6 424.7,474.0 C 424.7,494.4 500.8,625.0 500.8,727.0" fill="none" stroke-width="0.6" stroke-opacity="0.35" /><path d="M 505.0,319.0 C 505.0,421.0 425.5,453.6 425.5,474.0 C 425.5,494.4 505.0,625.0 505.0,727.0" fill="none" stroke-width="0.6" stroke-opacity="0.35" /><path d="M 509.2,319.0 C 509.2,421.0 426.2,453.6 426.2,474.0 C 426.2,494.4 509.2,625.0 509.2,727.0" fill="none" stroke-width="0.575" stroke-opacity="0.35" /><path d="M 513.4,319.0 C 513.4,421.0 427.0,453.6 427.0,474.0 C 427.0,494.4 513.4,625.0 513.4,727.0" fill="none" stroke-width="0.575" stroke-opacity="0.35" /><path d="M 517.6,319.0 C 517.6,421.0 427.7,453.6 427.7,474.0 C 427.7,494.4 517.6,625.0 517.6,727.0" fill="none" stroke-width="0.575" stroke-opacity="0.34" /><path d="M 521.8,319.0 C 521.8,421.0 428.5,453.6 428.5,474.0 C 428.5,494.4 521.8,625.0 521.8,727.0" fill="none" stroke-width="0.575" stroke-opacity="0.34" /><path d="M 526.1,319.0 C 526.1,421.0 429.2,453.6 429.2,474.0 C 429.2,494.4 526.1,625.0 526.1,727.0" fill="none" stroke-width="0.575" stroke-opacity="0.34" /><path d="M 530.3,319.0 C 530.3,421.0 430.0,453.6 430.0,474.0 C 430.0,494.4 530.3,625.0 530.3,727.0" fill="none" stroke-width="0.575" stroke-opacity="0.33" /><path d="M 534.5,319.0 C 534.5,421.0 430.8,453.6 430.8,474.0 C 430.8,494.4 534.5,625.0 534.5,727.0" fill="none" stroke-width="0.55" stroke-opacity="0.33" /><path d="M 538.7,319.0 C 538.7,421.0 431.5,453.6 431.5,474.0 C 431.5,494.4 538.7,625.0 538.7,727.0" fill="none" stroke-width="0.55" stroke-opacity="0.33" /><path d="M 542.9,319.0 C 542.9,421.0 432.3,453.6 432.3,474.0 C 432.3,494.4 542.9,625.0 542.9,727.0" fill="none" stroke-width="0.55" stroke-opacity="0.32" /><path d="M 547.1,319.0 C 547.1,421.0 433.0,453.6 433.0,474.0 C 433.0,494.4 547.1,625.0 547.1,727.0" fill="none" stroke-width="0.55" stroke-opacity="0.32" /><path d="M 551.4,319.0 C 551.4,421.0 433.8,453.6 433.8,474.0 C 433.8,494.4 551.4,625.0 551.4,727.0" fill="none" stroke-width="0.55" stroke-opacity="0.32" /><path d="M 555.6,319.0 C 555.6,421.0 434.6,453.6 434.6,474.0 C 434.6,494.4 555.6,625.0 555.6,727.0" fill="none" stroke-width="0.525" stroke-opacity="0.32" /><path d="M 559.8,319.0 C 559.8,421.0 435.3,453.6 435.3,474.0 C 435.3,494.4 559.8,625.0 559.8,727.0" fill="none" stroke-width="0.525" stroke-opacity="0.31" /><path d="M 564.0,319.0 C 564.0,421.0 436.1,453.6 436.1,474.0 C 436.1,494.4 564.0,625.0 564.0,727.0" fill="none" stroke-width="0.525" stroke-opacity="0.31" /></g><g id="03_Gold_Gate" inkscape:groupmode="layer" inkscape:label="03_Gold_Gate" stroke="#B8960C" fill="none" stroke-width="1.12" stroke-linecap="round" stroke-linejoin="round"><path d="M 260.0,474.0 L 379.9,474.0" fill="none" stroke-width="1.3" stroke-opacity="0.78" /><path d="M 436.1,474.0 L 556.0,474.0" fill="none" stroke-width="1.3" stroke-opacity="0.78" /><path d="M 379.9,465.0 L 379.9,483.0" fill="none" stroke-width="1" stroke-opacity="0.68" /><path d="M 436.1,465.0 L 436.1,483.0" fill="none" stroke-width="1" stroke-opacity="0.68" /><path d="M 408.0,470.0 L 408.0,478.0" fill="none" stroke-width="0.55" stroke-opacity="0.42" /></g></svg>