<?xml version='1.0' encoding='utf-8'?>
<svg xmlns="http://www.w3.org/2000/svg" xmlns:inkscape="http://www.inkscape.org/namespaces/inkscape" viewBox="204 228 408 600"><style>*{vector-effect:non-scaling-stroke}</style><g id="01_Black_Frame" inkscape:groupmode="layer" inkscape:label="01_Black_Frame" stroke="#1A1A1A" fill="none" stroke-width="0.875" stroke-linecap="round" stroke-linejoin="round"><path d="M 250.0,264.0 L 566.0,264.0 Q 576.0,264.0 576.0,274.0 L 576.0,782.0 Q 576.0,792.0 566.0,792.0 L 250.0,792.0 Q 240.0,792.0 240.0,782.0 L 240.0,274.0 Q 240.0,264.0 250.0,264.0" /><path d="M 253.0,270.0 L 563.0,270.0 Q 570.0,270.0 570.0,277.0 L 570.0,779.0 Q 570.0,786.0 563.0,786.0 L 253.0,786.0 Q 246.0,786.0 246.0,779.0 L 246.0,277.0 Q 246.0,270.0 253.0,270.0" /><line x1="259.0" y1="280.0" x2="263.0" y2="280.0" /><line x1="258.1" y1="282.1" x2="260.9" y2="284.9" /><line x1="256.0" y1="283.0" x2="256.0" y2="287.0" /><line x1="253.9" y1="282.1" x2="251.1" y2="284.9" /><line x1="253.0" y1="280.0" x2="249.0" y2="280.0" /><line x1="253.9" y1="277.9" x2="251.1" y2="275.1" /><line x1="256.0" y1="277.0" x2="256.0" y2="273.0" /><line x1="258.1" y1="277.9" x2="260.9" y2="275.1" /><line x1="563.0" y1="280.0" x2="567.0" y2="280.0" /><line x1="562.1" y1="282.1" x2="564.9" y2="284.9" /><line x1="560.0" y1="283.0" x2="560.0" y2="287.0" /><line x1="557.9" y1="282.1" x2="555.1" y2="284.9" /><line x1="557.0" y1="280.0" x2="553.0" y2="280.0" /><line x1="557.9" y1="277.9" x2="555.1" y2="275.1" /><line x1="560.0" y1="277.0" x2="560.0" y2="273.0" /><line x1="562.1" y1="277.9" x2="564.9" y2="275.1" /><line x1="259.0" y1="776.0" x2="263.0" y2="776.0" /><line x1="258.1" y1="778.1" x2="260.9" y2="780.9" /><line x1="256.0" y1="779.0" x2="256.0" y2="783.0" /><line x1="253.9" y1="778.1" x2="251.1" y2="780.9" /><line x1="253.0" y1="776.0" x2="249.0" y2="776.0" /><line x1="253.9" y1="773.9" x2="251.1" y2="771.1" /><line x1="256.0" y1="773.0" x2="256.0" y2="769.0" /><line x1="258.1" y1="773.9" x2="260.9" y2="771.1" /><line x1="563.0" y1="776.0" x2="567.0" y2="776.0" /><line x1="562.1" y1="778.1" x2="564.9" y2="780.9" /><line x1="560.0" y1="779.0" x2="560.0" y2="783.0" /><line x1="557.9" y1="778.1" x2="555.1" y2="780.9" /><line x1="557.0" y1="776.0" x2="553.0" y2="776.0" /><line x1="557.9" y1="773.9" x2="555.1" y2="771.1" /><line x1="560.0" y1="773.0" x2="560.0" y2="769.0" /><line x1="562.1" y1="773.9" x2="564.9" y2="771.1" /><polyline points="406.75,283.20 405.00,282.00 404.00,282.00 402.25,283.60 402.25,288.40 404.00,290.00 405.00,290.00 406.75,288.80" /><polyline points="410.50,282.00 410.50,290.00" /><polyline points="378.10,297.00 384.60,297.00" /><polyline points="381.35,297.00 381.35,307.00" /><polyline points="385.58,297.00 385.58,307.00" /><polyline points="392.08,297.00 392.08,307.00" /><polyline points="385.58,301.80 392.08,301.80" /><polyline points="398.57,297.00 393.05,297.00 393.05,301.80 396.95,301.80" /><polyline points="393.05,301.80 393.05,307.00 398.57,307.00" /><polyline points="413.85,298.50 411.57,297.00 410.27,297.00 408.00,299.00 408.00,305.00 410.27,307.00 411.57,307.00 413.85,305.50 413.85,302.00 411.25,302.00" /><polyline points="418.73,297.00 418.73,307.00" /><polyline points="422.95,297.00 422.95,307.00 428.48,307.00" /><polyline points="430.43,297.00 436.93,297.00" /><polyline points="433.68,297.00 433.68,307.00" /><line x1="270.0" y1="312.0" x2="546.0" y2="312.0" /><line x1="270.0" y1="732.0" x2="546.0" y2="732.0" /><polyline points="361.31,745.25 362.71,740.75 364.11,745.25" /><polyline points="361.81,743.67 363.61,743.67" /><polyline points="364.53,745.25 364.53,740.75 366.35,740.75 367.05,741.42 367.05,742.19 366.35,742.77 364.53,742.77 367.05,745.25" /><polyline points="370.27,741.42 369.29,740.75 368.73,740.75 367.75,741.65 367.75,744.35 368.73,745.25 369.29,745.25 370.27,744.58" /><polyline points="370.97,740.75 370.97,745.25" /><polyline points="373.77,740.75 373.77,745.25" /><polyline points="370.97,742.91 373.77,742.91" /><polyline points="383.01,741.20 382.31,740.75 381.47,740.75 380.77,741.42 380.63,742.10 381.05,742.64 382.03,743.00 383.01,743.36 383.43,743.90 383.29,744.58 382.59,745.25 381.61,745.25 380.91,744.80" /><polyline points="383.85,740.75 386.65,740.75" /><polyline points="385.25,740.75 385.25,745.25" /><polyline points="387.07,745.25 387.07,740.75 388.89,740.75 389.59,741.42 389.59,742.19 388.89,742.77 387.07,742.77 389.59,745.25" /><polyline points="390.29,745.25 391.69,740.75 393.09,745.25" /><polyline points="390.79,743.67 392.59,743.67" /><polyline points="394.91,740.75 394.91,745.25" /><polyline points="396.73,740.75 399.53,740.75" /><polyline points="398.13,740.75 398.13,745.25" /><polyline points="406.39,745.25 406.39,740.75 407.79,743.23 409.19,740.75 409.19,745.25" /><polyline points="411.01,740.75 409.89,741.20 409.61,742.10 409.61,743.90 409.89,744.80 411.01,745.25 412.13,744.80 412.41,743.90 412.41,742.10 412.13,741.20 411.01,740.75" /><polyline points="414.23,740.75 413.11,741.20 412.83,742.10 412.83,743.90 413.11,744.80 414.23,745.25 415.35,744.80 415.63,743.90 415.63,742.10 415.35,741.20 414.23,740.75" /><polyline points="416.05,745.25 416.05,740.75 418.85,745.25 418.85,740.75" /><polyline points="428.09,740.75 425.71,740.75 425.71,742.91 427.39,742.91" /><polyline points="425.71,742.91 425.71,745.25" /><polyline points="428.93,740.75 428.93,745.25 431.31,745.25" /><polyline points="432.15,745.25 433.55,740.75 434.95,745.25" /><polyline points="432.65,743.67 434.45,743.67" /><polyline points="435.37,740.75 436.07,745.25 436.77,742.33 437.47,745.25 438.17,740.75" /><polyline points="445.03,740.75 445.73,745.25 446.43,742.33 447.13,745.25 447.83,740.75" /><polyline points="448.25,745.25 449.65,740.75 451.05,745.25" /><polyline points="448.75,743.67 450.55,743.67" /><polyline points="451.47,745.25 451.47,740.75 453.29,740.75 453.99,741.42 453.99,742.19 453.29,742.77 451.47,742.77 453.99,745.25" /><polyline points="347.62,753.25 352.62,753.25" /><polyline points="350.12,753.25 350.12,760.75" /><polyline points="353.38,753.25 353.38,760.75" /><polyline points="358.38,753.25 358.38,760.75" /><polyline points="353.38,756.85 358.38,756.85" /><polyline points="363.38,753.25 359.12,753.25 359.12,756.85 362.12,756.85" /><polyline points="359.12,756.85 359.12,760.75 363.38,760.75" /><polyline points="375.12,754.38 373.38,753.25 372.38,753.25 370.62,754.75 370.62,759.25 372.38,760.75 373.38,760.75 375.12,759.62 375.12,757.00 373.12,757.00" /><polyline points="378.88,753.25 376.88,754.00 376.38,755.50 376.38,758.50 376.88,760.00 378.88,760.75 380.88,760.00 381.38,758.50 381.38,755.50 380.88,754.00 378.88,753.25" /><polyline points="382.12,753.25 382.12,760.75 386.38,760.75" /><polyline points="387.88,760.75 387.88,753.25 390.62,753.25 392.38,755.12 392.38,758.88 390.62,760.75 387.88,760.75" /><polyline points="403.88,754.38 402.12,753.25 401.12,753.25 399.38,754.75 399.38,759.25 401.12,760.75 402.12,760.75 403.88,759.62 403.88,757.00 401.88,757.00" /><polyline points="407.62,753.25 405.62,754.00 405.12,755.50 405.12,758.50 405.62,760.00 407.62,760.75 409.62,760.00 410.12,758.50 410.12,755.50 409.62,754.00 407.62,753.25" /><polyline points="415.12,753.25 410.88,753.25 410.88,756.85 413.88,756.85" /><polyline points="410.88,756.85 410.88,760.75 415.12,760.75" /><polyline points="420.88,754.00 419.62,753.25 418.12,753.25 416.88,754.38 416.62,755.50 417.38,756.40 419.12,757.00 420.88,757.60 421.62,758.50 421.38,759.62 420.12,760.75 418.38,760.75 417.12,760.00" /><polyline points="430.62,753.25 428.62,754.00 428.12,755.50 428.12,758.50 428.62,760.00 430.62,760.75 432.62,760.00 433.12,758.50 433.12,755.50 432.62,754.00 430.62,753.25" /><polyline points="433.88,760.75 433.88,753.25 438.88,760.75 438.88,753.25" /><polyline points="449.62,753.25 445.38,753.25 445.38,756.85 448.38,756.85" /><polyline points="445.38,756.85 445.38,760.75 449.62,760.75" /><polyline points="451.12,760.75 453.62,753.25 456.12,760.75" /><polyline points="452.02,758.12 455.23,758.12" /><polyline points="461.12,754.00 459.88,753.25 458.38,753.25 457.12,754.38 456.88,755.50 457.62,756.40 459.38,757.00 461.12,757.60 461.88,758.50 461.62,759.62 460.38,760.75 458.62,760.75 457.38,760.00" /><polyline points="462.62,753.25 465.12,757.00 467.62,753.25" /><polyline points="465.12,757.00 465.12,760.75" /><polyline points="334.88,767.38 333.12,766.25 332.12,766.25 330.38,767.75 330.38,772.25 332.12,773.75 333.12,773.75 334.88,772.62" /><polyline points="338.62,766.25 336.62,767.00 336.12,768.50 336.12,771.50 336.62,773.00 338.62,773.75 340.62,773.00 341.12,771.50 341.12,768.50 340.62,767.00 338.62,766.25" /><polyline points="341.88,773.75 341.88,766.25 344.38,770.38 346.88,766.25 346.88,773.75" /><polyline points="350.12,766.25 350.12,773.75" /><polyline points="353.38,773.75 353.38,766.25 358.38,773.75 358.38,766.25" /><polyline points="363.62,767.38 361.88,766.25 360.88,766.25 359.12,767.75 359.12,772.25 360.88,773.75 361.88,773.75 363.62,772.62 363.62,770.00 361.62,770.00" /><polyline points="373.12,766.25 371.12,767.00 370.62,768.50 370.62,771.50 371.12,773.00 373.12,773.75 375.12,773.00 375.62,771.50 375.62,768.50 375.12,767.00 373.12,766.25" /><polyline points="380.62,766.25 376.38,766.25 376.38,769.85 379.38,769.85" /><polyline points="376.38,769.85 376.38,773.75" /><polyline points="386.38,766.25 382.12,766.25 382.12,769.85 385.12,769.85" /><polyline points="382.12,769.85 382.12,773.75" /><polyline points="396.12,766.25 396.12,773.75" /><polyline points="403.62,767.00 402.38,766.25 400.88,766.25 399.62,767.38 399.38,768.50 400.12,769.40 401.88,770.00 403.62,770.60 404.38,771.50 404.12,772.62 402.88,773.75 401.12,773.75 399.88,773.00" /><polyline points="410.88,766.25 415.88,766.25" /><polyline points="413.38,766.25 413.38,773.75" /><polyline points="416.62,766.25 416.62,773.75" /><polyline points="421.62,766.25 421.62,773.75" /><polyline points="416.62,769.85 421.62,769.85" /><polyline points="426.62,766.25 422.38,766.25 422.38,769.85 425.38,769.85" /><polyline points="422.38,769.85 422.38,773.75 426.62,773.75" /><polyline points="433.88,766.25 433.88,773.75" /><polyline points="438.88,766.25 438.88,773.75" /><polyline points="433.88,769.85 438.88,769.85" /><polyline points="439.62,773.75 442.12,766.25 444.62,773.75" /><polyline points="440.52,771.12 443.73,771.12" /><polyline points="445.38,773.75 445.38,766.25 448.62,766.25 449.88,767.38 449.88,768.65 448.62,769.62 445.38,769.62 449.88,773.75" /><polyline points="451.12,773.75 451.12,766.25 453.88,766.25 455.62,768.12 455.62,771.88 453.88,773.75 451.12,773.75" /><polyline points="462.62,773.75 462.62,766.25 465.88,766.25 467.12,767.38 467.12,768.65 465.88,769.62 462.62,769.62" /><polyline points="468.38,773.75 470.88,766.25 473.38,773.75" /><polyline points="469.27,771.12 472.48,771.12" /><polyline points="474.12,773.75 474.12,766.25 477.38,766.25 478.62,767.38 478.62,768.65 477.38,769.62 474.12,769.62 478.62,773.75" /><polyline points="479.88,766.25 484.88,766.25" /><polyline points="482.38,766.25 482.38,773.75" /><polyline points="387.52,779.50 387.52,784.50" /><polyline points="389.60,779.50 391.20,784.50 392.80,779.50" /><polyline points="394.88,784.00 394.88,784.25" /><polyline points="396.96,779.50 400.16,784.50" /><polyline points="400.16,779.50 396.96,784.50" /><polyline points="402.24,779.50 402.24,784.50" /><polyline points="405.92,784.00 405.92,784.25" /><polyline points="408.00,784.50 408.00,779.50 409.60,782.25 411.20,779.50 411.20,784.50" /><polyline points="411.68,784.50 411.68,779.50 413.28,782.25 414.88,779.50 414.88,784.50" /><polyline points="415.36,779.50 418.56,784.50" /><polyline points="418.56,779.50 415.36,784.50" /><polyline points="419.04,779.50 422.24,784.50" /><polyline points="422.24,779.50 419.04,784.50" /><polyline points="422.72,779.50 424.32,784.50 425.92,779.50" /><polyline points="428.00,779.50 428.00,784.50" /></g><g id="02_Teal_Cracks" inkscape:groupmode="layer" inkscape:label="02_Teal_Cracks" stroke="#3A7A7A" fill="none" stroke-width="0.875" stroke-linecap="round" stroke-linejoin="round"><polyline points="382.57,465.40 377.18,466.32 372.86,467.36 368.39,468.82 362.35,469.39 358.56,471.65 353.39,472.98 348.36,473.29 343.68,475.10 338.44,476.45 333.57,477.45 327.51,478.99 323.44,479.77 318.43,480.10 312.78,482.37 308.51,483.58 303.54,484.46" /><polyline points="382.57,465.40 382.05,459.41 382.04,454.43 382.39,449.18 382.62,444.16 381.66,439.52 382.07,434.11 381.04,427.85 381.54,422.59 381.38,417.70" /><polyline points="381.38,417.70 377.56,421.61 373.42,424.32 370.11,427.26 365.07,430.94 361.21,435.06 357.37,437.27 354.29,441.17 350.37,443.84 346.41,447.17 343.00,451.82 338.72,454.01 334.77,457.53 330.78,460.49 326.28,464.36 322.80,468.19 318.54,471.61 315.64,474.36 312.11,477.10 307.46,481.66 303.54,484.46" /><polyline points="385.13,473.68 380.83,475.55 375.98,477.42 371.05,480.95 366.59,482.60 362.81,485.36 357.81,486.82 353.42,489.58 348.29,492.31 343.29,493.89 339.31,496.36 334.66,498.97 330.32,500.35 325.17,503.76 320.71,504.81 316.16,508.21 311.13,509.36 306.69,512.06 301.91,514.06 297.84,516.11 293.26,519.26 288.79,521.21 284.55,523.35 278.80,526.17 275.17,527.83 270.74,530.78 265.81,532.24 261.21,535.08 256.11,537.58 252.00,539.34" /><polyline points="252.00,539.34 252.00,533.01 252.00,527.57 252.74,520.90 252.00,515.35" /><polyline points="303.54,484.46 299.04,486.27 295.12,490.17 291.34,492.27 285.64,494.44 282.48,496.97 278.44,499.94 274.04,502.56 269.97,504.47 264.96,507.62 260.50,510.74 256.92,512.07 252.00,515.35" /><polyline points="382.57,465.40 383.75,468.46 384.31,471.08 385.13,473.68" /><polyline points="444.07,319.00 449.86,319.00 454.77,319.28 459.38,319.60 466.19,319.24 470.38,319.00 476.16,319.03 481.42,319.00 487.67,319.00 492.68,319.00 497.73,319.00 502.65,319.03 508.24,319.41 513.76,319.00" /><polyline points="357.00,331.78 359.13,336.49 361.19,340.85 363.76,345.84 367.25,348.89 368.97,354.57 371.39,358.15 374.62,363.00 375.99,367.67 378.57,371.24 380.72,375.59 383.72,380.53 385.58,384.72 388.33,390.15 391.29,394.24 393.40,398.53" /><polyline points="358.70,319.00 358.87,322.76 357.56,327.20 357.00,331.78" /><polyline points="444.07,319.00 438.70,319.29 434.56,319.39 429.37,319.00 423.62,319.75 419.15,319.50 414.44,319.00 408.71,319.00 403.71,319.00 398.98,319.00 393.17,319.00 389.46,319.72 383.48,319.27 378.42,319.15 374.50,319.00 368.18,319.57 364.40,319.11 358.70,319.00" /><polyline points="444.07,319.00 443.59,324.16 442.01,328.65 441.03,333.75 440.20,339.08 439.89,344.59 439.16,350.29 437.96,355.98 437.12,359.87 436.24,365.07 434.49,370.17 434.80,375.69 433.50,381.07" /><polyline points="433.50,381.07 428.58,383.29 422.86,385.95 418.36,387.70 413.97,390.10 408.73,392.50 402.91,393.87 398.45,396.87 393.40,398.53" /><polyline points="525.30,481.05 531.45,480.77 536.80,479.82 541.84,479.10 546.88,477.60 552.26,476.98 558.72,475.83 564.00,475.39" /><polyline points="525.30,481.05 520.19,479.80 515.64,477.85 511.92,475.74 506.03,473.87 502.01,471.45 496.78,469.49 492.74,467.14" /><polyline points="492.74,467.14 493.25,462.88 494.78,459.44 496.33,455.53" /><polyline points="496.33,455.53 500.67,452.87 505.63,452.03 510.71,449.37 516.39,446.46 520.99,444.44 524.82,442.67 529.91,440.59 534.28,438.33 539.89,437.23 544.43,434.60 550.12,432.31 554.49,431.04 559.18,428.44 564.00,426.58" /><polyline points="564.00,426.58 564.00,432.61 564.00,436.99 563.37,442.66 563.64,447.55 563.35,454.46 564.00,458.96 563.94,465.27 564.00,469.45 564.00,475.39" /><polyline points="564.00,541.48 564.00,537.02 563.60,531.28 564.00,526.08 563.28,520.67 563.73,516.47 563.48,511.03 564.00,506.65 563.90,500.54 563.97,495.09 563.29,490.61 564.00,485.96 563.90,479.86 564.00,475.39" /><polyline points="564.00,541.48 560.92,536.72 558.16,532.17 556.41,529.12 552.22,524.16 549.49,520.52 546.62,516.15 543.94,510.61 541.94,506.66 538.45,501.95 536.19,498.99 533.62,493.64 530.46,490.47 527.93,484.84 525.30,481.05" /><polyline points="413.90,685.35 409.03,686.28 403.74,685.79 398.33,685.48 392.94,686.35 386.65,685.86 382.47,686.04 376.92,687.18 371.18,687.77 365.05,687.31 360.32,687.13 355.72,687.85 349.81,687.82" /><polyline points="407.17,727.00 408.64,722.16 409.11,716.95 409.62,711.44 410.47,705.71 411.11,701.25 411.77,696.19 412.63,689.88 413.90,685.35" /><polyline points="349.81,687.82 348.53,693.14 348.01,699.26 347.51,704.44 346.92,709.91 345.85,715.93 346.80,721.05 345.37,727.00" /><polyline points="407.17,727.00 401.49,726.68 396.28,727.00 392.22,726.66 386.50,727.00 381.24,727.00 377.04,727.00 370.67,727.00 366.65,727.00 360.28,727.00 355.25,727.00 350.10,727.00 345.37,727.00" /><polyline points="357.00,331.78 353.08,335.27 348.13,337.40 343.67,339.73 338.98,342.16 334.05,346.02 330.54,348.12 325.03,350.04 320.77,353.08 316.93,356.64 312.23,358.71" /><polyline points="390.65,407.18 391.29,403.91 392.59,401.20 393.40,398.53" /><polyline points="381.70,416.44 376.26,416.86 371.95,416.27 366.06,415.56 360.99,415.69 355.96,414.89 351.92,415.17 346.00,413.53 341.03,413.77 336.03,412.69 331.13,413.48 326.47,412.65 321.14,412.40 316.46,411.39 311.90,412.23 307.49,412.00 301.76,410.48 296.04,410.20 291.09,411.07 286.79,410.11" /><polyline points="381.70,416.44 384.76,413.92 387.98,409.56 390.65,407.18" /><polyline points="312.23,358.71 309.53,363.91 307.05,368.53 305.66,371.96 303.36,377.25 300.07,381.67 298.02,387.21 296.09,390.73 293.75,396.04 291.03,400.42 288.76,404.91 286.79,410.11" /><polyline points="286.79,410.11 281.82,413.09 278.14,414.92 273.41,418.38 270.19,420.71 264.52,423.33 261.48,426.83 256.53,429.54 252.00,432.25" /><polyline points="252.00,515.35 252.18,510.70 252.10,504.22 252.20,499.75 252.15,494.19 252.44,489.56 252.17,484.52 252.60,479.57 252.00,474.37 252.00,469.31 252.00,464.16 252.21,457.71 252.15,452.25 252.00,447.33 252.00,441.91 252.49,437.97 252.00,432.25" /><polyline points="491.10,393.55 490.93,398.40 491.95,404.43 492.77,408.32 493.39,413.91 493.49,420.13 493.26,424.06 493.40,430.05 494.52,435.25 495.58,440.15 495.95,445.00 496.36,450.48 496.33,455.53" /><polyline points="491.10,393.55 494.08,390.23 498.81,386.22 500.88,381.34 505.02,377.49 508.39,373.90" /><polyline points="508.39,373.90 513.25,375.76 518.27,377.69 522.72,379.60 527.16,381.82 530.89,384.76 536.83,385.76 541.19,388.76 545.55,390.44 549.83,392.40 554.48,394.62 559.41,395.82 564.00,398.66" /><polyline points="564.00,426.58 563.72,420.42 564.00,414.90 563.55,410.02 563.32,403.86 564.00,398.66" /><polyline points="491.10,393.55 486.41,392.67 479.89,391.69 475.23,390.75 470.93,389.79 465.27,388.67 459.89,386.04 454.00,386.09 449.81,384.85 443.35,383.14 438.68,382.66 433.50,381.07" /><polyline points="513.76,319.00 513.17,324.32 513.90,329.33 513.11,334.86 512.26,339.23 512.37,344.91 512.08,350.20 511.96,355.21" /><polyline points="511.96,355.21 510.09,361.81 508.87,367.11 508.39,373.90" /><polyline points="564.00,319.00 564.00,325.21 563.80,329.74 563.70,335.27 563.22,341.29 564.00,346.74 563.45,351.69 564.00,357.39 564.00,362.47" /><polyline points="564.00,398.66 563.61,392.88 563.23,388.17 564.00,383.48 564.00,377.88 564.00,372.73 564.00,367.57 564.00,362.47" /><polyline points="513.76,319.00 518.24,319.80 523.30,319.41 528.35,319.00 534.58,319.00 538.67,319.65 544.63,319.50 548.79,319.67 553.84,319.00 558.27,319.00 564.00,319.00" /><polyline points="511.96,355.21 517.45,356.09 522.61,356.13 527.80,356.64 532.75,358.07 537.39,358.78 542.88,359.04 547.68,360.72 554.20,361.11 558.01,361.76 564.00,362.47" /><polyline points="452.51,459.94 458.10,461.91 463.29,462.45 467.75,463.74 473.38,466.42 478.30,467.48 483.92,469.49 488.74,470.26" /><polyline points="452.51,459.94 448.52,461.55 444.05,463.95 439.38,466.61 434.07,469.98 431.23,472.59 426.47,473.86 421.69,476.11 416.86,479.39 413.53,481.00 407.95,483.92 404.33,485.99 400.02,488.17 395.16,491.14" /><polyline points="488.74,470.26 487.30,475.72 485.75,480.67 483.51,484.32 483.19,489.94 481.61,495.26 480.17,499.23 478.55,504.27 476.51,508.39 474.63,513.94 474.13,518.38 472.79,523.48 470.43,528.02 469.07,532.75 467.01,538.30 466.80,543.47 465.33,548.25 463.15,552.88" /><polyline points="397.96,560.76 397.17,555.23 397.91,549.44 396.91,545.49 396.45,539.07 397.66,534.25 396.31,528.53 396.92,523.60 396.38,517.66 395.47,512.16 396.46,507.87 395.15,501.71 395.41,497.00 395.16,491.14" /><polyline points="397.96,560.76 403.80,561.02 408.70,560.28 413.79,559.63 417.97,559.67 422.82,558.48 428.12,557.88 433.70,558.15 438.61,557.03 444.38,556.59 448.96,556.89 454.13,556.38 459.23,555.72" /><polyline points="459.23,555.72 460.91,554.66 462.26,554.42 463.15,552.88" /><polyline points="390.65,407.18 394.62,410.11 398.62,414.38 401.51,417.36 406.86,420.27 410.46,422.90 414.20,426.31 417.16,430.51 421.02,433.12 425.46,437.29 429.12,439.52 433.73,444.05 437.33,447.07 440.13,449.97 445.02,453.30 448.15,456.03 452.51,459.94" /><polyline points="492.74,467.14 491.82,467.41 490.23,468.51 488.74,470.26" /><polyline points="385.13,473.68 388.26,478.25 390.12,481.98 392.35,487.19 395.16,491.14" /><polyline points="252.00,727.00 257.76,727.00 262.34,726.56 267.04,726.32 272.06,727.00 277.20,726.48 282.57,727.00 287.97,726.57 292.99,727.00 297.56,727.00" /><polyline points="345.37,727.00 340.31,726.34 335.15,727.00 329.88,726.77 324.90,727.00 318.07,727.00 314.23,726.53 307.93,726.75 302.11,726.31 297.56,727.00" /><polyline points="407.17,727.00 412.63,727.00 417.82,727.00 421.93,726.77 428.00,726.25 431.50,726.53 437.25,726.32 442.39,726.24 447.80,727.00 453.00,727.00 457.37,727.00" /><polyline points="358.70,319.00 352.85,319.54 348.38,319.00 342.46,319.67 337.82,319.00 331.83,319.00 326.68,319.80 322.50,319.00 316.67,319.46 312.21,319.36 307.00,319.00 300.95,319.32 295.41,319.14 290.92,319.00" /><polyline points="296.62,347.75 295.27,341.97 294.46,337.02 292.66,329.74 291.34,324.37 290.92,319.00" /><polyline points="312.23,358.71 307.16,355.73 302.37,351.62 296.62,347.75" /><polyline points="524.24,563.23 519.27,561.86 513.35,562.21 509.43,560.80 504.34,559.95 498.18,559.62 493.30,558.54 488.83,556.53 483.49,555.75 478.45,555.95 472.94,554.14 468.87,553.22 463.15,552.88" /><polyline points="524.24,563.23 524.84,568.65 524.85,574.06 525.35,579.03 525.48,583.91 525.56,590.29 524.86,594.87 525.89,601.05 526.01,605.92 525.40,612.31 525.94,617.68 527.16,622.77 527.34,627.48 526.76,633.01" /><polyline points="459.23,555.72 460.63,560.93 461.99,567.65 463.76,573.42 465.92,578.83" /><polyline points="465.92,578.83 470.30,583.00 473.05,585.08 477.00,589.31 480.88,591.73 485.01,596.20 488.16,599.71 492.21,602.10 495.60,606.68 499.66,609.64 503.72,611.92 508.12,615.81 511.24,619.12 516.04,622.58 519.74,626.37 523.11,629.71 526.76,633.01" /><polyline points="252.00,539.36 252.50,544.44 252.00,549.23 252.13,554.56 252.00,559.85 252.32,564.83 252.60,569.46 252.00,575.03 252.00,580.11 252.00,584.09 252.00,590.29 252.00,594.92 252.49,599.43 252.00,604.30 252.01,610.48 252.68,614.46 252.19,619.65 252.00,624.45 252.00,630.93 252.69,634.92 252.00,640.40" /><polyline points="252.00,727.00 252.50,722.62 252.73,716.62 252.20,711.38 252.42,706.37 252.48,700.74 252.73,696.12 252.21,690.70 252.46,685.53 252.07,681.75 252.00,675.80 252.00,670.27 252.00,666.45 252.00,660.45 252.71,656.06 252.70,650.44 252.00,644.97 252.00,640.40" /><polyline points="297.56,727.00 297.57,721.94 296.55,716.09 297.19,711.86 296.17,707.27 296.03,701.11 296.89,695.82 296.84,691.80 296.66,686.61 295.99,681.18 295.89,676.19" /><polyline points="295.89,676.19 292.61,672.28 287.48,668.97 283.52,666.24 280.46,662.83 276.13,659.64 272.31,656.65 268.09,653.64 264.23,649.65 259.53,646.42 256.65,643.28 252.00,640.40" /><polyline points="271.84,340.02 271.12,344.85 269.24,350.30 266.80,355.49 266.75,360.43 265.33,365.42 263.34,370.42 261.52,375.44 259.98,379.98 259.71,385.33 257.36,388.94 256.34,394.54 254.76,398.79 253.32,404.79 252.00,409.34" /><polyline points="252.00,319.00 252.00,324.38 252.00,328.64 252.63,334.80 252.00,338.69 252.00,344.31 252.18,348.98 252.00,353.89 252.51,358.68 252.07,364.42 252.06,369.31 252.71,374.61 252.14,379.69 252.00,384.16 252.00,388.83 252.00,394.92 252.00,399.94 252.02,404.43 252.00,409.34" /><polyline points="271.84,340.02 268.79,336.47 265.58,331.17 261.78,327.86 258.65,322.50 255.13,319.00" /><polyline points="254.46,319.00 253.07,319.00 252.84,319.00 252.00,319.00" /><polyline points="252.00,432.25 252.00,426.67 252.36,420.81 252.23,415.14 252.00,409.34" /><polyline points="296.62,347.75 291.56,346.82 287.03,344.34 281.23,343.25 276.82,342.02 271.84,340.02" /><polyline points="290.92,319.00 286.35,319.00 280.76,319.20 276.22,319.00 271.18,319.08 266.12,319.19 260.48,319.53 255.13,319.00" /><polyline points="479.68,693.95 485.43,694.27 490.24,694.76 495.19,694.72 501.00,694.09 506.23,694.77" /><polyline points="479.68,693.95 475.83,691.38 471.46,687.96 468.08,684.15 464.40,680.08 460.51,676.68 456.48,674.52 453.02,670.32 450.24,666.38 445.97,663.66" /><polyline points="445.97,663.66 448.62,658.93 451.98,656.22 455.17,651.66 460.05,648.32 463.33,643.54 465.68,639.92 469.24,635.87" /><polyline points="469.24,635.87 474.20,637.96 479.52,639.52 484.25,640.17 489.48,641.84 494.38,643.49 500.35,644.32 505.29,645.71 510.80,646.84 516.20,648.74 520.76,650.29 526.47,652.04 530.76,653.14 535.95,654.51" /><polyline points="506.23,694.77 509.84,691.62 514.81,686.88 518.83,683.45 523.12,679.16 526.66,675.36 529.94,671.56 534.62,667.72 538.78,664.41 542.93,660.95" /><polyline points="535.95,654.51 539.00,657.41 540.88,659.01 542.93,660.95" /><polyline points="413.90,685.35 416.30,678.56 418.09,672.78 419.03,666.45" /><polyline points="419.03,666.45 423.95,665.67 429.84,665.85 435.91,665.37 440.33,663.90 445.97,663.66" /><polyline points="457.37,727.00 461.12,722.07 463.88,717.02 466.77,712.17 470.37,707.53 473.10,703.59 476.89,698.28 479.68,693.95" /><polyline points="526.76,633.01 529.58,638.95 530.78,643.76 533.80,649.22 535.95,654.51" /><polyline points="465.92,578.83 466.53,584.10 466.59,589.23 466.35,593.59 466.75,599.91 467.74,604.61 468.44,609.45 467.34,615.10 468.55,619.85 468.85,625.30 468.82,631.02 469.24,635.87" /><polyline points="564.00,661.40 564.00,655.88 564.00,650.93 563.47,646.50 564.00,641.23 563.29,635.70 564.00,630.21 564.00,624.00 563.75,620.18 563.21,614.16 564.00,608.31 563.98,604.57 564.00,598.99 564.00,593.37 564.00,588.21 563.69,583.59 564.00,577.69 563.94,573.11 564.00,567.90 563.38,561.58 564.00,556.81" /><polyline points="524.24,563.23 528.71,563.22 534.96,561.02 539.65,561.10 543.47,560.09 549.49,558.74 554.61,558.64 559.01,558.07 564.00,556.81" /><polyline points="542.93,660.95 547.53,661.19 552.80,660.98 559.18,661.53 564.00,661.40" /><polyline points="564.00,541.48 563.84,547.08 564.00,551.00 564.00,556.81" /><polyline points="349.28,676.10 344.49,675.87 337.97,674.01 333.06,673.39 326.89,672.50 322.70,672.67 316.82,672.05 311.00,670.83 305.81,670.12" /><polyline points="349.28,676.10 351.56,671.73 353.07,665.93 355.47,660.82 358.84,657.09 361.16,651.13 362.17,646.55 364.78,642.75 367.40,638.00 369.87,632.36 371.23,627.40 373.98,623.38 376.22,618.09" /><polyline points="305.81,670.12 307.70,665.45 310.18,661.49 313.45,657.05 315.81,651.28 317.85,647.97 319.19,642.68 321.55,637.95 324.08,634.22 327.39,629.75 329.91,624.44 332.07,619.64 333.40,614.52 336.25,610.03 338.51,606.05 340.26,601.53 342.81,597.71 345.05,592.23 348.58,587.17 351.02,583.20 352.71,578.69" /><polyline points="376.22,618.09 374.67,612.21 372.74,607.71 371.61,603.01 369.61,597.59 368.14,591.14 365.84,585.67 364.49,581.04" /><polyline points="352.71,578.69 357.41,579.73 361.36,580.67 364.49,581.04" /><polyline points="349.81,687.82 348.91,683.69 348.78,680.03 349.28,676.10" /><polyline points="295.89,676.19 299.24,674.85 301.81,671.72 305.81,670.12" /><polyline points="419.03,666.45 414.86,662.97 412.24,657.74 407.74,654.54 404.74,650.96 401.22,646.11 397.28,642.97 394.05,637.80 391.27,633.86 387.30,630.24 383.16,626.51 379.64,621.81 376.22,618.09" /><polyline points="252.00,539.36 256.69,541.74 261.00,543.69 266.46,545.35 270.53,547.33 276.06,549.33 280.24,550.72 285.66,551.82 290.19,554.10 294.84,556.71 300.35,557.65 304.79,560.53 309.90,561.48 314.46,564.29 318.47,566.10 323.81,567.20 327.95,568.66 333.94,571.00 338.76,572.77 342.82,575.08 347.43,576.55 352.71,578.69" /><polyline points="397.96,560.76 393.33,563.11 389.00,567.29 384.00,570.06 378.23,571.61 373.77,575.70 369.22,578.23 364.49,581.04" /><polyline points="510.44,724.89 515.03,723.23 521.38,722.98 526.44,721.34 531.36,720.40 537.82,720.31 543.16,719.13 548.28,717.29 553.39,716.92 557.98,715.41 564.00,714.28" /><polyline points="510.44,724.89 510.77,726.04 510.80,726.48 510.64,727.00" /><polyline points="564.00,727.00 558.46,727.00 554.05,726.46 547.27,726.98 543.37,727.00 537.12,727.00 532.28,727.00 526.48,726.97 521.39,727.00 515.96,726.88 510.64,727.00" /><polyline points="564.00,727.00 563.26,722.82 564.00,717.76 564.00,714.28" /><polyline points="564.00,661.40 564.00,667.32 563.64,672.12 564.00,677.43 564.00,683.08 564.00,688.39 564.00,692.68 563.82,698.40 564.00,703.91 563.98,709.15 564.00,714.28" /><polyline points="506.23,694.77 506.75,699.04 508.38,704.84 508.38,709.38 509.62,714.43 509.05,720.62 510.44,724.89" /><polyline points="457.37,727.00 463.43,726.50 468.14,727.00 473.17,727.00 478.42,726.57 483.23,726.85 489.05,727.00 495.29,727.00 500.79,727.00 504.93,727.00 510.64,727.00" /></g><g id="03_Gold_Gilt" inkscape:groupmode="layer" inkscape:label="03_Gold_Gilt" stroke="#B8960C" fill="none" stroke-width="0.625" stroke-linecap="round" stroke-linejoin="round"><line x1="260.13" y1="319.00" x2="271.22" y2="319.00" /><line x1="295.92" y1="319.00" x2="302.00" y2="319.00" /><line x1="312.00" y1="319.00" x2="317.50" y2="319.00" /><line x1="363.70" y1="319.00" x2="369.50" y2="319.00" /><line x1="379.50" y1="319.00" x2="388.17" y2="319.00" /><line x1="398.17" y1="319.00" x2="409.44" y2="319.00" /><line x1="419.44" y1="319.00" x2="424.37" y2="319.00" /><line x1="434.37" y1="319.00" x2="439.07" y2="319.00" /><line x1="454.86" y1="319.00" x2="465.38" y2="319.00" /><line x1="475.38" y1="319.00" x2="476.42" y2="319.00" /><line x1="486.42" y1="319.00" x2="492.73" y2="319.00" /><line x1="502.73" y1="319.00" x2="508.76" y2="319.00" /><line x1="518.76" y1="319.00" x2="523.35" y2="319.00" /><line x1="539.58" y1="319.00" x2="548.84" y2="319.00" /><line x1="263.94" y1="323.00" x2="286.23" y2="323.00" /><line x1="296.23" y1="323.00" x2="353.80" y2="323.00" /><line x1="363.80" y1="323.00" x2="438.70" y2="323.00" /><line x1="448.70" y1="323.00" x2="508.31" y2="323.00" /><line x1="518.31" y1="323.00" x2="559.00" y2="323.00" /><line x1="266.24" y1="326.93" x2="286.97" y2="326.93" /><line x1="296.97" y1="326.93" x2="352.64" y2="326.93" /><line x1="362.64" y1="326.93" x2="437.62" y2="326.93" /><line x1="447.62" y1="326.93" x2="508.55" y2="326.93" /><line x1="518.55" y1="326.93" x2="558.93" y2="326.93" /><line x1="257.22" y1="330.79" x2="260.15" y2="330.79" /><line x1="270.15" y1="330.79" x2="287.92" y2="330.79" /><line x1="297.92" y1="330.79" x2="352.12" y2="330.79" /><line x1="362.12" y1="330.79" x2="436.60" y2="330.79" /><line x1="446.60" y1="330.79" x2="508.70" y2="330.79" /><line x1="518.70" y1="330.79" x2="558.78" y2="330.79" /><line x1="257.61" y1="334.59" x2="262.66" y2="334.59" /><line x1="272.66" y1="334.59" x2="288.86" y2="334.59" /><line x1="298.86" y1="334.59" x2="348.84" y2="334.59" /><line x1="363.27" y1="334.59" x2="435.90" y2="334.59" /><line x1="445.90" y1="334.59" x2="508.15" y2="334.59" /><line x1="518.15" y1="334.59" x2="558.71" y2="334.59" /><line x1="257.06" y1="338.33" x2="265.39" y2="338.33" /><line x1="275.39" y1="338.33" x2="289.67" y2="338.33" /><line x1="299.67" y1="338.33" x2="341.35" y2="338.33" /><line x1="351.35" y1="338.33" x2="355.00" y2="338.33" /><line x1="365.00" y1="338.33" x2="435.32" y2="338.33" /><line x1="445.32" y1="338.33" x2="507.43" y2="338.33" /><line x1="517.43" y1="338.33" x2="558.46" y2="338.33" /><line x1="257.00" y1="342.00" x2="266.54" y2="342.00" /><line x1="281.78" y1="342.00" x2="290.28" y2="342.00" /><line x1="300.28" y1="342.00" x2="334.28" y2="342.00" /><line x1="344.28" y1="342.00" x2="356.78" y2="342.00" /><line x1="366.78" y1="342.00" x2="435.04" y2="342.00" /><line x1="445.04" y1="342.00" x2="507.31" y2="342.00" /><line x1="517.31" y1="342.00" x2="558.32" y2="342.00" /><line x1="257.05" y1="345.62" x2="265.85" y2="345.62" /><line x1="275.85" y1="345.62" x2="284.36" y2="345.62" /><line x1="301.12" y1="345.62" x2="329.57" y2="345.62" /><line x1="339.57" y1="345.62" x2="358.65" y2="345.62" /><line x1="368.65" y1="345.62" x2="434.76" y2="345.62" /><line x1="444.76" y1="345.62" x2="507.33" y2="345.62" /><line x1="517.33" y1="345.62" x2="558.84" y2="345.62" /><line x1="257.17" y1="349.18" x2="264.63" y2="349.18" /><line x1="274.63" y1="349.18" x2="293.74" y2="349.18" /><line x1="303.74" y1="349.18" x2="322.49" y2="349.18" /><line x1="332.49" y1="349.18" x2="362.34" y2="349.18" /><line x1="372.34" y1="349.18" x2="434.30" y2="349.18" /><line x1="444.30" y1="349.18" x2="507.13" y2="349.18" /><line x1="517.13" y1="349.18" x2="558.73" y2="349.18" /><line x1="257.04" y1="352.69" x2="263.12" y2="352.69" /><line x1="273.12" y1="352.69" x2="298.61" y2="352.69" /><line x1="308.61" y1="352.69" x2="316.32" y2="352.69" /><line x1="326.32" y1="352.69" x2="363.40" y2="352.69" /><line x1="373.40" y1="352.69" x2="433.65" y2="352.69" /><line x1="443.65" y1="352.69" x2="507.02" y2="352.69" /><line x1="517.02" y1="352.69" x2="558.54" y2="352.69" /><line x1="257.24" y1="356.14" x2="261.80" y2="356.14" /><line x1="271.80" y1="356.14" x2="302.86" y2="356.14" /><line x1="322.47" y1="356.14" x2="365.03" y2="356.14" /><line x1="375.03" y1="356.14" x2="432.92" y2="356.14" /><line x1="442.92" y1="356.14" x2="506.70" y2="356.14" /><line x1="516.70" y1="356.14" x2="517.72" y2="356.14" /><line x1="527.72" y1="356.14" x2="558.88" y2="356.14" /><line x1="257.45" y1="359.54" x2="261.76" y2="359.54" /><line x1="271.76" y1="359.54" x2="306.80" y2="359.54" /><line x1="316.80" y1="359.54" x2="367.32" y2="359.54" /><line x1="377.32" y1="359.54" x2="432.19" y2="359.54" /><line x1="442.19" y1="359.54" x2="505.73" y2="359.54" /><line x1="515.73" y1="359.54" x2="539.33" y2="359.54" /><line x1="549.33" y1="359.54" x2="559.00" y2="359.54" /><line x1="257.19" y1="362.90" x2="261.05" y2="362.90" /><line x1="271.05" y1="362.90" x2="305.05" y2="362.90" /><line x1="315.05" y1="362.90" x2="369.56" y2="362.90" /><line x1="379.56" y1="362.90" x2="431.61" y2="362.90" /><line x1="441.61" y1="362.90" x2="504.84" y2="362.90" /><line x1="514.84" y1="362.90" x2="559.00" y2="362.90" /><line x1="257.07" y1="366.21" x2="260.02" y2="366.21" /><line x1="270.02" y1="366.21" x2="303.29" y2="366.21" /><line x1="313.29" y1="366.21" x2="370.56" y2="366.21" /><line x1="380.56" y1="366.21" x2="430.85" y2="366.21" /><line x1="440.85" y1="366.21" x2="504.08" y2="366.21" /><line x1="514.08" y1="366.21" x2="559.00" y2="366.21" /><line x1="257.08" y1="369.47" x2="258.72" y2="369.47" /><line x1="268.72" y1="369.47" x2="301.67" y2="369.47" /><line x1="311.67" y1="369.47" x2="372.30" y2="369.47" /><line x1="382.30" y1="369.47" x2="429.73" y2="369.47" /><line x1="439.73" y1="369.47" x2="503.70" y2="369.47" /><line x1="513.70" y1="369.47" x2="559.00" y2="369.47" /><line x1="267.52" y1="372.69" x2="300.34" y2="372.69" /><line x1="310.34" y1="372.69" x2="374.29" y2="372.69" /><line x1="384.29" y1="372.69" x2="429.63" y2="372.69" /><line x1="439.63" y1="372.69" x2="503.47" y2="372.69" /><line x1="513.47" y1="372.69" x2="559.00" y2="372.69" /><line x1="266.38" y1="375.87" x2="298.96" y2="375.87" /><line x1="308.96" y1="375.87" x2="375.89" y2="375.87" /><line x1="385.89" y1="375.87" x2="429.76" y2="375.87" /><line x1="439.76" y1="375.87" x2="501.54" y2="375.87" /><line x1="518.54" y1="375.87" x2="559.00" y2="375.87" /><line x1="265.31" y1="379.01" x2="297.05" y2="379.01" /><line x1="307.05" y1="379.01" x2="377.79" y2="379.01" /><line x1="387.79" y1="379.01" x2="429.00" y2="379.01" /><line x1="439.00" y1="379.01" x2="498.39" y2="379.01" /><line x1="508.39" y1="379.01" x2="516.33" y2="379.01" /><line x1="526.33" y1="379.01" x2="559.00" y2="379.01" /><line x1="264.87" y1="382.10" x2="294.91" y2="382.10" /><line x1="304.91" y1="382.10" x2="379.42" y2="382.10" /><line x1="389.42" y1="382.10" x2="426.20" y2="382.10" /><line x1="441.87" y1="382.10" x2="495.56" y2="382.10" /><line x1="505.56" y1="382.10" x2="522.52" y2="382.10" /><line x1="532.52" y1="382.10" x2="559.00" y2="382.10" /><line x1="264.72" y1="385.16" x2="293.78" y2="385.16" /><line x1="303.78" y1="385.16" x2="380.81" y2="385.16" /><line x1="390.81" y1="385.16" x2="419.55" y2="385.16" /><line x1="429.55" y1="385.16" x2="445.85" y2="385.16" /><line x1="455.85" y1="385.16" x2="494.26" y2="385.16" /><line x1="504.26" y1="385.16" x2="528.26" y2="385.16" /><line x1="538.26" y1="385.16" x2="558.72" y2="385.16" /><line x1="262.85" y1="388.18" x2="292.49" y2="388.18" /><line x1="302.49" y1="388.18" x2="382.34" y2="388.18" /><line x1="392.34" y1="388.18" x2="412.47" y2="388.18" /><line x1="422.47" y1="388.18" x2="459.27" y2="388.18" /><line x1="469.27" y1="388.18" x2="491.49" y2="388.18" /><line x1="501.49" y1="388.18" x2="535.35" y2="388.18" /><line x1="545.35" y1="388.18" x2="558.23" y2="388.18" /><line x1="261.96" y1="391.17" x2="290.89" y2="391.17" /><line x1="300.89" y1="391.17" x2="384.07" y2="391.17" /><line x1="394.07" y1="391.17" x2="406.64" y2="391.17" /><line x1="416.64" y1="391.17" x2="472.32" y2="391.17" /><line x1="482.32" y1="391.17" x2="488.24" y2="391.17" /><line x1="498.24" y1="391.17" x2="542.14" y2="391.17" /><line x1="552.14" y1="391.17" x2="558.47" y2="391.17" /><line x1="261.42" y1="394.12" x2="289.60" y2="394.12" /><line x1="299.60" y1="394.12" x2="386.21" y2="394.12" /><line x1="396.21" y1="394.12" x2="397.54" y2="394.12" /><line x1="407.54" y1="394.12" x2="486.08" y2="394.12" /><line x1="496.08" y1="394.12" x2="548.44" y2="394.12" /><line x1="260.41" y1="397.04" x2="288.13" y2="397.04" /><line x1="298.13" y1="397.04" x2="387.67" y2="397.04" /><line x1="402.93" y1="397.04" x2="485.98" y2="397.04" /><line x1="495.98" y1="397.04" x2="556.37" y2="397.04" /><line x1="259.48" y1="399.93" x2="286.34" y2="399.93" /><line x1="296.34" y1="399.93" x2="387.98" y2="399.93" /><line x1="397.98" y1="399.93" x2="486.19" y2="399.93" /><line x1="496.19" y1="399.93" x2="558.83" y2="399.93" /><line x1="258.80" y1="402.78" x2="284.83" y2="402.78" /><line x1="294.83" y1="402.78" x2="386.83" y2="402.78" /><line x1="396.83" y1="402.78" x2="486.67" y2="402.78" /><line x1="496.67" y1="402.78" x2="558.46" y2="402.78" /><line x1="258.08" y1="405.61" x2="283.49" y2="405.61" /><line x1="293.49" y1="405.61" x2="385.96" y2="405.61" /><line x1="395.96" y1="405.61" x2="487.20" y2="405.61" /><line x1="497.20" y1="405.61" x2="558.38" y2="405.61" /><line x1="257.27" y1="408.40" x2="282.43" y2="408.40" /><line x1="292.43" y1="408.40" x2="384.28" y2="408.40" /><line x1="397.31" y1="408.40" x2="487.78" y2="408.40" /><line x1="497.78" y1="408.40" x2="558.49" y2="408.40" /><line x1="257.07" y1="411.17" x2="280.02" y2="411.17" /><line x1="290.02" y1="411.17" x2="299.36" y2="411.17" /><line x1="309.36" y1="411.17" x2="381.79" y2="411.17" /><line x1="400.61" y1="411.17" x2="488.08" y2="411.17" /><line x1="498.08" y1="411.17" x2="558.66" y2="411.17" /><line x1="257.18" y1="413.91" x2="275.17" y2="413.91" /><line x1="285.17" y1="413.91" x2="342.38" y2="413.91" /><line x1="352.38" y1="413.91" x2="379.76" y2="413.91" /><line x1="389.76" y1="413.91" x2="393.18" y2="413.91" /><line x1="403.18" y1="413.91" x2="488.39" y2="413.91" /><line x1="498.39" y1="413.91" x2="558.91" y2="413.91" /><line x1="257.26" y1="416.63" x2="270.81" y2="416.63" /><line x1="280.81" y1="416.63" x2="369.53" y2="416.63" /><line x1="384.35" y1="416.63" x2="395.79" y2="416.63" /><line x1="405.79" y1="416.63" x2="488.43" y2="416.63" /><line x1="498.43" y1="416.63" x2="558.91" y2="416.63" /><line x1="257.32" y1="419.31" x2="267.12" y2="419.31" /><line x1="277.12" y1="419.31" x2="374.80" y2="419.31" /><line x1="386.43" y1="419.31" x2="400.10" y2="419.31" /><line x1="410.10" y1="419.31" x2="488.47" y2="419.31" /><line x1="498.47" y1="419.31" x2="558.77" y2="419.31" /><line x1="257.28" y1="421.98" x2="262.44" y2="421.98" /><line x1="272.44" y1="421.98" x2="372.00" y2="421.98" /><line x1="386.52" y1="421.98" x2="404.20" y2="421.98" /><line x1="414.20" y1="421.98" x2="488.38" y2="421.98" /><line x1="498.38" y1="421.98" x2="558.79" y2="421.98" /><line x1="257.12" y1="424.62" x2="258.40" y2="424.62" /><line x1="268.40" y1="424.62" x2="368.08" y2="424.62" /><line x1="386.35" y1="424.62" x2="407.34" y2="424.62" /><line x1="417.34" y1="424.62" x2="488.27" y2="424.62" /><line x1="498.27" y1="424.62" x2="558.91" y2="424.62" /><line x1="265.73" y1="427.24" x2="365.14" y2="427.24" /><line x1="386.10" y1="427.24" x2="409.85" y2="427.24" /><line x1="419.85" y1="427.24" x2="488.33" y2="427.24" /><line x1="498.33" y1="427.24" x2="557.30" y2="427.24" /><line x1="261.04" y1="429.84" x2="361.58" y2="429.84" /><line x1="371.58" y1="429.84" x2="376.37" y2="429.84" /><line x1="386.37" y1="429.84" x2="411.69" y2="429.84" /><line x1="421.69" y1="429.84" x2="488.39" y2="429.84" /><line x1="498.39" y1="429.84" x2="551.66" y2="429.84" /><line x1="257.01" y1="432.41" x2="358.69" y2="432.41" /><line x1="368.69" y1="432.41" x2="376.79" y2="432.41" /><line x1="386.79" y1="432.41" x2="414.98" y2="432.41" /><line x1="424.98" y1="432.41" x2="488.91" y2="432.41" /><line x1="498.91" y1="432.41" x2="544.85" y2="432.41" /><line x1="554.85" y1="432.41" x2="559.00" y2="432.41" /><line x1="257.23" y1="434.97" x2="356.29" y2="434.97" /><line x1="366.29" y1="434.97" x2="377.01" y2="434.97" /><line x1="387.01" y1="434.97" x2="417.99" y2="434.97" /><line x1="427.99" y1="434.97" x2="489.46" y2="434.97" /><line x1="499.46" y1="434.97" x2="538.79" y2="434.97" /><line x1="548.79" y1="434.97" x2="559.00" y2="434.97" /><line x1="257.45" y1="437.50" x2="352.18" y2="437.50" /><line x1="362.18" y1="437.50" x2="376.81" y2="437.50" /><line x1="386.81" y1="437.50" x2="420.81" y2="437.50" /><line x1="430.81" y1="437.50" x2="490.01" y2="437.50" /><line x1="500.01" y1="437.50" x2="533.49" y2="437.50" /><line x1="543.49" y1="437.50" x2="558.94" y2="437.50" /><line x1="257.24" y1="440.02" x2="350.20" y2="440.02" /><line x1="360.20" y1="440.02" x2="376.76" y2="440.02" /><line x1="386.76" y1="440.02" x2="424.63" y2="440.02" /><line x1="434.63" y1="440.02" x2="490.56" y2="440.02" /><line x1="500.56" y1="440.02" x2="526.02" y2="440.02" /><line x1="536.02" y1="440.02" x2="558.66" y2="440.02" /><line x1="257.00" y1="442.52" x2="347.31" y2="442.52" /><line x1="357.31" y1="442.52" x2="377.28" y2="442.52" /><line x1="387.28" y1="442.52" x2="427.17" y2="442.52" /><line x1="437.17" y1="442.52" x2="490.76" y2="442.52" /><line x1="500.76" y1="442.52" x2="520.19" y2="442.52" /><line x1="530.19" y1="442.52" x2="558.39" y2="442.52" /><line x1="257.00" y1="445.00" x2="343.99" y2="445.00" /><line x1="353.99" y1="445.00" x2="377.58" y2="445.00" /><line x1="387.58" y1="445.00" x2="429.86" y2="445.00" /><line x1="439.86" y1="445.00" x2="490.95" y2="445.00" /><line x1="500.95" y1="445.00" x2="514.73" y2="445.00" /><line x1="524.73" y1="445.00" x2="558.50" y2="445.00" /><line x1="257.00" y1="447.46" x2="341.20" y2="447.46" /><line x1="351.20" y1="447.46" x2="377.47" y2="447.46" /><line x1="387.47" y1="447.46" x2="432.70" y2="447.46" /><line x1="442.70" y1="447.46" x2="491.13" y2="447.46" /><line x1="501.13" y1="447.46" x2="509.45" y2="447.46" /><line x1="519.45" y1="447.46" x2="558.63" y2="447.46" /><line x1="257.08" y1="449.91" x2="339.40" y2="449.91" /><line x1="349.40" y1="449.91" x2="377.34" y2="449.91" /><line x1="387.34" y1="449.91" x2="435.07" y2="449.91" /><line x1="445.07" y1="449.91" x2="491.32" y2="449.91" /><line x1="501.32" y1="449.91" x2="504.70" y2="449.91" /><line x1="514.70" y1="449.91" x2="558.54" y2="449.91" /><line x1="257.16" y1="452.34" x2="336.99" y2="452.34" /><line x1="346.99" y1="452.34" x2="377.18" y2="452.34" /><line x1="387.18" y1="452.34" x2="438.60" y2="452.34" /><line x1="448.60" y1="452.34" x2="491.35" y2="452.34" /><line x1="508.83" y1="452.34" x2="558.44" y2="452.34" /><line x1="257.18" y1="454.75" x2="332.89" y2="454.75" /><line x1="342.89" y1="454.75" x2="377.04" y2="454.75" /><line x1="387.04" y1="454.75" x2="441.69" y2="454.75" /><line x1="451.69" y1="454.75" x2="491.34" y2="454.75" /><line x1="502.60" y1="454.75" x2="558.39" y2="454.75" /><line x1="257.21" y1="457.15" x2="330.19" y2="457.15" /><line x1="340.19" y1="457.15" x2="377.04" y2="457.15" /><line x1="387.04" y1="457.15" x2="444.41" y2="457.15" /><line x1="454.41" y1="457.15" x2="490.69" y2="457.15" /><line x1="500.69" y1="457.15" x2="558.74" y2="457.15" /><line x1="257.15" y1="459.54" x2="327.05" y2="459.54" /><line x1="337.05" y1="459.54" x2="377.06" y2="459.54" /><line x1="387.06" y1="459.54" x2="447.07" y2="459.54" /><line x1="457.07" y1="459.54" x2="489.73" y2="459.54" /><line x1="499.73" y1="459.54" x2="558.99" y2="459.54" /><line x1="257.07" y1="461.92" x2="324.12" y2="461.92" /><line x1="334.12" y1="461.92" x2="377.27" y2="461.92" /><line x1="387.27" y1="461.92" x2="442.84" y2="461.92" /><line x1="463.17" y1="461.92" x2="488.68" y2="461.92" /><line x1="498.68" y1="461.92" x2="558.97" y2="461.92" /><line x1="257.00" y1="464.28" x2="321.37" y2="464.28" /><line x1="331.37" y1="464.28" x2="377.48" y2="464.28" /><line x1="387.48" y1="464.28" x2="438.47" y2="464.28" /><line x1="448.47" y1="464.28" x2="463.87" y2="464.28" /><line x1="473.87" y1="464.28" x2="488.08" y2="464.28" /><line x1="498.08" y1="464.28" x2="558.95" y2="464.28" /><line x1="257.00" y1="466.63" x2="319.22" y2="466.63" /><line x1="329.22" y1="466.63" x2="370.90" y2="466.63" /><line x1="388.05" y1="466.63" x2="434.36" y2="466.63" /><line x1="444.36" y1="466.63" x2="469.35" y2="466.63" /><line x1="479.35" y1="466.63" x2="487.80" y2="466.63" /><line x1="497.80" y1="466.63" x2="558.96" y2="466.63" /><line x1="257.00" y1="468.96" x2="316.84" y2="468.96" /><line x1="326.84" y1="468.96" x2="361.87" y2="468.96" /><line x1="371.87" y1="468.96" x2="378.86" y2="468.96" /><line x1="388.86" y1="468.96" x2="430.68" y2="468.96" /><line x1="440.68" y1="468.96" x2="477.45" y2="468.96" /><line x1="500.88" y1="468.96" x2="558.99" y2="468.96" /><line x1="257.00" y1="471.29" x2="313.94" y2="471.29" /><line x1="323.94" y1="471.29" x2="354.15" y2="471.29" /><line x1="364.15" y1="471.29" x2="379.38" y2="471.29" /><line x1="389.38" y1="471.29" x2="427.64" y2="471.29" /><line x1="437.64" y1="471.29" x2="483.47" y2="471.29" /><line x1="493.47" y1="471.29" x2="496.58" y2="471.29" /><line x1="506.58" y1="471.29" x2="559.00" y2="471.29" /><line x1="257.00" y1="473.61" x2="311.44" y2="473.61" /><line x1="321.44" y1="473.61" x2="342.55" y2="473.61" /><line x1="352.55" y1="473.61" x2="380.11" y2="473.61" /><line x1="390.11" y1="473.61" x2="422.43" y2="473.61" /><line x1="432.43" y1="473.61" x2="482.86" y2="473.61" /><line x1="492.86" y1="473.61" x2="500.59" y2="473.61" /><line x1="510.59" y1="473.61" x2="559.00" y2="473.61" /><line x1="257.18" y1="475.91" x2="308.64" y2="475.91" /><line x1="318.64" y1="475.91" x2="335.53" y2="475.91" /><line x1="345.53" y1="475.91" x2="374.90" y2="475.91" /><line x1="391.66" y1="475.91" x2="417.12" y2="475.91" /><line x1="427.12" y1="475.91" x2="482.25" y2="475.91" /><line x1="492.25" y1="475.91" x2="507.23" y2="475.91" /><line x1="517.23" y1="475.91" x2="553.28" y2="475.91" /><line x1="257.44" y1="478.21" x2="305.98" y2="478.21" /><line x1="315.98" y1="478.21" x2="325.59" y2="478.21" /><line x1="335.59" y1="478.21" x2="369.88" y2="478.21" /><line x1="379.88" y1="478.21" x2="383.23" y2="478.21" /><line x1="393.23" y1="478.21" x2="413.61" y2="478.21" /><line x1="423.61" y1="478.21" x2="481.53" y2="478.21" /><line x1="491.53" y1="478.21" x2="511.48" y2="478.21" /><line x1="521.48" y1="478.21" x2="539.84" y2="478.21" /><line x1="549.84" y1="478.21" x2="558.94" y2="478.21" /><line x1="257.52" y1="480.49" x2="303.65" y2="480.49" /><line x1="322.46" y1="480.49" x2="366.68" y2="480.49" /><line x1="376.68" y1="480.49" x2="384.38" y2="480.49" /><line x1="394.38" y1="480.49" x2="409.57" y2="480.49" /><line x1="419.57" y1="480.49" x2="480.81" y2="480.49" /><line x1="490.81" y1="480.49" x2="518.04" y2="480.49" /><line x1="537.99" y1="480.49" x2="558.91" y2="480.49" /><line x1="257.32" y1="482.77" x2="300.90" y2="482.77" /><line x1="316.35" y1="482.77" x2="361.36" y2="482.77" /><line x1="371.36" y1="482.77" x2="385.46" y2="482.77" /><line x1="395.46" y1="482.77" x2="405.13" y2="482.77" /><line x1="415.13" y1="482.77" x2="479.46" y2="482.77" /><line x1="489.46" y1="482.77" x2="521.50" y2="482.77" /><line x1="531.50" y1="482.77" x2="558.95" y2="482.77" /><line x1="257.20" y1="485.04" x2="297.09" y2="485.04" /><line x1="307.09" y1="485.04" x2="358.25" y2="485.04" /><line x1="368.25" y1="485.04" x2="386.43" y2="485.04" /><line x1="396.43" y1="485.04" x2="400.98" y2="485.04" /><line x1="410.98" y1="485.04" x2="478.47" y2="485.04" /><line x1="488.47" y1="485.04" x2="523.02" y2="485.04" /><line x1="533.02" y1="485.04" x2="558.99" y2="485.04" /><line x1="257.32" y1="487.30" x2="293.00" y2="487.30" /><line x1="303.00" y1="487.30" x2="352.04" y2="487.30" /><line x1="362.04" y1="487.30" x2="387.43" y2="487.30" /><line x1="406.73" y1="487.30" x2="478.34" y2="487.30" /><line x1="488.34" y1="487.30" x2="524.04" y2="487.30" /><line x1="534.04" y1="487.30" x2="558.79" y2="487.30" /><line x1="257.44" y1="489.56" x2="290.74" y2="489.56" /><line x1="300.74" y1="489.56" x2="348.45" y2="489.56" /><line x1="358.45" y1="489.56" x2="389.04" y2="489.56" /><line x1="402.74" y1="489.56" x2="478.21" y2="489.56" /><line x1="488.21" y1="489.56" x2="525.05" y2="489.56" /><line x1="535.05" y1="489.56" x2="558.45" y2="489.56" /><line x1="257.30" y1="491.81" x2="287.17" y2="491.81" /><line x1="297.17" y1="491.81" x2="344.23" y2="491.81" /><line x1="354.23" y1="491.81" x2="390.19" y2="491.81" /><line x1="400.19" y1="491.81" x2="477.63" y2="491.81" /><line x1="487.63" y1="491.81" x2="526.80" y2="491.81" /><line x1="536.80" y1="491.81" x2="558.47" y2="491.81" /><line x1="257.16" y1="494.05" x2="281.66" y2="494.05" /><line x1="291.66" y1="494.05" x2="338.02" y2="494.05" /><line x1="348.02" y1="494.05" x2="390.29" y2="494.05" /><line x1="400.29" y1="494.05" x2="476.97" y2="494.05" /><line x1="486.97" y1="494.05" x2="528.82" y2="494.05" /><line x1="538.82" y1="494.05" x2="558.81" y2="494.05" /><line x1="257.17" y1="496.29" x2="278.33" y2="496.29" /><line x1="288.33" y1="496.29" x2="334.43" y2="496.29" /><line x1="344.43" y1="496.29" x2="390.38" y2="496.29" /><line x1="400.38" y1="496.29" x2="476.24" y2="496.29" /><line x1="486.24" y1="496.29" x2="529.89" y2="496.29" /><line x1="539.89" y1="496.29" x2="558.95" y2="496.29" /><line x1="257.19" y1="498.52" x2="275.37" y2="498.52" /><line x1="285.37" y1="498.52" x2="330.47" y2="498.52" /><line x1="340.47" y1="498.52" x2="390.33" y2="498.52" /><line x1="400.33" y1="498.52" x2="475.43" y2="498.52" /><line x1="485.43" y1="498.52" x2="530.96" y2="498.52" /><line x1="540.96" y1="498.52" x2="558.93" y2="498.52" /><line x1="257.18" y1="500.74" x2="272.09" y2="500.74" /><line x1="282.09" y1="500.74" x2="324.73" y2="500.74" /><line x1="334.73" y1="500.74" x2="390.20" y2="500.74" /><line x1="400.20" y1="500.74" x2="474.69" y2="500.74" /><line x1="484.69" y1="500.74" x2="532.53" y2="500.74" /><line x1="542.53" y1="500.74" x2="558.90" y2="500.74" /><line x1="257.13" y1="502.96" x2="268.17" y2="502.96" /><line x1="278.17" y1="502.96" x2="321.37" y2="502.96" /><line x1="331.37" y1="502.96" x2="390.42" y2="502.96" /><line x1="400.42" y1="502.96" x2="473.97" y2="502.96" /><line x1="483.97" y1="502.96" x2="534.20" y2="502.96" /><line x1="544.20" y1="502.96" x2="558.94" y2="502.96" /><line x1="257.11" y1="505.18" x2="263.84" y2="505.18" /><line x1="273.84" y1="505.18" x2="315.21" y2="505.18" /><line x1="325.21" y1="505.18" x2="390.89" y2="505.18" /><line x1="400.89" y1="505.18" x2="473.10" y2="505.18" /><line x1="483.10" y1="505.18" x2="535.84" y2="505.18" /><line x1="545.84" y1="505.18" x2="558.98" y2="505.18" /><line x1="257.14" y1="507.40" x2="260.31" y2="507.40" /><line x1="270.31" y1="507.40" x2="312.25" y2="507.40" /><line x1="322.25" y1="507.40" x2="391.36" y2="507.40" /><line x1="401.36" y1="507.40" x2="472.00" y2="507.40" /><line x1="482.00" y1="507.40" x2="537.31" y2="507.40" /><line x1="547.31" y1="507.40" x2="558.91" y2="507.40" /><line x1="267.12" y1="509.61" x2="305.73" y2="509.61" /><line x1="315.73" y1="509.61" x2="391.06" y2="509.61" /><line x1="401.06" y1="509.61" x2="471.10" y2="509.61" /><line x1="481.10" y1="509.61" x2="538.43" y2="509.61" /><line x1="548.43" y1="509.61" x2="558.65" y2="509.61" /><line x1="262.60" y1="511.81" x2="302.09" y2="511.81" /><line x1="312.09" y1="511.81" x2="390.55" y2="511.81" /><line x1="400.55" y1="511.81" x2="470.35" y2="511.81" /><line x1="480.35" y1="511.81" x2="539.52" y2="511.81" /><line x1="549.52" y1="511.81" x2="558.51" y2="511.81" /><line x1="258.99" y1="514.02" x2="296.99" y2="514.02" /><line x1="306.99" y1="514.02" x2="390.78" y2="514.02" /><line x1="400.78" y1="514.02" x2="469.62" y2="514.02" /><line x1="479.62" y1="514.02" x2="540.59" y2="514.02" /><line x1="550.59" y1="514.02" x2="558.62" y2="514.02" /><line x1="257.12" y1="516.22" x2="292.67" y2="516.22" /><line x1="302.67" y1="516.22" x2="391.14" y2="516.22" /><line x1="401.14" y1="516.22" x2="469.37" y2="516.22" /><line x1="479.37" y1="516.22" x2="541.67" y2="516.22" /><line x1="551.67" y1="516.22" x2="558.72" y2="516.22" /><line x1="257.41" y1="518.43" x2="289.47" y2="518.43" /><line x1="299.47" y1="518.43" x2="391.45" y2="518.43" /><line x1="401.45" y1="518.43" x2="469.12" y2="518.43" /><line x1="479.12" y1="518.43" x2="543.11" y2="518.43" /><line x1="553.11" y1="518.43" x2="558.52" y2="518.43" /><line x1="257.71" y1="520.63" x2="285.13" y2="520.63" /><line x1="295.13" y1="520.63" x2="391.65" y2="520.63" /><line x1="401.65" y1="520.63" x2="468.54" y2="520.63" /><line x1="478.54" y1="520.63" x2="544.57" y2="520.63" /><line x1="554.57" y1="520.63" x2="558.28" y2="520.63" /><line x1="257.53" y1="522.83" x2="280.60" y2="522.83" /><line x1="290.60" y1="522.83" x2="391.85" y2="522.83" /><line x1="401.85" y1="522.83" x2="467.96" y2="522.83" /><line x1="477.96" y1="522.83" x2="546.22" y2="522.83" /><line x1="556.22" y1="522.83" x2="558.56" y2="522.83" /><line x1="257.28" y1="525.03" x2="276.14" y2="525.03" /><line x1="286.14" y1="525.03" x2="391.75" y2="525.03" /><line x1="401.75" y1="525.03" x2="466.99" y2="525.03" /><line x1="476.99" y1="525.03" x2="547.96" y2="525.03" /><line x1="257.04" y1="527.23" x2="271.49" y2="527.23" /><line x1="281.49" y1="527.23" x2="391.47" y2="527.23" /><line x1="401.47" y1="527.23" x2="465.84" y2="527.23" /><line x1="475.84" y1="527.23" x2="549.81" y2="527.23" /><line x1="257.00" y1="529.43" x2="267.77" y2="529.43" /><line x1="277.77" y1="529.43" x2="391.52" y2="529.43" /><line x1="401.52" y1="529.43" x2="465.02" y2="529.43" /><line x1="475.02" y1="529.43" x2="551.58" y2="529.43" /><line x1="257.00" y1="531.63" x2="262.88" y2="531.63" /><line x1="272.88" y1="531.63" x2="392.04" y2="531.63" /><line x1="402.04" y1="531.63" x2="464.39" y2="531.63" /><line x1="474.39" y1="531.63" x2="552.85" y2="531.63" /><line x1="257.00" y1="533.83" x2="258.23" y2="533.83" /><line x1="268.23" y1="533.83" x2="392.57" y2="533.83" /><line x1="402.57" y1="533.83" x2="463.66" y2="533.83" /><line x1="473.66" y1="533.83" x2="554.17" y2="533.83" /><line x1="264.26" y1="536.04" x2="392.21" y2="536.04" /><line x1="402.21" y1="536.04" x2="462.85" y2="536.04" /><line x1="472.85" y1="536.04" x2="555.51" y2="536.04" /><line x1="259.56" y1="538.24" x2="391.66" y2="538.24" /><line x1="401.66" y1="538.24" x2="462.03" y2="538.24" /><line x1="472.03" y1="538.24" x2="556.91" y2="538.24" /><line x1="259.16" y1="540.45" x2="391.55" y2="540.45" /><line x1="401.55" y1="540.45" x2="461.93" y2="540.45" /><line x1="471.93" y1="540.45" x2="558.34" y2="540.45" /><line x1="263.74" y1="542.67" x2="391.71" y2="542.67" /><line x1="401.71" y1="542.67" x2="461.84" y2="542.67" /><line x1="471.84" y1="542.67" x2="558.97" y2="542.67" /><line x1="257.46" y1="544.88" x2="259.94" y2="544.88" /><line x1="269.94" y1="544.88" x2="391.87" y2="544.88" /><line x1="401.87" y1="544.88" x2="461.37" y2="544.88" /><line x1="471.37" y1="544.88" x2="558.90" y2="544.88" /><line x1="257.22" y1="547.11" x2="265.07" y2="547.11" /><line x1="275.07" y1="547.11" x2="392.32" y2="547.11" /><line x1="402.32" y1="547.11" x2="460.69" y2="547.11" /><line x1="470.69" y1="547.11" x2="558.84" y2="547.11" /><line x1="257.00" y1="549.33" x2="271.06" y2="549.33" /><line x1="281.06" y1="549.33" x2="392.89" y2="549.33" /><line x1="402.89" y1="549.33" x2="459.83" y2="549.33" /><line x1="469.83" y1="549.33" x2="558.93" y2="549.33" /><line x1="257.06" y1="551.56" x2="279.37" y2="551.56" /><line x1="289.37" y1="551.56" x2="392.64" y2="551.56" /><line x1="402.64" y1="551.56" x2="458.77" y2="551.56" /><line x1="468.77" y1="551.56" x2="559.00" y2="551.56" /><line x1="257.11" y1="553.80" x2="284.58" y2="553.80" /><line x1="294.58" y1="553.80" x2="392.35" y2="553.80" /><line x1="402.35" y1="553.80" x2="457.62" y2="553.80" /><line x1="476.43" y1="553.80" x2="559.00" y2="553.80" /><line x1="257.09" y1="556.04" x2="288.64" y2="556.04" /><line x1="298.64" y1="556.04" x2="392.28" y2="556.04" /><line x1="402.28" y1="556.04" x2="451.80" y2="556.04" /><line x1="464.31" y1="556.04" x2="480.45" y2="556.04" /><line x1="490.45" y1="556.04" x2="559.00" y2="556.04" /><line x1="257.04" y1="558.28" x2="296.34" y2="558.28" /><line x1="306.34" y1="558.28" x2="392.60" y2="558.28" /><line x1="402.60" y1="558.28" x2="419.57" y2="558.28" /><line x1="429.57" y1="558.28" x2="454.92" y2="558.28" /><line x1="464.92" y1="558.28" x2="487.74" y2="558.28" /><line x1="497.74" y1="558.28" x2="552.33" y2="558.28" /><line x1="257.04" y1="560.54" x2="299.86" y2="560.54" /><line x1="309.86" y1="560.54" x2="392.92" y2="560.54" /><line x1="412.01" y1="560.54" x2="455.52" y2="560.54" /><line x1="465.52" y1="560.54" x2="502.89" y2="560.54" /><line x1="512.89" y1="560.54" x2="536.78" y2="560.54" /><line x1="546.78" y1="560.54" x2="558.51" y2="560.54" /><line x1="257.19" y1="562.80" x2="307.04" y2="562.80" /><line x1="317.04" y1="562.80" x2="388.94" y2="562.80" /><line x1="398.94" y1="562.80" x2="456.01" y2="562.80" /><line x1="466.01" y1="562.80" x2="517.68" y2="562.80" /><line x1="534.91" y1="562.80" x2="558.50" y2="562.80" /><line x1="257.34" y1="565.07" x2="311.18" y2="565.07" /><line x1="321.18" y1="565.07" x2="386.30" y2="565.07" /><line x1="396.30" y1="565.07" x2="456.47" y2="565.07" /><line x1="466.47" y1="565.07" x2="519.44" y2="565.07" /><line x1="529.44" y1="565.07" x2="558.72" y2="565.07" /><line x1="257.47" y1="567.34" x2="319.21" y2="567.34" /><line x1="329.21" y1="567.34" x2="383.90" y2="567.34" /><line x1="393.90" y1="567.34" x2="456.93" y2="567.34" /><line x1="466.93" y1="567.34" x2="519.69" y2="567.34" /><line x1="529.69" y1="567.34" x2="558.95" y2="567.34" /><line x1="257.58" y1="569.63" x2="325.43" y2="569.63" /><line x1="335.43" y1="569.63" x2="379.78" y2="569.63" /><line x1="389.78" y1="569.63" x2="457.60" y2="569.63" /><line x1="467.60" y1="569.63" x2="519.84" y2="569.63" /><line x1="529.84" y1="569.63" x2="558.98" y2="569.63" /><line x1="257.33" y1="571.92" x2="331.45" y2="571.92" /><line x1="341.45" y1="571.92" x2="372.89" y2="571.92" /><line x1="382.89" y1="571.92" x2="458.30" y2="571.92" /><line x1="468.30" y1="571.92" x2="519.85" y2="571.92" /><line x1="529.85" y1="571.92" x2="558.95" y2="571.92" /><line x1="257.09" y1="574.23" x2="336.32" y2="574.23" /><line x1="346.32" y1="574.23" x2="370.37" y2="574.23" /><line x1="380.37" y1="574.23" x2="459.08" y2="574.23" /><line x1="469.08" y1="574.23" x2="519.87" y2="574.23" /><line x1="529.87" y1="574.23" x2="558.95" y2="574.23" /><line x1="257.00" y1="576.54" x2="342.40" y2="576.54" /><line x1="352.40" y1="576.54" x2="367.26" y2="576.54" /><line x1="377.26" y1="576.54" x2="460.00" y2="576.54" /><line x1="470.00" y1="576.54" x2="520.10" y2="576.54" /><line x1="530.10" y1="576.54" x2="558.98" y2="576.54" /><line x1="257.00" y1="578.86" x2="347.65" y2="578.86" /><line x1="358.50" y1="578.86" x2="363.15" y2="578.86" /><line x1="373.15" y1="578.86" x2="460.92" y2="578.86" /><line x1="470.95" y1="578.86" x2="520.33" y2="578.86" /><line x1="530.33" y1="578.86" x2="558.94" y2="578.86" /><line x1="257.00" y1="581.20" x2="346.77" y2="581.20" /><line x1="356.77" y1="581.20" x2="359.54" y2="581.20" /><line x1="369.54" y1="581.20" x2="461.19" y2="581.20" /><line x1="473.40" y1="581.20" x2="520.41" y2="581.20" /><line x1="530.41" y1="581.20" x2="558.82" y2="581.20" /><line x1="257.00" y1="583.55" x2="345.81" y2="583.55" /><line x1="355.81" y1="583.55" x2="360.22" y2="583.55" /><line x1="370.22" y1="583.55" x2="461.46" y2="583.55" /><line x1="476.02" y1="583.55" x2="520.47" y2="583.55" /><line x1="530.47" y1="583.55" x2="558.70" y2="583.55" /><line x1="257.00" y1="585.90" x2="344.36" y2="585.90" /><line x1="354.36" y1="585.90" x2="360.94" y2="585.90" /><line x1="370.94" y1="585.90" x2="461.55" y2="585.90" /><line x1="478.82" y1="585.90" x2="520.50" y2="585.90" /><line x1="530.50" y1="585.90" x2="558.85" y2="585.90" /><line x1="257.00" y1="588.28" x2="342.81" y2="588.28" /><line x1="352.81" y1="588.28" x2="361.93" y2="588.28" /><line x1="371.93" y1="588.28" x2="461.58" y2="588.28" /><line x1="481.03" y1="588.28" x2="520.53" y2="588.28" /><line x1="530.53" y1="588.28" x2="559.00" y2="588.28" /><line x1="257.00" y1="590.66" x2="341.15" y2="590.66" /><line x1="351.15" y1="590.66" x2="362.93" y2="590.66" /><line x1="372.93" y1="590.66" x2="461.51" y2="590.66" /><line x1="471.51" y1="590.66" x2="474.16" y2="590.66" /><line x1="484.16" y1="590.66" x2="520.50" y2="590.66" /><line x1="530.50" y1="590.66" x2="559.00" y2="590.66" /><line x1="257.00" y1="593.06" x2="339.71" y2="593.06" /><line x1="349.71" y1="593.06" x2="363.57" y2="593.06" /><line x1="373.57" y1="593.06" x2="461.38" y2="593.06" /><line x1="471.38" y1="593.06" x2="477.10" y2="593.06" /><line x1="487.10" y1="593.06" x2="520.14" y2="593.06" /><line x1="530.14" y1="593.06" x2="559.00" y2="593.06" /><line x1="257.06" y1="595.47" x2="338.72" y2="595.47" /><line x1="348.72" y1="595.47" x2="364.12" y2="595.47" /><line x1="374.12" y1="595.47" x2="461.47" y2="595.47" /><line x1="471.47" y1="595.47" x2="479.33" y2="595.47" /><line x1="489.33" y1="595.47" x2="519.96" y2="595.47" /><line x1="529.96" y1="595.47" x2="559.00" y2="595.47" /><line x1="257.32" y1="597.90" x2="337.68" y2="597.90" /><line x1="347.68" y1="597.90" x2="364.72" y2="597.90" /><line x1="374.72" y1="597.90" x2="461.63" y2="597.90" /><line x1="471.63" y1="597.90" x2="481.53" y2="597.90" /><line x1="491.53" y1="597.90" x2="520.37" y2="597.90" /><line x1="530.37" y1="597.90" x2="559.00" y2="597.90" /><line x1="257.40" y1="600.34" x2="336.05" y2="600.34" /><line x1="346.05" y1="600.34" x2="365.62" y2="600.34" /><line x1="375.62" y1="600.34" x2="461.85" y2="600.34" /><line x1="471.85" y1="600.34" x2="484.23" y2="600.34" /><line x1="494.23" y1="600.34" x2="520.78" y2="600.34" /><line x1="530.78" y1="600.34" x2="558.99" y2="600.34" /><line x1="257.15" y1="602.80" x2="334.77" y2="602.80" /><line x1="344.77" y1="602.80" x2="366.53" y2="602.80" /><line x1="376.53" y1="602.80" x2="462.36" y2="602.80" /><line x1="472.36" y1="602.80" x2="487.73" y2="602.80" /><line x1="497.73" y1="602.80" x2="520.94" y2="602.80" /><line x1="530.94" y1="602.80" x2="558.99" y2="602.80" /><line x1="257.00" y1="605.27" x2="333.81" y2="605.27" /><line x1="343.81" y1="605.27" x2="367.15" y2="605.27" /><line x1="377.15" y1="605.27" x2="462.84" y2="605.27" /><line x1="472.84" y1="605.27" x2="489.56" y2="605.27" /><line x1="499.56" y1="605.27" x2="521.00" y2="605.27" /><line x1="531.00" y1="605.27" x2="558.98" y2="605.27" /><line x1="257.01" y1="607.77" x2="332.54" y2="607.77" /><line x1="342.54" y1="607.77" x2="367.76" y2="607.77" /><line x1="377.76" y1="607.77" x2="463.20" y2="607.77" /><line x1="473.20" y1="607.77" x2="492.09" y2="607.77" /><line x1="502.09" y1="607.77" x2="520.83" y2="607.77" /><line x1="530.83" y1="607.77" x2="559.00" y2="607.77" /><line x1="257.01" y1="610.28" x2="331.09" y2="610.28" /><line x1="341.09" y1="610.28" x2="368.84" y2="610.28" /><line x1="378.84" y1="610.28" x2="463.28" y2="610.28" /><line x1="473.28" y1="610.28" x2="495.79" y2="610.28" /><line x1="505.79" y1="610.28" x2="520.59" y2="610.28" /><line x1="530.59" y1="610.28" x2="558.73" y2="610.28" /><line x1="257.40" y1="612.81" x2="329.49" y2="612.81" /><line x1="339.49" y1="612.81" x2="369.83" y2="612.81" /><line x1="379.83" y1="612.81" x2="462.79" y2="612.81" /><line x1="472.79" y1="612.81" x2="499.72" y2="612.81" /><line x1="509.72" y1="612.81" x2="520.45" y2="612.81" /><line x1="530.45" y1="612.81" x2="558.39" y2="612.81" /><line x1="257.60" y1="615.36" x2="328.18" y2="615.36" /><line x1="338.18" y1="615.36" x2="370.50" y2="615.36" /><line x1="380.50" y1="615.36" x2="462.40" y2="615.36" /><line x1="472.40" y1="615.36" x2="502.61" y2="615.36" /><line x1="512.61" y1="615.36" x2="520.70" y2="615.36" /><line x1="530.70" y1="615.36" x2="558.31" y2="615.36" /><line x1="257.36" y1="617.92" x2="327.52" y2="617.92" /><line x1="337.52" y1="617.92" x2="371.18" y2="617.92" /><line x1="381.18" y1="617.92" x2="463.06" y2="617.92" /><line x1="473.06" y1="617.92" x2="505.11" y2="617.92" /><line x1="515.11" y1="617.92" x2="521.00" y2="617.92" /><line x1="531.00" y1="617.92" x2="558.54" y2="617.92" /><line x1="257.16" y1="620.51" x2="326.68" y2="620.51" /><line x1="336.68" y1="620.51" x2="370.19" y2="620.51" /><line x1="383.45" y1="620.51" x2="463.59" y2="620.51" /><line x1="473.59" y1="620.51" x2="508.17" y2="620.51" /><line x1="518.17" y1="620.51" x2="521.62" y2="620.51" /><line x1="531.62" y1="620.51" x2="558.77" y2="620.51" /><line x1="257.05" y1="623.13" x2="325.50" y2="623.13" /><line x1="335.50" y1="623.13" x2="369.09" y2="623.13" /><line x1="385.63" y1="623.13" x2="463.73" y2="623.13" /><line x1="473.73" y1="623.13" x2="511.57" y2="623.13" /><line x1="532.17" y1="623.13" x2="558.94" y2="623.13" /><line x1="257.00" y1="625.76" x2="324.29" y2="625.76" /><line x1="334.29" y1="625.76" x2="367.35" y2="625.76" /><line x1="387.60" y1="625.76" x2="463.85" y2="625.76" /><line x1="473.85" y1="625.76" x2="514.14" y2="625.76" /><line x1="532.27" y1="625.76" x2="559.00" y2="625.76" /><line x1="257.00" y1="628.42" x2="323.03" y2="628.42" /><line x1="333.03" y1="628.42" x2="365.95" y2="628.42" /><line x1="375.95" y1="628.42" x2="380.28" y2="628.42" /><line x1="390.28" y1="628.42" x2="463.84" y2="628.42" /><line x1="473.84" y1="628.42" x2="516.80" y2="628.42" /><line x1="532.24" y1="628.42" x2="559.00" y2="628.42" /><line x1="257.03" y1="631.10" x2="321.39" y2="631.10" /><line x1="331.39" y1="631.10" x2="365.21" y2="631.10" /><line x1="375.21" y1="631.10" x2="383.24" y2="631.10" /><line x1="393.24" y1="631.10" x2="463.83" y2="631.10" /><line x1="473.83" y1="631.10" x2="519.64" y2="631.10" /><line x1="531.96" y1="631.10" x2="558.89" y2="631.10" /><line x1="257.50" y1="633.80" x2="319.39" y2="633.80" /><line x1="329.39" y1="633.80" x2="364.24" y2="633.80" /><line x1="374.24" y1="633.80" x2="386.21" y2="633.80" /><line x1="396.21" y1="633.80" x2="464.07" y2="633.80" /><line x1="474.07" y1="633.80" x2="522.14" y2="633.80" /><line x1="532.14" y1="633.80" x2="558.54" y2="633.80" /><line x1="257.49" y1="636.53" x2="317.51" y2="636.53" /><line x1="327.51" y1="636.53" x2="363.04" y2="636.53" /><line x1="373.04" y1="636.53" x2="388.16" y2="636.53" /><line x1="398.16" y1="636.53" x2="463.66" y2="636.53" /><line x1="475.81" y1="636.53" x2="523.43" y2="636.53" /><line x1="533.43" y1="636.53" x2="558.40" y2="636.53" /><line x1="257.14" y1="639.29" x2="315.88" y2="639.29" /><line x1="325.88" y1="639.29" x2="361.69" y2="639.29" /><line x1="371.69" y1="639.29" x2="389.99" y2="639.29" /><line x1="399.99" y1="639.29" x2="461.23" y2="639.29" /><line x1="471.23" y1="639.29" x2="473.72" y2="639.29" /><line x1="483.72" y1="639.29" x2="524.67" y2="639.29" /><line x1="534.67" y1="639.29" x2="558.75" y2="639.29" /><line x1="259.70" y1="642.08" x2="314.49" y2="642.08" /><line x1="324.49" y1="642.08" x2="360.16" y2="642.08" /><line x1="370.16" y1="642.08" x2="391.72" y2="642.08" /><line x1="401.72" y1="642.08" x2="459.28" y2="642.08" /><line x1="469.28" y1="642.08" x2="485.17" y2="642.08" /><line x1="495.17" y1="642.08" x2="525.36" y2="642.08" /><line x1="535.36" y1="642.08" x2="558.91" y2="642.08" /><line x1="263.12" y1="644.89" x2="313.63" y2="644.89" /><line x1="323.63" y1="644.89" x2="358.32" y2="644.89" /><line x1="368.32" y1="644.89" x2="394.68" y2="644.89" /><line x1="404.68" y1="644.89" x2="457.40" y2="644.89" /><line x1="467.40" y1="644.89" x2="497.37" y2="644.89" /><line x1="507.37" y1="644.89" x2="526.41" y2="644.89" /><line x1="536.41" y1="644.89" x2="558.63" y2="644.89" /><line x1="266.44" y1="647.73" x2="312.91" y2="647.73" /><line x1="322.91" y1="647.73" x2="356.91" y2="647.73" /><line x1="366.91" y1="647.73" x2="397.39" y2="647.73" /><line x1="407.39" y1="647.73" x2="455.46" y2="647.73" /><line x1="465.46" y1="647.73" x2="508.33" y2="647.73" /><line x1="518.33" y1="647.73" x2="527.98" y2="647.73" /><line x1="537.98" y1="647.73" x2="558.62" y2="647.73" /><line x1="257.70" y1="650.60" x2="260.15" y2="650.60" /><line x1="270.15" y1="650.60" x2="311.23" y2="650.60" /><line x1="321.23" y1="650.60" x2="356.27" y2="650.60" /><line x1="366.27" y1="650.60" x2="399.48" y2="650.60" /><line x1="409.48" y1="650.60" x2="451.71" y2="650.60" /><line x1="461.71" y1="650.60" x2="516.80" y2="650.60" /><line x1="526.80" y1="650.60" x2="529.37" y2="650.60" /><line x1="539.37" y1="650.60" x2="558.96" y2="650.60" /><line x1="257.70" y1="653.51" x2="262.96" y2="653.51" /><line x1="272.96" y1="653.51" x2="309.90" y2="653.51" /><line x1="319.90" y1="653.51" x2="355.23" y2="653.51" /><line x1="365.23" y1="653.51" x2="401.87" y2="653.51" /><line x1="411.87" y1="653.51" x2="448.87" y2="653.51" /><line x1="458.87" y1="653.51" x2="527.14" y2="653.51" /><line x1="540.54" y1="653.51" x2="559.00" y2="653.51" /><line x1="257.65" y1="656.44" x2="267.03" y2="656.44" /><line x1="277.03" y1="656.44" x2="308.70" y2="656.44" /><line x1="318.70" y1="656.44" x2="354.09" y2="656.44" /><line x1="364.09" y1="656.44" x2="405.42" y2="656.44" /><line x1="415.42" y1="656.44" x2="446.70" y2="656.44" /><line x1="456.70" y1="656.44" x2="532.98" y2="656.44" /><line x1="542.98" y1="656.44" x2="559.00" y2="656.44" /><line x1="257.17" y1="659.42" x2="270.84" y2="659.42" /><line x1="280.84" y1="659.42" x2="306.71" y2="659.42" /><line x1="316.71" y1="659.42" x2="351.74" y2="659.42" /><line x1="361.74" y1="659.42" x2="408.08" y2="659.42" /><line x1="418.08" y1="659.42" x2="443.35" y2="659.42" /><line x1="453.35" y1="659.42" x2="536.30" y2="659.42" /><line x1="546.30" y1="659.42" x2="559.00" y2="659.42" /><line x1="257.00" y1="662.42" x2="274.91" y2="662.42" /><line x1="284.91" y1="662.42" x2="304.60" y2="662.42" /><line x1="314.60" y1="662.42" x2="349.72" y2="662.42" /><line x1="359.72" y1="662.42" x2="409.59" y2="662.42" /><line x1="419.59" y1="662.42" x2="441.66" y2="662.42" /><line x1="451.66" y1="662.42" x2="536.17" y2="662.42" /><line x1="546.17" y1="662.42" x2="559.00" y2="662.42" /><line x1="257.00" y1="665.46" x2="277.82" y2="665.46" /><line x1="287.82" y1="665.46" x2="302.70" y2="665.46" /><line x1="312.70" y1="665.46" x2="348.29" y2="665.46" /><line x1="358.29" y1="665.46" x2="412.84" y2="665.46" /><line x1="422.84" y1="665.46" x2="429.77" y2="665.46" /><line x1="439.77" y1="665.46" x2="443.79" y2="665.46" /><line x1="453.79" y1="665.46" x2="532.46" y2="665.46" /><line x1="542.46" y1="665.46" x2="559.00" y2="665.46" /><line x1="257.00" y1="668.54" x2="281.85" y2="668.54" /><line x1="291.85" y1="668.54" x2="301.45" y2="668.54" /><line x1="311.45" y1="668.54" x2="347.39" y2="668.54" /><line x1="357.39" y1="668.54" x2="413.72" y2="668.54" /><line x1="423.72" y1="668.54" x2="446.76" y2="668.54" /><line x1="456.76" y1="668.54" x2="528.62" y2="668.54" /><line x1="538.62" y1="668.54" x2="558.91" y2="668.54" /><line x1="257.00" y1="671.65" x2="286.64" y2="671.65" /><line x1="306.98" y1="671.65" x2="309.94" y2="671.65" /><line x1="319.94" y1="671.65" x2="346.58" y2="671.65" /><line x1="356.58" y1="671.65" x2="413.26" y2="671.65" /><line x1="423.26" y1="671.65" x2="449.12" y2="671.65" /><line x1="459.12" y1="671.65" x2="524.86" y2="671.65" /><line x1="534.86" y1="671.65" x2="558.68" y2="671.65" /><line x1="257.00" y1="674.81" x2="289.74" y2="674.81" /><line x1="304.27" y1="674.81" x2="335.77" y2="674.81" /><line x1="354.96" y1="674.81" x2="412.46" y2="674.81" /><line x1="422.46" y1="674.81" x2="452.03" y2="674.81" /><line x1="462.03" y1="674.81" x2="522.14" y2="674.81" /><line x1="532.14" y1="674.81" x2="558.82" y2="674.81" /><line x1="257.02" y1="678.01" x2="290.93" y2="678.01" /><line x1="300.93" y1="678.01" x2="344.04" y2="678.01" /><line x1="354.04" y1="678.01" x2="411.47" y2="678.01" /><line x1="421.47" y1="678.01" x2="457.03" y2="678.01" /><line x1="467.03" y1="678.01" x2="519.19" y2="678.01" /><line x1="529.19" y1="678.01" x2="559.00" y2="678.01" /><line x1="257.06" y1="681.25" x2="290.99" y2="681.25" /><line x1="300.99" y1="681.25" x2="343.83" y2="681.25" /><line x1="353.83" y1="681.25" x2="410.35" y2="681.25" /><line x1="420.35" y1="681.25" x2="460.46" y2="681.25" /><line x1="470.46" y1="681.25" x2="516.03" y2="681.25" /><line x1="526.03" y1="681.25" x2="559.00" y2="681.25" /><line x1="257.36" y1="684.53" x2="291.40" y2="684.53" /><line x1="301.40" y1="684.53" x2="344.09" y2="684.53" /><line x1="354.09" y1="684.53" x2="409.19" y2="684.53" /><line x1="419.19" y1="684.53" x2="463.41" y2="684.53" /><line x1="473.41" y1="684.53" x2="512.56" y2="684.53" /><line x1="522.56" y1="684.53" x2="559.00" y2="684.53" /><line x1="257.35" y1="687.86" x2="291.70" y2="687.86" /><line x1="301.70" y1="687.86" x2="344.80" y2="687.86" /><line x1="354.80" y1="687.86" x2="408.20" y2="687.86" /><line x1="418.20" y1="687.86" x2="466.37" y2="687.86" /><line x1="476.37" y1="687.86" x2="508.79" y2="687.86" /><line x1="518.79" y1="687.86" x2="559.00" y2="687.86" /><line x1="257.26" y1="691.23" x2="291.82" y2="691.23" /><line x1="301.82" y1="691.23" x2="343.99" y2="691.23" /><line x1="353.99" y1="691.23" x2="407.45" y2="691.23" /><line x1="417.45" y1="691.23" x2="470.64" y2="691.23" /><line x1="480.64" y1="691.23" x2="505.25" y2="691.23" /><line x1="515.25" y1="691.23" x2="559.00" y2="691.23" /><line x1="257.59" y1="694.66" x2="291.87" y2="694.66" /><line x1="301.87" y1="694.66" x2="343.40" y2="694.66" /><line x1="353.40" y1="694.66" x2="406.98" y2="694.66" /><line x1="416.98" y1="694.66" x2="474.22" y2="694.66" /><line x1="511.36" y1="694.66" x2="558.94" y2="694.66" /><line x1="257.62" y1="698.13" x2="291.51" y2="698.13" /><line x1="301.51" y1="698.13" x2="343.10" y2="698.13" /><line x1="353.10" y1="698.13" x2="406.51" y2="698.13" /><line x1="416.51" y1="698.13" x2="471.99" y2="698.13" /><line x1="481.99" y1="698.13" x2="501.64" y2="698.13" /><line x1="511.64" y1="698.13" x2="558.83" y2="698.13" /><line x1="257.47" y1="701.66" x2="291.04" y2="701.66" /><line x1="301.04" y1="701.66" x2="342.78" y2="701.66" /><line x1="352.78" y1="701.66" x2="406.05" y2="701.66" /><line x1="416.05" y1="701.66" x2="469.48" y2="701.66" /><line x1="479.48" y1="701.66" x2="502.49" y2="701.66" /><line x1="512.49" y1="701.66" x2="558.93" y2="701.66" /><line x1="257.43" y1="705.24" x2="291.12" y2="705.24" /><line x1="301.12" y1="705.24" x2="342.43" y2="705.24" /><line x1="352.43" y1="705.24" x2="405.54" y2="705.24" /><line x1="415.54" y1="705.24" x2="466.96" y2="705.24" /><line x1="476.96" y1="705.24" x2="503.38" y2="705.24" /><line x1="513.38" y1="705.24" x2="559.00" y2="705.24" /><line x1="257.31" y1="708.88" x2="291.52" y2="708.88" /><line x1="301.52" y1="708.88" x2="342.03" y2="708.88" /><line x1="352.03" y1="708.88" x2="405.00" y2="708.88" /><line x1="415.00" y1="708.88" x2="464.32" y2="708.88" /><line x1="474.32" y1="708.88" x2="503.38" y2="708.88" /><line x1="513.38" y1="708.88" x2="558.98" y2="708.88" /><line x1="257.32" y1="712.57" x2="292.08" y2="712.57" /><line x1="302.08" y1="712.57" x2="341.45" y2="712.57" /><line x1="351.45" y1="712.57" x2="404.51" y2="712.57" /><line x1="414.51" y1="712.57" x2="461.53" y2="712.57" /><line x1="471.53" y1="712.57" x2="504.17" y2="712.57" /><line x1="514.17" y1="712.57" x2="558.99" y2="712.57" /><line x1="257.70" y1="716.32" x2="291.59" y2="716.32" /><line x1="301.59" y1="716.32" x2="340.92" y2="716.32" /><line x1="350.92" y1="716.32" x2="404.17" y2="716.32" /><line x1="414.17" y1="716.32" x2="459.30" y2="716.32" /><line x1="469.30" y1="716.32" x2="504.45" y2="716.32" /><line x1="514.45" y1="716.32" x2="550.20" y2="716.32" /><line x1="257.60" y1="720.14" x2="292.26" y2="720.14" /><line x1="302.26" y1="720.14" x2="341.63" y2="720.14" /><line x1="351.63" y1="720.14" x2="403.82" y2="720.14" /><line x1="413.82" y1="720.14" x2="457.17" y2="720.14" /><line x1="467.17" y1="720.14" x2="504.09" y2="720.14" /><line x1="514.09" y1="720.14" x2="533.56" y2="720.14" /><line x1="543.56" y1="720.14" x2="558.65" y2="720.14" /><line x1="257.34" y1="724.02" x2="292.57" y2="724.02" /><line x1="302.57" y1="724.02" x2="341.09" y2="724.02" /><line x1="351.09" y1="724.02" x2="403.07" y2="724.02" /><line x1="413.07" y1="724.02" x2="454.63" y2="724.02" /><line x1="464.63" y1="724.02" x2="505.15" y2="724.02" /><line x1="517.83" y1="724.02" x2="558.47" y2="724.02" /></g></svg>