<?xml version='1.0' encoding='utf-8'?>
<svg xmlns="http://www.w3.org/2000/svg" xmlns:inkscape="http://www.inkscape.org/namespaces/inkscape" viewBox="204 228 408 600"><style>*{vector-effect:non-scaling-stroke}</style><g id="01_Black_Frame" inkscape:groupmode="layer" inkscape:label="01_Black_Frame" stroke="#1A1A1A" fill="none" stroke-width="0.875" stroke-linecap="round" stroke-linejoin="round"><path d="M 250.0,264.0 L 566.0,264.0 Q 576.0,264.0 576.0,274.0 L 576.0,782.0 Q 576.0,792.0 566.0,792.0 L 250.0,792.0 Q 240.0,792.0 240.0,782.0 L 240.0,274.0 Q 240.0,264.0 250.0,264.0" /><path d="M 253.0,270.0 L 563.0,270.0 Q 570.0,270.0 570.0,277.0 L 570.0,779.0 Q 570.0,786.0 563.0,786.0 L 253.0,786.0 Q 246.0,786.0 246.0,779.0 L 246.0,277.0 Q 246.0,270.0 253.0,270.0" /><line x1="259.0" y1="280.0" x2="263.0" y2="280.0" /><line x1="258.1" y1="282.1" x2="260.9" y2="284.9" /><line x1="256.0" y1="283.0" x2="256.0" y2="287.0" /><line x1="253.9" y1="282.1" x2="251.1" y2="284.9" /><line x1="253.0" y1="280.0" x2="249.0" y2="280.0" /><line x1="253.9" y1="277.9" x2="251.1" y2="275.1" /><line x1="256.0" y1="277.0" x2="256.0" y2="273.0" /><line x1="258.1" y1="277.9" x2="260.9" y2="275.1" /><line x1="563.0" y1="280.0" x2="567.0" y2="280.0" /><line x1="562.1" y1="282.1" x2="564.9" y2="284.9" /><line x1="560.0" y1="283.0" x2="560.0" y2="287.0" /><line x1="557.9" y1="282.1" x2="555.1" y2="284.9" /><line x1="557.0" y1="280.0" x2="553.0" y2="280.0" /><line x1="557.9" y1="277.9" x2="555.1" y2="275.1" /><line x1="560.0" y1="277.0" x2="560.0" y2="273.0" /><line x1="562.1" y1="277.9" x2="564.9" y2="275.1" /><line x1="259.0" y1="776.0" x2="263.0" y2="776.0" /><line x1="258.1" y1="778.1" x2="260.9" y2="780.9" /><line x1="256.0" y1="779.0" x2="256.0" y2="783.0" /><line x1="253.9" y1="778.1" x2="251.1" y2="780.9" /><line x1="253.0" y1="776.0" x2="249.0" y2="776.0" /><line x1="253.9" y1="773.9" x2="251.1" y2="771.1" /><line x1="256.0" y1="773.0" x2="256.0" y2="769.0" /><line x1="258.1" y1="773.9" x2="260.9" y2="771.1" /><line x1="563.0" y1="776.0" x2="567.0" y2="776.0" /><line x1="562.1" y1="778.1" x2="564.9" y2="780.9" /><line x1="560.0" y1="779.0" x2="560.0" y2="783.0" /><line x1="557.9" y1="778.1" x2="555.1" y2="780.9" /><line x1="557.0" y1="776.0" x2="553.0" y2="776.0" /><line x1="557.9" y1="773.9" x2="555.1" y2="771.1" /><line x1="560.0" y1="773.0" x2="560.0" y2="769.0" /><line x1="562.1" y1="773.9" x2="564.9" y2="771.1" /><polyline points="398.12,283.20 396.38,282.00 395.38,282.00 393.62,283.60 393.62,288.40 395.38,290.00 396.38,290.00 398.12,288.80" /><polyline points="399.38,282.00 399.38,290.00 403.62,290.00" /><polyline points="405.12,282.00 410.12,290.00" /><polyline points="410.12,282.00 405.12,290.00" /><polyline points="413.38,282.00 413.38,290.00" /><polyline points="419.12,282.00 419.12,290.00" /><polyline points="363.15,297.00 369.65,297.00" /><polyline points="366.40,297.00 366.40,307.00" /><polyline points="370.62,297.00 370.62,307.00" /><polyline points="377.12,297.00 377.12,307.00" /><polyline points="370.62,301.80 377.12,301.80" /><polyline points="383.62,297.00 378.10,297.00 378.10,301.80 382.00,301.80" /><polyline points="378.10,301.80 378.10,307.00 383.62,307.00" /><polyline points="393.05,307.00 393.05,297.00 397.27,297.00 398.90,298.50 398.90,300.20 397.27,301.50 393.05,301.50 398.90,307.00" /><polyline points="406.05,297.00 400.52,297.00 400.52,301.80 404.42,301.80" /><polyline points="400.52,301.80 400.52,307.00 406.05,307.00" /><polyline points="408.00,307.00 408.00,297.00 412.23,297.00 413.85,298.50 413.85,300.20 412.23,301.50 408.00,301.50" /><polyline points="415.47,307.00 415.47,297.00 419.70,297.00 421.32,298.50 421.32,300.20 419.70,301.50 415.47,301.50 421.32,307.00" /><polyline points="426.20,297.00 426.20,307.00" /><polyline points="435.95,297.00 430.42,297.00 430.42,301.80 434.32,301.80" /><polyline points="430.42,301.80 430.42,307.00 435.95,307.00" /><polyline points="437.90,297.00 441.15,307.00 444.40,297.00" /><polyline points="450.90,297.00 445.38,297.00 445.38,301.80 449.27,301.80" /><polyline points="445.38,301.80 445.38,307.00 450.90,307.00" /><line x1="270.0" y1="312.0" x2="546.0" y2="312.0" /><line x1="270.0" y1="732.0" x2="546.0" y2="732.0" /><polyline points="367.54,740.75 367.54,745.25" /><polyline points="369.36,745.25 369.36,740.75 371.18,740.75 371.88,741.42 371.88,742.19 371.18,742.77 369.36,742.77 371.88,745.25" /><polyline points="372.58,745.25 373.98,740.75 375.38,745.25" /><polyline points="373.08,743.67 374.88,743.67" /><polyline points="375.80,745.25 375.80,740.75 378.60,745.25 378.60,740.75" /><polyline points="385.46,740.75 385.46,745.25" /><polyline points="387.98,740.75 385.46,743.00 387.98,745.25" /><polyline points="388.68,745.25 388.68,740.75 391.48,745.25 391.48,740.75" /><polyline points="393.30,740.75 393.30,745.25" /><polyline points="397.64,741.42 396.66,740.75 396.10,740.75 395.12,741.65 395.12,744.35 396.10,745.25 396.66,745.25 397.64,744.58" /><polyline points="398.34,740.75 398.34,745.25" /><polyline points="400.86,740.75 398.34,743.00 400.86,745.25" /><polyline points="403.94,741.20 403.24,740.75 402.40,740.75 401.70,741.42 401.56,742.10 401.98,742.64 402.96,743.00 403.94,743.36 404.36,743.90 404.22,744.58 403.52,745.25 402.54,745.25 401.84,744.80" /><polyline points="412.62,740.75 412.62,745.25" /><polyline points="414.44,745.25 414.44,740.75 416.26,740.75 416.96,741.42 416.96,742.19 416.26,742.77 414.44,742.77" /><polyline points="419.06,740.75 417.94,741.20 417.66,742.10 417.66,743.90 417.94,744.80 419.06,745.25 420.18,744.80 420.46,743.90 420.46,742.10 420.18,741.20 419.06,740.75" /><polyline points="427.32,745.25 427.32,740.75 428.72,743.23 430.12,740.75 430.12,745.25" /><polyline points="432.92,740.75 430.54,740.75 430.54,742.91 432.22,742.91" /><polyline points="430.54,742.91 430.54,745.25 432.92,745.25" /><polyline points="433.76,745.25 435.16,740.75 436.56,745.25" /><polyline points="434.26,743.67 436.06,743.67" /><polyline points="439.36,741.20 438.66,740.75 437.82,740.75 437.12,741.42 436.98,742.10 437.40,742.64 438.38,743.00 439.36,743.36 439.78,743.90 439.64,744.58 438.94,745.25 437.96,745.25 437.26,744.80" /><polyline points="440.20,740.75 440.20,745.25 442.58,745.25" /><polyline points="445.80,740.75 443.42,740.75 443.42,742.91 445.10,742.91" /><polyline points="443.42,742.91 443.42,745.25 445.80,745.25" /><polyline points="449.02,741.20 448.32,740.75 447.48,740.75 446.78,741.42 446.64,742.10 447.06,742.64 448.04,743.00 449.02,743.36 449.44,743.90 449.30,744.58 448.60,745.25 447.62,745.25 446.92,744.80" /><polyline points="336.12,753.25 341.12,753.25" /><polyline points="338.62,753.25 338.62,760.75" /><polyline points="341.88,753.25 341.88,760.75" /><polyline points="346.88,753.25 346.88,760.75" /><polyline points="341.88,756.85 346.88,756.85" /><polyline points="351.88,753.25 347.62,753.25 347.62,756.85 350.62,756.85" /><polyline points="347.62,756.85 347.62,760.75 351.88,760.75" /><polyline points="359.12,760.75 359.12,753.25 362.38,753.25 363.62,754.38 363.62,755.65 362.38,756.62 359.12,756.62" /><polyline points="364.88,760.75 364.88,753.25 368.12,753.25 369.38,754.38 369.38,755.65 368.12,756.62 364.88,756.62 369.38,760.75" /><polyline points="374.88,753.25 370.62,753.25 370.62,756.85 373.62,756.85" /><polyline points="370.62,756.85 370.62,760.75 374.88,760.75" /><polyline points="380.62,754.00 379.38,753.25 377.88,753.25 376.62,754.38 376.38,755.50 377.12,756.40 378.88,757.00 380.62,757.60 381.38,758.50 381.12,759.62 379.88,760.75 378.12,760.75 376.88,760.00" /><polyline points="386.38,754.00 385.12,753.25 383.62,753.25 382.38,754.38 382.12,755.50 382.88,756.40 384.62,757.00 386.38,757.60 387.12,758.50 386.88,759.62 385.62,760.75 383.88,760.75 382.62,760.00" /><polyline points="387.88,753.25 387.88,758.88 388.88,760.38 391.88,760.38 392.88,758.88 392.88,753.25" /><polyline points="393.62,760.75 393.62,753.25 396.88,753.25 398.12,754.38 398.12,755.65 396.88,756.62 393.62,756.62 398.12,760.75" /><polyline points="403.62,753.25 399.38,753.25 399.38,756.85 402.38,756.85" /><polyline points="399.38,756.85 399.38,760.75 403.62,760.75" /><polyline points="410.88,760.75 410.88,753.25 413.62,753.25 415.38,755.12 415.38,758.88 413.62,760.75 410.88,760.75" /><polyline points="419.12,753.25 419.12,760.75" /><polyline points="422.38,760.75 422.38,753.25 425.12,753.25 426.88,755.12 426.88,758.88 425.12,760.75 422.38,760.75" /><polyline points="433.88,760.75 433.88,753.25 438.88,760.75 438.88,753.25" /><polyline points="442.12,753.25 440.12,754.00 439.62,755.50 439.62,758.50 440.12,760.00 442.12,760.75 444.12,760.00 444.62,758.50 444.62,755.50 444.12,754.00 442.12,753.25" /><polyline points="445.38,753.25 450.38,753.25" /><polyline points="447.88,753.25 447.88,760.75" /><polyline points="456.88,753.25 456.88,760.75 461.12,760.75" /><polyline points="465.12,753.25 465.12,760.75" /><polyline points="472.62,753.25 468.38,753.25 468.38,756.85 471.38,756.85" /><polyline points="468.38,756.85 468.38,760.75" /><polyline points="474.12,753.25 479.12,753.25" /><polyline points="476.62,753.25 476.62,760.75" /><polyline points="350.12,766.25 350.12,773.75" /><polyline points="353.38,766.25 358.38,766.25" /><polyline points="355.88,766.25 355.88,773.75" /><polyline points="367.38,766.25 365.38,767.00 364.88,768.50 364.88,771.50 365.38,773.00 367.38,773.75 369.38,773.00 369.88,771.50 369.88,768.50 369.38,767.00 367.38,766.25" /><polyline points="370.62,773.75 370.62,766.25 375.62,773.75 375.62,766.25" /><polyline points="376.38,766.25 376.38,773.75 380.62,773.75" /><polyline points="382.12,766.25 384.62,770.00 387.12,766.25" /><polyline points="384.62,770.00 384.62,773.75" /><polyline points="397.88,767.00 396.62,766.25 395.12,766.25 393.88,767.38 393.62,768.50 394.38,769.40 396.12,770.00 397.88,770.60 398.62,771.50 398.38,772.62 397.12,773.75 395.38,773.75 394.12,773.00" /><polyline points="399.38,766.25 404.38,766.25" /><polyline points="401.88,766.25 401.88,773.75" /><polyline points="409.38,766.25 405.12,766.25 405.12,769.85 408.12,769.85" /><polyline points="405.12,769.85 405.12,773.75 409.38,773.75" /><polyline points="410.88,773.75 410.88,766.25 414.12,766.25 415.38,767.38 415.38,768.65 414.12,769.62 410.88,769.62" /><polyline points="416.62,773.75 416.62,766.25 419.88,766.25 421.12,767.38 421.12,768.65 419.88,769.62 416.62,769.62" /><polyline points="426.62,766.25 422.38,766.25 422.38,769.85 425.38,769.85" /><polyline points="422.38,769.85 422.38,773.75 426.62,773.75" /><polyline points="428.12,773.75 428.12,766.25 430.88,766.25 432.62,768.12 432.62,771.88 430.88,773.75 428.12,773.75" /><polyline points="439.62,773.75 442.12,766.25 444.62,773.75" /><polyline points="440.52,771.12 443.73,771.12" /><polyline points="449.62,767.00 448.38,766.25 446.88,766.25 445.62,767.38 445.38,768.50 446.12,769.40 447.88,770.00 449.62,770.60 450.38,771.50 450.12,772.62 448.88,773.75 447.12,773.75 445.88,773.00" /><polyline points="453.62,766.25 453.62,773.75" /><polyline points="456.88,773.75 456.88,766.25 459.62,766.25 461.38,768.12 461.38,771.88 459.62,773.75 456.88,773.75" /><polyline points="466.88,766.25 462.62,766.25 462.62,769.85 465.62,769.85" /><polyline points="462.62,769.85 462.62,773.75 466.88,773.75" /><polyline points="385.92,779.50 387.52,784.50 389.12,779.50" /><polyline points="391.20,779.50 391.20,784.50" /><polyline points="394.88,784.00 394.88,784.25" /><polyline points="396.96,779.50 400.16,784.50" /><polyline points="400.16,779.50 396.96,784.50" /><polyline points="402.24,779.50 402.24,784.50" /><polyline points="405.92,784.00 405.92,784.25" /><polyline points="408.00,784.50 408.00,779.50 409.60,782.25 411.20,779.50 411.20,784.50" /><polyline points="411.68,784.50 411.68,779.50 413.28,782.25 414.88,779.50 414.88,784.50" /><polyline points="415.36,779.50 418.56,784.50" /><polyline points="418.56,779.50 415.36,784.50" /><polyline points="419.04,779.50 422.24,784.50" /><polyline points="422.24,779.50 419.04,784.50" /><polyline points="422.72,779.50 424.32,784.50 425.92,779.50" /><polyline points="428.00,779.50 428.00,784.50" /></g><g id="02_Teal_Image" inkscape:groupmode="layer" inkscape:label="02_Teal_Image" stroke="#3A7A7A" fill="none" stroke-width="0.75" stroke-linecap="round" stroke-linejoin="round"><line x1="559.54" y1="523.16" x2="479.62" y2="523.07" /><line x1="534.07" y1="527.97" x2="463.07" y2="525.17" /><line x1="540.14" y1="530.43" x2="477.36" y2="526.90" /><line x1="527.01" y1="534.60" x2="484.40" y2="530.45" /><line x1="530.39" y1="535.96" x2="463.50" y2="528.88" /><line x1="520.45" y1="539.49" x2="482.06" y2="533.86" /><line x1="534.47" y1="544.51" x2="480.03" y2="535.25" /><line x1="521.43" y1="546.77" x2="481.03" y2="538.31" /><line x1="548.05" y1="557.20" x2="481.18" y2="540.87" /><line x1="531.43" y1="553.95" x2="480.14" y2="541.09" /><line x1="535.27" y1="558.97" x2="475.94" y2="542.20" /><line x1="541.72" y1="567.63" x2="465.57" y2="542.22" /><line x1="557.63" y1="575.61" x2="478.18" y2="547.68" /><line x1="530.89" y1="570.53" x2="472.53" y2="547.96" /><line x1="557.09" y1="584.72" x2="459.77" y2="544.43" /><line x1="559.33" y1="593.85" x2="461.09" y2="547.86" /><line x1="522.74" y1="579.96" x2="475.06" y2="556.29" /><line x1="536.51" y1="590.97" x2="474.69" y2="558.27" /><line x1="555.02" y1="606.39" x2="464.44" y2="555.02" /><line x1="540.42" y1="603.88" x2="455.82" y2="552.21" /><line x1="531.69" y1="600.77" x2="466.72" y2="559.92" /><line x1="556.26" y1="626.28" x2="460.24" y2="559.39" /><line x1="555.69" y1="629.15" x2="466.35" y2="564.94" /><line x1="535.36" y1="621.67" x2="457.80" y2="561.58" /><line x1="559.18" y1="649.66" x2="459.83" y2="566.43" /><line x1="525.85" y1="625.57" x2="450.82" y2="560.26" /><line x1="553.63" y1="654.38" x2="450.96" y2="561.76" /><line x1="548.21" y1="661.26" x2="455.97" y2="570.31" /><line x1="525.11" y1="640.67" x2="450.00" y2="565.20" /><line x1="542.13" y1="670.63" x2="449.58" y2="568.76" /><line x1="537.31" y1="669.11" x2="453.78" y2="574.73" /><line x1="551.73" y1="700.23" x2="450.04" y2="574.84" /><line x1="542.03" y1="694.54" x2="448.95" y2="575.42" /><line x1="520.53" y1="680.72" x2="439.42" y2="567.04" /><line x1="525.19" y1="696.69" x2="441.05" y2="571.98" /><line x1="513.89" y1="684.98" x2="445.36" y2="580.16" /><line x1="525.20" y1="712.88" x2="445.11" y2="583.12" /><line x1="492.20" y1="672.43" x2="445.19" y2="589.01" /><line x1="513.22" y1="721.68" x2="444.51" y2="591.94" /><line x1="505.53" y1="719.05" x2="435.77" y2="578.83" /><line x1="476.42" y1="673.12" x2="434.98" y2="582.21" /><line x1="474.89" y1="686.52" x2="434.95" y2="588.89" /><line x1="480.86" y1="709.07" x2="432.06" y2="584.44" /><line x1="472.99" y1="706.07" x2="431.04" y2="587.90" /><line x1="464.67" y1="703.40" x2="430.94" y2="596.03" /><line x1="466.43" y1="716.09" x2="424.57" y2="577.75" /><line x1="450.49" y1="685.32" x2="422.70" y2="579.17" /><line x1="448.10" y1="692.75" x2="425.95" y2="598.99" /><line x1="445.06" y1="711.76" x2="419.37" y2="580.93" /><line x1="441.89" y1="717.39" x2="419.51" y2="589.00" /><line x1="433.15" y1="710.39" x2="418.10" y2="598.26" /><line x1="428.78" y1="718.16" x2="415.04" y2="589.09" /><line x1="422.69" y1="712.26" x2="413.12" y2="588.94" /><line x1="417.58" y1="703.59" x2="411.52" y2="589.32" /><line x1="413.23" y1="680.52" x2="410.39" y2="595.00" /><line x1="407.38" y1="694.26" x2="407.78" y2="585.32" /><line x1="401.02" y1="713.02" x2="405.77" y2="583.67" /><line x1="399.73" y1="686.25" x2="404.05" y2="601.02" /><line x1="391.97" y1="702.86" x2="403.11" y2="577.89" /><line x1="391.71" y1="674.39" x2="401.27" y2="585.56" /><line x1="382.25" y1="703.49" x2="397.29" y2="598.08" /><line x1="380.40" y1="687.11" x2="395.10" y2="599.69" /><line x1="372.05" y1="690.40" x2="394.35" y2="586.54" /><line x1="367.99" y1="689.01" x2="389.89" y2="598.15" /><line x1="367.40" y1="670.58" x2="389.33" y2="590.88" /><line x1="358.02" y1="689.09" x2="388.33" y2="588.38" /><line x1="344.63" y1="721.18" x2="385.67" y2="592.83" /><line x1="337.73" y1="716.95" x2="386.84" y2="581.41" /><line x1="333.33" y1="719.71" x2="380.63" y2="595.11" /><line x1="331.90" y1="697.90" x2="378.52" y2="590.75" /><line x1="337.44" y1="681.56" x2="375.20" y2="596.70" /><line x1="325.80" y1="689.91" x2="377.31" y2="585.33" /><line x1="313.97" y1="701.66" x2="372.23" y2="590.96" /><line x1="323.40" y1="676.96" x2="369.83" y2="592.46" /><line x1="301.16" y1="702.12" x2="372.24" y2="582.96" /><line x1="299.83" y1="691.26" x2="367.09" y2="586.63" /><line x1="275.32" y1="714.87" x2="372.05" y2="574.98" /><line x1="271.67" y1="714.33" x2="374.57" y2="569.92" /><line x1="289.09" y1="674.45" x2="371.84" y2="569.06" /><line x1="284.97" y1="676.64" x2="364.99" y2="576.71" /><line x1="256.38" y1="697.36" x2="358.77" y2="579.61" /><line x1="261.82" y1="685.58" x2="353.91" y2="583.15" /><line x1="284.06" y1="648.15" x2="354.00" y2="577.53" /><line x1="287.18" y1="638.54" x2="351.01" y2="577.50" /><line x1="271.70" y1="650.84" x2="361.66" y2="566.47" /><line x1="260.19" y1="649.67" x2="358.08" y2="565.78" /><line x1="265.47" y1="640.64" x2="347.50" y2="572.94" /><line x1="270.84" y1="627.72" x2="354.65" y2="563.73" /><line x1="255.48" y1="635.71" x2="350.02" y2="565.84" /><line x1="273.35" y1="613.92" x2="346.96" y2="564.21" /><line x1="286.43" y1="602.35" x2="340.40" y2="567.12" /><line x1="267.50" y1="607.41" x2="359.64" y2="552.05" /><line x1="277.88" y1="596.58" x2="349.35" y2="556.16" /><line x1="293.65" y1="582.60" x2="345.35" y2="555.65" /><line x1="264.95" y1="592.07" x2="340.48" y2="555.60" /><line x1="274.31" y1="583.20" x2="355.02" y2="546.86" /><line x1="291.72" y1="571.43" x2="358.02" y2="543.82" /><line x1="283.60" y1="572.91" x2="336.90" y2="551.52" /><line x1="271.32" y1="572.15" x2="352.18" y2="543.07" /><line x1="288.41" y1="563.05" x2="343.83" y2="544.49" /><line x1="283.01" y1="560.51" x2="348.33" y2="540.91" /><line x1="266.82" y1="561.70" x2="337.34" y2="542.37" /><line x1="284.35" y1="552.56" x2="349.88" y2="536.89" /><line x1="262.07" y1="551.31" x2="346.87" y2="534.86" /><line x1="269.95" y1="545.51" x2="333.78" y2="535.10" /><line x1="275.69" y1="541.87" x2="345.16" y2="531.96" /><line x1="284.11" y1="537.27" x2="352.28" y2="529.42" /><line x1="278.60" y1="535.53" x2="345.48" y2="529.05" /><line x1="274.45" y1="530.93" x2="352.88" y2="526.27" /><line x1="268.06" y1="527.03" x2="348.41" y2="524.72" /><line x1="292.93" y1="521.68" x2="333.39" y2="522.15" /><line x1="294.54" y1="518.63" x2="332.33" y2="520.09" /><line x1="263.72" y1="516.48" x2="328.21" y2="519.39" /><line x1="277.57" y1="512.08" x2="340.76" y2="517.37" /><line x1="259.37" y1="505.82" x2="338.13" y2="514.92" /><line x1="279.95" y1="503.70" x2="352.40" y2="514.62" /><line x1="275.90" y1="499.48" x2="338.37" y2="510.60" /><line x1="257.11" y1="493.58" x2="341.43" y2="510.02" /><line x1="267.66" y1="490.72" x2="354.50" y2="510.69" /><line x1="290.56" y1="493.41" x2="352.73" y2="509.08" /><line x1="269.42" y1="482.46" x2="346.31" y2="504.96" /><line x1="283.38" y1="482.23" x2="347.95" y2="503.35" /><line x1="277.80" y1="476.37" x2="356.02" y2="504.38" /><line x1="292.08" y1="476.88" x2="344.91" y2="497.90" /><line x1="287.70" y1="470.69" x2="357.64" y2="501.10" /><line x1="283.00" y1="465.55" x2="354.00" y2="498.18" /><line x1="272.56" y1="457.40" x2="340.01" y2="490.07" /><line x1="256.52" y1="440.98" x2="343.87" y2="488.27" /><line x1="262.85" y1="439.67" x2="352.60" y2="491.20" /><line x1="286.73" y1="448.39" x2="355.56" y2="490.74" /><line x1="278.30" y1="439.40" x2="352.70" y2="487.36" /><line x1="294.47" y1="443.61" x2="344.66" y2="478.71" /><line x1="277.71" y1="428.45" x2="354.90" y2="484.47" /><line x1="285.53" y1="430.85" x2="344.56" y2="475.27" /><line x1="282.78" y1="418.80" x2="346.89" y2="472.15" /><line x1="279.48" y1="410.54" x2="361.29" y2="482.13" /><line x1="259.17" y1="383.42" x2="368.60" y2="486.05" /><line x1="277.12" y1="394.36" x2="353.02" y2="468.96" /><line x1="282.76" y1="395.58" x2="361.69" y2="475.88" /><line x1="272.45" y1="375.26" x2="369.52" y2="481.06" /><line x1="285.87" y1="380.31" x2="363.65" y2="471.19" /><line x1="275.84" y1="357.79" x2="368.42" y2="473.52" /><line x1="275.90" y1="352.49" x2="358.58" y2="459.22" /><line x1="263.55" y1="324.11" x2="369.89" y2="470.52" /><line x1="300.82" y1="366.06" x2="368.99" y2="465.89" /><line x1="305.45" y1="364.13" x2="365.74" y2="457.53" /><line x1="291.33" y1="325.32" x2="372.20" y2="462.35" /><line x1="303.77" y1="339.30" x2="369.60" y2="455.32" /><line x1="304.29" y1="327.23" x2="373.09" y2="457.10" /><line x1="321.80" y1="343.49" x2="373.48" y2="451.11" /><line x1="317.05" y1="328.22" x2="379.02" y2="460.94" /><line x1="340.12" y1="358.54" x2="382.80" y2="461.95" /><line x1="329.43" y1="325.61" x2="385.89" y2="467.45" /><line x1="339.90" y1="335.46" x2="386.82" y2="464.68" /><line x1="352.70" y1="348.14" x2="390.77" y2="468.53" /><line x1="358.22" y1="359.61" x2="391.44" y2="468.65" /><line x1="368.95" y1="369.86" x2="389.70" y2="451.25" /><line x1="365.10" y1="329.30" x2="393.10" y2="455.73" /><line x1="372.60" y1="346.44" x2="392.17" y2="444.06" /><line x1="373.41" y1="332.68" x2="398.01" y2="468.00" /><line x1="380.52" y1="344.03" x2="398.29" y2="459.75" /><line x1="390.20" y1="351.41" x2="401.49" y2="460.25" /><line x1="390.10" y1="326.96" x2="400.93" y2="445.53" /><line x1="400.12" y1="353.18" x2="404.70" y2="451.89" /><line x1="403.77" y1="360.20" x2="406.10" y2="449.74" /><line x1="406.71" y1="361.73" x2="407.44" y2="452.96" /><line x1="410.66" y1="370.69" x2="409.19" y2="454.59" /><line x1="421.38" y1="326.51" x2="412.54" y2="456.34" /><line x1="423.86" y1="337.67" x2="413.41" y2="459.73" /><line x1="428.56" y1="341.07" x2="415.79" y2="454.10" /><line x1="429.42" y1="371.56" x2="416.45" y2="463.24" /><line x1="436.65" y1="354.24" x2="420.89" y2="447.09" /><line x1="442.07" y1="352.96" x2="423.97" y2="443.30" /><line x1="449.37" y1="336.58" x2="420.86" y2="465.07" /><line x1="455.52" y1="338.65" x2="426.45" y2="451.42" /><line x1="460.87" y1="345.21" x2="429.36" y2="451.19" /><line x1="465.61" y1="347.25" x2="425.03" y2="471.05" /><line x1="480.41" y1="327.44" x2="430.70" y2="461.71" /><line x1="464.55" y1="373.19" x2="431.74" y2="460.10" /><line x1="474.34" y1="365.22" x2="429.47" y2="471.94" /><line x1="494.85" y1="332.38" x2="430.57" y2="473.47" /><line x1="496.94" y1="341.35" x2="432.35" y2="473.27" /><line x1="493.79" y1="362.25" x2="446.34" y2="451.16" /><line x1="512.52" y1="337.78" x2="438.65" y2="468.69" /><line x1="507.17" y1="356.79" x2="449.10" y2="454.12" /><line x1="523.57" y1="343.10" x2="444.89" y2="465.58" /><line x1="544.45" y1="327.96" x2="452.08" y2="459.99" /><line x1="516.72" y1="373.92" x2="446.89" y2="469.68" /><line x1="520.79" y1="376.22" x2="446.28" y2="473.18" /><line x1="551.30" y1="347.54" x2="444.89" y2="477.84" /><line x1="522.27" y1="389.89" x2="455.89" y2="467.22" /><line x1="531.35" y1="385.81" x2="456.72" y2="468.81" /><line x1="527.88" y1="398.07" x2="447.44" y2="481.90" /><line x1="558.53" y1="375.04" x2="451.84" y2="479.90" /><line x1="535.05" y1="406.73" x2="461.97" y2="473.61" /><line x1="539.64" y1="406.91" x2="458.22" y2="478.71" /><line x1="559.54" y1="400.48" x2="468.42" y2="474.15" /><line x1="548.02" y1="416.05" x2="457.66" y2="485.07" /><line x1="542.93" y1="426.17" x2="460.51" y2="485.31" /><line x1="544.28" y1="429.60" x2="471.27" y2="479.64" /><line x1="558.92" y1="425.24" x2="458.65" y2="490.19" /><line x1="549.92" y1="439.60" x2="467.37" y2="488.11" /><line x1="541.92" y1="449.13" x2="456.87" y2="496.04" /><line x1="541.35" y1="452.38" x2="463.10" y2="493.82" /><line x1="551.90" y1="453.61" x2="464.71" y2="495.66" /><line x1="540.76" y1="463.63" x2="474.76" y2="493.14" /><line x1="540.17" y1="467.09" x2="466.24" y2="498.36" /><line x1="522.80" y1="477.44" x2="478.53" y2="495.01" /><line x1="524.98" y1="481.62" x2="479.02" y2="497.88" /><line x1="559.51" y1="472.21" x2="467.33" y2="503.11" /><line x1="524.84" y1="488.20" x2="466.30" y2="505.64" /><line x1="534.63" y1="488.49" x2="477.53" y2="504.05" /><line x1="554.70" y1="488.51" x2="470.40" y2="508.33" /><line x1="556.56" y1="493.96" x2="477.22" y2="509.47" /><line x1="538.85" y1="500.80" x2="479.37" y2="510.89" /><line x1="521.66" y1="506.75" x2="475.50" y2="513.35" /><line x1="560.38" y1="505.94" x2="483.85" y2="514.51" /><line x1="541.14" y1="511.52" x2="487.72" y2="516.12" /><line x1="555.81" y1="514.68" x2="475.20" y2="519.22" /><line x1="535.56" y1="518.74" x2="487.35" y2="520.35" /><line x1="556.20" y1="517.07" x2="464.95" y2="520.72" /><line x1="556.20" y1="520.04" x2="464.99" y2="521.86" /><line x1="556.20" y1="523.00" x2="465.00" y2="523.00" /><line x1="556.20" y1="525.96" x2="464.99" y2="524.14" /><line x1="556.20" y1="528.93" x2="464.95" y2="525.28" /><line x1="415.76" y1="716.80" x2="410.28" y2="579.95" /><line x1="411.88" y1="716.80" x2="409.14" y2="579.99" /><line x1="408.00" y1="716.80" x2="408.00" y2="580.00" /><line x1="404.12" y1="716.80" x2="406.86" y2="579.99" /><line x1="400.24" y1="716.80" x2="405.72" y2="579.95" /><line x1="259.80" y1="528.93" x2="351.05" y2="525.28" /><line x1="259.80" y1="525.96" x2="351.01" y2="524.14" /><line x1="259.80" y1="523.00" x2="351.00" y2="523.00" /><line x1="259.80" y1="520.04" x2="351.01" y2="521.86" /><line x1="259.80" y1="517.07" x2="351.05" y2="520.72" /><line x1="400.24" y1="329.20" x2="405.72" y2="466.05" /><line x1="404.12" y1="329.20" x2="406.86" y2="466.01" /><line x1="408.00" y1="329.20" x2="408.00" y2="466.00" /><line x1="411.88" y1="329.20" x2="409.14" y2="466.01" /><line x1="415.76" y1="329.20" x2="410.28" y2="466.05" /></g><g id="03_Gold_Accent" inkscape:groupmode="layer" inkscape:label="03_Gold_Accent" stroke="#B8960C" fill="none" stroke-width="1.12" stroke-linecap="round" stroke-linejoin="round"><polygon points="460.00,523.00 459.97,524.81 459.87,526.63 459.72,528.44 459.49,530.24 459.21,532.03 458.86,533.81 458.46,535.58 457.99,537.33 457.45,539.07 456.86,540.79 456.21,542.48 455.50,544.15 454.74,545.80 453.91,547.41 453.03,549.00 452.10,550.56 451.11,552.08 450.07,553.56 448.98,555.01 447.83,556.42 446.64,557.79 445.41,559.12 444.12,560.41 442.79,561.64 441.42,562.83 440.01,563.98 438.56,565.07 437.08,566.11 435.56,567.10 434.00,568.03 432.41,568.91 430.80,569.74 429.15,570.50 427.48,571.21 425.79,571.86 424.07,572.45 422.33,572.99 420.58,573.46 418.81,573.86 417.03,574.21 415.24,574.49 413.44,574.72 411.63,574.87 409.81,574.97 408.00,575.00 406.19,574.97 404.37,574.87 402.56,574.72 400.76,574.49 398.97,574.21 397.19,573.86 395.42,573.46 393.67,572.99 391.93,572.45 390.21,571.86 388.52,571.21 386.85,570.50 385.20,569.74 383.59,568.91 382.00,568.03 380.44,567.10 378.92,566.11 377.44,565.07 375.99,563.98 374.58,562.83 373.21,561.64 371.88,560.41 370.59,559.12 369.36,557.79 368.17,556.42 367.02,555.01 365.93,553.56 364.89,552.08 363.90,550.56 362.97,549.00 362.09,547.41 361.26,545.80 360.50,544.15 359.79,542.48 359.14,540.79 358.55,539.07 358.01,537.33 357.54,535.58 357.14,533.81 356.79,532.03 356.51,530.24 356.28,528.44 356.13,526.63 356.03,524.81 356.00,523.00 356.03,521.19 356.13,519.37 356.28,517.56 356.51,515.76 356.79,513.97 357.14,512.19 357.54,510.42 358.01,508.67 358.55,506.93 359.14,505.21 359.79,503.52 360.50,501.85 361.26,500.20 362.09,498.59 362.97,497.00 363.90,495.44 364.89,493.92 365.93,492.44 367.02,490.99 368.17,489.58 369.36,488.21 370.59,486.88 371.88,485.59 373.21,484.36 374.58,483.17 375.99,482.02 377.44,480.93 378.92,479.89 380.44,478.90 382.00,477.97 383.59,477.09 385.20,476.26 386.85,475.50 388.52,474.79 390.21,474.14 391.93,473.55 393.67,473.01 395.42,472.54 397.19,472.14 398.97,471.79 400.76,471.51 402.56,471.28 404.37,471.13 406.19,471.03 408.00,471.00 409.81,471.03 411.63,471.13 413.44,471.28 415.24,471.51 417.03,471.79 418.81,472.14 420.58,472.54 422.33,473.01 424.07,473.55 425.79,474.14 427.48,474.79 429.15,475.50 430.80,476.26 432.41,477.09 434.00,477.97 435.56,478.90 437.08,479.89 438.56,480.93 440.01,482.02 441.42,483.17 442.79,484.36 444.12,485.59 445.41,486.88 446.64,488.21 447.83,489.58 448.98,490.99 450.07,492.44 451.11,493.92 452.10,495.44 453.03,497.00 453.91,498.59 454.74,500.20 455.50,501.85 456.21,503.52 456.86,505.21 457.45,506.93 457.99,508.67 458.46,510.42 458.86,512.19 459.21,513.97 459.49,515.76 459.72,517.56 459.87,519.37 459.97,521.19" /><polyline points="562.28,585.33 560.01,590.68 557.56,595.94 554.92,601.12 552.11,606.20 549.12,611.18 545.95,616.05 542.62,620.81 539.12,625.45 535.47,629.96 531.66,634.34 527.70,638.59 523.59,642.70 519.34,646.66 514.96,650.47 510.45,654.12 505.81,657.62 501.05,660.95 496.18,664.12 491.20,667.11 486.12,669.92 480.94,672.56 475.68,675.01 470.33,677.28 464.91,679.36 459.42,681.26 453.87,682.95 448.26,684.46 442.60,685.76 436.90,686.87 431.16,687.78 425.39,688.49 419.61,688.99 413.81,689.30 408.00,689.40 402.19,689.30 396.39,688.99 390.61,688.49 384.84,687.78 379.10,686.87 373.40,685.76 367.74,684.46 362.13,682.95 356.58,681.26 351.09,679.36 345.67,677.28 340.32,675.01 335.06,672.56 329.88,669.92 324.80,667.11 319.82,664.12 314.95,660.95 310.19,657.62 305.55,654.12 301.04,650.47 296.66,646.66 292.41,642.70 288.30,638.59 284.34,634.34 280.53,629.96 276.88,625.45 273.38,620.81 270.05,616.05 266.88,611.18 263.89,606.20 261.08,601.12 258.44,595.94 255.99,590.68 253.72,585.33 253.72,460.67 255.99,455.32 258.44,450.06 261.08,444.88 263.89,439.80 266.88,434.82 270.05,429.95 273.38,425.19 276.88,420.55 280.53,416.04 284.34,411.66 288.30,407.41 292.41,403.30 296.66,399.34 301.04,395.53 305.55,391.88 310.19,388.38 314.95,385.05 319.82,381.88 324.80,378.89 329.88,376.08 335.06,373.44 340.32,370.99 345.67,368.72 351.09,366.64 356.58,364.74 362.13,363.05 367.74,361.54 373.40,360.24 379.10,359.13 384.84,358.22 390.61,357.51 396.39,357.01 402.19,356.70 408.00,356.60 413.81,356.70 419.61,357.01 425.39,357.51 431.16,358.22 436.90,359.13 442.60,360.24 448.26,361.54 453.87,363.05 459.42,364.74 464.91,366.64 470.33,368.72 475.68,370.99 480.94,373.44 486.12,376.08 491.20,378.89 496.18,381.88 501.05,385.05 505.81,388.38 510.45,391.88 514.96,395.53 519.34,399.34 523.59,403.30 527.70,407.41 531.66,411.66 535.47,416.04 539.12,420.55 542.62,425.19 545.95,429.95 549.12,434.82 552.11,439.80 554.92,444.88 557.56,450.06 560.01,455.32 562.28,460.67" /><polyline points="501.60,523.00 501.54,526.27 501.37,529.53 501.09,532.78 500.69,536.03 500.18,539.25 499.55,542.46 498.82,545.64 497.97,548.80 497.02,551.92 495.96,555.01 494.78,558.06 493.51,561.07 492.13,564.03 490.64,566.94 489.06,569.80 487.38,572.60 485.60,575.34 483.72,578.02 481.76,580.63 479.70,583.16 477.56,585.63 475.33,588.02 473.02,590.33 470.63,592.56 468.16,594.70 465.63,596.76 463.02,598.72 460.34,600.60 457.60,602.38 454.80,604.06 451.94,605.64 449.03,607.13 446.07,608.51 443.06,609.78 440.01,610.96 436.92,612.02 433.80,612.97 430.64,613.82 427.46,614.55 424.25,615.18 421.03,615.69 417.78,616.09 414.53,616.37 411.27,616.54 408.00,616.60 404.73,616.54 401.47,616.37 398.22,616.09 394.97,615.69 391.75,615.18 388.54,614.55 385.36,613.82 382.20,612.97 379.08,612.02 375.99,610.96 372.94,609.78 369.93,608.51 366.97,607.13 364.06,605.64 361.20,604.06 358.40,602.38 355.66,600.60 352.98,598.72 350.37,596.76 347.84,594.70 345.37,592.56 342.98,590.33 340.67,588.02 338.44,585.63 336.30,583.16 334.24,580.63 332.28,578.02 330.40,575.34 328.62,572.60 326.94,569.80 325.36,566.94 323.87,564.03 322.49,561.07 321.22,558.06 320.04,555.01 318.98,551.92 318.03,548.80 317.18,545.64 316.45,542.46 315.82,539.25 315.31,536.03 314.91,532.78 314.63,529.53 314.46,526.27 314.40,523.00 314.46,519.73 314.63,516.47 314.91,513.22 315.31,509.97 315.82,506.75 316.45,503.54 317.18,500.36 318.03,497.20 318.98,494.08 320.04,490.99 321.22,487.94 322.49,484.93 323.87,481.97 325.36,479.06 326.94,476.20 328.62,473.40 330.40,470.66 332.28,467.98 334.24,465.37 336.30,462.84 338.44,460.37 340.67,457.98 342.98,455.67 345.37,453.44 347.84,451.30 350.37,449.24 352.98,447.28 355.66,445.40 358.40,443.62 361.20,441.94 364.06,440.36 366.97,438.87 369.93,437.49 372.94,436.22 375.99,435.04 379.08,433.98 382.20,433.03 385.36,432.18 388.54,431.45 391.75,430.82 394.97,430.31 398.22,429.91 401.47,429.63 404.73,429.46 408.00,429.40 411.27,429.46 414.53,429.63 417.78,429.91 421.03,430.31 424.25,430.82 427.46,431.45 430.64,432.18 433.80,433.03 436.92,433.98 440.01,435.04 443.06,436.22 446.07,437.49 449.03,438.87 451.94,440.36 454.80,441.94 457.60,443.62 460.34,445.40 463.02,447.28 465.63,449.24 468.16,451.30 470.63,453.44 473.02,455.67 475.33,457.98 477.56,460.37 479.70,462.84 481.76,465.37 483.72,467.98 485.60,470.66 487.38,473.40 489.06,476.20 490.64,479.06 492.13,481.97 493.51,484.93 494.78,487.94 495.96,490.99 497.02,494.08 497.97,497.20 498.82,500.36 499.55,503.54 500.18,506.75 500.69,509.97 501.09,513.22 501.37,516.47 501.54,519.73" /></g></svg>