<?xml version='1.0' encoding='utf-8'?>
<svg xmlns="http://www.w3.org/2000/svg" xmlns:inkscape="http://www.inkscape.org/namespaces/inkscape" viewBox="204 228 408 600"><style>*{vector-effect:non-scaling-stroke}</style><g id="01_Black_Frame" inkscape:groupmode="layer" inkscape:label="01_Black_Frame" stroke="#1A1A1A" fill="none" stroke-width="0.875" stroke-linecap="round" stroke-linejoin="round"><path d="M 250.0,264.0 L 566.0,264.0 Q 576.0,264.0 576.0,274.0 L 576.0,782.0 Q 576.0,792.0 566.0,792.0 L 250.0,792.0 Q 240.0,792.0 240.0,782.0 L 240.0,274.0 Q 240.0,264.0 250.0,264.0" /><path d="M 253.0,270.0 L 563.0,270.0 Q 570.0,270.0 570.0,277.0 L 570.0,779.0 Q 570.0,786.0 563.0,786.0 L 253.0,786.0 Q 246.0,786.0 246.0,779.0 L 246.0,277.0 Q 246.0,270.0 253.0,270.0" /><line x1="259.0" y1="280.0" x2="263.0" y2="280.0" /><line x1="258.1" y1="282.1" x2="260.9" y2="284.9" /><line x1="256.0" y1="283.0" x2="256.0" y2="287.0" /><line x1="253.9" y1="282.1" x2="251.1" y2="284.9" /><line x1="253.0" y1="280.0" x2="249.0" y2="280.0" /><line x1="253.9" y1="277.9" x2="251.1" y2="275.1" /><line x1="256.0" y1="277.0" x2="256.0" y2="273.0" /><line x1="258.1" y1="277.9" x2="260.9" y2="275.1" /><line x1="563.0" y1="280.0" x2="567.0" y2="280.0" /><line x1="562.1" y1="282.1" x2="564.9" y2="284.9" /><line x1="560.0" y1="283.0" x2="560.0" y2="287.0" /><line x1="557.9" y1="282.1" x2="555.1" y2="284.9" /><line x1="557.0" y1="280.0" x2="553.0" y2="280.0" /><line x1="557.9" y1="277.9" x2="555.1" y2="275.1" /><line x1="560.0" y1="277.0" x2="560.0" y2="273.0" /><line x1="562.1" y1="277.9" x2="564.9" y2="275.1" /><line x1="259.0" y1="776.0" x2="263.0" y2="776.0" /><line x1="258.1" y1="778.1" x2="260.9" y2="780.9" /><line x1="256.0" y1="779.0" x2="256.0" y2="783.0" /><line x1="253.9" y1="778.1" x2="251.1" y2="780.9" /><line x1="253.0" y1="776.0" x2="249.0" y2="776.0" /><line x1="253.9" y1="773.9" x2="251.1" y2="771.1" /><line x1="256.0" y1="773.0" x2="256.0" y2="769.0" /><line x1="258.1" y1="773.9" x2="260.9" y2="771.1" /><line x1="563.0" y1="776.0" x2="567.0" y2="776.0" /><line x1="562.1" y1="778.1" x2="564.9" y2="780.9" /><line x1="560.0" y1="779.0" x2="560.0" y2="783.0" /><line x1="557.9" y1="778.1" x2="555.1" y2="780.9" /><line x1="557.0" y1="776.0" x2="553.0" y2="776.0" /><line x1="557.9" y1="773.9" x2="555.1" y2="771.1" /><line x1="560.0" y1="773.0" x2="560.0" y2="769.0" /><line x1="562.1" y1="773.9" x2="564.9" y2="771.1" /><polyline points="398.12,283.20 396.38,282.00 395.38,282.00 393.62,283.60 393.62,288.40 395.38,290.00 396.38,290.00 398.12,288.80" /><polyline points="399.38,282.00 399.38,290.00 403.62,290.00" /><polyline points="405.12,282.00 410.12,290.00" /><polyline points="410.12,282.00 405.12,290.00" /><polyline points="410.88,282.00 415.88,290.00" /><polyline points="415.88,282.00 410.88,290.00" /><polyline points="416.62,282.00 419.12,290.00 421.62,282.00" /><polyline points="359.41,297.00 365.91,297.00" /><polyline points="362.66,297.00 362.66,307.00" /><polyline points="366.89,297.00 366.89,307.00" /><polyline points="373.39,297.00 373.39,307.00" /><polyline points="366.89,301.80 373.39,301.80" /><polyline points="379.89,297.00 374.36,297.00 374.36,301.80 378.26,301.80" /><polyline points="374.36,301.80 374.36,307.00 379.89,307.00" /><polyline points="389.31,297.00 395.81,297.00" /><polyline points="392.56,297.00 392.56,307.00" /><polyline points="396.79,297.00 396.79,307.00" /><polyline points="403.29,297.00 403.29,307.00" /><polyline points="396.79,301.80 403.29,301.80" /><polyline points="404.26,307.00 404.26,297.00 408.49,297.00 410.11,298.50 410.11,300.20 408.49,301.50 404.26,301.50 410.11,307.00" /><polyline points="417.26,297.00 411.74,297.00 411.74,301.80 415.64,301.80" /><polyline points="411.74,301.80 411.74,307.00 417.26,307.00" /><polyline points="424.74,298.00 423.11,297.00 421.16,297.00 419.54,298.50 419.21,300.00 420.19,301.20 422.46,302.00 424.74,302.80 425.71,304.00 425.39,305.50 423.76,307.00 421.49,307.00 419.86,306.00" /><polyline points="426.69,297.00 426.69,307.00" /><polyline points="433.19,297.00 433.19,307.00" /><polyline points="426.69,301.80 433.19,301.80" /><polyline points="437.41,297.00 434.81,298.00 434.16,300.00 434.16,304.00 434.81,306.00 437.41,307.00 440.01,306.00 440.66,304.00 440.66,300.00 440.01,298.00 437.41,297.00" /><polyline points="441.64,297.00 441.64,307.00 447.16,307.00" /><polyline points="449.11,307.00 449.11,297.00 452.69,297.00 454.96,299.50 454.96,304.50 452.69,307.00 449.11,307.00" /><line x1="270.0" y1="312.0" x2="546.0" y2="312.0" /><line x1="270.0" y1="732.0" x2="546.0" y2="732.0" /><polyline points="376.57,741.20 375.87,740.75 375.03,740.75 374.33,741.42 374.19,742.10 374.61,742.64 375.59,743.00 376.57,743.36 376.99,743.90 376.85,744.58 376.15,745.25 375.17,745.25 374.47,744.80" /><polyline points="379.79,740.75 377.41,740.75 377.41,742.91 379.09,742.91" /><polyline points="377.41,742.91 377.41,745.25 379.79,745.25" /><polyline points="380.63,745.25 380.63,740.75 383.43,745.25 383.43,740.75" /><polyline points="383.85,745.25 385.25,740.75 386.65,745.25" /><polyline points="384.35,743.67 386.15,743.67" /><polyline points="387.07,740.75 389.87,740.75" /><polyline points="388.47,740.75 388.47,745.25" /><polyline points="392.67,740.75 390.29,740.75 390.29,742.91 391.97,742.91" /><polyline points="390.29,742.91 390.29,745.25 392.67,745.25" /><polyline points="399.95,740.75 399.95,745.25" /><polyline points="402.75,740.75 402.75,745.25" /><polyline points="399.95,742.91 402.75,742.91" /><polyline points="405.55,740.75 403.17,740.75 403.17,742.91 404.85,742.91" /><polyline points="403.17,742.91 403.17,745.25 405.55,745.25" /><polyline points="406.39,745.25 407.79,740.75 409.19,745.25" /><polyline points="406.89,743.67 408.69,743.67" /><polyline points="409.61,740.75 412.41,740.75" /><polyline points="411.01,740.75 411.01,745.25" /><polyline points="419.27,745.25 419.27,740.75 421.09,740.75 421.79,741.42 421.79,742.19 421.09,742.77 419.27,742.77" /><polyline points="422.49,745.25 422.49,740.75 424.31,740.75 425.01,741.42 425.01,742.19 424.31,742.77 422.49,742.77 425.01,745.25" /><polyline points="427.11,740.75 427.11,745.25" /><polyline points="428.93,745.25 428.93,740.75 430.33,743.23 431.73,740.75 431.73,745.25" /><polyline points="432.15,745.25 433.55,740.75 434.95,745.25" /><polyline points="432.65,743.67 434.45,743.67" /><polyline points="435.37,745.25 435.37,740.75 437.19,740.75 437.89,741.42 437.89,742.19 437.19,742.77 435.37,742.77 437.89,745.25" /><polyline points="438.59,740.75 439.99,743.00 441.39,740.75" /><polyline points="439.99,743.00 439.99,745.25" /><polyline points="336.12,753.25 341.12,753.25" /><polyline points="338.62,753.25 338.62,760.75" /><polyline points="341.88,753.25 341.88,760.75" /><polyline points="346.88,753.25 346.88,760.75" /><polyline points="341.88,756.85 346.88,756.85" /><polyline points="351.88,753.25 347.62,753.25 347.62,756.85 350.62,756.85" /><polyline points="347.62,756.85 347.62,760.75 351.88,760.75" /><polyline points="359.12,760.75 359.12,753.25 361.88,753.25 363.62,755.12 363.62,758.88 361.88,760.75 359.12,760.75" /><polyline points="364.88,760.75 367.38,753.25 369.88,760.75" /><polyline points="365.77,758.12 368.98,758.12" /><polyline points="370.62,753.25 373.12,757.00 375.62,753.25" /><polyline points="373.12,757.00 373.12,760.75" /><polyline points="382.12,753.25 387.12,753.25" /><polyline points="384.62,753.25 384.62,760.75" /><polyline points="387.88,753.25 387.88,760.75" /><polyline points="392.88,753.25 392.88,760.75" /><polyline points="387.88,756.85 392.88,756.85" /><polyline points="397.88,753.25 393.62,753.25 393.62,756.85 396.62,756.85" /><polyline points="393.62,756.85 393.62,760.75 397.88,760.75" /><polyline points="405.12,760.75 405.12,753.25 407.62,757.38 410.12,753.25 410.12,760.75" /><polyline points="410.88,760.75 413.38,753.25 415.88,760.75" /><polyline points="411.77,758.12 414.98,758.12" /><polyline points="421.12,754.38 419.38,753.25 418.38,753.25 416.62,754.75 416.62,759.25 418.38,760.75 419.38,760.75 421.12,759.62" /><polyline points="422.38,753.25 422.38,760.75" /><polyline points="427.38,753.25 427.38,760.75" /><polyline points="422.38,756.85 427.38,756.85" /><polyline points="430.62,753.25 430.62,760.75" /><polyline points="433.88,760.75 433.88,753.25 438.88,760.75 438.88,753.25" /><polyline points="443.88,753.25 439.62,753.25 439.62,756.85 442.62,756.85" /><polyline points="439.62,756.85 439.62,760.75 443.88,760.75" /><polyline points="451.12,760.75 451.12,753.25 453.62,757.38 456.12,753.25 456.12,760.75" /><polyline points="459.38,753.25 457.38,754.00 456.88,755.50 456.88,758.50 457.38,760.00 459.38,760.75 461.38,760.00 461.88,758.50 461.88,755.50 461.38,754.00 459.38,753.25" /><polyline points="462.62,753.25 465.12,760.75 467.62,753.25" /><polyline points="472.62,753.25 468.38,753.25 468.38,756.85 471.38,756.85" /><polyline points="468.38,756.85 468.38,760.75 472.62,760.75" /><polyline points="474.12,760.75 474.12,753.25 476.88,753.25 478.62,755.12 478.62,758.88 476.88,760.75 474.12,760.75" /><polyline points="330.38,773.75 332.88,766.25 335.38,773.75" /><polyline points="331.27,771.12 334.48,771.12" /><polyline points="336.12,773.75 336.12,766.25 341.12,773.75 341.12,766.25" /><polyline points="341.88,773.75 341.88,766.25 344.62,766.25 346.38,768.12 346.38,771.88 344.62,773.75 341.88,773.75" /><polyline points="353.38,766.25 358.38,766.25" /><polyline points="355.88,766.25 355.88,773.75" /><polyline points="359.12,766.25 359.12,773.75" /><polyline points="364.12,766.25 364.12,773.75" /><polyline points="359.12,769.85 364.12,769.85" /><polyline points="369.12,766.25 364.88,766.25 364.88,769.85 367.88,769.85" /><polyline points="364.88,769.85 364.88,773.75 369.12,773.75" /><polyline points="376.38,773.75 378.88,766.25 381.38,773.75" /><polyline points="377.27,771.12 380.48,771.12" /><polyline points="384.62,766.25 384.62,773.75" /><polyline points="387.88,773.75 387.88,766.25 391.12,766.25 392.38,767.38 392.38,768.65 391.12,769.62 387.88,769.62 392.38,773.75" /><polyline points="399.38,766.25 400.62,773.75 401.88,768.88 403.12,773.75 404.38,766.25" /><polyline points="407.62,766.25 405.62,767.00 405.12,768.50 405.12,771.50 405.62,773.00 407.62,773.75 409.62,773.00 410.12,771.50 410.12,768.50 409.62,767.00 407.62,766.25" /><polyline points="410.88,766.25 410.88,771.88 411.88,773.38 414.88,773.38 415.88,771.88 415.88,766.25" /><polyline points="416.62,766.25 416.62,773.75 420.88,773.75" /><polyline points="422.38,773.75 422.38,766.25 425.12,766.25 426.88,768.12 426.88,771.88 425.12,773.75 422.38,773.75" /><polyline points="433.88,773.75 433.88,766.25 438.88,773.75 438.88,766.25" /><polyline points="442.12,766.25 440.12,767.00 439.62,768.50 439.62,771.50 440.12,773.00 442.12,773.75 444.12,773.00 444.62,771.50 444.62,768.50 444.12,767.00 442.12,766.25" /><polyline points="445.38,766.25 450.38,766.25" /><polyline points="447.88,766.25 447.88,773.75" /><polyline points="456.88,773.75 456.88,766.25 460.12,766.25 461.12,767.15 461.12,768.35 460.12,769.25 456.88,769.25 460.12,769.25 461.12,770.15 461.12,772.85 460.12,773.75 456.88,773.75" /><polyline points="462.62,773.75 462.62,766.25 465.88,766.25 467.12,767.38 467.12,768.65 465.88,769.62 462.62,769.62 467.12,773.75" /><polyline points="472.62,766.25 468.38,766.25 468.38,769.85 471.38,769.85" /><polyline points="468.38,769.85 468.38,773.75 472.62,773.75" /><polyline points="474.12,773.75 476.62,766.25 479.12,773.75" /><polyline points="475.02,771.12 478.23,771.12" /><polyline points="479.88,766.25 479.88,773.75" /><polyline points="484.38,766.25 479.88,770.00 484.38,773.75" /><polyline points="382.24,779.50 383.84,784.50 385.44,779.50" /><polyline points="387.52,779.50 387.52,784.50" /><polyline points="391.20,784.00 391.20,784.25" /><polyline points="393.28,779.50 396.48,784.50" /><polyline points="396.48,779.50 393.28,784.50" /><polyline points="396.96,779.50 400.16,784.50" /><polyline points="400.16,779.50 396.96,784.50" /><polyline points="402.24,779.50 402.24,784.50" /><polyline points="404.32,779.50 405.92,784.50 407.52,779.50" /><polyline points="409.60,784.00 409.60,784.25" /><polyline points="411.68,784.50 411.68,779.50 413.28,782.25 414.88,779.50 414.88,784.50" /><polyline points="415.36,784.50 415.36,779.50 416.96,782.25 418.56,779.50 418.56,784.50" /><polyline points="419.04,779.50 422.24,784.50" /><polyline points="422.24,779.50 419.04,784.50" /><polyline points="422.72,779.50 425.92,784.50" /><polyline points="425.92,779.50 422.72,784.50" /><polyline points="426.40,779.50 428.00,784.50 429.60,779.50" /><polyline points="431.68,779.50 431.68,784.50" /></g><g id="02_Teal_Dome" inkscape:groupmode="layer" inkscape:label="02_Teal_Dome" stroke="#2A6A7A" fill="none" stroke-width="1" stroke-linecap="round" stroke-linejoin="round"><path d="M 350.5,576.0 A 57.5,57.5 0 0,0 465.5,576.0" /><path d="M 326.7,576.0 A 81.3,81.3 0 0,0 489.3,576.0" /><path d="M 308.4,576.0 A 99.6,99.6 0 0,0 507.6,576.0" /><path d="M 293.0,576.0 A 115.0,115.0 0 0,0 523.0,576.0" /><path d="M 279.5,576.0 A 128.5,128.5 0 0,0 536.5,576.0" /><path d="M 267.2,576.0 A 140.8,140.8 0 0,0 548.8,576.0" /><path d="M 255.9,576.0 A 152.1,152.1 0 0,0 560.1,576.0" /><path d="M 254.0,524.0 A 162.6,162.6 0 0,0 562.0,524.0" /><path d="M 254.0,498.5 A 172.4,172.4 0 0,0 562.0,498.5" /><path d="M 254.0,479.5 A 181.8,181.8 0 0,0 562.0,479.5" /><path d="M 254.0,463.7 A 190.6,190.6 0 0,0 562.0,463.7" /><path d="M 254.0,449.8 A 199.1,199.1 0 0,0 562.0,449.8" /><path d="M 254.0,437.4 A 207.2,207.2 0 0,0 562.0,437.4" /><path d="M 254.0,425.9 A 215.1,215.1 0 0,0 562.0,425.9" /><path d="M 254.0,415.3 A 222.6,222.6 0 0,0 562.0,415.3" /><path d="M 254.0,405.3 A 229.9,229.9 0 0,0 562.0,405.3" /><path d="M 254.0,395.9 A 237.0,237.0 0 0,0 562.0,395.9" /><path d="M 254.0,387.0 A 243.8,243.8 0 0,0 562.0,387.0" /><path d="M 254.0,378.4 A 250.5,250.5 0 0,0 562.0,378.4" /><path d="M 254.0,370.2 A 257.0,257.0 0 0,0 562.0,370.2" /></g><g id="03_Gold_Threshold" inkscape:groupmode="layer" inkscape:label="03_Gold_Threshold" stroke="#B8960C" fill="none" stroke-width="1.5" stroke-linecap="round" stroke-linejoin="round"><line x1="258.0" y1="576.0" x2="558.0" y2="576.0" stroke-width="2.5" /><line x1="408.0" y1="570.0" x2="408.0" y2="582.0" stroke-width="1.75" /><line x1="283.2" y1="618.3" x2="358.1" y2="618.3" stroke-width="1.25" /><line x1="411.1" y1="639.4" x2="467.3" y2="639.4" stroke-width="1.25" /><line x1="473.5" y1="669.6" x2="517.2" y2="669.6" stroke-width="1.25" /><line x1="336.2" y1="689.3" x2="404.9" y2="689.3" stroke-width="1.25" /><line x1="280.1" y1="707.4" x2="311.3" y2="707.4" stroke-width="1.25" /></g></svg>