<?xml version='1.0' encoding='utf-8'?>
<svg xmlns="http://www.w3.org/2000/svg" xmlns:inkscape="http://www.inkscape.org/namespaces/inkscape" viewBox="204 228 408 600"><style>*{vector-effect:non-scaling-stroke}</style><g id="01_Black_Frame" inkscape:groupmode="layer" inkscape:label="01_Black_Frame" stroke="#1A1A1A" fill="none" stroke-width="0.875" stroke-linecap="round" stroke-linejoin="round"><path d="M 250.0,264.0 L 566.0,264.0 Q 576.0,264.0 576.0,274.0 L 576.0,782.0 Q 576.0,792.0 566.0,792.0 L 250.0,792.0 Q 240.0,792.0 240.0,782.0 L 240.0,274.0 Q 240.0,264.0 250.0,264.0" /><path d="M 253.0,270.0 L 563.0,270.0 Q 570.0,270.0 570.0,277.0 L 570.0,779.0 Q 570.0,786.0 563.0,786.0 L 253.0,786.0 Q 246.0,786.0 246.0,779.0 L 246.0,277.0 Q 246.0,270.0 253.0,270.0" /><line x1="259.0" y1="280.0" x2="263.0" y2="280.0" /><line x1="258.1" y1="282.1" x2="260.9" y2="284.9" /><line x1="256.0" y1="283.0" x2="256.0" y2="287.0" /><line x1="253.9" y1="282.1" x2="251.1" y2="284.9" /><line x1="253.0" y1="280.0" x2="249.0" y2="280.0" /><line x1="253.9" y1="277.9" x2="251.1" y2="275.1" /><line x1="256.0" y1="277.0" x2="256.0" y2="273.0" /><line x1="258.1" y1="277.9" x2="260.9" y2="275.1" /><line x1="563.0" y1="280.0" x2="567.0" y2="280.0" /><line x1="562.1" y1="282.1" x2="564.9" y2="284.9" /><line x1="560.0" y1="283.0" x2="560.0" y2="287.0" /><line x1="557.9" y1="282.1" x2="555.1" y2="284.9" /><line x1="557.0" y1="280.0" x2="553.0" y2="280.0" /><line x1="557.9" y1="277.9" x2="555.1" y2="275.1" /><line x1="560.0" y1="277.0" x2="560.0" y2="273.0" /><line x1="562.1" y1="277.9" x2="564.9" y2="275.1" /><line x1="259.0" y1="776.0" x2="263.0" y2="776.0" /><line x1="258.1" y1="778.1" x2="260.9" y2="780.9" /><line x1="256.0" y1="779.0" x2="256.0" y2="783.0" /><line x1="253.9" y1="778.1" x2="251.1" y2="780.9" /><line x1="253.0" y1="776.0" x2="249.0" y2="776.0" /><line x1="253.9" y1="773.9" x2="251.1" y2="771.1" /><line x1="256.0" y1="773.0" x2="256.0" y2="769.0" /><line x1="258.1" y1="773.9" x2="260.9" y2="771.1" /><line x1="563.0" y1="776.0" x2="567.0" y2="776.0" /><line x1="562.1" y1="778.1" x2="564.9" y2="780.9" /><line x1="560.0" y1="779.0" x2="560.0" y2="783.0" /><line x1="557.9" y1="778.1" x2="555.1" y2="780.9" /><line x1="557.0" y1="776.0" x2="553.0" y2="776.0" /><line x1="557.9" y1="773.9" x2="555.1" y2="771.1" /><line x1="560.0" y1="773.0" x2="560.0" y2="769.0" /><line x1="562.1" y1="773.9" x2="564.9" y2="771.1" /><polyline points="401.00,283.20 399.25,282.00 398.25,282.00 396.50,283.60 396.50,288.40 398.25,290.00 399.25,290.00 401.00,288.80" /><polyline points="402.25,282.00 402.25,290.00 406.50,290.00" /><polyline points="408.00,282.00 413.00,290.00" /><polyline points="413.00,282.00 408.00,290.00" /><polyline points="416.25,282.00 416.25,290.00" /><polyline points="374.36,297.00 380.86,297.00" /><polyline points="377.61,297.00 377.61,307.00" /><polyline points="381.84,297.00 381.84,307.00" /><polyline points="388.34,297.00 388.34,307.00" /><polyline points="381.84,301.80 388.34,301.80" /><polyline points="394.84,297.00 389.31,297.00 389.31,301.80 393.21,301.80" /><polyline points="389.31,301.80 389.31,307.00 394.84,307.00" /><polyline points="404.26,307.00 404.26,297.00 407.84,297.00 410.11,299.50 410.11,304.50 407.84,307.00 404.26,307.00" /><polyline points="417.26,297.00 411.74,297.00 411.74,301.80 415.64,301.80" /><polyline points="411.74,301.80 411.74,307.00 417.26,307.00" /><polyline points="419.21,307.00 419.21,297.00 423.44,297.00 424.74,298.20 424.74,299.80 423.44,301.00 419.21,301.00 423.44,301.00 424.74,302.20 424.74,305.80 423.44,307.00 419.21,307.00" /><polyline points="426.69,297.00 426.69,304.50 427.99,306.50 431.89,306.50 433.19,304.50 433.19,297.00" /><polyline points="434.16,297.00 440.66,297.00" /><polyline points="437.41,297.00 437.41,307.00" /><line x1="270.0" y1="312.0" x2="546.0" y2="312.0" /><line x1="270.0" y1="732.0" x2="546.0" y2="732.0" /><polyline points="374.19,740.75 374.19,745.25" /><polyline points="376.99,740.75 376.99,745.25" /><polyline points="374.19,742.91 376.99,742.91" /><polyline points="378.81,740.75 378.81,745.25" /><polyline points="380.63,745.25 380.63,740.75 382.03,743.23 383.43,740.75 383.43,745.25" /><polyline points="383.85,745.25 385.25,740.75 386.65,745.25" /><polyline points="384.35,743.67 386.15,743.67" /><polyline points="387.07,745.25 387.07,740.75 388.89,740.75 389.59,741.42 389.59,742.19 388.89,742.77 387.07,742.77 389.59,745.25" /><polyline points="392.67,741.20 391.97,740.75 391.13,740.75 390.43,741.42 390.29,742.10 390.71,742.64 391.69,743.00 392.67,743.36 393.09,743.90 392.95,744.58 392.25,745.25 391.27,745.25 390.57,744.80" /><polyline points="402.33,741.20 401.63,740.75 400.79,740.75 400.09,741.42 399.95,742.10 400.37,742.64 401.35,743.00 402.33,743.36 402.75,743.90 402.61,744.58 401.91,745.25 400.93,745.25 400.23,744.80" /><polyline points="403.17,740.75 405.97,740.75" /><polyline points="404.57,740.75 404.57,745.25" /><polyline points="406.39,745.25 406.39,740.75 408.21,740.75 408.91,741.42 408.91,742.19 408.21,742.77 406.39,742.77 408.91,745.25" /><polyline points="409.61,745.25 411.01,740.75 412.41,745.25" /><polyline points="410.11,743.67 411.91,743.67" /><polyline points="414.23,740.75 414.23,745.25" /><polyline points="416.05,740.75 418.85,740.75" /><polyline points="417.45,740.75 417.45,745.25" /><polyline points="425.71,745.25 425.71,740.75 427.25,740.75 428.23,741.88 428.23,744.12 427.25,745.25 425.71,745.25" /><polyline points="431.31,740.75 428.93,740.75 428.93,742.91 430.61,742.91" /><polyline points="428.93,742.91 428.93,745.25 431.31,745.25" /><polyline points="432.15,745.25 432.15,740.75 433.97,740.75 434.53,741.29 434.53,742.01 433.97,742.55 432.15,742.55 433.97,742.55 434.53,743.09 434.53,744.71 433.97,745.25 432.15,745.25" /><polyline points="435.37,740.75 435.37,744.12 435.93,745.02 437.61,745.02 438.17,744.12 438.17,740.75" /><polyline points="438.59,740.75 441.39,740.75" /><polyline points="439.99,740.75 439.99,745.25" /><polyline points="343.25,753.25 339.00,753.25 339.00,756.85 342.00,756.85" /><polyline points="339.00,756.85 339.00,760.75" /><polyline points="347.25,753.25 347.25,760.75" /><polyline points="350.50,760.75 350.50,753.25 353.75,753.25 355.00,754.38 355.00,755.65 353.75,756.62 350.50,756.62 355.00,760.75" /><polyline points="360.50,754.00 359.25,753.25 357.75,753.25 356.50,754.38 356.25,755.50 357.00,756.40 358.75,757.00 360.50,757.60 361.25,758.50 361.00,759.62 359.75,760.75 358.00,760.75 356.75,760.00" /><polyline points="362.00,753.25 367.00,753.25" /><polyline points="364.50,753.25 364.50,760.75" /><polyline points="373.50,753.25 378.50,753.25" /><polyline points="376.00,753.25 376.00,760.75" /><polyline points="381.75,753.25 381.75,760.75" /><polyline points="385.00,760.75 385.00,753.25 387.50,757.38 390.00,753.25 390.00,760.75" /><polyline points="395.00,753.25 390.75,753.25 390.75,756.85 393.75,756.85" /><polyline points="390.75,756.85 390.75,760.75 395.00,760.75" /><polyline points="404.75,753.25 404.75,760.75" /><polyline points="408.00,760.75 408.00,753.25 413.00,760.75 413.00,753.25" /><polyline points="419.50,753.25 424.50,753.25" /><polyline points="422.00,753.25 422.00,760.75" /><polyline points="425.25,753.25 425.25,760.75" /><polyline points="430.25,753.25 430.25,760.75" /><polyline points="425.25,756.85 430.25,756.85" /><polyline points="435.25,753.25 431.00,753.25 431.00,756.85 434.00,756.85" /><polyline points="431.00,756.85 431.00,760.75 435.25,760.75" /><polyline points="446.75,754.00 445.50,753.25 444.00,753.25 442.75,754.38 442.50,755.50 443.25,756.40 445.00,757.00 446.75,757.60 447.50,758.50 447.25,759.62 446.00,760.75 444.25,760.75 443.00,760.00" /><polyline points="448.25,753.25 453.25,753.25" /><polyline points="450.75,753.25 450.75,760.75" /><polyline points="454.00,760.75 454.00,753.25 457.25,753.25 458.50,754.38 458.50,755.65 457.25,756.62 454.00,756.62 458.50,760.75" /><polyline points="459.75,760.75 462.25,753.25 464.75,760.75" /><polyline points="460.65,758.12 463.85,758.12" /><polyline points="468.00,753.25 468.00,760.75" /><polyline points="471.25,753.25 476.25,753.25" /><polyline points="473.75,753.25 473.75,760.75" /><polyline points="346.12,766.25 341.88,766.25 341.88,769.85 344.88,769.85" /><polyline points="341.88,769.85 341.88,773.75" /><polyline points="350.12,766.25 350.12,773.75" /><polyline points="353.38,773.75 353.38,766.25 356.62,766.25 357.88,767.38 357.88,768.65 356.62,769.62 353.38,769.62 357.88,773.75" /><polyline points="363.38,767.00 362.12,766.25 360.62,766.25 359.38,767.38 359.12,768.50 359.88,769.40 361.62,770.00 363.38,770.60 364.12,771.50 363.88,772.62 362.62,773.75 360.88,773.75 359.62,773.00" /><polyline points="364.88,766.25 369.88,766.25" /><polyline points="367.38,766.25 367.38,773.75" /><polyline points="376.38,766.25 381.38,766.25" /><polyline points="378.88,766.25 378.88,773.75" /><polyline points="384.62,766.25 384.62,773.75" /><polyline points="387.88,773.75 387.88,766.25 390.38,770.38 392.88,766.25 392.88,773.75" /><polyline points="397.88,766.25 393.62,766.25 393.62,769.85 396.62,769.85" /><polyline points="393.62,769.85 393.62,773.75 397.88,773.75" /><polyline points="407.62,766.25 405.62,767.00 405.12,768.50 405.12,771.50 405.62,773.00 407.62,773.75 409.62,773.00 410.12,771.50 410.12,768.50 409.62,767.00 407.62,766.25" /><polyline points="410.88,773.75 410.88,766.25 415.88,773.75 415.88,766.25" /><polyline points="422.38,766.25 427.38,766.25" /><polyline points="424.88,766.25 424.88,773.75" /><polyline points="428.12,766.25 428.12,773.75" /><polyline points="433.12,766.25 433.12,773.75" /><polyline points="428.12,769.85 433.12,769.85" /><polyline points="438.12,766.25 433.88,766.25 433.88,769.85 436.88,769.85" /><polyline points="433.88,769.85 433.88,773.75 438.12,773.75" /><polyline points="445.38,773.75 445.38,766.25 448.62,766.25 449.88,767.38 449.88,768.65 448.62,769.62 445.38,769.62" /><polyline points="453.62,766.25 453.62,773.75" /><polyline points="456.88,766.25 461.88,766.25" /><polyline points="459.38,766.25 459.38,773.75" /><polyline points="467.12,767.38 465.38,766.25 464.38,766.25 462.62,767.75 462.62,772.25 464.38,773.75 465.38,773.75 467.12,772.62" /><polyline points="468.38,766.25 468.38,773.75" /><polyline points="473.38,766.25 473.38,773.75" /><polyline points="468.38,769.85 473.38,769.85" /><polyline points="387.76,779.50 389.36,784.50 390.96,779.50" /><polyline points="393.04,779.50 393.04,784.50" /><polyline points="396.72,784.00 396.72,784.25" /><polyline points="398.80,779.50 402.00,784.50" /><polyline points="402.00,779.50 398.80,784.50" /><polyline points="404.08,784.00 404.08,784.25" /><polyline points="406.16,784.50 406.16,779.50 407.76,782.25 409.36,779.50 409.36,784.50" /><polyline points="409.84,784.50 409.84,779.50 411.44,782.25 413.04,779.50 413.04,784.50" /><polyline points="413.52,779.50 416.72,784.50" /><polyline points="416.72,779.50 413.52,784.50" /><polyline points="417.20,779.50 420.40,784.50" /><polyline points="420.40,779.50 417.20,784.50" /><polyline points="420.88,779.50 422.48,784.50 424.08,779.50" /><polyline points="426.16,779.50 426.16,784.50" /></g><g id="02_Teal_Image" inkscape:groupmode="layer" inkscape:label="02_Teal_Image" stroke="#3A7A7A" fill="none" stroke-width="0.75" stroke-linecap="round" stroke-linejoin="round"><line x1="252.0" y1="320.0" x2="564.0" y2="320.0" /><line x1="252.0" y1="323.0" x2="564.0" y2="323.0" /><line x1="252.0" y1="326.0" x2="564.0" y2="326.0" /><line x1="252.0" y1="329.0" x2="564.0" y2="329.0" /><line x1="252.0" y1="332.0" x2="564.0" y2="332.0" /><line x1="252.0" y1="335.0" x2="564.0" y2="335.0" /><line x1="252.0" y1="338.0" x2="564.0" y2="338.0" /><line x1="252.0" y1="341.0" x2="564.0" y2="341.0" /><line x1="252.0" y1="344.0" x2="564.0" y2="344.0" /><line x1="252.0" y1="347.0" x2="564.0" y2="347.0" /><line x1="252.0" y1="350.0" x2="564.0" y2="350.0" /><line x1="252.0" y1="353.0" x2="564.0" y2="353.0" /><line x1="252.0" y1="356.0" x2="564.0" y2="356.0" /><line x1="252.0" y1="359.0" x2="564.0" y2="359.0" /><line x1="252.0" y1="362.0" x2="564.0" y2="362.0" /><line x1="252.0" y1="365.0" x2="564.0" y2="365.0" /><line x1="252.0" y1="368.0" x2="564.0" y2="368.0" /><line x1="252.0" y1="371.0" x2="564.0" y2="371.0" /><line x1="252.0" y1="374.0" x2="564.0" y2="374.0" /><line x1="252.0" y1="377.0" x2="564.0" y2="377.0" /><line x1="252.0" y1="380.0" x2="564.0" y2="380.0" /><line x1="252.0" y1="383.0" x2="564.0" y2="383.0" /><line x1="252.0" y1="386.0" x2="564.0" y2="386.0" /><line x1="252.0" y1="389.0" x2="564.0" y2="389.0" /><line x1="252.0" y1="392.0" x2="564.0" y2="392.0" /><line x1="252.0" y1="395.0" x2="564.0" y2="395.0" /><line x1="252.0" y1="398.0" x2="564.0" y2="398.0" /><line x1="252.0" y1="401.0" x2="564.0" y2="401.0" /><line x1="252.0" y1="404.0" x2="564.0" y2="404.0" /><line x1="252.0" y1="407.0" x2="564.0" y2="407.0" /><line x1="252.0" y1="410.0" x2="564.0" y2="410.0" /><line x1="252.0" y1="413.0" x2="564.0" y2="413.0" /><line x1="252.0" y1="416.0" x2="564.0" y2="416.0" /><line x1="252.0" y1="419.0" x2="564.0" y2="419.0" /><line x1="252.0" y1="422.0" x2="564.0" y2="422.0" /><line x1="252.0" y1="425.0" x2="564.0" y2="425.0" /><line x1="252.0" y1="428.0" x2="564.0" y2="428.0" /><line x1="252.0" y1="431.0" x2="564.0" y2="431.0" /><line x1="252.0" y1="434.0" x2="564.0" y2="434.0" /><line x1="252.0" y1="437.0" x2="564.0" y2="437.0" /><line x1="252.0" y1="440.0" x2="564.0" y2="440.0" /><line x1="252.0" y1="443.0" x2="564.0" y2="443.0" /><line x1="252.0" y1="446.0" x2="564.0" y2="446.0" /><line x1="252.0" y1="449.0" x2="564.0" y2="449.0" /><line x1="252.0" y1="452.0" x2="564.0" y2="452.0" /><line x1="252.0" y1="455.0" x2="564.0" y2="455.0" /><line x1="260.0" y1="464.7" x2="556.0" y2="464.7" /><line x1="260.0" y1="484.1" x2="556.0" y2="484.1" /><line x1="260.0" y1="503.6" x2="556.0" y2="503.6" /><line x1="260.0" y1="523.0" x2="556.0" y2="523.0" /><line x1="260.0" y1="542.4" x2="556.0" y2="542.4" /><line x1="260.0" y1="561.9" x2="556.0" y2="561.9" /><line x1="260.0" y1="581.3" x2="556.0" y2="581.3" /><line x1="252.0" y1="592.0" x2="564.0" y2="592.0" /><line x1="252.0" y1="595.0" x2="564.0" y2="595.0" /><line x1="252.0" y1="598.0" x2="564.0" y2="598.0" /><line x1="252.0" y1="601.0" x2="564.0" y2="601.0" /><line x1="252.0" y1="604.0" x2="564.0" y2="604.0" /><line x1="252.0" y1="607.0" x2="564.0" y2="607.0" /><line x1="252.0" y1="610.0" x2="564.0" y2="610.0" /><line x1="252.0" y1="613.0" x2="564.0" y2="613.0" /><line x1="252.0" y1="616.0" x2="564.0" y2="616.0" /><line x1="252.0" y1="619.0" x2="564.0" y2="619.0" /><line x1="252.0" y1="622.0" x2="564.0" y2="622.0" /><line x1="252.0" y1="625.0" x2="564.0" y2="625.0" /><line x1="252.0" y1="628.0" x2="564.0" y2="628.0" /><line x1="252.0" y1="631.0" x2="564.0" y2="631.0" /><line x1="252.0" y1="634.0" x2="564.0" y2="634.0" /><line x1="252.0" y1="637.0" x2="564.0" y2="637.0" /><line x1="252.0" y1="640.0" x2="564.0" y2="640.0" /><line x1="252.0" y1="643.0" x2="564.0" y2="643.0" /><line x1="252.0" y1="646.0" x2="564.0" y2="646.0" /><line x1="252.0" y1="649.0" x2="564.0" y2="649.0" /><line x1="252.0" y1="652.0" x2="564.0" y2="652.0" /><line x1="252.0" y1="655.0" x2="564.0" y2="655.0" /><line x1="252.0" y1="658.0" x2="564.0" y2="658.0" /><line x1="252.0" y1="661.0" x2="564.0" y2="661.0" /><line x1="252.0" y1="664.0" x2="564.0" y2="664.0" /><line x1="252.0" y1="667.0" x2="564.0" y2="667.0" /><line x1="252.0" y1="670.0" x2="564.0" y2="670.0" /><line x1="252.0" y1="673.0" x2="564.0" y2="673.0" /><line x1="252.0" y1="676.0" x2="564.0" y2="676.0" /><line x1="252.0" y1="679.0" x2="564.0" y2="679.0" /><line x1="252.0" y1="682.0" x2="564.0" y2="682.0" /><line x1="252.0" y1="685.0" x2="564.0" y2="685.0" /><line x1="252.0" y1="688.0" x2="564.0" y2="688.0" /><line x1="252.0" y1="691.0" x2="564.0" y2="691.0" /><line x1="252.0" y1="694.0" x2="564.0" y2="694.0" /><line x1="252.0" y1="697.0" x2="564.0" y2="697.0" /><line x1="252.0" y1="700.0" x2="564.0" y2="700.0" /><line x1="252.0" y1="703.0" x2="564.0" y2="703.0" /><line x1="252.0" y1="706.0" x2="564.0" y2="706.0" /><line x1="252.0" y1="709.0" x2="564.0" y2="709.0" /><line x1="252.0" y1="712.0" x2="564.0" y2="712.0" /><line x1="252.0" y1="715.0" x2="564.0" y2="715.0" /><line x1="252.0" y1="718.0" x2="564.0" y2="718.0" /><line x1="252.0" y1="721.0" x2="564.0" y2="721.0" /><line x1="252.0" y1="724.0" x2="564.0" y2="724.0" /></g><g id="03_Gold_Accent" inkscape:groupmode="layer" inkscape:label="03_Gold_Accent" stroke="#B8960C" fill="none" stroke-width="1.12" stroke-linecap="round" stroke-linejoin="round"><polyline points="539.0,702.0 534.6,685.1 530.3,668.5 525.9,652.4 521.5,636.6 517.2,621.3 512.8,606.4 508.4,591.8 504.1,577.7 499.7,564.0 495.3,550.7 491.0,537.8 486.6,525.2 482.2,513.1 477.9,501.4 473.5,490.1 469.1,479.2 464.8,468.7 460.4,458.6 456.0,449.0 451.7,439.7 447.3,430.8 442.9,422.3 438.6,414.2 434.2,406.6 429.8,399.3 425.5,392.4 421.1,386.0 416.7,379.9 412.4,374.3 408.0,369.0 403.6,364.2 399.3,359.7 394.9,355.7 390.5,352.0 386.2,348.8 381.8,346.0 377.4,343.5 373.1,341.5 368.7,339.9 364.3,338.7 360.0,337.9 355.6,337.4 351.2,337.4 346.9,337.8 342.5,338.6 338.1,339.8 333.8,341.4 329.4,343.4 325.0,345.9 320.7,348.7 316.3,351.9 311.9,355.5 307.6,359.5 303.2,364.0 298.8,368.8 294.5,374.0 290.1,379.7 285.7,385.7 281.4,392.2 277.0,399.0" fill="none" stroke-width="1.38" /><circle cx="408.0" cy="369.0" r="3.5" fill="none" stroke-width="1" /></g></svg>