<?xml version='1.0' encoding='utf-8'?>
<svg xmlns="http://www.w3.org/2000/svg" xmlns:inkscape="http://www.inkscape.org/namespaces/inkscape" viewBox="204 228 408 600"><style>*{vector-effect:non-scaling-stroke}</style><g id="01_Black_Frame" inkscape:groupmode="layer" inkscape:label="01_Black_Frame" stroke="#1A1A1A" fill="none" stroke-width="0.875" stroke-linecap="round" stroke-linejoin="round"><path d="M 250.0,264.0 L 566.0,264.0 Q 576.0,264.0 576.0,274.0 L 576.0,782.0 Q 576.0,792.0 566.0,792.0 L 250.0,792.0 Q 240.0,792.0 240.0,782.0 L 240.0,274.0 Q 240.0,264.0 250.0,264.0" /><path d="M 253.0,270.0 L 563.0,270.0 Q 570.0,270.0 570.0,277.0 L 570.0,779.0 Q 570.0,786.0 563.0,786.0 L 253.0,786.0 Q 246.0,786.0 246.0,779.0 L 246.0,277.0 Q 246.0,270.0 253.0,270.0" /><line x1="259.0" y1="280.0" x2="263.0" y2="280.0" /><line x1="258.1" y1="282.1" x2="260.9" y2="284.9" /><line x1="256.0" y1="283.0" x2="256.0" y2="287.0" /><line x1="253.9" y1="282.1" x2="251.1" y2="284.9" /><line x1="253.0" y1="280.0" x2="249.0" y2="280.0" /><line x1="253.9" y1="277.9" x2="251.1" y2="275.1" /><line x1="256.0" y1="277.0" x2="256.0" y2="273.0" /><line x1="258.1" y1="277.9" x2="260.9" y2="275.1" /><line x1="563.0" y1="280.0" x2="567.0" y2="280.0" /><line x1="562.1" y1="282.1" x2="564.9" y2="284.9" /><line x1="560.0" y1="283.0" x2="560.0" y2="287.0" /><line x1="557.9" y1="282.1" x2="555.1" y2="284.9" /><line x1="557.0" y1="280.0" x2="553.0" y2="280.0" /><line x1="557.9" y1="277.9" x2="555.1" y2="275.1" /><line x1="560.0" y1="277.0" x2="560.0" y2="273.0" /><line x1="562.1" y1="277.9" x2="564.9" y2="275.1" /><line x1="259.0" y1="776.0" x2="263.0" y2="776.0" /><line x1="258.1" y1="778.1" x2="260.9" y2="780.9" /><line x1="256.0" y1="779.0" x2="256.0" y2="783.0" /><line x1="253.9" y1="778.1" x2="251.1" y2="780.9" /><line x1="253.0" y1="776.0" x2="249.0" y2="776.0" /><line x1="253.9" y1="773.9" x2="251.1" y2="771.1" /><line x1="256.0" y1="773.0" x2="256.0" y2="769.0" /><line x1="258.1" y1="773.9" x2="260.9" y2="771.1" /><line x1="563.0" y1="776.0" x2="567.0" y2="776.0" /><line x1="562.1" y1="778.1" x2="564.9" y2="780.9" /><line x1="560.0" y1="779.0" x2="560.0" y2="783.0" /><line x1="557.9" y1="778.1" x2="555.1" y2="780.9" /><line x1="557.0" y1="776.0" x2="553.0" y2="776.0" /><line x1="557.9" y1="773.9" x2="555.1" y2="771.1" /><line x1="560.0" y1="773.0" x2="560.0" y2="769.0" /><line x1="562.1" y1="773.9" x2="564.9" y2="771.1" /><polyline points="396.50,282.00 401.50,290.00" /><polyline points="401.50,282.00 396.50,290.00" /><polyline points="406.75,283.20 405.00,282.00 404.00,282.00 402.25,283.60 402.25,288.40 404.00,290.00 405.00,290.00 406.75,288.80" /><polyline points="410.50,282.00 410.50,290.00" /><polyline points="413.75,282.00 416.25,290.00 418.75,282.00" /><polyline points="366.89,297.00 373.39,297.00" /><polyline points="370.14,297.00 370.14,307.00" /><polyline points="374.36,297.00 374.36,307.00" /><polyline points="380.86,297.00 380.86,307.00" /><polyline points="374.36,301.80 380.86,301.80" /><polyline points="387.36,297.00 381.84,297.00 381.84,301.80 385.74,301.80" /><polyline points="381.84,301.80 381.84,307.00 387.36,307.00" /><polyline points="396.79,297.00 400.04,307.00 403.29,297.00" /><polyline points="404.26,307.00 407.51,297.00 410.76,307.00" /><polyline points="405.43,303.50 409.59,303.50" /><polyline points="411.74,307.00 411.74,297.00 418.24,307.00 418.24,297.00" /><polyline points="419.21,297.00 425.71,297.00" /><polyline points="422.46,297.00 422.46,307.00" /><polyline points="426.69,307.00 429.94,297.00 433.19,307.00" /><polyline points="427.86,303.50 432.02,303.50" /><polyline points="440.01,298.50 437.74,297.00 436.44,297.00 434.16,299.00 434.16,305.00 436.44,307.00 437.74,307.00 440.01,305.50 440.01,302.00 437.41,302.00" /><polyline points="447.16,297.00 441.64,297.00 441.64,301.80 445.54,301.80" /><polyline points="441.64,301.80 441.64,307.00 447.16,307.00" /><line x1="270.0" y1="312.0" x2="546.0" y2="312.0" /><line x1="270.0" y1="732.0" x2="546.0" y2="732.0" /><polyline points="369.36,740.75 370.06,745.25 370.76,742.33 371.46,745.25 372.16,740.75" /><polyline points="372.58,745.25 373.98,740.75 375.38,745.25" /><polyline points="373.08,743.67 374.88,743.67" /><polyline points="375.80,745.25 375.80,740.75 377.62,740.75 378.32,741.42 378.32,742.19 377.62,742.77 375.80,742.77 378.32,745.25" /><polyline points="385.46,745.25 385.46,740.75 386.86,743.23 388.26,740.75 388.26,745.25" /><polyline points="390.08,740.75 388.96,741.20 388.68,742.10 388.68,743.90 388.96,744.80 390.08,745.25 391.20,744.80 391.48,743.90 391.48,742.10 391.20,741.20 390.08,740.75" /><polyline points="393.30,740.75 392.18,741.20 391.90,742.10 391.90,743.90 392.18,744.80 393.30,745.25 394.42,744.80 394.70,743.90 394.70,742.10 394.42,741.20 393.30,740.75" /><polyline points="395.12,745.25 395.12,740.75 397.92,745.25 397.92,740.75" /><polyline points="404.78,745.25 404.78,740.75 406.60,740.75 407.16,741.29 407.16,742.01 406.60,742.55 404.78,742.55 406.60,742.55 407.16,743.09 407.16,744.71 406.60,745.25 404.78,745.25" /><polyline points="408.00,745.25 408.00,740.75 409.82,740.75 410.52,741.42 410.52,742.19 409.82,742.77 408.00,742.77 410.52,745.25" /><polyline points="412.62,740.75 412.62,745.25" /><polyline points="414.44,745.25 414.44,740.75 415.98,740.75 416.96,741.88 416.96,744.12 415.98,745.25 414.44,745.25" /><polyline points="420.18,741.42 419.20,740.75 418.64,740.75 417.66,741.65 417.66,744.35 418.64,745.25 419.20,745.25 420.18,744.58 420.18,743.00 419.06,743.00" /><polyline points="423.26,740.75 420.88,740.75 420.88,742.91 422.56,742.91" /><polyline points="420.88,742.91 420.88,745.25 423.26,745.25" /><polyline points="430.54,745.25 430.54,740.75 432.08,740.75 433.06,741.88 433.06,744.12 432.08,745.25 430.54,745.25" /><polyline points="433.76,745.25 433.76,740.75 435.58,740.75 436.28,741.42 436.28,742.19 435.58,742.77 433.76,742.77 436.28,745.25" /><polyline points="438.38,740.75 437.26,741.20 436.98,742.10 436.98,743.90 437.26,744.80 438.38,745.25 439.50,744.80 439.78,743.90 439.78,742.10 439.50,741.20 438.38,740.75" /><polyline points="440.20,745.25 440.20,740.75 443.00,745.25 443.00,740.75" /><polyline points="445.80,740.75 443.42,740.75 443.42,742.91 445.10,742.91" /><polyline points="443.42,742.91 443.42,745.25 445.80,745.25" /><polyline points="354.75,753.25 350.50,753.25 350.50,756.85 353.50,756.85" /><polyline points="350.50,756.85 350.50,760.75" /><polyline points="356.25,760.75 356.25,753.25 359.50,753.25 360.75,754.38 360.75,755.65 359.50,756.62 356.25,756.62 360.75,760.75" /><polyline points="364.50,753.25 362.50,754.00 362.00,755.50 362.00,758.50 362.50,760.00 364.50,760.75 366.50,760.00 367.00,758.50 367.00,755.50 366.50,754.00 364.50,753.25" /><polyline points="367.75,760.75 367.75,753.25 370.25,757.38 372.75,753.25 372.75,760.75" /><polyline points="383.50,753.25 379.25,753.25 379.25,756.85 382.25,756.85" /><polyline points="379.25,756.85 379.25,760.75" /><polyline points="385.00,760.75 387.50,753.25 390.00,760.75" /><polyline points="385.90,758.12 389.10,758.12" /><polyline points="390.75,760.75 390.75,753.25 394.00,753.25 395.25,754.38 395.25,755.65 394.00,756.62 390.75,756.62 395.25,760.75" /><polyline points="406.50,753.25 402.25,753.25 402.25,756.85 405.25,756.85" /><polyline points="402.25,756.85 402.25,760.75 406.50,760.75" /><polyline points="408.00,760.75 408.00,753.25 413.00,760.75 413.00,753.25" /><polyline points="416.25,753.25 414.25,754.00 413.75,755.50 413.75,758.50 414.25,760.00 416.25,760.75 418.25,760.00 418.75,758.50 418.75,755.50 418.25,754.00 416.25,753.25" /><polyline points="419.50,753.25 419.50,758.88 420.50,760.38 423.50,760.38 424.50,758.88 424.50,753.25" /><polyline points="429.75,754.38 428.00,753.25 427.00,753.25 425.25,754.75 425.25,759.25 427.00,760.75 428.00,760.75 429.75,759.62 429.75,757.00 427.75,757.00" /><polyline points="431.00,753.25 431.00,760.75" /><polyline points="436.00,753.25 436.00,760.75" /><polyline points="431.00,756.85 436.00,756.85" /><polyline points="442.50,760.75 445.00,753.25 447.50,760.75" /><polyline points="443.40,758.12 446.60,758.12" /><polyline points="448.25,753.25 449.50,760.75 450.75,755.88 452.00,760.75 453.25,753.25" /><polyline points="454.00,760.75 456.50,753.25 459.00,760.75" /><polyline points="454.90,758.12 458.10,758.12" /><polyline points="459.75,753.25 462.25,757.00 464.75,753.25" /><polyline points="462.25,757.00 462.25,760.75" /><polyline points="336.12,766.25 338.62,770.00 341.12,766.25" /><polyline points="338.62,770.00 338.62,773.75" /><polyline points="344.38,766.25 342.38,767.00 341.88,768.50 341.88,771.50 342.38,773.00 344.38,773.75 346.38,773.00 346.88,771.50 346.88,768.50 346.38,767.00 344.38,766.25" /><polyline points="347.62,766.25 347.62,771.88 348.62,773.38 351.62,773.38 352.62,771.88 352.62,766.25" /><polyline points="363.62,767.38 361.88,766.25 360.88,766.25 359.12,767.75 359.12,772.25 360.88,773.75 361.88,773.75 363.62,772.62" /><polyline points="364.88,773.75 367.38,766.25 369.88,773.75" /><polyline points="365.77,771.12 368.98,771.12" /><polyline points="370.62,773.75 370.62,766.25 375.62,773.75 375.62,766.25" /><polyline points="382.12,773.75 382.12,766.25 387.12,773.75 387.12,766.25" /><polyline points="390.38,766.25 388.38,767.00 387.88,768.50 387.88,771.50 388.38,773.00 390.38,773.75 392.38,773.00 392.88,771.50 392.88,768.50 392.38,767.00 390.38,766.25" /><polyline points="393.62,766.25 398.62,766.25" /><polyline points="396.12,766.25 396.12,773.75" /><polyline points="409.38,767.00 408.12,766.25 406.62,766.25 405.38,767.38 405.12,768.50 405.88,769.40 407.62,770.00 409.38,770.60 410.12,771.50 409.88,772.62 408.62,773.75 406.88,773.75 405.62,773.00" /><polyline points="415.12,766.25 410.88,766.25 410.88,769.85 413.88,769.85" /><polyline points="410.88,769.85 410.88,773.75 415.12,773.75" /><polyline points="420.88,766.25 416.62,766.25 416.62,769.85 419.62,769.85" /><polyline points="416.62,769.85 416.62,773.75 420.88,773.75" /><polyline points="428.12,766.25 433.12,766.25" /><polyline points="430.62,766.25 430.62,773.75" /><polyline points="433.88,766.25 433.88,773.75" /><polyline points="438.88,766.25 438.88,773.75" /><polyline points="433.88,769.85 438.88,769.85" /><polyline points="443.88,766.25 439.62,766.25 439.62,769.85 442.62,769.85" /><polyline points="439.62,769.85 439.62,773.75 443.88,773.75" /><polyline points="455.38,766.25 451.12,766.25 451.12,769.85 454.12,769.85" /><polyline points="451.12,769.85 451.12,773.75" /><polyline points="459.38,766.25 459.38,773.75" /><polyline points="462.62,773.75 462.62,766.25 465.88,766.25 467.12,767.38 467.12,768.65 465.88,769.62 462.62,769.62 467.12,773.75" /><polyline points="472.62,766.25 468.38,766.25 468.38,769.85 471.38,769.85" /><polyline points="468.38,769.85 468.38,773.75 472.62,773.75" /><polyline points="478.38,767.00 477.12,766.25 475.62,766.25 474.38,767.38 474.12,768.50 474.88,769.40 476.62,770.00 478.38,770.60 479.12,771.50 478.88,772.62 477.62,773.75 475.88,773.75 474.62,773.00" /><polyline points="387.52,779.50 387.52,784.50" /><polyline points="389.60,779.50 391.20,784.50 392.80,779.50" /><polyline points="394.88,784.00 394.88,784.25" /><polyline points="398.56,779.50 398.56,784.50" /><polyline points="400.64,779.50 402.24,784.50 403.84,779.50" /><polyline points="405.92,784.00 405.92,784.25" /><polyline points="408.00,784.50 408.00,779.50 409.60,782.25 411.20,779.50 411.20,784.50" /><polyline points="411.68,784.50 411.68,779.50 413.28,782.25 414.88,779.50 414.88,784.50" /><polyline points="415.36,779.50 418.56,784.50" /><polyline points="418.56,779.50 415.36,784.50" /><polyline points="419.04,779.50 422.24,784.50" /><polyline points="422.24,779.50 419.04,784.50" /><polyline points="422.72,779.50 424.32,784.50 425.92,779.50" /><polyline points="428.00,779.50 428.00,784.50" /></g><g id="02_Teal_Image" inkscape:groupmode="layer" inkscape:label="02_Teal_Image" stroke="#3A7A7A" fill="none" stroke-width="0.75" stroke-linecap="round" stroke-linejoin="round"><line x1="386.45" y1="398.88" x2="368.34" y2="424.75" /><line x1="392.56" y1="395.73" x2="367.47" y2="431.56" /><line x1="397.67" y1="394.02" x2="367.61" y2="436.95" /><line x1="402.22" y1="393.09" x2="368.30" y2="441.54" /><line x1="406.40" y1="392.71" x2="369.37" y2="445.59" /><line x1="410.28" y1="392.74" x2="370.73" y2="449.23" /><line x1="413.93" y1="393.12" x2="372.32" y2="452.53" /><line x1="417.37" y1="393.78" x2="374.12" y2="455.54" /><line x1="420.63" y1="394.70" x2="376.10" y2="458.29" /><line x1="423.73" y1="395.85" x2="378.25" y2="460.81" /><line x1="426.67" y1="397.23" x2="380.55" y2="463.10" /><line x1="429.46" y1="398.82" x2="383.00" y2="465.18" /><line x1="432.11" y1="400.62" x2="385.60" y2="467.05" /><line x1="434.61" y1="402.63" x2="388.34" y2="468.71" /><line x1="436.96" y1="404.85" x2="391.22" y2="470.17" /><line x1="439.17" y1="407.28" x2="394.27" y2="471.40" /><line x1="441.21" y1="409.95" x2="397.47" y2="472.41" /><line x1="443.07" y1="412.86" x2="400.85" y2="473.16" /><line x1="444.74" y1="416.06" x2="404.42" y2="473.64" /><line x1="446.19" y1="419.57" x2="408.21" y2="473.80" /><line x1="447.36" y1="423.47" x2="412.28" y2="473.57" /><line x1="448.20" y1="427.85" x2="416.69" y2="472.86" /><line x1="448.56" y1="432.92" x2="421.57" y2="471.46" /><line x1="448.13" y1="439.11" x2="427.24" y2="468.95" /><line x1="371.89" y1="451.71" x2="396.08" y2="472.01" /><line x1="369.29" y1="445.35" x2="402.79" y2="473.46" /><line x1="368.03" y1="440.11" x2="408.17" y2="473.80" /><line x1="367.50" y1="435.50" x2="412.81" y2="473.51" /><line x1="367.49" y1="431.31" x2="416.94" y2="472.80" /><line x1="367.86" y1="427.44" x2="420.68" y2="471.77" /><line x1="368.54" y1="423.84" x2="424.11" y2="470.46" /><line x1="369.50" y1="420.47" x2="427.26" y2="468.93" /><line x1="370.70" y1="417.30" x2="430.18" y2="467.20" /><line x1="372.13" y1="414.31" x2="432.87" y2="465.28" /><line x1="373.76" y1="411.50" x2="435.35" y2="463.19" /><line x1="375.58" y1="408.86" x2="437.64" y2="460.93" /><line x1="377.61" y1="406.38" x2="439.73" y2="458.51" /><line x1="379.82" y1="404.06" x2="441.63" y2="455.92" /><line x1="382.24" y1="401.91" x2="443.33" y2="453.17" /><line x1="384.86" y1="399.93" x2="444.82" y2="450.25" /><line x1="387.69" y1="398.13" x2="446.10" y2="447.14" /><line x1="390.76" y1="396.53" x2="447.15" y2="443.85" /><line x1="394.08" y1="395.14" x2="447.94" y2="440.33" /><line x1="397.71" y1="394.01" x2="448.42" y2="436.56" /><line x1="401.69" y1="393.17" x2="448.55" y2="432.49" /><line x1="406.14" y1="392.72" x2="448.23" y2="428.04" /><line x1="411.22" y1="392.81" x2="447.26" y2="423.05" /><line x1="417.34" y1="393.77" x2="445.25" y2="417.19" /><polyline points="448.56,433.24 448.36,437.22 447.78,441.15 446.81,445.01 445.47,448.76 443.77,452.36 441.72,455.77 439.35,458.97 436.68,461.92 433.73,464.59 430.53,466.96 427.12,469.01 423.52,470.71 419.77,472.05 415.91,473.02 411.98,473.60 408.00,473.80 404.02,473.60 400.09,473.02 396.23,472.05 392.48,470.71 388.88,469.01 385.47,466.96 382.27,464.59 379.32,461.92 376.65,458.97 374.28,455.77 372.23,452.36 370.53,448.76 369.19,445.01 368.22,441.15 367.64,437.22 367.44,433.24 367.64,429.26 368.22,425.33 369.19,421.47 370.53,417.72 372.23,414.12 374.28,410.71 376.65,407.51 379.32,404.56 382.27,401.89 385.47,399.52 388.88,397.47 392.48,395.77 396.23,394.43 400.09,393.46 404.02,392.88 408.00,392.68 411.98,392.88 415.91,393.46 419.77,394.43 423.52,395.77 427.12,397.47 430.53,399.52 433.73,401.89 436.68,404.56 439.35,407.51 441.72,410.71 443.77,414.12 445.47,417.72 446.81,421.47 447.78,425.33 448.36,429.26 448.56,433.24" /><polyline points="421.19,410.40 421.87,411.95 422.34,413.61 422.63,415.32 422.76,417.02 422.76,418.67 422.68,420.24 422.55,421.68 422.44,422.98 422.38,424.15 422.42,425.17 422.60,426.07 422.94,426.87 423.47,427.61 424.17,428.32 425.05,429.04 426.09,429.80 427.23,430.64 428.45,431.59 429.70,432.66 430.90,433.86 432.02,435.18 432.98,436.61 433.74,438.14 434.27,439.71 434.51,441.31 434.46,442.87 434.10,444.36 433.45,445.74 432.51,446.96 431.33,447.99 429.94,448.82 428.38,449.43 426.72,449.82 424.99,450.01 423.27,450.02 421.58,449.88 419.98,449.63 418.48,449.34 417.12,449.03" /><polyline points="406.53,441.59 405.93,441.88 405.26,442.27 404.49,442.72 403.60,443.22 402.60,443.73 401.48,444.23 400.24,444.68 398.90,445.06 397.47,445.34 395.98,445.48 394.44,445.47 392.90,445.30 391.38,444.95 389.92,444.42 388.55,443.70 387.30,442.81 386.22,441.77 385.31,440.58 384.61,439.28 384.13,437.89 383.90,436.45 383.90,434.98 384.14,433.53 384.62,432.11 385.31,430.77 386.21,429.53 387.27,428.42 388.49,427.44 389.81,426.62" /><line x1="362.37" y1="416.63" x2="286.00" y2="388.84" /><line x1="370.80" y1="402.03" x2="341.25" y2="377.23" /><line x1="383.72" y1="391.19" x2="344.49" y2="323.23" /><line x1="399.57" y1="385.42" x2="390.65" y2="334.84" /><line x1="416.43" y1="385.42" x2="425.92" y2="331.58" /><line x1="432.28" y1="391.19" x2="460.77" y2="341.84" /><line x1="445.20" y1="402.03" x2="493.56" y2="361.45" /><polyline points="470.43,653.56 470.51,644.72 473.89,634.65 472.36,627.74 474.82,619.42 478.80,609.69 481.58,598.70 484.88,587.00 483.75,581.09 482.34,575.83 480.49,566.28 479.43,560.36 483.12,548.89" /><polyline points="493.62,653.56 492.75,646.44 493.16,637.29 489.48,630.32 488.81,618.58 488.48,607.22 489.71,599.76 492.23,589.70 490.14,582.85 492.74,574.76 494.67,566.67 498.18,558.29 498.15,550.71" /><polyline points="416.96,653.56 413.02,648.22 411.14,640.27 410.47,630.57 412.88,619.41 415.43,612.20 414.78,606.28 417.68,600.18 416.56,588.62 414.67,577.73 413.67,572.13 410.66,565.28 406.78,556.96" /><polyline points="471.67,653.56 475.62,643.46 473.79,636.76 474.85,626.48 470.97,618.49 467.13,611.58 465.90,600.60 464.05,589.44 467.46,579.33 464.76,572.30 465.56,563.76 469.14,553.65 468.67,545.09" /><polyline points="499.36,653.56 499.14,643.34 497.73,635.65 495.94,628.01 497.70,617.50 497.61,612.22 498.33,603.15 498.86,596.54 499.99,590.73 499.74,583.46 496.90,574.86 494.00,563.86 494.46,554.02" /></g><g id="03_Gold_Accent" inkscape:groupmode="layer" inkscape:label="03_Gold_Accent" stroke="#B8960C" fill="none" stroke-width="0.875" stroke-linecap="round" stroke-linejoin="round"><line x1="369.07" y1="704.83" x2="370.29" y2="701.13" /><line x1="481.49" y1="683.34" x2="480.84" y2="678.88" /><line x1="398.39" y1="718.62" x2="399.03" y2="715.12" /><line x1="405.55" y1="676.41" x2="404.59" y2="671.68" /><line x1="483.74" y1="688.64" x2="484.70" y2="686.58" /><line x1="369.25" y1="660.32" x2="368.86" y2="654.95" /><line x1="349.54" y1="694.96" x2="350.03" y2="689.22" /><line x1="414.34" y1="655.02" x2="414.83" y2="649.64" /><line x1="417.08" y1="694.43" x2="417.93" y2="692.01" /><line x1="322.98" y1="677.89" x2="323.22" y2="673.71" /><line x1="374.47" y1="684.93" x2="373.43" y2="679.07" /><line x1="490.29" y1="694.64" x2="489.93" y2="689.71" /><line x1="320.09" y1="718.45" x2="320.50" y2="714.95" /><line x1="479.11" y1="695.87" x2="478.71" y2="692.83" /><line x1="325.13" y1="710.47" x2="324.85" y2="706.92" /><line x1="476.57" y1="710.08" x2="477.60" y2="705.20" /><line x1="380.84" y1="653.99" x2="379.95" y2="649.91" /><line x1="472.61" y1="699.22" x2="472.07" y2="695.74" /><line x1="542.96" y1="709.86" x2="541.66" y2="706.33" /><line x1="482.63" y1="702.80" x2="481.14" y2="696.84" /><line x1="294.43" y1="697.41" x2="294.57" y2="693.67" /><line x1="316.07" y1="706.89" x2="317.40" y2="701.08" /><line x1="438.08" y1="654.83" x2="438.80" y2="652.67" /><line x1="333.68" y1="706.07" x2="332.89" y2="700.42" /><line x1="312.60" y1="675.96" x2="313.17" y2="671.74" /><line x1="490.48" y1="656.09" x2="490.83" y2="653.16" /><line x1="512.76" y1="700.83" x2="513.22" y2="696.77" /><line x1="319.64" y1="669.53" x2="320.32" y2="666.67" /><line x1="427.41" y1="679.57" x2="426.59" y2="676.37" /><line x1="357.55" y1="715.83" x2="357.97" y2="712.55" /><line x1="444.92" y1="713.68" x2="444.23" y2="708.16" /><line x1="520.73" y1="658.28" x2="520.31" y2="653.01" /><line x1="501.35" y1="684.29" x2="500.22" y2="679.93" /><line x1="287.59" y1="717.22" x2="286.42" y2="712.76" /><line x1="348.23" y1="666.25" x2="349.05" y2="660.26" /><line x1="359.79" y1="667.12" x2="360.01" y2="664.64" /><line x1="469.90" y1="710.83" x2="470.28" y2="708.15" /><line x1="345.29" y1="696.43" x2="346.19" y2="694.16" /><line x1="454.84" y1="709.55" x2="453.68" y2="705.91" /><line x1="404.49" y1="658.87" x2="404.72" y2="656.25" /><line x1="296.64" y1="698.34" x2="296.44" y2="693.31" /><line x1="493.14" y1="692.80" x2="492.15" y2="687.94" /><line x1="489.57" y1="666.36" x2="490.32" y2="664.16" /><line x1="286.60" y1="710.63" x2="287.41" y2="707.65" /><line x1="334.88" y1="704.76" x2="334.15" y2="699.04" /><line x1="503.68" y1="672.00" x2="503.96" y2="664.94" /><line x1="506.50" y1="672.27" x2="505.30" y2="664.67" /><line x1="505.47" y1="673.36" x2="507.04" y2="669.01" /><line x1="501.48" y1="672.88" x2="502.43" y2="667.12" /><line x1="342.40" y1="694.59" x2="343.84" y2="687.07" /><line x1="339.32" y1="694.77" x2="337.43" y2="688.23" /><line x1="341.34" y1="696.36" x2="340.77" y2="690.99" /><line x1="339.81" y1="695.47" x2="337.83" y2="690.67" /><line x1="433.65" y1="658.52" x2="434.81" y2="652.46" /><line x1="433.85" y1="659.68" x2="434.14" y2="654.73" /><line x1="430.76" y1="659.15" x2="429.40" y2="650.80" /><line x1="430.46" y1="658.77" x2="432.35" y2="652.31" /><line x1="507.84" y1="711.96" x2="508.79" y2="704.88" /><line x1="507.03" y1="713.05" x2="507.83" y2="706.82" /><line x1="509.89" y1="712.76" x2="511.09" y2="708.63" /><line x1="508.33" y1="711.99" x2="508.35" y2="706.24" /><line x1="449.32" y1="689.48" x2="448.34" y2="684.30" /><line x1="446.22" y1="690.39" x2="448.17" y2="685.09" /><line x1="450.34" y1="690.59" x2="449.52" y2="684.05" /><line x1="444.92" y1="689.66" x2="444.39" y2="684.81" /><line x1="357.45" y1="693.63" x2="359.16" y2="688.60" /><line x1="360.62" y1="692.02" x2="361.43" y2="684.63" /><line x1="362.29" y1="693.53" x2="362.44" y2="684.67" /><line x1="357.68" y1="693.23" x2="359.60" y2="687.98" /><line x1="325.07" y1="670.17" x2="323.89" y2="664.25" /><line x1="322.25" y1="670.61" x2="324.21" y2="662.45" /><line x1="327.75" y1="669.61" x2="328.87" y2="660.83" /><line x1="327.47" y1="671.34" x2="326.05" y2="666.37" /><line x1="343.95" y1="689.78" x2="342.78" y2="683.05" /><line x1="342.77" y1="689.46" x2="341.97" y2="682.23" /><line x1="341.71" y1="690.30" x2="340.20" y2="686.12" /><line x1="341.11" y1="690.12" x2="342.26" y2="681.93" /></g></svg>