<?xml version='1.0' encoding='utf-8'?>
<svg xmlns="http://www.w3.org/2000/svg" xmlns:inkscape="http://www.inkscape.org/namespaces/inkscape" viewBox="204 228 408 600"><style>*{vector-effect:non-scaling-stroke}</style><g id="01_Black_Frame" inkscape:groupmode="layer" inkscape:label="01_Black_Frame" stroke="#1A1A1A" fill="none" stroke-width="0.875" stroke-linecap="round" stroke-linejoin="round"><path d="M 250.0,264.0 L 566.0,264.0 Q 576.0,264.0 576.0,274.0 L 576.0,782.0 Q 576.0,792.0 566.0,792.0 L 250.0,792.0 Q 240.0,792.0 240.0,782.0 L 240.0,274.0 Q 240.0,264.0 250.0,264.0" /><path d="M 253.0,270.0 L 563.0,270.0 Q 570.0,270.0 570.0,277.0 L 570.0,779.0 Q 570.0,786.0 563.0,786.0 L 253.0,786.0 Q 246.0,786.0 246.0,779.0 L 246.0,277.0 Q 246.0,270.0 253.0,270.0" /><line x1="259.0" y1="280.0" x2="263.0" y2="280.0" /><line x1="258.1" y1="282.1" x2="260.9" y2="284.9" /><line x1="256.0" y1="283.0" x2="256.0" y2="287.0" /><line x1="253.9" y1="282.1" x2="251.1" y2="284.9" /><line x1="253.0" y1="280.0" x2="249.0" y2="280.0" /><line x1="253.9" y1="277.9" x2="251.1" y2="275.1" /><line x1="256.0" y1="277.0" x2="256.0" y2="273.0" /><line x1="258.1" y1="277.9" x2="260.9" y2="275.1" /><line x1="563.0" y1="280.0" x2="567.0" y2="280.0" /><line x1="562.1" y1="282.1" x2="564.9" y2="284.9" /><line x1="560.0" y1="283.0" x2="560.0" y2="287.0" /><line x1="557.9" y1="282.1" x2="555.1" y2="284.9" /><line x1="557.0" y1="280.0" x2="553.0" y2="280.0" /><line x1="557.9" y1="277.9" x2="555.1" y2="275.1" /><line x1="560.0" y1="277.0" x2="560.0" y2="273.0" /><line x1="562.1" y1="277.9" x2="564.9" y2="275.1" /><line x1="259.0" y1="776.0" x2="263.0" y2="776.0" /><line x1="258.1" y1="778.1" x2="260.9" y2="780.9" /><line x1="256.0" y1="779.0" x2="256.0" y2="783.0" /><line x1="253.9" y1="778.1" x2="251.1" y2="780.9" /><line x1="253.0" y1="776.0" x2="249.0" y2="776.0" /><line x1="253.9" y1="773.9" x2="251.1" y2="771.1" /><line x1="256.0" y1="773.0" x2="256.0" y2="769.0" /><line x1="258.1" y1="773.9" x2="260.9" y2="771.1" /><line x1="563.0" y1="776.0" x2="567.0" y2="776.0" /><line x1="562.1" y1="778.1" x2="564.9" y2="780.9" /><line x1="560.0" y1="779.0" x2="560.0" y2="783.0" /><line x1="557.9" y1="778.1" x2="555.1" y2="780.9" /><line x1="557.0" y1="776.0" x2="553.0" y2="776.0" /><line x1="557.9" y1="773.9" x2="555.1" y2="771.1" /><line x1="560.0" y1="773.0" x2="560.0" y2="769.0" /><line x1="562.1" y1="773.9" x2="564.9" y2="771.1" /><polyline points="401.00,283.20 399.25,282.00 398.25,282.00 396.50,283.60 396.50,288.40 398.25,290.00 399.25,290.00 401.00,288.80" /><polyline points="402.25,282.00 402.25,290.00 406.50,290.00" /><polyline points="410.50,282.00 410.50,290.00" /><polyline points="416.25,282.00 416.25,290.00" /><polyline points="374.36,297.00 380.86,297.00" /><polyline points="377.61,297.00 377.61,307.00" /><polyline points="381.84,297.00 381.84,307.00" /><polyline points="388.34,297.00 388.34,307.00" /><polyline points="381.84,301.80 388.34,301.80" /><polyline points="394.84,297.00 389.31,297.00 389.31,301.80 393.21,301.80" /><polyline points="389.31,301.80 389.31,307.00 394.84,307.00" /><polyline points="404.26,297.00 410.76,297.00" /><polyline points="407.51,297.00 407.51,307.00" /><polyline points="411.74,307.00 414.99,297.00 418.24,307.00" /><polyline points="412.91,303.50 417.07,303.50" /><polyline points="419.21,297.00 419.21,307.00 424.74,307.00" /><polyline points="426.69,297.00 426.69,307.00 432.21,307.00" /><polyline points="434.16,297.00 437.41,302.00 440.66,297.00" /><polyline points="437.41,302.00 437.41,307.00" /><line x1="270.0" y1="312.0" x2="546.0" y2="312.0" /><line x1="270.0" y1="732.0" x2="546.0" y2="732.0" /><polyline points="377.41,745.25 377.41,740.75 379.23,740.75 379.79,741.29 379.79,742.01 379.23,742.55 377.41,742.55 379.23,742.55 379.79,743.09 379.79,744.71 379.23,745.25 377.41,745.25" /><polyline points="382.03,740.75 380.91,741.20 380.63,742.10 380.63,743.90 380.91,744.80 382.03,745.25 383.15,744.80 383.43,743.90 383.43,742.10 383.15,741.20 382.03,740.75" /><polyline points="383.85,745.25 385.25,740.75 386.65,745.25" /><polyline points="384.35,743.67 386.15,743.67" /><polyline points="387.07,740.75 389.87,740.75" /><polyline points="388.47,740.75 388.47,745.25" /><polyline points="392.67,741.20 391.97,740.75 391.13,740.75 390.43,741.42 390.29,742.10 390.71,742.64 391.69,743.00 392.67,743.36 393.09,743.90 392.95,744.58 392.25,745.25 391.27,745.25 390.57,744.80" /><polyline points="402.47,741.42 401.49,740.75 400.93,740.75 399.95,741.65 399.95,744.35 400.93,745.25 401.49,745.25 402.47,744.58" /><polyline points="403.17,745.25 404.57,740.75 405.97,745.25" /><polyline points="403.67,743.67 405.47,743.67" /><polyline points="408.77,741.20 408.07,740.75 407.23,740.75 406.53,741.42 406.39,742.10 406.81,742.64 407.79,743.00 408.77,743.36 409.19,743.90 409.05,744.58 408.35,745.25 407.37,745.25 406.67,744.80" /><polyline points="409.61,740.75 412.41,740.75" /><polyline points="411.01,740.75 411.01,745.25" /><polyline points="412.83,740.75 412.83,745.25 415.21,745.25" /><polyline points="418.43,740.75 416.05,740.75 416.05,742.91 417.73,742.91" /><polyline points="416.05,742.91 416.05,745.25 418.43,745.25" /><polyline points="425.71,745.25 425.71,740.75 427.53,740.75 428.23,741.42 428.23,742.19 427.53,742.77 425.71,742.77" /><polyline points="430.33,740.75 430.33,745.25" /><polyline points="432.15,740.75 432.15,745.25 434.53,745.25" /><polyline points="435.37,740.75 435.37,745.25 437.75,745.25" /><polyline points="356.25,753.25 361.25,753.25" /><polyline points="358.75,753.25 358.75,760.75" /><polyline points="362.00,753.25 363.25,760.75 364.50,755.88 365.75,760.75 367.00,753.25" /><polyline points="370.25,753.25 368.25,754.00 367.75,755.50 367.75,758.50 368.25,760.00 370.25,760.75 372.25,760.00 372.75,758.50 372.75,755.50 372.25,754.00 370.25,753.25" /><polyline points="379.25,753.25 379.25,760.75" /><polyline points="384.25,753.25 384.25,760.75" /><polyline points="379.25,756.85 384.25,756.85" /><polyline points="385.00,753.25 385.00,758.88 386.00,760.38 389.00,760.38 390.00,758.88 390.00,753.25" /><polyline points="390.75,760.75 390.75,753.25 395.75,760.75 395.75,753.25" /><polyline points="396.50,760.75 396.50,753.25 399.25,753.25 401.00,755.12 401.00,758.88 399.25,760.75 396.50,760.75" /><polyline points="402.25,760.75 402.25,753.25 405.50,753.25 406.75,754.38 406.75,755.65 405.50,756.62 402.25,756.62 406.75,760.75" /><polyline points="412.25,753.25 408.00,753.25 408.00,756.85 411.00,756.85" /><polyline points="408.00,756.85 408.00,760.75 412.25,760.75" /><polyline points="413.75,760.75 413.75,753.25 416.50,753.25 418.25,755.12 418.25,758.88 416.50,760.75 413.75,760.75" /><polyline points="422.00,760.00 422.00,760.38" /><polyline points="435.25,753.25 431.00,753.25 431.00,756.85 434.00,756.85" /><polyline points="431.00,756.85 431.00,760.75" /><polyline points="439.25,753.25 439.25,760.75" /><polyline points="442.50,753.25 445.00,760.75 447.50,753.25" /><polyline points="452.50,753.25 448.25,753.25 448.25,756.85 451.25,756.85" /><polyline points="448.25,756.85 448.25,760.75 452.50,760.75" /><polyline points="456.50,760.00 456.50,760.38" /><polyline points="367.75,773.75 367.75,766.25 372.75,773.75 372.75,766.25" /><polyline points="376.00,766.25 374.00,767.00 373.50,768.50 373.50,771.50 374.00,773.00 376.00,773.75 378.00,773.00 378.50,771.50 378.50,768.50 378.00,767.00 376.00,766.25" /><polyline points="379.25,766.25 384.25,766.25" /><polyline points="381.75,766.25 381.75,773.75" /><polyline points="393.25,766.25 391.25,767.00 390.75,768.50 390.75,771.50 391.25,773.00 393.25,773.75 395.25,773.00 395.75,771.50 395.75,768.50 395.25,767.00 393.25,766.25" /><polyline points="396.50,773.75 396.50,766.25 401.50,773.75 401.50,766.25" /><polyline points="406.50,766.25 402.25,766.25 402.25,769.85 405.25,769.85" /><polyline points="402.25,769.85 402.25,773.75 406.50,773.75" /><polyline points="413.75,773.75 413.75,766.25 418.75,773.75 418.75,766.25" /><polyline points="419.50,773.75 422.00,766.25 424.50,773.75" /><polyline points="420.40,771.12 423.60,771.12" /><polyline points="425.25,773.75 425.25,766.25 427.75,770.38 430.25,766.25 430.25,773.75" /><polyline points="435.25,766.25 431.00,766.25 431.00,769.85 434.00,769.85" /><polyline points="431.00,769.85 431.00,773.75 435.25,773.75" /><polyline points="436.75,773.75 436.75,766.25 439.50,766.25 441.25,768.12 441.25,771.88 439.50,773.75 436.75,773.75" /><polyline points="445.00,773.00 445.00,773.38" /><polyline points="387.76,779.50 389.36,784.50 390.96,779.50" /><polyline points="393.04,779.50 393.04,784.50" /><polyline points="396.72,784.00 396.72,784.25" /><polyline points="400.40,779.50 400.40,784.50" /><polyline points="404.08,784.00 404.08,784.25" /><polyline points="406.16,784.50 406.16,779.50 407.76,782.25 409.36,779.50 409.36,784.50" /><polyline points="409.84,784.50 409.84,779.50 411.44,782.25 413.04,779.50 413.04,784.50" /><polyline points="413.52,779.50 416.72,784.50" /><polyline points="416.72,779.50 413.52,784.50" /><polyline points="417.20,779.50 420.40,784.50" /><polyline points="420.40,779.50 417.20,784.50" /><polyline points="420.88,779.50 422.48,784.50 424.08,779.50" /><polyline points="426.16,779.50 426.16,784.50" /></g><g id="02_Teal_Tally" inkscape:groupmode="layer" inkscape:label="02_Teal_Tally" stroke="#3A7A7A" fill="none" stroke-width="0.7" stroke-linecap="round" stroke-linejoin="round"><line x1="261.00" y1="328.78" x2="261.00" y2="352.15" /><line x1="266.01" y1="329.63" x2="266.01" y2="354.37" /><line x1="271.11" y1="329.12" x2="271.11" y2="352.98" /><line x1="275.20" y1="330.69" x2="275.20" y2="353.96" /><line x1="259.57" y1="354.25" x2="280.38" y2="329.72" /><line x1="285.16" y1="330.46" x2="285.16" y2="352.68" /><line x1="289.02" y1="330.62" x2="289.02" y2="354.40" /><line x1="292.70" y1="328.28" x2="292.70" y2="354.29" /><line x1="298.38" y1="328.36" x2="298.38" y2="352.34" /><line x1="281.98" y1="353.26" x2="303.10" y2="329.61" /><line x1="307.97" y1="328.29" x2="307.97" y2="353.31" /><line x1="311.60" y1="329.23" x2="311.60" y2="352.53" /><line x1="316.23" y1="328.44" x2="316.23" y2="354.11" /><line x1="321.16" y1="329.12" x2="321.16" y2="353.29" /><line x1="304.10" y1="353.31" x2="327.67" y2="329.40" /><line x1="331.01" y1="330.06" x2="331.01" y2="352.21" /><line x1="335.07" y1="328.13" x2="335.07" y2="352.51" /><line x1="338.72" y1="329.93" x2="338.72" y2="353.53" /><line x1="344.73" y1="330.95" x2="344.73" y2="352.08" /><line x1="327.88" y1="352.75" x2="350.96" y2="330.16" /><line x1="353.03" y1="329.78" x2="353.03" y2="352.82" /><line x1="357.41" y1="328.38" x2="357.41" y2="353.07" /><line x1="363.10" y1="330.53" x2="363.10" y2="354.60" /><line x1="367.72" y1="330.92" x2="367.72" y2="354.62" /><line x1="351.46" y1="353.47" x2="372.03" y2="329.87" /><line x1="377.10" y1="329.55" x2="377.10" y2="353.58" /><line x1="380.44" y1="330.25" x2="380.44" y2="353.90" /><line x1="385.78" y1="328.49" x2="385.78" y2="352.98" /><line x1="390.10" y1="330.65" x2="390.10" y2="353.85" /><line x1="373.86" y1="354.20" x2="396.28" y2="328.88" /><line x1="400.08" y1="329.29" x2="400.08" y2="353.37" /><line x1="404.58" y1="328.06" x2="404.58" y2="354.04" /><line x1="408.42" y1="328.53" x2="408.42" y2="353.30" /><line x1="412.25" y1="329.05" x2="412.25" y2="354.81" /><line x1="396.14" y1="353.88" x2="419.19" y2="330.32" /><line x1="422.90" y1="328.48" x2="422.90" y2="353.82" /><line x1="426.53" y1="329.65" x2="426.53" y2="354.90" /><line x1="431.01" y1="329.23" x2="431.01" y2="353.29" /><line x1="436.04" y1="330.11" x2="436.04" y2="354.40" /><line x1="420.32" y1="353.64" x2="442.92" y2="328.52" /><line x1="445.24" y1="329.37" x2="445.24" y2="352.49" /><line x1="449.18" y1="328.82" x2="449.18" y2="352.67" /><line x1="454.15" y1="330.56" x2="454.15" y2="352.53" /><line x1="459.51" y1="328.39" x2="459.51" y2="353.42" /><line x1="443.82" y1="353.27" x2="464.73" y2="329.60" /><line x1="468.25" y1="329.44" x2="468.25" y2="353.76" /><line x1="473.57" y1="330.34" x2="473.57" y2="354.61" /><line x1="477.26" y1="329.79" x2="477.26" y2="352.25" /><line x1="481.75" y1="328.34" x2="481.75" y2="353.85" /><line x1="465.50" y1="353.85" x2="487.22" y2="330.27" /><line x1="491.68" y1="328.91" x2="491.68" y2="354.89" /><line x1="496.73" y1="330.13" x2="496.73" y2="352.72" /><line x1="500.76" y1="329.92" x2="500.76" y2="354.18" /><line x1="505.11" y1="329.71" x2="505.11" y2="353.83" /><line x1="489.30" y1="353.80" x2="510.55" y2="329.85" /><line x1="515.09" y1="330.51" x2="515.09" y2="352.22" /><line x1="519.37" y1="329.13" x2="519.37" y2="354.21" /><line x1="522.96" y1="328.05" x2="522.96" y2="352.80" /><line x1="528.24" y1="329.64" x2="528.24" y2="353.62" /><line x1="512.42" y1="352.66" x2="533.28" y2="330.13" /><line x1="538.07" y1="329.18" x2="538.07" y2="354.66" /><line x1="541.69" y1="330.99" x2="541.69" y2="352.89" /><line x1="546.77" y1="328.96" x2="546.77" y2="354.30" /><line x1="550.65" y1="328.03" x2="550.65" y2="353.78" /><line x1="534.03" y1="353.88" x2="556.76" y2="329.24" /><line x1="261.80" y1="361.84" x2="261.80" y2="386.19" /><line x1="265.62" y1="361.93" x2="265.62" y2="387.52" /><line x1="270.06" y1="363.12" x2="270.06" y2="386.74" /><line x1="274.42" y1="362.84" x2="274.42" y2="385.96" /><line x1="259.41" y1="385.96" x2="281.01" y2="362.92" /><line x1="284.15" y1="363.56" x2="284.15" y2="386.31" /><line x1="288.66" y1="362.05" x2="288.66" y2="385.71" /><line x1="293.44" y1="362.57" x2="293.44" y2="385.52" /><line x1="298.35" y1="361.04" x2="298.35" y2="385.53" /><line x1="282.48" y1="386.89" x2="303.67" y2="363.26" /><line x1="307.57" y1="362.46" x2="307.57" y2="387.15" /><line x1="312.37" y1="362.25" x2="312.37" y2="386.17" /><line x1="316.21" y1="361.60" x2="316.21" y2="386.51" /><line x1="321.49" y1="362.34" x2="321.49" y2="386.42" /><line x1="304.47" y1="386.54" x2="326.85" y2="362.44" /><line x1="330.52" y1="361.57" x2="330.52" y2="387.00" /><line x1="335.21" y1="363.40" x2="335.21" y2="385.96" /><line x1="339.70" y1="363.38" x2="339.70" y2="386.82" /><line x1="343.91" y1="362.85" x2="343.91" y2="385.12" /><line x1="328.42" y1="386.39" x2="349.00" y2="362.85" /><line x1="352.98" y1="363.97" x2="352.98" y2="386.44" /><line x1="358.44" y1="363.05" x2="358.44" y2="386.39" /><line x1="362.79" y1="363.71" x2="362.79" y2="386.01" /><line x1="366.81" y1="362.95" x2="366.81" y2="387.18" /><line x1="350.91" y1="385.82" x2="372.69" y2="363.01" /><line x1="376.49" y1="363.15" x2="376.49" y2="388.00" /><line x1="380.87" y1="361.73" x2="380.87" y2="387.08" /><line x1="385.56" y1="362.29" x2="385.56" y2="386.14" /><line x1="390.63" y1="362.03" x2="390.63" y2="385.15" /><line x1="373.09" y1="387.45" x2="395.19" y2="363.48" /><line x1="398.68" y1="362.69" x2="398.68" y2="387.29" /><line x1="404.11" y1="363.36" x2="404.11" y2="387.41" /><line x1="409.11" y1="363.51" x2="409.11" y2="386.51" /><line x1="413.64" y1="363.45" x2="413.64" y2="386.69" /><line x1="397.40" y1="387.00" x2="419.97" y2="363.09" /><line x1="421.72" y1="362.19" x2="421.72" y2="386.03" /><line x1="427.35" y1="363.06" x2="427.35" y2="385.36" /><line x1="431.29" y1="361.32" x2="431.29" y2="385.04" /><line x1="436.73" y1="361.76" x2="436.73" y2="385.12" /><line x1="420.24" y1="386.96" x2="441.08" y2="363.15" /><line x1="445.42" y1="363.07" x2="445.42" y2="385.85" /><line x1="450.33" y1="361.96" x2="450.33" y2="385.66" /><line x1="454.71" y1="363.80" x2="454.71" y2="387.47" /><line x1="459.49" y1="362.68" x2="459.49" y2="385.55" /><line x1="443.68" y1="385.60" x2="464.96" y2="361.79" /><line x1="468.94" y1="363.44" x2="468.94" y2="385.28" /><line x1="472.78" y1="363.93" x2="472.78" y2="385.88" /><line x1="477.40" y1="362.49" x2="477.40" y2="387.47" /><line x1="481.57" y1="362.31" x2="481.57" y2="385.51" /><line x1="466.65" y1="386.57" x2="487.69" y2="362.95" /><line x1="491.70" y1="361.41" x2="491.70" y2="387.68" /><line x1="496.34" y1="362.11" x2="496.34" y2="385.29" /><line x1="500.28" y1="361.86" x2="500.28" y2="385.03" /><line x1="504.16" y1="363.61" x2="504.16" y2="387.60" /><line x1="489.69" y1="385.76" x2="510.21" y2="361.77" /><line x1="515.03" y1="362.80" x2="515.03" y2="387.42" /><line x1="519.45" y1="362.44" x2="519.45" y2="387.62" /><line x1="524.07" y1="362.38" x2="524.07" y2="387.58" /><line x1="527.17" y1="361.03" x2="527.17" y2="385.12" /><line x1="511.64" y1="387.26" x2="533.39" y2="361.59" /><line x1="537.72" y1="362.17" x2="537.72" y2="387.23" /><line x1="541.62" y1="363.27" x2="541.62" y2="387.24" /><line x1="545.98" y1="362.88" x2="545.98" y2="385.12" /><line x1="551.45" y1="362.56" x2="551.45" y2="387.21" /><line x1="535.28" y1="385.63" x2="557.11" y2="362.47" /><line x1="261.65" y1="395.30" x2="261.65" y2="418.31" /><line x1="265.30" y1="395.28" x2="265.30" y2="418.09" /><line x1="269.87" y1="394.67" x2="269.87" y2="418.54" /><line x1="274.34" y1="396.61" x2="274.34" y2="418.36" /><line x1="259.88" y1="419.56" x2="281.39" y2="394.90" /><line x1="284.42" y1="394.68" x2="284.42" y2="420.81" /><line x1="288.31" y1="395.74" x2="288.31" y2="419.55" /><line x1="293.97" y1="396.52" x2="293.97" y2="418.88" /><line x1="297.75" y1="395.38" x2="297.75" y2="420.13" /><line x1="282.71" y1="420.06" x2="304.25" y2="395.08" /><line x1="306.74" y1="394.38" x2="306.74" y2="419.67" /><line x1="311.48" y1="395.46" x2="311.48" y2="418.60" /><line x1="317.05" y1="394.88" x2="317.05" y2="418.52" /><line x1="321.38" y1="396.78" x2="321.38" y2="419.96" /><line x1="305.72" y1="419.03" x2="327.74" y2="395.39" /><line x1="330.32" y1="395.39" x2="330.32" y2="420.71" /><line x1="334.65" y1="394.77" x2="334.65" y2="420.53" /><line x1="338.93" y1="396.85" x2="338.93" y2="419.05" /><line x1="343.49" y1="395.02" x2="343.49" y2="418.25" /><line x1="328.87" y1="418.90" x2="350.43" y2="395.99" /><line x1="353.69" y1="395.20" x2="353.69" y2="419.86" /><line x1="358.04" y1="396.03" x2="358.04" y2="418.91" /><line x1="362.44" y1="396.55" x2="362.44" y2="418.36" /><line x1="366.60" y1="394.45" x2="366.60" y2="418.42" /><line x1="351.57" y1="418.71" x2="373.25" y2="395.28" /><line x1="377.20" y1="394.41" x2="377.20" y2="420.87" /><line x1="381.01" y1="396.53" x2="381.01" y2="419.83" /><line x1="385.86" y1="395.69" x2="385.86" y2="420.10" /><line x1="390.26" y1="394.15" x2="390.26" y2="420.37" /><line x1="374.33" y1="419.83" x2="396.55" y2="395.93" /><line x1="398.80" y1="396.01" x2="398.80" y2="418.23" /><line x1="403.63" y1="395.19" x2="403.63" y2="420.64" /><line x1="408.41" y1="394.21" x2="408.41" y2="420.14" /><line x1="413.52" y1="396.46" x2="413.52" y2="418.88" /><line x1="396.69" y1="419.88" x2="419.99" y2="395.13" /><line x1="421.91" y1="394.19" x2="421.91" y2="418.60" /><line x1="426.77" y1="395.15" x2="426.77" y2="419.92" /><line x1="430.68" y1="395.48" x2="430.68" y2="419.68" /><line x1="435.44" y1="395.71" x2="435.44" y2="418.82" /><line x1="420.50" y1="418.85" x2="441.24" y2="395.62" /><line x1="444.91" y1="395.35" x2="444.91" y2="420.88" /><line x1="449.84" y1="394.26" x2="449.84" y2="419.28" /><line x1="455.21" y1="395.23" x2="455.21" y2="419.16" /><line x1="459.07" y1="395.10" x2="459.07" y2="420.97" /><line x1="442.42" y1="419.15" x2="465.16" y2="395.75" /><line x1="469.02" y1="395.14" x2="469.02" y2="419.12" /><line x1="472.25" y1="395.10" x2="472.25" y2="419.33" /><line x1="478.06" y1="394.73" x2="478.06" y2="420.15" /><line x1="482.10" y1="395.99" x2="482.10" y2="419.91" /><line x1="466.77" y1="419.74" x2="488.72" y2="394.92" /><line x1="492.10" y1="395.07" x2="492.10" y2="420.84" /><line x1="495.24" y1="396.34" x2="495.24" y2="420.50" /><line x1="500.75" y1="394.97" x2="500.75" y2="420.47" /><line x1="504.54" y1="396.57" x2="504.54" y2="420.96" /><line x1="488.29" y1="419.66" x2="511.29" y2="396.37" /><line x1="514.92" y1="396.58" x2="514.92" y2="419.57" /><line x1="519.75" y1="396.62" x2="519.75" y2="419.17" /><line x1="523.91" y1="395.81" x2="523.91" y2="419.44" /><line x1="528.29" y1="395.13" x2="528.29" y2="419.42" /><line x1="512.83" y1="420.01" x2="533.57" y2="394.83" /><line x1="538.02" y1="394.87" x2="538.02" y2="418.32" /><line x1="541.42" y1="395.34" x2="541.42" y2="418.00" /><line x1="546.84" y1="395.95" x2="546.84" y2="418.86" /><line x1="551.52" y1="395.96" x2="551.52" y2="419.93" /><line x1="535.20" y1="419.27" x2="556.37" y2="394.60" /><line x1="261.48" y1="429.09" x2="261.48" y2="453.57" /><line x1="266.42" y1="428.60" x2="266.42" y2="453.03" /><line x1="270.19" y1="429.79" x2="270.19" y2="453.33" /><line x1="275.19" y1="428.55" x2="275.19" y2="451.33" /><line x1="258.88" y1="452.15" x2="280.51" y2="427.72" /><line x1="284.35" y1="427.19" x2="284.35" y2="453.23" /><line x1="289.32" y1="427.92" x2="289.32" y2="452.81" /><line x1="293.36" y1="428.18" x2="293.36" y2="452.82" /><line x1="298.50" y1="429.75" x2="298.50" y2="452.59" /><line x1="282.49" y1="453.14" x2="304.21" y2="428.28" /><line x1="306.92" y1="428.51" x2="306.92" y2="453.46" /><line x1="312.53" y1="429.60" x2="312.53" y2="452.81" /><line x1="316.34" y1="428.16" x2="316.34" y2="453.07" /><line x1="321.09" y1="427.57" x2="321.09" y2="453.67" /><line x1="305.37" y1="452.96" x2="327.46" y2="429.14" /><line x1="330.96" y1="428.90" x2="330.96" y2="452.73" /><line x1="334.94" y1="429.12" x2="334.94" y2="453.45" /><line x1="338.98" y1="429.11" x2="338.98" y2="451.81" /><line x1="344.12" y1="429.17" x2="344.12" y2="453.43" /><line x1="327.58" y1="452.46" x2="349.67" y2="427.77" /><line x1="353.07" y1="429.69" x2="353.07" y2="452.11" /><line x1="358.22" y1="428.92" x2="358.22" y2="453.55" /><line x1="362.48" y1="427.96" x2="362.48" y2="452.88" /><line x1="366.78" y1="429.45" x2="366.78" y2="451.09" /><line x1="351.59" y1="453.05" x2="372.85" y2="429.41" /><line x1="376.60" y1="429.21" x2="376.60" y2="452.01" /><line x1="381.30" y1="428.81" x2="381.30" y2="452.49" /><line x1="384.99" y1="427.39" x2="384.99" y2="451.57" /><line x1="390.65" y1="428.81" x2="390.65" y2="453.70" /><line x1="373.01" y1="451.53" x2="395.88" y2="427.80" /><line x1="399.40" y1="428.88" x2="399.40" y2="452.29" /><line x1="404.64" y1="428.65" x2="404.64" y2="451.83" /><line x1="408.83" y1="427.24" x2="408.83" y2="453.50" /><line x1="413.53" y1="428.40" x2="413.53" y2="453.60" /><line x1="397.55" y1="452.75" x2="419.97" y2="427.57" /><line x1="422.96" y1="429.69" x2="422.96" y2="451.05" /><line x1="427.14" y1="427.58" x2="427.14" y2="451.73" /><line x1="431.70" y1="427.95" x2="431.70" y2="451.59" /><line x1="436.01" y1="427.06" x2="436.01" y2="452.14" /><line x1="419.36" y1="452.28" x2="442.01" y2="427.77" /><line x1="446.10" y1="429.39" x2="446.10" y2="452.48" /><line x1="449.66" y1="428.71" x2="449.66" y2="453.04" /><line x1="455.17" y1="427.61" x2="455.17" y2="453.61" /><line x1="458.28" y1="428.63" x2="458.28" y2="452.60" /><line x1="442.04" y1="452.15" x2="464.75" y2="428.68" /><line x1="469.00" y1="429.73" x2="469.00" y2="452.21" /><line x1="473.48" y1="427.69" x2="473.48" y2="453.08" /><line x1="477.85" y1="427.45" x2="477.85" y2="452.71" /><line x1="481.64" y1="428.94" x2="481.64" y2="451.28" /><line x1="466.97" y1="451.94" x2="487.22" y2="428.92" /><line x1="492.06" y1="427.50" x2="492.06" y2="451.47" /><line x1="495.68" y1="429.52" x2="495.68" y2="452.30" /><line x1="500.95" y1="429.15" x2="500.95" y2="451.76" /><line x1="504.45" y1="428.47" x2="504.45" y2="453.06" /><line x1="488.31" y1="452.84" x2="510.28" y2="429.45" /><line x1="514.52" y1="428.35" x2="514.52" y2="451.12" /><line x1="519.36" y1="428.24" x2="519.36" y2="453.27" /><line x1="522.95" y1="427.50" x2="522.95" y2="452.41" /><line x1="528.72" y1="429.78" x2="528.72" y2="452.02" /><line x1="512.87" y1="451.86" x2="534.66" y2="427.76" /><line x1="537.30" y1="429.55" x2="537.30" y2="452.56" /><line x1="541.82" y1="427.09" x2="541.82" y2="452.07" /><line x1="546.07" y1="427.72" x2="546.07" y2="453.99" /><line x1="551.58" y1="427.05" x2="551.58" y2="451.54" /><line x1="535.72" y1="453.28" x2="557.64" y2="427.82" /><line x1="260.93" y1="462.06" x2="260.93" y2="485.24" /><line x1="265.48" y1="461.43" x2="265.48" y2="485.27" /><line x1="270.19" y1="461.46" x2="270.19" y2="485.78" /><line x1="274.71" y1="461.01" x2="274.71" y2="485.25" /><line x1="258.01" y1="486.17" x2="280.29" y2="461.87" /><line x1="284.69" y1="460.63" x2="284.69" y2="485.99" /><line x1="288.81" y1="462.85" x2="288.81" y2="485.07" /><line x1="293.92" y1="461.01" x2="293.92" y2="484.83" /><line x1="298.22" y1="462.12" x2="298.22" y2="486.67" /><line x1="281.38" y1="484.81" x2="304.09" y2="460.64" /><line x1="308.11" y1="461.29" x2="308.11" y2="486.45" /><line x1="312.31" y1="460.71" x2="312.31" y2="484.07" /><line x1="315.66" y1="460.00" x2="315.66" y2="485.36" /><line x1="320.89" y1="461.59" x2="320.89" y2="486.41" /><line x1="305.50" y1="486.21" x2="326.52" y2="462.48" /><line x1="330.97" y1="462.73" x2="330.97" y2="485.85" /><line x1="334.22" y1="462.98" x2="334.22" y2="486.70" /><line x1="339.00" y1="460.95" x2="339.00" y2="485.40" /><line x1="343.88" y1="460.32" x2="343.88" y2="486.98" /><line x1="328.36" y1="486.05" x2="350.75" y2="461.25" /><line x1="353.26" y1="462.00" x2="353.26" y2="484.76" /><line x1="358.50" y1="460.62" x2="358.50" y2="486.13" /><line x1="362.13" y1="461.45" x2="362.13" y2="484.72" /><line x1="367.09" y1="462.95" x2="367.09" y2="486.33" /><line x1="351.58" y1="485.71" x2="372.53" y2="462.09" /><line x1="376.63" y1="460.01" x2="376.63" y2="485.78" /><line x1="380.70" y1="460.11" x2="380.70" y2="484.65" /><line x1="385.12" y1="460.25" x2="385.12" y2="485.10" /><line x1="389.80" y1="461.83" x2="389.80" y2="486.62" /><line x1="373.56" y1="485.21" x2="396.80" y2="461.27" /><line x1="398.69" y1="462.48" x2="398.69" y2="484.54" /><line x1="404.39" y1="461.63" x2="404.39" y2="484.29" /><line x1="408.79" y1="462.13" x2="408.79" y2="484.94" /><line x1="413.44" y1="460.35" x2="413.44" y2="486.38" /><line x1="397.47" y1="484.63" x2="418.10" y2="461.54" /><line x1="422.88" y1="462.86" x2="422.88" y2="486.28" /><line x1="427.57" y1="461.17" x2="427.57" y2="484.62" /><line x1="431.04" y1="461.15" x2="431.04" y2="485.70" /><line x1="435.27" y1="461.47" x2="435.27" y2="485.44" /><line x1="419.40" y1="485.27" x2="442.24" y2="462.39" /><line x1="445.50" y1="460.17" x2="445.50" y2="486.61" /><line x1="449.45" y1="461.06" x2="449.45" y2="484.56" /><line x1="453.88" y1="460.36" x2="453.88" y2="486.18" /><line x1="459.48" y1="462.03" x2="459.48" y2="484.08" /><line x1="442.22" y1="486.18" x2="465.39" y2="461.68" /><line x1="468.93" y1="460.67" x2="468.93" y2="484.65" /><line x1="472.29" y1="461.25" x2="472.29" y2="484.58" /><line x1="477.72" y1="462.94" x2="477.72" y2="486.10" /><line x1="481.57" y1="460.20" x2="481.57" y2="485.31" /><line x1="465.92" y1="485.37" x2="488.09" y2="462.21" /><line x1="492.19" y1="461.83" x2="492.19" y2="486.01" /><line x1="495.44" y1="460.59" x2="495.44" y2="484.80" /><line x1="500.25" y1="460.51" x2="500.25" y2="484.45" /><line x1="504.53" y1="460.46" x2="504.53" y2="486.14" /><line x1="488.75" y1="484.78" x2="511.31" y2="461.78" /><line x1="513.85" y1="461.38" x2="513.85" y2="486.60" /><line x1="519.27" y1="462.79" x2="519.27" y2="484.74" /><line x1="524.04" y1="461.34" x2="524.04" y2="484.99" /><line x1="527.50" y1="461.23" x2="527.50" y2="485.53" /><line x1="511.29" y1="486.45" x2="534.21" y2="460.76" /><line x1="537.79" y1="462.83" x2="537.79" y2="485.37" /><line x1="542.63" y1="460.96" x2="542.63" y2="484.16" /><line x1="546.23" y1="461.57" x2="546.23" y2="484.58" /><line x1="551.23" y1="462.89" x2="551.23" y2="486.64" /><line x1="535.55" y1="485.74" x2="556.94" y2="461.82" /><line x1="261.03" y1="494.36" x2="261.03" y2="519.10" /><line x1="265.87" y1="494.92" x2="265.87" y2="519.71" /><line x1="270.79" y1="494.63" x2="270.79" y2="519.07" /><line x1="275.72" y1="495.42" x2="275.72" y2="517.59" /><line x1="258.47" y1="519.34" x2="280.79" y2="494.89" /><line x1="284.08" y1="493.87" x2="284.08" y2="518.66" /><line x1="288.32" y1="493.25" x2="288.32" y2="517.75" /><line x1="293.33" y1="495.38" x2="293.33" y2="517.38" /><line x1="298.13" y1="493.86" x2="298.13" y2="519.18" /><line x1="282.61" y1="519.40" x2="304.93" y2="494.76" /><line x1="307.93" y1="494.33" x2="307.93" y2="518.31" /><line x1="311.22" y1="495.66" x2="311.22" y2="519.06" /><line x1="317.00" y1="493.03" x2="317.00" y2="519.21" /><line x1="320.26" y1="493.51" x2="320.26" y2="519.57" /><line x1="304.86" y1="518.38" x2="326.53" y2="495.48" /><line x1="330.24" y1="495.96" x2="330.24" y2="518.74" /><line x1="335.41" y1="495.94" x2="335.41" y2="518.41" /><line x1="340.12" y1="494.13" x2="340.12" y2="517.27" /><line x1="344.73" y1="494.82" x2="344.73" y2="518.26" /><line x1="328.08" y1="518.49" x2="350.68" y2="494.74" /><line x1="354.09" y1="494.14" x2="354.09" y2="518.80" /><line x1="358.60" y1="493.58" x2="358.60" y2="519.23" /><line x1="362.12" y1="495.07" x2="362.12" y2="518.14" /><line x1="366.42" y1="495.27" x2="366.42" y2="519.64" /><line x1="350.19" y1="518.20" x2="373.20" y2="494.72" /><line x1="377.23" y1="493.69" x2="377.23" y2="517.03" /><line x1="380.54" y1="495.66" x2="380.54" y2="519.09" /><line x1="385.67" y1="495.95" x2="385.67" y2="517.45" /><line x1="390.59" y1="495.07" x2="390.59" y2="519.12" /><line x1="373.97" y1="518.58" x2="395.90" y2="495.42" /><line x1="399.69" y1="495.18" x2="399.69" y2="517.08" /><line x1="403.93" y1="494.74" x2="403.93" y2="518.79" /><line x1="408.81" y1="493.12" x2="408.81" y2="519.84" /><line x1="412.93" y1="495.10" x2="412.93" y2="519.24" /><line x1="396.80" y1="518.78" x2="418.78" y2="494.79" /><line x1="422.31" y1="495.42" x2="422.31" y2="518.46" /><line x1="426.68" y1="495.44" x2="426.68" y2="518.70" /><line x1="430.94" y1="494.01" x2="430.94" y2="517.58" /><line x1="436.64" y1="493.10" x2="436.64" y2="517.96" /><line x1="420.29" y1="517.64" x2="442.33" y2="494.31" /><line x1="444.84" y1="493.55" x2="444.84" y2="519.28" /><line x1="449.18" y1="493.71" x2="449.18" y2="519.95" /><line x1="453.76" y1="495.63" x2="453.76" y2="519.44" /><line x1="458.22" y1="493.54" x2="458.22" y2="517.24" /><line x1="442.82" y1="517.54" x2="465.93" y2="494.30" /><line x1="468.89" y1="493.08" x2="468.89" y2="518.81" /><line x1="472.88" y1="493.54" x2="472.88" y2="517.66" /><line x1="477.30" y1="495.79" x2="477.30" y2="519.37" /><line x1="481.96" y1="493.58" x2="481.96" y2="518.81" /><line x1="466.22" y1="518.05" x2="488.90" y2="495.46" /><line x1="491.71" y1="495.91" x2="491.71" y2="519.55" /><line x1="496.09" y1="494.06" x2="496.09" y2="517.82" /><line x1="499.69" y1="494.20" x2="499.69" y2="517.84" /><line x1="505.06" y1="493.78" x2="505.06" y2="518.72" /><line x1="488.99" y1="519.01" x2="510.45" y2="494.94" /><line x1="515.03" y1="493.92" x2="515.03" y2="518.60" /><line x1="519.16" y1="495.92" x2="519.16" y2="517.20" /><line x1="523.48" y1="493.96" x2="523.48" y2="517.05" /><line x1="527.63" y1="495.52" x2="527.63" y2="519.88" /><line x1="511.56" y1="518.88" x2="533.74" y2="493.90" /><line x1="536.87" y1="494.27" x2="536.87" y2="518.75" /><line x1="541.37" y1="495.90" x2="541.37" y2="519.20" /><line x1="546.54" y1="493.86" x2="546.54" y2="518.50" /><line x1="550.70" y1="495.95" x2="550.70" y2="519.82" /><line x1="535.10" y1="517.57" x2="557.95" y2="494.58" /><line x1="261.73" y1="526.41" x2="261.73" y2="550.37" /><line x1="265.19" y1="528.89" x2="265.19" y2="551.35" /><line x1="270.40" y1="526.21" x2="270.40" y2="551.16" /><line x1="274.72" y1="526.03" x2="274.72" y2="552.40" /><line x1="258.44" y1="550.67" x2="280.01" y2="526.59" /><line x1="285.08" y1="527.18" x2="285.08" y2="552.09" /><line x1="289.05" y1="528.22" x2="289.05" y2="552.54" /><line x1="293.21" y1="526.26" x2="293.21" y2="552.61" /><line x1="298.53" y1="527.41" x2="298.53" y2="552.73" /><line x1="282.97" y1="552.30" x2="303.51" y2="527.67" /><line x1="306.85" y1="528.44" x2="306.85" y2="552.87" /><line x1="311.72" y1="527.10" x2="311.72" y2="550.11" /><line x1="315.89" y1="528.75" x2="315.89" y2="551.11" /><line x1="321.65" y1="527.20" x2="321.65" y2="552.29" /><line x1="305.14" y1="550.99" x2="326.62" y2="527.56" /><line x1="329.75" y1="527.65" x2="329.75" y2="550.59" /><line x1="335.17" y1="527.67" x2="335.17" y2="552.25" /><line x1="339.40" y1="527.07" x2="339.40" y2="551.32" /><line x1="344.44" y1="528.01" x2="344.44" y2="550.32" /><line x1="328.05" y1="552.48" x2="350.76" y2="528.00" /><line x1="353.18" y1="528.04" x2="353.18" y2="552.53" /><line x1="357.18" y1="528.85" x2="357.18" y2="551.99" /><line x1="363.02" y1="526.10" x2="363.02" y2="552.91" /><line x1="367.51" y1="527.97" x2="367.51" y2="550.43" /><line x1="350.50" y1="551.90" x2="373.39" y2="526.94" /><line x1="377.14" y1="528.78" x2="377.14" y2="552.71" /><line x1="380.70" y1="526.19" x2="380.70" y2="552.49" /><line x1="385.19" y1="526.72" x2="385.19" y2="550.28" /><line x1="389.55" y1="528.94" x2="389.55" y2="551.35" /><line x1="373.35" y1="552.20" x2="396.43" y2="527.88" /><line x1="399.08" y1="527.86" x2="399.08" y2="552.36" /><line x1="404.65" y1="526.55" x2="404.65" y2="550.63" /><line x1="408.40" y1="527.90" x2="408.40" y2="550.60" /><line x1="413.03" y1="526.94" x2="413.03" y2="550.91" /><line x1="397.40" y1="551.05" x2="418.47" y2="527.11" /><line x1="422.88" y1="527.74" x2="422.88" y2="552.78" /><line x1="426.90" y1="526.99" x2="426.90" y2="552.59" /><line x1="430.86" y1="526.25" x2="430.86" y2="551.75" /><line x1="435.64" y1="526.94" x2="435.64" y2="551.70" /><line x1="419.67" y1="552.16" x2="442.37" y2="527.49" /><line x1="445.54" y1="528.27" x2="445.54" y2="550.60" /><line x1="449.84" y1="526.13" x2="449.84" y2="552.00" /><line x1="453.73" y1="526.77" x2="453.73" y2="552.15" /><line x1="458.98" y1="528.45" x2="458.98" y2="550.76" /><line x1="442.33" y1="551.60" x2="464.16" y2="527.61" /><line x1="468.27" y1="528.91" x2="468.27" y2="552.51" /><line x1="473.40" y1="526.34" x2="473.40" y2="551.19" /><line x1="477.54" y1="528.64" x2="477.54" y2="551.05" /><line x1="482.55" y1="527.12" x2="482.55" y2="552.55" /><line x1="466.77" y1="551.05" x2="488.68" y2="527.86" /><line x1="491.24" y1="528.17" x2="491.24" y2="552.05" /><line x1="495.76" y1="527.34" x2="495.76" y2="552.42" /><line x1="500.70" y1="527.45" x2="500.70" y2="550.58" /><line x1="504.73" y1="526.74" x2="504.73" y2="550.50" /><line x1="489.30" y1="552.49" x2="510.16" y2="528.41" /><line x1="514.17" y1="528.56" x2="514.17" y2="552.56" /><line x1="518.47" y1="526.93" x2="518.47" y2="550.89" /><line x1="522.90" y1="528.62" x2="522.90" y2="551.60" /><line x1="527.37" y1="527.72" x2="527.37" y2="551.68" /><line x1="511.66" y1="551.97" x2="533.61" y2="527.73" /><line x1="537.78" y1="526.71" x2="537.78" y2="551.02" /><line x1="542.17" y1="527.90" x2="542.17" y2="552.40" /><line x1="546.30" y1="527.24" x2="546.30" y2="550.71" /><line x1="550.80" y1="526.31" x2="550.80" y2="552.60" /><line x1="535.78" y1="551.73" x2="556.09" y2="528.06" /><line x1="260.67" y1="560.92" x2="260.67" y2="584.43" /><line x1="266.57" y1="560.76" x2="266.57" y2="584.53" /><line x1="270.66" y1="560.12" x2="270.66" y2="585.93" /><line x1="275.18" y1="560.23" x2="275.18" y2="585.57" /><line x1="258.50" y1="584.36" x2="281.84" y2="561.02" /><line x1="284.11" y1="560.16" x2="284.11" y2="583.78" /><line x1="288.43" y1="560.68" x2="288.43" y2="584.42" /><line x1="293.26" y1="561.66" x2="293.26" y2="583.38" /><line x1="297.17" y1="560.21" x2="297.17" y2="583.91" /><line x1="282.21" y1="583.76" x2="304.26" y2="559.77" /><line x1="306.83" y1="560.47" x2="306.83" y2="585.14" /><line x1="311.51" y1="559.73" x2="311.51" y2="583.60" /><line x1="316.42" y1="559.83" x2="316.42" y2="585.56" /><line x1="320.92" y1="560.51" x2="320.92" y2="583.24" /><line x1="304.56" y1="583.58" x2="326.10" y2="560.73" /><line x1="330.68" y1="560.76" x2="330.68" y2="584.61" /><line x1="335.36" y1="559.62" x2="335.36" y2="584.87" /><line x1="338.73" y1="561.04" x2="338.73" y2="585.32" /><line x1="343.63" y1="559.41" x2="343.63" y2="583.45" /><line x1="328.18" y1="584.40" x2="350.96" y2="559.72" /><line x1="354.06" y1="561.23" x2="354.06" y2="584.51" /><line x1="357.20" y1="560.44" x2="357.20" y2="584.78" /><line x1="361.71" y1="561.52" x2="361.71" y2="583.91" /><line x1="367.20" y1="559.91" x2="367.20" y2="583.82" /><line x1="350.51" y1="584.31" x2="373.52" y2="560.31" /><line x1="376.92" y1="560.25" x2="376.92" y2="584.20" /><line x1="380.24" y1="560.92" x2="380.24" y2="583.83" /><line x1="384.79" y1="560.22" x2="384.79" y2="584.51" /><line x1="390.36" y1="559.81" x2="390.36" y2="583.27" /><line x1="373.69" y1="584.79" x2="395.26" y2="561.42" /><line x1="399.90" y1="561.97" x2="399.90" y2="584.02" /><line x1="404.21" y1="561.44" x2="404.21" y2="585.03" /><line x1="409.04" y1="560.38" x2="409.04" y2="583.88" /><line x1="413.34" y1="560.71" x2="413.34" y2="583.01" /><line x1="396.26" y1="584.27" x2="418.20" y2="561.09" /><line x1="422.73" y1="560.23" x2="422.73" y2="583.46" /><line x1="426.55" y1="560.61" x2="426.55" y2="585.20" /><line x1="432.23" y1="559.83" x2="432.23" y2="584.19" /><line x1="435.78" y1="559.24" x2="435.78" y2="584.11" /><line x1="419.54" y1="584.59" x2="442.14" y2="559.96" /><line x1="446.07" y1="560.65" x2="446.07" y2="585.73" /><line x1="449.27" y1="560.14" x2="449.27" y2="584.53" /><line x1="455.10" y1="561.28" x2="455.10" y2="583.34" /><line x1="459.40" y1="561.59" x2="459.40" y2="584.58" /><line x1="442.81" y1="584.90" x2="464.27" y2="559.56" /><line x1="468.78" y1="560.05" x2="468.78" y2="583.98" /><line x1="473.02" y1="560.23" x2="473.02" y2="585.95" /><line x1="477.95" y1="560.31" x2="477.95" y2="585.09" /><line x1="482.56" y1="559.69" x2="482.56" y2="584.21" /><line x1="465.12" y1="583.81" x2="487.96" y2="561.34" /><line x1="491.56" y1="559.23" x2="491.56" y2="584.12" /><line x1="495.70" y1="560.81" x2="495.70" y2="585.90" /><line x1="501.02" y1="561.77" x2="501.02" y2="583.69" /><line x1="505.47" y1="559.24" x2="505.47" y2="585.80" /><line x1="488.46" y1="585.28" x2="511.37" y2="560.03" /><line x1="513.87" y1="560.87" x2="513.87" y2="585.27" /><line x1="519.41" y1="561.11" x2="519.41" y2="585.75" /><line x1="523.39" y1="560.15" x2="523.39" y2="584.71" /><line x1="528.34" y1="559.83" x2="528.34" y2="584.91" /><line x1="511.58" y1="584.90" x2="534.15" y2="560.67" /><line x1="537.17" y1="561.12" x2="537.17" y2="585.52" /><line x1="542.49" y1="559.57" x2="542.49" y2="583.71" /><line x1="547.00" y1="560.35" x2="547.00" y2="585.88" /><line x1="550.46" y1="559.39" x2="550.46" y2="583.61" /><line x1="534.72" y1="584.49" x2="556.29" y2="560.92" /><line x1="260.71" y1="594.23" x2="260.71" y2="618.09" /><line x1="266.61" y1="592.53" x2="266.61" y2="618.92" /><line x1="270.15" y1="592.49" x2="270.15" y2="616.63" /><line x1="274.76" y1="593.57" x2="274.76" y2="618.95" /><line x1="259.78" y1="616.74" x2="280.99" y2="593.25" /><line x1="284.07" y1="592.20" x2="284.07" y2="618.93" /><line x1="288.36" y1="593.31" x2="288.36" y2="618.76" /><line x1="294.15" y1="593.26" x2="294.15" y2="618.63" /><line x1="297.75" y1="593.30" x2="297.75" y2="616.81" /><line x1="281.95" y1="617.48" x2="303.99" y2="593.64" /><line x1="307.01" y1="592.86" x2="307.01" y2="616.71" /><line x1="311.82" y1="593.24" x2="311.82" y2="617.89" /><line x1="315.69" y1="592.28" x2="315.69" y2="618.35" /><line x1="320.31" y1="594.74" x2="320.31" y2="616.89" /><line x1="304.97" y1="618.01" x2="326.03" y2="593.55" /><line x1="329.93" y1="593.84" x2="329.93" y2="618.58" /><line x1="334.70" y1="594.79" x2="334.70" y2="618.84" /><line x1="339.41" y1="593.86" x2="339.41" y2="616.97" /><line x1="344.06" y1="592.11" x2="344.06" y2="618.75" /><line x1="328.54" y1="617.30" x2="349.17" y2="592.99" /><line x1="353.51" y1="594.27" x2="353.51" y2="617.46" /><line x1="358.61" y1="593.12" x2="358.61" y2="617.50" /><line x1="362.26" y1="594.08" x2="362.26" y2="617.66" /><line x1="367.38" y1="594.09" x2="367.38" y2="616.96" /><line x1="350.33" y1="617.29" x2="373.97" y2="593.22" /><line x1="376.20" y1="594.81" x2="376.20" y2="616.55" /><line x1="380.86" y1="593.66" x2="380.86" y2="617.06" /><line x1="386.21" y1="594.34" x2="386.21" y2="616.53" /><line x1="389.91" y1="592.81" x2="389.91" y2="616.67" /><line x1="373.34" y1="618.14" x2="396.70" y2="593.72" /><line x1="399.11" y1="593.62" x2="399.11" y2="616.38" /><line x1="404.55" y1="594.54" x2="404.55" y2="616.77" /><line x1="408.70" y1="594.96" x2="408.70" y2="617.44" /><line x1="412.30" y1="594.13" x2="412.30" y2="618.37" /><line x1="396.87" y1="618.27" x2="418.00" y2="592.81" /><line x1="422.38" y1="594.53" x2="422.38" y2="617.80" /><line x1="426.45" y1="594.91" x2="426.45" y2="617.39" /><line x1="431.15" y1="592.81" x2="431.15" y2="617.12" /><line x1="435.62" y1="593.95" x2="435.62" y2="617.84" /><line x1="420.70" y1="617.37" x2="442.19" y2="593.65" /><line x1="445.49" y1="594.67" x2="445.49" y2="617.32" /><line x1="450.23" y1="592.43" x2="450.23" y2="618.71" /><line x1="454.16" y1="593.83" x2="454.16" y2="617.80" /><line x1="458.50" y1="593.60" x2="458.50" y2="618.02" /><line x1="442.12" y1="618.13" x2="464.13" y2="592.66" /><line x1="468.11" y1="593.53" x2="468.11" y2="618.72" /><line x1="473.00" y1="594.52" x2="473.00" y2="617.32" /><line x1="476.67" y1="592.83" x2="476.67" y2="618.30" /><line x1="482.26" y1="593.03" x2="482.26" y2="617.57" /><line x1="466.22" y1="617.13" x2="488.40" y2="593.73" /><line x1="491.86" y1="592.20" x2="491.86" y2="616.29" /><line x1="496.19" y1="592.78" x2="496.19" y2="617.64" /><line x1="500.18" y1="593.17" x2="500.18" y2="618.56" /><line x1="505.33" y1="594.95" x2="505.33" y2="617.82" /><line x1="489.06" y1="617.09" x2="511.91" y2="593.51" /><line x1="514.94" y1="594.81" x2="514.94" y2="616.31" /><line x1="519.27" y1="594.15" x2="519.27" y2="618.51" /><line x1="523.40" y1="593.08" x2="523.40" y2="616.03" /><line x1="527.96" y1="593.36" x2="527.96" y2="616.00" /><line x1="512.61" y1="616.54" x2="533.88" y2="594.23" /><line x1="536.67" y1="594.52" x2="536.67" y2="618.05" /><line x1="541.87" y1="593.67" x2="541.87" y2="617.44" /><line x1="546.89" y1="594.14" x2="546.89" y2="616.34" /><line x1="550.31" y1="592.41" x2="550.31" y2="616.18" /><line x1="534.48" y1="616.72" x2="557.26" y2="593.32" /><line x1="261.26" y1="626.98" x2="261.26" y2="650.55" /><line x1="266.75" y1="627.04" x2="266.75" y2="649.56" /><line x1="270.11" y1="625.67" x2="270.11" y2="651.52" /><line x1="274.57" y1="625.45" x2="274.57" y2="649.68" /><line x1="259.48" y1="650.05" x2="280.99" y2="627.18" /><line x1="284.10" y1="625.38" x2="284.10" y2="649.45" /><line x1="289.43" y1="627.01" x2="289.43" y2="651.06" /><line x1="293.36" y1="626.06" x2="293.36" y2="650.65" /><line x1="298.63" y1="625.62" x2="298.63" y2="650.81" /><line x1="282.09" y1="651.40" x2="303.47" y2="626.50" /><line x1="307.40" y1="625.39" x2="307.40" y2="649.11" /><line x1="311.86" y1="626.92" x2="311.86" y2="651.47" /><line x1="316.48" y1="625.88" x2="316.48" y2="650.08" /><line x1="321.04" y1="625.49" x2="321.04" y2="649.51" /><line x1="304.79" y1="650.28" x2="326.45" y2="626.62" /><line x1="330.85" y1="625.61" x2="330.85" y2="650.37" /><line x1="334.47" y1="627.52" x2="334.47" y2="649.50" /><line x1="340.03" y1="625.95" x2="340.03" y2="650.09" /><line x1="344.44" y1="626.43" x2="344.44" y2="651.16" /><line x1="327.89" y1="651.35" x2="350.38" y2="626.15" /><line x1="352.96" y1="625.68" x2="352.96" y2="651.84" /><line x1="357.27" y1="627.65" x2="357.27" y2="651.97" /><line x1="362.52" y1="626.21" x2="362.52" y2="651.65" /><line x1="367.59" y1="625.82" x2="367.59" y2="650.89" /><line x1="350.69" y1="651.34" x2="373.30" y2="626.03" /><line x1="377.03" y1="625.58" x2="377.03" y2="650.21" /><line x1="381.72" y1="626.08" x2="381.72" y2="651.61" /><line x1="385.82" y1="626.98" x2="385.82" y2="649.61" /><line x1="389.99" y1="625.73" x2="389.99" y2="649.86" /><line x1="373.53" y1="650.02" x2="396.36" y2="626.21" /><line x1="399.71" y1="627.97" x2="399.71" y2="650.43" /><line x1="403.85" y1="627.12" x2="403.85" y2="650.33" /><line x1="408.33" y1="626.90" x2="408.33" y2="651.41" /><line x1="413.23" y1="625.57" x2="413.23" y2="651.46" /><line x1="397.25" y1="649.98" x2="419.95" y2="626.69" /><line x1="421.81" y1="628.00" x2="421.81" y2="651.59" /><line x1="427.40" y1="626.98" x2="427.40" y2="649.97" /><line x1="430.99" y1="627.02" x2="430.99" y2="651.25" /><line x1="435.29" y1="625.30" x2="435.29" y2="650.75" /><line x1="419.59" y1="650.99" x2="441.24" y2="625.78" /><line x1="445.66" y1="625.51" x2="445.66" y2="651.13" /><line x1="450.05" y1="625.62" x2="450.05" y2="651.91" /><line x1="455.17" y1="625.07" x2="455.17" y2="651.62" /><line x1="459.66" y1="626.45" x2="459.66" y2="650.70" /><line x1="442.35" y1="650.10" x2="465.93" y2="627.10" /><line x1="468.34" y1="625.17" x2="468.34" y2="650.62" /><line x1="472.54" y1="625.24" x2="472.54" y2="650.05" /><line x1="477.60" y1="625.35" x2="477.60" y2="651.07" /><line x1="481.91" y1="625.51" x2="481.91" y2="649.95" /><line x1="465.42" y1="651.38" x2="487.40" y2="627.07" /><line x1="491.50" y1="627.22" x2="491.50" y2="649.96" /><line x1="495.88" y1="626.04" x2="495.88" y2="650.39" /><line x1="500.63" y1="626.20" x2="500.63" y2="649.00" /><line x1="505.50" y1="626.87" x2="505.50" y2="650.15" /><line x1="489.71" y1="651.50" x2="511.06" y2="626.93" /><line x1="514.20" y1="627.15" x2="514.20" y2="649.94" /><line x1="518.67" y1="626.73" x2="518.67" y2="649.88" /><line x1="522.84" y1="627.20" x2="522.84" y2="649.35" /><line x1="528.51" y1="625.06" x2="528.51" y2="651.53" /><line x1="512.45" y1="651.49" x2="533.71" y2="625.76" /><line x1="537.57" y1="627.13" x2="537.57" y2="650.04" /><line x1="542.37" y1="625.19" x2="542.37" y2="649.40" /><line x1="546.67" y1="627.40" x2="546.67" y2="649.12" /><line x1="551.62" y1="627.03" x2="551.62" y2="650.81" /><line x1="535.33" y1="649.93" x2="557.82" y2="626.35" /><line x1="262.24" y1="660.95" x2="262.24" y2="684.77" /><line x1="265.73" y1="660.45" x2="265.73" y2="684.53" /><line x1="271.11" y1="659.55" x2="271.11" y2="683.57" /><line x1="274.79" y1="660.33" x2="274.79" y2="683.13" /><line x1="259.53" y1="683.81" x2="280.05" y2="659.99" /><line x1="284.40" y1="659.25" x2="284.40" y2="682.04" /><line x1="288.53" y1="659.92" x2="288.53" y2="684.47" /><line x1="293.90" y1="659.50" x2="293.90" y2="684.64" /><line x1="297.16" y1="660.25" x2="297.16" y2="683.22" /><line x1="281.77" y1="683.45" x2="304.82" y2="659.68" /><line x1="307.79" y1="660.80" x2="307.79" y2="684.94" /><line x1="311.87" y1="659.75" x2="311.87" y2="682.03" /><line x1="315.67" y1="660.05" x2="315.67" y2="682.79" /><line x1="321.60" y1="658.60" x2="321.60" y2="683.05" /><line x1="305.62" y1="684.09" x2="326.95" y2="660.35" /><line x1="330.59" y1="659.86" x2="330.59" y2="682.99" /><line x1="335.33" y1="658.00" x2="335.33" y2="683.87" /><line x1="340.16" y1="659.21" x2="340.16" y2="684.23" /><line x1="343.95" y1="658.96" x2="343.95" y2="682.92" /><line x1="328.70" y1="682.81" x2="350.20" y2="659.65" /><line x1="353.64" y1="660.91" x2="353.64" y2="684.61" /><line x1="358.27" y1="660.10" x2="358.27" y2="684.18" /><line x1="363.22" y1="659.86" x2="363.22" y2="682.74" /><line x1="367.46" y1="658.37" x2="367.46" y2="682.05" /><line x1="351.71" y1="683.47" x2="372.38" y2="658.95" /><line x1="376.05" y1="660.62" x2="376.05" y2="683.09" /><line x1="381.62" y1="658.02" x2="381.62" y2="683.67" /><line x1="385.62" y1="658.76" x2="385.62" y2="682.08" /><line x1="390.59" y1="659.52" x2="390.59" y2="684.21" /><line x1="374.66" y1="683.51" x2="395.42" y2="660.17" /><line x1="398.73" y1="658.89" x2="398.73" y2="682.05" /><line x1="404.72" y1="659.59" x2="404.72" y2="683.18" /><line x1="407.90" y1="659.31" x2="407.90" y2="683.67" /><line x1="413.07" y1="658.95" x2="413.07" y2="682.21" /><line x1="396.93" y1="683.72" x2="418.76" y2="659.10" /><line x1="422.73" y1="659.70" x2="422.73" y2="684.42" /><line x1="426.85" y1="659.04" x2="426.85" y2="684.31" /><line x1="431.67" y1="659.98" x2="431.67" y2="684.35" /><line x1="435.70" y1="660.55" x2="435.70" y2="682.88" /><line x1="420.43" y1="682.87" x2="441.32" y2="658.70" /><line x1="445.58" y1="660.34" x2="445.58" y2="682.95" /><line x1="450.52" y1="659.04" x2="450.52" y2="682.35" /><line x1="454.07" y1="658.00" x2="454.07" y2="683.62" /><line x1="459.19" y1="660.39" x2="459.19" y2="684.27" /><line x1="442.55" y1="682.88" x2="464.98" y2="659.40" /><line x1="467.66" y1="659.02" x2="467.66" y2="684.36" /><line x1="472.20" y1="660.29" x2="472.20" y2="684.22" /><line x1="477.87" y1="658.57" x2="477.87" y2="683.05" /><line x1="482.51" y1="659.24" x2="482.51" y2="683.71" /><line x1="466.72" y1="684.09" x2="488.94" y2="660.43" /><line x1="491.58" y1="658.16" x2="491.58" y2="684.14" /><line x1="495.88" y1="659.43" x2="495.88" y2="682.89" /><line x1="499.88" y1="659.19" x2="499.88" y2="683.92" /><line x1="504.60" y1="659.37" x2="504.60" y2="684.65" /><line x1="488.27" y1="683.29" x2="510.29" y2="660.09" /><line x1="514.89" y1="658.73" x2="514.89" y2="683.69" /><line x1="518.57" y1="660.43" x2="518.57" y2="683.92" /><line x1="523.30" y1="660.55" x2="523.30" y2="684.15" /><line x1="527.67" y1="660.73" x2="527.67" y2="683.43" /><line x1="511.60" y1="684.42" x2="534.96" y2="660.14" /><line x1="536.82" y1="660.01" x2="536.82" y2="683.07" /><line x1="542.07" y1="660.75" x2="542.07" y2="682.85" /><line x1="547.01" y1="660.03" x2="547.01" y2="682.17" /><line x1="550.50" y1="659.92" x2="550.50" y2="682.79" /><line x1="535.39" y1="682.52" x2="557.40" y2="659.00" /></g><g id="03_Gold_Count" inkscape:groupmode="layer" inkscape:label="03_Gold_Count" stroke="#B8960C" fill="none" stroke-width="1.05" stroke-linecap="round" stroke-linejoin="round"><line x1="262.19" y1="693.02" x2="262.19" y2="717.68" /><line x1="266.10" y1="692.74" x2="266.10" y2="715.17" /><line x1="270.95" y1="693.21" x2="270.95" y2="717.76" /><line x1="275.09" y1="691.71" x2="275.09" y2="717.92" /><line x1="258.44" y1="716.44" x2="280.36" y2="691.98" /><line x1="285.13" y1="692.20" x2="285.13" y2="715.74" /><line x1="288.66" y1="692.90" x2="288.66" y2="717.37" /><line x1="293.74" y1="693.76" x2="293.74" y2="716.23" /><line x1="297.33" y1="693.27" x2="297.33" y2="715.34" /><line x1="281.90" y1="716.50" x2="303.09" y2="693.18" /><line x1="307.80" y1="692.84" x2="307.80" y2="717.34" /><line x1="311.92" y1="692.94" x2="311.92" y2="715.44" /><line x1="316.70" y1="692.44" x2="316.70" y2="716.75" /><line x1="320.53" y1="692.65" x2="320.53" y2="715.74" /><line x1="304.23" y1="716.35" x2="327.77" y2="692.94" /><line x1="330.66" y1="693.91" x2="330.66" y2="717.51" /><line x1="335.28" y1="693.26" x2="335.28" y2="716.93" /><line x1="338.96" y1="691.93" x2="338.96" y2="717.47" /><line x1="344.42" y1="692.88" x2="344.42" y2="715.08" /><line x1="328.64" y1="717.41" x2="349.17" y2="691.86" /><line x1="353.46" y1="692.03" x2="353.46" y2="717.25" /><line x1="357.77" y1="692.38" x2="357.77" y2="715.93" /><line x1="361.69" y1="692.41" x2="361.69" y2="715.41" /><line x1="367.34" y1="692.42" x2="367.34" y2="717.00" /><line x1="350.16" y1="716.02" x2="373.73" y2="692.30" /><line x1="376.65" y1="692.51" x2="376.65" y2="715.20" /><line x1="381.75" y1="691.54" x2="381.75" y2="715.55" /><line x1="385.45" y1="691.09" x2="385.45" y2="716.19" /><line x1="389.38" y1="691.42" x2="389.38" y2="715.86" /><line x1="374.75" y1="717.16" x2="396.09" y2="692.92" /><line x1="400.07" y1="692.50" x2="400.07" y2="716.01" /><line x1="404.59" y1="692.56" x2="404.59" y2="717.76" /><line x1="407.72" y1="693.77" x2="407.72" y2="716.96" /><line x1="413.40" y1="692.16" x2="413.40" y2="717.58" /><line x1="421.84" y1="693.44" x2="421.84" y2="715.11" /><line x1="427.00" y1="691.87" x2="427.00" y2="717.89" /><line x1="431.61" y1="692.99" x2="431.61" y2="716.02" /><line x1="435.71" y1="692.98" x2="435.71" y2="715.32" /><line x1="444.97" y1="691.32" x2="444.97" y2="715.07" /><line x1="450.16" y1="692.05" x2="450.16" y2="715.69" /><line x1="454.40" y1="691.18" x2="454.40" y2="717.95" /><line x1="468.54" y1="691.79" x2="468.54" y2="717.11" /><line x1="472.67" y1="692.83" x2="472.67" y2="715.36" /><line x1="477.74" y1="691.07" x2="477.74" y2="716.59" /><line x1="492.24" y1="691.50" x2="492.24" y2="715.31" /><line x1="495.47" y1="691.45" x2="495.47" y2="717.14" /><line x1="513.85" y1="691.61" x2="513.85" y2="717.44" /><line x1="519.68" y1="693.51" x2="519.68" y2="716.25" /><line x1="537.01" y1="693.18" x2="537.01" y2="715.24" /></g></svg>