<?xml version='1.0' encoding='utf-8'?>
<svg xmlns="http://www.w3.org/2000/svg" xmlns:inkscape="http://www.inkscape.org/namespaces/inkscape" viewBox="204 228 408 600"><style>*{vector-effect:non-scaling-stroke}</style><g id="01_Black_Frame" inkscape:groupmode="layer" inkscape:label="01_Black_Frame" stroke="#1A1A1A" fill="none" stroke-width="0.875" stroke-linecap="round" stroke-linejoin="round"><path d="M 250.0,264.0 L 566.0,264.0 Q 576.0,264.0 576.0,274.0 L 576.0,782.0 Q 576.0,792.0 566.0,792.0 L 250.0,792.0 Q 240.0,792.0 240.0,782.0 L 240.0,274.0 Q 240.0,264.0 250.0,264.0" /><path d="M 253.0,270.0 L 563.0,270.0 Q 570.0,270.0 570.0,277.0 L 570.0,779.0 Q 570.0,786.0 563.0,786.0 L 253.0,786.0 Q 246.0,786.0 246.0,779.0 L 246.0,277.0 Q 246.0,270.0 253.0,270.0" /><line x1="259.0" y1="280.0" x2="263.0" y2="280.0" /><line x1="258.1" y1="282.1" x2="260.9" y2="284.9" /><line x1="256.0" y1="283.0" x2="256.0" y2="287.0" /><line x1="253.9" y1="282.1" x2="251.1" y2="284.9" /><line x1="253.0" y1="280.0" x2="249.0" y2="280.0" /><line x1="253.9" y1="277.9" x2="251.1" y2="275.1" /><line x1="256.0" y1="277.0" x2="256.0" y2="273.0" /><line x1="258.1" y1="277.9" x2="260.9" y2="275.1" /><line x1="563.0" y1="280.0" x2="567.0" y2="280.0" /><line x1="562.1" y1="282.1" x2="564.9" y2="284.9" /><line x1="560.0" y1="283.0" x2="560.0" y2="287.0" /><line x1="557.9" y1="282.1" x2="555.1" y2="284.9" /><line x1="557.0" y1="280.0" x2="553.0" y2="280.0" /><line x1="557.9" y1="277.9" x2="555.1" y2="275.1" /><line x1="560.0" y1="277.0" x2="560.0" y2="273.0" /><line x1="562.1" y1="277.9" x2="564.9" y2="275.1" /><line x1="259.0" y1="776.0" x2="263.0" y2="776.0" /><line x1="258.1" y1="778.1" x2="260.9" y2="780.9" /><line x1="256.0" y1="779.0" x2="256.0" y2="783.0" /><line x1="253.9" y1="778.1" x2="251.1" y2="780.9" /><line x1="253.0" y1="776.0" x2="249.0" y2="776.0" /><line x1="253.9" y1="773.9" x2="251.1" y2="771.1" /><line x1="256.0" y1="773.0" x2="256.0" y2="769.0" /><line x1="258.1" y1="773.9" x2="260.9" y2="771.1" /><line x1="563.0" y1="776.0" x2="567.0" y2="776.0" /><line x1="562.1" y1="778.1" x2="564.9" y2="780.9" /><line x1="560.0" y1="779.0" x2="560.0" y2="783.0" /><line x1="557.9" y1="778.1" x2="555.1" y2="780.9" /><line x1="557.0" y1="776.0" x2="553.0" y2="776.0" /><line x1="557.9" y1="773.9" x2="555.1" y2="771.1" /><line x1="560.0" y1="773.0" x2="560.0" y2="769.0" /><line x1="562.1" y1="773.9" x2="564.9" y2="771.1" /><polyline points="395.25,283.20 393.50,282.00 392.50,282.00 390.75,283.60 390.75,288.40 392.50,290.00 393.50,290.00 395.25,288.80" /><polyline points="396.50,282.00 396.50,290.00 400.75,290.00" /><polyline points="402.25,282.00 407.25,290.00" /><polyline points="407.25,282.00 402.25,290.00" /><polyline points="408.00,282.00 413.00,290.00" /><polyline points="413.00,282.00 408.00,290.00" /><polyline points="413.75,282.00 416.25,290.00 418.75,282.00" /><polyline points="422.00,282.00 422.00,290.00" /><polyline points="355.68,297.00 362.18,297.00" /><polyline points="358.93,297.00 358.93,307.00" /><polyline points="363.15,297.00 363.15,307.00" /><polyline points="369.65,297.00 369.65,307.00" /><polyline points="363.15,301.80 369.65,301.80" /><polyline points="376.15,297.00 370.62,297.00 370.62,301.80 374.52,301.80" /><polyline points="370.62,301.80 370.62,307.00 376.15,307.00" /><polyline points="385.57,307.00 388.82,297.00 392.07,307.00" /><polyline points="386.75,303.50 390.90,303.50" /><polyline points="398.57,297.00 393.05,297.00 393.05,301.80 396.95,301.80" /><polyline points="393.05,301.80 393.05,307.00" /><polyline points="400.52,297.00 407.02,297.00" /><polyline points="403.77,297.00 403.77,307.00" /><polyline points="413.52,297.00 408.00,297.00 408.00,301.80 411.90,301.80" /><polyline points="408.00,301.80 408.00,307.00 413.52,307.00" /><polyline points="415.48,307.00 415.48,297.00 419.70,297.00 421.33,298.50 421.33,300.20 419.70,301.50 415.48,301.50 421.33,307.00" /><polyline points="428.47,298.00 426.85,297.00 424.90,297.00 423.27,298.50 422.95,300.00 423.93,301.20 426.20,302.00 428.47,302.80 429.45,304.00 429.12,305.50 427.50,307.00 425.22,307.00 423.60,306.00" /><polyline points="430.43,297.00 430.43,307.00" /><polyline points="436.93,297.00 436.93,307.00" /><polyline points="430.43,301.80 436.93,301.80" /><polyline points="441.15,297.00 438.55,298.00 437.90,300.00 437.90,304.00 438.55,306.00 441.15,307.00 443.75,306.00 444.40,304.00 444.40,300.00 443.75,298.00 441.15,297.00" /><polyline points="451.23,298.50 448.95,297.00 447.65,297.00 445.38,299.00 445.38,305.00 447.65,307.00 448.95,307.00 451.23,305.50" /><polyline points="452.85,297.00 452.85,307.00" /><polyline points="458.70,297.00 452.85,302.00 458.70,307.00" /><line x1="270.0" y1="312.0" x2="546.0" y2="312.0" /><line x1="270.0" y1="732.0" x2="546.0" y2="732.0" /><polyline points="375.10,741.42 374.12,740.75 373.56,740.75 372.58,741.65 372.58,744.35 373.56,745.25 374.12,745.25 375.10,744.58" /><polyline points="375.80,745.25 377.20,740.75 378.60,745.25" /><polyline points="376.30,743.67 378.10,743.67" /><polyline points="379.02,745.25 379.02,740.75 380.84,740.75 381.54,741.42 381.54,742.19 380.84,742.77 379.02,742.77 381.54,745.25" /><polyline points="382.24,745.25 383.64,740.75 385.04,745.25" /><polyline points="382.74,743.67 384.54,743.67" /><polyline points="387.98,741.42 387.00,740.75 386.44,740.75 385.46,741.65 385.46,744.35 386.44,745.25 387.00,745.25 387.98,744.58" /><polyline points="388.68,745.25 390.08,740.75 391.48,745.25" /><polyline points="389.18,743.67 390.98,743.67" /><polyline points="394.28,741.20 393.58,740.75 392.74,740.75 392.04,741.42 391.90,742.10 392.32,742.64 393.30,743.00 394.28,743.36 394.70,743.90 394.56,744.58 393.86,745.25 392.88,745.25 392.18,744.80" /><polyline points="401.56,745.25 401.56,740.75 403.10,740.75 404.08,741.88 404.08,744.12 403.10,745.25 401.56,745.25" /><polyline points="404.78,745.25 404.78,740.75 406.60,740.75 407.30,741.42 407.30,742.19 406.60,742.77 404.78,742.77 407.30,745.25" /><polyline points="409.40,740.75 408.28,741.20 408.00,742.10 408.00,743.90 408.28,744.80 409.40,745.25 410.52,744.80 410.80,743.90 410.80,742.10 410.52,741.20 409.40,740.75" /><polyline points="411.22,745.25 411.22,740.75 414.02,745.25 414.02,740.75" /><polyline points="416.82,740.75 414.44,740.75 414.44,742.91 416.12,742.91" /><polyline points="414.44,742.91 414.44,745.25 416.82,745.25" /><polyline points="424.10,745.25 424.10,740.75 425.92,740.75 426.62,741.42 426.62,742.19 425.92,742.77 424.10,742.77 426.62,745.25" /><polyline points="427.32,740.75 427.32,744.12 427.88,745.02 429.56,745.02 430.12,744.12 430.12,740.75" /><polyline points="430.54,745.25 430.54,740.75 432.36,740.75 432.92,741.29 432.92,742.01 432.36,742.55 430.54,742.55 432.36,742.55 432.92,743.09 432.92,744.71 432.36,745.25 430.54,745.25" /><polyline points="433.76,745.25 433.76,740.75 435.58,740.75 436.14,741.29 436.14,742.01 435.58,742.55 433.76,742.55 435.58,742.55 436.14,743.09 436.14,744.71 435.58,745.25 433.76,745.25" /><polyline points="436.98,740.75 436.98,745.25 439.36,745.25" /><polyline points="442.58,740.75 440.20,740.75 440.20,742.91 441.88,742.91" /><polyline points="440.20,742.91 440.20,745.25 442.58,745.25" /><polyline points="339.00,753.25 344.00,753.25" /><polyline points="341.50,753.25 341.50,760.75" /><polyline points="344.75,753.25 344.75,760.75" /><polyline points="349.75,753.25 349.75,760.75" /><polyline points="344.75,756.85 349.75,756.85" /><polyline points="354.75,753.25 350.50,753.25 350.50,756.85 353.50,756.85" /><polyline points="350.50,756.85 350.50,760.75 354.75,760.75" /><polyline points="362.00,760.75 362.00,753.25 364.75,753.25 366.50,755.12 366.50,758.88 364.75,760.75 362.00,760.75" /><polyline points="367.75,753.25 367.75,758.88 368.75,760.38 371.75,760.38 372.75,758.88 372.75,753.25" /><polyline points="377.75,754.00 376.50,753.25 375.00,753.25 373.75,754.38 373.50,755.50 374.25,756.40 376.00,757.00 377.75,757.60 378.50,758.50 378.25,759.62 377.00,760.75 375.25,760.75 374.00,760.00" /><polyline points="379.25,753.25 384.25,753.25" /><polyline points="381.75,753.25 381.75,760.75" /><polyline points="390.75,753.25 390.75,760.75" /><polyline points="395.75,753.25 395.75,760.75" /><polyline points="390.75,756.85 395.75,756.85" /><polyline points="396.50,760.75 399.00,753.25 401.50,760.75" /><polyline points="397.40,758.12 400.60,758.12" /><polyline points="402.25,760.75 402.25,753.25 405.00,753.25 406.75,755.12 406.75,758.88 405.00,760.75 402.25,760.75" /><polyline points="413.75,760.75 413.75,753.25 418.75,760.75 418.75,753.25" /><polyline points="422.00,753.25 420.00,754.00 419.50,755.50 419.50,758.50 420.00,760.00 422.00,760.75 424.00,760.00 424.50,758.50 424.50,755.50 424.00,754.00 422.00,753.25" /><polyline points="425.25,753.25 430.25,753.25" /><polyline points="427.75,753.25 427.75,760.75" /><polyline points="441.00,754.00 439.75,753.25 438.25,753.25 437.00,754.38 436.75,755.50 437.50,756.40 439.25,757.00 441.00,757.60 441.75,758.50 441.50,759.62 440.25,760.75 438.50,760.75 437.25,760.00" /><polyline points="446.75,753.25 442.50,753.25 442.50,756.85 445.50,756.85" /><polyline points="442.50,756.85 442.50,760.75 446.75,760.75" /><polyline points="448.25,753.25 453.25,753.25" /><polyline points="450.75,753.25 450.75,760.75" /><polyline points="454.00,753.25 459.00,753.25" /><polyline points="456.50,753.25 456.50,760.75" /><polyline points="459.75,753.25 459.75,760.75 464.00,760.75" /><polyline points="469.75,753.25 465.50,753.25 465.50,756.85 468.50,756.85" /><polyline points="465.50,756.85 465.50,760.75 469.75,760.75" /><polyline points="471.25,760.75 471.25,753.25 474.00,753.25 475.75,755.12 475.75,758.88 474.00,760.75 471.25,760.75" /><polyline points="356.25,766.25 357.50,773.75 358.75,768.88 360.00,773.75 361.25,766.25" /><polyline points="362.00,766.25 362.00,773.75" /><polyline points="367.00,766.25 367.00,773.75" /><polyline points="362.00,769.85 367.00,769.85" /><polyline points="372.00,766.25 367.75,766.25 367.75,769.85 370.75,769.85" /><polyline points="367.75,769.85 367.75,773.75 372.00,773.75" /><polyline points="373.50,773.75 373.50,766.25 378.50,773.75 378.50,766.25" /><polyline points="387.50,766.25 387.50,773.75" /><polyline points="390.75,766.25 395.75,766.25" /><polyline points="393.25,766.25 393.25,773.75" /><polyline points="406.75,767.38 405.00,766.25 404.00,766.25 402.25,767.75 402.25,772.25 404.00,773.75 405.00,773.75 406.75,772.62" /><polyline points="408.00,773.75 410.50,766.25 413.00,773.75" /><polyline points="408.90,771.12 412.10,771.12" /><polyline points="413.75,773.75 413.75,766.25 416.25,770.38 418.75,766.25 418.75,773.75" /><polyline points="423.75,766.25 419.50,766.25 419.50,769.85 422.50,769.85" /><polyline points="419.50,769.85 419.50,773.75 423.75,773.75" /><polyline points="431.00,773.75 433.50,766.25 436.00,773.75" /><polyline points="431.90,771.12 435.10,771.12" /><polyline points="441.25,767.38 439.50,766.25 438.50,766.25 436.75,767.75 436.75,772.25 438.50,773.75 439.50,773.75 441.25,772.62 441.25,770.00 439.25,770.00" /><polyline points="442.50,773.75 445.00,766.25 447.50,773.75" /><polyline points="443.40,771.12 446.60,771.12" /><polyline points="450.75,766.25 450.75,773.75" /><polyline points="454.00,773.75 454.00,766.25 459.00,773.75 459.00,766.25" /><polyline points="384.08,779.50 385.68,784.50 387.28,779.50" /><polyline points="389.36,779.50 389.36,784.50" /><polyline points="393.04,784.00 393.04,784.25" /><polyline points="395.12,779.50 398.32,784.50" /><polyline points="398.32,779.50 395.12,784.50" /><polyline points="398.80,779.50 402.00,784.50" /><polyline points="402.00,779.50 398.80,784.50" /><polyline points="402.48,779.50 404.08,784.50 405.68,779.50" /><polyline points="407.76,784.00 407.76,784.25" /><polyline points="409.84,784.50 409.84,779.50 411.44,782.25 413.04,779.50 413.04,784.50" /><polyline points="413.52,784.50 413.52,779.50 415.12,782.25 416.72,779.50 416.72,784.50" /><polyline points="417.20,779.50 420.40,784.50" /><polyline points="420.40,779.50 417.20,784.50" /><polyline points="420.88,779.50 424.08,784.50" /><polyline points="424.08,779.50 420.88,784.50" /><polyline points="424.56,779.50 426.16,784.50 427.76,779.50" /><polyline points="429.84,779.50 429.84,784.50" /></g><g id="02_Teal_First" inkscape:groupmode="layer" inkscape:label="02_Teal_First" stroke="#2E6B7B" fill="none" stroke-width="0.875" stroke-linecap="round" stroke-linejoin="round"><circle cx="351.8" cy="470.0" r="25.6" fill="none" /><circle cx="351.8" cy="470.0" r="42.1" fill="none" /><circle cx="351.8" cy="470.0" r="56.4" fill="none" /><circle cx="351.8" cy="470.0" r="69.4" fill="none" /><circle cx="351.8" cy="470.0" r="81.5" fill="none" /><circle cx="351.8" cy="470.0" r="92.9" fill="none" /><circle cx="351.8" cy="470.0" r="103.8" fill="none" /><circle cx="351.8" cy="470.0" r="114.3" fill="none" /><circle cx="351.8" cy="470.0" r="124.4" fill="none" /><circle cx="351.8" cy="470.0" r="134.2" fill="none" /><circle cx="351.8" cy="470.0" r="143.7" fill="none" /><circle cx="351.8" cy="470.0" r="153.0" fill="none" /><circle cx="351.8" cy="470.0" r="162.1" fill="none" /><circle cx="351.8" cy="470.0" r="170.9" fill="none" /><circle cx="351.8" cy="470.0" r="179.7" fill="none" /><circle cx="351.8" cy="470.0" r="188.2" fill="none" /><circle cx="351.8" cy="470.0" r="196.6" fill="none" /><circle cx="351.8" cy="470.0" r="204.9" fill="none" /><circle cx="351.8" cy="470.0" r="213.0" fill="none" /><circle cx="351.8" cy="470.0" r="221.0" fill="none" /><circle cx="351.8" cy="470.0" r="228.9" fill="none" /><circle cx="351.8" cy="470.0" r="236.7" fill="none" /><circle cx="351.8" cy="470.0" r="244.4" fill="none" /><circle cx="351.8" cy="470.0" r="252.0" fill="none" /><circle cx="351.8" cy="470.0" r="259.5" fill="none" /><circle cx="351.8" cy="470.0" r="267.0" fill="none" /><circle cx="351.8" cy="470.0" r="274.3" fill="none" /><circle cx="351.8" cy="470.0" r="281.6" fill="none" /><circle cx="351.8" cy="470.0" r="288.8" fill="none" /><circle cx="351.8" cy="470.0" r="295.9" fill="none" /><circle cx="351.8" cy="470.0" r="303.0" fill="none" /><circle cx="351.8" cy="470.0" r="310.0" fill="none" /></g><g id="03_Gold_Second" inkscape:groupmode="layer" inkscape:label="03_Gold_Second" stroke="#B8960C" fill="none" stroke-width="1.25" stroke-linecap="round" stroke-linejoin="round"><circle cx="461.0" cy="572.0" r="27.8" fill="none" /><circle cx="461.0" cy="572.0" r="44.6" fill="none" /><circle cx="461.0" cy="572.0" r="58.8" fill="none" /><circle cx="461.0" cy="572.0" r="71.5" fill="none" /><circle cx="461.0" cy="572.0" r="83.2" fill="none" /><circle cx="461.0" cy="572.0" r="94.2" fill="none" /><circle cx="461.0" cy="572.0" r="104.6" fill="none" /><circle cx="461.0" cy="572.0" r="114.5" fill="none" /><circle cx="461.0" cy="572.0" r="124.1" fill="none" /><circle cx="461.0" cy="572.0" r="133.3" fill="none" /><circle cx="461.0" cy="572.0" r="142.2" fill="none" /><circle cx="461.0" cy="572.0" r="150.9" fill="none" /><circle cx="461.0" cy="572.0" r="159.3" fill="none" /><circle cx="461.0" cy="572.0" r="167.5" fill="none" /><circle cx="461.0" cy="572.0" r="175.6" fill="none" /><circle cx="461.0" cy="572.0" r="183.5" fill="none" /><circle cx="461.0" cy="572.0" r="191.2" fill="none" /><circle cx="461.0" cy="572.0" r="198.8" fill="none" /><circle cx="461.0" cy="572.0" r="206.2" fill="none" /><circle cx="461.0" cy="572.0" r="213.5" fill="none" /><circle cx="461.0" cy="572.0" r="220.7" fill="none" /><circle cx="461.0" cy="572.0" r="227.8" fill="none" /><circle cx="461.0" cy="572.0" r="234.8" fill="none" /><circle cx="461.0" cy="572.0" r="241.7" fill="none" /><circle cx="461.0" cy="572.0" r="248.5" fill="none" /><circle cx="461.0" cy="572.0" r="255.2" fill="none" /><circle cx="461.0" cy="572.0" r="261.9" fill="none" /><circle cx="461.0" cy="572.0" r="268.4" fill="none" /><circle cx="461.0" cy="572.0" r="274.9" fill="none" /><circle cx="461.0" cy="572.0" r="281.3" fill="none" /><circle cx="461.0" cy="572.0" r="287.7" fill="none" /><circle cx="461.0" cy="572.0" r="293.9" fill="none" /><circle cx="461.0" cy="572.0" r="300.1" fill="none" /><circle cx="461.0" cy="572.0" r="306.3" fill="none" /><circle cx="461.0" cy="572.0" r="312.4" fill="none" /><circle cx="461.0" cy="572.0" r="318.4" fill="none" /><circle cx="461.0" cy="572.0" r="324.4" fill="none" /><circle cx="461.0" cy="572.0" r="330.4" fill="none" /><circle cx="461.0" cy="572.0" r="336.3" fill="none" /><circle cx="461.0" cy="572.0" r="342.1" fill="none" /><circle cx="461.0" cy="572.0" r="347.9" fill="none" /><circle cx="461.0" cy="572.0" r="353.6" fill="none" /><circle cx="461.0" cy="572.0" r="359.3" fill="none" /><circle cx="461.0" cy="572.0" r="365.0" fill="none" /></g></svg>