<?xml version='1.0' encoding='utf-8'?>
<svg xmlns="http://www.w3.org/2000/svg" xmlns:inkscape="http://www.inkscape.org/namespaces/inkscape" viewBox="204 228 408 600"><style>*{vector-effect:non-scaling-stroke}</style><g id="01_Black_Frame" inkscape:groupmode="layer" inkscape:label="01_Black_Frame" stroke="#1A1A1A" fill="none" stroke-width="0.875" stroke-linecap="round" stroke-linejoin="round"><path d="M 250.0,264.0 L 566.0,264.0 Q 576.0,264.0 576.0,274.0 L 576.0,782.0 Q 576.0,792.0 566.0,792.0 L 250.0,792.0 Q 240.0,792.0 240.0,782.0 L 240.0,274.0 Q 240.0,264.0 250.0,264.0" /><path d="M 253.0,270.0 L 563.0,270.0 Q 570.0,270.0 570.0,277.0 L 570.0,779.0 Q 570.0,786.0 563.0,786.0 L 253.0,786.0 Q 246.0,786.0 246.0,779.0 L 246.0,277.0 Q 246.0,270.0 253.0,270.0" /><line x1="259.0" y1="280.0" x2="263.0" y2="280.0" /><line x1="258.1" y1="282.1" x2="260.9" y2="284.9" /><line x1="256.0" y1="283.0" x2="256.0" y2="287.0" /><line x1="253.9" y1="282.1" x2="251.1" y2="284.9" /><line x1="253.0" y1="280.0" x2="249.0" y2="280.0" /><line x1="253.9" y1="277.9" x2="251.1" y2="275.1" /><line x1="256.0" y1="277.0" x2="256.0" y2="273.0" /><line x1="258.1" y1="277.9" x2="260.9" y2="275.1" /><line x1="563.0" y1="280.0" x2="567.0" y2="280.0" /><line x1="562.1" y1="282.1" x2="564.9" y2="284.9" /><line x1="560.0" y1="283.0" x2="560.0" y2="287.0" /><line x1="557.9" y1="282.1" x2="555.1" y2="284.9" /><line x1="557.0" y1="280.0" x2="553.0" y2="280.0" /><line x1="557.9" y1="277.9" x2="555.1" y2="275.1" /><line x1="560.0" y1="277.0" x2="560.0" y2="273.0" /><line x1="562.1" y1="277.9" x2="564.9" y2="275.1" /><line x1="259.0" y1="776.0" x2="263.0" y2="776.0" /><line x1="258.1" y1="778.1" x2="260.9" y2="780.9" /><line x1="256.0" y1="779.0" x2="256.0" y2="783.0" /><line x1="253.9" y1="778.1" x2="251.1" y2="780.9" /><line x1="253.0" y1="776.0" x2="249.0" y2="776.0" /><line x1="253.9" y1="773.9" x2="251.1" y2="771.1" /><line x1="256.0" y1="773.0" x2="256.0" y2="769.0" /><line x1="258.1" y1="773.9" x2="260.9" y2="771.1" /><line x1="563.0" y1="776.0" x2="567.0" y2="776.0" /><line x1="562.1" y1="778.1" x2="564.9" y2="780.9" /><line x1="560.0" y1="779.0" x2="560.0" y2="783.0" /><line x1="557.9" y1="778.1" x2="555.1" y2="780.9" /><line x1="557.0" y1="776.0" x2="553.0" y2="776.0" /><line x1="557.9" y1="773.9" x2="555.1" y2="771.1" /><line x1="560.0" y1="773.0" x2="560.0" y2="769.0" /><line x1="562.1" y1="773.9" x2="564.9" y2="771.1" /><polyline points="395.25,283.20 393.50,282.00 392.50,282.00 390.75,283.60 390.75,288.40 392.50,290.00 393.50,290.00 395.25,288.80" /><polyline points="396.50,282.00 396.50,290.00 400.75,290.00" /><polyline points="402.25,282.00 407.25,290.00" /><polyline points="407.25,282.00 402.25,290.00" /><polyline points="408.00,282.00 413.00,290.00" /><polyline points="413.00,282.00 408.00,290.00" /><polyline points="413.75,282.00 418.75,290.00" /><polyline points="418.75,282.00 413.75,290.00" /><polyline points="422.00,282.00 422.00,290.00" /><polyline points="359.41,297.00 365.91,297.00" /><polyline points="362.66,297.00 362.66,307.00" /><polyline points="366.89,297.00 366.89,307.00" /><polyline points="373.39,297.00 373.39,307.00" /><polyline points="366.89,301.80 373.39,301.80" /><polyline points="379.89,297.00 374.36,297.00 374.36,301.80 378.26,301.80" /><polyline points="374.36,301.80 374.36,307.00 379.89,307.00" /><polyline points="389.31,307.00 389.31,297.00 393.54,297.00 395.16,298.50 395.16,300.20 393.54,301.50 389.31,301.50 395.16,307.00" /><polyline points="402.31,297.00 396.79,297.00 396.79,301.80 400.69,301.80" /><polyline points="396.79,301.80 396.79,307.00 402.31,307.00" /><polyline points="404.26,307.00 404.26,297.00 407.51,302.50 410.76,297.00 410.76,307.00" /><polyline points="411.74,307.00 414.99,297.00 418.24,307.00" /><polyline points="412.91,303.50 417.07,303.50" /><polyline points="422.46,297.00 422.46,307.00" /><polyline points="426.69,307.00 426.69,297.00 433.19,307.00 433.19,297.00" /><polyline points="434.16,307.00 434.16,297.00 437.74,297.00 440.01,299.50 440.01,304.50 437.74,307.00 434.16,307.00" /><polyline points="447.16,297.00 441.64,297.00 441.64,301.80 445.54,301.80" /><polyline points="441.64,301.80 441.64,307.00 447.16,307.00" /><polyline points="449.11,307.00 449.11,297.00 453.34,297.00 454.96,298.50 454.96,300.20 453.34,301.50 449.11,301.50 454.96,307.00" /><line x1="270.0" y1="312.0" x2="546.0" y2="312.0" /><line x1="270.0" y1="732.0" x2="546.0" y2="732.0" /><polyline points="376.71,741.42 375.73,740.75 375.17,740.75 374.19,741.65 374.19,744.35 375.17,745.25 375.73,745.25 376.71,744.58" /><polyline points="378.81,740.75 377.69,741.20 377.41,742.10 377.41,743.90 377.69,744.80 378.81,745.25 379.93,744.80 380.21,743.90 380.21,742.10 379.93,741.20 378.81,740.75" /><polyline points="380.63,745.25 380.63,740.75 382.03,743.23 383.43,740.75 383.43,745.25" /><polyline points="383.85,745.25 383.85,740.75 385.67,740.75 386.37,741.42 386.37,742.19 385.67,742.77 383.85,742.77" /><polyline points="387.07,740.75 387.07,745.25 389.45,745.25" /><polyline points="392.67,740.75 390.29,740.75 390.29,742.91 391.97,742.91" /><polyline points="390.29,742.91 390.29,745.25 392.67,745.25" /><polyline points="393.51,740.75 396.31,740.75" /><polyline points="394.91,740.75 394.91,745.25" /><polyline points="398.13,740.75 398.13,745.25" /><polyline points="401.35,740.75 400.23,741.20 399.95,742.10 399.95,743.90 400.23,744.80 401.35,745.25 402.47,744.80 402.75,743.90 402.75,742.10 402.47,741.20 401.35,740.75" /><polyline points="403.17,745.25 403.17,740.75 405.97,745.25 405.97,740.75" /><polyline points="412.83,745.25 412.83,740.75 414.65,740.75 415.21,741.29 415.21,742.01 414.65,742.55 412.83,742.55 414.65,742.55 415.21,743.09 415.21,744.71 414.65,745.25 412.83,745.25" /><polyline points="417.45,740.75 416.33,741.20 416.05,742.10 416.05,743.90 416.33,744.80 417.45,745.25 418.57,744.80 418.85,743.90 418.85,742.10 418.57,741.20 417.45,740.75" /><polyline points="419.27,740.75 420.67,743.00 422.07,740.75" /><polyline points="420.67,743.00 420.67,745.25" /><polyline points="428.93,745.25 430.33,740.75 431.73,745.25" /><polyline points="429.43,743.67 431.23,743.67" /><polyline points="432.15,740.75 434.95,745.25" /><polyline points="434.95,740.75 432.15,745.25" /><polyline points="436.77,740.75 435.65,741.20 435.37,742.10 435.37,743.90 435.65,744.80 436.77,745.25 437.89,744.80 438.17,743.90 438.17,742.10 437.89,741.20 436.77,740.75" /><polyline points="438.59,745.25 438.59,740.75 441.39,745.25 441.39,740.75" /><polyline points="321.75,753.25 326.75,753.25" /><polyline points="324.25,753.25 324.25,760.75" /><polyline points="327.50,753.25 327.50,760.75" /><polyline points="332.50,753.25 332.50,760.75" /><polyline points="327.50,756.85 332.50,756.85" /><polyline points="337.50,753.25 333.25,753.25 333.25,756.85 336.25,756.85" /><polyline points="333.25,756.85 333.25,760.75 337.50,760.75" /><polyline points="344.75,760.75 344.75,753.25 348.00,753.25 349.25,754.38 349.25,755.65 348.00,756.62 344.75,756.62" /><polyline points="354.75,753.25 350.50,753.25 350.50,756.85 353.50,756.85" /><polyline points="350.50,756.85 350.50,760.75 354.75,760.75" /><polyline points="356.25,760.75 356.25,753.25 359.50,753.25 360.75,754.38 360.75,755.65 359.50,756.62 356.25,756.62 360.75,760.75" /><polyline points="366.50,754.38 364.75,753.25 363.75,753.25 362.00,754.75 362.00,759.25 363.75,760.75 364.75,760.75 366.50,759.62" /><polyline points="372.00,753.25 367.75,753.25 367.75,756.85 370.75,756.85" /><polyline points="367.75,756.85 367.75,760.75 372.00,760.75" /><polyline points="373.50,760.75 373.50,753.25 378.50,760.75 378.50,753.25" /><polyline points="379.25,753.25 384.25,753.25" /><polyline points="381.75,753.25 381.75,760.75" /><polyline points="393.25,753.25 393.25,760.75" /><polyline points="400.75,754.00 399.50,753.25 398.00,753.25 396.75,754.38 396.50,755.50 397.25,756.40 399.00,757.00 400.75,757.60 401.50,758.50 401.25,759.62 400.00,760.75 398.25,760.75 397.00,760.00" /><polyline points="408.00,760.75 410.50,753.25 413.00,760.75" /><polyline points="408.90,758.12 412.10,758.12" /><polyline points="419.50,753.25 419.50,760.75" /><polyline points="424.00,753.25 419.50,757.00 424.00,760.75" /><polyline points="427.75,753.25 427.75,760.75" /><polyline points="431.00,760.75 431.00,753.25 436.00,760.75 436.00,753.25" /><polyline points="436.75,760.75 436.75,753.25 439.50,753.25 441.25,755.12 441.25,758.88 439.50,760.75 436.75,760.75" /><polyline points="450.75,753.25 448.75,754.00 448.25,755.50 448.25,758.50 448.75,760.00 450.75,760.75 452.75,760.00 453.25,758.50 453.25,755.50 452.75,754.00 450.75,753.25" /><polyline points="458.25,753.25 454.00,753.25 454.00,756.85 457.00,756.85" /><polyline points="454.00,756.85 454.00,760.75" /><polyline points="469.75,753.25 465.50,753.25 465.50,756.85 468.50,756.85" /><polyline points="465.50,756.85 465.50,760.75" /><polyline points="475.50,753.25 471.25,753.25 471.25,756.85 474.25,756.85" /><polyline points="471.25,756.85 471.25,760.75 475.50,760.75" /><polyline points="477.00,760.75 477.00,753.25 482.00,760.75 482.00,753.25" /><polyline points="487.25,754.38 485.50,753.25 484.50,753.25 482.75,754.75 482.75,759.25 484.50,760.75 485.50,760.75 487.25,759.62" /><polyline points="492.75,753.25 488.50,753.25 488.50,756.85 491.50,756.85" /><polyline points="488.50,756.85 488.50,760.75 492.75,760.75" /><polyline points="344.75,766.25 349.75,766.25" /><polyline points="347.25,766.25 347.25,773.75" /><polyline points="350.50,766.25 350.50,773.75" /><polyline points="355.50,766.25 355.50,773.75" /><polyline points="350.50,769.85 355.50,769.85" /><polyline points="360.50,766.25 356.25,766.25 356.25,769.85 359.25,769.85" /><polyline points="356.25,769.85 356.25,773.75 360.50,773.75" /><polyline points="367.75,773.75 367.75,766.25 371.00,766.25 372.25,767.38 372.25,768.65 371.00,769.62 367.75,769.62 372.25,773.75" /><polyline points="377.75,766.25 373.50,766.25 373.50,769.85 376.50,769.85" /><polyline points="373.50,769.85 373.50,773.75 377.75,773.75" /><polyline points="379.25,773.75 379.25,766.25 381.75,770.38 384.25,766.25 384.25,773.75" /><polyline points="385.00,773.75 387.50,766.25 390.00,773.75" /><polyline points="385.90,771.12 389.10,771.12" /><polyline points="393.25,766.25 393.25,773.75" /><polyline points="396.50,773.75 396.50,766.25 401.50,773.75 401.50,766.25" /><polyline points="402.25,773.75 402.25,766.25 405.00,766.25 406.75,768.12 406.75,771.88 405.00,773.75 402.25,773.75" /><polyline points="412.25,766.25 408.00,766.25 408.00,769.85 411.00,769.85" /><polyline points="408.00,769.85 408.00,773.75 412.25,773.75" /><polyline points="413.75,773.75 413.75,766.25 417.00,766.25 418.25,767.38 418.25,768.65 417.00,769.62 413.75,769.62 418.25,773.75" /><polyline points="427.75,766.25 427.75,773.75" /><polyline points="435.25,767.00 434.00,766.25 432.50,766.25 431.25,767.38 431.00,768.50 431.75,769.40 433.50,770.00 435.25,770.60 436.00,771.50 435.75,772.62 434.50,773.75 432.75,773.75 431.50,773.00" /><polyline points="442.50,773.75 445.00,766.25 447.50,773.75" /><polyline points="443.40,771.12 446.60,771.12" /><polyline points="454.00,773.75 454.00,766.25 457.25,766.25 458.25,767.15 458.25,768.35 457.25,769.25 454.00,769.25 457.25,769.25 458.25,770.15 458.25,772.85 457.25,773.75 454.00,773.75" /><polyline points="462.25,766.25 460.25,767.00 459.75,768.50 459.75,771.50 460.25,773.00 462.25,773.75 464.25,773.00 464.75,771.50 464.75,768.50 464.25,767.00 462.25,766.25" /><polyline points="465.50,766.25 468.00,770.00 470.50,766.25" /><polyline points="468.00,770.00 468.00,773.75" /><polyline points="384.08,779.50 385.68,784.50 387.28,779.50" /><polyline points="389.36,779.50 389.36,784.50" /><polyline points="393.04,784.00 393.04,784.25" /><polyline points="395.12,779.50 398.32,784.50" /><polyline points="398.32,779.50 395.12,784.50" /><polyline points="398.80,779.50 402.00,784.50" /><polyline points="402.00,779.50 398.80,784.50" /><polyline points="402.48,779.50 405.68,784.50" /><polyline points="405.68,779.50 402.48,784.50" /><polyline points="407.76,784.00 407.76,784.25" /><polyline points="409.84,784.50 409.84,779.50 411.44,782.25 413.04,779.50 413.04,784.50" /><polyline points="413.52,784.50 413.52,779.50 415.12,782.25 416.72,779.50 416.72,784.50" /><polyline points="417.20,779.50 420.40,784.50" /><polyline points="420.40,779.50 417.20,784.50" /><polyline points="420.88,779.50 424.08,784.50" /><polyline points="424.08,779.50 420.88,784.50" /><polyline points="424.56,779.50 426.16,784.50 427.76,779.50" /><polyline points="429.84,779.50 429.84,784.50" /></g><g id="02_Teal_Mass" inkscape:groupmode="layer" inkscape:label="02_Teal_Mass" stroke="#3A7A7A" fill="none" stroke-width="0.7" stroke-linecap="round" stroke-linejoin="round"><line x1="252.0" y1="319.0" x2="564.0" y2="319.0" /><line x1="252.0" y1="319.7" x2="564.0" y2="319.6" /><line x1="252.0" y1="321.0" x2="564.0" y2="320.9" /><line x1="252.0" y1="322.8" x2="564.0" y2="322.7" /><line x1="252.0" y1="325.0" x2="564.0" y2="324.9" /><line x1="252.0" y1="327.6" x2="564.0" y2="327.4" /><line x1="252.0" y1="330.5" x2="564.0" y2="330.2" /><line x1="252.0" y1="333.7" x2="564.0" y2="333.4" /><line x1="252.0" y1="337.2" x2="564.0" y2="336.8" /><line x1="252.0" y1="341.0" x2="564.0" y2="340.5" /><line x1="252.0" y1="345.1" x2="564.0" y2="344.4" /><line x1="252.0" y1="349.4" x2="564.0" y2="348.6" /><line x1="252.0" y1="353.9" x2="564.0" y2="353.0" /><line x1="252.0" y1="358.7" x2="564.0" y2="357.7" /><line x1="252.0" y1="363.7" x2="564.0" y2="362.5" /><line x1="252.0" y1="368.9" x2="564.0" y2="367.6" /><line x1="252.0" y1="374.3" x2="564.0" y2="372.9" /><line x1="252.0" y1="379.9" x2="564.0" y2="378.4" /><line x1="252.0" y1="385.7" x2="564.0" y2="384.1" /><line x1="252.0" y1="391.7" x2="564.0" y2="390.0" /><line x1="252.0" y1="397.9" x2="564.0" y2="396.1" /><line x1="252.0" y1="404.3" x2="564.0" y2="402.4" /><line x1="252.0" y1="410.9" x2="564.0" y2="408.9" /><line x1="252.0" y1="417.6" x2="564.0" y2="415.5" /><line x1="252.0" y1="424.6" x2="564.0" y2="422.4" /><line x1="252.0" y1="431.6" x2="564.0" y2="429.4" /><line x1="252.0" y1="438.9" x2="564.0" y2="436.6" /><line x1="252.0" y1="446.3" x2="564.0" y2="443.9" /><line x1="252.0" y1="453.9" x2="564.0" y2="451.5" /><line x1="252.0" y1="461.6" x2="564.0" y2="459.2" /><line x1="252.0" y1="469.5" x2="564.0" y2="467.1" /><line x1="252.0" y1="477.5" x2="564.0" y2="475.1" /><line x1="252.0" y1="485.7" x2="564.0" y2="483.4" /><line x1="252.0" y1="494.0" x2="564.0" y2="491.7" /><line x1="252.0" y1="502.5" x2="564.0" y2="500.3" /><line x1="252.0" y1="511.1" x2="564.0" y2="509.0" /><line x1="252.0" y1="519.8" x2="564.0" y2="517.9" /><line x1="252.0" y1="528.7" x2="564.0" y2="526.9" /><line x1="252.0" y1="537.7" x2="564.0" y2="536.1" /><line x1="252.0" y1="546.9" x2="564.0" y2="545.4" /><line x1="252.0" y1="556.2" x2="564.0" y2="554.9" /><line x1="252.0" y1="565.6" x2="564.0" y2="564.6" /><line x1="252.0" y1="575.1" x2="564.0" y2="574.4" /><line x1="252.0" y1="584.8" x2="564.0" y2="584.3" /><line x1="252.0" y1="594.6" x2="564.0" y2="594.4" /><line x1="252.0" y1="604.6" x2="564.0" y2="604.6" /><line x1="341.7" y1="602.5" x2="346.9" y2="605.9" /><line x1="354.8" y1="605.9" x2="362.8" y2="606.2" /><line x1="450.3" y1="601.8" x2="443.5" y2="604.2" /><line x1="279.1" y1="606.3" x2="271.7" y2="607.9" /><line x1="256.1" y1="604.2" x2="264.0" y2="605.0" /><line x1="384.6" y1="603.5" x2="380.6" y2="607.3" /><line x1="554.0" y1="604.8" x2="558.9" y2="608.3" /><line x1="475.0" y1="600.2" x2="468.9" y2="603.1" /><line x1="408.8" y1="605.0" x2="401.0" y2="606.0" /><line x1="455.3" y1="601.5" x2="447.8" y2="603.1" /><line x1="514.4" y1="614.8" x2="522.1" y2="616.0" /><line x1="327.7" y1="614.0" x2="334.0" y2="616.8" /><line x1="370.7" y1="609.0" x2="366.8" y2="612.8" /><line x1="387.8" y1="614.0" x2="395.4" y2="615.4" /><line x1="358.7" y1="609.9" x2="365.8" y2="611.9" /><line x1="290.8" y1="613.0" x2="285.2" y2="616.2" /><line x1="504.0" y1="615.5" x2="496.0" y2="615.6" /><line x1="269.9" y1="611.8" x2="273.8" y2="615.7" /><line x1="414.5" y1="611.9" x2="407.1" y2="613.6" /><line x1="475.6" y1="616.7" x2="473.7" y2="621.0" /><line x1="544.9" y1="617.9" x2="545.0" y2="622.3" /><line x1="524.2" y1="621.1" x2="527.3" y2="625.1" /><line x1="439.2" y1="618.6" x2="445.9" y2="621.0" /><line x1="546.7" y1="619.8" x2="554.2" y2="621.4" /><line x1="524.4" y1="622.3" x2="529.9" y2="625.5" /><line x1="283.3" y1="618.4" x2="287.6" y2="622.1" /><line x1="434.7" y1="616.5" x2="440.8" y2="619.4" /><line x1="537.5" y1="630.5" x2="545.4" y2="631.1" /><line x1="529.5" y1="628.2" x2="537.1" y2="629.5" /><line x1="547.7" y1="627.9" x2="542.3" y2="631.1" /><line x1="469.1" y1="628.3" x2="463.8" y2="631.6" /><line x1="353.4" y1="628.7" x2="354.1" y2="633.1" /><line x1="270.6" y1="628.8" x2="264.0" y2="631.3" /><line x1="425.0" y1="625.4" x2="418.1" y2="627.7" /><line x1="554.2" y1="637.6" x2="547.9" y2="640.3" /><line x1="343.3" y1="636.7" x2="349.2" y2="639.7" /><line x1="373.2" y1="636.8" x2="380.3" y2="638.8" /><line x1="288.1" y1="632.8" x2="284.1" y2="636.6" /><line x1="360.9" y1="635.5" x2="368.6" y2="636.7" /><line x1="506.8" y1="634.1" x2="503.8" y2="638.2" /><line x1="560.8" y1="646.2" x2="553.4" y2="647.8" /><line x1="348.7" y1="647.1" x2="355.5" y2="649.4" /><line x1="415.9" y1="643.1" x2="418.4" y2="647.3" /><line x1="498.4" y1="641.6" x2="494.3" y2="645.4" /><line x1="278.3" y1="642.0" x2="281.3" y2="646.0" /><line x1="314.5" y1="652.1" x2="316.2" y2="656.4" /><line x1="406.4" y1="651.0" x2="409.9" y2="655.0" /><line x1="369.5" y1="653.2" x2="368.7" y2="657.5" /><line x1="379.8" y1="651.9" x2="387.2" y2="653.6" /><line x1="318.6" y1="658.3" x2="321.5" y2="662.4" /><line x1="307.8" y1="661.9" x2="299.8" y2="662.2" /><line x1="398.0" y1="658.0" x2="403.3" y2="661.4" /><line x1="467.3" y1="671.2" x2="474.4" y2="673.2" /><line x1="390.3" y1="670.2" x2="384.1" y2="673.1" /><line x1="357.8" y1="667.9" x2="354.0" y2="671.8" /><line x1="526.1" y1="676.2" x2="531.6" y2="679.5" /><line x1="280.7" y1="676.0" x2="272.7" y2="676.4" /><line x1="470.5" y1="685.9" x2="471.8" y2="690.3" /><line x1="481.7" y1="687.1" x2="474.7" y2="689.2" /><line x1="278.6" y1="696.4" x2="270.7" y2="697.1" /><line x1="265.6" y1="701.1" x2="270.5" y2="704.5" /></g><g id="03_Gold_Line" inkscape:groupmode="layer" inkscape:label="03_Gold_Line" stroke="#B8960C" fill="none" stroke-width="1.12" stroke-linecap="round" stroke-linejoin="round"><line x1="292.2" y1="319.0" x2="292.2" y2="327.5" /><line x1="289.7" y1="327.5" x2="294.7" y2="327.5" /><line x1="305.0" y1="319.0" x2="305.0" y2="325.9" /><line x1="302.5" y1="325.9" x2="307.5" y2="325.9" /><line x1="312.6" y1="319.0" x2="312.6" y2="328.2" /><line x1="310.1" y1="328.2" x2="315.1" y2="328.2" /><line x1="353.7" y1="319.0" x2="353.7" y2="328.8" /><line x1="351.2" y1="328.8" x2="356.2" y2="328.8" /><line x1="357.7" y1="319.0" x2="357.7" y2="325.2" /><line x1="355.2" y1="325.2" x2="360.2" y2="325.2" /><line x1="379.8" y1="319.0" x2="379.8" y2="328.4" /><line x1="377.3" y1="328.4" x2="382.3" y2="328.4" /><line x1="415.2" y1="319.0" x2="415.2" y2="326.4" /><line x1="412.7" y1="326.4" x2="417.7" y2="326.4" /><line x1="429.2" y1="319.0" x2="429.2" y2="328.8" /><line x1="426.7" y1="328.8" x2="431.7" y2="328.8" /><line x1="472.0" y1="319.0" x2="472.0" y2="326.1" /><line x1="469.5" y1="326.1" x2="474.5" y2="326.1" /><line x1="252.0" y1="604.6" x2="564.0" y2="604.6" /><line x1="252.0" y1="599.6" x2="252.0" y2="609.6" /><line x1="261.2" y1="602.2" x2="261.2" y2="607.0" /><line x1="270.4" y1="602.2" x2="270.4" y2="607.0" /><line x1="279.5" y1="602.2" x2="279.5" y2="607.0" /><line x1="288.7" y1="602.2" x2="288.7" y2="607.0" /><line x1="297.9" y1="599.6" x2="297.9" y2="609.6" /><line x1="307.1" y1="602.2" x2="307.1" y2="607.0" /><line x1="316.2" y1="602.2" x2="316.2" y2="607.0" /><line x1="325.4" y1="602.2" x2="325.4" y2="607.0" /><line x1="334.6" y1="602.2" x2="334.6" y2="607.0" /><line x1="343.8" y1="599.6" x2="343.8" y2="609.6" /><line x1="352.9" y1="602.2" x2="352.9" y2="607.0" /><line x1="362.1" y1="602.2" x2="362.1" y2="607.0" /><line x1="371.3" y1="602.2" x2="371.3" y2="607.0" /><line x1="380.5" y1="602.2" x2="380.5" y2="607.0" /><line x1="389.6" y1="599.6" x2="389.6" y2="609.6" /><line x1="398.8" y1="602.2" x2="398.8" y2="607.0" /><line x1="408.0" y1="602.2" x2="408.0" y2="607.0" /><line x1="417.2" y1="602.2" x2="417.2" y2="607.0" /><line x1="426.4" y1="602.2" x2="426.4" y2="607.0" /><line x1="435.5" y1="599.6" x2="435.5" y2="609.6" /><line x1="444.7" y1="602.2" x2="444.7" y2="607.0" /><line x1="453.9" y1="602.2" x2="453.9" y2="607.0" /><line x1="463.1" y1="602.2" x2="463.1" y2="607.0" /><line x1="472.2" y1="602.2" x2="472.2" y2="607.0" /><line x1="481.4" y1="599.6" x2="481.4" y2="609.6" /><line x1="490.6" y1="602.2" x2="490.6" y2="607.0" /><line x1="499.8" y1="602.2" x2="499.8" y2="607.0" /><line x1="508.9" y1="602.2" x2="508.9" y2="607.0" /><line x1="518.1" y1="602.2" x2="518.1" y2="607.0" /><line x1="527.3" y1="599.6" x2="527.3" y2="609.6" /><line x1="536.5" y1="602.2" x2="536.5" y2="607.0" /><line x1="545.6" y1="602.2" x2="545.6" y2="607.0" /><line x1="554.8" y1="602.2" x2="554.8" y2="607.0" /><line x1="564.0" y1="602.2" x2="564.0" y2="607.0" /><circle cx="445.4" cy="658.9" r="2.4" /><line x1="445.4" y1="661.5" x2="445.4" y2="673.5" /><line x1="445.4" y1="673.5" x2="441.2" y2="677.5" /><line x1="445.4" y1="673.5" x2="448.7" y2="677.5" /><line x1="445.4" y1="665.2" x2="440.9" y2="669.0" /></g></svg>