<?xml version='1.0' encoding='utf-8'?>
<svg xmlns="http://www.w3.org/2000/svg" xmlns:inkscape="http://www.inkscape.org/namespaces/inkscape" viewBox="204 228 408 600"><style>*{vector-effect:non-scaling-stroke}</style><g id="01_Black_Frame" inkscape:groupmode="layer" inkscape:label="01_Black_Frame" stroke="#1A1A1A" fill="none" stroke-width="0.875" stroke-linecap="round" stroke-linejoin="round"><path d="M 250.0,264.0 L 566.0,264.0 Q 576.0,264.0 576.0,274.0 L 576.0,782.0 Q 576.0,792.0 566.0,792.0 L 250.0,792.0 Q 240.0,792.0 240.0,782.0 L 240.0,274.0 Q 240.0,264.0 250.0,264.0" /><path d="M 253.0,270.0 L 563.0,270.0 Q 570.0,270.0 570.0,277.0 L 570.0,779.0 Q 570.0,786.0 563.0,786.0 L 253.0,786.0 Q 246.0,786.0 246.0,779.0 L 246.0,277.0 Q 246.0,270.0 253.0,270.0" /><line x1="259.0" y1="280.0" x2="263.0" y2="280.0" /><line x1="258.1" y1="282.1" x2="260.9" y2="284.9" /><line x1="256.0" y1="283.0" x2="256.0" y2="287.0" /><line x1="253.9" y1="282.1" x2="251.1" y2="284.9" /><line x1="253.0" y1="280.0" x2="249.0" y2="280.0" /><line x1="253.9" y1="277.9" x2="251.1" y2="275.1" /><line x1="256.0" y1="277.0" x2="256.0" y2="273.0" /><line x1="258.1" y1="277.9" x2="260.9" y2="275.1" /><line x1="563.0" y1="280.0" x2="567.0" y2="280.0" /><line x1="562.1" y1="282.1" x2="564.9" y2="284.9" /><line x1="560.0" y1="283.0" x2="560.0" y2="287.0" /><line x1="557.9" y1="282.1" x2="555.1" y2="284.9" /><line x1="557.0" y1="280.0" x2="553.0" y2="280.0" /><line x1="557.9" y1="277.9" x2="555.1" y2="275.1" /><line x1="560.0" y1="277.0" x2="560.0" y2="273.0" /><line x1="562.1" y1="277.9" x2="564.9" y2="275.1" /><line x1="259.0" y1="776.0" x2="263.0" y2="776.0" /><line x1="258.1" y1="778.1" x2="260.9" y2="780.9" /><line x1="256.0" y1="779.0" x2="256.0" y2="783.0" /><line x1="253.9" y1="778.1" x2="251.1" y2="780.9" /><line x1="253.0" y1="776.0" x2="249.0" y2="776.0" /><line x1="253.9" y1="773.9" x2="251.1" y2="771.1" /><line x1="256.0" y1="773.0" x2="256.0" y2="769.0" /><line x1="258.1" y1="773.9" x2="260.9" y2="771.1" /><line x1="563.0" y1="776.0" x2="567.0" y2="776.0" /><line x1="562.1" y1="778.1" x2="564.9" y2="780.9" /><line x1="560.0" y1="779.0" x2="560.0" y2="783.0" /><line x1="557.9" y1="778.1" x2="555.1" y2="780.9" /><line x1="557.0" y1="776.0" x2="553.0" y2="776.0" /><line x1="557.9" y1="773.9" x2="555.1" y2="771.1" /><line x1="560.0" y1="773.0" x2="560.0" y2="769.0" /><line x1="562.1" y1="773.9" x2="564.9" y2="771.1" /><polyline points="403.88,283.20 402.12,282.00 401.12,282.00 399.38,283.60 399.38,288.40 401.12,290.00 402.12,290.00 403.88,288.80" /><polyline points="405.12,282.00 410.12,290.00" /><polyline points="410.12,282.00 405.12,290.00" /><polyline points="410.88,282.00 413.38,290.00 415.88,282.00" /><polyline points="370.62,297.00 377.12,297.00" /><polyline points="373.88,297.00 373.88,307.00" /><polyline points="378.10,297.00 378.10,307.00" /><polyline points="384.60,297.00 384.60,307.00" /><polyline points="378.10,301.80 384.60,301.80" /><polyline points="391.10,297.00 385.57,297.00 385.57,301.80 389.47,301.80" /><polyline points="385.57,301.80 385.57,307.00 391.10,307.00" /><polyline points="400.52,307.00 400.52,297.00 407.02,307.00 407.02,297.00" /><polyline points="413.52,297.00 408.00,297.00 408.00,301.80 411.90,301.80" /><polyline points="408.00,301.80 408.00,307.00 413.52,307.00" /><polyline points="421.00,297.00 415.48,297.00 415.48,301.80 419.38,301.80" /><polyline points="415.48,301.80 415.48,307.00 421.00,307.00" /><polyline points="422.95,307.00 422.95,297.00 426.52,297.00 428.80,299.50 428.80,304.50 426.52,307.00 422.95,307.00" /><polyline points="430.43,297.00 430.43,307.00 435.95,307.00" /><polyline points="443.42,297.00 437.90,297.00 437.90,301.80 441.80,301.80" /><polyline points="437.90,301.80 437.90,307.00 443.42,307.00" /><line x1="270.0" y1="312.0" x2="546.0" y2="312.0" /><line x1="270.0" y1="732.0" x2="546.0" y2="732.0" /><polyline points="375.80,745.25 375.80,740.75 377.62,740.75 378.18,741.29 378.18,742.01 377.62,742.55 375.80,742.55 377.62,742.55 378.18,743.09 378.18,744.71 377.62,745.25 375.80,745.25" /><polyline points="379.02,745.25 380.42,740.75 381.82,745.25" /><polyline points="379.52,743.67 381.32,743.67" /><polyline points="382.24,745.25 382.24,740.75 383.64,743.23 385.04,740.75 385.04,745.25" /><polyline points="385.46,745.25 386.86,740.75 388.26,745.25" /><polyline points="385.96,743.67 387.76,743.67" /><polyline points="388.68,740.75 388.68,745.25" /><polyline points="391.20,740.75 388.68,743.00 391.20,745.25" /><polyline points="393.30,740.75 392.18,741.20 391.90,742.10 391.90,743.90 392.18,744.80 393.30,745.25 394.42,744.80 394.70,743.90 394.70,742.10 394.42,741.20 393.30,740.75" /><polyline points="403.94,741.20 403.24,740.75 402.40,740.75 401.70,741.42 401.56,742.10 401.98,742.64 402.96,743.00 403.94,743.36 404.36,743.90 404.22,744.58 403.52,745.25 402.54,745.25 401.84,744.80" /><polyline points="406.18,740.75 405.06,741.20 404.78,742.10 404.78,743.90 405.06,744.80 406.18,745.25 407.30,744.80 407.58,743.90 407.58,742.10 407.30,741.20 406.18,740.75" /><polyline points="406.46,743.90 407.58,745.34" /><polyline points="408.00,740.75 408.00,744.12 408.56,745.02 410.24,745.02 410.80,744.12 410.80,740.75" /><polyline points="411.22,745.25 412.62,740.75 414.02,745.25" /><polyline points="411.72,743.67 413.52,743.67" /><polyline points="414.44,745.25 414.44,740.75 415.98,740.75 416.96,741.88 416.96,744.12 415.98,745.25 414.44,745.25" /><polyline points="424.10,745.25 424.10,740.75 425.92,740.75 426.48,741.29 426.48,742.01 425.92,742.55 424.10,742.55 425.92,742.55 426.48,743.09 426.48,744.71 425.92,745.25 424.10,745.25" /><polyline points="428.72,740.75 427.60,741.20 427.32,742.10 427.32,743.90 427.60,744.80 428.72,745.25 429.84,744.80 430.12,743.90 430.12,742.10 429.84,741.20 428.72,740.75" /><polyline points="430.54,740.75 433.34,740.75" /><polyline points="431.94,740.75 431.94,745.25" /><polyline points="435.16,740.75 434.04,741.20 433.76,742.10 433.76,743.90 434.04,744.80 435.16,745.25 436.28,744.80 436.56,743.90 436.56,742.10 436.28,741.20 435.16,740.75" /><polyline points="436.98,740.75 439.78,745.25" /><polyline points="439.78,740.75 436.98,745.25" /><polyline points="369.12,754.00 367.88,753.25 366.38,753.25 365.12,754.38 364.88,755.50 365.62,756.40 367.38,757.00 369.12,757.60 369.88,758.50 369.62,759.62 368.38,760.75 366.62,760.75 365.38,760.00" /><polyline points="370.62,760.75 373.12,753.25 375.62,760.75" /><polyline points="371.52,758.12 374.73,758.12" /><polyline points="376.38,760.75 376.38,753.25 378.88,757.38 381.38,753.25 381.38,760.75" /><polyline points="386.38,753.25 382.12,753.25 382.12,756.85 385.12,756.85" /><polyline points="382.12,756.85 382.12,760.75 386.38,760.75" /><polyline points="396.12,753.25 396.12,760.75" /><polyline points="399.38,760.75 399.38,753.25 404.38,760.75 404.38,753.25" /><polyline points="409.38,754.00 408.12,753.25 406.62,753.25 405.38,754.38 405.12,755.50 405.88,756.40 407.62,757.00 409.38,757.60 410.12,758.50 409.88,759.62 408.62,760.75 406.88,760.75 405.62,760.00" /><polyline points="410.88,753.25 415.88,753.25" /><polyline points="413.38,753.25 413.38,760.75" /><polyline points="416.62,760.75 416.62,753.25 419.88,753.25 421.12,754.38 421.12,755.65 419.88,756.62 416.62,756.62 421.12,760.75" /><polyline points="422.38,753.25 422.38,758.88 423.38,760.38 426.38,760.38 427.38,758.88 427.38,753.25" /><polyline points="428.12,760.75 428.12,753.25 430.62,757.38 433.12,753.25 433.12,760.75" /><polyline points="438.12,753.25 433.88,753.25 433.88,756.85 436.88,756.85" /><polyline points="433.88,756.85 433.88,760.75 438.12,760.75" /><polyline points="439.62,760.75 439.62,753.25 444.62,760.75 444.62,753.25" /><polyline points="445.38,753.25 450.38,753.25" /><polyline points="447.88,753.25 447.88,760.75" /><polyline points="367.75,773.75 367.75,766.25 370.50,766.25 372.25,768.12 372.25,771.88 370.50,773.75 367.75,773.75" /><polyline points="376.00,766.25 376.00,773.75" /><polyline points="383.50,766.25 379.25,766.25 379.25,769.85 382.25,769.85" /><polyline points="379.25,769.85 379.25,773.75" /><polyline points="389.25,766.25 385.00,766.25 385.00,769.85 388.00,769.85" /><polyline points="385.00,769.85 385.00,773.75" /><polyline points="395.00,766.25 390.75,766.25 390.75,769.85 393.75,769.85" /><polyline points="390.75,769.85 390.75,773.75 395.00,773.75" /><polyline points="396.50,773.75 396.50,766.25 399.75,766.25 401.00,767.38 401.00,768.65 399.75,769.62 396.50,769.62 401.00,773.75" /><polyline points="406.50,766.25 402.25,766.25 402.25,769.85 405.25,769.85" /><polyline points="402.25,769.85 402.25,773.75 406.50,773.75" /><polyline points="408.00,773.75 408.00,766.25 413.00,773.75 413.00,766.25" /><polyline points="413.75,766.25 418.75,766.25" /><polyline points="416.25,766.25 416.25,773.75" /><polyline points="425.25,766.25 427.75,773.75 430.25,766.25" /><polyline points="435.25,766.25 431.00,766.25 431.00,769.85 434.00,769.85" /><polyline points="431.00,769.85 431.00,773.75 435.25,773.75" /><polyline points="439.25,766.25 439.25,773.75" /><polyline points="442.50,773.75 442.50,766.25 447.50,773.75 447.50,766.25" /><polyline points="385.68,779.50 385.68,784.50" /><polyline points="387.76,779.50 389.36,784.50 390.96,779.50" /><polyline points="393.04,784.00 393.04,784.25" /><polyline points="395.12,779.50 398.32,784.50" /><polyline points="398.32,779.50 395.12,784.50" /><polyline points="398.80,779.50 402.00,784.50" /><polyline points="402.00,779.50 398.80,784.50" /><polyline points="402.48,779.50 404.08,784.50 405.68,779.50" /><polyline points="407.76,784.00 407.76,784.25" /><polyline points="409.84,784.50 409.84,779.50 411.44,782.25 413.04,779.50 413.04,784.50" /><polyline points="413.52,784.50 413.52,779.50 415.12,782.25 416.72,779.50 416.72,784.50" /><polyline points="417.20,779.50 420.40,784.50" /><polyline points="420.40,779.50 417.20,784.50" /><polyline points="420.88,779.50 424.08,784.50" /><polyline points="424.08,779.50 420.88,784.50" /><polyline points="424.56,779.50 426.16,784.50 427.76,779.50" /><polyline points="429.84,779.50 429.84,784.50" /></g><g id="02_Teal_Field" inkscape:groupmode="layer" inkscape:label="02_Teal_Field" stroke="#3A7A7A" fill="none" stroke-width="0.625" stroke-linecap="round" stroke-linejoin="round"><polyline points="258.0,324.6 261.6,324.5 265.3,324.5 268.9,324.4 272.6,324.4 276.2,324.3 279.8,324.3 283.5,324.3 287.1,324.2 290.8,324.2 294.4,324.3 298.0,324.3 301.7,324.3 305.3,324.4 309.0,324.5 312.6,324.6 316.2,324.7 319.9,324.8 323.5,324.9 327.2,325.1 330.8,325.3 334.4,325.4 338.1,325.6 341.7,325.8 345.4,326.0 349.0,326.2 352.6,326.3 356.3,326.5 359.9,326.6 363.6,326.7 367.2,326.8 370.8,326.8 374.5,326.9 378.1,326.9 381.8,326.8 385.4,326.7" /><line x1="399.4" y1="325.2" x2="408.4" y2="325.1" /><line x1="410.6" y1="325.0" x2="425.6" y2="324.8" /><line x1="431.6" y1="324.9" x2="450.5" y2="324.8" /><line x1="458.2" y1="325.2" x2="476.4" y2="325.2" /><line x1="478.4" y1="323.5" x2="486.0" y2="323.6" /><line x1="497.3" y1="322.4" x2="504.6" y2="322.5" /><line x1="513.1" y1="320.0" x2="522.7" y2="320.1" /><line x1="532.7" y1="329.0" x2="537.0" y2="329.0" /><polyline points="258.0,331.3 261.6,331.3 265.3,331.3 268.9,331.3 272.6,331.4 276.2,331.4 279.8,331.4 283.5,331.5 287.1,331.5 290.8,331.6 294.4,331.7 298.0,331.8 301.7,331.9 305.3,332.0 309.0,332.1 312.6,332.3 316.2,332.4 319.9,332.6 323.5,332.7 327.2,332.8 330.8,333.0 334.4,333.1 338.1,333.2 341.7,333.3 345.4,333.4 349.0,333.5 352.6,333.5 356.3,333.5 359.9,333.5 363.6,333.5 367.2,333.4 370.8,333.3 374.5,333.1 378.1,333.0 381.8,332.8 385.4,332.5" /><line x1="399.4" y1="331.9" x2="417.9" y2="331.6" /><line x1="420.6" y1="332.1" x2="435.1" y2="332.0" /><line x1="440.2" y1="330.9" x2="455.2" y2="331.0" /><line x1="462.3" y1="332.2" x2="469.4" y2="332.3" /><line x1="480.1" y1="332.6" x2="494.0" y2="332.7" /><line x1="496.8" y1="331.4" x2="504.0" y2="331.4" /><line x1="506.3" y1="332.1" x2="512.6" y2="332.1" /><line x1="515.3" y1="337.1" x2="518.3" y2="337.1" /><line x1="523.9" y1="331.3" x2="529.7" y2="331.3" /><line x1="542.8" y1="326.7" x2="547.2" y2="326.7" /><polyline points="258.0,338.4 261.6,338.5 265.3,338.5 268.9,338.6 272.6,338.7 276.2,338.7 279.8,338.8 283.5,338.9 287.1,339.0 290.8,339.1 294.4,339.2 298.0,339.3 301.7,339.5 305.3,339.6 309.0,339.7 312.6,339.8 316.2,339.9 319.9,340.0 323.5,340.1 327.2,340.1 330.8,340.2 334.4,340.2 338.1,340.2 341.7,340.2 345.4,340.1 349.0,340.0 352.6,339.9 356.3,339.8 359.9,339.6 363.6,339.4 367.2,339.2 370.8,339.0 374.5,338.8 378.1,338.5 381.8,338.3 385.4,338.0" /><line x1="399.4" y1="338.6" x2="409.9" y2="338.5" /><line x1="414.9" y1="337.7" x2="425.0" y2="337.7" /><line x1="426.7" y1="337.9" x2="443.5" y2="338.0" /><line x1="450.6" y1="339.7" x2="459.9" y2="339.8" /><line x1="472.8" y1="337.8" x2="487.2" y2="337.9" /><line x1="505.0" y1="347.8" x2="515.8" y2="347.7" /><line x1="521.3" y1="344.9" x2="526.8" y2="344.9" /><polyline points="258.0,345.8 261.6,345.8 265.3,345.9 268.9,346.0 272.6,346.1 276.2,346.2 279.8,346.3 283.5,346.4 287.1,346.4 290.8,346.5 294.4,346.6 298.0,346.7 301.7,346.8 305.3,346.8 309.0,346.9 312.6,346.9 316.2,346.9 319.9,346.9 323.5,346.8 327.2,346.8 330.8,346.7 334.4,346.6 338.1,346.5 341.7,346.3 345.4,346.2 349.0,346.0 352.6,345.8 356.3,345.6 359.9,345.4 363.6,345.2 367.2,344.9 370.8,344.7 374.5,344.5 378.1,344.3 381.8,344.1 385.4,344.0" /><line x1="399.4" y1="345.4" x2="426.0" y2="345.6" /><line x1="430.1" y1="345.5" x2="452.2" y2="345.8" /><line x1="457.9" y1="346.0" x2="468.8" y2="346.1" /><line x1="475.0" y1="347.3" x2="481.6" y2="347.3" /><line x1="501.3" y1="349.8" x2="506.1" y2="349.8" /><line x1="517.2" y1="344.7" x2="522.2" y2="344.6" /><polyline points="258.0,353.1 261.6,353.2 265.3,353.3 268.9,353.3 272.6,353.4 276.2,353.4 279.8,353.5 283.5,353.5 287.1,353.6 290.8,353.6 294.4,353.6 298.0,353.6 301.7,353.6 305.3,353.6 309.0,353.5 312.6,353.4 316.2,353.3 319.9,353.2 323.5,353.1 327.2,353.0 330.8,352.8 334.4,352.6 338.1,352.5 341.7,352.3 345.4,352.1 349.0,351.9 352.6,351.7 356.3,351.5 359.9,351.4 363.6,351.2 367.2,351.1 370.8,351.0 374.5,350.9 378.1,350.9 381.8,350.8 385.4,350.9" /><line x1="399.4" y1="352.4" x2="411.8" y2="352.6" /><line x1="415.7" y1="352.2" x2="420.2" y2="352.3" /><line x1="427.0" y1="351.7" x2="432.5" y2="351.8" /><line x1="436.0" y1="353.2" x2="445.7" y2="353.3" /><line x1="451.6" y1="353.0" x2="461.9" y2="353.1" /><line x1="471.7" y1="356.2" x2="486.5" y2="356.1" /><line x1="490.7" y1="351.8" x2="499.8" y2="351.7" /><line x1="509.4" y1="353.2" x2="515.6" y2="353.2" /><polyline points="258.0,360.3 261.6,360.3 265.3,360.4 268.9,360.4 272.6,360.4 276.2,360.4 279.8,360.4 283.5,360.3 287.1,360.3 290.8,360.3 294.4,360.2 298.0,360.1 301.7,360.0 305.3,359.9 309.0,359.8 312.6,359.6 316.2,359.5 319.9,359.4 323.5,359.2 327.2,359.0 330.8,358.9 334.4,358.7 338.1,358.6 341.7,358.5 345.4,358.3 349.0,358.2 352.6,358.2 356.3,358.1 359.9,358.1 363.6,358.1 367.2,358.1 370.8,358.2 374.5,358.3 378.1,358.4 381.8,358.6 385.4,358.7" /><line x1="399.4" y1="359.6" x2="411.4" y2="359.8" /><line x1="416.5" y1="359.8" x2="430.4" y2="360.0" /><line x1="436.4" y1="358.9" x2="440.1" y2="358.9" /><line x1="448.0" y1="360.8" x2="461.3" y2="360.7" /><line x1="468.0" y1="359.8" x2="482.8" y2="359.6" /><line x1="484.7" y1="364.3" x2="493.9" y2="364.2" /><line x1="503.8" y1="358.1" x2="515.0" y2="358.0" /><line x1="524.1" y1="359.6" x2="531.3" y2="359.6" /><polyline points="258.0,367.2 261.6,367.2 265.3,367.1 268.9,367.1 272.6,367.1 276.2,367.0 279.8,366.9 283.5,366.8 287.1,366.7 290.8,366.6 294.4,366.5 298.0,366.4 301.7,366.3 305.3,366.2 309.0,366.0 312.6,365.9 316.2,365.8 319.9,365.7 323.5,365.6 327.2,365.5 330.8,365.4 334.4,365.3 338.1,365.3 341.7,365.3 345.4,365.3 349.0,365.4 352.6,365.4 356.3,365.5 359.9,365.6 363.6,365.8 367.2,366.0 370.8,366.2 374.5,366.4 378.1,366.6 381.8,366.9 385.4,367.1" /><line x1="399.4" y1="367.0" x2="415.4" y2="367.1" /><line x1="420.1" y1="366.7" x2="441.5" y2="366.6" /><line x1="448.1" y1="369.0" x2="454.7" y2="368.9" /><line x1="468.7" y1="367.9" x2="485.1" y2="367.8" /><line x1="486.7" y1="367.2" x2="494.7" y2="367.1" /><line x1="515.6" y1="367.4" x2="523.7" y2="367.4" /><line x1="536.2" y1="363.8" x2="540.9" y2="363.8" /><line x1="552.4" y1="369.9" x2="557.3" y2="370.0" /><polyline points="258.0,373.8 261.6,373.8 265.3,373.7 268.9,373.6 272.6,373.5 276.2,373.4 279.8,373.4 283.5,373.3 287.1,373.2 290.8,373.1 294.4,373.0 298.0,372.9 301.7,372.8 305.3,372.7 309.0,372.6 312.6,372.6 316.2,372.5 319.9,372.5 323.5,372.5 327.2,372.5 330.8,372.6 334.4,372.6 338.1,372.7 341.7,372.8 345.4,373.0 349.0,373.1 352.6,373.3 356.3,373.5 359.9,373.7 363.6,374.0 367.2,374.2 370.8,374.4 374.5,374.6 378.1,374.9 381.8,375.1 385.4,375.3" /><line x1="399.4" y1="374.1" x2="425.5" y2="374.0" /><line x1="431.7" y1="374.6" x2="434.9" y2="374.5" /><line x1="441.7" y1="372.0" x2="446.8" y2="372.0" /><line x1="453.2" y1="373.7" x2="468.1" y2="373.5" /><line x1="475.4" y1="373.7" x2="488.5" y2="373.6" /><line x1="497.3" y1="377.1" x2="501.4" y2="377.1" /><line x1="504.8" y1="364.2" x2="514.0" y2="364.2" /><line x1="541.0" y1="371.3" x2="545.2" y2="371.3" /><polyline points="258.0,380.4 261.6,380.3 265.3,380.2 268.9,380.1 272.6,380.1 276.2,380.0 279.8,379.9 283.5,379.9 287.1,379.8 290.8,379.8 294.4,379.7 298.0,379.7 301.7,379.7 305.3,379.7 309.0,379.7 312.6,379.8 316.2,379.8 319.9,379.9 323.5,380.0 327.2,380.1 330.8,380.3 334.4,380.4 338.1,380.6 341.7,380.8 345.4,381.0 349.0,381.2 352.6,381.4 356.3,381.6 359.9,381.8 363.6,382.0 367.2,382.1 370.8,382.3 374.5,382.4 378.1,382.5 381.8,382.6 385.4,382.6" /><line x1="399.4" y1="380.9" x2="420.0" y2="380.6" /><line x1="423.8" y1="381.8" x2="436.4" y2="381.6" /><line x1="442.0" y1="379.7" x2="459.5" y2="379.5" /><line x1="466.8" y1="382.6" x2="480.7" y2="382.6" /><line x1="491.2" y1="379.9" x2="503.0" y2="380.0" /><line x1="543.0" y1="381.2" x2="547.7" y2="381.2" /><line x1="551.0" y1="375.6" x2="554.7" y2="375.6" /><polyline points="258.0,387.0 261.6,387.0 265.3,386.9 268.9,386.9 272.6,386.9 276.2,386.8 279.8,386.8 283.5,386.8 287.1,386.9 290.8,386.9 294.4,386.9 298.0,387.0 301.7,387.1 305.3,387.2 309.0,387.3 312.6,387.4 316.2,387.5 319.9,387.7 323.5,387.8 327.2,388.0 330.8,388.1 334.4,388.3 338.1,388.5 341.7,388.6 345.4,388.8 349.0,388.9 352.6,389.0 356.3,389.1 359.9,389.2 363.6,389.3 367.2,389.3 370.8,389.3 374.5,389.2 378.1,389.1 381.8,389.0 385.4,388.9" /><line x1="399.4" y1="387.7" x2="411.7" y2="387.4" /><line x1="416.9" y1="387.7" x2="440.2" y2="387.5" /><line x1="445.2" y1="387.7" x2="463.5" y2="387.7" /><line x1="465.5" y1="385.0" x2="475.4" y2="385.0" /><line x1="486.1" y1="391.2" x2="499.7" y2="391.3" /><line x1="503.9" y1="387.6" x2="512.7" y2="387.6" /><line x1="544.9" y1="387.7" x2="548.1" y2="387.7" /><polyline points="258.0,393.9 261.6,393.9 265.3,393.9 268.9,394.0 272.6,394.0 276.2,394.0 279.8,394.1 283.5,394.2 287.1,394.2 290.8,394.3 294.4,394.4 298.0,394.5 301.7,394.7 305.3,394.8 309.0,394.9 312.6,395.1 316.2,395.2 319.9,395.3 323.5,395.5 327.2,395.6 330.8,395.7 334.4,395.8 338.1,395.9 341.7,395.9 345.4,395.9 349.0,395.9 352.6,395.9 356.3,395.9 359.9,395.8 363.6,395.7 367.2,395.5 370.8,395.4 374.5,395.2 378.1,395.0 381.8,394.7 385.4,394.5" /><line x1="399.4" y1="394.3" x2="405.5" y2="394.2" /><line x1="410.2" y1="394.4" x2="419.7" y2="394.3" /><line x1="422.1" y1="394.2" x2="435.2" y2="394.2" /><line x1="441.9" y1="393.5" x2="455.6" y2="393.6" /><line x1="461.5" y1="393.4" x2="477.4" y2="393.6" /><line x1="479.5" y1="398.1" x2="493.9" y2="398.2" /><line x1="498.2" y1="401.5" x2="506.3" y2="401.6" /><line x1="524.3" y1="392.7" x2="531.2" y2="392.6" /><line x1="553.9" y1="392.0" x2="557.9" y2="392.0" /><polyline points="258.0,401.1 261.6,401.1 265.3,401.2 268.9,401.3 272.6,401.4 276.2,401.5 279.8,401.5 283.5,401.6 287.1,401.7 290.8,401.9 294.4,402.0 298.0,402.1 301.7,402.2 305.3,402.3 309.0,402.4 312.6,402.4 316.2,402.5 319.9,402.6 323.5,402.6 327.2,402.6 330.8,402.6 334.4,402.6 338.1,402.5 341.7,402.5 345.4,402.3 349.0,402.2 352.6,402.1 356.3,401.9 359.9,401.7 363.6,401.5 367.2,401.3 370.8,401.0 374.5,400.8 378.1,400.5 381.8,400.3 385.4,400.1" /><line x1="399.4" y1="400.9" x2="408.8" y2="400.9" /><line x1="412.5" y1="401.3" x2="427.0" y2="401.3" /><line x1="433.5" y1="401.4" x2="449.4" y2="401.6" /><line x1="456.3" y1="400.4" x2="470.6" y2="400.6" /><line x1="474.1" y1="403.1" x2="478.5" y2="403.2" /><line x1="484.0" y1="401.1" x2="492.2" y2="401.1" /><line x1="504.0" y1="401.9" x2="511.1" y2="401.9" /><line x1="522.1" y1="397.3" x2="525.3" y2="397.3" /><line x1="531.4" y1="407.2" x2="538.2" y2="407.1" /><polyline points="258.0,408.5 261.6,408.5 265.3,408.6 268.9,408.7 272.6,408.8 276.2,408.9 279.8,408.9 283.5,409.0 287.1,409.1 290.8,409.2 294.4,409.2 298.0,409.3 301.7,409.3 305.3,409.3 309.0,409.3 312.6,409.3 316.2,409.3 319.9,409.2 323.5,409.1 327.2,409.0 330.8,408.9 334.4,408.8 338.1,408.6 341.7,408.5 345.4,408.3 349.0,408.1 352.6,407.9 356.3,407.7 359.9,407.5 363.6,407.3 367.2,407.1 370.8,406.9 374.5,406.7 378.1,406.6 381.8,406.4 385.4,406.3" /><line x1="399.4" y1="408.0" x2="423.9" y2="408.3" /><line x1="428.7" y1="408.0" x2="432.1" y2="408.1" /><line x1="439.8" y1="409.1" x2="451.4" y2="409.3" /><line x1="456.4" y1="407.2" x2="469.3" y2="407.3" /><line x1="471.1" y1="410.5" x2="480.3" y2="410.5" /><line x1="483.9" y1="410.1" x2="492.0" y2="410.1" /><line x1="503.2" y1="408.7" x2="513.9" y2="408.6" /><line x1="521.0" y1="403.7" x2="526.3" y2="403.7" /><line x1="531.2" y1="406.0" x2="538.6" y2="406.0" /><line x1="548.5" y1="413.2" x2="553.8" y2="413.2" /><polyline points="258.0,415.8 261.6,415.8 265.3,415.9 268.9,415.9 272.6,416.0 276.2,416.0 279.8,416.0 283.5,416.1 287.1,416.1 290.8,416.1 294.4,416.0 298.0,416.0 301.7,415.9 305.3,415.9 309.0,415.8 312.6,415.7 316.2,415.6 319.9,415.4 323.5,415.3 327.2,415.1 330.8,415.0 334.4,414.8 338.1,414.6 341.7,414.4 345.4,414.3 349.0,414.1 352.6,413.9 356.3,413.8 359.9,413.7 363.6,413.6 367.2,413.5 370.8,413.5 374.5,413.5 378.1,413.5 381.8,413.6 385.4,413.7" /><line x1="399.4" y1="415.2" x2="418.3" y2="415.5" /><line x1="423.3" y1="416.7" x2="432.4" y2="416.8" /><line x1="441.7" y1="416.0" x2="458.8" y2="416.1" /><line x1="463.7" y1="414.3" x2="473.1" y2="414.3" /><line x1="482.8" y1="413.6" x2="496.6" y2="413.5" /><line x1="503.8" y1="413.3" x2="515.4" y2="413.2" /><line x1="518.0" y1="413.3" x2="523.8" y2="413.3" /><line x1="528.3" y1="419.0" x2="536.0" y2="419.0" /><line x1="551.6" y1="417.1" x2="556.4" y2="417.1" /><polyline points="258.0,422.9 261.6,422.9 265.3,422.9 268.9,422.9 272.6,422.8 276.2,422.8 279.8,422.8 283.5,422.7 287.1,422.7 290.8,422.6 294.4,422.5 298.0,422.4 301.7,422.3 305.3,422.2 309.0,422.0 312.6,421.9 316.2,421.7 319.9,421.6 323.5,421.4 327.2,421.3 330.8,421.2 334.4,421.1 338.1,420.9 341.7,420.9 345.4,420.8 349.0,420.7 352.6,420.7 356.3,420.7 359.9,420.7 363.6,420.8 367.2,420.9 370.8,421.0 374.5,421.2 378.1,421.4 381.8,421.6 385.4,421.8" /><line x1="399.4" y1="422.5" x2="421.9" y2="422.8" /><line x1="427.1" y1="422.5" x2="440.5" y2="422.5" /><line x1="447.1" y1="421.9" x2="462.8" y2="421.8" /><line x1="466.8" y1="422.4" x2="471.5" y2="422.4" /><line x1="480.9" y1="420.0" x2="485.5" y2="420.0" /><line x1="493.3" y1="418.7" x2="497.1" y2="418.7" /><line x1="498.8" y1="422.3" x2="504.6" y2="422.2" /><line x1="518.3" y1="419.0" x2="521.6" y2="419.0" /><line x1="537.2" y1="419.6" x2="542.6" y2="419.7" /><polyline points="258.0,429.6 261.6,429.6 265.3,429.5 268.9,429.5 272.6,429.4 276.2,429.3 279.8,429.2 283.5,429.2 287.1,429.0 290.8,428.9 294.4,428.8 298.0,428.7 301.7,428.6 305.3,428.5 309.0,428.4 312.6,428.3 316.2,428.2 319.9,428.1 323.5,428.0 327.2,428.0 330.8,427.9 334.4,427.9 338.1,427.9 341.7,428.0 345.4,428.1 349.0,428.1 352.6,428.3 356.3,428.4 359.9,428.6 363.6,428.8 367.2,429.0 370.8,429.2 374.5,429.4 378.1,429.7 381.8,429.9 385.4,430.2" /><line x1="399.4" y1="429.6" x2="420.6" y2="429.6" /><line x1="425.4" y1="429.4" x2="438.9" y2="429.3" /><line x1="446.4" y1="427.1" x2="462.9" y2="426.9" /><line x1="467.1" y1="426.6" x2="482.8" y2="426.4" /><line x1="499.6" y1="432.7" x2="510.3" y2="432.7" /><line x1="517.9" y1="427.4" x2="523.2" y2="427.5" /><line x1="525.7" y1="428.9" x2="530.5" y2="428.9" /><line x1="535.5" y1="429.4" x2="540.3" y2="429.5" /><polyline points="258.0,436.2 261.6,436.1 265.3,436.1 268.9,436.0 272.6,435.9 276.2,435.8 279.8,435.7 283.5,435.6 287.1,435.5 290.8,435.4 294.4,435.4 298.0,435.3 301.7,435.2 305.3,435.2 309.0,435.2 312.6,435.1 316.2,435.1 319.9,435.2 323.5,435.2 327.2,435.3 330.8,435.4 334.4,435.5 338.1,435.6 341.7,435.7 345.4,435.9 349.0,436.1 352.6,436.3 356.3,436.5 359.9,436.7 363.6,436.9 367.2,437.2 370.8,437.4 374.5,437.6 378.1,437.8 381.8,437.9 385.4,438.1" /><line x1="399.4" y1="436.6" x2="423.1" y2="436.4" /><line x1="426.1" y1="437.7" x2="429.6" y2="437.7" /><line x1="438.6" y1="435.9" x2="454.6" y2="435.7" /><line x1="467.9" y1="435.7" x2="473.8" y2="435.6" /><line x1="479.5" y1="434.5" x2="484.2" y2="434.5" /><line x1="493.2" y1="437.6" x2="506.7" y2="437.7" /><line x1="515.0" y1="436.0" x2="518.6" y2="436.0" /><line x1="529.1" y1="433.6" x2="537.1" y2="433.7" /><line x1="545.2" y1="437.4" x2="550.8" y2="437.4" /><polyline points="258.0,442.7 261.6,442.7 265.3,442.6 268.9,442.6 272.6,442.5 276.2,442.4 279.8,442.4 283.5,442.4 287.1,442.3 290.8,442.3 294.4,442.3 298.0,442.3 301.7,442.3 305.3,442.4 309.0,442.4 312.6,442.5 316.2,442.6 319.9,442.7 323.5,442.9 327.2,443.0 330.8,443.2 334.4,443.3 338.1,443.5 341.7,443.7 345.4,443.9 349.0,444.1 352.6,444.3 356.3,444.4 359.9,444.6 363.6,444.7 367.2,444.8 370.8,444.9 374.5,445.0 378.1,445.0 381.8,445.0 385.4,445.0" /><line x1="399.4" y1="443.4" x2="407.8" y2="443.3" /><line x1="411.6" y1="442.7" x2="416.5" y2="442.6" /><line x1="420.6" y1="442.9" x2="442.5" y2="442.6" /><line x1="448.5" y1="442.7" x2="463.3" y2="442.7" /><line x1="469.4" y1="444.1" x2="477.0" y2="444.1" /><line x1="484.7" y1="442.9" x2="493.2" y2="442.9" /><line x1="504.6" y1="443.0" x2="509.5" y2="443.0" /><line x1="515.7" y1="449.0" x2="524.6" y2="449.1" /><line x1="535.3" y1="441.9" x2="539.6" y2="441.9" /><line x1="547.8" y1="443.1" x2="552.4" y2="443.1" /><polyline points="258.0,449.5 261.6,449.4 265.3,449.4 268.9,449.4 272.6,449.4 276.2,449.4 279.8,449.4 283.5,449.5 287.1,449.5 290.8,449.6 294.4,449.7 298.0,449.7 301.7,449.8 305.3,449.9 309.0,450.1 312.6,450.2 316.2,450.4 319.9,450.5 323.5,450.7 327.2,450.8 330.8,451.0 334.4,451.1 338.1,451.2 341.7,451.4 345.4,451.5 349.0,451.6 352.6,451.6 356.3,451.7 359.9,451.7 363.6,451.7 367.2,451.6 370.8,451.6 374.5,451.4 378.1,451.3 381.8,451.1 385.4,450.9" /><line x1="399.4" y1="450.2" x2="417.1" y2="449.9" /><line x1="418.8" y1="450.5" x2="432.4" y2="450.4" /><line x1="440.1" y1="450.3" x2="455.4" y2="450.3" /><line x1="458.8" y1="452.6" x2="462.4" y2="452.6" /><line x1="471.1" y1="448.9" x2="487.7" y2="449.1" /><line x1="491.5" y1="454.2" x2="495.1" y2="454.3" /><line x1="506.3" y1="447.1" x2="511.8" y2="447.1" /><line x1="523.0" y1="449.0" x2="526.7" y2="449.0" /><polyline points="258.0,456.5 261.6,456.5 265.3,456.6 268.9,456.6 272.6,456.7 276.2,456.7 279.8,456.8 283.5,456.9 287.1,457.0 290.8,457.1 294.4,457.2 298.0,457.3 301.7,457.4 305.3,457.6 309.0,457.7 312.6,457.8 316.2,457.9 319.9,458.0 323.5,458.1 327.2,458.2 330.8,458.3 334.4,458.3 338.1,458.4 341.7,458.4 345.4,458.3 349.0,458.3 352.6,458.2 356.3,458.1 359.9,458.0 363.6,457.8 367.2,457.6 370.8,457.4 374.5,457.2 378.1,456.9 381.8,456.7 385.4,456.4" /><line x1="399.4" y1="456.6" x2="411.9" y2="456.4" /><line x1="414.8" y1="456.6" x2="421.8" y2="456.6" /><line x1="428.3" y1="457.2" x2="442.4" y2="457.3" /><line x1="445.8" y1="457.2" x2="464.6" y2="457.4" /><line x1="470.2" y1="460.8" x2="474.2" y2="460.8" /><line x1="487.5" y1="453.2" x2="495.3" y2="453.3" /><line x1="498.8" y1="454.9" x2="505.2" y2="454.9" /><line x1="509.7" y1="454.7" x2="514.8" y2="454.7" /><line x1="522.9" y1="456.6" x2="527.0" y2="456.6" /><polyline points="258.0,463.8 261.6,463.8 265.3,463.9 268.9,464.0 272.6,464.1 276.2,464.2 279.8,464.3 283.5,464.4 287.1,464.5 290.8,464.6 294.4,464.7 298.0,464.7 301.7,464.8 305.3,464.9 309.0,465.0 312.6,465.0 316.2,465.0 319.9,465.0 323.5,465.0 327.2,465.0 330.8,465.0 334.4,464.9 338.1,464.8 341.7,464.7 345.4,464.5 349.0,464.3 352.6,464.2 356.3,464.0 359.9,463.7 363.6,463.5 367.2,463.3 370.8,463.1 374.5,462.8 378.1,462.6 381.8,462.4 385.4,462.2" /><line x1="399.4" y1="463.3" x2="412.1" y2="463.4" /><line x1="416.8" y1="464.2" x2="424.3" y2="464.2" /><line x1="430.8" y1="464.4" x2="448.8" y2="464.6" /><line x1="453.4" y1="463.9" x2="464.8" y2="464.0" /><line x1="477.5" y1="462.8" x2="492.4" y2="462.8" /><line x1="499.7" y1="462.0" x2="504.5" y2="462.0" /><line x1="520.1" y1="468.3" x2="524.1" y2="468.3" /><polyline points="258.0,471.1 261.6,471.2 265.3,471.3 268.9,471.4 272.6,471.4 276.2,471.5 279.8,471.6 283.5,471.6 287.1,471.7 290.8,471.7 294.4,471.7 298.0,471.8 301.7,471.8 305.3,471.7 309.0,471.7 312.6,471.7 316.2,471.6 319.9,471.5 323.5,471.4 327.2,471.3 330.8,471.1 334.4,470.9 338.1,470.8 341.7,470.6 345.4,470.4 349.0,470.2 352.6,470.0 356.3,469.8 359.9,469.6 363.6,469.5 367.2,469.3 370.8,469.2 374.5,469.0 378.1,469.0 381.8,468.9 385.4,468.9" /><line x1="399.4" y1="470.6" x2="404.9" y2="470.6" /><line x1="408.9" y1="471.2" x2="421.3" y2="471.4" /><line x1="423.3" y1="471.2" x2="437.1" y2="471.4" /><line x1="444.9" y1="471.6" x2="459.4" y2="471.8" /><line x1="462.4" y1="470.2" x2="469.0" y2="470.2" /><line x1="477.0" y1="471.2" x2="485.4" y2="471.2" /><line x1="489.5" y1="472.7" x2="502.5" y2="472.6" /><line x1="506.7" y1="467.3" x2="514.6" y2="467.3" /><line x1="522.7" y1="464.3" x2="530.3" y2="464.2" /><line x1="536.0" y1="472.7" x2="540.2" y2="472.6" /><polyline points="258.0,478.4 261.6,478.4 265.3,478.5 268.9,478.5 272.6,478.5 276.2,478.5 279.8,478.5 283.5,478.5 287.1,478.5 290.8,478.5 294.4,478.4 298.0,478.3 301.7,478.3 305.3,478.2 309.0,478.0 312.6,477.9 316.2,477.8 319.9,477.6 323.5,477.5 327.2,477.3 330.8,477.2 334.4,477.0 338.1,476.8 341.7,476.7 345.4,476.5 349.0,476.4 352.6,476.3 356.3,476.2 359.9,476.2 363.6,476.1 367.2,476.1 370.8,476.1 374.5,476.2 378.1,476.3 381.8,476.4 385.4,476.6" /><line x1="399.4" y1="477.7" x2="411.4" y2="477.9" /><line x1="416.0" y1="477.9" x2="421.5" y2="478.0" /><line x1="434.6" y1="478.3" x2="440.9" y2="478.3" /><line x1="444.3" y1="478.5" x2="455.9" y2="478.5" /><line x1="462.6" y1="480.1" x2="479.9" y2="480.0" /><line x1="495.2" y1="480.1" x2="505.1" y2="480.0" /><line x1="515.6" y1="473.1" x2="524.4" y2="473.1" /><line x1="551.3" y1="485.8" x2="556.4" y2="485.8" /><polyline points="258.0,485.4 261.6,485.3 265.3,485.3 268.9,485.3 272.6,485.2 276.2,485.2 279.8,485.1 283.5,485.1 287.1,485.0 290.8,484.9 294.4,484.8 298.0,484.7 301.7,484.5 305.3,484.4 309.0,484.3 312.6,484.1 316.2,484.0 319.9,483.9 323.5,483.8 327.2,483.6 330.8,483.6 334.4,483.5 338.1,483.4 341.7,483.4 345.4,483.3 349.0,483.4 352.6,483.4 356.3,483.5 359.9,483.5 363.6,483.7 367.2,483.8 370.8,484.0 374.5,484.2 378.1,484.4 381.8,484.7 385.4,484.9" /><line x1="399.4" y1="485.1" x2="419.0" y2="485.3" /><line x1="425.0" y1="485.3" x2="428.4" y2="485.3" /><line x1="432.2" y1="484.4" x2="442.7" y2="484.4" /><line x1="444.3" y1="485.0" x2="458.1" y2="484.9" /><line x1="463.6" y1="485.9" x2="476.0" y2="485.8" /><line x1="485.4" y1="482.5" x2="497.1" y2="482.4" /><line x1="499.2" y1="484.2" x2="507.5" y2="484.2" /><line x1="526.0" y1="491.4" x2="532.9" y2="491.4" /><line x1="539.0" y1="482.5" x2="545.8" y2="482.5" /><line x1="551.7" y1="492.7" x2="554.8" y2="492.8" /><polyline points="258.0,492.0 261.6,492.0 265.3,491.9 268.9,491.8 272.6,491.7 276.2,491.7 279.8,491.6 283.5,491.5 287.1,491.4 290.8,491.3 294.4,491.2 298.0,491.1 301.7,491.0 305.3,490.9 309.0,490.8 312.6,490.7 316.2,490.6 319.9,490.6 323.5,490.6 327.2,490.6 330.8,490.6 334.4,490.6 338.1,490.7 341.7,490.8 345.4,490.9 349.0,491.0 352.6,491.2 356.3,491.4 359.9,491.6 363.6,491.8 367.2,492.0 370.8,492.3 374.5,492.5 378.1,492.7 381.8,493.0 385.4,493.2" /><line x1="399.4" y1="492.3" x2="412.9" y2="492.3" /><line x1="418.8" y1="491.4" x2="442.7" y2="491.1" /><line x1="449.3" y1="489.6" x2="454.3" y2="489.6" /><line x1="465.4" y1="487.7" x2="478.3" y2="487.5" /><line x1="491.6" y1="498.4" x2="496.4" y2="498.4" /><line x1="530.0" y1="489.0" x2="533.4" y2="489.0" /><line x1="535.4" y1="494.3" x2="538.5" y2="494.3" /><line x1="545.7" y1="488.6" x2="551.3" y2="488.6" /><line x1="556.9" y1="489.0" x2="558.0" y2="489.0" /><polyline points="258.0,498.6 261.6,498.5 265.3,498.4 268.9,498.3 272.6,498.2 276.2,498.2 279.8,498.1 283.5,498.0 287.1,497.9 290.8,497.9 294.4,497.8 298.0,497.8 301.7,497.8 305.3,497.8 309.0,497.8 312.6,497.8 316.2,497.8 319.9,497.9 323.5,498.0 327.2,498.1 330.8,498.2 334.4,498.3 338.1,498.5 341.7,498.7 345.4,498.9 349.0,499.1 352.6,499.3 356.3,499.5 359.9,499.7 363.6,499.9 367.2,500.1 370.8,500.2 374.5,500.4 378.1,500.5 381.8,500.6 385.4,500.7" /><line x1="399.4" y1="499.2" x2="411.9" y2="499.1" /><line x1="418.3" y1="498.9" x2="422.7" y2="498.9" /><line x1="424.3" y1="498.8" x2="447.2" y2="498.5" /><line x1="455.1" y1="499.1" x2="465.1" y2="499.0" /><line x1="484.8" y1="498.0" x2="495.5" y2="498.1" /><line x1="500.9" y1="503.1" x2="511.4" y2="503.1" /><line x1="516.2" y1="507.1" x2="524.5" y2="507.2" /><line x1="536.0" y1="491.4" x2="540.1" y2="491.4" /><polyline points="258.0,505.1 261.6,505.1 265.3,505.1 268.9,505.0 272.6,505.0 276.2,504.9 279.8,504.9 283.5,504.9 287.1,504.9 290.8,504.9 294.4,504.9 298.0,505.0 301.7,505.0 305.3,505.1 309.0,505.2 312.6,505.3 316.2,505.4 319.9,505.6 323.5,505.7 327.2,505.9 330.8,506.1 334.4,506.2 338.1,506.4 341.7,506.6 345.4,506.7 349.0,506.9 352.6,507.0 356.3,507.2 359.9,507.3 363.6,507.4 367.2,507.4 370.8,507.4 374.5,507.4 378.1,507.4 381.8,507.3 385.4,507.2" /><line x1="399.4" y1="505.9" x2="403.0" y2="505.8" /><line x1="409.4" y1="505.3" x2="413.3" y2="505.2" /><line x1="417.3" y1="505.0" x2="432.6" y2="504.8" /><line x1="434.8" y1="506.2" x2="452.2" y2="506.1" /><line x1="459.3" y1="504.8" x2="474.4" y2="504.9" /><line x1="481.3" y1="503.0" x2="491.9" y2="503.2" /><line x1="497.6" y1="509.7" x2="500.6" y2="509.7" /><line x1="506.7" y1="503.3" x2="515.3" y2="503.4" /><line x1="519.9" y1="498.2" x2="527.7" y2="498.2" /><line x1="539.0" y1="515.0" x2="544.0" y2="515.0" /><line x1="557.6" y1="514.3" x2="558.0" y2="514.3" /><polyline points="258.0,512.0 261.6,512.0 265.3,512.0 268.9,512.0 272.6,512.0 276.2,512.1 279.8,512.1 283.5,512.2 287.1,512.2 290.8,512.3 294.4,512.4 298.0,512.5 301.7,512.6 305.3,512.8 309.0,512.9 312.6,513.0 316.2,513.2 319.9,513.3 323.5,513.4 327.2,513.6 330.8,513.7 334.4,513.8 338.1,513.9 341.7,514.0 345.4,514.1 349.0,514.1 352.6,514.1 356.3,514.1 359.9,514.0 363.6,514.0 367.2,513.9 370.8,513.7 374.5,513.6 378.1,513.4 381.8,513.1 385.4,512.9" /><line x1="399.4" y1="512.5" x2="416.6" y2="512.2" /><line x1="422.3" y1="513.0" x2="433.2" y2="512.9" /><line x1="435.5" y1="512.2" x2="452.3" y2="512.2" /><line x1="456.6" y1="512.8" x2="460.8" y2="512.8" /><line x1="464.7" y1="512.4" x2="468.5" y2="512.5" /><line x1="471.3" y1="509.8" x2="477.4" y2="509.8" /><line x1="482.3" y1="511.8" x2="485.9" y2="511.8" /><line x1="490.9" y1="511.3" x2="497.7" y2="511.4" /><line x1="501.6" y1="511.1" x2="509.3" y2="511.2" /><line x1="517.1" y1="517.1" x2="525.7" y2="517.1" /><line x1="532.8" y1="507.7" x2="538.4" y2="507.6" /><line x1="551.8" y1="509.7" x2="556.7" y2="509.7" /><polyline points="258.0,519.1 261.6,519.2 265.3,519.2 268.9,519.3 272.6,519.4 276.2,519.5 279.8,519.5 283.5,519.6 287.1,519.7 290.8,519.8 294.4,520.0 298.0,520.1 301.7,520.2 305.3,520.3 309.0,520.4 312.6,520.5 316.2,520.6 319.9,520.7 323.5,520.7 327.2,520.8 330.8,520.8 334.4,520.8 338.1,520.8 341.7,520.7 345.4,520.6 349.0,520.5 352.6,520.4 356.3,520.2 359.9,520.1 363.6,519.9 367.2,519.6 370.8,519.4 374.5,519.2 378.1,518.9 381.8,518.7 385.4,518.4" /><line x1="399.4" y1="519.2" x2="404.4" y2="519.1" /><line x1="407.7" y1="519.3" x2="432.9" y2="519.4" /><line x1="440.0" y1="518.5" x2="454.4" y2="518.7" /><line x1="456.6" y1="516.6" x2="463.1" y2="516.6" /><line x1="478.6" y1="520.0" x2="493.4" y2="520.1" /><line x1="498.7" y1="519.1" x2="505.9" y2="519.1" /><line x1="519.2" y1="515.3" x2="525.2" y2="515.2" /><line x1="543.2" y1="518.2" x2="549.3" y2="518.2" /><polyline points="258.0,526.5 261.6,526.5 265.3,526.6 268.9,526.7 272.6,526.8 276.2,526.9 279.8,527.0 283.5,527.1 287.1,527.1 290.8,527.2 294.4,527.3 298.0,527.4 301.7,527.4 305.3,527.4 309.0,527.5 312.6,527.5 316.2,527.5 319.9,527.4 323.5,527.4 327.2,527.3 330.8,527.2 334.4,527.1 338.1,527.0 341.7,526.8 345.4,526.6 349.0,526.4 352.6,526.2 356.3,526.0 359.9,525.8 363.6,525.6 367.2,525.4 370.8,525.2 374.5,525.0 378.1,524.8 381.8,524.6 385.4,524.5" /><line x1="399.4" y1="526.0" x2="407.1" y2="526.0" /><line x1="413.4" y1="526.6" x2="437.2" y2="526.9" /><line x1="443.6" y1="526.6" x2="456.9" y2="526.7" /><line x1="464.7" y1="530.4" x2="475.0" y2="530.5" /><line x1="490.9" y1="527.6" x2="500.1" y2="527.5" /><line x1="503.6" y1="523.6" x2="514.3" y2="523.5" /><line x1="523.3" y1="531.5" x2="528.1" y2="531.4" /><line x1="533.6" y1="524.1" x2="537.6" y2="524.1" /><line x1="550.5" y1="528.0" x2="553.5" y2="528.0" /><polyline points="258.0,533.8 261.6,533.9 265.3,533.9 268.9,534.0 272.6,534.0 276.2,534.1 279.8,534.1 283.5,534.2 287.1,534.2 290.8,534.2 294.4,534.2 298.0,534.2 301.7,534.2 305.3,534.1 309.0,534.0 312.6,533.9 316.2,533.8 319.9,533.7 323.5,533.6 327.2,533.4 330.8,533.3 334.4,533.1 338.1,532.9 341.7,532.7 345.4,532.5 349.0,532.4 352.6,532.2 356.3,532.0 359.9,531.9 363.6,531.8 367.2,531.7 370.8,531.6 374.5,531.5 378.1,531.5 381.8,531.5 385.4,531.6" /><line x1="399.4" y1="533.0" x2="410.5" y2="533.2" /><line x1="412.7" y1="533.5" x2="426.2" y2="533.7" /><line x1="431.5" y1="532.8" x2="453.0" y2="533.0" /><line x1="459.3" y1="534.7" x2="469.1" y2="534.7" /><line x1="476.2" y1="534.3" x2="482.2" y2="534.2" /><line x1="489.9" y1="530.2" x2="496.1" y2="530.1" /><line x1="501.0" y1="530.6" x2="506.6" y2="530.5" /><line x1="509.6" y1="539.8" x2="519.5" y2="539.8" /><line x1="540.8" y1="527.2" x2="546.2" y2="527.2" /><polyline points="258.0,541.0 261.6,541.0 265.3,541.0 268.9,541.0 272.6,541.0 276.2,541.0 279.8,540.9 283.5,540.9 287.1,540.9 290.8,540.8 294.4,540.7 298.0,540.6 301.7,540.5 305.3,540.4 309.0,540.3 312.6,540.1 316.2,540.0 319.9,539.9 323.5,539.7 327.2,539.5 330.8,539.4 334.4,539.3 338.1,539.1 341.7,539.0 345.4,538.9 349.0,538.8 352.6,538.8 356.3,538.8 359.9,538.8 363.6,538.8 367.2,538.8 370.8,538.9 374.5,539.1 378.1,539.2 381.8,539.4 385.4,539.6" /><line x1="399.4" y1="540.5" x2="409.7" y2="540.7" /><line x1="411.7" y1="540.6" x2="418.6" y2="540.7" /><line x1="425.9" y1="540.3" x2="444.4" y2="540.4" /><line x1="446.7" y1="541.7" x2="457.9" y2="541.6" /><line x1="473.0" y1="539.7" x2="488.4" y2="539.5" /><line x1="507.3" y1="539.8" x2="514.0" y2="539.8" /><line x1="523.2" y1="537.0" x2="527.5" y2="537.0" /><polyline points="258.0,547.8 261.6,547.8 265.3,547.7 268.9,547.7 272.6,547.6 276.2,547.5 279.8,547.5 283.5,547.4 287.1,547.3 290.8,547.2 294.4,547.1 298.0,546.9 301.7,546.8 305.3,546.7 309.0,546.6 312.6,546.5 316.2,546.3 319.9,546.2 323.5,546.2 327.2,546.1 330.8,546.0 334.4,546.0 338.1,546.0 341.7,546.0 345.4,546.0 349.0,546.1 352.6,546.2 356.3,546.3 359.9,546.4 363.6,546.6 367.2,546.8 370.8,547.0 374.5,547.3 378.1,547.5 381.8,547.8 385.4,548.0" /><line x1="399.4" y1="547.7" x2="421.9" y2="547.8" /><line x1="425.8" y1="547.1" x2="436.2" y2="547.1" /><line x1="444.3" y1="549.6" x2="463.9" y2="549.3" /><line x1="467.8" y1="545.1" x2="476.5" y2="545.0" /><line x1="486.4" y1="546.4" x2="492.5" y2="546.3" /><line x1="503.4" y1="547.1" x2="512.0" y2="547.1" /><line x1="527.1" y1="542.3" x2="533.9" y2="542.3" /><line x1="557.7" y1="546.4" x2="558.0" y2="546.4" /><polyline points="258.0,554.4 261.6,554.3 265.3,554.3 268.9,554.2 272.6,554.1 276.2,554.0 279.8,553.9 283.5,553.8 287.1,553.7 290.8,553.6 294.4,553.5 298.0,553.4 301.7,553.4 305.3,553.3 309.0,553.2 312.6,553.2 316.2,553.2 319.9,553.2 323.5,553.2 327.2,553.2 330.8,553.3 334.4,553.4 338.1,553.5 341.7,553.6 345.4,553.8 349.0,554.0 352.6,554.2 356.3,554.4 359.9,554.6 363.6,554.8 367.2,555.0 370.8,555.3 374.5,555.5 378.1,555.7 381.8,555.9 385.4,556.1" /><line x1="399.4" y1="554.7" x2="425.4" y2="554.5" /><line x1="429.5" y1="554.6" x2="451.4" y2="554.3" /><line x1="457.0" y1="552.6" x2="470.5" y2="552.4" /><line x1="480.9" y1="558.2" x2="487.4" y2="558.1" /><line x1="507.0" y1="553.3" x2="513.8" y2="553.4" /><line x1="536.1" y1="553.4" x2="539.2" y2="553.4" /><line x1="555.0" y1="557.8" x2="558.0" y2="557.8" /><polyline points="258.0,560.9 261.6,560.9 265.3,560.8 268.9,560.7 272.6,560.6 276.2,560.6 279.8,560.5 283.5,560.5 287.1,560.4 290.8,560.4 294.4,560.4 298.0,560.4 301.7,560.4 305.3,560.4 309.0,560.4 312.6,560.5 316.2,560.6 319.9,560.7 323.5,560.8 327.2,560.9 330.8,561.1 334.4,561.2 338.1,561.4 341.7,561.6 345.4,561.8 349.0,562.0 352.6,562.2 356.3,562.4 359.9,562.5 363.6,562.7 367.2,562.9 370.8,563.0 374.5,563.1 378.1,563.1 381.8,563.2 385.4,563.2" /><line x1="399.4" y1="561.5" x2="420.7" y2="561.2" /><line x1="426.1" y1="562.2" x2="429.6" y2="562.1" /><line x1="436.6" y1="561.5" x2="449.1" y2="561.4" /><line x1="451.7" y1="560.4" x2="469.4" y2="560.3" /><line x1="479.2" y1="562.4" x2="488.0" y2="562.4" /><line x1="498.2" y1="557.2" x2="503.0" y2="557.3" /><line x1="505.9" y1="549.0" x2="509.9" y2="549.1" /><line x1="522.8" y1="559.1" x2="529.7" y2="559.2" /><line x1="550.6" y1="566.7" x2="553.7" y2="566.7" /><polyline points="258.0,567.6 261.6,567.6 265.3,567.5 268.9,567.5 272.6,567.5 276.2,567.5 279.8,567.5 283.5,567.5 287.1,567.5 290.8,567.6 294.4,567.6 298.0,567.7 301.7,567.8 305.3,567.9 309.0,568.0 312.6,568.1 316.2,568.3 319.9,568.4 323.5,568.6 327.2,568.8 330.8,568.9 334.4,569.1 338.1,569.2 341.7,569.4 345.4,569.5 349.0,569.6 352.6,569.7 356.3,569.8 359.9,569.8 363.6,569.9 367.2,569.8 370.8,569.8 374.5,569.7 378.1,569.6 381.8,569.5 385.4,569.3" /><line x1="399.4" y1="568.2" x2="405.2" y2="568.1" /><line x1="407.8" y1="568.3" x2="415.1" y2="568.2" /><line x1="420.6" y1="568.5" x2="428.8" y2="568.5" /><line x1="436.3" y1="569.3" x2="446.0" y2="569.3" /><line x1="450.1" y1="567.5" x2="462.3" y2="567.6" /><line x1="469.5" y1="565.8" x2="475.8" y2="565.8" /><line x1="488.1" y1="567.0" x2="499.6" y2="567.1" /><line x1="502.9" y1="569.0" x2="508.2" y2="569.0" /><line x1="531.3" y1="569.2" x2="537.3" y2="569.2" /><line x1="553.0" y1="558.6" x2="556.8" y2="558.6" /><polyline points="258.0,574.5 261.6,574.6 265.3,574.6 268.9,574.6 272.6,574.7 276.2,574.7 279.8,574.8 283.5,574.9 287.1,575.0 290.8,575.1 294.4,575.2 298.0,575.3 301.7,575.4 305.3,575.5 309.0,575.7 312.6,575.8 316.2,575.9 319.9,576.1 323.5,576.2 327.2,576.3 330.8,576.4 334.4,576.4 338.1,576.5 341.7,576.5 345.4,576.5 349.0,576.5 352.6,576.5 356.3,576.4 359.9,576.3 363.6,576.1 367.2,576.0 370.8,575.8 374.5,575.6 378.1,575.3 381.8,575.1 385.4,574.8" /><line x1="399.4" y1="574.9" x2="410.4" y2="574.7" /><line x1="416.4" y1="574.2" x2="435.1" y2="574.1" /><line x1="438.4" y1="574.2" x2="450.3" y2="574.3" /><line x1="459.1" y1="574.8" x2="475.4" y2="575.0" /><line x1="479.6" y1="577.2" x2="483.8" y2="577.3" /><line x1="487.0" y1="572.1" x2="497.3" y2="572.2" /><line x1="499.3" y1="571.8" x2="510.3" y2="571.8" /><line x1="523.5" y1="576.5" x2="532.0" y2="576.4" /><line x1="545.1" y1="579.9" x2="550.2" y2="579.9" /><polyline points="258.0,581.8 261.6,581.9 265.3,581.9 268.9,582.0 272.6,582.1 276.2,582.2 279.8,582.3 283.5,582.4 287.1,582.5 290.8,582.6 294.4,582.7 298.0,582.8 301.7,582.9 305.3,583.0 309.0,583.0 312.6,583.1 316.2,583.2 319.9,583.2 323.5,583.2 327.2,583.2 330.8,583.2 334.4,583.1 338.1,583.0 341.7,582.9 345.4,582.8 349.0,582.7 352.6,582.5 356.3,582.3 359.9,582.1 363.6,581.9 367.2,581.7 370.8,581.4 374.5,581.2 378.1,581.0 381.8,580.7 385.4,580.5" /><line x1="399.4" y1="581.5" x2="422.8" y2="581.6" /><line x1="432.1" y1="582.3" x2="439.6" y2="582.4" /><line x1="448.1" y1="582.2" x2="451.9" y2="582.3" /><line x1="456.6" y1="583.5" x2="469.5" y2="583.7" /><line x1="474.7" y1="586.5" x2="481.6" y2="586.5" /><line x1="485.1" y1="581.3" x2="489.3" y2="581.3" /><line x1="501.6" y1="585.0" x2="512.9" y2="585.0" /><line x1="530.0" y1="585.7" x2="535.1" y2="585.7" /><line x1="540.0" y1="580.0" x2="546.2" y2="580.0" /><polyline points="258.0,589.2 261.6,589.2 265.3,589.3 268.9,589.4 272.6,589.5 276.2,589.5 279.8,589.6 283.5,589.7 287.1,589.8 290.8,589.8 294.4,589.9 298.0,589.9 301.7,589.9 305.3,589.9 309.0,589.9 312.6,589.9 316.2,589.8 319.9,589.7 323.5,589.7 327.2,589.5 330.8,589.4 334.4,589.3 338.1,589.1 341.7,588.9 345.4,588.7 349.0,588.5 352.6,588.3 356.3,588.1 359.9,587.9 363.6,587.7 367.2,587.5 370.8,587.4 374.5,587.2 378.1,587.1 381.8,587.0 385.4,587.0" /><line x1="399.4" y1="588.6" x2="424.4" y2="589.0" /><line x1="435.6" y1="590.2" x2="445.0" y2="590.3" /><line x1="453.1" y1="590.8" x2="462.5" y2="590.9" /><line x1="464.8" y1="589.6" x2="481.2" y2="589.6" /><line x1="484.3" y1="590.3" x2="496.9" y2="590.3" /><line x1="509.0" y1="590.8" x2="514.2" y2="590.7" /><line x1="523.1" y1="584.9" x2="530.7" y2="584.9" /><line x1="533.8" y1="594.3" x2="539.7" y2="594.2" /><line x1="551.7" y1="594.1" x2="556.3" y2="594.1" /><polyline points="258.0,596.5 261.6,596.5 265.3,596.5 268.9,596.6 272.6,596.6 276.2,596.6 279.8,596.7 283.5,596.7 287.1,596.7 290.8,596.6 294.4,596.6 298.0,596.5 301.7,596.5 305.3,596.4 309.0,596.3 312.6,596.2 316.2,596.1 319.9,595.9 323.5,595.8 327.2,595.6 330.8,595.4 334.4,595.3 338.1,595.1 341.7,594.9 345.4,594.8 349.0,594.6 352.6,594.5 356.3,594.4 359.9,594.3 363.6,594.2 367.2,594.2 370.8,594.2 374.5,594.2 378.1,594.2 381.8,594.3 385.4,594.5" /><line x1="399.4" y1="595.9" x2="404.8" y2="596.0" /><line x1="409.9" y1="595.6" x2="413.9" y2="595.7" /><line x1="416.1" y1="596.8" x2="427.5" y2="596.9" /><line x1="433.6" y1="596.6" x2="453.2" y2="596.7" /><line x1="467.2" y1="595.9" x2="475.9" y2="595.8" /><line x1="478.5" y1="593.0" x2="481.8" y2="593.0" /><line x1="496.5" y1="597.5" x2="505.7" y2="597.4" /><line x1="532.5" y1="583.9" x2="537.0" y2="583.9" /><line x1="549.5" y1="600.3" x2="554.7" y2="600.3" /><polyline points="258.0,603.5 261.6,603.5 265.3,603.5 268.9,603.4 272.6,603.4 276.2,603.4 279.8,603.3 283.5,603.3 287.1,603.2 290.8,603.1 294.4,603.0 298.0,602.9 301.7,602.8 305.3,602.7 309.0,602.5 312.6,602.4 316.2,602.2 319.9,602.1 323.5,602.0 327.2,601.8 330.8,601.7 334.4,601.6 338.1,601.5 341.7,601.5 345.4,601.4 349.0,601.4 352.6,601.4 356.3,601.4 359.9,601.5 363.6,601.6 367.2,601.7 370.8,601.9 374.5,602.0 378.1,602.2 381.8,602.5 385.4,602.7" /><line x1="399.4" y1="603.1" x2="411.0" y2="603.2" /><line x1="414.1" y1="602.6" x2="433.3" y2="602.7" /><line x1="436.9" y1="605.7" x2="449.3" y2="605.7" /><line x1="458.5" y1="602.5" x2="465.1" y2="602.4" /><line x1="468.3" y1="602.7" x2="483.3" y2="602.5" /><line x1="488.6" y1="602.6" x2="499.6" y2="602.5" /><line x1="505.5" y1="599.1" x2="510.2" y2="599.1" /><line x1="520.8" y1="596.8" x2="527.7" y2="596.8" /><line x1="536.4" y1="600.6" x2="540.3" y2="600.6" /><line x1="553.7" y1="604.8" x2="557.4" y2="604.9" /><polyline points="258.0,610.2 261.6,610.2 265.3,610.1 268.9,610.0 272.6,610.0 276.2,609.9 279.8,609.8 283.5,609.7 287.1,609.6 290.8,609.5 294.4,609.4 298.0,609.3 301.7,609.1 305.3,609.0 309.0,608.9 312.6,608.8 316.2,608.8 319.9,608.7 323.5,608.6 327.2,608.6 330.8,608.6 334.4,608.6 338.1,608.7 341.7,608.7 345.4,608.8 349.0,608.9 352.6,609.1 356.3,609.2 359.9,609.4 363.6,609.6 367.2,609.8 370.8,610.1 374.5,610.3 378.1,610.6 381.8,610.8 385.4,611.1" /><line x1="399.4" y1="610.3" x2="414.1" y2="610.4" /><line x1="417.0" y1="610.3" x2="438.6" y2="610.1" /><line x1="443.9" y1="609.5" x2="463.6" y2="609.2" /><line x1="468.7" y1="612.0" x2="472.7" y2="612.0" /><line x1="485.7" y1="609.0" x2="498.7" y2="609.0" /><line x1="500.6" y1="603.9" x2="505.6" y2="603.9" /><line x1="511.0" y1="608.6" x2="519.1" y2="608.7" /><line x1="533.3" y1="611.9" x2="539.6" y2="612.0" /><line x1="547.5" y1="606.7" x2="550.8" y2="606.7" /><polyline points="258.0,616.8 261.6,616.7 265.3,616.6 268.9,616.5 272.6,616.4 276.2,616.4 279.8,616.3 283.5,616.2 287.1,616.1 290.8,616.0 294.4,616.0 298.0,615.9 301.7,615.9 305.3,615.8 309.0,615.8 312.6,615.8 316.2,615.8 319.9,615.9 323.5,615.9 327.2,616.0 330.8,616.1 334.4,616.2 338.1,616.4 341.7,616.6 345.4,616.7 349.0,616.9 352.6,617.1 356.3,617.3 359.9,617.6 363.6,617.8 367.2,618.0 370.8,618.2 374.5,618.4 378.1,618.5 381.8,618.7 385.4,618.8" /><line x1="399.4" y1="617.3" x2="420.6" y2="617.1" /><line x1="426.0" y1="616.9" x2="446.8" y2="616.6" /><line x1="451.9" y1="614.5" x2="466.9" y2="614.4" /><line x1="470.7" y1="613.8" x2="476.8" y2="613.8" /><line x1="484.4" y1="616.1" x2="487.9" y2="616.1" /><line x1="494.8" y1="611.3" x2="501.9" y2="611.3" /><line x1="528.8" y1="620.2" x2="535.1" y2="620.3" /><line x1="540.0" y1="614.6" x2="544.3" y2="614.6" /><polyline points="258.0,623.3 261.6,623.3 265.3,623.2 268.9,623.1 272.6,623.1 276.2,623.1 279.8,623.0 283.5,623.0 287.1,623.0 290.8,623.0 294.4,623.0 298.0,623.0 301.7,623.0 305.3,623.1 309.0,623.2 312.6,623.3 316.2,623.4 319.9,623.5 323.5,623.7 327.2,623.8 330.8,624.0 334.4,624.1 338.1,624.3 341.7,624.5 345.4,624.7 349.0,624.9 352.6,625.0 356.3,625.2 359.9,625.3 363.6,625.4 367.2,625.5 370.8,625.6 374.5,625.6 378.1,625.6 381.8,625.6 385.4,625.5" /><line x1="399.4" y1="624.2" x2="426.0" y2="623.7" /><line x1="430.4" y1="624.9" x2="443.1" y2="624.8" /><line x1="447.8" y1="625.3" x2="454.2" y2="625.3" /><line x1="459.1" y1="622.3" x2="465.4" y2="622.3" /><line x1="473.0" y1="620.6" x2="478.8" y2="620.6" /><line x1="486.6" y1="619.7" x2="493.4" y2="619.8" /><line x1="496.1" y1="619.5" x2="503.2" y2="619.6" /><line x1="511.4" y1="629.1" x2="517.9" y2="629.1" /><line x1="520.6" y1="625.3" x2="527.5" y2="625.3" /><line x1="556.0" y1="621.1" x2="558.0" y2="621.1" /><polyline points="258.0,630.1 261.6,630.1 265.3,630.1 268.9,630.1 272.6,630.1 276.2,630.1 279.8,630.1 283.5,630.2 287.1,630.2 290.8,630.3 294.4,630.4 298.0,630.5 301.7,630.6 305.3,630.7 309.0,630.8 312.6,631.0 316.2,631.1 319.9,631.3 323.5,631.4 327.2,631.6 330.8,631.7 334.4,631.8 338.1,632.0 341.7,632.1 345.4,632.2 349.0,632.2 352.6,632.3 356.3,632.3 359.9,632.3 363.6,632.2 367.2,632.1 370.8,632.0 374.5,631.9 378.1,631.7 381.8,631.5 385.4,631.3" /><line x1="399.4" y1="630.7" x2="410.7" y2="630.5" /><line x1="413.1" y1="629.8" x2="435.2" y2="629.7" /><line x1="437.5" y1="630.9" x2="451.7" y2="631.0" /><line x1="457.5" y1="631.3" x2="464.1" y2="631.3" /><line x1="479.2" y1="634.7" x2="488.6" y2="634.8" /><line x1="499.2" y1="631.2" x2="508.8" y2="631.3" /><line x1="520.9" y1="626.1" x2="525.6" y2="626.1" /><line x1="533.2" y1="632.0" x2="538.6" y2="631.9" /><line x1="544.9" y1="622.4" x2="549.9" y2="622.4" /><polyline points="258.0,637.2 261.6,637.2 265.3,637.3 268.9,637.3 272.6,637.4 276.2,637.5 279.8,637.5 283.5,637.6 287.1,637.7 290.8,637.8 294.4,637.9 298.0,638.1 301.7,638.2 305.3,638.3 309.0,638.4 312.6,638.5 316.2,638.6 319.9,638.7 323.5,638.8 327.2,638.9 330.8,638.9 334.4,638.9 338.1,638.9 341.7,638.9 345.4,638.9 349.0,638.8 352.6,638.7 356.3,638.6 359.9,638.4 363.6,638.2 367.2,638.0 370.8,637.8 374.5,637.6 378.1,637.3 381.8,637.1 385.4,636.8" /><line x1="399.4" y1="637.1" x2="422.7" y2="637.0" /><line x1="429.0" y1="637.9" x2="441.2" y2="638.0" /><line x1="448.9" y1="636.4" x2="465.3" y2="636.6" /><line x1="467.5" y1="636.7" x2="472.1" y2="636.7" /><line x1="489.7" y1="636.9" x2="498.3" y2="636.9" /><line x1="517.3" y1="641.6" x2="527.0" y2="641.5" /><line x1="539.5" y1="641.1" x2="546.0" y2="641.0" /><polyline points="258.0,644.5 261.6,644.6 265.3,644.6 268.9,644.7 272.6,644.8 276.2,644.9 279.8,645.0 283.5,645.1 287.1,645.2 290.8,645.3 294.4,645.3 298.0,645.4 301.7,645.5 305.3,645.5 309.0,645.6 312.6,645.6 316.2,645.6 319.9,645.6 323.5,645.6 327.2,645.5 330.8,645.5 334.4,645.4 338.1,645.3 341.7,645.1 345.4,645.0 349.0,644.8 352.6,644.6 356.3,644.4 359.9,644.2 363.6,643.9 367.2,643.7 370.8,643.5 374.5,643.3 378.1,643.1 381.8,642.9 385.4,642.7" /><line x1="399.4" y1="644.2" x2="425.1" y2="644.4" /><line x1="431.6" y1="644.7" x2="451.1" y2="645.0" /><line x1="453.7" y1="643.8" x2="466.4" y2="644.0" /><line x1="473.0" y1="647.0" x2="487.8" y2="647.1" /><line x1="501.5" y1="642.5" x2="511.5" y2="642.4" /><line x1="513.3" y1="649.7" x2="523.0" y2="649.6" /><line x1="540.8" y1="638.2" x2="545.5" y2="638.2" /><line x1="549.9" y1="648.0" x2="554.6" y2="648.0" /><polyline points="258.0,651.8 261.6,651.9 265.3,652.0 268.9,652.0 272.6,652.1 276.2,652.2 279.8,652.2 283.5,652.3 287.1,652.3 290.8,652.3 294.4,652.4 298.0,652.4 301.7,652.3 305.3,652.3 309.0,652.3 312.6,652.2 316.2,652.1 319.9,652.0 323.5,651.9 327.2,651.7 330.8,651.6 334.4,651.4 338.1,651.2 341.7,651.0 345.4,650.8 349.0,650.7 352.6,650.5 356.3,650.3 359.9,650.1 363.6,650.0 367.2,649.8 370.8,649.7 374.5,649.6 378.1,649.6 381.8,649.6 385.4,649.6" /><line x1="399.4" y1="651.4" x2="413.1" y2="651.6" /><line x1="419.5" y1="651.6" x2="440.5" y2="651.9" /><line x1="443.4" y1="651.2" x2="446.6" y2="651.3" /><line x1="459.9" y1="653.1" x2="474.1" y2="653.1" /><line x1="484.7" y1="648.9" x2="489.8" y2="648.9" /><line x1="499.9" y1="654.9" x2="506.2" y2="654.9" /><line x1="518.4" y1="650.8" x2="523.7" y2="650.8" /><line x1="527.5" y1="648.1" x2="531.6" y2="648.1" /><line x1="538.4" y1="658.1" x2="544.8" y2="658.0" /><line x1="555.2" y1="640.3" x2="558.0" y2="640.3" /><polyline points="258.0,659.0 261.6,659.1 265.3,659.1 268.9,659.1 272.6,659.1 276.2,659.1 279.8,659.1 283.5,659.1 287.1,659.1 290.8,659.0 294.4,658.9 298.0,658.9 301.7,658.8 305.3,658.7 309.0,658.5 312.6,658.4 316.2,658.3 319.9,658.1 323.5,658.0 327.2,657.8 330.8,657.6 334.4,657.5 338.1,657.3 341.7,657.2 345.4,657.1 349.0,657.0 352.6,656.9 356.3,656.8 359.9,656.8 363.6,656.8 367.2,656.8 370.8,656.9 374.5,657.0 378.1,657.1 381.8,657.2 385.4,657.4" /><line x1="399.4" y1="658.4" x2="412.2" y2="658.6" /><line x1="414.1" y1="658.4" x2="426.2" y2="658.5" /><line x1="430.5" y1="659.0" x2="442.9" y2="659.1" /><line x1="451.0" y1="658.9" x2="456.9" y2="658.8" /><line x1="458.9" y1="660.2" x2="475.8" y2="660.1" /><line x1="477.3" y1="656.3" x2="484.6" y2="656.2" /><line x1="493.5" y1="655.5" x2="506.3" y2="655.4" /><line x1="540.7" y1="655.5" x2="545.5" y2="655.5" /><polyline points="258.0,666.0 261.6,665.9 265.3,665.9 268.9,665.9 272.6,665.8 276.2,665.7 279.8,665.7 283.5,665.6 287.1,665.5 290.8,665.4 294.4,665.3 298.0,665.2 301.7,665.1 305.3,664.9 309.0,664.8 312.6,664.7 316.2,664.5 319.9,664.4 323.5,664.3 327.2,664.2 330.8,664.1 334.4,664.1 338.1,664.0 341.7,664.0 345.4,664.0 349.0,664.1 352.6,664.1 356.3,664.2 359.9,664.3 363.6,664.5 367.2,664.7 370.8,664.8 374.5,665.1 378.1,665.3 381.8,665.6 385.4,665.8" /><line x1="399.4" y1="665.7" x2="423.6" y2="665.9" /><line x1="425.8" y1="665.4" x2="437.0" y2="665.3" /><line x1="444.7" y1="666.4" x2="464.2" y2="666.2" /><line x1="469.8" y1="663.5" x2="475.7" y2="663.4" /><line x1="477.6" y1="662.4" x2="493.3" y2="662.3" /><line x1="499.0" y1="660.7" x2="504.2" y2="660.7" /><line x1="535.9" y1="661.8" x2="542.8" y2="661.8" /><line x1="555.8" y1="675.8" x2="558.0" y2="675.8" /><polyline points="258.0,672.6 261.6,672.5 265.3,672.5 268.9,672.4 272.6,672.3 276.2,672.2 279.8,672.1 283.5,672.0 287.1,671.9 290.8,671.8 294.4,671.7 298.0,671.6 301.7,671.5 305.3,671.4 309.0,671.4 312.6,671.3 316.2,671.3 319.9,671.2 323.5,671.2 327.2,671.3 330.8,671.3 334.4,671.4 338.1,671.4 341.7,671.6 345.4,671.7 349.0,671.8 352.6,672.0 356.3,672.2 359.9,672.4 363.6,672.6 367.2,672.9 370.8,673.1 374.5,673.3 378.1,673.6 381.8,673.8 385.4,674.0" /><line x1="399.4" y1="672.9" x2="422.9" y2="672.8" /><line x1="425.2" y1="673.0" x2="433.5" y2="672.9" /><line x1="442.1" y1="672.8" x2="457.1" y2="672.6" /><line x1="465.9" y1="672.7" x2="479.9" y2="672.6" /><line x1="491.0" y1="671.1" x2="495.5" y2="671.1" /><line x1="522.7" y1="674.6" x2="527.7" y2="674.6" /><line x1="551.3" y1="678.2" x2="555.0" y2="678.3" /><polyline points="258.0,679.1 261.6,679.0 265.3,679.0 268.9,678.9 272.6,678.8 276.2,678.7 279.8,678.7 283.5,678.6 287.1,678.6 290.8,678.5 294.4,678.5 298.0,678.4 301.7,678.4 305.3,678.4 309.0,678.4 312.6,678.5 316.2,678.6 319.9,678.6 323.5,678.7 327.2,678.8 330.8,679.0 334.4,679.1 338.1,679.3 341.7,679.5 345.4,679.7 349.0,679.9 352.6,680.1 356.3,680.3 359.9,680.5 363.6,680.7 367.2,680.8 370.8,681.0 374.5,681.1 378.1,681.2 381.8,681.3 385.4,681.3" /><line x1="399.4" y1="679.7" x2="410.7" y2="679.6" /><line x1="416.5" y1="679.4" x2="440.5" y2="679.0" /><line x1="443.3" y1="679.8" x2="453.6" y2="679.7" /><line x1="461.2" y1="677.2" x2="472.2" y2="677.2" /><line x1="476.7" y1="675.7" x2="491.1" y2="675.8" /><line x1="501.9" y1="676.2" x2="514.1" y2="676.3" /><line x1="516.3" y1="676.0" x2="520.1" y2="676.1" /><line x1="533.2" y1="681.9" x2="538.2" y2="681.9" /><line x1="545.9" y1="678.8" x2="551.1" y2="678.9" /><polyline points="258.0,685.7 261.6,685.7 265.3,685.7 268.9,685.6 272.6,685.6 276.2,685.6 279.8,685.6 283.5,685.6 287.1,685.6 290.8,685.6 294.4,685.6 298.0,685.7 301.7,685.8 305.3,685.9 309.0,686.0 312.6,686.1 316.2,686.2 319.9,686.4 323.5,686.5 327.2,686.7 330.8,686.8 334.4,687.0 338.1,687.2 341.7,687.3 345.4,687.5 349.0,687.6 352.6,687.8 356.3,687.9 359.9,687.9 363.6,688.0 367.2,688.0 370.8,688.0 374.5,688.0 378.1,687.9 381.8,687.8 385.4,687.7" /><line x1="399.4" y1="686.4" x2="424.1" y2="686.0" /><line x1="427.5" y1="685.3" x2="432.2" y2="685.3" /><line x1="444.7" y1="685.5" x2="457.6" y2="685.5" /><line x1="464.6" y1="683.6" x2="479.2" y2="683.7" /><line x1="485.0" y1="684.1" x2="498.0" y2="684.2" /><line x1="500.5" y1="681.0" x2="507.4" y2="681.1" /><line x1="514.3" y1="680.6" x2="517.3" y2="680.6" /><line x1="538.1" y1="688.8" x2="544.1" y2="688.8" /><polyline points="258.0,692.6 261.6,692.6 265.3,692.7 268.9,692.7 272.6,692.7 276.2,692.8 279.8,692.8 283.5,692.9 287.1,693.0 290.8,693.0 294.4,693.1 298.0,693.3 301.7,693.4 305.3,693.5 309.0,693.6 312.6,693.8 316.2,693.9 319.9,694.1 323.5,694.2 327.2,694.3 330.8,694.4 334.4,694.5 338.1,694.6 341.7,694.6 345.4,694.7 349.0,694.7 352.6,694.7 356.3,694.6 359.9,694.6 363.6,694.4 367.2,694.3 370.8,694.2 374.5,694.0 378.1,693.8 381.8,693.5 385.4,693.3" /><line x1="399.4" y1="693.0" x2="409.7" y2="692.9" /><line x1="414.2" y1="693.0" x2="438.3" y2="692.9" /><line x1="443.5" y1="693.2" x2="456.8" y2="693.4" /><line x1="470.5" y1="695.3" x2="484.2" y2="695.4" /><line x1="487.6" y1="693.0" x2="490.8" y2="693.1" /><line x1="495.7" y1="687.8" x2="499.5" y2="687.9" /><line x1="512.3" y1="693.0" x2="516.8" y2="693.0" /><line x1="520.9" y1="694.3" x2="526.9" y2="694.3" /><line x1="537.1" y1="688.6" x2="544.1" y2="688.5" /><polyline points="258.0,699.8 261.6,699.9 265.3,699.9 268.9,700.0 272.6,700.1 276.2,700.2 279.8,700.3 283.5,700.4 287.1,700.5 290.8,700.6 294.4,700.7 298.0,700.8 301.7,700.9 305.3,701.0 309.0,701.1 312.6,701.2 316.2,701.2 319.9,701.3 323.5,701.3 327.2,701.4 330.8,701.4 334.4,701.3 338.1,701.3 341.7,701.2 345.4,701.1 349.0,701.0 352.6,700.8 356.3,700.7 359.9,700.5 363.6,700.3 367.2,700.0 370.8,699.8 374.5,699.6 378.1,699.3 381.8,699.1 385.4,698.8" /><line x1="399.4" y1="699.7" x2="417.6" y2="699.7" /><line x1="423.9" y1="700.7" x2="444.9" y2="700.9" /><line x1="447.9" y1="702.2" x2="466.4" y2="702.5" /><line x1="475.1" y1="696.5" x2="489.7" y2="696.6" /><line x1="495.9" y1="696.9" x2="500.9" y2="696.9" /><line x1="504.1" y1="701.1" x2="511.8" y2="701.0" /><line x1="536.9" y1="699.7" x2="542.7" y2="699.7" /><line x1="554.4" y1="700.1" x2="558.0" y2="700.1" /><polyline points="258.0,707.2 261.6,707.3 265.3,707.3 268.9,707.4 272.6,707.5 276.2,707.6 279.8,707.7 283.5,707.7 287.1,707.8 290.8,707.9 294.4,707.9 298.0,708.0 301.7,708.0 305.3,708.1 309.0,708.1 312.6,708.1 316.2,708.0 319.9,708.0 323.5,707.9 327.2,707.8 330.8,707.7 334.4,707.6 338.1,707.4 341.7,707.2 345.4,707.1 349.0,706.9 352.6,706.7 356.3,706.4 359.9,706.2 363.6,706.0 367.2,705.8 370.8,705.6 374.5,705.5 378.1,705.3 381.8,705.2 385.4,705.1" /><line x1="399.4" y1="706.7" x2="424.5" y2="707.0" /><line x1="429.6" y1="706.6" x2="450.4" y2="706.9" /><line x1="455.5" y1="709.4" x2="464.8" y2="709.4" /><line x1="468.7" y1="707.6" x2="484.9" y2="707.6" /><line x1="487.9" y1="709.0" x2="494.0" y2="708.9" /><line x1="511.6" y1="707.7" x2="520.2" y2="707.6" /><line x1="529.7" y1="706.9" x2="537.7" y2="706.8" /><polyline points="258.0,714.5 261.6,714.6 265.3,714.6 268.9,714.7 272.6,714.7 276.2,714.7 279.8,714.8 283.5,714.8 287.1,714.8 290.8,714.8 294.4,714.8 298.0,714.7 301.7,714.7 305.3,714.6 309.0,714.6 312.6,714.5 316.2,714.3 319.9,714.2 323.5,714.1 327.2,713.9 330.8,713.7 334.4,713.6 338.1,713.4 341.7,713.2 345.4,713.0 349.0,712.9 352.6,712.7 356.3,712.6 359.9,712.4 363.6,712.3 367.2,712.3 370.8,712.2 374.5,712.2 378.1,712.2 381.8,712.3 385.4,712.4" /><line x1="399.4" y1="713.8" x2="403.7" y2="713.8" /><line x1="405.6" y1="713.6" x2="408.8" y2="713.7" /><line x1="411.7" y1="714.0" x2="433.1" y2="714.3" /><line x1="436.5" y1="715.2" x2="454.7" y2="715.3" /><line x1="459.6" y1="715.5" x2="464.3" y2="715.5" /><line x1="474.3" y1="712.1" x2="479.4" y2="712.1" /><line x1="495.4" y1="714.2" x2="503.9" y2="714.1" /><line x1="511.2" y1="709.0" x2="516.0" y2="708.9" /><line x1="523.2" y1="714.2" x2="530.6" y2="714.2" /><line x1="551.6" y1="705.8" x2="555.1" y2="705.8" /><polyline points="258.0,721.6 261.6,721.6 265.3,721.6 268.9,721.6 272.6,721.6 276.2,721.6 279.8,721.5 283.5,721.5 287.1,721.4 290.8,721.3 294.4,721.2 298.0,721.1 301.7,721.0 305.3,720.9 309.0,720.8 312.6,720.6 316.2,720.5 319.9,720.4 323.5,720.2 327.2,720.1 330.8,719.9 334.4,719.8 338.1,719.7 341.7,719.6 345.4,719.5 349.0,719.5 352.6,719.4 356.3,719.4 359.9,719.5 363.6,719.5 367.2,719.6 370.8,719.7 374.5,719.9 378.1,720.1 381.8,720.3 385.4,720.5" /><line x1="399.4" y1="721.1" x2="413.9" y2="721.3" /><line x1="418.3" y1="721.8" x2="423.7" y2="721.8" /><line x1="429.1" y1="722.1" x2="446.3" y2="722.1" /><line x1="452.1" y1="720.8" x2="465.2" y2="720.6" /><line x1="473.6" y1="720.5" x2="487.4" y2="720.3" /><line x1="511.3" y1="723.5" x2="518.2" y2="723.5" /><line x1="532.5" y1="724.0" x2="538.1" y2="724.0" /><line x1="548.4" y1="724.2" x2="551.9" y2="724.2" /></g><g id="03_Gold_Needle" inkscape:groupmode="layer" inkscape:label="03_Gold_Needle" stroke="#B8960C" fill="none" stroke-width="1.12" stroke-linecap="round" stroke-linejoin="round"><line x1="392.4" y1="329.0" x2="392.4" y2="717.0" /><line x1="392.4" y1="717.0" x2="395.9" y2="703.0" /><line x1="392.4" y1="358.5" x2="387.4" y2="358.5" /><line x1="392.4" y1="401.7" x2="389.4" y2="401.7" /><line x1="392.4" y1="445.0" x2="387.4" y2="445.0" /><line x1="392.4" y1="488.2" x2="389.4" y2="488.2" /><line x1="392.4" y1="531.4" x2="387.4" y2="531.4" /><line x1="392.4" y1="574.6" x2="389.4" y2="574.6" /><line x1="392.4" y1="617.9" x2="387.4" y2="617.9" /><line x1="392.4" y1="661.1" x2="389.4" y2="661.1" /><circle cx="393.4" cy="723.0" r="0.6" fill="#B8960C" stroke="none" /><circle cx="394.1" cy="725.7" r="0.6" fill="#B8960C" stroke="none" /><circle cx="391.6" cy="724.7" r="0.6" fill="#B8960C" stroke="none" /><circle cx="391.6" cy="721.3" r="0.6" fill="#B8960C" stroke="none" /><circle cx="394.1" cy="720.3" r="0.6" fill="#B8960C" stroke="none" /></g></svg>