<?xml version='1.0' encoding='utf-8'?>
<svg xmlns="http://www.w3.org/2000/svg" xmlns:inkscape="http://www.inkscape.org/namespaces/inkscape" viewBox="204 228 408 600"><style>*{vector-effect:non-scaling-stroke}</style><g id="01_Black_Frame" inkscape:groupmode="layer" inkscape:label="01_Black_Frame" stroke="#1A1A1A" fill="none" stroke-width="0.875" stroke-linecap="round" stroke-linejoin="round"><path d="M 250.0,264.0 L 566.0,264.0 Q 576.0,264.0 576.0,274.0 L 576.0,782.0 Q 576.0,792.0 566.0,792.0 L 250.0,792.0 Q 240.0,792.0 240.0,782.0 L 240.0,274.0 Q 240.0,264.0 250.0,264.0" /><path d="M 253.0,270.0 L 563.0,270.0 Q 570.0,270.0 570.0,277.0 L 570.0,779.0 Q 570.0,786.0 563.0,786.0 L 253.0,786.0 Q 246.0,786.0 246.0,779.0 L 246.0,277.0 Q 246.0,270.0 253.0,270.0" /><line x1="259.0" y1="280.0" x2="263.0" y2="280.0" /><line x1="258.1" y1="282.1" x2="260.9" y2="284.9" /><line x1="256.0" y1="283.0" x2="256.0" y2="287.0" /><line x1="253.9" y1="282.1" x2="251.1" y2="284.9" /><line x1="253.0" y1="280.0" x2="249.0" y2="280.0" /><line x1="253.9" y1="277.9" x2="251.1" y2="275.1" /><line x1="256.0" y1="277.0" x2="256.0" y2="273.0" /><line x1="258.1" y1="277.9" x2="260.9" y2="275.1" /><line x1="563.0" y1="280.0" x2="567.0" y2="280.0" /><line x1="562.1" y1="282.1" x2="564.9" y2="284.9" /><line x1="560.0" y1="283.0" x2="560.0" y2="287.0" /><line x1="557.9" y1="282.1" x2="555.1" y2="284.9" /><line x1="557.0" y1="280.0" x2="553.0" y2="280.0" /><line x1="557.9" y1="277.9" x2="555.1" y2="275.1" /><line x1="560.0" y1="277.0" x2="560.0" y2="273.0" /><line x1="562.1" y1="277.9" x2="564.9" y2="275.1" /><line x1="259.0" y1="776.0" x2="263.0" y2="776.0" /><line x1="258.1" y1="778.1" x2="260.9" y2="780.9" /><line x1="256.0" y1="779.0" x2="256.0" y2="783.0" /><line x1="253.9" y1="778.1" x2="251.1" y2="780.9" /><line x1="253.0" y1="776.0" x2="249.0" y2="776.0" /><line x1="253.9" y1="773.9" x2="251.1" y2="771.1" /><line x1="256.0" y1="773.0" x2="256.0" y2="769.0" /><line x1="258.1" y1="773.9" x2="260.9" y2="771.1" /><line x1="563.0" y1="776.0" x2="567.0" y2="776.0" /><line x1="562.1" y1="778.1" x2="564.9" y2="780.9" /><line x1="560.0" y1="779.0" x2="560.0" y2="783.0" /><line x1="557.9" y1="778.1" x2="555.1" y2="780.9" /><line x1="557.0" y1="776.0" x2="553.0" y2="776.0" /><line x1="557.9" y1="773.9" x2="555.1" y2="771.1" /><line x1="560.0" y1="773.0" x2="560.0" y2="769.0" /><line x1="562.1" y1="773.9" x2="564.9" y2="771.1" /><polyline points="403.88,283.20 402.12,282.00 401.12,282.00 399.38,283.60 399.38,288.40 401.12,290.00 402.12,290.00 403.88,288.80" /><polyline points="405.12,282.00 410.12,290.00" /><polyline points="410.12,282.00 405.12,290.00" /><polyline points="413.38,282.00 413.38,290.00" /><polyline points="381.84,297.00 388.34,297.00" /><polyline points="385.09,297.00 385.09,307.00" /><polyline points="389.31,297.00 389.31,307.00" /><polyline points="395.81,297.00 395.81,307.00" /><polyline points="389.31,301.80 395.81,301.80" /><polyline points="402.31,297.00 396.79,297.00 396.79,301.80 400.69,301.80" /><polyline points="396.79,301.80 396.79,307.00 402.31,307.00" /><polyline points="417.26,297.00 411.74,297.00 411.74,301.80 415.64,301.80" /><polyline points="411.74,301.80 411.74,307.00 417.26,307.00" /><polyline points="419.21,297.00 422.46,307.00 425.71,297.00" /><polyline points="432.21,297.00 426.69,297.00 426.69,301.80 430.59,301.80" /><polyline points="426.69,301.80 426.69,307.00 432.21,307.00" /><line x1="270.0" y1="312.0" x2="546.0" y2="312.0" /><line x1="270.0" y1="732.0" x2="546.0" y2="732.0" /><polyline points="370.27,741.42 369.29,740.75 368.73,740.75 367.75,741.65 367.75,744.35 368.73,745.25 369.29,745.25 370.27,744.58" /><polyline points="373.35,740.75 370.97,740.75 370.97,742.91 372.65,742.91" /><polyline points="370.97,742.91 370.97,745.25 373.35,745.25" /><polyline points="374.19,745.25 375.59,740.75 376.99,745.25" /><polyline points="374.69,743.67 376.49,743.67" /><polyline points="379.79,741.20 379.09,740.75 378.25,740.75 377.55,741.42 377.41,742.10 377.83,742.64 378.81,743.00 379.79,743.36 380.21,743.90 380.07,744.58 379.37,745.25 378.39,745.25 377.69,744.80" /><polyline points="383.01,740.75 380.63,740.75 380.63,742.91 382.31,742.91" /><polyline points="380.63,742.91 380.63,745.25 383.01,745.25" /><polyline points="386.23,740.75 383.85,740.75 383.85,742.91 385.53,742.91" /><polyline points="383.85,742.91 383.85,745.25" /><polyline points="388.47,740.75 388.47,745.25" /><polyline points="390.29,745.25 390.29,740.75 392.11,740.75 392.81,741.42 392.81,742.19 392.11,742.77 390.29,742.77 392.81,745.25" /><polyline points="395.89,740.75 393.51,740.75 393.51,742.91 395.19,742.91" /><polyline points="393.51,742.91 393.51,745.25 395.89,745.25" /><polyline points="403.17,745.25 403.17,740.75 404.99,740.75 405.69,741.42 405.69,742.19 404.99,742.77 403.17,742.77" /><polyline points="406.39,740.75 407.79,743.00 409.19,740.75" /><polyline points="407.79,743.00 407.79,745.25" /><polyline points="409.61,745.25 409.61,740.75 411.43,740.75 412.13,741.42 412.13,742.19 411.43,742.77 409.61,742.77 412.13,745.25" /><polyline points="412.83,745.25 414.23,740.75 415.63,745.25" /><polyline points="413.33,743.67 415.13,743.67" /><polyline points="416.05,745.25 416.05,740.75 417.45,743.23 418.85,740.75 418.85,745.25" /><polyline points="420.67,740.75 420.67,745.25" /><polyline points="422.49,745.25 422.49,740.75 424.03,740.75 425.01,741.88 425.01,744.12 424.03,745.25 422.49,745.25" /><polyline points="432.15,740.75 432.85,745.25 433.55,742.33 434.25,745.25 434.95,740.75" /><polyline points="436.77,740.75 435.65,741.20 435.37,742.10 435.37,743.90 435.65,744.80 436.77,745.25 437.89,744.80 438.17,743.90 438.17,742.10 437.89,741.20 436.77,740.75" /><polyline points="438.59,745.25 438.59,740.75 439.99,743.23 441.39,740.75 441.39,745.25" /><polyline points="444.19,740.75 441.81,740.75 441.81,742.91 443.49,742.91" /><polyline points="441.81,742.91 441.81,745.25 444.19,745.25" /><polyline points="445.03,745.25 445.03,740.75 447.83,745.25 447.83,740.75" /><polyline points="324.62,753.25 329.62,753.25" /><polyline points="327.12,753.25 327.12,760.75" /><polyline points="330.38,753.25 330.38,760.75" /><polyline points="335.38,753.25 335.38,760.75" /><polyline points="330.38,756.85 335.38,756.85" /><polyline points="340.38,753.25 336.12,753.25 336.12,756.85 339.12,756.85" /><polyline points="336.12,756.85 336.12,760.75 340.38,760.75" /><polyline points="347.62,760.75 347.62,753.25 350.38,753.25 352.12,755.12 352.12,758.88 350.38,760.75 347.62,760.75" /><polyline points="353.38,760.75 355.88,753.25 358.38,760.75" /><polyline points="354.27,758.12 357.48,758.12" /><polyline points="359.12,753.25 361.62,757.00 364.12,753.25" /><polyline points="361.62,757.00 361.62,760.75" /><polyline points="370.62,760.75 370.62,753.25 373.88,753.25 374.88,754.15 374.88,755.35 373.88,756.25 370.62,756.25 373.88,756.25 374.88,757.15 374.88,759.85 373.88,760.75 370.62,760.75" /><polyline points="380.62,753.25 376.38,753.25 376.38,756.85 379.38,756.85" /><polyline points="376.38,756.85 376.38,760.75 380.62,760.75" /><polyline points="386.38,753.25 382.12,753.25 382.12,756.85 385.12,756.85" /><polyline points="382.12,756.85 382.12,760.75" /><polyline points="390.38,753.25 388.38,754.00 387.88,755.50 387.88,758.50 388.38,760.00 390.38,760.75 392.38,760.00 392.88,758.50 392.88,755.50 392.38,754.00 390.38,753.25" /><polyline points="393.62,760.75 393.62,753.25 396.88,753.25 398.12,754.38 398.12,755.65 396.88,756.62 393.62,756.62 398.12,760.75" /><polyline points="403.62,753.25 399.38,753.25 399.38,756.85 402.38,756.85" /><polyline points="399.38,756.85 399.38,760.75 403.62,760.75" /><polyline points="413.38,753.25 413.38,760.75" /><polyline points="420.88,754.00 419.62,753.25 418.12,753.25 416.88,754.38 416.62,755.50 417.38,756.40 419.12,757.00 420.88,757.60 421.62,758.50 421.38,759.62 420.12,760.75 418.38,760.75 417.12,760.00" /><polyline points="432.38,754.00 431.12,753.25 429.62,753.25 428.38,754.38 428.12,755.50 428.88,756.40 430.62,757.00 432.38,757.60 433.12,758.50 432.88,759.62 431.62,760.75 429.88,760.75 428.62,760.00" /><polyline points="433.88,753.25 438.88,753.25" /><polyline points="436.38,753.25 436.38,760.75" /><polyline points="442.12,753.25 442.12,760.75" /><polyline points="445.38,753.25 445.38,760.75 449.62,760.75" /><polyline points="451.12,753.25 451.12,760.75 455.38,760.75" /><polyline points="462.62,760.75 465.12,753.25 467.62,760.75" /><polyline points="463.52,758.12 466.73,758.12" /><polyline points="474.12,760.75 474.12,753.25 476.88,753.25 478.62,755.12 478.62,758.88 476.88,760.75 474.12,760.75" /><polyline points="479.88,760.75 482.38,753.25 484.88,760.75" /><polyline points="480.77,758.12 483.98,758.12" /><polyline points="485.62,753.25 488.12,757.00 490.62,753.25" /><polyline points="488.12,757.00 488.12,760.75" /><polyline points="313.12,766.25 318.12,766.25" /><polyline points="315.62,766.25 315.62,773.75" /><polyline points="318.88,766.25 318.88,773.75" /><polyline points="323.88,766.25 323.88,773.75" /><polyline points="318.88,769.85 323.88,769.85" /><polyline points="328.88,766.25 324.62,766.25 324.62,769.85 327.62,769.85" /><polyline points="324.62,769.85 324.62,773.75 328.88,773.75" /><polyline points="340.62,767.38 338.88,766.25 337.88,766.25 336.12,767.75 336.12,772.25 337.88,773.75 338.88,773.75 340.62,772.62" /><polyline points="341.88,766.25 341.88,773.75 346.12,773.75" /><polyline points="350.12,766.25 348.12,767.00 347.62,768.50 347.62,771.50 348.12,773.00 350.12,773.75 352.12,773.00 352.62,771.50 352.62,768.50 352.12,767.00 350.12,766.25" /><polyline points="357.88,767.38 356.12,766.25 355.12,766.25 353.38,767.75 353.38,772.25 355.12,773.75 356.12,773.75 357.88,772.62" /><polyline points="359.12,766.25 359.12,773.75" /><polyline points="363.62,766.25 359.12,770.00 363.62,773.75" /><polyline points="370.62,766.25 371.88,773.75 373.12,768.88 374.38,773.75 375.62,766.25" /><polyline points="378.88,766.25 378.88,773.75" /><polyline points="382.12,766.25 382.12,773.75 386.38,773.75" /><polyline points="387.88,766.25 387.88,773.75 392.12,773.75" /><polyline points="399.38,773.75 399.38,766.25 404.38,773.75 404.38,766.25" /><polyline points="407.62,766.25 405.62,767.00 405.12,768.50 405.12,771.50 405.62,773.00 407.62,773.75 409.62,773.00 410.12,771.50 410.12,768.50 409.62,767.00 407.62,766.25" /><polyline points="410.88,766.25 415.88,766.25" /><polyline points="413.38,766.25 413.38,773.75" /><polyline points="422.38,773.75 424.88,766.25 427.38,773.75" /><polyline points="423.27,771.12 426.48,771.12" /><polyline points="432.38,767.00 431.12,766.25 429.62,766.25 428.38,767.38 428.12,768.50 428.88,769.40 430.62,770.00 432.38,770.60 433.12,771.50 432.88,772.62 431.62,773.75 429.88,773.75 428.62,773.00" /><polyline points="433.88,766.25 433.88,773.75" /><polyline points="438.38,766.25 433.88,770.00 438.38,773.75" /><polyline points="445.38,773.75 445.38,766.25 448.62,766.25 449.88,767.38 449.88,768.65 448.62,769.62 445.38,769.62" /><polyline points="455.38,766.25 451.12,766.25 451.12,769.85 454.12,769.85" /><polyline points="451.12,769.85 451.12,773.75 455.38,773.75" /><polyline points="456.88,773.75 456.88,766.25 460.12,766.25 461.38,767.38 461.38,768.65 460.12,769.62 456.88,769.62 461.38,773.75" /><polyline points="462.62,773.75 462.62,766.25 465.12,770.38 467.62,766.25 467.62,773.75" /><polyline points="470.88,766.25 470.88,773.75" /><polyline points="478.38,767.00 477.12,766.25 475.62,766.25 474.38,767.38 474.12,768.50 474.88,769.40 476.62,770.00 478.38,770.60 479.12,771.50 478.88,772.62 477.62,773.75 475.88,773.75 474.62,773.00" /><polyline points="484.12,767.00 482.88,766.25 481.38,766.25 480.12,767.38 479.88,768.50 480.62,769.40 482.38,770.00 484.12,770.60 484.88,771.50 484.62,772.62 483.38,773.75 481.62,773.75 480.38,773.00" /><polyline points="488.12,766.25 488.12,773.75" /><polyline points="493.88,766.25 491.88,767.00 491.38,768.50 491.38,771.50 491.88,773.00 493.88,773.75 495.88,773.00 496.38,771.50 496.38,768.50 495.88,767.00 493.88,766.25" /><polyline points="497.12,773.75 497.12,766.25 502.12,773.75 502.12,766.25" /><polyline points="385.68,779.50 385.68,784.50" /><polyline points="387.76,779.50 389.36,784.50 390.96,779.50" /><polyline points="393.04,784.00 393.04,784.25" /><polyline points="395.12,779.50 398.32,784.50" /><polyline points="398.32,779.50 395.12,784.50" /><polyline points="398.80,779.50 402.00,784.50" /><polyline points="402.00,779.50 398.80,784.50" /><polyline points="404.08,779.50 404.08,784.50" /><polyline points="407.76,784.00 407.76,784.25" /><polyline points="409.84,784.50 409.84,779.50 411.44,782.25 413.04,779.50 413.04,784.50" /><polyline points="413.52,784.50 413.52,779.50 415.12,782.25 416.72,779.50 416.72,784.50" /><polyline points="417.20,779.50 420.40,784.50" /><polyline points="420.40,779.50 417.20,784.50" /><polyline points="420.88,779.50 424.08,784.50" /><polyline points="424.08,779.50 420.88,784.50" /><polyline points="424.56,779.50 426.16,784.50 427.76,779.50" /><polyline points="429.84,779.50 429.84,784.50" /></g><g id="02_Teal_Pyramid" inkscape:groupmode="layer" inkscape:label="02_Teal_Pyramid" stroke="#3A7A7A" fill="none" stroke-width="0.8" stroke-linecap="round" stroke-linejoin="round"><line x1="426.81" y1="384.28" x2="425.44" y2="384.28" /><line x1="427.94" y1="384.26" x2="425.64" y2="384.26" /><line x1="428.12" y1="384.46" x2="426.42" y2="384.46" /><line x1="424.99" y1="389.13" x2="425.35" y2="389.13" /><line x1="427.39" y1="389.07" x2="425.74" y2="389.07" /><line x1="428.01" y1="388.89" x2="428.87" y2="388.89" /><line x1="423.12" y1="393.61" x2="423.99" y2="393.61" /><line x1="426.40" y1="393.62" x2="426.73" y2="393.62" /><line x1="429.37" y1="393.78" x2="430.53" y2="393.78" /><line x1="420.70" y1="398.35" x2="423.56" y2="398.35" /><line x1="426.01" y1="398.61" x2="427.31" y2="398.61" /><line x1="430.07" y1="398.55" x2="432.22" y2="398.55" /><line x1="418.76" y1="403.17" x2="422.20" y2="403.17" /><line x1="424.99" y1="403.28" x2="427.68" y2="403.28" /><line x1="431.27" y1="403.01" x2="434.43" y2="403.01" /><line x1="417.16" y1="407.90" x2="421.62" y2="407.90" /><line x1="424.35" y1="407.81" x2="428.85" y2="407.81" /><line x1="430.22" y1="407.98" x2="435.70" y2="407.98" /><line x1="414.75" y1="412.64" x2="421.62" y2="412.64" /><line x1="424.26" y1="412.58" x2="428.49" y2="412.58" /><line x1="431.60" y1="412.80" x2="437.80" y2="412.80" /><line x1="412.80" y1="417.47" x2="420.86" y2="417.47" /><line x1="422.77" y1="417.45" x2="430.00" y2="417.45" /><line x1="432.06" y1="417.39" x2="439.39" y2="417.39" /><line x1="413.32" y1="421.98" x2="422.30" y2="421.98" /><line x1="424.64" y1="422.16" x2="432.08" y2="422.16" /><line x1="433.73" y1="422.12" x2="443.59" y2="422.12" /><line x1="410.93" y1="426.75" x2="420.86" y2="426.75" /><line x1="424.38" y1="426.96" x2="432.28" y2="426.96" /><line x1="435.58" y1="426.91" x2="444.94" y2="426.91" /><line x1="409.47" y1="431.58" x2="420.92" y2="431.58" /><line x1="423.84" y1="431.73" x2="432.34" y2="431.73" /><line x1="436.40" y1="431.69" x2="447.35" y2="431.69" /><line x1="407.54" y1="436.25" x2="420.14" y2="436.25" /><line x1="422.71" y1="436.16" x2="434.05" y2="436.16" /><line x1="436.96" y1="436.29" x2="449.32" y2="436.29" /><line x1="405.52" y1="440.99" x2="419.60" y2="440.99" /><line x1="421.80" y1="440.89" x2="434.33" y2="440.89" /><line x1="436.53" y1="441.19" x2="450.86" y2="441.19" /><line x1="403.38" y1="445.94" x2="418.90" y2="445.94" /><line x1="421.79" y1="445.67" x2="434.63" y2="445.67" /><line x1="438.35" y1="445.93" x2="452.76" y2="445.93" /><line x1="401.29" y1="450.49" x2="412.35" y2="450.49" /><line x1="416.43" y1="450.34" x2="426.29" y2="450.34" /><line x1="429.15" y1="450.40" x2="440.29" y2="450.40" /><line x1="442.89" y1="450.40" x2="454.53" y2="450.40" /><line x1="399.26" y1="455.06" x2="411.42" y2="455.06" /><line x1="415.18" y1="455.33" x2="426.33" y2="455.33" /><line x1="428.77" y1="455.23" x2="441.38" y2="455.23" /><line x1="443.51" y1="455.28" x2="456.23" y2="455.28" /><line x1="395.23" y1="460.13" x2="409.40" y2="460.13" /><line x1="412.30" y1="460.12" x2="424.48" y2="460.12" /><line x1="426.73" y1="459.84" x2="440.23" y2="459.84" /><line x1="442.23" y1="460.00" x2="455.84" y2="460.00" /><line x1="393.48" y1="464.70" x2="407.76" y2="464.70" /><line x1="411.48" y1="464.58" x2="423.95" y2="464.58" /><line x1="427.28" y1="464.85" x2="440.37" y2="464.85" /><line x1="443.03" y1="464.90" x2="458.36" y2="464.90" /><line x1="391.72" y1="469.24" x2="406.85" y2="469.24" /><line x1="410.40" y1="469.38" x2="423.75" y2="469.38" /><line x1="426.96" y1="469.55" x2="440.91" y2="469.55" /><line x1="444.53" y1="469.49" x2="460.03" y2="469.49" /><line x1="389.55" y1="473.97" x2="406.40" y2="473.97" /><line x1="408.53" y1="474.11" x2="424.17" y2="474.11" /><line x1="427.64" y1="474.18" x2="441.87" y2="474.18" /><line x1="444.99" y1="474.09" x2="461.65" y2="474.09" /><line x1="387.33" y1="478.98" x2="405.94" y2="478.98" /><line x1="407.45" y1="478.73" x2="424.55" y2="478.73" /><line x1="427.12" y1="478.95" x2="442.95" y2="478.95" /><line x1="446.08" y1="478.73" x2="463.16" y2="478.73" /><line x1="385.35" y1="483.62" x2="404.05" y2="483.62" /><line x1="407.71" y1="483.44" x2="423.90" y2="483.44" /><line x1="427.29" y1="483.47" x2="443.58" y2="483.47" /><line x1="446.90" y1="483.56" x2="465.39" y2="483.56" /><line x1="383.53" y1="488.19" x2="403.45" y2="488.19" /><line x1="405.38" y1="488.16" x2="424.49" y2="488.16" /><line x1="425.94" y1="488.53" x2="445.25" y2="488.53" /><line x1="448.33" y1="488.53" x2="467.24" y2="488.53" /><line x1="383.35" y1="493.13" x2="404.53" y2="493.13" /><line x1="406.27" y1="493.05" x2="426.86" y2="493.05" /><line x1="428.59" y1="493.19" x2="448.16" y2="493.19" /><line x1="450.65" y1="493.00" x2="470.86" y2="493.00" /><line x1="383.72" y1="493.44" x2="404.00" y2="493.44" /><line x1="406.07" y1="493.69" x2="426.51" y2="493.69" /><line x1="428.44" y1="493.47" x2="447.98" y2="493.47" /><line x1="450.99" y1="493.74" x2="470.71" y2="493.74" /><line x1="381.60" y1="497.69" x2="403.68" y2="497.69" /><line x1="405.77" y1="497.97" x2="425.88" y2="497.97" /><line x1="428.13" y1="497.67" x2="449.52" y2="497.67" /><line x1="451.02" y1="497.84" x2="472.55" y2="497.84" /><line x1="381.62" y1="498.21" x2="402.71" y2="498.21" /><line x1="406.28" y1="498.39" x2="425.40" y2="498.39" /><line x1="428.95" y1="498.49" x2="448.59" y2="498.49" /><line x1="450.86" y1="498.29" x2="472.74" y2="498.29" /><line x1="379.47" y1="502.60" x2="402.74" y2="502.60" /><line x1="404.64" y1="502.58" x2="425.51" y2="502.58" /><line x1="428.64" y1="502.68" x2="449.95" y2="502.68" /><line x1="452.26" y1="502.51" x2="474.59" y2="502.51" /><line x1="380.20" y1="503.10" x2="402.85" y2="503.10" /><line x1="404.47" y1="502.92" x2="426.24" y2="502.92" /><line x1="428.07" y1="503.01" x2="450.27" y2="503.01" /><line x1="453.28" y1="503.29" x2="475.02" y2="503.29" /><line x1="378.20" y1="507.39" x2="401.20" y2="507.39" /><line x1="404.34" y1="507.11" x2="425.75" y2="507.11" /><line x1="428.38" y1="507.36" x2="451.43" y2="507.36" /><line x1="452.90" y1="507.40" x2="476.41" y2="507.40" /><line x1="377.53" y1="507.81" x2="401.17" y2="507.81" /><line x1="403.53" y1="507.95" x2="425.98" y2="507.95" /><line x1="428.10" y1="507.80" x2="450.96" y2="507.80" /><line x1="453.19" y1="507.63" x2="476.58" y2="507.63" /><line x1="375.97" y1="512.17" x2="399.27" y2="512.17" /><line x1="402.28" y1="512.03" x2="426.31" y2="512.03" /><line x1="429.23" y1="511.90" x2="451.43" y2="511.90" /><line x1="453.94" y1="511.83" x2="478.07" y2="511.83" /><line x1="375.65" y1="512.41" x2="400.46" y2="512.41" /><line x1="402.56" y1="512.63" x2="425.84" y2="512.63" /><line x1="428.49" y1="512.54" x2="451.03" y2="512.54" /><line x1="453.77" y1="512.49" x2="478.45" y2="512.49" /><line x1="374.16" y1="516.82" x2="393.57" y2="516.82" /><line x1="396.71" y1="516.89" x2="414.68" y2="516.89" /><line x1="417.80" y1="516.73" x2="436.61" y2="516.73" /><line x1="438.80" y1="516.83" x2="458.24" y2="516.83" /><line x1="459.93" y1="516.68" x2="480.62" y2="516.68" /><line x1="374.16" y1="517.12" x2="394.19" y2="517.12" /><line x1="396.73" y1="517.22" x2="415.04" y2="517.22" /><line x1="417.91" y1="517.30" x2="435.89" y2="517.30" /><line x1="439.34" y1="517.35" x2="457.23" y2="517.35" /><line x1="460.61" y1="517.24" x2="480.16" y2="517.24" /><line x1="371.87" y1="521.29" x2="392.47" y2="521.29" /><line x1="395.90" y1="521.65" x2="413.84" y2="521.65" /><line x1="417.88" y1="521.56" x2="436.74" y2="521.56" /><line x1="439.14" y1="521.32" x2="458.76" y2="521.32" /><line x1="461.41" y1="521.29" x2="482.25" y2="521.29" /><line x1="372.17" y1="521.99" x2="392.83" y2="521.99" /><line x1="395.70" y1="522.09" x2="414.31" y2="522.09" /><line x1="417.41" y1="521.98" x2="436.91" y2="521.98" /><line x1="438.60" y1="521.93" x2="459.12" y2="521.93" /><line x1="461.30" y1="521.86" x2="482.24" y2="521.86" /><line x1="369.90" y1="526.07" x2="391.53" y2="526.07" /><line x1="394.05" y1="526.05" x2="414.29" y2="526.05" /><line x1="417.63" y1="526.20" x2="437.07" y2="526.20" /><line x1="440.31" y1="526.07" x2="459.74" y2="526.07" /><line x1="462.68" y1="526.03" x2="483.62" y2="526.03" /><line x1="370.20" y1="526.92" x2="391.43" y2="526.92" /><line x1="394.84" y1="526.87" x2="413.49" y2="526.87" /><line x1="416.51" y1="526.86" x2="437.72" y2="526.86" /><line x1="439.08" y1="526.90" x2="460.34" y2="526.90" /><line x1="462.44" y1="526.57" x2="484.37" y2="526.57" /><line x1="366.38" y1="530.73" x2="387.73" y2="530.73" /><line x1="390.76" y1="530.94" x2="411.46" y2="530.94" /><line x1="414.29" y1="531.07" x2="435.59" y2="531.07" /><line x1="438.61" y1="530.99" x2="458.30" y2="530.99" /><line x1="461.78" y1="531.08" x2="484.02" y2="531.08" /><line x1="366.46" y1="531.58" x2="388.92" y2="531.58" /><line x1="391.44" y1="531.62" x2="411.94" y2="531.62" /><line x1="414.78" y1="531.28" x2="434.97" y2="531.28" /><line x1="438.07" y1="531.58" x2="458.57" y2="531.58" /><line x1="461.77" y1="531.56" x2="484.21" y2="531.56" /><line x1="363.85" y1="535.66" x2="387.62" y2="535.66" /><line x1="389.62" y1="535.50" x2="411.82" y2="535.50" /><line x1="415.02" y1="535.56" x2="435.20" y2="535.56" /><line x1="437.78" y1="535.49" x2="460.46" y2="535.49" /><line x1="462.76" y1="535.51" x2="485.64" y2="535.51" /><line x1="364.16" y1="536.16" x2="387.22" y2="536.16" /><line x1="389.83" y1="536.18" x2="411.19" y2="536.18" /><line x1="414.16" y1="536.36" x2="435.34" y2="536.36" /><line x1="438.94" y1="536.39" x2="459.83" y2="536.39" /><line x1="463.10" y1="536.11" x2="485.65" y2="536.11" /><line x1="361.82" y1="540.57" x2="386.27" y2="540.57" /><line x1="387.84" y1="540.22" x2="411.80" y2="540.22" /><line x1="413.49" y1="540.22" x2="436.16" y2="540.22" /><line x1="438.65" y1="540.22" x2="461.45" y2="540.22" /><line x1="463.82" y1="540.45" x2="487.39" y2="540.45" /><line x1="362.34" y1="540.84" x2="385.41" y2="540.84" /><line x1="388.63" y1="541.05" x2="410.97" y2="541.05" /><line x1="413.79" y1="541.12" x2="436.51" y2="541.12" /><line x1="439.56" y1="541.13" x2="460.86" y2="541.13" /><line x1="463.78" y1="540.85" x2="487.20" y2="540.85" /><line x1="360.08" y1="545.18" x2="384.77" y2="545.18" /><line x1="387.47" y1="544.96" x2="410.22" y2="544.96" /><line x1="412.90" y1="545.04" x2="436.84" y2="545.04" /><line x1="438.71" y1="545.27" x2="462.46" y2="545.27" /><line x1="464.08" y1="545.06" x2="489.52" y2="545.06" /><line x1="360.15" y1="545.66" x2="384.34" y2="545.66" /><line x1="386.68" y1="545.69" x2="411.17" y2="545.69" /><line x1="412.71" y1="545.71" x2="436.69" y2="545.71" /><line x1="439.54" y1="545.68" x2="461.73" y2="545.68" /><line x1="465.41" y1="545.83" x2="489.04" y2="545.83" /><line x1="357.91" y1="550.01" x2="384.12" y2="550.01" /><line x1="385.91" y1="549.80" x2="410.73" y2="549.80" /><line x1="412.29" y1="549.80" x2="437.16" y2="549.80" /><line x1="439.35" y1="549.96" x2="462.92" y2="549.96" /><line x1="465.41" y1="549.80" x2="491.26" y2="549.80" /><line x1="357.89" y1="550.38" x2="382.95" y2="550.38" /><line x1="386.54" y1="550.32" x2="410.12" y2="550.32" /><line x1="412.07" y1="550.21" x2="437.30" y2="550.21" /><line x1="439.26" y1="550.24" x2="462.89" y2="550.24" /><line x1="466.18" y1="550.34" x2="491.09" y2="550.34" /><line x1="355.99" y1="554.75" x2="382.24" y2="554.75" /><line x1="385.54" y1="554.75" x2="409.73" y2="554.75" /><line x1="411.72" y1="554.65" x2="437.09" y2="554.65" /><line x1="440.24" y1="554.67" x2="463.81" y2="554.67" /><line x1="467.03" y1="554.60" x2="493.02" y2="554.60" /><line x1="355.92" y1="555.28" x2="381.57" y2="555.28" /><line x1="385.39" y1="554.93" x2="409.48" y2="554.93" /><line x1="411.87" y1="555.07" x2="437.29" y2="555.07" /><line x1="439.89" y1="555.31" x2="464.35" y2="555.31" /><line x1="467.86" y1="555.27" x2="493.41" y2="555.27" /><line x1="354.04" y1="559.32" x2="381.66" y2="559.32" /><line x1="384.70" y1="559.21" x2="408.38" y2="559.21" /><line x1="411.26" y1="559.46" x2="437.55" y2="559.46" /><line x1="439.37" y1="559.38" x2="465.83" y2="559.38" /><line x1="467.85" y1="559.22" x2="495.09" y2="559.22" /><line x1="354.73" y1="559.75" x2="381.43" y2="559.75" /><line x1="383.76" y1="560.04" x2="409.38" y2="560.04" /><line x1="412.12" y1="560.03" x2="436.86" y2="560.03" /><line x1="440.28" y1="559.94" x2="465.17" y2="559.94" /><line x1="468.19" y1="559.68" x2="494.71" y2="559.68" /><line x1="352.07" y1="563.88" x2="379.33" y2="563.88" /><line x1="382.93" y1="564.03" x2="408.73" y2="564.03" /><line x1="411.75" y1="564.13" x2="437.17" y2="564.13" /><line x1="439.98" y1="564.12" x2="466.87" y2="564.12" /><line x1="468.88" y1="563.88" x2="496.49" y2="563.88" /><line x1="352.40" y1="564.46" x2="379.93" y2="564.46" /><line x1="382.42" y1="564.67" x2="408.89" y2="564.67" /><line x1="411.63" y1="564.51" x2="437.70" y2="564.51" /><line x1="440.40" y1="564.39" x2="466.24" y2="564.39" /><line x1="468.87" y1="564.62" x2="496.40" y2="564.62" /><line x1="352.21" y1="568.93" x2="381.22" y2="568.93" /><line x1="382.84" y1="568.81" x2="410.50" y2="568.81" /><line x1="413.24" y1="568.80" x2="439.38" y2="568.80" /><line x1="441.97" y1="568.58" x2="470.09" y2="568.58" /><line x1="472.95" y1="568.74" x2="500.54" y2="568.74" /><line x1="352.04" y1="569.48" x2="381.24" y2="569.48" /><line x1="383.57" y1="569.49" x2="409.69" y2="569.49" /><line x1="412.75" y1="569.32" x2="440.24" y2="569.32" /><line x1="443.41" y1="569.30" x2="469.07" y2="569.30" /><line x1="472.01" y1="569.51" x2="500.45" y2="569.51" /><line x1="350.45" y1="573.66" x2="379.23" y2="573.66" /><line x1="381.87" y1="573.45" x2="410.35" y2="573.45" /><line x1="412.42" y1="573.48" x2="440.98" y2="573.48" /><line x1="443.03" y1="573.49" x2="470.92" y2="573.49" /><line x1="473.53" y1="573.63" x2="502.36" y2="573.63" /><line x1="350.43" y1="574.17" x2="379.00" y2="574.17" /><line x1="382.97" y1="574.07" x2="409.80" y2="574.07" /><line x1="412.18" y1="573.94" x2="440.88" y2="573.94" /><line x1="443.09" y1="573.88" x2="470.90" y2="573.88" /><line x1="472.94" y1="574.04" x2="502.28" y2="574.04" /><line x1="348.33" y1="578.05" x2="378.97" y2="578.05" /><line x1="381.16" y1="578.33" x2="409.87" y2="578.33" /><line x1="413.00" y1="578.14" x2="440.06" y2="578.14" /><line x1="443.66" y1="578.35" x2="470.82" y2="578.35" /><line x1="474.54" y1="578.13" x2="503.89" y2="578.13" /><line x1="348.40" y1="578.72" x2="378.49" y2="578.72" /><line x1="381.02" y1="578.78" x2="409.41" y2="578.78" /><line x1="412.32" y1="578.65" x2="440.38" y2="578.65" /><line x1="443.31" y1="578.84" x2="471.38" y2="578.84" /><line x1="474.42" y1="578.88" x2="504.43" y2="578.88" /><line x1="346.69" y1="583.02" x2="372.37" y2="583.02" /><line x1="374.50" y1="583.06" x2="397.74" y2="583.06" /><line x1="400.77" y1="583.01" x2="425.06" y2="583.01" /><line x1="427.93" y1="582.85" x2="451.15" y2="582.85" /><line x1="453.90" y1="583.13" x2="478.35" y2="583.13" /><line x1="480.82" y1="583.14" x2="506.16" y2="583.14" /><line x1="346.18" y1="583.58" x2="371.74" y2="583.58" /><line x1="374.97" y1="583.66" x2="397.43" y2="583.66" /><line x1="400.81" y1="583.34" x2="424.95" y2="583.34" /><line x1="427.88" y1="583.38" x2="450.82" y2="583.38" /><line x1="454.52" y1="583.68" x2="478.35" y2="583.68" /><line x1="480.07" y1="583.39" x2="505.88" y2="583.39" /><line x1="344.56" y1="587.85" x2="370.26" y2="587.85" /><line x1="372.66" y1="587.57" x2="397.97" y2="587.57" /><line x1="399.80" y1="587.50" x2="425.71" y2="587.50" /><line x1="427.77" y1="587.77" x2="452.24" y2="587.77" /><line x1="455.44" y1="587.53" x2="478.66" y2="587.53" /><line x1="481.97" y1="587.49" x2="507.63" y2="587.49" /><line x1="344.73" y1="588.16" x2="371.04" y2="588.16" /><line x1="372.92" y1="588.16" x2="397.89" y2="588.16" /><line x1="400.36" y1="588.13" x2="424.73" y2="588.13" /><line x1="427.98" y1="588.38" x2="451.69" y2="588.38" /><line x1="455.41" y1="588.42" x2="478.43" y2="588.42" /><line x1="481.65" y1="588.25" x2="508.22" y2="588.25" /><line x1="342.75" y1="592.41" x2="368.61" y2="592.41" /><line x1="372.08" y1="592.57" x2="397.08" y2="592.57" /><line x1="400.10" y1="592.43" x2="424.57" y2="592.43" /><line x1="428.05" y1="592.57" x2="451.97" y2="592.57" /><line x1="455.68" y1="592.51" x2="480.79" y2="592.51" /><line x1="483.13" y1="592.37" x2="509.58" y2="592.37" /><line x1="342.25" y1="592.80" x2="369.38" y2="592.80" /><line x1="372.00" y1="593.16" x2="396.56" y2="593.16" /><line x1="399.60" y1="593.07" x2="424.73" y2="593.07" /><line x1="427.43" y1="592.94" x2="452.96" y2="592.94" /><line x1="456.02" y1="593.02" x2="480.14" y2="593.02" /><line x1="482.78" y1="592.84" x2="509.71" y2="592.84" /><line x1="340.76" y1="597.31" x2="368.58" y2="597.31" /><line x1="370.20" y1="597.33" x2="396.76" y2="597.33" /><line x1="399.50" y1="597.24" x2="424.38" y2="597.24" /><line x1="427.47" y1="597.14" x2="453.45" y2="597.14" /><line x1="456.30" y1="597.09" x2="482.08" y2="597.09" /><line x1="484.15" y1="597.19" x2="511.98" y2="597.19" /><line x1="340.50" y1="597.60" x2="368.52" y2="597.60" /><line x1="370.38" y1="597.77" x2="395.91" y2="597.77" /><line x1="398.76" y1="597.88" x2="425.10" y2="597.88" /><line x1="428.18" y1="597.75" x2="453.22" y2="597.75" /><line x1="455.12" y1="597.65" x2="482.25" y2="597.65" /><line x1="484.32" y1="597.53" x2="511.87" y2="597.53" /><line x1="336.95" y1="601.76" x2="364.93" y2="601.76" /><line x1="366.91" y1="601.84" x2="393.86" y2="601.84" /><line x1="395.94" y1="602.07" x2="422.96" y2="602.07" /><line x1="425.93" y1="601.81" x2="451.56" y2="601.81" /><line x1="454.23" y1="601.96" x2="480.89" y2="601.96" /><line x1="483.43" y1="601.98" x2="511.57" y2="601.98" /><line x1="336.90" y1="602.60" x2="364.48" y2="602.60" /><line x1="367.39" y1="602.43" x2="393.73" y2="602.43" /><line x1="397.32" y1="602.32" x2="421.92" y2="602.32" /><line x1="426.24" y1="602.40" x2="451.44" y2="602.40" /><line x1="454.53" y1="602.28" x2="481.23" y2="602.28" /><line x1="484.56" y1="602.39" x2="511.36" y2="602.39" /><line x1="336.90" y1="603.03" x2="363.73" y2="603.03" /><line x1="366.99" y1="602.91" x2="393.61" y2="602.91" /><line x1="396.12" y1="603.09" x2="422.98" y2="603.09" /><line x1="425.82" y1="602.88" x2="451.41" y2="602.88" /><line x1="454.56" y1="602.79" x2="480.77" y2="602.79" /><line x1="483.33" y1="603.04" x2="511.56" y2="603.04" /><line x1="334.64" y1="606.47" x2="362.38" y2="606.47" /><line x1="366.11" y1="606.49" x2="392.42" y2="606.49" /><line x1="395.62" y1="606.42" x2="423.08" y2="606.42" /><line x1="424.80" y1="606.53" x2="452.55" y2="606.53" /><line x1="455.60" y1="606.51" x2="481.75" y2="606.51" /><line x1="484.65" y1="606.66" x2="513.53" y2="606.66" /><line x1="335.02" y1="607.27" x2="363.74" y2="607.27" /><line x1="366.55" y1="607.09" x2="392.29" y2="607.09" /><line x1="396.36" y1="607.04" x2="422.15" y2="607.04" /><line x1="425.79" y1="607.20" x2="451.95" y2="607.20" /><line x1="455.62" y1="607.11" x2="481.91" y2="607.11" /><line x1="485.36" y1="607.07" x2="513.39" y2="607.07" /><line x1="334.39" y1="607.69" x2="362.22" y2="607.69" /><line x1="366.03" y1="607.87" x2="392.57" y2="607.87" /><line x1="396.64" y1="607.54" x2="422.44" y2="607.54" /><line x1="425.69" y1="607.61" x2="451.87" y2="607.61" /><line x1="455.23" y1="607.58" x2="482.05" y2="607.58" /><line x1="484.69" y1="607.87" x2="513.50" y2="607.87" /><line x1="333.14" y1="611.37" x2="362.44" y2="611.37" /><line x1="364.58" y1="611.23" x2="392.37" y2="611.23" /><line x1="394.67" y1="611.30" x2="422.22" y2="611.30" /><line x1="425.84" y1="611.22" x2="452.10" y2="611.22" /><line x1="456.09" y1="611.18" x2="483.29" y2="611.18" /><line x1="485.89" y1="611.22" x2="515.03" y2="611.22" /><line x1="332.80" y1="611.74" x2="362.49" y2="611.74" /><line x1="363.73" y1="611.99" x2="392.90" y2="611.99" /><line x1="395.40" y1="612.07" x2="422.02" y2="612.07" /><line x1="424.54" y1="611.72" x2="453.42" y2="611.72" /><line x1="455.72" y1="611.99" x2="483.50" y2="611.99" /><line x1="485.56" y1="611.92" x2="514.80" y2="611.92" /><line x1="333.10" y1="612.59" x2="361.64" y2="612.59" /><line x1="364.94" y1="612.56" x2="392.11" y2="612.56" /><line x1="394.27" y1="612.50" x2="423.18" y2="612.50" /><line x1="424.75" y1="612.25" x2="453.58" y2="612.25" /><line x1="455.79" y1="612.45" x2="483.76" y2="612.45" /><line x1="486.43" y1="612.42" x2="514.96" y2="612.42" /><line x1="331.07" y1="615.95" x2="360.58" y2="615.95" /><line x1="364.15" y1="615.99" x2="390.93" y2="615.99" /><line x1="393.93" y1="616.21" x2="423.40" y2="616.21" /><line x1="424.87" y1="616.14" x2="453.67" y2="616.14" /><line x1="456.46" y1="615.93" x2="484.83" y2="615.93" /><line x1="487.81" y1="615.87" x2="517.21" y2="615.87" /><line x1="330.84" y1="616.75" x2="360.63" y2="616.75" /><line x1="363.98" y1="616.69" x2="390.79" y2="616.69" /><line x1="394.42" y1="616.47" x2="422.52" y2="616.47" /><line x1="425.05" y1="616.59" x2="453.99" y2="616.59" /><line x1="455.94" y1="616.48" x2="484.64" y2="616.48" /><line x1="487.89" y1="616.77" x2="517.02" y2="616.77" /><line x1="331.15" y1="617.35" x2="360.56" y2="617.35" /><line x1="362.82" y1="617.36" x2="392.39" y2="617.36" /><line x1="394.41" y1="617.20" x2="422.43" y2="617.20" /><line x1="425.57" y1="616.98" x2="453.19" y2="616.98" /><line x1="455.72" y1="617.05" x2="484.57" y2="617.05" /><line x1="487.04" y1="617.22" x2="516.67" y2="617.22" /><line x1="329.28" y1="620.61" x2="358.63" y2="620.61" /><line x1="361.94" y1="620.95" x2="390.73" y2="620.95" /><line x1="393.81" y1="620.93" x2="422.83" y2="620.93" /><line x1="425.37" y1="620.62" x2="454.11" y2="620.62" /><line x1="456.89" y1="620.91" x2="485.45" y2="620.91" /><line x1="487.84" y1="620.61" x2="518.44" y2="620.61" /><line x1="328.71" y1="621.29" x2="358.56" y2="621.29" /><line x1="361.81" y1="621.27" x2="390.98" y2="621.27" /><line x1="393.20" y1="621.26" x2="422.72" y2="621.26" /><line x1="424.31" y1="621.32" x2="454.80" y2="621.32" /><line x1="457.29" y1="621.39" x2="486.07" y2="621.39" /><line x1="487.85" y1="621.34" x2="519.15" y2="621.34" /><line x1="328.58" y1="621.77" x2="359.09" y2="621.77" /><line x1="361.08" y1="622.06" x2="391.44" y2="622.06" /><line x1="393.24" y1="621.93" x2="422.95" y2="621.93" /><line x1="424.87" y1="622.03" x2="454.42" y2="622.03" /><line x1="456.90" y1="621.81" x2="485.48" y2="621.81" /><line x1="488.01" y1="621.95" x2="519.01" y2="621.95" /><line x1="327.35" y1="625.39" x2="357.83" y2="625.39" /><line x1="360.33" y1="625.52" x2="390.54" y2="625.52" /><line x1="392.57" y1="625.34" x2="422.48" y2="625.34" /><line x1="425.61" y1="625.61" x2="453.98" y2="625.61" /><line x1="457.20" y1="625.45" x2="487.39" y2="625.45" /><line x1="489.85" y1="625.41" x2="520.38" y2="625.41" /><line x1="327.02" y1="626.28" x2="358.22" y2="626.28" /><line x1="360.78" y1="625.90" x2="390.10" y2="625.90" /><line x1="393.70" y1="626.22" x2="422.06" y2="626.22" /><line x1="425.98" y1="626.27" x2="453.76" y2="626.27" /><line x1="457.44" y1="626.03" x2="487.05" y2="626.03" /><line x1="489.93" y1="626.01" x2="520.36" y2="626.01" /><line x1="326.64" y1="626.65" x2="358.09" y2="626.65" /><line x1="360.95" y1="626.76" x2="389.90" y2="626.76" /><line x1="392.30" y1="626.47" x2="423.14" y2="626.47" /><line x1="425.30" y1="626.66" x2="454.82" y2="626.66" /><line x1="457.44" y1="626.75" x2="487.03" y2="626.75" /><line x1="489.96" y1="626.80" x2="520.38" y2="626.80" /><line x1="324.70" y1="630.10" x2="356.36" y2="630.10" /><line x1="359.52" y1="630.12" x2="389.14" y2="630.12" /><line x1="392.49" y1="630.20" x2="422.00" y2="630.20" /><line x1="424.68" y1="630.45" x2="455.71" y2="630.45" /><line x1="458.43" y1="630.11" x2="487.93" y2="630.11" /><line x1="491.08" y1="630.17" x2="522.11" y2="630.17" /><line x1="324.75" y1="630.62" x2="355.80" y2="630.62" /><line x1="359.71" y1="630.94" x2="388.49" y2="630.94" /><line x1="392.23" y1="630.74" x2="422.40" y2="630.74" /><line x1="424.72" y1="630.69" x2="455.81" y2="630.69" /><line x1="457.23" y1="630.86" x2="488.62" y2="630.86" /><line x1="490.78" y1="630.70" x2="522.51" y2="630.70" /><line x1="324.94" y1="631.42" x2="355.84" y2="631.42" /><line x1="359.38" y1="631.31" x2="389.41" y2="631.31" /><line x1="391.90" y1="631.40" x2="422.51" y2="631.40" /><line x1="424.69" y1="631.20" x2="455.48" y2="631.20" /><line x1="457.52" y1="631.44" x2="489.09" y2="631.44" /><line x1="490.54" y1="631.28" x2="522.21" y2="631.28" /><line x1="322.71" y1="634.87" x2="355.06" y2="634.87" /><line x1="358.02" y1="635.15" x2="388.76" y2="635.15" /><line x1="391.23" y1="634.81" x2="422.98" y2="634.81" /><line x1="425.55" y1="634.89" x2="455.44" y2="634.89" /><line x1="458.42" y1="635.03" x2="489.85" y2="635.03" /><line x1="492.13" y1="635.06" x2="524.32" y2="635.06" /><line x1="322.90" y1="635.59" x2="355.25" y2="635.59" /><line x1="357.93" y1="635.55" x2="389.28" y2="635.55" /><line x1="392.00" y1="635.69" x2="421.71" y2="635.69" /><line x1="424.89" y1="635.36" x2="455.68" y2="635.36" /><line x1="457.94" y1="635.43" x2="489.90" y2="635.43" /><line x1="492.16" y1="635.38" x2="524.22" y2="635.38" /><line x1="322.65" y1="636.21" x2="355.53" y2="636.21" /><line x1="357.81" y1="635.90" x2="389.03" y2="635.90" /><line x1="391.58" y1="635.96" x2="422.62" y2="635.96" /><line x1="425.35" y1="636.14" x2="455.34" y2="636.14" /><line x1="458.03" y1="636.27" x2="489.54" y2="636.27" /><line x1="491.46" y1="636.19" x2="524.28" y2="636.19" /><line x1="323.46" y1="639.80" x2="356.00" y2="639.80" /><line x1="358.90" y1="639.80" x2="389.43" y2="639.80" /><line x1="392.79" y1="639.88" x2="424.13" y2="639.88" /><line x1="426.63" y1="639.65" x2="458.56" y2="639.65" /><line x1="461.78" y1="639.80" x2="492.20" y2="639.80" /><line x1="495.86" y1="639.78" x2="527.95" y2="639.78" /><line x1="323.08" y1="640.08" x2="356.04" y2="640.08" /><line x1="358.02" y1="640.10" x2="390.72" y2="640.10" /><line x1="392.57" y1="640.10" x2="424.09" y2="640.10" /><line x1="427.51" y1="640.29" x2="458.37" y2="640.29" /><line x1="461.32" y1="640.35" x2="492.54" y2="640.35" /><line x1="495.44" y1="640.38" x2="527.96" y2="640.38" /><line x1="323.00" y1="640.89" x2="356.17" y2="640.89" /><line x1="358.82" y1="641.02" x2="389.66" y2="641.02" /><line x1="393.61" y1="640.93" x2="423.97" y2="640.93" /><line x1="426.47" y1="640.90" x2="458.88" y2="640.90" /><line x1="460.63" y1="640.84" x2="493.30" y2="640.84" /><line x1="495.41" y1="640.72" x2="528.42" y2="640.72" /><line x1="321.29" y1="644.38" x2="354.83" y2="644.38" /><line x1="357.43" y1="644.25" x2="388.98" y2="644.25" /><line x1="391.92" y1="644.54" x2="424.64" y2="644.54" /><line x1="427.47" y1="644.56" x2="459.00" y2="644.56" /><line x1="461.46" y1="644.55" x2="494.46" y2="644.55" /><line x1="496.61" y1="644.27" x2="529.94" y2="644.27" /><line x1="320.87" y1="645.06" x2="353.94" y2="645.06" /><line x1="357.81" y1="645.20" x2="388.96" y2="645.20" /><line x1="392.23" y1="644.94" x2="423.80" y2="644.94" /><line x1="426.49" y1="644.87" x2="459.65" y2="644.87" /><line x1="461.93" y1="645.06" x2="493.66" y2="645.06" /><line x1="496.26" y1="645.04" x2="529.78" y2="645.04" /><line x1="321.22" y1="645.54" x2="354.17" y2="645.54" /><line x1="357.84" y1="645.37" x2="388.61" y2="645.37" /><line x1="392.57" y1="645.64" x2="423.98" y2="645.64" /><line x1="426.53" y1="645.67" x2="459.34" y2="645.67" /><line x1="461.56" y1="645.50" x2="494.38" y2="645.50" /><line x1="496.69" y1="645.65" x2="530.22" y2="645.65" /><line x1="319.14" y1="649.12" x2="348.15" y2="649.12" /><line x1="350.65" y1="649.25" x2="379.21" y2="649.25" /><line x1="381.33" y1="649.13" x2="409.23" y2="649.13" /><line x1="412.21" y1="649.36" x2="439.25" y2="649.36" /><line x1="442.46" y1="649.28" x2="469.24" y2="649.28" /><line x1="472.12" y1="649.33" x2="499.99" y2="649.33" /><line x1="503.16" y1="649.33" x2="531.62" y2="649.33" /><line x1="318.81" y1="649.91" x2="348.41" y2="649.91" /><line x1="350.98" y1="649.82" x2="378.39" y2="649.82" /><line x1="381.12" y1="649.70" x2="409.14" y2="649.70" /><line x1="411.57" y1="649.67" x2="439.45" y2="649.67" /><line x1="441.50" y1="649.67" x2="469.91" y2="649.67" /><line x1="472.44" y1="649.89" x2="500.93" y2="649.89" /><line x1="502.71" y1="649.63" x2="531.94" y2="649.63" /><line x1="318.91" y1="650.35" x2="347.82" y2="650.35" /><line x1="351.35" y1="650.43" x2="378.43" y2="650.43" /><line x1="381.69" y1="650.30" x2="408.78" y2="650.30" /><line x1="411.47" y1="650.30" x2="439.75" y2="650.30" /><line x1="442.74" y1="650.39" x2="469.50" y2="650.39" /><line x1="472.07" y1="650.31" x2="500.55" y2="650.31" /><line x1="502.88" y1="650.31" x2="531.78" y2="650.31" /><line x1="317.03" y1="653.83" x2="346.93" y2="653.83" /><line x1="348.95" y1="653.83" x2="378.20" y2="653.83" /><line x1="381.04" y1="653.91" x2="408.17" y2="653.91" /><line x1="411.27" y1="653.88" x2="439.72" y2="653.88" /><line x1="441.96" y1="654.07" x2="470.89" y2="654.07" /><line x1="472.89" y1="653.94" x2="502.21" y2="653.94" /><line x1="504.67" y1="653.75" x2="534.06" y2="653.75" /><line x1="317.36" y1="654.27" x2="346.62" y2="654.27" /><line x1="349.99" y1="654.46" x2="377.19" y2="654.46" /><line x1="380.00" y1="654.42" x2="409.60" y2="654.42" /><line x1="411.08" y1="654.63" x2="439.63" y2="654.63" /><line x1="442.29" y1="654.60" x2="470.85" y2="654.60" /><line x1="473.43" y1="654.52" x2="500.90" y2="654.52" /><line x1="503.85" y1="654.59" x2="533.41" y2="654.59" /><line x1="317.32" y1="654.98" x2="346.63" y2="654.98" /><line x1="349.92" y1="655.12" x2="377.36" y2="655.12" /><line x1="380.96" y1="654.96" x2="407.71" y2="654.96" /><line x1="412.00" y1="655.16" x2="439.30" y2="655.16" /><line x1="442.41" y1="654.96" x2="469.61" y2="654.96" /><line x1="472.39" y1="655.08" x2="502.14" y2="655.08" /><line x1="504.40" y1="655.19" x2="533.36" y2="655.19" /><line x1="315.52" y1="658.55" x2="345.21" y2="658.55" /><line x1="348.28" y1="658.49" x2="376.96" y2="658.49" /><line x1="378.81" y1="658.80" x2="408.70" y2="658.80" /><line x1="411.10" y1="658.54" x2="439.82" y2="658.54" /><line x1="442.17" y1="658.48" x2="471.40" y2="658.48" /><line x1="474.07" y1="658.84" x2="502.53" y2="658.84" /><line x1="505.37" y1="658.75" x2="535.52" y2="658.75" /><line x1="315.63" y1="659.03" x2="344.76" y2="659.03" /><line x1="347.31" y1="659.00" x2="377.29" y2="659.00" /><line x1="379.25" y1="659.26" x2="408.58" y2="659.26" /><line x1="410.80" y1="659.21" x2="440.28" y2="659.21" /><line x1="442.28" y1="659.26" x2="471.55" y2="659.26" /><line x1="473.96" y1="659.33" x2="502.46" y2="659.33" /><line x1="505.56" y1="659.05" x2="535.38" y2="659.05" /><line x1="315.65" y1="659.63" x2="345.33" y2="659.63" /><line x1="347.54" y1="659.65" x2="377.17" y2="659.65" /><line x1="379.93" y1="659.71" x2="407.89" y2="659.71" /><line x1="411.04" y1="659.66" x2="439.50" y2="659.66" /><line x1="443.45" y1="659.56" x2="470.55" y2="659.56" /><line x1="474.17" y1="659.72" x2="502.48" y2="659.72" /><line x1="506.24" y1="659.81" x2="535.43" y2="659.81" /><line x1="313.58" y1="663.36" x2="344.19" y2="663.36" /><line x1="347.65" y1="663.25" x2="375.43" y2="663.25" /><line x1="378.11" y1="663.46" x2="408.60" y2="663.46" /><line x1="410.77" y1="663.46" x2="439.44" y2="663.46" /><line x1="443.24" y1="663.36" x2="472.00" y2="663.36" /><line x1="474.51" y1="663.39" x2="504.45" y2="663.39" /><line x1="506.33" y1="663.50" x2="537.48" y2="663.50" /><line x1="313.60" y1="663.82" x2="344.17" y2="663.82" /><line x1="347.07" y1="663.77" x2="375.71" y2="663.77" /><line x1="378.83" y1="663.81" x2="407.90" y2="663.81" /><line x1="410.30" y1="663.89" x2="440.17" y2="663.89" /><line x1="443.16" y1="664.08" x2="471.64" y2="664.08" /><line x1="474.30" y1="663.88" x2="504.43" y2="663.88" /><line x1="506.94" y1="663.80" x2="537.07" y2="663.80" /><line x1="312.91" y1="664.42" x2="343.06" y2="664.42" /><line x1="346.92" y1="664.48" x2="376.46" y2="664.48" /><line x1="378.27" y1="664.47" x2="407.74" y2="664.47" /><line x1="411.23" y1="664.64" x2="439.54" y2="664.64" /><line x1="442.61" y1="664.35" x2="472.16" y2="664.35" /><line x1="475.54" y1="664.59" x2="503.56" y2="664.59" /><line x1="507.26" y1="664.63" x2="537.48" y2="664.63" /><line x1="311.28" y1="668.06" x2="343.52" y2="668.06" /><line x1="345.55" y1="668.10" x2="374.75" y2="668.10" /><line x1="377.59" y1="668.27" x2="408.05" y2="668.27" /><line x1="411.29" y1="667.91" x2="439.56" y2="667.91" /><line x1="442.96" y1="668.11" x2="473.04" y2="668.11" /><line x1="475.45" y1="668.20" x2="505.31" y2="668.20" /><line x1="508.39" y1="668.30" x2="539.02" y2="668.30" /><line x1="311.42" y1="668.66" x2="342.05" y2="668.66" /><line x1="345.43" y1="668.80" x2="374.60" y2="668.80" /><line x1="377.32" y1="668.51" x2="408.15" y2="668.51" /><line x1="411.05" y1="668.68" x2="439.98" y2="668.68" /><line x1="443.35" y1="668.83" x2="472.51" y2="668.83" /><line x1="475.82" y1="668.67" x2="505.14" y2="668.67" /><line x1="508.24" y1="668.72" x2="539.50" y2="668.72" /><line x1="311.54" y1="669.09" x2="342.73" y2="669.09" /><line x1="346.03" y1="669.13" x2="374.76" y2="669.13" /><line x1="377.78" y1="669.06" x2="407.93" y2="669.06" /><line x1="410.24" y1="669.10" x2="440.50" y2="669.10" /><line x1="442.78" y1="669.31" x2="473.02" y2="669.31" /><line x1="475.79" y1="669.31" x2="504.82" y2="669.31" /><line x1="508.32" y1="669.40" x2="539.64" y2="669.40" /><line x1="309.32" y1="672.78" x2="342.01" y2="672.78" /><line x1="343.62" y1="672.67" x2="374.53" y2="672.67" /><line x1="377.22" y1="672.76" x2="406.73" y2="672.76" /><line x1="410.16" y1="672.91" x2="440.61" y2="672.91" /><line x1="443.14" y1="672.74" x2="474.02" y2="672.74" /><line x1="475.66" y1="672.90" x2="507.00" y2="672.90" /><line x1="508.98" y1="672.82" x2="540.76" y2="672.82" /><line x1="309.35" y1="673.21" x2="341.33" y2="673.21" /><line x1="343.24" y1="673.57" x2="374.95" y2="673.57" /><line x1="376.55" y1="673.56" x2="407.65" y2="673.56" /><line x1="409.62" y1="673.56" x2="440.48" y2="673.56" /><line x1="442.94" y1="673.35" x2="473.26" y2="673.35" /><line x1="475.65" y1="673.27" x2="506.68" y2="673.27" /><line x1="509.76" y1="673.26" x2="541.11" y2="673.26" /><line x1="309.22" y1="673.95" x2="341.52" y2="673.95" /><line x1="343.81" y1="674.00" x2="374.44" y2="674.00" /><line x1="376.92" y1="673.78" x2="407.93" y2="673.78" /><line x1="409.73" y1="674.01" x2="440.94" y2="674.01" /><line x1="443.06" y1="674.03" x2="473.40" y2="674.03" /><line x1="476.52" y1="673.81" x2="506.33" y2="673.81" /><line x1="509.58" y1="673.97" x2="540.91" y2="673.97" /><line x1="305.53" y1="677.41" x2="337.71" y2="677.41" /><line x1="340.51" y1="677.53" x2="371.47" y2="677.53" /><line x1="373.46" y1="677.59" x2="405.40" y2="677.59" /><line x1="407.99" y1="677.55" x2="438.88" y2="677.55" /><line x1="441.47" y1="677.43" x2="472.54" y2="677.43" /><line x1="475.03" y1="677.61" x2="505.57" y2="677.61" /><line x1="509.10" y1="677.72" x2="541.00" y2="677.72" /><line x1="305.12" y1="678.07" x2="337.99" y2="678.07" /><line x1="339.71" y1="678.13" x2="372.01" y2="678.13" /><line x1="373.28" y1="678.05" x2="405.48" y2="678.05" /><line x1="407.41" y1="678.31" x2="439.26" y2="678.31" /><line x1="441.26" y1="678.11" x2="472.60" y2="678.11" /><line x1="475.22" y1="677.99" x2="505.58" y2="677.99" /><line x1="508.58" y1="677.96" x2="540.95" y2="677.96" /><line x1="305.62" y1="678.51" x2="338.39" y2="678.51" /><line x1="340.35" y1="678.56" x2="371.33" y2="678.56" /><line x1="374.14" y1="678.63" x2="405.14" y2="678.63" /><line x1="407.66" y1="678.74" x2="438.65" y2="678.74" /><line x1="441.81" y1="678.56" x2="471.55" y2="678.56" /><line x1="475.07" y1="678.73" x2="505.67" y2="678.73" /><line x1="508.85" y1="678.65" x2="541.01" y2="678.65" /><line x1="303.34" y1="682.40" x2="336.52" y2="682.40" /><line x1="338.63" y1="682.19" x2="370.99" y2="682.19" /><line x1="373.80" y1="682.45" x2="404.12" y2="682.45" /><line x1="407.30" y1="682.26" x2="439.40" y2="682.26" /><line x1="441.32" y1="682.17" x2="473.09" y2="682.17" /><line x1="476.31" y1="682.30" x2="506.93" y2="682.30" /><line x1="509.99" y1="682.43" x2="542.73" y2="682.43" /><line x1="303.24" y1="683.00" x2="336.10" y2="683.00" /><line x1="339.35" y1="682.76" x2="370.21" y2="682.76" /><line x1="372.59" y1="682.94" x2="404.63" y2="682.94" /><line x1="407.38" y1="682.81" x2="438.87" y2="682.81" /><line x1="441.58" y1="682.75" x2="473.03" y2="682.75" /><line x1="475.50" y1="682.92" x2="507.55" y2="682.92" /><line x1="509.17" y1="682.85" x2="542.74" y2="682.85" /><line x1="303.87" y1="683.51" x2="336.82" y2="683.51" /><line x1="338.94" y1="683.40" x2="370.13" y2="683.40" /><line x1="372.95" y1="683.28" x2="405.12" y2="683.28" /><line x1="408.08" y1="683.53" x2="438.66" y2="683.53" /><line x1="441.27" y1="683.43" x2="473.60" y2="683.43" /><line x1="475.42" y1="683.54" x2="507.95" y2="683.54" /><line x1="510.55" y1="683.38" x2="542.39" y2="683.38" /><line x1="301.45" y1="686.93" x2="335.23" y2="686.93" /><line x1="337.22" y1="686.95" x2="369.72" y2="686.95" /><line x1="372.09" y1="687.09" x2="404.17" y2="687.09" /><line x1="407.60" y1="686.88" x2="438.68" y2="686.88" /><line x1="441.93" y1="687.15" x2="473.45" y2="687.15" /><line x1="476.83" y1="686.89" x2="507.94" y2="686.89" /><line x1="511.20" y1="686.96" x2="544.27" y2="686.96" /><line x1="301.29" y1="687.63" x2="334.30" y2="687.63" /><line x1="336.90" y1="687.40" x2="369.79" y2="687.40" /><line x1="372.18" y1="687.62" x2="404.62" y2="687.62" /><line x1="407.11" y1="687.63" x2="438.49" y2="687.63" /><line x1="442.35" y1="687.65" x2="473.75" y2="687.65" /><line x1="476.52" y1="687.66" x2="509.03" y2="687.66" /><line x1="510.57" y1="687.71" x2="544.63" y2="687.71" /><line x1="301.73" y1="688.04" x2="334.47" y2="688.04" /><line x1="337.16" y1="688.05" x2="370.10" y2="688.05" /><line x1="371.93" y1="688.08" x2="404.51" y2="688.08" /><line x1="406.36" y1="688.22" x2="439.36" y2="688.22" /><line x1="441.88" y1="688.18" x2="473.48" y2="688.18" /><line x1="476.97" y1="688.29" x2="508.04" y2="688.29" /><line x1="511.42" y1="688.11" x2="544.98" y2="688.11" /><line x1="299.18" y1="691.66" x2="333.65" y2="691.66" /><line x1="335.96" y1="691.89" x2="368.93" y2="691.89" /><line x1="372.03" y1="691.57" x2="404.10" y2="691.57" /><line x1="406.93" y1="691.80" x2="439.06" y2="691.80" /><line x1="442.18" y1="691.91" x2="474.40" y2="691.91" /><line x1="476.86" y1="691.61" x2="510.63" y2="691.61" /><line x1="512.49" y1="691.77" x2="546.76" y2="691.77" /><line x1="299.60" y1="692.21" x2="333.85" y2="692.21" /><line x1="335.84" y1="692.24" x2="369.05" y2="692.24" /><line x1="372.04" y1="692.12" x2="403.40" y2="692.12" /><line x1="406.80" y1="692.50" x2="438.85" y2="692.50" /><line x1="441.36" y1="692.34" x2="475.17" y2="692.34" /><line x1="476.60" y1="692.28" x2="510.08" y2="692.28" /><line x1="512.07" y1="692.37" x2="546.21" y2="692.37" /><line x1="299.34" y1="692.90" x2="333.35" y2="692.90" /><line x1="336.76" y1="693.02" x2="368.29" y2="693.02" /><line x1="370.93" y1="692.89" x2="404.59" y2="692.89" /><line x1="406.56" y1="692.83" x2="440.11" y2="692.83" /><line x1="442.30" y1="693.05" x2="473.69" y2="693.05" /><line x1="477.62" y1="692.79" x2="509.49" y2="692.79" /><line x1="511.62" y1="692.75" x2="546.37" y2="692.75" /><line x1="297.24" y1="696.45" x2="332.81" y2="696.45" /><line x1="335.14" y1="696.61" x2="367.44" y2="696.61" /><line x1="370.96" y1="696.38" x2="403.37" y2="696.38" /><line x1="406.41" y1="696.56" x2="439.29" y2="696.56" /><line x1="441.49" y1="696.63" x2="475.49" y2="696.63" /><line x1="478.47" y1="696.60" x2="511.06" y2="696.60" /><line x1="513.89" y1="696.38" x2="548.50" y2="696.38" /><line x1="298.00" y1="697.02" x2="332.29" y2="697.02" /><line x1="334.13" y1="697.00" x2="367.94" y2="697.00" /><line x1="369.65" y1="696.98" x2="404.61" y2="696.98" /><line x1="406.35" y1="696.85" x2="439.61" y2="696.85" /><line x1="441.86" y1="696.95" x2="475.60" y2="696.95" /><line x1="478.51" y1="696.99" x2="510.41" y2="696.99" /><line x1="514.48" y1="697.22" x2="548.42" y2="697.22" /><line x1="297.79" y1="697.73" x2="332.24" y2="697.73" /><line x1="335.01" y1="697.54" x2="367.56" y2="697.54" /><line x1="370.82" y1="697.39" x2="403.28" y2="697.39" /><line x1="405.85" y1="697.60" x2="439.51" y2="697.60" /><line x1="441.59" y1="697.46" x2="475.60" y2="697.46" /><line x1="477.24" y1="697.41" x2="511.28" y2="697.41" /><line x1="513.97" y1="697.70" x2="548.37" y2="697.70" /><line x1="295.61" y1="701.38" x2="330.68" y2="701.38" /><line x1="333.66" y1="701.33" x2="367.30" y2="701.33" /><line x1="369.25" y1="701.41" x2="403.32" y2="701.41" /><line x1="406.12" y1="701.02" x2="439.80" y2="701.02" /><line x1="442.67" y1="701.35" x2="476.20" y2="701.35" /><line x1="479.53" y1="701.16" x2="512.19" y2="701.16" /><line x1="514.64" y1="701.33" x2="550.03" y2="701.33" /><line x1="295.65" y1="701.86" x2="330.93" y2="701.86" /><line x1="332.87" y1="701.69" x2="367.29" y2="701.69" /><line x1="370.19" y1="701.92" x2="403.25" y2="701.92" /><line x1="405.87" y1="701.61" x2="440.43" y2="701.61" /><line x1="441.97" y1="701.74" x2="476.02" y2="701.74" /><line x1="479.01" y1="701.60" x2="512.15" y2="701.60" /><line x1="515.19" y1="701.96" x2="550.18" y2="701.96" /><line x1="295.53" y1="702.50" x2="330.94" y2="702.50" /><line x1="333.61" y1="702.25" x2="366.29" y2="702.25" /><line x1="369.78" y1="702.46" x2="403.32" y2="702.46" /><line x1="405.94" y1="702.51" x2="439.88" y2="702.51" /><line x1="442.58" y1="702.28" x2="476.19" y2="702.28" /><line x1="478.98" y1="702.35" x2="512.19" y2="702.35" /><line x1="515.05" y1="702.20" x2="549.94" y2="702.20" /><line x1="293.44" y1="705.75" x2="328.30" y2="705.75" /><line x1="331.58" y1="705.93" x2="366.09" y2="705.93" /><line x1="369.02" y1="706.05" x2="403.10" y2="706.05" /><line x1="405.73" y1="705.86" x2="440.29" y2="705.86" /><line x1="442.91" y1="706.02" x2="476.81" y2="706.02" /><line x1="480.12" y1="705.89" x2="513.18" y2="705.89" /><line x1="516.37" y1="705.90" x2="551.72" y2="705.90" /><line x1="293.98" y1="706.66" x2="330.02" y2="706.66" /><line x1="331.89" y1="706.42" x2="366.74" y2="706.42" /><line x1="368.18" y1="706.44" x2="403.07" y2="706.44" /><line x1="406.54" y1="706.51" x2="439.75" y2="706.51" /><line x1="443.21" y1="706.38" x2="476.87" y2="706.38" /><line x1="478.98" y1="706.39" x2="513.95" y2="706.39" /><line x1="516.25" y1="706.69" x2="551.62" y2="706.69" /><line x1="293.95" y1="707.21" x2="329.40" y2="707.21" /><line x1="332.35" y1="707.04" x2="366.47" y2="707.04" /><line x1="368.90" y1="707.01" x2="403.69" y2="707.01" /><line x1="405.73" y1="707.21" x2="439.81" y2="707.21" /><line x1="442.28" y1="706.94" x2="477.22" y2="706.94" /><line x1="479.98" y1="706.87" x2="513.21" y2="706.87" /><line x1="515.92" y1="706.86" x2="552.04" y2="706.86" /><line x1="294.05" y1="710.82" x2="325.65" y2="710.82" /><line x1="327.98" y1="710.72" x2="357.50" y2="710.72" /><line x1="360.51" y1="710.80" x2="391.37" y2="710.80" /><line x1="393.25" y1="710.75" x2="423.56" y2="710.75" /><line x1="426.22" y1="710.81" x2="456.57" y2="710.81" /><line x1="458.83" y1="710.63" x2="488.61" y2="710.63" /><line x1="491.11" y1="710.76" x2="521.66" y2="710.76" /><line x1="524.84" y1="710.72" x2="555.56" y2="710.72" /><line x1="293.40" y1="711.28" x2="325.64" y2="711.28" /><line x1="328.18" y1="711.38" x2="357.50" y2="711.38" /><line x1="360.51" y1="711.09" x2="390.89" y2="711.09" /><line x1="393.00" y1="711.25" x2="424.29" y2="711.25" /><line x1="425.82" y1="711.24" x2="456.46" y2="711.24" /><line x1="459.59" y1="711.40" x2="488.47" y2="711.40" /><line x1="490.79" y1="711.40" x2="521.84" y2="711.40" /><line x1="524.77" y1="711.18" x2="556.10" y2="711.18" /><line x1="293.70" y1="711.71" x2="324.79" y2="711.71" /><line x1="327.84" y1="711.69" x2="357.54" y2="711.69" /><line x1="361.14" y1="711.62" x2="390.45" y2="711.62" /><line x1="392.73" y1="711.85" x2="423.43" y2="711.85" /><line x1="425.88" y1="711.84" x2="456.36" y2="711.84" /><line x1="459.40" y1="711.76" x2="488.94" y2="711.76" /><line x1="491.41" y1="711.63" x2="521.75" y2="711.63" /><line x1="524.60" y1="711.67" x2="555.53" y2="711.67" /><line x1="293.96" y1="712.17" x2="324.78" y2="712.17" /><line x1="327.50" y1="712.50" x2="358.21" y2="712.50" /><line x1="360.94" y1="712.52" x2="390.18" y2="712.52" /><line x1="394.20" y1="712.43" x2="422.99" y2="712.43" /><line x1="426.78" y1="712.23" x2="456.17" y2="712.23" /><line x1="458.94" y1="712.52" x2="488.50" y2="712.52" /><line x1="491.12" y1="712.36" x2="522.62" y2="712.36" /><line x1="524.71" y1="712.17" x2="555.98" y2="712.17" /><line x1="426.72" y1="423.45" x2="418.00" y2="426.67" /><line x1="424.33" y1="433.99" x2="417.64" y2="439.35" /><line x1="421.93" y1="444.53" x2="412.67" y2="448.38" /><line x1="419.54" y1="455.07" x2="409.89" y2="458.53" /><line x1="417.15" y1="465.61" x2="406.95" y2="469.14" /><line x1="414.76" y1="476.15" x2="404.73" y2="480.76" /><line x1="412.36" y1="486.70" x2="403.26" y2="490.51" /><line x1="409.97" y1="497.24" x2="399.32" y2="500.63" /><line x1="407.58" y1="507.78" x2="401.15" y2="513.09" /><line x1="405.18" y1="518.32" x2="397.51" y2="524.11" /><line x1="402.79" y1="528.86" x2="392.71" y2="533.89" /><line x1="400.40" y1="539.40" x2="391.67" y2="543.72" /><line x1="398.01" y1="549.94" x2="390.53" y2="553.02" /><line x1="395.61" y1="560.48" x2="386.64" y2="565.44" /><line x1="393.22" y1="571.02" x2="382.60" y2="576.46" /><line x1="390.83" y1="581.57" x2="384.16" y2="586.18" /><line x1="388.43" y1="592.11" x2="380.60" y2="596.66" /><line x1="386.04" y1="602.65" x2="376.66" y2="608.21" /><line x1="383.65" y1="613.19" x2="373.96" y2="616.31" /><line x1="381.25" y1="623.73" x2="370.47" y2="629.03" /><line x1="378.86" y1="634.27" x2="369.96" y2="639.25" /><line x1="376.47" y1="644.81" x2="370.47" y2="647.85" /><line x1="374.08" y1="655.35" x2="367.91" y2="659.42" /><line x1="371.68" y1="665.90" x2="363.19" y2="671.88" /><line x1="254.00" y1="720.88" x2="271.95" y2="720.88" /><line x1="277.77" y1="720.88" x2="287.70" y2="720.88" /><line x1="294.08" y1="720.88" x2="302.86" y2="720.88" /><line x1="309.06" y1="720.88" x2="317.30" y2="720.88" /><line x1="325.05" y1="720.88" x2="342.08" y2="720.88" /><line x1="350.94" y1="720.88" x2="365.50" y2="720.88" /><line x1="368.87" y1="720.88" x2="388.60" y2="720.88" /><line x1="391.71" y1="720.88" x2="410.18" y2="720.88" /><line x1="418.59" y1="720.88" x2="427.12" y2="720.88" /><line x1="430.89" y1="720.88" x2="447.21" y2="720.88" /><line x1="453.60" y1="720.88" x2="467.17" y2="720.88" /><line x1="474.62" y1="720.88" x2="489.28" y2="720.88" /><line x1="496.19" y1="720.88" x2="506.59" y2="720.88" /><line x1="512.75" y1="720.88" x2="526.48" y2="720.88" /><line x1="533.28" y1="720.88" x2="541.96" y2="720.88" /><line x1="545.08" y1="720.88" x2="556.37" y2="720.88" /><line x1="559.48" y1="720.88" x2="562.00" y2="720.88" /></g><g id="03_Gold_Arrival" inkscape:groupmode="layer" inkscape:label="03_Gold_Arrival" stroke="#B8960C" fill="none" stroke-width="1" stroke-linecap="round" stroke-linejoin="round"><line x1="538.21" y1="320.00" x2="531.82" y2="331.12" /><line x1="526.59" y1="340.21" x2="520.19" y2="351.33" /><line x1="514.96" y1="360.43" x2="508.57" y2="371.55" /><line x1="503.34" y1="380.64" x2="496.94" y2="391.76" /><line x1="491.71" y1="400.86" x2="485.32" y2="411.98" /><line x1="536.33" y1="320.00" x2="482.10" y2="412.47" /><line x1="534.44" y1="320.00" x2="482.58" y2="406.70" /><line x1="532.52" y1="320.00" x2="528.36" y2="326.83" /><line x1="524.95" y1="332.42" x2="520.78" y2="339.25" /><line x1="517.38" y1="344.84" x2="513.21" y2="351.67" /><line x1="509.80" y1="357.26" x2="505.64" y2="364.09" /><line x1="502.23" y1="369.68" x2="498.06" y2="376.51" /><line x1="494.66" y1="382.10" x2="490.49" y2="388.93" /><line x1="487.08" y1="394.52" x2="482.92" y2="401.36" /><line x1="479.51" y1="406.94" x2="475.34" y2="413.78" /><line x1="530.59" y1="320.00" x2="477.83" y2="404.89" /><line x1="528.63" y1="320.00" x2="466.38" y2="418.27" /><line x1="526.65" y1="320.00" x2="519.59" y2="330.94" /><line x1="513.82" y1="339.89" x2="506.76" y2="350.82" /><line x1="500.98" y1="359.77" x2="493.92" y2="370.71" /><line x1="488.14" y1="379.66" x2="481.09" y2="390.59" /><line x1="475.31" y1="399.54" x2="468.25" y2="410.48" /><line x1="524.65" y1="320.00" x2="466.67" y2="408.17" /><line x1="522.63" y1="320.00" x2="468.05" y2="401.47" /><line x1="520.58" y1="320.00" x2="516.71" y2="325.68" /><line x1="513.54" y1="330.33" x2="509.66" y2="336.01" /><line x1="506.49" y1="340.65" x2="502.62" y2="346.33" /><line x1="499.44" y1="350.98" x2="495.57" y2="356.66" /><line x1="492.40" y1="361.30" x2="488.52" y2="366.98" /><line x1="485.35" y1="371.63" x2="481.47" y2="377.31" /><line x1="478.30" y1="381.96" x2="474.43" y2="387.64" /><line x1="471.26" y1="392.28" x2="467.38" y2="397.96" /><line x1="518.52" y1="320.00" x2="465.09" y2="396.87" /><line x1="516.42" y1="320.00" x2="458.49" y2="401.85" /><line x1="514.30" y1="320.00" x2="508.53" y2="328.01" /><line x1="503.81" y1="334.55" x2="498.04" y2="342.56" /><line x1="493.32" y1="349.11" x2="487.55" y2="357.11" /><line x1="482.83" y1="363.66" x2="477.06" y2="371.67" /><line x1="472.34" y1="378.22" x2="466.57" y2="386.22" /><line x1="461.85" y1="392.77" x2="456.08" y2="400.78" /><line x1="512.16" y1="320.00" x2="455.93" y2="396.63" /><line x1="509.98" y1="320.00" x2="452.63" y2="396.78" /><line x1="507.78" y1="320.00" x2="502.81" y2="326.54" /><line x1="498.74" y1="331.89" x2="493.76" y2="338.44" /><line x1="489.69" y1="343.79" x2="484.72" y2="350.33" /><line x1="480.65" y1="355.68" x2="475.67" y2="362.23" /><line x1="471.60" y1="367.58" x2="466.63" y2="374.12" /><line x1="462.56" y1="379.47" x2="457.58" y2="386.01" /><line x1="453.51" y1="391.37" x2="448.54" y2="397.91" /><line x1="505.55" y1="320.00" x2="440.86" y2="403.58" /><line x1="503.29" y1="320.00" x2="452.03" y2="385.07" /><line x1="501.00" y1="320.00" x2="497.55" y2="324.31" /><line x1="494.72" y1="327.83" x2="491.27" y2="332.14" /><line x1="488.44" y1="335.66" x2="484.99" y2="339.97" /><line x1="482.17" y1="343.50" x2="478.71" y2="347.80" /><line x1="475.89" y1="351.33" x2="472.43" y2="355.63" /><line x1="469.61" y1="359.16" x2="466.15" y2="363.47" /><line x1="463.33" y1="366.99" x2="459.88" y2="371.30" /><line x1="457.05" y1="374.82" x2="453.60" y2="379.13" /><line x1="498.68" y1="320.00" x2="441.41" y2="390.20" /><line x1="496.33" y1="320.00" x2="446.46" y2="380.06" /><line x1="493.94" y1="320.00" x2="489.36" y2="325.41" /><line x1="485.62" y1="329.84" x2="481.05" y2="335.26" /><line x1="477.31" y1="339.69" x2="472.73" y2="345.10" /><line x1="468.99" y1="349.53" x2="464.42" y2="354.95" /><line x1="460.68" y1="359.38" x2="456.10" y2="364.79" /><line x1="452.36" y1="369.22" x2="447.79" y2="374.63" /><line x1="444.04" y1="379.06" x2="439.47" y2="384.48" /><line x1="491.51" y1="320.00" x2="431.84" y2="389.43" /><line x1="489.06" y1="320.00" x2="433.44" y2="383.61" /><line x1="486.56" y1="320.00" x2="482.17" y2="324.94" /><line x1="478.58" y1="328.97" x2="474.19" y2="333.91" /><line x1="470.59" y1="337.95" x2="466.20" y2="342.88" /><line x1="462.61" y1="346.92" x2="458.22" y2="351.86" /><line x1="454.62" y1="355.90" x2="450.23" y2="360.83" /><line x1="446.64" y1="364.87" x2="442.25" y2="369.81" /><line x1="484.03" y1="320.00" x2="436.45" y2="372.57" /><line x1="481.45" y1="320.00" x2="436.14" y2="369.21" /><line x1="478.84" y1="320.00" x2="474.19" y2="324.96" /><line x1="470.39" y1="329.02" x2="465.74" y2="333.98" /><line x1="461.94" y1="338.04" x2="457.29" y2="343.00" /><line x1="453.49" y1="347.06" x2="448.84" y2="352.02" /><line x1="445.04" y1="356.08" x2="440.39" y2="361.04" /><line x1="436.59" y1="365.10" x2="431.94" y2="370.06" /><line x1="428.14" y1="374.12" x2="423.49" y2="379.09" /><line x1="476.18" y1="320.00" x2="420.61" y2="378.32" /><line x1="473.48" y1="320.00" x2="419.86" y2="375.32" /><line x1="470.74" y1="320.00" x2="466.96" y2="323.83" /><line x1="463.87" y1="326.96" x2="460.10" y2="330.79" /><line x1="457.01" y1="333.92" x2="453.23" y2="337.75" /><line x1="450.15" y1="340.88" x2="446.37" y2="344.71" /><line x1="443.28" y1="347.84" x2="439.51" y2="351.67" /><line x1="436.42" y1="354.80" x2="432.65" y2="358.63" /><line x1="429.56" y1="361.76" x2="425.78" y2="365.59" /><line x1="467.94" y1="320.00" x2="423.97" y2="363.84" /><line x1="465.10" y1="320.00" x2="417.51" y2="366.65" /><line x1="462.21" y1="320.00" x2="456.29" y2="325.71" /><line x1="451.44" y1="330.38" x2="445.52" y2="336.08" /><line x1="440.67" y1="340.75" x2="434.75" y2="346.46" /><line x1="429.90" y1="351.13" x2="423.98" y2="356.84" /><line x1="419.13" y1="361.51" x2="413.21" y2="367.21" /><line x1="459.27" y1="320.00" x2="404.59" y2="371.79" /><line x1="456.28" y1="320.00" x2="405.03" y2="367.71" /><line x1="453.23" y1="320.00" x2="448.80" y2="324.05" /><line x1="445.19" y1="327.36" x2="440.76" y2="331.40" /><line x1="437.15" y1="334.72" x2="432.72" y2="338.76" /><line x1="429.11" y1="342.07" x2="424.69" y2="346.12" /><line x1="421.07" y1="349.43" x2="416.65" y2="353.48" /><line x1="450.12" y1="320.00" x2="412.76" y2="353.60" /><line x1="446.95" y1="320.00" x2="413.38" y2="349.68" /><line x1="443.72" y1="320.00" x2="439.40" y2="323.75" /><line x1="435.87" y1="326.82" x2="431.56" y2="330.57" /><line x1="428.03" y1="333.64" x2="423.71" y2="337.39" /><line x1="420.18" y1="340.45" x2="415.87" y2="344.20" /><line x1="412.34" y1="347.27" x2="408.03" y2="351.02" /><line x1="440.42" y1="320.00" x2="395.57" y2="358.32" /><line x1="437.06" y1="320.00" x2="402.10" y2="349.36" /><line x1="433.63" y1="320.00" x2="431.10" y2="322.09" /><line x1="429.02" y1="323.80" x2="426.49" y2="325.89" /><line x1="424.42" y1="327.60" x2="421.88" y2="329.70" /><line x1="419.81" y1="331.41" x2="417.27" y2="333.50" /><line x1="415.20" y1="335.21" x2="412.67" y2="337.30" /><line x1="410.59" y1="339.01" x2="408.06" y2="341.10" /><line x1="405.98" y1="342.81" x2="403.45" y2="344.90" /><line x1="401.38" y1="346.62" x2="398.84" y2="348.71" /><line x1="430.13" y1="320.00" x2="399.51" y2="344.83" /><line x1="426.55" y1="320.00" x2="397.41" y2="343.22" /><line x1="422.90" y1="320.00" x2="419.44" y2="322.71" /><line x1="416.62" y1="324.92" x2="413.16" y2="327.63" /><line x1="410.33" y1="329.84" x2="406.87" y2="332.55" /><line x1="404.05" y1="334.76" x2="400.59" y2="337.47" /><line x1="397.76" y1="339.68" x2="394.30" y2="342.39" /><line x1="391.48" y1="344.60" x2="388.02" y2="347.31" /><line x1="419.17" y1="320.00" x2="384.34" y2="346.79" /><line x1="415.35" y1="320.00" x2="393.65" y2="336.39" /><line x1="411.44" y1="320.00" x2="409.83" y2="321.19" /><line x1="408.52" y1="322.17" x2="406.92" y2="323.36" /><line x1="405.60" y1="324.33" x2="404.00" y2="325.53" /><line x1="402.68" y1="326.50" x2="401.08" y2="327.69" /><line x1="399.76" y1="328.67" x2="398.16" y2="329.86" /><line x1="396.84" y1="330.84" x2="395.24" y2="332.03" /><line x1="393.92" y1="333.00" x2="392.32" y2="334.20" /><line x1="407.44" y1="320.00" x2="380.64" y2="339.54" /></g><g id="04_Rust_Wound" inkscape:groupmode="layer" inkscape:label="04_Rust_Wound" stroke="#A84A2A" fill="none" stroke-width="1.38" stroke-linecap="round" stroke-linejoin="round"><line x1="429.13" y1="390.11" x2="436.82" y2="385.54" /><line x1="427.47" y1="394.61" x2="430.25" y2="391.37" /><line x1="429.59" y1="390.24" x2="433.76" y2="386.73" /><line x1="428.36" y1="388.48" x2="431.78" y2="386.34" /><line x1="427.59" y1="395.33" x2="431.55" y2="389.83" /><line x1="428.44" y1="389.39" x2="431.76" y2="386.34" /><line x1="426.59" y1="393.91" x2="431.55" y2="390.21" /><line x1="428.86" y1="373.47" x2="427.41" y2="372.86" /><line x1="428.48" y1="382.81" x2="430.43" y2="382.42" /><line x1="424.68" y1="377.95" x2="423.21" y2="376.58" /><line x1="422.29" y1="377.68" x2="422.10" y2="376.27" /><line x1="424.93" y1="379.98" x2="423.80" y2="379.10" /><line x1="426.73" y1="381.19" x2="425.92" y2="379.15" /><line x1="422.44" y1="377.58" x2="423.31" y2="376.85" /><line x1="422.23" y1="383.20" x2="421.66" y2="381.84" /><line x1="429.30" y1="380.69" x2="429.68" y2="378.51" /><line x1="426.99" y1="376.74" x2="426.03" y2="375.41" /><line x1="427.30" y1="379.42" x2="427.12" y2="378.40" /><line x1="422.18" y1="386.12" x2="421.52" y2="383.95" /><line x1="425.44" y1="385.82" x2="424.34" y2="384.23" /><line x1="427.54" y1="385.55" x2="429.07" y2="384.59" /><line x1="426.01" y1="377.96" x2="424.51" y2="377.24" /><line x1="430.83" y1="383.05" x2="429.86" y2="381.43" /><line x1="424.99" y1="379.04" x2="426.21" y2="377.63" /><line x1="423.13" y1="376.51" x2="422.26" y2="374.47" /><line x1="430.60" y1="382.83" x2="430.98" y2="381.69" /><line x1="422.69" y1="382.25" x2="424.11" y2="381.45" /><line x1="430.22" y1="379.44" x2="432.17" y2="378.67" /><line x1="425.83" y1="378.64" x2="425.85" y2="376.43" /><line x1="429.52" y1="374.49" x2="430.95" y2="374.45" /><line x1="424.41" y1="383.69" x2="423.59" y2="382.31" /><line x1="423.74" y1="378.27" x2="422.81" y2="376.31" /><line x1="428.84" y1="379.14" x2="430.29" y2="377.61" /><line x1="422.95" y1="384.33" x2="424.33" y2="383.96" /><line x1="425.41" y1="378.54" x2="427.61" y2="377.50" /><line x1="426.04" y1="381.66" x2="427.13" y2="380.92" /><line x1="426.18" y1="383.16" x2="424.25" y2="382.80" /><line x1="427.81" y1="379.98" x2="428.44" y2="378.76" /><line x1="430.14" y1="374.12" x2="430.62" y2="371.74" /><line x1="424.37" y1="375.61" x2="422.46" y2="374.51" /><line x1="424.13" y1="373.79" x2="422.99" y2="373.72" /><line x1="426.76" y1="383.81" x2="428.36" y2="383.60" /><line x1="425.82" y1="374.37" x2="427.81" y2="374.12" /><line x1="431.46" y1="372.42" x2="430.40" y2="371.65" /><line x1="422.83" y1="378.80" x2="423.85" y2="378.57" /><line x1="428.12" y1="383.04" x2="426.95" y2="382.12" /><line x1="423.01" y1="379.00" x2="424.49" y2="378.01" /></g></svg>