<?xml version='1.0' encoding='utf-8'?>
<svg xmlns="http://www.w3.org/2000/svg" xmlns:inkscape="http://www.inkscape.org/namespaces/inkscape" viewBox="204 228 408 600"><style>*{vector-effect:non-scaling-stroke}</style><g id="01_Black_Frame" inkscape:groupmode="layer" inkscape:label="01_Black_Frame" stroke="#1A1A1A" fill="none" stroke-width="0.875" stroke-linecap="round" stroke-linejoin="round"><path d="M 250.0,264.0 L 566.0,264.0 Q 576.0,264.0 576.0,274.0 L 576.0,782.0 Q 576.0,792.0 566.0,792.0 L 250.0,792.0 Q 240.0,792.0 240.0,782.0 L 240.0,274.0 Q 240.0,264.0 250.0,264.0" /><path d="M 253.0,270.0 L 563.0,270.0 Q 570.0,270.0 570.0,277.0 L 570.0,779.0 Q 570.0,786.0 563.0,786.0 L 253.0,786.0 Q 246.0,786.0 246.0,779.0 L 246.0,277.0 Q 246.0,270.0 253.0,270.0" /><line x1="259.0" y1="280.0" x2="263.0" y2="280.0" /><line x1="258.1" y1="282.1" x2="260.9" y2="284.9" /><line x1="256.0" y1="283.0" x2="256.0" y2="287.0" /><line x1="253.9" y1="282.1" x2="251.1" y2="284.9" /><line x1="253.0" y1="280.0" x2="249.0" y2="280.0" /><line x1="253.9" y1="277.9" x2="251.1" y2="275.1" /><line x1="256.0" y1="277.0" x2="256.0" y2="273.0" /><line x1="258.1" y1="277.9" x2="260.9" y2="275.1" /><line x1="563.0" y1="280.0" x2="567.0" y2="280.0" /><line x1="562.1" y1="282.1" x2="564.9" y2="284.9" /><line x1="560.0" y1="283.0" x2="560.0" y2="287.0" /><line x1="557.9" y1="282.1" x2="555.1" y2="284.9" /><line x1="557.0" y1="280.0" x2="553.0" y2="280.0" /><line x1="557.9" y1="277.9" x2="555.1" y2="275.1" /><line x1="560.0" y1="277.0" x2="560.0" y2="273.0" /><line x1="562.1" y1="277.9" x2="564.9" y2="275.1" /><line x1="259.0" y1="776.0" x2="263.0" y2="776.0" /><line x1="258.1" y1="778.1" x2="260.9" y2="780.9" /><line x1="256.0" y1="779.0" x2="256.0" y2="783.0" /><line x1="253.9" y1="778.1" x2="251.1" y2="780.9" /><line x1="253.0" y1="776.0" x2="249.0" y2="776.0" /><line x1="253.9" y1="773.9" x2="251.1" y2="771.1" /><line x1="256.0" y1="773.0" x2="256.0" y2="769.0" /><line x1="258.1" y1="773.9" x2="260.9" y2="771.1" /><line x1="563.0" y1="776.0" x2="567.0" y2="776.0" /><line x1="562.1" y1="778.1" x2="564.9" y2="780.9" /><line x1="560.0" y1="779.0" x2="560.0" y2="783.0" /><line x1="557.9" y1="778.1" x2="555.1" y2="780.9" /><line x1="557.0" y1="776.0" x2="553.0" y2="776.0" /><line x1="557.9" y1="773.9" x2="555.1" y2="771.1" /><line x1="560.0" y1="773.0" x2="560.0" y2="769.0" /><line x1="562.1" y1="773.9" x2="564.9" y2="771.1" /><polyline points="395.25,283.20 393.50,282.00 392.50,282.00 390.75,283.60 390.75,288.40 392.50,290.00 393.50,290.00 395.25,288.80" /><polyline points="396.50,282.00 401.50,290.00" /><polyline points="401.50,282.00 396.50,290.00" /><polyline points="402.25,282.00 404.75,290.00 407.25,282.00" /><polyline points="410.50,282.00 410.50,290.00" /><polyline points="416.25,282.00 416.25,290.00" /><polyline points="422.00,282.00 422.00,290.00" /><polyline points="370.62,297.00 377.12,297.00" /><polyline points="373.88,297.00 373.88,307.00" /><polyline points="378.10,297.00 378.10,307.00" /><polyline points="384.60,297.00 384.60,307.00" /><polyline points="378.10,301.80 384.60,301.80" /><polyline points="391.10,297.00 385.57,297.00 385.57,301.80 389.47,301.80" /><polyline points="385.57,301.80 385.57,307.00 391.10,307.00" /><polyline points="400.52,307.00 400.52,297.00 404.75,297.00 406.05,298.20 406.05,299.80 404.75,301.00 400.52,301.00 404.75,301.00 406.05,302.20 406.05,305.80 404.75,307.00 400.52,307.00" /><polyline points="408.00,307.00 411.25,297.00 414.50,307.00" /><polyline points="409.17,303.50 413.33,303.50" /><polyline points="415.48,297.00 415.48,307.00 421.00,307.00" /><polyline points="422.95,297.00 422.95,307.00 428.47,307.00" /><polyline points="433.68,297.00 431.07,298.00 430.43,300.00 430.43,304.00 431.07,306.00 433.68,307.00 436.28,306.00 436.93,304.00 436.93,300.00 436.28,298.00 433.68,297.00" /><polyline points="437.90,297.00 444.40,297.00" /><polyline points="441.15,297.00 441.15,307.00" /><line x1="270.0" y1="312.0" x2="546.0" y2="312.0" /><line x1="270.0" y1="732.0" x2="546.0" y2="732.0" /><polyline points="364.53,745.25 364.53,740.75 366.35,740.75 366.91,741.29 366.91,742.01 366.35,742.55 364.53,742.55 366.35,742.55 366.91,743.09 366.91,744.71 366.35,745.25 364.53,745.25" /><polyline points="367.75,745.25 369.15,740.75 370.55,745.25" /><polyline points="368.25,743.67 370.05,743.67" /><polyline points="370.97,740.75 370.97,745.25 373.35,745.25" /><polyline points="374.19,740.75 374.19,745.25 376.57,745.25" /><polyline points="378.81,740.75 377.69,741.20 377.41,742.10 377.41,743.90 377.69,744.80 378.81,745.25 379.93,744.80 380.21,743.90 380.21,742.10 379.93,741.20 378.81,740.75" /><polyline points="380.63,740.75 383.43,740.75" /><polyline points="382.03,740.75 382.03,745.25" /><polyline points="392.67,741.20 391.97,740.75 391.13,740.75 390.43,741.42 390.29,742.10 390.71,742.64 391.69,743.00 392.67,743.36 393.09,743.90 392.95,744.58 392.25,745.25 391.27,745.25 390.57,744.80" /><polyline points="393.51,740.75 396.31,740.75" /><polyline points="394.91,740.75 394.91,745.25" /><polyline points="396.73,745.25 396.73,740.75 398.55,740.75 399.25,741.42 399.25,742.19 398.55,742.77 396.73,742.77 399.25,745.25" /><polyline points="399.95,745.25 401.35,740.75 402.75,745.25" /><polyline points="400.45,743.67 402.25,743.67" /><polyline points="404.57,740.75 404.57,745.25" /><polyline points="406.39,740.75 409.19,740.75" /><polyline points="407.79,740.75 407.79,745.25" /><polyline points="418.57,741.42 417.59,740.75 417.03,740.75 416.05,741.65 416.05,744.35 417.03,745.25 417.59,745.25 418.57,744.58" /><polyline points="419.27,745.25 419.27,740.75 421.09,740.75 421.79,741.42 421.79,742.19 421.09,742.77 419.27,742.77 421.79,745.25" /><polyline points="423.89,740.75 422.77,741.20 422.49,742.10 422.49,743.90 422.77,744.80 423.89,745.25 425.01,744.80 425.29,743.90 425.29,742.10 425.01,741.20 423.89,740.75" /><polyline points="425.71,740.75 426.41,745.25 427.11,742.33 427.81,745.25 428.51,740.75" /><polyline points="428.93,745.25 428.93,740.75 431.73,745.25 431.73,740.75" /><polyline points="438.59,745.25 438.59,740.75 440.13,740.75 441.11,741.88 441.11,744.12 440.13,745.25 438.59,745.25" /><polyline points="444.19,740.75 441.81,740.75 441.81,742.91 443.49,742.91" /><polyline points="441.81,742.91 441.81,745.25 444.19,745.25" /><polyline points="445.03,745.25 445.03,740.75 446.85,740.75 447.41,741.29 447.41,742.01 446.85,742.55 445.03,742.55 446.85,742.55 447.41,743.09 447.41,744.71 446.85,745.25 445.03,745.25" /><polyline points="448.25,740.75 451.05,740.75" /><polyline points="449.65,740.75 449.65,745.25" /><polyline points="341.88,753.25 346.88,753.25" /><polyline points="344.38,753.25 344.38,760.75" /><polyline points="347.62,753.25 348.88,760.75 350.12,755.88 351.38,760.75 352.62,753.25" /><polyline points="357.62,753.25 353.38,753.25 353.38,756.85 356.38,756.85" /><polyline points="353.38,756.85 353.38,760.75 357.62,760.75" /><polyline points="359.12,760.75 359.12,753.25 364.12,760.75 364.12,753.25" /><polyline points="364.88,753.25 369.88,753.25" /><polyline points="367.38,753.25 367.38,760.75" /><polyline points="370.62,753.25 373.12,757.00 375.62,753.25" /><polyline points="373.12,757.00 373.12,760.75" /><polyline points="382.12,753.25 384.62,757.00 387.12,753.25" /><polyline points="384.62,757.00 384.62,760.75" /><polyline points="392.12,753.25 387.88,753.25 387.88,756.85 390.88,756.85" /><polyline points="387.88,756.85 387.88,760.75 392.12,760.75" /><polyline points="393.62,760.75 396.12,753.25 398.62,760.75" /><polyline points="394.52,758.12 397.73,758.12" /><polyline points="399.38,760.75 399.38,753.25 402.62,753.25 403.88,754.38 403.88,755.65 402.62,756.62 399.38,756.62 403.88,760.75" /><polyline points="409.38,754.00 408.12,753.25 406.62,753.25 405.38,754.38 405.12,755.50 405.88,756.40 407.62,757.00 409.38,757.60 410.12,758.50 409.88,759.62 408.62,760.75 406.88,760.75 405.62,760.00" /><polyline points="419.12,753.25 417.12,754.00 416.62,755.50 416.62,758.50 417.12,760.00 419.12,760.75 421.12,760.00 421.62,758.50 421.62,755.50 421.12,754.00 419.12,753.25" /><polyline points="426.62,753.25 422.38,753.25 422.38,756.85 425.38,756.85" /><polyline points="422.38,756.85 422.38,760.75" /><polyline points="438.12,754.00 436.88,753.25 435.38,753.25 434.12,754.38 433.88,755.50 434.62,756.40 436.38,757.00 438.12,757.60 438.88,758.50 438.62,759.62 437.38,760.75 435.62,760.75 434.38,760.00" /><polyline points="442.12,753.25 442.12,760.75" /><polyline points="445.38,753.25 445.38,760.75 449.62,760.75" /><polyline points="455.38,753.25 451.12,753.25 451.12,756.85 454.12,756.85" /><polyline points="451.12,756.85 451.12,760.75 455.38,760.75" /><polyline points="456.88,760.75 456.88,753.25 461.88,760.75 461.88,753.25" /><polyline points="467.12,754.38 465.38,753.25 464.38,753.25 462.62,754.75 462.62,759.25 464.38,760.75 465.38,760.75 467.12,759.62" /><polyline points="472.62,753.25 468.38,753.25 468.38,756.85 471.38,756.85" /><polyline points="468.38,756.85 468.38,760.75 472.62,760.75" /><polyline points="364.88,773.75 367.38,766.25 369.88,773.75" /><polyline points="365.77,771.12 368.98,771.12" /><polyline points="370.62,773.75 370.62,766.25 375.62,773.75 375.62,766.25" /><polyline points="376.38,773.75 376.38,766.25 379.12,766.25 380.88,768.12 380.88,771.88 379.12,773.75 376.38,773.75" /><polyline points="387.88,766.25 392.88,766.25" /><polyline points="390.38,766.25 390.38,773.75" /><polyline points="393.62,766.25 393.62,773.75" /><polyline points="398.62,766.25 398.62,773.75" /><polyline points="393.62,769.85 398.62,769.85" /><polyline points="403.62,766.25 399.38,766.25 399.38,769.85 402.38,769.85" /><polyline points="399.38,769.85 399.38,773.75 403.62,773.75" /><polyline points="405.12,773.75 405.12,766.25 410.12,773.75 410.12,766.25" /><polyline points="416.62,773.75 419.12,766.25 421.62,773.75" /><polyline points="417.52,771.12 420.73,771.12" /><polyline points="428.12,766.25 428.12,773.75 432.38,773.75" /><polyline points="436.38,766.25 436.38,773.75" /><polyline points="439.62,773.75 439.62,766.25 444.62,773.75 444.62,766.25" /><polyline points="449.62,766.25 445.38,766.25 445.38,769.85 448.38,769.85" /><polyline points="445.38,769.85 445.38,773.75 449.62,773.75" /><polyline points="380.16,779.50 380.16,784.50" /><polyline points="382.24,779.50 383.84,784.50 385.44,779.50" /><polyline points="387.52,784.00 387.52,784.25" /><polyline points="389.60,779.50 392.80,784.50" /><polyline points="392.80,779.50 389.60,784.50" /><polyline points="393.28,779.50 396.48,784.50" /><polyline points="396.48,779.50 393.28,784.50" /><polyline points="396.96,779.50 398.56,784.50 400.16,779.50" /><polyline points="402.24,779.50 402.24,784.50" /><polyline points="405.92,779.50 405.92,784.50" /><polyline points="409.60,779.50 409.60,784.50" /><polyline points="413.28,784.00 413.28,784.25" /><polyline points="415.36,784.50 415.36,779.50 416.96,782.25 418.56,779.50 418.56,784.50" /><polyline points="419.04,784.50 419.04,779.50 420.64,782.25 422.24,779.50 422.24,784.50" /><polyline points="422.72,779.50 425.92,784.50" /><polyline points="425.92,779.50 422.72,784.50" /><polyline points="426.40,779.50 429.60,784.50" /><polyline points="429.60,779.50 426.40,784.50" /><polyline points="430.08,779.50 431.68,784.50 433.28,779.50" /><polyline points="435.36,779.50 435.36,784.50" /></g><g id="02_Teal_Tallies" inkscape:groupmode="layer" inkscape:label="02_Teal_Tallies" stroke="#3A7A7A" fill="none" stroke-width="0.75" stroke-linecap="round" stroke-linejoin="round"><line x1="277.3" y1="333.4" x2="277.7" y2="344.4" /><line x1="282.4" y1="333.1" x2="281.6" y2="344.1" /><line x1="286.5" y1="334.0" x2="286.5" y2="345.0" /><line x1="290.8" y1="333.9" x2="291.2" y2="344.9" /><line x1="276.0" y1="345.0" x2="292.5" y2="333.0" /><line x1="304.7" y1="333.3" x2="304.3" y2="344.3" /><line x1="308.9" y1="333.3" x2="309.1" y2="344.3" /><line x1="313.8" y1="333.0" x2="313.2" y2="344.0" /><line x1="318.0" y1="333.6" x2="318.0" y2="344.6" /><line x1="302.9" y1="345.0" x2="319.6" y2="333.0" /><line x1="331.7" y1="333.9" x2="331.3" y2="344.9" /><line x1="335.6" y1="333.1" x2="336.4" y2="344.1" /><line x1="340.3" y1="333.6" x2="340.7" y2="344.6" /><line x1="344.8" y1="334.0" x2="345.2" y2="345.0" /><line x1="329.8" y1="345.0" x2="346.7" y2="333.0" /><line x1="358.1" y1="333.5" x2="358.9" y2="344.5" /><line x1="363.1" y1="333.9" x2="362.9" y2="344.9" /><line x1="367.6" y1="333.5" x2="367.4" y2="344.5" /><line x1="372.0" y1="333.3" x2="372.0" y2="344.3" /><line x1="357.0" y1="345.0" x2="373.5" y2="333.0" /><line x1="385.6" y1="333.5" x2="385.4" y2="344.5" /><line x1="389.8" y1="333.5" x2="390.2" y2="344.5" /><line x1="394.9" y1="333.3" x2="394.1" y2="344.3" /><line x1="398.6" y1="333.2" x2="399.4" y2="344.2" /><line x1="383.8" y1="345.0" x2="400.7" y2="333.0" /><line x1="412.3" y1="333.7" x2="412.7" y2="344.7" /><line x1="417.2" y1="333.9" x2="416.8" y2="344.9" /><line x1="421.2" y1="333.2" x2="421.8" y2="344.2" /><line x1="426.4" y1="333.0" x2="425.6" y2="344.0" /><line x1="411.0" y1="345.0" x2="427.5" y2="333.0" /><line x1="439.1" y1="333.7" x2="439.9" y2="344.7" /><line x1="444.4" y1="333.5" x2="443.6" y2="344.5" /><line x1="448.4" y1="333.7" x2="448.6" y2="344.7" /><line x1="453.1" y1="333.6" x2="452.9" y2="344.6" /><line x1="438.1" y1="345.0" x2="454.4" y2="333.0" /><line x1="466.2" y1="334.0" x2="466.8" y2="345.0" /><line x1="471.1" y1="333.2" x2="470.9" y2="344.2" /><line x1="475.8" y1="333.2" x2="475.2" y2="344.2" /><line x1="479.9" y1="333.5" x2="480.1" y2="344.5" /><line x1="464.9" y1="345.0" x2="481.6" y2="333.0" /><line x1="493.5" y1="333.5" x2="493.5" y2="344.5" /><line x1="497.8" y1="333.7" x2="498.2" y2="344.7" /><line x1="502.2" y1="333.2" x2="502.8" y2="344.2" /><line x1="507.3" y1="333.8" x2="506.7" y2="344.8" /><line x1="491.9" y1="345.0" x2="508.6" y2="333.0" /><line x1="520.8" y1="333.7" x2="520.2" y2="344.7" /><line x1="525.3" y1="333.3" x2="524.7" y2="344.3" /><line x1="529.2" y1="333.2" x2="529.8" y2="344.2" /><line x1="534.3" y1="333.9" x2="533.7" y2="344.9" /><line x1="518.8" y1="345.0" x2="535.7" y2="333.0" /><line x1="277.6" y1="350.0" x2="277.4" y2="361.0" /><line x1="282.2" y1="349.1" x2="281.8" y2="360.1" /><line x1="286.6" y1="350.0" x2="286.4" y2="361.0" /><line x1="291.3" y1="349.6" x2="290.7" y2="360.6" /><line x1="276.2" y1="361.0" x2="292.3" y2="349.0" /><line x1="304.3" y1="349.9" x2="304.7" y2="360.9" /><line x1="308.8" y1="349.9" x2="309.2" y2="360.9" /><line x1="313.4" y1="349.3" x2="313.6" y2="360.3" /><line x1="318.1" y1="349.6" x2="317.9" y2="360.6" /><line x1="303.1" y1="361.0" x2="319.4" y2="349.0" /><line x1="331.6" y1="349.5" x2="331.4" y2="360.5" /><line x1="336.3" y1="349.7" x2="335.7" y2="360.7" /><line x1="340.4" y1="349.7" x2="340.6" y2="360.7" /><line x1="345.4" y1="349.1" x2="344.6" y2="360.1" /><line x1="329.9" y1="361.0" x2="346.6" y2="349.0" /><line x1="358.2" y1="349.9" x2="358.8" y2="360.9" /><line x1="363.2" y1="349.7" x2="362.8" y2="360.7" /><line x1="367.6" y1="349.1" x2="367.4" y2="360.1" /><line x1="372.4" y1="349.9" x2="371.6" y2="360.9" /><line x1="357.2" y1="361.0" x2="373.3" y2="349.0" /><line x1="385.3" y1="349.3" x2="385.7" y2="360.3" /><line x1="390.0" y1="350.0" x2="390.0" y2="361.0" /><line x1="394.2" y1="349.5" x2="394.8" y2="360.5" /><line x1="399.2" y1="349.8" x2="398.8" y2="360.8" /><line x1="384.0" y1="361.0" x2="400.5" y2="349.0" /><line x1="412.5" y1="349.7" x2="412.5" y2="360.7" /><line x1="416.8" y1="349.2" x2="417.2" y2="360.2" /><line x1="421.3" y1="349.7" x2="421.7" y2="360.7" /><line x1="425.8" y1="349.2" x2="426.2" y2="360.2" /><line x1="410.8" y1="361.0" x2="427.7" y2="349.0" /><line x1="439.8" y1="349.2" x2="439.2" y2="360.2" /><line x1="444.1" y1="349.8" x2="443.9" y2="360.8" /><line x1="448.6" y1="349.6" x2="448.4" y2="360.6" /><line x1="453.3" y1="349.2" x2="452.7" y2="360.2" /><line x1="438.3" y1="361.0" x2="454.2" y2="349.0" /><line x1="466.2" y1="349.7" x2="466.8" y2="360.7" /><line x1="471.2" y1="349.8" x2="470.8" y2="360.8" /><line x1="475.5" y1="349.9" x2="475.5" y2="360.9" /><line x1="479.7" y1="349.2" x2="480.3" y2="360.2" /><line x1="464.8" y1="361.0" x2="481.7" y2="349.0" /><line x1="493.4" y1="350.0" x2="493.6" y2="361.0" /><line x1="498.2" y1="349.3" x2="497.8" y2="360.3" /><line x1="502.8" y1="349.1" x2="502.2" y2="360.1" /><line x1="507.3" y1="349.5" x2="506.7" y2="360.5" /><line x1="491.9" y1="361.0" x2="508.6" y2="349.0" /><line x1="520.6" y1="350.0" x2="520.4" y2="361.0" /><line x1="524.7" y1="349.3" x2="525.3" y2="360.3" /><line x1="529.8" y1="349.9" x2="529.2" y2="360.9" /><line x1="534.2" y1="350.0" x2="533.8" y2="361.0" /><line x1="518.8" y1="361.0" x2="535.7" y2="349.0" /><line x1="277.2" y1="365.3" x2="277.8" y2="376.3" /><line x1="281.7" y1="365.8" x2="282.3" y2="376.8" /><line x1="286.9" y1="365.1" x2="286.1" y2="376.1" /><line x1="290.6" y1="365.2" x2="291.4" y2="376.2" /><line x1="276.3" y1="377.0" x2="292.2" y2="365.0" /><line x1="304.6" y1="365.9" x2="304.4" y2="376.9" /><line x1="308.8" y1="365.1" x2="309.2" y2="376.1" /><line x1="313.1" y1="366.0" x2="313.9" y2="377.0" /><line x1="318.0" y1="365.1" x2="318.0" y2="376.1" /><line x1="302.8" y1="377.0" x2="319.7" y2="365.0" /><line x1="331.3" y1="365.0" x2="331.7" y2="376.0" /><line x1="335.8" y1="365.8" x2="336.2" y2="376.8" /><line x1="340.1" y1="365.2" x2="340.9" y2="376.2" /><line x1="344.6" y1="365.9" x2="345.4" y2="376.9" /><line x1="330.2" y1="377.0" x2="346.3" y2="365.0" /><line x1="358.3" y1="365.8" x2="358.7" y2="376.8" /><line x1="363.3" y1="365.6" x2="362.7" y2="376.6" /><line x1="367.6" y1="365.5" x2="367.4" y2="376.5" /><line x1="371.8" y1="365.1" x2="372.2" y2="376.1" /><line x1="357.0" y1="377.0" x2="373.5" y2="365.0" /><line x1="385.4" y1="365.4" x2="385.6" y2="376.4" /><line x1="389.7" y1="365.3" x2="390.3" y2="376.3" /><line x1="394.3" y1="365.9" x2="394.7" y2="376.9" /><line x1="399.2" y1="365.7" x2="398.8" y2="376.7" /><line x1="383.8" y1="377.0" x2="400.7" y2="365.0" /><line x1="412.2" y1="365.4" x2="412.8" y2="376.4" /><line x1="417.2" y1="365.6" x2="416.8" y2="376.6" /><line x1="421.5" y1="365.7" x2="421.5" y2="376.7" /><line x1="425.7" y1="365.2" x2="426.3" y2="376.2" /><line x1="411.1" y1="377.0" x2="427.4" y2="365.0" /><line x1="439.5" y1="365.5" x2="439.5" y2="376.5" /><line x1="443.6" y1="365.5" x2="444.4" y2="376.5" /><line x1="448.5" y1="365.7" x2="448.5" y2="376.7" /><line x1="453.1" y1="365.2" x2="452.9" y2="376.2" /><line x1="438.2" y1="377.0" x2="454.3" y2="365.0" /><line x1="466.6" y1="365.6" x2="466.4" y2="376.6" /><line x1="470.9" y1="365.3" x2="471.1" y2="376.3" /><line x1="475.7" y1="365.1" x2="475.3" y2="376.1" /><line x1="480.4" y1="365.3" x2="479.6" y2="376.3" /><line x1="464.8" y1="377.0" x2="481.7" y2="365.0" /><line x1="493.7" y1="365.7" x2="493.3" y2="376.7" /><line x1="498.3" y1="365.3" x2="497.7" y2="376.3" /><line x1="502.4" y1="365.8" x2="502.6" y2="376.8" /><line x1="506.9" y1="365.8" x2="507.1" y2="376.8" /><line x1="492.1" y1="377.0" x2="508.4" y2="365.0" /><line x1="520.9" y1="365.2" x2="520.1" y2="376.2" /><line x1="525.3" y1="365.3" x2="524.7" y2="376.3" /><line x1="529.1" y1="365.3" x2="529.9" y2="376.3" /><line x1="534.0" y1="365.4" x2="534.0" y2="376.4" /><line x1="519.0" y1="377.0" x2="535.5" y2="365.0" /><line x1="277.7" y1="381.6" x2="277.3" y2="392.6" /><line x1="281.9" y1="381.6" x2="282.1" y2="392.6" /><line x1="286.2" y1="381.5" x2="286.8" y2="392.5" /><line x1="290.8" y1="381.9" x2="291.2" y2="392.9" /><line x1="275.7" y1="393.0" x2="292.8" y2="381.0" /><line x1="304.8" y1="381.4" x2="304.2" y2="392.4" /><line x1="308.8" y1="381.6" x2="309.2" y2="392.6" /><line x1="313.5" y1="382.0" x2="313.5" y2="393.0" /><line x1="317.7" y1="381.4" x2="318.3" y2="392.4" /><line x1="302.9" y1="393.0" x2="319.6" y2="381.0" /><line x1="331.6" y1="381.0" x2="331.4" y2="392.0" /><line x1="335.7" y1="381.5" x2="336.3" y2="392.5" /><line x1="340.8" y1="381.8" x2="340.2" y2="392.8" /><line x1="344.9" y1="381.9" x2="345.1" y2="392.9" /><line x1="329.9" y1="393.0" x2="346.6" y2="381.0" /><line x1="358.6" y1="381.7" x2="358.4" y2="392.7" /><line x1="362.6" y1="381.6" x2="363.4" y2="392.6" /><line x1="367.7" y1="381.9" x2="367.3" y2="392.9" /><line x1="372.2" y1="381.0" x2="371.8" y2="392.0" /><line x1="357.2" y1="393.0" x2="373.3" y2="381.0" /><line x1="385.7" y1="381.7" x2="385.3" y2="392.7" /><line x1="390.2" y1="381.3" x2="389.8" y2="392.3" /><line x1="394.8" y1="381.6" x2="394.2" y2="392.6" /><line x1="398.7" y1="381.6" x2="399.3" y2="392.6" /><line x1="383.8" y1="393.0" x2="400.7" y2="381.0" /><line x1="412.2" y1="381.6" x2="412.8" y2="392.6" /><line x1="416.7" y1="381.3" x2="417.3" y2="392.3" /><line x1="421.6" y1="381.8" x2="421.4" y2="392.8" /><line x1="425.9" y1="381.1" x2="426.1" y2="392.1" /><line x1="410.7" y1="393.0" x2="427.8" y2="381.0" /><line x1="439.7" y1="381.5" x2="439.3" y2="392.5" /><line x1="444.2" y1="381.6" x2="443.8" y2="392.6" /><line x1="448.6" y1="381.4" x2="448.4" y2="392.4" /><line x1="453.2" y1="381.9" x2="452.8" y2="392.9" /><line x1="438.1" y1="393.0" x2="454.4" y2="381.0" /><line x1="466.8" y1="381.5" x2="466.2" y2="392.5" /><line x1="471.2" y1="381.0" x2="470.8" y2="392.0" /><line x1="475.9" y1="381.2" x2="475.1" y2="392.2" /><line x1="479.7" y1="381.0" x2="480.3" y2="392.0" /><line x1="465.1" y1="393.0" x2="481.4" y2="381.0" /><line x1="493.7" y1="381.9" x2="493.3" y2="392.9" /><line x1="498.1" y1="381.4" x2="497.9" y2="392.4" /><line x1="502.4" y1="381.1" x2="502.6" y2="392.1" /><line x1="507.3" y1="381.4" x2="506.7" y2="392.4" /><line x1="491.7" y1="393.0" x2="508.8" y2="381.0" /><line x1="520.2" y1="381.4" x2="520.8" y2="392.4" /><line x1="524.9" y1="381.5" x2="525.1" y2="392.5" /><line x1="529.5" y1="381.5" x2="529.5" y2="392.5" /><line x1="534.2" y1="381.5" x2="533.8" y2="392.5" /><line x1="519.2" y1="393.0" x2="535.3" y2="381.0" /><line x1="277.3" y1="397.5" x2="277.7" y2="408.5" /><line x1="281.6" y1="397.4" x2="282.4" y2="408.4" /><line x1="286.5" y1="397.4" x2="286.5" y2="408.4" /><line x1="290.7" y1="397.4" x2="291.3" y2="408.4" /><line x1="275.9" y1="409.0" x2="292.6" y2="397.0" /><line x1="304.8" y1="397.8" x2="304.2" y2="408.8" /><line x1="309.1" y1="397.2" x2="308.9" y2="408.2" /><line x1="313.6" y1="397.1" x2="313.4" y2="408.1" /><line x1="318.3" y1="397.3" x2="317.7" y2="408.3" /><line x1="303.2" y1="409.0" x2="319.3" y2="397.0" /><line x1="331.5" y1="397.2" x2="331.5" y2="408.2" /><line x1="335.9" y1="398.0" x2="336.1" y2="409.0" /><line x1="340.7" y1="397.8" x2="340.3" y2="408.8" /><line x1="345.0" y1="397.2" x2="345.0" y2="408.2" /><line x1="329.9" y1="409.0" x2="346.6" y2="397.0" /><line x1="358.7" y1="398.0" x2="358.3" y2="409.0" /><line x1="363.2" y1="397.8" x2="362.8" y2="408.8" /><line x1="367.6" y1="397.2" x2="367.4" y2="408.2" /><line x1="372.0" y1="397.6" x2="372.0" y2="408.6" /><line x1="356.8" y1="409.0" x2="373.7" y2="397.0" /><line x1="385.5" y1="397.3" x2="385.5" y2="408.3" /><line x1="390.3" y1="397.9" x2="389.7" y2="408.9" /><line x1="394.9" y1="397.6" x2="394.1" y2="408.6" /><line x1="399.2" y1="397.9" x2="398.8" y2="408.9" /><line x1="384.1" y1="409.0" x2="400.4" y2="397.0" /><line x1="412.1" y1="397.2" x2="412.9" y2="408.2" /><line x1="416.8" y1="397.3" x2="417.2" y2="408.3" /><line x1="421.8" y1="397.8" x2="421.2" y2="408.8" /><line x1="426.1" y1="397.0" x2="425.9" y2="408.0" /><line x1="411.2" y1="409.0" x2="427.3" y2="397.0" /><line x1="439.6" y1="397.6" x2="439.4" y2="408.6" /><line x1="443.6" y1="397.9" x2="444.4" y2="408.9" /><line x1="448.9" y1="397.1" x2="448.1" y2="408.1" /><line x1="452.8" y1="397.4" x2="453.2" y2="408.4" /><line x1="438.2" y1="409.0" x2="454.3" y2="397.0" /><line x1="466.9" y1="397.1" x2="466.1" y2="408.1" /><line x1="470.8" y1="397.0" x2="471.2" y2="408.0" /><line x1="475.4" y1="397.3" x2="475.6" y2="408.3" /><line x1="480.0" y1="397.7" x2="480.0" y2="408.7" /><line x1="465.0" y1="409.0" x2="481.5" y2="397.0" /><line x1="493.1" y1="397.0" x2="493.9" y2="408.0" /><line x1="498.1" y1="397.7" x2="497.9" y2="408.7" /><line x1="502.3" y1="397.8" x2="502.7" y2="408.8" /><line x1="507.1" y1="397.5" x2="506.9" y2="408.5" /><line x1="492.2" y1="409.0" x2="508.3" y2="397.0" /><line x1="520.6" y1="397.9" x2="520.4" y2="408.9" /><line x1="525.1" y1="397.2" x2="524.9" y2="408.2" /><line x1="529.2" y1="397.1" x2="529.8" y2="408.1" /><line x1="534.4" y1="397.9" x2="533.6" y2="408.9" /><line x1="519.3" y1="409.0" x2="535.2" y2="397.0" /><line x1="277.1" y1="413.7" x2="277.9" y2="424.7" /><line x1="282.2" y1="413.8" x2="281.8" y2="424.8" /><line x1="286.4" y1="413.1" x2="286.6" y2="424.1" /><line x1="291.0" y1="413.6" x2="291.0" y2="424.6" /><line x1="276.3" y1="425.0" x2="292.2" y2="413.0" /><line x1="304.7" y1="413.5" x2="304.3" y2="424.5" /><line x1="309.3" y1="413.6" x2="308.7" y2="424.6" /><line x1="313.1" y1="413.3" x2="313.9" y2="424.3" /><line x1="317.8" y1="413.4" x2="318.2" y2="424.4" /><line x1="303.0" y1="425.0" x2="319.5" y2="413.0" /><line x1="331.2" y1="413.3" x2="331.8" y2="424.3" /><line x1="335.9" y1="413.3" x2="336.1" y2="424.3" /><line x1="340.7" y1="413.2" x2="340.3" y2="424.2" /><line x1="345.1" y1="413.9" x2="344.9" y2="424.9" /><line x1="330.0" y1="425.0" x2="346.5" y2="413.0" /><line x1="358.8" y1="413.9" x2="358.2" y2="424.9" /><line x1="362.7" y1="413.1" x2="363.3" y2="424.1" /><line x1="367.6" y1="413.5" x2="367.4" y2="424.5" /><line x1="371.6" y1="413.1" x2="372.4" y2="424.1" /><line x1="356.8" y1="425.0" x2="373.7" y2="413.0" /><line x1="385.7" y1="413.5" x2="385.3" y2="424.5" /><line x1="390.2" y1="413.8" x2="389.8" y2="424.8" /><line x1="394.9" y1="413.4" x2="394.1" y2="424.4" /><line x1="398.9" y1="413.7" x2="399.1" y2="424.7" /><line x1="383.9" y1="425.0" x2="400.6" y2="413.0" /><line x1="412.6" y1="414.0" x2="412.4" y2="425.0" /><line x1="416.6" y1="413.3" x2="417.4" y2="424.3" /><line x1="421.9" y1="413.8" x2="421.1" y2="424.8" /><line x1="426.1" y1="413.7" x2="425.9" y2="424.7" /><line x1="411.1" y1="425.0" x2="427.4" y2="413.0" /><line x1="439.8" y1="413.0" x2="439.2" y2="424.0" /><line x1="443.9" y1="413.2" x2="444.1" y2="424.2" /><line x1="448.6" y1="413.7" x2="448.4" y2="424.7" /><line x1="453.3" y1="413.8" x2="452.7" y2="424.8" /><line x1="437.8" y1="425.0" x2="454.7" y2="413.0" /><line x1="466.3" y1="413.4" x2="466.7" y2="424.4" /><line x1="471.4" y1="413.1" x2="470.6" y2="424.1" /><line x1="475.4" y1="413.9" x2="475.6" y2="424.9" /><line x1="480.1" y1="413.9" x2="479.9" y2="424.9" /><line x1="465.0" y1="425.0" x2="481.5" y2="413.0" /><line x1="493.8" y1="413.2" x2="493.2" y2="424.2" /><line x1="497.6" y1="413.8" x2="498.4" y2="424.8" /><line x1="502.6" y1="413.5" x2="502.4" y2="424.5" /><line x1="507.2" y1="413.6" x2="506.8" y2="424.6" /><line x1="491.9" y1="425.0" x2="508.6" y2="413.0" /><line x1="520.3" y1="413.1" x2="520.7" y2="424.1" /><line x1="524.9" y1="413.5" x2="525.1" y2="424.5" /><line x1="529.4" y1="413.6" x2="529.6" y2="424.6" /><line x1="534.2" y1="413.8" x2="533.8" y2="424.8" /><line x1="519.1" y1="425.0" x2="535.4" y2="413.0" /><line x1="277.8" y1="429.4" x2="277.2" y2="440.4" /><line x1="282.3" y1="429.6" x2="281.7" y2="440.6" /><line x1="286.3" y1="430.0" x2="286.7" y2="441.0" /><line x1="291.0" y1="429.1" x2="291.0" y2="440.1" /><line x1="275.8" y1="441.0" x2="292.7" y2="429.0" /><line x1="304.7" y1="429.3" x2="304.3" y2="440.3" /><line x1="308.9" y1="429.7" x2="309.1" y2="440.7" /><line x1="313.8" y1="429.7" x2="313.2" y2="440.7" /><line x1="318.3" y1="430.0" x2="317.7" y2="441.0" /><line x1="302.8" y1="441.0" x2="319.7" y2="429.0" /><line x1="331.5" y1="429.7" x2="331.5" y2="440.7" /><line x1="335.6" y1="430.0" x2="336.4" y2="441.0" /><line x1="340.6" y1="429.9" x2="340.4" y2="440.9" /><line x1="344.6" y1="429.7" x2="345.4" y2="440.7" /><line x1="330.0" y1="441.0" x2="346.5" y2="429.0" /><line x1="358.9" y1="429.6" x2="358.1" y2="440.6" /><line x1="362.7" y1="429.6" x2="363.3" y2="440.6" /><line x1="367.2" y1="429.7" x2="367.8" y2="440.7" /><line x1="372.2" y1="429.4" x2="371.8" y2="440.4" /><line x1="356.9" y1="441.0" x2="373.6" y2="429.0" /><line x1="385.5" y1="429.4" x2="385.5" y2="440.4" /><line x1="389.8" y1="429.5" x2="390.2" y2="440.5" /><line x1="394.3" y1="429.4" x2="394.7" y2="440.4" /><line x1="399.2" y1="429.3" x2="398.8" y2="440.3" /><line x1="384.2" y1="441.0" x2="400.3" y2="429.0" /><line x1="412.5" y1="429.3" x2="412.5" y2="440.3" /><line x1="417.3" y1="429.6" x2="416.7" y2="440.6" /><line x1="421.7" y1="429.5" x2="421.3" y2="440.5" /><line x1="425.8" y1="429.4" x2="426.2" y2="440.4" /><line x1="410.8" y1="441.0" x2="427.7" y2="429.0" /><line x1="439.8" y1="429.6" x2="439.2" y2="440.6" /><line x1="443.7" y1="429.8" x2="444.3" y2="440.8" /><line x1="448.4" y1="429.9" x2="448.6" y2="440.9" /><line x1="452.9" y1="429.9" x2="453.1" y2="440.9" /><line x1="437.8" y1="441.0" x2="454.7" y2="429.0" /><line x1="466.1" y1="429.5" x2="466.9" y2="440.5" /><line x1="471.3" y1="429.2" x2="470.7" y2="440.2" /><line x1="475.4" y1="429.1" x2="475.6" y2="440.1" /><line x1="479.7" y1="429.2" x2="480.3" y2="440.2" /><line x1="464.7" y1="441.0" x2="481.8" y2="429.0" /><line x1="493.1" y1="429.6" x2="493.9" y2="440.6" /><line x1="498.1" y1="429.8" x2="497.9" y2="440.8" /><line x1="502.2" y1="429.8" x2="502.8" y2="440.8" /><line x1="506.8" y1="429.7" x2="507.2" y2="440.7" /><line x1="492.3" y1="441.0" x2="508.2" y2="429.0" /><line x1="520.7" y1="429.4" x2="520.3" y2="440.4" /><line x1="524.9" y1="429.7" x2="525.1" y2="440.7" /><line x1="529.5" y1="429.8" x2="529.5" y2="440.8" /><line x1="534.3" y1="429.6" x2="533.7" y2="440.6" /><line x1="519.2" y1="441.0" x2="535.3" y2="429.0" /><line x1="277.2" y1="445.2" x2="277.8" y2="456.2" /><line x1="281.6" y1="445.4" x2="282.4" y2="456.4" /><line x1="286.4" y1="445.6" x2="286.6" y2="456.6" /><line x1="290.9" y1="445.8" x2="291.1" y2="456.8" /><line x1="275.8" y1="457.0" x2="292.7" y2="445.0" /><line x1="304.9" y1="445.4" x2="304.1" y2="456.4" /><line x1="308.8" y1="445.8" x2="309.2" y2="456.8" /><line x1="313.5" y1="445.7" x2="313.5" y2="456.7" /><line x1="317.9" y1="445.8" x2="318.1" y2="456.8" /><line x1="302.9" y1="457.0" x2="319.6" y2="445.0" /><line x1="331.6" y1="445.5" x2="331.4" y2="456.5" /><line x1="335.9" y1="445.9" x2="336.1" y2="456.9" /><line x1="340.8" y1="445.9" x2="340.2" y2="456.9" /><line x1="345.0" y1="445.7" x2="345.0" y2="456.7" /><line x1="329.9" y1="457.0" x2="346.6" y2="445.0" /><line x1="358.2" y1="445.4" x2="358.8" y2="456.4" /><line x1="362.9" y1="445.6" x2="363.1" y2="456.6" /><line x1="367.8" y1="446.0" x2="367.2" y2="457.0" /><line x1="371.8" y1="445.7" x2="372.2" y2="456.7" /><line x1="356.8" y1="457.0" x2="373.7" y2="445.0" /><line x1="385.3" y1="446.0" x2="385.7" y2="457.0" /><line x1="389.6" y1="445.1" x2="390.4" y2="456.1" /><line x1="394.6" y1="445.1" x2="394.4" y2="456.1" /><line x1="399.3" y1="445.6" x2="398.7" y2="456.6" /><line x1="384.0" y1="457.0" x2="400.5" y2="445.0" /><line x1="412.4" y1="445.6" x2="412.6" y2="456.6" /><line x1="417.1" y1="445.5" x2="416.9" y2="456.5" /><line x1="421.8" y1="445.3" x2="421.2" y2="456.3" /><line x1="426.0" y1="445.3" x2="426.0" y2="456.3" /><line x1="410.8" y1="457.0" x2="427.7" y2="445.0" /><line x1="439.4" y1="445.4" x2="439.6" y2="456.4" /><line x1="443.8" y1="445.4" x2="444.2" y2="456.4" /><line x1="448.3" y1="445.5" x2="448.7" y2="456.5" /><line x1="452.7" y1="445.6" x2="453.3" y2="456.6" /><line x1="437.9" y1="457.0" x2="454.6" y2="445.0" /><line x1="466.2" y1="445.7" x2="466.8" y2="456.7" /><line x1="470.7" y1="445.2" x2="471.3" y2="456.2" /><line x1="475.2" y1="445.2" x2="475.8" y2="456.2" /><line x1="479.8" y1="445.1" x2="480.2" y2="456.1" /><line x1="465.2" y1="457.0" x2="481.3" y2="445.0" /><line x1="493.2" y1="446.0" x2="493.8" y2="457.0" /><line x1="498.0" y1="445.4" x2="498.0" y2="456.4" /><line x1="502.8" y1="445.3" x2="502.2" y2="456.3" /><line x1="507.0" y1="445.5" x2="507.0" y2="456.5" /><line x1="492.2" y1="457.0" x2="508.3" y2="445.0" /><line x1="520.3" y1="445.9" x2="520.7" y2="456.9" /><line x1="524.7" y1="445.3" x2="525.3" y2="456.3" /><line x1="529.6" y1="445.5" x2="529.4" y2="456.5" /><line x1="534.0" y1="445.1" x2="534.0" y2="456.1" /><line x1="519.0" y1="457.0" x2="535.5" y2="445.0" /><line x1="277.4" y1="461.8" x2="277.6" y2="472.8" /><line x1="282.1" y1="461.8" x2="281.9" y2="472.8" /><line x1="286.5" y1="461.5" x2="286.5" y2="472.5" /><line x1="290.9" y1="461.9" x2="291.1" y2="472.9" /><line x1="276.2" y1="473.0" x2="292.3" y2="461.0" /><line x1="304.7" y1="461.2" x2="304.3" y2="472.2" /><line x1="308.9" y1="461.6" x2="309.1" y2="472.6" /><line x1="313.7" y1="461.7" x2="313.3" y2="472.7" /><line x1="318.1" y1="461.5" x2="317.9" y2="472.5" /><line x1="303.0" y1="473.0" x2="319.5" y2="461.0" /><line x1="331.6" y1="461.1" x2="331.4" y2="472.1" /><line x1="335.9" y1="461.8" x2="336.1" y2="472.8" /><line x1="340.8" y1="461.9" x2="340.2" y2="472.9" /><line x1="344.9" y1="461.4" x2="345.1" y2="472.4" /><line x1="329.7" y1="473.0" x2="346.8" y2="461.0" /><line x1="358.8" y1="461.9" x2="358.2" y2="472.9" /><line x1="362.7" y1="461.2" x2="363.3" y2="472.2" /><line x1="367.2" y1="461.4" x2="367.8" y2="472.4" /><line x1="372.4" y1="461.1" x2="371.6" y2="472.1" /><line x1="357.3" y1="473.0" x2="373.2" y2="461.0" /><line x1="385.8" y1="461.3" x2="385.2" y2="472.3" /><line x1="390.4" y1="461.6" x2="389.6" y2="472.6" /><line x1="394.5" y1="461.5" x2="394.5" y2="472.5" /><line x1="399.2" y1="461.9" x2="398.8" y2="472.9" /><line x1="384.1" y1="473.0" x2="400.4" y2="461.0" /><line x1="412.1" y1="461.5" x2="412.9" y2="472.5" /><line x1="416.7" y1="461.6" x2="417.3" y2="472.6" /><line x1="421.4" y1="461.4" x2="421.6" y2="472.4" /><line x1="426.1" y1="461.3" x2="425.9" y2="472.3" /><line x1="410.9" y1="473.0" x2="427.6" y2="461.0" /><line x1="439.7" y1="461.8" x2="439.3" y2="472.8" /><line x1="443.9" y1="461.6" x2="444.1" y2="472.6" /><line x1="448.5" y1="461.8" x2="448.5" y2="472.8" /><line x1="453.1" y1="461.6" x2="452.9" y2="472.6" /><line x1="438.2" y1="473.0" x2="454.3" y2="461.0" /><line x1="466.3" y1="461.9" x2="466.7" y2="472.9" /><line x1="470.6" y1="461.2" x2="471.4" y2="472.2" /><line x1="475.2" y1="461.1" x2="475.8" y2="472.1" /><line x1="479.7" y1="461.5" x2="480.3" y2="472.5" /><line x1="465.2" y1="473.0" x2="481.3" y2="461.0" /><line x1="493.7" y1="461.8" x2="493.3" y2="472.8" /><line x1="498.1" y1="461.6" x2="497.9" y2="472.6" /><line x1="502.7" y1="461.7" x2="502.3" y2="472.7" /><line x1="507.1" y1="461.7" x2="506.9" y2="472.7" /><line x1="492.1" y1="473.0" x2="508.4" y2="461.0" /><line x1="520.4" y1="461.7" x2="520.6" y2="472.7" /><line x1="525.0" y1="461.5" x2="525.0" y2="472.5" /><line x1="529.5" y1="461.6" x2="529.5" y2="472.6" /><line x1="534.4" y1="461.7" x2="533.6" y2="472.7" /><line x1="519.1" y1="473.0" x2="535.4" y2="461.0" /><line x1="277.7" y1="477.7" x2="277.3" y2="488.7" /><line x1="281.8" y1="477.3" x2="282.2" y2="488.3" /><line x1="286.7" y1="477.0" x2="286.3" y2="488.0" /><line x1="290.8" y1="477.9" x2="291.2" y2="488.9" /><line x1="276.1" y1="489.0" x2="292.4" y2="477.0" /><line x1="304.4" y1="477.1" x2="304.6" y2="488.1" /><line x1="308.8" y1="477.3" x2="309.2" y2="488.3" /><line x1="313.9" y1="477.9" x2="313.1" y2="488.9" /><line x1="318.0" y1="477.5" x2="318.0" y2="488.5" /><line x1="302.8" y1="489.0" x2="319.7" y2="477.0" /><line x1="331.4" y1="477.7" x2="331.6" y2="488.7" /><line x1="335.7" y1="477.2" x2="336.3" y2="488.2" /><line x1="340.5" y1="477.6" x2="340.5" y2="488.6" /><line x1="345.3" y1="477.3" x2="344.7" y2="488.3" /><line x1="330.3" y1="489.0" x2="346.2" y2="477.0" /><line x1="358.5" y1="477.4" x2="358.5" y2="488.4" /><line x1="362.6" y1="477.1" x2="363.4" y2="488.1" /><line x1="367.6" y1="477.8" x2="367.4" y2="488.8" /><line x1="371.9" y1="477.6" x2="372.1" y2="488.6" /><line x1="357.0" y1="489.0" x2="373.5" y2="477.0" /><line x1="385.4" y1="477.9" x2="385.6" y2="488.9" /><line x1="389.6" y1="477.4" x2="390.4" y2="488.4" /><line x1="394.5" y1="478.0" x2="394.5" y2="489.0" /><line x1="399.3" y1="477.5" x2="398.7" y2="488.5" /><line x1="383.9" y1="489.0" x2="400.6" y2="477.0" /><line x1="412.2" y1="477.2" x2="412.8" y2="488.2" /><line x1="416.6" y1="477.5" x2="417.4" y2="488.5" /><line x1="421.1" y1="477.7" x2="421.9" y2="488.7" /><line x1="425.6" y1="477.7" x2="426.4" y2="488.7" /><line x1="411.1" y1="489.0" x2="427.4" y2="477.0" /><line x1="439.4" y1="477.7" x2="439.6" y2="488.7" /><line x1="444.0" y1="478.0" x2="444.0" y2="489.0" /><line x1="448.2" y1="477.5" x2="448.8" y2="488.5" /><line x1="452.9" y1="477.6" x2="453.1" y2="488.6" /><line x1="438.2" y1="489.0" x2="454.3" y2="477.0" /><line x1="466.3" y1="477.1" x2="466.7" y2="488.1" /><line x1="471.0" y1="477.7" x2="471.0" y2="488.7" /><line x1="475.6" y1="477.7" x2="475.4" y2="488.7" /><line x1="479.7" y1="477.5" x2="480.3" y2="488.5" /><line x1="464.9" y1="489.0" x2="481.6" y2="477.0" /><line x1="493.6" y1="478.0" x2="493.4" y2="489.0" /><line x1="497.9" y1="477.3" x2="498.1" y2="488.3" /><line x1="502.2" y1="477.3" x2="502.8" y2="488.3" /><line x1="507.3" y1="477.8" x2="506.7" y2="488.8" /><line x1="491.8" y1="489.0" x2="508.7" y2="477.0" /><line x1="520.4" y1="477.7" x2="520.6" y2="488.7" /><line x1="525.2" y1="478.0" x2="524.8" y2="489.0" /><line x1="529.6" y1="477.6" x2="529.4" y2="488.6" /><line x1="534.0" y1="477.5" x2="534.0" y2="488.5" /><line x1="519.2" y1="489.0" x2="535.3" y2="477.0" /><line x1="277.4" y1="493.3" x2="277.6" y2="504.3" /><line x1="281.6" y1="493.3" x2="282.4" y2="504.3" /><line x1="286.8" y1="493.1" x2="286.2" y2="504.1" /><line x1="291.3" y1="493.4" x2="290.7" y2="504.4" /><line x1="276.3" y1="505.0" x2="292.2" y2="493.0" /><line x1="304.7" y1="493.7" x2="304.3" y2="504.7" /><line x1="308.9" y1="493.7" x2="309.1" y2="504.7" /><line x1="313.1" y1="493.8" x2="313.9" y2="504.8" /><line x1="318.4" y1="493.5" x2="317.6" y2="504.5" /><line x1="303.0" y1="505.0" x2="319.5" y2="493.0" /><line x1="331.7" y1="493.3" x2="331.3" y2="504.3" /><line x1="336.2" y1="493.8" x2="335.8" y2="504.8" /><line x1="340.3" y1="493.7" x2="340.7" y2="504.7" /><line x1="345.2" y1="493.2" x2="344.8" y2="504.2" /><line x1="330.2" y1="505.0" x2="346.3" y2="493.0" /><line x1="358.8" y1="493.2" x2="358.2" y2="504.2" /><line x1="363.0" y1="493.8" x2="363.0" y2="504.8" /><line x1="367.5" y1="493.8" x2="367.5" y2="504.8" /><line x1="371.9" y1="493.8" x2="372.1" y2="504.8" /><line x1="356.9" y1="505.0" x2="373.6" y2="493.0" /><line x1="385.4" y1="493.7" x2="385.6" y2="504.7" /><line x1="389.9" y1="493.6" x2="390.1" y2="504.6" /><line x1="394.2" y1="493.2" x2="394.8" y2="504.2" /><line x1="399.2" y1="494.0" x2="398.8" y2="505.0" /><line x1="384.0" y1="505.0" x2="400.5" y2="493.0" /><line x1="412.2" y1="493.5" x2="412.8" y2="504.5" /><line x1="417.4" y1="493.9" x2="416.6" y2="504.9" /><line x1="421.6" y1="493.9" x2="421.4" y2="504.9" /><line x1="426.1" y1="493.0" x2="425.9" y2="504.0" /><line x1="411.2" y1="505.0" x2="427.3" y2="493.0" /><line x1="439.3" y1="493.0" x2="439.7" y2="504.0" /><line x1="443.9" y1="493.9" x2="444.1" y2="504.9" /><line x1="448.4" y1="493.3" x2="448.6" y2="504.3" /><line x1="452.9" y1="493.4" x2="453.1" y2="504.4" /><line x1="438.2" y1="505.0" x2="454.3" y2="493.0" /><line x1="466.6" y1="493.2" x2="466.4" y2="504.2" /><line x1="470.9" y1="493.5" x2="471.1" y2="504.5" /><line x1="475.7" y1="493.9" x2="475.3" y2="504.9" /><line x1="480.1" y1="493.4" x2="479.9" y2="504.4" /><line x1="465.3" y1="505.0" x2="481.2" y2="493.0" /><line x1="493.2" y1="493.9" x2="493.8" y2="504.9" /><line x1="497.9" y1="493.9" x2="498.1" y2="504.9" /><line x1="502.2" y1="493.4" x2="502.8" y2="504.4" /><line x1="506.7" y1="493.9" x2="507.3" y2="504.9" /><line x1="491.8" y1="505.0" x2="508.7" y2="493.0" /><line x1="520.6" y1="493.2" x2="520.4" y2="504.2" /><line x1="525.4" y1="493.7" x2="524.6" y2="504.7" /><line x1="529.5" y1="493.0" x2="529.5" y2="504.0" /><line x1="533.7" y1="493.6" x2="534.3" y2="504.6" /><line x1="519.0" y1="505.0" x2="535.5" y2="493.0" /><line x1="277.7" y1="509.6" x2="277.3" y2="520.6" /><line x1="281.6" y1="509.0" x2="282.4" y2="520.0" /><line x1="286.3" y1="509.6" x2="286.7" y2="520.6" /><line x1="290.7" y1="509.5" x2="291.3" y2="520.5" /><line x1="276.1" y1="521.0" x2="292.4" y2="509.0" /><line x1="304.4" y1="509.1" x2="304.6" y2="520.1" /><line x1="309.0" y1="509.7" x2="309.0" y2="520.7" /><line x1="313.9" y1="509.9" x2="313.1" y2="520.9" /><line x1="318.2" y1="509.8" x2="317.8" y2="520.8" /><line x1="303.1" y1="521.0" x2="319.4" y2="509.0" /><line x1="331.3" y1="509.3" x2="331.7" y2="520.3" /><line x1="336.1" y1="509.4" x2="335.9" y2="520.4" /><line x1="340.5" y1="509.6" x2="340.5" y2="520.6" /><line x1="344.7" y1="509.2" x2="345.3" y2="520.2" /><line x1="329.8" y1="521.0" x2="346.7" y2="509.0" /><line x1="358.3" y1="509.9" x2="358.7" y2="520.9" /><line x1="363.2" y1="509.4" x2="362.8" y2="520.4" /><line x1="367.8" y1="509.2" x2="367.2" y2="520.2" /><line x1="372.1" y1="509.8" x2="371.9" y2="520.8" /><line x1="356.9" y1="521.0" x2="373.6" y2="509.0" /><line x1="385.4" y1="509.4" x2="385.6" y2="520.4" /><line x1="389.9" y1="509.1" x2="390.1" y2="520.1" /><line x1="394.5" y1="509.9" x2="394.5" y2="520.9" /><line x1="399.1" y1="509.7" x2="398.9" y2="520.7" /><line x1="383.9" y1="521.0" x2="400.6" y2="509.0" /><line x1="412.9" y1="509.8" x2="412.1" y2="520.8" /><line x1="417.0" y1="509.4" x2="417.0" y2="520.4" /><line x1="421.5" y1="509.5" x2="421.5" y2="520.5" /><line x1="426.4" y1="510.0" x2="425.6" y2="521.0" /><line x1="411.2" y1="521.0" x2="427.3" y2="509.0" /><line x1="439.8" y1="509.9" x2="439.2" y2="520.9" /><line x1="444.3" y1="509.0" x2="443.7" y2="520.0" /><line x1="448.6" y1="509.6" x2="448.4" y2="520.6" /><line x1="452.7" y1="509.7" x2="453.3" y2="520.7" /><line x1="438.0" y1="521.0" x2="454.5" y2="509.0" /><line x1="466.7" y1="509.5" x2="466.3" y2="520.5" /><line x1="471.1" y1="509.8" x2="470.9" y2="520.8" /><line x1="475.4" y1="509.7" x2="475.6" y2="520.7" /><line x1="479.6" y1="509.5" x2="480.4" y2="520.5" /><line x1="465.1" y1="521.0" x2="481.4" y2="509.0" /><line x1="493.7" y1="509.1" x2="493.3" y2="520.1" /><line x1="497.9" y1="509.1" x2="498.1" y2="520.1" /><line x1="502.8" y1="509.7" x2="502.2" y2="520.7" /><line x1="507.2" y1="510.0" x2="506.8" y2="521.0" /><line x1="492.3" y1="521.0" x2="508.2" y2="509.0" /><line x1="520.8" y1="509.4" x2="520.2" y2="520.4" /><line x1="525.0" y1="509.1" x2="525.0" y2="520.1" /><line x1="529.7" y1="509.5" x2="529.3" y2="520.5" /><line x1="534.0" y1="510.0" x2="534.0" y2="521.0" /><line x1="519.0" y1="521.0" x2="535.5" y2="509.0" /><line x1="277.9" y1="525.1" x2="277.1" y2="536.1" /><line x1="282.3" y1="525.1" x2="281.7" y2="536.1" /><line x1="286.8" y1="525.6" x2="286.2" y2="536.6" /><line x1="290.7" y1="525.2" x2="291.3" y2="536.2" /><line x1="276.0" y1="537.0" x2="292.5" y2="525.0" /><line x1="304.7" y1="525.4" x2="304.3" y2="536.4" /><line x1="309.3" y1="525.8" x2="308.7" y2="536.8" /><line x1="313.4" y1="526.0" x2="313.6" y2="537.0" /><line x1="318.0" y1="525.5" x2="318.0" y2="536.5" /><line x1="303.1" y1="537.0" x2="319.4" y2="525.0" /><line x1="331.6" y1="525.3" x2="331.4" y2="536.3" /><line x1="335.9" y1="525.2" x2="336.1" y2="536.2" /><line x1="340.4" y1="525.8" x2="340.6" y2="536.8" /><line x1="344.6" y1="525.6" x2="345.4" y2="536.6" /><line x1="330.0" y1="537.0" x2="346.5" y2="525.0" /><line x1="358.7" y1="525.2" x2="358.3" y2="536.2" /><line x1="363.2" y1="525.8" x2="362.8" y2="536.8" /><line x1="367.9" y1="525.6" x2="367.1" y2="536.6" /><line x1="372.2" y1="525.0" x2="371.8" y2="536.0" /><line x1="356.8" y1="537.0" x2="373.7" y2="525.0" /><line x1="385.5" y1="525.9" x2="385.5" y2="536.9" /><line x1="390.2" y1="525.5" x2="389.8" y2="536.5" /><line x1="394.2" y1="525.6" x2="394.8" y2="536.6" /><line x1="398.7" y1="525.5" x2="399.3" y2="536.5" /><line x1="383.8" y1="537.0" x2="400.7" y2="525.0" /><line x1="412.8" y1="525.2" x2="412.2" y2="536.2" /><line x1="417.0" y1="525.9" x2="417.0" y2="536.9" /><line x1="421.6" y1="525.7" x2="421.4" y2="536.7" /><line x1="426.2" y1="525.9" x2="425.8" y2="536.9" /><line x1="411.0" y1="537.0" x2="427.5" y2="525.0" /><line x1="439.8" y1="525.7" x2="439.2" y2="536.7" /><line x1="443.8" y1="525.2" x2="444.2" y2="536.2" /><line x1="448.8" y1="525.9" x2="448.2" y2="536.9" /><line x1="452.7" y1="525.1" x2="453.3" y2="536.1" /><line x1="437.7" y1="537.0" x2="454.8" y2="525.0" /><line x1="466.7" y1="525.6" x2="466.3" y2="536.6" /><line x1="470.8" y1="525.7" x2="471.2" y2="536.7" /><line x1="475.6" y1="525.1" x2="475.4" y2="536.1" /><line x1="480.3" y1="525.6" x2="479.7" y2="536.6" /><line x1="465.0" y1="537.0" x2="481.5" y2="525.0" /><line x1="493.8" y1="525.9" x2="493.2" y2="536.9" /><line x1="497.8" y1="525.4" x2="498.2" y2="536.4" /><line x1="502.6" y1="525.9" x2="502.4" y2="536.9" /><line x1="506.9" y1="525.4" x2="507.1" y2="536.4" /><line x1="491.9" y1="537.0" x2="508.6" y2="525.0" /><line x1="520.4" y1="525.3" x2="520.6" y2="536.3" /><line x1="524.6" y1="525.6" x2="525.4" y2="536.6" /><line x1="529.5" y1="525.5" x2="529.5" y2="536.5" /><line x1="534.1" y1="525.4" x2="533.9" y2="536.4" /><line x1="519.3" y1="537.0" x2="535.2" y2="525.0" /><line x1="277.9" y1="542.0" x2="277.1" y2="553.0" /><line x1="281.9" y1="541.4" x2="282.1" y2="552.4" /><line x1="286.3" y1="541.4" x2="286.7" y2="552.4" /><line x1="290.8" y1="541.7" x2="291.2" y2="552.7" /><line x1="276.2" y1="553.0" x2="292.3" y2="541.0" /><line x1="304.4" y1="541.6" x2="304.6" y2="552.6" /><line x1="308.6" y1="541.0" x2="309.4" y2="552.0" /><line x1="313.5" y1="541.2" x2="313.5" y2="552.2" /><line x1="318.1" y1="541.4" x2="317.9" y2="552.4" /><line x1="303.1" y1="553.0" x2="319.4" y2="541.0" /><line x1="331.3" y1="542.0" x2="331.7" y2="553.0" /><line x1="335.7" y1="541.8" x2="336.3" y2="552.8" /><line x1="340.1" y1="541.1" x2="340.9" y2="552.1" /><line x1="345.2" y1="541.8" x2="344.8" y2="552.8" /><line x1="329.7" y1="553.0" x2="346.8" y2="541.0" /><line x1="358.7" y1="541.2" x2="358.3" y2="552.2" /><line x1="362.9" y1="541.3" x2="363.1" y2="552.3" /><line x1="367.7" y1="541.4" x2="367.3" y2="552.4" /><line x1="371.9" y1="541.1" x2="372.1" y2="552.1" /><line x1="357.1" y1="553.0" x2="373.4" y2="541.0" /><line x1="385.5" y1="541.8" x2="385.5" y2="552.8" /><line x1="390.1" y1="541.1" x2="389.9" y2="552.1" /><line x1="394.8" y1="541.7" x2="394.2" y2="552.7" /><line x1="398.6" y1="541.1" x2="399.4" y2="552.1" /><line x1="384.0" y1="553.0" x2="400.5" y2="541.0" /><line x1="412.7" y1="542.0" x2="412.3" y2="553.0" /><line x1="417.2" y1="542.0" x2="416.8" y2="553.0" /><line x1="421.7" y1="541.0" x2="421.3" y2="552.0" /><line x1="425.8" y1="541.6" x2="426.2" y2="552.6" /><line x1="411.3" y1="553.0" x2="427.2" y2="541.0" /><line x1="439.3" y1="541.7" x2="439.7" y2="552.7" /><line x1="444.0" y1="541.5" x2="444.0" y2="552.5" /><line x1="448.4" y1="541.6" x2="448.6" y2="552.6" /><line x1="453.3" y1="541.8" x2="452.7" y2="552.8" /><line x1="466.8" y1="541.8" x2="466.2" y2="552.8" /><line x1="470.6" y1="541.5" x2="471.4" y2="552.5" /><line x1="475.5" y1="541.7" x2="475.5" y2="552.7" /><line x1="479.6" y1="542.0" x2="480.4" y2="553.0" /><line x1="465.0" y1="553.0" x2="481.5" y2="541.0" /><line x1="493.3" y1="541.2" x2="493.7" y2="552.2" /><line x1="498.3" y1="541.7" x2="497.7" y2="552.7" /><line x1="502.7" y1="542.0" x2="502.3" y2="553.0" /><line x1="507.2" y1="541.3" x2="506.8" y2="552.3" /><line x1="492.0" y1="553.0" x2="508.5" y2="541.0" /><line x1="520.2" y1="541.8" x2="520.8" y2="552.8" /><line x1="525.1" y1="541.7" x2="524.9" y2="552.7" /><line x1="529.6" y1="541.8" x2="529.4" y2="552.8" /><line x1="534.4" y1="541.3" x2="533.6" y2="552.3" /><line x1="519.2" y1="553.0" x2="535.3" y2="541.0" /><line x1="277.4" y1="557.6" x2="277.6" y2="568.6" /><line x1="282.3" y1="557.1" x2="281.7" y2="568.1" /><line x1="286.5" y1="557.7" x2="286.5" y2="568.7" /><line x1="290.8" y1="557.2" x2="291.2" y2="568.2" /><line x1="276.1" y1="569.0" x2="292.4" y2="557.0" /><line x1="304.3" y1="557.5" x2="304.7" y2="568.5" /><line x1="308.7" y1="557.4" x2="309.3" y2="568.4" /><line x1="313.6" y1="557.6" x2="313.4" y2="568.6" /><line x1="318.3" y1="557.4" x2="317.7" y2="568.4" /><line x1="303.0" y1="569.0" x2="319.5" y2="557.0" /><line x1="331.5" y1="557.3" x2="331.5" y2="568.3" /><line x1="335.7" y1="557.4" x2="336.3" y2="568.4" /><line x1="340.7" y1="557.9" x2="340.3" y2="568.9" /><line x1="345.1" y1="557.4" x2="344.9" y2="568.4" /><line x1="330.0" y1="569.0" x2="346.5" y2="557.0" /><line x1="358.1" y1="558.0" x2="358.9" y2="569.0" /><line x1="362.9" y1="557.5" x2="363.1" y2="568.5" /><line x1="367.6" y1="557.5" x2="367.4" y2="568.5" /><line x1="372.4" y1="557.2" x2="371.6" y2="568.2" /><line x1="357.3" y1="569.0" x2="373.2" y2="557.0" /><line x1="385.1" y1="557.7" x2="385.9" y2="568.7" /><line x1="389.8" y1="557.2" x2="390.2" y2="568.2" /><line x1="394.3" y1="557.8" x2="394.7" y2="568.8" /><line x1="399.1" y1="557.3" x2="398.9" y2="568.3" /><line x1="383.7" y1="569.0" x2="400.8" y2="557.0" /><line x1="412.5" y1="557.5" x2="412.5" y2="568.5" /><line x1="417.1" y1="557.3" x2="416.9" y2="568.3" /><line x1="421.7" y1="557.5" x2="421.3" y2="568.5" /><line x1="426.3" y1="557.1" x2="425.7" y2="568.1" /><line x1="411.0" y1="569.0" x2="427.5" y2="557.0" /><line x1="439.4" y1="557.5" x2="439.6" y2="568.5" /><line x1="444.1" y1="557.3" x2="443.9" y2="568.3" /><line x1="448.3" y1="558.0" x2="448.7" y2="569.0" /><line x1="452.7" y1="557.7" x2="453.3" y2="568.7" /><line x1="438.0" y1="569.0" x2="454.5" y2="557.0" /><line x1="466.7" y1="557.2" x2="466.3" y2="568.2" /><line x1="470.7" y1="557.1" x2="471.3" y2="568.1" /><line x1="475.5" y1="558.0" x2="475.5" y2="569.0" /><line x1="479.8" y1="557.6" x2="480.2" y2="568.6" /><line x1="464.8" y1="569.0" x2="481.7" y2="557.0" /><line x1="493.5" y1="557.5" x2="493.5" y2="568.5" /><line x1="498.0" y1="557.7" x2="498.0" y2="568.7" /><line x1="502.3" y1="557.2" x2="502.7" y2="568.2" /><line x1="506.9" y1="557.9" x2="507.1" y2="568.9" /><line x1="492.1" y1="569.0" x2="508.4" y2="557.0" /><line x1="520.8" y1="557.3" x2="520.2" y2="568.3" /><line x1="525.1" y1="557.0" x2="524.9" y2="568.0" /><line x1="529.9" y1="557.4" x2="529.1" y2="568.4" /><line x1="534.4" y1="557.7" x2="533.6" y2="568.7" /><line x1="519.3" y1="569.0" x2="535.2" y2="557.0" /><line x1="277.5" y1="573.7" x2="277.5" y2="584.7" /><line x1="281.6" y1="573.0" x2="282.4" y2="584.0" /><line x1="286.3" y1="573.0" x2="286.7" y2="584.0" /><line x1="291.4" y1="573.5" x2="290.6" y2="584.5" /><line x1="276.0" y1="585.0" x2="292.5" y2="573.0" /><line x1="304.3" y1="573.7" x2="304.7" y2="584.7" /><line x1="309.0" y1="573.5" x2="309.0" y2="584.5" /><line x1="313.3" y1="573.9" x2="313.7" y2="584.9" /><line x1="317.9" y1="573.1" x2="318.1" y2="584.1" /><line x1="302.8" y1="585.0" x2="319.7" y2="573.0" /><line x1="331.3" y1="573.1" x2="331.7" y2="584.1" /><line x1="335.8" y1="573.4" x2="336.2" y2="584.4" /><line x1="340.4" y1="573.0" x2="340.6" y2="584.0" /><line x1="345.2" y1="573.1" x2="344.8" y2="584.1" /><line x1="329.9" y1="585.0" x2="346.6" y2="573.0" /><line x1="358.5" y1="573.5" x2="358.5" y2="584.5" /><line x1="363.3" y1="573.4" x2="362.7" y2="584.4" /><line x1="367.1" y1="573.8" x2="367.9" y2="584.8" /><line x1="371.9" y1="573.2" x2="372.1" y2="584.2" /><line x1="357.1" y1="585.0" x2="373.4" y2="573.0" /><line x1="385.6" y1="573.9" x2="385.4" y2="584.9" /><line x1="390.0" y1="573.6" x2="390.0" y2="584.6" /><line x1="394.2" y1="573.0" x2="394.8" y2="584.0" /><line x1="399.1" y1="573.8" x2="398.9" y2="584.8" /><line x1="384.3" y1="585.0" x2="400.2" y2="573.0" /><line x1="412.7" y1="573.4" x2="412.3" y2="584.4" /><line x1="417.2" y1="573.5" x2="416.8" y2="584.5" /><line x1="421.2" y1="573.3" x2="421.8" y2="584.3" /><line x1="426.2" y1="573.1" x2="425.8" y2="584.1" /><line x1="411.1" y1="585.0" x2="427.4" y2="573.0" /><line x1="439.5" y1="573.2" x2="439.5" y2="584.2" /><line x1="443.7" y1="573.0" x2="444.3" y2="584.0" /><line x1="448.4" y1="573.9" x2="448.6" y2="584.9" /><line x1="452.7" y1="573.6" x2="453.3" y2="584.6" /><line x1="437.7" y1="585.0" x2="454.8" y2="573.0" /><line x1="466.7" y1="573.8" x2="466.3" y2="584.8" /><line x1="471.2" y1="573.0" x2="470.8" y2="584.0" /><line x1="475.5" y1="573.4" x2="475.5" y2="584.4" /><line x1="479.9" y1="573.8" x2="480.1" y2="584.8" /><line x1="464.8" y1="585.0" x2="481.7" y2="573.0" /><line x1="493.2" y1="574.0" x2="493.8" y2="585.0" /><line x1="498.3" y1="573.9" x2="497.7" y2="584.9" /><line x1="502.9" y1="573.3" x2="502.1" y2="584.3" /><line x1="506.9" y1="573.2" x2="507.1" y2="584.2" /><line x1="491.7" y1="585.0" x2="508.8" y2="573.0" /><line x1="520.5" y1="573.2" x2="520.5" y2="584.2" /><line x1="524.8" y1="573.2" x2="525.2" y2="584.2" /><line x1="529.5" y1="573.2" x2="529.5" y2="584.2" /><line x1="534.4" y1="573.4" x2="533.6" y2="584.4" /><line x1="519.2" y1="585.0" x2="535.3" y2="573.0" /><line x1="277.9" y1="589.1" x2="277.1" y2="600.1" /><line x1="282.3" y1="589.9" x2="281.7" y2="600.9" /><line x1="286.8" y1="589.0" x2="286.2" y2="600.0" /><line x1="291.0" y1="589.9" x2="291.0" y2="600.9" /><line x1="276.2" y1="601.0" x2="292.3" y2="589.0" /><line x1="304.7" y1="589.8" x2="304.3" y2="600.8" /><line x1="308.8" y1="589.5" x2="309.2" y2="600.5" /><line x1="313.1" y1="589.5" x2="313.9" y2="600.5" /><line x1="317.6" y1="589.6" x2="318.4" y2="600.6" /><line x1="303.3" y1="601.0" x2="319.2" y2="589.0" /><line x1="331.5" y1="589.7" x2="331.5" y2="600.7" /><line x1="335.7" y1="589.8" x2="336.3" y2="600.8" /><line x1="340.8" y1="589.3" x2="340.2" y2="600.3" /><line x1="344.8" y1="589.7" x2="345.2" y2="600.7" /><line x1="330.1" y1="601.0" x2="346.4" y2="589.0" /><line x1="358.6" y1="589.6" x2="358.4" y2="600.6" /><line x1="363.0" y1="590.0" x2="363.0" y2="601.0" /><line x1="367.6" y1="590.0" x2="367.4" y2="601.0" /><line x1="371.7" y1="589.1" x2="372.3" y2="600.1" /><line x1="356.7" y1="601.0" x2="373.8" y2="589.0" /><line x1="385.2" y1="589.8" x2="385.8" y2="600.8" /><line x1="390.1" y1="589.3" x2="389.9" y2="600.3" /><line x1="394.2" y1="590.0" x2="394.8" y2="601.0" /><line x1="399.4" y1="589.8" x2="398.6" y2="600.8" /><line x1="383.9" y1="601.0" x2="400.6" y2="589.0" /><line x1="412.9" y1="589.6" x2="412.1" y2="600.6" /><line x1="417.3" y1="590.0" x2="416.7" y2="601.0" /><line x1="421.9" y1="589.8" x2="421.1" y2="600.8" /><line x1="426.0" y1="589.3" x2="426.0" y2="600.3" /><line x1="410.9" y1="601.0" x2="427.6" y2="589.0" /><line x1="439.6" y1="589.9" x2="439.4" y2="600.9" /><line x1="443.8" y1="589.7" x2="444.2" y2="600.7" /><line x1="448.7" y1="589.4" x2="448.3" y2="600.4" /><line x1="453.0" y1="589.5" x2="453.0" y2="600.5" /><line x1="437.9" y1="601.0" x2="454.6" y2="589.0" /><line x1="466.8" y1="589.2" x2="466.2" y2="600.2" /><line x1="471.2" y1="589.9" x2="470.8" y2="600.9" /><line x1="475.1" y1="589.1" x2="475.9" y2="600.1" /><line x1="480.1" y1="589.2" x2="479.9" y2="600.2" /><line x1="465.1" y1="601.0" x2="481.4" y2="589.0" /><line x1="493.6" y1="589.1" x2="493.4" y2="600.1" /><line x1="498.1" y1="589.0" x2="497.9" y2="600.0" /><line x1="502.7" y1="590.0" x2="502.3" y2="601.0" /><line x1="507.0" y1="589.9" x2="507.0" y2="600.9" /><line x1="491.9" y1="601.0" x2="508.6" y2="589.0" /><line x1="520.7" y1="590.0" x2="520.3" y2="601.0" /><line x1="525.3" y1="589.6" x2="524.7" y2="600.6" /><line x1="529.2" y1="589.4" x2="529.8" y2="600.4" /><line x1="533.6" y1="589.6" x2="534.4" y2="600.6" /><line x1="518.7" y1="601.0" x2="535.8" y2="589.0" /><line x1="277.2" y1="606.0" x2="277.8" y2="617.0" /><line x1="282.3" y1="605.7" x2="281.7" y2="616.7" /><line x1="286.2" y1="605.4" x2="286.8" y2="616.4" /><line x1="290.6" y1="605.5" x2="291.4" y2="616.5" /><line x1="276.0" y1="617.0" x2="292.5" y2="605.0" /><line x1="304.7" y1="605.0" x2="304.3" y2="616.0" /><line x1="308.9" y1="606.0" x2="309.1" y2="617.0" /><line x1="313.9" y1="605.5" x2="313.1" y2="616.5" /><line x1="318.0" y1="605.6" x2="318.0" y2="616.6" /><line x1="303.1" y1="617.0" x2="319.4" y2="605.0" /><line x1="331.7" y1="605.6" x2="331.3" y2="616.6" /><line x1="335.7" y1="605.9" x2="336.3" y2="616.9" /><line x1="340.6" y1="605.3" x2="340.4" y2="616.3" /><line x1="344.6" y1="605.3" x2="345.4" y2="616.3" /><line x1="330.1" y1="617.0" x2="346.4" y2="605.0" /><line x1="358.1" y1="605.1" x2="358.9" y2="616.1" /><line x1="363.3" y1="605.6" x2="362.7" y2="616.6" /><line x1="367.8" y1="605.7" x2="367.2" y2="616.7" /><line x1="372.4" y1="605.5" x2="371.6" y2="616.5" /><line x1="356.8" y1="617.0" x2="373.7" y2="605.0" /><line x1="385.3" y1="605.4" x2="385.7" y2="616.4" /><line x1="389.7" y1="605.4" x2="390.3" y2="616.4" /><line x1="394.8" y1="605.2" x2="394.2" y2="616.2" /><line x1="399.0" y1="605.3" x2="399.0" y2="616.3" /><line x1="384.1" y1="617.0" x2="400.4" y2="605.0" /><line x1="412.3" y1="605.1" x2="412.7" y2="616.1" /><line x1="417.2" y1="605.0" x2="416.8" y2="616.0" /><line x1="421.8" y1="605.9" x2="421.2" y2="616.9" /><line x1="426.0" y1="605.5" x2="426.0" y2="616.5" /><line x1="410.9" y1="617.0" x2="427.6" y2="605.0" /><line x1="439.5" y1="605.8" x2="439.5" y2="616.8" /><line x1="443.9" y1="605.1" x2="444.1" y2="616.1" /><line x1="448.4" y1="605.9" x2="448.6" y2="616.9" /><line x1="453.3" y1="605.1" x2="452.7" y2="616.1" /><line x1="437.8" y1="617.0" x2="454.7" y2="605.0" /><line x1="466.6" y1="606.0" x2="466.4" y2="617.0" /><line x1="470.8" y1="605.8" x2="471.2" y2="616.8" /><line x1="475.5" y1="605.8" x2="475.5" y2="616.8" /><line x1="480.2" y1="605.0" x2="479.8" y2="616.0" /><line x1="465.2" y1="617.0" x2="481.3" y2="605.0" /><line x1="493.2" y1="605.9" x2="493.8" y2="616.9" /><line x1="497.7" y1="605.0" x2="498.3" y2="616.0" /><line x1="502.2" y1="605.6" x2="502.8" y2="616.6" /><line x1="507.0" y1="605.2" x2="507.0" y2="616.2" /><line x1="492.2" y1="617.0" x2="508.3" y2="605.0" /><line x1="520.5" y1="605.2" x2="520.5" y2="616.2" /><line x1="524.7" y1="605.5" x2="525.3" y2="616.5" /><line x1="529.4" y1="605.3" x2="529.6" y2="616.3" /><line x1="534.2" y1="605.5" x2="533.8" y2="616.5" /><line x1="519.3" y1="617.0" x2="535.2" y2="605.0" /><line x1="277.4" y1="621.4" x2="277.6" y2="632.4" /><line x1="282.0" y1="621.3" x2="282.0" y2="632.3" /><line x1="286.3" y1="621.3" x2="286.7" y2="632.3" /><line x1="291.1" y1="621.6" x2="290.9" y2="632.6" /><line x1="275.9" y1="633.0" x2="292.6" y2="621.0" /><line x1="304.3" y1="621.2" x2="304.7" y2="632.2" /><line x1="308.8" y1="621.3" x2="309.2" y2="632.3" /><line x1="313.9" y1="621.2" x2="313.1" y2="632.2" /><line x1="318.3" y1="621.6" x2="317.7" y2="632.6" /><line x1="302.9" y1="633.0" x2="319.6" y2="621.0" /><line x1="331.9" y1="621.7" x2="331.1" y2="632.7" /><line x1="335.6" y1="621.2" x2="336.4" y2="632.2" /><line x1="340.1" y1="621.0" x2="340.9" y2="632.0" /><line x1="344.8" y1="621.4" x2="345.2" y2="632.4" /><line x1="330.0" y1="633.0" x2="346.5" y2="621.0" /><line x1="358.8" y1="621.6" x2="358.2" y2="632.6" /><line x1="363.2" y1="621.0" x2="362.8" y2="632.0" /><line x1="367.7" y1="621.1" x2="367.3" y2="632.1" /><line x1="371.7" y1="621.2" x2="372.3" y2="632.2" /><line x1="357.0" y1="633.0" x2="373.5" y2="621.0" /><line x1="385.5" y1="621.8" x2="385.5" y2="632.8" /><line x1="389.9" y1="621.5" x2="390.1" y2="632.5" /><line x1="394.4" y1="621.2" x2="394.6" y2="632.2" /><line x1="399.0" y1="621.2" x2="399.0" y2="632.2" /><line x1="384.2" y1="633.0" x2="400.3" y2="621.0" /><line x1="412.8" y1="621.9" x2="412.2" y2="632.9" /><line x1="416.9" y1="621.1" x2="417.1" y2="632.1" /><line x1="421.3" y1="621.1" x2="421.7" y2="632.1" /><line x1="425.7" y1="621.9" x2="426.3" y2="632.9" /><line x1="410.9" y1="633.0" x2="427.6" y2="621.0" /><line x1="439.8" y1="621.7" x2="439.2" y2="632.7" /><line x1="443.9" y1="621.4" x2="444.1" y2="632.4" /><line x1="448.6" y1="621.5" x2="448.4" y2="632.5" /><line x1="452.9" y1="621.6" x2="453.1" y2="632.6" /><line x1="437.7" y1="633.0" x2="454.8" y2="621.0" /><line x1="466.7" y1="621.4" x2="466.3" y2="632.4" /><line x1="471.2" y1="621.2" x2="470.8" y2="632.2" /><line x1="475.7" y1="621.6" x2="475.3" y2="632.6" /><line x1="479.7" y1="621.4" x2="480.3" y2="632.4" /><line x1="465.2" y1="633.0" x2="481.3" y2="621.0" /><line x1="493.8" y1="621.8" x2="493.2" y2="632.8" /><line x1="497.9" y1="621.6" x2="498.1" y2="632.6" /><line x1="502.6" y1="621.5" x2="502.4" y2="632.5" /><line x1="506.6" y1="621.6" x2="507.4" y2="632.6" /><line x1="492.3" y1="633.0" x2="508.2" y2="621.0" /><line x1="520.2" y1="621.0" x2="520.8" y2="632.0" /><line x1="524.7" y1="621.8" x2="525.3" y2="632.8" /><line x1="529.6" y1="621.6" x2="529.4" y2="632.6" /><line x1="533.9" y1="621.9" x2="534.1" y2="632.9" /><line x1="518.9" y1="633.0" x2="535.6" y2="621.0" /><line x1="277.1" y1="637.9" x2="277.9" y2="648.9" /><line x1="282.3" y1="637.7" x2="281.7" y2="648.7" /><line x1="286.5" y1="637.2" x2="286.5" y2="648.2" /><line x1="291.2" y1="637.3" x2="290.8" y2="648.3" /><line x1="275.8" y1="649.0" x2="292.7" y2="637.0" /><line x1="304.2" y1="638.0" x2="304.8" y2="649.0" /><line x1="308.6" y1="638.0" x2="309.4" y2="649.0" /><line x1="313.6" y1="637.7" x2="313.4" y2="648.7" /><line x1="317.6" y1="637.9" x2="318.4" y2="648.9" /><line x1="302.9" y1="649.0" x2="319.6" y2="637.0" /><line x1="331.8" y1="637.4" x2="331.2" y2="648.4" /><line x1="335.8" y1="637.8" x2="336.2" y2="648.8" /><line x1="340.6" y1="637.8" x2="340.4" y2="648.8" /><line x1="345.2" y1="637.2" x2="344.8" y2="648.2" /><line x1="329.8" y1="649.0" x2="346.7" y2="637.0" /><line x1="358.1" y1="637.6" x2="358.9" y2="648.6" /><line x1="363.2" y1="637.9" x2="362.8" y2="648.9" /><line x1="367.2" y1="637.2" x2="367.8" y2="648.2" /><line x1="371.7" y1="638.0" x2="372.3" y2="649.0" /><line x1="357.1" y1="649.0" x2="373.4" y2="637.0" /><line x1="385.4" y1="637.7" x2="385.6" y2="648.7" /><line x1="389.8" y1="637.7" x2="390.2" y2="648.7" /><line x1="394.1" y1="637.6" x2="394.9" y2="648.6" /><line x1="398.6" y1="637.3" x2="399.4" y2="648.3" /><line x1="384.0" y1="649.0" x2="400.5" y2="637.0" /><line x1="412.8" y1="637.2" x2="412.2" y2="648.2" /><line x1="416.7" y1="637.6" x2="417.3" y2="648.6" /><line x1="421.5" y1="637.4" x2="421.5" y2="648.4" /><line x1="425.9" y1="637.4" x2="426.1" y2="648.4" /><line x1="411.0" y1="649.0" x2="427.5" y2="637.0" /><line x1="439.5" y1="637.1" x2="439.5" y2="648.1" /><line x1="443.9" y1="637.4" x2="444.1" y2="648.4" /><line x1="448.5" y1="637.3" x2="448.5" y2="648.3" /><line x1="452.8" y1="637.8" x2="453.2" y2="648.8" /><line x1="438.0" y1="649.0" x2="454.5" y2="637.0" /><line x1="466.8" y1="637.8" x2="466.2" y2="648.8" /><line x1="471.4" y1="637.7" x2="470.6" y2="648.7" /><line x1="475.4" y1="637.1" x2="475.6" y2="648.1" /><line x1="480.1" y1="637.8" x2="479.9" y2="648.8" /><line x1="465.2" y1="649.0" x2="481.3" y2="637.0" /><line x1="493.3" y1="637.7" x2="493.7" y2="648.7" /><line x1="497.7" y1="637.7" x2="498.3" y2="648.7" /><line x1="502.5" y1="637.5" x2="502.5" y2="648.5" /><line x1="506.7" y1="637.8" x2="507.3" y2="648.8" /><line x1="492.0" y1="649.0" x2="508.5" y2="637.0" /><line x1="520.4" y1="637.2" x2="520.6" y2="648.2" /><line x1="525.3" y1="637.5" x2="524.7" y2="648.5" /><line x1="529.5" y1="637.6" x2="529.5" y2="648.6" /><line x1="534.1" y1="637.5" x2="533.9" y2="648.5" /><line x1="518.8" y1="649.0" x2="535.7" y2="637.0" /><line x1="277.5" y1="653.6" x2="277.5" y2="664.6" /><line x1="282.4" y1="653.7" x2="281.6" y2="664.7" /><line x1="286.3" y1="653.3" x2="286.7" y2="664.3" /><line x1="291.3" y1="653.4" x2="290.7" y2="664.4" /><line x1="276.1" y1="665.0" x2="292.4" y2="653.0" /><line x1="304.7" y1="653.1" x2="304.3" y2="664.1" /><line x1="308.9" y1="653.7" x2="309.1" y2="664.7" /><line x1="313.9" y1="653.1" x2="313.1" y2="664.1" /><line x1="317.7" y1="654.0" x2="318.3" y2="665.0" /><line x1="303.2" y1="665.0" x2="319.3" y2="653.0" /><line x1="331.7" y1="653.0" x2="331.3" y2="664.0" /><line x1="336.3" y1="654.0" x2="335.7" y2="665.0" /><line x1="340.3" y1="653.7" x2="340.7" y2="664.7" /><line x1="345.2" y1="653.2" x2="344.8" y2="664.2" /><line x1="330.2" y1="665.0" x2="346.3" y2="653.0" /><line x1="358.9" y1="653.2" x2="358.1" y2="664.2" /><line x1="363.2" y1="653.7" x2="362.8" y2="664.7" /><line x1="367.9" y1="653.1" x2="367.1" y2="664.1" /><line x1="371.9" y1="653.7" x2="372.1" y2="664.7" /><line x1="357.1" y1="665.0" x2="373.4" y2="653.0" /><line x1="385.2" y1="653.8" x2="385.8" y2="664.8" /><line x1="390.2" y1="653.3" x2="389.8" y2="664.3" /><line x1="394.3" y1="654.0" x2="394.7" y2="665.0" /><line x1="398.7" y1="653.7" x2="399.3" y2="664.7" /><line x1="384.0" y1="665.0" x2="400.5" y2="653.0" /><line x1="412.3" y1="653.4" x2="412.7" y2="664.4" /><line x1="417.4" y1="653.4" x2="416.6" y2="664.4" /><line x1="421.4" y1="653.5" x2="421.6" y2="664.5" /><line x1="426.0" y1="653.4" x2="426.0" y2="664.4" /><line x1="411.1" y1="665.0" x2="427.4" y2="653.0" /><line x1="439.3" y1="653.6" x2="439.7" y2="664.6" /><line x1="443.6" y1="653.5" x2="444.4" y2="664.5" /><line x1="448.2" y1="653.5" x2="448.8" y2="664.5" /><line x1="452.9" y1="653.9" x2="453.1" y2="664.9" /><line x1="438.1" y1="665.0" x2="454.4" y2="653.0" /><line x1="466.8" y1="654.0" x2="466.2" y2="665.0" /><line x1="471.3" y1="653.2" x2="470.7" y2="664.2" /><line x1="475.5" y1="653.7" x2="475.5" y2="664.7" /><line x1="480.1" y1="653.1" x2="479.9" y2="664.1" /><line x1="465.1" y1="665.0" x2="481.4" y2="653.0" /><line x1="493.4" y1="653.0" x2="493.6" y2="664.0" /><line x1="498.0" y1="653.3" x2="498.0" y2="664.3" /><line x1="502.4" y1="653.2" x2="502.6" y2="664.2" /><line x1="507.1" y1="653.8" x2="506.9" y2="664.8" /><line x1="492.1" y1="665.0" x2="508.4" y2="653.0" /><line x1="520.2" y1="653.0" x2="520.8" y2="664.0" /><line x1="524.7" y1="653.7" x2="525.3" y2="664.7" /><line x1="529.5" y1="653.8" x2="529.5" y2="664.8" /><line x1="533.8" y1="653.9" x2="534.2" y2="664.9" /><line x1="519.0" y1="665.0" x2="535.5" y2="653.0" /><line x1="277.7" y1="669.8" x2="277.3" y2="680.8" /><line x1="282.1" y1="669.5" x2="281.9" y2="680.5" /><line x1="286.2" y1="669.4" x2="286.8" y2="680.4" /><line x1="291.0" y1="669.8" x2="291.0" y2="680.8" /><line x1="275.9" y1="681.0" x2="292.6" y2="669.0" /><line x1="304.8" y1="669.7" x2="304.2" y2="680.7" /><line x1="309.3" y1="669.2" x2="308.7" y2="680.2" /><line x1="313.5" y1="669.0" x2="313.5" y2="680.0" /><line x1="318.3" y1="669.7" x2="317.7" y2="680.7" /><line x1="303.0" y1="681.0" x2="319.5" y2="669.0" /><line x1="331.3" y1="669.3" x2="331.7" y2="680.3" /><line x1="336.0" y1="669.3" x2="336.0" y2="680.3" /><line x1="340.6" y1="669.8" x2="340.4" y2="680.8" /><line x1="345.0" y1="669.5" x2="345.0" y2="680.5" /><line x1="330.2" y1="681.0" x2="346.3" y2="669.0" /><line x1="358.6" y1="669.1" x2="358.4" y2="680.1" /><line x1="362.7" y1="669.2" x2="363.3" y2="680.2" /><line x1="367.2" y1="669.2" x2="367.8" y2="680.2" /><line x1="371.8" y1="669.3" x2="372.2" y2="680.3" /><line x1="356.9" y1="681.0" x2="373.6" y2="669.0" /><line x1="385.9" y1="669.7" x2="385.1" y2="680.7" /><line x1="390.1" y1="669.7" x2="389.9" y2="680.7" /><line x1="394.6" y1="669.7" x2="394.4" y2="680.7" /><line x1="399.3" y1="669.5" x2="398.7" y2="680.5" /><line x1="383.7" y1="681.0" x2="400.8" y2="669.0" /><line x1="412.4" y1="669.2" x2="412.6" y2="680.2" /><line x1="417.1" y1="669.7" x2="416.9" y2="680.7" /><line x1="421.8" y1="669.8" x2="421.2" y2="680.8" /><line x1="425.6" y1="669.0" x2="426.4" y2="680.0" /><line x1="411.2" y1="681.0" x2="427.3" y2="669.0" /><line x1="439.3" y1="669.6" x2="439.7" y2="680.6" /><line x1="444.4" y1="669.5" x2="443.6" y2="680.5" /><line x1="448.2" y1="669.6" x2="448.8" y2="680.6" /><line x1="453.2" y1="669.8" x2="452.8" y2="680.8" /><line x1="438.2" y1="681.0" x2="454.3" y2="669.0" /><line x1="466.4" y1="670.0" x2="466.6" y2="681.0" /><line x1="470.9" y1="669.3" x2="471.1" y2="680.3" /><line x1="475.8" y1="669.9" x2="475.2" y2="680.9" /><line x1="480.3" y1="669.7" x2="479.7" y2="680.7" /><line x1="465.2" y1="681.0" x2="481.3" y2="669.0" /><line x1="493.4" y1="669.8" x2="493.6" y2="680.8" /><line x1="498.4" y1="669.8" x2="497.6" y2="680.8" /><line x1="502.1" y1="669.3" x2="502.9" y2="680.3" /><line x1="507.3" y1="669.3" x2="506.7" y2="680.3" /><line x1="492.0" y1="681.0" x2="508.5" y2="669.0" /><line x1="520.5" y1="670.0" x2="520.5" y2="681.0" /><line x1="524.7" y1="669.3" x2="525.3" y2="680.3" /><line x1="529.1" y1="669.6" x2="529.9" y2="680.6" /><line x1="533.6" y1="669.3" x2="534.4" y2="680.3" /><line x1="518.8" y1="681.0" x2="535.7" y2="669.0" /><line x1="277.4" y1="686.0" x2="277.6" y2="697.0" /><line x1="282.4" y1="685.2" x2="281.6" y2="696.2" /><line x1="286.6" y1="685.6" x2="286.4" y2="696.6" /><line x1="290.9" y1="685.8" x2="291.1" y2="696.8" /><line x1="276.1" y1="697.0" x2="292.4" y2="685.0" /><line x1="304.2" y1="685.3" x2="304.8" y2="696.3" /><line x1="309.1" y1="685.5" x2="308.9" y2="696.5" /><line x1="313.4" y1="685.4" x2="313.6" y2="696.4" /><line x1="317.9" y1="685.4" x2="318.1" y2="696.4" /><line x1="303.2" y1="697.0" x2="319.3" y2="685.0" /><line x1="331.5" y1="685.5" x2="331.5" y2="696.5" /><line x1="336.3" y1="685.6" x2="335.7" y2="696.6" /><line x1="340.1" y1="685.5" x2="340.9" y2="696.5" /><line x1="344.9" y1="685.1" x2="345.1" y2="696.1" /><line x1="330.3" y1="697.0" x2="346.2" y2="685.0" /><line x1="358.3" y1="685.2" x2="358.7" y2="696.2" /><line x1="363.3" y1="685.7" x2="362.7" y2="696.7" /><line x1="367.3" y1="685.9" x2="367.7" y2="696.9" /><line x1="372.3" y1="685.2" x2="371.7" y2="696.2" /><line x1="356.8" y1="697.0" x2="373.7" y2="685.0" /><line x1="385.5" y1="685.4" x2="385.5" y2="696.4" /><line x1="390.2" y1="686.0" x2="389.8" y2="697.0" /><line x1="394.7" y1="685.4" x2="394.3" y2="696.4" /><line x1="398.9" y1="685.8" x2="399.1" y2="696.8" /><line x1="384.0" y1="697.0" x2="400.5" y2="685.0" /><line x1="412.6" y1="685.8" x2="412.4" y2="696.8" /><line x1="417.0" y1="685.2" x2="417.0" y2="696.2" /><line x1="421.4" y1="685.7" x2="421.6" y2="696.7" /><line x1="425.7" y1="685.3" x2="426.3" y2="696.3" /><line x1="411.2" y1="697.0" x2="427.3" y2="685.0" /><line x1="439.2" y1="685.5" x2="439.8" y2="696.5" /><line x1="444.1" y1="685.7" x2="443.9" y2="696.7" /><line x1="448.5" y1="685.8" x2="448.5" y2="696.8" /><line x1="453.3" y1="685.5" x2="452.7" y2="696.5" /><line x1="438.1" y1="697.0" x2="454.4" y2="685.0" /><line x1="466.6" y1="685.3" x2="466.4" y2="696.3" /><line x1="471.2" y1="685.4" x2="470.8" y2="696.4" /><line x1="475.5" y1="685.4" x2="475.5" y2="696.4" /><line x1="479.7" y1="685.8" x2="480.3" y2="696.8" /><line x1="465.2" y1="697.0" x2="481.3" y2="685.0" /><line x1="493.4" y1="686.0" x2="493.6" y2="697.0" /><line x1="497.9" y1="685.9" x2="498.1" y2="696.9" /><line x1="502.3" y1="686.0" x2="502.7" y2="697.0" /><line x1="507.3" y1="686.0" x2="506.7" y2="697.0" /><line x1="492.2" y1="697.0" x2="508.3" y2="685.0" /><line x1="520.3" y1="685.6" x2="520.7" y2="696.6" /><line x1="525.3" y1="685.3" x2="524.7" y2="696.3" /><line x1="529.1" y1="685.3" x2="529.9" y2="696.3" /><line x1="534.2" y1="685.4" x2="533.8" y2="696.4" /><line x1="518.9" y1="697.0" x2="535.6" y2="685.0" /><line x1="277.2" y1="701.8" x2="277.8" y2="712.8" /><line x1="281.8" y1="701.7" x2="282.2" y2="712.7" /><line x1="286.5" y1="701.8" x2="286.5" y2="712.8" /><line x1="290.7" y1="701.2" x2="291.3" y2="712.2" /><line x1="275.9" y1="713.0" x2="292.6" y2="701.0" /><line x1="304.9" y1="701.4" x2="304.1" y2="712.4" /><line x1="309.2" y1="701.8" x2="308.8" y2="712.8" /><line x1="313.9" y1="701.7" x2="313.1" y2="712.7" /><line x1="317.9" y1="701.1" x2="318.1" y2="712.1" /><line x1="303.2" y1="713.0" x2="319.3" y2="701.0" /><line x1="331.4" y1="701.7" x2="331.6" y2="712.7" /><line x1="335.9" y1="701.8" x2="336.1" y2="712.8" /><line x1="340.2" y1="701.1" x2="340.8" y2="712.1" /><line x1="345.2" y1="701.4" x2="344.8" y2="712.4" /><line x1="329.9" y1="713.0" x2="346.6" y2="701.0" /><line x1="358.4" y1="701.6" x2="358.6" y2="712.6" /><line x1="363.1" y1="701.7" x2="362.9" y2="712.7" /><line x1="367.7" y1="701.4" x2="367.3" y2="712.4" /><line x1="371.7" y1="701.3" x2="372.3" y2="712.3" /><line x1="357.0" y1="713.0" x2="373.5" y2="701.0" /><line x1="385.6" y1="701.9" x2="385.4" y2="712.9" /><line x1="390.3" y1="701.5" x2="389.7" y2="712.5" /><line x1="394.1" y1="701.5" x2="394.9" y2="712.5" /><line x1="399.3" y1="701.1" x2="398.7" y2="712.1" /><line x1="384.0" y1="713.0" x2="400.5" y2="701.0" /><line x1="412.7" y1="701.5" x2="412.3" y2="712.5" /><line x1="417.4" y1="701.9" x2="416.6" y2="712.9" /><line x1="421.9" y1="701.7" x2="421.1" y2="712.7" /><line x1="425.7" y1="701.1" x2="426.3" y2="712.1" /><line x1="410.7" y1="713.0" x2="427.8" y2="701.0" /><line x1="439.5" y1="701.9" x2="439.5" y2="712.9" /><line x1="444.3" y1="701.5" x2="443.7" y2="712.5" /><line x1="448.9" y1="701.7" x2="448.1" y2="712.7" /><line x1="453.3" y1="701.3" x2="452.7" y2="712.3" /><line x1="438.0" y1="713.0" x2="454.5" y2="701.0" /><line x1="466.5" y1="701.7" x2="466.5" y2="712.7" /><line x1="471.1" y1="702.0" x2="470.9" y2="713.0" /><line x1="475.1" y1="701.0" x2="475.9" y2="712.0" /><line x1="480.2" y1="701.5" x2="479.8" y2="712.5" /><line x1="465.0" y1="713.0" x2="481.5" y2="701.0" /><line x1="493.3" y1="701.1" x2="493.7" y2="712.1" /><line x1="497.6" y1="701.2" x2="498.4" y2="712.2" /><line x1="502.2" y1="701.6" x2="502.8" y2="712.6" /><line x1="506.7" y1="701.2" x2="507.3" y2="712.2" /><line x1="492.1" y1="713.0" x2="508.4" y2="701.0" /><line x1="520.8" y1="701.0" x2="520.2" y2="712.0" /><line x1="524.6" y1="701.0" x2="525.4" y2="712.0" /><line x1="529.5" y1="701.9" x2="529.5" y2="712.9" /><line x1="533.6" y1="701.5" x2="534.4" y2="712.5" /><line x1="519.0" y1="713.0" x2="535.5" y2="701.0" /><line x1="260.0" y1="717.0" x2="556.0" y2="717.0" /></g><g id="03_Gold_Ballot" inkscape:groupmode="layer" inkscape:label="03_Gold_Ballot" stroke="#B8960C" fill="none" stroke-width="1" stroke-linecap="round" stroke-linejoin="round"><line x1="439.1" y1="539.9" x2="453.4" y2="554.1" /><line x1="453.4" y1="539.9" x2="439.1" y2="554.1" /><polyline points="457.4,547.0 457.0,549.9 455.9,552.6 454.1,554.9 451.8,556.7 449.1,557.8 446.2,558.1 443.4,557.8 440.7,556.7 438.4,554.9 436.6,552.6 435.5,549.9 435.1,547.0 435.5,544.1 436.6,541.4 438.4,539.1 440.7,537.3 443.4,536.2 446.2,535.9 449.1,536.2 451.8,537.3 454.1,539.1 455.9,541.4 457.0,544.1 457.4,547.0" /></g></svg>