<?xml version='1.0' encoding='utf-8'?>
<svg xmlns="http://www.w3.org/2000/svg" xmlns:inkscape="http://www.inkscape.org/namespaces/inkscape" viewBox="204 228 408 600"><style>*{vector-effect:non-scaling-stroke}</style><g id="01_Black_Frame" inkscape:groupmode="layer" inkscape:label="01_Black_Frame" stroke="#1A1A1A" fill="none" stroke-width="0.875" stroke-linecap="round" stroke-linejoin="round"><path d="M 250.0,264.0 L 566.0,264.0 Q 576.0,264.0 576.0,274.0 L 576.0,782.0 Q 576.0,792.0 566.0,792.0 L 250.0,792.0 Q 240.0,792.0 240.0,782.0 L 240.0,274.0 Q 240.0,264.0 250.0,264.0" /><path d="M 253.0,270.0 L 563.0,270.0 Q 570.0,270.0 570.0,277.0 L 570.0,779.0 Q 570.0,786.0 563.0,786.0 L 253.0,786.0 Q 246.0,786.0 246.0,779.0 L 246.0,277.0 Q 246.0,270.0 253.0,270.0" /><line x1="259.0" y1="280.0" x2="263.0" y2="280.0" /><line x1="258.1" y1="282.1" x2="260.9" y2="284.9" /><line x1="256.0" y1="283.0" x2="256.0" y2="287.0" /><line x1="253.9" y1="282.1" x2="251.1" y2="284.9" /><line x1="253.0" y1="280.0" x2="249.0" y2="280.0" /><line x1="253.9" y1="277.9" x2="251.1" y2="275.1" /><line x1="256.0" y1="277.0" x2="256.0" y2="273.0" /><line x1="258.1" y1="277.9" x2="260.9" y2="275.1" /><line x1="563.0" y1="280.0" x2="567.0" y2="280.0" /><line x1="562.1" y1="282.1" x2="564.9" y2="284.9" /><line x1="560.0" y1="283.0" x2="560.0" y2="287.0" /><line x1="557.9" y1="282.1" x2="555.1" y2="284.9" /><line x1="557.0" y1="280.0" x2="553.0" y2="280.0" /><line x1="557.9" y1="277.9" x2="555.1" y2="275.1" /><line x1="560.0" y1="277.0" x2="560.0" y2="273.0" /><line x1="562.1" y1="277.9" x2="564.9" y2="275.1" /><line x1="259.0" y1="776.0" x2="263.0" y2="776.0" /><line x1="258.1" y1="778.1" x2="260.9" y2="780.9" /><line x1="256.0" y1="779.0" x2="256.0" y2="783.0" /><line x1="253.9" y1="778.1" x2="251.1" y2="780.9" /><line x1="253.0" y1="776.0" x2="249.0" y2="776.0" /><line x1="253.9" y1="773.9" x2="251.1" y2="771.1" /><line x1="256.0" y1="773.0" x2="256.0" y2="769.0" /><line x1="258.1" y1="773.9" x2="260.9" y2="771.1" /><line x1="563.0" y1="776.0" x2="567.0" y2="776.0" /><line x1="562.1" y1="778.1" x2="564.9" y2="780.9" /><line x1="560.0" y1="779.0" x2="560.0" y2="783.0" /><line x1="557.9" y1="778.1" x2="555.1" y2="780.9" /><line x1="557.0" y1="776.0" x2="553.0" y2="776.0" /><line x1="557.9" y1="773.9" x2="555.1" y2="771.1" /><line x1="560.0" y1="773.0" x2="560.0" y2="769.0" /><line x1="562.1" y1="773.9" x2="564.9" y2="771.1" /><polyline points="401.00,283.20 399.25,282.00 398.25,282.00 396.50,283.60 396.50,288.40 398.25,290.00 399.25,290.00 401.00,288.80" /><polyline points="402.25,282.00 407.25,290.00" /><polyline points="407.25,282.00 402.25,290.00" /><polyline points="408.00,282.00 408.00,290.00 412.25,290.00" /><polyline points="413.75,282.00 416.25,290.00 418.75,282.00" /><polyline points="366.89,297.00 373.39,297.00" /><polyline points="370.14,297.00 370.14,307.00" /><polyline points="374.36,297.00 374.36,307.00" /><polyline points="380.86,297.00 380.86,307.00" /><polyline points="374.36,301.80 380.86,301.80" /><polyline points="387.36,297.00 381.84,297.00 381.84,301.80 385.74,301.80" /><polyline points="381.84,301.80 381.84,307.00 387.36,307.00" /><polyline points="396.79,307.00 396.79,297.00 401.01,297.00 402.64,298.50 402.64,300.20 401.01,301.50 396.79,301.50" /><polyline points="404.26,307.00 407.51,297.00 410.76,307.00" /><polyline points="405.43,303.50 409.59,303.50" /><polyline points="417.26,298.00 415.64,297.00 413.69,297.00 412.06,298.50 411.74,300.00 412.71,301.20 414.99,302.00 417.26,302.80 418.24,304.00 417.91,305.50 416.29,307.00 414.01,307.00 412.39,306.00" /><polyline points="424.74,298.00 423.11,297.00 421.16,297.00 419.54,298.50 419.21,300.00 420.19,301.20 422.46,302.00 424.74,302.80 425.71,304.00 425.39,305.50 423.76,307.00 421.49,307.00 419.86,306.00" /><polyline points="426.69,307.00 429.94,297.00 433.19,307.00" /><polyline points="427.86,303.50 432.02,303.50" /><polyline points="440.01,298.50 437.74,297.00 436.44,297.00 434.16,299.00 434.16,305.00 436.44,307.00 437.74,307.00 440.01,305.50 440.01,302.00 437.41,302.00" /><polyline points="447.16,297.00 441.64,297.00 441.64,301.80 445.54,301.80" /><polyline points="441.64,301.80 441.64,307.00 447.16,307.00" /><line x1="270.0" y1="312.0" x2="546.0" y2="312.0" /><line x1="270.0" y1="732.0" x2="546.0" y2="732.0" /><polyline points="378.18,741.20 377.48,740.75 376.64,740.75 375.94,741.42 375.80,742.10 376.22,742.64 377.20,743.00 378.18,743.36 378.60,743.90 378.46,744.58 377.76,745.25 376.78,745.25 376.08,744.80" /><polyline points="379.02,740.75 381.82,740.75" /><polyline points="380.42,740.75 380.42,745.25" /><polyline points="382.24,745.25 382.24,740.75 384.06,740.75 384.76,741.42 384.76,742.19 384.06,742.77 382.24,742.77 384.76,745.25" /><polyline points="385.46,745.25 386.86,740.75 388.26,745.25" /><polyline points="385.96,743.67 387.76,743.67" /><polyline points="390.08,740.75 390.08,745.25" /><polyline points="391.90,740.75 394.70,740.75" /><polyline points="393.30,740.75 393.30,745.25" /><polyline points="401.56,740.75 401.56,745.25" /><polyline points="404.36,740.75 404.36,745.25" /><polyline points="401.56,742.91 404.36,742.91" /><polyline points="406.18,740.75 405.06,741.20 404.78,742.10 404.78,743.90 405.06,744.80 406.18,745.25 407.30,744.80 407.58,743.90 407.58,742.10 407.30,741.20 406.18,740.75" /><polyline points="408.00,745.25 408.00,740.75 410.80,745.25 410.80,740.75" /><polyline points="412.62,740.75 411.50,741.20 411.22,742.10 411.22,743.90 411.50,744.80 412.62,745.25 413.74,744.80 414.02,743.90 414.02,742.10 413.74,741.20 412.62,740.75" /><polyline points="414.44,745.25 414.44,740.75 416.26,740.75 416.96,741.42 416.96,742.19 416.26,742.77 414.44,742.77 416.96,745.25" /><polyline points="424.10,745.25 424.10,740.75 425.50,743.23 426.90,740.75 426.90,745.25" /><polyline points="428.72,740.75 428.72,745.25" /><polyline points="430.54,745.25 430.54,740.75 433.34,745.25 433.34,740.75" /><polyline points="436.14,740.75 433.76,740.75 433.76,742.91 435.44,742.91" /><polyline points="433.76,742.91 433.76,745.25 436.14,745.25" /><polyline points="439.36,741.20 438.66,740.75 437.82,740.75 437.12,741.42 436.98,742.10 437.40,742.64 438.38,743.00 439.36,743.36 439.78,743.90 439.64,744.58 438.94,745.25 437.96,745.25 437.26,744.80" /><polyline points="353.38,760.75 353.38,753.25 356.62,753.25 357.62,754.15 357.62,755.35 356.62,756.25 353.38,756.25 356.62,756.25 357.62,757.15 357.62,759.85 356.62,760.75 353.38,760.75" /><polyline points="363.38,753.25 359.12,753.25 359.12,756.85 362.12,756.85" /><polyline points="359.12,756.85 359.12,760.75 363.38,760.75" /><polyline points="369.12,753.25 364.88,753.25 364.88,756.85 367.88,756.85" /><polyline points="364.88,756.85 364.88,760.75" /><polyline points="373.12,753.25 371.12,754.00 370.62,755.50 370.62,758.50 371.12,760.00 373.12,760.75 375.12,760.00 375.62,758.50 375.62,755.50 375.12,754.00 373.12,753.25" /><polyline points="376.38,760.75 376.38,753.25 379.62,753.25 380.88,754.38 380.88,755.65 379.62,756.62 376.38,756.62 380.88,760.75" /><polyline points="386.38,753.25 382.12,753.25 382.12,756.85 385.12,756.85" /><polyline points="382.12,756.85 382.12,760.75 386.38,760.75" /><polyline points="393.62,753.25 398.62,753.25" /><polyline points="396.12,753.25 396.12,760.75" /><polyline points="399.38,753.25 399.38,760.75" /><polyline points="404.38,753.25 404.38,760.75" /><polyline points="399.38,756.85 404.38,756.85" /><polyline points="409.38,753.25 405.12,753.25 405.12,756.85 408.12,756.85" /><polyline points="405.12,756.85 405.12,760.75 409.38,760.75" /><polyline points="416.62,760.75 416.62,753.25 419.88,753.25 420.88,754.15 420.88,755.35 419.88,756.25 416.62,756.25 419.88,756.25 420.88,757.15 420.88,759.85 419.88,760.75 416.62,760.75" /><polyline points="424.88,753.25 424.88,760.75" /><polyline points="428.12,760.75 428.12,753.25 431.38,753.25 432.62,754.38 432.62,755.65 431.38,756.62 428.12,756.62 432.62,760.75" /><polyline points="433.88,753.25 438.88,753.25" /><polyline points="436.38,753.25 436.38,760.75" /><polyline points="439.62,753.25 439.62,760.75" /><polyline points="444.62,753.25 444.62,760.75" /><polyline points="439.62,756.85 444.62,756.85" /><polyline points="445.38,760.75 445.38,753.25 448.12,753.25 449.88,755.12 449.88,758.88 448.12,760.75 445.38,760.75" /><polyline points="451.12,760.75 453.62,753.25 456.12,760.75" /><polyline points="452.02,758.12 455.23,758.12" /><polyline points="456.88,753.25 459.38,757.00 461.88,753.25" /><polyline points="459.38,757.00 459.38,760.75" /><polyline points="369.38,767.38 367.62,766.25 366.62,766.25 364.88,767.75 364.88,772.25 366.62,773.75 367.62,773.75 369.38,772.62" /><polyline points="370.62,766.25 370.62,773.75 374.88,773.75" /><polyline points="380.62,766.25 376.38,766.25 376.38,769.85 379.38,769.85" /><polyline points="376.38,769.85 376.38,773.75 380.62,773.75" /><polyline points="382.12,773.75 384.62,766.25 387.12,773.75" /><polyline points="383.02,771.12 386.23,771.12" /><polyline points="387.88,773.75 387.88,766.25 391.12,766.25 392.38,767.38 392.38,768.65 391.12,769.62 387.88,769.62 392.38,773.75" /><polyline points="399.38,766.25 404.38,766.25" /><polyline points="401.88,766.25 401.88,773.75" /><polyline points="405.12,766.25 405.12,773.75" /><polyline points="410.12,766.25 410.12,773.75" /><polyline points="405.12,769.85 410.12,769.85" /><polyline points="415.12,766.25 410.88,766.25 410.88,769.85 413.88,769.85" /><polyline points="410.88,769.85 410.88,773.75 415.12,773.75" /><polyline points="422.38,766.25 423.62,773.75 424.88,768.88 426.12,773.75 427.38,766.25" /><polyline points="428.12,773.75 430.62,766.25 433.12,773.75" /><polyline points="429.02,771.12 432.23,771.12" /><polyline points="433.88,766.25 438.88,766.25" /><polyline points="436.38,766.25 436.38,773.75" /><polyline points="443.88,766.25 439.62,766.25 439.62,769.85 442.62,769.85" /><polyline points="439.62,769.85 439.62,773.75 443.88,773.75" /><polyline points="445.38,773.75 445.38,766.25 448.62,766.25 449.88,767.38 449.88,768.65 448.62,769.62 445.38,769.62 449.88,773.75" /><polyline points="385.92,779.50 387.52,784.50 389.12,779.50" /><polyline points="391.20,784.00 391.20,784.25" /><polyline points="393.28,779.50 396.48,784.50" /><polyline points="396.48,779.50 393.28,784.50" /><polyline points="396.96,779.50 400.16,784.50" /><polyline points="400.16,779.50 396.96,784.50" /><polyline points="400.64,779.50 402.24,784.50 403.84,779.50" /><polyline points="405.92,784.00 405.92,784.25" /><polyline points="408.00,784.50 408.00,779.50 409.60,782.25 411.20,779.50 411.20,784.50" /><polyline points="411.68,784.50 411.68,779.50 413.28,782.25 414.88,779.50 414.88,784.50" /><polyline points="415.36,779.50 418.56,784.50" /><polyline points="418.56,779.50 415.36,784.50" /><polyline points="419.04,779.50 422.24,784.50" /><polyline points="422.24,779.50 419.04,784.50" /><polyline points="422.72,779.50 424.32,784.50 425.92,779.50" /><polyline points="428.00,779.50 428.00,784.50" /></g><g id="02_Teal_Land" inkscape:groupmode="layer" inkscape:label="02_Teal_Land" stroke="#3A7A7A" fill="none" stroke-width="0.75" stroke-linecap="round" stroke-linejoin="round"><path d="M 386.33,319.00 L 386.44,323.12 L 386.52,327.24 L 386.25,331.36 L 385.80,335.48 L 384.48,339.61 L 383.18,343.73 L 382.36,347.85 L 381.75,351.97 L 381.44,356.09 L 381.98,360.21 L 382.46,364.33 L 382.22,368.45 L 381.62,372.58 L 380.73,376.70 L 379.66,380.82 L 378.43,384.94 L 377.33,389.06 L 376.41,393.18 L 375.80,397.30 L 374.94,401.42 L 374.62,405.55 L 374.61,409.67 L 374.92,413.79 L 374.92,417.91 L 374.92,422.03 L 375.06,426.15 L 375.18,430.27 L 375.67,434.39 L 376.13,438.52 L 377.06,442.64 L 377.52,446.76 L 378.09,450.88 L 378.77,455.00 L 379.81,459.12 L 380.81,463.24 L 382.00,467.36 L 383.10,471.48 L 383.37,475.61 L 383.16,479.73 L 382.05,483.85 L 380.65,487.97 L 378.88,492.09 L 377.75,496.21 L 377.15,500.33 L 376.82,504.45 L 376.84,508.58 L 377.02,512.70 L 376.93,516.82 L 377.14,520.94 L 377.45,525.06 L 377.43,529.18 L 376.98,533.30 L 376.45,537.42 L 375.55,541.55 L 375.12,545.67 L 374.62,549.79 L 374.87,553.91 L 375.42,558.03 L 375.88,562.15 L 376.43,566.27 L 377.08,570.39 L 377.67,574.52 L 378.33,578.64 L 378.92,582.76 L 378.72,586.88 L 379.26,591.00 L 379.15,595.12 L 379.12,599.24 L 379.21,603.36 L 379.21,607.48 L 378.37,611.61 L 378.13,615.73 L 377.21,619.85 L 376.07,623.97 L 375.35,628.09 L 375.10,632.21 L 374.79,636.33 L 374.71,640.45 L 374.71,644.58 L 375.14,648.70 L 375.25,652.82 L 374.98,656.94 L 374.91,661.06 L 375.10,665.18 L 374.83,669.30 L 374.62,673.42 L 374.88,677.55 L 374.77,681.67 L 374.58,685.79 L 374.90,689.91 L 375.75,694.03 L 376.37,698.15 L 377.71,702.27 L 378.69,706.39 L 378.77,710.52 L 378.38,714.64 L 378.15,718.76 L 379.21,722.88 L 380.63,727.00" fill="none" stroke-width="1.5" /><path d="M 431.06,319.00 L 432.09,323.12 L 433.52,327.24 L 434.85,331.36 L 435.33,335.48 L 435.72,339.61 L 435.53,343.73 L 435.40,347.85 L 435.84,351.97 L 436.52,356.09 L 437.33,360.21 L 438.57,364.33 L 439.66,368.45 L 440.07,372.58 L 440.61,376.70 L 440.74,380.82 L 440.66,384.94 L 440.27,389.06 L 440.15,393.18 L 440.03,397.30 L 439.57,401.42 L 439.63,405.55 L 439.94,409.67 L 440.07,413.79 L 440.32,417.91 L 441.06,422.03 L 441.22,426.15 L 441.30,430.27 L 441.38,434.39 L 441.15,438.52 L 441.03,442.64 L 440.61,446.76 L 439.90,450.88 L 439.04,455.00 L 438.17,459.12 L 436.89,463.24 L 435.83,467.36 L 434.58,471.48 L 433.40,475.61 L 432.71,479.73 L 432.32,483.85 L 432.45,487.97 L 432.49,492.09 L 433.03,496.21 L 433.19,500.33 L 433.31,504.45 L 433.23,508.58 L 433.19,512.70 L 433.02,516.82 L 433.08,520.94 L 432.61,525.06 L 432.37,529.18 L 432.34,533.30 L 432.16,537.42 L 432.23,541.55 L 432.83,545.67 L 433.22,549.79 L 433.26,553.91 L 433.78,558.03 L 433.63,562.15 L 432.89,566.27 L 432.33,570.39 L 431.83,574.52 L 431.33,578.64 L 431.08,582.76 L 431.34,586.88 L 431.54,591.00 L 432.35,595.12 L 433.16,599.24 L 434.44,603.36 L 436.20,607.48 L 437.41,611.61 L 438.44,615.73 L 438.79,619.85 L 438.38,623.97 L 437.95,628.09 L 437.45,632.21 L 437.43,636.33 L 437.66,640.45 L 438.42,644.58 L 438.58,648.70 L 438.93,652.82 L 438.96,656.94 L 439.13,661.06 L 438.80,665.18 L 438.60,669.30 L 438.59,673.42 L 438.75,677.55 L 439.08,681.67 L 439.58,685.79 L 439.69,689.91 L 440.21,694.03 L 440.00,698.15 L 439.30,702.27 L 438.70,706.39 L 438.16,710.52 L 436.75,714.64 L 435.64,718.76 L 434.01,722.88 L 432.46,727.00" fill="none" stroke-width="1.5" /><line x1="255.00" y1="321.79" x2="384.89" y2="322.21" /><line x1="433.26" y1="321.79" x2="561.00" y2="322.21" /><line x1="255.00" y1="323.79" x2="384.98" y2="324.21" /><line x1="433.87" y1="323.79" x2="561.00" y2="324.21" /><line x1="255.00" y1="325.79" x2="385.03" y2="326.21" /><line x1="434.57" y1="325.79" x2="561.00" y2="326.21" /><line x1="255.00" y1="327.79" x2="384.99" y2="328.21" /><line x1="435.31" y1="327.79" x2="561.00" y2="328.21" /><line x1="255.00" y1="329.79" x2="384.85" y2="330.21" /><line x1="435.99" y1="329.79" x2="561.00" y2="330.21" /><line x1="255.00" y1="331.79" x2="384.70" y2="332.21" /><line x1="436.47" y1="331.79" x2="561.00" y2="332.21" /><line x1="255.00" y1="333.79" x2="384.54" y2="334.21" /><line x1="436.70" y1="333.79" x2="561.00" y2="334.21" /><line x1="255.00" y1="335.79" x2="384.18" y2="336.21" /><line x1="436.88" y1="335.79" x2="561.00" y2="336.21" /><line x1="255.00" y1="337.79" x2="383.56" y2="338.21" /><line x1="437.11" y1="337.79" x2="561.00" y2="338.21" /><line x1="255.00" y1="339.79" x2="382.84" y2="340.21" /><line x1="437.23" y1="339.79" x2="561.00" y2="340.21" /><line x1="255.00" y1="341.79" x2="382.17" y2="342.21" /><line x1="437.16" y1="341.79" x2="561.00" y2="342.21" /><line x1="255.00" y1="343.79" x2="381.61" y2="344.21" /><line x1="437.01" y1="343.79" x2="561.00" y2="344.21" /><line x1="255.00" y1="345.79" x2="381.18" y2="346.21" /><line x1="436.90" y1="345.79" x2="561.00" y2="346.21" /><line x1="255.00" y1="347.79" x2="380.84" y2="348.21" /><line x1="436.91" y1="347.79" x2="561.00" y2="348.21" /><line x1="255.00" y1="349.79" x2="380.53" y2="350.21" /><line x1="437.07" y1="349.79" x2="561.00" y2="350.21" /><line x1="255.00" y1="351.79" x2="380.25" y2="352.21" /><line x1="437.34" y1="351.79" x2="561.00" y2="352.21" /><line x1="255.00" y1="353.79" x2="380.01" y2="354.21" /><line x1="437.66" y1="353.79" x2="561.00" y2="354.21" /><line x1="255.00" y1="355.79" x2="379.94" y2="356.21" /><line x1="438.00" y1="355.79" x2="561.00" y2="356.21" /><line x1="255.00" y1="357.79" x2="380.12" y2="358.21" /><line x1="438.36" y1="357.79" x2="561.00" y2="358.21" /><line x1="255.00" y1="359.79" x2="380.44" y2="360.21" /><line x1="438.78" y1="359.79" x2="561.00" y2="360.21" /><line x1="255.00" y1="361.79" x2="380.76" y2="362.21" /><line x1="439.33" y1="361.79" x2="561.00" y2="362.21" /><line x1="255.00" y1="363.79" x2="380.95" y2="364.21" /><line x1="439.96" y1="363.79" x2="561.00" y2="364.21" /><line x1="255.00" y1="365.79" x2="380.94" y2="366.21" /><line x1="440.58" y1="365.79" x2="561.00" y2="366.21" /><line x1="255.00" y1="367.79" x2="380.77" y2="368.21" /><line x1="441.08" y1="367.79" x2="561.00" y2="368.21" /><line x1="255.00" y1="369.79" x2="380.53" y2="370.21" /><line x1="441.35" y1="369.79" x2="561.00" y2="370.21" /><line x1="255.00" y1="371.79" x2="380.23" y2="372.21" /><line x1="441.51" y1="371.79" x2="561.00" y2="372.21" /><line x1="255.00" y1="373.79" x2="379.84" y2="374.21" /><line x1="441.75" y1="373.79" x2="561.00" y2="374.21" /><line x1="255.00" y1="375.79" x2="379.40" y2="376.21" /><line x1="442.03" y1="375.79" x2="561.00" y2="376.21" /><line x1="255.00" y1="377.79" x2="378.91" y2="378.21" /><line x1="442.19" y1="377.79" x2="561.00" y2="378.21" /><line x1="255.00" y1="379.79" x2="378.39" y2="380.21" /><line x1="442.24" y1="379.79" x2="561.00" y2="380.21" /><line x1="255.00" y1="381.79" x2="377.81" y2="382.21" /><line x1="442.24" y1="381.79" x2="561.00" y2="382.21" /><line x1="255.00" y1="383.79" x2="377.21" y2="384.21" /><line x1="442.21" y1="383.79" x2="561.00" y2="384.21" /><line x1="255.00" y1="385.79" x2="376.63" y2="386.21" /><line x1="442.08" y1="385.79" x2="561.00" y2="386.21" /><line x1="255.00" y1="387.79" x2="376.10" y2="388.21" /><line x1="441.87" y1="387.79" x2="561.00" y2="388.21" /><line x1="255.00" y1="389.79" x2="375.60" y2="390.21" /><line x1="441.71" y1="389.79" x2="561.00" y2="390.21" /><line x1="255.00" y1="391.79" x2="375.13" y2="392.21" /><line x1="441.66" y1="391.79" x2="561.00" y2="392.21" /><line x1="255.00" y1="393.79" x2="374.78" y2="394.21" /><line x1="441.65" y1="393.79" x2="561.00" y2="394.21" /><line x1="255.00" y1="395.79" x2="374.51" y2="396.21" /><line x1="441.61" y1="395.79" x2="561.00" y2="396.21" /><line x1="255.00" y1="397.79" x2="374.16" y2="398.21" /><line x1="441.46" y1="397.79" x2="561.00" y2="398.21" /><line x1="255.00" y1="399.79" x2="373.71" y2="400.21" /><line x1="441.21" y1="399.79" x2="561.00" y2="400.21" /><line x1="255.00" y1="401.79" x2="373.36" y2="402.21" /><line x1="441.04" y1="401.79" x2="561.00" y2="402.21" /><line x1="255.00" y1="403.79" x2="373.18" y2="404.21" /><line x1="441.04" y1="403.79" x2="561.00" y2="404.21" /><line x1="255.00" y1="405.79" x2="373.11" y2="406.21" /><line x1="441.17" y1="405.79" x2="561.00" y2="406.21" /><line x1="255.00" y1="407.79" x2="373.07" y2="408.21" /><line x1="441.32" y1="407.79" x2="561.00" y2="408.21" /><line x1="255.00" y1="409.79" x2="373.13" y2="410.21" /><line x1="441.46" y1="409.79" x2="561.00" y2="410.21" /><line x1="255.00" y1="411.79" x2="373.29" y2="412.21" /><line x1="441.53" y1="411.79" x2="561.00" y2="412.21" /><line x1="255.00" y1="413.79" x2="373.43" y2="414.21" /><line x1="441.57" y1="413.79" x2="561.00" y2="414.21" /><line x1="255.00" y1="415.79" x2="373.45" y2="416.21" /><line x1="441.64" y1="415.79" x2="561.00" y2="416.21" /><line x1="255.00" y1="417.79" x2="373.42" y2="418.21" /><line x1="441.83" y1="417.79" x2="561.00" y2="418.21" /><line x1="255.00" y1="419.79" x2="373.40" y2="420.21" /><line x1="442.21" y1="419.79" x2="561.00" y2="420.21" /><line x1="255.00" y1="421.79" x2="373.42" y2="422.21" /><line x1="442.56" y1="421.79" x2="561.00" y2="422.21" /><line x1="255.00" y1="423.79" x2="373.49" y2="424.21" /><line x1="442.70" y1="423.79" x2="561.00" y2="424.21" /><line x1="255.00" y1="425.79" x2="373.56" y2="426.21" /><line x1="442.72" y1="425.79" x2="561.00" y2="426.21" /><line x1="255.00" y1="427.79" x2="373.59" y2="428.21" /><line x1="442.74" y1="427.79" x2="561.00" y2="428.21" /><line x1="255.00" y1="429.79" x2="373.66" y2="430.21" /><line x1="442.79" y1="429.79" x2="561.00" y2="430.21" /><line x1="255.00" y1="431.79" x2="373.87" y2="432.21" /><line x1="442.86" y1="431.79" x2="561.00" y2="432.21" /><line x1="255.00" y1="433.79" x2="374.13" y2="434.21" /><line x1="442.89" y1="433.79" x2="561.00" y2="434.21" /><line x1="255.00" y1="435.79" x2="374.32" y2="436.21" /><line x1="442.81" y1="435.79" x2="561.00" y2="436.21" /><line x1="255.00" y1="437.79" x2="374.55" y2="438.21" /><line x1="442.68" y1="437.79" x2="561.00" y2="438.21" /><line x1="255.00" y1="439.79" x2="374.96" y2="440.21" /><line x1="442.61" y1="439.79" x2="561.00" y2="440.21" /><line x1="255.00" y1="441.79" x2="375.44" y2="442.21" /><line x1="442.56" y1="441.79" x2="561.00" y2="442.21" /><line x1="255.00" y1="443.79" x2="375.76" y2="444.21" /><line x1="442.43" y1="443.79" x2="561.00" y2="444.21" /><line x1="255.00" y1="445.79" x2="375.95" y2="446.21" /><line x1="442.21" y1="445.79" x2="561.00" y2="446.21" /><line x1="255.00" y1="447.79" x2="376.17" y2="448.21" /><line x1="441.92" y1="447.79" x2="561.00" y2="448.21" /><line x1="255.00" y1="449.79" x2="376.46" y2="450.21" /><line x1="441.57" y1="449.79" x2="561.00" y2="450.21" /><line x1="255.00" y1="451.79" x2="376.75" y2="452.21" /><line x1="441.17" y1="451.79" x2="561.00" y2="452.21" /><line x1="255.00" y1="453.79" x2="377.07" y2="454.21" /><line x1="440.75" y1="453.79" x2="561.00" y2="454.21" /><line x1="255.00" y1="455.79" x2="377.50" y2="456.21" /><line x1="440.35" y1="455.79" x2="561.00" y2="456.21" /><line x1="255.00" y1="457.79" x2="378.02" y2="458.21" /><line x1="439.94" y1="457.79" x2="561.00" y2="458.21" /><line x1="255.00" y1="459.79" x2="378.53" y2="460.21" /><line x1="439.42" y1="459.79" x2="561.00" y2="460.21" /><line x1="255.00" y1="461.79" x2="379.00" y2="462.21" /><line x1="438.77" y1="461.79" x2="561.00" y2="462.21" /><line x1="255.00" y1="463.79" x2="379.51" y2="464.21" /><line x1="438.18" y1="463.79" x2="561.00" y2="464.21" /><line x1="255.00" y1="465.79" x2="380.08" y2="466.21" /><line x1="437.67" y1="465.79" x2="561.00" y2="466.21" /><line x1="255.00" y1="467.79" x2="380.70" y2="468.21" /><line x1="437.15" y1="467.79" x2="561.00" y2="468.21" /><line x1="255.00" y1="469.79" x2="381.28" y2="470.21" /><line x1="436.55" y1="469.79" x2="561.00" y2="470.21" /><line x1="255.00" y1="471.79" x2="381.68" y2="472.21" /><line x1="435.92" y1="471.79" x2="561.00" y2="472.21" /><line x1="255.00" y1="473.79" x2="381.84" y2="474.21" /><line x1="435.32" y1="473.79" x2="561.00" y2="474.21" /><line x1="255.00" y1="475.79" x2="381.88" y2="476.21" /><line x1="434.82" y1="475.79" x2="561.00" y2="476.21" /><line x1="255.00" y1="477.79" x2="381.84" y2="478.21" /><line x1="434.46" y1="477.79" x2="561.00" y2="478.21" /><line x1="255.00" y1="479.79" x2="381.61" y2="480.21" /><line x1="434.17" y1="479.79" x2="561.00" y2="480.21" /><line x1="255.00" y1="481.79" x2="381.12" y2="482.21" /><line x1="433.93" y1="481.79" x2="561.00" y2="482.21" /><line x1="255.00" y1="483.79" x2="380.50" y2="484.21" /><line x1="433.82" y1="483.79" x2="561.00" y2="484.21" /><line x1="255.00" y1="485.79" x2="379.86" y2="486.21" /><line x1="433.87" y1="485.79" x2="561.00" y2="486.21" /><line x1="255.00" y1="487.79" x2="379.14" y2="488.21" /><line x1="433.95" y1="487.79" x2="561.00" y2="488.21" /><line x1="255.00" y1="489.79" x2="378.27" y2="490.21" /><line x1="433.94" y1="489.79" x2="561.00" y2="490.21" /><line x1="255.00" y1="491.79" x2="377.42" y2="492.21" /><line x1="433.98" y1="491.79" x2="561.00" y2="492.21" /><line x1="255.00" y1="493.79" x2="376.76" y2="494.21" /><line x1="434.22" y1="493.79" x2="561.00" y2="494.21" /><line x1="255.00" y1="495.79" x2="376.30" y2="496.21" /><line x1="434.50" y1="495.79" x2="561.00" y2="496.21" /><line x1="255.00" y1="497.79" x2="375.95" y2="498.21" /><line x1="434.64" y1="497.79" x2="561.00" y2="498.21" /><line x1="255.00" y1="499.79" x2="375.69" y2="500.21" /><line x1="434.68" y1="499.79" x2="561.00" y2="500.21" /><line x1="255.00" y1="501.79" x2="375.48" y2="502.21" /><line x1="434.74" y1="501.79" x2="561.00" y2="502.21" /><line x1="255.00" y1="503.79" x2="375.34" y2="504.21" /><line x1="434.80" y1="503.79" x2="561.00" y2="504.21" /><line x1="255.00" y1="505.79" x2="375.29" y2="506.21" /><line x1="434.79" y1="505.79" x2="561.00" y2="506.21" /><line x1="255.00" y1="507.79" x2="375.31" y2="508.21" /><line x1="434.74" y1="507.79" x2="561.00" y2="508.21" /><line x1="255.00" y1="509.79" x2="375.41" y2="510.21" /><line x1="434.72" y1="509.79" x2="561.00" y2="510.21" /><line x1="255.00" y1="511.79" x2="375.51" y2="512.21" /><line x1="434.71" y1="511.79" x2="561.00" y2="512.21" /><line x1="255.00" y1="513.79" x2="375.50" y2="514.21" /><line x1="434.63" y1="513.79" x2="561.00" y2="514.21" /><line x1="255.00" y1="515.79" x2="375.44" y2="516.21" /><line x1="434.53" y1="515.79" x2="561.00" y2="516.21" /><line x1="255.00" y1="517.79" x2="375.45" y2="518.21" /><line x1="434.54" y1="517.79" x2="561.00" y2="518.21" /><line x1="255.00" y1="519.79" x2="375.57" y2="520.21" /><line x1="434.60" y1="519.79" x2="561.00" y2="520.21" /><line x1="255.00" y1="521.79" x2="375.73" y2="522.21" /><line x1="434.50" y1="521.79" x2="561.00" y2="522.21" /><line x1="255.00" y1="523.79" x2="375.88" y2="524.21" /><line x1="434.25" y1="523.79" x2="561.00" y2="524.21" /><line x1="255.00" y1="525.79" x2="375.98" y2="526.21" /><line x1="434.02" y1="525.79" x2="561.00" y2="526.21" /><line x1="255.00" y1="527.79" x2="375.99" y2="528.21" /><line x1="433.90" y1="527.79" x2="561.00" y2="528.21" /><line x1="255.00" y1="529.79" x2="375.86" y2="530.21" /><line x1="433.86" y1="529.79" x2="561.00" y2="530.21" /><line x1="255.00" y1="531.79" x2="375.63" y2="532.21" /><line x1="433.86" y1="531.79" x2="561.00" y2="532.21" /><line x1="255.00" y1="533.79" x2="375.40" y2="534.21" /><line x1="433.82" y1="533.79" x2="561.00" y2="534.21" /><line x1="255.00" y1="535.79" x2="375.17" y2="536.21" /><line x1="433.73" y1="535.79" x2="561.00" y2="536.21" /><line x1="255.00" y1="537.79" x2="374.83" y2="538.21" /><line x1="433.65" y1="537.79" x2="561.00" y2="538.21" /><line x1="255.00" y1="539.79" x2="374.36" y2="540.21" /><line x1="433.64" y1="539.79" x2="561.00" y2="540.21" /><line x1="255.00" y1="541.79" x2="373.98" y2="542.21" /><line x1="433.78" y1="541.79" x2="561.00" y2="542.21" /><line x1="255.00" y1="543.79" x2="373.78" y2="544.21" /><line x1="434.07" y1="543.79" x2="561.00" y2="544.21" /><line x1="255.00" y1="545.79" x2="373.58" y2="546.21" /><line x1="434.38" y1="545.79" x2="561.00" y2="546.21" /><line x1="255.00" y1="547.79" x2="373.30" y2="548.21" /><line x1="434.62" y1="547.79" x2="561.00" y2="548.21" /><line x1="255.00" y1="549.79" x2="373.11" y2="550.21" /><line x1="434.72" y1="549.79" x2="561.00" y2="550.21" /><line x1="255.00" y1="551.79" x2="373.16" y2="552.21" /><line x1="434.71" y1="551.79" x2="561.00" y2="552.21" /><line x1="255.00" y1="553.79" x2="373.38" y2="554.21" /><line x1="434.77" y1="553.79" x2="561.00" y2="554.21" /><line x1="255.00" y1="555.79" x2="373.65" y2="556.21" /><line x1="435.02" y1="555.79" x2="561.00" y2="556.21" /><line x1="255.00" y1="557.79" x2="373.92" y2="558.21" /><line x1="435.28" y1="557.79" x2="561.00" y2="558.21" /><line x1="255.00" y1="559.79" x2="374.15" y2="560.21" /><line x1="435.33" y1="559.79" x2="561.00" y2="560.21" /><line x1="255.00" y1="561.79" x2="374.36" y2="562.21" /><line x1="435.15" y1="561.79" x2="561.00" y2="562.21" /><line x1="255.00" y1="563.79" x2="374.61" y2="564.21" /><line x1="434.82" y1="563.79" x2="561.00" y2="564.21" /><line x1="255.00" y1="565.79" x2="374.89" y2="566.21" /><line x1="434.43" y1="565.79" x2="561.00" y2="566.21" /><line x1="255.00" y1="567.79" x2="375.20" y2="568.21" /><line x1="434.12" y1="567.79" x2="561.00" y2="568.21" /><line x1="255.00" y1="569.79" x2="375.52" y2="570.21" /><line x1="433.87" y1="569.79" x2="561.00" y2="570.21" /><line x1="255.00" y1="571.79" x2="375.82" y2="572.21" /><line x1="433.64" y1="571.79" x2="561.00" y2="572.21" /><line x1="255.00" y1="573.79" x2="376.10" y2="574.21" /><line x1="433.40" y1="573.79" x2="561.00" y2="574.21" /><line x1="255.00" y1="575.79" x2="376.39" y2="576.21" /><line x1="433.15" y1="575.79" x2="561.00" y2="576.21" /><line x1="255.00" y1="577.79" x2="376.72" y2="578.21" /><line x1="432.91" y1="577.79" x2="561.00" y2="578.21" /><line x1="255.00" y1="579.79" x2="377.09" y2="580.21" /><line x1="432.70" y1="579.79" x2="561.00" y2="580.21" /><line x1="255.00" y1="581.79" x2="377.38" y2="582.21" /><line x1="432.58" y1="581.79" x2="561.00" y2="582.21" /><line x1="255.00" y1="583.79" x2="377.38" y2="584.21" /><line x1="432.63" y1="583.79" x2="561.00" y2="584.21" /><line x1="255.00" y1="585.79" x2="377.23" y2="586.21" /><line x1="432.78" y1="585.79" x2="561.00" y2="586.21" /><line x1="255.00" y1="587.79" x2="377.32" y2="588.21" /><line x1="432.88" y1="587.79" x2="561.00" y2="588.21" /><line x1="255.00" y1="589.79" x2="377.64" y2="590.21" /><line x1="432.95" y1="589.79" x2="561.00" y2="590.21" /><line x1="255.00" y1="591.79" x2="377.80" y2="592.21" /><line x1="433.19" y1="591.79" x2="561.00" y2="592.21" /><line x1="255.00" y1="593.79" x2="377.72" y2="594.21" /><line x1="433.61" y1="593.79" x2="561.00" y2="594.21" /><line x1="255.00" y1="595.79" x2="377.62" y2="596.21" /><line x1="434.02" y1="595.79" x2="561.00" y2="596.21" /><line x1="255.00" y1="597.79" x2="377.60" y2="598.21" /><line x1="434.40" y1="597.79" x2="561.00" y2="598.21" /><line x1="255.00" y1="599.79" x2="377.63" y2="600.21" /><line x1="434.84" y1="599.79" x2="561.00" y2="600.21" /><line x1="255.00" y1="601.79" x2="377.66" y2="602.21" /><line x1="435.44" y1="601.79" x2="561.00" y2="602.21" /><line x1="255.00" y1="603.79" x2="377.75" y2="604.21" /><line x1="436.21" y1="603.79" x2="561.00" y2="604.21" /><line x1="255.00" y1="605.79" x2="377.81" y2="606.21" /><line x1="437.09" y1="605.79" x2="561.00" y2="606.21" /><line x1="255.00" y1="607.79" x2="377.63" y2="608.21" /><line x1="437.88" y1="607.79" x2="561.00" y2="608.21" /><line x1="255.00" y1="609.79" x2="377.18" y2="610.21" /><line x1="438.49" y1="609.79" x2="561.00" y2="610.21" /><line x1="255.00" y1="611.79" x2="376.82" y2="612.21" /><line x1="439.02" y1="611.79" x2="561.00" y2="612.21" /><line x1="255.00" y1="613.79" x2="376.72" y2="614.21" /><line x1="439.55" y1="613.79" x2="561.00" y2="614.21" /><line x1="255.00" y1="615.79" x2="376.60" y2="616.21" /><line x1="439.99" y1="615.79" x2="561.00" y2="616.21" /><line x1="255.00" y1="617.79" x2="376.21" y2="618.21" /><line x1="440.25" y1="617.79" x2="561.00" y2="618.21" /><line x1="255.00" y1="619.79" x2="375.66" y2="620.21" /><line x1="440.29" y1="619.79" x2="561.00" y2="620.21" /><line x1="255.00" y1="621.79" x2="375.09" y2="622.21" /><line x1="440.12" y1="621.79" x2="561.00" y2="622.21" /><line x1="255.00" y1="623.79" x2="374.56" y2="624.21" /><line x1="439.88" y1="623.79" x2="561.00" y2="624.21" /><line x1="255.00" y1="625.79" x2="374.14" y2="626.21" /><line x1="439.67" y1="625.79" x2="561.00" y2="626.21" /><line x1="255.00" y1="627.79" x2="373.86" y2="628.21" /><line x1="439.46" y1="627.79" x2="561.00" y2="628.21" /><line x1="255.00" y1="629.79" x2="373.71" y2="630.21" /><line x1="439.19" y1="629.79" x2="561.00" y2="630.21" /><line x1="255.00" y1="631.79" x2="373.61" y2="632.21" /><line x1="438.97" y1="631.79" x2="561.00" y2="632.21" /><line x1="255.00" y1="633.79" x2="373.46" y2="634.21" /><line x1="438.89" y1="633.79" x2="561.00" y2="634.21" /><line x1="255.00" y1="635.79" x2="373.30" y2="636.21" /><line x1="438.92" y1="635.79" x2="561.00" y2="636.21" /><line x1="255.00" y1="637.79" x2="373.23" y2="638.21" /><line x1="438.96" y1="637.79" x2="561.00" y2="638.21" /><line x1="255.00" y1="639.79" x2="373.21" y2="640.21" /><line x1="439.10" y1="639.79" x2="561.00" y2="640.21" /><line x1="255.00" y1="641.79" x2="373.17" y2="642.21" /><line x1="439.45" y1="641.79" x2="561.00" y2="642.21" /><line x1="255.00" y1="643.79" x2="373.18" y2="644.21" /><line x1="439.84" y1="643.79" x2="561.00" y2="644.21" /><line x1="255.00" y1="645.79" x2="373.33" y2="646.21" /><line x1="440.02" y1="645.79" x2="561.00" y2="646.21" /><line x1="255.00" y1="647.79" x2="373.57" y2="648.21" /><line x1="440.06" y1="647.79" x2="561.00" y2="648.21" /><line x1="255.00" y1="649.79" x2="373.73" y2="650.21" /><line x1="440.18" y1="649.79" x2="561.00" y2="650.21" /><line x1="255.00" y1="651.79" x2="373.77" y2="652.21" /><line x1="440.37" y1="651.79" x2="561.00" y2="652.21" /><line x1="255.00" y1="653.79" x2="373.69" y2="654.21" /><line x1="440.45" y1="653.79" x2="561.00" y2="654.21" /><line x1="255.00" y1="655.79" x2="373.55" y2="656.21" /><line x1="440.44" y1="655.79" x2="561.00" y2="656.21" /><line x1="255.00" y1="657.79" x2="373.43" y2="658.21" /><line x1="440.50" y1="657.79" x2="561.00" y2="658.21" /><line x1="255.00" y1="659.79" x2="373.39" y2="660.21" /><line x1="440.62" y1="659.79" x2="561.00" y2="660.21" /><line x1="255.00" y1="661.79" x2="373.46" y2="662.21" /><line x1="440.60" y1="661.79" x2="561.00" y2="662.21" /><line x1="255.00" y1="663.79" x2="373.57" y2="664.21" /><line x1="440.42" y1="663.79" x2="561.00" y2="664.21" /><line x1="255.00" y1="665.79" x2="373.58" y2="666.21" /><line x1="440.24" y1="665.79" x2="561.00" y2="666.21" /><line x1="255.00" y1="667.79" x2="373.45" y2="668.21" /><line x1="440.14" y1="667.79" x2="561.00" y2="668.21" /><line x1="255.00" y1="669.79" x2="373.27" y2="670.21" /><line x1="440.09" y1="669.79" x2="561.00" y2="670.21" /><line x1="255.00" y1="671.79" x2="373.13" y2="672.21" /><line x1="440.08" y1="671.79" x2="561.00" y2="672.21" /><line x1="255.00" y1="673.79" x2="373.14" y2="674.21" /><line x1="440.10" y1="673.79" x2="561.00" y2="674.21" /><line x1="255.00" y1="675.79" x2="373.28" y2="676.21" /><line x1="440.18" y1="675.79" x2="561.00" y2="676.21" /><line x1="255.00" y1="677.79" x2="373.39" y2="678.21" /><line x1="440.28" y1="677.79" x2="561.00" y2="678.21" /><line x1="255.00" y1="679.79" x2="373.36" y2="680.21" /><line x1="440.41" y1="679.79" x2="561.00" y2="680.21" /><line x1="255.00" y1="681.79" x2="373.25" y2="682.21" /><line x1="440.62" y1="681.79" x2="561.00" y2="682.21" /><line x1="255.00" y1="683.79" x2="373.13" y2="684.21" /><line x1="440.89" y1="683.79" x2="561.00" y2="684.21" /><line x1="255.00" y1="685.79" x2="373.08" y2="686.21" /><line x1="441.09" y1="685.79" x2="561.00" y2="686.21" /><line x1="255.00" y1="687.79" x2="373.16" y2="688.21" /><line x1="441.12" y1="687.79" x2="561.00" y2="688.21" /><line x1="255.00" y1="689.79" x2="373.42" y2="690.21" /><line x1="441.20" y1="689.79" x2="561.00" y2="690.21" /><line x1="255.00" y1="691.79" x2="373.84" y2="692.21" /><line x1="441.46" y1="691.79" x2="561.00" y2="692.21" /><line x1="255.00" y1="693.79" x2="374.25" y2="694.21" /><line x1="441.71" y1="693.79" x2="561.00" y2="694.21" /><line x1="255.00" y1="695.79" x2="374.52" y2="696.21" /><line x1="441.72" y1="695.79" x2="561.00" y2="696.21" /><line x1="255.00" y1="697.79" x2="374.83" y2="698.21" /><line x1="441.52" y1="697.79" x2="561.00" y2="698.21" /><line x1="255.00" y1="699.79" x2="375.41" y2="700.21" /><line x1="441.21" y1="699.79" x2="561.00" y2="700.21" /><line x1="255.00" y1="701.79" x2="376.12" y2="702.21" /><line x1="440.85" y1="701.79" x2="561.00" y2="702.21" /><line x1="255.00" y1="703.79" x2="376.72" y2="704.21" /><line x1="440.51" y1="703.79" x2="561.00" y2="704.21" /><line x1="255.00" y1="705.79" x2="377.14" y2="706.21" /><line x1="440.24" y1="705.79" x2="561.00" y2="706.21" /><line x1="255.00" y1="707.79" x2="377.31" y2="708.21" /><line x1="440.05" y1="707.79" x2="561.00" y2="708.21" /><line x1="255.00" y1="709.79" x2="377.29" y2="710.21" /><line x1="439.78" y1="709.79" x2="561.00" y2="710.21" /><line x1="255.00" y1="711.79" x2="377.16" y2="712.21" /><line x1="439.20" y1="711.79" x2="561.00" y2="712.21" /><line x1="255.00" y1="713.79" x2="376.95" y2="714.21" /><line x1="438.46" y1="713.79" x2="561.00" y2="714.21" /><line x1="255.00" y1="715.79" x2="376.72" y2="716.21" /><line x1="437.86" y1="715.79" x2="561.00" y2="716.21" /><line x1="255.00" y1="717.79" x2="376.61" y2="718.21" /><line x1="437.36" y1="717.79" x2="561.00" y2="718.21" /><line x1="255.00" y1="719.79" x2="376.84" y2="720.21" /><line x1="436.71" y1="719.79" x2="561.00" y2="720.21" /><line x1="255.00" y1="721.79" x2="377.40" y2="722.21" /><line x1="435.89" y1="721.79" x2="561.00" y2="722.21" /><line x1="339.59" y1="322.82" x2="384.39" y2="321.18" /><line x1="433.76" y1="322.82" x2="478.56" y2="321.18" /><line x1="339.72" y1="326.32" x2="384.52" y2="324.68" /><line x1="434.89" y1="326.32" x2="479.69" y2="324.68" /><line x1="339.63" y1="329.82" x2="384.43" y2="328.18" /><line x1="436.17" y1="329.82" x2="480.97" y2="328.18" /><line x1="339.37" y1="333.32" x2="384.17" y2="331.68" /><line x1="437.04" y1="333.32" x2="481.84" y2="331.68" /><line x1="338.88" y1="336.82" x2="383.68" y2="335.18" /><line x1="437.38" y1="336.82" x2="482.18" y2="335.18" /><line x1="337.72" y1="340.32" x2="382.52" y2="338.68" /><line x1="437.72" y1="340.32" x2="482.52" y2="338.68" /><line x1="336.57" y1="343.82" x2="381.37" y2="342.18" /><line x1="437.59" y1="343.82" x2="482.39" y2="342.18" /><line x1="335.79" y1="347.32" x2="380.59" y2="345.68" /><line x1="437.39" y1="347.32" x2="482.19" y2="345.68" /><line x1="335.23" y1="350.82" x2="380.03" y2="349.18" /><line x1="437.57" y1="350.82" x2="482.37" y2="349.18" /><line x1="334.76" y1="354.32" x2="379.56" y2="352.68" /><line x1="438.08" y1="354.32" x2="482.88" y2="352.68" /><line x1="334.70" y1="357.82" x2="379.50" y2="356.18" /><line x1="438.68" y1="357.82" x2="483.48" y2="356.18" /><line x1="335.23" y1="361.32" x2="380.03" y2="359.68" /><line x1="439.40" y1="361.32" x2="484.20" y2="359.68" /><line x1="335.65" y1="364.82" x2="380.45" y2="363.18" /><line x1="440.46" y1="364.82" x2="485.26" y2="363.18" /><line x1="335.52" y1="368.32" x2="380.32" y2="366.68" /><line x1="441.47" y1="368.32" x2="486.27" y2="366.68" /><line x1="335.08" y1="371.82" x2="379.88" y2="370.18" /><line x1="441.93" y1="371.82" x2="486.73" y2="370.18" /><line x1="334.44" y1="375.32" x2="379.24" y2="373.68" /><line x1="442.32" y1="375.32" x2="487.12" y2="373.68" /><line x1="333.61" y1="378.82" x2="378.41" y2="377.18" /><line x1="442.69" y1="378.82" x2="487.49" y2="377.18" /><line x1="332.66" y1="382.32" x2="377.46" y2="380.68" /><line x1="442.74" y1="382.32" x2="487.54" y2="380.68" /><line x1="331.61" y1="385.82" x2="376.41" y2="384.18" /><line x1="442.66" y1="385.82" x2="487.46" y2="384.18" /><line x1="330.68" y1="389.32" x2="375.48" y2="387.68" /><line x1="442.32" y1="389.32" x2="487.12" y2="387.68" /><line x1="329.83" y1="392.82" x2="374.63" y2="391.18" /><line x1="442.16" y1="392.82" x2="486.96" y2="391.18" /><line x1="329.27" y1="396.32" x2="374.07" y2="394.68" /><line x1="442.13" y1="396.32" x2="486.93" y2="394.68" /><line x1="328.64" y1="399.82" x2="373.44" y2="398.18" /><line x1="441.84" y1="399.82" x2="486.64" y2="398.18" /><line x1="328.00" y1="403.32" x2="372.80" y2="401.68" /><line x1="441.52" y1="403.32" x2="486.32" y2="401.68" /><line x1="327.81" y1="406.82" x2="372.61" y2="405.18" /><line x1="441.67" y1="406.82" x2="486.47" y2="405.18" /><line x1="327.80" y1="410.32" x2="372.60" y2="408.68" /><line x1="441.93" y1="410.32" x2="486.73" y2="408.68" /><line x1="328.07" y1="413.82" x2="372.87" y2="412.18" /><line x1="442.06" y1="413.82" x2="486.86" y2="412.18" /><line x1="328.15" y1="417.32" x2="372.95" y2="415.68" /><line x1="442.17" y1="417.32" x2="486.97" y2="415.68" /><line x1="328.10" y1="420.82" x2="372.90" y2="419.18" /><line x1="442.71" y1="420.82" x2="487.51" y2="419.18" /><line x1="328.17" y1="424.32" x2="372.97" y2="422.68" /><line x1="443.18" y1="424.32" x2="487.98" y2="422.68" /><line x1="328.28" y1="427.82" x2="373.08" y2="426.18" /><line x1="443.22" y1="427.82" x2="488.02" y2="426.18" /><line x1="328.40" y1="431.32" x2="373.20" y2="429.68" /><line x1="443.31" y1="431.32" x2="488.11" y2="429.68" /><line x1="328.83" y1="434.82" x2="373.63" y2="433.18" /><line x1="443.39" y1="434.82" x2="488.19" y2="433.18" /><line x1="329.18" y1="438.32" x2="373.98" y2="436.68" /><line x1="443.21" y1="438.32" x2="488.01" y2="436.68" /><line x1="329.90" y1="441.82" x2="374.70" y2="440.18" /><line x1="443.09" y1="441.82" x2="487.89" y2="440.18" /><line x1="330.51" y1="445.32" x2="375.31" y2="443.68" /><line x1="442.88" y1="445.32" x2="487.68" y2="443.68" /><line x1="330.87" y1="448.82" x2="375.67" y2="447.18" /><line x1="442.42" y1="448.82" x2="487.22" y2="447.18" /><line x1="331.38" y1="452.32" x2="376.18" y2="450.68" /><line x1="441.78" y1="452.32" x2="486.58" y2="450.68" /><line x1="331.97" y1="455.82" x2="376.77" y2="454.18" /><line x1="441.04" y1="455.82" x2="485.84" y2="454.18" /><line x1="332.85" y1="459.32" x2="377.65" y2="457.68" /><line x1="440.33" y1="459.32" x2="485.13" y2="457.68" /><line x1="333.70" y1="462.82" x2="378.50" y2="461.18" /><line x1="439.27" y1="462.82" x2="484.07" y2="461.18" /><line x1="334.63" y1="466.32" x2="379.43" y2="464.68" /><line x1="438.30" y1="466.32" x2="483.10" y2="464.68" /><line x1="335.70" y1="469.82" x2="380.50" y2="468.18" /><line x1="437.36" y1="469.82" x2="482.16" y2="468.18" /><line x1="336.44" y1="473.32" x2="381.24" y2="471.68" /><line x1="436.26" y1="473.32" x2="481.06" y2="471.68" /><line x1="336.58" y1="476.82" x2="381.38" y2="475.18" /><line x1="435.32" y1="476.82" x2="480.12" y2="475.18" /><line x1="336.40" y1="480.32" x2="381.20" y2="478.68" /><line x1="434.74" y1="480.32" x2="479.54" y2="478.68" /><line x1="335.51" y1="483.82" x2="380.31" y2="482.18" /><line x1="434.36" y1="483.82" x2="479.16" y2="482.18" /><line x1="334.40" y1="487.32" x2="379.20" y2="485.68" /><line x1="434.39" y1="487.32" x2="479.19" y2="485.68" /><line x1="332.97" y1="490.82" x2="377.77" y2="489.18" /><line x1="434.44" y1="490.82" x2="479.24" y2="489.18" /><line x1="331.61" y1="494.32" x2="376.41" y2="492.68" /><line x1="434.65" y1="494.32" x2="479.45" y2="492.68" /><line x1="330.81" y1="497.82" x2="375.61" y2="496.18" /><line x1="435.09" y1="497.82" x2="479.89" y2="496.18" /><line x1="330.33" y1="501.32" x2="375.13" y2="499.68" /><line x1="435.19" y1="501.32" x2="479.99" y2="499.68" /><line x1="330.04" y1="504.82" x2="374.84" y2="503.18" /><line x1="435.30" y1="504.82" x2="480.10" y2="503.18" /><line x1="330.00" y1="508.32" x2="374.80" y2="506.68" /><line x1="435.25" y1="508.32" x2="480.05" y2="506.68" /><line x1="330.17" y1="511.82" x2="374.97" y2="510.18" /><line x1="435.22" y1="511.82" x2="480.02" y2="510.18" /><line x1="330.18" y1="515.32" x2="374.98" y2="513.68" /><line x1="435.10" y1="515.32" x2="479.90" y2="513.68" /><line x1="330.15" y1="518.82" x2="374.95" y2="517.18" /><line x1="435.04" y1="518.82" x2="479.84" y2="517.18" /><line x1="330.39" y1="522.32" x2="375.19" y2="520.68" /><line x1="435.05" y1="522.32" x2="479.85" y2="520.68" /><line x1="330.64" y1="525.82" x2="375.44" y2="524.18" /><line x1="434.62" y1="525.82" x2="479.42" y2="524.18" /><line x1="330.67" y1="529.32" x2="375.47" y2="527.68" /><line x1="434.38" y1="529.32" x2="479.18" y2="527.68" /><line x1="330.33" y1="532.82" x2="375.13" y2="531.18" /><line x1="434.36" y1="532.82" x2="479.16" y2="531.18" /><line x1="329.94" y1="536.32" x2="374.74" y2="534.68" /><line x1="434.25" y1="536.32" x2="479.05" y2="534.68" /><line x1="329.30" y1="539.82" x2="374.10" y2="538.18" /><line x1="434.13" y1="539.82" x2="478.93" y2="538.18" /><line x1="328.62" y1="543.32" x2="373.42" y2="541.68" /><line x1="434.34" y1="543.32" x2="479.14" y2="541.68" /><line x1="328.28" y1="546.82" x2="373.08" y2="545.18" /><line x1="434.88" y1="546.82" x2="479.68" y2="545.18" /><line x1="327.83" y1="550.32" x2="372.63" y2="548.68" /><line x1="435.21" y1="550.32" x2="480.01" y2="548.68" /><line x1="327.96" y1="553.82" x2="372.76" y2="552.18" /><line x1="435.21" y1="553.82" x2="480.01" y2="552.18" /><line x1="328.42" y1="557.32" x2="373.22" y2="555.68" /><line x1="435.60" y1="557.32" x2="480.40" y2="555.68" /><line x1="328.85" y1="560.82" x2="373.65" y2="559.18" /><line x1="435.83" y1="560.82" x2="480.63" y2="559.18" /><line x1="329.24" y1="564.32" x2="374.04" y2="562.68" /><line x1="435.41" y1="564.32" x2="480.21" y2="562.68" /><line x1="329.74" y1="567.82" x2="374.54" y2="566.18" /><line x1="434.77" y1="567.82" x2="479.57" y2="566.18" /><line x1="330.30" y1="571.32" x2="375.10" y2="569.68" /><line x1="434.31" y1="571.32" x2="479.11" y2="569.68" /><line x1="330.80" y1="574.82" x2="375.60" y2="573.18" /><line x1="433.90" y1="574.82" x2="478.70" y2="573.18" /><line x1="331.33" y1="578.32" x2="376.13" y2="576.68" /><line x1="433.47" y1="578.32" x2="478.27" y2="576.68" /><line x1="331.96" y1="581.82" x2="376.76" y2="580.18" /><line x1="433.12" y1="581.82" x2="477.92" y2="580.18" /><line x1="332.04" y1="585.32" x2="376.84" y2="583.68" /><line x1="433.17" y1="585.32" x2="477.97" y2="583.68" /><line x1="332.02" y1="588.82" x2="376.82" y2="587.18" /><line x1="433.38" y1="588.82" x2="478.18" y2="587.18" /><line x1="332.49" y1="592.32" x2="377.29" y2="590.68" /><line x1="433.61" y1="592.32" x2="478.41" y2="590.68" /><line x1="332.36" y1="595.82" x2="377.16" y2="594.18" /><line x1="434.32" y1="595.82" x2="479.12" y2="594.18" /><line x1="332.31" y1="599.32" x2="377.11" y2="597.68" /><line x1="435.00" y1="599.32" x2="479.80" y2="597.68" /><line x1="332.36" y1="602.82" x2="377.16" y2="601.18" /><line x1="435.94" y1="602.82" x2="480.74" y2="601.18" /><line x1="332.51" y1="606.32" x2="377.31" y2="604.68" /><line x1="437.37" y1="606.32" x2="482.17" y2="604.68" /><line x1="332.12" y1="609.82" x2="376.92" y2="608.18" /><line x1="438.70" y1="609.82" x2="483.50" y2="608.18" /><line x1="331.48" y1="613.32" x2="376.28" y2="611.68" /><line x1="439.66" y1="613.32" x2="484.46" y2="611.68" /><line x1="331.30" y1="616.82" x2="376.10" y2="615.18" /><line x1="440.49" y1="616.82" x2="485.29" y2="615.18" /><line x1="330.51" y1="620.32" x2="375.31" y2="618.68" /><line x1="440.80" y1="620.32" x2="485.60" y2="618.68" /><line x1="329.51" y1="623.82" x2="374.31" y2="622.18" /><line x1="440.50" y1="623.82" x2="485.30" y2="622.18" /><line x1="328.76" y1="627.32" x2="373.56" y2="625.68" /><line x1="440.12" y1="627.32" x2="484.92" y2="625.68" /><line x1="328.41" y1="630.82" x2="373.21" y2="629.18" /><line x1="439.69" y1="630.82" x2="484.49" y2="629.18" /><line x1="328.20" y1="634.32" x2="373.00" y2="632.68" /><line x1="439.40" y1="634.32" x2="484.20" y2="632.68" /><line x1="327.96" y1="637.82" x2="372.76" y2="636.18" /><line x1="439.44" y1="637.82" x2="484.24" y2="636.18" /><line x1="327.91" y1="641.32" x2="372.71" y2="639.68" /><line x1="439.67" y1="641.32" x2="484.47" y2="639.68" /><line x1="327.88" y1="644.82" x2="372.68" y2="643.18" /><line x1="440.34" y1="644.82" x2="485.14" y2="643.18" /><line x1="328.21" y1="648.32" x2="373.01" y2="646.68" /><line x1="440.55" y1="648.32" x2="485.35" y2="646.68" /><line x1="328.46" y1="651.82" x2="373.26" y2="650.18" /><line x1="440.78" y1="651.82" x2="485.58" y2="650.18" /><line x1="328.35" y1="655.32" x2="373.15" y2="653.68" /><line x1="440.95" y1="655.32" x2="485.75" y2="653.68" /><line x1="328.13" y1="658.82" x2="372.93" y2="657.18" /><line x1="441.00" y1="658.82" x2="485.80" y2="657.18" /><line x1="328.13" y1="662.32" x2="372.93" y2="660.68" /><line x1="441.12" y1="662.32" x2="485.92" y2="660.68" /><line x1="328.30" y1="665.82" x2="373.10" y2="664.18" /><line x1="440.82" y1="665.82" x2="485.62" y2="664.18" /><line x1="328.11" y1="669.32" x2="372.91" y2="667.68" /><line x1="440.62" y1="669.32" x2="485.42" y2="667.68" /><line x1="327.83" y1="672.82" x2="372.63" y2="671.18" /><line x1="440.58" y1="672.82" x2="485.38" y2="671.18" /><line x1="327.94" y1="676.32" x2="372.74" y2="674.68" /><line x1="440.66" y1="676.32" x2="485.46" y2="674.68" /><line x1="328.09" y1="679.82" x2="372.89" y2="678.18" /><line x1="440.84" y1="679.82" x2="485.64" y2="678.18" /><line x1="327.92" y1="683.32" x2="372.72" y2="681.68" /><line x1="441.19" y1="683.32" x2="485.99" y2="681.68" /><line x1="327.78" y1="686.82" x2="372.58" y2="685.18" /><line x1="441.59" y1="686.82" x2="486.39" y2="685.18" /><line x1="328.03" y1="690.32" x2="372.83" y2="688.68" /><line x1="441.66" y1="690.32" x2="486.46" y2="688.68" /><line x1="328.76" y1="693.82" x2="373.56" y2="692.18" /><line x1="442.10" y1="693.82" x2="486.90" y2="692.18" /><line x1="329.28" y1="697.32" x2="374.08" y2="695.68" /><line x1="442.18" y1="697.32" x2="486.98" y2="695.68" /><line x1="330.11" y1="700.82" x2="374.91" y2="699.18" /><line x1="441.71" y1="700.82" x2="486.51" y2="699.18" /><line x1="331.29" y1="704.32" x2="376.09" y2="702.68" /><line x1="441.09" y1="704.32" x2="485.89" y2="702.68" /><line x1="331.95" y1="707.82" x2="376.75" y2="706.18" /><line x1="440.64" y1="707.82" x2="485.44" y2="706.18" /><line x1="331.97" y1="711.32" x2="376.77" y2="709.68" /><line x1="440.17" y1="711.32" x2="484.97" y2="709.68" /><line x1="331.65" y1="714.82" x2="376.45" y2="713.18" /><line x1="438.96" y1="714.82" x2="483.76" y2="713.18" /><line x1="331.31" y1="718.32" x2="376.11" y2="716.68" /><line x1="437.99" y1="718.32" x2="482.79" y2="716.68" /><line x1="331.79" y1="721.82" x2="376.59" y2="720.18" /><line x1="436.81" y1="721.82" x2="481.61" y2="720.18" /><line x1="411.16" y1="329.00" x2="415.65" y2="329.00" stroke-width="0.375" stroke-opacity="0.5" /><line x1="406.34" y1="337.00" x2="414.12" y2="337.00" stroke-width="0.375" stroke-opacity="0.5" /><line x1="412.22" y1="353.00" x2="415.31" y2="353.00" stroke-width="0.375" stroke-opacity="0.5" /><line x1="398.74" y1="361.00" x2="408.86" y2="361.00" stroke-width="0.375" stroke-opacity="0.5" /><line x1="408.10" y1="385.00" x2="417.73" y2="385.00" stroke-width="0.375" stroke-opacity="0.5" /><line x1="410.73" y1="409.00" x2="420.93" y2="409.00" stroke-width="0.375" stroke-opacity="0.5" /><line x1="398.60" y1="417.00" x2="402.48" y2="417.00" stroke-width="0.375" stroke-opacity="0.5" /><line x1="403.99" y1="433.00" x2="411.02" y2="433.00" stroke-width="0.375" stroke-opacity="0.5" /><line x1="411.02" y1="441.00" x2="422.26" y2="441.00" stroke-width="0.375" stroke-opacity="0.5" /><line x1="411.63" y1="465.00" x2="415.24" y2="465.00" stroke-width="0.375" stroke-opacity="0.5" /><line x1="405.11" y1="473.00" x2="413.64" y2="473.00" stroke-width="0.375" stroke-opacity="0.5" /><line x1="404.56" y1="489.00" x2="413.49" y2="489.00" stroke-width="0.375" stroke-opacity="0.5" /><line x1="411.55" y1="497.00" x2="415.52" y2="497.00" stroke-width="0.375" stroke-opacity="0.5" /><line x1="404.04" y1="521.00" x2="410.30" y2="521.00" stroke-width="0.375" stroke-opacity="0.5" /><line x1="395.48" y1="529.00" x2="405.53" y2="529.00" stroke-width="0.375" stroke-opacity="0.5" /><line x1="406.98" y1="545.00" x2="416.98" y2="545.00" stroke-width="0.375" stroke-opacity="0.5" /><line x1="392.64" y1="553.00" x2="399.41" y2="553.00" stroke-width="0.375" stroke-opacity="0.5" /><line x1="401.14" y1="577.00" x2="410.55" y2="577.00" stroke-width="0.375" stroke-opacity="0.5" /><line x1="398.59" y1="585.00" x2="408.25" y2="585.00" stroke-width="0.375" stroke-opacity="0.5" /><line x1="400.35" y1="601.00" x2="410.29" y2="601.00" stroke-width="0.375" stroke-opacity="0.5" /><line x1="406.86" y1="609.00" x2="410.14" y2="609.00" stroke-width="0.375" stroke-opacity="0.5" /><line x1="413.36" y1="633.00" x2="417.55" y2="633.00" stroke-width="0.375" stroke-opacity="0.5" /><line x1="393.72" y1="641.00" x2="402.39" y2="641.00" stroke-width="0.375" stroke-opacity="0.5" /><line x1="410.53" y1="657.00" x2="417.07" y2="657.00" stroke-width="0.375" stroke-opacity="0.5" /><line x1="392.11" y1="665.00" x2="402.88" y2="665.00" stroke-width="0.375" stroke-opacity="0.5" /><line x1="407.13" y1="681.00" x2="419.83" y2="681.00" stroke-width="0.375" stroke-opacity="0.5" /><line x1="404.90" y1="689.00" x2="412.62" y2="689.00" stroke-width="0.375" stroke-opacity="0.5" /><line x1="406.72" y1="713.00" x2="411.19" y2="713.00" stroke-width="0.375" stroke-opacity="0.5" /></g><g id="03_Gold_Path" inkscape:groupmode="layer" inkscape:label="03_Gold_Path" stroke="#B8960C" fill="none" stroke-width="1.12" stroke-linecap="round" stroke-linejoin="round"><circle cx="397.49" cy="343.48" r="3.24" fill="none" /><line x1="395.22" y1="341.21" x2="399.76" y2="345.75" /><line x1="399.76" y1="341.21" x2="395.22" y2="345.75" /><circle cx="396.65" cy="371.10" r="2.86" fill="none" /><line x1="394.65" y1="369.10" x2="398.65" y2="373.10" /><line x1="398.65" y1="369.10" x2="394.65" y2="373.10" /><circle cx="414.68" cy="398.72" r="3.51" fill="none" /><line x1="412.22" y1="396.26" x2="417.14" y2="401.18" /><line x1="417.14" y1="396.26" x2="412.22" y2="401.18" /><circle cx="394.76" cy="426.34" r="3.61" fill="none" /><line x1="392.23" y1="423.81" x2="397.28" y2="428.86" /><line x1="397.28" y1="423.81" x2="392.23" y2="428.86" /><circle cx="398.50" cy="453.95" r="3.19" fill="none" /><line x1="396.27" y1="451.72" x2="400.73" y2="456.18" /><line x1="400.73" y1="451.72" x2="396.27" y2="456.18" /><circle cx="408.15" cy="481.57" r="3.77" fill="none" /><line x1="405.51" y1="478.93" x2="410.79" y2="484.21" /><line x1="410.79" y1="478.93" x2="405.51" y2="484.21" /><circle cx="415.38" cy="509.19" r="3.10" fill="none" /><line x1="413.21" y1="507.02" x2="417.55" y2="511.36" /><line x1="417.55" y1="507.02" x2="413.21" y2="511.36" /><circle cx="409.01" cy="536.81" r="3.32" fill="none" /><line x1="406.69" y1="534.49" x2="411.34" y2="539.13" /><line x1="411.34" y1="534.49" x2="406.69" y2="539.13" /><circle cx="408.36" cy="564.43" r="3.46" fill="none" /><line x1="405.93" y1="562.01" x2="410.78" y2="566.85" /><line x1="410.78" y1="562.01" x2="405.93" y2="566.85" /><circle cx="413.52" cy="592.05" r="2.80" fill="none" /><line x1="411.56" y1="590.08" x2="415.48" y2="594.01" /><line x1="415.48" y1="590.08" x2="411.56" y2="594.01" /><circle cx="399.01" cy="619.66" r="3.52" fill="none" /><line x1="396.55" y1="617.20" x2="401.47" y2="622.13" /><line x1="401.47" y1="617.20" x2="396.55" y2="622.13" /><circle cx="420.00" cy="647.28" r="3.29" fill="none" /><circle cx="391.76" cy="674.90" r="3.58" fill="none" /><circle cx="419.77" cy="702.52" r="3.12" fill="none" /><path d="M 414.51,322.00 L 415.39,326.20 L 416.04,330.39 L 415.94,334.59 L 415.22,338.79 L 413.93,342.98 L 412.62,347.18 L 411.62,351.38 L 410.79,355.58 L 410.34,359.77 L 410.11,363.97 L 409.43,368.17 L 408.21,372.36 L 406.90,376.56 L 405.36,380.76 L 403.74,384.95 L 402.21,389.15 L 401.06,393.35 L 400.29,397.55 L 399.46,401.74 L 399.43,405.94 L 399.88,410.14 L 400.63,414.33 L 401.47,418.53 L 402.68,422.73 L 403.85,426.92 L 405.18,431.12 L 406.71,435.32 L 408.19,439.51 L 409.85,443.71 L 411.03,447.91 L 412.06,452.11 L 413.00,456.30 L 413.77,460.50 L 414.20,464.70 L 414.61,468.89 L 414.52,473.09 L 414.14,477.29 L 413.59,481.48 L 412.89,485.68 L 412.01,489.88 L 411.09,494.08 L 410.35,498.27 L 409.42,502.47 L 408.42,506.67 L 407.45,510.86 L 406.28,515.06 L 405.19,519.26 L 404.11,523.45 L 402.91,527.65 L 401.68,531.85 L 400.41,536.05 L 399.04,540.24 L 398.20,544.44 L 397.53,548.64 L 397.18,552.83 L 397.50,557.03 L 397.83,561.23 L 398.08,565.42 L 398.62,569.62 L 399.33,573.82 L 400.18,578.01 L 401.23,582.21 L 402.12,586.41 L 403.45,590.61 L 404.83,594.80 L 406.28,599.00 L 408.07,603.20 L 410.12,607.39 L 411.48,611.59 L 412.94,615.79 L 413.61,619.98 L 413.62,624.18 L 413.62,628.38 L 413.58,632.58 L 413.62,636.77 L 413.72,640.97 L 413.91,645.17 L 413.69,649.36 L 413.22,653.56" fill="none" /><line x1="408.22" y1="645.56" x2="413.22" y2="653.56" /><line x1="418.22" y1="645.56" x2="413.22" y2="653.56" /></g></svg>