<?xml version='1.0' encoding='utf-8'?>
<svg xmlns="http://www.w3.org/2000/svg" xmlns:inkscape="http://www.inkscape.org/namespaces/inkscape" viewBox="204 228 408 600"><style>*{vector-effect:non-scaling-stroke}</style><g id="01_Black_Frame" inkscape:groupmode="layer" inkscape:label="01_Black_Frame" stroke="#1A1A1A" fill="none" stroke-width="0.875" stroke-linecap="round" stroke-linejoin="round"><path d="M 250.0,264.0 L 566.0,264.0 Q 576.0,264.0 576.0,274.0 L 576.0,782.0 Q 576.0,792.0 566.0,792.0 L 250.0,792.0 Q 240.0,792.0 240.0,782.0 L 240.0,274.0 Q 240.0,264.0 250.0,264.0" /><path d="M 253.0,270.0 L 563.0,270.0 Q 570.0,270.0 570.0,277.0 L 570.0,779.0 Q 570.0,786.0 563.0,786.0 L 253.0,786.0 Q 246.0,786.0 246.0,779.0 L 246.0,277.0 Q 246.0,270.0 253.0,270.0" /><line x1="259.0" y1="280.0" x2="263.0" y2="280.0" /><line x1="258.1" y1="282.1" x2="260.9" y2="284.9" /><line x1="256.0" y1="283.0" x2="256.0" y2="287.0" /><line x1="253.9" y1="282.1" x2="251.1" y2="284.9" /><line x1="253.0" y1="280.0" x2="249.0" y2="280.0" /><line x1="253.9" y1="277.9" x2="251.1" y2="275.1" /><line x1="256.0" y1="277.0" x2="256.0" y2="273.0" /><line x1="258.1" y1="277.9" x2="260.9" y2="275.1" /><line x1="563.0" y1="280.0" x2="567.0" y2="280.0" /><line x1="562.1" y1="282.1" x2="564.9" y2="284.9" /><line x1="560.0" y1="283.0" x2="560.0" y2="287.0" /><line x1="557.9" y1="282.1" x2="555.1" y2="284.9" /><line x1="557.0" y1="280.0" x2="553.0" y2="280.0" /><line x1="557.9" y1="277.9" x2="555.1" y2="275.1" /><line x1="560.0" y1="277.0" x2="560.0" y2="273.0" /><line x1="562.1" y1="277.9" x2="564.9" y2="275.1" /><line x1="259.0" y1="776.0" x2="263.0" y2="776.0" /><line x1="258.1" y1="778.1" x2="260.9" y2="780.9" /><line x1="256.0" y1="779.0" x2="256.0" y2="783.0" /><line x1="253.9" y1="778.1" x2="251.1" y2="780.9" /><line x1="253.0" y1="776.0" x2="249.0" y2="776.0" /><line x1="253.9" y1="773.9" x2="251.1" y2="771.1" /><line x1="256.0" y1="773.0" x2="256.0" y2="769.0" /><line x1="258.1" y1="773.9" x2="260.9" y2="771.1" /><line x1="563.0" y1="776.0" x2="567.0" y2="776.0" /><line x1="562.1" y1="778.1" x2="564.9" y2="780.9" /><line x1="560.0" y1="779.0" x2="560.0" y2="783.0" /><line x1="557.9" y1="778.1" x2="555.1" y2="780.9" /><line x1="557.0" y1="776.0" x2="553.0" y2="776.0" /><line x1="557.9" y1="773.9" x2="555.1" y2="771.1" /><line x1="560.0" y1="773.0" x2="560.0" y2="769.0" /><line x1="562.1" y1="773.9" x2="564.9" y2="771.1" /><polyline points="403.88,283.20 402.12,282.00 401.12,282.00 399.38,283.60 399.38,288.40 401.12,290.00 402.12,290.00 403.88,288.80" /><polyline points="407.62,282.00 407.62,290.00" /><polyline points="410.88,282.00 415.88,290.00" /><polyline points="415.88,282.00 410.88,290.00" /><polyline points="378.10,297.00 384.60,297.00" /><polyline points="381.35,297.00 381.35,307.00" /><polyline points="385.58,297.00 385.58,307.00" /><polyline points="392.08,297.00 392.08,307.00" /><polyline points="385.58,301.80 392.08,301.80" /><polyline points="398.57,297.00 393.05,297.00 393.05,301.80 396.95,301.80" /><polyline points="393.05,301.80 393.05,307.00 398.57,307.00" /><polyline points="408.00,307.00 408.00,297.00 411.57,297.00 413.85,299.50 413.85,304.50 411.57,307.00 408.00,307.00" /><polyline points="418.73,297.00 416.12,298.00 415.48,300.00 415.48,304.00 416.12,306.00 418.73,307.00 421.33,306.00 421.98,304.00 421.98,300.00 421.33,298.00 418.73,297.00" /><polyline points="428.48,298.00 426.85,297.00 424.90,297.00 423.28,298.50 422.95,300.00 423.93,301.20 426.20,302.00 428.48,302.80 429.45,304.00 429.13,305.50 427.50,307.00 425.23,307.00 423.60,306.00" /><polyline points="435.95,297.00 430.43,297.00 430.43,301.80 434.32,301.80" /><polyline points="430.43,301.80 430.43,307.00 435.95,307.00" /><line x1="270.0" y1="312.0" x2="546.0" y2="312.0" /><line x1="270.0" y1="732.0" x2="546.0" y2="732.0" /><polyline points="364.32,740.75 364.32,745.25" /><polyline points="366.14,745.25 366.14,740.75 367.96,740.75 368.52,741.29 368.52,742.01 367.96,742.55 366.14,742.55 367.96,742.55 368.52,743.09 368.52,744.71 367.96,745.25 366.14,745.25" /><polyline points="370.76,740.75 369.64,741.20 369.36,742.10 369.36,743.90 369.64,744.80 370.76,745.25 371.88,744.80 372.16,743.90 372.16,742.10 371.88,741.20 370.76,740.75" /><polyline points="375.10,741.42 374.12,740.75 373.56,740.75 372.58,741.65 372.58,744.35 373.56,745.25 374.12,745.25 375.10,744.58 375.10,743.00 373.98,743.00" /><polyline points="375.80,745.25 377.20,740.75 378.60,745.25" /><polyline points="376.30,743.67 378.10,743.67" /><polyline points="380.42,740.75 380.42,745.25" /><polyline points="382.24,745.25 382.24,740.75 385.04,745.25 385.04,740.75" /><polyline points="387.84,740.75 385.46,740.75 385.46,742.91 387.14,742.91" /><polyline points="385.46,742.91 385.46,745.25 387.84,745.25" /><polyline points="395.12,740.75 395.12,745.25" /><polyline points="397.92,740.75 397.92,745.25" /><polyline points="395.12,742.91 397.92,742.91" /><polyline points="399.74,740.75 398.62,741.20 398.34,742.10 398.34,743.90 398.62,744.80 399.74,745.25 400.86,744.80 401.14,743.90 401.14,742.10 400.86,741.20 399.74,740.75" /><polyline points="401.56,745.25 401.56,740.75 403.38,740.75 404.08,741.42 404.08,742.19 403.38,742.77 401.56,742.77 404.08,745.25" /><polyline points="404.78,745.25 404.78,740.75 406.18,743.23 407.58,740.75 407.58,745.25" /><polyline points="408.00,740.75 408.00,744.12 408.56,745.02 410.24,745.02 410.80,744.12 410.80,740.75" /><polyline points="411.22,740.75 414.02,740.75 411.22,745.25 414.02,745.25" /><polyline points="423.26,741.20 422.56,740.75 421.72,740.75 421.02,741.42 420.88,742.10 421.30,742.64 422.28,743.00 423.26,743.36 423.68,743.90 423.54,744.58 422.84,745.25 421.86,745.25 421.16,744.80" /><polyline points="424.10,740.75 424.10,745.25" /><polyline points="426.90,740.75 426.90,745.25" /><polyline points="424.10,742.91 426.90,742.91" /><polyline points="427.32,745.25 427.32,740.75 429.14,740.75 429.84,741.42 429.84,742.19 429.14,742.77 427.32,742.77 429.84,745.25" /><polyline points="432.92,740.75 430.54,740.75 430.54,742.91 432.22,742.91" /><polyline points="430.54,742.91 430.54,745.25 432.92,745.25" /><polyline points="433.76,740.75 435.16,745.25 436.56,740.75" /><polyline points="439.36,740.75 436.98,740.75 436.98,742.91 438.66,742.91" /><polyline points="436.98,742.91 436.98,745.25 439.36,745.25" /><polyline points="440.20,745.25 440.20,740.75 442.02,740.75 442.72,741.42 442.72,742.19 442.02,742.77 440.20,742.77" /><polyline points="444.82,740.75 443.70,741.20 443.42,742.10 443.42,743.90 443.70,744.80 444.82,745.25 445.94,744.80 446.22,743.90 446.22,742.10 445.94,741.20 444.82,740.75" /><polyline points="446.64,745.25 446.64,740.75 448.46,740.75 449.16,741.42 449.16,742.19 448.46,742.77 446.64,742.77 449.16,745.25" /><polyline points="449.86,740.75 452.66,740.75" /><polyline points="451.26,740.75 451.26,745.25" /><polyline points="336.12,753.25 341.12,753.25" /><polyline points="338.62,753.25 338.62,760.75" /><polyline points="341.88,753.25 341.88,760.75" /><polyline points="346.88,753.25 346.88,760.75" /><polyline points="341.88,756.85 346.88,756.85" /><polyline points="351.88,753.25 347.62,753.25 347.62,756.85 350.62,756.85" /><polyline points="347.62,756.85 347.62,760.75 351.88,760.75" /><polyline points="359.12,753.25 359.12,760.75 363.38,760.75" /><polyline points="367.38,753.25 365.38,754.00 364.88,755.50 364.88,758.50 365.38,760.00 367.38,760.75 369.38,760.00 369.88,758.50 369.88,755.50 369.38,754.00 367.38,753.25" /><polyline points="375.12,754.38 373.38,753.25 372.38,753.25 370.62,754.75 370.62,759.25 372.38,760.75 373.38,760.75 375.12,759.62" /><polyline points="376.38,753.25 376.38,760.75" /><polyline points="380.88,753.25 376.38,757.00 380.88,760.75" /><polyline points="386.38,753.25 382.12,753.25 382.12,756.85 385.12,756.85" /><polyline points="382.12,756.85 382.12,760.75 386.38,760.75" /><polyline points="387.88,760.75 387.88,753.25 390.62,753.25 392.38,755.12 392.38,758.88 390.62,760.75 387.88,760.75" /><polyline points="403.88,754.38 402.12,753.25 401.12,753.25 399.38,754.75 399.38,759.25 401.12,760.75 402.12,760.75 403.88,759.62" /><polyline points="405.12,760.75 407.62,753.25 410.12,760.75" /><polyline points="406.02,758.12 409.23,758.12" /><polyline points="410.88,760.75 410.88,753.25 414.12,753.25 415.12,754.15 415.12,755.35 414.12,756.25 410.88,756.25 414.12,756.25 415.12,757.15 415.12,759.85 414.12,760.75 410.88,760.75" /><polyline points="419.12,753.25 419.12,760.75" /><polyline points="422.38,760.75 422.38,753.25 427.38,760.75 427.38,753.25" /><polyline points="432.38,753.25 428.12,753.25 428.12,756.85 431.12,756.85" /><polyline points="428.12,756.85 428.12,760.75 432.38,760.75" /><polyline points="433.88,753.25 438.88,753.25" /><polyline points="436.38,753.25 436.38,760.75" /><polyline points="447.88,753.25 445.88,754.00 445.38,755.50 445.38,758.50 445.88,760.00 447.88,760.75 449.88,760.00 450.38,758.50 450.38,755.50 449.88,754.00 447.88,753.25" /><polyline points="451.12,760.75 451.12,753.25 454.38,753.25 455.62,754.38 455.62,755.65 454.38,756.62 451.12,756.62" /><polyline points="461.12,753.25 456.88,753.25 456.88,756.85 459.88,756.85" /><polyline points="456.88,756.85 456.88,760.75 461.12,760.75" /><polyline points="462.62,760.75 462.62,753.25 467.62,760.75 467.62,753.25" /><polyline points="472.62,753.25 468.38,753.25 468.38,756.85 471.38,756.85" /><polyline points="468.38,756.85 468.38,760.75 472.62,760.75" /><polyline points="474.12,760.75 474.12,753.25 476.88,753.25 478.62,755.12 478.62,758.88 476.88,760.75 474.12,760.75" /><polyline points="330.38,766.25 331.62,773.75 332.88,768.88 334.12,773.75 335.38,766.25" /><polyline points="336.12,766.25 336.12,773.75" /><polyline points="341.12,766.25 341.12,773.75" /><polyline points="336.12,769.85 341.12,769.85" /><polyline points="344.38,766.25 344.38,773.75" /><polyline points="347.62,766.25 347.62,773.75 351.88,773.75" /><polyline points="357.62,766.25 353.38,766.25 353.38,769.85 356.38,769.85" /><polyline points="353.38,769.85 353.38,773.75 357.62,773.75" /><polyline points="364.88,766.25 369.88,766.25" /><polyline points="367.38,766.25 367.38,773.75" /><polyline points="370.62,766.25 370.62,773.75" /><polyline points="375.62,766.25 375.62,773.75" /><polyline points="370.62,769.85 375.62,769.85" /><polyline points="380.62,766.25 376.38,766.25 376.38,769.85 379.38,769.85" /><polyline points="376.38,769.85 376.38,773.75 380.62,773.75" /><polyline points="387.88,766.25 389.12,773.75 390.38,768.88 391.62,773.75 392.88,766.25" /><polyline points="393.62,773.75 396.12,766.25 398.62,773.75" /><polyline points="394.52,771.12 397.73,771.12" /><polyline points="399.38,766.25 404.38,766.25" /><polyline points="401.88,766.25 401.88,773.75" /><polyline points="409.38,766.25 405.12,766.25 405.12,769.85 408.12,769.85" /><polyline points="405.12,769.85 405.12,773.75 409.38,773.75" /><polyline points="410.88,773.75 410.88,766.25 414.12,766.25 415.38,767.38 415.38,768.65 414.12,769.62 410.88,769.62 415.38,773.75" /><polyline points="426.62,767.00 425.38,766.25 423.88,766.25 422.62,767.38 422.38,768.50 423.12,769.40 424.88,770.00 426.62,770.60 427.38,771.50 427.12,772.62 425.88,773.75 424.12,773.75 422.88,773.00" /><polyline points="428.12,766.25 433.12,766.25" /><polyline points="430.62,766.25 430.62,773.75" /><polyline points="433.88,773.75 436.38,766.25 438.88,773.75" /><polyline points="434.77,771.12 437.98,771.12" /><polyline points="439.62,766.25 442.12,770.00 444.62,766.25" /><polyline points="442.12,770.00 442.12,773.75" /><polyline points="449.62,766.25 445.38,766.25 445.38,769.85 448.38,769.85" /><polyline points="445.38,769.85 445.38,773.75 449.62,773.75" /><polyline points="451.12,773.75 451.12,766.25 453.88,766.25 455.62,768.12 455.62,771.88 453.88,773.75 451.12,773.75" /><polyline points="466.88,767.00 465.62,766.25 464.12,766.25 462.88,767.38 462.62,768.50 463.38,769.40 465.12,770.00 466.88,770.60 467.62,771.50 467.38,772.62 466.12,773.75 464.38,773.75 463.12,773.00" /><polyline points="468.38,766.25 468.38,773.75" /><polyline points="473.38,766.25 473.38,773.75" /><polyline points="468.38,769.85 473.38,769.85" /><polyline points="474.12,766.25 474.12,771.88 475.12,773.38 478.12,773.38 479.12,771.88 479.12,766.25" /><polyline points="479.88,766.25 484.88,766.25" /><polyline points="482.38,766.25 482.38,773.75" /><polyline points="385.68,779.50 385.68,784.50" /><polyline points="387.76,779.50 389.36,784.50 390.96,779.50" /><polyline points="393.04,784.00 393.04,784.25" /><polyline points="395.12,779.50 398.32,784.50" /><polyline points="398.32,779.50 395.12,784.50" /><polyline points="400.40,779.50 400.40,784.50" /><polyline points="402.48,779.50 405.68,784.50" /><polyline points="405.68,779.50 402.48,784.50" /><polyline points="407.76,784.00 407.76,784.25" /><polyline points="409.84,784.50 409.84,779.50 411.44,782.25 413.04,779.50 413.04,784.50" /><polyline points="413.52,784.50 413.52,779.50 415.12,782.25 416.72,779.50 416.72,784.50" /><polyline points="417.20,779.50 420.40,784.50" /><polyline points="420.40,779.50 417.20,784.50" /><polyline points="420.88,779.50 424.08,784.50" /><polyline points="424.08,779.50 420.88,784.50" /><polyline points="424.56,779.50 426.16,784.50 427.76,779.50" /><polyline points="429.84,779.50 429.84,784.50" /></g><g id="02_SeaGray_Cabinet" inkscape:groupmode="layer" inkscape:label="02_SeaGray_Cabinet" stroke="#36505A" fill="none" stroke-width="0.95" stroke-linecap="round" stroke-linejoin="round"><path d="M 255.00,324.00 L 313.80,324.00 L 313.80,378.29 L 255.00,378.29 L 255.00,324.00" fill="none" /><path d="M 277.34,371.77 L 291.46,371.77" fill="none" /><path d="M 316.80,324.00 L 375.60,324.00 L 375.60,378.29 L 316.80,378.29 L 316.80,324.00" fill="none" /><path d="M 339.14,371.77 L 353.26,371.77" fill="none" /><path d="M 378.60,324.00 L 437.40,324.00 L 437.40,378.29 L 378.60,378.29 L 378.60,324.00" fill="none" /><path d="M 400.94,371.77 L 415.06,371.77" fill="none" /><path d="M 440.40,324.00 L 499.20,324.00 L 499.20,378.29 L 440.40,378.29 L 440.40,324.00" fill="none" /><path d="M 462.74,371.77 L 476.86,371.77" fill="none" /><path d="M 502.20,324.00 L 561.00,324.00 L 561.00,378.29 L 502.20,378.29 L 502.20,324.00" fill="none" /><path d="M 524.54,371.77 L 538.66,371.77" fill="none" /><path d="M 255.00,381.29 L 313.80,381.29 L 313.80,435.57 L 255.00,435.57 L 255.00,381.29" fill="none" /><path d="M 277.34,429.06 L 291.46,429.06" fill="none" /><path d="M 316.80,381.29 L 375.60,381.29 L 375.60,435.57 L 316.80,435.57 L 316.80,381.29" fill="none" /><path d="M 339.14,429.06 L 353.26,429.06" fill="none" /><path d="M 378.60,381.29 L 437.40,381.29 L 437.40,435.57 L 378.60,435.57 L 378.60,381.29" fill="none" /><path d="M 400.94,429.06 L 415.06,429.06" fill="none" /><path d="M 440.40,381.29 L 499.20,381.29 L 499.20,435.57 L 440.40,435.57 L 440.40,381.29" fill="none" /><path d="M 462.74,429.06 L 476.86,429.06" fill="none" /><path d="M 502.20,381.29 L 561.00,381.29 L 561.00,435.57 L 502.20,435.57 L 502.20,381.29" fill="none" /><path d="M 524.54,429.06 L 538.66,429.06" fill="none" /><path d="M 255.00,438.57 L 313.80,438.57 L 313.80,492.86 L 255.00,492.86 L 255.00,438.57" fill="none" /><path d="M 277.34,486.34 L 291.46,486.34" fill="none" /><path d="M 316.80,438.57 L 375.60,438.57 L 375.60,492.86 L 316.80,492.86 L 316.80,438.57" fill="none" /><path d="M 339.14,486.34 L 353.26,486.34" fill="none" /><path d="M 378.60,438.57 L 437.40,438.57 L 437.40,492.86 L 378.60,492.86 L 378.60,438.57" fill="none" /><path d="M 400.94,486.34 L 415.06,486.34" fill="none" /><path d="M 440.40,438.57 L 499.20,438.57 L 499.20,492.86 L 440.40,492.86 L 440.40,438.57" fill="none" /><path d="M 462.74,486.34 L 476.86,486.34" fill="none" /><path d="M 502.20,438.57 L 561.00,438.57 L 561.00,492.86 L 502.20,492.86 L 502.20,438.57" fill="none" /><path d="M 524.54,486.34 L 538.66,486.34" fill="none" /><path d="M 255.00,495.86 L 313.80,495.86 L 313.80,550.14 L 255.00,550.14 L 255.00,495.86" fill="none" /><path d="M 277.34,543.63 L 291.46,543.63" fill="none" /><path d="M 316.80,495.86 L 375.60,495.86 L 375.60,550.14 L 316.80,550.14 L 316.80,495.86" fill="none" /><path d="M 339.14,543.63 L 353.26,543.63" fill="none" /><path d="M 378.60,495.86 L 437.40,495.86 L 437.40,550.14 L 378.60,550.14 L 378.60,495.86" fill="none" /><path d="M 400.94,543.63 L 415.06,543.63" fill="none" /><path d="M 440.40,495.86 L 499.20,495.86 L 499.20,550.14 L 440.40,550.14 L 440.40,495.86" fill="none" /><path d="M 462.74,543.63 L 476.86,543.63" fill="none" /><path d="M 502.20,495.86 L 561.00,495.86 L 561.00,550.14 L 502.20,550.14 L 502.20,495.86" fill="none" /><path d="M 524.54,543.63 L 538.66,543.63" fill="none" /><path d="M 255.00,553.14 L 313.80,553.14 L 313.80,607.43 L 255.00,607.43 L 255.00,553.14" fill="none" /><path d="M 277.34,600.91 L 291.46,600.91" fill="none" /><path d="M 316.80,553.14 L 375.60,553.14 L 375.60,607.43 L 316.80,607.43 L 316.80,553.14" fill="none" /><path d="M 339.14,600.91 L 353.26,600.91" fill="none" /><path d="M 378.60,553.14 L 437.40,553.14 L 437.40,607.43 L 378.60,607.43 L 378.60,553.14" fill="none" /><path d="M 400.94,600.91 L 415.06,600.91" fill="none" /><path d="M 440.40,553.14 L 499.20,553.14 L 499.20,607.43 L 440.40,607.43 L 440.40,553.14" fill="none" /><path d="M 462.74,600.91 L 476.86,600.91" fill="none" /><path d="M 502.20,553.14 L 561.00,553.14 L 561.00,607.43 L 502.20,607.43 L 502.20,553.14" fill="none" /><path d="M 524.54,600.91 L 538.66,600.91" fill="none" /><path d="M 255.00,610.43 L 313.80,610.43 L 313.80,664.71 L 255.00,664.71 L 255.00,610.43" fill="none" /><path d="M 277.34,658.20 L 291.46,658.20" fill="none" /><path d="M 316.80,610.43 L 375.60,610.43 L 375.60,664.71 L 316.80,664.71 L 316.80,610.43" fill="none" /><path d="M 339.14,658.20 L 353.26,658.20" fill="none" /><path d="M 378.60,610.43 L 437.40,610.43 L 437.40,664.71 L 378.60,664.71 L 378.60,610.43" fill="none" /><path d="M 400.94,658.20 L 415.06,658.20" fill="none" /><path d="M 440.40,610.43 L 499.20,610.43 L 499.20,664.71 L 440.40,664.71 L 440.40,610.43" fill="none" /><path d="M 462.74,658.20 L 476.86,658.20" fill="none" /><path d="M 502.20,610.43 L 561.00,610.43 L 561.00,664.71 L 502.20,664.71 L 502.20,610.43" fill="none" /><path d="M 524.54,658.20 L 538.66,658.20" fill="none" /><path d="M 255.00,667.71 L 313.80,667.71 L 313.80,722.00 L 255.00,722.00 L 255.00,667.71" fill="none" /><path d="M 277.34,715.49 L 291.46,715.49" fill="none" /><path d="M 316.80,667.71 L 375.60,667.71 L 375.60,722.00 L 316.80,722.00 L 316.80,667.71" fill="none" /><path d="M 339.14,715.49 L 353.26,715.49" fill="none" /><path d="M 378.60,667.71 L 437.40,667.71 L 437.40,722.00 L 378.60,722.00 L 378.60,667.71" fill="none" /><path d="M 400.94,715.49 L 415.06,715.49" fill="none" /><path d="M 440.40,667.71 L 499.20,667.71 L 499.20,722.00 L 440.40,722.00 L 440.40,667.71" fill="none" /><path d="M 462.74,715.49 L 476.86,715.49" fill="none" /><path d="M 502.20,667.71 L 561.00,667.71 L 561.00,722.00 L 502.20,722.00 L 502.20,667.71" fill="none" /><path d="M 524.54,715.49 L 538.66,715.49" fill="none" /></g><g id="03_Crimson_Locked" inkscape:groupmode="layer" inkscape:label="03_Crimson_Locked" stroke="#8A1820" fill="none" stroke-width="1.05" stroke-linecap="round" stroke-linejoin="round"><path d="M 259.00,328.00 L 309.80,374.29" fill="none" /><path d="M 309.80,328.00 L 259.00,374.29" fill="none" /><path d="M 267.94,351.14 L 300.86,351.14" fill="none" stroke-width="1.38" /><path d="M 320.80,328.00 L 371.60,374.29" fill="none" /><path d="M 371.60,328.00 L 320.80,374.29" fill="none" /><path d="M 329.74,351.14 L 362.66,351.14" fill="none" stroke-width="1.38" /><path d="M 382.60,328.00 L 433.40,374.29" fill="none" /><path d="M 433.40,328.00 L 382.60,374.29" fill="none" /><path d="M 391.54,351.14 L 424.46,351.14" fill="none" stroke-width="1.38" /><path d="M 444.40,328.00 L 495.20,374.29" fill="none" /><path d="M 495.20,328.00 L 444.40,374.29" fill="none" /><path d="M 453.34,351.14 L 486.26,351.14" fill="none" stroke-width="1.38" /><path d="M 506.20,328.00 L 557.00,374.29" fill="none" /><path d="M 557.00,328.00 L 506.20,374.29" fill="none" /><path d="M 515.14,351.14 L 548.06,351.14" fill="none" stroke-width="1.38" /><path d="M 259.00,385.29 L 309.80,431.57" fill="none" /><path d="M 309.80,385.29 L 259.00,431.57" fill="none" /><path d="M 267.94,408.43 L 300.86,408.43" fill="none" stroke-width="1.38" /><path d="M 320.80,385.29 L 371.60,431.57" fill="none" /><path d="M 371.60,385.29 L 320.80,431.57" fill="none" /><path d="M 329.74,408.43 L 362.66,408.43" fill="none" stroke-width="1.38" /><path d="M 382.60,385.29 L 433.40,431.57" fill="none" /><path d="M 433.40,385.29 L 382.60,431.57" fill="none" /><path d="M 391.54,408.43 L 424.46,408.43" fill="none" stroke-width="1.38" /><path d="M 444.40,385.29 L 495.20,431.57" fill="none" /><path d="M 495.20,385.29 L 444.40,431.57" fill="none" /><path d="M 453.34,408.43 L 486.26,408.43" fill="none" stroke-width="1.38" /><path d="M 506.20,385.29 L 557.00,431.57" fill="none" /><path d="M 557.00,385.29 L 506.20,431.57" fill="none" /><path d="M 515.14,408.43 L 548.06,408.43" fill="none" stroke-width="1.38" /><path d="M 259.00,442.57 L 309.80,488.86" fill="none" /><path d="M 309.80,442.57 L 259.00,488.86" fill="none" /><path d="M 267.94,465.71 L 300.86,465.71" fill="none" stroke-width="1.38" /><path d="M 320.80,442.57 L 371.60,488.86" fill="none" /><path d="M 371.60,442.57 L 320.80,488.86" fill="none" /><path d="M 329.74,465.71 L 362.66,465.71" fill="none" stroke-width="1.38" /><path d="M 382.60,442.57 L 433.40,488.86" fill="none" /><path d="M 433.40,442.57 L 382.60,488.86" fill="none" /><path d="M 391.54,465.71 L 424.46,465.71" fill="none" stroke-width="1.38" /><path d="M 444.40,442.57 L 495.20,488.86" fill="none" /><path d="M 495.20,442.57 L 444.40,488.86" fill="none" /><path d="M 453.34,465.71 L 486.26,465.71" fill="none" stroke-width="1.38" /><path d="M 506.20,442.57 L 557.00,488.86" fill="none" /><path d="M 557.00,442.57 L 506.20,488.86" fill="none" /><path d="M 515.14,465.71 L 548.06,465.71" fill="none" stroke-width="1.38" /><path d="M 259.00,499.86 L 309.80,546.14" fill="none" /><path d="M 309.80,499.86 L 259.00,546.14" fill="none" /><path d="M 267.94,523.00 L 300.86,523.00" fill="none" stroke-width="1.38" /><path d="M 320.80,499.86 L 371.60,546.14" fill="none" /><path d="M 371.60,499.86 L 320.80,546.14" fill="none" /><path d="M 329.74,523.00 L 362.66,523.00" fill="none" stroke-width="1.38" /><path d="M 444.40,499.86 L 495.20,546.14" fill="none" /><path d="M 495.20,499.86 L 444.40,546.14" fill="none" /><path d="M 453.34,523.00 L 486.26,523.00" fill="none" stroke-width="1.38" /><path d="M 506.20,499.86 L 557.00,546.14" fill="none" /><path d="M 557.00,499.86 L 506.20,546.14" fill="none" /><path d="M 515.14,523.00 L 548.06,523.00" fill="none" stroke-width="1.38" /><path d="M 259.00,557.14 L 309.80,603.43" fill="none" /><path d="M 309.80,557.14 L 259.00,603.43" fill="none" /><path d="M 267.94,580.29 L 300.86,580.29" fill="none" stroke-width="1.38" /><path d="M 320.80,557.14 L 371.60,603.43" fill="none" /><path d="M 371.60,557.14 L 320.80,603.43" fill="none" /><path d="M 329.74,580.29 L 362.66,580.29" fill="none" stroke-width="1.38" /><path d="M 382.60,557.14 L 433.40,603.43" fill="none" /><path d="M 433.40,557.14 L 382.60,603.43" fill="none" /><path d="M 391.54,580.29 L 424.46,580.29" fill="none" stroke-width="1.38" /><path d="M 444.40,557.14 L 495.20,603.43" fill="none" /><path d="M 495.20,557.14 L 444.40,603.43" fill="none" /><path d="M 453.34,580.29 L 486.26,580.29" fill="none" stroke-width="1.38" /><path d="M 506.20,557.14 L 557.00,603.43" fill="none" /><path d="M 557.00,557.14 L 506.20,603.43" fill="none" /><path d="M 515.14,580.29 L 548.06,580.29" fill="none" stroke-width="1.38" /><path d="M 259.00,614.43 L 309.80,660.71" fill="none" /><path d="M 309.80,614.43 L 259.00,660.71" fill="none" /><path d="M 267.94,637.57 L 300.86,637.57" fill="none" stroke-width="1.38" /><path d="M 320.80,614.43 L 371.60,660.71" fill="none" /><path d="M 371.60,614.43 L 320.80,660.71" fill="none" /><path d="M 329.74,637.57 L 362.66,637.57" fill="none" stroke-width="1.38" /><path d="M 382.60,614.43 L 433.40,660.71" fill="none" /><path d="M 433.40,614.43 L 382.60,660.71" fill="none" /><path d="M 391.54,637.57 L 424.46,637.57" fill="none" stroke-width="1.38" /><path d="M 444.40,614.43 L 495.20,660.71" fill="none" /><path d="M 495.20,614.43 L 444.40,660.71" fill="none" /><path d="M 453.34,637.57 L 486.26,637.57" fill="none" stroke-width="1.38" /><path d="M 506.20,614.43 L 557.00,660.71" fill="none" /><path d="M 557.00,614.43 L 506.20,660.71" fill="none" /><path d="M 515.14,637.57 L 548.06,637.57" fill="none" stroke-width="1.38" /><path d="M 259.00,671.71 L 309.80,718.00" fill="none" /><path d="M 309.80,671.71 L 259.00,718.00" fill="none" /><path d="M 267.94,694.86 L 300.86,694.86" fill="none" stroke-width="1.38" /><path d="M 320.80,671.71 L 371.60,718.00" fill="none" /><path d="M 371.60,671.71 L 320.80,718.00" fill="none" /><path d="M 329.74,694.86 L 362.66,694.86" fill="none" stroke-width="1.38" /><path d="M 382.60,671.71 L 433.40,718.00" fill="none" /><path d="M 433.40,671.71 L 382.60,718.00" fill="none" /><path d="M 391.54,694.86 L 424.46,694.86" fill="none" stroke-width="1.38" /><path d="M 444.40,671.71 L 495.20,718.00" fill="none" /><path d="M 495.20,671.71 L 444.40,718.00" fill="none" /><path d="M 453.34,694.86 L 486.26,694.86" fill="none" stroke-width="1.38" /><path d="M 506.20,671.71 L 557.00,718.00" fill="none" /><path d="M 557.00,671.71 L 506.20,718.00" fill="none" /><path d="M 515.14,694.86 L 548.06,694.86" fill="none" stroke-width="1.38" /></g><g id="04_Gold_Dose" inkscape:groupmode="layer" inkscape:label="04_Gold_Dose" stroke="#B8960C" fill="none" stroke-width="1.5" stroke-linecap="round" stroke-linejoin="round"><path d="M 426.46,523.00 L 426.30,525.41 L 425.83,527.78 L 425.05,530.06 L 423.98,532.23 L 422.64,534.24 L 421.05,536.05 L 419.24,537.64 L 417.23,538.98 L 415.06,540.05 L 412.78,540.83 L 410.41,541.30 L 408.00,541.46 L 405.59,541.30 L 403.22,540.83 L 400.94,540.05 L 398.77,538.98 L 396.76,537.64 L 394.95,536.05 L 393.36,534.24 L 392.02,532.23 L 390.95,530.06 L 390.17,527.78 L 389.70,525.41 L 389.54,523.00 L 389.70,520.59 L 390.17,518.22 L 390.95,515.94 L 392.02,513.77 L 393.36,511.76 L 394.95,509.95 L 396.76,508.36 L 398.77,507.02 L 400.94,505.95 L 403.22,505.17 L 405.59,504.70 L 408.00,504.54 L 410.41,504.70 L 412.78,505.17 L 415.06,505.95 L 417.23,507.02 L 419.24,508.36 L 421.05,509.95 L 422.64,511.76 L 423.98,513.77 L 425.05,515.94 L 425.83,518.22 L 426.30,520.59 L 426.46,523.00" fill="none" /><path d="M 421.29,523.00 L 421.18,524.73 L 420.84,526.44 L 420.28,528.09 L 419.51,529.64 L 418.54,531.09 L 417.40,532.40 L 416.09,533.54 L 414.64,534.51 L 413.09,535.28 L 411.44,535.84 L 409.73,536.18 L 408.00,536.29 L 406.27,536.18 L 404.56,535.84 L 402.91,535.28 L 401.36,534.51 L 399.91,533.54 L 398.60,532.40 L 397.46,531.09 L 396.49,529.64 L 395.72,528.09 L 395.16,526.44 L 394.82,524.73 L 394.71,523.00 L 394.82,521.27 L 395.16,519.56 L 395.72,517.91 L 396.49,516.36 L 397.46,514.91 L 398.60,513.60 L 399.91,512.46 L 401.36,511.49 L 402.91,510.72 L 404.56,510.16 L 406.27,509.82 L 408.00,509.71 L 409.73,509.82 L 411.44,510.16 L 413.09,510.72 L 414.64,511.49 L 416.09,512.46 L 417.40,513.60 L 418.54,514.91 L 419.51,516.36 L 420.28,517.91 L 420.84,519.56 L 421.18,521.27 L 421.29,523.00" fill="none" /><path d="M 415.38,523.00 L 415.32,523.96 L 415.13,524.91 L 414.82,525.83 L 414.39,526.69 L 413.86,527.49 L 413.22,528.22 L 412.49,528.86 L 411.69,529.39 L 410.83,529.82 L 409.91,530.13 L 408.96,530.32 L 408.00,530.38 L 407.04,530.32 L 406.09,530.13 L 405.17,529.82 L 404.31,529.39 L 403.51,528.86 L 402.78,528.22 L 402.14,527.49 L 401.61,526.69 L 401.18,525.83 L 400.87,524.91 L 400.68,523.96 L 400.62,523.00 L 400.68,522.04 L 400.87,521.09 L 401.18,520.17 L 401.61,519.31 L 402.14,518.51 L 402.78,517.78 L 403.51,517.14 L 404.31,516.61 L 405.17,516.18 L 406.09,515.87 L 407.04,515.68 L 408.00,515.62 L 408.96,515.68 L 409.91,515.87 L 410.83,516.18 L 411.69,516.61 L 412.49,517.14 L 413.22,517.78 L 413.86,518.51 L 414.39,519.31 L 414.82,520.17 L 415.13,521.09 L 415.32,522.04 L 415.38,523.00" fill="none" /><path d="M 426.44,530.64 L 428.75,531.59" fill="none" stroke-width="1.12" /><path d="M 415.64,541.44 L 416.59,543.75" fill="none" stroke-width="1.12" /><path d="M 400.36,541.44 L 399.41,543.75" fill="none" stroke-width="1.12" /><path d="M 389.56,530.64 L 387.25,531.59" fill="none" stroke-width="1.12" /><path d="M 389.56,515.36 L 387.25,514.41" fill="none" stroke-width="1.12" /><path d="M 400.36,504.56 L 399.41,502.25" fill="none" stroke-width="1.12" /><path d="M 415.64,504.56 L 416.59,502.25" fill="none" stroke-width="1.12" /><path d="M 426.44,515.36 L 428.75,514.41" fill="none" stroke-width="1.12" /><path d="M 408.90,523.00 L 408.89,523.12 L 408.87,523.23 L 408.83,523.34 L 408.78,523.45 L 408.71,523.55 L 408.64,523.64 L 408.55,523.71 L 408.45,523.78 L 408.34,523.83 L 408.23,523.87 L 408.12,523.89 L 408.00,523.90 L 407.88,523.89 L 407.77,523.87 L 407.66,523.83 L 407.55,523.78 L 407.45,523.71 L 407.36,523.64 L 407.29,523.55 L 407.22,523.45 L 407.17,523.34 L 407.13,523.23 L 407.11,523.12 L 407.10,523.00 L 407.11,522.88 L 407.13,522.77 L 407.17,522.66 L 407.22,522.55 L 407.29,522.45 L 407.36,522.36 L 407.45,522.29 L 407.55,522.22 L 407.66,522.17 L 407.77,522.13 L 407.88,522.11 L 408.00,522.10 L 408.12,522.11 L 408.23,522.13 L 408.34,522.17 L 408.45,522.22 L 408.55,522.29 L 408.64,522.36 L 408.71,522.45 L 408.78,522.55 L 408.83,522.66 L 408.87,522.77 L 408.89,522.88 L 408.90,523.00" fill="none" /><path d="M 408.50,523.00 L 408.49,523.06 L 408.48,523.13 L 408.46,523.19 L 408.43,523.25 L 408.39,523.30 L 408.35,523.35 L 408.30,523.39 L 408.25,523.43 L 408.19,523.46 L 408.13,523.48 L 408.06,523.49 L 408.00,523.50 L 407.94,523.49 L 407.87,523.48 L 407.81,523.46 L 407.75,523.43 L 407.70,523.39 L 407.65,523.35 L 407.61,523.30 L 407.57,523.25 L 407.54,523.19 L 407.52,523.13 L 407.51,523.06 L 407.50,523.00 L 407.51,522.94 L 407.52,522.87 L 407.54,522.81 L 407.57,522.75 L 407.61,522.70 L 407.65,522.65 L 407.70,522.61 L 407.75,522.57 L 407.81,522.54 L 407.87,522.52 L 407.94,522.51 L 408.00,522.50 L 408.06,522.51 L 408.13,522.52 L 408.19,522.54 L 408.25,522.57 L 408.30,522.61 L 408.35,522.65 L 408.39,522.70 L 408.43,522.75 L 408.46,522.81 L 408.48,522.87 L 408.49,522.94 L 408.50,523.00" fill="none" /><path d="M 408.00,494.86 L 408.19,490.56 L 408.37,486.26 L 408.54,481.97 L 408.68,477.67 L 408.81,473.38 L 408.91,469.08 L 408.99,464.78 L 409.04,460.49 L 409.07,456.19 L 409.07,451.89 L 409.05,447.60 L 409.00,443.30 L 408.93,439.00 L 408.85,434.71 L 408.75,430.41 L 408.63,426.11 L 408.51,421.82 L 408.38,417.52 L 408.25,413.23 L 408.12,408.93 L 407.99,404.63 L 407.87,400.34 L 407.76,396.04 L 407.67,391.74 L 407.58,387.45 L 407.51,383.15 L 407.46,378.85 L 407.42,374.56 L 407.40,370.26 L 407.40,365.96 L 407.41,361.67 L 407.43,357.37 L 407.47,353.08 L 407.51,348.78 L 407.57,344.48 L 407.63,340.19 L 407.69,335.89 L 407.76,331.59 L 407.83,327.30 L 407.89,323.00" fill="none" /><path d="M 404.00,323.00 L 412.00,323.00" fill="none" stroke-width="1.75" /><path d="M 409.29,551.14 L 409.23,555.44 L 409.14,559.74 L 409.03,564.03 L 408.90,568.33 L 408.76,572.63 L 408.60,576.92 L 408.44,581.22 L 408.27,585.51 L 408.10,589.81 L 407.94,594.11 L 407.78,598.40 L 407.64,602.70 L 407.51,607.00 L 407.40,611.29 L 407.31,615.59 L 407.23,619.89 L 407.18,624.18 L 407.15,628.48 L 407.14,632.78 L 407.16,637.07 L 407.19,641.37 L 407.23,645.66 L 407.30,649.96 L 407.37,654.26 L 407.46,658.55 L 407.55,662.85 L 407.65,667.15 L 407.75,671.44 L 407.85,675.74 L 407.95,680.04 L 408.04,684.33 L 408.12,688.63 L 408.20,692.92 L 408.26,697.22 L 408.31,701.52 L 408.35,705.81 L 408.38,710.11 L 408.39,714.41 L 408.39,718.70 L 408.39,723.00" fill="none" /><path d="M 404.00,723.00 L 412.00,723.00" fill="none" stroke-width="1.75" /></g></svg>