<?xml version='1.0' encoding='utf-8'?>
<svg xmlns="http://www.w3.org/2000/svg" xmlns:inkscape="http://www.inkscape.org/namespaces/inkscape" viewBox="204 228 408 600"><style>*{vector-effect:non-scaling-stroke}</style><g id="01_Black_Frame" inkscape:groupmode="layer" inkscape:label="01_Black_Frame" stroke="#1A1A1A" fill="none" stroke-width="0.875" stroke-linecap="round" stroke-linejoin="round"><path d="M 250.0,264.0 L 566.0,264.0 Q 576.0,264.0 576.0,274.0 L 576.0,782.0 Q 576.0,792.0 566.0,792.0 L 250.0,792.0 Q 240.0,792.0 240.0,782.0 L 240.0,274.0 Q 240.0,264.0 250.0,264.0" /><path d="M 253.0,270.0 L 563.0,270.0 Q 570.0,270.0 570.0,277.0 L 570.0,779.0 Q 570.0,786.0 563.0,786.0 L 253.0,786.0 Q 246.0,786.0 246.0,779.0 L 246.0,277.0 Q 246.0,270.0 253.0,270.0" /><line x1="259.0" y1="280.0" x2="263.0" y2="280.0" /><line x1="258.1" y1="282.1" x2="260.9" y2="284.9" /><line x1="256.0" y1="283.0" x2="256.0" y2="287.0" /><line x1="253.9" y1="282.1" x2="251.1" y2="284.9" /><line x1="253.0" y1="280.0" x2="249.0" y2="280.0" /><line x1="253.9" y1="277.9" x2="251.1" y2="275.1" /><line x1="256.0" y1="277.0" x2="256.0" y2="273.0" /><line x1="258.1" y1="277.9" x2="260.9" y2="275.1" /><line x1="563.0" y1="280.0" x2="567.0" y2="280.0" /><line x1="562.1" y1="282.1" x2="564.9" y2="284.9" /><line x1="560.0" y1="283.0" x2="560.0" y2="287.0" /><line x1="557.9" y1="282.1" x2="555.1" y2="284.9" /><line x1="557.0" y1="280.0" x2="553.0" y2="280.0" /><line x1="557.9" y1="277.9" x2="555.1" y2="275.1" /><line x1="560.0" y1="277.0" x2="560.0" y2="273.0" /><line x1="562.1" y1="277.9" x2="564.9" y2="275.1" /><line x1="259.0" y1="776.0" x2="263.0" y2="776.0" /><line x1="258.1" y1="778.1" x2="260.9" y2="780.9" /><line x1="256.0" y1="779.0" x2="256.0" y2="783.0" /><line x1="253.9" y1="778.1" x2="251.1" y2="780.9" /><line x1="253.0" y1="776.0" x2="249.0" y2="776.0" /><line x1="253.9" y1="773.9" x2="251.1" y2="771.1" /><line x1="256.0" y1="773.0" x2="256.0" y2="769.0" /><line x1="258.1" y1="773.9" x2="260.9" y2="771.1" /><line x1="563.0" y1="776.0" x2="567.0" y2="776.0" /><line x1="562.1" y1="778.1" x2="564.9" y2="780.9" /><line x1="560.0" y1="779.0" x2="560.0" y2="783.0" /><line x1="557.9" y1="778.1" x2="555.1" y2="780.9" /><line x1="557.0" y1="776.0" x2="553.0" y2="776.0" /><line x1="557.9" y1="773.9" x2="555.1" y2="771.1" /><line x1="560.0" y1="773.0" x2="560.0" y2="769.0" /><line x1="562.1" y1="773.9" x2="564.9" y2="771.1" /><polyline points="389.50,283.20 387.75,282.00 386.75,282.00 385.00,283.60 385.00,288.40 386.75,290.00 387.75,290.00 389.50,288.80" /><polyline points="390.75,282.00 395.75,290.00" /><polyline points="395.75,282.00 390.75,290.00" /><polyline points="396.50,282.00 401.50,290.00" /><polyline points="401.50,282.00 396.50,290.00" /><polyline points="402.25,282.00 407.25,290.00" /><polyline points="407.25,282.00 402.25,290.00" /><polyline points="408.00,282.00 410.50,290.00 413.00,282.00" /><polyline points="416.25,282.00 416.25,290.00" /><polyline points="422.00,282.00 422.00,290.00" /><polyline points="427.75,282.00 427.75,290.00" /><polyline points="374.36,297.00 380.86,297.00" /><polyline points="377.61,297.00 377.61,307.00" /><polyline points="381.84,297.00 381.84,307.00" /><polyline points="388.34,297.00 388.34,307.00" /><polyline points="381.84,301.80 388.34,301.80" /><polyline points="394.84,297.00 389.31,297.00 389.31,301.80 393.21,301.80" /><polyline points="389.31,301.80 389.31,307.00 394.84,307.00" /><polyline points="409.79,298.00 408.16,297.00 406.21,297.00 404.59,298.50 404.26,300.00 405.24,301.20 407.51,302.00 409.79,302.80 410.76,304.00 410.44,305.50 408.81,307.00 406.54,307.00 404.91,306.00" /><polyline points="414.99,297.00 414.99,307.00" /><polyline points="419.21,307.00 419.21,297.00 423.44,297.00 425.06,298.50 425.06,300.20 423.44,301.50 419.21,301.50 425.06,307.00" /><polyline points="432.21,297.00 426.69,297.00 426.69,301.80 430.59,301.80" /><polyline points="426.69,301.80 426.69,307.00 432.21,307.00" /><polyline points="434.16,307.00 434.16,297.00 440.66,307.00 440.66,297.00" /><line x1="270.0" y1="312.0" x2="546.0" y2="312.0" /><line x1="270.0" y1="732.0" x2="546.0" y2="732.0" /><polyline points="374.19,745.25 374.19,740.75 376.01,740.75 376.71,741.42 376.71,742.19 376.01,742.77 374.19,742.77" /><polyline points="377.41,740.75 377.41,745.25 379.79,745.25" /><polyline points="380.63,745.25 382.03,740.75 383.43,745.25" /><polyline points="381.13,743.67 382.93,743.67" /><polyline points="386.37,741.42 385.39,740.75 384.83,740.75 383.85,741.65 383.85,744.35 384.83,745.25 385.39,745.25 386.37,744.58 386.37,743.00 385.25,743.00" /><polyline points="387.07,740.75 387.07,744.12 387.63,745.02 389.31,745.02 389.87,744.12 389.87,740.75" /><polyline points="392.67,740.75 390.29,740.75 390.29,742.91 391.97,742.91" /><polyline points="390.29,742.91 390.29,745.25 392.67,745.25" /><polyline points="402.33,741.20 401.63,740.75 400.79,740.75 400.09,741.42 399.95,742.10 400.37,742.64 401.35,743.00 402.33,743.36 402.75,743.90 402.61,744.58 401.91,745.25 400.93,745.25 400.23,744.80" /><polyline points="403.17,740.75 405.97,740.75" /><polyline points="404.57,740.75 404.57,745.25" /><polyline points="407.79,740.75 406.67,741.20 406.39,742.10 406.39,743.90 406.67,744.80 407.79,745.25 408.91,744.80 409.19,743.90 409.19,742.10 408.91,741.20 407.79,740.75" /><polyline points="409.61,745.25 409.61,740.75 411.43,740.75 412.13,741.42 412.13,742.19 411.43,742.77 409.61,742.77 412.13,745.25" /><polyline points="412.83,745.25 412.83,740.75 414.23,743.23 415.63,740.75 415.63,745.25" /><polyline points="422.49,745.25 422.49,740.75 424.31,740.75 425.01,741.42 425.01,742.19 424.31,742.77 422.49,742.77" /><polyline points="425.71,745.25 425.71,740.75 427.53,740.75 428.23,741.42 428.23,742.19 427.53,742.77 425.71,742.77 428.23,745.25" /><polyline points="428.93,745.25 430.33,740.75 431.73,745.25" /><polyline points="429.43,743.67 431.23,743.67" /><polyline points="432.15,740.75 433.55,743.00 434.95,740.75" /><polyline points="433.55,743.00 433.55,745.25" /><polyline points="437.75,740.75 435.37,740.75 435.37,742.91 437.05,742.91" /><polyline points="435.37,742.91 435.37,745.25 437.75,745.25" /><polyline points="438.59,745.25 438.59,740.75 440.41,740.75 441.11,741.42 441.11,742.19 440.41,742.77 438.59,742.77 441.11,745.25" /><polyline points="307.38,753.25 312.38,753.25" /><polyline points="309.88,753.25 309.88,760.75" /><polyline points="313.12,753.25 313.12,760.75" /><polyline points="318.12,753.25 318.12,760.75" /><polyline points="313.12,756.85 318.12,756.85" /><polyline points="323.12,753.25 318.88,753.25 318.88,756.85 321.88,756.85" /><polyline points="318.88,756.85 318.88,760.75 323.12,760.75" /><polyline points="334.62,754.00 333.38,753.25 331.88,753.25 330.62,754.38 330.38,755.50 331.12,756.40 332.88,757.00 334.62,757.60 335.38,758.50 335.12,759.62 333.88,760.75 332.12,760.75 330.88,760.00" /><polyline points="336.12,753.25 336.12,760.75" /><polyline points="340.62,753.25 336.12,757.00 340.62,760.75" /><polyline points="341.88,753.25 344.38,757.00 346.88,753.25" /><polyline points="344.38,757.00 344.38,760.75" /><polyline points="353.38,753.25 358.38,753.25" /><polyline points="355.88,753.25 355.88,760.75" /><polyline points="359.12,753.25 359.12,758.88 360.12,760.38 363.12,760.38 364.12,758.88 364.12,753.25" /><polyline points="364.88,760.75 364.88,753.25 368.12,753.25 369.38,754.38 369.38,755.65 368.12,756.62 364.88,756.62 369.38,760.75" /><polyline points="370.62,760.75 370.62,753.25 375.62,760.75 375.62,753.25" /><polyline points="380.62,754.00 379.38,753.25 377.88,753.25 376.62,754.38 376.38,755.50 377.12,756.40 378.88,757.00 380.62,757.60 381.38,758.50 381.12,759.62 379.88,760.75 378.12,760.75 376.88,760.00" /><polyline points="392.38,754.38 390.62,753.25 389.62,753.25 387.88,754.75 387.88,759.25 389.62,760.75 390.62,760.75 392.38,759.62 392.38,757.00 390.38,757.00" /><polyline points="393.62,760.75 393.62,753.25 396.88,753.25 398.12,754.38 398.12,755.65 396.88,756.62 393.62,756.62 398.12,760.75" /><polyline points="403.62,753.25 399.38,753.25 399.38,756.85 402.38,756.85" /><polyline points="399.38,756.85 399.38,760.75 403.62,760.75" /><polyline points="409.38,753.25 405.12,753.25 405.12,756.85 408.12,756.85" /><polyline points="405.12,756.85 405.12,760.75 409.38,760.75" /><polyline points="410.88,760.75 410.88,753.25 415.88,760.75 415.88,753.25" /><polyline points="422.38,760.75 422.38,753.25 425.62,753.25 426.62,754.15 426.62,755.35 425.62,756.25 422.38,756.25 425.62,756.25 426.62,757.15 426.62,759.85 425.62,760.75 422.38,760.75" /><polyline points="432.38,753.25 428.12,753.25 428.12,756.85 431.12,756.85" /><polyline points="428.12,756.85 428.12,760.75 432.38,760.75" /><polyline points="438.12,753.25 433.88,753.25 433.88,756.85 436.88,756.85" /><polyline points="433.88,756.85 433.88,760.75" /><polyline points="442.12,753.25 440.12,754.00 439.62,755.50 439.62,758.50 440.12,760.00 442.12,760.75 444.12,760.00 444.62,758.50 444.62,755.50 444.12,754.00 442.12,753.25" /><polyline points="445.38,760.75 445.38,753.25 448.62,753.25 449.88,754.38 449.88,755.65 448.62,756.62 445.38,756.62 449.88,760.75" /><polyline points="455.38,753.25 451.12,753.25 451.12,756.85 454.12,756.85" /><polyline points="451.12,756.85 451.12,760.75 455.38,760.75" /><polyline points="465.12,753.25 465.12,760.75" /><polyline points="468.38,753.25 473.38,753.25" /><polyline points="470.88,753.25 470.88,760.75" /><polyline points="479.88,753.25 484.88,753.25" /><polyline points="482.38,753.25 482.38,760.75" /><polyline points="485.62,753.25 485.62,758.88 486.62,760.38 489.62,760.38 490.62,758.88 490.62,753.25" /><polyline points="491.38,760.75 491.38,753.25 494.62,753.25 495.88,754.38 495.88,755.65 494.62,756.62 491.38,756.62 495.88,760.75" /><polyline points="497.12,760.75 497.12,753.25 502.12,760.75 502.12,753.25" /><polyline points="507.12,754.00 505.88,753.25 504.38,753.25 503.12,754.38 502.88,755.50 503.62,756.40 505.38,757.00 507.12,757.60 507.88,758.50 507.62,759.62 506.38,760.75 504.62,760.75 503.38,760.00" /><polyline points="310.25,773.75 312.75,766.25 315.25,773.75" /><polyline points="311.15,771.12 314.35,771.12" /><polyline points="316.00,773.75 316.00,766.25 321.00,773.75 321.00,766.25" /><polyline points="321.75,773.75 321.75,766.25 324.50,766.25 326.25,768.12 326.25,771.88 324.50,773.75 321.75,773.75" /><polyline points="337.50,767.00 336.25,766.25 334.75,766.25 333.50,767.38 333.25,768.50 334.00,769.40 335.75,770.00 337.50,770.60 338.25,771.50 338.00,772.62 336.75,773.75 335.00,773.75 333.75,773.00" /><polyline points="341.50,766.25 339.50,767.00 339.00,768.50 339.00,771.50 339.50,773.00 341.50,773.75 343.50,773.00 344.00,771.50 344.00,768.50 343.50,767.00 341.50,766.25" /><polyline points="344.75,773.75 344.75,766.25 347.25,770.38 349.75,766.25 349.75,773.75" /><polyline points="354.75,766.25 350.50,766.25 350.50,769.85 353.50,769.85" /><polyline points="350.50,769.85 350.50,773.75 354.75,773.75" /><polyline points="358.75,766.25 356.75,767.00 356.25,768.50 356.25,771.50 356.75,773.00 358.75,773.75 360.75,773.00 361.25,771.50 361.25,768.50 360.75,767.00 358.75,766.25" /><polyline points="362.00,773.75 362.00,766.25 367.00,773.75 367.00,766.25" /><polyline points="372.00,766.25 367.75,766.25 367.75,769.85 370.75,769.85" /><polyline points="367.75,769.85 367.75,773.75 372.00,773.75" /><polyline points="381.75,766.25 379.75,767.00 379.25,768.50 379.25,771.50 379.75,773.00 381.75,773.75 383.75,773.00 384.25,771.50 384.25,768.50 383.75,767.00 381.75,766.25" /><polyline points="385.00,773.75 385.00,766.25 390.00,773.75 390.00,766.25" /><polyline points="396.50,766.25 401.50,766.25" /><polyline points="399.00,766.25 399.00,773.75" /><polyline points="402.25,766.25 402.25,773.75" /><polyline points="407.25,766.25 407.25,773.75" /><polyline points="402.25,769.85 407.25,769.85" /><polyline points="412.25,766.25 408.00,766.25 408.00,769.85 411.00,769.85" /><polyline points="408.00,769.85 408.00,773.75 412.25,773.75" /><polyline points="419.50,773.75 419.50,766.25 422.00,770.38 424.50,766.25 424.50,773.75" /><polyline points="425.25,773.75 427.75,766.25 430.25,773.75" /><polyline points="426.15,771.12 429.35,771.12" /><polyline points="431.00,766.25 431.00,773.75 435.25,773.75" /><polyline points="436.75,766.25 436.75,773.75 441.00,773.75" /><polyline points="450.75,766.25 450.75,773.75" /><polyline points="458.25,767.00 457.00,766.25 455.50,766.25 454.25,767.38 454.00,768.50 454.75,769.40 456.50,770.00 458.25,770.60 459.00,771.50 458.75,772.62 457.50,773.75 455.75,773.75 454.50,773.00" /><polyline points="469.75,767.00 468.50,766.25 467.00,766.25 465.75,767.38 465.50,768.50 466.25,769.40 468.00,770.00 469.75,770.60 470.50,771.50 470.25,772.62 469.00,773.75 467.25,773.75 466.00,773.00" /><polyline points="473.75,766.25 473.75,773.75" /><polyline points="477.00,773.75 477.00,766.25 482.00,773.75 482.00,766.25" /><polyline points="487.25,767.38 485.50,766.25 484.50,766.25 482.75,767.75 482.75,772.25 484.50,773.75 485.50,773.75 487.25,772.62 487.25,770.00 485.25,770.00" /><polyline points="491.00,766.25 491.00,773.75" /><polyline points="494.25,773.75 494.25,766.25 499.25,773.75 499.25,766.25" /><polyline points="504.50,767.38 502.75,766.25 501.75,766.25 500.00,767.75 500.00,772.25 501.75,773.75 502.75,773.75 504.50,772.62 504.50,770.00 502.50,770.00" /><polyline points="382.24,779.50 383.84,784.50 385.44,779.50" /><polyline points="387.52,784.00 387.52,784.25" /><polyline points="389.60,779.50 392.80,784.50" /><polyline points="392.80,779.50 389.60,784.50" /><polyline points="393.28,779.50 394.88,784.50 396.48,779.50" /><polyline points="398.56,779.50 398.56,784.50" /><polyline points="402.24,779.50 402.24,784.50" /><polyline points="405.92,779.50 405.92,784.50" /><polyline points="409.60,784.00 409.60,784.25" /><polyline points="411.68,784.50 411.68,779.50 413.28,782.25 414.88,779.50 414.88,784.50" /><polyline points="415.36,784.50 415.36,779.50 416.96,782.25 418.56,779.50 418.56,784.50" /><polyline points="419.04,779.50 422.24,784.50" /><polyline points="422.24,779.50 419.04,784.50" /><polyline points="422.72,779.50 425.92,784.50" /><polyline points="425.92,779.50 422.72,784.50" /><polyline points="426.40,779.50 428.00,784.50 429.60,779.50" /><polyline points="431.68,779.50 431.68,784.50" /></g><g id="02_Teal_Image" inkscape:groupmode="layer" inkscape:label="02_Teal_Image" stroke="#3A7A7A" fill="none" stroke-width="0.75" stroke-linecap="round" stroke-linejoin="round"><polyline points="397.8,343.6 396.7,344.1 395.7,344.6 394.6,345.2 393.6,345.9 392.6,346.5 391.7,347.2 390.7,348.0 389.8,348.7 389.0,349.5 388.1,350.4 387.4,351.3 386.6,352.2 386.0,353.2 385.3,354.2 384.7,355.3 384.2,356.3 383.7,357.4 383.2,358.5 382.8,359.6 382.5,360.8 382.2,361.9 382.0,363.1 381.8,364.3 381.7,365.5 381.7,366.7 381.6,367.8 381.7,369.0 381.7,370.2 381.8,371.4 382.0,372.6 382.2,373.7 382.5,374.9 382.8,376.0 383.2,377.2 383.7,378.3 384.1,379.4 384.7,380.4 385.2,381.5 385.8,382.5 386.5,383.5 387.2,384.5 388.0,385.4 388.8,386.3 389.6,387.1 390.5,387.9 391.5,388.6 392.4,389.3 393.4,390.0 394.4,390.6 395.5,391.2 396.5,391.7 397.6,392.2 398.7,392.7 399.8,393.1 401.0,393.4 402.1,393.7 403.3,393.9 404.4,394.1 405.6,394.2 406.8,394.4 408.0,394.4 409.2,394.4 410.4,394.4 411.6,394.2 412.7,394.1 413.9,393.8 415.1,393.5 416.2,393.2 417.3,392.7 418.4,392.3 419.5,391.8 420.6,391.3 421.6,390.7 422.6,390.0 423.6,389.3 424.5,388.6 425.4,387.8 426.3,387.0 427.1,386.1 427.9,385.3 428.7,384.3 429.4,383.4 430.1,382.4 430.7,381.5 431.3,380.4 431.9,379.4 432.4,378.3 432.8,377.2 433.2,376.1 433.5,374.9 433.8,373.8 434.1,372.6 434.3,371.4 434.4,370.2 434.5,369.0 434.5,367.8 434.5,366.7 434.4,365.5 434.2,364.3 434.0,363.1 433.7,362.0 433.4,360.8 433.1,359.7 432.7,358.6 432.2,357.5 431.7,356.4 431.2,355.3 430.6,354.3 429.9,353.3 429.3,352.3 428.5,351.4 427.8,350.5 427.0,349.6 426.2,348.7 425.3,347.9 424.4,347.1 423.4,346.4 422.5,345.7 421.4,345.1 420.4,344.5 419.3,344.0 418.2,343.5" /><polyline points="391.5,330.6 389.8,331.3 388.2,332.0 386.6,332.9 385.1,333.8 383.6,334.9 382.2,336.0 380.9,337.1 379.6,338.4 378.3,339.6 377.1,341.0 376.0,342.3 374.9,343.8 373.9,345.2 372.9,346.7 372.1,348.3 371.3,349.9 370.6,351.6 370.0,353.3 369.5,354.9 369.0,356.6 368.5,358.3 368.1,360.1 367.7,361.8 367.4,363.6 367.2,365.3 367.1,367.1 367.1,368.9 367.2,370.7 367.3,372.5 367.6,374.2 367.8,376.0 368.2,377.7 368.6,379.5 369.1,381.2 369.7,382.9 370.3,384.6 371.1,386.2 372.0,387.7 373.0,389.3 374.0,390.7 375.1,392.1 376.2,393.5 377.4,394.9 378.6,396.2 379.8,397.4 381.1,398.6 382.5,399.8 383.9,400.9 385.4,401.9 386.9,402.8 388.4,403.7 390.0,404.5 391.6,405.2 393.2,406.0 394.9,406.7 396.5,407.3 398.3,407.8 400.0,408.3 401.7,408.6 403.5,408.8 405.3,409.0 407.1,409.0 408.9,409.0 410.7,408.9 412.5,408.7 414.2,408.5 416.0,408.2 417.7,407.8 419.5,407.3 421.1,406.7 422.8,406.0 424.4,405.3 426.0,404.5 427.5,403.6 429.1,402.7 430.6,401.8 432.1,400.8 433.5,399.8 434.9,398.7 436.3,397.5 437.5,396.3 438.8,395.0 439.9,393.6 441.0,392.2 442.0,390.7 443.0,389.2 443.9,387.7 444.8,386.1 445.6,384.5 446.3,382.9 447.0,381.2 447.5,379.5 447.9,377.8 448.2,376.0 448.4,374.2 448.6,372.4 448.7,370.7 448.7,368.9 448.7,367.1 448.7,365.3 448.5,363.6 448.3,361.8 448.0,360.0 447.6,358.3 447.1,356.6 446.6,354.9 446.0,353.2 445.3,351.6 444.6,350.0 443.9,348.3 443.1,346.7 442.2,345.2 441.2,343.7 440.1,342.3 439.0,340.9 437.7,339.6 436.4,338.4 435.1,337.2 433.7,336.0 432.3,335.0 430.8,333.9 429.3,333.0 427.8,332.1 426.2,331.3 424.5,330.6" /><polyline points="380.4,319.8 378.4,321.0 376.5,322.2 374.6,323.6 372.8,325.0 371.0,326.6 369.4,328.3 367.8,330.0 366.4,331.8 365.0,333.7 363.7,335.5 362.4,337.5 361.1,339.4 359.9,341.3 358.8,343.3 357.7,345.4 356.7,347.5 355.8,349.6 355.0,351.8 354.4,354.0 353.9,356.3 353.4,358.6 353.0,360.9 352.7,363.2 352.5,365.5 352.3,367.8 352.3,370.2 352.4,372.5 352.6,374.8 353.0,377.1 353.6,379.4 354.2,381.7 355.0,383.9 355.8,386.0 356.7,388.2 357.6,390.3 358.6,392.4 359.7,394.4 360.8,396.5 362.0,398.4 363.4,400.3 364.8,402.1 366.3,403.9 367.9,405.6 369.5,407.2 371.1,408.8 372.8,410.4 374.5,411.9 376.3,413.4 378.2,414.8 380.1,416.2 382.1,417.4 384.2,418.4 386.4,419.3 388.6,420.1 390.8,420.8 393.0,421.5 395.3,422.0 397.6,422.5 399.9,422.9 402.2,423.2 404.5,423.3 406.8,423.4 409.2,423.3 411.5,423.1 413.8,422.8 416.0,422.4 418.3,421.9 420.5,421.4 422.8,420.8 425.0,420.2 427.2,419.6 429.4,418.8 431.6,418.0 433.7,417.0 435.7,415.9 437.7,414.7 439.7,413.5 441.6,412.1 443.4,410.7 445.2,409.2 446.9,407.6 448.6,406.0 450.3,404.3 451.8,402.6 453.2,400.7 454.5,398.7 455.6,396.7 456.7,394.6 457.6,392.5 458.5,390.3 459.3,388.2 460.0,386.0 460.7,383.8 461.4,381.6 461.9,379.3 462.4,377.0 462.7,374.8 462.9,372.5 463.0,370.1 463.0,367.8 463.0,365.5 462.9,363.2 462.7,360.9 462.5,358.6 462.2,356.3 461.8,354.0 461.3,351.7 460.6,349.5 459.8,347.3 458.9,345.1 457.8,343.0 456.7,341.0 455.4,339.0 454.1,337.1 452.8,335.2 451.3,333.4 449.9,331.6 448.3,329.9 446.6,328.2 444.9,326.7 443.0,325.3 441.2,324.0 439.2,322.7 437.2,321.5 435.2,320.3 433.2,319.2" /><polyline points="357.1,320.7 355.1,322.7 353.2,324.8 351.4,327.0 349.8,329.3 348.2,331.7 346.8,334.2 345.5,336.7" /><polyline points="343.0,341.8 341.9,344.4 340.8,347.1 339.9,349.8 339.2,352.6 338.6,355.4 338.3,358.2 338.1,361.1 338.1,364.0 338.2,366.8 338.4,369.6 338.7,372.5 339.0,375.3 339.4,378.1 339.8,380.9 340.4,383.6 341.0,386.4 341.8,389.1 342.8,391.8 343.8,394.4 345.0,396.9 346.3,399.5 347.6,402.0 348.9,404.4 350.3,406.9 351.8,409.4 353.3,411.7 355.0,414.1 356.8,416.3 358.8,418.4 360.9,420.3 363.1,422.2 365.4,423.9 367.8,425.5 370.2,427.0 372.7,428.4 375.2,429.8 377.7,431.0 380.3,432.2 382.9,433.3 385.6,434.2 388.4,434.9 391.2,435.5 394.0,435.9 396.8,436.3 399.6,436.5 402.4,436.8 405.2,437.0 408.0,437.1 410.8,437.2 413.7,437.3 416.5,437.1 419.3,436.9 422.1,436.5 424.9,435.9 427.7,435.1 430.4,434.3 433.1,433.3 435.7,432.3 438.4,431.2 441.0,430.0 443.5,428.7 446.0,427.3 448.4,425.7 450.7,424.0 452.9,422.1 454.9,420.1 456.8,418.0 458.7,415.8 460.4,413.6 462.1,411.3 463.8,409.1 465.4,406.8 467.0,404.4 468.5,402.0 469.9,399.5 471.1,397.0 472.2,394.4 473.2,391.8 474.1,389.1 474.9,386.4 475.6,383.6 476.3,380.9 476.9,378.1 477.5,375.3 478.0,372.5 478.3,369.7 478.4,366.8 478.4,363.9 478.1,361.1 477.7,358.2 477.1,355.4 476.4,352.7 475.6,349.9 474.8,347.2 473.9,344.5 472.8,341.9 471.7,339.2 470.5,336.7 469.1,334.2 467.6,331.8 465.9,329.5 464.2,327.3 462.3,325.1 460.5,323.0 458.6,320.9" /><polyline points="336.9,321.2 335.0,324.0 333.4,326.9 331.9,329.9 330.6,333.0 329.5,336.2 328.6,339.4 327.9,342.7 327.1,345.9 326.5,349.2 325.9,352.4 325.3,355.7 324.8,358.9 324.5,362.2 324.3,365.5 324.2,368.8 324.4,372.1 324.6,375.4 325.1,378.7 325.6,382.0 326.2,385.2 326.8,388.5 327.4,391.7 328.2,395.0 329.0,398.2 330.0,401.4 331.2,404.6 332.6,407.6 334.2,410.6 336.0,413.4 338.0,416.1 340.1,418.8 342.3,421.3 344.5,423.8 346.8,426.2 349.2,428.6 351.6,430.8 354.2,433.0 356.8,435.0 359.6,436.9 362.4,438.6 365.4,440.1 368.4,441.6 371.4,442.9 374.5,444.1 377.5,445.4 380.6,446.6 383.6,447.8 386.7,448.9 389.9,449.9 393.1,450.8 396.4,451.5 399.7,452.1 403.0,452.4 406.3,452.5 409.7,452.5 413.0,452.4 416.3,452.2 419.7,451.9 423.0,451.5 426.3,450.9 429.6,450.3 432.9,449.4 436.0,448.3 439.1,447.0 442.2,445.5 445.1,443.8 447.9,442.0 450.6,440.2 453.3,438.3 456.0,436.3 458.7,434.3 461.3,432.3 463.8,430.2 466.3,428.1 468.7,425.7 470.9,423.3 473.0,420.8 475.0,418.1 476.9,415.4 478.8,412.7 480.5,409.9 482.3,407.1 484.0,404.2 485.6,401.3 487.2,398.3 488.5,395.2 489.7,392.1 490.7,388.8 491.4,385.6 491.9,382.2 492.2,378.9 492.4,375.5 492.4,372.2 492.4,368.8 492.3,365.5 492.1,362.2 491.8,358.9 491.4,355.6 490.8,352.3 490.0,349.1 489.0,345.9 487.8,342.8 486.6,339.7 485.2,336.7 483.8,333.7 482.4,330.7 481.0,327.8 479.6,324.8 478.0,321.9" /><polyline points="322.4,320.7 320.7,324.0 319.0,327.3 317.4,330.7 316.0,334.1 314.7,337.6 313.6,341.2 312.7,344.8 312.0,348.5 311.4,352.2 310.8,355.9 310.3,359.6 309.9,363.3 309.5,367.0 309.1,370.8 308.9,374.6 308.9,378.4 309.1,382.2 309.6,385.9 310.4,389.7 311.4,393.3 312.6,396.9 314.0,400.5 315.6,403.9 317.2,407.4 318.8,410.7 320.6,414.1 322.4,417.4 324.3,420.6 326.4,423.7 328.7,426.7 331.2,429.6 333.8,432.3 336.5,434.9" /><polyline points="342.1,439.7 345.0,442.1 347.8,444.5 350.7,446.8 353.6,449.2 356.5,451.5 359.6,453.7 362.7,455.7 366.0,457.6 369.4,459.3 372.9,460.7 376.4,462.0 380.1,463.1 383.7,464.1 387.4,465.0 391.1,465.8 394.8,466.5 398.5,467.1 402.3,467.6 406.1,467.8 409.9,467.8 413.7,467.5 417.4,466.9 421.2,466.1 424.8,465.2 428.4,464.1 432.0,462.9 435.5,461.7 439.1,460.5 442.6,459.3 446.1,458.0 449.5,456.6 452.9,455.1 456.3,453.4 459.5,451.5 462.6,449.5 465.7,447.3 468.6,445.0 471.5,442.7 474.4,440.3 477.2,437.9 480.1,435.4 482.9,432.8 485.6,430.1 488.1,427.3 490.5,424.4 492.7,421.2 494.6,418.0 496.3,414.6 497.8,411.1 499.1,407.5 500.4,403.9 501.5,400.3 502.5,396.7 503.5,393.0 504.4,389.4 505.1,385.7 505.7,382.0 506.0,378.2 506.2,374.5 506.1,370.7 505.9,367.0 505.5,363.3 505.1,359.6 504.6,355.9 504.1,352.3 503.6,348.6 503.1,344.9 502.5,341.2 501.8,337.5 500.8,333.8 499.7,330.2 498.3,326.7 496.7,323.3 494.9,319.9" /><polyline points="305.8,321.4 304.0,325.2 302.3,329.0 300.6,332.8 298.9,336.7 297.4,340.6 296.1,344.6 295.0,348.8 294.2,352.9 293.7,357.1 293.5,361.4 293.6,365.6 293.9,369.9 294.4,374.1 294.9,378.2 295.6,382.4 296.3,386.5 297.1,390.6 298.0,394.7 299.1,398.8 300.4,402.8 301.9,406.7 303.6,410.5 305.6,414.2 307.7,417.8 309.8,421.3 312.1,424.8 314.3,428.2 316.5,431.7 318.8,435.2 321.0,438.7 323.4,442.1 325.9,445.5 328.5,448.8 331.4,451.9 334.4,454.8 337.6,457.5 341.0,460.0 344.5,462.4 348.0,464.7 351.6,466.8 355.3,468.9 359.0,471.0 362.8,472.9 366.6,474.6 370.6,476.2 374.6,477.5 378.7,478.5 382.9,479.2 387.1,479.7 391.3,479.9 395.5,480.0 399.7,479.9 403.9,479.8 408.0,479.8 412.1,479.6 416.3,479.5 420.4,479.3 424.5,478.9 428.7,478.4 432.8,477.7 436.8,476.7 440.8,475.6 444.8,474.2 448.7,472.8 452.5,471.2 456.4,469.7 460.2,468.1 464.1,466.4 467.9,464.6 471.7,462.7 475.4,460.6 478.9,458.2 482.3,455.6 485.4,452.8 488.4,449.7 491.1,446.4 493.7,443.1 496.2,439.7 498.5,436.2 500.9,432.7 503.1,429.2 505.3,425.6 507.3,421.9 509.2,418.2 511.0,414.4 512.4,410.5 513.7,406.5 514.8,402.5 515.7,398.4 516.5,394.4 517.2,390.3 518.0,386.2 518.7,382.2 519.5,378.1 520.2,374.0 520.8,369.8 521.2,365.7 521.4,361.5 521.4,357.2 521.0,353.0 520.4,348.9 519.6,344.7 518.6,340.6 517.5,336.6 516.2,332.5 514.9,328.5 513.5,324.6 512.0,320.6" /><polyline points="286.6,323.2 285.4,327.7 284.4,332.2 283.6,336.8 282.8,341.3 282.2,345.9 281.6,350.5 281.1,355.0 280.7,359.6 280.5,364.2 280.5,368.8 280.8,373.3 281.4,377.9 282.2,382.4 283.2,386.8 284.3,391.3 285.5,395.6 286.6,400.0 287.8,404.4 288.9,408.7 290.1,413.1 291.3,417.5 292.7,421.9 294.3,426.3 296.1,430.5 298.2,434.6 300.6,438.6 303.2,442.4 305.9,446.1 308.9,449.7 311.9,453.2 315.0,456.6 318.2,460.0 321.4,463.3 324.8,466.5 328.3,469.5 331.9,472.4 335.8,475.0 339.8,477.4 344.0,479.4 348.3,481.2 352.6,482.8 357.0,484.1 361.4,485.5 365.8,486.7 370.1,488.0 374.5,489.2 378.8,490.5 383.2,491.7 387.6,492.7 392.1,493.6 396.6,494.3 401.2,494.7 405.7,494.8 410.3,494.8 414.8,494.6 419.4,494.3 423.9,494.0 428.5,493.6 433.1,493.1 437.7,492.6 442.3,492.0 446.9,491.1 451.4,490.0 455.8,488.5 460.1,486.7 464.3,484.6 468.3,482.3 472.2,479.7 475.9,476.9 479.6,474.1 483.2,471.2 486.7,468.2 490.2,465.3 493.6,462.2 497.0,459.1 500.2,455.8 503.2,452.4 506.0,448.8 508.6,445.0 511.1,441.2 513.3,437.2 515.5,433.3 517.6,429.3 519.8,425.3 521.9,421.3 524.1,417.3 526.2,413.3 528.3,409.2 530.2,405.0 531.9,400.7 533.4,396.3 534.5,391.8 535.4,387.2 535.9,382.6 536.3,378.0 536.5,373.4 536.5,368.8 536.5,364.1 536.3,359.5 536.1,354.9 535.7,350.3 535.1,345.7 534.2,341.1 533.0,336.6 531.5,332.2 529.8,328.0 527.7,323.8 525.5,319.7" /><polyline points="273.5,323.0 272.1,327.8 271.0,332.6 270.2,337.4 269.6,342.3 269.2,347.2 269.0,352.0 268.7,356.9 268.5,361.8 268.3,366.6 268.0,371.5 267.7,376.4 267.5,381.3 267.4,386.2 267.6,391.2 268.0,396.2 268.7,401.1 269.8,405.9 271.1,410.7 272.8,415.4 274.6,420.1 276.6,424.6 278.6,429.2 280.8,433.6 283.0,438.1 285.4,442.5 287.9,446.8 290.6,451.0 293.5,455.0 296.7,458.9 300.2,462.5 303.9,465.8 307.8,468.9 311.8,471.9 315.9,474.7 320.0,477.4 324.1,480.1 328.1,482.8 332.2,485.5 336.2,488.2 340.3,490.8 344.4,493.4 348.7,495.8 353.1,498.0 357.6,500.0 362.2,501.7 366.9,503.2 371.6,504.5 376.4,505.7 381.1,506.8 385.9,507.9 390.8,509.0 395.6,510.0 400.5,510.9 405.5,511.6 410.5,512.1 415.5,512.3 420.5,512.0 425.5,511.4 430.5,510.5 435.3,509.2 440.1,507.6 444.8,505.9 449.4,504.1 454.0,502.3 458.6,500.4 463.1,498.4 467.6,496.4 472.0,494.3 476.3,492.0 480.6,489.4 484.6,486.7 488.5,483.7 492.3,480.6 495.9,477.3 499.5,473.9 502.9,470.5 506.4,467.1 509.9,463.8 513.4,460.4 517.0,457.0 520.5,453.5 523.9,449.9 527.2,446.2 530.3,442.3 533.1,438.1 535.6,433.8 537.8,429.4 539.8,424.8 541.5,420.1 543.2,415.4 544.6,410.7 546.0,405.9 547.4,401.1 548.6,396.3 549.6,391.4 550.4,386.5 551.0,381.5 551.2,376.5 551.1,371.5 550.6,366.6" /><polyline points="548.9,356.8 547.8,352.0 546.7,347.2 545.5,342.4 544.4,337.7 543.3,333.0 542.2,328.3 541.1,323.5" /><polyline points="262.1,319.3 260.2,324.2 258.3,329.1 256.4,334.0 254.6,339.0 253.0,344.1" /><polyline points="252.0,391.8 252.8,397.0 253.8,402.3 254.8,407.5 256.1,412.7 257.6,417.9 259.4,422.9 261.6,427.8 264.1,432.6 266.9,437.1 269.9,441.5 273.1,445.8 276.4,449.9 279.8,454.0 283.1,458.0 286.3,462.1 289.5,466.2 292.8,470.3 296.0,474.3 299.4,478.3 303.0,482.2 306.7,485.9 310.6,489.4 314.7,492.7 319.0,495.8 323.3,498.7 327.8,501.5 332.3,504.3 336.9,506.9 341.4,509.6 346.1,512.2 350.7,514.8 355.5,517.3 360.4,519.5 365.5,521.4 370.6,523.0 375.9,524.2 381.2,525.0 386.6,525.3 392.0,525.4 397.4,525.3 402.7,524.9 408.0,524.5 413.3,524.0 418.5,523.5 423.8,523.0 429.0,522.3 434.2,521.5 439.4,520.6 444.5,519.3 449.5,517.8 454.5,516.1 459.3,514.0 464.1,511.9 468.8,509.6 473.4,507.2 478.1,504.9 482.8,502.6 487.5,500.3 492.2,498.1 497.0,495.7 501.7,493.2 506.3,490.6 510.8,487.6 515.1,484.4 519.1,480.9 522.9,477.1 526.5,473.1 529.8,468.9 533.0,464.6 536.1,460.3" /><polyline points="541.9,451.4 544.8,446.9 547.5,442.3 550.0,437.6 552.4,432.7 554.4,427.8 556.1,422.7 557.4,417.6 558.4,412.3 559.2,407.0 559.7,401.7 560.1,396.5 560.4,391.2 560.8,386.0 561.2,380.8 561.6,375.7 562.0,370.5 562.4,365.3 562.7,360.0 562.8,354.8 562.6,349.5 562.1,344.3 561.4,339.0 560.3,333.9 559.1,328.7 557.7,323.6" /><polyline points="253.5,433.9 255.5,439.1 257.5,444.3 259.6,449.4 262.0,454.5 264.7,459.4 267.6,464.2 270.7,468.8 274.1,473.3 277.6,477.6 281.3,481.9 285.0,486.1 288.8,490.2 292.6,494.4 296.4,498.6 300.4,502.7 304.5,506.7 308.7,510.5 313.2,514.1 317.9,517.3 322.9,520.2 328.1,522.7 333.4,524.8 338.9,526.5 344.4,528.0 349.9,529.4 355.5,530.6 361.0,531.8 366.5,532.9 372.0,534.0 377.4,535.1 382.9,536.0 388.5,536.8 394.0,537.3 399.6,537.6 405.2,537.5 410.8,537.2 416.3,536.6 421.8,535.8 427.3,535.0 432.8,534.1 438.2,533.3 443.7,532.5 449.2,531.7 454.8,531.0 460.4,530.1 466.0,529.1 471.5,527.9 477.0,526.3" /><polyline points="487.6,522.0 492.6,519.3 497.5,516.3 502.2,513.1" /><polyline points="511.2,506.2 515.6,502.7 520.0,499.0 524.3,495.3 528.5,491.5 532.6,487.6 536.5,483.5 540.1,479.1 543.5,474.5 546.6,469.8 549.3,464.8 551.8,459.7 554.1,454.5 556.1,449.3 558.2,444.1 560.2,438.9 562.2,433.8" /><polyline points="253.4,473.9 256.3,479.1 259.4,484.3 262.9,489.2 266.6,493.9 270.8,498.3 275.2,502.3 280.0,506.1 284.9,509.5 290.0,512.7 295.2,515.7 300.3,518.7 305.5,521.5 310.7,524.4 315.8,527.2 320.9,530.0 326.1,532.7 331.4,535.3 336.7,537.7 342.2,539.8 347.7,541.7 353.4,543.2 359.1,544.5 364.8,545.6 370.5,546.5 376.3,547.4 382.0,548.3 387.7,549.2 393.5,550.2 399.2,551.2 405.1,552.3 410.9,553.2 416.9,553.9 422.9,554.4 428.9,554.5 434.8,554.2 440.8,553.4 446.7,552.3 452.5,550.8 458.2,549.0 463.8,547.0 469.4,544.8 474.9,542.6 480.4,540.3 485.8,538.0 491.3,535.5 496.6,532.8 501.8,530.0 506.9,526.9 511.8,523.5 516.4,519.7 520.8,515.7 525.0,511.5 528.9,507.0 532.7,502.5 536.4,497.9 540.0,493.3 543.6,488.8 547.3,484.4 551.1,480.0 554.9,475.6 558.7,471.2 562.4,466.7" /><polyline points="252.5,491.8 256.7,496.2 261.0,500.7 265.2,505.1 269.5,509.5 273.9,513.8 278.4,517.9 283.1,521.9 288.0,525.6 293.1,529.1 298.3,532.3 303.7,535.2 309.1,538.1 314.6,540.8 320.0,543.5 325.4,546.2 330.9,549.0 336.3,551.9 341.7,554.8 347.3,557.7 352.9,560.5 358.6,563.1 364.5,565.4 370.5,567.3 376.6,568.7 382.9,569.8 389.1,570.4 395.4,570.6 401.7,570.5 408.0,570.2 414.3,569.7 420.5,569.2 426.7,568.6 432.9,567.9 439.1,567.1 445.3,566.1 451.4,564.9 457.5,563.4 463.4,561.6 469.3,559.4 475.0,556.8 480.5,553.9 485.8,550.7 491.1,547.3 496.2,543.9 501.3,540.5 506.3,537.1 511.4,533.8 516.6,530.6 521.8,527.5 527.0,524.3 532.2,521.1 537.4,517.7 542.5,514.2 547.3,510.4 552.0,506.3 556.4,501.9" /><polyline points="252.3,510.3 256.9,514.8 261.5,519.2 266.0,523.7 270.5,528.2 275.0,532.8 279.5,537.4 284.0,542.1 288.7,546.7 293.6,551.2 298.7,555.4 304.0,559.2 309.6,562.7 315.4,565.8 321.5,568.4 327.7,570.7 334.0,572.6 340.3,574.3 346.7,575.8" /><polyline points="365.9,579.7 372.3,580.9 378.8,581.9 385.2,582.8 391.7,583.4 398.2,583.6 404.7,583.5 411.2,583.0 417.7,582.0 424.1,580.8 430.4,579.2 436.6,577.5 442.8,575.6 448.9,573.8 455.0,572.1 461.1,570.5 467.3,568.9 473.4,567.5 479.7,566.1 485.9,564.6 492.1,562.9 498.3,561.0 504.4,558.8 510.4,556.3 516.2,553.4 521.8,550.2 527.3,546.7 532.6,543.0 537.9,539.2 543.0,535.3 548.2,531.3 553.3,527.3 558.4,523.2 563.5,519.1" /><polyline points="254.7,544.0 260.2,548.2 265.8,552.1 271.6,555.7 277.4,559.1 283.3,562.4 289.3,565.7 295.2,568.8 301.2,572.0 307.2,575.0 313.3,577.9 319.4,580.6" /><polyline points="332.1,585.1 338.6,586.8 345.2,588.1 351.9,589.1 358.6,589.7 365.3,590.0 372.0,590.2 378.6,590.3 385.2,590.4 391.7,590.6 398.2,591.0 404.7,591.5 411.3,592.0 417.9,592.6 424.5,593.2 431.2,593.5 437.9,593.7 444.6,593.5 451.3,592.9 457.9,591.9 464.5,590.6 471.0,588.9 477.4,587.0 483.8,584.8 490.1,582.6 496.4,580.3 502.7,577.9 509.0,575.5 515.3,573.0 521.6,570.3 527.8,567.5 533.9,564.4 539.8,560.9 545.5,557.1 550.8,552.9 555.9,548.2 560.6,543.3" /><polyline points="253.5,557.5 259.0,561.7 264.8,565.6 270.8,569.1 277.0,572.3 283.4,575.2 289.9,577.7 296.4,580.1 302.9,582.3 309.4,584.5 315.8,586.7 322.2,589.0 328.5,591.4 334.7,594.0 341.0,596.7 347.3,599.4 353.7,602.1 360.2,604.6 366.8,606.8 373.5,608.7 380.3,610.3 387.1,611.4 394.1,612.2 401.0,612.5 408.0,612.6 415.0,612.5 421.9,612.2 428.9,611.8 435.9,611.4" /><polyline points="449.9,610.4 456.9,609.8 463.9,608.9 470.9,607.8 477.8,606.3 484.6,604.4" /><polyline points="497.8,599.2 504.1,595.9 510.1,592.1 515.9,588.1 521.6,583.8 527.1,579.4 532.4,574.9 537.8,570.4 543.1,566.1 548.4,561.8 553.8,557.6 559.1,553.4" /><polyline points="255.5,567.4 260.8,571.9 266.1,576.5 271.4,581.2 276.8,585.9 282.4,590.5 288.1,594.9 294.0,599.1" /><polyline points="306.4,606.3 312.9,609.4 319.6,612.1 326.4,614.5 333.3,616.6 340.3,618.5 347.3,620.3 354.3,622.1 361.3,623.8 368.4,625.4 375.4,627.0 382.6,628.4 389.8,629.7 397.0,630.6 404.3,631.2 411.7,631.3 419.0,630.9 426.2,629.9 433.4,628.5 440.5,626.6 447.5,624.3 454.3,621.7 461.1,619.0 467.7,616.2 474.3,613.5 480.9,610.8 487.5,608.3 494.1,605.8 500.7,603.4 507.3,601.0 513.9,598.5 520.4,595.8 526.9,593.0 533.2,589.8 539.4,586.4 545.4,582.6 551.3,578.6 556.9,574.4 562.5,570.0" /><polyline points="257.7,597.7 264.0,601.6 270.3,605.5 276.7,609.3 283.1,613.0 289.5,616.7 296.0,620.4 302.6,623.9 309.3,627.2 316.2,630.2 323.2,632.8 330.4,634.9 337.7,636.6 345.1,637.7 352.6,638.3 360.1,638.5 367.6,638.3 375.1,637.8 382.5,637.2 389.9,636.5 397.2,635.8 404.4,635.2" /><polyline points="418.8,634.4 426.0,634.1 433.1,633.8 440.4,633.5 447.6,633.1 454.8,632.4 462.0,631.4 469.1,630.1 476.2,628.5 483.1,626.5 490.0,624.2 496.9,621.8 503.6,619.1 510.3,616.4 517.0,613.7 523.8,611.1 530.6,608.4 537.5,605.9 544.4,603.3 551.4,600.6 558.3,597.8" /><polyline points="254.9,616.6 261.9,619.8 269.2,622.5 276.5,624.9 284.0,626.9" /><polyline points="328.1,636.8 335.2,638.6 342.3,640.6 349.4,642.7 356.5,644.6 363.7,646.5 371.0,648.2 378.3,649.5 385.7,650.6 393.1,651.2 400.5,651.6 408.0,651.6 415.4,651.4 422.9,650.9 430.3,650.4 437.7,649.9 445.2,649.3" /><polyline points="460.2,648.4 467.8,648.0 475.4,647.6 483.1,647.1 490.8,646.4 498.5,645.3 506.1,643.9 513.6,642.0 521.0,639.6 528.1,636.6 535.1,633.2 541.7,629.2 548.1,624.9" /><polyline points="254.0,618.5 260.2,622.7 266.5,626.9 272.9,631.1 279.4,635.1 286.0,638.9" /><polyline points="299.7,645.6 306.8,648.5 314.0,651.0 321.3,653.3 328.7,655.3 336.1,657.2 343.5,659.0 351.0,660.7 358.4,662.5 365.9,664.4 373.4,666.3 381.0,668.3 388.6,670.2 396.3,672.0 404.1,673.6 411.9,675.0 419.8,675.8 427.8,676.2 435.7,676.1 443.6,675.3 451.5,674.0 459.2,672.2 466.8,669.9 474.3,667.1 481.6,664.2 488.9,661.0 496.0,657.7 503.1,654.4 510.2,651.2 517.2,647.9 524.2,644.7 531.2,641.5 538.1,638.2 545.0,634.8 551.8,631.2 558.4,627.3" /><polyline points="255.2,641.0 261.9,645.0 268.5,649.1 275.2,653.2 282.0,657.4 288.7,661.6 295.6,665.8 302.5,669.9 309.7,673.7 316.9,677.3 324.4,680.5 332.0,683.2 339.8,685.3 347.8,686.9 355.8,687.8 363.9,688.3 372.0,688.3 380.1,687.8 388.1,687.1 396.1,686.1 404.1,685.1 411.9,684.0 419.8,682.9 427.6,681.8 435.3,680.8 443.1,679.8 450.8,678.8 458.5,677.6 466.2,676.3 473.9,674.7 481.5,672.8 488.9,670.5 496.3,667.9 503.5,664.9 510.6,661.7 517.5,658.1 524.4,654.4 531.1,650.7 537.8,646.9 544.5,643.2 551.3,639.6 558.1,636.1" /><polyline points="257.0,671.4 264.8,674.2 272.8,676.5 280.9,678.4 289.0,680.0 297.1,681.4 305.1,682.7 313.1,684.0 321.1,685.3 329.0,686.6 336.9,688.0 344.7,689.4 352.6,690.7 360.4,692.0 368.3,693.1 376.2,694.0 384.2,694.6 392.1,694.8 400.1,694.6 408.0,694.1 415.9,693.2 423.8,692.0 431.6,690.6 439.3,689.1 447.0,687.5 454.7,686.0 462.4,684.5 470.1,683.3 477.8,682.2 485.7,681.2" /><polyline points="501.6,679.7 509.6,678.9 517.7,678.0 525.9,676.9" /><polyline points="542.0,673.6 549.8,671.3 557.5,668.5" /><polyline points="255.7,673.3 263.0,676.9 270.3,680.3 277.8,683.5 285.3,686.4 293.0,688.9 300.8,691.1 308.7,693.0 316.6,694.5 324.6,695.7 332.6,696.7 340.6,697.6 348.6,698.5 356.5,699.5 364.4,700.5 372.2,701.7 380.1,703.1 388.0,704.7 396.0,706.4" /><polyline points="412.1,710.0 420.2,711.7 428.5,713.1" /><polyline points="445.2,714.9 453.6,715.1 461.9,714.8 470.2,714.0 478.5,712.6 486.6,710.8 494.6,708.5 502.5,705.9 510.4,703.0 518.1,699.9 525.8,696.8" /><polyline points="256.1,682.9 263.3,686.4 270.5,690.1 277.7,694.0 284.8,698.0 292.0,702.2 299.2,706.4 306.4,710.6 313.9,714.7 321.4,718.6" /><polyline points="470.5,726.1 478.8,724.8 487.1,723.2 495.2,721.3 503.3,719.1 511.3,716.4" /><polyline points="526.6,709.7 534.0,705.6 541.2,701.2 548.2,696.5 555.0,691.6 561.7,686.5" /></g><g id="03_Gold_Accent" inkscape:groupmode="layer" inkscape:label="03_Gold_Accent" stroke="#B8960C" fill="none" stroke-width="1.12" stroke-linecap="round" stroke-linejoin="round"><line x1="408.0" y1="368.0" x2="413.9" y2="368.0" /><line x1="408.0" y1="368.0" x2="412.4" y2="369.8" /><line x1="408.0" y1="368.0" x2="410.2" y2="370.2" /><line x1="408.0" y1="368.0" x2="410.6" y2="374.2" /><line x1="408.0" y1="368.0" x2="408.0" y2="375.8" /><line x1="408.0" y1="368.0" x2="405.0" y2="375.2" /><line x1="408.0" y1="368.0" x2="405.6" y2="370.4" /><line x1="408.0" y1="368.0" x2="404.6" y2="369.4" /><line x1="408.0" y1="368.0" x2="403.4" y2="368.0" /><line x1="408.0" y1="368.0" x2="401.4" y2="365.2" /><line x1="408.0" y1="368.0" x2="403.1" y2="363.1" /><line x1="408.0" y1="368.0" x2="404.7" y2="360.0" /><line x1="408.0" y1="368.0" x2="408.0" y2="361.9" /><line x1="408.0" y1="368.0" x2="410.7" y2="361.4" /><line x1="408.0" y1="368.0" x2="413.6" y2="362.3" /><line x1="408.0" y1="368.0" x2="412.3" y2="366.2" /><circle cx="345.4" cy="501.0" r="0.4" /><circle cx="289.3" cy="633.1" r="0.6" /><circle cx="389.1" cy="635.4" r="1.1" /><circle cx="333.5" cy="499.6" r="1.3" /><circle cx="460.7" cy="524.9" r="1.6" /><circle cx="450.8" cy="435.5" r="1.1" /><circle cx="317.6" cy="343.1" r="0.5" /><circle cx="397.6" cy="473.3" r="1.4" /><circle cx="460.3" cy="473.7" r="0.9" /><circle cx="468.6" cy="669.7" r="1.7" /><circle cx="304.3" cy="434.2" r="1.0" /><circle cx="376.0" cy="383.7" r="1.2" /><circle cx="454.7" cy="568.6" r="0.9" /><circle cx="325.6" cy="621.0" r="1.2" /><circle cx="542.4" cy="564.6" r="1.3" /><line x1="267.0" y1="502.6" x2="288.5" y2="502.6" /><line x1="298.9" y1="502.6" x2="309.1" y2="502.6" /><line x1="319.0" y1="502.6" x2="343.4" y2="502.6" /><line x1="351.1" y1="502.6" x2="363.0" y2="502.6" /><line x1="367.8" y1="502.6" x2="389.3" y2="502.6" /><line x1="397.7" y1="502.6" x2="417.1" y2="502.6" /><line x1="428.3" y1="502.6" x2="443.5" y2="502.6" /><line x1="455.5" y1="502.6" x2="464.2" y2="502.6" /><line x1="475.9" y1="502.6" x2="491.8" y2="502.6" /><line x1="499.8" y1="502.6" x2="515.3" y2="502.6" /><line x1="520.8" y1="502.6" x2="534.5" y2="502.6" /><line x1="544.4" y1="502.6" x2="549.0" y2="502.6" /><line x1="267.0" y1="543.4" x2="275.8" y2="543.4" /><line x1="282.5" y1="543.4" x2="306.9" y2="543.4" /><line x1="314.2" y1="543.4" x2="338.3" y2="543.4" /><line x1="349.3" y1="543.4" x2="358.1" y2="543.4" /><line x1="362.4" y1="543.4" x2="384.9" y2="543.4" /><line x1="392.3" y1="543.4" x2="412.1" y2="543.4" /><line x1="418.8" y1="543.4" x2="430.6" y2="543.4" /><line x1="440.4" y1="543.4" x2="453.0" y2="543.4" /><line x1="464.1" y1="543.4" x2="481.4" y2="543.4" /><line x1="485.7" y1="543.4" x2="507.3" y2="543.4" /><line x1="512.2" y1="543.4" x2="536.0" y2="543.4" /><line x1="540.2" y1="543.4" x2="549.0" y2="543.4" /><line x1="267.0" y1="584.2" x2="286.7" y2="584.2" /><line x1="292.3" y1="584.2" x2="312.6" y2="584.2" /><line x1="317.3" y1="584.2" x2="341.3" y2="584.2" /><line x1="348.5" y1="584.2" x2="370.0" y2="584.2" /><line x1="377.8" y1="584.2" x2="387.1" y2="584.2" /><line x1="391.8" y1="584.2" x2="405.5" y2="584.2" /><line x1="415.2" y1="584.2" x2="429.4" y2="584.2" /><line x1="439.7" y1="584.2" x2="449.0" y2="584.2" /><line x1="455.6" y1="584.2" x2="464.2" y2="584.2" /><line x1="471.1" y1="584.2" x2="490.5" y2="584.2" /><line x1="500.9" y1="584.2" x2="516.3" y2="584.2" /><line x1="523.4" y1="584.2" x2="546.3" y2="584.2" /></g></svg>