<?xml version='1.0' encoding='utf-8'?>
<svg xmlns="http://www.w3.org/2000/svg" xmlns:inkscape="http://www.inkscape.org/namespaces/inkscape" viewBox="204 228 408 600"><style>*{vector-effect:non-scaling-stroke}</style><g id="01_Black_Frame" inkscape:groupmode="layer" inkscape:label="01_Black_Frame" stroke="#1A1A1A" fill="none" stroke-width="0.875" stroke-linecap="round" stroke-linejoin="round"><path d="M 250.0,264.0 L 566.0,264.0 Q 576.0,264.0 576.0,274.0 L 576.0,782.0 Q 576.0,792.0 566.0,792.0 L 250.0,792.0 Q 240.0,792.0 240.0,782.0 L 240.0,274.0 Q 240.0,264.0 250.0,264.0" /><path d="M 253.0,270.0 L 563.0,270.0 Q 570.0,270.0 570.0,277.0 L 570.0,779.0 Q 570.0,786.0 563.0,786.0 L 253.0,786.0 Q 246.0,786.0 246.0,779.0 L 246.0,277.0 Q 246.0,270.0 253.0,270.0" /><line x1="259.0" y1="280.0" x2="263.0" y2="280.0" /><line x1="258.1" y1="282.1" x2="260.9" y2="284.9" /><line x1="256.0" y1="283.0" x2="256.0" y2="287.0" /><line x1="253.9" y1="282.1" x2="251.1" y2="284.9" /><line x1="253.0" y1="280.0" x2="249.0" y2="280.0" /><line x1="253.9" y1="277.9" x2="251.1" y2="275.1" /><line x1="256.0" y1="277.0" x2="256.0" y2="273.0" /><line x1="258.1" y1="277.9" x2="260.9" y2="275.1" /><line x1="563.0" y1="280.0" x2="567.0" y2="280.0" /><line x1="562.1" y1="282.1" x2="564.9" y2="284.9" /><line x1="560.0" y1="283.0" x2="560.0" y2="287.0" /><line x1="557.9" y1="282.1" x2="555.1" y2="284.9" /><line x1="557.0" y1="280.0" x2="553.0" y2="280.0" /><line x1="557.9" y1="277.9" x2="555.1" y2="275.1" /><line x1="560.0" y1="277.0" x2="560.0" y2="273.0" /><line x1="562.1" y1="277.9" x2="564.9" y2="275.1" /><line x1="259.0" y1="776.0" x2="263.0" y2="776.0" /><line x1="258.1" y1="778.1" x2="260.9" y2="780.9" /><line x1="256.0" y1="779.0" x2="256.0" y2="783.0" /><line x1="253.9" y1="778.1" x2="251.1" y2="780.9" /><line x1="253.0" y1="776.0" x2="249.0" y2="776.0" /><line x1="253.9" y1="773.9" x2="251.1" y2="771.1" /><line x1="256.0" y1="773.0" x2="256.0" y2="769.0" /><line x1="258.1" y1="773.9" x2="260.9" y2="771.1" /><line x1="563.0" y1="776.0" x2="567.0" y2="776.0" /><line x1="562.1" y1="778.1" x2="564.9" y2="780.9" /><line x1="560.0" y1="779.0" x2="560.0" y2="783.0" /><line x1="557.9" y1="778.1" x2="555.1" y2="780.9" /><line x1="557.0" y1="776.0" x2="553.0" y2="776.0" /><line x1="557.9" y1="773.9" x2="555.1" y2="771.1" /><line x1="560.0" y1="773.0" x2="560.0" y2="769.0" /><line x1="562.1" y1="773.9" x2="564.9" y2="771.1" /><polyline points="403.88,283.20 402.12,282.00 401.12,282.00 399.38,283.60 399.38,288.40 401.12,290.00 402.12,290.00 403.88,288.80" /><polyline points="405.12,282.00 410.12,290.00" /><polyline points="410.12,282.00 405.12,290.00" /><polyline points="410.88,282.00 415.88,290.00" /><polyline points="415.88,282.00 410.88,290.00" /><polyline points="378.10,297.00 384.60,297.00" /><polyline points="381.35,297.00 381.35,307.00" /><polyline points="385.58,297.00 385.58,307.00" /><polyline points="392.08,297.00 392.08,307.00" /><polyline points="385.58,301.80 392.08,301.80" /><polyline points="398.57,297.00 393.05,297.00 393.05,301.80 396.95,301.80" /><polyline points="393.05,301.80 393.05,307.00 398.57,307.00" /><polyline points="408.00,297.00 408.00,307.00 413.52,307.00" /><polyline points="418.73,297.00 418.73,307.00" /><polyline points="422.95,307.00 422.95,297.00 429.45,307.00 429.45,297.00" /><polyline points="435.95,297.00 430.43,297.00 430.43,301.80 434.32,301.80" /><polyline points="430.43,301.80 430.43,307.00 435.95,307.00" /><line x1="270.0" y1="312.0" x2="546.0" y2="312.0" /><line x1="270.0" y1="732.0" x2="546.0" y2="732.0" /><polyline points="370.97,745.25 370.97,740.75 372.37,743.23 373.77,740.75 373.77,745.25" /><polyline points="374.19,745.25 375.59,740.75 376.99,745.25" /><polyline points="374.69,743.67 376.49,743.67" /><polyline points="377.41,745.25 377.41,740.75 379.23,740.75 379.93,741.42 379.93,742.19 379.23,742.77 377.41,742.77" /><polyline points="389.45,741.20 388.75,740.75 387.91,740.75 387.21,741.42 387.07,742.10 387.49,742.64 388.47,743.00 389.45,743.36 389.87,743.90 389.73,744.58 389.03,745.25 388.05,745.25 387.35,744.80" /><polyline points="390.29,740.75 390.29,745.25" /><polyline points="393.09,740.75 393.09,745.25" /><polyline points="390.29,742.91 393.09,742.91" /><polyline points="394.91,740.75 394.91,745.25" /><polyline points="399.11,740.75 396.73,740.75 396.73,742.91 398.41,742.91" /><polyline points="396.73,742.91 396.73,745.25 399.11,745.25" /><polyline points="399.95,740.75 399.95,745.25 402.33,745.25" /><polyline points="403.17,745.25 403.17,740.75 404.71,740.75 405.69,741.88 405.69,744.12 404.71,745.25 403.17,745.25" /><polyline points="415.21,740.75 412.83,740.75 412.83,742.91 414.51,742.91" /><polyline points="412.83,742.91 412.83,745.25" /><polyline points="416.05,740.75 416.05,744.12 416.61,745.02 418.29,745.02 418.85,744.12 418.85,740.75" /><polyline points="419.27,745.25 419.27,740.75 422.07,745.25 422.07,740.75" /><polyline points="422.49,745.25 422.49,740.75 424.03,740.75 425.01,741.88 425.01,744.12 424.03,745.25 422.49,745.25" /><polyline points="432.15,745.25 432.15,740.75 433.97,740.75 434.67,741.42 434.67,742.19 433.97,742.77 432.15,742.77" /><polyline points="436.77,740.75 435.65,741.20 435.37,742.10 435.37,743.90 435.65,744.80 436.77,745.25 437.89,744.80 438.17,743.90 438.17,742.10 437.89,741.20 436.77,740.75" /><polyline points="438.59,740.75 438.59,744.12 439.15,745.02 440.83,745.02 441.39,744.12 441.39,740.75" /><polyline points="441.81,745.25 441.81,740.75 443.63,740.75 444.33,741.42 444.33,742.19 443.63,742.77 441.81,742.77 444.33,745.25" /><polyline points="333.25,753.25 335.75,757.00 338.25,753.25" /><polyline points="335.75,757.00 335.75,760.75" /><polyline points="343.25,753.25 339.00,753.25 339.00,756.85 342.00,756.85" /><polyline points="339.00,756.85 339.00,760.75 343.25,760.75" /><polyline points="349.00,754.00 347.75,753.25 346.25,753.25 345.00,754.38 344.75,755.50 345.50,756.40 347.25,757.00 349.00,757.60 349.75,758.50 349.50,759.62 348.25,760.75 346.50,760.75 345.25,760.00" /><polyline points="350.50,753.25 355.50,753.25" /><polyline points="353.00,753.25 353.00,760.75" /><polyline points="360.50,753.25 356.25,753.25 356.25,756.85 359.25,756.85" /><polyline points="356.25,756.85 356.25,760.75 360.50,760.75" /><polyline points="362.00,760.75 362.00,753.25 365.25,753.25 366.50,754.38 366.50,755.65 365.25,756.62 362.00,756.62 366.50,760.75" /><polyline points="367.75,760.75 367.75,753.25 370.50,753.25 372.25,755.12 372.25,758.88 370.50,760.75 367.75,760.75" /><polyline points="373.50,760.75 376.00,753.25 378.50,760.75" /><polyline points="374.40,758.12 377.60,758.12" /><polyline points="379.25,753.25 381.75,757.00 384.25,753.25" /><polyline points="381.75,757.00 381.75,760.75" /><polyline points="390.75,753.25 395.75,753.25" /><polyline points="393.25,753.25 393.25,760.75" /><polyline points="396.50,753.25 396.50,760.75" /><polyline points="401.50,753.25 401.50,760.75" /><polyline points="396.50,756.85 401.50,756.85" /><polyline points="406.50,753.25 402.25,753.25 402.25,756.85 405.25,756.85" /><polyline points="402.25,756.85 402.25,760.75 406.50,760.75" /><polyline points="408.00,753.25 410.50,757.00 413.00,753.25" /><polyline points="410.50,757.00 410.50,760.75" /><polyline points="419.50,753.25 420.75,760.75 422.00,755.88 423.25,760.75 424.50,753.25" /><polyline points="429.50,753.25 425.25,753.25 425.25,756.85 428.25,756.85" /><polyline points="425.25,756.85 425.25,760.75 429.50,760.75" /><polyline points="431.00,760.75 431.00,753.25 434.25,753.25 435.50,754.38 435.50,755.65 434.25,756.62 431.00,756.62 435.50,760.75" /><polyline points="441.00,753.25 436.75,753.25 436.75,756.85 439.75,756.85" /><polyline points="436.75,756.85 436.75,760.75 441.00,760.75" /><polyline points="450.75,753.25 450.75,760.75" /><polyline points="454.00,760.75 454.00,753.25 459.00,760.75 459.00,753.25" /><polyline points="464.00,754.00 462.75,753.25 461.25,753.25 460.00,754.38 459.75,755.50 460.50,756.40 462.25,757.00 464.00,757.60 464.75,758.50 464.50,759.62 463.25,760.75 461.50,760.75 460.25,760.00" /><polyline points="468.00,753.25 468.00,760.75" /><polyline points="471.25,760.75 471.25,753.25 474.00,753.25 475.75,755.12 475.75,758.88 474.00,760.75 471.25,760.75" /><polyline points="481.25,753.25 477.00,753.25 477.00,756.85 480.00,756.85" /><polyline points="477.00,756.85 477.00,760.75 481.25,760.75" /><polyline points="350.50,766.25 355.50,766.25" /><polyline points="353.00,766.25 353.00,773.75" /><polyline points="358.75,766.25 356.75,767.00 356.25,768.50 356.25,771.50 356.75,773.00 358.75,773.75 360.75,773.00 361.25,771.50 361.25,768.50 360.75,767.00 358.75,766.25" /><polyline points="362.00,773.75 362.00,766.25 364.75,766.25 366.50,768.12 366.50,771.88 364.75,773.75 362.00,773.75" /><polyline points="367.75,773.75 370.25,766.25 372.75,773.75" /><polyline points="368.65,771.12 371.85,771.12" /><polyline points="373.50,766.25 376.00,770.00 378.50,766.25" /><polyline points="376.00,770.00 376.00,773.75" /><polyline points="385.00,766.25 390.00,766.25" /><polyline points="387.50,766.25 387.50,773.75" /><polyline points="390.75,766.25 390.75,773.75" /><polyline points="395.75,766.25 395.75,773.75" /><polyline points="390.75,769.85 395.75,769.85" /><polyline points="400.75,766.25 396.50,766.25 396.50,769.85 399.50,769.85" /><polyline points="396.50,769.85 396.50,773.75 400.75,773.75" /><polyline points="408.00,766.25 408.00,773.75 412.25,773.75" /><polyline points="416.25,766.25 416.25,773.75" /><polyline points="419.50,773.75 419.50,766.25 424.50,773.75 424.50,766.25" /><polyline points="429.50,766.25 425.25,766.25 425.25,769.85 428.25,769.85" /><polyline points="425.25,769.85 425.25,773.75 429.50,773.75" /><polyline points="436.75,773.75 436.75,766.25 439.25,770.38 441.75,766.25 441.75,773.75" /><polyline points="445.00,766.25 443.00,767.00 442.50,768.50 442.50,771.50 443.00,773.00 445.00,773.75 447.00,773.00 447.50,771.50 447.50,768.50 447.00,767.00 445.00,766.25" /><polyline points="448.25,766.25 450.75,773.75 453.25,766.25" /><polyline points="458.25,766.25 454.00,766.25 454.00,769.85 457.00,769.85" /><polyline points="454.00,769.85 454.00,773.75 458.25,773.75" /><polyline points="459.75,773.75 459.75,766.25 462.50,766.25 464.25,768.12 464.25,771.88 462.50,773.75 459.75,773.75" /><polyline points="385.68,779.50 385.68,784.50" /><polyline points="387.76,779.50 389.36,784.50 390.96,779.50" /><polyline points="393.04,784.00 393.04,784.25" /><polyline points="395.12,779.50 398.32,784.50" /><polyline points="398.32,779.50 395.12,784.50" /><polyline points="398.80,779.50 402.00,784.50" /><polyline points="402.00,779.50 398.80,784.50" /><polyline points="402.48,779.50 405.68,784.50" /><polyline points="405.68,779.50 402.48,784.50" /><polyline points="407.76,784.00 407.76,784.25" /><polyline points="409.84,784.50 409.84,779.50 411.44,782.25 413.04,779.50 413.04,784.50" /><polyline points="413.52,784.50 413.52,779.50 415.12,782.25 416.72,779.50 416.72,784.50" /><polyline points="417.20,779.50 420.40,784.50" /><polyline points="420.40,779.50 417.20,784.50" /><polyline points="420.88,779.50 424.08,784.50" /><polyline points="424.08,779.50 420.88,784.50" /><polyline points="424.56,779.50 426.16,784.50 427.76,779.50" /><polyline points="429.84,779.50 429.84,784.50" /></g><g id="02_Teal_Population" inkscape:groupmode="layer" inkscape:label="02_Teal_Population" stroke="#3A7A7A" fill="none" stroke-width="0.75" stroke-linecap="round" stroke-linejoin="round"><circle cx="308.9" cy="381.7" r="1.8" /><circle cx="462.7" cy="348.1" r="1.8" /><circle cx="532.0" cy="353.1" r="1.8" /><circle cx="513.2" cy="560.8" r="1.8" /><circle cx="340.1" cy="337.4" r="1.8" /><circle cx="314.1" cy="668.9" r="1.8" /><circle cx="354.9" cy="516.4" r="1.8" /><circle cx="444.4" cy="451.1" r="1.8" /><circle cx="403.6" cy="501.6" r="1.8" /><circle cx="453.7" cy="616.4" r="1.8" /><circle cx="340.5" cy="338.0" r="1.8" /><circle cx="517.3" cy="448.6" r="1.8" /><circle cx="511.8" cy="496.3" r="1.8" /><circle cx="425.9" cy="705.2" r="1.8" /><circle cx="294.3" cy="614.5" r="1.8" /><circle cx="541.6" cy="437.8" r="1.8" /><circle cx="454.8" cy="530.1" r="1.8" /><circle cx="471.2" cy="371.5" r="1.8" /><circle cx="508.6" cy="642.0" r="1.8" /><circle cx="337.8" cy="482.1" r="1.8" /><circle cx="486.7" cy="348.2" r="1.8" /><circle cx="291.3" cy="340.0" r="1.8" /><circle cx="271.3" cy="695.1" r="1.8" /><circle cx="427.6" cy="524.2" r="1.8" /><circle cx="468.8" cy="507.6" r="1.8" /><circle cx="356.8" cy="341.1" r="1.8" /><circle cx="298.9" cy="576.2" r="1.8" /><circle cx="391.5" cy="444.4" r="1.8" /><circle cx="269.7" cy="332.5" r="1.8" /><circle cx="327.1" cy="538.1" r="1.8" /><circle cx="458.6" cy="593.7" r="1.8" /><circle cx="437.4" cy="563.2" r="1.8" /><circle cx="482.1" cy="629.5" r="1.8" /><circle cx="500.9" cy="432.8" r="1.8" /><circle cx="405.7" cy="572.2" r="1.8" /><circle cx="387.4" cy="467.7" r="1.8" /><circle cx="513.2" cy="419.4" r="1.8" /><circle cx="334.3" cy="341.2" r="1.8" /><circle cx="407.0" cy="446.8" r="1.8" /><circle cx="298.0" cy="488.5" r="1.8" /><circle cx="361.4" cy="642.0" r="1.8" /><circle cx="343.5" cy="704.9" r="1.8" /><circle cx="268.6" cy="381.5" r="1.8" /><circle cx="483.0" cy="393.5" r="1.8" /><circle cx="344.8" cy="485.5" r="1.8" /><circle cx="349.1" cy="699.6" r="1.8" /><circle cx="418.7" cy="388.2" r="1.8" /><circle cx="381.3" cy="622.6" r="1.8" /><circle cx="388.1" cy="604.7" r="1.8" /><circle cx="459.8" cy="482.2" r="1.8" /><circle cx="459.1" cy="606.6" r="1.8" /><circle cx="401.0" cy="476.2" r="1.8" /><circle cx="551.0" cy="639.9" r="1.8" /><circle cx="459.1" cy="605.9" r="1.8" /><circle cx="526.5" cy="532.3" r="1.8" /><circle cx="373.5" cy="562.2" r="1.8" /><circle cx="546.5" cy="690.6" r="1.8" /><circle cx="528.8" cy="464.7" r="1.8" /><circle cx="422.7" cy="529.1" r="1.8" /><circle cx="514.2" cy="681.4" r="1.8" /><circle cx="516.7" cy="624.4" r="1.8" /><circle cx="492.7" cy="702.2" r="1.8" /><circle cx="410.2" cy="472.3" r="1.8" /><circle cx="285.6" cy="691.4" r="1.8" /><circle cx="350.3" cy="522.2" r="1.8" /><circle cx="502.6" cy="509.6" r="1.8" /><circle cx="403.0" cy="534.0" r="1.8" /><circle cx="443.7" cy="625.1" r="1.8" /><circle cx="294.8" cy="482.0" r="1.8" /><circle cx="413.4" cy="575.6" r="1.8" /><circle cx="288.5" cy="364.4" r="1.8" /><circle cx="467.5" cy="415.3" r="1.8" /><circle cx="550.5" cy="424.9" r="1.8" /><circle cx="503.5" cy="548.8" r="1.8" /><circle cx="526.4" cy="332.0" r="1.8" /><circle cx="414.3" cy="514.8" r="1.8" /><circle cx="346.0" cy="604.2" r="1.8" /><circle cx="375.3" cy="497.3" r="1.8" /><circle cx="446.6" cy="531.8" r="1.8" /><circle cx="476.0" cy="711.2" r="1.8" /><circle cx="296.8" cy="656.6" r="1.8" /><circle cx="391.7" cy="712.8" r="1.8" /><circle cx="387.7" cy="415.5" r="1.8" /><circle cx="439.7" cy="703.4" r="1.8" /><circle cx="437.8" cy="356.4" r="1.8" /><circle cx="414.6" cy="363.7" r="1.8" /><circle cx="368.7" cy="536.5" r="1.8" /><circle cx="453.2" cy="589.9" r="1.8" /><circle cx="494.0" cy="639.4" r="1.8" /><circle cx="466.8" cy="404.4" r="1.8" /><circle cx="363.3" cy="662.0" r="1.8" /><circle cx="302.4" cy="467.6" r="1.8" /><circle cx="476.2" cy="592.0" r="1.8" /><circle cx="438.6" cy="582.4" r="1.8" /><circle cx="528.0" cy="594.8" r="1.8" /><circle cx="348.5" cy="612.4" r="1.8" /><circle cx="511.6" cy="510.1" r="1.8" /><circle cx="324.8" cy="401.5" r="1.8" /><circle cx="487.9" cy="564.7" r="1.8" /><circle cx="474.8" cy="665.3" r="1.8" /><circle cx="512.7" cy="553.3" r="1.8" /><circle cx="359.5" cy="651.7" r="1.8" /><circle cx="431.1" cy="466.9" r="1.8" /><circle cx="349.2" cy="667.9" r="1.8" /><circle cx="355.8" cy="358.6" r="1.8" /><circle cx="416.0" cy="687.8" r="1.8" /><circle cx="271.3" cy="702.7" r="1.8" /><circle cx="498.1" cy="710.9" r="1.8" /><circle cx="389.1" cy="435.9" r="1.8" /><circle cx="325.0" cy="393.6" r="1.8" /><circle cx="281.2" cy="669.2" r="1.8" /><circle cx="452.1" cy="648.5" r="1.8" /><circle cx="377.8" cy="423.0" r="1.8" /><circle cx="510.4" cy="706.0" r="1.8" /><circle cx="363.0" cy="685.4" r="1.8" /><circle cx="374.4" cy="358.9" r="1.8" /><circle cx="458.3" cy="440.2" r="1.8" /><circle cx="462.6" cy="378.2" r="1.8" /><circle cx="343.9" cy="540.7" r="1.8" /><circle cx="469.5" cy="439.1" r="1.8" /><circle cx="347.3" cy="579.0" r="1.8" /><circle cx="410.8" cy="374.6" r="1.8" /><circle cx="448.6" cy="695.9" r="1.8" /><circle cx="502.2" cy="344.4" r="1.8" /><circle cx="542.5" cy="457.1" r="1.8" /><circle cx="500.4" cy="414.3" r="1.8" /><circle cx="462.9" cy="584.2" r="1.8" /><circle cx="513.8" cy="430.2" r="1.8" /><circle cx="477.8" cy="713.3" r="1.8" /><circle cx="542.9" cy="621.8" r="1.8" /><circle cx="274.1" cy="353.0" r="1.8" /><circle cx="539.9" cy="404.4" r="1.8" /><circle cx="527.0" cy="484.2" r="1.8" /><circle cx="351.6" cy="670.8" r="1.8" /><circle cx="347.7" cy="711.1" r="1.8" /><circle cx="377.0" cy="335.0" r="1.8" /><circle cx="371.1" cy="600.9" r="1.8" /><circle cx="273.3" cy="415.5" r="1.8" /><circle cx="335.8" cy="609.8" r="1.8" /><circle cx="327.9" cy="416.0" r="1.8" /><circle cx="380.6" cy="341.6" r="1.8" /><circle cx="392.6" cy="638.5" r="1.8" /><circle cx="310.6" cy="397.5" r="1.8" /><circle cx="324.1" cy="467.7" r="1.8" /><circle cx="391.2" cy="636.3" r="1.8" /><circle cx="365.4" cy="576.4" r="1.8" /><circle cx="471.5" cy="668.3" r="1.8" /><circle cx="335.6" cy="347.7" r="1.8" /><circle cx="476.7" cy="394.7" r="1.8" /><circle cx="314.1" cy="633.2" r="1.8" /><circle cx="379.5" cy="355.5" r="1.8" /><circle cx="550.9" cy="417.1" r="1.8" /><circle cx="488.5" cy="345.8" r="1.8" /><circle cx="474.9" cy="554.7" r="1.8" /><circle cx="471.0" cy="616.5" r="1.8" /><circle cx="395.6" cy="677.7" r="1.8" /><circle cx="361.1" cy="518.8" r="1.8" /><circle cx="472.6" cy="560.0" r="1.8" /><circle cx="429.4" cy="525.3" r="1.8" /><circle cx="284.8" cy="454.7" r="1.8" /></g><g id="03_Gold_District" inkscape:groupmode="layer" inkscape:label="03_Gold_District" stroke="#B8960C" fill="none" stroke-width="0.875" stroke-linecap="round" stroke-linejoin="round"><polyline points="414.2,331.0 464.2,376.1 426.7,433.2 482.9,490.4 439.2,555.6 489.1,620.9 445.4,715.0" /><line x1="517.3" y1="448.6" x2="528.8" y2="464.7" /><line x1="517.3" y1="448.6" x2="542.5" y2="457.1" /><line x1="528.8" y1="464.7" x2="542.5" y2="457.1" /><line x1="444.4" y1="451.1" x2="466.8" y2="404.4" /><line x1="476.0" y1="711.2" x2="471.5" y2="668.3" /><line x1="528.8" y1="464.7" x2="527.0" y2="484.2" /><line x1="542.5" y1="457.1" x2="527.0" y2="484.2" /><line x1="526.5" y1="532.3" x2="527.0" y2="484.2" /><line x1="532.0" y1="353.1" x2="502.2" y2="344.4" /><line x1="526.4" y1="332.0" x2="502.2" y2="344.4" /><line x1="532.0" y1="353.1" x2="526.4" y2="332.0" /><line x1="550.5" y1="424.9" x2="542.5" y2="457.1" /><line x1="513.2" y1="419.4" x2="539.9" y2="404.4" /><line x1="513.2" y1="419.4" x2="500.4" y2="414.3" /><line x1="500.4" y1="414.3" x2="539.9" y2="404.4" /><line x1="513.2" y1="419.4" x2="550.5" y2="424.9" /><line x1="550.5" y1="424.9" x2="539.9" y2="404.4" /><line x1="444.4" y1="451.1" x2="469.5" y2="439.1" /><line x1="483.0" y1="393.5" x2="502.2" y2="344.4" /><line x1="483.0" y1="393.5" x2="500.4" y2="414.3" /><line x1="532.0" y1="353.1" x2="539.9" y2="404.4" /><line x1="474.8" y1="665.3" x2="471.5" y2="668.3" /><line x1="514.2" y1="681.4" x2="510.4" y2="706.0" /><line x1="546.5" y1="690.6" x2="514.2" y2="681.4" /><line x1="546.5" y1="690.6" x2="510.4" y2="706.0" /><line x1="551.0" y1="639.9" x2="546.5" y2="690.6" /><line x1="528.0" y1="594.8" x2="542.9" y2="621.8" /><line x1="551.0" y1="639.9" x2="542.9" y2="621.8" /><line x1="516.7" y1="624.4" x2="542.9" y2="621.8" /><line x1="516.7" y1="624.4" x2="528.0" y2="594.8" /><line x1="551.0" y1="639.9" x2="516.7" y2="624.4" /><line x1="511.6" y1="510.1" x2="527.0" y2="484.2" /><line x1="526.5" y1="532.3" x2="511.6" y2="510.1" /><line x1="539.9" y1="404.4" x2="550.9" y2="417.1" /><line x1="550.5" y1="424.9" x2="550.9" y2="417.1" /><line x1="500.9" y1="432.8" x2="513.2" y2="419.4" /><line x1="500.9" y1="432.8" x2="500.4" y2="414.3" /><line x1="500.9" y1="432.8" x2="469.5" y2="439.1" /><line x1="517.3" y1="448.6" x2="500.9" y2="432.8" /><line x1="517.3" y1="448.6" x2="469.5" y2="439.1" /><line x1="541.6" y1="437.8" x2="513.2" y2="419.4" /><line x1="541.6" y1="437.8" x2="550.5" y2="424.9" /><line x1="517.3" y1="448.6" x2="541.6" y2="437.8" /><line x1="541.6" y1="437.8" x2="542.5" y2="457.1" /><line x1="458.3" y1="440.2" x2="469.5" y2="439.1" /><line x1="444.4" y1="451.1" x2="458.3" y2="440.2" /><line x1="483.0" y1="393.5" x2="467.5" y2="415.3" /><line x1="467.5" y1="415.3" x2="500.4" y2="414.3" /><line x1="500.9" y1="432.8" x2="467.5" y2="415.3" /><line x1="467.5" y1="415.3" x2="469.5" y2="439.1" /><line x1="467.5" y1="415.3" x2="458.3" y2="440.2" /><line x1="467.5" y1="415.3" x2="466.8" y2="404.4" /><line x1="444.4" y1="451.1" x2="467.5" y2="415.3" /><line x1="471.2" y1="371.5" x2="466.8" y2="404.4" /><line x1="462.7" y1="348.1" x2="471.2" y2="371.5" /><line x1="492.7" y1="702.2" x2="510.4" y2="706.0" /><line x1="498.1" y1="710.9" x2="510.4" y2="706.0" /><line x1="492.7" y1="702.2" x2="498.1" y2="710.9" /><line x1="514.2" y1="681.4" x2="492.7" y2="702.2" /><line x1="492.7" y1="702.2" x2="471.5" y2="668.3" /><line x1="492.7" y1="702.2" x2="476.0" y2="711.2" /><line x1="492.7" y1="702.2" x2="474.8" y2="665.3" /><line x1="514.2" y1="681.4" x2="474.8" y2="665.3" /><line x1="492.7" y1="702.2" x2="477.8" y2="713.3" /><line x1="476.0" y1="711.2" x2="477.8" y2="713.3" /><line x1="498.1" y1="710.9" x2="477.8" y2="713.3" /><line x1="508.6" y1="642.0" x2="516.7" y2="624.4" /><line x1="508.6" y1="642.0" x2="494.0" y2="639.4" /><line x1="516.7" y1="624.4" x2="494.0" y2="639.4" /><line x1="508.6" y1="642.0" x2="474.8" y2="665.3" /><line x1="494.0" y1="639.4" x2="474.8" y2="665.3" /><line x1="508.6" y1="642.0" x2="514.2" y2="681.4" /><line x1="508.6" y1="642.0" x2="551.0" y2="639.9" /><line x1="476.2" y1="592.0" x2="487.9" y2="564.7" /><line x1="476.2" y1="592.0" x2="462.9" y2="584.2" /><line x1="487.9" y1="564.7" x2="462.9" y2="584.2" /><line x1="528.0" y1="594.8" x2="487.9" y2="564.7" /><line x1="476.2" y1="592.0" x2="528.0" y2="594.8" /><line x1="516.7" y1="624.4" x2="476.2" y2="592.0" /><line x1="494.0" y1="639.4" x2="476.2" y2="592.0" /><line x1="513.2" y1="560.8" x2="528.0" y2="594.8" /><line x1="513.2" y1="560.8" x2="526.5" y2="532.3" /><line x1="513.2" y1="560.8" x2="487.9" y2="564.7" /><line x1="502.6" y1="509.6" x2="474.9" y2="554.7" /><line x1="511.8" y1="496.3" x2="511.6" y2="510.1" /><line x1="511.8" y1="496.3" x2="527.0" y2="484.2" /><line x1="502.6" y1="509.6" x2="511.6" y2="510.1" /><line x1="511.8" y1="496.3" x2="502.6" y2="509.6" /><line x1="517.3" y1="448.6" x2="511.8" y2="496.3" /><line x1="511.8" y1="496.3" x2="528.8" y2="464.7" /><line x1="500.9" y1="432.8" x2="513.8" y2="430.2" /><line x1="517.3" y1="448.6" x2="513.8" y2="430.2" /><line x1="513.2" y1="419.4" x2="513.8" y2="430.2" /><line x1="541.6" y1="437.8" x2="513.8" y2="430.2" /><line x1="467.5" y1="415.3" x2="476.7" y2="394.7" /><line x1="466.8" y1="404.4" x2="476.7" y2="394.7" /><line x1="483.0" y1="393.5" x2="476.7" y2="394.7" /><line x1="471.2" y1="371.5" x2="476.7" y2="394.7" /><line x1="471.2" y1="371.5" x2="483.0" y2="393.5" /><line x1="462.7" y1="348.1" x2="488.5" y2="345.8" /><line x1="526.4" y1="332.0" x2="488.5" y2="345.8" /><line x1="502.2" y1="344.4" x2="488.5" y2="345.8" /><line x1="486.7" y1="348.2" x2="483.0" y2="393.5" /><line x1="486.7" y1="348.2" x2="502.2" y2="344.4" /><line x1="471.2" y1="371.5" x2="486.7" y2="348.2" /><line x1="486.7" y1="348.2" x2="488.5" y2="345.8" /><line x1="462.7" y1="348.1" x2="486.7" y2="348.2" /><line x1="513.2" y1="560.8" x2="512.7" y2="553.3" /><line x1="526.5" y1="532.3" x2="512.7" y2="553.3" /><line x1="487.9" y1="564.7" x2="472.6" y2="560.0" /><line x1="462.9" y1="584.2" x2="472.6" y2="560.0" /><line x1="474.9" y1="554.7" x2="472.6" y2="560.0" /><line x1="487.9" y1="564.7" x2="474.9" y2="554.7" /><line x1="503.5" y1="548.8" x2="474.9" y2="554.7" /><line x1="503.5" y1="548.8" x2="487.9" y2="564.7" /><line x1="513.2" y1="560.8" x2="503.5" y2="548.8" /><line x1="503.5" y1="548.8" x2="512.7" y2="553.3" /><line x1="502.6" y1="509.6" x2="503.5" y2="548.8" /><line x1="526.5" y1="532.3" x2="503.5" y2="548.8" /><line x1="503.5" y1="548.8" x2="511.6" y2="510.1" /></g></svg>