<?xml version='1.0' encoding='utf-8'?>
<svg xmlns="http://www.w3.org/2000/svg" xmlns:inkscape="http://www.inkscape.org/namespaces/inkscape" viewBox="204 228 408 600"><style>*{vector-effect:non-scaling-stroke}</style><g id="01_Black_Frame" inkscape:groupmode="layer" inkscape:label="01_Black_Frame" stroke="#1A1A1A" fill="none" stroke-width="0.875" stroke-linecap="round" stroke-linejoin="round"><path d="M 250.0,264.0 L 566.0,264.0 Q 576.0,264.0 576.0,274.0 L 576.0,782.0 Q 576.0,792.0 566.0,792.0 L 250.0,792.0 Q 240.0,792.0 240.0,782.0 L 240.0,274.0 Q 240.0,264.0 250.0,264.0" /><path d="M 253.0,270.0 L 563.0,270.0 Q 570.0,270.0 570.0,277.0 L 570.0,779.0 Q 570.0,786.0 563.0,786.0 L 253.0,786.0 Q 246.0,786.0 246.0,779.0 L 246.0,277.0 Q 246.0,270.0 253.0,270.0" /><line x1="259.0" y1="280.0" x2="263.0" y2="280.0" /><line x1="258.1" y1="282.1" x2="260.9" y2="284.9" /><line x1="256.0" y1="283.0" x2="256.0" y2="287.0" /><line x1="253.9" y1="282.1" x2="251.1" y2="284.9" /><line x1="253.0" y1="280.0" x2="249.0" y2="280.0" /><line x1="253.9" y1="277.9" x2="251.1" y2="275.1" /><line x1="256.0" y1="277.0" x2="256.0" y2="273.0" /><line x1="258.1" y1="277.9" x2="260.9" y2="275.1" /><line x1="563.0" y1="280.0" x2="567.0" y2="280.0" /><line x1="562.1" y1="282.1" x2="564.9" y2="284.9" /><line x1="560.0" y1="283.0" x2="560.0" y2="287.0" /><line x1="557.9" y1="282.1" x2="555.1" y2="284.9" /><line x1="557.0" y1="280.0" x2="553.0" y2="280.0" /><line x1="557.9" y1="277.9" x2="555.1" y2="275.1" /><line x1="560.0" y1="277.0" x2="560.0" y2="273.0" /><line x1="562.1" y1="277.9" x2="564.9" y2="275.1" /><line x1="259.0" y1="776.0" x2="263.0" y2="776.0" /><line x1="258.1" y1="778.1" x2="260.9" y2="780.9" /><line x1="256.0" y1="779.0" x2="256.0" y2="783.0" /><line x1="253.9" y1="778.1" x2="251.1" y2="780.9" /><line x1="253.0" y1="776.0" x2="249.0" y2="776.0" /><line x1="253.9" y1="773.9" x2="251.1" y2="771.1" /><line x1="256.0" y1="773.0" x2="256.0" y2="769.0" /><line x1="258.1" y1="773.9" x2="260.9" y2="771.1" /><line x1="563.0" y1="776.0" x2="567.0" y2="776.0" /><line x1="562.1" y1="778.1" x2="564.9" y2="780.9" /><line x1="560.0" y1="779.0" x2="560.0" y2="783.0" /><line x1="557.9" y1="778.1" x2="555.1" y2="780.9" /><line x1="557.0" y1="776.0" x2="553.0" y2="776.0" /><line x1="557.9" y1="773.9" x2="555.1" y2="771.1" /><line x1="560.0" y1="773.0" x2="560.0" y2="769.0" /><line x1="562.1" y1="773.9" x2="564.9" y2="771.1" /><polyline points="395.25,283.20 393.50,282.00 392.50,282.00 390.75,283.60 390.75,288.40 392.50,290.00 393.50,290.00 395.25,288.80" /><polyline points="396.50,282.00 396.50,290.00 400.75,290.00" /><polyline points="402.25,282.00 404.75,290.00 407.25,282.00" /><polyline points="410.50,282.00 410.50,290.00" /><polyline points="416.25,282.00 416.25,290.00" /><polyline points="422.00,282.00 422.00,290.00" /><polyline points="374.36,297.00 380.86,297.00" /><polyline points="377.61,297.00 377.61,307.00" /><polyline points="381.84,297.00 381.84,307.00" /><polyline points="388.34,297.00 388.34,307.00" /><polyline points="381.84,301.80 388.34,301.80" /><polyline points="394.84,297.00 389.31,297.00 389.31,301.80 393.21,301.80" /><polyline points="389.31,301.80 389.31,307.00 394.84,307.00" /><polyline points="409.79,298.00 408.16,297.00 406.21,297.00 404.59,298.50 404.26,300.00 405.24,301.20 407.51,302.00 409.79,302.80 410.76,304.00 410.44,305.50 408.81,307.00 406.54,307.00 404.91,306.00" /><polyline points="411.74,297.00 411.74,307.00" /><polyline points="418.24,297.00 418.24,307.00" /><polyline points="411.74,301.80 418.24,301.80" /><polyline points="424.74,297.00 419.21,297.00 419.21,301.80 423.11,301.80" /><polyline points="419.21,301.80 419.21,307.00 424.74,307.00" /><polyline points="426.69,307.00 429.94,297.00 433.19,307.00" /><polyline points="427.86,303.50 432.02,303.50" /><polyline points="434.16,307.00 434.16,297.00 438.39,297.00 440.01,298.50 440.01,300.20 438.39,301.50 434.16,301.50 440.01,307.00" /><line x1="270.0" y1="312.0" x2="546.0" y2="312.0" /><line x1="270.0" y1="732.0" x2="546.0" y2="732.0" /><polyline points="372.58,740.75 375.38,740.75" /><polyline points="373.98,740.75 373.98,745.25" /><polyline points="375.80,745.25 375.80,740.75 377.62,740.75 378.32,741.42 378.32,742.19 377.62,742.77 375.80,742.77 378.32,745.25" /><polyline points="381.40,740.75 379.02,740.75 379.02,742.91 380.70,742.91" /><polyline points="379.02,742.91 379.02,745.25 381.40,745.25" /><polyline points="382.24,745.25 382.24,740.75 383.64,743.23 385.04,740.75 385.04,745.25" /><polyline points="386.86,740.75 385.74,741.20 385.46,742.10 385.46,743.90 385.74,744.80 386.86,745.25 387.98,744.80 388.26,743.90 388.26,742.10 387.98,741.20 386.86,740.75" /><polyline points="388.68,745.25 388.68,740.75 390.50,740.75 391.20,741.42 391.20,742.19 390.50,742.77 388.68,742.77 391.20,745.25" /><polyline points="398.34,745.25 398.34,740.75 400.16,740.75 400.86,741.42 400.86,742.19 400.16,742.77 398.34,742.77" /><polyline points="403.94,740.75 401.56,740.75 401.56,742.91 403.24,742.91" /><polyline points="401.56,742.91 401.56,745.25 403.94,745.25" /><polyline points="404.78,745.25 404.78,740.75 406.60,740.75 407.30,741.42 407.30,742.19 406.60,742.77 404.78,742.77" /><polyline points="410.38,740.75 408.00,740.75 408.00,742.91 409.68,742.91" /><polyline points="408.00,742.91 408.00,745.25" /><polyline points="411.22,745.25 412.62,740.75 414.02,745.25" /><polyline points="411.72,743.67 413.52,743.67" /><polyline points="414.44,745.25 414.44,740.75 416.26,740.75 416.96,741.42 416.96,742.19 416.26,742.77 414.44,742.77 416.96,745.25" /><polyline points="426.62,741.42 425.64,740.75 425.08,740.75 424.10,741.65 424.10,744.35 425.08,745.25 425.64,745.25 426.62,744.58" /><polyline points="428.72,740.75 427.60,741.20 427.32,742.10 427.32,743.90 427.60,744.80 428.72,745.25 429.84,744.80 430.12,743.90 430.12,742.10 429.84,741.20 428.72,740.75" /><polyline points="430.54,745.25 430.54,740.75 432.36,740.75 433.06,741.42 433.06,742.19 432.36,742.77 430.54,742.77 433.06,745.25" /><polyline points="433.76,745.25 433.76,740.75 435.58,740.75 436.28,741.42 436.28,742.19 435.58,742.77 433.76,742.77" /><polyline points="436.98,740.75 436.98,744.12 437.54,745.02 439.22,745.02 439.78,744.12 439.78,740.75" /><polyline points="442.58,741.20 441.88,740.75 441.04,740.75 440.34,741.42 440.20,742.10 440.62,742.64 441.60,743.00 442.58,743.36 443.00,743.90 442.86,744.58 442.16,745.25 441.18,745.25 440.48,744.80" /><polyline points="364.88,753.25 366.12,760.75 367.38,755.88 368.62,760.75 369.88,753.25" /><polyline points="370.62,753.25 370.62,760.75" /><polyline points="375.62,753.25 375.62,760.75" /><polyline points="370.62,756.85 375.62,756.85" /><polyline points="380.62,753.25 376.38,753.25 376.38,756.85 379.38,756.85" /><polyline points="376.38,756.85 376.38,760.75 380.62,760.75" /><polyline points="382.12,760.75 382.12,753.25 385.38,753.25 386.62,754.38 386.62,755.65 385.38,756.62 382.12,756.62 386.62,760.75" /><polyline points="392.12,753.25 387.88,753.25 387.88,756.85 390.88,756.85" /><polyline points="387.88,756.85 387.88,760.75 392.12,760.75" /><polyline points="401.88,753.25 401.88,760.75" /><polyline points="405.12,753.25 410.12,753.25" /><polyline points="407.62,753.25 407.62,760.75" /><polyline points="416.62,760.75 416.62,753.25 419.88,753.25 420.88,754.15 420.88,755.35 419.88,756.25 416.62,756.25 419.88,756.25 420.88,757.15 420.88,759.85 419.88,760.75 416.62,760.75" /><polyline points="422.38,760.75 422.38,753.25 425.62,753.25 426.88,754.38 426.88,755.65 425.62,756.62 422.38,756.62 426.88,760.75" /><polyline points="432.38,753.25 428.12,753.25 428.12,756.85 431.12,756.85" /><polyline points="428.12,756.85 428.12,760.75 432.38,760.75" /><polyline points="433.88,760.75 436.38,753.25 438.88,760.75" /><polyline points="434.77,758.12 437.98,758.12" /><polyline points="439.62,753.25 439.62,760.75" /><polyline points="444.12,753.25 439.62,757.00 444.12,760.75" /><polyline points="449.62,754.00 448.38,753.25 446.88,753.25 445.62,754.38 445.38,755.50 446.12,756.40 447.88,757.00 449.62,757.60 450.38,758.50 450.12,759.62 448.88,760.75 447.12,760.75 445.88,760.00" /><polyline points="332.88,766.25 332.88,773.75" /><polyline points="340.38,767.00 339.12,766.25 337.62,766.25 336.38,767.38 336.12,768.50 336.88,769.40 338.62,770.00 340.38,770.60 341.12,771.50 340.88,772.62 339.62,773.75 337.88,773.75 336.62,773.00" /><polyline points="347.62,766.25 348.88,773.75 350.12,768.88 351.38,773.75 352.62,766.25" /><polyline points="353.38,766.25 353.38,773.75" /><polyline points="358.38,766.25 358.38,773.75" /><polyline points="353.38,769.85 358.38,769.85" /><polyline points="363.38,766.25 359.12,766.25 359.12,769.85 362.12,769.85" /><polyline points="359.12,769.85 359.12,773.75 363.38,773.75" /><polyline points="364.88,773.75 364.88,766.25 368.12,766.25 369.38,767.38 369.38,768.65 368.12,769.62 364.88,769.62 369.38,773.75" /><polyline points="374.88,766.25 370.62,766.25 370.62,769.85 373.62,769.85" /><polyline points="370.62,769.85 370.62,773.75 374.88,773.75" /><polyline points="384.62,766.25 384.62,773.75" /><polyline points="387.88,766.25 392.88,766.25" /><polyline points="390.38,766.25 390.38,773.75" /><polyline points="399.38,773.75 401.88,766.25 404.38,773.75" /><polyline points="400.27,771.12 403.48,771.12" /><polyline points="405.12,766.25 405.12,773.75 409.38,773.75" /><polyline points="410.88,766.25 412.12,773.75 413.38,768.88 414.62,773.75 415.88,766.25" /><polyline points="416.62,773.75 419.12,766.25 421.62,773.75" /><polyline points="417.52,771.12 420.73,771.12" /><polyline points="422.38,766.25 424.88,770.00 427.38,766.25" /><polyline points="424.88,770.00 424.88,773.75" /><polyline points="432.38,767.00 431.12,766.25 429.62,766.25 428.38,767.38 428.12,768.50 428.88,769.40 430.62,770.00 432.38,770.60 433.12,771.50 432.88,772.62 431.62,773.75 429.88,773.75 428.62,773.00" /><polyline points="439.62,773.75 439.62,766.25 442.12,770.38 444.62,766.25 444.62,773.75" /><polyline points="449.62,766.25 445.38,766.25 445.38,769.85 448.38,769.85" /><polyline points="445.38,769.85 445.38,773.75 449.62,773.75" /><polyline points="451.12,773.75 453.62,766.25 456.12,773.75" /><polyline points="452.02,771.12 455.23,771.12" /><polyline points="456.88,773.75 456.88,766.25 461.88,773.75 461.88,766.25" /><polyline points="462.62,766.25 467.62,766.25" /><polyline points="465.12,766.25 465.12,773.75" /><polyline points="474.12,766.25 479.12,766.25" /><polyline points="476.62,766.25 476.62,773.75" /><polyline points="482.38,766.25 480.38,767.00 479.88,768.50 479.88,771.50 480.38,773.00 482.38,773.75 484.38,773.00 484.88,771.50 484.88,768.50 484.38,767.00 482.38,766.25" /><polyline points="384.08,779.50 385.68,784.50 387.28,779.50" /><polyline points="389.36,779.50 389.36,784.50" /><polyline points="393.04,784.00 393.04,784.25" /><polyline points="395.12,779.50 396.72,784.50 398.32,779.50" /><polyline points="400.40,779.50 400.40,784.50" /><polyline points="404.08,779.50 404.08,784.50" /><polyline points="407.76,784.00 407.76,784.25" /><polyline points="409.84,784.50 409.84,779.50 411.44,782.25 413.04,779.50 413.04,784.50" /><polyline points="413.52,784.50 413.52,779.50 415.12,782.25 416.72,779.50 416.72,784.50" /><polyline points="417.20,779.50 420.40,784.50" /><polyline points="420.40,779.50 417.20,784.50" /><polyline points="420.88,779.50 424.08,784.50" /><polyline points="424.08,779.50 420.88,784.50" /><polyline points="424.56,779.50 426.16,784.50 427.76,779.50" /><polyline points="429.84,779.50 429.84,784.50" /></g><g id="02_Teal_Image" inkscape:groupmode="layer" inkscape:label="02_Teal_Image" stroke="#3A7A7A" fill="none" stroke-width="0.7" stroke-linecap="round" stroke-linejoin="round"><line x1="256.0" y1="322.2" x2="281.7" y2="325.8" /><line x1="286.0" y1="322.2" x2="311.7" y2="325.8" /><line x1="316.0" y1="322.2" x2="341.7" y2="325.8" /><line x1="346.0" y1="322.2" x2="371.7" y2="325.8" /><line x1="400.3" y1="364.2" x2="426.1" y2="367.8" /><line x1="430.3" y1="364.2" x2="456.1" y2="367.8" /><line x1="460.3" y1="364.2" x2="486.1" y2="367.8" /><line x1="490.3" y1="364.2" x2="516.1" y2="367.8" /><line x1="520.3" y1="364.2" x2="546.1" y2="367.8" /><line x1="256.0" y1="331.2" x2="281.7" y2="334.8" /><line x1="286.0" y1="331.2" x2="311.7" y2="334.8" /><line x1="316.0" y1="331.2" x2="341.7" y2="334.8" /><line x1="346.0" y1="331.2" x2="371.7" y2="334.8" /><line x1="401.0" y1="373.2" x2="426.7" y2="376.8" /><line x1="431.0" y1="373.2" x2="456.7" y2="376.8" /><line x1="461.0" y1="373.2" x2="486.7" y2="376.8" /><line x1="491.0" y1="373.2" x2="516.7" y2="376.8" /><line x1="521.0" y1="373.2" x2="546.7" y2="376.8" /><line x1="256.0" y1="340.2" x2="281.7" y2="343.8" /><line x1="286.0" y1="340.2" x2="311.7" y2="343.8" /><line x1="316.0" y1="340.2" x2="341.7" y2="343.8" /><line x1="346.0" y1="340.2" x2="371.7" y2="343.8" /><line x1="401.6" y1="382.2" x2="427.3" y2="385.8" /><line x1="431.6" y1="382.2" x2="457.3" y2="385.8" /><line x1="461.6" y1="382.2" x2="487.3" y2="385.8" /><line x1="491.6" y1="382.2" x2="517.3" y2="385.8" /><line x1="521.6" y1="382.2" x2="547.3" y2="385.8" /><line x1="256.0" y1="349.2" x2="281.7" y2="352.8" /><line x1="286.0" y1="349.2" x2="311.7" y2="352.8" /><line x1="316.0" y1="349.2" x2="341.7" y2="352.8" /><line x1="346.0" y1="349.2" x2="371.7" y2="352.8" /><line x1="402.2" y1="391.2" x2="427.9" y2="394.8" /><line x1="432.2" y1="391.2" x2="457.9" y2="394.8" /><line x1="462.2" y1="391.2" x2="487.9" y2="394.8" /><line x1="492.2" y1="391.2" x2="517.9" y2="394.8" /><line x1="522.2" y1="391.2" x2="547.9" y2="394.8" /><line x1="256.0" y1="358.2" x2="281.7" y2="361.8" /><line x1="286.0" y1="358.2" x2="311.7" y2="361.8" /><line x1="316.0" y1="358.2" x2="341.7" y2="361.8" /><line x1="346.0" y1="358.2" x2="371.7" y2="361.8" /><line x1="402.8" y1="400.2" x2="428.6" y2="403.8" /><line x1="432.8" y1="400.2" x2="458.6" y2="403.8" /><line x1="462.8" y1="400.2" x2="488.6" y2="403.8" /><line x1="492.8" y1="400.2" x2="518.6" y2="403.8" /><line x1="522.8" y1="400.2" x2="548.6" y2="403.8" /><line x1="256.0" y1="367.2" x2="281.7" y2="370.8" /><line x1="286.0" y1="367.2" x2="311.7" y2="370.8" /><line x1="316.0" y1="367.2" x2="341.7" y2="370.8" /><line x1="346.0" y1="367.2" x2="371.7" y2="370.8" /><line x1="403.4" y1="409.2" x2="429.2" y2="412.8" /><line x1="433.4" y1="409.2" x2="459.2" y2="412.8" /><line x1="463.4" y1="409.2" x2="489.2" y2="412.8" /><line x1="493.4" y1="409.2" x2="519.2" y2="412.8" /><line x1="523.4" y1="409.2" x2="549.2" y2="412.8" /><line x1="256.0" y1="376.2" x2="281.7" y2="379.8" /><line x1="286.0" y1="376.2" x2="311.7" y2="379.8" /><line x1="316.0" y1="376.2" x2="341.7" y2="379.8" /><line x1="346.0" y1="376.2" x2="371.7" y2="379.8" /><line x1="404.0" y1="418.2" x2="429.8" y2="421.8" /><line x1="434.0" y1="418.2" x2="459.8" y2="421.8" /><line x1="464.0" y1="418.2" x2="489.8" y2="421.8" /><line x1="494.0" y1="418.2" x2="519.8" y2="421.8" /><line x1="524.0" y1="418.2" x2="549.8" y2="421.8" /><line x1="256.0" y1="385.2" x2="281.7" y2="388.8" /><line x1="286.0" y1="385.2" x2="311.7" y2="388.8" /><line x1="316.0" y1="385.2" x2="341.7" y2="388.8" /><line x1="346.0" y1="385.2" x2="371.7" y2="388.8" /><line x1="404.7" y1="427.2" x2="430.4" y2="430.8" /><line x1="434.7" y1="427.2" x2="460.4" y2="430.8" /><line x1="464.7" y1="427.2" x2="490.4" y2="430.8" /><line x1="494.7" y1="427.2" x2="520.4" y2="430.8" /><line x1="524.7" y1="427.2" x2="550.4" y2="430.8" /><line x1="256.0" y1="394.2" x2="281.7" y2="397.8" /><line x1="286.0" y1="394.2" x2="311.7" y2="397.8" /><line x1="316.0" y1="394.2" x2="341.7" y2="397.8" /><line x1="346.0" y1="394.2" x2="371.7" y2="397.8" /><line x1="405.3" y1="436.2" x2="431.0" y2="439.8" /><line x1="435.3" y1="436.2" x2="461.0" y2="439.8" /><line x1="465.3" y1="436.2" x2="491.0" y2="439.8" /><line x1="495.3" y1="436.2" x2="521.0" y2="439.8" /><line x1="525.3" y1="436.2" x2="551.0" y2="439.8" /><line x1="256.0" y1="403.2" x2="281.7" y2="406.8" /><line x1="286.0" y1="403.2" x2="311.7" y2="406.8" /><line x1="316.0" y1="403.2" x2="341.7" y2="406.8" /><line x1="346.0" y1="403.2" x2="371.7" y2="406.8" /><line x1="405.9" y1="445.2" x2="431.6" y2="448.8" /><line x1="435.9" y1="445.2" x2="461.6" y2="448.8" /><line x1="465.9" y1="445.2" x2="491.6" y2="448.8" /><line x1="495.9" y1="445.2" x2="521.6" y2="448.8" /><line x1="525.9" y1="445.2" x2="551.6" y2="448.8" /><line x1="256.0" y1="412.2" x2="281.7" y2="415.8" /><line x1="286.0" y1="412.2" x2="311.7" y2="415.8" /><line x1="316.0" y1="412.2" x2="341.7" y2="415.8" /><line x1="346.0" y1="412.2" x2="371.7" y2="415.8" /><line x1="406.5" y1="454.2" x2="432.3" y2="457.8" /><line x1="436.5" y1="454.2" x2="462.3" y2="457.8" /><line x1="466.5" y1="454.2" x2="492.3" y2="457.8" /><line x1="496.5" y1="454.2" x2="522.3" y2="457.8" /><line x1="526.5" y1="454.2" x2="552.3" y2="457.8" /><line x1="256.0" y1="421.2" x2="281.7" y2="424.8" /><line x1="286.0" y1="421.2" x2="311.7" y2="424.8" /><line x1="316.0" y1="421.2" x2="341.7" y2="424.8" /><line x1="346.0" y1="421.2" x2="371.7" y2="424.8" /><line x1="407.1" y1="463.2" x2="432.9" y2="466.8" /><line x1="437.1" y1="463.2" x2="462.9" y2="466.8" /><line x1="467.1" y1="463.2" x2="492.9" y2="466.8" /><line x1="497.1" y1="463.2" x2="522.9" y2="466.8" /><line x1="527.1" y1="463.2" x2="552.9" y2="466.8" /><line x1="256.0" y1="430.2" x2="281.7" y2="433.8" /><line x1="286.0" y1="430.2" x2="311.7" y2="433.8" /><line x1="316.0" y1="430.2" x2="341.7" y2="433.8" /><line x1="346.0" y1="430.2" x2="371.7" y2="433.8" /><line x1="407.8" y1="472.2" x2="433.5" y2="475.8" /><line x1="437.8" y1="472.2" x2="463.5" y2="475.8" /><line x1="467.8" y1="472.2" x2="493.5" y2="475.8" /><line x1="497.8" y1="472.2" x2="523.5" y2="475.8" /><line x1="527.8" y1="472.2" x2="553.5" y2="475.8" /><line x1="256.0" y1="439.2" x2="281.7" y2="442.8" /><line x1="286.0" y1="439.2" x2="311.7" y2="442.8" /><line x1="316.0" y1="439.2" x2="341.7" y2="442.8" /><line x1="346.0" y1="439.2" x2="371.7" y2="442.8" /><line x1="408.4" y1="481.2" x2="434.1" y2="484.8" /><line x1="438.4" y1="481.2" x2="464.1" y2="484.8" /><line x1="468.4" y1="481.2" x2="494.1" y2="484.8" /><line x1="498.4" y1="481.2" x2="524.1" y2="484.8" /><line x1="528.4" y1="481.2" x2="554.1" y2="484.8" /><line x1="256.0" y1="448.2" x2="281.7" y2="451.8" /><line x1="286.0" y1="448.2" x2="311.7" y2="451.8" /><line x1="316.0" y1="448.2" x2="341.7" y2="451.8" /><line x1="346.0" y1="448.2" x2="371.7" y2="451.8" /><line x1="409.0" y1="490.2" x2="434.7" y2="493.8" /><line x1="439.0" y1="490.2" x2="464.7" y2="493.8" /><line x1="469.0" y1="490.2" x2="494.7" y2="493.8" /><line x1="499.0" y1="490.2" x2="524.7" y2="493.8" /><line x1="529.0" y1="490.2" x2="554.7" y2="493.8" /><line x1="256.0" y1="457.2" x2="281.7" y2="460.8" /><line x1="286.0" y1="457.2" x2="311.7" y2="460.8" /><line x1="316.0" y1="457.2" x2="341.7" y2="460.8" /><line x1="346.0" y1="457.2" x2="371.7" y2="460.8" /><line x1="409.6" y1="499.2" x2="435.4" y2="502.8" /><line x1="439.6" y1="499.2" x2="465.4" y2="502.8" /><line x1="469.6" y1="499.2" x2="495.4" y2="502.8" /><line x1="499.6" y1="499.2" x2="525.4" y2="502.8" /><line x1="529.6" y1="499.2" x2="555.4" y2="502.8" /><line x1="256.0" y1="466.2" x2="281.7" y2="469.8" /><line x1="286.0" y1="466.2" x2="311.7" y2="469.8" /><line x1="316.0" y1="466.2" x2="341.7" y2="469.8" /><line x1="346.0" y1="466.2" x2="371.7" y2="469.8" /><line x1="376.0" y1="466.2" x2="401.7" y2="469.8" /><line x1="410.2" y1="508.2" x2="436.0" y2="511.8" /><line x1="440.2" y1="508.2" x2="466.0" y2="511.8" /><line x1="470.2" y1="508.2" x2="496.0" y2="511.8" /><line x1="500.2" y1="508.2" x2="526.0" y2="511.8" /><line x1="530.2" y1="508.2" x2="556.0" y2="511.8" /><line x1="256.0" y1="475.2" x2="281.7" y2="478.8" /><line x1="286.0" y1="475.2" x2="311.7" y2="478.8" /><line x1="316.0" y1="475.2" x2="341.7" y2="478.8" /><line x1="346.0" y1="475.2" x2="371.7" y2="478.8" /><line x1="376.0" y1="475.2" x2="401.7" y2="478.8" /><line x1="410.8" y1="517.2" x2="436.6" y2="520.8" /><line x1="440.8" y1="517.2" x2="466.6" y2="520.8" /><line x1="470.8" y1="517.2" x2="496.6" y2="520.8" /><line x1="500.8" y1="517.2" x2="526.6" y2="520.8" /><line x1="530.8" y1="517.2" x2="556.6" y2="520.8" /><line x1="256.0" y1="484.2" x2="281.7" y2="487.8" /><line x1="286.0" y1="484.2" x2="311.7" y2="487.8" /><line x1="316.0" y1="484.2" x2="341.7" y2="487.8" /><line x1="346.0" y1="484.2" x2="371.7" y2="487.8" /><line x1="376.0" y1="484.2" x2="401.7" y2="487.8" /><line x1="411.5" y1="526.2" x2="437.2" y2="529.8" /><line x1="441.5" y1="526.2" x2="467.2" y2="529.8" /><line x1="471.5" y1="526.2" x2="497.2" y2="529.8" /><line x1="501.5" y1="526.2" x2="527.2" y2="529.8" /><line x1="531.5" y1="526.2" x2="557.2" y2="529.8" /><line x1="256.0" y1="493.2" x2="281.7" y2="496.8" /><line x1="286.0" y1="493.2" x2="311.7" y2="496.8" /><line x1="316.0" y1="493.2" x2="341.7" y2="496.8" /><line x1="346.0" y1="493.2" x2="371.7" y2="496.8" /><line x1="376.0" y1="493.2" x2="401.7" y2="496.8" /><line x1="412.1" y1="535.2" x2="437.8" y2="538.8" /><line x1="442.1" y1="535.2" x2="467.8" y2="538.8" /><line x1="472.1" y1="535.2" x2="497.8" y2="538.8" /><line x1="502.1" y1="535.2" x2="527.8" y2="538.8" /><line x1="532.1" y1="535.2" x2="557.8" y2="538.8" /><line x1="256.0" y1="502.2" x2="281.7" y2="505.8" /><line x1="286.0" y1="502.2" x2="311.7" y2="505.8" /><line x1="316.0" y1="502.2" x2="341.7" y2="505.8" /><line x1="346.0" y1="502.2" x2="371.7" y2="505.8" /><line x1="376.0" y1="502.2" x2="401.7" y2="505.8" /><line x1="412.7" y1="544.2" x2="438.4" y2="547.8" /><line x1="442.7" y1="544.2" x2="468.4" y2="547.8" /><line x1="472.7" y1="544.2" x2="498.4" y2="547.8" /><line x1="502.7" y1="544.2" x2="528.4" y2="547.8" /><line x1="532.7" y1="544.2" x2="558.4" y2="547.8" /><line x1="256.0" y1="511.2" x2="281.7" y2="514.8" /><line x1="286.0" y1="511.2" x2="311.7" y2="514.8" /><line x1="316.0" y1="511.2" x2="341.7" y2="514.8" /><line x1="346.0" y1="511.2" x2="371.7" y2="514.8" /><line x1="376.0" y1="511.2" x2="401.7" y2="514.8" /><line x1="413.3" y1="553.2" x2="439.1" y2="556.8" /><line x1="443.3" y1="553.2" x2="469.1" y2="556.8" /><line x1="473.3" y1="553.2" x2="499.1" y2="556.8" /><line x1="503.3" y1="553.2" x2="529.1" y2="556.8" /><line x1="533.3" y1="553.2" x2="559.1" y2="556.8" /><line x1="256.0" y1="520.2" x2="281.7" y2="523.8" /><line x1="286.0" y1="520.2" x2="311.7" y2="523.8" /><line x1="316.0" y1="520.2" x2="341.7" y2="523.8" /><line x1="346.0" y1="520.2" x2="371.7" y2="523.8" /><line x1="376.0" y1="520.2" x2="401.7" y2="523.8" /><line x1="413.9" y1="562.2" x2="439.7" y2="565.8" /><line x1="443.9" y1="562.2" x2="469.7" y2="565.8" /><line x1="473.9" y1="562.2" x2="499.7" y2="565.8" /><line x1="503.9" y1="562.2" x2="529.7" y2="565.8" /><line x1="533.9" y1="562.2" x2="559.7" y2="565.8" /><line x1="256.0" y1="529.2" x2="281.7" y2="532.8" /><line x1="286.0" y1="529.2" x2="311.7" y2="532.8" /><line x1="316.0" y1="529.2" x2="341.7" y2="532.8" /><line x1="346.0" y1="529.2" x2="371.7" y2="532.8" /><line x1="376.0" y1="529.2" x2="401.7" y2="532.8" /><line x1="414.5" y1="571.2" x2="440.3" y2="574.8" /><line x1="444.5" y1="571.2" x2="470.3" y2="574.8" /><line x1="474.5" y1="571.2" x2="500.3" y2="574.8" /><line x1="504.5" y1="571.2" x2="530.3" y2="574.8" /><line x1="256.0" y1="538.2" x2="281.7" y2="541.8" /><line x1="286.0" y1="538.2" x2="311.7" y2="541.8" /><line x1="316.0" y1="538.2" x2="341.7" y2="541.8" /><line x1="346.0" y1="538.2" x2="371.7" y2="541.8" /><line x1="376.0" y1="538.2" x2="401.7" y2="541.8" /><line x1="415.2" y1="580.2" x2="440.9" y2="583.8" /><line x1="445.2" y1="580.2" x2="470.9" y2="583.8" /><line x1="475.2" y1="580.2" x2="500.9" y2="583.8" /><line x1="505.2" y1="580.2" x2="530.9" y2="583.8" /><line x1="256.0" y1="547.2" x2="281.7" y2="550.8" /><line x1="286.0" y1="547.2" x2="311.7" y2="550.8" /><line x1="316.0" y1="547.2" x2="341.7" y2="550.8" /><line x1="346.0" y1="547.2" x2="371.7" y2="550.8" /><line x1="376.0" y1="547.2" x2="401.7" y2="550.8" /><line x1="415.8" y1="589.2" x2="441.5" y2="592.8" /><line x1="445.8" y1="589.2" x2="471.5" y2="592.8" /><line x1="475.8" y1="589.2" x2="501.5" y2="592.8" /><line x1="505.8" y1="589.2" x2="531.5" y2="592.8" /><line x1="256.0" y1="556.2" x2="281.7" y2="559.8" /><line x1="286.0" y1="556.2" x2="311.7" y2="559.8" /><line x1="316.0" y1="556.2" x2="341.7" y2="559.8" /><line x1="346.0" y1="556.2" x2="371.7" y2="559.8" /><line x1="376.0" y1="556.2" x2="401.7" y2="559.8" /><line x1="416.4" y1="598.2" x2="442.1" y2="601.8" /><line x1="446.4" y1="598.2" x2="472.1" y2="601.8" /><line x1="476.4" y1="598.2" x2="502.1" y2="601.8" /><line x1="506.4" y1="598.2" x2="532.1" y2="601.8" /><line x1="256.0" y1="565.2" x2="281.7" y2="568.8" /><line x1="286.0" y1="565.2" x2="311.7" y2="568.8" /><line x1="316.0" y1="565.2" x2="341.7" y2="568.8" /><line x1="346.0" y1="565.2" x2="371.7" y2="568.8" /><line x1="376.0" y1="565.2" x2="401.7" y2="568.8" /><line x1="417.0" y1="607.2" x2="442.8" y2="610.8" /><line x1="447.0" y1="607.2" x2="472.8" y2="610.8" /><line x1="477.0" y1="607.2" x2="502.8" y2="610.8" /><line x1="507.0" y1="607.2" x2="532.8" y2="610.8" /><line x1="256.0" y1="574.2" x2="281.7" y2="577.8" /><line x1="286.0" y1="574.2" x2="311.7" y2="577.8" /><line x1="316.0" y1="574.2" x2="341.7" y2="577.8" /><line x1="346.0" y1="574.2" x2="371.7" y2="577.8" /><line x1="376.0" y1="574.2" x2="401.7" y2="577.8" /><line x1="417.6" y1="616.2" x2="443.4" y2="619.8" /><line x1="447.6" y1="616.2" x2="473.4" y2="619.8" /><line x1="477.6" y1="616.2" x2="503.4" y2="619.8" /><line x1="507.6" y1="616.2" x2="533.4" y2="619.8" /><line x1="256.0" y1="583.2" x2="281.7" y2="586.8" /><line x1="286.0" y1="583.2" x2="311.7" y2="586.8" /><line x1="316.0" y1="583.2" x2="341.7" y2="586.8" /><line x1="346.0" y1="583.2" x2="371.7" y2="586.8" /><line x1="376.0" y1="583.2" x2="401.7" y2="586.8" /><line x1="418.3" y1="625.2" x2="444.0" y2="628.8" /><line x1="448.3" y1="625.2" x2="474.0" y2="628.8" /><line x1="478.3" y1="625.2" x2="504.0" y2="628.8" /><line x1="508.3" y1="625.2" x2="534.0" y2="628.8" /><line x1="256.0" y1="592.2" x2="281.7" y2="595.8" /><line x1="286.0" y1="592.2" x2="311.7" y2="595.8" /><line x1="316.0" y1="592.2" x2="341.7" y2="595.8" /><line x1="346.0" y1="592.2" x2="371.7" y2="595.8" /><line x1="376.0" y1="592.2" x2="401.7" y2="595.8" /><line x1="418.9" y1="634.2" x2="444.6" y2="637.8" /><line x1="448.9" y1="634.2" x2="474.6" y2="637.8" /><line x1="478.9" y1="634.2" x2="504.6" y2="637.8" /><line x1="508.9" y1="634.2" x2="534.6" y2="637.8" /><line x1="256.0" y1="601.2" x2="281.7" y2="604.8" /><line x1="286.0" y1="601.2" x2="311.7" y2="604.8" /><line x1="316.0" y1="601.2" x2="341.7" y2="604.8" /><line x1="346.0" y1="601.2" x2="371.7" y2="604.8" /><line x1="376.0" y1="601.2" x2="401.7" y2="604.8" /><line x1="419.5" y1="643.2" x2="445.2" y2="646.8" /><line x1="449.5" y1="643.2" x2="475.2" y2="646.8" /><line x1="479.5" y1="643.2" x2="505.2" y2="646.8" /><line x1="509.5" y1="643.2" x2="535.2" y2="646.8" /><line x1="256.0" y1="610.2" x2="281.7" y2="613.8" /><line x1="286.0" y1="610.2" x2="311.7" y2="613.8" /><line x1="316.0" y1="610.2" x2="341.7" y2="613.8" /><line x1="346.0" y1="610.2" x2="371.7" y2="613.8" /><line x1="376.0" y1="610.2" x2="401.7" y2="613.8" /><line x1="420.1" y1="652.2" x2="445.9" y2="655.8" /><line x1="450.1" y1="652.2" x2="475.9" y2="655.8" /><line x1="480.1" y1="652.2" x2="505.9" y2="655.8" /><line x1="510.1" y1="652.2" x2="535.9" y2="655.8" /><line x1="256.0" y1="619.2" x2="281.7" y2="622.8" /><line x1="286.0" y1="619.2" x2="311.7" y2="622.8" /><line x1="316.0" y1="619.2" x2="341.7" y2="622.8" /><line x1="346.0" y1="619.2" x2="371.7" y2="622.8" /><line x1="376.0" y1="619.2" x2="401.7" y2="622.8" /><line x1="420.7" y1="661.2" x2="446.5" y2="664.8" /><line x1="450.7" y1="661.2" x2="476.5" y2="664.8" /><line x1="480.7" y1="661.2" x2="506.5" y2="664.8" /><line x1="510.7" y1="661.2" x2="536.5" y2="664.8" /><line x1="256.0" y1="628.2" x2="281.7" y2="631.8" /><line x1="286.0" y1="628.2" x2="311.7" y2="631.8" /><line x1="316.0" y1="628.2" x2="341.7" y2="631.8" /><line x1="346.0" y1="628.2" x2="371.7" y2="631.8" /><line x1="376.0" y1="628.2" x2="401.7" y2="631.8" /><line x1="421.3" y1="670.2" x2="447.1" y2="673.8" /><line x1="451.3" y1="670.2" x2="477.1" y2="673.8" /><line x1="481.3" y1="670.2" x2="507.1" y2="673.8" /><line x1="511.3" y1="670.2" x2="537.1" y2="673.8" /><line x1="256.0" y1="637.2" x2="281.7" y2="640.8" /><line x1="286.0" y1="637.2" x2="311.7" y2="640.8" /><line x1="316.0" y1="637.2" x2="341.7" y2="640.8" /><line x1="346.0" y1="637.2" x2="371.7" y2="640.8" /><line x1="376.0" y1="637.2" x2="401.7" y2="640.8" /><line x1="422.0" y1="679.2" x2="447.7" y2="682.8" /><line x1="452.0" y1="679.2" x2="477.7" y2="682.8" /><line x1="482.0" y1="679.2" x2="507.7" y2="682.8" /><line x1="512.0" y1="679.2" x2="537.7" y2="682.8" /><line x1="256.0" y1="646.2" x2="281.7" y2="649.8" /><line x1="286.0" y1="646.2" x2="311.7" y2="649.8" /><line x1="316.0" y1="646.2" x2="341.7" y2="649.8" /><line x1="346.0" y1="646.2" x2="371.7" y2="649.8" /><line x1="376.0" y1="646.2" x2="401.7" y2="649.8" /><line x1="422.6" y1="688.2" x2="448.3" y2="691.8" /><line x1="452.6" y1="688.2" x2="478.3" y2="691.8" /><line x1="482.6" y1="688.2" x2="508.3" y2="691.8" /><line x1="512.6" y1="688.2" x2="538.3" y2="691.8" /><line x1="256.0" y1="655.2" x2="281.7" y2="658.8" /><line x1="286.0" y1="655.2" x2="311.7" y2="658.8" /><line x1="316.0" y1="655.2" x2="341.7" y2="658.8" /><line x1="346.0" y1="655.2" x2="371.7" y2="658.8" /><line x1="376.0" y1="655.2" x2="401.7" y2="658.8" /><line x1="423.2" y1="697.2" x2="448.9" y2="700.8" /><line x1="453.2" y1="697.2" x2="478.9" y2="700.8" /><line x1="483.2" y1="697.2" x2="508.9" y2="700.8" /><line x1="513.2" y1="697.2" x2="538.9" y2="700.8" /><line x1="256.0" y1="664.2" x2="281.7" y2="667.8" /><line x1="286.0" y1="664.2" x2="311.7" y2="667.8" /><line x1="316.0" y1="664.2" x2="341.7" y2="667.8" /><line x1="346.0" y1="664.2" x2="371.7" y2="667.8" /><line x1="376.0" y1="664.2" x2="401.7" y2="667.8" /><line x1="423.8" y1="706.2" x2="449.6" y2="709.8" /><line x1="453.8" y1="706.2" x2="479.6" y2="709.8" /><line x1="483.8" y1="706.2" x2="509.6" y2="709.8" /><line x1="513.8" y1="706.2" x2="539.6" y2="709.8" /><line x1="256.0" y1="673.2" x2="281.7" y2="676.8" /><line x1="286.0" y1="673.2" x2="311.7" y2="676.8" /><line x1="316.0" y1="673.2" x2="341.7" y2="676.8" /><line x1="346.0" y1="673.2" x2="371.7" y2="676.8" /><line x1="376.0" y1="673.2" x2="401.7" y2="676.8" /><line x1="424.4" y1="715.2" x2="450.2" y2="718.8" /><line x1="454.4" y1="715.2" x2="480.2" y2="718.8" /><line x1="484.4" y1="715.2" x2="510.2" y2="718.8" /><line x1="514.4" y1="715.2" x2="540.2" y2="718.8" /><line x1="256.0" y1="682.2" x2="281.7" y2="685.8" /><line x1="286.0" y1="682.2" x2="311.7" y2="685.8" /><line x1="316.0" y1="682.2" x2="341.7" y2="685.8" /><line x1="346.0" y1="682.2" x2="371.7" y2="685.8" /><line x1="376.0" y1="682.2" x2="401.7" y2="685.8" /><line x1="256.0" y1="691.2" x2="281.7" y2="694.8" /><line x1="286.0" y1="691.2" x2="311.7" y2="694.8" /><line x1="316.0" y1="691.2" x2="341.7" y2="694.8" /><line x1="346.0" y1="691.2" x2="371.7" y2="694.8" /><line x1="376.0" y1="691.2" x2="401.7" y2="694.8" /><line x1="256.0" y1="700.2" x2="281.7" y2="703.8" /><line x1="286.0" y1="700.2" x2="311.7" y2="703.8" /><line x1="316.0" y1="700.2" x2="341.7" y2="703.8" /><line x1="346.0" y1="700.2" x2="371.7" y2="703.8" /><line x1="376.0" y1="700.2" x2="401.7" y2="703.8" /><line x1="256.0" y1="709.2" x2="281.7" y2="712.8" /><line x1="286.0" y1="709.2" x2="311.7" y2="712.8" /><line x1="316.0" y1="709.2" x2="341.7" y2="712.8" /><line x1="346.0" y1="709.2" x2="371.7" y2="712.8" /><line x1="376.0" y1="709.2" x2="401.7" y2="712.8" /><line x1="256.0" y1="718.2" x2="281.7" y2="721.8" /><line x1="286.0" y1="718.2" x2="311.7" y2="721.8" /><line x1="316.0" y1="718.2" x2="341.7" y2="721.8" /><line x1="346.0" y1="718.2" x2="371.7" y2="721.8" /><line x1="376.0" y1="718.2" x2="401.7" y2="721.8" /></g><g id="03_Gold_Fault" inkscape:groupmode="layer" inkscape:label="03_Gold_Fault" stroke="#B8960C" fill="none" stroke-width="1.38" stroke-linecap="round" stroke-linejoin="round"><polyline points="393.7,319.0 396.9,332.6 397.9,346.2 401.0,359.8 397.3,373.4 399.0,387.0 402.2,400.6 402.9,414.2 405.2,427.8 409.7,441.4 406.8,455.0 406.8,468.6 405.6,482.2 408.8,495.8 406.7,509.4 411.9,523.0 410.6,536.6 418.8,550.2 413.9,563.8 412.0,577.4 413.2,591.0 418.5,604.6 419.1,618.2 419.3,631.8 421.4,645.4 419.4,659.0 417.7,672.6 420.2,686.2 422.5,699.8 421.8,713.4 423.7,727.0" /></g></svg>