<?xml version='1.0' encoding='utf-8'?>
<svg xmlns="http://www.w3.org/2000/svg" xmlns:inkscape="http://www.inkscape.org/namespaces/inkscape" viewBox="204 228 408 600"><style>*{vector-effect:non-scaling-stroke}</style><g id="01_Black_Frame" inkscape:groupmode="layer" inkscape:label="01_Black_Frame" stroke="#1A1A1A" fill="none" stroke-width="0.875" stroke-linecap="round" stroke-linejoin="round"><path d="M 250.0,264.0 L 566.0,264.0 Q 576.0,264.0 576.0,274.0 L 576.0,782.0 Q 576.0,792.0 566.0,792.0 L 250.0,792.0 Q 240.0,792.0 240.0,782.0 L 240.0,274.0 Q 240.0,264.0 250.0,264.0" /><path d="M 253.0,270.0 L 563.0,270.0 Q 570.0,270.0 570.0,277.0 L 570.0,779.0 Q 570.0,786.0 563.0,786.0 L 253.0,786.0 Q 246.0,786.0 246.0,779.0 L 246.0,277.0 Q 246.0,270.0 253.0,270.0" /><line x1="259.0" y1="280.0" x2="263.0" y2="280.0" /><line x1="258.1" y1="282.1" x2="260.9" y2="284.9" /><line x1="256.0" y1="283.0" x2="256.0" y2="287.0" /><line x1="253.9" y1="282.1" x2="251.1" y2="284.9" /><line x1="253.0" y1="280.0" x2="249.0" y2="280.0" /><line x1="253.9" y1="277.9" x2="251.1" y2="275.1" /><line x1="256.0" y1="277.0" x2="256.0" y2="273.0" /><line x1="258.1" y1="277.9" x2="260.9" y2="275.1" /><line x1="563.0" y1="280.0" x2="567.0" y2="280.0" /><line x1="562.1" y1="282.1" x2="564.9" y2="284.9" /><line x1="560.0" y1="283.0" x2="560.0" y2="287.0" /><line x1="557.9" y1="282.1" x2="555.1" y2="284.9" /><line x1="557.0" y1="280.0" x2="553.0" y2="280.0" /><line x1="557.9" y1="277.9" x2="555.1" y2="275.1" /><line x1="560.0" y1="277.0" x2="560.0" y2="273.0" /><line x1="562.1" y1="277.9" x2="564.9" y2="275.1" /><line x1="259.0" y1="776.0" x2="263.0" y2="776.0" /><line x1="258.1" y1="778.1" x2="260.9" y2="780.9" /><line x1="256.0" y1="779.0" x2="256.0" y2="783.0" /><line x1="253.9" y1="778.1" x2="251.1" y2="780.9" /><line x1="253.0" y1="776.0" x2="249.0" y2="776.0" /><line x1="253.9" y1="773.9" x2="251.1" y2="771.1" /><line x1="256.0" y1="773.0" x2="256.0" y2="769.0" /><line x1="258.1" y1="773.9" x2="260.9" y2="771.1" /><line x1="563.0" y1="776.0" x2="567.0" y2="776.0" /><line x1="562.1" y1="778.1" x2="564.9" y2="780.9" /><line x1="560.0" y1="779.0" x2="560.0" y2="783.0" /><line x1="557.9" y1="778.1" x2="555.1" y2="780.9" /><line x1="557.0" y1="776.0" x2="553.0" y2="776.0" /><line x1="557.9" y1="773.9" x2="555.1" y2="771.1" /><line x1="560.0" y1="773.0" x2="560.0" y2="769.0" /><line x1="562.1" y1="773.9" x2="564.9" y2="771.1" /><polyline points="401.00,283.20 399.25,282.00 398.25,282.00 396.50,283.60 396.50,288.40 398.25,290.00 399.25,290.00 401.00,288.80" /><polyline points="402.25,282.00 402.25,290.00 406.50,290.00" /><polyline points="410.50,282.00 410.50,290.00" /><polyline points="413.75,282.00 418.75,290.00" /><polyline points="418.75,282.00 413.75,290.00" /><polyline points="370.62,297.00 377.12,297.00" /><polyline points="373.88,297.00 373.88,307.00" /><polyline points="378.10,297.00 378.10,307.00" /><polyline points="384.60,297.00 384.60,307.00" /><polyline points="378.10,301.80 384.60,301.80" /><polyline points="391.10,297.00 385.57,297.00 385.57,301.80 389.47,301.80" /><polyline points="385.57,301.80 385.57,307.00 391.10,307.00" /><polyline points="400.52,307.00 400.52,297.00 404.75,297.00 406.05,298.20 406.05,299.80 404.75,301.00 400.52,301.00 404.75,301.00 406.05,302.20 406.05,305.80 404.75,307.00 400.52,307.00" /><polyline points="408.00,297.00 408.00,304.50 409.30,306.50 413.20,306.50 414.50,304.50 414.50,297.00" /><polyline points="415.48,307.00 415.48,297.00 419.70,297.00 421.33,298.50 421.33,300.20 419.70,301.50 415.48,301.50 421.33,307.00" /><polyline points="426.20,297.00 426.20,307.00" /><polyline points="435.95,297.00 430.43,297.00 430.43,301.80 434.32,301.80" /><polyline points="430.43,301.80 430.43,307.00 435.95,307.00" /><polyline points="437.90,307.00 437.90,297.00 441.47,297.00 443.75,299.50 443.75,304.50 441.47,307.00 437.90,307.00" /><line x1="270.0" y1="312.0" x2="546.0" y2="312.0" /><line x1="270.0" y1="732.0" x2="546.0" y2="732.0" /><polyline points="377.20,740.75 376.08,741.20 375.80,742.10 375.80,743.90 376.08,744.80 377.20,745.25 378.32,744.80 378.60,743.90 378.60,742.10 378.32,741.20 377.20,740.75" /><polyline points="377.48,743.90 378.60,745.34" /><polyline points="379.02,740.75 379.02,744.12 379.58,745.02 381.26,745.02 381.82,744.12 381.82,740.75" /><polyline points="382.24,745.25 383.64,740.75 385.04,745.25" /><polyline points="382.74,743.67 384.54,743.67" /><polyline points="385.46,740.75 385.46,745.25" /><polyline points="387.98,740.75 385.46,743.00 387.98,745.25" /><polyline points="391.06,740.75 388.68,740.75 388.68,742.91 390.36,742.91" /><polyline points="388.68,742.91 388.68,745.25 391.06,745.25" /><polyline points="399.74,740.75 399.74,745.25" /><polyline points="401.56,745.25 401.56,740.75 403.38,740.75 404.08,741.42 404.08,742.19 403.38,742.77 401.56,742.77 404.08,745.25" /><polyline points="404.78,745.25 406.18,740.75 407.58,745.25" /><polyline points="405.28,743.67 407.08,743.67" /><polyline points="408.00,745.25 408.00,740.75 410.80,745.25 410.80,740.75" /><polyline points="417.66,740.75 420.46,740.75" /><polyline points="419.06,740.75 419.06,745.25" /><polyline points="423.26,741.20 422.56,740.75 421.72,740.75 421.02,741.42 420.88,742.10 421.30,742.64 422.28,743.00 423.26,743.36 423.68,743.90 423.54,744.58 422.84,745.25 421.86,745.25 421.16,744.80" /><polyline points="424.10,740.75 424.10,744.12 424.66,745.02 426.34,745.02 426.90,744.12 426.90,740.75" /><polyline points="427.32,745.25 427.32,740.75 430.12,745.25 430.12,740.75" /><polyline points="430.54,745.25 431.94,740.75 433.34,745.25" /><polyline points="431.04,743.67 432.84,743.67" /><polyline points="433.76,745.25 433.76,740.75 435.16,743.23 436.56,740.75 436.56,745.25" /><polyline points="438.38,740.75 438.38,745.25" /><polyline points="327.50,753.25 332.50,753.25" /><polyline points="330.00,753.25 330.00,760.75" /><polyline points="333.25,753.25 333.25,760.75" /><polyline points="338.25,753.25 338.25,760.75" /><polyline points="333.25,756.85 338.25,756.85" /><polyline points="341.50,753.25 341.50,760.75" /><polyline points="344.75,760.75 344.75,753.25 348.00,753.25 349.25,754.38 349.25,755.65 348.00,756.62 344.75,756.62 349.25,760.75" /><polyline points="350.50,753.25 355.50,753.25" /><polyline points="353.00,753.25 353.00,760.75" /><polyline points="356.25,753.25 358.75,757.00 361.25,753.25" /><polyline points="358.75,757.00 358.75,760.75" /><polyline points="363.00,757.00 366.00,757.00" /><polyline points="367.75,753.25 372.75,753.25" /><polyline points="370.25,753.25 370.25,760.75" /><polyline points="373.50,753.25 374.75,760.75 376.00,755.88 377.25,760.75 378.50,753.25" /><polyline points="381.75,753.25 379.75,754.00 379.25,755.50 379.25,758.50 379.75,760.00 381.75,760.75 383.75,760.00 384.25,758.50 384.25,755.50 383.75,754.00 381.75,753.25" /><polyline points="390.75,760.75 390.75,753.25 393.50,753.25 395.25,755.12 395.25,758.88 393.50,760.75 390.75,760.75" /><polyline points="400.75,753.25 396.50,753.25 396.50,756.85 399.50,756.85" /><polyline points="396.50,756.85 396.50,760.75 400.75,760.75" /><polyline points="402.25,760.75 404.75,753.25 407.25,760.75" /><polyline points="403.15,758.12 406.35,758.12" /><polyline points="408.00,760.75 408.00,753.25 410.75,753.25 412.50,755.12 412.50,758.88 410.75,760.75 408.00,760.75" /><polyline points="422.00,753.25 422.00,760.75" /><polyline points="425.25,760.75 425.25,753.25 430.25,760.75 430.25,753.25" /><polyline points="436.75,753.25 441.75,753.25" /><polyline points="439.25,753.25 439.25,760.75" /><polyline points="442.50,753.25 442.50,760.75" /><polyline points="447.50,753.25 447.50,760.75" /><polyline points="442.50,756.85 447.50,756.85" /><polyline points="452.50,753.25 448.25,753.25 448.25,756.85 451.25,756.85" /><polyline points="448.25,756.85 448.25,760.75 452.50,760.75" /><polyline points="462.25,753.25 460.25,754.00 459.75,755.50 459.75,758.50 460.25,760.00 462.25,760.75 464.25,760.00 464.75,758.50 464.75,755.50 464.25,754.00 462.25,753.25" /><polyline points="470.00,754.38 468.25,753.25 467.25,753.25 465.50,754.75 465.50,759.25 467.25,760.75 468.25,760.75 470.00,759.62" /><polyline points="475.50,753.25 471.25,753.25 471.25,756.85 474.25,756.85" /><polyline points="471.25,756.85 471.25,760.75 475.50,760.75" /><polyline points="477.00,760.75 479.50,753.25 482.00,760.75" /><polyline points="477.90,758.12 481.10,758.12" /><polyline points="482.75,760.75 482.75,753.25 487.75,760.75 487.75,753.25" /><polyline points="339.00,766.25 340.25,773.75 341.50,768.88 342.75,773.75 344.00,766.25" /><polyline points="344.75,766.25 344.75,773.75" /><polyline points="349.75,766.25 349.75,773.75" /><polyline points="344.75,769.85 349.75,769.85" /><polyline points="353.00,766.25 353.00,773.75" /><polyline points="356.25,766.25 356.25,773.75 360.50,773.75" /><polyline points="366.25,766.25 362.00,766.25 362.00,769.85 365.00,769.85" /><polyline points="362.00,769.85 362.00,773.75 366.25,773.75" /><polyline points="373.50,766.25 374.75,773.75 376.00,768.88 377.25,773.75 378.50,766.25" /><polyline points="383.50,766.25 379.25,766.25 379.25,769.85 382.25,769.85" /><polyline points="379.25,769.85 379.25,773.75 383.50,773.75" /><polyline points="390.75,766.25 392.00,773.75 393.25,768.88 394.50,773.75 395.75,766.25" /><polyline points="396.50,773.75 399.00,766.25 401.50,773.75" /><polyline points="397.40,771.12 400.60,771.12" /><polyline points="402.25,766.25 407.25,766.25" /><polyline points="404.75,766.25 404.75,773.75" /><polyline points="412.50,767.38 410.75,766.25 409.75,766.25 408.00,767.75 408.00,772.25 409.75,773.75 410.75,773.75 412.50,772.62" /><polyline points="413.75,766.25 413.75,773.75" /><polyline points="418.75,766.25 418.75,773.75" /><polyline points="413.75,769.85 418.75,769.85" /><polyline points="423.75,766.25 419.50,766.25 419.50,769.85 422.50,769.85" /><polyline points="419.50,769.85 419.50,773.75 423.75,773.75" /><polyline points="425.25,773.75 425.25,766.25 428.00,766.25 429.75,768.12 429.75,771.88 428.00,773.75 425.25,773.75" /><polyline points="436.75,766.25 441.75,766.25" /><polyline points="439.25,766.25 439.25,773.75" /><polyline points="442.50,766.25 442.50,773.75" /><polyline points="447.50,766.25 447.50,773.75" /><polyline points="442.50,769.85 447.50,769.85" /><polyline points="452.50,766.25 448.25,766.25 448.25,769.85 451.25,769.85" /><polyline points="448.25,769.85 448.25,773.75 452.50,773.75" /><polyline points="459.75,766.25 461.00,773.75 462.25,768.88 463.50,773.75 464.75,766.25" /><polyline points="465.50,773.75 468.00,766.25 470.50,773.75" /><polyline points="466.40,771.12 469.60,771.12" /><polyline points="471.25,773.75 471.25,766.25 474.50,766.25 475.75,767.38 475.75,768.65 474.50,769.62 471.25,769.62 475.75,773.75" /><polyline points="382.24,779.50 383.84,784.50 385.44,779.50" /><polyline points="387.52,779.50 387.52,784.50" /><polyline points="391.20,784.00 391.20,784.25" /><polyline points="393.28,779.50 394.88,784.50 396.48,779.50" /><polyline points="398.56,779.50 398.56,784.50" /><polyline points="402.24,779.50 402.24,784.50" /><polyline points="405.92,779.50 405.92,784.50" /><polyline points="409.60,784.00 409.60,784.25" /><polyline points="411.68,784.50 411.68,779.50 413.28,782.25 414.88,779.50 414.88,784.50" /><polyline points="415.36,784.50 415.36,779.50 416.96,782.25 418.56,779.50 418.56,784.50" /><polyline points="419.04,779.50 422.24,784.50" /><polyline points="422.24,779.50 419.04,784.50" /><polyline points="422.72,779.50 425.92,784.50" /><polyline points="425.92,779.50 422.72,784.50" /><polyline points="426.40,779.50 428.00,784.50 429.60,779.50" /><polyline points="431.68,779.50 431.68,784.50" /></g><g id="02_Teal_Field" inkscape:groupmode="layer" inkscape:label="02_Teal_Field" stroke="#3A7A7A" fill="none" stroke-width="0.7" stroke-linecap="round" stroke-linejoin="round"><line x1="252.0" y1="321.0" x2="564.0" y2="321.0" /><line x1="252.0" y1="326.2" x2="564.0" y2="326.2" /><line x1="252.0" y1="331.4" x2="564.0" y2="331.4" /><line x1="252.0" y1="336.6" x2="564.0" y2="336.6" /><line x1="252.0" y1="341.8" x2="564.0" y2="341.8" /><line x1="252.0" y1="347.0" x2="564.0" y2="347.0" /><line x1="252.0" y1="352.2" x2="564.0" y2="352.2" /><line x1="252.0" y1="357.4" x2="564.0" y2="357.4" /><line x1="252.0" y1="362.6" x2="564.0" y2="362.6" /><line x1="252.0" y1="367.8" x2="564.0" y2="367.8" /><line x1="252.0" y1="373.0" x2="564.0" y2="373.0" /><line x1="252.0" y1="378.2" x2="564.0" y2="378.2" /><line x1="252.0" y1="383.4" x2="564.0" y2="383.4" /><line x1="252.0" y1="388.6" x2="564.0" y2="388.6" /><line x1="252.0" y1="393.8" x2="564.0" y2="393.8" /><line x1="252.0" y1="399.0" x2="564.0" y2="399.0" /><line x1="252.0" y1="404.2" x2="564.0" y2="404.2" /><line x1="252.0" y1="409.4" x2="564.0" y2="409.4" /><line x1="252.0" y1="414.6" x2="564.0" y2="414.6" /><line x1="252.0" y1="419.8" x2="564.0" y2="419.8" /><line x1="252.0" y1="425.0" x2="564.0" y2="425.0" /><line x1="252.0" y1="430.2" x2="564.0" y2="430.2" /><line x1="252.0" y1="435.4" x2="564.0" y2="435.4" /><line x1="252.0" y1="440.6" x2="564.0" y2="440.6" /><line x1="252.0" y1="445.8" x2="564.0" y2="445.8" /><line x1="252.0" y1="451.0" x2="564.0" y2="451.0" /><line x1="252.0" y1="456.2" x2="564.0" y2="456.2" /><line x1="252.0" y1="461.4" x2="564.0" y2="461.4" /><line x1="252.0" y1="466.6" x2="564.0" y2="466.6" /><line x1="252.0" y1="471.8" x2="564.0" y2="471.8" /><line x1="252.0" y1="477.0" x2="564.0" y2="477.0" /><line x1="252.0" y1="482.2" x2="564.0" y2="482.2" /><line x1="252.0" y1="487.4" x2="564.0" y2="487.4" /><line x1="252.0" y1="492.6" x2="564.0" y2="492.6" /><line x1="252.0" y1="497.8" x2="564.0" y2="497.8" /><line x1="252.0" y1="503.0" x2="564.0" y2="503.0" /><line x1="252.0" y1="508.2" x2="564.0" y2="508.2" /><line x1="252.0" y1="513.4" x2="564.0" y2="513.4" /><line x1="252.0" y1="518.6" x2="564.0" y2="518.6" /><line x1="252.0" y1="523.8" x2="564.0" y2="523.8" /><line x1="252.0" y1="529.0" x2="564.0" y2="529.0" /><line x1="252.0" y1="534.2" x2="564.0" y2="534.2" /><line x1="252.0" y1="539.4" x2="564.0" y2="539.4" /><line x1="252.0" y1="544.6" x2="564.0" y2="544.6" /><line x1="252.0" y1="549.8" x2="564.0" y2="549.8" /><line x1="252.0" y1="555.0" x2="564.0" y2="555.0" /><line x1="252.0" y1="560.2" x2="564.0" y2="560.2" /><line x1="252.0" y1="565.4" x2="564.0" y2="565.4" /><line x1="252.0" y1="570.6" x2="564.0" y2="570.6" /><line x1="252.0" y1="575.8" x2="564.0" y2="575.8" /><line x1="252.0" y1="581.0" x2="564.0" y2="581.0" /><line x1="252.0" y1="586.2" x2="564.0" y2="586.2" /><line x1="252.0" y1="591.4" x2="564.0" y2="591.4" /><line x1="252.0" y1="596.6" x2="564.0" y2="596.6" /><line x1="252.0" y1="601.8" x2="564.0" y2="601.8" /><line x1="252.0" y1="607.0" x2="564.0" y2="607.0" /><line x1="252.0" y1="612.2" x2="564.0" y2="612.2" /><line x1="252.0" y1="617.4" x2="564.0" y2="617.4" /><line x1="252.0" y1="622.6" x2="564.0" y2="622.6" /><line x1="252.0" y1="627.8" x2="564.0" y2="627.8" /><line x1="252.0" y1="633.0" x2="564.0" y2="633.0" /><line x1="252.0" y1="638.2" x2="564.0" y2="638.2" /><line x1="252.0" y1="643.4" x2="564.0" y2="643.4" /><line x1="252.0" y1="648.6" x2="564.0" y2="648.6" /><line x1="252.0" y1="653.8" x2="564.0" y2="653.8" /><line x1="252.0" y1="659.0" x2="564.0" y2="659.0" /><line x1="252.0" y1="664.2" x2="564.0" y2="664.2" /><line x1="252.0" y1="669.4" x2="564.0" y2="669.4" /><line x1="252.0" y1="674.6" x2="564.0" y2="674.6" /><line x1="252.0" y1="679.8" x2="564.0" y2="679.8" /><line x1="252.0" y1="685.0" x2="564.0" y2="685.0" /><line x1="252.0" y1="690.2" x2="564.0" y2="690.2" /><line x1="252.0" y1="695.4" x2="564.0" y2="695.4" /><line x1="252.0" y1="700.6" x2="564.0" y2="700.6" /><line x1="252.0" y1="705.8" x2="564.0" y2="705.8" /><line x1="252.0" y1="711.0" x2="564.0" y2="711.0" /><line x1="252.0" y1="716.2" x2="564.0" y2="716.2" /><line x1="252.0" y1="721.4" x2="564.0" y2="721.4" /></g><g id="03_Gold_Trace" inkscape:groupmode="layer" inkscape:label="03_Gold_Trace" stroke="#B8960C" fill="none" stroke-width="1.3" stroke-linecap="round" stroke-linejoin="round"><polyline points="252.0,524.8 252.5,524.8 253.0,524.8 253.6,524.8 254.1,524.8 254.6,524.8 255.1,524.8 255.6,524.8 256.2,524.8 256.7,524.8 257.2,524.8 257.7,524.8 258.2,524.8 258.8,524.8 259.3,524.8 259.8,524.8 260.3,524.8 260.8,524.8 261.4,524.8 261.9,524.8 262.4,524.8 262.9,524.8 263.4,524.8 264.0,524.8 264.5,524.8 265.0,524.8 265.5,524.8 266.0,524.8 266.6,524.8 267.1,524.8 267.6,524.8 268.1,524.8 268.6,524.8 269.2,524.8 269.7,524.8 270.2,524.8 270.7,524.8 271.2,524.8 271.8,524.8 272.3,524.8 272.8,524.8 273.3,524.8 273.8,524.8 274.4,524.8 274.9,524.8 275.4,524.8 275.9,524.8 276.4,524.8 277.0,524.8 277.5,524.8 278.0,524.8 278.5,524.8 279.0,524.8 279.6,524.8 280.1,524.8 280.6,524.8 281.1,524.8 281.6,524.8 282.2,524.8 282.7,524.8 283.2,524.8 283.7,524.8 284.2,524.8 284.8,524.8 285.3,524.8 285.8,524.8 286.3,524.8 286.8,524.8 287.4,524.8 287.9,524.8 288.4,524.8 288.9,524.8 289.4,524.8 290.0,524.8 290.5,524.8 291.0,524.8 291.5,524.8 292.0,524.8 292.6,524.8 293.1,524.8 293.6,524.8 294.1,524.8 294.6,524.8 295.2,524.8 295.7,524.8 296.2,524.8 296.7,524.8 297.2,524.8 297.8,524.8 298.3,524.8 298.8,524.8 299.3,524.8 299.8,524.8 300.4,524.8 300.9,524.8 301.4,524.8 301.9,524.8 302.4,524.8 303.0,524.8 303.5,524.8 304.0,524.8 304.5,524.8 305.0,524.8 305.6,524.8 306.1,524.8 306.6,524.8 307.1,524.8 307.6,524.8 308.2,524.8 308.7,524.8 309.2,524.8 309.7,524.8 310.2,524.8 310.8,524.8 311.3,524.8 311.8,524.8 312.3,524.8 312.8,524.8 313.4,524.8 313.9,524.8 314.4,524.8 314.9,524.8 315.4,524.8 316.0,524.8 316.5,524.8 317.0,524.8 317.5,524.8 318.0,524.8 318.6,524.8 319.1,524.8 319.6,524.8 320.1,524.8 320.6,524.8 321.2,524.8 321.7,524.8 322.2,524.8 322.7,524.8 323.2,524.9 323.8,524.9 324.3,525.0 324.8,525.1 325.3,525.1 325.8,525.2 326.4,525.2 326.9,525.3 327.4,525.3 327.9,525.2 328.4,525.1 329.0,525.0 329.5,524.8 330.0,524.5 330.5,524.2 331.0,523.9 331.6,523.6 332.1,523.3 332.6,523.1 333.1,523.0 333.6,522.9 334.2,523.0 334.7,523.2 335.2,523.5 335.7,524.0 336.2,524.5 336.8,525.2 337.3,525.8 337.8,526.5 338.3,527.0 338.8,527.5 339.4,527.8 339.9,527.9 340.4,527.9 340.9,527.6 341.4,527.0 342.0,526.4 342.5,525.6 343.0,524.8 343.5,524.0 344.0,523.3 344.6,522.7 345.1,522.5 345.6,522.5 346.1,522.8 346.6,523.4 347.2,524.3 347.7,525.4 348.2,526.6 348.7,527.8 349.2,528.8 349.8,529.6 350.3,530.0 350.8,530.0 351.3,529.5 351.8,528.4 352.4,526.8 352.9,524.7 353.4,522.3 353.9,519.7 354.4,517.1 355.0,514.6 355.5,512.6 356.0,511.0 356.5,510.1 357.0,510.0 357.6,510.6 358.1,512.1 358.6,514.4 359.1,517.3 359.6,520.7 360.2,524.4 360.7,528.2 361.2,531.8 361.7,535.2 362.2,538.0 362.8,540.3 363.3,541.8 363.8,542.6 364.3,542.7 364.8,542.1 365.4,541.0 365.9,539.5 366.4,537.7 366.9,535.8 367.4,533.9 368.0,532.1 368.5,530.5 369.0,529.1 369.5,527.9 370.0,526.9 370.6,526.0 371.1,525.1 371.6,524.1 372.1,523.0 372.6,521.6 373.2,519.8 373.7,517.8 374.2,515.4 374.7,512.8 375.2,510.0 375.8,507.1 376.3,504.4 376.8,501.9 377.3,499.7 377.8,498.2 378.4,497.3 378.9,497.2 379.4,498.0 379.9,499.7 380.4,502.2 381.0,505.5 381.5,509.6 382.0,514.4 382.5,519.6 383.0,525.1 383.6,530.8 384.1,536.5 384.6,542.0 385.1,547.2 385.6,551.9 386.2,556.0 386.7,559.4 387.2,562.0 387.7,563.8 388.2,564.7 388.8,564.8 389.3,563.9 389.8,562.2 390.3,559.7 390.8,556.4 391.4,552.4 391.9,547.7 392.4,542.5 392.9,536.9 393.4,530.9 394.0,524.8 394.5,518.6 395.0,512.4 395.5,506.4 396.0,500.8 396.6,495.6 397.1,491.0 397.6,487.1 398.1,484.0 398.6,481.7 399.2,480.4 399.7,480.0 400.2,480.5 400.7,482.1 401.2,484.5 401.8,487.8 402.3,492.0 402.8,496.8 403.3,502.2 403.8,508.0 404.4,514.2 404.9,520.6 405.4,527.0 405.9,533.2 406.4,539.3 407.0,545.0 407.5,550.2 408.0,554.8 408.5,558.7 409.0,561.8 409.6,564.2 410.1,565.7 410.6,566.4 411.1,566.2 411.6,565.1 412.2,563.3 412.7,560.7 413.2,557.5 413.7,553.6 414.2,549.2 414.8,544.5 415.3,539.3 415.8,534.0 416.3,528.6 416.8,523.2 417.4,517.8 417.9,512.7 418.4,507.9 418.9,503.5 419.4,499.6 420.0,496.2 420.5,493.5 421.0,491.4 421.5,490.1 422.0,489.5 422.6,489.6 423.1,490.5 423.6,492.2 424.1,494.5 424.6,497.6 425.2,501.2 425.7,505.3 426.2,509.8 426.7,514.7 427.2,519.7 427.8,524.8 428.3,529.9 428.8,534.7 429.3,539.3 429.8,543.4 430.4,547.0 430.9,549.9 431.4,552.2 431.9,553.6 432.4,554.2 433.0,554.0 433.5,553.0 434.0,551.1 434.5,548.6 435.0,545.4 435.6,541.7 436.1,537.6 436.6,533.2 437.1,528.6 437.6,524.1 438.2,519.8 438.7,515.8 439.2,512.2 439.7,509.2 440.2,506.9 440.8,505.2 441.3,504.3 441.8,504.2 442.3,504.8 442.8,506.2 443.4,508.2 443.9,510.7 444.4,513.6 444.9,516.9 445.4,520.2 446.0,523.7 446.5,527.0 447.0,530.0 447.5,532.7 448.0,534.9 448.6,536.6 449.1,537.7 449.6,538.2 450.1,538.0 450.6,537.3 451.2,536.1 451.7,534.3 452.2,532.2 452.7,529.9 453.2,527.4 453.8,524.9 454.3,522.4 454.8,520.1 455.3,518.1 455.8,516.5 456.4,515.3 456.9,514.6 457.4,514.4 457.9,514.6 458.4,515.3 459.0,516.4 459.5,517.9 460.0,519.6 460.5,521.6 461.0,523.6 461.6,525.6 462.1,527.6 462.6,529.4 463.1,530.9 463.6,532.1 464.2,533.0 464.7,533.5 465.2,533.7 465.7,533.4 466.2,532.8 466.8,531.9 467.3,530.8 467.8,529.4 468.3,527.9 468.8,526.3 469.4,524.8 469.9,523.3 470.4,521.9 470.9,520.7 471.4,519.7 472.0,519.0 472.5,518.5 473.0,518.3 473.5,518.4 474.0,518.7 474.6,519.3 475.1,520.0 475.6,520.9 476.1,521.9 476.6,522.9 477.2,524.0 477.7,525.0 478.2,525.9 478.7,526.7 479.2,527.4 479.8,528.0 480.3,528.3 480.8,528.6 481.3,528.6 481.8,528.5 482.4,528.2 482.9,527.9 483.4,527.4 483.9,526.9 484.4,526.3 485.0,525.8 485.5,525.2 486.0,524.7 486.5,524.2 487.0,523.8 487.6,523.5 488.1,523.2 488.6,523.0 489.1,523.0 489.6,523.0 490.2,523.1 490.7,523.2 491.2,523.4 491.7,523.6 492.2,523.9 492.8,524.1 493.3,524.4 493.8,524.6 494.3,524.9 494.8,525.1 495.4,525.2 495.9,525.4 496.4,525.5 496.9,525.5 497.4,525.5 498.0,525.5 498.5,525.5 499.0,525.4 499.5,525.3 500.0,525.2 500.6,525.1 501.1,525.0 501.6,524.9 502.1,524.8 502.6,524.8 503.2,524.7 503.7,524.6 504.2,524.6 504.7,524.6 505.2,524.5 505.8,524.5 506.3,524.6 506.8,524.6 507.3,524.6 507.8,524.6 508.4,524.7 508.9,524.7 509.4,524.7 509.9,524.8 510.4,524.8 511.0,524.8 511.5,524.8 512.0,524.9 512.5,524.9 513.0,524.9 513.6,524.9 514.1,524.9 514.6,524.9 515.1,524.9 515.6,524.9 516.2,524.8 516.7,524.8 517.2,524.8 517.7,524.8 518.2,524.8 518.8,524.8 519.3,524.8 519.8,524.8 520.3,524.8 520.8,524.8 521.4,524.8 521.9,524.8 522.4,524.8 522.9,524.8 523.4,524.8 524.0,524.8 524.5,524.8 525.0,524.8 525.5,524.8 526.0,524.8 526.6,524.8 527.1,524.8 527.6,524.8 528.1,524.8 528.6,524.8 529.2,524.8 529.7,524.8 530.2,524.8 530.7,524.8 531.2,524.8 531.8,524.8 532.3,524.8 532.8,524.8 533.3,524.8 533.8,524.8 534.4,524.8 534.9,524.8 535.4,524.8 535.9,524.8 536.4,524.8 537.0,524.8 537.5,524.8 538.0,524.8 538.5,524.8 539.0,524.8 539.6,524.8 540.1,524.8 540.6,524.8 541.1,524.8 541.6,524.8 542.2,524.8 542.7,524.8 543.2,524.8 543.7,524.8 544.2,524.8 544.8,524.8 545.3,524.8 545.8,524.8 546.3,524.8 546.8,524.8 547.4,524.8 547.9,524.8 548.4,524.8 548.9,524.8 549.4,524.8 550.0,524.8 550.5,524.8 551.0,524.8 551.5,524.8 552.0,524.8 552.6,524.8 553.1,524.8 553.6,524.8 554.1,524.8 554.6,524.8 555.2,524.8 555.7,524.8 556.2,524.8 556.7,524.8 557.2,524.8 557.8,524.8 558.3,524.8 558.8,524.8 559.3,524.8 559.8,524.8 560.4,524.8 560.9,524.8 561.4,524.8 561.9,524.8 562.4,524.8 563.0,524.8 563.5,524.8 564.0,524.8" /></g></svg>