<?xml version='1.0' encoding='utf-8'?>
<svg xmlns="http://www.w3.org/2000/svg" xmlns:inkscape="http://www.inkscape.org/namespaces/inkscape" viewBox="204 228 408 600"><style>*{vector-effect:non-scaling-stroke}</style><g id="01_Black_Frame" inkscape:groupmode="layer" inkscape:label="01_Black_Frame" stroke="#1A1A1A" fill="none" stroke-width="0.875" stroke-linecap="round" stroke-linejoin="round"><path d="M 250.0,264.0 L 566.0,264.0 Q 576.0,264.0 576.0,274.0 L 576.0,782.0 Q 576.0,792.0 566.0,792.0 L 250.0,792.0 Q 240.0,792.0 240.0,782.0 L 240.0,274.0 Q 240.0,264.0 250.0,264.0" /><path d="M 253.0,270.0 L 563.0,270.0 Q 570.0,270.0 570.0,277.0 L 570.0,779.0 Q 570.0,786.0 563.0,786.0 L 253.0,786.0 Q 246.0,786.0 246.0,779.0 L 246.0,277.0 Q 246.0,270.0 253.0,270.0" /><line x1="259.0" y1="280.0" x2="263.0" y2="280.0" /><line x1="258.1" y1="282.1" x2="260.9" y2="284.9" /><line x1="256.0" y1="283.0" x2="256.0" y2="287.0" /><line x1="253.9" y1="282.1" x2="251.1" y2="284.9" /><line x1="253.0" y1="280.0" x2="249.0" y2="280.0" /><line x1="253.9" y1="277.9" x2="251.1" y2="275.1" /><line x1="256.0" y1="277.0" x2="256.0" y2="273.0" /><line x1="258.1" y1="277.9" x2="260.9" y2="275.1" /><line x1="563.0" y1="280.0" x2="567.0" y2="280.0" /><line x1="562.1" y1="282.1" x2="564.9" y2="284.9" /><line x1="560.0" y1="283.0" x2="560.0" y2="287.0" /><line x1="557.9" y1="282.1" x2="555.1" y2="284.9" /><line x1="557.0" y1="280.0" x2="553.0" y2="280.0" /><line x1="557.9" y1="277.9" x2="555.1" y2="275.1" /><line x1="560.0" y1="277.0" x2="560.0" y2="273.0" /><line x1="562.1" y1="277.9" x2="564.9" y2="275.1" /><line x1="259.0" y1="776.0" x2="263.0" y2="776.0" /><line x1="258.1" y1="778.1" x2="260.9" y2="780.9" /><line x1="256.0" y1="779.0" x2="256.0" y2="783.0" /><line x1="253.9" y1="778.1" x2="251.1" y2="780.9" /><line x1="253.0" y1="776.0" x2="249.0" y2="776.0" /><line x1="253.9" y1="773.9" x2="251.1" y2="771.1" /><line x1="256.0" y1="773.0" x2="256.0" y2="769.0" /><line x1="258.1" y1="773.9" x2="260.9" y2="771.1" /><line x1="563.0" y1="776.0" x2="567.0" y2="776.0" /><line x1="562.1" y1="778.1" x2="564.9" y2="780.9" /><line x1="560.0" y1="779.0" x2="560.0" y2="783.0" /><line x1="557.9" y1="778.1" x2="555.1" y2="780.9" /><line x1="557.0" y1="776.0" x2="553.0" y2="776.0" /><line x1="557.9" y1="773.9" x2="555.1" y2="771.1" /><line x1="560.0" y1="773.0" x2="560.0" y2="769.0" /><line x1="562.1" y1="773.9" x2="564.9" y2="771.1" /><polyline points="398.12,283.20 396.38,282.00 395.38,282.00 393.62,283.60 393.62,288.40 395.38,290.00 396.38,290.00 398.12,288.80" /><polyline points="399.38,282.00 404.38,290.00" /><polyline points="404.38,282.00 399.38,290.00" /><polyline points="405.12,282.00 405.12,290.00 409.38,290.00" /><polyline points="413.38,282.00 413.38,290.00" /><polyline points="419.12,282.00 419.12,290.00" /><polyline points="370.62,297.00 377.12,297.00" /><polyline points="373.88,297.00 373.88,307.00" /><polyline points="378.10,297.00 378.10,307.00" /><polyline points="384.60,297.00 384.60,307.00" /><polyline points="378.10,301.80 384.60,301.80" /><polyline points="391.10,297.00 385.57,297.00 385.57,301.80 389.47,301.80" /><polyline points="385.57,301.80 385.57,307.00 391.10,307.00" /><polyline points="406.38,298.50 404.10,297.00 402.80,297.00 400.52,299.00 400.52,305.00 402.80,307.00 404.10,307.00 406.38,305.50" /><polyline points="408.00,307.00 411.25,297.00 414.50,307.00" /><polyline points="409.17,303.50 413.33,303.50" /><polyline points="421.00,298.00 419.38,297.00 417.43,297.00 415.80,298.50 415.48,300.00 416.45,301.20 418.73,302.00 421.00,302.80 421.98,304.00 421.65,305.50 420.03,307.00 417.75,307.00 416.12,306.00" /><polyline points="426.20,297.00 426.20,307.00" /><polyline points="430.43,307.00 430.43,297.00 436.93,307.00 436.93,297.00" /><polyline points="443.75,298.50 441.47,297.00 440.17,297.00 437.90,299.00 437.90,305.00 440.17,307.00 441.47,307.00 443.75,305.50 443.75,302.00 441.15,302.00" /><line x1="270.0" y1="312.0" x2="546.0" y2="312.0" /><line x1="270.0" y1="732.0" x2="546.0" y2="732.0" /><polyline points="357.88,740.75 357.88,745.25" /><polyline points="359.70,745.25 359.70,740.75 361.10,743.23 362.50,740.75 362.50,745.25" /><polyline points="362.92,745.25 362.92,740.75 364.32,743.23 365.72,740.75 365.72,745.25" /><polyline points="366.14,740.75 366.14,744.12 366.70,745.02 368.38,745.02 368.94,744.12 368.94,740.75" /><polyline points="369.36,745.25 369.36,740.75 372.16,745.25 372.16,740.75" /><polyline points="373.98,740.75 373.98,745.25" /><polyline points="375.80,740.75 378.60,740.75" /><polyline points="377.20,740.75 377.20,745.25" /><polyline points="379.02,740.75 380.42,743.00 381.82,740.75" /><polyline points="380.42,743.00 380.42,745.25" /><polyline points="391.20,741.42 390.22,740.75 389.66,740.75 388.68,741.65 388.68,744.35 389.66,745.25 390.22,745.25 391.20,744.58" /><polyline points="394.28,740.75 391.90,740.75 391.90,742.91 393.58,742.91" /><polyline points="391.90,742.91 391.90,745.25 394.28,745.25" /><polyline points="395.12,745.25 396.52,740.75 397.92,745.25" /><polyline points="395.62,743.67 397.42,743.67" /><polyline points="400.72,741.20 400.02,740.75 399.18,740.75 398.48,741.42 398.34,742.10 398.76,742.64 399.74,743.00 400.72,743.36 401.14,743.90 401.00,744.58 400.30,745.25 399.32,745.25 398.62,744.80" /><polyline points="403.94,740.75 401.56,740.75 401.56,742.91 403.24,742.91" /><polyline points="401.56,742.91 401.56,745.25 403.94,745.25" /><polyline points="407.16,740.75 404.78,740.75 404.78,742.91 406.46,742.91" /><polyline points="404.78,742.91 404.78,745.25" /><polyline points="409.40,740.75 409.40,745.25" /><polyline points="411.22,745.25 411.22,740.75 413.04,740.75 413.74,741.42 413.74,742.19 413.04,742.77 411.22,742.77 413.74,745.25" /><polyline points="416.82,740.75 414.44,740.75 414.44,742.91 416.12,742.91" /><polyline points="414.44,742.91 414.44,745.25 416.82,745.25" /><polyline points="424.10,745.25 424.10,740.75 425.64,740.75 426.62,741.88 426.62,744.12 425.64,745.25 424.10,745.25" /><polyline points="428.72,740.75 428.72,745.25" /><polyline points="432.92,741.20 432.22,740.75 431.38,740.75 430.68,741.42 430.54,742.10 430.96,742.64 431.94,743.00 432.92,743.36 433.34,743.90 433.20,744.58 432.50,745.25 431.52,745.25 430.82,744.80" /><polyline points="436.14,741.20 435.44,740.75 434.60,740.75 433.90,741.42 433.76,742.10 434.18,742.64 435.16,743.00 436.14,743.36 436.56,743.90 436.42,744.58 435.72,745.25 434.74,745.25 434.04,744.80" /><polyline points="438.38,740.75 437.26,741.20 436.98,742.10 436.98,743.90 437.26,744.80 438.38,745.25 439.50,744.80 439.78,743.90 439.78,742.10 439.50,741.20 438.38,740.75" /><polyline points="440.20,740.75 440.20,745.25 442.58,745.25" /><polyline points="443.42,740.75 443.42,744.12 443.98,745.02 445.66,745.02 446.22,744.12 446.22,740.75" /><polyline points="446.64,740.75 449.44,740.75" /><polyline points="448.04,740.75 448.04,745.25" /><polyline points="451.26,740.75 451.26,745.25" /><polyline points="454.48,740.75 453.36,741.20 453.08,742.10 453.08,743.90 453.36,744.80 454.48,745.25 455.60,744.80 455.88,743.90 455.88,742.10 455.60,741.20 454.48,740.75" /><polyline points="456.30,745.25 456.30,740.75 459.10,745.25 459.10,740.75" /><polyline points="336.12,753.25 341.12,753.25" /><polyline points="338.62,753.25 338.62,760.75" /><polyline points="341.88,753.25 341.88,760.75" /><polyline points="346.88,753.25 346.88,760.75" /><polyline points="341.88,756.85 346.88,756.85" /><polyline points="351.88,753.25 347.62,753.25 347.62,756.85 350.62,756.85" /><polyline points="347.62,756.85 347.62,760.75 351.88,760.75" /><polyline points="363.38,754.00 362.12,753.25 360.62,753.25 359.38,754.38 359.12,755.50 359.88,756.40 361.62,757.00 363.38,757.60 364.12,758.50 363.88,759.62 362.62,760.75 360.88,760.75 359.62,760.00" /><polyline points="364.88,753.25 364.88,760.75" /><polyline points="369.88,753.25 369.88,760.75" /><polyline points="364.88,756.85 369.88,756.85" /><polyline points="374.88,753.25 370.62,753.25 370.62,756.85 373.62,756.85" /><polyline points="370.62,756.85 370.62,760.75 374.88,760.75" /><polyline points="376.38,753.25 376.38,760.75 380.62,760.75" /><polyline points="382.12,753.25 382.12,760.75 386.38,760.75" /><polyline points="393.62,753.25 393.62,760.75" /><polyline points="398.62,753.25 398.62,760.75" /><polyline points="393.62,756.85 398.62,756.85" /><polyline points="401.88,753.25 399.88,754.00 399.38,755.50 399.38,758.50 399.88,760.00 401.88,760.75 403.88,760.00 404.38,758.50 404.38,755.50 403.88,754.00 401.88,753.25" /><polyline points="405.12,753.25 405.12,760.75 409.38,760.75" /><polyline points="410.88,760.75 410.88,753.25 413.62,753.25 415.38,755.12 415.38,758.88 413.62,760.75 410.88,760.75" /><polyline points="420.88,754.00 419.62,753.25 418.12,753.25 416.88,754.38 416.62,755.50 417.38,756.40 419.12,757.00 420.88,757.60 421.62,758.50 421.38,759.62 420.12,760.75 418.38,760.75 417.12,760.00" /><polyline points="430.62,753.25 430.62,760.75" /><polyline points="433.88,753.25 438.88,753.25" /><polyline points="436.38,753.25 436.38,760.75" /><polyline points="443.88,754.00 442.62,753.25 441.12,753.25 439.88,754.38 439.62,755.50 440.38,756.40 442.12,757.00 443.88,757.60 444.62,758.50 444.38,759.62 443.12,760.75 441.38,760.75 440.12,760.00" /><polyline points="455.38,754.00 454.12,753.25 452.62,753.25 451.38,754.38 451.12,755.50 451.88,756.40 453.62,757.00 455.38,757.60 456.12,758.50 455.88,759.62 454.62,760.75 452.88,760.75 451.62,760.00" /><polyline points="456.88,753.25 456.88,760.75" /><polyline points="461.88,753.25 461.88,760.75" /><polyline points="456.88,756.85 461.88,756.85" /><polyline points="462.62,760.75 465.12,753.25 467.62,760.75" /><polyline points="463.52,758.12 466.73,758.12" /><polyline points="468.38,760.75 468.38,753.25 471.62,753.25 472.88,754.38 472.88,755.65 471.62,756.62 468.38,756.62" /><polyline points="478.38,753.25 474.12,753.25 474.12,756.85 477.12,756.85" /><polyline points="474.12,756.85 474.12,760.75 478.38,760.75" /><polyline points="324.62,766.25 324.62,773.75 328.88,773.75" /><polyline points="332.88,766.25 330.88,767.00 330.38,768.50 330.38,771.50 330.88,773.00 332.88,773.75 334.88,773.00 335.38,771.50 335.38,768.50 334.88,767.00 332.88,766.25" /><polyline points="336.12,773.75 336.12,766.25 341.12,773.75 341.12,766.25" /><polyline points="346.38,767.38 344.62,766.25 343.62,766.25 341.88,767.75 341.88,772.25 343.62,773.75 344.62,773.75 346.38,772.62 346.38,770.00 344.38,770.00" /><polyline points="353.38,773.75 355.88,766.25 358.38,773.75" /><polyline points="354.27,771.12 357.48,771.12" /><polyline points="363.38,766.25 359.12,766.25 359.12,769.85 362.12,769.85" /><polyline points="359.12,769.85 359.12,773.75" /><polyline points="364.88,766.25 369.88,766.25" /><polyline points="367.38,766.25 367.38,773.75" /><polyline points="374.88,766.25 370.62,766.25 370.62,769.85 373.62,769.85" /><polyline points="370.62,769.85 370.62,773.75 374.88,773.75" /><polyline points="376.38,773.75 376.38,766.25 379.62,766.25 380.88,767.38 380.88,768.65 379.62,769.62 376.38,769.62 380.88,773.75" /><polyline points="387.88,766.25 392.88,766.25" /><polyline points="390.38,766.25 390.38,773.75" /><polyline points="393.62,766.25 393.62,773.75" /><polyline points="398.62,766.25 398.62,773.75" /><polyline points="393.62,769.85 398.62,769.85" /><polyline points="403.62,766.25 399.38,766.25 399.38,769.85 402.38,769.85" /><polyline points="399.38,769.85 399.38,773.75 403.62,773.75" /><polyline points="410.88,773.75 410.88,766.25 414.12,766.25 415.38,767.38 415.38,768.65 414.12,769.62 410.88,769.62 415.38,773.75" /><polyline points="419.12,766.25 417.12,767.00 416.62,768.50 416.62,771.50 417.12,773.00 419.12,773.75 421.12,773.00 421.62,771.50 421.62,768.50 421.12,767.00 419.12,766.25" /><polyline points="422.38,766.25 422.38,771.88 423.38,773.38 426.38,773.38 427.38,771.88 427.38,766.25" /><polyline points="428.12,773.75 428.12,766.25 433.12,773.75 433.12,766.25" /><polyline points="433.88,773.75 433.88,766.25 436.62,766.25 438.38,768.12 438.38,771.88 436.62,773.75 433.88,773.75" /><polyline points="447.88,766.25 447.88,773.75" /><polyline points="455.38,767.00 454.12,766.25 452.62,766.25 451.38,767.38 451.12,768.50 451.88,769.40 453.62,770.00 455.38,770.60 456.12,771.50 455.88,772.62 454.62,773.75 452.88,773.75 451.62,773.00" /><polyline points="466.88,767.00 465.62,766.25 464.12,766.25 462.88,767.38 462.62,768.50 463.38,769.40 465.12,770.00 466.88,770.60 467.62,771.50 467.38,772.62 466.12,773.75 464.38,773.75 463.12,773.00" /><polyline points="468.38,773.75 468.38,766.25 471.62,766.25 472.88,767.38 472.88,768.65 471.62,769.62 468.38,769.62" /><polyline points="478.38,766.25 474.12,766.25 474.12,769.85 477.12,769.85" /><polyline points="474.12,769.85 474.12,773.75 478.38,773.75" /><polyline points="479.88,773.75 479.88,766.25 484.88,773.75 484.88,766.25" /><polyline points="485.62,766.25 490.62,766.25" /><polyline points="488.12,766.25 488.12,773.75" /><polyline points="384.08,779.50 385.68,784.50 387.28,779.50" /><polyline points="389.36,784.00 389.36,784.25" /><polyline points="391.44,779.50 394.64,784.50" /><polyline points="394.64,779.50 391.44,784.50" /><polyline points="395.12,779.50 398.32,784.50" /><polyline points="398.32,779.50 395.12,784.50" /><polyline points="400.40,779.50 400.40,784.50" /><polyline points="404.08,779.50 404.08,784.50" /><polyline points="407.76,784.00 407.76,784.25" /><polyline points="409.84,784.50 409.84,779.50 411.44,782.25 413.04,779.50 413.04,784.50" /><polyline points="413.52,784.50 413.52,779.50 415.12,782.25 416.72,779.50 416.72,784.50" /><polyline points="417.20,779.50 420.40,784.50" /><polyline points="420.40,779.50 417.20,784.50" /><polyline points="420.88,779.50 424.08,784.50" /><polyline points="424.08,779.50 420.88,784.50" /><polyline points="424.56,779.50 426.16,784.50 427.76,779.50" /><polyline points="429.84,779.50 429.84,784.50" /></g><g id="02_Teal_Structure" inkscape:groupmode="layer" inkscape:label="02_Teal_Structure" stroke="#3A7A7A" fill="none" stroke-width="0.875" stroke-linecap="round" stroke-linejoin="round"><polyline points="551.52,516.88 550.97,532.53 549.34,548.05 546.63,563.34 542.86,578.28 538.07,592.75 532.29,606.64 525.56,619.85 517.94,632.27 509.48,643.82 500.25,654.40 490.32,663.93 479.76,672.35 468.65,679.58 457.09,685.57 445.15,690.28 432.92,693.67 420.51,695.72 408.00,696.40 395.49,695.72 383.08,693.67 370.85,690.28 358.91,685.57 347.35,679.58 336.24,672.35 325.68,663.93 315.75,654.40 306.52,643.82 298.06,632.27 290.44,619.85 283.71,606.64 277.93,592.75 273.14,578.28 269.37,563.34 266.66,548.05 265.03,532.53 264.48,516.88 265.03,501.23 266.66,485.71 269.37,470.42 273.14,455.48 277.93,441.01 283.71,427.12 290.44,413.91 298.06,401.49 306.52,389.94 315.75,379.36 325.68,369.83 336.24,361.41 347.35,354.18 358.91,348.19 370.85,343.48 383.08,340.09 395.49,338.04 408.00,337.36 420.51,338.04 432.92,340.09 445.15,343.48 457.09,348.19 468.65,354.18 479.76,361.41 490.32,369.83 500.25,379.36 509.48,389.94 517.94,401.49 525.56,413.91 532.29,427.12 538.07,441.01 542.86,455.48 546.63,470.42 549.34,485.71 550.97,501.23 551.52,516.88" /><polyline points="547.68,516.88 547.20,532.11 545.60,547.22 542.85,562.10 539.22,576.64 534.63,590.72 528.96,604.21 522.34,617.10 515.00,629.20 506.70,640.38 497.78,650.62 488.17,659.95 477.85,668.17 467.01,675.25 455.74,681.02 444.13,685.59 432.26,688.93 420.18,690.86 408.00,691.56 395.83,690.85 383.75,688.99 371.86,685.62 360.23,681.04 348.97,675.29 338.16,668.10 327.92,660.06 318.21,650.68 309.33,640.42 300.93,629.12 293.52,617.08 287.07,604.22 281.38,590.71 276.81,576.60 273.11,562.09 270.42,547.22 268.88,532.10 268.38,516.88 268.87,501.66 270.44,486.54 273.11,471.66 276.71,457.13 281.40,443.03 287.08,429.48 293.57,416.69 301.03,404.63 309.27,393.39 318.19,383.04 327.88,373.83 338.20,365.60 348.96,358.44 360.25,352.63 371.85,348.19 383.75,344.75 395.83,342.84 408.00,342.20 420.18,342.90 432.27,344.84 444.13,348.23 455.73,352.70 467.03,358.53 477.88,365.65 488.07,373.78 497.81,383.04 506.71,393.37 514.94,404.54 522.34,416.70 529.04,429.54 534.59,443.04 539.14,457.15 542.95,471.67 545.48,486.52 547.13,501.65 547.57,516.88" /><polyline points="543.96,516.88 543.39,531.68 541.65,546.37 539.08,560.85 535.80,575.04 531.18,588.65 525.51,601.79 519.22,614.37 512.02,626.08 504.05,636.94 495.24,646.97 485.90,656.02 475.91,663.93 465.38,670.87 454.41,676.37 443.15,680.97 431.59,684.14 419.84,686.06 408.00,686.73 396.16,686.07 384.39,684.18 372.88,680.75 361.49,676.64 350.63,670.78 340.14,664.06 330.14,656.01 320.71,646.96 312.00,636.97 303.88,626.08 296.74,614.32 290.28,601.76 285.04,588.67 280.45,575.02 276.86,560.86 274.25,546.35 272.78,531.69 272.25,516.88 272.71,502.08 274.21,487.37 276.97,472.88 280.38,458.79 284.90,445.06 290.48,432.00 296.80,419.46" /><polyline points="311.95,396.75 320.77,386.77 330.06,377.70 340.09,369.96 350.58,363.00 361.55,357.30 372.87,352.64 384.45,349.43 396.16,347.80 408.00,347.05 419.84,347.61 431.57,349.68 443.14,352.79 454.49,357.18 465.37,362.93 475.81,369.85 485.86,377.59 495.25,386.79 504.05,396.77 512.11,407.65 519.20,419.42 525.73,431.97 530.90,445.07 535.77,458.84 539.08,472.94 541.70,487.38 543.18,502.07 543.80,516.88" /><polyline points="539.91,516.88 539.39,531.25 537.87,545.49 535.60,559.61 532.06,573.37 527.57,586.58 522.19,599.35 516.03,611.47 509.06,622.87 501.37,633.67 492.86,643.52 483.82,652.29 474.13,659.85 463.70,666.44 453.11,671.92 442.15,676.22 430.91,679.65 419.51,681.38 408.00,681.90 396.51,681.40 385.07,679.49 373.71,676.17 362.83,671.85 352.18,666.72 342.01,659.70 332.18,652.31 323.11,643.15 314.69,633.44 306.79,622.77 299.70,611.63 293.86,599.57 288.62,586.66 284.30,573.23" /><polyline points="278.19,545.52 276.50,531.23 275.94,516.88 276.66,502.48 277.96,488.18 280.34,474.17 284.12,460.38 288.25,447.08 293.61,434.36 299.83,422.33 306.88,410.72 314.64,400.23 323.10,390.67 332.17,381.89 341.97,373.94 352.34,367.41 362.79,362.04 373.87,357.44 385.12,354.59 396.48,352.15 408.00,352.10 419.50,352.33 430.92,354.28 442.11,357.30 453.09,361.54 463.82,367.28 473.92,373.85 483.70,381.92 492.75,390.19 501.26,400.15 509.20,410.75 516.06,422.08 522.04,434.44 527.33,447.10 531.84,460.43 535.54,474.14 537.90,488.20 539.27,502.48 539.85,516.88" /><polyline points="536.34,516.88 535.74,530.83 534.28,544.79 531.21,558.39 528.49,571.69 524.17,584.65 518.81,597.00 512.83,608.88 506.32,619.86 498.54,630.54 490.27,639.73 481.40,648.04 472.23,655.98 462.18,661.84 451.83,667.62 441.15,671.68 430.29,674.82 419.18,676.52" /><polyline points="396.84,676.84 385.78,674.54 374.82,671.62" /><polyline points="353.90,662.24 343.96,655.49 334.68,648.00 325.68,639.45 317.43,630.43 309.94,619.94 302.86,608.74 297.05,596.97 291.70,584.59 287.67,571.65 284.38,558.48 281.90,544.68 280.56,530.85 280.11,516.88 280.51,502.91 281.97,489.07 284.61,475.37 287.57,462.06 291.69,449.17 297.20,436.89 303.10,425.07 309.96,413.76 317.27,403.75 325.81,394.33 334.52,385.88 344.02,378.33 353.88,371.65 364.13,366.29 374.85,361.86 385.77,359.22 396.84,357.34 408.00,356.83 419.17,357.60 430.26,359.25 441.14,362.00 451.81,366.20 462.19,371.70 472.19,378.42 481.55,385.61 490.24,394.01 498.47,403.55 506.34,414.09 512.51,424.77 519.00,436.56 524.07,449.05 528.08,461.94 531.80,475.37 533.97,489.06 535.33,502.91 536.49,516.88" /><polyline points="532.34,516.88 531.90,530.41 530.26,543.93 528.14,557.04 525.05,570.10 520.58,582.57 515.43,594.84 509.70,606.13 503.48,616.83 495.68,626.71 487.88,636.20 479.09,644.26 470.01,651.75 460.70,658.13 450.59,662.89 440.12,666.95" /><polyline points="418.83,672.01 408.00,672.13 397.20,671.68 386.42,669.62 375.82,666.96 365.43,663.09 355.38,657.90 345.83,651.36 336.70,644.56 328.12,635.69 320.56,626.55 312.96,616.96 306.33,605.83 300.40,594.53 295.58,582.66 291.30,570.02 287.97,557.16 285.54,543.87 283.86,530.41 284.13,516.88 283.86,503.31 285.71,489.91 288.03,476.73 291.72,463.79 295.34,451.20 300.59,439.23 306.22,427.73 313.10,417.03 320.38,406.75 328.15,397.60 336.70,389.36 345.54,381.99 355.64,375.58 365.53,370.81 375.97,366.70 386.43,363.77 397.17,362.01 408.00,361.72 418.84,361.46 429.52,364.06 440.20,366.57 450.48,370.95 460.39,376.30 469.91,382.94 479.04,389.38 487.63,397.76 495.68,407.05 503.25,416.95 509.79,427.69 515.62,439.30 520.73,451.09 524.66,463.66 528.41,476.73 530.57,489.94 531.81,503.33 532.52,516.88" /><polyline points="528.95,516.88 528.05,530.01 526.47,543.08 524.40,555.98" /><polyline points="506.92,603.13 500.48,613.83 493.55,623.39 485.50,631.84" /><polyline points="467.85,647.31 458.86,653.14 449.26,658.47 439.13,662.74 428.84,665.40 418.46,667.37 408.00,667.21 397.48,666.32 386.98,665.17" /><polyline points="366.88,658.44 357.18,653.13 347.79,647.02 338.96,639.96" /><polyline points="323.02,623.52 315.84,613.77 309.11,603.37 303.49,591.95 298.74,580.62 294.99,568.15 291.91,555.87 289.59,543.03 287.81,530.03 287.70,516.88 288.11,503.73 289.41,490.65 291.83,477.99 294.68,465.20 298.92,453.30 303.47,441.73 309.37,430.48 315.92,419.99 322.63,409.92 330.54,401.49 339.27,393.64 348.00,386.47 357.18,380.47 366.81,375.34 376.71,370.68 387.08,368.83 397.53,367.00 408.00,366.43 418.49,367.07 428.85,368.33 439.13,371.57 449.11,375.70 458.81,380.34 468.16,386.16 476.92,393.16 485.54,401.27 493.50,410.53 500.26,419.79 506.56,430.15 512.39,441.49 517.29,453.27 521.06,465.22 524.12,477.82 526.78,490.76 528.16,503.72 528.85,516.88" /><polyline points="524.25,516.88 523.94,529.52 523.04,542.15 520.44,554.59 517.67,566.81 513.75,578.54" /><polyline points="503.30,600.65 497.37,610.17 490.31,619.89 482.98,628.60 474.85,636.51 466.55,643.54 457.18,648.92 447.75,653.60 438.10,657.56 428.21,659.98 418.14,662.74 408.00,663.03 397.86,662.08 387.90,660.19 377.92,658.13 368.13,653.84 358.99,649.22 349.42,642.94 341.26,636.55 332.87,628.63 325.96,619.96 319.04,610.63 312.78,600.42 307.23,589.79 302.71,578.63 298.82,566.79 295.61,554.71 293.39,542.21 291.83,529.67 291.57,516.88 291.98,504.17 293.99,491.60 295.43,479.25 298.68,467.24 302.27,455.15" /><polyline points="312.92,433.15 319.15,423.24 325.82,413.99 333.25,405.09 340.93,397.33 349.74,390.45 358.70,385.07 367.97,380.00" /><polyline points="387.78,373.66 397.90,371.61" /><polyline points="418.18,370.81 428.09,373.13 438.29,375.71 448.05,379.91 457.31,385.29 466.25,390.17 475.06,397.20 482.87,405.00 490.65,413.72 496.87,423.60 503.65,433.20" /><polyline points="514.30,455.22 518.04,467.17 520.59,478.99 522.97,491.54 524.49,504.23 524.79,516.88" /><polyline points="520.66,516.88 520.93,529.12" /><polyline points="516.16,553.45 513.90,564.97 510.14,576.41 505.09,587.16 500.92,597.29 493.85,607.35 488.12,616.50 480.67,624.39 472.45,632.33 464.33,638.40 455.41,644.50 446.70,648.85 437.08,652.12 427.48,655.68 417.80,656.94 408.00,658.00 398.17,657.13 388.39,655.68 378.95,653.01 369.32,649.55 360.37,644.42 351.62,639.35 343.41,632.65 335.51,625.05 328.43,616.61 321.59,607.63 315.96,597.63" /><polyline points="305.44,576.53 302.26,564.87 299.24,553.50" /><polyline points="295.25,529.09 295.65,516.88 295.67,504.64 296.59,492.41 299.30,480.26 301.98,468.89 306.00,457.46 310.37,446.12 315.94,435.92 321.57,426.34 328.32,417.27 335.61,409.15 343.25,401.59 351.73,394.86 360.45,389.32 369.59,384.19 378.83,380.69 388.38,378.08 398.23,376.63 408.00,375.92 417.85,376.40 427.40,378.16 437.16,380.70 446.57,383.79 455.70,389.21 463.88,394.34 472.34,401.50 480.18,408.44 487.58,417.27 494.26,426.16 500.78,436.24 505.99,446.37 509.98,457.51 513.40,468.92 516.98,480.34 519.15,492.37 519.41,504.66 520.62,516.88" /><polyline points="516.35,516.88 515.41,528.75 515.22,540.53 513.41,552.20 510.64,563.36 506.33,574.45 502.44,585.04 496.44,595.33 490.94,604.39 485.50,613.30 478.10,620.99 470.39,628.83 462.76,634.64 454.10,640.41 445.40,644.85 436.02,647.37 426.85,651.13 417.45,652.35 408.00,653.29 398.48,652.02 389.07,650.45" /><polyline points="370.43,645.44 361.96,640.09 353.48,634.63 345.87,628.90 337.63,621.07 330.72,612.68 325.26,604.21 318.92,595.18 314.26,585.21 309.71,574.31 306.49,563.47 303.46,552.03 300.88,540.49 299.26,528.72 299.49,516.88 299.95,505.02 301.10,493.34" /><polyline points="306.12,470.40 308.49,459.39 314.97,448.71 319.15,438.73 324.93,428.16 331.06,420.43 338.07,412.29 345.58,404.81 353.56,399.04" /><polyline points="370.93,388.73 379.80,384.85 389.10,383.41 398.49,380.24 408.00,380.80 417.57,381.03 426.88,382.95 436.29,385.02 445.15,389.41 454.20,393.30 462.34,398.75 470.15,405.36 477.57,412.57" /><polyline points="491.60,429.58 496.89,438.81 502.02,448.95 506.45,459.40 509.90,470.32" /><polyline points="515.43,493.26 516.03,505.11 516.96,516.88" /><polyline points="512.53,516.88 512.37,528.33 511.43,539.78 510.12,550.87 506.45,561.71 503.75,572.24" /><polyline points="493.84,592.32 488.42,601.12 482.10,610.17 475.55,617.16 468.27,624.47 460.70,630.16 452.31,636.31 444.16,641.39 435.15,643.98 426.21,645.88 417.08,648.22 408.00,648.20 398.92,648.09" /><polyline points="363.56,636.87 355.46,629.87 348.09,624.87 340.53,617.78 333.30,609.16 327.93,601.35 322.14,592.02 317.11,582.53" /><polyline points="309.21,561.91 306.78,550.89 305.04,539.55 302.51,528.29 302.84,516.88 303.79,505.43 305.68,494.06 307.02,482.78 309.46,471.99 313.26,461.31 316.67,451.53 321.62,441.69" /><polyline points="333.97,423.80 340.19,416.51 347.84,409.63 355.64,402.48 363.87,398.00" /><polyline points="381.03,390.88 389.68,386.82 398.83,385.88 408.00,386.62 417.22,385.54 426.15,387.43 435.32,389.45 443.79,392.88 452.10,397.83 460.67,403.27" /><polyline points="475.34,416.11 482.09,424.28 488.48,432.44 493.93,441.15 499.10,451.35 503.52,461.34 507.29,472.04 509.18,482.95 510.48,494.00 512.12,505.43 512.36,516.88" /><polyline points="509.34,516.88 507.06,527.82 507.95,538.78 506.28,549.67 502.93,560.02 498.81,570.19 494.87,580.22 490.42,589.60 485.65,597.88 479.64,606.30 473.06,614.06 466.07,620.50 459.05,626.74 450.93,631.60 442.55,635.47 434.16,638.56 425.50,640.41 416.86,643.05 408.00,643.68 399.14,642.59 390.49,641.93 381.77,638.55 373.53,635.10 364.79,631.75 357.59,626.42 350.07,620.23 343.35,614.26 337.27,607.27" /><polyline points="325.11,589.26 319.66,580.04 316.39,570.56" /><polyline points="309.38,538.99 307.59,527.99 306.77,516.88 307.15,505.87 308.76,494.82 310.62,484.18 313.36,473.65 317.44,463.25 320.37,453.54 325.53,444.62 330.97,435.91 336.61,427.39 343.24,419.36" /><polyline points="357.99,407.49 364.96,402.39 373.32,397.91 382.01,395.31 390.37,392.47 399.10,390.12 408.00,389.90 416.83,390.18 425.59,392.91 434.21,394.82 442.71,398.84" /><polyline points="458.63,407.40 466.43,413.10 473.21,419.92 479.57,427.61 485.99,435.87 491.31,444.54 495.29,453.53 499.44,463.14 503.39,473.51 505.15,484.14 507.10,494.81 508.24,505.90 509.61,516.88" /><polyline points="504.65,516.88 504.32,527.51 504.63,538.17 502.66,548.43 499.93,558.75 495.07,567.87 492.13,577.74 487.65,586.97 483.02,595.06 476.97,602.81 470.75,609.30 463.48,615.32 456.58,622.68 449.29,627.94 441.56,630.84 433.08,633.76 425.02,637.96 416.42,638.76 408.00,639.33 399.57,638.02" /><polyline points="382.91,633.93 374.52,631.40 366.78,626.78 359.06,622.00 352.05,616.66 345.34,609.43 339.56,603.25 333.58,595.82 328.20,586.58 323.84,577.82 319.96,567.85 316.88,558.68 314.45,548.28 312.16,538.04 310.80,527.49 311.48,516.88 310.66,506.26 312.50,495.71 312.65,485.21 316.30,475.06 320.08,465.34 323.72,456.10 328.15,447.56 334.09,439.32 339.03,431.61 345.40,423.74 352.57,417.40 359.63,412.21 366.96,406.87 374.37,402.10 382.99,399.49 391.11,396.02 399.50,395.30 408.00,395.45 416.43,394.63 424.92,396.49 433.10,398.97 441.44,402.77 449.25,407.16 456.88,410.65 463.18,417.20 471.15,423.74 476.09,430.24 482.69,438.21 487.90,447.06 492.30,455.80" /><polyline points="499.72,475.33 502.09,485.15 503.33,495.68 505.20,506.23 504.72,516.88" /><polyline points="501.70,516.88 500.80,527.09 499.94,537.24 498.17,547.21 495.83,556.90 493.06,566.53 489.33,575.64 484.71,583.85 480.26,592.19 473.66,599.43 468.33,606.03 461.26,612.24" /><polyline points="447.45,623.62 439.96,627.27 432.28,630.05 424.22,631.88 416.16,633.43 408.00,632.66 399.90,633.43 391.70,632.62 384.08,629.97 375.84,626.36 368.80,622.76 361.42,617.98" /><polyline points="347.16,606.08 341.89,598.57 336.64,591.75 331.60,583.99 327.56,574.47 323.93,565.74 320.18,557.30 317.58,547.20 314.34,537.25 315.22,527.01 315.13,516.88 315.44,506.63 315.02,496.52 316.52,486.96 319.07,476.53 324.68,467.69 327.56,458.26 332.00,449.61 335.84,441.73" /><polyline points="347.63,428.13 354.70,421.91 361.06,415.56 368.95,410.76 376.25,406.13 383.93,404.66 391.76,400.90 399.82,399.90 408.00,399.99 416.24,401.32 424.34,401.12 432.53,404.31 439.75,407.02" /><polyline points="454.47,415.86 461.31,420.85 468.24,427.45" /><polyline points="479.17,441.56 484.42,449.83 489.58,458.95 492.64,466.61 495.72,477.04 498.77,486.56 499.60,496.78 501.79,506.70 502.45,516.88" /><polyline points="496.94,516.88 497.34,526.53 495.65,536.44 494.95,545.87 491.41,555.32 489.50,563.85 485.71,572.68" /><polyline points="477.47,589.31 471.52,596.01" /><polyline points="459.36,608.79 452.65,613.68 445.55,618.93 438.72,621.37" /><polyline points="415.81,627.22 408.00,629.40" /><polyline points="392.49,627.86 384.63,625.96 377.52,621.96 370.17,618.22 363.36,613.97 356.93,608.07" /><polyline points="338.62,588.55 334.90,581.14" /><polyline points="325.95,564.39 324.26,554.69 320.95,545.79 319.24,536.45 318.66,526.56 317.41,516.88 320.08,507.04 319.58,497.42 322.00,487.75 323.19,478.94 326.81,469.47 330.29,460.50 334.59,452.71 339.23,444.78 345.15,436.24" /><polyline points="356.90,426.48 363.29,418.81 370.17,414.91 377.20,411.57 384.53,409.18 392.20,408.05 400.24,404.76 408.00,405.63" /><polyline points="438.36,411.89 446.02,414.36 452.56,419.50 459.28,424.70 465.68,430.88" /><polyline points="476.50,444.81 481.42,452.06 485.00,460.98 489.32,469.14" /><polyline points="495.38,487.93 496.46,497.32" /><polyline points="494.19,526.28 492.50,535.45 491.41,544.60 489.16,553.67 486.42,561.96 481.79,570.23" /><polyline points="473.18,585.72 469.13,592.60" /><polyline points="457.91,604.32 451.53,610.10 444.68,612.98 437.50,618.04 430.26,619.63 422.75,622.29" /><polyline points="400.49,623.97 393.22,622.48 385.70,622.48 378.95,617.57 371.14,613.39 364.79,610.53 359.12,605.18 352.97,598.61 347.29,592.68" /><polyline points="337.80,578.74 334.56,569.96" /><polyline points="327.86,553.11 324.97,544.39 323.07,535.53 323.03,526.31 321.16,516.88 322.92,507.53 323.03,498.29 325.98,489.17 326.12,480.24 329.68,471.35 333.36,463.40 337.31,454.90 341.51,448.40 346.17,441.04 353.43,434.09 358.83,428.97 365.07,423.42 372.31,419.78" /><polyline points="385.58,412.23 393.34,411.39 400.60,410.74 408.00,409.71 415.45,410.04 423.19,412.85 430.87,413.11 437.49,416.12 443.80,421.21 451.04,423.29 457.67,430.24 462.67,434.64" /><polyline points="473.51,447.91 477.80,455.33 482.34,463.36" /><polyline points="488.51,480.52 491.44,489.30 491.91,498.15 492.84,507.57 493.84,516.88" /><polyline points="489.88,516.88 489.03,525.81 488.89,534.74" /><polyline points="485.39,551.89 483.27,559.86 478.68,567.27 475.70,575.36 470.80,583.26 465.21,588.34 460.10,594.94 454.88,600.92" /><polyline points="442.63,610.21 436.24,612.82 429.30,615.57 422.33,616.78 415.13,617.25 408.00,617.87 400.91,620.01 393.83,618.54 386.66,614.90 380.02,612.48 373.81,610.17 366.66,606.72 361.01,601.21 354.93,595.85" /><polyline points="344.89,583.04 340.47,575.74 337.12,568.03" /><polyline points="331.12,551.83 329.31,543.51 326.45,534.76 326.65,525.79 324.77,516.88 327.03,507.91 328.10,499.05 328.38,490.09 331.86,482.13 333.19,473.31 337.28,465.00 340.45,458.41 346.75,450.62 349.81,444.39" /><polyline points="360.74,433.12 366.87,428.36 373.43,425.72 380.10,419.45 386.98,417.17 393.61,416.54" /><polyline points="422.29,417.19 428.97,419.05 436.44,420.22" /><polyline points="460.94,439.72 465.53,445.04 470.19,451.01 476.07,458.23 478.44,465.81 482.44,472.80" /><polyline points="486.34,516.88 485.93,525.35 486.61,533.86 483.46,542.02" /><polyline points="479.80,558.36 475.14,565.68" /><polyline points="468.16,578.94 464.05,586.75 458.45,589.93 453.01,595.54 446.59,600.16" /><polyline points="434.40,609.17 428.30,610.17" /><polyline points="414.70,615.13 408.00,614.79" /><polyline points="368.95,600.70 363.42,595.91 357.35,592.51 351.96,586.19 348.17,580.16 343.69,573.01 340.86,565.90 337.03,557.63 333.61,549.84" /><polyline points="330.67,516.88 331.14,508.39 331.11,499.90 332.37,491.29 332.35,483.69 337.50,475.78 340.14,468.54" /><polyline points="353.79,448.01 357.48,442.12 362.71,436.42 369.26,432.44 374.35,427.96 381.30,425.93 387.78,421.03" /><polyline points="401.08,420.70 408.00,419.74 414.78,419.02 421.30,419.87 428.03,422.56" /><polyline points="441.29,430.07 446.94,431.95" /><polyline points="459.27,442.32 463.07,447.67 467.99,453.98" /><polyline points="484.95,499.83 485.93,508.43 485.74,516.88" /><polyline points="480.59,540.60 479.88,548.43 476.22,555.77 471.82,562.62 468.08,569.70" /><polyline points="460.46,582.75 454.54,586.93" /><polyline points="414.41,607.85 408.00,609.06 401.52,608.68 394.85,608.14 388.64,605.28 383.11,603.49 376.94,601.90 370.44,596.85" /><polyline points="360.25,587.11 354.95,581.77" /><polyline points="342.36,556.24 338.91,548.31 334.99,540.67" /><polyline points="332.86,508.72 333.96,500.83 337.18,493.12 338.24,485.52 343.12,477.92" /><polyline points="346.89,463.96 351.02,457.10" /><polyline points="370.15,436.24 376.66,432.03 383.04,431.00 388.37,428.60 394.95,425.55 401.55,424.24 408.00,424.66 414.46,425.38 420.91,426.15 426.97,428.44 433.01,430.46" /><polyline points="450.79,440.78 455.90,445.83 461.15,451.68 465.95,457.10 468.24,464.16 472.10,470.64 474.26,478.23" /><polyline points="478.06,492.77 482.62,500.97 481.71,508.79 482.35,516.88" /><polyline points="471.78,547.32 471.79,553.91 469.37,560.96" /><polyline points="463.18,573.27 458.19,578.09 454.55,583.92 448.08,588.77 442.71,593.82 437.16,596.94 431.77,601.26" /><polyline points="419.99,604.26 414.17,606.24 408.00,604.44 402.16,606.52" /><polyline points="389.36,601.82 383.99,600.95" /><polyline points="359.38,579.75 355.23,572.71 349.69,567.13" /><polyline points="343.79,553.96 341.82,546.96 339.99,539.47 339.08,532.49 335.82,524.52 337.72,516.88 339.35,509.30 339.39,501.02 342.48,493.89 342.73,486.70 342.24,478.99" /><polyline points="350.57,466.99 354.66,460.10 358.61,454.63 362.41,450.00 367.57,445.91" /><polyline points="377.33,438.31 384.61,434.30 389.43,432.94 395.87,430.14 401.86,430.42" /><polyline points="443.71,440.57 448.17,444.69 452.68,447.89 457.54,454.91 460.98,460.17 465.77,465.36" /><polyline points="472.45,486.93 475.35,494.22 475.73,501.89" /><polyline points="554.02,516.88 553.46,532.74 551.80,548.49 549.04,563.99 545.21,579.13 540.34,593.80 534.46,607.89 527.61,621.28 519.86,633.88 511.25,645.59 501.86,656.32 491.75,665.98 481.01,674.51 469.71,681.85 457.94,687.92 445.79,692.70 433.36,696.13 420.73,698.21 408.00,698.90 395.27,698.21 382.64,696.13 370.21,692.70 358.06,687.92 346.29,681.85 334.99,674.51 324.25,665.98 314.14,656.32 304.75,645.59 296.14,633.88 288.39,621.28 281.54,607.89 275.66,593.80 270.79,579.13 266.96,563.99 264.20,548.49 262.54,532.74 261.98,516.88 262.54,501.02 264.20,485.27 266.96,469.77 270.79,454.63 275.66,439.96 281.54,425.87 288.39,412.48 296.14,399.88 304.75,388.17 314.14,377.44 324.25,367.78 334.99,359.25 346.29,351.91 358.06,345.84 370.21,341.06 382.64,337.63 395.27,335.55 408.00,334.86 420.73,335.55 433.36,337.63 445.79,341.06 457.94,345.84 469.71,351.91 481.01,359.25 491.75,367.78 501.86,377.44 511.25,388.17 519.86,399.88 527.61,412.48 534.46,425.87 540.34,439.96 545.21,454.63 549.04,469.77 551.80,485.27 553.46,501.02 554.02,516.88" /></g><g id="03_Gold_Interior" inkscape:groupmode="layer" inkscape:label="03_Gold_Interior" stroke="#B8960C" fill="none" stroke-width="0.7" stroke-linecap="round" stroke-linejoin="round"><polyline points="474.25,524.16 473.94,531.19" /><polyline points="471.47,545.40 468.18,551.35 465.04,559.00" /><polyline points="445.77,583.73 441.49,587.23 435.85,591.45" /><polyline points="413.64,598.41 408.00,599.34" /><polyline points="396.19,597.69 390.84,597.49" /><polyline points="374.68,591.48 370.91,584.50 365.43,580.19 362.22,576.14 356.06,569.50" /><polyline points="346.38,545.85 345.28,538.05 342.74,531.37 343.84,524.25 341.09,516.88 342.18,509.75 340.52,502.40 344.09,495.55 344.49,488.36 348.02,481.88" /><polyline points="379.28,439.39 385.35,438.42" /><polyline points="402.27,434.74 408.00,435.57 413.92,435.73 419.43,435.41 425.06,435.33 430.69,440.47 435.84,441.03 440.30,445.05" /><polyline points="450.24,454.60 454.64,458.82" /><polyline points="465.75,474.98 467.57,482.29 470.92,489.07 472.74,495.58 472.31,502.33 474.17,509.68 475.88,516.88" /><polyline points="470.87,516.88 471.32,523.73 469.63,530.90" /><polyline points="463.03,556.29 458.15,561.41 454.70,567.10 451.75,572.99 448.72,576.20 443.85,580.96 439.09,582.63 434.36,587.85 429.69,591.67" /><polyline points="408.00,595.92 402.59,594.37 397.12,592.83 391.96,591.68 386.18,589.99" /><polyline points="377.07,583.77 371.71,579.32" /><polyline points="362.60,572.29 360.69,567.12 356.97,562.07" /><polyline points="345.14,537.22 346.89,530.63 344.54,523.85" /><polyline points="346.50,510.04 345.13,503.34 346.54,496.28 347.08,489.94" /><polyline points="352.93,476.94 355.39,472.15" /><polyline points="362.77,460.96 366.90,457.09 371.57,452.59 376.40,449.64 381.85,447.71 386.40,444.16 391.57,441.48 397.11,442.48 402.61,440.45 408.00,439.16 413.40,439.74 419.04,441.16 424.32,440.77" /><polyline points="434.62,444.53 439.73,450.15" /><polyline points="460.58,472.50 462.28,477.96" /><polyline points="467.83,490.35 470.66,496.51" /><polyline points="465.09,535.32 463.66,541.63 461.27,547.74 457.21,552.27" /><polyline points="441.99,575.81 436.72,579.74" /><polyline points="428.42,583.16 423.18,586.53 418.43,589.05" /><polyline points="402.98,588.05 397.80,587.72 392.98,586.75 388.02,585.85 383.10,582.60" /><polyline points="363.26,563.05 360.60,558.92 356.32,554.04" /><polyline points="349.72,516.88 349.00,510.45 352.07,504.11 349.83,497.98 352.74,491.90 354.08,486.45 356.44,480.55 361.57,474.12 362.21,470.21" /><polyline points="370.57,460.41 374.72,456.48 378.19,453.80 383.48,450.51" /><polyline points="413.20,443.16 417.91,445.39" /><polyline points="446.93,460.11 449.46,465.64" /><polyline points="455.05,475.42 459.07,480.31" /><polyline points="461.41,491.61 464.51,497.75" /><polyline points="468.24,510.32 465.76,516.88" /><polyline points="462.16,516.88 460.01,522.84" /><polyline points="435.04,576.88 431.49,579.61 426.45,580.70" /><polyline points="408.00,586.77 403.20,583.07" /><polyline points="388.90,582.39 384.34,579.06" /><polyline points="372.52,569.19 369.39,566.35" /><polyline points="360.27,551.05 357.73,545.47 355.47,540.43" /><polyline points="352.64,528.52 353.04,522.78 352.82,516.88 353.25,510.84" /><polyline points="354.42,499.49 357.61,493.49 357.60,487.24" /><polyline points="364.50,477.55 365.97,472.84" /><polyline points="380.39,457.32 384.45,455.04" /><polyline points="393.61,450.10 398.32,449.85 403.48,451.51 408.00,447.34 412.81,448.84" /><polyline points="421.94,449.34 426.69,452.31 431.80,455.57" /><polyline points="439.23,460.05 442.95,463.29 446.66,468.37 449.85,472.60" /><polyline points="455.37,482.47 457.27,488.10 460.75,493.38 463.81,499.02" /><polyline points="464.55,511.05 462.18,516.88" /><polyline points="455.65,544.08 452.81,548.75" /><polyline points="443.67,562.11 442.03,564.80" /><polyline points="412.43,581.80 408.00,580.43 403.64,580.15" /><polyline points="386.66,574.83 381.86,572.76 379.63,569.58" /><polyline points="361.48,543.63 360.49,538.55" /><polyline points="356.98,511.25 357.59,505.82" /><polyline points="368.65,476.37 370.86,471.45" /><polyline points="386.70,459.22 390.37,455.15" /><polyline points="398.85,454.98 403.61,453.14" /><polyline points="433.19,462.15 436.65,463.97 441.81,467.12 444.27,471.15 447.57,475.15" /><polyline points="455.42,532.33 450.93,536.69 449.57,541.23 450.48,545.60 446.43,550.39" /><polyline points="440.65,559.59 437.60,563.10 435.44,566.55" /><polyline points="427.98,571.09 424.11,572.98" /><polyline points="395.47,573.78 391.98,573.88" /><polyline points="383.86,567.34 381.51,566.01 379.45,562.52 374.45,559.61" /><polyline points="358.91,506.78 361.85,501.89" /><polyline points="395.52,457.67 399.67,458.59" /><polyline points="411.99,456.65 415.86,460.45" /><polyline points="432.29,467.10 435.65,469.23" /><polyline points="452.67,496.76 451.98,501.00" /><polyline points="450.51,521.82 452.27,526.41" /><polyline points="447.75,542.62 443.99,549.91" /><polyline points="438.20,556.87 434.63,557.20 431.80,560.11 429.10,564.20" /><polyline points="390.02,567.14 385.81,563.73" /><polyline points="370.33,539.50 368.84,536.25" /><polyline points="373.94,489.61 374.22,487.32 376.73,482.92" /><polyline points="393.85,465.87 396.83,464.74 400.86,463.65" /><polyline points="419.36,466.35 422.72,465.32 425.64,468.32" /><polyline points="439.16,478.84 442.17,483.79 444.81,485.60" /><polyline points="448.74,512.34 451.05,516.88" /><polyline points="445.50,537.16 441.65,540.43 438.87,543.91" /><polyline points="436.82,550.15 433.35,553.85" /><polyline points="397.40,562.15 394.37,562.87" /><polyline points="371.47,538.68 370.60,534.31 369.14,529.06 368.54,525.33 369.19,521.26" /><polyline points="378.34,485.83 380.27,483.27 382.26,478.93" /><polyline points="400.95,466.70 404.54,467.98 408.00,468.50 411.42,467.98" /><polyline points="435.72,481.34 437.17,485.56" /><polyline points="448.37,503.98 446.33,508.44" /><polyline points="444.22,524.37 441.67,528.86 441.16,531.73 440.96,535.97 439.63,540.06 437.44,540.78 435.25,545.77 434.29,546.81 430.16,550.92" /><polyline points="414.39,557.79 411.18,561.22 408.00,562.52" /><polyline points="376.78,528.54 373.80,524.07" /><polyline points="386.24,479.20 390.09,478.20" /><polyline points="395.10,477.05 398.67,473.22" /><polyline points="435.23,488.76 435.55,491.86 441.67,493.74 441.73,499.61 441.80,502.30" /><polyline points="444.26,513.17 445.53,516.88" /><polyline points="438.13,527.79 439.22,530.36 435.44,533.80 437.05,537.37" /><polyline points="419.51,554.67 416.35,556.16" /><polyline points="385.68,543.88 382.29,541.86" /><polyline points="379.49,530.24 377.47,526.76" /><polyline points="374.73,513.35 375.95,510.30" /><polyline points="383.91,492.23 385.35,487.28" /><polyline points="441.45,510.08 438.94,513.44 439.27,516.88" /><polyline points="424.14,544.16 420.90,547.32" /><polyline points="416.97,553.36 415.58,549.90" /><polyline points="389.28,543.99 389.83,540.19" /><polyline points="391.35,490.18 394.71,486.25" /><polyline points="435.19,513.69 433.45,516.88" /><polyline points="403.79,548.68 401.52,544.02" /><polyline points="401.84,488.45 403.83,487.32" /><polyline points="426.73,526.90 426.21,528.34 425.81,529.90" /><polyline points="406.17,540.84 404.95,545.71 402.77,543.03" /><polyline points="404.86,488.45 406.19,494.19 408.00,491.14 409.82,491.68" /><polyline points="422.29,499.45 424.81,501.86" /><polyline points="419.12,530.49 419.56,530.03" /><polyline points="420.42,515.29 420.63,516.88" /><circle cx="462.32" cy="580.80" r="0.4" fill="#B8960C" stroke="none" /><circle cx="457.92" cy="552.23" r="0.4" fill="#B8960C" stroke="none" /><circle cx="433.28" cy="461.09" r="0.4" fill="#B8960C" stroke="none" /><circle cx="413.96" cy="437.38" r="0.4" fill="#B8960C" stroke="none" /><circle cx="380.47" cy="437.58" r="0.4" fill="#B8960C" stroke="none" /><circle cx="379.34" cy="436.17" r="0.4" fill="#B8960C" stroke="none" /><circle cx="355.08" cy="498.38" r="0.4" fill="#B8960C" stroke="none" /><circle cx="476.73" cy="508.38" r="0.4" fill="#B8960C" stroke="none" /><circle cx="485.49" cy="518.53" r="0.4" fill="#B8960C" stroke="none" /><circle cx="339.07" cy="474.02" r="0.4" fill="#B8960C" stroke="none" /><circle cx="362.14" cy="480.50" r="0.4" fill="#B8960C" stroke="none" /><circle cx="468.64" cy="458.95" r="0.4" fill="#B8960C" stroke="none" /><circle cx="466.90" cy="484.37" r="0.4" fill="#B8960C" stroke="none" /><circle cx="380.66" cy="598.95" r="0.4" fill="#B8960C" stroke="none" /><circle cx="341.89" cy="476.36" r="0.4" fill="#B8960C" stroke="none" /><circle cx="342.25" cy="468.43" r="0.4" fill="#B8960C" stroke="none" /><circle cx="469.47" cy="562.45" r="0.4" fill="#B8960C" stroke="none" /><circle cx="483.03" cy="490.32" r="0.4" fill="#B8960C" stroke="none" /><circle cx="346.92" cy="576.67" r="0.4" fill="#B8960C" stroke="none" /><circle cx="429.34" cy="582.27" r="0.4" fill="#B8960C" stroke="none" /><circle cx="390.61" cy="606.77" r="0.4" fill="#B8960C" stroke="none" /><circle cx="341.01" cy="499.07" r="0.4" fill="#B8960C" stroke="none" /><circle cx="407.98" cy="421.03" r="0.4" fill="#B8960C" stroke="none" /><circle cx="379.98" cy="457.06" r="0.4" fill="#B8960C" stroke="none" /><circle cx="455.03" cy="489.86" r="0.4" fill="#B8960C" stroke="none" /><circle cx="457.09" cy="447.72" r="0.4" fill="#B8960C" stroke="none" /><circle cx="379.59" cy="444.49" r="0.4" fill="#B8960C" stroke="none" /><circle cx="486.17" cy="522.97" r="0.4" fill="#B8960C" stroke="none" /><circle cx="464.48" cy="529.07" r="0.4" fill="#B8960C" stroke="none" /><circle cx="357.46" cy="585.63" r="0.4" fill="#B8960C" stroke="none" /><circle cx="443.41" cy="463.56" r="0.4" fill="#B8960C" stroke="none" /><circle cx="348.95" cy="533.18" r="0.4" fill="#B8960C" stroke="none" /><circle cx="362.68" cy="584.21" r="0.4" fill="#B8960C" stroke="none" /><circle cx="365.99" cy="452.05" r="0.4" fill="#B8960C" stroke="none" /><circle cx="400.22" cy="419.06" r="0.4" fill="#B8960C" stroke="none" /><circle cx="465.22" cy="548.85" r="0.4" fill="#B8960C" stroke="none" /><circle cx="352.02" cy="542.40" r="0.4" fill="#B8960C" stroke="none" /><circle cx="342.40" cy="466.99" r="0.4" fill="#B8960C" stroke="none" /><circle cx="470.26" cy="491.52" r="0.4" fill="#B8960C" stroke="none" /><circle cx="462.22" cy="534.49" r="0.4" fill="#B8960C" stroke="none" /><circle cx="354.93" cy="589.51" r="0.4" fill="#B8960C" stroke="none" /><circle cx="381.23" cy="463.01" r="0.4" fill="#B8960C" stroke="none" /><circle cx="442.18" cy="575.77" r="0.4" fill="#B8960C" stroke="none" /><circle cx="338.50" cy="554.29" r="0.4" fill="#B8960C" stroke="none" /><circle cx="466.90" cy="514.94" r="0.4" fill="#B8960C" stroke="none" /><circle cx="355.55" cy="581.31" r="0.4" fill="#B8960C" stroke="none" /><circle cx="466.22" cy="545.06" r="0.4" fill="#B8960C" stroke="none" /><circle cx="452.75" cy="442.48" r="0.4" fill="#B8960C" stroke="none" /><circle cx="402.04" cy="451.30" r="0.4" fill="#B8960C" stroke="none" /><circle cx="364.05" cy="561.15" r="0.4" fill="#B8960C" stroke="none" /><circle cx="420.38" cy="440.27" r="0.4" fill="#B8960C" stroke="none" /><circle cx="370.07" cy="450.81" r="0.4" fill="#B8960C" stroke="none" /><circle cx="347.08" cy="566.02" r="0.4" fill="#B8960C" stroke="none" /><circle cx="402.22" cy="610.44" r="0.4" fill="#B8960C" stroke="none" /><circle cx="381.49" cy="579.11" r="0.4" fill="#B8960C" stroke="none" /><circle cx="360.31" cy="496.44" r="0.4" fill="#B8960C" stroke="none" /><circle cx="389.73" cy="424.79" r="0.4" fill="#B8960C" stroke="none" /><circle cx="348.34" cy="512.62" r="0.4" fill="#B8960C" stroke="none" /><circle cx="350.80" cy="526.91" r="0.4" fill="#B8960C" stroke="none" /><circle cx="373.19" cy="441.83" r="0.4" fill="#B8960C" stroke="none" /><circle cx="450.20" cy="581.40" r="0.4" fill="#B8960C" stroke="none" /><circle cx="363.84" cy="556.31" r="0.4" fill="#B8960C" stroke="none" /><circle cx="462.96" cy="448.38" r="0.4" fill="#B8960C" stroke="none" /><circle cx="360.31" cy="479.79" r="0.4" fill="#B8960C" stroke="none" /><circle cx="348.71" cy="452.59" r="0.4" fill="#B8960C" stroke="none" /><circle cx="471.39" cy="475.45" r="0.4" fill="#B8960C" stroke="none" /><circle cx="396.12" cy="611.69" r="0.4" fill="#B8960C" stroke="none" /><circle cx="372.13" cy="449.55" r="0.4" fill="#B8960C" stroke="none" /><circle cx="363.68" cy="456.46" r="0.4" fill="#B8960C" stroke="none" /><circle cx="346.99" cy="533.20" r="0.4" fill="#B8960C" stroke="none" /><circle cx="465.84" cy="543.45" r="0.4" fill="#B8960C" stroke="none" /><circle cx="349.97" cy="562.96" r="0.4" fill="#B8960C" stroke="none" /><circle cx="476.62" cy="525.29" r="0.4" fill="#B8960C" stroke="none" /><circle cx="410.79" cy="452.64" r="0.4" fill="#B8960C" stroke="none" /><circle cx="358.98" cy="466.87" r="0.4" fill="#B8960C" stroke="none" /><circle cx="386.42" cy="438.59" r="0.4" fill="#B8960C" stroke="none" /><circle cx="360.89" cy="460.11" r="0.4" fill="#B8960C" stroke="none" /><circle cx="347.22" cy="472.63" r="0.4" fill="#B8960C" stroke="none" /><circle cx="410.53" cy="435.50" r="0.4" fill="#B8960C" stroke="none" /><circle cx="413.71" cy="606.51" r="0.4" fill="#B8960C" stroke="none" /></g><g id="04_Ghost_Traces" inkscape:groupmode="layer" inkscape:label="04_Ghost_Traces" stroke="#3A7A7A" fill="none" stroke-width="0.3" stroke-linecap="round" stroke-linejoin="round"><line x1="407.90" y1="513.72" x2="407.19" y2="491.89" /><line x1="407.79" y1="524.78" x2="407.35" y2="541.08" /><line x1="415.19" y1="521.29" x2="430.15" y2="530.47" /><line x1="411.48" y1="508.68" x2="417.42" y2="494.69" /><line x1="403.21" y1="520.13" x2="387.10" y2="531.04" /><line x1="404.92" y1="514.95" x2="388.40" y2="504.61" /><line x1="399.37" y1="521.49" x2="386.39" y2="528.42" /><line x1="412.61" y1="522.75" x2="420.35" y2="532.60" /><line x1="402.41" y1="517.38" x2="380.75" y2="519.32" /><line x1="406.85" y1="527.49" x2="406.06" y2="534.80" /><line x1="405.00" y1="525.96" x2="399.89" y2="541.44" /><line x1="412.16" y1="511.06" x2="423.60" y2="495.06" /><line x1="408.08" y1="520.38" x2="408.42" y2="535.32" /><line x1="414.36" y1="517.57" x2="431.35" y2="519.41" /><line x1="400.13" y1="525.55" x2="390.02" y2="536.69" /><line x1="401.10" y1="507.58" x2="395.05" y2="499.42" /></g></svg>