<?xml version='1.0' encoding='utf-8'?>
<svg xmlns="http://www.w3.org/2000/svg" xmlns:inkscape="http://www.inkscape.org/namespaces/inkscape" viewBox="204 228 408 600"><style>*{vector-effect:non-scaling-stroke}</style><g id="01_Black_Frame" inkscape:groupmode="layer" inkscape:label="01_Black_Frame" stroke="#1A1A1A" fill="none" stroke-width="0.875" stroke-linecap="round" stroke-linejoin="round"><path d="M 250.0,264.0 L 566.0,264.0 Q 576.0,264.0 576.0,274.0 L 576.0,782.0 Q 576.0,792.0 566.0,792.0 L 250.0,792.0 Q 240.0,792.0 240.0,782.0 L 240.0,274.0 Q 240.0,264.0 250.0,264.0" /><path d="M 253.0,270.0 L 563.0,270.0 Q 570.0,270.0 570.0,277.0 L 570.0,779.0 Q 570.0,786.0 563.0,786.0 L 253.0,786.0 Q 246.0,786.0 246.0,779.0 L 246.0,277.0 Q 246.0,270.0 253.0,270.0" /><line x1="259.0" y1="280.0" x2="263.0" y2="280.0" /><line x1="258.1" y1="282.1" x2="260.9" y2="284.9" /><line x1="256.0" y1="283.0" x2="256.0" y2="287.0" /><line x1="253.9" y1="282.1" x2="251.1" y2="284.9" /><line x1="253.0" y1="280.0" x2="249.0" y2="280.0" /><line x1="253.9" y1="277.9" x2="251.1" y2="275.1" /><line x1="256.0" y1="277.0" x2="256.0" y2="273.0" /><line x1="258.1" y1="277.9" x2="260.9" y2="275.1" /><line x1="563.0" y1="280.0" x2="567.0" y2="280.0" /><line x1="562.1" y1="282.1" x2="564.9" y2="284.9" /><line x1="560.0" y1="283.0" x2="560.0" y2="287.0" /><line x1="557.9" y1="282.1" x2="555.1" y2="284.9" /><line x1="557.0" y1="280.0" x2="553.0" y2="280.0" /><line x1="557.9" y1="277.9" x2="555.1" y2="275.1" /><line x1="560.0" y1="277.0" x2="560.0" y2="273.0" /><line x1="562.1" y1="277.9" x2="564.9" y2="275.1" /><line x1="259.0" y1="776.0" x2="263.0" y2="776.0" /><line x1="258.1" y1="778.1" x2="260.9" y2="780.9" /><line x1="256.0" y1="779.0" x2="256.0" y2="783.0" /><line x1="253.9" y1="778.1" x2="251.1" y2="780.9" /><line x1="253.0" y1="776.0" x2="249.0" y2="776.0" /><line x1="253.9" y1="773.9" x2="251.1" y2="771.1" /><line x1="256.0" y1="773.0" x2="256.0" y2="769.0" /><line x1="258.1" y1="773.9" x2="260.9" y2="771.1" /><line x1="563.0" y1="776.0" x2="567.0" y2="776.0" /><line x1="562.1" y1="778.1" x2="564.9" y2="780.9" /><line x1="560.0" y1="779.0" x2="560.0" y2="783.0" /><line x1="557.9" y1="778.1" x2="555.1" y2="780.9" /><line x1="557.0" y1="776.0" x2="553.0" y2="776.0" /><line x1="557.9" y1="773.9" x2="555.1" y2="771.1" /><line x1="560.0" y1="773.0" x2="560.0" y2="769.0" /><line x1="562.1" y1="773.9" x2="564.9" y2="771.1" /><polyline points="403.88,283.20 402.12,282.00 401.12,282.00 399.38,283.60 399.38,288.40 401.12,290.00 402.12,290.00 403.88,288.80" /><polyline points="405.12,282.00 405.12,290.00 409.38,290.00" /><polyline points="410.88,282.00 415.88,290.00" /><polyline points="415.88,282.00 410.88,290.00" /><polyline points="359.41,297.00 365.91,297.00" /><polyline points="362.66,297.00 362.66,307.00" /><polyline points="366.89,297.00 366.89,307.00" /><polyline points="373.39,297.00 373.39,307.00" /><polyline points="366.89,301.80 373.39,301.80" /><polyline points="379.89,297.00 374.36,297.00 374.36,301.80 378.26,301.80" /><polyline points="374.36,301.80 374.36,307.00 379.89,307.00" /><polyline points="395.16,298.50 392.89,297.00 391.59,297.00 389.31,299.00 389.31,305.00 391.59,307.00 392.89,307.00 395.16,305.50" /><polyline points="400.04,297.00 397.44,298.00 396.79,300.00 396.79,304.00 397.44,306.00 400.04,307.00 402.64,306.00 403.29,304.00 403.29,300.00 402.64,298.00 400.04,297.00" /><polyline points="404.26,307.00 404.26,297.00 407.51,302.50 410.76,297.00 410.76,307.00" /><polyline points="411.74,307.00 411.74,297.00 415.96,297.00 417.59,298.50 417.59,300.20 415.96,301.50 411.74,301.50" /><polyline points="419.21,297.00 419.21,307.00 424.74,307.00" /><polyline points="432.21,297.00 426.69,297.00 426.69,301.80 430.59,301.80" /><polyline points="426.69,301.80 426.69,307.00 432.21,307.00" /><polyline points="434.16,297.00 440.66,297.00" /><polyline points="437.41,297.00 437.41,307.00" /><polyline points="447.16,297.00 441.64,297.00 441.64,301.80 445.54,301.80" /><polyline points="441.64,301.80 441.64,307.00 447.16,307.00" /><polyline points="449.11,307.00 449.11,297.00 452.69,297.00 454.96,299.50 454.96,304.50 452.69,307.00 449.11,307.00" /><line x1="270.0" y1="312.0" x2="546.0" y2="312.0" /><line x1="270.0" y1="732.0" x2="546.0" y2="732.0" /><polyline points="377.20,740.75 377.20,745.25" /><polyline points="379.02,745.25 379.02,740.75 380.84,740.75 381.54,741.42 381.54,742.19 380.84,742.77 379.02,742.77 381.54,745.25" /><polyline points="382.24,745.25 383.64,740.75 385.04,745.25" /><polyline points="382.74,743.67 384.54,743.67" /><polyline points="385.46,745.25 385.46,740.75 388.26,745.25 388.26,740.75" /><polyline points="395.12,745.25 396.52,740.75 397.92,745.25" /><polyline points="395.62,743.67 397.42,743.67" /><polyline points="400.86,741.42 399.88,740.75 399.32,740.75 398.34,741.65 398.34,744.35 399.32,745.25 399.88,745.25 400.86,744.58" /><polyline points="404.08,741.42 403.10,740.75 402.54,740.75 401.56,741.65 401.56,744.35 402.54,745.25 403.10,745.25 404.08,744.58" /><polyline points="406.18,740.75 405.06,741.20 404.78,742.10 404.78,743.90 405.06,744.80 406.18,745.25 407.30,744.80 407.58,743.90 407.58,742.10 407.30,741.20 406.18,740.75" /><polyline points="408.00,745.25 408.00,740.75 409.82,740.75 410.52,741.42 410.52,742.19 409.82,742.77 408.00,742.77 410.52,745.25" /><polyline points="411.22,745.25 411.22,740.75 412.76,740.75 413.74,741.88 413.74,744.12 412.76,745.25 411.22,745.25" /><polyline points="423.26,741.20 422.56,740.75 421.72,740.75 421.02,741.42 420.88,742.10 421.30,742.64 422.28,743.00 423.26,743.36 423.68,743.90 423.54,744.58 422.84,745.25 421.86,745.25 421.16,744.80" /><polyline points="426.62,741.42 425.64,740.75 425.08,740.75 424.10,741.65 424.10,744.35 425.08,745.25 425.64,745.25 426.62,744.58" /><polyline points="427.32,740.75 427.32,745.25" /><polyline points="430.12,740.75 430.12,745.25" /><polyline points="427.32,742.91 430.12,742.91" /><polyline points="431.94,740.75 430.82,741.20 430.54,742.10 430.54,743.90 430.82,744.80 431.94,745.25 433.06,744.80 433.34,743.90 433.34,742.10 433.06,741.20 431.94,740.75" /><polyline points="435.16,740.75 434.04,741.20 433.76,742.10 433.76,743.90 434.04,744.80 435.16,745.25 436.28,744.80 436.56,743.90 436.56,742.10 436.28,741.20 435.16,740.75" /><polyline points="436.98,740.75 436.98,745.25 439.36,745.25" /><polyline points="347.62,753.25 352.62,753.25" /><polyline points="350.12,753.25 350.12,760.75" /><polyline points="353.38,753.25 353.38,760.75" /><polyline points="358.38,753.25 358.38,760.75" /><polyline points="353.38,756.85 358.38,756.85" /><polyline points="363.38,753.25 359.12,753.25 359.12,756.85 362.12,756.85" /><polyline points="359.12,756.85 359.12,760.75 363.38,760.75" /><polyline points="370.62,753.25 371.88,760.75 373.12,755.88 374.38,760.75 375.62,753.25" /><polyline points="378.88,753.25 376.88,754.00 376.38,755.50 376.38,758.50 376.88,760.00 378.88,760.75 380.88,760.00 381.38,758.50 381.38,755.50 380.88,754.00 378.88,753.25" /><polyline points="382.12,760.75 382.12,753.25 385.38,753.25 386.62,754.38 386.62,755.65 385.38,756.62 382.12,756.62 386.62,760.75" /><polyline points="387.88,760.75 387.88,753.25 390.62,753.25 392.38,755.12 392.38,758.88 390.62,760.75 387.88,760.75" /><polyline points="399.38,753.25 400.62,760.75 401.88,755.88 403.12,760.75 404.38,753.25" /><polyline points="405.12,760.75 407.62,753.25 410.12,760.75" /><polyline points="406.02,758.12 409.23,758.12" /><polyline points="415.12,754.00 413.88,753.25 412.38,753.25 411.12,754.38 410.88,755.50 411.62,756.40 413.38,757.00 415.12,757.60 415.88,758.50 415.62,759.62 414.38,760.75 412.62,760.75 411.38,760.00" /><polyline points="426.88,754.38 425.12,753.25 424.12,753.25 422.38,754.75 422.38,759.25 424.12,760.75 425.12,760.75 426.88,759.62" /><polyline points="430.62,753.25 428.62,754.00 428.12,755.50 428.12,758.50 428.62,760.00 430.62,760.75 432.62,760.00 433.12,758.50 433.12,755.50 432.62,754.00 430.62,753.25" /><polyline points="433.88,760.75 433.88,753.25 436.38,757.38 438.88,753.25 438.88,760.75" /><polyline points="439.62,760.75 439.62,753.25 442.88,753.25 444.12,754.38 444.12,755.65 442.88,756.62 439.62,756.62" /><polyline points="445.38,753.25 445.38,760.75 449.62,760.75" /><polyline points="455.38,753.25 451.12,753.25 451.12,756.85 454.12,756.85" /><polyline points="451.12,756.85 451.12,760.75 455.38,760.75" /><polyline points="456.88,753.25 461.88,753.25" /><polyline points="459.38,753.25 459.38,760.75" /><polyline points="466.88,753.25 462.62,753.25 462.62,756.85 465.62,756.85" /><polyline points="462.62,756.85 462.62,760.75 466.88,760.75" /><polyline points="344.75,766.25 349.75,766.25" /><polyline points="347.25,766.25 347.25,773.75" /><polyline points="350.50,766.25 350.50,773.75" /><polyline points="355.50,766.25 355.50,773.75" /><polyline points="350.50,769.85 355.50,769.85" /><polyline points="360.50,766.25 356.25,766.25 356.25,769.85 359.25,769.85" /><polyline points="356.25,769.85 356.25,773.75 360.50,773.75" /><polyline points="367.75,773.75 367.75,766.25 370.50,766.25 372.25,768.12 372.25,771.88 370.50,773.75 367.75,773.75" /><polyline points="377.75,766.25 373.50,766.25 373.50,769.85 376.50,769.85" /><polyline points="373.50,769.85 373.50,773.75 377.75,773.75" /><polyline points="379.25,773.75 381.75,766.25 384.25,773.75" /><polyline points="380.15,771.12 383.35,771.12" /><polyline points="385.00,773.75 385.00,766.25 387.75,766.25 389.50,768.12 389.50,771.88 387.75,773.75 385.00,773.75" /><polyline points="396.50,773.75 396.50,766.25 399.25,766.25 401.00,768.12 401.00,771.88 399.25,773.75 396.50,773.75" /><polyline points="404.75,766.25 404.75,773.75" /><polyline points="408.00,773.75 408.00,766.25 410.75,766.25 412.50,768.12 412.50,771.88 410.75,773.75 408.00,773.75" /><polyline points="419.50,773.75 419.50,766.25 424.50,773.75 424.50,766.25" /><polyline points="427.75,766.25 425.75,767.00 425.25,768.50 425.25,771.50 425.75,773.00 427.75,773.75 429.75,773.00 430.25,771.50 430.25,768.50 429.75,767.00 427.75,766.25" /><polyline points="431.00,766.25 436.00,766.25" /><polyline points="433.50,766.25 433.50,773.75" /><polyline points="442.50,773.75 445.00,766.25 447.50,773.75" /><polyline points="443.40,771.12 446.60,771.12" /><polyline points="452.75,767.38 451.00,766.25 450.00,766.25 448.25,767.75 448.25,772.25 450.00,773.75 451.00,773.75 452.75,772.62 452.75,770.00 450.75,770.00" /><polyline points="454.00,773.75 454.00,766.25 457.25,766.25 458.50,767.38 458.50,768.65 457.25,769.62 454.00,769.62 458.50,773.75" /><polyline points="464.00,766.25 459.75,766.25 459.75,769.85 462.75,769.85" /><polyline points="459.75,769.85 459.75,773.75 464.00,773.75" /><polyline points="469.75,766.25 465.50,766.25 465.50,769.85 468.50,769.85" /><polyline points="465.50,769.85 465.50,773.75 469.75,773.75" /><polyline points="385.92,779.50 387.52,784.50 389.12,779.50" /><polyline points="391.20,779.50 391.20,784.50" /><polyline points="394.88,784.00 394.88,784.25" /><polyline points="398.56,779.50 398.56,784.50" /><polyline points="400.64,779.50 403.84,784.50" /><polyline points="403.84,779.50 400.64,784.50" /><polyline points="405.92,784.00 405.92,784.25" /><polyline points="408.00,784.50 408.00,779.50 409.60,782.25 411.20,779.50 411.20,784.50" /><polyline points="411.68,784.50 411.68,779.50 413.28,782.25 414.88,779.50 414.88,784.50" /><polyline points="415.36,779.50 418.56,784.50" /><polyline points="418.56,779.50 415.36,784.50" /><polyline points="419.04,779.50 422.24,784.50" /><polyline points="422.24,779.50 419.04,784.50" /><polyline points="422.72,779.50 424.32,784.50 425.92,779.50" /><polyline points="428.00,779.50 428.00,784.50" /></g><g id="02_Teal_Image" inkscape:groupmode="layer" inkscape:label="02_Teal_Image" stroke="#3A7A7A" fill="none" stroke-width="0.75" stroke-linecap="round" stroke-linejoin="round"><polyline points="252.00,325.69 255.15,325.69 258.30,325.69 261.45,325.69 264.61,325.69 267.76,325.69 270.91,325.69 274.06,325.69 277.21,325.69 280.36,325.69 283.52,325.69 286.67,325.69 289.82,325.69 292.97,325.69 296.12,325.69 299.27,325.69 302.42,325.69 305.58,325.69 308.73,325.69 311.88,325.69 315.03,325.69 318.18,325.69 321.33,325.69 324.48,325.69 327.64,325.69 330.79,325.69 333.94,325.69 337.09,325.69 340.24,325.69 343.39,325.69 346.55,325.69 349.70,325.69 352.85,325.69 356.00,325.69 359.15,325.69 362.30,325.69 365.45,325.69 368.61,325.69 371.76,325.69 374.91,325.69 378.06,325.69 381.21,325.69 384.36,325.69 387.52,325.69 390.67,325.69 393.82,325.69 396.97,325.69 400.12,325.69 403.27,325.69 406.42,325.69 409.58,325.69 412.73,325.69 415.88,325.69 419.03,325.69 422.18,325.69 425.33,325.69 428.48,325.69 431.64,325.69 434.79,325.69 437.94,325.69 441.09,325.69 444.24,325.69 447.39,325.69 450.55,325.69 453.70,325.69 456.85,325.69 460.00,325.69 463.15,325.69 466.30,325.69 469.45,325.69 472.61,325.69 475.76,325.69 478.91,325.69 482.06,325.69 485.21,325.69 488.36,325.69 491.52,325.69 494.67,325.69 497.82,325.69 500.97,325.69 504.12,325.69 507.27,325.69 510.42,325.69 513.58,325.69 516.73,325.69 519.88,325.69 523.03,325.69 526.18,325.69 529.33,325.69 532.48,325.69 535.64,325.69 538.79,325.69 541.94,325.69 545.09,325.69 548.24,325.69 551.39,325.69 554.55,325.69 557.70,325.69 560.85,325.69 564.00,325.69" /><polyline points="252.00,332.38 255.15,332.38 258.30,332.38 261.45,332.38 264.61,332.38 267.76,332.38 270.91,332.38 274.06,332.38 277.21,332.38 280.36,332.38 283.52,332.38 286.67,332.38 289.82,332.38 292.97,332.38 296.12,332.38 299.27,332.38 302.42,332.38 305.58,332.38 308.73,332.38 311.88,332.38 315.03,332.38 318.18,332.38 321.33,332.38 324.48,332.38 327.64,332.38 330.79,332.38 333.94,332.38 337.09,332.38 340.24,332.38 343.39,332.38 346.55,332.38 349.70,332.38 352.85,332.38 356.00,332.38 359.15,332.38 362.30,332.38 365.45,332.38 368.61,332.38 371.76,332.38 374.91,332.38 378.06,332.38 381.21,332.38 384.36,332.38 387.52,332.38 390.67,332.38 393.82,332.38 396.97,332.38 400.12,332.38 403.27,332.38 406.42,332.38 409.58,332.38 412.73,332.38 415.88,332.38 419.03,332.38 422.18,332.38 425.33,332.38 428.48,332.38 431.64,332.38 434.79,332.38 437.94,332.38 441.09,332.38 444.24,332.38 447.39,332.38 450.55,332.38 453.70,332.38 456.85,332.38 460.00,332.38 463.15,332.38 466.30,332.38 469.45,332.38 472.61,332.38 475.76,332.38 478.91,332.38 482.06,332.38 485.21,332.38 488.36,332.38 491.52,332.38 494.67,332.38 497.82,332.38 500.97,332.38 504.12,332.38 507.27,332.38 510.42,332.38 513.58,332.38 516.73,332.38 519.88,332.38 523.03,332.38 526.18,332.38 529.33,332.38 532.48,332.38 535.64,332.38 538.79,332.38 541.94,332.38 545.09,332.38 548.24,332.38 551.39,332.38 554.55,332.38 557.70,332.38 560.85,332.38 564.00,332.38" /><polyline points="252.00,339.07 255.15,339.07 258.30,339.07 261.45,339.07 264.61,339.07 267.76,339.07 270.91,339.07 274.06,339.07 277.21,339.07 280.36,339.07 283.52,339.07 286.67,339.07 289.82,339.07 292.97,339.07 296.12,339.07 299.27,339.07 302.42,339.07 305.58,339.07 308.73,339.07 311.88,339.07 315.03,339.07 318.18,339.07 321.33,339.07 324.48,339.07 327.64,339.07 330.79,339.07 333.94,339.07 337.09,339.07 340.24,339.07 343.39,339.07 346.55,339.07 349.70,339.07 352.85,339.07 356.00,339.07 359.15,339.07 362.30,339.07 365.45,339.07 368.61,339.07 371.76,339.07 374.91,339.07 378.06,339.07 381.21,339.07 384.36,339.07 387.52,339.07 390.67,339.07 393.82,339.07 396.97,339.07 400.12,339.07 403.27,339.07 406.42,339.07 409.58,339.07 412.73,339.07 415.88,339.07 419.03,339.07 422.18,339.07 425.33,339.07 428.48,339.07 431.64,339.07 434.79,339.07 437.94,339.07 441.09,339.07 444.24,339.07 447.39,339.07 450.55,339.07 453.70,339.07 456.85,339.07 460.00,339.07 463.15,339.07 466.30,339.07 469.45,339.07 472.61,339.07 475.76,339.07 478.91,339.07 482.06,339.07 485.21,339.07 488.36,339.07 491.52,339.07 494.67,339.07 497.82,339.07 500.97,339.07 504.12,339.07 507.27,339.07 510.42,339.07 513.58,339.07 516.73,339.07 519.88,339.07 523.03,339.07 526.18,339.07 529.33,339.07 532.48,339.07 535.64,339.07 538.79,339.07 541.94,339.07 545.09,339.07 548.24,339.07 551.39,339.07 554.55,339.07 557.70,339.07 560.85,339.07 564.00,339.07" /><polyline points="252.00,345.75 255.15,345.75 258.30,345.75 261.45,345.75 264.61,345.75 267.76,345.75 270.91,345.75 274.06,345.75 277.21,345.75 280.36,345.75 283.52,345.75 286.67,345.75 289.82,345.75 292.97,345.75 296.12,345.75 299.27,345.75 302.42,345.75 305.58,345.75 308.73,345.75 311.88,345.75 315.03,345.75 318.18,345.75 321.33,345.75 324.48,345.75 327.64,345.75 330.79,345.75 333.94,345.75 337.09,345.75 340.24,345.75 343.39,345.75 346.55,345.75 349.70,345.75 352.85,345.75 356.00,345.75 359.15,345.75 362.30,345.75 365.45,345.75 368.61,345.75 371.76,345.75 374.91,345.75 378.06,345.75 381.21,345.75 384.36,345.75 387.52,345.75 390.67,345.75 393.82,345.75 396.97,345.75 400.12,345.75 403.27,345.75 406.42,345.75 409.58,345.75 412.73,345.75 415.88,345.75 419.03,345.75 422.18,345.75 425.33,345.75 428.48,345.75 431.64,345.75 434.79,345.75 437.94,345.75 441.09,345.75 444.24,345.75 447.39,345.75 450.55,345.75 453.70,345.75 456.85,345.75 460.00,345.75 463.15,345.75 466.30,345.75 469.45,345.75 472.61,345.75 475.76,345.75 478.91,345.75 482.06,345.75 485.21,345.75 488.36,345.75 491.52,345.75 494.67,345.75 497.82,345.75 500.97,345.75 504.12,345.75 507.27,345.75 510.42,345.75 513.58,345.75 516.73,345.75 519.88,345.75 523.03,345.75 526.18,345.75 529.33,345.75 532.48,345.75 535.64,345.75 538.79,345.75 541.94,345.75 545.09,345.75 548.24,345.75 551.39,345.75 554.55,345.75 557.70,345.75 560.85,345.75 564.00,345.75" /><polyline points="252.00,352.44 255.15,352.44 258.30,352.44 261.45,352.44 264.61,352.44 267.76,352.44 270.91,352.44 274.06,352.44 277.21,352.44 280.36,352.44 283.52,352.44 286.67,352.44 289.82,352.44 292.97,352.44 296.12,352.44 299.27,352.44 302.42,352.44 305.58,352.44 308.73,352.44 311.88,352.44 315.03,352.44 318.18,352.44 321.33,352.44 324.48,352.44 327.64,352.44 330.79,352.44 333.94,352.44 337.09,352.44 340.24,352.44 343.39,352.44 346.55,352.44 349.70,352.44 352.85,352.44 356.00,352.44 359.15,352.44 362.30,352.44 365.45,352.44 368.61,352.44 371.76,352.44 374.91,352.44 378.06,352.44 381.21,352.44 384.36,352.44 387.52,352.44 390.67,352.44 393.82,352.44 396.97,352.44 400.12,352.44 403.27,352.44 406.42,352.44 409.58,352.44 412.73,352.44 415.88,352.44 419.03,352.44 422.18,352.44 425.33,352.44 428.48,352.44 431.64,352.44 434.79,352.44 437.94,352.44 441.09,352.44 444.24,352.44 447.39,352.44 450.55,352.44 453.70,352.44 456.85,352.44 460.00,352.44 463.15,352.44 466.30,352.44 469.45,352.44 472.61,352.44 475.76,352.44 478.91,352.44 482.06,352.44 485.21,352.44 488.36,352.44 491.52,352.44 494.67,352.44 497.82,352.44 500.97,352.44 504.12,352.44 507.27,352.44 510.42,352.44 513.58,352.44 516.73,352.44 519.88,352.44 523.03,352.44 526.18,352.44 529.33,352.44 532.48,352.44 535.64,352.44 538.79,352.44 541.94,352.44 545.09,352.44 548.24,352.44 551.39,352.44 554.55,352.44 557.70,352.44 560.85,352.44 564.00,352.44" /><polyline points="252.00,359.13 255.15,359.13 258.30,359.13 261.45,359.13 264.61,359.13 267.76,359.13 270.91,359.13 274.06,359.13 277.21,359.13 280.36,359.13 283.52,359.13 286.67,359.13 289.82,359.13 292.97,359.13 296.12,359.13 299.27,359.13 302.42,359.13 305.58,359.13 308.73,359.13 311.88,359.13 315.03,359.13 318.18,359.13 321.33,359.13 324.48,359.13 327.64,359.13 330.79,359.13 333.94,359.13 337.09,359.13 340.24,359.13 343.39,359.13 346.55,359.13 349.70,359.13 352.85,359.13 356.00,359.13 359.15,359.13 362.30,359.13 365.45,359.13 368.61,359.13 371.76,359.13 374.91,359.13 378.06,359.13 381.21,359.13 384.36,359.13 387.52,359.13 390.67,359.13 393.82,359.13 396.97,359.13 400.12,359.13 403.27,359.13 406.42,359.13 409.58,359.13 412.73,359.13 415.88,359.13 419.03,359.13 422.18,359.13 425.33,359.13 428.48,359.13 431.64,359.13 434.79,359.13 437.94,359.13 441.09,359.13 444.24,359.13 447.39,359.13 450.55,359.13 453.70,359.13 456.85,359.13 460.00,359.13 463.15,359.13 466.30,359.13 469.45,359.13 472.61,359.13 475.76,359.13 478.91,359.13 482.06,359.13 485.21,359.13 488.36,359.13 491.52,359.13 494.67,359.13 497.82,359.13 500.97,359.13 504.12,359.13 507.27,359.13 510.42,359.13 513.58,359.13 516.73,359.13 519.88,359.13 523.03,359.13 526.18,359.13 529.33,359.13 532.48,359.13 535.64,359.13 538.79,359.13 541.94,359.13 545.09,359.13 548.24,359.13 551.39,359.13 554.55,359.13 557.70,359.13 560.85,359.13 564.00,359.13" /><polyline points="252.00,365.82 255.15,365.82 258.30,365.82 261.45,365.82 264.61,365.82 267.76,365.82 270.91,365.82 274.06,365.82 277.21,365.82 280.36,365.82 283.52,365.82 286.67,365.82 289.82,365.82 292.97,365.82 296.12,365.82 299.27,365.82 302.42,365.82 305.58,365.82 308.73,365.82 311.88,365.82 315.03,365.82 318.18,365.82 321.33,365.82 324.48,365.82 327.64,365.82 330.79,365.82 333.94,365.82 337.09,365.82 340.24,365.82 343.39,365.82 346.55,365.82 349.70,365.82 352.85,365.82 356.00,365.82 359.15,365.82 362.30,365.82 365.45,365.82 368.61,365.82 371.76,365.82 374.91,365.82 378.06,365.82 381.21,365.82 384.36,365.82 387.52,365.82 390.67,365.82 393.82,365.82 396.97,365.82 400.12,365.82 403.27,365.82 406.42,365.82 409.58,365.82 412.73,365.82 415.88,365.82 419.03,365.82 422.18,365.82 425.33,365.82 428.48,365.82 431.64,365.82 434.79,365.82 437.94,365.82 441.09,365.82 444.24,365.82 447.39,365.82 450.55,365.82 453.70,365.82 456.85,365.82 460.00,365.82 463.15,365.82 466.30,365.82 469.45,365.82 472.61,365.82 475.76,365.82 478.91,365.82 482.06,365.82 485.21,365.82 488.36,365.82 491.52,365.82 494.67,365.82 497.82,365.82 500.97,365.82 504.12,365.82 507.27,365.82 510.42,365.82 513.58,365.82 516.73,365.82 519.88,365.82 523.03,365.82 526.18,365.82 529.33,365.82 532.48,365.82 535.64,365.82 538.79,365.82 541.94,365.82 545.09,365.82 548.24,365.82 551.39,365.82 554.55,365.82 557.70,365.82 560.85,365.82 564.00,365.82" /><polyline points="252.00,372.51 255.15,372.51 258.30,372.51 261.45,372.51 264.61,372.51 267.76,372.51 270.91,372.51 274.06,372.51 277.21,372.51 280.36,372.51 283.52,372.51 286.67,372.51 289.82,372.51 292.97,372.51 296.12,372.51 299.27,372.51 302.42,372.51 305.58,372.51 308.73,372.51 311.88,372.51 315.03,372.51 318.18,372.51 321.33,372.51 324.48,372.51 327.64,372.51 330.79,372.51 333.94,372.51 337.09,372.51 340.24,372.51 343.39,372.51 346.55,372.51 349.70,372.51 352.85,372.51 356.00,372.51 359.15,372.51 362.30,372.51 365.45,372.51 368.61,372.51 371.76,372.51 374.91,372.51 378.06,372.51 381.21,372.51 384.36,372.51 387.52,372.51 390.67,372.51 393.82,372.51 396.97,372.51 400.12,372.51 403.27,372.51 406.42,372.51 409.58,372.51 412.73,372.51 415.88,372.51 419.03,372.51 422.18,372.51 425.33,372.51 428.48,372.51 431.64,372.51 434.79,372.51 437.94,372.51 441.09,372.51 444.24,372.51 447.39,372.51 450.55,372.51 453.70,372.51 456.85,372.51 460.00,372.51 463.15,372.51 466.30,372.51 469.45,372.51 472.61,372.51 475.76,372.51 478.91,372.51 482.06,372.51 485.21,372.51 488.36,372.51 491.52,372.51 494.67,372.51 497.82,372.51 500.97,372.51 504.12,372.51 507.27,372.51 510.42,372.51 513.58,372.51 516.73,372.51 519.88,372.51 523.03,372.51 526.18,372.51 529.33,372.51 532.48,372.51 535.64,372.51 538.79,372.51 541.94,372.51 545.09,372.51 548.24,372.51 551.39,372.51 554.55,372.51 557.70,372.51 560.85,372.51 564.00,372.51" /><polyline points="252.00,379.20 255.15,379.20 258.30,379.20 261.45,379.20 264.61,379.20 267.76,379.20 270.91,379.20 274.06,379.20 277.21,379.20 280.36,379.20 283.52,379.20 286.67,379.20 289.82,379.20 292.97,379.20 296.12,379.20 299.27,379.20 302.42,379.20 305.58,379.20 308.73,379.20 311.88,379.20 315.03,379.20 318.18,379.20 321.33,379.20 324.48,379.20 327.64,379.20 330.79,379.20 333.94,379.20 337.09,379.20 340.24,379.20 343.39,379.20 346.55,379.20 349.70,379.20 352.85,379.20 356.00,379.20 359.15,379.20 362.30,379.20 365.45,379.20 368.61,379.20 371.76,379.20 374.91,379.20 378.06,379.20 381.21,379.20 384.36,379.20 387.52,379.20 390.67,379.20 393.82,379.20 396.97,379.20 400.12,379.20 403.27,379.20 406.42,379.20 409.58,379.20 412.73,379.20 415.88,379.20 419.03,379.20 422.18,379.20 425.33,379.20 428.48,379.20 431.64,379.20 434.79,379.20 437.94,379.20 441.09,379.20 444.24,379.20 447.39,379.20 450.55,379.20 453.70,379.20 456.85,379.20 460.00,379.20 463.15,379.20 466.30,379.20 469.45,379.20 472.61,379.20 475.76,379.20 478.91,379.20 482.06,379.20 485.21,379.20 488.36,379.20 491.52,379.20 494.67,379.20 497.82,379.20 500.97,379.20 504.12,379.20 507.27,379.20 510.42,379.20 513.58,379.20 516.73,379.20 519.88,379.20 523.03,379.20 526.18,379.20 529.33,379.20 532.48,379.20 535.64,379.20 538.79,379.20 541.94,379.20 545.09,379.20 548.24,379.20 551.39,379.20 554.55,379.20 557.70,379.20 560.85,379.20 564.00,379.20" /><polyline points="252.00,385.89 255.15,385.89 258.30,385.89 261.45,385.89 264.61,385.89 267.76,385.89 270.91,385.89 274.06,385.89 277.21,385.89 280.36,385.89 283.52,385.89 286.67,385.89 289.82,385.89 292.97,385.89 296.12,385.89 299.27,385.89 302.42,385.89 305.58,385.89 308.73,385.89 311.88,385.89 315.03,385.89 318.18,385.89 321.33,385.89 324.48,385.89 327.64,385.89 330.79,385.89 333.94,385.89 337.09,385.89 340.24,385.89 343.39,385.89 346.55,385.89 349.70,385.89 352.85,385.89 356.00,385.89 359.15,385.89 362.30,385.89 365.45,385.89 368.61,385.89 371.76,385.89 374.91,385.89 378.06,385.89 381.21,385.89 384.36,385.89 387.52,385.89 390.67,385.89 393.82,385.89 396.97,385.89 400.12,385.89 403.27,385.89 406.42,385.89 409.58,385.89 412.73,385.89 415.88,385.89 419.03,385.89 422.18,385.89 425.33,385.89 428.48,385.89 431.64,385.89 434.79,385.89 437.94,385.89 441.09,385.89 444.24,385.89 447.39,385.89 450.55,385.89 453.70,385.89 456.85,385.89 460.00,385.89 463.15,385.89 466.30,385.89 469.45,385.89 472.61,385.89 475.76,385.89 478.91,385.89 482.06,385.89 485.21,385.89 488.36,385.89 491.52,385.89 494.67,385.89 497.82,385.89 500.97,385.89 504.12,385.89 507.27,385.89 510.42,385.89 513.58,385.89 516.73,385.89 519.88,385.89 523.03,385.89 526.18,385.89 529.33,385.89 532.48,385.89 535.64,385.89 538.79,385.89 541.94,385.89 545.09,385.89 548.24,385.89 551.39,385.89 554.55,385.89 557.70,385.89 560.85,385.89 564.00,385.89" /><polyline points="252.00,392.57 255.15,392.57 258.30,392.57 261.45,392.57 264.61,392.57 267.76,392.57 270.91,392.57 274.06,392.57 277.21,392.57 280.36,392.57 283.52,392.57 286.67,392.57 289.82,392.57 292.97,392.57 296.12,392.57 299.27,392.57 302.42,392.57 305.58,392.57 308.73,392.57 311.88,392.57 315.03,392.57 318.18,392.57 321.33,392.57 324.48,392.57 327.64,392.57 330.79,392.57 333.94,392.57 337.09,392.57 340.24,392.57 343.39,392.57 346.55,392.57 349.70,392.57 352.85,392.57 356.00,392.57 359.15,392.57 362.30,392.57 365.45,392.57 368.61,392.57 371.76,392.57 374.91,392.57 378.06,392.57 381.21,392.57 384.36,392.57 387.52,392.57 390.67,392.57 393.82,392.57 396.97,392.57 400.12,392.57 403.27,392.57 406.42,392.57 409.58,392.57 412.73,392.57 415.88,392.57 419.03,392.57 422.18,392.57 425.33,392.57 428.48,392.57 431.64,392.57 434.79,392.57 437.94,392.57 441.09,392.57 444.24,392.57 447.39,392.57 450.55,392.57 453.70,392.57 456.85,392.57 460.00,392.57 463.15,392.57 466.30,392.57 469.45,392.57 472.61,392.57 475.76,392.57 478.91,392.57 482.06,392.57 485.21,392.57 488.36,392.57 491.52,392.57 494.67,392.57 497.82,392.57 500.97,392.57 504.12,392.57 507.27,392.57 510.42,392.57 513.58,392.57 516.73,392.57 519.88,392.57 523.03,392.57 526.18,392.57 529.33,392.57 532.48,392.57 535.64,392.57 538.79,392.57 541.94,392.57 545.09,392.57 548.24,392.57 551.39,392.57 554.55,392.57 557.70,392.57 560.85,392.57 564.00,392.57" /><polyline points="252.00,399.26 255.15,399.26 258.30,399.26 261.45,399.26 264.61,399.26 267.76,399.26 270.91,399.26 274.06,399.26 277.21,399.26 280.36,399.26 283.52,399.26 286.67,399.26 289.82,399.26 292.97,399.26 296.12,399.26 299.27,399.26 302.42,399.26 305.58,399.26 308.73,399.26 311.88,399.26 315.03,399.26 318.18,399.26 321.33,399.26 324.48,399.26 327.64,399.26 330.79,399.26 333.94,399.26 337.09,399.26 340.24,399.26 343.39,399.26 346.55,399.26 349.70,399.26 352.85,399.26 356.00,399.26 359.15,399.26 362.30,399.26 365.45,399.26 368.61,399.26 371.76,399.26 374.91,399.26 378.06,399.26 381.21,399.26 384.36,399.26 387.52,399.26 390.67,399.26 393.82,399.26 396.97,399.26 400.12,399.26 403.27,399.26 406.42,399.26 409.58,399.26 412.73,399.26 415.88,399.26 419.03,399.26 422.18,399.26 425.33,399.26 428.48,399.26 431.64,399.26 434.79,399.26 437.94,399.26 441.09,399.26 444.24,399.26 447.39,399.26 450.55,399.26 453.70,399.26 456.85,399.26 460.00,399.26 463.15,399.26 466.30,399.26 469.45,399.26 472.61,399.26 475.76,399.26 478.91,399.26 482.06,399.26 485.21,399.26 488.36,399.26 491.52,399.26 494.67,399.26 497.82,399.26 500.97,399.26 504.12,399.26 507.27,399.26 510.42,399.26 513.58,399.26 516.73,399.26 519.88,399.26 523.03,399.26 526.18,399.26 529.33,399.26 532.48,399.26 535.64,399.26 538.79,399.26 541.94,399.26 545.09,399.26 548.24,399.26 551.39,399.26 554.55,399.26 557.70,399.26 560.85,399.26 564.00,399.26" /><polyline points="252.00,405.95 255.15,405.95 258.30,405.95 261.45,405.95 264.61,405.95 267.76,405.95 270.91,405.95 274.06,405.95 277.21,405.95 280.36,405.95 283.52,405.95 286.67,405.95 289.82,405.95 292.97,405.95 296.12,405.95 299.27,405.95 302.42,405.95 305.58,405.95 308.73,405.95 311.88,405.95 315.03,405.95 318.18,405.95 321.33,405.95 324.48,405.95 327.64,405.95 330.79,405.95 333.94,405.95 337.09,405.95 340.24,405.95 343.39,405.95 346.55,405.95 349.70,405.95 352.85,405.95 356.00,405.95 359.15,405.95 362.30,405.95 365.45,405.95 368.61,405.95 371.76,405.95 374.91,405.95 378.06,405.95 381.21,405.95 384.36,405.95 387.52,405.95 390.67,405.95 393.82,405.95 396.97,405.95 400.12,405.95 403.27,405.95 406.42,405.95 409.58,405.95 412.73,405.95 415.88,405.95 419.03,405.95 422.18,405.95 425.33,405.95 428.48,405.95 431.64,405.95 434.79,405.95 437.94,405.95 441.09,405.95 444.24,405.95 447.39,405.95 450.55,405.95 453.70,405.95 456.85,405.95 460.00,405.95 463.15,405.95 466.30,405.95 469.45,405.95 472.61,405.95 475.76,405.95 478.91,405.95 482.06,405.95 485.21,405.95 488.36,405.95 491.52,405.95 494.67,405.95 497.82,405.95 500.97,405.95 504.12,405.95 507.27,405.95 510.42,405.95 513.58,405.95 516.73,405.95 519.88,405.95 523.03,405.95 526.18,405.95 529.33,405.95 532.48,405.95 535.64,405.95 538.79,405.95 541.94,405.95 545.09,405.95 548.24,405.95 551.39,405.95 554.55,405.95 557.70,405.95 560.85,405.95 564.00,405.95" /><polyline points="252.00,412.64 255.15,412.64 258.30,412.64 261.45,412.64 264.61,412.64 267.76,412.64 270.91,412.64 274.06,412.64 277.21,412.64 280.36,412.64 283.52,412.64 286.67,412.64 289.82,412.64 292.97,412.64 296.12,412.64 299.27,412.64 302.42,412.64 305.58,412.64 308.73,412.64 311.88,412.64 315.03,412.64 318.18,412.64 321.33,412.64 324.48,412.64 327.64,412.64 330.79,412.64 333.94,412.64 337.09,412.64 340.24,412.64 343.39,412.64 346.55,412.64 349.70,412.64 352.85,412.64 356.00,412.64 359.15,412.64 362.30,412.64 365.45,412.64 368.61,412.64 371.76,412.64 374.91,412.64 378.06,412.64 381.21,412.64 384.36,412.64 387.52,412.64 390.67,412.64 393.82,412.64 396.97,412.64 400.12,412.64 403.27,412.64 406.42,412.64 409.58,412.64 412.73,412.64 415.88,412.64 419.03,412.64 422.18,412.64 425.33,412.64 428.48,412.64 431.64,412.64 434.79,412.64 437.94,412.64 441.09,412.64 444.24,412.64 447.39,412.64 450.55,412.64 453.70,412.64 456.85,412.64 460.00,412.64 463.15,412.64 466.30,412.64 469.45,412.64 472.61,412.64 475.76,412.64 478.91,412.64 482.06,412.64 485.21,412.64 488.36,412.64 491.52,412.64 494.67,412.64 497.82,412.64 500.97,412.64 504.12,412.64 507.27,412.64 510.42,412.64 513.58,412.64 516.73,412.64 519.88,412.64 523.03,412.64 526.18,412.64 529.33,412.64 532.48,412.64 535.64,412.64 538.79,412.64 541.94,412.64 545.09,412.64 548.24,412.64 551.39,412.64 554.55,412.64 557.70,412.64 560.85,412.64 564.00,412.64" /><polyline points="252.00,419.33 255.15,419.33 258.30,419.33 261.45,419.33 264.61,419.33 267.76,419.33 270.91,419.33 274.06,419.33 277.21,419.33 280.36,419.33 283.52,419.33 286.67,419.33 289.82,419.33 292.97,419.33 296.12,419.33 299.27,419.33 302.42,419.33 305.58,419.33 308.73,419.33 311.88,419.33 315.03,419.33 318.18,419.33 321.33,419.33 324.48,419.33 327.64,419.33 330.79,419.33 333.94,419.33 337.09,419.33 340.24,419.33 343.39,419.33 346.55,419.33 349.70,419.33 352.85,419.33 356.00,419.33 359.15,419.33 362.30,419.33 365.45,419.33 368.61,419.33 371.76,419.33 374.91,419.33 378.06,419.33 381.21,419.33 384.36,419.33 387.52,419.33 390.67,419.33 393.82,419.33 396.97,419.33 400.12,419.33 403.27,419.33 406.42,419.33 409.58,419.33 412.73,419.33 415.88,419.33 419.03,419.33 422.18,419.33 425.33,419.33 428.48,419.33 431.64,419.33 434.79,419.33 437.94,419.33 441.09,419.33 444.24,419.33 447.39,419.33 450.55,419.33 453.70,419.33 456.85,419.33 460.00,419.33 463.15,419.33 466.30,419.33 469.45,419.33 472.61,419.33 475.76,419.33 478.91,419.33 482.06,419.33 485.21,419.33 488.36,419.33 491.52,419.33 494.67,419.33 497.82,419.33 500.97,419.33 504.12,419.33 507.27,419.33 510.42,419.33 513.58,419.33 516.73,419.33 519.88,419.33 523.03,419.33 526.18,419.33 529.33,419.33 532.48,419.33 535.64,419.33 538.79,419.33 541.94,419.33 545.09,419.33 548.24,419.33 551.39,419.33 554.55,419.33 557.70,419.33 560.85,419.33 564.00,419.33" /><polyline points="252.00,426.02 255.15,426.08 258.30,426.14 261.45,426.19 264.61,426.23 267.76,426.27 270.91,426.29 274.06,426.30 277.21,426.29 280.36,426.27 283.52,426.24 286.67,426.19 289.82,426.14 292.97,426.08 296.12,426.02 299.27,425.96 302.42,425.90 305.58,425.84 308.73,425.80 311.88,425.77 315.03,425.75 318.18,425.74 321.33,425.74 324.48,425.76 327.64,425.80 330.79,425.84 333.94,425.89 337.09,425.95 340.24,426.01 343.39,426.07 346.55,426.13 349.70,426.19 352.85,426.23 356.00,426.27 359.15,426.29 362.30,426.30 365.45,426.29 368.61,426.27 371.76,426.24 374.91,426.19 378.06,426.14 381.21,426.08 384.36,426.02 387.52,425.96 390.67,425.90 393.82,425.85 396.97,425.80 400.12,425.77 403.27,425.75 406.42,425.74 409.58,425.74 412.73,425.76 415.88,425.79 419.03,425.84 422.18,425.89 425.33,425.95 428.48,426.01 431.64,426.07 434.79,426.13 437.94,426.18 441.09,426.23 444.24,426.26 447.39,426.29 450.55,426.29 453.70,426.29 456.85,426.27 460.00,426.24 463.15,426.20 466.30,426.15 469.45,426.09 472.61,426.03 475.76,425.96 478.91,425.90 482.06,425.85 485.21,425.80 488.36,425.77 491.52,425.75 494.67,425.74 497.82,425.74 500.97,425.76 504.12,425.79 507.27,425.83 510.42,425.89 513.58,425.94 516.73,426.01 519.88,426.07 523.03,426.13 526.18,426.18 529.33,426.23 532.48,426.26 535.64,426.29 538.79,426.29 541.94,426.29 545.09,426.27 548.24,426.24 551.39,426.20 554.55,426.15 557.70,426.09 560.85,426.03 564.00,425.97" /><polyline points="252.00,432.56 255.15,432.68 258.30,432.80 261.45,432.91 264.61,433.02 267.76,433.10 270.91,433.16 274.06,433.20 277.21,433.20 280.36,433.17 283.52,433.12 286.67,433.04 289.82,432.94 292.97,432.82 296.12,432.70 299.27,432.58 302.42,432.47 305.58,432.37 308.73,432.29 311.88,432.24 315.03,432.21 318.18,432.22 321.33,432.25 324.48,432.31 327.64,432.40 330.79,432.50 333.94,432.62 337.09,432.74 340.24,432.86 343.39,432.97 346.55,433.06 349.70,433.14 352.85,433.18 356.00,433.20 359.15,433.19 362.30,433.15 365.45,433.08 368.61,432.99 371.76,432.88 374.91,432.76 378.06,432.64 381.21,432.52 384.36,432.41 387.52,432.32 390.67,432.26 393.82,432.22 396.97,432.21 400.12,432.23 403.27,432.28 406.42,432.35 409.58,432.45 412.73,432.56 415.88,432.68 419.03,432.80 422.18,432.92 425.33,433.02 428.48,433.11 431.64,433.16 434.79,433.20 437.94,433.20 441.09,433.17 444.24,433.11 447.39,433.03 450.55,432.93 453.70,432.82 456.85,432.70 460.00,432.58 463.15,432.46 466.30,432.36 469.45,432.29 472.61,432.23 475.76,432.21 478.91,432.22 482.06,432.25 485.21,432.31 488.36,432.40 491.52,432.51 494.67,432.62 497.82,432.74 500.97,432.86 504.12,432.97 507.27,433.07 510.42,433.14 513.58,433.18 516.73,433.20 519.88,433.19 523.03,433.14 526.18,433.07 529.33,432.98 532.48,432.87 535.64,432.76 538.79,432.63 541.94,432.52 545.09,432.41 548.24,432.32 551.39,432.26 554.55,432.22 557.70,432.21 560.85,432.23 564.00,432.28" /><polyline points="252.00,440.60 255.15,440.69 258.30,440.73 261.45,440.74 264.61,440.70 267.76,440.63 270.91,440.51 274.06,440.37 277.21,440.19 280.36,439.98 283.52,439.76 286.67,439.53 289.82,439.29 292.97,439.06 296.12,438.84 299.27,438.63 302.42,438.45 305.58,438.29 308.73,438.17 311.88,438.09 315.03,438.05 318.18,438.05 321.33,438.09 324.48,438.17 327.64,438.29 330.79,438.44 333.94,438.62 337.09,438.83 340.24,439.05 343.39,439.29 346.55,439.52 349.70,439.76 352.85,439.98 356.00,440.18 359.15,440.36 362.30,440.51 365.45,440.63 368.61,440.70 371.76,440.74 374.91,440.73 378.06,440.69 381.21,440.60 384.36,440.48 387.52,440.32 390.67,440.14 393.82,439.93 396.97,439.70 400.12,439.47 403.27,439.23 406.42,439.00 409.58,438.78 412.73,438.58 415.88,438.41 419.03,438.26 422.18,438.15 425.33,438.08 428.48,438.05 431.64,438.06 434.79,438.11 437.94,438.20 441.09,438.33 444.24,438.49 447.39,438.68 450.55,438.89 453.70,439.11 456.85,439.35 460.00,439.58 463.15,439.81 466.30,440.03 469.45,440.23 472.61,440.40 475.76,440.54 478.91,440.65 482.06,440.72 485.21,440.74 488.36,440.73 491.52,440.67 494.67,440.57 497.82,440.44 500.97,440.28 504.12,440.09 507.27,439.87 510.42,439.64 513.58,439.41 516.73,439.17 519.88,438.94 523.03,438.73 526.18,438.53 529.33,438.37 532.48,438.23 535.64,438.13 538.79,438.07 541.94,438.04 545.09,438.07 548.24,438.13 551.39,438.23 554.55,438.36 557.70,438.53 560.85,438.73 564.00,438.94" /><polyline points="252.00,445.50 255.15,445.39 258.30,445.33 261.45,445.34 264.61,445.40 267.76,445.51 270.91,445.67 274.06,445.86 277.21,446.07 280.36,446.28 283.52,446.48 286.67,446.64 289.82,446.76 292.97,446.83 296.12,446.83 299.27,446.78 302.42,446.67 305.58,446.52 308.73,446.33 311.88,446.12 315.03,445.91 318.18,445.71 321.33,445.54 324.48,445.42 327.64,445.34 330.79,445.33 333.94,445.37 337.09,445.48 340.24,445.63 343.39,445.81 346.55,446.02 349.70,446.23 352.85,446.43 356.00,446.60 359.15,446.73 362.30,446.81 365.45,446.84 368.61,446.80 371.76,446.70 374.91,446.56 378.06,446.38 381.21,446.17 384.36,445.96 387.52,445.76 390.67,445.58 393.82,445.44 396.97,445.36 400.12,445.33 403.27,445.36 406.42,445.44 409.58,445.58 412.73,445.76 415.88,445.96 419.03,446.17 422.18,446.38 425.33,446.56 428.48,446.70 431.64,446.80 434.79,446.84 437.94,446.81 441.09,446.73 444.24,446.60 447.39,446.43 450.55,446.23 453.70,446.02 456.85,445.81 460.00,445.63 463.15,445.48 466.30,445.38 469.45,445.33 472.61,445.34 475.76,445.42 478.91,445.54 482.06,445.71 485.21,445.91 488.36,446.12 491.52,446.33 494.67,446.51 497.82,446.67 500.97,446.78 504.12,446.83 507.27,446.83 510.42,446.76 513.58,446.64 516.73,446.48 519.88,446.29 523.03,446.07 526.18,445.87 529.33,445.67 532.48,445.51 535.64,445.40 538.79,445.34 541.94,445.33 545.09,445.39 548.24,445.50 551.39,445.66 554.55,445.85 557.70,446.06 560.85,446.27 564.00,446.47" /><polyline points="252.00,451.71 255.15,451.37 258.30,451.06 261.45,450.80 264.61,450.59 267.76,450.43 270.91,450.33 274.06,450.29 277.21,450.32 280.36,450.41 283.52,450.55 286.67,450.76 289.82,451.01 292.97,451.31 296.12,451.64 299.27,452.01 302.42,452.39 305.58,452.78 308.73,453.17 311.88,453.56 315.03,453.92 318.18,454.25 321.33,454.55 324.48,454.80 327.64,455.00 330.79,455.14 333.94,455.23 337.09,455.25 340.24,455.21 343.39,455.11 346.55,454.95 349.70,454.73 352.85,454.47 356.00,454.16 359.15,453.82 362.30,453.45 365.45,453.06 368.61,452.67 371.76,452.28 374.91,451.90 378.06,451.54 381.21,451.22 384.36,450.93 387.52,450.69 390.67,450.50 393.82,450.37 396.97,450.30 400.12,450.30 403.27,450.35 406.42,450.47 409.58,450.64 412.73,450.87 415.88,451.14 419.03,451.46 422.18,451.81 425.33,452.18 428.48,452.57 431.64,452.97 434.79,453.35 437.94,453.73 441.09,454.08 444.24,454.39 447.39,454.67 450.55,454.90 453.70,455.07 456.85,455.19 460.00,455.24 463.15,455.24 466.30,455.17 469.45,455.04 472.61,454.85 475.76,454.61 478.91,454.33 482.06,454.00 485.21,453.64 488.36,453.27 491.52,452.88 494.67,452.48 497.82,452.10 500.97,451.73 504.12,451.38 507.27,451.08 510.42,450.81 513.58,450.60 516.73,450.44 519.88,450.33 523.03,450.29 526.18,450.32 529.33,450.40 532.48,450.54 535.64,450.74 538.79,450.99 541.94,451.29 545.09,451.62 548.24,451.98 551.39,452.37 554.55,452.76 557.70,453.15 560.85,453.53 564.00,453.90" /><polyline points="252.00,460.75 255.15,460.74 258.30,460.64 261.45,460.44 264.61,460.17 267.76,459.84 270.91,459.48 274.06,459.13 277.21,458.79 280.36,458.51 283.52,458.30 286.67,458.18 289.82,458.16 292.97,458.24 296.12,458.41 299.27,458.66 302.42,458.97 305.58,459.32 308.73,459.68 311.88,460.02 315.03,460.32 318.18,460.55 321.33,460.71 324.48,460.76 327.64,460.72 330.79,460.58 333.94,460.35 337.09,460.06 340.24,459.72 343.39,459.36 346.55,459.01 349.70,458.69 352.85,458.43 356.00,458.25 359.15,458.16 362.30,458.18 365.45,458.28 368.61,458.48 371.76,458.76 374.91,459.08 378.06,459.44 381.21,459.80 384.36,460.13 387.52,460.41 390.67,460.62 393.82,460.74 396.97,460.76 400.12,460.68 403.27,460.51 406.42,460.26 409.58,459.95 412.73,459.60 415.88,459.24 419.03,458.90 422.18,458.60 425.33,458.36 428.48,458.21 431.64,458.16 434.79,458.20 437.94,458.34 441.09,458.57 444.24,458.86 447.39,459.20 450.55,459.56 453.70,459.91 456.85,460.23 460.00,460.49 463.15,460.67 466.30,460.75 469.45,460.74 472.61,460.63 475.76,460.43 478.91,460.16 482.06,459.83 485.21,459.48 488.36,459.12 491.52,458.79 494.67,458.51 497.82,458.30 500.97,458.18 504.12,458.16 507.27,458.24 510.42,458.41 513.58,458.66 516.73,458.97 519.88,459.32 523.03,459.68 526.18,460.03 529.33,460.32 532.48,460.56 535.64,460.71 538.79,460.76 541.94,460.72 545.09,460.57 548.24,460.35 551.39,460.05 554.55,459.71 557.70,459.35 560.85,459.00 564.00,458.69" /><polyline points="252.00,464.66 255.15,465.17 258.30,465.70 261.45,466.26 264.61,466.81 267.76,467.33 270.91,467.82 274.06,468.25 277.21,468.60 280.36,468.88 283.52,469.06 286.67,469.14 289.82,469.12 292.97,469.00 296.12,468.78 299.27,468.47 302.42,468.09 305.58,467.63 308.73,467.13 311.88,466.59 315.03,466.04 318.18,465.49 321.33,464.97 324.48,464.48 327.64,464.05 330.79,463.69 333.94,463.42 337.09,463.24 340.24,463.15 343.39,463.17 346.55,463.29 349.70,463.51 352.85,463.82 356.00,464.21 359.15,464.66 362.30,465.16 365.45,465.70 368.61,466.25 371.76,466.80 374.91,467.33 378.06,467.81 381.21,468.24 384.36,468.60 387.52,468.88 390.67,469.06 393.82,469.14 396.97,469.12 400.12,469.00 403.27,468.78 406.42,468.48 409.58,468.09 412.73,467.64 415.88,467.13 419.03,466.60 422.18,466.05 425.33,465.50 428.48,464.97 431.64,464.48 434.79,464.05 437.94,463.69 441.09,463.42 444.24,463.24 447.39,463.15 450.55,463.17 453.70,463.29 456.85,463.51 460.00,463.82 463.15,464.20 466.30,464.66 469.45,465.16 472.61,465.70 475.76,466.25 478.91,466.80 482.06,467.32 485.21,467.81 488.36,468.24 491.52,468.60 494.67,468.87 497.82,469.06 500.97,469.14 504.12,469.12 507.27,469.00 510.42,468.79 513.58,468.48 516.73,468.09 519.88,467.64 523.03,467.14 526.18,466.60 529.33,466.05 532.48,465.50 535.64,464.97 538.79,464.49 541.94,464.06 545.09,463.70 548.24,463.42 551.39,463.24 554.55,463.15 557.70,463.17 560.85,463.29 564.00,463.51" /><polyline points="252.00,472.94 255.15,473.56 258.30,474.13 261.45,474.64 264.61,475.04 267.76,475.32 270.91,475.47 274.06,475.47 277.21,475.33 280.36,475.05 283.52,474.65 286.67,474.14 289.82,473.57 292.97,472.96 296.12,472.33 299.27,471.74 302.42,471.21 305.58,470.77 308.73,470.44 311.88,470.24 315.03,470.18 318.18,470.28 321.33,470.51 324.48,470.87 327.64,471.34 330.79,471.89 333.94,472.49 337.09,473.11 340.24,473.72 343.39,474.28 346.55,474.76 349.70,475.13 352.85,475.38 356.00,475.49 359.15,475.45 362.30,475.26 365.45,474.95 368.61,474.51 371.76,473.99 374.91,473.40 378.06,472.78 381.21,472.17 384.36,471.59 387.52,471.07 390.67,470.66 393.82,470.37 396.97,470.21 400.12,470.19 403.27,470.33 406.42,470.60 409.58,470.99 412.73,471.48 415.88,472.05 419.03,472.67 422.18,473.29 425.33,473.88 428.48,474.42 431.64,474.87 434.79,475.21 437.94,475.42 441.09,475.49 444.24,475.41 447.39,475.19 450.55,474.84 453.70,474.38 456.85,473.83 460.00,473.23 463.15,472.61 466.30,472.00 469.45,471.44 472.61,470.95 475.76,470.57 478.91,470.31 482.06,470.19 485.21,470.22 488.36,470.39 491.52,470.69 494.67,471.12 497.82,471.64 500.97,472.22 504.12,472.84 507.27,473.46 510.42,474.04 513.58,474.56 516.73,474.98 519.88,475.29 523.03,475.46 526.18,475.48 529.33,475.36 532.48,475.10 535.64,474.72 538.79,474.23 541.94,473.67 545.09,473.06 548.24,472.44 551.39,471.84 554.55,471.29 557.70,470.83 560.85,470.48 564.00,470.26" /><polyline points="252.00,479.23 255.15,479.87 258.30,480.49 261.45,481.05 264.61,481.54 267.76,481.91 270.91,482.15 274.06,482.24 277.21,482.18 280.36,481.98 283.52,481.64 286.67,481.18 289.82,480.63 292.97,480.02 296.12,479.39 299.27,478.76 302.42,478.17 305.58,477.66 308.73,477.25 311.88,476.97 315.03,476.82 318.18,476.83 321.33,476.99 324.48,477.29 327.64,477.71 330.79,478.23 333.94,478.82 337.09,479.45 340.24,480.09 343.39,480.70 346.55,481.24 349.70,481.68 352.85,482.01 356.00,482.20 359.15,482.24 362.30,482.13 365.45,481.87 368.61,481.49 371.76,481.00 374.91,480.42 378.06,479.80 381.21,479.16 384.36,478.54 387.52,477.98 390.67,477.50 393.82,477.13 396.97,476.90 400.12,476.81 403.27,476.87 406.42,477.08 409.58,477.42 412.73,477.88 415.88,478.43 419.03,479.04 422.18,479.68 425.33,480.31 428.48,480.90 431.64,481.41 434.79,481.81 437.94,482.09 441.09,482.23 444.24,482.22 447.39,482.05 450.55,481.75 453.70,481.33 456.85,480.80 460.00,480.21 463.15,479.58 466.30,478.94 469.45,478.34 472.61,477.80 475.76,477.36 478.91,477.03 482.06,476.85 485.21,476.81 488.36,476.93 491.52,477.18 494.67,477.57 497.82,478.07 500.97,478.64 504.12,479.27 507.27,479.91 510.42,480.52 513.58,481.09 516.73,481.56 519.88,481.93 523.03,482.16 526.18,482.24 529.33,482.18 532.48,481.96 535.64,481.62 538.79,481.15 541.94,480.60 545.09,479.99 548.24,479.35 551.39,478.72 554.55,478.14 557.70,477.63 560.85,477.23 564.00,476.95" /><polyline points="252.00,489.22 255.15,489.80 258.30,490.26 261.45,490.59 264.61,490.77 267.76,490.79 270.91,490.66 274.06,490.38 277.21,489.96 280.36,489.41 283.52,488.75 286.67,488.01 289.82,487.20 292.97,486.37 296.12,485.52 299.27,484.70 302.42,483.94 305.58,483.24 308.73,482.65 311.88,482.18 315.03,481.85 318.18,481.66 321.33,481.63 324.48,481.75 327.64,482.03 330.79,482.44 333.94,482.99 337.09,483.64 340.24,484.38 343.39,485.18 346.55,486.02 349.70,486.86 352.85,487.68 356.00,488.45 359.15,489.15 362.30,489.74 365.45,490.22 368.61,490.56 371.76,490.76 374.91,490.80 378.06,490.68 381.21,490.42 384.36,490.01 387.52,489.47 390.67,488.82 393.82,488.09 396.97,487.29 400.12,486.46 403.27,485.61 406.42,484.79 409.58,484.01 412.73,483.31 415.88,482.71 419.03,482.23 422.18,481.88 425.33,481.68 428.48,481.63 431.64,481.73 434.79,481.99 437.94,482.39 441.09,482.92 444.24,483.56 447.39,484.30 450.55,485.09 453.70,485.93 456.85,486.77 460.00,487.59 463.15,488.37 466.30,489.08 469.45,489.68 472.61,490.18 475.76,490.53 478.91,490.74 482.06,490.80 485.21,490.70 488.36,490.45 491.52,490.06 494.67,489.53 497.82,488.90 500.97,488.17 504.12,487.38 507.27,486.55 510.42,485.70 513.58,484.88 516.73,484.09 519.88,483.39 523.03,482.77 526.18,482.27 529.33,481.91 532.48,481.69 535.64,481.63 538.79,481.72 541.94,481.96 545.09,482.34 548.24,482.86 551.39,483.49 554.55,484.21 557.70,485.00 560.85,485.83 564.00,486.68" /><polyline points="252.00,490.67 255.15,490.65 258.30,490.80 261.45,491.11 264.61,491.56 267.76,492.11 270.91,492.72 274.06,493.34 277.21,493.93 280.36,494.45 283.52,494.84 286.67,495.09 289.82,495.16 292.97,495.07 296.12,494.81 299.27,494.40 302.42,493.88 305.58,493.28 308.73,492.66 311.88,492.05 315.03,491.51 318.18,491.07 321.33,490.78 324.48,490.65 327.64,490.69 330.79,490.90 333.94,491.26 337.09,491.75 340.24,492.33 343.39,492.95 346.55,493.57 349.70,494.13 352.85,494.61 356.00,494.95 359.15,495.13 362.30,495.15 365.45,494.99 368.61,494.67 371.76,494.22 374.91,493.67 378.06,493.05 381.21,492.43 384.36,491.84 387.52,491.33 390.67,490.95 393.82,490.71 396.97,490.64 400.12,490.74 403.27,491.01 406.42,491.43 409.58,491.95 412.73,492.55 415.88,493.18 419.03,493.78 422.18,494.32 425.33,494.75 428.48,495.04 431.64,495.16 434.79,495.11 437.94,494.89 441.09,494.52 444.24,494.03 447.39,493.45 450.55,492.82 453.70,492.21 456.85,491.64 460.00,491.18 463.15,490.84 466.30,490.66 469.45,490.66 472.61,490.82 475.76,491.15 478.91,491.61 482.06,492.17 485.21,492.78 488.36,493.40 491.52,493.99 494.67,494.49 497.82,494.87 500.97,495.10 504.12,495.16 507.27,495.05 510.42,494.77 513.58,494.35 516.73,493.82 519.88,493.22 523.03,492.59 526.18,491.99 529.33,491.46 532.48,491.04 535.64,490.76 538.79,490.64 541.94,490.70 545.09,490.93 548.24,491.30 551.39,491.80 554.55,492.39 557.70,493.01 560.85,493.63 564.00,494.19" /><polyline points="252.00,500.30 255.15,499.32 258.30,498.35 261.45,497.41 264.61,496.53 267.76,495.72 270.91,495.01 274.06,494.41 277.21,493.95 280.36,493.63 283.52,493.46 286.67,493.44 289.82,493.58 292.97,493.87 296.12,494.30 299.27,494.87 302.42,495.55 305.58,496.34 308.73,497.21 311.88,498.14 315.03,499.10 318.18,500.08 321.33,501.05 324.48,501.98 327.64,502.85 330.79,503.63 333.94,504.32 337.09,504.88 340.24,505.32 343.39,505.61 346.55,505.74 349.70,505.72 352.85,505.55 356.00,505.23 359.15,504.76 362.30,504.17 365.45,503.46 368.61,502.65 371.76,501.76 374.91,500.82 378.06,499.85 381.21,498.88 384.36,497.92 387.52,497.00 390.67,496.15 393.82,495.38 396.97,494.72 400.12,494.18 403.27,493.78 406.42,493.53 409.58,493.43 412.73,493.48 415.88,493.69 419.03,494.05 422.18,494.54 425.33,495.16 428.48,495.90 431.64,496.73 434.79,497.63 437.94,498.57 441.09,499.55 444.24,500.53 447.39,501.48 450.55,502.38 453.70,503.22 456.85,503.96 460.00,504.59 463.15,505.10 466.30,505.47 469.45,505.69 472.61,505.75 475.76,505.66 478.91,505.42 482.06,505.03 485.21,504.51 488.36,503.86 491.52,503.10 494.67,502.25 497.82,501.34 500.97,500.38 504.12,499.41 507.27,498.44 510.42,497.49 513.58,496.60 516.73,495.79 519.88,495.07 523.03,494.46 526.18,493.98 529.33,493.65 532.48,493.46 535.64,493.43 538.79,493.56 541.94,493.83 545.09,494.25 548.24,494.81 551.39,495.49 554.55,496.27 557.70,497.13 560.85,498.05 564.00,499.02" /><polyline points="252.00,508.78 255.15,508.40 258.30,507.85 261.45,507.18 264.61,506.43 267.76,505.68 270.91,504.97 274.06,504.36 277.21,503.91 280.36,503.64 283.52,503.58 286.67,503.74 289.82,504.09 292.97,504.62 296.12,505.28 299.27,506.02 302.42,506.78 305.58,507.50 308.73,508.12 311.88,508.60 315.03,508.89 318.18,508.98 321.33,508.85 324.48,508.53 327.64,508.02 330.79,507.38 333.94,506.65 337.09,505.89 340.24,505.16 343.39,504.52 346.55,504.02 349.70,503.70 352.85,503.58 356.00,503.67 359.15,503.97 362.30,504.46 365.45,505.08 368.61,505.81 371.76,506.56 374.91,507.30 378.06,507.96 381.21,508.48 384.36,508.83 387.52,508.98 390.67,508.91 393.82,508.64 396.97,508.18 400.12,507.57 403.27,506.86 406.42,506.10 409.58,505.36 412.73,504.69 415.88,504.14 419.03,503.77 422.18,503.59 425.33,503.62 428.48,503.87 431.64,504.30 434.79,504.89 437.94,505.60 441.09,506.35 444.24,507.10 447.39,507.78 450.55,508.35 453.70,508.75 456.85,508.96 460.00,508.95 463.15,508.74 466.30,508.33 469.45,507.75 472.61,507.07 475.76,506.32 478.91,505.56 482.06,504.87 485.21,504.28 488.36,503.85 491.52,503.62 494.67,503.59 497.82,503.78 500.97,504.16 504.12,504.71 507.27,505.39 510.42,506.13 513.58,506.89 516.73,507.60 519.88,508.20 523.03,508.65 526.18,508.92 529.33,508.97 532.48,508.82 535.64,508.46 538.79,507.93 541.94,507.27 545.09,506.53 548.24,505.77 551.39,505.05 554.55,504.43 557.70,503.96 560.85,503.66 564.00,503.58" /><polyline points="252.00,520.47 255.15,521.56 258.30,522.53 261.45,523.32 264.61,523.90 267.76,524.22 270.91,524.27 274.06,524.04 277.21,523.54 280.36,522.81 283.52,521.89 286.67,520.84 289.82,519.72 292.97,518.59 296.12,517.52 299.27,516.59 302.42,515.84 305.58,515.31 308.73,515.06 311.88,515.07 315.03,515.37 318.18,515.92 321.33,516.69 324.48,517.65 327.64,518.72 330.79,519.85 333.94,520.97 337.09,522.01 340.24,522.91 343.39,523.62 346.55,524.08 349.70,524.28 352.85,524.20 356.00,523.84 359.15,523.24 362.30,522.42 365.45,521.43 368.61,520.33 371.76,519.20 374.91,518.09 378.06,517.08 381.21,516.22 384.36,515.57 387.52,515.16 390.67,515.03 393.82,515.17 396.97,515.59 400.12,516.24 403.27,517.11 406.42,518.12 409.58,519.23 412.73,520.37 415.88,521.46 419.03,522.44 422.18,523.26 425.33,523.86 428.48,524.20 431.64,524.28 434.79,524.07 437.94,523.60 441.09,522.89 444.24,521.98 447.39,520.94 450.55,519.82 453.70,518.69 456.85,517.62 460.00,516.67 463.15,515.90 466.30,515.35 469.45,515.07 472.61,515.06 475.76,515.33 478.91,515.86 482.06,516.61 485.21,517.55 488.36,518.62 491.52,519.75 494.67,520.87 497.82,521.92 500.97,522.84 504.12,523.56 507.27,524.05 510.42,524.27 513.58,524.22 516.73,523.89 519.88,523.30 523.03,522.50 526.18,521.52 529.33,520.44 532.48,519.30 535.64,518.19 538.79,517.17 541.94,516.29 545.09,515.62 548.24,515.19 551.39,515.03 554.55,515.15 557.70,515.54 560.85,516.17 564.00,517.02" /><polyline points="252.00,535.42 255.15,536.47 258.30,537.38 261.45,538.14 264.61,538.70 267.76,539.06 270.91,539.18 274.06,539.08 277.21,538.75 280.36,538.20 283.52,537.46 286.67,536.56 289.82,535.52 292.97,534.39 296.12,533.21 299.27,532.03 302.42,530.88 305.58,529.81 308.73,528.86 311.88,528.07 315.03,527.46 318.18,527.06 321.33,526.89 324.48,526.95 327.64,527.23 330.79,527.73 333.94,528.43 337.09,529.31 340.24,530.32 343.39,531.43 346.55,532.61 349.70,533.80 352.85,534.96 356.00,536.05 359.15,537.02 362.30,537.85 365.45,538.50 368.61,538.94 371.76,539.16 374.91,539.15 378.06,538.91 381.21,538.45 384.36,537.79 387.52,536.95 390.67,535.96 393.82,534.87 396.97,533.70 400.12,532.51 403.27,531.34 406.42,530.24 409.58,529.23 412.73,528.37 415.88,527.69 419.03,527.20 422.18,526.93 425.33,526.90 428.48,527.09 431.64,527.50 434.79,528.12 437.94,528.93 441.09,529.89 444.24,530.96 447.39,532.12 450.55,533.31 453.70,534.49 456.85,535.61 460.00,536.64 463.15,537.53 466.30,538.25 469.45,538.78 472.61,539.09 475.76,539.18 478.91,539.04 482.06,538.67 485.21,538.09 488.36,537.32 491.52,536.39 494.67,535.33 497.82,534.19 500.97,533.00 504.12,531.82 507.27,530.68 510.42,529.63 513.58,528.71 516.73,527.95 519.88,527.38 523.03,527.02 526.18,526.88 529.33,526.98 532.48,527.30 535.64,527.84 538.79,528.58 541.94,529.48 545.09,530.51 548.24,531.64 551.39,532.82 554.55,534.00 557.70,535.16 560.85,536.23 564.00,537.18" /><polyline points="252.00,536.99 255.15,537.31 258.30,537.82 261.45,538.46 264.61,539.20 267.76,539.97 270.91,540.72 274.06,541.41 277.21,541.96 280.36,542.36 283.52,542.56 286.67,542.55 289.82,542.34 292.97,541.94 296.12,541.37 299.27,540.68 302.42,539.92 305.58,539.15 308.73,538.42 311.88,537.78 315.03,537.29 318.18,536.97 321.33,536.86 324.48,536.95 327.64,537.25 330.79,537.73 333.94,538.35 337.09,539.07 340.24,539.84 343.39,540.60 346.55,541.30 349.70,541.88 352.85,542.31 356.00,542.54 359.15,542.57 362.30,542.39 365.45,542.01 368.61,541.47 371.76,540.80 374.91,540.05 378.06,539.28 381.21,538.53 384.36,537.88 387.52,537.36 390.67,537.01 393.82,536.86 396.97,536.92 400.12,537.19 403.27,537.64 406.42,538.24 409.58,538.95 412.73,539.72 415.88,540.48 419.03,541.20 422.18,541.80 425.33,542.25 428.48,542.52 431.64,542.58 434.79,542.43 437.94,542.09 441.09,541.57 444.24,540.92 447.39,540.18 450.55,539.40 453.70,538.65 456.85,537.98 460.00,537.43 463.15,537.06 466.30,536.87 469.45,536.90 472.61,537.13 475.76,537.55 478.91,538.13 482.06,538.83 485.21,539.59 488.36,540.36 491.52,541.09 494.67,541.71 497.82,542.19 500.97,542.49 504.12,542.58 507.27,542.47 510.42,542.16 513.58,541.67 516.73,541.03 519.88,540.30 523.03,539.53 526.18,538.77 529.33,538.08 532.48,537.51 535.64,537.11 538.79,536.89 541.94,536.88 545.09,537.08 548.24,537.47 551.39,538.03 554.55,538.71 557.70,539.46 560.85,540.24 564.00,540.97" /><polyline points="252.00,550.22 255.15,549.40 258.30,548.51 261.45,547.56 264.61,546.58 267.76,545.59 270.91,544.63 274.06,543.71 277.21,542.86 280.36,542.11 283.52,541.46 286.67,540.94 289.82,540.57 292.97,540.34 296.12,540.27 299.27,540.36 302.42,540.61 305.58,541.00 308.73,541.54 311.88,542.20 315.03,542.97 318.18,543.83 321.33,544.75 324.48,545.72 327.64,546.70 330.79,547.68 333.94,548.63 337.09,549.51 340.24,550.32 343.39,551.03 346.55,551.62 349.70,552.07 352.85,552.38 356.00,552.53 359.15,552.52 362.30,552.36 365.45,552.04 368.61,551.58 371.76,550.99 374.91,550.27 378.06,549.46 381.21,548.57 384.36,547.62 387.52,546.64 390.67,545.66 393.82,544.69 396.97,543.77 400.12,542.92 403.27,542.15 406.42,541.50 409.58,540.97 412.73,540.59 415.88,540.35 419.03,540.27 422.18,540.35 425.33,540.59 428.48,540.97 431.64,541.50 434.79,542.15 437.94,542.91 441.09,543.77 444.24,544.69 447.39,545.65 450.55,546.64 453.70,547.62 456.85,548.57 460.00,549.46 463.15,550.27 466.30,550.99 469.45,551.58 472.61,552.04 475.76,552.36 478.91,552.52 482.06,552.53 485.21,552.38 488.36,552.07 491.52,551.62 494.67,551.03 497.82,550.32 500.97,549.52 504.12,548.63 507.27,547.68 510.42,546.71 513.58,545.72 516.73,544.75 519.88,543.83 523.03,542.97 526.18,542.20 529.33,541.54 532.48,541.00 535.64,540.61 538.79,540.36 541.94,540.27 545.09,540.34 548.24,540.57 551.39,540.94 554.55,541.46 557.70,542.11 560.85,542.86 564.00,543.71" /><polyline points="252.00,554.41 255.15,553.87 258.30,553.27 261.45,552.66 264.61,552.08 267.76,551.58 270.91,551.20 274.06,550.98 277.21,550.93 280.36,551.05 283.52,551.34 286.67,551.77 289.82,552.31 292.97,552.91 296.12,553.52 299.27,554.10 302.42,554.60 305.58,554.98 308.73,555.21 311.88,555.27 315.03,555.15 318.18,554.87 321.33,554.44 324.48,553.91 327.64,553.31 330.79,552.69 333.94,552.11 337.09,551.61 340.24,551.22 343.39,550.99 346.55,550.93 349.70,551.04 352.85,551.32 356.00,551.74 359.15,552.27 362.30,552.87 365.45,553.48 368.61,554.07 371.76,554.57 374.91,554.96 378.06,555.20 381.21,555.27 384.36,555.16 387.52,554.89 390.67,554.47 393.82,553.95 396.97,553.35 400.12,552.73 403.27,552.15 406.42,551.64 409.58,551.24 412.73,551.00 415.88,550.93 419.03,551.03 422.18,551.30 425.33,551.71 428.48,552.23 431.64,552.83 434.79,553.44 437.94,554.03 441.09,554.55 444.24,554.94 447.39,555.19 450.55,555.27 453.70,555.17 456.85,554.91 460.00,554.50 463.15,553.98 466.30,553.39 469.45,552.77 472.61,552.18 475.76,551.67 478.91,551.26 482.06,551.01 485.21,550.93 488.36,551.02 491.52,551.27 494.67,551.68 497.82,552.20 500.97,552.79 504.12,553.41 507.27,554.00 510.42,554.52 513.58,554.92 516.73,555.18 519.88,555.27 523.03,555.19 526.18,554.93 529.33,554.53 532.48,554.02 535.64,553.43 538.79,552.81 541.94,552.22 545.09,551.70 548.24,551.29 551.39,551.02 554.55,550.93 557.70,551.01 560.85,551.25 564.00,551.65" /><polyline points="252.00,555.22 255.15,555.51 258.30,555.92 261.45,556.44 264.61,557.06 267.76,557.76 270.91,558.51 274.06,559.30 277.21,560.10 280.36,560.90 283.52,561.66 286.67,562.37 289.82,563.01 292.97,563.55 296.12,563.99 299.27,564.31 302.42,564.49 305.58,564.55 308.73,564.46 311.88,564.25 315.03,563.90 318.18,563.44 321.33,562.88 324.48,562.22 327.64,561.50 330.79,560.73 333.94,559.93 337.09,559.12 340.24,558.34 343.39,557.60 346.55,556.92 349.70,556.32 352.85,555.82 356.00,555.43 359.15,555.17 362.30,555.04 365.45,555.05 368.61,555.19 371.76,555.46 374.91,555.86 378.06,556.36 381.21,556.97 384.36,557.66 387.52,558.40 390.67,559.19 393.82,560.00 396.97,560.79 400.12,561.56 403.27,562.28 406.42,562.93 409.58,563.49 412.73,563.94 415.88,564.27 419.03,564.48 422.18,564.55 425.33,564.48 428.48,564.28 431.64,563.96 434.79,563.51 437.94,562.96 441.09,562.32 444.24,561.60 447.39,560.83 450.55,560.04 453.70,559.23 456.85,558.44 460.00,557.69 463.15,557.00 466.30,556.39 469.45,555.88 472.61,555.48 475.76,555.20 478.91,555.05 482.06,555.04 485.21,555.16 488.36,555.42 491.52,555.80 494.67,556.29 497.82,556.88 500.97,557.56 504.12,558.30 507.27,559.08 510.42,559.89 513.58,560.69 516.73,561.46 519.88,562.19 523.03,562.85 526.18,563.42 529.33,563.88 532.48,564.23 535.64,564.46 538.79,564.55 541.94,564.50 545.09,564.32 548.24,564.01 551.39,563.58 554.55,563.04 557.70,562.41 560.85,561.70 564.00,560.94" /><polyline points="252.00,567.47 255.15,568.02 258.30,568.47 261.45,568.79 264.61,568.96 267.76,568.97 270.91,568.81 274.06,568.50 277.21,568.06 280.36,567.52 283.52,566.91 286.67,566.27 289.82,565.64 292.97,565.07 296.12,564.59 299.27,564.23 302.42,564.02 305.58,563.97 308.73,564.08 311.88,564.35 315.03,564.76 318.18,565.28 321.33,565.87 324.48,566.51 327.64,567.14 330.79,567.73 333.94,568.24 337.09,568.64 340.24,568.89 343.39,568.98 346.55,568.91 349.70,568.69 352.85,568.31 356.00,567.82 359.15,567.24 362.30,566.61 365.45,565.98 368.61,565.37 371.76,564.84 374.91,564.41 378.06,564.12 381.21,563.98 384.36,564.00 387.52,564.19 390.67,564.52 393.82,564.98 396.97,565.54 400.12,566.16 403.27,566.80 406.42,567.42 409.58,567.98 412.73,568.44 415.88,568.77 419.03,568.95 422.18,568.97 425.33,568.83 428.48,568.53 431.64,568.10 434.79,567.57 437.94,566.96 441.09,566.32 444.24,565.69 447.39,565.11 450.55,564.62 453.70,564.26 456.85,564.03 460.00,563.97 463.15,564.07 466.30,564.32 469.45,564.72 472.61,565.23 475.76,565.82 478.91,566.46 482.06,567.09 485.21,567.69 488.36,568.20 491.52,568.61 494.67,568.87 497.82,568.98 500.97,568.93 504.12,568.71 507.27,568.35 510.42,567.87 513.58,567.29 516.73,566.67 519.88,566.03 523.03,565.42 526.18,564.88 529.33,564.44 532.48,564.14 535.64,563.98 538.79,563.99 541.94,564.17 545.09,564.49 548.24,564.94 551.39,565.49 554.55,566.11 557.70,566.75 560.85,567.37 564.00,567.94" /><polyline points="252.00,573.13 255.15,573.73 258.30,574.31 261.45,574.84 264.61,575.29 267.76,575.64 270.91,575.89 274.06,576.00 277.21,576.00 280.36,575.86 283.52,575.60 286.67,575.23 289.82,574.76 292.97,574.23 296.12,573.64 299.27,573.04 302.42,572.44 305.58,571.87 308.73,571.36 311.88,570.93 315.03,570.61 318.18,570.40 321.33,570.31 324.48,570.36 327.64,570.53 330.79,570.82 333.94,571.22 337.09,571.70 340.24,572.25 343.39,572.85 346.55,573.45 349.70,574.05 352.85,574.60 356.00,575.09 359.15,575.49 362.30,575.79 365.45,575.97 368.61,576.02 371.76,575.94 374.91,575.73 378.06,575.41 381.21,574.99 384.36,574.48 387.52,573.92 390.67,573.32 393.82,572.71 396.97,572.12 400.12,571.59 403.27,571.12 406.42,570.74 409.58,570.48 412.73,570.34 415.88,570.32 419.03,570.43 422.18,570.67 425.33,571.02 428.48,571.47 431.64,571.99 434.79,572.57 437.94,573.18 441.09,573.78 444.24,574.35 447.39,574.88 450.55,575.32 453.70,575.67 456.85,575.90 460.00,576.01 463.15,575.99 466.30,575.84 469.45,575.57 472.61,575.19 475.76,574.72 478.91,574.18 482.06,573.59 485.21,572.99 488.36,572.39 491.52,571.83 494.67,571.32 497.82,570.90 500.97,570.59 504.12,570.39 507.27,570.31 510.42,570.37 513.58,570.55 516.73,570.85 519.88,571.25 523.03,571.75 526.18,572.30 529.33,572.90 532.48,573.50 535.64,574.10 538.79,574.65 541.94,575.13 545.09,575.52 548.24,575.81 551.39,575.97 554.55,576.01 557.70,575.92 560.85,575.71 564.00,575.38" /><polyline points="252.00,580.33 255.15,580.89 258.30,581.41 261.45,581.86 264.61,582.23 267.76,582.49 270.91,582.65 274.06,582.69 277.21,582.62 280.36,582.43 283.52,582.13 286.67,581.73 289.82,581.26 292.97,580.73 296.12,580.16 299.27,579.58 302.42,579.02 305.58,578.48 308.73,578.00 311.88,577.60 315.03,577.30 318.18,577.10 321.33,577.01 324.48,577.05 327.64,577.19 330.79,577.46 333.94,577.82 337.09,578.26 340.24,578.77 343.39,579.33 346.55,579.91 349.70,580.48 352.85,581.03 356.00,581.53 359.15,581.96 362.30,582.30 365.45,582.55 368.61,582.67 371.76,582.69 374.91,582.58 378.06,582.36 381.21,582.03 384.36,581.62 387.52,581.13 390.67,580.59 393.82,580.02 396.97,579.44 400.12,578.87 403.27,578.35 406.42,577.89 409.58,577.52 412.73,577.24 415.88,577.06 419.03,577.01 422.18,577.07 425.33,577.25 428.48,577.54 431.64,577.92 434.79,578.39 437.94,578.91 441.09,579.48 444.24,580.05 447.39,580.63 450.55,581.17 453.70,581.65 456.85,582.06 460.00,582.38 463.15,582.59 466.30,582.69 469.45,582.67 472.61,582.53 475.76,582.28 478.91,581.94 482.06,581.50 485.21,580.99 488.36,580.44 491.52,579.87 494.67,579.29 497.82,578.73 500.97,578.23 504.12,577.79 507.27,577.43 510.42,577.18 513.58,577.04 516.73,577.01 519.88,577.11 523.03,577.32 526.18,577.63 529.33,578.04 532.48,578.52 535.64,579.05 538.79,579.62 541.94,580.20 545.09,580.77 548.24,581.30 551.39,581.76 554.55,582.15 557.70,582.44 560.85,582.63 564.00,582.69" /><polyline points="252.00,585.49 255.15,585.77 258.30,586.10 261.45,586.46 264.61,586.82 267.76,587.17 270.91,587.47 274.06,587.71 277.21,587.87 280.36,587.94 283.52,587.91 286.67,587.78 289.82,587.57 292.97,587.29 296.12,586.96 299.27,586.60 302.42,586.24 305.58,585.89 308.73,585.59 311.88,585.36 315.03,585.21 318.18,585.15 321.33,585.18 324.48,585.31 327.64,585.53 330.79,585.81 333.94,586.14 337.09,586.51 340.24,586.87 343.39,587.21 346.55,587.51 349.70,587.74 352.85,587.88 356.00,587.94 359.15,587.89 362.30,587.76 365.45,587.54 368.61,587.25 371.76,586.91 374.91,586.55 378.06,586.19 381.21,585.85 384.36,585.55 387.52,585.33 390.67,585.19 393.82,585.14 396.97,585.19 400.12,585.34 403.27,585.56 406.42,585.85 409.58,586.19 412.73,586.56 415.88,586.92 419.03,587.26 422.18,587.55 425.33,587.76 428.48,587.90 431.64,587.94 434.79,587.88 437.94,587.73 441.09,587.50 444.24,587.20 447.39,586.86 450.55,586.50 453.70,586.14 456.85,585.80 460.00,585.52 463.15,585.31 466.30,585.18 469.45,585.15 472.61,585.21 475.76,585.36 478.91,585.60 482.06,585.90 485.21,586.25 488.36,586.61 491.52,586.97 494.67,587.30 497.82,587.58 500.97,587.79 504.12,587.91 507.27,587.94 510.42,587.87 513.58,587.70 516.73,587.46 519.88,587.16 523.03,586.81 526.18,586.45 529.33,586.09 532.48,585.76 535.64,585.48 538.79,585.28 541.94,585.17 545.09,585.15 548.24,585.22 551.39,585.39 554.55,585.64 557.70,585.95 560.85,586.30 564.00,586.66" /><polyline points="252.00,595.51 255.15,595.34 258.30,595.11 261.45,594.82 264.61,594.50 267.76,594.14 270.91,593.75 274.06,593.36 277.21,592.95 280.36,592.56 283.52,592.18 286.67,591.83 289.82,591.52 292.97,591.26 296.12,591.05 299.27,590.90 302.42,590.81 305.58,590.78 308.73,590.83 311.88,590.94 315.03,591.11 318.18,591.33 321.33,591.61 324.48,591.94 327.64,592.29 330.79,592.68 333.94,593.08 337.09,593.48 340.24,593.87 343.39,594.25 346.55,594.60 349.70,594.92 352.85,595.18 356.00,595.40 359.15,595.55 362.30,595.65 365.45,595.67 368.61,595.64 371.76,595.53 374.91,595.37 378.06,595.14 381.21,594.87 384.36,594.55 387.52,594.19 390.67,593.81 393.82,593.41 396.97,593.01 400.12,592.61 403.27,592.23 406.42,591.88 409.58,591.56 412.73,591.29 415.88,591.07 419.03,590.91 422.18,590.82 425.33,590.78 428.48,590.82 431.64,590.92 434.79,591.08 437.94,591.30 441.09,591.57 444.24,591.89 447.39,592.24 450.55,592.62 453.70,593.02 456.85,593.42 460.00,593.82 463.15,594.20 466.30,594.55 469.45,594.87 472.61,595.15 475.76,595.37 478.91,595.54 482.06,595.64 485.21,595.67 488.36,595.65 491.52,595.55 494.67,595.39 497.82,595.18 500.97,594.91 504.12,594.60 507.27,594.24 510.42,593.87 513.58,593.47 516.73,593.07 519.88,592.67 523.03,592.29 526.18,591.93 529.33,591.61 532.48,591.33 535.64,591.10 538.79,590.93 541.94,590.83 545.09,590.78 548.24,590.81 551.39,590.90 554.55,591.05 557.70,591.26 560.85,591.53 564.00,591.84" /><polyline points="252.00,599.99 255.15,599.78 258.30,599.58 261.45,599.41 264.61,599.28 267.76,599.20 270.91,599.18 274.06,599.22 277.21,599.32 280.36,599.46 283.52,599.64 286.67,599.85 289.82,600.06 292.97,600.26 296.12,600.43 299.27,600.56 302.42,600.64 305.58,600.66 308.73,600.62 311.88,600.52 315.03,600.37 318.18,600.19 321.33,599.99 324.48,599.78 327.64,599.58 330.79,599.41 333.94,599.28 337.09,599.20 340.24,599.18 343.39,599.22 346.55,599.32 349.70,599.46 352.85,599.64 356.00,599.85 359.15,600.06 362.30,600.26 365.45,600.43 368.61,600.56 371.76,600.64 374.91,600.66 378.06,600.62 381.21,600.52 384.36,600.37 387.52,600.19 390.67,599.99 393.82,599.78 396.97,599.58 400.12,599.41 403.27,599.28 406.42,599.20 409.58,599.18 412.73,599.22 415.88,599.32 419.03,599.46 422.18,599.64 425.33,599.85 428.48,600.06 431.64,600.26 434.79,600.43 437.94,600.56 441.09,600.64 444.24,600.66 447.39,600.62 450.55,600.52 453.70,600.37 456.85,600.19 460.00,599.99 463.15,599.78 466.30,599.58 469.45,599.41 472.61,599.28 475.76,599.20 478.91,599.18 482.06,599.22 485.21,599.32 488.36,599.46 491.52,599.64 494.67,599.85 497.82,600.06 500.97,600.26 504.12,600.43 507.27,600.56 510.42,600.64 513.58,600.66 516.73,600.62 519.88,600.52 523.03,600.37 526.18,600.19 529.33,599.99 532.48,599.78 535.64,599.58 538.79,599.41 541.94,599.28 545.09,599.20 548.24,599.18 551.39,599.22 554.55,599.32 557.70,599.46 560.85,599.64 564.00,599.85" /><polyline points="252.00,605.25 255.15,605.22 258.30,605.23 261.45,605.28 264.61,605.36 267.76,605.48 270.91,605.63 274.06,605.80 277.21,606.00 280.36,606.21 283.52,606.43 286.67,606.66 289.82,606.88 292.97,607.10 296.12,607.30 299.27,607.49 302.42,607.65 305.58,607.79 308.73,607.89 311.88,607.96 315.03,607.99 318.18,607.99 321.33,607.94 324.48,607.87 327.64,607.76 330.79,607.61 333.94,607.44 337.09,607.25 340.24,607.04 343.39,606.82 346.55,606.60 349.70,606.37 352.85,606.15 356.00,605.94 359.15,605.75 362.30,605.59 365.45,605.45 368.61,605.34 371.76,605.26 374.91,605.22 378.06,605.22 381.21,605.26 384.36,605.33 387.52,605.44 390.67,605.57 393.82,605.74 396.97,605.92 400.12,606.13 403.27,606.35 406.42,606.58 409.58,606.80 412.73,607.02 415.88,607.23 419.03,607.43 422.18,607.60 425.33,607.74 428.48,607.86 431.64,607.94 434.79,607.98 437.94,607.99 441.09,607.96 444.24,607.90 447.39,607.80 450.55,607.67 453.70,607.51 456.85,607.32 460.00,607.12 463.15,606.90 466.30,606.68 469.45,606.45 472.61,606.23 475.76,606.02 478.91,605.82 482.06,605.64 485.21,605.49 488.36,605.37 491.52,605.29 494.67,605.23 497.82,605.22 500.97,605.24 504.12,605.30 507.27,605.39 510.42,605.52 513.58,605.68 516.73,605.86 519.88,606.06 523.03,606.27 526.18,606.50 529.33,606.72 532.48,606.95 535.64,607.16 538.79,607.36 541.94,607.54 545.09,607.70 548.24,607.82 551.39,607.91 554.55,607.97 557.70,607.99 560.85,607.98 564.00,607.93" /><polyline points="252.00,613.60 255.15,613.68 258.30,613.73 261.45,613.75 264.61,613.74 267.76,613.70 270.91,613.63 274.06,613.54 277.21,613.43 280.36,613.31 283.52,613.19 286.67,613.08 289.82,612.98 292.97,612.90 296.12,612.85 299.27,612.84 302.42,612.85 305.58,612.90 308.73,612.97 311.88,613.07 315.03,613.18 318.18,613.30 321.33,613.42 324.48,613.53 327.64,613.63 330.79,613.70 333.94,613.74 337.09,613.75 340.24,613.73 343.39,613.68 346.55,613.61 349.70,613.51 352.85,613.39 356.00,613.27 359.15,613.15 362.30,613.04 365.45,612.95 368.61,612.89 371.76,612.85 374.91,612.84 378.06,612.86 381.21,612.92 384.36,613.00 387.52,613.10 390.67,613.21 393.82,613.33 396.97,613.45 400.12,613.56 403.27,613.65 406.42,613.71 409.58,613.75 412.73,613.75 415.88,613.72 419.03,613.66 422.18,613.58 425.33,613.48 428.48,613.36 431.64,613.24 434.79,613.12 437.94,613.02 441.09,612.93 444.24,612.87 447.39,612.84 450.55,612.84 453.70,612.87 456.85,612.94 460.00,613.02 463.15,613.13 466.30,613.25 469.45,613.37 472.61,613.49 475.76,613.59 478.91,613.67 482.06,613.73 485.21,613.75 488.36,613.75 491.52,613.71 494.67,613.64 497.82,613.55 500.97,613.44 504.12,613.32 507.27,613.20 510.42,613.09 513.58,612.99 516.73,612.91 519.88,612.86 523.03,612.84 526.18,612.85 529.33,612.89 532.48,612.96 535.64,613.05 538.79,613.16 541.94,613.28 545.09,613.40 548.24,613.52 551.39,613.61 554.55,613.69 557.70,613.74 560.85,613.75 564.00,613.74" /><polyline points="252.00,619.95 255.15,620.01 258.30,620.07 261.45,620.12 264.61,620.17 267.76,620.22 270.91,620.25 274.06,620.27 277.21,620.28 280.36,620.28 283.52,620.26 286.67,620.24 289.82,620.20 292.97,620.16 296.12,620.11 299.27,620.05 302.42,619.99 305.58,619.93 308.73,619.87 311.88,619.82 315.03,619.77 318.18,619.73 321.33,619.71 324.48,619.69 327.64,619.69 330.79,619.69 333.94,619.71 337.09,619.74 340.24,619.78 343.39,619.83 346.55,619.89 349.70,619.95 352.85,620.01 356.00,620.07 359.15,620.12 362.30,620.17 365.45,620.21 368.61,620.25 371.76,620.27 374.91,620.28 378.06,620.28 381.21,620.27 384.36,620.24 387.52,620.21 390.67,620.16 393.82,620.11 396.97,620.05 400.12,619.99 403.27,619.93 406.42,619.88 409.58,619.82 412.73,619.77 415.88,619.74 419.03,619.71 422.18,619.69 425.33,619.69 428.48,619.69 431.64,619.71 434.79,619.74 437.94,619.78 441.09,619.83 444.24,619.88 447.39,619.94 450.55,620.00 453.70,620.06 456.85,620.12 460.00,620.17 463.15,620.21 466.30,620.25 469.45,620.27 472.61,620.28 475.76,620.28 478.91,620.27 482.06,620.24 485.21,620.21 488.36,620.16 491.52,620.11 494.67,620.06 497.82,620.00 500.97,619.94 504.12,619.88 507.27,619.83 510.42,619.78 513.58,619.74 516.73,619.71 519.88,619.69 523.03,619.69 526.18,619.69 529.33,619.71 532.48,619.74 535.64,619.78 538.79,619.83 541.94,619.88 545.09,619.94 548.24,620.00 551.39,620.06 554.55,620.11 557.70,620.17 560.85,620.21 564.00,620.24" /><polyline points="252.00,626.68 255.15,626.73 258.30,626.78 261.45,626.82 264.61,626.86 267.76,626.89 270.91,626.90 274.06,626.91 277.21,626.91 280.36,626.89 283.52,626.87 286.67,626.83 289.82,626.79 292.97,626.74 296.12,626.69 299.27,626.64 302.42,626.59 305.58,626.55 308.73,626.50 311.88,626.47 315.03,626.45 318.18,626.44 321.33,626.43 324.48,626.44 327.64,626.46 330.79,626.49 333.94,626.53 337.09,626.57 340.24,626.62 343.39,626.67 346.55,626.72 349.70,626.77 352.85,626.82 356.00,626.85 359.15,626.88 362.30,626.90 365.45,626.91 368.61,626.91 371.76,626.90 374.91,626.87 378.06,626.84 381.21,626.80 384.36,626.75 387.52,626.70 390.67,626.65 393.82,626.60 396.97,626.55 400.12,626.51 403.27,626.48 406.42,626.45 409.58,626.44 412.73,626.43 415.88,626.44 419.03,626.46 422.18,626.49 425.33,626.52 428.48,626.56 431.64,626.61 434.79,626.66 437.94,626.72 441.09,626.77 444.24,626.81 447.39,626.85 450.55,626.88 453.70,626.90 456.85,626.91 460.00,626.91 463.15,626.90 466.30,626.88 469.45,626.84 472.61,626.81 475.76,626.76 478.91,626.71 482.06,626.66 485.21,626.61 488.36,626.56 491.52,626.52 494.67,626.48 497.82,626.45 500.97,626.44 504.12,626.43 507.27,626.44 510.42,626.45 513.58,626.48 516.73,626.52 519.88,626.56 523.03,626.61 526.18,626.66 529.33,626.71 532.48,626.76 535.64,626.80 538.79,626.84 541.94,626.88 545.09,626.90 548.24,626.91 551.39,626.91 554.55,626.90 557.70,626.88 560.85,626.85 564.00,626.81" /><polyline points="252.00,633.28 255.15,633.32 258.30,633.36 261.45,633.40 264.61,633.44 267.76,633.47 270.91,633.50 274.06,633.52 277.21,633.52 280.36,633.52 283.52,633.51 286.67,633.48 289.82,633.45 292.97,633.42 296.12,633.38 299.27,633.33 302.42,633.29 305.58,633.26 308.73,633.23 311.88,633.21 315.03,633.20 318.18,633.20 321.33,633.21 324.48,633.23 327.64,633.26 330.79,633.29 333.94,633.33 337.09,633.37 340.24,633.41 343.39,633.45 346.55,633.48 349.70,633.50 352.85,633.52 356.00,633.52 359.15,633.52 362.30,633.50 365.45,633.47 368.61,633.44 371.76,633.40 374.91,633.36 378.06,633.32 381.21,633.28 384.36,633.25 387.52,633.22 390.67,633.21 393.82,633.20 396.97,633.20 400.12,633.21 403.27,633.24 406.42,633.27 409.58,633.30 412.73,633.34 415.88,633.38 419.03,633.42 422.18,633.46 425.33,633.49 428.48,633.51 431.64,633.52 434.79,633.52 437.94,633.51 441.09,633.49 444.24,633.47 447.39,633.43 450.55,633.39 453.70,633.35 456.85,633.31 460.00,633.28 463.15,633.24 466.30,633.22 469.45,633.20 472.61,633.20 475.76,633.20 478.91,633.22 482.06,633.24 485.21,633.28 488.36,633.31 491.52,633.35 494.67,633.39 497.82,633.43 500.97,633.47 504.12,633.49 507.27,633.51 510.42,633.52 513.58,633.52 516.73,633.51 519.88,633.49 523.03,633.46 526.18,633.42 529.33,633.38 532.48,633.34 535.64,633.30 538.79,633.27 541.94,633.24 545.09,633.21 548.24,633.20 551.39,633.20 554.55,633.21 557.70,633.23 560.85,633.25 564.00,633.29" /><polyline points="252.00,640.35 255.15,640.36 258.30,640.35 261.45,640.33 264.61,640.31 267.76,640.28 270.91,640.24 274.06,640.20 277.21,640.15 280.36,640.10 283.52,640.05 286.67,640.00 289.82,639.95 292.97,639.90 296.12,639.86 299.27,639.82 302.42,639.79 305.58,639.76 308.73,639.75 311.88,639.74 315.03,639.75 318.18,639.76 321.33,639.78 324.48,639.80 327.64,639.84 330.79,639.88 333.94,639.93 337.09,639.98 340.24,640.03 343.39,640.08 346.55,640.13 349.70,640.18 352.85,640.23 356.00,640.27 359.15,640.30 362.30,640.33 365.45,640.34 368.61,640.35 371.76,640.36 374.91,640.35 378.06,640.33 381.21,640.31 384.36,640.27 387.52,640.24 390.67,640.19 393.82,640.14 396.97,640.09 400.12,640.04 403.27,639.99 406.42,639.94 409.58,639.89 412.73,639.85 415.88,639.81 419.03,639.78 422.18,639.76 425.33,639.75 428.48,639.74 431.64,639.75 434.79,639.76 437.94,639.78 441.09,639.81 444.24,639.85 447.39,639.89 450.55,639.93 453.70,639.98 456.85,640.04 460.00,640.09 463.15,640.14 466.30,640.19 469.45,640.23 472.61,640.27 475.76,640.30 478.91,640.33 482.06,640.35 485.21,640.35 488.36,640.35 491.52,640.35 494.67,640.33 497.82,640.30 500.97,640.27 504.12,640.23 507.27,640.19 510.42,640.14 513.58,640.09 516.73,640.03 519.88,639.98 523.03,639.93 526.18,639.89 529.33,639.84 532.48,639.81 535.64,639.78 538.79,639.76 541.94,639.75 545.09,639.74 548.24,639.75 551.39,639.76 554.55,639.78 557.70,639.81 560.85,639.85 564.00,639.89" /><polyline points="252.00,646.68 255.15,646.66 258.30,646.63 261.45,646.62 264.61,646.62 267.76,646.62 270.91,646.64 274.06,646.66 277.21,646.69 280.36,646.72 283.52,646.76 286.67,646.79 289.82,646.82 292.97,646.84 296.12,646.85 299.27,646.86 302.42,646.85 305.58,646.84 308.73,646.82 311.88,646.79 315.03,646.75 318.18,646.72 321.33,646.69 324.48,646.66 327.64,646.64 330.79,646.62 333.94,646.62 337.09,646.62 340.24,646.64 343.39,646.66 346.55,646.69 349.70,646.72 352.85,646.75 356.00,646.79 359.15,646.82 362.30,646.84 365.45,646.85 368.61,646.86 371.76,646.85 374.91,646.84 378.06,646.82 381.21,646.79 384.36,646.76 387.52,646.72 390.67,646.69 393.82,646.66 396.97,646.64 400.12,646.62 403.27,646.62 406.42,646.62 409.58,646.63 412.73,646.66 415.88,646.68 419.03,646.72 422.18,646.75 425.33,646.78 428.48,646.81 431.64,646.84 434.79,646.85 437.94,646.86 441.09,646.85 444.24,646.84 447.39,646.82 450.55,646.79 453.70,646.76 456.85,646.73 460.00,646.69 463.15,646.66 466.30,646.64 469.45,646.62 472.61,646.62 475.76,646.62 478.91,646.63 482.06,646.65 485.21,646.68 488.36,646.71 491.52,646.75 494.67,646.78 497.82,646.81 500.97,646.84 504.12,646.85 507.27,646.86 510.42,646.86 513.58,646.84 516.73,646.82 519.88,646.79 523.03,646.76 526.18,646.73 529.33,646.70 532.48,646.67 535.64,646.64 538.79,646.62 541.94,646.62 545.09,646.62 548.24,646.63 551.39,646.65 554.55,646.68 557.70,646.71 560.85,646.75 564.00,646.78" /><polyline points="252.00,653.19 255.15,653.16 258.30,653.14 261.45,653.12 264.61,653.11 267.76,653.11 270.91,653.12 274.06,653.14 277.21,653.16 280.36,653.19 283.52,653.23 286.67,653.27 289.82,653.31 292.97,653.36 296.12,653.41 299.27,653.46 302.42,653.51 305.58,653.56 308.73,653.60 311.88,653.64 315.03,653.68 318.18,653.70 321.33,653.72 324.48,653.74 327.64,653.74 330.79,653.74 333.94,653.73 337.09,653.71 340.24,653.68 343.39,653.65 346.55,653.61 349.70,653.57 352.85,653.52 356.00,653.47 359.15,653.42 362.30,653.37 365.45,653.32 368.61,653.28 371.76,653.23 374.91,653.20 378.06,653.16 381.21,653.14 384.36,653.12 387.52,653.11 390.67,653.11 393.82,653.12 396.97,653.13 400.12,653.15 403.27,653.18 406.42,653.22 409.58,653.26 412.73,653.30 415.88,653.35 419.03,653.40 422.18,653.45 425.33,653.50 428.48,653.55 431.64,653.59 434.79,653.64 437.94,653.67 441.09,653.70 444.24,653.72 447.39,653.73 450.55,653.74 453.70,653.74 456.85,653.73 460.00,653.71 463.15,653.69 466.30,653.66 469.45,653.62 472.61,653.58 475.76,653.53 478.91,653.48 482.06,653.43 485.21,653.38 488.36,653.33 491.52,653.28 494.67,653.24 497.82,653.20 500.97,653.17 504.12,653.14 507.27,653.13 510.42,653.11 513.58,653.11 516.73,653.12 519.88,653.13 523.03,653.15 526.18,653.18 529.33,653.21 532.48,653.25 535.64,653.30 538.79,653.34 541.94,653.39 545.09,653.44 548.24,653.49 551.39,653.54 554.55,653.59 557.70,653.63 560.85,653.66 564.00,653.69" /><polyline points="252.00,660.25 255.15,660.26 258.30,660.26 261.45,660.25 264.61,660.23 267.76,660.20 270.91,660.17 274.06,660.13 277.21,660.09 280.36,660.05 283.52,660.02 286.67,659.99 289.82,659.98 292.97,659.97 296.12,659.97 299.27,659.99 302.42,660.01 305.58,660.04 308.73,660.08 311.88,660.12 315.03,660.16 318.18,660.19 321.33,660.22 324.48,660.25 327.64,660.26 330.79,660.26 333.94,660.25 337.09,660.23 340.24,660.21 343.39,660.17 346.55,660.13 349.70,660.09 352.85,660.05 356.00,660.02 359.15,659.99 362.30,659.98 365.45,659.97 368.61,659.97 371.76,659.99 374.91,660.01 378.06,660.04 381.21,660.08 384.36,660.12 387.52,660.16 390.67,660.19 393.82,660.22 396.97,660.25 400.12,660.26 403.27,660.26 406.42,660.25 409.58,660.23 412.73,660.21 415.88,660.17 419.03,660.13 422.18,660.09 425.33,660.06 428.48,660.02 431.64,660.00 434.79,659.98 437.94,659.97 441.09,659.97 444.24,659.98 447.39,660.01 450.55,660.04 453.70,660.07 456.85,660.11 460.00,660.15 463.15,660.19 466.30,660.22 469.45,660.24 472.61,660.26 475.76,660.26 478.91,660.25 482.06,660.24 485.21,660.21 488.36,660.17 491.52,660.14 494.67,660.10 497.82,660.06 500.97,660.02 504.12,660.00 507.27,659.98 510.42,659.97 513.58,659.97 516.73,659.98 519.88,660.01 523.03,660.04 526.18,660.07 529.33,660.11 532.48,660.15 535.64,660.19 538.79,660.22 541.94,660.24 545.09,660.26 548.24,660.26 551.39,660.25 554.55,660.24 557.70,660.21 560.85,660.18 564.00,660.14" /><polyline points="252.00,666.72 255.15,666.77 258.30,666.82 261.45,666.87 264.61,666.92 267.76,666.96 270.91,667.00 274.06,667.03 277.21,667.05 280.36,667.06 283.52,667.06 286.67,667.06 289.82,667.04 292.97,667.02 296.12,666.98 299.27,666.94 302.42,666.90 305.58,666.85 308.73,666.80 311.88,666.75 315.03,666.71 318.18,666.66 321.33,666.62 324.48,666.59 327.64,666.57 330.79,666.55 333.94,666.54 337.09,666.55 340.24,666.56 343.39,666.58 346.55,666.61 349.70,666.65 352.85,666.69 356.00,666.74 359.15,666.78 362.30,666.83 365.45,666.88 368.61,666.93 371.76,666.97 374.91,667.00 378.06,667.03 381.21,667.05 384.36,667.06 387.52,667.06 390.67,667.05 393.82,667.03 396.97,667.01 400.12,666.97 403.27,666.93 406.42,666.89 409.58,666.84 412.73,666.79 415.88,666.74 419.03,666.69 422.18,666.65 425.33,666.61 428.48,666.58 431.64,666.56 434.79,666.55 437.94,666.54 441.09,666.55 444.24,666.56 447.39,666.59 450.55,666.62 453.70,666.66 456.85,666.70 460.00,666.75 463.15,666.80 466.30,666.85 469.45,666.90 472.61,666.94 475.76,666.98 478.91,667.01 482.06,667.04 485.21,667.05 488.36,667.06 491.52,667.06 494.67,667.05 497.82,667.03 500.97,667.00 504.12,666.96 507.27,666.92 510.42,666.88 513.58,666.83 516.73,666.78 519.88,666.73 523.03,666.68 526.18,666.64 529.33,666.61 532.48,666.58 535.64,666.56 538.79,666.55 541.94,666.54 545.09,666.55 548.24,666.57 551.39,666.60 554.55,666.63 557.70,666.67 560.85,666.71 564.00,666.76" /><polyline points="252.00,673.49 255.15,673.54 258.30,673.59 261.45,673.63 264.61,673.67 267.76,673.69 270.91,673.71 274.06,673.71 277.21,673.71 280.36,673.69 283.52,673.66 286.67,673.63 289.82,673.58 292.97,673.53 296.12,673.48 299.27,673.43 302.42,673.39 305.58,673.35 308.73,673.31 311.88,673.29 315.03,673.27 318.18,673.27 321.33,673.28 324.48,673.30 327.64,673.33 330.79,673.36 333.94,673.41 337.09,673.46 340.24,673.51 343.39,673.56 346.55,673.60 349.70,673.64 352.85,673.68 356.00,673.70 359.15,673.71 362.30,673.71 365.45,673.70 368.61,673.68 371.76,673.65 374.91,673.61 378.06,673.57 381.21,673.52 384.36,673.47 387.52,673.42 390.67,673.37 393.82,673.34 396.97,673.30 400.12,673.28 403.27,673.27 406.42,673.27 409.58,673.28 412.73,673.30 415.88,673.34 419.03,673.38 422.18,673.42 425.33,673.47 428.48,673.52 431.64,673.57 434.79,673.62 437.94,673.65 441.09,673.68 444.24,673.70 447.39,673.71 450.55,673.71 453.70,673.70 456.85,673.67 460.00,673.64 463.15,673.60 466.30,673.55 469.45,673.50 472.61,673.45 475.76,673.41 478.91,673.36 482.06,673.33 485.21,673.30 488.36,673.28 491.52,673.27 494.67,673.27 497.82,673.29 500.97,673.31 504.12,673.35 507.27,673.39 510.42,673.44 513.58,673.49 516.73,673.54 519.88,673.58 523.03,673.63 526.18,673.66 529.33,673.69 532.48,673.71 535.64,673.71 538.79,673.71 541.94,673.69 545.09,673.67 548.24,673.63 551.39,673.59 554.55,673.54 557.70,673.49 560.85,673.44 564.00,673.39" /><polyline points="252.00,680.14 255.15,680.18 258.30,680.22 261.45,680.26 264.61,680.30 267.76,680.33 270.91,680.35 274.06,680.36 277.21,680.36 280.36,680.34 283.52,680.32 286.67,680.29 289.82,680.26 292.97,680.22 296.12,680.18 299.27,680.13 302.42,680.09 305.58,680.06 308.73,680.03 311.88,680.01 315.03,680.00 318.18,680.01 321.33,680.02 324.48,680.04 327.64,680.07 330.79,680.11 333.94,680.15 337.09,680.19 340.24,680.23 343.39,680.27 346.55,680.31 349.70,680.33 352.85,680.35 356.00,680.36 359.15,680.35 362.30,680.34 365.45,680.32 368.61,680.29 371.76,680.25 374.91,680.21 378.06,680.17 381.21,680.12 384.36,680.08 387.52,680.05 390.67,680.03 393.82,680.01 396.97,680.00 400.12,680.01 403.27,680.02 406.42,680.05 409.58,680.08 412.73,680.12 415.88,680.16 419.03,680.20 422.18,680.24 425.33,680.28 428.48,680.31 431.64,680.34 434.79,680.35 437.94,680.36 441.09,680.35 444.24,680.34 447.39,680.31 450.55,680.28 453.70,680.24 456.85,680.20 460.00,680.15 463.15,680.11 466.30,680.08 469.45,680.04 472.61,680.02 475.76,680.01 478.91,680.00 482.06,680.01 485.21,680.03 488.36,680.05 491.52,680.09 494.67,680.13 497.82,680.17 500.97,680.21 504.12,680.25 507.27,680.29 510.42,680.32 513.58,680.34 516.73,680.35 519.88,680.36 523.03,680.35 526.18,680.33 529.33,680.30 532.48,680.27 535.64,680.23 538.79,680.19 541.94,680.14 545.09,680.10 548.24,680.07 551.39,680.04 554.55,680.02 557.70,680.01 560.85,680.00 564.00,680.01" /><polyline points="252.00,687.12 255.15,687.14 258.30,687.16 261.45,687.16 264.61,687.16 267.76,687.15 270.91,687.13 274.06,687.10 277.21,687.06 280.36,687.02 283.52,686.97 286.67,686.92 289.82,686.87 292.97,686.82 296.12,686.77 299.27,686.72 302.42,686.68 305.58,686.64 308.73,686.61 311.88,686.59 315.03,686.58 318.18,686.57 321.33,686.58 324.48,686.59 327.64,686.62 330.79,686.65 333.94,686.69 337.09,686.73 340.24,686.78 343.39,686.83 346.55,686.88 349.70,686.94 352.85,686.99 356.00,687.03 359.15,687.07 362.30,687.11 365.45,687.14 368.61,687.15 371.76,687.16 374.91,687.16 378.06,687.16 381.21,687.14 384.36,687.11 387.52,687.08 390.67,687.04 393.82,686.99 396.97,686.94 400.12,686.89 403.27,686.84 406.42,686.78 409.58,686.74 412.73,686.69 415.88,686.65 419.03,686.62 422.18,686.60 425.33,686.58 428.48,686.57 431.64,686.58 434.79,686.59 437.94,686.61 441.09,686.64 444.24,686.67 447.39,686.72 450.55,686.76 453.70,686.81 456.85,686.87 460.00,686.92 463.15,686.97 466.30,687.02 469.45,687.06 472.61,687.10 475.76,687.13 478.91,687.15 482.06,687.16 485.21,687.17 488.36,687.16 491.52,687.14 494.67,687.12 497.82,687.09 500.97,687.05 504.12,687.01 507.27,686.96 510.42,686.91 513.58,686.85 516.73,686.80 519.88,686.75 523.03,686.71 526.18,686.66 529.33,686.63 532.48,686.60 535.64,686.58 538.79,686.57 541.94,686.57 545.09,686.58 548.24,686.60 551.39,686.63 554.55,686.66 557.70,686.70 560.85,686.75 564.00,686.80" /><polyline points="252.00,693.45 255.15,693.44 258.30,693.43 261.45,693.44 264.61,693.45 267.76,693.48 270.91,693.50 274.06,693.54 277.21,693.57 280.36,693.61 283.52,693.64 286.67,693.66 289.82,693.67 292.97,693.68 296.12,693.68 299.27,693.67 302.42,693.64 305.58,693.62 308.73,693.58 311.88,693.55 315.03,693.51 318.18,693.48 321.33,693.46 324.48,693.44 327.64,693.43 330.79,693.44 333.94,693.45 337.09,693.47 340.24,693.49 343.39,693.53 346.55,693.56 349.70,693.59 352.85,693.63 356.00,693.65 359.15,693.67 362.30,693.68 365.45,693.68 368.61,693.67 371.76,693.65 374.91,693.63 378.06,693.60 381.21,693.56 384.36,693.53 387.52,693.49 390.67,693.47 393.82,693.45 396.97,693.44 400.12,693.43 403.27,693.44 406.42,693.46 409.58,693.48 412.73,693.51 415.88,693.55 419.03,693.58 422.18,693.62 425.33,693.64 428.48,693.66 431.64,693.68 434.79,693.68 437.94,693.67 441.09,693.66 444.24,693.64 447.39,693.61 450.55,693.57 453.70,693.54 456.85,693.50 460.00,693.48 463.15,693.45 466.30,693.44 469.45,693.43 472.61,693.44 475.76,693.45 478.91,693.47 482.06,693.50 485.21,693.54 488.36,693.57 491.52,693.60 494.67,693.63 497.82,693.66 500.97,693.67 504.12,693.68 507.27,693.68 510.42,693.67 513.58,693.64 516.73,693.62 519.88,693.58 523.03,693.55 526.18,693.52 529.33,693.49 532.48,693.46 535.64,693.44 538.79,693.43 541.94,693.44 545.09,693.45 548.24,693.47 551.39,693.49 554.55,693.52 557.70,693.56 560.85,693.59 564.00,693.62" /><polyline points="252.00,700.15 255.15,700.10 258.30,700.06 261.45,700.02 264.61,699.99 267.76,699.96 270.91,699.94 274.06,699.93 277.21,699.93 280.36,699.93 283.52,699.94 286.67,699.96 289.82,699.99 292.97,700.02 296.12,700.06 299.27,700.10 302.42,700.15 305.58,700.20 308.73,700.25 311.88,700.30 315.03,700.35 318.18,700.40 321.33,700.44 324.48,700.48 327.64,700.51 330.79,700.53 333.94,700.55 337.09,700.56 340.24,700.56 343.39,700.56 346.55,700.55 349.70,700.52 352.85,700.50 356.00,700.46 359.15,700.42 362.30,700.38 365.45,700.33 368.61,700.28 371.76,700.23 374.91,700.18 378.06,700.13 381.21,700.09 384.36,700.04 387.52,700.01 390.67,699.98 393.82,699.95 396.97,699.94 400.12,699.93 403.27,699.93 406.42,699.94 409.58,699.95 412.73,699.97 415.88,700.00 419.03,700.04 422.18,700.08 425.33,700.12 428.48,700.17 431.64,700.22 434.79,700.27 437.94,700.32 441.09,700.37 444.24,700.42 447.39,700.46 450.55,700.49 453.70,700.52 456.85,700.54 460.00,700.56 463.15,700.56 466.30,700.56 469.45,700.55 472.61,700.54 475.76,700.51 478.91,700.48 482.06,700.45 485.21,700.40 488.36,700.36 491.52,700.31 494.67,700.26 497.82,700.21 500.97,700.16 504.12,700.11 507.27,700.07 510.42,700.03 513.58,699.99 516.73,699.97 519.88,699.95 523.03,699.93 526.18,699.93 529.33,699.93 532.48,699.94 535.64,699.96 538.79,699.98 541.94,700.02 545.09,700.05 548.24,700.10 551.39,700.14 554.55,700.19 557.70,700.24 560.85,700.29 564.00,700.34" /><polyline points="252.00,707.07 255.15,707.06 258.30,707.05 261.45,707.02 264.61,706.99 267.76,706.96 270.91,706.92 274.06,706.88 277.21,706.85 280.36,706.82 283.52,706.81 286.67,706.80 289.82,706.80 292.97,706.81 296.12,706.84 299.27,706.87 302.42,706.90 305.58,706.94 308.73,706.98 311.88,707.01 315.03,707.04 318.18,707.06 321.33,707.07 324.48,707.07 327.64,707.06 330.79,707.04 333.94,707.01 337.09,706.98 340.24,706.94 343.39,706.90 346.55,706.87 349.70,706.84 352.85,706.82 356.00,706.80 359.15,706.80 362.30,706.81 365.45,706.82 368.61,706.85 371.76,706.88 374.91,706.92 378.06,706.96 381.21,706.99 384.36,707.02 387.52,707.05 390.67,707.06 393.82,707.07 396.97,707.07 400.12,707.05 403.27,707.03 406.42,707.00 409.58,706.96 412.73,706.92 415.88,706.89 419.03,706.85 422.18,706.83 425.33,706.81 428.48,706.80 431.64,706.80 434.79,706.81 437.94,706.83 441.09,706.86 444.24,706.90 447.39,706.94 450.55,706.97 453.70,707.01 456.85,707.04 460.00,707.06 463.15,707.07 466.30,707.07 469.45,707.06 472.61,707.04 475.76,707.01 478.91,706.98 482.06,706.94 485.21,706.91 488.36,706.87 491.52,706.84 494.67,706.82 497.82,706.80 500.97,706.80 504.12,706.81 507.27,706.82 510.42,706.85 513.58,706.88 516.73,706.91 519.88,706.95 523.03,706.99 526.18,707.02 529.33,707.05 532.48,707.06 535.64,707.07 538.79,707.07 541.94,707.05 545.09,707.03 548.24,707.00 551.39,706.96 554.55,706.93 557.70,706.89 560.85,706.86 564.00,706.83" /><polyline points="252.00,713.47 255.15,713.51 258.30,713.56 261.45,713.61 264.61,713.66 267.76,713.71 270.91,713.75 274.06,713.80 277.21,713.83 280.36,713.86 283.52,713.88 286.67,713.89 289.82,713.90 292.97,713.89 296.12,713.88 299.27,713.85 302.42,713.82 305.58,713.79 308.73,713.74 311.88,713.70 315.03,713.65 318.18,713.60 321.33,713.55 324.48,713.50 327.64,713.46 330.79,713.42 333.94,713.39 337.09,713.37 340.24,713.35 343.39,713.35 346.55,713.35 349.70,713.36 352.85,713.39 356.00,713.41 359.15,713.45 362.30,713.49 365.45,713.54 368.61,713.59 371.76,713.64 374.91,713.69 378.06,713.73 381.21,713.78 384.36,713.82 387.52,713.85 390.67,713.87 393.82,713.89 396.97,713.90 400.12,713.90 403.27,713.89 406.42,713.87 409.58,713.84 412.73,713.80 415.88,713.76 419.03,713.72 422.18,713.67 425.33,713.62 428.48,713.57 431.64,713.52 434.79,713.48 437.94,713.44 441.09,713.40 444.24,713.38 447.39,713.36 450.55,713.35 453.70,713.35 456.85,713.36 460.00,713.38 463.15,713.40 466.30,713.43 469.45,713.47 472.61,713.52 475.76,713.57 478.91,713.62 482.06,713.67 485.21,713.71 488.36,713.76 491.52,713.80 494.67,713.84 497.82,713.86 500.97,713.88 504.12,713.90 507.27,713.90 510.42,713.89 513.58,713.88 516.73,713.85 519.88,713.82 523.03,713.78 526.18,713.74 529.33,713.69 532.48,713.64 535.64,713.59 538.79,713.54 541.94,713.50 545.09,713.45 548.24,713.42 551.39,713.39 554.55,713.37 557.70,713.35 560.85,713.35 564.00,713.35" /><polyline points="252.00,720.32 255.15,720.37 258.30,720.42 261.45,720.46 264.61,720.49 267.76,720.51 270.91,720.52 274.06,720.51 277.21,720.50 280.36,720.48 283.52,720.44 286.67,720.40 289.82,720.36 292.97,720.31 296.12,720.26 299.27,720.21 302.42,720.18 305.58,720.14 308.73,720.12 311.88,720.11 315.03,720.11 318.18,720.12 321.33,720.14 324.48,720.17 327.64,720.21 330.79,720.26 333.94,720.31 337.09,720.35 340.24,720.40 343.39,720.44 346.55,720.47 349.70,720.50 352.85,720.51 356.00,720.52 359.15,720.51 362.30,720.49 365.45,720.46 368.61,720.42 371.76,720.38 374.91,720.33 378.06,720.28 381.21,720.23 384.36,720.19 387.52,720.15 390.67,720.13 393.82,720.11 396.97,720.11 400.12,720.11 403.27,720.13 406.42,720.16 409.58,720.20 412.73,720.24 415.88,720.29 419.03,720.33 422.18,720.38 425.33,720.42 428.48,720.46 431.64,720.49 434.79,720.51 437.94,720.52 441.09,720.51 444.24,720.50 447.39,720.47 450.55,720.44 453.70,720.39 456.85,720.35 460.00,720.30 463.15,720.25 466.30,720.21 469.45,720.17 472.61,720.14 475.76,720.12 478.91,720.11 482.06,720.11 485.21,720.12 488.36,720.15 491.52,720.18 494.67,720.22 497.82,720.27 500.97,720.31 504.12,720.36 507.27,720.41 510.42,720.45 513.58,720.48 516.73,720.50 519.88,720.51 523.03,720.51 526.18,720.50 529.33,720.48 532.48,720.45 535.64,720.41 538.79,720.37 541.94,720.32 545.09,720.27 548.24,720.22 551.39,720.18 554.55,720.15 557.70,720.12 560.85,720.11 564.00,720.11" /></g><g id="03_Gold_Accent" inkscape:groupmode="layer" inkscape:label="03_Gold_Accent" stroke="#B8960C" fill="none" stroke-width="1.12" stroke-linecap="round" stroke-linejoin="round"><line x1="308.16" y1="563.80" x2="507.84" y2="563.80" /><line x1="308.16" y1="558.80" x2="308.16" y2="568.80" /><line x1="507.84" y1="558.80" x2="507.84" y2="568.80" /></g></svg>