<?xml version='1.0' encoding='utf-8'?>
<svg xmlns="http://www.w3.org/2000/svg" xmlns:inkscape="http://www.inkscape.org/namespaces/inkscape" viewBox="204 228 408 600"><style>*{vector-effect:non-scaling-stroke}</style><g id="01_Black_Frame" inkscape:groupmode="layer" inkscape:label="01_Black_Frame" stroke="#1A1A1A" fill="none" stroke-width="0.875" stroke-linecap="round" stroke-linejoin="round"><path d="M 250.0,264.0 L 566.0,264.0 Q 576.0,264.0 576.0,274.0 L 576.0,782.0 Q 576.0,792.0 566.0,792.0 L 250.0,792.0 Q 240.0,792.0 240.0,782.0 L 240.0,274.0 Q 240.0,264.0 250.0,264.0" /><path d="M 253.0,270.0 L 563.0,270.0 Q 570.0,270.0 570.0,277.0 L 570.0,779.0 Q 570.0,786.0 563.0,786.0 L 253.0,786.0 Q 246.0,786.0 246.0,779.0 L 246.0,277.0 Q 246.0,270.0 253.0,270.0" /><line x1="259.0" y1="280.0" x2="263.0" y2="280.0" /><line x1="258.1" y1="282.1" x2="260.9" y2="284.9" /><line x1="256.0" y1="283.0" x2="256.0" y2="287.0" /><line x1="253.9" y1="282.1" x2="251.1" y2="284.9" /><line x1="253.0" y1="280.0" x2="249.0" y2="280.0" /><line x1="253.9" y1="277.9" x2="251.1" y2="275.1" /><line x1="256.0" y1="277.0" x2="256.0" y2="273.0" /><line x1="258.1" y1="277.9" x2="260.9" y2="275.1" /><line x1="563.0" y1="280.0" x2="567.0" y2="280.0" /><line x1="562.1" y1="282.1" x2="564.9" y2="284.9" /><line x1="560.0" y1="283.0" x2="560.0" y2="287.0" /><line x1="557.9" y1="282.1" x2="555.1" y2="284.9" /><line x1="557.0" y1="280.0" x2="553.0" y2="280.0" /><line x1="557.9" y1="277.9" x2="555.1" y2="275.1" /><line x1="560.0" y1="277.0" x2="560.0" y2="273.0" /><line x1="562.1" y1="277.9" x2="564.9" y2="275.1" /><line x1="259.0" y1="776.0" x2="263.0" y2="776.0" /><line x1="258.1" y1="778.1" x2="260.9" y2="780.9" /><line x1="256.0" y1="779.0" x2="256.0" y2="783.0" /><line x1="253.9" y1="778.1" x2="251.1" y2="780.9" /><line x1="253.0" y1="776.0" x2="249.0" y2="776.0" /><line x1="253.9" y1="773.9" x2="251.1" y2="771.1" /><line x1="256.0" y1="773.0" x2="256.0" y2="769.0" /><line x1="258.1" y1="773.9" x2="260.9" y2="771.1" /><line x1="563.0" y1="776.0" x2="567.0" y2="776.0" /><line x1="562.1" y1="778.1" x2="564.9" y2="780.9" /><line x1="560.0" y1="779.0" x2="560.0" y2="783.0" /><line x1="557.9" y1="778.1" x2="555.1" y2="780.9" /><line x1="557.0" y1="776.0" x2="553.0" y2="776.0" /><line x1="557.9" y1="773.9" x2="555.1" y2="771.1" /><line x1="560.0" y1="773.0" x2="560.0" y2="769.0" /><line x1="562.1" y1="773.9" x2="564.9" y2="771.1" /><polyline points="392.38,283.20 390.62,282.00 389.62,282.00 387.88,283.60 387.88,288.40 389.62,290.00 390.62,290.00 392.38,288.80" /><polyline points="393.62,282.00 393.62,290.00 397.88,290.00" /><polyline points="399.38,282.00 404.38,290.00" /><polyline points="404.38,282.00 399.38,290.00" /><polyline points="405.12,282.00 410.12,290.00" /><polyline points="410.12,282.00 405.12,290.00" /><polyline points="410.88,282.00 415.88,290.00" /><polyline points="415.88,282.00 410.88,290.00" /><polyline points="419.12,282.00 419.12,290.00" /><polyline points="424.88,282.00 424.88,290.00" /><polyline points="370.62,297.00 377.12,297.00" /><polyline points="373.88,297.00 373.88,307.00" /><polyline points="378.10,297.00 378.10,307.00" /><polyline points="384.60,297.00 384.60,307.00" /><polyline points="378.10,301.80 384.60,301.80" /><polyline points="391.10,297.00 385.57,297.00 385.57,301.80 389.47,301.80" /><polyline points="385.57,301.80 385.57,307.00 391.10,307.00" /><polyline points="400.52,297.00 400.52,307.00 406.05,307.00" /><polyline points="413.52,297.00 408.00,297.00 408.00,301.80 411.90,301.80" /><polyline points="408.00,301.80 408.00,307.00 413.52,307.00" /><polyline points="415.48,307.00 415.48,297.00 419.05,297.00 421.33,299.50 421.33,304.50 419.05,307.00 415.48,307.00" /><polyline points="428.80,298.50 426.52,297.00 425.22,297.00 422.95,299.00 422.95,305.00 425.22,307.00 426.52,307.00 428.80,305.50 428.80,302.00 426.20,302.00" /><polyline points="435.95,297.00 430.43,297.00 430.43,301.80 434.32,301.80" /><polyline points="430.43,301.80 430.43,307.00 435.95,307.00" /><polyline points="437.90,307.00 437.90,297.00 442.12,297.00 443.75,298.50 443.75,300.20 442.12,301.50 437.90,301.50 443.75,307.00" /><line x1="270.0" y1="312.0" x2="546.0" y2="312.0" /><line x1="270.0" y1="732.0" x2="546.0" y2="732.0" /><polyline points="376.57,740.75 374.19,740.75 374.19,742.91 375.87,742.91" /><polyline points="374.19,742.91 374.19,745.25 376.57,745.25" /><polyline points="377.41,745.25 377.41,740.75 379.23,740.75 379.79,741.29 379.79,742.01 379.23,742.55 377.41,742.55 379.23,742.55 379.79,743.09 379.79,744.71 379.23,745.25 377.41,745.25" /><polyline points="382.03,740.75 380.91,741.20 380.63,742.10 380.63,743.90 380.91,744.80 382.03,745.25 383.15,744.80 383.43,743.90 383.43,742.10 383.15,741.20 382.03,740.75" /><polyline points="383.85,740.75 383.85,745.25 386.23,745.25" /><polyline points="387.07,745.25 388.47,740.75 389.87,745.25" /><polyline points="387.57,743.67 389.37,743.67" /><polyline points="399.25,741.42 398.27,740.75 397.71,740.75 396.73,741.65 396.73,744.35 397.71,745.25 398.27,745.25 399.25,744.58" /><polyline points="401.35,740.75 400.23,741.20 399.95,742.10 399.95,743.90 400.23,744.80 401.35,745.25 402.47,744.80 402.75,743.90 402.75,742.10 402.47,741.20 401.35,740.75" /><polyline points="403.17,745.25 403.17,740.75 405.97,745.25 405.97,740.75" /><polyline points="408.91,741.42 407.93,740.75 407.37,740.75 406.39,741.65 406.39,744.35 407.37,745.25 407.93,745.25 408.91,744.58 408.91,743.00 407.79,743.00" /><polyline points="411.01,740.75 409.89,741.20 409.61,742.10 409.61,743.90 409.89,744.80 411.01,745.25 412.13,744.80 412.41,743.90 412.41,742.10 412.13,741.20 411.01,740.75" /><polyline points="421.65,741.20 420.95,740.75 420.11,740.75 419.41,741.42 419.27,742.10 419.69,742.64 420.67,743.00 421.65,743.36 422.07,743.90 421.93,744.58 421.23,745.25 420.25,745.25 419.55,744.80" /><polyline points="423.89,740.75 423.89,745.25" /><polyline points="425.71,740.75 425.71,745.25 428.09,745.25" /><polyline points="431.31,740.75 428.93,740.75 428.93,742.91 430.61,742.91" /><polyline points="428.93,742.91 428.93,745.25 431.31,745.25" /><polyline points="432.15,745.25 432.15,740.75 434.95,745.25 434.95,740.75" /><polyline points="437.89,741.42 436.91,740.75 436.35,740.75 435.37,741.65 435.37,744.35 436.35,745.25 436.91,745.25 437.89,744.58" /><polyline points="440.97,740.75 438.59,740.75 438.59,742.91 440.27,742.91" /><polyline points="438.59,742.91 438.59,745.25 440.97,745.25" /><polyline points="310.25,753.25 315.25,753.25" /><polyline points="312.75,753.25 312.75,760.75" /><polyline points="316.00,753.25 316.00,760.75" /><polyline points="321.00,753.25 321.00,760.75" /><polyline points="316.00,756.85 321.00,756.85" /><polyline points="326.00,753.25 321.75,753.25 321.75,756.85 324.75,756.85" /><polyline points="321.75,756.85 321.75,760.75 326.00,760.75" /><polyline points="337.75,754.38 336.00,753.25 335.00,753.25 333.25,754.75 333.25,759.25 335.00,760.75 336.00,760.75 337.75,759.62" /><polyline points="341.50,753.25 339.50,754.00 339.00,755.50 339.00,758.50 339.50,760.00 341.50,760.75 343.50,760.00 344.00,758.50 344.00,755.50 343.50,754.00 341.50,753.25" /><polyline points="344.75,753.25 344.75,758.88 345.75,760.38 348.75,760.38 349.75,758.88 349.75,753.25" /><polyline points="350.50,760.75 350.50,753.25 355.50,760.75 355.50,753.25" /><polyline points="356.25,753.25 361.25,753.25" /><polyline points="358.75,753.25 358.75,760.75" /><polyline points="367.75,760.75 367.75,753.25 370.50,753.25 372.25,755.12 372.25,758.88 370.50,760.75 367.75,760.75" /><polyline points="376.00,753.25 374.00,754.00 373.50,755.50 373.50,758.50 374.00,760.00 376.00,760.75 378.00,760.00 378.50,758.50 378.50,755.50 378.00,754.00 376.00,753.25" /><polyline points="383.50,753.25 379.25,753.25 379.25,756.85 382.25,756.85" /><polyline points="379.25,756.85 379.25,760.75 383.50,760.75" /><polyline points="389.25,754.00 388.00,753.25 386.50,753.25 385.25,754.38 385.00,755.50 385.75,756.40 387.50,757.00 389.25,757.60 390.00,758.50 389.75,759.62 388.50,760.75 386.75,760.75 385.50,760.00" /><polyline points="396.50,760.75 396.50,753.25 401.50,760.75 401.50,753.25" /><polyline points="404.75,753.25 402.75,754.00 402.25,755.50 402.25,758.50 402.75,760.00 404.75,760.75 406.75,760.00 407.25,758.50 407.25,755.50 406.75,754.00 404.75,753.25" /><polyline points="408.00,753.25 413.00,753.25" /><polyline points="410.50,753.25 410.50,760.75" /><polyline points="419.50,760.75 419.50,753.25 424.50,760.75 424.50,753.25" /><polyline points="429.50,753.25 425.25,753.25 425.25,756.85 428.25,756.85" /><polyline points="425.25,756.85 425.25,760.75 429.50,760.75" /><polyline points="435.25,753.25 431.00,753.25 431.00,756.85 434.00,756.85" /><polyline points="431.00,756.85 431.00,760.75 435.25,760.75" /><polyline points="436.75,760.75 436.75,753.25 439.50,753.25 441.25,755.12 441.25,758.88 439.50,760.75 436.75,760.75" /><polyline points="448.25,760.75 450.75,753.25 453.25,760.75" /><polyline points="449.15,758.12 452.35,758.12" /><polyline points="459.75,753.25 459.75,760.75" /><polyline points="464.75,753.25 464.75,760.75" /><polyline points="459.75,756.85 464.75,756.85" /><polyline points="469.75,753.25 465.50,753.25 465.50,756.85 468.50,756.85" /><polyline points="465.50,756.85 465.50,760.75 469.75,760.75" /><polyline points="471.25,760.75 473.75,753.25 476.25,760.75" /><polyline points="472.15,758.12 475.35,758.12" /><polyline points="477.00,760.75 477.00,753.25 479.75,753.25 481.50,755.12 481.50,758.88 479.75,760.75 477.00,760.75" /><polyline points="482.75,753.25 482.75,760.75 487.00,760.75" /><polyline points="491.00,753.25 491.00,760.75" /><polyline points="494.25,760.75 494.25,753.25 499.25,760.75 499.25,753.25" /><polyline points="504.25,753.25 500.00,753.25 500.00,756.85 503.00,756.85" /><polyline points="500.00,756.85 500.00,760.75 504.25,760.75" /><polyline points="327.12,766.25 327.12,773.75" /><polyline points="330.38,766.25 335.38,766.25" /><polyline points="332.88,766.25 332.88,773.75" /><polyline points="341.88,773.75 344.38,766.25 346.88,773.75" /><polyline points="342.77,771.12 345.98,771.12" /><polyline points="347.62,773.75 347.62,766.25 350.38,766.25 352.12,768.12 352.12,771.88 350.38,773.75 347.62,773.75" /><polyline points="353.38,773.75 353.38,766.25 356.12,766.25 357.88,768.12 357.88,771.88 356.12,773.75 353.38,773.75" /><polyline points="363.38,767.00 362.12,766.25 360.62,766.25 359.38,767.38 359.12,768.50 359.88,769.40 361.62,770.00 363.38,770.60 364.12,771.50 363.88,772.62 362.62,773.75 360.88,773.75 359.62,773.00" /><polyline points="373.12,766.25 373.12,773.75" /><polyline points="376.38,766.25 381.38,766.25" /><polyline points="378.88,766.25 378.88,773.75" /><polyline points="386.38,767.00 385.12,766.25 383.62,766.25 382.38,767.38 382.12,768.50 382.88,769.40 384.62,770.00 386.38,770.60 387.12,771.50 386.88,772.62 385.62,773.75 383.88,773.75 382.62,773.00" /><polyline points="392.12,766.25 387.88,766.25 387.88,769.85 390.88,769.85" /><polyline points="387.88,769.85 387.88,773.75 392.12,773.75" /><polyline points="393.62,766.25 393.62,773.75 397.88,773.75" /><polyline points="403.62,766.25 399.38,766.25 399.38,769.85 402.38,769.85" /><polyline points="399.38,769.85 399.38,773.75" /><polyline points="410.88,766.25 410.88,771.88 411.88,773.38 414.88,773.38 415.88,771.88 415.88,766.25" /><polyline points="416.62,773.75 416.62,766.25 419.88,766.25 421.12,767.38 421.12,768.65 419.88,769.62 416.62,769.62" /><polyline points="430.62,766.25 430.62,773.75" /><polyline points="433.88,773.75 433.88,766.25 438.88,773.75 438.88,766.25" /><polyline points="445.38,766.25 450.38,766.25" /><polyline points="447.88,766.25 447.88,773.75" /><polyline points="451.12,766.25 451.12,773.75" /><polyline points="456.12,766.25 456.12,773.75" /><polyline points="451.12,769.85 456.12,769.85" /><polyline points="461.12,766.25 456.88,766.25 456.88,769.85 459.88,769.85" /><polyline points="456.88,769.85 456.88,773.75 461.12,773.75" /><polyline points="468.38,773.75 468.38,766.25 471.12,766.25 472.88,768.12 472.88,771.88 471.12,773.75 468.38,773.75" /><polyline points="474.12,773.75 476.62,766.25 479.12,773.75" /><polyline points="475.02,771.12 478.23,771.12" /><polyline points="479.88,773.75 479.88,766.25 483.12,766.25 484.38,767.38 484.38,768.65 483.12,769.62 479.88,769.62 484.38,773.75" /><polyline points="485.62,766.25 485.62,773.75" /><polyline points="490.12,766.25 485.62,770.00 490.12,773.75" /><polyline points="385.92,779.50 387.52,784.50 389.12,779.50" /><polyline points="391.20,779.50 391.20,784.50" /><polyline points="394.88,779.50 394.88,784.50" /><polyline points="398.56,784.00 398.56,784.25" /><polyline points="402.24,779.50 402.24,784.50" /><polyline points="405.92,784.00 405.92,784.25" /><polyline points="408.00,784.50 408.00,779.50 409.60,782.25 411.20,779.50 411.20,784.50" /><polyline points="411.68,784.50 411.68,779.50 413.28,782.25 414.88,779.50 414.88,784.50" /><polyline points="415.36,779.50 418.56,784.50" /><polyline points="418.56,779.50 415.36,784.50" /><polyline points="419.04,779.50 422.24,784.50" /><polyline points="422.24,779.50 419.04,784.50" /><polyline points="422.72,779.50 424.32,784.50 425.92,779.50" /><polyline points="428.00,779.50 428.00,784.50" /></g><g id="02_Teal_Image" inkscape:groupmode="layer" inkscape:label="02_Teal_Image" stroke="#3A7A7A" fill="none" stroke-width="0.75" stroke-linecap="round" stroke-linejoin="round"><line x1="415.61" y1="703.29" x2="415.61" y2="680.63" stroke-width="0.95" /><line x1="422.56" y1="702.65" x2="422.56" y2="680.89" stroke-width="0.95" /><line x1="427.64" y1="702.89" x2="427.64" y2="679.92" stroke-width="0.95" /><line x1="433.87" y1="702.83" x2="433.87" y2="680.22" stroke-width="0.95" /><line x1="412.60" y1="700.91" x2="436.16" y2="682.15" stroke-width="0.95" /><line x1="448.83" y1="625.27" x2="448.83" y2="608.22" stroke-width="0.825" /><line x1="453.70" y1="626.17" x2="453.70" y2="607.95" stroke-width="0.825" /><line x1="457.70" y1="625.41" x2="457.70" y2="608.58" stroke-width="0.825" /><line x1="462.68" y1="625.35" x2="462.68" y2="608.51" stroke-width="0.825" /><line x1="446.25" y1="624.04" x2="464.23" y2="609.73" stroke-width="0.825" /><line x1="273.29" y1="645.34" x2="273.29" y2="625.67" stroke-width="0.85" /><line x1="278.88" y1="645.43" x2="278.88" y2="625.72" stroke-width="0.85" /><line x1="283.69" y1="645.59" x2="283.69" y2="625.67" stroke-width="0.85" /><line x1="288.82" y1="645.39" x2="288.82" y2="625.22" stroke-width="0.85" /><line x1="270.90" y1="643.06" x2="290.89" y2="627.15" stroke-width="0.85" /><line x1="421.89" y1="692.97" x2="421.89" y2="671.02" stroke-width="0.925" /><line x1="427.31" y1="692.17" x2="427.31" y2="671.08" stroke-width="0.925" /><line x1="432.92" y1="693.24" x2="432.92" y2="669.96" stroke-width="0.925" /><line x1="438.96" y1="692.78" x2="438.96" y2="670.16" stroke-width="0.925" /><line x1="418.38" y1="690.50" x2="441.24" y2="672.30" stroke-width="0.925" /><line x1="304.82" y1="607.64" x2="304.82" y2="589.46" stroke-width="0.8" /><line x1="308.94" y1="606.56" x2="308.94" y2="588.88" stroke-width="0.8" /><line x1="314.05" y1="606.91" x2="314.05" y2="589.49" stroke-width="0.8" /><line x1="318.83" y1="606.79" x2="318.83" y2="589.16" stroke-width="0.8" /><line x1="301.59" y1="605.34" x2="320.16" y2="590.56" stroke-width="0.8" /><line x1="366.89" y1="705.04" x2="366.89" y2="682.91" stroke-width="0.95" /><line x1="372.03" y1="704.62" x2="372.03" y2="682.64" stroke-width="0.95" /><line x1="377.43" y1="705.42" x2="377.43" y2="682.75" stroke-width="0.95" /><line x1="383.22" y1="705.59" x2="383.22" y2="683.01" stroke-width="0.95" /><line x1="362.99" y1="702.82" x2="385.67" y2="684.76" stroke-width="0.95" /><line x1="304.02" y1="601.97" x2="304.02" y2="585.10" stroke-width="0.8" /><line x1="308.33" y1="602.85" x2="308.33" y2="584.86" stroke-width="0.8" /><line x1="312.82" y1="602.88" x2="312.82" y2="584.99" stroke-width="0.8" /><line x1="317.72" y1="602.60" x2="317.72" y2="585.31" stroke-width="0.8" /><line x1="301.05" y1="600.66" x2="318.90" y2="586.45" stroke-width="0.8" /><line x1="404.58" y1="612.25" x2="404.58" y2="594.24" stroke-width="0.8" /><line x1="409.37" y1="612.72" x2="409.37" y2="595.11" stroke-width="0.8" /><line x1="414.61" y1="612.57" x2="414.61" y2="594.80" stroke-width="0.8" /><line x1="418.96" y1="611.98" x2="418.96" y2="594.90" stroke-width="0.8" /><line x1="402.45" y1="610.58" x2="420.77" y2="595.99" stroke-width="0.8" /><line x1="428.85" y1="694.23" x2="428.85" y2="674.45" stroke-width="0.925" /><line x1="433.88" y1="694.76" x2="433.88" y2="675.03" stroke-width="0.925" /><line x1="439.14" y1="695.37" x2="439.14" y2="674.43" stroke-width="0.925" /><line x1="443.74" y1="695.04" x2="443.74" y2="675.59" stroke-width="0.925" /><line x1="425.40" y1="692.82" x2="445.80" y2="676.58" stroke-width="0.925" /><line x1="276.83" y1="697.10" x2="276.83" y2="677.45" stroke-width="0.925" /><line x1="281.80" y1="698.20" x2="281.80" y2="677.97" stroke-width="0.925" /><line x1="287.53" y1="697.29" x2="287.53" y2="677.89" stroke-width="0.925" /><line x1="292.81" y1="697.55" x2="292.81" y2="677.85" stroke-width="0.925" /><line x1="273.65" y1="695.60" x2="294.30" y2="679.16" stroke-width="0.925" /><line x1="478.65" y1="614.93" x2="478.65" y2="595.45" stroke-width="0.8" /><line x1="484.22" y1="613.80" x2="484.22" y2="595.20" stroke-width="0.8" /><line x1="489.14" y1="614.83" x2="489.14" y2="595.54" stroke-width="0.8" /><line x1="493.44" y1="614.73" x2="493.44" y2="595.73" stroke-width="0.8" /><line x1="476.01" y1="612.46" x2="495.64" y2="596.83" stroke-width="0.8" /><line x1="443.69" y1="642.64" x2="443.69" y2="623.32" stroke-width="0.85" /><line x1="448.75" y1="642.05" x2="448.75" y2="623.03" stroke-width="0.85" /><line x1="453.26" y1="642.01" x2="453.26" y2="622.64" stroke-width="0.85" /><line x1="458.46" y1="642.93" x2="458.46" y2="623.26" stroke-width="0.85" /><line x1="440.67" y1="640.51" x2="460.78" y2="624.50" stroke-width="0.85" /><line x1="351.76" y1="676.46" x2="351.76" y2="655.43" stroke-width="0.9" /><line x1="356.17" y1="676.21" x2="356.17" y2="655.13" stroke-width="0.9" /><line x1="362.07" y1="676.42" x2="362.07" y2="654.77" stroke-width="0.9" /><line x1="367.64" y1="675.77" x2="367.64" y2="655.16" stroke-width="0.9" /><line x1="348.09" y1="674.13" x2="369.88" y2="656.79" stroke-width="0.9" /><line x1="464.78" y1="481.21" x2="464.78" y2="467.91" stroke-width="0.6" /><line x1="468.42" y1="481.66" x2="468.42" y2="467.63" stroke-width="0.6" /><line x1="471.90" y1="481.12" x2="471.90" y2="467.12" stroke-width="0.6" /><line x1="475.34" y1="480.97" x2="475.34" y2="468.08" stroke-width="0.6" /><line x1="462.95" y1="480.11" x2="477.31" y2="468.67" stroke-width="0.6" /><line x1="342.93" y1="687.79" x2="342.93" y2="668.99" stroke-width="0.925" /><line x1="348.03" y1="687.79" x2="348.03" y2="669.27" stroke-width="0.925" /><line x1="352.52" y1="688.05" x2="352.52" y2="669.19" stroke-width="0.925" /><line x1="357.15" y1="688.00" x2="357.15" y2="668.20" stroke-width="0.925" /><line x1="339.48" y1="686.42" x2="359.70" y2="670.32" stroke-width="0.925" /><line x1="445.51" y1="590.28" x2="445.51" y2="573.16" stroke-width="0.775" /><line x1="449.79" y1="589.63" x2="449.79" y2="573.94" stroke-width="0.775" /><line x1="453.36" y1="589.51" x2="453.36" y2="573.29" stroke-width="0.775" /><line x1="457.80" y1="589.40" x2="457.80" y2="573.69" stroke-width="0.775" /><line x1="442.92" y1="588.10" x2="459.67" y2="574.77" stroke-width="0.775" /><line x1="493.23" y1="585.54" x2="493.23" y2="567.76" stroke-width="0.775" /><line x1="497.82" y1="585.60" x2="497.82" y2="567.50" stroke-width="0.775" /><line x1="502.30" y1="585.04" x2="502.30" y2="567.65" stroke-width="0.775" /><line x1="507.84" y1="585.21" x2="507.84" y2="568.47" stroke-width="0.775" /><line x1="491.12" y1="583.70" x2="509.01" y2="569.46" stroke-width="0.775" /><line x1="476.14" y1="684.35" x2="476.14" y2="664.03" stroke-width="0.9" /><line x1="481.38" y1="684.36" x2="481.38" y2="663.85" stroke-width="0.9" /><line x1="486.43" y1="683.66" x2="486.43" y2="664.85" stroke-width="0.9" /><line x1="491.22" y1="683.38" x2="491.22" y2="663.78" stroke-width="0.9" /><line x1="473.32" y1="681.94" x2="493.52" y2="665.86" stroke-width="0.9" /><line x1="410.94" y1="482.99" x2="410.94" y2="469.63" stroke-width="0.6" /><line x1="414.62" y1="483.24" x2="414.62" y2="468.83" stroke-width="0.6" /><line x1="418.62" y1="482.79" x2="418.62" y2="469.59" stroke-width="0.6" /><line x1="421.32" y1="483.01" x2="421.32" y2="468.86" stroke-width="0.6" /><line x1="409.14" y1="481.32" x2="422.83" y2="470.42" stroke-width="0.6" /><line x1="400.85" y1="673.50" x2="400.85" y2="652.07" stroke-width="0.9" /><line x1="406.95" y1="673.05" x2="406.95" y2="651.70" stroke-width="0.9" /><line x1="412.15" y1="673.21" x2="412.15" y2="652.01" stroke-width="0.9" /><line x1="417.45" y1="672.64" x2="417.45" y2="652.19" stroke-width="0.9" /><line x1="398.18" y1="671.10" x2="420.16" y2="653.60" stroke-width="0.9" /><line x1="483.54" y1="588.86" x2="483.54" y2="571.14" stroke-width="0.775" /><line x1="488.65" y1="588.71" x2="488.65" y2="570.95" stroke-width="0.775" /><line x1="493.39" y1="589.34" x2="493.39" y2="570.51" stroke-width="0.775" /><line x1="497.88" y1="589.03" x2="497.88" y2="571.07" stroke-width="0.775" /><line x1="480.66" y1="587.18" x2="499.67" y2="572.04" stroke-width="0.775" /><line x1="374.34" y1="678.78" x2="374.34" y2="658.12" stroke-width="0.9" /><line x1="379.81" y1="679.13" x2="379.81" y2="658.29" stroke-width="0.9" /><line x1="384.92" y1="679.16" x2="384.92" y2="658.62" stroke-width="0.9" /><line x1="390.71" y1="679.26" x2="390.71" y2="657.79" stroke-width="0.9" /><line x1="370.97" y1="676.97" x2="392.30" y2="659.98" stroke-width="0.9" /><line x1="334.80" y1="588.47" x2="334.80" y2="572.18" stroke-width="0.775" /><line x1="339.01" y1="588.26" x2="339.01" y2="572.54" stroke-width="0.775" /><line x1="342.33" y1="588.90" x2="342.33" y2="572.48" stroke-width="0.775" /><line x1="346.80" y1="588.13" x2="346.80" y2="571.58" stroke-width="0.775" /><line x1="331.72" y1="587.05" x2="348.88" y2="573.39" stroke-width="0.775" /><line x1="355.56" y1="668.59" x2="355.56" y2="647.46" stroke-width="0.875" /><line x1="361.27" y1="668.98" x2="361.27" y2="646.82" stroke-width="0.875" /><line x1="367.33" y1="668.10" x2="367.33" y2="647.41" stroke-width="0.875" /><line x1="371.74" y1="668.20" x2="371.74" y2="647.45" stroke-width="0.875" /><line x1="352.60" y1="666.29" x2="374.40" y2="648.94" stroke-width="0.875" /><line x1="455.11" y1="707.09" x2="455.11" y2="686.48" stroke-width="0.95" /><line x1="459.41" y1="707.08" x2="459.41" y2="687.02" stroke-width="0.95" /><line x1="465.17" y1="707.11" x2="465.17" y2="686.34" stroke-width="0.95" /><line x1="470.17" y1="706.89" x2="470.17" y2="686.50" stroke-width="0.95" /><line x1="451.56" y1="705.10" x2="472.55" y2="688.38" stroke-width="0.95" /><line x1="484.19" y1="589.48" x2="484.19" y2="573.49" stroke-width="0.775" /><line x1="488.85" y1="589.29" x2="488.85" y2="572.94" stroke-width="0.775" /><line x1="493.76" y1="589.92" x2="493.76" y2="573.25" stroke-width="0.775" /><line x1="497.42" y1="589.71" x2="497.42" y2="573.21" stroke-width="0.775" /><line x1="482.07" y1="588.15" x2="499.12" y2="574.58" stroke-width="0.775" /><line x1="402.73" y1="653.35" x2="402.73" y2="632.13" stroke-width="0.875" /><line x1="407.29" y1="652.47" x2="407.29" y2="631.64" stroke-width="0.875" /><line x1="412.87" y1="653.21" x2="412.87" y2="631.80" stroke-width="0.875" /><line x1="418.62" y1="652.45" x2="418.62" y2="631.61" stroke-width="0.875" /><line x1="398.99" y1="650.82" x2="420.71" y2="633.53" stroke-width="0.875" /><line x1="418.71" y1="549.12" x2="418.71" y2="533.53" stroke-width="0.7" /><line x1="422.89" y1="549.83" x2="422.89" y2="533.72" stroke-width="0.7" /><line x1="427.34" y1="549.45" x2="427.34" y2="533.83" stroke-width="0.7" /><line x1="431.07" y1="549.68" x2="431.07" y2="533.28" stroke-width="0.7" /><line x1="416.16" y1="548.09" x2="432.44" y2="535.13" stroke-width="0.7" /><line x1="417.66" y1="666.84" x2="417.66" y2="645.80" stroke-width="0.875" /><line x1="423.47" y1="666.48" x2="423.47" y2="646.91" stroke-width="0.875" /><line x1="428.52" y1="666.29" x2="428.52" y2="646.73" stroke-width="0.875" /><line x1="433.47" y1="666.93" x2="433.47" y2="646.35" stroke-width="0.875" /><line x1="414.88" y1="664.66" x2="435.85" y2="647.96" stroke-width="0.875" /><line x1="353.72" y1="538.61" x2="353.72" y2="525.95" stroke-width="0.7" /><line x1="357.66" y1="539.11" x2="357.66" y2="525.82" stroke-width="0.7" /><line x1="360.51" y1="538.44" x2="360.51" y2="525.99" stroke-width="0.7" /><line x1="363.86" y1="538.69" x2="363.86" y2="524.93" stroke-width="0.7" /><line x1="351.80" y1="537.66" x2="365.74" y2="526.56" stroke-width="0.7" /><line x1="360.26" y1="545.31" x2="360.26" y2="530.84" stroke-width="0.7" /><line x1="363.36" y1="544.64" x2="363.36" y2="530.29" stroke-width="0.7" /><line x1="367.08" y1="545.49" x2="367.08" y2="531.03" stroke-width="0.7" /><line x1="371.21" y1="545.54" x2="371.21" y2="530.42" stroke-width="0.7" /><line x1="357.59" y1="543.58" x2="372.48" y2="531.72" stroke-width="0.7" /><line x1="313.36" y1="596.28" x2="313.36" y2="577.61" stroke-width="0.775" /><line x1="317.86" y1="595.42" x2="317.86" y2="578.66" stroke-width="0.775" /><line x1="321.50" y1="595.67" x2="321.50" y2="578.35" stroke-width="0.775" /><line x1="326.35" y1="595.60" x2="326.35" y2="578.66" stroke-width="0.775" /><line x1="310.20" y1="594.04" x2="328.34" y2="579.59" stroke-width="0.775" /><line x1="336.14" y1="647.25" x2="336.14" y2="627.37" stroke-width="0.85" /><line x1="342.10" y1="647.31" x2="342.10" y2="626.50" stroke-width="0.85" /><line x1="347.46" y1="647.95" x2="347.46" y2="626.66" stroke-width="0.85" /><line x1="352.84" y1="647.75" x2="352.84" y2="626.46" stroke-width="0.85" /><line x1="333.49" y1="645.33" x2="354.49" y2="628.61" stroke-width="0.85" /><line x1="481.68" y1="509.41" x2="481.68" y2="494.24" stroke-width="0.65" /><line x1="484.68" y1="509.99" x2="484.68" y2="495.08" stroke-width="0.65" /><line x1="489.38" y1="509.93" x2="489.38" y2="494.14" stroke-width="0.65" /><line x1="493.64" y1="509.30" x2="493.64" y2="494.94" stroke-width="0.65" /><line x1="479.10" y1="508.13" x2="494.55" y2="495.83" stroke-width="0.65" /><line x1="346.04" y1="553.00" x2="346.04" y2="536.62" stroke-width="0.725" /><line x1="351.19" y1="552.90" x2="351.19" y2="536.51" stroke-width="0.725" /><line x1="354.93" y1="552.50" x2="354.93" y2="536.23" stroke-width="0.725" /><line x1="358.76" y1="552.69" x2="358.76" y2="536.41" stroke-width="0.725" /><line x1="344.04" y1="551.16" x2="360.69" y2="537.90" stroke-width="0.725" /><line x1="474.24" y1="653.19" x2="474.24" y2="634.63" stroke-width="0.875" /><line x1="479.94" y1="653.05" x2="479.94" y2="634.35" stroke-width="0.875" /><line x1="483.66" y1="652.61" x2="483.66" y2="633.55" stroke-width="0.875" /><line x1="489.42" y1="652.96" x2="489.42" y2="633.71" stroke-width="0.875" /><line x1="471.69" y1="650.89" x2="490.92" y2="635.59" stroke-width="0.875" /><line x1="460.45" y1="651.43" x2="460.45" y2="630.75" stroke-width="0.85" /><line x1="465.92" y1="650.65" x2="465.92" y2="629.94" stroke-width="0.85" /><line x1="471.46" y1="650.47" x2="471.46" y2="630.60" stroke-width="0.85" /><line x1="476.48" y1="650.47" x2="476.48" y2="630.38" stroke-width="0.85" /><line x1="457.67" y1="648.94" x2="479.11" y2="631.88" stroke-width="0.85" /><line x1="308.88" y1="691.73" x2="308.88" y2="669.21" stroke-width="0.925" /><line x1="315.10" y1="692.10" x2="315.10" y2="669.88" stroke-width="0.925" /><line x1="320.53" y1="691.81" x2="320.53" y2="669.47" stroke-width="0.925" /><line x1="326.05" y1="691.07" x2="326.05" y2="670.03" stroke-width="0.925" /><line x1="306.12" y1="689.36" x2="328.60" y2="671.46" stroke-width="0.925" /><line x1="394.87" y1="450.50" x2="394.87" y2="438.64" stroke-width="0.575" /><line x1="397.62" y1="451.04" x2="397.62" y2="438.62" stroke-width="0.575" /><line x1="401.47" y1="451.05" x2="401.47" y2="438.28" stroke-width="0.575" /><line x1="403.75" y1="450.44" x2="403.75" y2="438.31" stroke-width="0.575" /><line x1="392.91" y1="449.40" x2="405.56" y2="439.33" stroke-width="0.575" /><line x1="376.17" y1="499.70" x2="376.17" y2="485.20" stroke-width="0.625" /><line x1="379.30" y1="499.84" x2="379.30" y2="485.19" stroke-width="0.625" /><line x1="383.50" y1="499.43" x2="383.50" y2="485.36" stroke-width="0.625" /><line x1="386.98" y1="499.35" x2="386.98" y2="484.50" stroke-width="0.625" /><line x1="373.58" y1="497.86" x2="388.46" y2="486.02" stroke-width="0.625" /><line x1="477.50" y1="615.17" x2="477.50" y2="596.17" stroke-width="0.8" /><line x1="482.12" y1="615.54" x2="482.12" y2="595.05" stroke-width="0.8" /><line x1="487.06" y1="615.28" x2="487.06" y2="595.24" stroke-width="0.8" /><line x1="492.30" y1="615.31" x2="492.30" y2="595.12" stroke-width="0.8" /><line x1="474.00" y1="613.29" x2="494.24" y2="597.17" stroke-width="0.8" /><line x1="463.46" y1="582.49" x2="463.46" y2="566.25" stroke-width="0.75" /><line x1="467.11" y1="583.49" x2="467.11" y2="566.71" stroke-width="0.75" /><line x1="472.23" y1="582.93" x2="472.23" y2="565.78" stroke-width="0.75" /><line x1="475.81" y1="582.96" x2="475.81" y2="565.63" stroke-width="0.75" /><line x1="460.51" y1="581.39" x2="477.88" y2="567.57" stroke-width="0.75" /><line x1="373.87" y1="640.36" x2="373.87" y2="621.20" stroke-width="0.85" /><line x1="378.56" y1="640.40" x2="378.56" y2="620.47" stroke-width="0.85" /><line x1="384.19" y1="640.89" x2="384.19" y2="621.10" stroke-width="0.85" /><line x1="389.90" y1="640.23" x2="389.90" y2="620.82" stroke-width="0.85" /><line x1="370.83" y1="638.60" x2="391.29" y2="622.31" stroke-width="0.85" /><line x1="405.85" y1="533.75" x2="405.85" y2="518.68" stroke-width="0.675" /><line x1="409.97" y1="533.83" x2="409.97" y2="518.89" stroke-width="0.675" /><line x1="413.91" y1="533.41" x2="413.91" y2="518.96" stroke-width="0.675" /><line x1="417.67" y1="533.76" x2="417.67" y2="518.57" stroke-width="0.675" /><line x1="404.26" y1="531.78" x2="419.23" y2="519.86" stroke-width="0.675" /><line x1="355.28" y1="542.63" x2="355.28" y2="528.14" stroke-width="0.7" /><line x1="359.49" y1="542.26" x2="359.49" y2="527.55" stroke-width="0.7" /><line x1="362.77" y1="542.17" x2="362.77" y2="528.42" stroke-width="0.7" /><line x1="366.13" y1="542.54" x2="366.13" y2="528.53" stroke-width="0.7" /><line x1="352.95" y1="541.08" x2="367.95" y2="529.14" stroke-width="0.7" /><line x1="488.28" y1="692.48" x2="488.28" y2="670.83" stroke-width="0.925" /><line x1="493.82" y1="692.93" x2="493.82" y2="670.22" stroke-width="0.925" /><line x1="499.66" y1="693.07" x2="499.66" y2="669.98" stroke-width="0.925" /><line x1="505.36" y1="693.29" x2="505.36" y2="670.12" stroke-width="0.925" /><line x1="484.91" y1="690.68" x2="508.05" y2="672.25" stroke-width="0.925" /><line x1="497.92" y1="572.81" x2="497.92" y2="557.53" stroke-width="0.75" /><line x1="501.73" y1="573.38" x2="501.73" y2="557.62" stroke-width="0.75" /><line x1="505.88" y1="572.92" x2="505.88" y2="557.32" stroke-width="0.75" /><line x1="509.75" y1="572.86" x2="509.75" y2="557.46" stroke-width="0.75" /><line x1="495.15" y1="571.79" x2="511.08" y2="559.10" stroke-width="0.75" /><line x1="382.12" y1="507.25" x2="382.12" y2="492.88" stroke-width="0.65" /><line x1="385.19" y1="507.93" x2="385.19" y2="492.70" stroke-width="0.65" /><line x1="389.43" y1="507.66" x2="389.43" y2="493.09" stroke-width="0.65" /><line x1="394.02" y1="507.47" x2="394.02" y2="492.72" stroke-width="0.65" /><line x1="379.46" y1="506.19" x2="395.04" y2="493.79" stroke-width="0.65" /><line x1="443.56" y1="569.55" x2="443.56" y2="554.38" stroke-width="0.75" /><line x1="447.49" y1="569.75" x2="447.49" y2="553.63" stroke-width="0.75" /><line x1="451.92" y1="570.49" x2="451.92" y2="553.75" stroke-width="0.75" /><line x1="456.04" y1="570.11" x2="456.04" y2="553.72" stroke-width="0.75" /><line x1="441.54" y1="568.49" x2="457.88" y2="555.48" stroke-width="0.75" /><line x1="507.26" y1="549.12" x2="507.26" y2="532.76" stroke-width="0.7" /><line x1="511.26" y1="549.73" x2="511.26" y2="532.28" stroke-width="0.7" /><line x1="515.28" y1="549.79" x2="515.28" y2="532.13" stroke-width="0.7" /><line x1="519.75" y1="549.49" x2="519.75" y2="533.07" stroke-width="0.7" /><line x1="504.39" y1="547.74" x2="521.59" y2="534.04" stroke-width="0.7" /><line x1="330.95" y1="677.99" x2="330.95" y2="655.94" stroke-width="0.9" /><line x1="336.80" y1="677.79" x2="336.80" y2="655.65" stroke-width="0.9" /><line x1="342.25" y1="678.07" x2="342.25" y2="655.57" stroke-width="0.9" /><line x1="348.14" y1="678.41" x2="348.14" y2="656.62" stroke-width="0.9" /><line x1="328.11" y1="675.74" x2="350.52" y2="657.90" stroke-width="0.9" /><line x1="332.74" y1="629.13" x2="332.74" y2="609.84" stroke-width="0.825" /><line x1="338.19" y1="628.37" x2="338.19" y2="609.03" stroke-width="0.825" /><line x1="342.81" y1="628.84" x2="342.81" y2="609.62" stroke-width="0.825" /><line x1="348.13" y1="628.46" x2="348.13" y2="609.18" stroke-width="0.825" /><line x1="329.74" y1="626.96" x2="350.00" y2="610.83" stroke-width="0.825" /><line x1="476.33" y1="621.21" x2="476.33" y2="602.77" stroke-width="0.825" /><line x1="481.33" y1="622.00" x2="481.33" y2="602.78" stroke-width="0.825" /><line x1="485.92" y1="621.13" x2="485.92" y2="602.96" stroke-width="0.825" /><line x1="491.00" y1="621.18" x2="491.00" y2="603.65" stroke-width="0.825" /><line x1="473.12" y1="619.82" x2="492.27" y2="604.57" stroke-width="0.825" /><line x1="491.43" y1="544.28" x2="491.43" y2="530.67" stroke-width="0.7" /><line x1="496.10" y1="544.63" x2="496.10" y2="530.03" stroke-width="0.7" /><line x1="499.15" y1="543.59" x2="499.15" y2="530.60" stroke-width="0.7" /><line x1="503.05" y1="544.36" x2="503.05" y2="530.35" stroke-width="0.7" /><line x1="489.94" y1="542.79" x2="504.11" y2="531.52" stroke-width="0.7" /><line x1="429.73" y1="650.25" x2="429.73" y2="630.02" stroke-width="0.85" /><line x1="435.10" y1="650.01" x2="435.10" y2="630.52" stroke-width="0.85" /><line x1="440.91" y1="650.42" x2="440.91" y2="629.97" stroke-width="0.85" /><line x1="445.09" y1="649.73" x2="445.09" y2="629.44" stroke-width="0.85" /><line x1="426.96" y1="648.11" x2="447.65" y2="631.64" stroke-width="0.85" /><line x1="435.90" y1="624.77" x2="435.90" y2="605.69" stroke-width="0.825" /><line x1="440.84" y1="624.86" x2="440.84" y2="606.45" stroke-width="0.825" /><line x1="445.05" y1="625.09" x2="445.05" y2="606.53" stroke-width="0.825" /><line x1="450.13" y1="624.99" x2="450.13" y2="606.24" stroke-width="0.825" /><line x1="432.93" y1="622.75" x2="452.10" y2="607.49" stroke-width="0.825" /><line x1="345.27" y1="547.99" x2="345.27" y2="533.28" stroke-width="0.7" /><line x1="348.65" y1="548.18" x2="348.65" y2="532.66" stroke-width="0.7" /><line x1="352.32" y1="547.41" x2="352.32" y2="533.10" stroke-width="0.7" /><line x1="356.45" y1="547.42" x2="356.45" y2="533.38" stroke-width="0.7" /><line x1="342.95" y1="546.48" x2="358.17" y2="534.36" stroke-width="0.7" /><line x1="366.81" y1="646.62" x2="366.81" y2="628.17" stroke-width="0.85" /><line x1="372.26" y1="646.57" x2="372.26" y2="627.70" stroke-width="0.85" /><line x1="376.54" y1="647.11" x2="376.54" y2="627.84" stroke-width="0.85" /><line x1="381.56" y1="646.78" x2="381.56" y2="628.37" stroke-width="0.85" /><line x1="364.46" y1="644.72" x2="383.67" y2="629.42" stroke-width="0.85" /><line x1="302.57" y1="556.43" x2="302.57" y2="539.88" stroke-width="0.725" /><line x1="308.02" y1="557.34" x2="308.02" y2="540.21" stroke-width="0.725" /><line x1="311.31" y1="556.42" x2="311.31" y2="540.16" stroke-width="0.725" /><line x1="315.61" y1="556.73" x2="315.61" y2="540.23" stroke-width="0.725" /><line x1="300.58" y1="555.23" x2="317.75" y2="541.56" stroke-width="0.725" /><line x1="428.75" y1="589.93" x2="428.75" y2="572.51" stroke-width="0.775" /><line x1="433.28" y1="589.42" x2="433.28" y2="572.59" stroke-width="0.775" /><line x1="438.21" y1="590.39" x2="438.21" y2="572.85" stroke-width="0.775" /><line x1="442.64" y1="590.00" x2="442.64" y2="572.27" stroke-width="0.775" /><line x1="426.53" y1="588.17" x2="444.16" y2="574.13" stroke-width="0.775" /><line x1="330.46" y1="673.00" x2="330.46" y2="652.40" stroke-width="0.9" /><line x1="336.71" y1="672.98" x2="336.71" y2="652.19" stroke-width="0.9" /><line x1="341.14" y1="672.15" x2="341.14" y2="652.54" stroke-width="0.9" /><line x1="347.23" y1="672.21" x2="347.23" y2="652.24" stroke-width="0.9" /><line x1="327.97" y1="670.60" x2="349.06" y2="653.81" stroke-width="0.9" /><line x1="389.49" y1="605.23" x2="389.49" y2="588.63" stroke-width="0.8" /><line x1="393.86" y1="605.15" x2="393.86" y2="588.41" stroke-width="0.8" /><line x1="398.32" y1="605.43" x2="398.32" y2="588.41" stroke-width="0.8" /><line x1="402.16" y1="604.98" x2="402.16" y2="587.78" stroke-width="0.8" /><line x1="386.82" y1="603.66" x2="404.40" y2="589.66" stroke-width="0.8" /><line x1="341.74" y1="658.81" x2="341.74" y2="638.65" stroke-width="0.875" /><line x1="346.20" y1="658.04" x2="346.20" y2="639.13" stroke-width="0.875" /><line x1="351.29" y1="658.79" x2="351.29" y2="638.66" stroke-width="0.875" /><line x1="356.33" y1="657.98" x2="356.33" y2="638.45" stroke-width="0.875" /><line x1="338.36" y1="656.47" x2="358.86" y2="640.15" stroke-width="0.875" /><line x1="478.63" y1="653.06" x2="478.63" y2="634.08" stroke-width="0.875" /><line x1="483.55" y1="653.67" x2="483.55" y2="633.34" stroke-width="0.875" /><line x1="489.07" y1="652.63" x2="489.07" y2="634.02" stroke-width="0.875" /><line x1="493.77" y1="652.91" x2="493.77" y2="633.94" stroke-width="0.875" /><line x1="475.42" y1="651.18" x2="495.57" y2="635.13" stroke-width="0.875" /><line x1="464.90" y1="634.30" x2="464.90" y2="616.14" stroke-width="0.825" /><line x1="469.25" y1="633.61" x2="469.25" y2="616.39" stroke-width="0.825" /><line x1="474.33" y1="634.38" x2="474.33" y2="615.94" stroke-width="0.825" /><line x1="478.96" y1="633.89" x2="478.96" y2="616.63" stroke-width="0.825" /><line x1="461.75" y1="632.34" x2="480.35" y2="617.54" stroke-width="0.825" /><line x1="329.20" y1="631.27" x2="329.20" y2="612.07" stroke-width="0.825" /><line x1="335.27" y1="631.62" x2="335.27" y2="611.76" stroke-width="0.825" /><line x1="339.73" y1="631.55" x2="339.73" y2="611.87" stroke-width="0.825" /><line x1="345.09" y1="632.16" x2="345.09" y2="611.95" stroke-width="0.825" /><line x1="326.57" y1="629.66" x2="347.21" y2="613.23" stroke-width="0.825" /><line x1="310.68" y1="610.95" x2="310.68" y2="592.36" stroke-width="0.8" /><line x1="315.64" y1="611.55" x2="315.64" y2="592.16" stroke-width="0.8" /><line x1="320.36" y1="611.05" x2="320.36" y2="592.17" stroke-width="0.8" /><line x1="325.35" y1="611.12" x2="325.35" y2="592.81" stroke-width="0.8" /><line x1="307.35" y1="609.35" x2="326.74" y2="593.91" stroke-width="0.8" /><line x1="334.95" y1="628.96" x2="334.95" y2="611.62" stroke-width="0.825" /><line x1="339.88" y1="628.80" x2="339.88" y2="610.66" stroke-width="0.825" /><line x1="344.54" y1="627.88" x2="344.54" y2="610.61" stroke-width="0.825" /><line x1="349.21" y1="627.89" x2="349.21" y2="611.73" stroke-width="0.825" /><line x1="332.56" y1="626.72" x2="350.38" y2="612.53" stroke-width="0.825" /><line x1="378.47" y1="623.84" x2="378.47" y2="603.78" stroke-width="0.825" /><line x1="383.38" y1="623.73" x2="383.38" y2="603.54" stroke-width="0.825" /><line x1="389.02" y1="623.77" x2="389.02" y2="603.63" stroke-width="0.825" /><line x1="393.96" y1="623.29" x2="393.96" y2="603.56" stroke-width="0.825" /><line x1="375.80" y1="621.60" x2="396.32" y2="605.26" stroke-width="0.825" /><line x1="407.86" y1="670.09" x2="407.86" y2="649.18" stroke-width="0.9" /><line x1="413.82" y1="670.12" x2="413.82" y2="649.23" stroke-width="0.9" /><line x1="419.11" y1="669.90" x2="419.11" y2="649.56" stroke-width="0.9" /><line x1="424.69" y1="669.98" x2="424.69" y2="648.95" stroke-width="0.9" /><line x1="404.91" y1="668.26" x2="426.45" y2="651.12" stroke-width="0.9" /><line x1="343.11" y1="681.13" x2="343.11" y2="661.12" stroke-width="0.9" /><line x1="348.64" y1="681.23" x2="348.64" y2="660.99" stroke-width="0.9" /><line x1="353.58" y1="681.63" x2="353.58" y2="660.19" stroke-width="0.9" /><line x1="358.88" y1="681.64" x2="358.88" y2="661.33" stroke-width="0.9" /><line x1="339.76" y1="679.06" x2="360.70" y2="662.38" stroke-width="0.9" /><line x1="377.15" y1="696.28" x2="377.15" y2="673.24" stroke-width="0.925" /><line x1="383.74" y1="696.04" x2="383.74" y2="673.77" stroke-width="0.925" /><line x1="389.44" y1="695.80" x2="389.44" y2="673.80" stroke-width="0.925" /><line x1="395.55" y1="696.04" x2="395.55" y2="673.75" stroke-width="0.925" /><line x1="374.00" y1="693.92" x2="397.21" y2="675.45" stroke-width="0.925" /><line x1="307.53" y1="616.19" x2="307.53" y2="597.47" stroke-width="0.8" /><line x1="312.71" y1="616.28" x2="312.71" y2="596.36" stroke-width="0.8" /><line x1="317.55" y1="616.61" x2="317.55" y2="597.25" stroke-width="0.8" /><line x1="322.78" y1="616.05" x2="322.78" y2="597.39" stroke-width="0.8" /><line x1="305.03" y1="614.43" x2="325.09" y2="598.46" stroke-width="0.8" /><line x1="502.17" y1="666.12" x2="502.17" y2="645.15" stroke-width="0.875" /><line x1="507.40" y1="665.53" x2="507.40" y2="645.15" stroke-width="0.875" /><line x1="512.73" y1="665.72" x2="512.73" y2="645.92" stroke-width="0.875" /><line x1="518.32" y1="666.29" x2="518.32" y2="645.20" stroke-width="0.875" /><line x1="498.97" y1="663.85" x2="519.93" y2="647.16" stroke-width="0.875" /><line x1="294.38" y1="531.81" x2="294.38" y2="517.16" stroke-width="0.675" /><line x1="298.50" y1="531.72" x2="298.50" y2="517.09" stroke-width="0.675" /><line x1="302.80" y1="531.29" x2="302.80" y2="517.17" stroke-width="0.675" /><line x1="306.48" y1="531.00" x2="306.48" y2="516.93" stroke-width="0.675" /><line x1="292.57" y1="530.01" x2="307.53" y2="518.10" stroke-width="0.675" /><line x1="332.52" y1="520.86" x2="332.52" y2="506.97" stroke-width="0.675" /><line x1="336.48" y1="520.93" x2="336.48" y2="506.89" stroke-width="0.675" /><line x1="339.56" y1="520.39" x2="339.56" y2="506.71" stroke-width="0.675" /><line x1="343.83" y1="520.80" x2="343.83" y2="507.17" stroke-width="0.675" /><line x1="330.93" y1="518.97" x2="345.01" y2="507.76" stroke-width="0.675" /><line x1="449.64" y1="621.23" x2="449.64" y2="601.85" stroke-width="0.825" /><line x1="455.33" y1="621.65" x2="455.33" y2="602.37" stroke-width="0.825" /><line x1="460.58" y1="621.09" x2="460.58" y2="602.55" stroke-width="0.825" /><line x1="464.41" y1="621.66" x2="464.41" y2="602.47" stroke-width="0.825" /><line x1="447.25" y1="619.33" x2="466.87" y2="603.72" stroke-width="0.825" /><line x1="384.82" y1="590.32" x2="384.82" y2="573.80" stroke-width="0.775" /><line x1="389.12" y1="590.94" x2="389.12" y2="574.32" stroke-width="0.775" /><line x1="393.76" y1="590.66" x2="393.76" y2="574.29" stroke-width="0.775" /><line x1="397.74" y1="590.79" x2="397.74" y2="574.41" stroke-width="0.775" /><line x1="382.06" y1="589.00" x2="399.17" y2="575.38" stroke-width="0.775" /><line x1="407.13" y1="677.13" x2="407.13" y2="657.17" stroke-width="0.9" /><line x1="413.13" y1="677.09" x2="413.13" y2="657.09" stroke-width="0.9" /><line x1="418.00" y1="677.57" x2="418.00" y2="657.41" stroke-width="0.9" /><line x1="423.67" y1="677.85" x2="423.67" y2="657.38" stroke-width="0.9" /><line x1="404.58" y1="675.40" x2="425.50" y2="658.74" stroke-width="0.9" /><line x1="293.21" y1="503.75" x2="293.21" y2="489.43" stroke-width="0.65" /><line x1="297.75" y1="503.56" x2="297.75" y2="489.81" stroke-width="0.65" /><line x1="300.56" y1="504.07" x2="300.56" y2="489.92" stroke-width="0.65" /><line x1="304.81" y1="503.65" x2="304.81" y2="490.01" stroke-width="0.65" /><line x1="291.49" y1="502.52" x2="305.97" y2="490.99" stroke-width="0.65" /><line x1="341.60" y1="700.79" x2="341.60" y2="677.63" stroke-width="0.925" /><line x1="347.50" y1="700.45" x2="347.50" y2="677.90" stroke-width="0.925" /><line x1="353.59" y1="700.96" x2="353.59" y2="678.13" stroke-width="0.925" /><line x1="358.90" y1="700.66" x2="358.90" y2="678.18" stroke-width="0.925" /><line x1="337.78" y1="698.15" x2="361.26" y2="679.46" stroke-width="0.925" /><line x1="470.29" y1="543.34" x2="470.29" y2="528.24" stroke-width="0.7" /><line x1="475.05" y1="544.39" x2="475.05" y2="527.50" stroke-width="0.7" /><line x1="478.40" y1="544.31" x2="478.40" y2="528.24" stroke-width="0.7" /><line x1="482.28" y1="544.50" x2="482.28" y2="528.45" stroke-width="0.7" /><line x1="467.96" y1="542.34" x2="484.30" y2="529.34" stroke-width="0.7" /><line x1="404.47" y1="642.68" x2="404.47" y2="624.55" stroke-width="0.85" /><line x1="409.26" y1="643.18" x2="409.26" y2="625.59" stroke-width="0.85" /><line x1="413.87" y1="643.34" x2="413.87" y2="625.37" stroke-width="0.85" /><line x1="418.25" y1="642.77" x2="418.25" y2="624.97" stroke-width="0.85" /><line x1="401.53" y1="641.25" x2="419.99" y2="626.55" stroke-width="0.85" /><line x1="396.96" y1="616.02" x2="396.96" y2="598.94" stroke-width="0.8" /><line x1="401.50" y1="615.80" x2="401.50" y2="599.09" stroke-width="0.8" /><line x1="405.70" y1="616.38" x2="405.70" y2="599.30" stroke-width="0.8" /><line x1="410.24" y1="616.18" x2="410.24" y2="598.64" stroke-width="0.8" /><line x1="394.77" y1="614.35" x2="412.16" y2="600.50" stroke-width="0.8" /><line x1="457.03" y1="624.67" x2="457.03" y2="606.95" stroke-width="0.825" /><line x1="461.38" y1="624.78" x2="461.38" y2="606.71" stroke-width="0.825" /><line x1="466.87" y1="625.25" x2="466.87" y2="606.27" stroke-width="0.825" /><line x1="470.61" y1="625.36" x2="470.61" y2="607.11" stroke-width="0.825" /><line x1="454.30" y1="623.11" x2="472.94" y2="608.27" stroke-width="0.825" /><line x1="387.29" y1="702.50" x2="387.29" y2="680.76" stroke-width="0.95" /><line x1="392.30" y1="702.69" x2="392.30" y2="680.99" stroke-width="0.95" /><line x1="398.59" y1="702.15" x2="398.59" y2="680.61" stroke-width="0.95" /><line x1="403.47" y1="702.40" x2="403.47" y2="681.23" stroke-width="0.95" /><line x1="383.71" y1="700.48" x2="405.82" y2="682.88" stroke-width="0.95" /><line x1="495.42" y1="471.93" x2="495.42" y2="458.82" stroke-width="0.6" /><line x1="498.88" y1="471.22" x2="498.88" y2="459.01" stroke-width="0.6" /><line x1="501.88" y1="471.47" x2="501.88" y2="459.15" stroke-width="0.6" /><line x1="505.40" y1="471.89" x2="505.40" y2="459.37" stroke-width="0.6" /><line x1="493.53" y1="470.44" x2="506.36" y2="460.23" stroke-width="0.6" /><line x1="371.03" y1="645.66" x2="371.03" y2="626.01" stroke-width="0.85" /><line x1="376.10" y1="644.82" x2="376.10" y2="625.44" stroke-width="0.85" /><line x1="381.72" y1="645.46" x2="381.72" y2="626.32" stroke-width="0.85" /><line x1="385.93" y1="644.69" x2="385.93" y2="625.51" stroke-width="0.85" /><line x1="368.44" y1="643.25" x2="388.31" y2="627.43" stroke-width="0.85" /><line x1="395.22" y1="623.89" x2="395.22" y2="605.82" stroke-width="0.825" /><line x1="399.30" y1="623.80" x2="399.30" y2="605.43" stroke-width="0.825" /><line x1="404.03" y1="623.37" x2="404.03" y2="605.23" stroke-width="0.825" /><line x1="409.43" y1="623.68" x2="409.43" y2="605.59" stroke-width="0.825" /><line x1="392.18" y1="621.50" x2="410.70" y2="606.75" stroke-width="0.825" /><line x1="467.40" y1="662.44" x2="467.40" y2="641.02" stroke-width="0.875" /><line x1="472.14" y1="661.91" x2="472.14" y2="640.99" stroke-width="0.875" /><line x1="478.19" y1="662.01" x2="478.19" y2="641.10" stroke-width="0.875" /><line x1="483.85" y1="662.06" x2="483.85" y2="641.22" stroke-width="0.875" /><line x1="463.70" y1="660.29" x2="485.80" y2="642.70" stroke-width="0.875" /><line x1="470.49" y1="659.81" x2="470.49" y2="639.04" stroke-width="0.875" /><line x1="476.23" y1="659.14" x2="476.23" y2="639.15" stroke-width="0.875" /><line x1="481.16" y1="659.10" x2="481.16" y2="638.92" stroke-width="0.875" /><line x1="486.12" y1="658.96" x2="486.12" y2="638.82" stroke-width="0.875" /><line x1="467.50" y1="657.31" x2="488.54" y2="640.55" stroke-width="0.875" /><line x1="276.94" y1="687.12" x2="276.94" y2="666.23" stroke-width="0.925" /><line x1="282.29" y1="686.57" x2="282.29" y2="667.17" stroke-width="0.925" /><line x1="286.81" y1="686.49" x2="286.81" y2="666.33" stroke-width="0.925" /><line x1="292.02" y1="686.70" x2="292.02" y2="667.17" stroke-width="0.925" /><line x1="273.72" y1="684.99" x2="294.56" y2="668.40" stroke-width="0.925" /><line x1="467.36" y1="589.53" x2="467.36" y2="571.84" stroke-width="0.775" /><line x1="471.74" y1="588.99" x2="471.74" y2="571.48" stroke-width="0.775" /><line x1="476.96" y1="589.66" x2="476.96" y2="570.91" stroke-width="0.775" /><line x1="481.52" y1="589.01" x2="481.52" y2="571.76" stroke-width="0.775" /><line x1="464.63" y1="587.41" x2="483.02" y2="572.76" stroke-width="0.775" /><line x1="357.42" y1="604.19" x2="357.42" y2="585.29" stroke-width="0.8" /><line x1="362.63" y1="604.39" x2="362.63" y2="584.92" stroke-width="0.8" /><line x1="367.07" y1="603.57" x2="367.07" y2="585.32" stroke-width="0.8" /><line x1="371.88" y1="603.70" x2="371.88" y2="585.68" stroke-width="0.8" /><line x1="354.95" y1="601.94" x2="374.03" y2="586.76" stroke-width="0.8" /><line x1="331.18" y1="586.43" x2="331.18" y2="568.09" stroke-width="0.775" /><line x1="335.13" y1="586.49" x2="335.13" y2="568.31" stroke-width="0.775" /><line x1="340.60" y1="586.02" x2="340.60" y2="568.66" stroke-width="0.775" /><line x1="345.22" y1="586.45" x2="345.22" y2="568.58" stroke-width="0.775" /><line x1="328.47" y1="584.42" x2="346.61" y2="569.98" stroke-width="0.775" /><line x1="439.77" y1="697.82" x2="439.77" y2="675.92" stroke-width="0.75" /><line x1="445.27" y1="697.61" x2="445.27" y2="675.98" stroke-width="0.75" /><line x1="451.32" y1="697.44" x2="451.32" y2="676.34" stroke-width="0.75" /><line x1="457.00" y1="697.76" x2="457.00" y2="677.10" stroke-width="0.75" /><line x1="437.04" y1="695.63" x2="448.52" y2="686.49" stroke-width="0.75" /><line x1="424.65" y1="667.06" x2="424.65" y2="647.47" stroke-width="0.75" /><line x1="430.62" y1="666.62" x2="430.62" y2="647.01" stroke-width="0.75" /><line x1="435.72" y1="666.80" x2="435.72" y2="647.13" stroke-width="0.75" /><line x1="440.04" y1="667.27" x2="440.04" y2="647.10" stroke-width="0.75" /><line x1="422.19" y1="664.79" x2="430.65" y2="658.06" stroke-width="0.75" /><line x1="465.45" y1="668.59" x2="465.45" y2="649.15" stroke-width="0.75" /><line x1="470.50" y1="667.93" x2="470.50" y2="649.01" stroke-width="0.75" /><line x1="475.47" y1="668.64" x2="475.47" y2="648.47" stroke-width="0.75" /><line x1="480.24" y1="668.14" x2="480.24" y2="648.59" stroke-width="0.75" /><line x1="462.54" y1="666.29" x2="470.17" y2="660.22" stroke-width="0.75" /><line x1="424.87" y1="671.35" x2="424.87" y2="651.75" stroke-width="0.75" /><line x1="430.50" y1="671.05" x2="430.50" y2="651.38" stroke-width="0.75" /><line x1="435.67" y1="670.52" x2="435.67" y2="651.22" stroke-width="0.75" /><line x1="440.26" y1="671.24" x2="440.26" y2="651.55" stroke-width="0.75" /><line x1="422.24" y1="668.85" x2="429.55" y2="663.03" stroke-width="0.75" /><line x1="314.58" y1="680.68" x2="314.58" y2="660.99" stroke-width="0.75" /><line x1="319.50" y1="681.62" x2="319.50" y2="661.23" stroke-width="0.75" /><line x1="324.44" y1="680.83" x2="324.44" y2="661.56" stroke-width="0.75" /><line x1="330.07" y1="681.45" x2="330.07" y2="661.24" stroke-width="0.75" /><line x1="311.02" y1="679.23" x2="321.31" y2="671.04" stroke-width="0.75" /><line x1="321.19" y1="653.50" x2="321.19" y2="634.63" stroke-width="0.75" /><line x1="325.70" y1="653.69" x2="325.70" y2="634.39" stroke-width="0.75" /><line x1="330.78" y1="653.92" x2="330.78" y2="634.86" stroke-width="0.75" /><line x1="335.68" y1="653.96" x2="335.68" y2="635.34" stroke-width="0.75" /><line x1="318.39" y1="651.70" x2="328.04" y2="644.02" stroke-width="0.75" /><line x1="302.72" y1="654.10" x2="302.72" y2="635.77" stroke-width="0.75" /><line x1="307.15" y1="653.92" x2="307.15" y2="636.21" stroke-width="0.75" /><line x1="312.54" y1="654.43" x2="312.54" y2="635.54" stroke-width="0.75" /><line x1="317.56" y1="653.94" x2="317.56" y2="635.15" stroke-width="0.75" /><line x1="299.91" y1="652.40" x2="311.26" y2="643.36" stroke-width="0.75" /><line x1="340.49" y1="702.30" x2="340.49" y2="680.33" stroke-width="0.75" /><line x1="346.27" y1="701.77" x2="346.27" y2="680.12" stroke-width="0.75" /><line x1="351.31" y1="701.81" x2="351.31" y2="680.65" stroke-width="0.75" /><line x1="357.22" y1="702.65" x2="357.22" y2="680.90" stroke-width="0.75" /><line x1="337.29" y1="700.04" x2="346.93" y2="692.36" stroke-width="0.75" /><line x1="311.74" y1="701.05" x2="311.74" y2="680.16" stroke-width="0.75" /><line x1="317.40" y1="700.91" x2="317.40" y2="679.72" stroke-width="0.75" /><line x1="323.05" y1="701.11" x2="323.05" y2="679.79" stroke-width="0.75" /><line x1="327.55" y1="700.91" x2="327.55" y2="680.40" stroke-width="0.75" /><line x1="308.16" y1="699.34" x2="316.11" y2="693.01" stroke-width="0.75" /></g><g id="03_Gold_Accent" inkscape:groupmode="layer" inkscape:label="03_Gold_Accent" stroke="#B8960C" fill="none" stroke-width="1.25" stroke-linecap="round" stroke-linejoin="round"><line x1="427.45" y1="382.59" x2="427.45" y2="336.55" stroke-width="1.38" /><line x1="438.18" y1="382.40" x2="438.18" y2="337.05" stroke-width="1.38" /><line x1="450.04" y1="381.88" x2="450.04" y2="335.39" stroke-width="1.38" /><line x1="461.97" y1="382.74" x2="461.97" y2="336.98" stroke-width="1.38" /><line x1="419.82" y1="377.64" x2="439.72" y2="361.80" stroke-width="1.38" /><line x1="326.57" y1="404.71" x2="326.57" y2="389.60" stroke-width="1" /><line x1="333.53" y1="404.28" x2="333.53" y2="390.13" stroke-width="1" /></g></svg>