<?xml version='1.0' encoding='utf-8'?>
<svg xmlns="http://www.w3.org/2000/svg" xmlns:inkscape="http://www.inkscape.org/namespaces/inkscape" viewBox="204 228 408 600"><style>*{vector-effect:non-scaling-stroke}</style><g id="01_Black_Frame" inkscape:groupmode="layer" inkscape:label="01_Black_Frame" stroke="#1A1A1A" fill="none" stroke-width="0.875" stroke-linecap="round" stroke-linejoin="round"><path d="M 250.0,264.0 L 566.0,264.0 Q 576.0,264.0 576.0,274.0 L 576.0,782.0 Q 576.0,792.0 566.0,792.0 L 250.0,792.0 Q 240.0,792.0 240.0,782.0 L 240.0,274.0 Q 240.0,264.0 250.0,264.0" /><path d="M 253.0,270.0 L 563.0,270.0 Q 570.0,270.0 570.0,277.0 L 570.0,779.0 Q 570.0,786.0 563.0,786.0 L 253.0,786.0 Q 246.0,786.0 246.0,779.0 L 246.0,277.0 Q 246.0,270.0 253.0,270.0" /><line x1="259.0" y1="280.0" x2="263.0" y2="280.0" /><line x1="258.1" y1="282.1" x2="260.9" y2="284.9" /><line x1="256.0" y1="283.0" x2="256.0" y2="287.0" /><line x1="253.9" y1="282.1" x2="251.1" y2="284.9" /><line x1="253.0" y1="280.0" x2="249.0" y2="280.0" /><line x1="253.9" y1="277.9" x2="251.1" y2="275.1" /><line x1="256.0" y1="277.0" x2="256.0" y2="273.0" /><line x1="258.1" y1="277.9" x2="260.9" y2="275.1" /><line x1="563.0" y1="280.0" x2="567.0" y2="280.0" /><line x1="562.1" y1="282.1" x2="564.9" y2="284.9" /><line x1="560.0" y1="283.0" x2="560.0" y2="287.0" /><line x1="557.9" y1="282.1" x2="555.1" y2="284.9" /><line x1="557.0" y1="280.0" x2="553.0" y2="280.0" /><line x1="557.9" y1="277.9" x2="555.1" y2="275.1" /><line x1="560.0" y1="277.0" x2="560.0" y2="273.0" /><line x1="562.1" y1="277.9" x2="564.9" y2="275.1" /><line x1="259.0" y1="776.0" x2="263.0" y2="776.0" /><line x1="258.1" y1="778.1" x2="260.9" y2="780.9" /><line x1="256.0" y1="779.0" x2="256.0" y2="783.0" /><line x1="253.9" y1="778.1" x2="251.1" y2="780.9" /><line x1="253.0" y1="776.0" x2="249.0" y2="776.0" /><line x1="253.9" y1="773.9" x2="251.1" y2="771.1" /><line x1="256.0" y1="773.0" x2="256.0" y2="769.0" /><line x1="258.1" y1="773.9" x2="260.9" y2="771.1" /><line x1="563.0" y1="776.0" x2="567.0" y2="776.0" /><line x1="562.1" y1="778.1" x2="564.9" y2="780.9" /><line x1="560.0" y1="779.0" x2="560.0" y2="783.0" /><line x1="557.9" y1="778.1" x2="555.1" y2="780.9" /><line x1="557.0" y1="776.0" x2="553.0" y2="776.0" /><line x1="557.9" y1="773.9" x2="555.1" y2="771.1" /><line x1="560.0" y1="773.0" x2="560.0" y2="769.0" /><line x1="562.1" y1="773.9" x2="564.9" y2="771.1" /><polyline points="401.00,283.20 399.25,282.00 398.25,282.00 396.50,283.60 396.50,288.40 398.25,290.00 399.25,290.00 401.00,288.80" /><polyline points="402.25,282.00 407.25,290.00" /><polyline points="407.25,282.00 402.25,290.00" /><polyline points="408.00,282.00 413.00,290.00" /><polyline points="413.00,282.00 408.00,290.00" /><polyline points="413.75,282.00 416.25,290.00 418.75,282.00" /><polyline points="370.62,297.00 377.12,297.00" /><polyline points="373.88,297.00 373.88,307.00" /><polyline points="378.10,297.00 378.10,307.00" /><polyline points="384.60,297.00 384.60,307.00" /><polyline points="378.10,301.80 384.60,301.80" /><polyline points="391.10,297.00 385.57,297.00 385.57,301.80 389.47,301.80" /><polyline points="385.57,301.80 385.57,307.00 391.10,307.00" /><polyline points="406.05,298.00 404.42,297.00 402.47,297.00 400.85,298.50 400.52,300.00 401.50,301.20 403.77,302.00 406.05,302.80 407.02,304.00 406.70,305.50 405.07,307.00 402.80,307.00 401.17,306.00" /><polyline points="408.00,297.00 414.50,297.00" /><polyline points="411.25,297.00 411.25,307.00" /><polyline points="415.48,307.00 415.48,297.00 419.70,297.00 421.33,298.50 421.33,300.20 419.70,301.50 415.48,301.50 421.33,307.00" /><polyline points="422.95,307.00 426.20,297.00 429.45,307.00" /><polyline points="424.12,303.50 428.28,303.50" /><polyline points="433.68,297.00 433.68,307.00" /><polyline points="437.90,297.00 444.40,297.00" /><polyline points="441.15,297.00 441.15,307.00" /><line x1="270.0" y1="312.0" x2="546.0" y2="312.0" /><line x1="270.0" y1="732.0" x2="546.0" y2="732.0" /><polyline points="370.97,740.75 370.97,745.25" /><polyline points="373.77,740.75 373.77,745.25" /><polyline points="370.97,742.91 373.77,742.91" /><polyline points="375.59,740.75 374.47,741.20 374.19,742.10 374.19,743.90 374.47,744.80 375.59,745.25 376.71,744.80 376.99,743.90 376.99,742.10 376.71,741.20 375.59,740.75" /><polyline points="377.41,745.25 377.41,740.75 379.23,740.75 379.93,741.42 379.93,742.19 379.23,742.77 377.41,742.77 379.93,745.25" /><polyline points="380.63,745.25 380.63,740.75 382.03,743.23 383.43,740.75 383.43,745.25" /><polyline points="383.85,740.75 383.85,744.12 384.41,745.02 386.09,745.02 386.65,744.12 386.65,740.75" /><polyline points="387.07,740.75 389.87,740.75 387.07,745.25 389.87,745.25" /><polyline points="399.25,741.42 398.27,740.75 397.71,740.75 396.73,741.65 396.73,744.35 397.71,745.25 398.27,745.25 399.25,744.58" /><polyline points="402.33,740.75 399.95,740.75 399.95,742.91 401.63,742.91" /><polyline points="399.95,742.91 399.95,745.25 402.33,745.25" /><polyline points="403.17,745.25 404.57,740.75 405.97,745.25" /><polyline points="403.67,743.67 405.47,743.67" /><polyline points="408.77,741.20 408.07,740.75 407.23,740.75 406.53,741.42 406.39,742.10 406.81,742.64 407.79,743.00 408.77,743.36 409.19,743.90 409.05,744.58 408.35,745.25 407.37,745.25 406.67,744.80" /><polyline points="411.99,740.75 409.61,740.75 409.61,742.91 411.29,742.91" /><polyline points="409.61,742.91 409.61,745.25 411.99,745.25" /><polyline points="415.21,740.75 412.83,740.75 412.83,742.91 414.51,742.91" /><polyline points="412.83,742.91 412.83,745.25" /><polyline points="417.45,740.75 417.45,745.25" /><polyline points="419.27,745.25 419.27,740.75 421.09,740.75 421.79,741.42 421.79,742.19 421.09,742.77 419.27,742.77 421.79,745.25" /><polyline points="424.87,740.75 422.49,740.75 422.49,742.91 424.17,742.91" /><polyline points="422.49,742.91 422.49,745.25 424.87,745.25" /><polyline points="434.67,741.42 433.69,740.75 433.13,740.75 432.15,741.65 432.15,744.35 433.13,745.25 433.69,745.25 434.67,744.58 434.67,743.00 433.55,743.00" /><polyline points="435.37,745.25 436.77,740.75 438.17,745.25" /><polyline points="435.87,743.67 437.67,743.67" /><polyline points="438.59,740.75 438.59,745.25 440.97,745.25" /><polyline points="441.81,745.25 443.21,740.75 444.61,745.25" /><polyline points="442.31,743.67 444.11,743.67" /><polyline points="324.62,753.25 329.62,753.25" /><polyline points="327.12,753.25 327.12,760.75" /><polyline points="330.38,753.25 330.38,760.75" /><polyline points="335.38,753.25 335.38,760.75" /><polyline points="330.38,756.85 335.38,756.85" /><polyline points="340.38,753.25 336.12,753.25 336.12,756.85 339.12,756.85" /><polyline points="336.12,756.85 336.12,760.75 340.38,760.75" /><polyline points="347.62,760.75 347.62,753.25 352.62,760.75 352.62,753.25" /><polyline points="353.38,760.75 355.88,753.25 358.38,760.75" /><polyline points="354.27,758.12 357.48,758.12" /><polyline points="359.12,760.75 359.12,753.25 362.38,753.25 363.62,754.38 363.62,755.65 362.38,756.62 359.12,756.62 363.62,760.75" /><polyline points="364.88,760.75 364.88,753.25 368.12,753.25 369.38,754.38 369.38,755.65 368.12,756.62 364.88,756.62 369.38,760.75" /><polyline points="373.12,753.25 371.12,754.00 370.62,755.50 370.62,758.50 371.12,760.00 373.12,760.75 375.12,760.00 375.62,758.50 375.62,755.50 375.12,754.00 373.12,753.25" /><polyline points="376.38,753.25 377.62,760.75 378.88,755.88 380.12,760.75 381.38,753.25" /><polyline points="387.88,760.75 387.88,753.25 391.12,753.25 392.38,754.38 392.38,755.65 391.12,756.62 387.88,756.62" /><polyline points="393.62,753.25 393.62,760.75 397.88,760.75" /><polyline points="399.38,760.75 401.88,753.25 404.38,760.75" /><polyline points="400.27,758.12 403.48,758.12" /><polyline points="409.62,754.38 407.88,753.25 406.88,753.25 405.12,754.75 405.12,759.25 406.88,760.75 407.88,760.75 409.62,759.62" /><polyline points="415.12,753.25 410.88,753.25 410.88,756.85 413.88,756.85" /><polyline points="410.88,756.85 410.88,760.75 415.12,760.75" /><polyline points="424.88,753.25 424.88,760.75" /><polyline points="432.38,754.00 431.12,753.25 429.62,753.25 428.38,754.38 428.12,755.50 428.88,756.40 430.62,757.00 432.38,757.60 433.12,758.50 432.88,759.62 431.62,760.75 429.88,760.75 428.62,760.00" /><polyline points="439.62,753.25 444.62,753.25" /><polyline points="442.12,753.25 442.12,760.75" /><polyline points="445.38,753.25 445.38,760.75" /><polyline points="450.38,753.25 450.38,760.75" /><polyline points="445.38,756.85 450.38,756.85" /><polyline points="455.38,753.25 451.12,753.25 451.12,756.85 454.12,756.85" /><polyline points="451.12,756.85 451.12,760.75 455.38,760.75" /><polyline points="462.62,760.75 462.62,753.25 465.88,753.25 467.12,754.38 467.12,755.65 465.88,756.62 462.62,756.62" /><polyline points="470.88,753.25 468.88,754.00 468.38,755.50 468.38,758.50 468.88,760.00 470.88,760.75 472.88,760.00 473.38,758.50 473.38,755.50 472.88,754.00 470.88,753.25" /><polyline points="474.12,753.25 475.38,760.75 476.62,755.88 477.88,760.75 479.12,753.25" /><polyline points="484.12,753.25 479.88,753.25 479.88,756.85 482.88,756.85" /><polyline points="479.88,756.85 479.88,760.75 484.12,760.75" /><polyline points="485.62,760.75 485.62,753.25 488.88,753.25 490.12,754.38 490.12,755.65 488.88,756.62 485.62,756.62 490.12,760.75" /><polyline points="341.88,766.25 346.88,766.25" /><polyline points="344.38,766.25 344.38,773.75" /><polyline points="347.62,766.25 347.62,773.75" /><polyline points="352.62,766.25 352.62,773.75" /><polyline points="347.62,769.85 352.62,769.85" /><polyline points="353.38,773.75 355.88,766.25 358.38,773.75" /><polyline points="354.27,771.12 357.48,771.12" /><polyline points="359.12,766.25 364.12,766.25" /><polyline points="361.62,766.25 361.62,773.75" /><polyline points="367.38,766.25 367.38,767.38" /><polyline points="374.88,767.00 373.62,766.25 372.12,766.25 370.88,767.38 370.62,768.50 371.38,769.40 373.12,770.00 374.88,770.60 375.62,771.50 375.38,772.62 374.12,773.75 372.38,773.75 371.12,773.00" /><polyline points="382.12,766.25 383.38,773.75 384.62,768.88 385.88,773.75 387.12,766.25" /><polyline points="387.88,766.25 387.88,773.75" /><polyline points="392.88,766.25 392.88,773.75" /><polyline points="387.88,769.85 392.88,769.85" /><polyline points="393.62,766.25 396.12,770.00 398.62,766.25" /><polyline points="396.12,770.00 396.12,773.75" /><polyline points="405.12,766.25 410.12,766.25" /><polyline points="407.62,766.25 407.62,773.75" /><polyline points="410.88,766.25 410.88,773.75" /><polyline points="415.88,766.25 415.88,773.75" /><polyline points="410.88,769.85 415.88,769.85" /><polyline points="420.88,766.25 416.62,766.25 416.62,769.85 419.62,769.85" /><polyline points="416.62,769.85 416.62,773.75 420.88,773.75" /><polyline points="422.38,766.25 424.88,770.00 427.38,766.25" /><polyline points="424.88,770.00 424.88,773.75" /><polyline points="433.88,773.75 433.88,766.25 436.38,770.38 438.88,766.25 438.88,773.75" /><polyline points="442.12,766.25 442.12,773.75" /><polyline points="445.38,773.75 445.38,766.25 450.38,773.75 450.38,766.25" /><polyline points="455.38,766.25 451.12,766.25 451.12,769.85 454.12,769.85" /><polyline points="451.12,769.85 451.12,773.75 455.38,773.75" /><polyline points="465.12,766.25 465.12,773.75" /><polyline points="468.38,766.25 473.38,766.25" /><polyline points="470.88,766.25 470.88,773.75" /><polyline points="389.60,779.50 391.20,784.50 392.80,779.50" /><polyline points="394.88,784.00 394.88,784.25" /><polyline points="396.96,779.50 398.56,784.50 400.16,779.50" /><polyline points="402.24,784.00 402.24,784.25" /><polyline points="404.32,784.50 404.32,779.50 405.92,782.25 407.52,779.50 407.52,784.50" /><polyline points="408.00,784.50 408.00,779.50 409.60,782.25 411.20,779.50 411.20,784.50" /><polyline points="411.68,779.50 414.88,784.50" /><polyline points="414.88,779.50 411.68,784.50" /><polyline points="415.36,779.50 418.56,784.50" /><polyline points="418.56,779.50 415.36,784.50" /><polyline points="419.04,779.50 420.64,784.50 422.24,779.50" /><polyline points="424.32,779.50 424.32,784.50" /></g><g id="02_Teal_Land" inkscape:groupmode="layer" inkscape:label="02_Teal_Land" stroke="#2A6B6B" fill="none" stroke-width="0.75" stroke-linecap="round" stroke-linejoin="round"><polyline points="252.0,366.8 253.3,366.5 254.5,366.1 255.8,365.6 257.0,365.0 258.3,364.4 259.5,364.0 260.8,363.9 262.0,364.2 263.3,364.9 264.5,366.0 265.8,367.3 267.0,368.8 268.3,370.2 269.5,371.4 270.8,372.4 272.0,373.0 273.3,373.2 274.6,373.3 275.8,373.2 277.1,373.1 278.3,373.3 279.6,373.7 280.8,374.5 282.1,375.6 283.3,377.0 284.6,378.5 285.8,380.0 287.1,381.5 288.3,382.7 289.6,383.6 290.8,384.4 292.1,384.9 293.3,385.4 294.6,385.9 295.9,386.5 297.1,387.1 298.4,387.9 299.6,388.8 300.9,389.6 302.1,390.2 303.4,390.7 304.6,390.9 305.9,390.9 307.1,390.6 308.4,390.4 309.6,390.3 310.9,390.4 312.1,390.9 313.4,391.9 314.7,393.5 315.9,395.4 317.2,397.6 318.4,400.1 319.7,402.4 320.9,404.7 322.2,406.6 323.4,408.3 324.7,409.6 325.9,410.8 327.2,411.9 328.4,413.1 329.7,414.4 330.9,416.0 332.2,417.9 333.4,419.9 334.7,422.2 336.0,424.4 337.2,426.6 338.5,428.7 339.7,430.6 341.0,432.3 342.2,434.1 343.5,435.8 344.7,437.6 346.0,439.7 347.2,442.0 348.5,444.5 349.7,447.1 351.0,449.8 352.2,452.4 353.5,454.8 354.7,456.8 356.0,458.5 357.3,459.9 358.5,461.0 359.8,462.1 361.0,463.2 362.3,464.6 363.5,466.4 364.8,468.6 366.0,471.2 367.3,474.1 368.5,477.2 369.8,480.4 371.0,483.4 372.3,486.2 373.5,488.7 374.8,490.8 376.0,492.6 377.3,494.2 378.6,495.7 379.8,497.1 381.1,498.5 382.3,499.9 383.6,501.3 384.8,502.7 386.1,503.8 387.3,504.7 388.6,505.2 389.8,505.4 391.1,505.3 392.3,505.0 393.6,504.5 394.8,504.1 396.1,503.9 397.3,503.9 398.6,504.1 399.9,504.5 401.1,505.0 402.4,505.5 403.6,505.7 404.9,505.6 406.1,505.1 407.4,504.2 408.6,502.8 409.9,501.2 411.1,499.4 412.4,497.7 413.6,496.1 414.9,494.9 416.1,493.9 417.4,493.3 418.7,492.8 419.9,492.5 421.2,492.1 422.4,491.7 423.7,491.0 424.9,490.1 426.2,489.0 427.4,487.7 428.7,486.4 429.9,485.2 431.2,484.0 432.4,482.9 433.7,481.8 434.9,480.7 436.2,479.5 437.4,478.0 438.7,476.1 440.0,473.9 441.2,471.3 442.5,468.4 443.7,465.5 445.0,462.6 446.2,459.8 447.5,457.5 448.7,455.5 450.0,453.9 451.2,452.6 452.5,451.6 453.7,450.6 455.0,449.5 456.2,448.2 457.5,446.5 458.7,444.6 460.0,442.4 461.3,440.0 462.5,437.5 463.8,435.2 465.0,433.0 466.3,431.1 467.5,429.4 468.8,427.9 470.0,426.4 471.3,425.0 472.5,423.4 473.8,421.8 475.0,419.9 476.3,417.9 477.5,415.8 478.8,413.8 480.0,412.0 481.3,410.3 482.6,408.8 483.8,407.5 485.1,406.3 486.3,405.1 487.6,403.6 488.8,401.8 490.1,399.7 491.3,397.1 492.6,394.2 493.8,391.1 495.1,387.9 496.3,384.8 497.6,382.1 498.8,379.7 500.1,377.8 501.3,376.3 502.6,375.3 503.9,374.5 505.1,373.8 506.4,373.1 507.6,372.3 508.9,371.4 510.1,370.3 511.4,369.2 512.6,368.0 513.9,367.0 515.1,366.1 516.4,365.5 517.6,365.1 518.9,364.8 520.1,364.7 521.4,364.4 522.7,364.1 523.9,363.5 525.2,362.7 526.4,361.8 527.7,360.9 528.9,360.0 530.2,359.3 531.4,358.9 532.7,358.9 533.9,359.2 535.2,359.7 536.4,360.4 537.7,361.1 538.9,361.5 540.2,361.7 541.4,361.4 542.7,360.8 544.0,359.8 545.2,358.6 546.5,357.4 547.7,356.3 549.0,355.4 550.2,354.8 551.5,354.6 552.7,354.7 554.0,355.1 555.2,355.6 556.5,356.1 557.7,356.6 559.0,356.9 560.2,357.1 561.5,357.3 562.7,357.5 564.0,357.7" stroke-width="1.25" /><polyline points="252.0,689.4 253.3,689.1 254.5,688.8 255.8,688.5 257.0,688.5 258.3,688.5 259.5,688.6 260.8,688.6 262.0,688.4 263.3,688.0 264.5,687.3 265.8,686.4 267.0,685.5 268.3,684.8 269.5,684.4 270.8,684.5 272.0,685.1 273.3,686.0 274.6,687.1 275.8,688.2 277.1,689.0 278.3,689.3 279.6,689.0 280.8,688.0 282.1,686.5 283.3,684.8 284.6,683.0 285.8,681.4 287.1,680.3 288.3,679.5 289.6,679.3 290.8,679.3 292.1,679.5 293.3,679.7 294.6,679.6 295.9,679.3 297.1,678.8 298.4,678.0 299.6,677.1 300.9,676.2 302.1,675.5 303.4,674.9 304.6,674.3 305.9,673.7 307.1,673.0 308.4,672.1 309.6,670.9 310.9,669.4 312.1,667.6 313.4,665.8 314.7,664.0 315.9,662.4 317.2,660.9 318.4,659.6 319.7,658.3 320.9,656.9 322.2,655.2 323.4,653.1 324.7,650.4 325.9,647.2 327.2,643.6 328.4,640.0 329.7,636.5 330.9,633.5 332.2,631.1 333.4,629.3 334.7,628.3 336.0,627.7 337.2,627.4 338.5,627.2 339.7,626.8 341.0,626.0 342.2,624.8 343.5,623.3 344.7,621.7 346.0,620.0 347.2,618.4 348.5,617.0 349.7,615.8 351.0,614.7 352.2,613.8 353.5,612.7 354.7,611.5 356.0,610.0 357.3,608.3 358.5,606.5 359.8,604.5 361.0,602.6 362.3,600.8 363.5,599.2 364.8,597.7 366.0,596.2 367.3,594.5 368.5,592.6 369.8,590.4 371.0,587.9 372.3,585.1 373.5,582.4 374.8,579.8 376.0,577.6 377.3,575.9 378.6,574.9 379.8,574.3 381.1,574.1 382.3,574.0 383.6,573.7 384.8,573.0 386.1,571.8 387.3,570.1 388.6,567.9 389.8,565.4 391.1,562.8 392.3,560.5 393.6,558.5 394.8,557.0 396.1,555.9 397.3,555.2 398.6,554.8 399.9,554.4 401.1,553.9 402.4,553.3 403.6,552.6 404.9,551.9 406.1,551.2 407.4,550.7 408.6,550.5 409.9,550.5 411.1,550.8 412.4,551.1 413.6,551.4 414.9,551.6 416.1,551.5 417.4,551.3 418.7,551.1 419.9,550.8 421.2,550.7 422.4,550.9 423.7,551.5 424.9,552.3 426.2,553.2 427.4,554.2 428.7,554.8 429.9,554.9 431.2,554.6 432.4,553.6 433.7,552.2 434.9,550.7 436.2,549.2 437.4,548.0 438.7,547.4 440.0,547.6 441.2,548.3 442.5,549.7 443.7,551.5 445.0,553.4 446.2,555.3 447.5,557.0 448.7,558.5 450.0,559.9 451.2,561.2 452.5,562.6 453.7,564.2 455.0,566.1 456.2,568.3 457.5,570.8 458.7,573.3 460.0,575.9 461.3,578.3 462.5,580.6 463.8,582.7 465.0,584.7 466.3,586.7 467.5,588.9 468.8,591.2 470.0,593.8 471.3,596.4 472.5,599.1 473.8,601.5 475.0,603.7 476.3,605.4 477.5,606.7 478.8,607.8 480.0,608.6 481.3,609.6 482.6,610.9 483.8,612.8 485.1,615.2 486.3,618.1 487.6,621.4 488.8,624.9 490.1,628.3 491.3,631.3 492.6,633.8 493.8,635.7 495.1,637.1 496.3,638.1 497.6,638.9 498.8,639.8 500.1,640.8 501.3,642.2 502.6,643.8 503.9,645.7 505.1,647.6 506.4,649.5 507.6,651.3 508.9,652.8 510.1,654.3 511.4,655.6 512.6,657.0 513.9,658.5 515.1,660.2 516.4,662.1 517.6,664.1 518.9,666.1 520.1,668.0 521.4,669.7 522.7,671.1 523.9,672.3 525.2,673.3 526.4,674.4 527.7,675.5 528.9,677.0 530.2,678.7 531.4,680.7 532.7,682.9 533.9,684.9 535.2,686.6 536.4,687.7 537.7,688.1 538.9,687.7 540.2,686.7 541.4,685.1 542.7,683.4 544.0,681.8 545.2,680.4 546.5,679.5 547.7,679.1 549.0,679.0 550.2,679.2 551.5,679.5 552.7,679.7 554.0,679.6 555.2,679.4 556.5,678.9 557.7,678.4 559.0,677.9 560.2,677.6 561.5,677.5 562.7,677.7 564.0,678.1" stroke-width="1.25" /><line x1="252.0" y1="320.0" x2="564.0" y2="320.0" /><line x1="252.0" y1="323.5" x2="564.0" y2="323.5" /><line x1="252.0" y1="327.0" x2="564.0" y2="327.0" /><line x1="252.0" y1="330.5" x2="564.0" y2="330.5" /><line x1="252.0" y1="334.0" x2="564.0" y2="334.0" /><line x1="252.0" y1="337.5" x2="564.0" y2="337.5" /><line x1="252.0" y1="341.0" x2="564.0" y2="341.0" /><line x1="252.0" y1="344.5" x2="564.0" y2="344.5" /><line x1="252.0" y1="348.0" x2="564.0" y2="348.0" /><line x1="252.0" y1="351.5" x2="564.0" y2="351.5" /><line x1="252.0" y1="355.0" x2="550.4" y2="355.0" /><line x1="554.6" y1="355.0" x2="564.0" y2="355.0" /><line x1="252.0" y1="358.5" x2="546.3" y2="358.5" /><line x1="252.0" y1="362.0" x2="526.4" y2="362.0" /><line x1="252.0" y1="365.5" x2="256.2" y2="365.5" /><line x1="264.5" y1="365.5" x2="517.0" y2="365.5" /><line x1="267.7" y1="369.0" x2="511.8" y2="369.0" /><line x1="271.8" y1="372.5" x2="507.7" y2="372.5" /><line x1="283.3" y1="376.0" x2="502.4" y2="376.0" /><line x1="285.4" y1="379.5" x2="499.3" y2="379.5" /><line x1="289.6" y1="383.0" x2="497.2" y2="383.0" /><line x1="296.9" y1="386.5" x2="496.2" y2="386.5" /><line x1="302.1" y1="390.0" x2="495.1" y2="390.0" /><line x1="315.7" y1="393.5" x2="493.0" y2="393.5" /><line x1="317.7" y1="397.0" x2="492.0" y2="397.0" /><line x1="318.8" y1="400.5" x2="489.9" y2="400.5" /><line x1="320.9" y1="404.0" x2="487.8" y2="404.0" /><line x1="323.0" y1="407.5" x2="484.7" y2="407.5" /><line x1="327.1" y1="411.0" x2="481.6" y2="411.0" /><line x1="330.3" y1="414.5" x2="478.4" y2="414.5" /><line x1="332.3" y1="418.0" x2="476.3" y2="418.0" /><line x1="334.4" y1="421.5" x2="474.3" y2="421.5" /><line x1="336.5" y1="425.0" x2="472.2" y2="425.0" /><line x1="338.6" y1="428.5" x2="469.0" y2="428.5" /><line x1="341.7" y1="432.0" x2="465.9" y2="432.0" /><line x1="343.8" y1="435.5" x2="463.8" y2="435.5" /><line x1="345.9" y1="439.0" x2="462.8" y2="439.0" /><line x1="348.0" y1="442.5" x2="460.7" y2="442.5" /><line x1="350.1" y1="446.0" x2="458.6" y2="446.0" /><line x1="351.1" y1="449.5" x2="455.5" y2="449.5" /><line x1="353.2" y1="453.0" x2="451.3" y2="453.0" /><line x1="355.3" y1="456.5" x2="448.2" y2="456.5" /><line x1="357.4" y1="460.0" x2="447.1" y2="460.0" /><line x1="361.6" y1="463.5" x2="445.0" y2="463.5" /><line x1="364.7" y1="467.0" x2="444.0" y2="467.0" /><line x1="365.7" y1="470.5" x2="441.9" y2="470.5" /><line x1="367.8" y1="474.0" x2="440.9" y2="474.0" /><line x1="368.9" y1="477.5" x2="438.8" y2="477.5" /><line x1="371.0" y1="481.0" x2="435.7" y2="481.0" /><line x1="372.0" y1="484.5" x2="431.5" y2="484.5" /><line x1="374.1" y1="488.0" x2="427.3" y2="488.0" /><line x1="376.2" y1="491.5" x2="423.1" y2="491.5" /><line x1="378.3" y1="495.0" x2="414.8" y2="495.0" /><line x1="381.4" y1="498.5" x2="412.7" y2="498.5" /><line x1="384.5" y1="502.0" x2="409.6" y2="502.0" /><line x1="403.3" y1="505.5" x2="405.4" y2="505.5" /><line x1="407.5" y1="551.0" x2="412.7" y2="551.0" /><line x1="419.0" y1="551.0" x2="423.1" y2="551.0" /><line x1="435.7" y1="551.0" x2="444.0" y2="551.0" /><line x1="400.2" y1="554.5" x2="428.3" y2="554.5" /><line x1="431.5" y1="554.5" x2="446.1" y2="554.5" /><line x1="395.0" y1="558.0" x2="449.2" y2="558.0" /><line x1="391.8" y1="561.5" x2="452.3" y2="561.5" /><line x1="390.8" y1="565.0" x2="454.4" y2="565.0" /><line x1="388.7" y1="568.5" x2="456.5" y2="568.5" /><line x1="386.6" y1="572.0" x2="458.6" y2="572.0" /><line x1="378.3" y1="575.5" x2="460.7" y2="575.5" /><line x1="376.2" y1="579.0" x2="461.7" y2="579.0" /><line x1="374.1" y1="582.5" x2="463.8" y2="582.5" /><line x1="372.0" y1="586.0" x2="465.9" y2="586.0" /><line x1="371.0" y1="589.5" x2="468.0" y2="589.5" /><line x1="368.9" y1="593.0" x2="470.1" y2="593.0" /><line x1="366.8" y1="596.5" x2="472.2" y2="596.5" /><line x1="363.7" y1="600.0" x2="473.2" y2="600.0" /><line x1="360.5" y1="603.5" x2="475.3" y2="603.5" /><line x1="358.4" y1="607.0" x2="478.4" y2="607.0" /><line x1="356.3" y1="610.5" x2="482.6" y2="610.5" /><line x1="352.2" y1="614.0" x2="484.7" y2="614.0" /><line x1="348.0" y1="617.5" x2="486.8" y2="617.5" /><line x1="345.9" y1="621.0" x2="487.8" y2="621.0" /><line x1="342.8" y1="624.5" x2="488.9" y2="624.5" /><line x1="335.5" y1="628.0" x2="491.0" y2="628.0" /><line x1="332.3" y1="631.5" x2="492.0" y2="631.5" /><line x1="331.3" y1="635.0" x2="494.1" y2="635.0" /><line x1="329.2" y1="638.5" x2="497.2" y2="638.5" /><line x1="328.2" y1="642.0" x2="501.4" y2="642.0" /><line x1="327.1" y1="645.5" x2="504.5" y2="645.5" /><line x1="326.1" y1="649.0" x2="506.6" y2="649.0" /><line x1="324.0" y1="652.5" x2="508.7" y2="652.5" /><line x1="321.9" y1="656.0" x2="511.8" y2="656.0" /><line x1="318.8" y1="659.5" x2="515.0" y2="659.5" /><line x1="315.7" y1="663.0" x2="517.0" y2="663.0" /><line x1="313.6" y1="666.5" x2="520.2" y2="666.5" /><line x1="310.4" y1="670.0" x2="522.3" y2="670.0" /><line x1="307.3" y1="673.5" x2="525.4" y2="673.5" /><line x1="300.0" y1="677.0" x2="529.6" y2="677.0" /><line x1="287.5" y1="680.5" x2="531.7" y2="680.5" /><line x1="545.2" y1="680.5" x2="564.0" y2="680.5" /><line x1="284.3" y1="684.0" x2="533.7" y2="684.0" /><line x1="543.1" y1="684.0" x2="564.0" y2="684.0" /><line x1="264.5" y1="687.5" x2="275.0" y2="687.5" /><line x1="282.3" y1="687.5" x2="536.9" y2="687.5" /><line x1="540.0" y1="687.5" x2="564.0" y2="687.5" /><line x1="252.0" y1="691.0" x2="564.0" y2="691.0" /><line x1="252.0" y1="694.5" x2="564.0" y2="694.5" /><line x1="252.0" y1="698.0" x2="564.0" y2="698.0" /><line x1="252.0" y1="701.5" x2="564.0" y2="701.5" /><line x1="252.0" y1="705.0" x2="564.0" y2="705.0" /><line x1="252.0" y1="708.5" x2="564.0" y2="708.5" /><line x1="252.0" y1="712.0" x2="564.0" y2="712.0" /><line x1="252.0" y1="715.5" x2="564.0" y2="715.5" /><line x1="252.0" y1="719.0" x2="564.0" y2="719.0" /><line x1="252.0" y1="722.5" x2="564.0" y2="722.5" /><line x1="252.0" y1="726.0" x2="564.0" y2="726.0" /></g><g id="03_Gold_Flow" inkscape:groupmode="layer" inkscape:label="03_Gold_Flow" stroke="#B8960C" fill="none" stroke-width="0.75" stroke-linecap="round" stroke-linejoin="round"><polyline points="252.0,378.3 253.6,378.2 255.1,377.9 256.7,377.4 258.3,376.9 259.8,376.7 261.4,376.9 263.0,377.7 264.5,378.9 266.1,380.6 267.7,382.3 269.2,383.8 270.8,384.8 272.4,385.4 273.9,385.4 275.5,385.2 277.1,385.0 278.7,384.9 280.2,385.3 281.8,386.2 283.4,387.5 284.9,389.1 286.5,390.6 288.1,391.9 289.6,392.9 291.2,393.7 292.8,394.2 294.3,394.8 295.9,395.4 297.5,396.3 299.0,397.4 300.6,398.5 302.2,399.5 303.7,400.1 305.3,400.5 306.9,400.5 308.4,400.4 310.0,400.5 311.6,401.0 313.1,402.2 314.7,404.1 316.3,406.7 317.8,409.6 319.4,412.5 321.0,415.2 322.6,417.5 324.1,419.2 325.7,420.5 327.3,421.6 328.8,422.7 330.4,424.2 332.0,426.0 333.5,428.1 335.1,430.5 336.7,432.9 338.2,435.2 339.8,437.3 341.4,439.1 342.9,440.9 344.5,442.8 346.1,445.0 347.6,447.6 349.2,450.6 350.8,453.8 352.3,456.9 353.9,459.7 355.5,462.0 357.0,463.8 358.6,465.3 360.2,466.7 361.7,468.3 363.3,470.5 364.9,473.3 366.5,476.7 368.0,480.5 369.6,484.4 371.2,488.1 372.7,491.4 374.3,494.1 375.9,496.4 377.4,498.2 379.0,499.9 380.6,501.5 382.1,503.2 383.7,504.8 385.3,506.3 386.8,507.3 388.4,507.9 390.0,507.9 391.5,507.4 393.1,506.7 394.7,506.0 396.2,505.6 397.8,505.5 399.4,505.8 400.9,506.3 402.5,506.8 404.1,506.9 405.6,506.5 407.2,505.4 408.8,503.8 410.4,501.7 411.9,499.6 413.5,497.7 415.1,496.3 416.6,495.3 418.2,494.8 419.8,494.4 421.3,494.1 422.9,493.6 424.5,492.8 426.0,491.7 427.6,490.4 429.2,489.0 430.7,487.6 432.3,486.3 433.9,485.0 435.4,483.6 437.0,481.9 438.6,479.7 440.1,477.0 441.7,473.7 443.3,470.2 444.8,466.7 446.4,463.4 448.0,460.6 449.5,458.3 451.1,456.5 452.7,455.1 454.3,453.7 455.8,452.1 457.4,450.1 459.0,447.7 460.5,444.9 462.1,441.9 463.7,439.1 465.2,436.6 466.8,434.5 468.4,432.7 469.9,431.2 471.5,429.8 473.1,428.2 474.6,426.3 476.2,424.3 477.8,422.1 479.3,420.0 480.9,418.2 482.5,416.7 484.0,415.5 485.6,414.3 487.2,413.0 488.7,411.2 490.3,408.8 491.9,405.8 493.4,402.2 495.0,398.4 496.6,394.7 498.2,391.4 499.7,388.8 501.3,386.8 502.9,385.4 504.4,384.4 506.0,383.4 507.6,382.3 509.1,380.9 510.7,379.4 512.3,377.9 513.8,376.4 515.4,375.3 517.0,374.6 518.5,374.2 520.1,374.0 521.7,373.8 523.2,373.3 524.8,372.7 526.4,371.8 527.9,370.8 529.5,370.1 531.1,369.8 532.6,370.0 534.2,370.7 535.8,371.8 537.3,372.9 538.9,373.7 540.5,374.0 542.1,373.7 543.6,372.8 545.2,371.4 546.8,370.0 548.3,368.8 549.9,368.0 551.5,367.7 553.0,367.8 554.6,368.2 556.2,368.7 557.7,369.0 559.3,369.2 560.9,369.2 562.4,369.1 564.0,369.2" /><polyline points="252.0,402.4 253.6,402.3 255.1,401.8 256.7,401.2 258.3,400.6 259.8,400.3 261.4,400.3 263.0,400.7 264.5,401.6 266.1,402.9 267.7,404.2 269.2,405.4 270.8,406.2 272.4,406.7 273.9,406.7 275.5,406.5 277.1,406.4 278.7,406.4 280.2,406.7 281.8,407.5 283.4,408.6 284.9,410.0 286.5,411.5 288.1,412.8 289.6,413.9 291.2,414.8 292.8,415.5 294.3,416.2 295.9,417.0 297.5,417.9 299.0,419.0 300.6,420.0 302.2,420.9 303.7,421.6 305.3,421.8 306.9,421.8 308.4,421.6 310.0,421.5 311.6,421.7 313.1,422.5 314.7,424.0 316.3,426.0 317.8,428.4 319.4,430.8 321.0,433.0 322.6,434.7 324.1,435.9 325.7,436.7 327.3,437.2 328.8,437.8 330.4,438.7 332.0,440.1 333.5,441.9 335.1,444.0 336.7,446.3 338.2,448.4 339.8,450.4 341.4,452.1 342.9,453.8 344.5,455.6 346.1,457.7 347.6,460.2 349.2,463.0 350.8,466.0 352.3,469.0 353.9,471.6 355.5,473.8 357.0,475.4 358.6,476.7 360.2,477.9 361.7,479.3 363.3,481.2 364.9,483.6 366.5,486.5 368.0,489.8 369.6,493.0 371.2,496.1 372.7,498.7 374.3,500.8 375.9,502.5 377.4,503.9 379.0,505.3 380.6,506.6 382.1,508.1 383.7,509.5 385.3,510.7 386.8,511.5 388.4,511.8 390.0,511.6 391.5,510.9 393.1,510.1 394.7,509.4 396.2,508.9 397.8,508.8 399.4,509.1 400.9,509.6 402.5,510.1 404.1,510.2 405.6,509.8 407.2,508.9 408.8,507.4 410.4,505.6 411.9,503.8 413.5,502.1 415.1,500.8 416.6,500.0 418.2,499.5 419.8,499.1 421.3,498.8 422.9,498.4 424.5,497.7 426.0,496.7 427.6,495.5 429.2,494.2 430.7,492.8 432.3,491.4 433.9,490.0 435.4,488.4 437.0,486.6 438.6,484.4 440.1,481.7 441.7,478.8 443.3,475.5 444.8,472.3 446.4,469.4 448.0,466.8 449.5,464.9 451.1,463.4 452.7,462.2 454.3,461.2 455.8,460.0 457.4,458.5 459.0,456.6 460.5,454.5 462.1,452.2 463.7,450.0 465.2,448.0 466.8,446.4 468.4,445.2 469.9,444.1 471.5,443.1 473.1,442.0 474.6,440.5 476.2,438.8 477.8,436.9 479.3,435.0 480.9,433.3 482.5,431.9 484.0,430.8 485.6,429.8 487.2,428.7 488.7,427.2 490.3,425.1 491.9,422.4 493.4,419.1 495.0,415.5 496.6,412.0 498.2,408.9 499.7,406.5 501.3,404.7 502.9,403.5 504.4,402.7 506.0,401.9 507.6,401.1 509.1,400.1 510.7,399.0 512.3,397.8 513.8,396.8 515.4,396.1 517.0,395.8 518.5,395.8 520.1,396.0 521.7,396.1 523.2,396.0 524.8,395.6 526.4,395.0 527.9,394.4 529.5,393.9 531.1,393.9 532.6,394.3 534.2,395.1 535.8,396.2 537.3,397.2 538.9,397.9 540.5,397.9 542.1,397.3 543.6,396.1 545.2,394.6 546.8,393.0 548.3,391.6 549.9,390.7 551.5,390.2 553.0,390.2 554.6,390.4 556.2,390.7 557.7,390.9 559.3,390.9 560.9,390.9 562.4,390.9 564.0,391.0" /><polyline points="252.0,425.9 253.6,425.5 255.1,424.9 256.7,424.1 258.3,423.4 259.8,422.9 261.4,422.7 263.0,422.9 264.5,423.6 266.1,424.5 267.7,425.6 269.2,426.6 270.8,427.4 272.4,427.8 273.9,428.1 275.5,428.1 277.1,428.1 278.7,428.3 280.2,428.7 281.8,429.5 283.4,430.6 284.9,431.9 286.5,433.2 288.1,434.5 289.6,435.7 291.2,436.7 292.8,437.5 294.3,438.3 295.9,439.0 297.5,439.9 299.0,440.8 300.6,441.6 302.2,442.3 303.7,442.8 305.3,442.9 306.9,442.6 308.4,442.2 310.0,441.8 311.6,441.6 313.1,442.0 314.7,443.0 316.3,444.5 317.8,446.4 319.4,448.3 321.0,450.1 322.6,451.4 324.1,452.1 325.7,452.5 327.3,452.6 328.8,452.8 330.4,453.4 332.0,454.4 333.5,456.0 335.1,458.0 336.7,460.2 338.2,462.3 339.8,464.3 341.4,466.0 342.9,467.6 344.5,469.3 346.1,471.2 347.6,473.5 349.2,476.1 350.8,478.9 352.3,481.6 353.9,484.0 355.5,485.9 357.0,487.2 358.6,488.2 360.2,489.0 361.7,490.0 363.3,491.4 364.9,493.3 366.5,495.7 368.0,498.2 369.6,500.9 371.2,503.2 372.7,505.2 374.3,506.8 375.9,508.0 377.4,509.1 379.0,510.2 380.6,511.4 382.1,512.7 383.7,514.0 385.3,515.0 386.8,515.7 388.4,515.8 390.0,515.4 391.5,514.7 393.1,513.8 394.7,513.0 396.2,512.6 397.8,512.5 399.4,512.8 400.9,513.3 402.5,513.7 404.1,513.8 405.6,513.5 407.2,512.6 408.8,511.3 410.4,509.7 411.9,508.0 413.5,506.5 415.1,505.4 416.6,504.5 418.2,504.0 419.8,503.6 421.3,503.3 422.9,502.8 424.5,502.1 426.0,501.2 427.6,500.1 429.2,498.8 430.7,497.4 432.3,496.0 433.9,494.4 435.4,492.8 437.0,490.9 438.6,488.8 440.1,486.3 441.7,483.7 443.3,480.8 444.8,478.1 446.4,475.6 448.0,473.5 449.5,471.9 451.1,470.8 452.7,470.1 454.3,469.4 455.8,468.7 457.4,467.8 459.0,466.5 460.5,464.9 462.1,463.2 463.7,461.5 465.2,460.0 466.8,458.8 468.4,457.9 469.9,457.2 471.5,456.5 473.1,455.6 474.6,454.5 476.2,452.9 477.8,451.2 479.3,449.3 480.9,447.7 482.5,446.3 484.0,445.3 485.6,444.5 487.2,443.6 488.7,442.4 490.3,440.6 491.9,438.3 493.4,435.4 495.0,432.2 496.6,429.0 498.2,426.2 499.7,424.1 501.3,422.6 502.9,421.8 504.4,421.4 506.0,421.1 507.6,420.7 509.1,420.1 510.7,419.3 512.3,418.6 513.8,418.0 515.4,417.7 517.0,417.8 518.5,418.2 520.1,418.6 521.7,419.0 523.2,419.1 524.8,418.9 526.4,418.5 527.9,418.0 529.5,417.7 531.1,417.7 532.6,418.2 534.2,419.0 535.8,420.0 537.3,420.8 538.9,421.2 540.5,420.9 542.1,420.0 543.6,418.5 545.2,416.8 546.8,415.1 548.3,413.7 549.9,412.8 551.5,412.3 553.0,412.2 554.6,412.4 556.2,412.7 557.7,412.9 559.3,413.0 560.9,413.0 562.4,413.1 564.0,413.4" /><polyline points="252.0,448.5 253.6,447.9 255.1,447.1 256.7,446.3 258.3,445.5 259.8,445.0 261.4,444.7 263.0,444.9 264.5,445.4 266.1,446.2 267.7,447.2 269.2,448.1 270.8,449.0 272.4,449.6 273.9,450.1 275.5,450.5 277.1,450.8 278.7,451.1 280.2,451.7 281.8,452.4 283.4,453.4 284.9,454.5 286.5,455.7 288.1,456.9 289.6,458.0 291.2,458.9 292.8,459.7 294.3,460.3 295.9,460.9 297.5,461.5 299.0,462.1 300.6,462.7 302.2,463.1 303.7,463.2 305.3,463.0 306.9,462.5 308.4,461.9 310.0,461.2 311.6,460.7 313.1,460.7 314.7,461.3 316.3,462.4 317.8,463.9 319.4,465.5 321.0,466.9 322.6,467.9 324.1,468.5 325.7,468.5 327.3,468.4 328.8,468.3 330.4,468.7 332.0,469.6 333.5,471.0 335.1,472.9 336.7,475.1 338.2,477.2 339.8,479.1 341.4,480.7 342.9,482.1 344.5,483.6 346.1,485.2 347.6,487.2 349.2,489.4 350.8,491.8 352.3,494.1 353.9,496.1 355.5,497.5 357.0,498.4 358.6,498.9 360.2,499.3 361.7,499.8 363.3,500.7 364.9,502.1 366.5,503.9 368.0,505.9 369.6,508.0 371.2,509.8 372.7,511.3 374.3,512.4 375.9,513.3 377.4,514.2 379.0,515.1 380.6,516.2 382.1,517.5 383.7,518.7 385.3,519.7 386.8,520.2 388.4,520.2 390.0,519.7 391.5,518.8 393.1,517.9 394.7,517.1 396.2,516.6 397.8,516.5 399.4,516.8 400.9,517.2 402.5,517.6 404.1,517.6 405.6,517.2 407.2,516.3 408.8,515.1 410.4,513.6 411.9,512.1 413.5,510.7 415.1,509.6 416.6,508.8 418.2,508.2 419.8,507.7 421.3,507.3 422.9,506.8 424.5,506.2 426.0,505.3 427.6,504.3 429.2,503.2 430.7,501.8 432.3,500.4 433.9,498.8 435.4,497.2 437.0,495.3 438.6,493.3 440.1,491.2 441.7,488.9 443.3,486.6 444.8,484.4 446.4,482.4 448.0,480.8 449.5,479.7 451.1,479.0 452.7,478.7 454.3,478.4 455.8,478.2 457.4,477.7 459.0,476.9 460.5,475.8 462.1,474.5 463.7,473.1 465.2,471.9 466.8,471.0 468.4,470.3 469.9,469.8 471.5,469.3 473.1,468.6 474.6,467.5 476.2,466.1 477.8,464.5 479.3,462.7 480.9,461.2 482.5,459.9 484.0,459.0 485.6,458.4 487.2,457.9 488.7,457.1 490.3,455.9 491.9,454.1 493.4,451.7 495.0,449.0 496.6,446.4 498.2,444.0 499.7,442.3 501.3,441.3 502.9,441.0 504.4,441.0 506.0,441.1 507.6,441.1 509.1,440.9 510.7,440.5 512.3,440.1 513.8,439.9 515.4,439.9 517.0,440.2 518.5,440.8 520.1,441.4 521.7,441.9 523.2,442.1 524.8,441.9 526.4,441.5 527.9,441.0 529.5,440.7 531.1,440.7 532.6,441.2 534.2,442.0 535.8,442.8 537.3,443.5 538.9,443.6 540.5,443.1 542.1,442.0 543.6,440.4 545.2,438.6 546.8,437.0 548.3,435.7 549.9,434.9 551.5,434.6 553.0,434.6 554.6,434.9 556.2,435.3 557.7,435.5 559.3,435.8 560.9,436.0 562.4,436.3 564.0,436.8" /><polyline points="252.0,470.4 253.6,469.8 255.1,469.0 256.7,468.2 258.3,467.6 259.8,467.1 261.4,467.0 263.0,467.2 264.5,467.8 266.1,468.6 267.7,469.5 269.2,470.5 270.8,471.5 272.4,472.3 273.9,473.1 275.5,473.7 277.1,474.2 278.7,474.7 280.2,475.2 281.8,475.8 283.4,476.5 284.9,477.3 286.5,478.2 288.1,479.1 289.6,480.0 291.2,480.7 292.8,481.3 294.3,481.7 295.9,482.1 297.5,482.3 299.0,482.6 300.6,482.8 302.2,482.9 303.7,482.7 305.3,482.4 306.9,481.7 308.4,480.9 310.0,480.0 311.6,479.4 313.1,479.1 314.7,479.5 316.3,480.3 317.8,481.6 319.4,483.0 321.0,484.3 322.6,485.2 324.1,485.5 325.7,485.4 327.3,485.1 328.8,484.8 330.4,484.9 332.0,485.6 333.5,486.8 335.1,488.6 336.7,490.6 338.2,492.5 339.8,494.2 341.4,495.6 342.9,496.7 344.5,497.8 346.1,499.0 347.6,500.5 349.2,502.2 350.8,504.1 352.3,505.9 353.9,507.3 355.5,508.3 357.0,508.7 358.6,508.7 360.2,508.7 361.7,508.7 363.3,509.2 364.9,510.2 366.5,511.6 368.0,513.2 369.6,514.9 371.2,516.3 372.7,517.4 374.3,518.2 375.9,518.9 377.4,519.6 379.0,520.4 380.6,521.5 382.1,522.7 383.7,523.9 385.3,524.8 386.8,525.2 388.4,525.1 390.0,524.4 391.5,523.3 393.1,522.2 394.7,521.3 396.2,520.8 397.8,520.7 399.4,520.8 400.9,521.1 402.5,521.3 404.1,521.2 405.6,520.7 407.2,519.8 408.8,518.6 410.4,517.2 411.9,515.8 413.5,514.5 415.1,513.5 416.6,512.6 418.2,511.9 419.8,511.4 421.3,511.0 422.9,510.5 424.5,510.0 426.0,509.3 427.6,508.5 429.2,507.5 430.7,506.3 432.3,505.0 433.9,503.5 435.4,501.9 437.0,500.1 438.6,498.4 440.1,496.5 441.7,494.7 443.3,492.9 444.8,491.3 446.4,489.9 448.0,488.8 449.5,488.1 451.1,487.7 452.7,487.6 454.3,487.7 455.8,487.7 457.4,487.6 459.0,487.1 460.5,486.3 462.1,485.3 463.7,484.1 465.2,483.1 466.8,482.3 468.4,481.8 469.9,481.4 471.5,481.1 473.1,480.6 474.6,479.8 476.2,478.6 477.8,477.1 479.3,475.6 480.9,474.2 482.5,473.2 484.0,472.6 485.6,472.4 487.2,472.4 488.7,472.2 490.3,471.6 491.9,470.4 493.4,468.7 495.0,466.6 496.6,464.5 498.2,462.8 499.7,461.5 501.3,460.9 502.9,461.0 504.4,461.3 506.0,461.8 507.6,462.1 509.1,462.2 510.7,462.1 512.3,461.8 513.8,461.7 515.4,461.9 517.0,462.3 518.5,463.0 520.1,463.6 521.7,464.1 523.2,464.2 524.8,464.0 526.4,463.5 527.9,463.0 529.5,462.8 531.1,462.9 532.6,463.4 534.2,464.2 535.8,465.1 537.3,465.7 538.9,465.8 540.5,465.2 542.1,464.0 543.6,462.4 545.2,460.7 546.8,459.2 548.3,458.2 549.9,457.6 551.5,457.6 553.0,457.9 554.6,458.3 556.2,458.7 557.7,459.1 559.3,459.4 560.9,459.8 562.4,460.2 564.0,460.8" /><polyline points="252.0,492.4 253.6,491.9 255.1,491.3 256.7,490.7 258.3,490.2 259.8,490.0 261.4,490.1 263.0,490.5 264.5,491.0 266.1,491.8 267.7,492.7 269.2,493.7 270.8,494.7 272.4,495.7 273.9,496.6 275.5,497.3 277.1,498.0 278.7,498.4 280.2,498.7 281.8,499.0 283.4,499.3 284.9,499.7 286.5,500.1 288.1,500.7 289.6,501.2 291.2,501.7 292.8,502.0 294.3,502.2 295.9,502.3 297.5,502.3 299.0,502.3 300.6,502.2 302.2,502.1 303.7,501.9 305.3,501.4 306.9,500.8 308.4,499.9 310.0,499.1 311.6,498.4 313.1,498.1 314.7,498.3 316.3,499.0 317.8,500.2 319.4,501.5 321.0,502.6 322.6,503.3 324.1,503.5 325.7,503.2 327.3,502.6 328.8,502.0 330.4,501.7 332.0,502.0 333.5,502.9 335.1,504.4 336.7,506.1 338.2,507.7 339.8,509.1 341.4,510.1 342.9,510.8 344.5,511.3 346.1,512.0 347.6,512.9 349.2,514.1 350.8,515.4 352.3,516.7 353.9,517.7 355.5,518.3 357.0,518.3 358.6,518.0 360.2,517.6 361.7,517.4 363.3,517.6 364.9,518.3 366.5,519.4 368.0,520.8 369.6,522.2 371.2,523.3 372.7,524.1 374.3,524.6 375.9,525.0 377.4,525.6 379.0,526.3 380.6,527.3 382.1,528.5 383.7,529.6 385.3,530.4 386.8,530.6 388.4,530.1 390.0,529.2 391.5,527.9 393.1,526.6 394.7,525.5 396.2,524.9 397.8,524.6 399.4,524.6 400.9,524.8 402.5,524.8 404.1,524.6 405.6,523.9 407.2,523.0 408.8,521.8 410.4,520.5 411.9,519.2 413.5,518.0 415.1,517.0 416.6,516.2 418.2,515.6 419.8,515.0 421.3,514.6 422.9,514.3 424.5,513.9 426.0,513.5 427.6,513.0 429.2,512.2 430.7,511.2 432.3,510.0 433.9,508.6 435.4,507.1 437.0,505.5 438.6,503.9 440.1,502.4 441.7,501.0 443.3,499.7 444.8,498.6 446.4,497.7 448.0,497.0 449.5,496.5 451.1,496.4 452.7,496.4 454.3,496.6 455.8,496.8 457.4,496.8 459.0,496.6 460.5,496.0 462.1,495.2 463.7,494.3 465.2,493.4 466.8,492.8 468.4,492.5 469.9,492.4 471.5,492.3 473.1,492.1 474.6,491.6 476.2,490.8 477.8,489.7 479.3,488.5 480.9,487.5 482.5,486.8 484.0,486.7 485.6,487.0 487.2,487.6 488.7,488.1 490.3,488.2 491.9,487.7 493.4,486.6 495.0,485.2 496.6,483.6 498.2,482.2 499.7,481.3 501.3,481.1 502.9,481.3 504.4,481.9 506.0,482.6 507.6,483.1 509.1,483.3 510.7,483.2 512.3,483.1 513.8,483.0 515.4,483.2 517.0,483.7 518.5,484.3 520.1,485.0 521.7,485.4 523.2,485.5 524.8,485.3 526.4,484.9 527.9,484.5 529.5,484.4 531.1,484.7 532.6,485.4 534.2,486.4 535.8,487.4 537.3,488.1 538.9,488.3 540.5,487.7 542.1,486.6 543.6,485.2 545.2,483.7 546.8,482.4 548.3,481.6 549.9,481.3 551.5,481.5 553.0,481.9 554.6,482.4 556.2,482.9 557.7,483.2 559.3,483.5 560.9,483.8 562.4,484.2 564.0,484.7" /><polyline points="252.0,515.1 253.6,514.8 255.1,514.4 256.7,514.0 258.3,513.8 259.8,513.8 261.4,514.1 263.0,514.5 264.5,515.0 266.1,515.7 267.7,516.4 269.2,517.3 270.8,518.2 272.4,519.1 273.9,520.0 275.5,520.7 277.1,521.2 278.7,521.5 280.2,521.6 281.8,521.4 283.4,521.3 284.9,521.1 286.5,521.2 288.1,521.3 289.6,521.6 291.2,521.8 292.8,522.0 294.3,522.1 295.9,522.1 297.5,522.0 299.0,521.8 300.6,521.6 302.2,521.5 303.7,521.3 305.3,520.9 306.9,520.4 308.4,519.7 310.0,518.9 311.6,518.2 313.1,517.9 314.7,518.0 316.3,518.6 317.8,519.6 319.4,520.7 321.0,521.6 322.6,522.1 324.1,522.0 325.7,521.3 327.3,520.2 328.8,519.2 330.4,518.4 332.0,518.2 333.5,518.6 335.1,519.6 336.7,520.9 338.2,522.1 339.8,523.1 341.4,523.7 342.9,523.9 344.5,524.0 346.1,524.1 347.6,524.5 349.2,525.3 350.8,526.2 352.3,527.1 353.9,527.8 355.5,528.0 357.0,527.8 358.6,527.3 360.2,526.8 361.7,526.5 363.3,526.5 364.9,527.1 366.5,528.0 368.0,529.2 369.6,530.2 371.2,531.0 372.7,531.4 374.3,531.6 375.9,531.7 377.4,532.0 379.0,532.6 380.6,533.5 382.1,534.5 383.7,535.4 385.3,535.9 386.8,535.9 388.4,535.1 390.0,533.8 391.5,532.2 393.1,530.7 394.7,529.4 396.2,528.6 397.8,528.2 399.4,528.1 400.9,528.1 402.5,528.0 404.1,527.6 405.6,526.9 407.2,525.9 408.8,524.8 410.4,523.6 411.9,522.5 413.5,521.5 415.1,520.6 416.6,519.9 418.2,519.3 419.8,518.9 421.3,518.6 422.9,518.4 424.5,518.3 426.0,518.2 427.6,517.9 429.2,517.4 430.7,516.6 432.3,515.5 433.9,514.2 435.4,512.6 437.0,511.1 438.6,509.6 440.1,508.3 441.7,507.3 443.3,506.4 444.8,505.7 446.4,505.2 448.0,504.7 449.5,504.4 451.1,504.3 452.7,504.4 454.3,504.7 455.8,505.0 457.4,505.2 459.0,505.1 460.5,504.8 462.1,504.3 463.7,503.7 465.2,503.2 466.8,502.9 468.4,502.9 469.9,503.2 471.5,503.5 473.1,503.8 474.6,503.9 476.2,503.5 477.8,502.9 479.3,502.1 480.9,501.5 482.5,501.3 484.0,501.7 485.6,502.5 487.2,503.7 488.7,504.8 490.3,505.5 491.9,505.7 493.4,505.1 495.0,504.1 496.6,502.9 498.2,501.8 499.7,501.1 501.3,501.0 502.9,501.4 504.4,502.1 506.0,502.8 507.6,503.3 509.1,503.5 510.7,503.5 512.3,503.4 513.8,503.3 515.4,503.6 517.0,504.1 518.5,504.8 520.1,505.6 521.7,506.1 523.2,506.4 524.8,506.3 526.4,506.1 527.9,505.9 529.5,506.1 531.1,506.7 532.6,507.8 534.2,509.2 535.8,510.5 537.3,511.3 538.9,511.6 540.5,511.2 542.1,510.2 543.6,508.8 545.2,507.4 546.8,506.3 548.3,505.7 549.9,505.6 551.5,505.8 553.0,506.3 554.6,506.7 556.2,507.0 557.7,507.2 559.3,507.3 560.9,507.4 562.4,507.6 564.0,507.9" /><polyline points="252.0,538.7 253.6,538.5 255.1,538.3 256.7,538.1 258.3,538.1 259.8,538.2 261.4,538.4 263.0,538.7 264.5,539.1 266.1,539.5 267.7,539.9 269.2,540.4 270.8,541.1 272.4,541.8 273.9,542.6 275.5,543.2 277.1,543.7 278.7,543.7 280.2,543.5 281.8,543.0 283.4,542.4 284.9,541.9 286.5,541.5 288.1,541.4 289.6,541.5 291.2,541.7 292.8,542.0 294.3,542.1 295.9,542.1 297.5,541.9 299.0,541.8 300.6,541.7 302.2,541.6 303.7,541.5 305.3,541.3 306.9,540.9 308.4,540.3 310.0,539.6 311.6,538.9 313.1,538.4 314.7,538.4 316.3,538.7 317.8,539.4 319.4,540.2 321.0,540.8 322.6,540.8 324.1,540.3 325.7,539.1 327.3,537.4 328.8,535.7 330.4,534.3 332.0,533.6 333.5,533.5 335.1,534.0 336.7,534.8 338.2,535.7 339.8,536.3 341.4,536.5 342.9,536.3 344.5,536.0 346.1,535.8 347.6,535.9 349.2,536.3 350.8,536.9 352.3,537.6 353.9,538.1 355.5,538.3 357.0,538.0 358.6,537.4 360.2,536.8 361.7,536.4 363.3,536.3 364.9,536.8 366.5,537.5 368.0,538.3 369.6,539.0 371.2,539.3 372.7,539.2 374.3,538.9 375.9,538.6 377.4,538.6 379.0,538.9 380.6,539.5 382.1,540.3 383.7,541.0 385.3,541.2 386.8,540.8 388.4,539.7 390.0,538.0 391.5,536.2 393.1,534.4 394.7,532.9 396.2,532.0 397.8,531.5 399.4,531.3 400.9,531.1 402.5,530.9 404.1,530.5 405.6,529.7 407.2,528.8 408.8,527.8 410.4,526.8 411.9,525.9 413.5,525.2 415.1,524.5 416.6,524.0 418.2,523.5 419.8,523.2 421.3,523.0 422.9,523.0 424.5,523.1 426.0,523.2 427.6,523.2 429.2,523.0 430.7,522.3 432.3,521.3 433.9,519.8 435.4,518.2 437.0,516.6 438.6,515.2 440.1,514.1 441.7,513.2 443.3,512.7 444.8,512.3 446.4,512.0 448.0,511.7 449.5,511.6 451.1,511.6 452.7,511.7 454.3,512.1 455.8,512.5 457.4,512.9 459.0,513.2 460.5,513.4 462.1,513.3 463.7,513.1 465.2,513.1 466.8,513.2 468.4,513.7 469.9,514.5 471.5,515.5 473.1,516.3 474.6,516.9 476.2,517.1 477.8,517.0 479.3,516.7 480.9,516.5 482.5,516.7 484.0,517.4 485.6,518.7 487.2,520.3 488.7,521.9 490.3,523.1 491.9,523.7 493.4,523.5 495.0,522.8 496.6,521.8 498.2,520.8 499.7,520.2 501.3,520.2 502.9,520.6 504.4,521.3 506.0,522.1 507.6,522.6 509.1,522.9 510.7,523.0 512.3,522.9 513.8,523.1 515.4,523.5 517.0,524.2 518.5,525.2 520.1,526.1 521.7,526.9 523.2,527.4 524.8,527.7 526.4,527.8 527.9,528.0 529.5,528.6 531.1,529.7 532.6,531.1 534.2,532.8 535.8,534.4 537.3,535.4 538.9,535.8 540.5,535.4 542.1,534.3 543.6,533.0 545.2,531.6 546.8,530.5 548.3,529.9 549.9,529.8 551.5,530.0 553.0,530.3 554.6,530.5 556.2,530.5 557.7,530.4 559.3,530.2 560.9,530.1 562.4,530.1 564.0,530.3" /><polyline points="252.0,562.8 253.6,562.7 255.1,562.5 256.7,562.3 258.3,562.3 259.8,562.3 261.4,562.4 263.0,562.5 264.5,562.5 266.1,562.5 267.7,562.6 269.2,562.7 270.8,563.1 272.4,563.7 273.9,564.3 275.5,564.9 277.1,565.3 278.7,565.3 280.2,564.8 281.8,564.1 283.4,563.2 284.9,562.4 286.5,561.9 288.1,561.7 289.6,561.8 291.2,562.1 292.8,562.5 294.3,562.7 295.9,562.8 297.5,562.8 299.0,562.7 300.6,562.6 302.2,562.6 303.7,562.5 305.3,562.4 306.9,562.1 308.4,561.5 310.0,560.8 311.6,559.9 313.1,559.2 314.7,558.8 316.3,558.7 317.8,558.9 319.4,559.2 321.0,559.3 322.6,558.9 324.1,557.8 325.7,556.0 327.3,553.7 328.8,551.4 330.4,549.4 332.0,548.1 333.5,547.5 335.1,547.6 336.7,548.1 338.2,548.7 339.8,549.1 341.4,549.1 342.9,548.7 344.5,548.2 346.1,547.8 347.6,547.6 349.2,547.9 350.8,548.4 352.3,549.0 353.9,549.4 355.5,549.4 357.0,549.0 358.6,548.4 360.2,547.6 361.7,547.1 363.3,546.9 364.9,547.1 366.5,547.4 368.0,547.8 369.6,547.9 371.2,547.6 372.7,547.0 374.3,546.1 375.9,545.3 377.4,544.8 379.0,544.7 380.6,545.1 382.1,545.6 383.7,546.0 385.3,546.0 386.8,545.2 388.4,543.8 390.0,541.9 391.5,539.8 393.1,537.8 394.7,536.2 396.2,535.2 397.8,534.6 399.4,534.4 400.9,534.2 402.5,534.0 404.1,533.5 405.6,532.8 407.2,532.0 408.8,531.1 410.4,530.4 411.9,529.8 413.5,529.3 415.1,528.8 416.6,528.4 418.2,528.1 419.8,527.8 421.3,527.7 422.9,527.8 424.5,528.1 426.0,528.4 427.6,528.6 429.2,528.5 430.7,527.9 432.3,526.7 433.9,525.2 435.4,523.5 437.0,521.8 438.6,520.3 440.1,519.3 441.7,518.6 443.3,518.3 444.8,518.2 446.4,518.2 448.0,518.2 449.5,518.2 451.1,518.3 452.7,518.6 454.3,519.2 455.8,519.9 457.4,520.8 459.0,521.6 460.5,522.2 462.1,522.8 463.7,523.2 465.2,523.7 466.8,524.4 468.4,525.5 469.9,526.8 471.5,528.3 473.1,529.7 474.6,530.8 476.2,531.5 477.8,531.7 479.3,531.7 480.9,531.8 482.5,532.2 484.0,533.2 485.6,534.8 487.2,536.7 488.7,538.6 490.3,540.1 491.9,541.0 493.4,541.2 495.0,540.6 496.6,539.8 498.2,539.0 499.7,538.5 501.3,538.5 502.9,539.0 504.4,539.8 506.0,540.7 507.6,541.4 509.1,541.9 510.7,542.2 512.3,542.4 513.8,542.8 515.4,543.6 517.0,544.6 518.5,546.0 520.1,547.3 521.7,548.5 523.2,549.3 524.8,549.9 526.4,550.4 527.9,551.0 529.5,552.0 531.1,553.4 532.6,555.2 534.2,557.2 535.8,558.9 537.3,560.0 538.9,560.3 540.5,559.7 542.1,558.5 543.6,556.9 545.2,555.4 546.8,554.2 548.3,553.5 549.9,553.3 551.5,553.3 553.0,553.4 554.6,553.4 556.2,553.1 557.7,552.8 559.3,552.3 560.9,552.0 562.4,551.9 564.0,552.0" /><polyline points="252.0,586.9 253.6,586.6 255.1,586.3 256.7,586.0 258.3,585.9 259.8,585.7 261.4,585.6 263.0,585.4 264.5,585.1 266.1,584.7 267.7,584.4 269.2,584.2 270.8,584.4 272.4,584.9 273.9,585.6 275.5,586.3 277.1,586.7 278.7,586.7 280.2,586.3 281.8,585.4 283.4,584.4 284.9,583.5 286.5,582.9 288.1,582.7 289.6,582.9 291.2,583.3 292.8,583.8 294.3,584.3 295.9,584.5 297.5,584.5 299.0,584.3 300.6,584.2 302.2,584.1 303.7,584.0 305.3,583.8 306.9,583.4 308.4,582.7 310.0,581.7 311.6,580.6 313.1,579.4 314.7,578.5 316.3,577.9 317.8,577.6 319.4,577.4 321.0,577.0 322.6,576.0 324.1,574.4 325.7,572.1 327.3,569.3 328.8,566.4 330.4,564.0 332.0,562.2 333.5,561.3 335.1,561.1 336.7,561.5 338.2,562.0 339.8,562.3 341.4,562.2 342.9,561.8 344.5,561.1 346.1,560.6 347.6,560.3 349.2,560.4 350.8,560.7 352.3,561.2 353.9,561.4 355.5,561.3 357.0,560.7 358.6,559.9 360.2,558.9 361.7,558.1 363.3,557.5 364.9,557.3 366.5,557.2 368.0,557.0 369.6,556.4 371.2,555.5 372.7,554.1 374.3,552.6 375.9,551.3 377.4,550.4 379.0,550.0 380.6,550.1 382.1,550.4 383.7,550.6 385.3,550.3 386.8,549.4 388.4,547.7 390.0,545.6 391.5,543.3 393.1,541.2 394.7,539.6 396.2,538.6 397.8,538.0 399.4,537.8 400.9,537.6 402.5,537.3 404.1,536.9 405.6,536.2 407.2,535.5 408.8,534.8 410.4,534.3 411.9,533.9 413.5,533.6 415.1,533.4 416.6,533.1 418.2,532.8 419.8,532.5 421.3,532.4 422.9,532.5 424.5,532.9 426.0,533.3 427.6,533.6 429.2,533.6 430.7,533.0 432.3,531.8 433.9,530.1 435.4,528.2 437.0,526.4 438.6,524.9 440.1,524.0 441.7,523.6 443.3,523.6 444.8,523.9 446.4,524.2 448.0,524.5 449.5,524.8 451.1,525.2 452.7,525.8 454.3,526.7 455.8,527.9 457.4,529.3 459.0,530.7 460.5,532.0 462.1,533.1 463.7,534.2 465.2,535.2 466.8,536.4 468.4,538.0 469.9,539.8 471.5,541.7 473.1,543.5 474.6,545.0 476.2,546.0 477.8,546.5 479.3,546.7 480.9,546.8 482.5,547.4 484.0,548.5 485.6,550.2 487.2,552.3 488.7,554.5 490.3,556.3 491.9,557.5 493.4,557.9 495.0,557.6 496.6,557.0 498.2,556.4 499.7,556.1 501.3,556.3 502.9,557.1 504.4,558.1 506.0,559.3 507.6,560.3 509.1,561.2 510.7,561.8 512.3,562.4 513.8,563.3 515.4,564.4 517.0,565.9 518.5,567.7 520.1,569.4 521.7,570.9 523.2,572.1 524.8,573.0 526.4,573.7 527.9,574.6 529.5,575.9 531.1,577.5 532.6,579.5 534.2,581.6 535.8,583.2 537.3,584.2 538.9,584.3 540.5,583.5 542.1,582.0 543.6,580.1 545.2,578.4 546.8,577.0 548.3,576.2 549.9,575.8 551.5,575.8 553.0,575.7 554.6,575.5 556.2,575.1 557.7,574.6 559.3,574.1 560.9,573.8 562.4,573.7 564.0,573.9" /><polyline points="252.0,610.2 253.6,609.8 255.1,609.3 256.7,608.8 258.3,608.5 259.8,608.3 261.4,608.0 263.0,607.6 264.5,607.0 266.1,606.3 267.7,605.8 269.2,605.4 270.8,605.6 272.4,606.1 273.9,607.0 275.5,607.9 277.1,608.6 278.7,608.8 280.2,608.4 281.8,607.6 283.4,606.5 284.9,605.5 286.5,604.8 288.1,604.5 289.6,604.8 291.2,605.3 292.8,605.9 294.3,606.4 295.9,606.5 297.5,606.4 299.0,606.1 300.6,605.8 302.2,605.4 303.7,605.1 305.3,604.7 306.9,604.1 308.4,603.1 310.0,601.8 311.6,600.3 313.1,598.8 314.7,597.4 316.3,596.3 317.8,595.5 319.4,594.8 321.0,593.9 322.6,592.6 324.1,590.6 325.7,587.8 327.3,584.7 328.8,581.5 330.4,578.6 332.0,576.6 333.5,575.5 335.1,575.3 336.7,575.6 338.2,576.1 339.8,576.4 341.4,576.2 342.9,575.7 344.5,575.0 346.1,574.2 347.6,573.7 349.2,573.6 350.8,573.7 352.3,573.8 353.9,573.8 355.5,573.3 357.0,572.4 358.6,571.2 360.2,569.9 361.7,568.6 363.3,567.6 364.9,566.9 366.5,566.2 368.0,565.3 369.6,564.1 371.2,562.5 372.7,560.6 374.3,558.6 375.9,556.8 377.4,555.5 379.0,554.9 380.6,554.9 382.1,555.0 383.7,555.1 385.3,554.7 386.8,553.6 388.4,551.8 390.0,549.5 391.5,547.1 393.1,544.9 394.7,543.3 396.2,542.3 397.8,541.8 399.4,541.5 400.9,541.4 402.5,541.0 404.1,540.5 405.6,539.9 407.2,539.2 408.8,538.7 410.4,538.3 411.9,538.2 413.5,538.1 415.1,537.9 416.6,537.6 418.2,537.3 419.8,536.9 421.3,536.8 422.9,536.9 424.5,537.3 426.0,537.8 427.6,538.2 429.2,538.2 430.7,537.6 432.3,536.3 433.9,534.5 435.4,532.6 437.0,530.7 438.6,529.4 440.1,528.6 441.7,528.5 443.3,529.0 444.8,529.7 446.4,530.4 448.0,531.2 449.5,531.9 451.1,532.7 452.7,533.8 454.3,535.1 455.8,536.8 457.4,538.7 459.0,540.7 460.5,542.5 462.1,544.2 463.7,545.8 465.2,547.2 466.8,548.8 468.4,550.7 469.9,552.8 471.5,555.0 473.1,557.1 474.6,558.8 476.2,560.0 477.8,560.6 479.3,560.8 480.9,561.1 482.5,561.6 484.0,562.8 485.6,564.7 487.2,567.0 488.7,569.5 490.3,571.7 491.9,573.3 493.4,574.1 495.0,574.3 496.6,574.0 498.2,573.7 499.7,573.8 501.3,574.4 502.9,575.5 504.4,577.0 506.0,578.5 507.6,580.0 509.1,581.2 510.7,582.3 512.3,583.4 513.8,584.6 515.4,586.2 517.0,588.0 518.5,590.1 520.1,592.1 521.7,593.9 523.2,595.3 524.8,596.3 526.4,597.2 527.9,598.2 529.5,599.5 531.1,601.3 532.6,603.3 534.2,605.3 535.8,606.9 537.3,607.7 538.9,607.5 540.5,606.3 542.1,604.5 543.6,602.4 545.2,600.5 546.8,599.1 548.3,598.2 549.9,597.9 551.5,597.8 553.0,597.7 554.6,597.5 556.2,597.1 557.7,596.6 559.3,596.2 560.9,596.0 562.4,596.1 564.0,596.5" /><polyline points="252.0,632.7 253.6,632.0 255.1,631.4 256.7,630.9 258.3,630.6 259.8,630.3 261.4,630.0 263.0,629.5 264.5,628.9 266.1,628.1 267.7,627.4 269.2,627.1 270.8,627.3 272.4,628.0 273.9,629.2 275.5,630.4 277.1,631.4 278.7,631.8 280.2,631.5 281.8,630.6 283.4,629.4 284.9,628.2 286.5,627.3 288.1,626.9 289.6,627.1 291.2,627.5 292.8,628.1 294.3,628.4 295.9,628.4 297.5,628.0 299.0,627.4 300.6,626.7 302.2,626.0 303.7,625.4 305.3,624.7 306.9,623.9 308.4,622.7 310.0,621.1 311.6,619.3 313.1,617.4 314.7,615.6 316.3,614.1 317.8,613.0 319.4,612.0 321.0,610.8 322.6,609.2 324.1,607.0 325.7,604.0 327.3,600.6 328.8,597.1 330.4,594.1 332.0,591.9 333.5,590.6 335.1,590.3 336.7,590.6 338.2,591.0 339.8,591.2 341.4,591.0 342.9,590.3 344.5,589.3 346.1,588.2 347.6,587.4 349.2,586.8 350.8,586.5 352.3,586.2 353.9,585.8 355.5,584.9 357.0,583.5 358.6,581.8 360.2,580.0 361.7,578.3 363.3,576.8 364.9,575.5 366.5,574.3 368.0,572.9 369.6,571.2 371.2,569.1 372.7,566.6 374.3,564.2 375.9,562.1 377.4,560.6 379.0,559.9 380.6,559.7 382.1,559.9 383.7,559.9 385.3,559.4 386.8,558.2 388.4,556.2 390.0,553.8 391.5,551.3 393.1,549.1 394.7,547.4 396.2,546.3 397.8,545.8 399.4,545.5 400.9,545.3 402.5,544.9 404.1,544.3 405.6,543.6 407.2,542.9 408.8,542.5 410.4,542.2 411.9,542.2 413.5,542.2 415.1,542.1 416.6,541.8 418.2,541.4 419.8,541.0 421.3,540.7 422.9,540.8 424.5,541.2 426.0,541.9 427.6,542.4 429.2,542.5 430.7,541.9 432.3,540.7 433.9,538.9 435.4,537.0 437.0,535.2 438.6,534.0 440.1,533.5 441.7,533.8 443.3,534.8 444.8,536.0 446.4,537.4 448.0,538.7 449.5,539.8 451.1,541.1 452.7,542.5 454.3,544.2 455.8,546.3 457.4,548.6 459.0,551.1 460.5,553.4 462.1,555.5 463.7,557.3 465.2,559.1 466.8,560.9 468.4,563.0 469.9,565.2 471.5,567.6 473.1,569.9 474.6,571.8 476.2,573.1 477.8,573.8 479.3,574.1 480.9,574.4 482.5,575.1 484.0,576.5 485.6,578.6 487.2,581.3 488.7,584.3 490.3,587.0 491.9,589.1 493.4,590.5 495.0,591.2 496.6,591.4 498.2,591.6 499.7,592.2 501.3,593.2 502.9,594.8 504.4,596.7 506.0,598.7 507.6,600.6 509.1,602.2 510.7,603.6 512.3,605.0 513.8,606.5 515.4,608.4 517.0,610.5 518.5,612.7 520.1,614.9 521.7,616.7 523.2,618.1 524.8,619.1 526.4,620.0 527.9,621.0 529.5,622.4 531.1,624.2 532.6,626.2 534.2,628.2 535.8,629.6 537.3,630.3 538.9,629.8 540.5,628.5 542.1,626.5 543.6,624.3 545.2,622.3 546.8,621.0 548.3,620.2 549.9,620.0 551.5,620.1 553.0,620.2 554.6,620.1 556.2,619.9 557.7,619.4 559.3,619.1 560.9,619.1 562.4,619.4 564.0,620.0" /><polyline points="252.0,654.6 253.6,653.9 255.1,653.3 256.7,652.9 258.3,652.7 259.8,652.6 261.4,652.4 263.0,652.0 264.5,651.3 266.1,650.6 267.7,649.9 269.2,649.6 270.8,649.9 272.4,650.9 273.9,652.2 275.5,653.7 277.1,654.9 278.7,655.4 280.2,655.1 281.8,654.0 283.4,652.5 284.9,651.0 286.5,649.8 288.1,649.1 289.6,649.0 291.2,649.3 292.8,649.6 294.3,649.7 295.9,649.4 297.5,648.7 299.0,647.7 300.6,646.7 302.2,645.7 303.7,644.8 305.3,644.0 306.9,643.0 308.4,641.7 310.0,640.0 311.6,638.0 313.1,635.8 314.7,633.8 316.3,632.2 317.8,630.8 319.4,629.6 321.0,628.4 322.6,626.6 324.1,624.2 325.7,621.1 327.3,617.4 328.8,613.7 330.4,610.4 332.0,608.0 333.5,606.5 335.1,606.0 336.7,606.1 338.2,606.4 339.8,606.4 341.4,605.9 342.9,604.9 344.5,603.4 346.1,601.9 347.6,600.6 349.2,599.5 350.8,598.7 352.3,597.9 353.9,596.9 355.5,595.5 357.0,593.7 358.6,591.6 360.2,589.3 361.7,587.2 363.3,585.3 364.9,583.6 366.5,582.0 368.0,580.2 369.6,578.1 371.2,575.6 372.7,572.8 374.3,570.1 375.9,567.7 377.4,566.1 379.0,565.3 380.6,565.1 382.1,565.2 383.7,565.2 385.3,564.6 386.8,563.3 388.4,561.1 390.0,558.5 391.5,555.8 393.1,553.5 394.7,551.7 396.2,550.5 397.8,549.9 399.4,549.6 400.9,549.2 402.5,548.6 404.1,547.9 405.6,547.1 407.2,546.4 408.8,545.9 410.4,545.8 411.9,545.9 413.5,545.9 415.1,545.9 416.6,545.6 418.2,545.1 419.8,544.6 421.3,544.4 422.9,544.5 424.5,545.1 426.0,545.8 427.6,546.6 429.2,546.8 430.7,546.5 432.3,545.3 433.9,543.6 435.4,541.7 437.0,540.1 438.6,539.1 440.1,538.9 441.7,539.7 443.3,541.2 444.8,543.1 446.4,545.0 448.0,546.7 449.5,548.3 451.1,549.8 452.7,551.5 454.3,553.4 455.8,555.8 457.4,558.5 459.0,561.2 460.5,563.8 462.1,566.2 463.7,568.2 465.2,570.2 466.8,572.1 468.4,574.3 469.9,576.8 471.5,579.4 473.1,581.8 474.6,583.9 476.2,585.4 477.8,586.4 479.3,586.9 480.9,587.4 482.5,588.4 484.0,590.1 485.6,592.6 487.2,595.9 488.7,599.4 490.3,602.8 491.9,605.6 493.4,607.7 495.0,609.0 496.6,609.8 498.2,610.5 499.7,611.5 501.3,612.9 502.9,614.9 504.4,617.1 506.0,619.5 507.6,621.6 509.1,623.5 510.7,625.1 512.3,626.7 513.8,628.4 515.4,630.3 517.0,632.5 518.5,634.8 520.1,637.0 521.7,638.8 523.2,640.1 524.8,641.1 526.4,642.0 527.9,643.0 529.5,644.4 531.1,646.2 532.6,648.3 534.2,650.4 535.8,651.9 537.3,652.5 538.9,652.0 540.5,650.6 542.1,648.5 543.6,646.4 545.2,644.5 546.8,643.4 548.3,642.9 549.9,642.9 551.5,643.3 553.0,643.6 554.6,643.7 556.2,643.5 557.7,643.1 559.3,642.9 560.9,642.9 562.4,643.3 564.0,644.0" /><polyline points="252.0,676.6 253.6,676.1 255.1,675.7 256.7,675.4 258.3,675.5 259.8,675.6 261.4,675.6 263.0,675.3 264.5,674.7 266.1,673.9 267.7,673.2 269.2,672.9 270.8,673.2 272.4,674.3 273.9,675.8 275.5,677.4 277.1,678.6 278.7,679.0 280.2,678.5 281.8,677.1 283.4,675.2 284.9,673.2 286.5,671.5 288.1,670.5 289.6,670.1 291.2,670.1 292.8,670.2 294.3,670.0 295.9,669.5 297.5,668.6 299.0,667.3 300.6,666.1 302.2,664.9 303.7,663.9 305.3,663.1 306.9,662.1 308.4,660.8 310.0,659.1 311.6,657.1 313.1,654.9 314.7,652.8 316.3,651.0 317.8,649.5 319.4,648.2 321.0,646.8 322.6,644.9 324.1,642.3 325.7,638.9 327.3,635.0 328.8,630.9 330.4,627.3 332.0,624.4 333.5,622.6 335.1,621.8 336.7,621.5 338.2,621.5 339.8,621.1 341.4,620.3 342.9,618.8 344.5,616.8 346.1,614.8 347.6,612.9 349.2,611.3 350.8,609.9 352.3,608.6 353.9,607.2 355.5,605.4 357.0,603.2 358.6,600.8 360.2,598.2 361.7,595.8 363.3,593.7 364.9,591.8 366.5,589.9 368.0,587.9 369.6,585.5 371.2,582.7 372.7,579.6 374.3,576.5 375.9,574.0 377.4,572.2 379.0,571.2 380.6,571.0 382.1,571.0 383.7,570.9 385.3,570.2 386.8,568.6 388.4,566.2 390.0,563.3 391.5,560.4 393.1,557.8 394.7,555.8 396.2,554.6 397.8,553.8 399.4,553.3 400.9,552.8 402.5,552.1 404.1,551.2 405.6,550.2 407.2,549.5 408.8,549.1 410.4,549.0 411.9,549.2 413.5,549.4 415.1,549.4 416.6,549.2 418.2,548.7 419.8,548.3 421.3,548.1 422.9,548.4 424.5,549.1 426.0,550.1 427.6,551.1 429.2,551.6 430.7,551.5 432.3,550.5 433.9,548.9 435.4,547.0 437.0,545.5 438.6,544.6 440.1,544.8 441.7,546.0 443.3,548.0 444.8,550.4 446.4,552.7 448.0,554.8 449.5,556.7 451.1,558.4 452.7,560.1 454.3,562.2 455.8,564.7 457.4,567.6 459.0,570.5 460.5,573.4 462.1,575.9 463.7,578.2 465.2,580.4 466.8,582.5 468.4,584.9 469.9,587.6 471.5,590.5 473.1,593.3 474.6,595.8 476.2,597.7 477.8,599.0 479.3,599.9 480.9,600.8 482.5,602.2 484.0,604.3 485.6,607.4 487.2,611.2 488.7,615.4 490.3,619.5 491.9,623.0 493.4,625.7 495.0,627.6 496.6,628.9 498.2,630.0 499.7,631.3 501.3,633.1 502.9,635.2 504.4,637.7 506.0,640.2 507.6,642.5 509.1,644.5 510.7,646.2 512.3,647.8 513.8,649.5 515.4,651.5 517.0,653.7 518.5,656.0 520.1,658.2 521.7,659.9 523.2,661.3 524.8,662.3 526.4,663.2 527.9,664.4 529.5,665.9 531.1,668.0 532.6,670.3 534.2,672.6 535.8,674.3 537.3,675.0 538.9,674.6 540.5,673.2 542.1,671.3 543.6,669.3 545.2,667.6 546.8,666.6 548.3,666.4 549.9,666.7 551.5,667.3 553.0,667.7 554.6,667.9 556.2,667.7 557.7,667.3 559.3,667.0 560.9,667.0 562.4,667.3 564.0,667.9" /><polyline points="420.1,499.6 427.1,503.1 420.1,506.6" /><polyline points="420.1,511.7 427.1,515.2 420.1,518.7" /><polyline points="420.1,523.8 427.1,527.3 420.1,530.8" /><polyline points="420.1,535.9 427.1,539.4 420.1,542.9" /></g><g id="04_Crimson_Mines" inkscape:groupmode="layer" inkscape:label="04_Crimson_Mines" stroke="#8B2500" fill="none" stroke-width="0.875" stroke-linecap="round" stroke-linejoin="round"><polyline points="385.2,549.5 385.1,550.2 384.7,550.9 384.2,551.5 383.5,551.8 382.7,552.0 381.9,551.8 381.2,551.5 380.7,550.9 380.3,550.2 380.2,549.5 380.3,548.7 380.7,548.0 381.2,547.4 381.9,547.1 382.7,547.0 383.5,547.1 384.2,547.4 384.7,548.0 385.1,548.7 385.2,549.5" /><polyline points="387.7,549.5 387.5,551.0 386.7,552.4 385.6,553.5 384.2,554.2 382.7,554.5 381.2,554.2 379.8,553.5 378.7,552.4 377.9,551.0 377.7,549.5 377.9,547.9 378.7,546.5 379.8,545.4 381.2,544.7 382.7,544.5 384.2,544.7 385.6,545.4 386.7,546.5 387.5,547.9 387.7,549.5" /><line x1="387.7" y1="550.2" x2="391.1" y2="550.6" /><line x1="384.9" y1="554.0" x2="386.4" y2="557.1" /><line x1="380.5" y1="553.9" x2="378.9" y2="557.1" /><line x1="377.7" y1="549.8" x2="374.2" y2="550.1" /><line x1="380.4" y1="545.0" x2="378.8" y2="541.9" /><line x1="384.7" y1="544.9" x2="386.2" y2="541.7" /><polyline points="449.0,536.6 448.9,537.4 448.5,538.1 448.0,538.6 447.3,539.0 446.5,539.1 445.7,539.0 445.0,538.6 444.5,538.1 444.1,537.4 444.0,536.6 444.1,535.8 444.5,535.1 445.0,534.6 445.7,534.2 446.5,534.1 447.3,534.2 448.0,534.6 448.5,535.1 448.9,535.8 449.0,536.6" /><polyline points="451.5,536.6 451.2,538.1 450.5,539.5 449.4,540.6 448.0,541.3 446.5,541.6 444.9,541.3 443.5,540.6 442.4,539.5 441.7,538.1 441.5,536.6 441.7,535.0 442.4,533.6 443.5,532.5 444.9,531.8 446.5,531.6 448.0,531.8 449.4,532.5 450.5,533.6 451.2,535.0 451.5,536.6" /><line x1="451.5" y1="536.4" x2="455.0" y2="536.3" /><line x1="448.4" y1="541.2" x2="449.7" y2="544.5" /><line x1="444.4" y1="541.1" x2="443.0" y2="544.3" /><line x1="441.5" y1="537.2" x2="438.1" y2="537.7" /><line x1="443.5" y1="532.6" x2="441.4" y2="529.7" /><line x1="449.2" y1="532.4" x2="451.1" y2="529.4" /><polyline points="475.7,563.3 475.6,564.0 475.2,564.7 474.7,565.3 474.0,565.6 473.2,565.8 472.4,565.6 471.7,565.3 471.2,564.7 470.8,564.0 470.7,563.3 470.8,562.5 471.2,561.8 471.7,561.2 472.4,560.9 473.2,560.8 474.0,560.9 474.7,561.2 475.2,561.8 475.6,562.5 475.7,563.3" /><polyline points="478.2,563.3 478.0,564.8 477.3,566.2 476.1,567.3 474.8,568.0 473.2,568.3 471.7,568.0 470.3,567.3 469.2,566.2 468.5,564.8 468.2,563.3 468.5,561.7 469.2,560.3 470.3,559.2 471.7,558.5 473.2,558.3 474.8,558.5 476.1,559.2 477.3,560.3 478.0,561.7 478.2,563.3" /><line x1="478.2" y1="563.0" x2="481.7" y2="562.8" /><line x1="475.5" y1="567.7" x2="477.2" y2="570.8" /><line x1="470.3" y1="567.3" x2="468.3" y2="570.2" /><line x1="468.2" y1="562.6" x2="464.8" y2="562.2" /><line x1="471.1" y1="558.7" x2="469.7" y2="555.5" /><line x1="475.3" y1="558.7" x2="476.8" y2="555.5" /><polyline points="380.1,519.1 380.0,519.8 379.6,520.5 379.1,521.1 378.4,521.4 377.6,521.6 376.8,521.4 376.1,521.1 375.6,520.5 375.2,519.8 375.1,519.1 375.2,518.3 375.6,517.6 376.1,517.0 376.8,516.7 377.6,516.6 378.4,516.7 379.1,517.0 379.6,517.6 380.0,518.3 380.1,519.1" /><polyline points="382.6,519.1 382.4,520.6 381.6,522.0 380.5,523.1 379.1,523.8 377.6,524.1 376.1,523.8 374.7,523.1 373.6,522.0 372.8,520.6 372.6,519.1 372.8,517.5 373.6,516.1 374.7,515.0 376.1,514.3 377.6,514.1 379.1,514.3 380.5,515.0 381.6,516.1 382.4,517.5 382.6,519.1" /><line x1="382.6" y1="518.7" x2="386.1" y2="518.4" /><line x1="380.1" y1="523.4" x2="381.8" y2="526.4" /><line x1="375.4" y1="523.6" x2="373.9" y2="526.7" /><line x1="372.6" y1="518.7" x2="369.1" y2="518.4" /><line x1="374.8" y1="514.9" x2="372.8" y2="512.0" /><line x1="380.0" y1="514.7" x2="381.6" y2="511.6" /><polyline points="428.6,540.9 428.4,541.7 428.1,542.4 427.5,543.0 426.8,543.3 426.1,543.4 425.3,543.3 424.6,543.0 424.0,542.4 423.7,541.7 423.6,540.9 423.7,540.2 424.0,539.5 424.6,538.9 425.3,538.6 426.1,538.4 426.8,538.6 427.5,538.9 428.1,539.5 428.4,540.2 428.6,540.9" /><polyline points="431.1,540.9 430.8,542.5 430.1,543.9 429.0,545.0 427.6,545.7 426.1,545.9 424.5,545.7 423.1,545.0 422.0,543.9 421.3,542.5 421.1,540.9 421.3,539.4 422.0,538.0 423.1,536.9 424.5,536.2 426.1,535.9 427.6,536.2 429.0,536.9 430.1,538.0 430.8,539.4 431.1,540.9" /><line x1="431.0" y1="541.5" x2="434.5" y2="541.8" /><line x1="429.0" y1="545.0" x2="431.1" y2="547.8" /><line x1="423.7" y1="545.4" x2="422.1" y2="548.5" /><line x1="421.1" y1="541.1" x2="417.6" y2="541.2" /><line x1="423.2" y1="536.9" x2="421.1" y2="534.0" /><line x1="429.1" y1="537.0" x2="431.2" y2="534.2" /><polyline points="368.5,562.5 368.3,563.2 368.0,563.9 367.4,564.5 366.7,564.8 366.0,565.0 365.2,564.8 364.5,564.5 363.9,563.9 363.6,563.2 363.5,562.5 363.6,561.7 363.9,561.0 364.5,560.4 365.2,560.1 366.0,560.0 366.7,560.1 367.4,560.4 368.0,561.0 368.3,561.7 368.5,562.5" /><polyline points="371.0,562.5 370.7,564.0 370.0,565.4 368.9,566.5 367.5,567.2 366.0,567.5 364.4,567.2 363.0,566.5 361.9,565.4 361.2,564.0 361.0,562.5 361.2,560.9 361.9,559.5 363.0,558.4 364.4,557.7 366.0,557.5 367.5,557.7 368.9,558.4 370.0,559.5 370.7,560.9 371.0,562.5" /><line x1="370.9" y1="563.0" x2="374.4" y2="563.4" /><line x1="368.3" y1="566.8" x2="370.0" y2="569.9" /><line x1="363.8" y1="566.9" x2="362.2" y2="570.1" /><line x1="361.0" y1="562.3" x2="357.5" y2="562.2" /><line x1="364.1" y1="557.8" x2="362.7" y2="554.6" /><line x1="368.5" y1="558.2" x2="370.3" y2="555.2" /><polyline points="411.9,512.4 411.8,513.2 411.5,513.9 410.9,514.4 410.2,514.8 409.4,514.9 408.7,514.8 408.0,514.4 407.4,513.9 407.1,513.2 406.9,512.4 407.1,511.6 407.4,510.9 408.0,510.4 408.7,510.0 409.4,509.9 410.2,510.0 410.9,510.4 411.5,510.9 411.8,511.6 411.9,512.4" /><polyline points="414.4,512.4 414.2,514.0 413.5,515.4 412.4,516.5 411.0,517.2 409.4,517.4 407.9,517.2 406.5,516.5 405.4,515.4 404.7,514.0 404.4,512.4 404.7,510.9 405.4,509.5 406.5,508.4 407.9,507.7 409.4,507.4 411.0,507.7 412.4,508.4 413.5,509.5 414.2,510.9 414.4,512.4" /><line x1="414.4" y1="512.0" x2="417.9" y2="511.7" /><line x1="411.5" y1="516.9" x2="413.0" y2="520.1" /><line x1="407.0" y1="516.8" x2="405.2" y2="519.8" /><line x1="404.5" y1="513.1" x2="401.0" y2="513.6" /><line x1="407.1" y1="508.0" x2="405.4" y2="504.9" /><line x1="411.8" y1="508.0" x2="413.5" y2="505.0" /></g></svg>