<?xml version='1.0' encoding='utf-8'?>
<svg xmlns="http://www.w3.org/2000/svg" xmlns:inkscape="http://www.inkscape.org/namespaces/inkscape" viewBox="204 228 408 600"><style>*{vector-effect:non-scaling-stroke}</style><g id="01_Black_Frame" inkscape:groupmode="layer" inkscape:label="01_Black_Frame" stroke="#1A1A1A" fill="none" stroke-width="0.875" stroke-linecap="round" stroke-linejoin="round"><path d="M 250.0,264.0 L 566.0,264.0 Q 576.0,264.0 576.0,274.0 L 576.0,782.0 Q 576.0,792.0 566.0,792.0 L 250.0,792.0 Q 240.0,792.0 240.0,782.0 L 240.0,274.0 Q 240.0,264.0 250.0,264.0" /><path d="M 253.0,270.0 L 563.0,270.0 Q 570.0,270.0 570.0,277.0 L 570.0,779.0 Q 570.0,786.0 563.0,786.0 L 253.0,786.0 Q 246.0,786.0 246.0,779.0 L 246.0,277.0 Q 246.0,270.0 253.0,270.0" /><line x1="259.0" y1="280.0" x2="263.0" y2="280.0" /><line x1="258.1" y1="282.1" x2="260.9" y2="284.9" /><line x1="256.0" y1="283.0" x2="256.0" y2="287.0" /><line x1="253.9" y1="282.1" x2="251.1" y2="284.9" /><line x1="253.0" y1="280.0" x2="249.0" y2="280.0" /><line x1="253.9" y1="277.9" x2="251.1" y2="275.1" /><line x1="256.0" y1="277.0" x2="256.0" y2="273.0" /><line x1="258.1" y1="277.9" x2="260.9" y2="275.1" /><line x1="563.0" y1="280.0" x2="567.0" y2="280.0" /><line x1="562.1" y1="282.1" x2="564.9" y2="284.9" /><line x1="560.0" y1="283.0" x2="560.0" y2="287.0" /><line x1="557.9" y1="282.1" x2="555.1" y2="284.9" /><line x1="557.0" y1="280.0" x2="553.0" y2="280.0" /><line x1="557.9" y1="277.9" x2="555.1" y2="275.1" /><line x1="560.0" y1="277.0" x2="560.0" y2="273.0" /><line x1="562.1" y1="277.9" x2="564.9" y2="275.1" /><line x1="259.0" y1="776.0" x2="263.0" y2="776.0" /><line x1="258.1" y1="778.1" x2="260.9" y2="780.9" /><line x1="256.0" y1="779.0" x2="256.0" y2="783.0" /><line x1="253.9" y1="778.1" x2="251.1" y2="780.9" /><line x1="253.0" y1="776.0" x2="249.0" y2="776.0" /><line x1="253.9" y1="773.9" x2="251.1" y2="771.1" /><line x1="256.0" y1="773.0" x2="256.0" y2="769.0" /><line x1="258.1" y1="773.9" x2="260.9" y2="771.1" /><line x1="563.0" y1="776.0" x2="567.0" y2="776.0" /><line x1="562.1" y1="778.1" x2="564.9" y2="780.9" /><line x1="560.0" y1="779.0" x2="560.0" y2="783.0" /><line x1="557.9" y1="778.1" x2="555.1" y2="780.9" /><line x1="557.0" y1="776.0" x2="553.0" y2="776.0" /><line x1="557.9" y1="773.9" x2="555.1" y2="771.1" /><line x1="560.0" y1="773.0" x2="560.0" y2="769.0" /><line x1="562.1" y1="773.9" x2="564.9" y2="771.1" /><polyline points="398.12,283.20 396.38,282.00 395.38,282.00 393.62,283.60 393.62,288.40 395.38,290.00 396.38,290.00 398.12,288.80" /><polyline points="399.38,282.00 404.38,290.00" /><polyline points="404.38,282.00 399.38,290.00" /><polyline points="405.12,282.00 405.12,290.00 409.38,290.00" /><polyline points="413.38,282.00 413.38,290.00" /><polyline points="416.62,282.00 421.62,290.00" /><polyline points="421.62,282.00 416.62,290.00" /><polyline points="359.41,297.00 365.91,297.00" /><polyline points="362.66,297.00 362.66,307.00" /><polyline points="366.89,297.00 366.89,307.00" /><polyline points="373.39,297.00 373.39,307.00" /><polyline points="366.89,301.80 373.39,301.80" /><polyline points="379.89,297.00 374.36,297.00 374.36,301.80 378.26,301.80" /><polyline points="374.36,301.80 374.36,307.00 379.89,307.00" /><polyline points="389.31,297.00 395.81,297.00" /><polyline points="392.56,297.00 392.56,307.00" /><polyline points="396.79,297.00 396.79,307.00" /><polyline points="403.29,297.00 403.29,307.00" /><polyline points="396.79,301.80 403.29,301.80" /><polyline points="404.26,307.00 404.26,297.00 408.49,297.00 410.11,298.50 410.11,300.20 408.49,301.50 404.26,301.50 410.11,307.00" /><polyline points="417.26,297.00 411.74,297.00 411.74,301.80 415.64,301.80" /><polyline points="411.74,301.80 411.74,307.00 417.26,307.00" /><polyline points="424.74,298.00 423.11,297.00 421.16,297.00 419.54,298.50 419.21,300.00 420.19,301.20 422.46,302.00 424.74,302.80 425.71,304.00 425.39,305.50 423.76,307.00 421.49,307.00 419.86,306.00" /><polyline points="426.69,297.00 426.69,307.00" /><polyline points="433.19,297.00 433.19,307.00" /><polyline points="426.69,301.80 433.19,301.80" /><polyline points="437.41,297.00 434.81,298.00 434.16,300.00 434.16,304.00 434.81,306.00 437.41,307.00 440.01,306.00 440.66,304.00 440.66,300.00 440.01,298.00 437.41,297.00" /><polyline points="441.64,297.00 441.64,307.00 447.16,307.00" /><polyline points="449.11,307.00 449.11,297.00 452.69,297.00 454.96,299.50 454.96,304.50 452.69,307.00 449.11,307.00" /><line x1="270.0" y1="312.0" x2="546.0" y2="312.0" /><line x1="270.0" y1="732.0" x2="546.0" y2="732.0" /><polyline points="367.75,745.25 367.75,740.75 369.57,740.75 370.27,741.42 370.27,742.19 369.57,742.77 367.75,742.77" /><polyline points="373.35,740.75 370.97,740.75 370.97,742.91 372.65,742.91" /><polyline points="370.97,742.91 370.97,745.25 373.35,745.25" /><polyline points="374.19,745.25 374.19,740.75 376.99,745.25 376.99,740.75" /><polyline points="377.41,745.25 377.41,740.75 378.95,740.75 379.93,741.88 379.93,744.12 378.95,745.25 377.41,745.25" /><polyline points="382.03,740.75 382.03,745.25" /><polyline points="383.85,745.25 383.85,740.75 386.65,745.25 386.65,740.75" /><polyline points="389.59,741.42 388.61,740.75 388.05,740.75 387.07,741.65 387.07,744.35 388.05,745.25 388.61,745.25 389.59,744.58 389.59,743.00 388.47,743.00" /><polyline points="396.73,745.25 398.13,740.75 399.53,745.25" /><polyline points="397.23,743.67 399.03,743.67" /><polyline points="399.95,745.25 399.95,740.75 401.49,740.75 402.47,741.88 402.47,744.12 401.49,745.25 399.95,745.25" /><polyline points="403.17,740.75 404.57,745.25 405.97,740.75" /><polyline points="406.39,745.25 407.79,740.75 409.19,745.25" /><polyline points="406.89,743.67 408.69,743.67" /><polyline points="409.61,745.25 409.61,740.75 412.41,745.25 412.41,740.75" /><polyline points="415.35,741.42 414.37,740.75 413.81,740.75 412.83,741.65 412.83,744.35 413.81,745.25 414.37,745.25 415.35,744.58" /><polyline points="418.43,740.75 416.05,740.75 416.05,742.91 417.73,742.91" /><polyline points="416.05,742.91 416.05,745.25 418.43,745.25" /><polyline points="425.71,745.25 425.71,740.75 427.53,740.75 428.09,741.29 428.09,742.01 427.53,742.55 425.71,742.55 427.53,742.55 428.09,743.09 428.09,744.71 427.53,745.25 425.71,745.25" /><polyline points="430.33,740.75 429.21,741.20 428.93,742.10 428.93,743.90 429.21,744.80 430.33,745.25 431.45,744.80 431.73,743.90 431.73,742.10 431.45,741.20 430.33,740.75" /><polyline points="432.15,745.25 432.15,740.75 433.97,740.75 434.67,741.42 434.67,742.19 433.97,742.77 432.15,742.77 434.67,745.25" /><polyline points="435.37,745.25 435.37,740.75 436.91,740.75 437.89,741.88 437.89,744.12 436.91,745.25 435.37,745.25" /><polyline points="440.97,740.75 438.59,740.75 438.59,742.91 440.27,742.91" /><polyline points="438.59,742.91 438.59,745.25 440.97,745.25" /><polyline points="441.81,745.25 441.81,740.75 443.63,740.75 444.33,741.42 444.33,742.19 443.63,742.77 441.81,742.77 444.33,745.25" /><polyline points="447.41,741.20 446.71,740.75 445.87,740.75 445.17,741.42 445.03,742.10 445.45,742.64 446.43,743.00 447.41,743.36 447.83,743.90 447.69,744.58 446.99,745.25 446.01,745.25 445.31,744.80" /><polyline points="353.38,753.25 358.38,753.25" /><polyline points="355.88,753.25 355.88,760.75" /><polyline points="359.12,753.25 359.12,760.75" /><polyline points="364.12,753.25 364.12,760.75" /><polyline points="359.12,756.85 364.12,756.85" /><polyline points="369.12,753.25 364.88,753.25 364.88,756.85 367.88,756.85" /><polyline points="364.88,756.85 364.88,760.75 369.12,760.75" /><polyline points="376.38,760.75 376.38,753.25 379.12,753.25 380.88,755.12 380.88,758.88 379.12,760.75 376.38,760.75" /><polyline points="386.38,753.25 382.12,753.25 382.12,756.85 385.12,756.85" /><polyline points="382.12,756.85 382.12,760.75 386.38,760.75" /><polyline points="387.88,760.75 390.38,753.25 392.88,760.75" /><polyline points="388.77,758.12 391.98,758.12" /><polyline points="393.62,753.25 393.62,760.75 397.88,760.75" /><polyline points="405.12,760.75 405.12,753.25 410.12,760.75 410.12,753.25" /><polyline points="413.38,753.25 411.38,754.00 410.88,755.50 410.88,758.50 411.38,760.00 413.38,760.75 415.38,760.00 415.88,758.50 415.88,755.50 415.38,754.00 413.38,753.25" /><polyline points="416.62,753.25 421.62,753.25" /><polyline points="419.12,753.25 419.12,760.75" /><polyline points="432.38,754.00 431.12,753.25 429.62,753.25 428.38,754.38 428.12,755.50 428.88,756.40 430.62,757.00 432.38,757.60 433.12,758.50 432.88,759.62 431.62,760.75 429.88,760.75 428.62,760.00" /><polyline points="436.38,753.25 436.38,760.75" /><polyline points="444.12,754.38 442.38,753.25 441.38,753.25 439.62,754.75 439.62,759.25 441.38,760.75 442.38,760.75 444.12,759.62 444.12,757.00 442.12,757.00" /><polyline points="445.38,760.75 445.38,753.25 450.38,760.75 450.38,753.25" /><polyline points="455.38,753.25 451.12,753.25 451.12,756.85 454.12,756.85" /><polyline points="451.12,756.85 451.12,760.75 455.38,760.75" /><polyline points="456.88,760.75 456.88,753.25 459.62,753.25 461.38,755.12 461.38,758.88 459.62,760.75 456.88,760.75" /><polyline points="344.75,766.25 349.75,766.25" /><polyline points="347.25,766.25 347.25,773.75" /><polyline points="350.50,766.25 350.50,773.75" /><polyline points="355.50,766.25 355.50,773.75" /><polyline points="350.50,769.85 355.50,769.85" /><polyline points="360.50,766.25 356.25,766.25 356.25,769.85 359.25,769.85" /><polyline points="356.25,769.85 356.25,773.75 360.50,773.75" /><polyline points="367.75,766.25 367.75,773.75 372.00,773.75" /><polyline points="373.50,773.75 376.00,766.25 378.50,773.75" /><polyline points="374.40,771.12 377.60,771.12" /><polyline points="379.25,773.75 379.25,766.25 384.25,773.75 384.25,766.25" /><polyline points="385.00,773.75 385.00,766.25 387.75,766.25 389.50,768.12 389.50,771.88 387.75,773.75 385.00,773.75" /><polyline points="396.50,773.75 399.00,766.25 401.50,773.75" /><polyline points="397.40,771.12 400.60,771.12" /><polyline points="402.25,766.25 402.25,773.75 406.50,773.75" /><polyline points="408.00,773.75 408.00,766.25 411.25,766.25 412.50,767.38 412.50,768.65 411.25,769.62 408.00,769.62 412.50,773.75" /><polyline points="418.00,766.25 413.75,766.25 413.75,769.85 416.75,769.85" /><polyline points="413.75,769.85 413.75,773.75 418.00,773.75" /><polyline points="419.50,773.75 422.00,766.25 424.50,773.75" /><polyline points="420.40,771.12 423.60,771.12" /><polyline points="425.25,773.75 425.25,766.25 428.00,766.25 429.75,768.12 429.75,771.88 428.00,773.75 425.25,773.75" /><polyline points="431.00,766.25 433.50,770.00 436.00,766.25" /><polyline points="433.50,770.00 433.50,773.75" /><polyline points="442.50,766.25 447.50,766.25" /><polyline points="445.00,766.25 445.00,773.75" /><polyline points="448.25,773.75 450.75,766.25 453.25,773.75" /><polyline points="449.15,771.12 452.35,771.12" /><polyline points="454.00,766.25 454.00,773.75" /><polyline points="458.50,766.25 454.00,770.00 458.50,773.75" /><polyline points="464.00,766.25 459.75,766.25 459.75,769.85 462.75,769.85" /><polyline points="459.75,769.85 459.75,773.75 464.00,773.75" /><polyline points="465.50,773.75 465.50,766.25 470.50,773.75 470.50,766.25" /><polyline points="384.08,779.50 385.68,784.50 387.28,779.50" /><polyline points="389.36,784.00 389.36,784.25" /><polyline points="391.44,779.50 394.64,784.50" /><polyline points="394.64,779.50 391.44,784.50" /><polyline points="395.12,779.50 398.32,784.50" /><polyline points="398.32,779.50 395.12,784.50" /><polyline points="400.40,779.50 400.40,784.50" /><polyline points="402.48,779.50 405.68,784.50" /><polyline points="405.68,779.50 402.48,784.50" /><polyline points="407.76,784.00 407.76,784.25" /><polyline points="409.84,784.50 409.84,779.50 411.44,782.25 413.04,779.50 413.04,784.50" /><polyline points="413.52,784.50 413.52,779.50 415.12,782.25 416.72,779.50 416.72,784.50" /><polyline points="417.20,779.50 420.40,784.50" /><polyline points="420.40,779.50 417.20,784.50" /><polyline points="420.88,779.50 424.08,784.50" /><polyline points="424.08,779.50 420.88,784.50" /><polyline points="424.56,779.50 426.16,784.50 427.76,779.50" /><polyline points="429.84,779.50 429.84,784.50" /></g><g id="02_Teal_Lines" inkscape:groupmode="layer" inkscape:label="02_Teal_Lines" stroke="#3A7A7A" fill="none" stroke-width="0.625" stroke-linecap="round" stroke-linejoin="round"><polyline points="253.0,497.2 260.6,497.2 268.1,497.2 275.7,497.1 283.2,497.1 290.8,497.0 298.4,496.8 305.9,496.7 313.5,496.6 321.0,496.4 328.6,496.3 336.2,496.2 343.7,496.0 351.3,496.0 358.9,495.9 366.4,495.9 374.0,495.9 381.5,495.9 389.1,496.0 396.7,496.1 404.2,496.2 411.8,496.3 419.3,496.5 426.9,496.6 434.5,496.8 442.0,496.9 449.6,497.0 457.1,497.1 464.7,497.2 472.3,497.2 479.8,497.2 487.4,497.2 495.0,497.1 502.5,497.1 510.1,497.0 517.6,496.8 525.2,496.7 532.8,496.6 540.3,496.4 547.9,496.3 555.4,496.1 563.0,496.0" /><polyline points="253.0,488.3 260.6,488.1 268.1,487.9 275.7,487.8 283.2,487.6 290.8,487.6 298.4,487.5 305.9,487.6 313.5,487.7 321.0,487.8 328.6,488.0 336.2,488.2 343.7,488.4 351.3,488.6 358.9,488.7 366.4,488.9 374.0,489.0 381.5,489.1 389.1,489.1 396.7,489.1 404.2,489.0 411.8,488.9 419.3,488.7 426.9,488.5 434.5,488.3 442.0,488.1 449.6,488.0 457.1,487.8 464.7,487.7 472.3,487.6 479.8,487.5 487.4,487.6 495.0,487.6 502.5,487.8 510.1,487.9 517.6,488.1 525.2,488.3 532.8,488.5 540.3,488.7 547.9,488.9 555.4,489.0 563.0,489.1" /><polyline points="253.0,479.5 260.6,479.6 268.1,479.8 275.7,480.0 283.2,480.3 290.8,480.6 298.4,480.8 305.9,481.0 313.5,481.2 321.0,481.3 328.6,481.3 336.2,481.2 343.7,481.0 351.3,480.8 358.9,480.5 366.4,480.3 374.0,480.0 381.5,479.8 389.1,479.6 396.7,479.5 404.2,479.4 411.8,479.5 419.3,479.6 426.9,479.8 434.5,480.1 442.0,480.3 449.6,480.6 457.1,480.8 464.7,481.1 472.3,481.2 479.8,481.3 487.4,481.2 495.0,481.2 502.5,481.0 510.1,480.8 517.6,480.5 525.2,480.2 532.8,480.0 540.3,479.7 547.9,479.6 555.4,479.5 563.0,479.4" /><polyline points="253.0,473.6 260.6,473.6 268.1,473.6 275.7,473.6 283.2,473.6 290.8,473.5 298.4,473.4 305.9,473.3 313.5,473.1 321.0,472.9 328.6,472.8 336.2,472.6 343.7,472.4 351.3,472.2 358.9,472.1 366.4,471.9 374.0,471.8 381.5,471.7 389.1,471.6 396.7,471.6 404.2,471.6 411.8,471.6 419.3,471.6 426.9,471.7 434.5,471.8 442.0,472.0 449.6,472.1 457.1,472.3 464.7,472.4 472.3,472.6 479.8,472.8 487.4,473.0 495.0,473.1 502.5,473.3 510.1,473.4 517.6,473.5 525.2,473.6 532.8,473.6 540.3,473.6 547.9,473.6 555.4,473.6 563.0,473.5" /><polyline points="253.0,465.1 260.6,465.0 268.1,464.9 275.7,464.8 283.2,464.7 290.8,464.6 298.4,464.6 305.9,464.5 313.5,464.5 321.0,464.5 328.6,464.6 336.2,464.7 343.7,464.7 351.3,464.9 358.9,465.0 366.4,465.1 374.0,465.2 381.5,465.3 389.1,465.4 396.7,465.5 404.2,465.6 411.8,465.6 419.3,465.6 426.9,465.6 434.5,465.6 442.0,465.5 449.6,465.4 457.1,465.4 464.7,465.2 472.3,465.1 479.8,465.0 487.4,464.9 495.0,464.8 502.5,464.7 510.1,464.6 517.6,464.6 525.2,464.5 532.8,464.5 540.3,464.5 547.9,464.6 555.4,464.7 563.0,464.8" /><polyline points="253.0,457.1 260.6,457.2 268.1,457.2 275.7,457.4 283.2,457.5 290.8,457.7 298.4,457.9 305.9,458.0 313.5,458.2 321.0,458.3 328.6,458.4 336.2,458.4 343.7,458.4 351.3,458.4 358.9,458.3 366.4,458.2 374.0,458.1 381.5,457.9 389.1,457.7 396.7,457.5 404.2,457.4 411.8,457.3 419.3,457.2 426.9,457.1 434.5,457.1 442.0,457.1 449.6,457.2 457.1,457.3 464.7,457.5 472.3,457.6 479.8,457.8 487.4,458.0 495.0,458.1 502.5,458.3 510.1,458.4 517.6,458.4 525.2,458.4 532.8,458.4 540.3,458.3 547.9,458.2 555.4,458.1 563.0,457.9" /><polyline points="253.0,451.0 260.6,451.2 268.1,451.4 275.7,451.5 283.2,451.5 290.8,451.4 298.4,451.3 305.9,451.2 313.5,451.0 321.0,450.7 328.6,450.5 336.2,450.3 343.7,450.1 351.3,450.0 358.9,449.9 366.4,449.9 374.0,450.0 381.5,450.1 389.1,450.3 396.7,450.6 404.2,450.8 411.8,451.0 419.3,451.2 426.9,451.4 434.5,451.5 442.0,451.5 449.6,451.4 457.1,451.3 464.7,451.2 472.3,450.9 479.8,450.7 487.4,450.5 495.0,450.3 502.5,450.1 510.1,450.0 517.6,449.9 525.2,449.9 532.8,450.0 540.3,450.2 547.9,450.4 555.4,450.6 563.0,450.8" /><polyline points="253.0,444.1 260.6,443.9 268.1,443.8 275.7,443.6 283.2,443.5 290.8,443.3 298.4,443.2 305.9,443.1 313.5,443.0 321.0,443.0 328.6,442.9 336.2,442.9 343.7,443.0 351.3,443.0 358.9,443.1 366.4,443.2 374.0,443.3 381.5,443.5 389.1,443.6 396.7,443.8 404.2,443.9 411.8,444.1 419.3,444.2 426.9,444.4 434.5,444.5 442.0,444.6 449.6,444.7 457.1,444.7 464.7,444.8 472.3,444.7 479.8,444.7 487.4,444.7 495.0,444.6 502.5,444.5 510.1,444.4 517.6,444.2 525.2,444.1 532.8,443.9 540.3,443.7 547.9,443.6 555.4,443.4 563.0,443.3" /><polyline points="253.0,436.2 260.6,436.2 268.1,436.3 275.7,436.4 283.2,436.5 290.8,436.7 298.4,436.9 305.9,437.1 313.5,437.4 321.0,437.6 328.6,437.8 336.2,437.9 343.7,438.1 351.3,438.2 358.9,438.2 366.4,438.2 374.0,438.2 381.5,438.1 389.1,438.0 396.7,437.8 404.2,437.6 411.8,437.4 419.3,437.2 426.9,436.9 434.5,436.7 442.0,436.6 449.6,436.4 457.1,436.3 464.7,436.2 472.3,436.2 479.8,436.2 487.4,436.3 495.0,436.4 502.5,436.5 510.1,436.7 517.6,436.9 525.2,437.1 532.8,437.4 540.3,437.6 547.9,437.8 555.4,438.0 563.0,438.1" /><polyline points="253.0,430.9 260.6,431.0 268.1,431.2 275.7,431.3 283.2,431.3 290.8,431.3 298.4,431.3 305.9,431.3 313.5,431.2 321.0,431.1 328.6,431.0 336.2,430.8 343.7,430.7 351.3,430.6 358.9,430.4 366.4,430.3 374.0,430.3 381.5,430.2 389.1,430.2 396.7,430.3 404.2,430.4 411.8,430.5 419.3,430.6 426.9,430.7 434.5,430.9 442.0,431.0 449.6,431.1 457.1,431.2 464.7,431.3 472.3,431.3 479.8,431.3 487.4,431.3 495.0,431.2 502.5,431.1 510.1,431.0 517.6,430.9 525.2,430.7 532.8,430.6 540.3,430.5 547.9,430.4 555.4,430.3 563.0,430.2" /><polyline points="253.0,425.2 260.6,425.1 268.1,424.9 275.7,424.7 283.2,424.5 290.8,424.3 298.4,424.2 305.9,424.0 313.5,423.9 321.0,423.9 328.6,424.0 336.2,424.0 343.7,424.2 351.3,424.4 358.9,424.6 366.4,424.8 374.0,424.9 381.5,425.1 389.1,425.2 396.7,425.3 404.2,425.2 411.8,425.2 419.3,425.1 426.9,424.9 434.5,424.7 442.0,424.5 449.6,424.3 457.1,424.1 464.7,424.0 472.3,423.9 479.8,423.9 487.4,424.0 495.0,424.1 502.5,424.2 510.1,424.4 517.6,424.6 525.2,424.8 532.8,425.0 540.3,425.1 547.9,425.2 555.4,425.3 563.0,425.2" /><polyline points="253.0,417.8 260.6,417.8 268.1,417.8 275.7,417.9 283.2,417.9 290.8,418.0 298.4,418.1 305.9,418.2 313.5,418.3 321.0,418.5 328.6,418.6 336.2,418.7 343.7,418.9 351.3,419.0 358.9,419.1 366.4,419.2 374.0,419.3 381.5,419.3 389.1,419.4 396.7,419.4 404.2,419.4 411.8,419.3 419.3,419.3 426.9,419.2 434.5,419.1 442.0,419.0 449.6,418.9 457.1,418.7 464.7,418.6 472.3,418.5 479.8,418.3 487.4,418.2 495.0,418.1 502.5,418.0 510.1,417.9 517.6,417.9 525.2,417.8 532.8,417.8 540.3,417.8 547.9,417.9 555.4,417.9 563.0,418.0" /><polyline points="253.0,412.9 260.6,413.1 268.1,413.3 275.7,413.4 283.2,413.6 290.8,413.7 298.4,413.7 305.9,413.7 313.5,413.7 321.0,413.6 328.6,413.5 336.2,413.4 343.7,413.2 351.3,413.1 358.9,412.9 366.4,412.7 374.0,412.5 381.5,412.3 389.1,412.2 396.7,412.0 404.2,412.0 411.8,411.9 419.3,411.9 426.9,412.0 434.5,412.1 442.0,412.2 449.6,412.3 457.1,412.5 464.7,412.7 472.3,412.9 479.8,413.1 487.4,413.3 495.0,413.4 502.5,413.6 510.1,413.7 517.6,413.7 525.2,413.7 532.8,413.7 540.3,413.6 547.9,413.5 555.4,413.4 563.0,413.2" /><polyline points="253.0,408.2 260.6,408.1 268.1,408.0 275.7,407.7 283.2,407.5 290.8,407.2 298.4,407.0 305.9,406.7 313.5,406.5 321.0,406.4 328.6,406.3 336.2,406.2 343.7,406.3 351.3,406.4 358.9,406.5 366.4,406.7 374.0,407.0 381.5,407.2 389.1,407.5 396.7,407.8 404.2,408.0 411.8,408.1 419.3,408.2 426.9,408.3 434.5,408.3 442.0,408.2 449.6,408.0 457.1,407.8 464.7,407.6 472.3,407.3 479.8,407.0 487.4,406.8 495.0,406.6 502.5,406.4 510.1,406.3 517.6,406.2 525.2,406.2 532.8,406.3 540.3,406.5 547.9,406.7 555.4,406.9 563.0,407.2" /><polyline points="253.0,401.6 260.6,401.5 268.1,401.4 275.7,401.3 283.2,401.4 290.8,401.4 298.4,401.5 305.9,401.6 313.5,401.8 321.0,402.0 328.6,402.1 336.2,402.3 343.7,402.4 351.3,402.4 358.9,402.4 366.4,402.4 374.0,402.3 381.5,402.2 389.1,402.1 396.7,401.9 404.2,401.7 411.8,401.6 419.3,401.5 426.9,401.4 434.5,401.3 442.0,401.4 449.6,401.4 457.1,401.5 464.7,401.6 472.3,401.8 479.8,402.0 487.4,402.1 495.0,402.3 502.5,402.4 510.1,402.4 517.6,402.4 525.2,402.4 532.8,402.3 540.3,402.2 547.9,402.0 555.4,401.9 563.0,401.7" /><polyline points="253.0,396.7 260.6,396.8 268.1,396.9 275.7,397.0 283.2,397.1 290.8,397.2 298.4,397.3 305.9,397.3 313.5,397.4 321.0,397.4 328.6,397.4 336.2,397.4 343.7,397.3 351.3,397.3 358.9,397.2 366.4,397.1 374.0,397.0 381.5,396.9 389.1,396.8 396.7,396.7 404.2,396.6 411.8,396.5 419.3,396.3 426.9,396.3 434.5,396.2 442.0,396.1 449.6,396.1 457.1,396.1 464.7,396.1 472.3,396.1 479.8,396.1 487.4,396.2 495.0,396.3 502.5,396.4 510.1,396.5 517.6,396.6 525.2,396.7 532.8,396.8 540.3,396.9 547.9,397.0 555.4,397.1 563.0,397.2" /><polyline points="253.0,392.6 260.6,392.5 268.1,392.4 275.7,392.3 283.2,392.2 290.8,392.0 298.4,391.9 305.9,391.7 313.5,391.5 321.0,391.4 328.6,391.2 336.2,391.1 343.7,391.0 351.3,391.0 358.9,391.0 366.4,391.0 374.0,391.1 381.5,391.2 389.1,391.3 396.7,391.4 404.2,391.6 411.8,391.8 419.3,391.9 426.9,392.1 434.5,392.2 442.0,392.4 449.6,392.5 457.1,392.5 464.7,392.6 472.3,392.6 479.8,392.5 487.4,392.4 495.0,392.3 502.5,392.2 510.1,392.0 517.6,391.9 525.2,391.7 532.8,391.5 540.3,391.4 547.9,391.2 555.4,391.1 563.0,391.0" /><polyline points="253.0,386.7 260.6,386.5 268.1,386.3 275.7,386.2 283.2,386.1 290.8,386.1 298.4,386.2 305.9,386.3 313.5,386.4 321.0,386.6 328.6,386.9 336.2,387.1 343.7,387.3 351.3,387.5 358.9,387.7 366.4,387.8 374.0,387.9 381.5,387.9 389.1,387.9 396.7,387.8 404.2,387.6 411.8,387.4 419.3,387.2 426.9,387.0 434.5,386.7 442.0,386.5 449.6,386.3 457.1,386.2 464.7,386.1 472.3,386.1 479.8,386.2 487.4,386.3 495.0,386.4 502.5,386.6 510.1,386.8 517.6,387.0 525.2,387.3 532.8,387.5 540.3,387.7 547.9,387.8 555.4,387.9 563.0,387.9" /><polyline points="253.0,381.6 260.6,381.9 268.1,382.1 275.7,382.4 283.2,382.7 290.8,383.0 298.4,383.2 305.9,383.4 313.5,383.5 321.0,383.5 328.6,383.4 336.2,383.2 343.7,382.9 351.3,382.6 358.9,382.3 366.4,382.0 374.0,381.8 381.5,381.6 389.1,381.5 396.7,381.4 404.2,381.5 411.8,381.7 419.3,381.9 426.9,382.2 434.5,382.5 442.0,382.8 449.6,383.0 457.1,383.3 464.7,383.4 472.3,383.5 479.8,383.5 487.4,383.4 495.0,383.2 502.5,382.9 510.1,382.6 517.6,382.3 525.2,382.0 532.8,381.8 540.3,381.6 547.9,381.5 555.4,381.4 563.0,381.5" /><polyline points="253.0,378.7 260.6,378.6 268.1,378.6 275.7,378.6 283.2,378.5 290.8,378.5 298.4,378.4 305.9,378.3 313.5,378.2 321.0,378.1 328.6,378.0 336.2,377.9 343.7,377.8 351.3,377.8 358.9,377.7 366.4,377.6 374.0,377.6 381.5,377.6 389.1,377.6 396.7,377.6 404.2,377.6 411.8,377.6 419.3,377.7 426.9,377.7 434.5,377.8 442.0,377.9 449.6,378.0 457.1,378.1 464.7,378.2 472.3,378.3 479.8,378.4 487.4,378.5 495.0,378.5 502.5,378.6 510.1,378.6 517.6,378.6 525.2,378.7 532.8,378.6 540.3,378.6 547.9,378.6 555.4,378.5 563.0,378.5" /><polyline points="253.0,373.8 260.6,373.6 268.1,373.5 275.7,373.4 283.2,373.3 290.8,373.3 298.4,373.3 305.9,373.3 313.5,373.3 321.0,373.4 328.6,373.5 336.2,373.6 343.7,373.7 351.3,373.9 358.9,374.0 366.4,374.2 374.0,374.3 381.5,374.4 389.1,374.5 396.7,374.6 404.2,374.6 411.8,374.6 419.3,374.6 426.9,374.5 434.5,374.4 442.0,374.3 449.6,374.2 457.1,374.1 464.7,373.9 472.3,373.8 479.8,373.6 487.4,373.5 495.0,373.4 502.5,373.3 510.1,373.3 517.6,373.3 525.2,373.3 532.8,373.3 540.3,373.4 547.9,373.5 555.4,373.6 563.0,373.7" /><polyline points="253.0,369.2 260.6,369.4 268.1,369.5 275.7,369.7 283.2,369.9 290.8,370.1 298.4,370.3 305.9,370.5 313.5,370.6 321.0,370.7 328.6,370.7 336.2,370.7 343.7,370.7 351.3,370.6 358.9,370.4 366.4,370.2 374.0,370.0 381.5,369.8 389.1,369.6 396.7,369.5 404.2,369.3 411.8,369.2 419.3,369.2 426.9,369.2 434.5,369.2 442.0,369.3 449.6,369.5 457.1,369.6 464.7,369.8 472.3,370.0 479.8,370.2 487.4,370.4 495.0,370.6 502.5,370.7 510.1,370.7 517.6,370.7 525.2,370.7 532.8,370.6 540.3,370.5 547.9,370.3 555.4,370.1 563.0,369.9" /><polyline points="253.0,366.8 260.6,366.9 268.1,367.0 275.7,367.1 283.2,367.0 290.8,366.9 298.4,366.7 305.9,366.5 313.5,366.2 321.0,365.9 328.6,365.7 336.2,365.5 343.7,365.3 351.3,365.3 358.9,365.3 366.4,365.4 374.0,365.5 381.5,365.8 389.1,366.0 396.7,366.3 404.2,366.6 411.8,366.8 419.3,366.9 426.9,367.0 434.5,367.1 442.0,367.0 449.6,366.9 457.1,366.7 464.7,366.4 472.3,366.2 479.8,365.9 487.4,365.6 495.0,365.4 502.5,365.3 510.1,365.3 517.6,365.3 525.2,365.4 532.8,365.6 540.3,365.8 547.9,366.0 555.4,366.3 563.0,366.6" /><polyline points="253.0,362.5 260.6,362.3 268.1,362.1 275.7,362.0 283.2,361.8 290.8,361.7 298.4,361.6 305.9,361.6 313.5,361.5 321.0,361.5 328.6,361.6 336.2,361.6 343.7,361.7 351.3,361.8 358.9,361.9 366.4,362.1 374.0,362.3 381.5,362.4 389.1,362.6 396.7,362.8 404.2,363.0 411.8,363.1 419.3,363.3 426.9,363.4 434.5,363.5 442.0,363.5 449.6,363.6 457.1,363.6 464.7,363.5 472.3,363.5 479.8,363.4 487.4,363.3 495.0,363.1 502.5,363.0 510.1,362.8 517.6,362.6 525.2,362.5 532.8,362.3 540.3,362.1 547.9,362.0 555.4,361.8 563.0,361.7" /><polyline points="253.0,358.6 260.6,358.7 268.1,358.7 275.7,358.8 283.2,358.9 290.8,359.0 298.4,359.1 305.9,359.3 313.5,359.4 321.0,359.5 328.6,359.6 336.2,359.6 343.7,359.7 351.3,359.7 358.9,359.7 366.4,359.6 374.0,359.6 381.5,359.5 389.1,359.4 396.7,359.3 404.2,359.2 411.8,359.0 419.3,358.9 426.9,358.8 434.5,358.7 442.0,358.7 449.6,358.6 457.1,358.6 464.7,358.6 472.3,358.6 479.8,358.7 487.4,358.7 495.0,358.8 502.5,358.9 510.1,359.0 517.6,359.2 525.2,359.3 532.8,359.4 540.3,359.5 547.9,359.6 555.4,359.6 563.0,359.7" /><polyline points="253.0,356.2 260.6,356.4 268.1,356.5 275.7,356.5 283.2,356.6 290.8,356.5 298.4,356.5 305.9,356.4 313.5,356.2 321.0,356.1 328.6,355.9 336.2,355.7 343.7,355.6 351.3,355.4 358.9,355.3 366.4,355.2 374.0,355.2 381.5,355.2 389.1,355.3 396.7,355.4 404.2,355.5 411.8,355.7 419.3,355.9 426.9,356.0 434.5,356.2 442.0,356.3 449.6,356.4 457.1,356.5 464.7,356.6 472.3,356.5 479.8,356.5 487.4,356.4 495.0,356.3 502.5,356.1 510.1,355.9 517.6,355.8 525.2,355.6 532.8,355.4 540.3,355.3 547.9,355.3 555.4,355.2 563.0,355.2" /><polyline points="253.0,353.4 260.6,353.2 268.1,353.0 275.7,352.7 283.2,352.5 290.8,352.3 298.4,352.1 305.9,352.0 313.5,352.0 321.0,352.1 328.6,352.2 336.2,352.4 343.7,352.6 351.3,352.8 358.9,353.0 366.4,353.3 374.0,353.4 381.5,353.5 389.1,353.6 396.7,353.6 404.2,353.5 411.8,353.3 419.3,353.2 426.9,352.9 434.5,352.7 442.0,352.5 449.6,352.3 457.1,352.1 464.7,352.0 472.3,352.0 479.8,352.1 487.4,352.2 495.0,352.4 502.5,352.6 510.1,352.8 517.6,353.1 525.2,353.3 532.8,353.4 540.3,353.6 547.9,353.6 555.4,353.6 563.0,353.5" /><polyline points="253.0,349.0 260.6,349.1 268.1,349.1 275.7,349.2 283.2,349.3 290.8,349.4 298.4,349.6 305.9,349.7 313.5,349.9 321.0,350.1 328.6,350.2 336.2,350.4 343.7,350.5 351.3,350.6 358.9,350.7 366.4,350.8 374.0,350.8 381.5,350.8 389.1,350.8 396.7,350.8 404.2,350.7 411.8,350.6 419.3,350.5 426.9,350.4 434.5,350.2 442.0,350.1 449.6,349.9 457.1,349.8 464.7,349.6 472.3,349.5 479.8,349.3 487.4,349.2 495.0,349.1 502.5,349.1 510.1,349.0 517.6,349.0 525.2,349.0 532.8,349.1 540.3,349.1 547.9,349.2 555.4,349.3 563.0,349.5" /><polyline points="253.0,347.6 260.6,347.8 268.1,347.9 275.7,348.1 283.2,348.2 290.8,348.2 298.4,348.2 305.9,348.2 313.5,348.1 321.0,347.9 328.6,347.8 336.2,347.6 343.7,347.3 351.3,347.1 358.9,346.9 366.4,346.7 374.0,346.5 381.5,346.4 389.1,346.3 396.7,346.2 404.2,346.2 411.8,346.2 419.3,346.3 426.9,346.4 434.5,346.5 442.0,346.7 449.6,346.9 457.1,347.2 464.7,347.4 472.3,347.6 479.8,347.8 487.4,348.0 495.0,348.1 502.5,348.2 510.1,348.2 517.6,348.2 525.2,348.2 532.8,348.1 540.3,347.9 547.9,347.8 555.4,347.6 563.0,347.3" /><polyline points="253.0,345.1 260.6,345.0 268.1,344.9 275.7,344.7 283.2,344.6 290.8,344.4 298.4,344.3 305.9,344.2 313.5,344.1 321.0,344.1 328.6,344.1 336.2,344.1 343.7,344.2 351.3,344.3 358.9,344.4 366.4,344.5 374.0,344.7 381.5,344.8 389.1,344.9 396.7,345.0 404.2,345.1 411.8,345.2 419.3,345.2 426.9,345.2 434.5,345.1 442.0,345.0 449.6,344.9 457.1,344.8 464.7,344.6 472.3,344.5 479.8,344.4 487.4,344.2 495.0,344.2 502.5,344.1 510.1,344.1 517.6,344.1 525.2,344.2 532.8,344.2 540.3,344.4 547.9,344.5 555.4,344.6 563.0,344.8" /><polyline points="253.0,341.7 260.6,341.6 268.1,341.6 275.7,341.6 283.2,341.7 290.8,341.8 298.4,341.9 305.9,342.1 313.5,342.3 321.0,342.5 328.6,342.7 336.2,342.8 343.7,342.9 351.3,342.9 358.9,342.9 366.4,342.8 374.0,342.6 381.5,342.4 389.1,342.2 396.7,342.0 404.2,341.9 411.8,341.7 419.3,341.6 426.9,341.6 434.5,341.6 442.0,341.7 449.6,341.8 457.1,342.0 464.7,342.2 472.3,342.4 479.8,342.6 487.4,342.7 495.0,342.8 502.5,342.9 510.1,342.9 517.6,342.9 525.2,342.8 532.8,342.6 540.3,342.4 547.9,342.2 555.4,342.0 563.0,341.8" /><polyline points="253.0,340.2 260.6,340.3 268.1,340.4 275.7,340.6 283.2,340.6 290.8,340.7 298.4,340.8 305.9,340.8 313.5,340.8 321.0,340.8 328.6,340.7 336.2,340.7 343.7,340.6 351.3,340.5 358.9,340.4 366.4,340.2 374.0,340.1 381.5,340.0 389.1,339.8 396.7,339.7 404.2,339.6 411.8,339.5 419.3,339.4 426.9,339.3 434.5,339.3 442.0,339.2 449.6,339.2 457.1,339.3 464.7,339.3 472.3,339.4 479.8,339.4 487.4,339.6 495.0,339.7 502.5,339.8 510.1,339.9 517.6,340.1 525.2,340.2 532.8,340.3 540.3,340.5 547.9,340.6 555.4,340.7 563.0,340.7" /><polyline points="253.0,338.8 260.6,338.7 268.1,338.5 275.7,338.3 283.2,338.2 290.8,338.0 298.4,337.8 305.9,337.6 313.5,337.4 321.0,337.3 328.6,337.1 336.2,337.1 343.7,337.0 351.3,337.0 358.9,337.1 366.4,337.2 374.0,337.3 381.5,337.5 389.1,337.6 396.7,337.8 404.2,338.0 411.8,338.2 419.3,338.4 426.9,338.6 434.5,338.7 442.0,338.8 449.6,338.8 457.1,338.9 464.7,338.8 472.3,338.8 479.8,338.6 487.4,338.5 495.0,338.3 502.5,338.1 510.1,338.0 517.6,337.8 525.2,337.6 532.8,337.4 540.3,337.3 547.9,337.1 555.4,337.1 563.0,337.0" /><polyline points="253.0,335.4 260.6,335.2 268.1,335.1 275.7,335.0 283.2,335.0 290.8,335.1 298.4,335.2 305.9,335.4 313.5,335.7 321.0,335.9 328.6,336.2 336.2,336.4 343.7,336.7 351.3,336.9 358.9,337.0 366.4,337.1 374.0,337.1 381.5,337.0 389.1,336.8 396.7,336.7 404.2,336.4 411.8,336.2 419.3,335.9 426.9,335.6 434.5,335.4 442.0,335.2 449.6,335.1 457.1,335.0 464.7,335.0 472.3,335.1 479.8,335.2 487.4,335.4 495.0,335.6 502.5,335.9 510.1,336.1 517.6,336.4 525.2,336.6 532.8,336.8 540.3,337.0 547.9,337.0 555.4,337.1 563.0,337.0" /><polyline points="253.0,333.9 260.6,334.1 268.1,334.3 275.7,334.4 283.2,334.6 290.8,334.7 298.4,334.8 305.9,334.8 313.5,334.8 321.0,334.7 328.6,334.6 336.2,334.5 343.7,334.3 351.3,334.2 358.9,334.0 366.4,333.9 374.0,333.8 381.5,333.7 389.1,333.7 396.7,333.8 404.2,333.8 411.8,334.0 419.3,334.1 426.9,334.3 434.5,334.4 442.0,334.6 449.6,334.7 457.1,334.8 464.7,334.8 472.3,334.8 479.8,334.7 487.4,334.6 495.0,334.5 502.5,334.3 510.1,334.2 517.6,334.0 525.2,333.9 532.8,333.8 540.3,333.7 547.9,333.7 555.4,333.8 563.0,333.9" /><polyline points="253.0,333.3 260.6,333.2 268.1,333.2 275.7,333.1 283.2,333.0 290.8,332.9 298.4,332.8 305.9,332.7 313.5,332.6 321.0,332.4 328.6,332.3 336.2,332.2 343.7,332.2 351.3,332.1 358.9,332.0 366.4,332.0 374.0,332.0 381.5,332.0 389.1,332.0 396.7,332.1 404.2,332.1 411.8,332.2 419.3,332.3 426.9,332.4 434.5,332.5 442.0,332.6 449.6,332.7 457.1,332.9 464.7,333.0 472.3,333.1 479.8,333.2 487.4,333.2 495.0,333.3 502.5,333.3 510.1,333.3 517.6,333.3 525.2,333.3 532.8,333.2 540.3,333.2 547.9,333.1 555.4,333.0 563.0,332.9" /><polyline points="253.0,330.8 260.6,330.6 268.1,330.5 275.7,330.4 283.2,330.4 290.8,330.4 298.4,330.4 305.9,330.5 313.5,330.6 321.0,330.7 328.6,330.9 336.2,331.0 343.7,331.2 351.3,331.4 358.9,331.5 366.4,331.7 374.0,331.8 381.5,331.9 389.1,331.9 396.7,332.0 404.2,332.0 411.8,331.9 419.3,331.8 426.9,331.7 434.5,331.6 442.0,331.4 449.6,331.2 457.1,331.1 464.7,330.9 472.3,330.8 479.8,330.6 487.4,330.5 495.0,330.4 502.5,330.4 510.1,330.4 517.6,330.4 525.2,330.5 532.8,330.6 540.3,330.7 547.9,330.9 555.4,331.0 563.0,331.2" /><polyline points="253.0,329.2 260.6,329.4 268.1,329.6 275.7,329.8 283.2,330.1 290.8,330.3 298.4,330.5 305.9,330.6 313.5,330.7 321.0,330.8 328.6,330.7 336.2,330.6 343.7,330.5 351.3,330.3 358.9,330.1 366.4,329.9 374.0,329.6 381.5,329.4 389.1,329.2 396.7,329.1 404.2,329.0 411.8,328.9 419.3,329.0 426.9,329.0 434.5,329.2 442.0,329.3 449.6,329.5 457.1,329.8 464.7,330.0 472.3,330.2 479.8,330.4 487.4,330.6 495.0,330.7 502.5,330.8 510.1,330.7 517.6,330.7 525.2,330.5 532.8,330.4 540.3,330.2 547.9,329.9 555.4,329.7 563.0,329.5" /><polyline points="253.0,329.5 260.6,329.7 268.1,329.7 275.7,329.6 283.2,329.5 290.8,329.2 298.4,329.0 305.9,328.6 313.5,328.3 321.0,328.1 328.6,327.8 336.2,327.7 343.7,327.6 351.3,327.6 358.9,327.8 366.4,328.0 374.0,328.2 381.5,328.5 389.1,328.8 396.7,329.1 404.2,329.4 411.8,329.6 419.3,329.7 426.9,329.7 434.5,329.6 442.0,329.4 449.6,329.2 457.1,328.9 464.7,328.6 472.3,328.3 479.8,328.0 487.4,327.8 495.0,327.7 502.5,327.6 510.1,327.7 517.6,327.8 525.2,328.0 532.8,328.2 540.3,328.5 547.9,328.9 555.4,329.1 563.0,329.4" /><polyline points="253.0,327.4 260.6,327.3 268.1,327.2 275.7,327.1 283.2,327.1 290.8,327.1 298.4,327.0 305.9,327.0 313.5,327.0 321.0,327.1 328.6,327.1 336.2,327.2 343.7,327.3 351.3,327.3 358.9,327.4 366.4,327.5 374.0,327.6 381.5,327.7 389.1,327.8 396.7,327.9 404.2,328.0 411.8,328.0 419.3,328.1 426.9,328.1 434.5,328.1 442.0,328.1 449.6,328.1 457.1,328.1 464.7,328.0 472.3,328.0 479.8,327.9 487.4,327.8 495.0,327.7 502.5,327.6 510.1,327.6 517.6,327.5 525.2,327.4 532.8,327.3 540.3,327.2 547.9,327.1 555.4,327.1 563.0,327.1" /><polyline points="253.0,326.1 260.6,326.2 268.1,326.3 275.7,326.5 283.2,326.6 290.8,326.7 298.4,326.9 305.9,327.0 313.5,327.1 321.0,327.2 328.6,327.3 336.2,327.3 343.7,327.3 351.3,327.3 358.9,327.2 366.4,327.1 374.0,327.0 381.5,326.9 389.1,326.8 396.7,326.6 404.2,326.5 411.8,326.3 419.3,326.2 426.9,326.1 434.5,326.0 442.0,326.0 449.6,326.0 457.1,326.0 464.7,326.0 472.3,326.1 479.8,326.2 487.4,326.3 495.0,326.5 502.5,326.6 510.1,326.8 517.6,326.9 525.2,327.0 532.8,327.1 540.3,327.2 547.9,327.3 555.4,327.3 563.0,327.3" /><polyline points="253.0,326.4 260.6,326.5 268.1,326.6 275.7,326.6 283.2,326.6 290.8,326.5 298.4,326.3 305.9,326.2 313.5,326.0 321.0,325.8 328.6,325.6 336.2,325.4 343.7,325.2 351.3,325.1 358.9,325.1 366.4,325.0 374.0,325.1 381.5,325.2 389.1,325.3 396.7,325.5 404.2,325.7 411.8,325.9 419.3,326.1 426.9,326.2 434.5,326.4 442.0,326.5 449.6,326.6 457.1,326.6 464.7,326.6 472.3,326.5 479.8,326.4 487.4,326.2 495.0,326.0 502.5,325.8 510.1,325.6 517.6,325.4 525.2,325.3 532.8,325.2 540.3,325.1 547.9,325.0 555.4,325.1 563.0,325.1" /><polyline points="253.0,325.5 260.6,325.3 268.1,325.0 275.7,324.7 283.2,324.5 290.8,324.3 298.4,324.2 305.9,324.2 313.5,324.3 321.0,324.4 328.6,324.6 336.2,324.9 343.7,325.1 351.3,325.4 358.9,325.7 366.4,325.9 374.0,326.0 381.5,326.0 389.1,326.0 396.7,325.9 404.2,325.7 411.8,325.5 419.3,325.2 426.9,325.0 434.5,324.7 442.0,324.5 449.6,324.3 457.1,324.2 464.7,324.2 472.3,324.3 479.8,324.4 487.4,324.7 495.0,324.9 502.5,325.2 510.1,325.4 517.6,325.7 525.2,325.9 532.8,326.0 540.3,326.0 547.9,326.0 555.4,325.9 563.0,325.7" /><polyline points="253.0,323.6 260.6,323.7 268.1,323.8 275.7,324.0 283.2,324.1 290.8,324.3 298.4,324.5 305.9,324.7 313.5,324.9 321.0,325.0 328.6,325.2 336.2,325.3 343.7,325.4 351.3,325.5 358.9,325.6 366.4,325.6 374.0,325.6 381.5,325.5 389.1,325.5 396.7,325.4 404.2,325.2 411.8,325.1 419.3,324.9 426.9,324.8 434.5,324.6 442.0,324.4 449.6,324.2 457.1,324.1 464.7,323.9 472.3,323.8 479.8,323.7 487.4,323.6 495.0,323.5 502.5,323.5 510.1,323.5 517.6,323.6 525.2,323.6 532.8,323.7 540.3,323.9 547.9,324.0 555.4,324.2 563.0,324.3" /><polyline points="253.0,324.4 260.6,324.5 268.1,324.6 275.7,324.6 283.2,324.6 290.8,324.6 298.4,324.6 305.9,324.5 313.5,324.4 321.0,324.3 328.6,324.2 336.2,324.1 343.7,324.0 351.3,323.9 358.9,323.8 366.4,323.7 374.0,323.6 381.5,323.5 389.1,323.5 396.7,323.5 404.2,323.6 411.8,323.6 419.3,323.7 426.9,323.8 434.5,323.9 442.0,324.0 449.6,324.1 457.1,324.2 464.7,324.3 472.3,324.4 479.8,324.5 487.4,324.6 495.0,324.6 502.5,324.6 510.1,324.6 517.6,324.6 525.2,324.5 532.8,324.4 540.3,324.3 547.9,324.2 555.4,324.1 563.0,324.0" /><polyline points="253.0,324.1 260.6,323.9 268.1,323.8 275.7,323.6 283.2,323.4 290.8,323.3 298.4,323.2 305.9,323.1 313.5,323.0 321.0,323.0 328.6,323.1 336.2,323.2 343.7,323.3 351.3,323.4 358.9,323.6 366.4,323.8 374.0,323.9 381.5,324.1 389.1,324.2 396.7,324.3 404.2,324.4 411.8,324.4 419.3,324.3 426.9,324.2 434.5,324.1 442.0,324.0 449.6,323.8 457.1,323.6 464.7,323.5 472.3,323.3 479.8,323.2 487.4,323.1 495.0,323.0 502.5,323.0 510.1,323.1 517.6,323.1 525.2,323.2 532.8,323.4 540.3,323.6 547.9,323.7 555.4,323.9 563.0,324.1" /><polyline points="253.0,322.7 260.6,322.6 268.1,322.6 275.7,322.7 283.2,322.9 290.8,323.1 298.4,323.3 305.9,323.5 313.5,323.8 321.0,324.0 328.6,324.1 336.2,324.2 343.7,324.2 351.3,324.1 358.9,324.0 366.4,323.8 374.0,323.6 381.5,323.4 389.1,323.1 396.7,322.9 404.2,322.8 411.8,322.7 419.3,322.6 426.9,322.6 434.5,322.7 442.0,322.9 449.6,323.1 457.1,323.3 464.7,323.6 472.3,323.8 479.8,324.0 487.4,324.1 495.0,324.2 502.5,324.2 510.1,324.1 517.6,324.0 525.2,323.8 532.8,323.6 540.3,323.4 547.9,323.1 555.4,322.9 563.0,322.8" /><polyline points="253.0,323.7 260.6,323.8 268.1,323.9 275.7,324.0 283.2,324.1 290.8,324.1 298.4,324.1 305.9,324.1 313.5,324.0 321.0,324.0 328.6,323.9 336.2,323.8 343.7,323.6 351.3,323.5 358.9,323.3 366.4,323.2 374.0,323.0 381.5,322.9 389.1,322.7 396.7,322.6 404.2,322.5 411.8,322.4 419.3,322.3 426.9,322.3 434.5,322.3 442.0,322.3 449.6,322.4 457.1,322.4 464.7,322.5 472.3,322.6 479.8,322.8 487.4,322.9 495.0,323.1 502.5,323.2 510.1,323.4 517.6,323.6 525.2,323.7 532.8,323.8 540.3,323.9 547.9,324.0 555.4,324.1 563.0,324.1" /><polyline points="253.0,323.8 260.6,323.6 268.1,323.4 275.7,323.2 283.2,323.0 290.8,322.8 298.4,322.6 305.9,322.4 313.5,322.2 321.0,322.1 328.6,322.1 336.2,322.0 343.7,322.1 351.3,322.2 358.9,322.3 366.4,322.4 374.0,322.6 381.5,322.8 389.1,323.1 396.7,323.3 404.2,323.5 411.8,323.7 419.3,323.9 426.9,324.0 434.5,324.1 442.0,324.1 449.6,324.1 457.1,324.0 464.7,323.9 472.3,323.8 479.8,323.6 487.4,323.4 495.0,323.2 502.5,323.0 510.1,322.8 517.6,322.6 525.2,322.4 532.8,322.2 540.3,322.1 547.9,322.1 555.4,322.0 563.0,322.1" /><polyline points="253.0,322.5 260.6,322.5 268.1,322.5 275.7,322.5 283.2,322.5 290.8,322.6 298.4,322.7 305.9,322.9 313.5,323.0 321.0,323.1 328.6,323.3 336.2,323.4 343.7,323.5 351.3,323.5 358.9,323.6 366.4,323.6 374.0,323.5 381.5,323.4 389.1,323.3 396.7,323.2 404.2,323.1 411.8,322.9 419.3,322.8 426.9,322.7 434.5,322.6 442.0,322.5 449.6,322.5 457.1,322.5 464.7,322.5 472.3,322.6 479.8,322.7 487.4,322.8 495.0,323.0 502.5,323.1 510.1,323.2 517.6,323.4 525.2,323.5 532.8,323.5 540.3,323.6 547.9,323.6 555.4,323.5 563.0,323.5" /><polyline points="253.0,322.8 260.6,323.0 268.1,323.2 275.7,323.4 283.2,323.5 290.8,323.6 298.4,323.7 305.9,323.7 313.5,323.6 321.0,323.4 328.6,323.3 336.2,323.1 343.7,322.9 351.3,322.7 358.9,322.5 366.4,322.4 374.0,322.3 381.5,322.3 389.1,322.4 396.7,322.5 404.2,322.6 411.8,322.8 419.3,323.0 426.9,323.2 434.5,323.4 442.0,323.5 449.6,323.6 457.1,323.7 464.7,323.6 472.3,323.6 479.8,323.4 487.4,323.3 495.0,323.1 502.5,322.9 510.1,322.7 517.6,322.5 525.2,322.4 532.8,322.3 540.3,322.3 547.9,322.4 555.4,322.5 563.0,322.7" /><polyline points="253.0,509.0 256.6,509.0 260.2,509.0 263.8,509.0 267.4,508.9 271.0,508.9 274.6,508.9 278.2,508.8 281.8,508.8 285.4,508.7 289.0,508.7 292.6,508.6 296.2,508.6 299.8,508.5 303.4,508.5 307.0,508.4 310.6,508.4 314.2,508.3 317.8,508.3 321.4,508.2 325.0,508.2 328.6,508.1 332.2,508.1 335.9,508.1 339.5,508.0 343.1,508.0 346.7,508.0 350.3,508.0 353.9,508.0 357.5,508.0 361.1,508.0 364.7,508.0 368.3,508.1 371.9,508.1 375.5,508.1 379.1,508.2 382.7,508.2 386.3,508.3 389.9,508.3 393.5,508.4 397.1,508.4 400.7,508.5 404.3,508.5" /><polyline points="408.0,509.1 411.6,509.1 415.2,509.1 418.8,509.1 422.4,509.1 426.0,509.1 429.6,509.0 433.2,509.0 436.8,509.0 440.4,509.0 444.0,508.9 447.6,508.9 451.2,508.8 454.8,508.8 458.4,508.7 462.0,508.7 465.6,508.6 469.2,508.6 472.8,508.5 476.4,508.4 480.0,508.4 483.6,508.3 487.2,508.3 490.9,508.3 494.5,508.2 498.1,508.2 501.7,508.2 505.3,508.1 508.9,508.1 512.5,508.1 516.1,508.1 519.7,508.1 523.3,508.1 526.9,508.1 530.5,508.1 534.1,508.2 537.7,508.2 541.3,508.2 544.9,508.3 548.5,508.3 552.1,508.4 555.7,508.4 559.3,508.5" /><polyline points="253.0,514.5 256.6,514.5 260.2,514.5 263.8,514.4 267.4,514.4 271.0,514.3 274.6,514.3 278.2,514.2 281.8,514.1 285.4,514.1 288.9,514.0 292.5,514.0 296.1,513.9 299.7,513.9 303.3,513.9 306.9,513.8 310.5,513.8 314.1,513.8 317.7,513.7 321.3,513.7 324.9,513.7 328.5,513.7 332.1,513.7 335.7,513.7 339.3,513.7 342.9,513.7 346.5,513.8 350.1,513.8 353.6,513.8 357.2,513.9 360.8,513.9 364.4,514.0 368.0,514.0 371.6,514.1 375.2,514.1 378.8,514.2 382.4,514.2 386.0,514.3 389.6,514.3 393.2,514.4 396.8,514.4 400.4,514.5 404.0,514.5" /><polyline points="408.0,514.3 411.6,514.2 415.2,514.2 418.8,514.2 422.4,514.1 426.0,514.1 429.6,514.0 433.2,514.0 436.8,513.9 440.4,513.9 443.9,513.8 447.5,513.8 451.1,513.7 454.7,513.7 458.3,513.6 461.9,513.6 465.5,513.5 469.1,513.5 472.7,513.4 476.3,513.4 479.9,513.4 483.5,513.4 487.1,513.3 490.7,513.3 494.3,513.3 497.9,513.3 501.5,513.3 505.1,513.4 508.6,513.4 512.2,513.4 515.8,513.4 519.4,513.5 523.0,513.5 526.6,513.6 530.2,513.6 533.8,513.7 537.4,513.7 541.0,513.8 544.6,513.8 548.2,513.9 551.8,513.9 555.4,514.0 559.0,514.0" /><polyline points="253.0,519.2 256.6,519.2 260.2,519.1 263.8,519.0 267.3,519.0 270.9,518.9 274.5,518.9 278.1,518.9 281.7,518.8 285.3,518.8 288.9,518.8 292.5,518.7 296.0,518.7 299.6,518.7 303.2,518.7 306.8,518.7 310.4,518.7 314.0,518.7 317.6,518.7 321.2,518.7 324.7,518.8 328.3,518.8 331.9,518.8 335.5,518.9 339.1,518.9 342.7,519.0 346.3,519.0 349.8,519.1 353.4,519.1 357.0,519.2 360.6,519.2 364.2,519.3 367.8,519.3 371.4,519.4 375.0,519.4 378.5,519.5 382.1,519.5 385.7,519.5 389.3,519.6 392.9,519.6 396.5,519.6 400.1,519.6 403.6,519.6" /><polyline points="408.0,519.8 411.6,519.8 415.2,519.7 418.8,519.7 422.3,519.6 425.9,519.6 429.5,519.5 433.1,519.5 436.7,519.4 440.3,519.4 443.9,519.3 447.5,519.3 451.0,519.3 454.6,519.2 458.2,519.2 461.8,519.2 465.4,519.2 469.0,519.2 472.6,519.2 476.2,519.2 479.7,519.2 483.3,519.2 486.9,519.2 490.5,519.3 494.1,519.3 497.7,519.3 501.3,519.4 504.8,519.4 508.4,519.5 512.0,519.5 515.6,519.6 519.2,519.6 522.8,519.7 526.4,519.7 530.0,519.8 533.5,519.8 537.1,519.9 540.7,519.9 544.3,520.0 547.9,520.0 551.5,520.0 555.1,520.1 558.6,520.1" /><polyline points="253.0,525.3 256.7,525.2 260.3,525.2 264.0,525.1 267.7,525.1 271.3,525.1 275.0,525.1 278.7,525.1 282.3,525.1 286.0,525.1 289.7,525.1 293.3,525.1 297.0,525.1 300.7,525.1 304.3,525.2 308.0,525.2 311.7,525.2 315.3,525.3 319.0,525.3 322.7,525.4 326.3,525.4 330.0,525.5 333.7,525.5 337.3,525.6 341.0,525.6 344.7,525.7 348.3,525.7 352.0,525.8 355.7,525.8 359.3,525.9 363.0,525.9 366.7,525.9 370.3,525.9 374.0,526.0 377.7,526.0 381.3,526.0 385.0,526.0 388.7,526.0 392.3,526.0 396.0,526.0 399.7,525.9 403.3,525.9" /><polyline points="408.0,525.2 411.7,525.1 415.3,525.1 419.0,525.0 422.7,525.0 426.3,525.0 430.0,524.9 433.7,524.9 437.3,524.9 441.0,524.9 444.7,524.9 448.3,524.9 452.0,524.9 455.7,524.9 459.3,524.9 463.0,524.9 466.7,524.9 470.3,525.0 474.0,525.0 477.7,525.0 481.3,525.1 485.0,525.1 488.7,525.2 492.3,525.2 496.0,525.3 499.7,525.3 503.3,525.4 507.0,525.4 510.7,525.5 514.3,525.5 518.0,525.6 521.7,525.6 525.3,525.7 529.0,525.7 532.7,525.7 536.3,525.7 540.0,525.8 543.7,525.8 547.3,525.8 551.0,525.8 554.7,525.8 558.3,525.8" /><polyline points="253.0,530.0 256.7,530.0 260.3,530.0 264.0,530.0 267.6,530.0 271.3,530.0 275.0,530.0 278.6,530.1 282.3,530.1 285.9,530.1 289.6,530.2 293.2,530.2 296.9,530.3 300.6,530.3 304.2,530.4 307.9,530.4 311.5,530.5 315.2,530.5 318.9,530.6 322.5,530.6 326.2,530.7 329.8,530.7 333.5,530.7 337.1,530.8 340.8,530.8 344.5,530.8 348.1,530.9 351.8,530.9 355.4,530.9 359.1,530.9 362.8,530.9 366.4,530.9 370.1,530.9 373.7,530.9 377.4,530.8 381.0,530.8 384.7,530.8 388.4,530.7 392.0,530.7 395.7,530.7 399.3,530.6 403.0,530.6" /><polyline points="408.0,529.6 411.7,529.6 415.3,529.5 419.0,529.5 422.6,529.5 426.3,529.5 430.0,529.5 433.6,529.5 437.3,529.5 440.9,529.6 444.6,529.6 448.2,529.6 451.9,529.7 455.6,529.7 459.2,529.7 462.9,529.8 466.5,529.8 470.2,529.9 473.9,529.9 477.5,530.0 481.2,530.0 484.8,530.1 488.5,530.1 492.1,530.2 495.8,530.2 499.5,530.3 503.1,530.3 506.8,530.3 510.4,530.4 514.1,530.4 517.8,530.4 521.4,530.4 525.1,530.4 528.7,530.4 532.4,530.4 536.0,530.4 539.7,530.4 543.4,530.3 547.0,530.3 550.7,530.3 554.3,530.2 558.0,530.2" /><polyline points="253.0,535.3 256.7,535.4 260.3,535.4 264.0,535.4 267.6,535.5 271.3,535.5 274.9,535.6 278.6,535.6 282.2,535.7 285.9,535.7 289.5,535.8 293.2,535.8 296.8,535.9 300.5,535.9 304.1,535.9 307.8,536.0 311.4,536.0 315.1,536.1 318.7,536.1 322.4,536.1 326.0,536.1 329.7,536.2 333.3,536.2 337.0,536.2 340.6,536.2 344.3,536.2 347.9,536.1 351.6,536.1 355.2,536.1 358.9,536.1 362.5,536.0 366.2,536.0 369.8,536.0 373.5,535.9 377.1,535.9 380.8,535.8 384.4,535.8 388.1,535.7 391.7,535.7 395.4,535.6 399.0,535.6 402.7,535.5" /><polyline points="408.0,536.5 411.7,536.5 415.3,536.5 419.0,536.5 422.6,536.6 426.3,536.6 429.9,536.6 433.6,536.7 437.2,536.7 440.9,536.8 444.5,536.8 448.2,536.9 451.8,536.9 455.5,537.0 459.1,537.0 462.8,537.1 466.4,537.1 470.1,537.2 473.7,537.2 477.4,537.2 481.0,537.3 484.7,537.3 488.3,537.3 492.0,537.3 495.6,537.4 499.3,537.4 502.9,537.4 506.6,537.4 510.2,537.4 513.9,537.3 517.5,537.3 521.2,537.3 524.8,537.3 528.5,537.2 532.1,537.2 535.8,537.2 539.4,537.1 543.1,537.1 546.7,537.0 550.4,537.0 554.0,536.9 557.7,536.9" /><polyline points="253.0,542.4 256.8,542.5 260.5,542.5 264.3,542.6 268.0,542.6 271.8,542.7 275.5,542.7 279.3,542.8 283.1,542.8 286.8,542.9 290.6,542.9 294.3,542.9 298.1,543.0 301.8,543.0 305.6,543.0 309.4,543.0 313.1,543.0 316.9,543.0 320.6,543.0 324.4,543.0 328.1,543.0 331.9,543.0 335.7,542.9 339.4,542.9 343.2,542.9 346.9,542.8 350.7,542.8" /><polyline points="356.3,540.8 360.1,540.8 363.8,540.8 367.6,540.8 371.4,540.8 375.1,540.7 378.9,540.7 382.6,540.7 386.4,540.8 390.1,540.8 393.9,540.8 397.7,540.8 401.4,540.8 405.2,540.9 408.9,540.9 412.7,541.0 416.4,541.0 420.2,541.0 424.0,541.1 427.7,541.1 431.5,541.2 435.2,541.2 439.0,541.3 442.7,541.3 446.5,541.4 450.3,541.4 454.0,541.5" /><polyline points="459.7,541.3 463.4,541.2 467.2,541.2 470.9,541.2 474.7,541.1 478.5,541.1 482.2,541.0 486.0,541.0 489.7,540.9 493.5,540.9 497.2,540.8 501.0,540.8 504.8,540.7 508.5,540.7 512.3,540.6 516.0,540.6 519.8,540.6 523.5,540.5 527.3,540.5 531.1,540.5 534.8,540.5 538.6,540.5 542.3,540.4 546.1,540.4 549.8,540.5 553.6,540.5 557.4,540.5" /><polyline points="253.0,546.3 256.7,546.3 260.5,546.4 264.2,546.4 268.0,546.4 271.7,546.5 275.5,546.5 279.2,546.5 283.0,546.5 286.7,546.5 290.4,546.5 294.2,546.5 297.9,546.5 301.7,546.5 305.4,546.5 309.2,546.5 312.9,546.5 316.7,546.4 320.4,546.4 324.2,546.3 327.9,546.3 331.6,546.3 335.4,546.2 339.1,546.2 342.9,546.1 346.6,546.1 350.4,546.0" /><polyline points="356.3,546.5 360.1,546.5 363.8,546.5 367.6,546.5 371.3,546.6 375.1,546.6 378.8,546.6 382.5,546.6 386.3,546.7 390.0,546.7 393.8,546.8 397.5,546.8 401.3,546.9 405.0,546.9 408.8,547.0 412.5,547.0 416.2,547.1 420.0,547.1 423.7,547.1 427.5,547.2 431.2,547.2 435.0,547.3 438.7,547.3 442.5,547.3 446.2,547.3 450.0,547.3 453.7,547.3" /><polyline points="459.7,548.5 463.4,548.4 467.2,548.4 470.9,548.3 474.6,548.3 478.4,548.2 482.1,548.2 485.9,548.1 489.6,548.1 493.4,548.0 497.1,548.0 500.9,548.0 504.6,548.0 508.3,547.9 512.1,547.9 515.8,547.9 519.6,547.9 523.3,547.9 527.1,547.9 530.8,547.9 534.6,547.9 538.3,548.0 542.1,548.0 545.8,548.0 549.5,548.0 553.3,548.1 557.0,548.1" /><polyline points="253.0,553.6 256.7,553.7 260.5,553.7 264.2,553.7 267.9,553.7 271.7,553.7 275.4,553.7 279.1,553.7 282.9,553.7 286.6,553.6 290.3,553.6 294.1,553.6 297.8,553.5 301.5,553.5 305.3,553.5 309.0,553.4 312.7,553.4 316.4,553.3 320.2,553.3 323.9,553.2 327.6,553.2 331.4,553.1 335.1,553.1 338.8,553.0 342.6,553.0 346.3,553.0 350.0,552.9" /><polyline points="356.3,553.4 360.1,553.5 363.8,553.5 367.5,553.6 371.3,553.6 375.0,553.6 378.7,553.7 382.5,553.7 386.2,553.8 389.9,553.8 393.7,553.9 397.4,553.9 401.1,554.0 404.9,554.0 408.6,554.0 412.3,554.1 416.1,554.1 419.8,554.1 423.5,554.1 427.2,554.2 431.0,554.2 434.7,554.2 438.4,554.2 442.2,554.1 445.9,554.1 449.6,554.1 453.4,554.1" /><polyline points="459.7,551.6 463.4,551.6 467.1,551.6 470.9,551.5 474.6,551.5 478.3,551.5 482.1,551.4 485.8,551.4 489.5,551.4 493.3,551.4 497.0,551.4 500.7,551.4 504.5,551.4 508.2,551.4 511.9,551.4 515.7,551.4 519.4,551.5 523.1,551.5 526.8,551.5 530.6,551.6 534.3,551.6 538.0,551.7 541.8,551.7 545.5,551.8 549.2,551.8 553.0,551.8 556.7,551.9" /><polyline points="253.0,559.0 256.7,559.0 260.4,559.0 264.2,558.9 267.9,558.9 271.6,558.9 275.3,558.9 279.0,558.8 282.8,558.8 286.5,558.7 290.2,558.7 293.9,558.6 297.6,558.6 301.4,558.5 305.1,558.5 308.8,558.5 312.5,558.4 316.2,558.4 320.0,558.3 323.7,558.3 327.4,558.3 331.1,558.3 334.8,558.2 338.6,558.2 342.3,558.2 346.0,558.2 349.7,558.2" /><polyline points="356.3,556.7 360.1,556.8 363.8,556.8 367.5,556.9 371.2,556.9 374.9,557.0 378.7,557.0 382.4,557.0 386.1,557.1 389.8,557.1 393.5,557.1 397.3,557.2 401.0,557.2 404.7,557.2 408.4,557.2 412.1,557.2 415.9,557.2 419.6,557.2 423.3,557.2 427.0,557.2 430.7,557.1 434.5,557.1 438.2,557.1 441.9,557.0 445.6,557.0 449.3,556.9 453.0,556.9" /><polyline points="459.7,558.0 463.4,557.9 467.1,557.9 470.8,557.9 474.5,557.9 478.3,557.9 482.0,557.9 485.7,557.9 489.4,558.0 493.1,558.0 496.9,558.0 500.6,558.0 504.3,558.1 508.0,558.1 511.7,558.1 515.5,558.2 519.2,558.2 522.9,558.3 526.6,558.3 530.3,558.4 534.1,558.4 537.8,558.5 541.5,558.5 545.2,558.5 548.9,558.6 552.7,558.6 556.4,558.6" /><polyline points="253.0,562.7 256.7,562.6 260.4,562.6 264.1,562.5 267.8,562.5 271.5,562.5 275.2,562.4 279.0,562.4 282.7,562.3 286.4,562.3 290.1,562.2 293.8,562.2 297.5,562.2 301.2,562.1 304.9,562.1 308.6,562.1 312.3,562.1 316.0,562.0 319.7,562.0 323.4,562.0 327.1,562.0 330.9,562.0 334.6,562.1 338.3,562.1 342.0,562.1 345.7,562.1 349.4,562.2" /><polyline points="356.3,565.0 360.0,565.1 363.7,565.1 367.5,565.1 371.2,565.2 374.9,565.2 378.6,565.2 382.3,565.2 386.0,565.2 389.7,565.2 393.4,565.2 397.1,565.2 400.8,565.2 404.5,565.2 408.2,565.1 411.9,565.1 415.7,565.1 419.4,565.0 423.1,565.0 426.8,565.0 430.5,564.9 434.2,564.9 437.9,564.8 441.6,564.8 445.3,564.7 449.0,564.7 452.7,564.7" /><polyline points="459.7,564.4 463.4,564.4 467.1,564.4 470.8,564.4 474.5,564.4 478.2,564.5 481.9,564.5 485.6,564.5 489.3,564.6 493.0,564.6 496.7,564.7 500.4,564.7 504.2,564.8 507.9,564.8 511.6,564.8 515.3,564.9 519.0,564.9 522.7,565.0 526.4,565.0 530.1,565.0 533.8,565.1 537.5,565.1 541.2,565.1 544.9,565.1 548.6,565.1 552.4,565.1 556.1,565.1" /><polyline points="253.0,571.0 256.7,570.9 260.4,570.9 264.1,570.8 267.8,570.8 271.5,570.8 275.2,570.7 278.9,570.7 282.6,570.7 286.3,570.7 289.9,570.6 293.6,570.6 297.3,570.6 301.0,570.6 304.7,570.6 308.4,570.6 312.1,570.6 315.8,570.7 319.5,570.7 323.2,570.7 326.9,570.7 330.6,570.8 334.3,570.8 338.0,570.8 341.7,570.9 345.4,570.9 349.1,571.0" /><polyline points="356.3,569.6 360.0,569.6 363.7,569.6 367.4,569.6 371.1,569.6 374.8,569.6 378.5,569.6 382.2,569.6 385.9,569.6 389.6,569.5 393.3,569.5 397.0,569.5 400.7,569.4 404.4,569.4 408.1,569.3 411.8,569.3 415.5,569.3 419.1,569.2 422.8,569.2 426.5,569.1 430.2,569.1 433.9,569.1 437.6,569.0 441.3,569.0 445.0,569.0 448.7,568.9 452.4,568.9" /><polyline points="459.7,567.3 463.4,567.4 467.1,567.4 470.8,567.5 474.4,567.5 478.1,567.6 481.8,567.6 485.5,567.6 489.2,567.7 492.9,567.7 496.6,567.8 500.3,567.8 504.0,567.8 507.7,567.9 511.4,567.9 515.1,567.9 518.8,567.9 522.5,567.9 526.2,567.9 529.9,567.9 533.6,567.9 537.3,567.9 541.0,567.9 544.7,567.9 548.3,567.9 552.0,567.9 555.7,567.8" /><polyline points="253.0,573.3 256.9,573.3 260.8,573.3 264.7,573.3 268.5,573.2 272.4,573.2 276.3,573.2 280.2,573.2 284.1,573.2 288.0,573.3 291.8,573.3 295.7,573.3 299.6,573.3 303.5,573.3 307.4,573.4 311.3,573.4 315.1,573.5 319.0,573.5 322.9,573.5" /><polyline points="330.5,573.9 334.4,573.9 338.3,573.9 342.2,573.9 346.0,573.9 349.9,573.9 353.8,573.9 357.7,573.9 361.6,573.9 365.5,573.8 369.3,573.8 373.2,573.8 377.1,573.7 381.0,573.7 384.9,573.7 388.8,573.6 392.6,573.6 396.5,573.5 400.4,573.5" /><polyline points="408.0,576.0 411.9,576.0 415.8,576.1 419.7,576.1 423.5,576.1 427.4,576.1 431.3,576.1 435.2,576.2 439.1,576.2 443.0,576.3 446.8,576.3 450.7,576.3 454.6,576.4 458.5,576.4 462.4,576.5 466.3,576.5 470.1,576.6 474.0,576.6 477.9,576.6" /><polyline points="485.5,575.9 489.4,575.8 493.3,575.8 497.2,575.8 501.0,575.7 504.9,575.7 508.8,575.7 512.7,575.6 516.6,575.6 520.5,575.5 524.3,575.5 528.2,575.5 532.1,575.4 536.0,575.4 539.9,575.3 543.8,575.3 547.6,575.3 551.5,575.2 555.4,575.2" /><polyline points="253.0,579.9 256.9,579.9 260.7,579.9 264.6,579.9 268.5,579.9 272.3,580.0 276.2,580.0 280.1,580.0 283.9,580.0 287.8,580.1 291.7,580.1 295.5,580.2 299.4,580.2 303.3,580.2 307.1,580.3 311.0,580.3 314.9,580.4 318.7,580.4 322.6,580.4" /><polyline points="330.5,582.7 334.4,582.7 338.2,582.6 342.1,582.6 346.0,582.6 349.8,582.6 353.7,582.5 357.6,582.5 361.4,582.4 365.3,582.4 369.2,582.4 373.0,582.3 376.9,582.3 380.8,582.2 384.6,582.2 388.5,582.2 392.4,582.1 396.2,582.1 400.1,582.1" /><polyline points="408.0,579.5 411.9,579.5 415.7,579.6 419.6,579.6 423.5,579.6 427.3,579.7 431.2,579.7 435.1,579.8 438.9,579.8 442.8,579.9 446.7,579.9 450.5,579.9 454.4,580.0 458.3,580.0 462.1,580.0 466.0,580.1 469.9,580.1 473.7,580.1 477.6,580.1" /><polyline points="485.5,578.6 489.4,578.6 493.2,578.6 497.1,578.5 501.0,578.5 504.8,578.4 508.7,578.4 512.6,578.3 516.4,578.3 520.3,578.3 524.2,578.2 528.0,578.2 531.9,578.2 535.8,578.2 539.6,578.2 543.5,578.1 547.4,578.1 551.2,578.1 555.1,578.1" /><polyline points="253.0,587.1 256.8,587.1 260.7,587.2 264.5,587.2 268.4,587.2 272.2,587.3 276.1,587.3 279.9,587.3 283.8,587.4 287.6,587.4 291.5,587.5 295.3,587.5 299.2,587.5 303.0,587.6 306.9,587.6 310.7,587.6 314.6,587.7 318.4,587.7 322.3,587.7" /><polyline points="330.5,584.2 334.3,584.2 338.2,584.1 342.0,584.1 345.9,584.1 349.7,584.0 353.6,584.0 357.4,583.9 361.3,583.9 365.1,583.9 369.0,583.8 372.8,583.8 376.7,583.8 380.5,583.8 384.4,583.7 388.2,583.7 392.1,583.7 395.9,583.7 399.8,583.7" /><polyline points="408.0,584.9 411.8,584.9 415.7,585.0 419.5,585.0 423.4,585.1 427.2,585.1 431.1,585.1 434.9,585.2 438.8,585.2 442.6,585.2 446.5,585.2 450.3,585.3 454.2,585.3 458.0,585.3 461.9,585.3 465.7,585.3 469.6,585.3 473.4,585.3 477.3,585.2" /><polyline points="485.5,587.9 489.3,587.8 493.2,587.8 497.0,587.7 500.9,587.7 504.7,587.7 508.6,587.7 512.4,587.6 516.3,587.6 520.1,587.6 524.0,587.6 527.8,587.6 531.7,587.6 535.5,587.6 539.4,587.6 543.2,587.7 547.1,587.7 550.9,587.7 554.8,587.7" /><polyline points="253.0,589.0 256.8,589.0 260.7,589.1 264.5,589.1 268.3,589.2 272.2,589.2 276.0,589.2 279.8,589.3 283.6,589.3 287.5,589.3 291.3,589.3 295.1,589.4 299.0,589.4 302.8,589.4 306.6,589.4 310.5,589.4 314.3,589.4 318.1,589.4 321.9,589.4" /><polyline points="330.5,591.9 334.3,591.8 338.2,591.8 342.0,591.8 345.8,591.7 349.7,591.7 353.5,591.7 357.3,591.7 361.1,591.6 365.0,591.6 368.8,591.6 372.6,591.6 376.5,591.6 380.3,591.6 384.1,591.6 388.0,591.6 391.8,591.7 395.6,591.7 399.4,591.7" /><polyline points="408.0,593.7 411.8,593.8 415.7,593.8 419.5,593.8 423.3,593.8 427.2,593.8 431.0,593.9 434.8,593.9 438.6,593.9 442.5,593.9 446.3,593.9 450.1,593.8 454.0,593.8 457.8,593.8 461.6,593.8 465.5,593.8 469.3,593.7 473.1,593.7 476.9,593.7" /><polyline points="485.5,589.8 489.3,589.8 493.2,589.8 497.0,589.8 500.8,589.8 504.7,589.8 508.5,589.8 512.3,589.8 516.1,589.8 520.0,589.8 523.8,589.9 527.6,589.9 531.5,589.9 535.3,590.0 539.1,590.0 543.0,590.0 546.8,590.1 550.6,590.1 554.4,590.2" /><polyline points="253.0,599.1 256.8,599.1 260.6,599.1 264.4,599.1 268.2,599.2 272.1,599.2 275.9,599.2 279.7,599.2 283.5,599.2 287.3,599.2 291.1,599.2 294.9,599.2 298.7,599.2 302.6,599.2 306.4,599.2 310.2,599.1 314.0,599.1 317.8,599.1 321.6,599.0" /><polyline points="330.5,597.8 334.3,597.8 338.1,597.8 341.9,597.8 345.7,597.7 349.6,597.7 353.4,597.7 357.2,597.7 361.0,597.8 364.8,597.8 368.6,597.8 372.4,597.8 376.2,597.8 380.1,597.9 383.9,597.9 387.7,597.9 391.5,598.0 395.3,598.0 399.1,598.0" /><polyline points="408.0,594.9 411.8,594.9 415.6,594.9 419.4,594.9 423.2,594.9 427.1,594.9 430.9,594.8 434.7,594.8 438.5,594.8 442.3,594.8 446.1,594.7 449.9,594.7 453.7,594.7 457.6,594.6 461.4,594.6 465.2,594.6 469.0,594.5 472.8,594.5 476.6,594.4" /><polyline points="485.5,596.2 489.3,596.2 493.1,596.2 496.9,596.2 500.7,596.3 504.6,596.3 508.4,596.3 512.2,596.3 516.0,596.4 519.8,596.4 523.6,596.4 527.4,596.5 531.2,596.5 535.1,596.6 538.9,596.6 542.7,596.6 546.5,596.7 550.3,596.7 554.1,596.7" /><polyline points="253.0,602.2 256.8,602.2 260.6,602.2 264.4,602.2 268.2,602.2 272.0,602.2 275.8,602.2 279.6,602.2 283.4,602.2 287.1,602.2 290.9,602.1 294.7,602.1 298.5,602.1 302.3,602.0 306.1,602.0 309.9,602.0 313.7,601.9 317.5,601.9 321.3,601.8" /><polyline points="330.5,599.7 334.3,599.7 338.1,599.7 341.9,599.7 345.7,599.7 349.5,599.7 353.3,599.7 357.1,599.8 360.9,599.8 364.6,599.8 368.4,599.9 372.2,599.9 376.0,599.9 379.8,600.0 383.6,600.0 387.4,600.1 391.2,600.1 395.0,600.1 398.8,600.2" /><polyline points="408.0,604.0 411.8,604.0 415.6,604.0 419.4,604.0 423.2,603.9 427.0,603.9 430.8,603.9 434.6,603.8 438.4,603.8 442.1,603.7 445.9,603.7 449.7,603.7 453.5,603.6 457.3,603.6 461.1,603.6 464.9,603.5 468.7,603.5 472.5,603.5 476.3,603.5" /><polyline points="485.5,604.3 489.3,604.3 493.1,604.3 496.9,604.4 500.7,604.4 504.5,604.5 508.3,604.5 512.1,604.5 515.9,604.6 519.6,604.6 523.4,604.6 527.2,604.7 531.0,604.7 534.8,604.7 538.6,604.7 542.4,604.8 546.2,604.8 550.0,604.8 553.8,604.8" /><polyline points="253.0,606.8 257.0,606.8 261.1,606.8 265.1,606.8 269.1,606.7 273.2,606.7 277.2,606.7 281.3,606.6 285.3,606.6 289.3,606.6 293.4,606.5 297.4,606.5 301.4,606.5 305.5,606.4" /><polyline points="315.0,610.3 319.0,610.3 323.1,610.3 327.1,610.3 331.1,610.3 335.2,610.4 339.2,610.4 343.3,610.4 347.3,610.5 351.3,610.5 355.4,610.6 359.4,610.6 363.4,610.6 367.5,610.7" /><polyline points="377.0,608.8 381.0,608.8 385.1,608.8 389.1,608.8 393.1,608.8 397.2,608.7 401.2,608.7 405.3,608.7 409.3,608.6 413.3,608.6 417.4,608.6 421.4,608.5 425.4,608.5 429.5,608.4" /><polyline points="439.0,604.9 443.0,604.9 447.1,604.9 451.1,604.9 455.1,604.9 459.2,605.0 463.2,605.0 467.3,605.0 471.3,605.1 475.3,605.1 479.4,605.1 483.4,605.2 487.4,605.2 491.5,605.3" /><polyline points="501.0,608.6 505.0,608.6 509.1,608.6 513.1,608.6 517.1,608.5 521.2,608.5 525.2,608.5 529.3,608.5 533.3,608.4 537.3,608.4 541.4,608.3 545.4,608.3 549.4,608.3 553.5,608.2" /><polyline points="253.0,616.4 257.0,616.4 261.0,616.3 265.0,616.3 269.0,616.3 273.1,616.2 277.1,616.2 281.1,616.2 285.1,616.1 289.1,616.1 293.1,616.1 297.1,616.0 301.1,616.0 305.1,616.0" /><polyline points="315.0,612.0 319.0,612.0 323.0,612.1 327.0,612.1 331.0,612.1 335.1,612.2 339.1,612.2 343.1,612.2 347.1,612.3 351.1,612.3 355.1,612.3 359.1,612.4 363.1,612.4 367.1,612.4" /><polyline points="377.0,611.3 381.0,611.3 385.0,611.2 389.0,611.2 393.0,611.2 397.1,611.1 401.1,611.1 405.1,611.1 409.1,611.0 413.1,611.0 417.1,611.0 421.1,610.9 425.1,610.9 429.1,610.9" /><polyline points="439.0,615.4 443.0,615.4 447.0,615.5 451.0,615.5 455.0,615.5 459.1,615.6 463.1,615.6 467.1,615.6 471.1,615.7 475.1,615.7 479.1,615.7 483.1,615.8 487.1,615.8 491.1,615.8" /><polyline points="501.0,615.4 505.0,615.3 509.0,615.3 513.0,615.3 517.0,615.2 521.1,615.2 525.1,615.2 529.1,615.1 533.1,615.1 537.1,615.1 541.1,615.0 545.1,615.0 549.1,615.0 553.1,614.9" /><polyline points="253.0,616.1 257.0,616.1 261.0,616.1 265.0,616.0 268.9,616.0 272.9,616.0 276.9,616.0 280.9,615.9 284.9,615.9 288.9,615.9 292.9,615.9 296.9,615.9 300.8,615.9 304.8,615.9" /><polyline points="315.0,618.3 319.0,618.3 323.0,618.4 327.0,618.4 330.9,618.4 334.9,618.4 338.9,618.5 342.9,618.5 346.9,618.5 350.9,618.5 354.9,618.5 358.9,618.5 362.8,618.5 366.8,618.5" /><polyline points="377.0,622.1 381.0,622.0 385.0,622.0 389.0,622.0 392.9,621.9 396.9,621.9 400.9,621.9 404.9,621.8 408.9,621.8 412.9,621.8 416.9,621.8 420.9,621.8 424.8,621.8 428.8,621.8" /><polyline points="439.0,618.8 443.0,618.8 447.0,618.9 451.0,618.9 454.9,618.9 458.9,619.0 462.9,619.0 466.9,619.0 470.9,619.0 474.9,619.1 478.9,619.1 482.9,619.1 486.8,619.1 490.8,619.1" /><polyline points="501.0,616.0 505.0,616.0 509.0,616.0 513.0,615.9 516.9,615.9 520.9,615.9 524.9,615.8 528.9,615.8 532.9,615.8 536.9,615.8 540.9,615.7 544.9,615.7 548.8,615.7 552.8,615.7" /><polyline points="253.0,625.7 257.0,625.6 260.9,625.6 264.9,625.6 268.8,625.6 272.8,625.6 276.8,625.6 280.7,625.6 284.7,625.6 288.7,625.6 292.6,625.7 296.6,625.7 300.5,625.7 304.5,625.7" /><polyline points="315.0,627.4 319.0,627.5 322.9,627.5 326.9,627.5 330.8,627.5 334.8,627.5 338.8,627.5 342.7,627.5 346.7,627.5 350.7,627.5 354.6,627.5 358.6,627.4 362.5,627.4 366.5,627.4" /><polyline points="377.0,622.1 381.0,622.1 384.9,622.1 388.9,622.1 392.8,622.1 396.8,622.1 400.8,622.1 404.7,622.1 408.7,622.1 412.7,622.1 416.6,622.1 420.6,622.1 424.5,622.1 428.5,622.2" /><polyline points="439.0,622.7 443.0,622.8 446.9,622.8 450.9,622.8 454.8,622.8 458.8,622.8 462.8,622.8 466.7,622.8 470.7,622.8 474.7,622.8 478.6,622.8 482.6,622.8 486.5,622.8 490.5,622.8" /><polyline points="501.0,627.2 505.0,627.2 508.9,627.2 512.9,627.1 516.8,627.1 520.8,627.1 524.8,627.1 528.7,627.1 532.7,627.1 536.7,627.1 540.6,627.1 544.6,627.1 548.5,627.1 552.5,627.2" /><polyline points="253.0,630.8 256.9,630.8 260.9,630.8 264.8,630.8 268.7,630.8 272.7,630.9 276.6,630.9 280.6,630.9 284.5,630.9 288.4,631.0 292.4,631.0 296.3,631.0 300.2,631.1 304.2,631.1" /><polyline points="315.0,627.0 318.9,627.0 322.9,627.0 326.8,627.0 330.7,626.9 334.7,626.9 338.6,626.9 342.6,626.9 346.5,626.9 350.4,626.8 354.4,626.8 358.3,626.8 362.2,626.7 366.2,626.7" /><polyline points="377.0,629.9 380.9,629.9 384.9,629.9 388.8,629.9 392.7,629.9 396.7,629.9 400.6,629.9 404.6,630.0 408.5,630.0 412.4,630.0 416.4,630.0 420.3,630.1 424.2,630.1 428.2,630.1" /><polyline points="439.0,633.6 442.9,633.7 446.9,633.6 450.8,633.6 454.7,633.6 458.7,633.6 462.6,633.6 466.6,633.6 470.5,633.6 474.4,633.5 478.4,633.5 482.3,633.5 486.2,633.4 490.2,633.4" /><polyline points="501.0,628.7 504.9,628.7 508.9,628.7 512.8,628.7 516.7,628.7 520.7,628.7 524.6,628.7 528.6,628.7 532.5,628.7 536.4,628.8 540.4,628.8 544.3,628.8 548.2,628.8 552.2,628.9" /><polyline points="253.0,632.4 256.9,632.4 260.8,632.4 264.7,632.5 268.6,632.5 272.6,632.5 276.5,632.6 280.4,632.6 284.3,632.6 288.2,632.7 292.1,632.7 296.0,632.7 299.9,632.7 303.9,632.8" /><polyline points="315.0,638.1 318.9,638.0 322.8,638.0 326.7,638.0 330.6,638.0 334.6,637.9 338.5,637.9 342.4,637.9 346.3,637.8 350.2,637.8 354.1,637.8 358.0,637.8 361.9,637.7 365.9,637.7" /><polyline points="377.0,637.7 380.9,637.7 384.8,637.7 388.7,637.7 392.6,637.8 396.6,637.8 400.5,637.8 404.4,637.9 408.3,637.9 412.2,637.9 416.1,638.0 420.0,638.0 423.9,638.0 427.9,638.0" /><polyline points="439.0,632.8 442.9,632.8 446.8,632.7 450.7,632.7 454.6,632.7 458.6,632.7 462.5,632.6 466.4,632.6 470.3,632.6 474.2,632.5 478.1,632.5 482.0,632.5 485.9,632.4 489.9,632.4" /><polyline points="501.0,634.1 504.9,634.1 508.8,634.1 512.7,634.1 516.6,634.1 520.6,634.2 524.5,634.2 528.4,634.2 532.3,634.3 536.2,634.3 540.1,634.3 544.0,634.4 547.9,634.4 551.9,634.4" /><polyline points="253.0,644.7 256.9,644.8 260.8,644.8 264.7,644.8 268.5,644.8 272.4,644.9 276.3,644.9 280.2,644.9 284.1,644.9 288.0,644.9 291.9,645.0 295.8,645.0 299.6,645.0 303.5,645.0" /><polyline points="315.0,641.2 318.9,641.2 322.8,641.2 326.7,641.1 330.5,641.1 334.4,641.1 338.3,641.1 342.2,641.0 346.1,641.0 350.0,641.0 353.9,641.0 357.8,641.0 361.6,641.0 365.5,641.0" /><polyline points="377.0,637.4 380.9,637.5 384.8,637.5 388.7,637.5 392.5,637.5 396.4,637.6 400.3,637.6 404.2,637.6 408.1,637.6 412.0,637.7 415.9,637.7 419.8,637.7 423.6,637.7 427.5,637.7" /><polyline points="439.0,642.3 442.9,642.2 446.8,642.2 450.7,642.2 454.5,642.1 458.4,642.1 462.3,642.1 466.2,642.1 470.1,642.0 474.0,642.0 477.9,642.0 481.8,642.0 485.6,642.0 489.5,642.0" /><polyline points="501.0,644.3 504.9,644.4 508.8,644.4 512.7,644.4 516.5,644.5 520.4,644.5 524.3,644.5 528.2,644.5 532.1,644.6 536.0,644.6 539.9,644.6 543.8,644.6 547.6,644.6 551.5,644.6" /><polyline points="253.0,644.4 257.0,644.5 261.0,644.5 265.0,644.5 268.9,644.5 272.9,644.5 276.9,644.5 280.9,644.5 284.9,644.5 288.9,644.5 292.9,644.5" /><polyline points="304.7,644.0 308.7,643.9 312.6,643.9 316.6,643.9 320.6,643.9 324.6,643.8 328.6,643.8 332.6,643.8 336.6,643.8 340.6,643.8 344.5,643.8" /><polyline points="356.3,649.8 360.3,649.8 364.3,649.9 368.3,649.9 372.3,649.9 376.3,649.9 380.3,650.0 384.2,650.0 388.2,650.0 392.2,650.0 396.2,650.0" /><polyline points="408.0,648.3 412.0,648.3 416.0,648.3 420.0,648.3 423.9,648.2 427.9,648.2 431.9,648.2 435.9,648.1 439.9,648.1 443.9,648.1 447.9,648.1" /><polyline points="459.7,642.8 463.7,642.8 467.6,642.8 471.6,642.8 475.6,642.9 479.6,642.9 483.6,642.9 487.6,642.9 491.6,643.0 495.6,643.0 499.5,643.0" /><polyline points="511.3,646.5 515.3,646.5 519.3,646.4 523.3,646.4 527.3,646.4 531.3,646.4 535.3,646.4 539.2,646.3 543.2,646.3 547.2,646.3 551.2,646.2" /><polyline points="253.0,652.1 257.0,652.1 260.9,652.1 264.9,652.1 268.8,652.1 272.8,652.1 276.7,652.1 280.7,652.1 284.6,652.0 288.6,652.0 292.5,652.0" /><polyline points="304.7,655.9 308.6,655.9 312.6,655.9 316.5,655.9 320.5,655.9 324.4,655.9 328.4,655.9 332.4,655.9 336.3,655.9 340.3,655.9 344.2,656.0" /><polyline points="356.3,651.3 360.3,651.3 364.2,651.3 368.2,651.3 372.2,651.4 376.1,651.4 380.1,651.4 384.0,651.4 388.0,651.4 391.9,651.4 395.9,651.4" /><polyline points="408.0,648.5 412.0,648.5 415.9,648.4 419.9,648.4 423.8,648.4 427.8,648.4 431.7,648.3 435.7,648.3 439.6,648.3 443.6,648.3 447.5,648.3" /><polyline points="459.7,654.3 463.6,654.3 467.6,654.4 471.5,654.4 475.5,654.4 479.4,654.4 483.4,654.5 487.4,654.5 491.3,654.5 495.3,654.5 499.2,654.5" /><polyline points="511.3,655.2 515.3,655.2 519.2,655.2 523.2,655.2 527.2,655.1 531.1,655.1 535.1,655.1 539.0,655.0 543.0,655.0 546.9,655.0 550.9,655.0" /><polyline points="253.0,660.8 256.9,660.8 260.8,660.8 264.8,660.8 268.7,660.7 272.6,660.7 276.5,660.7 280.5,660.7 284.4,660.6 288.3,660.6 292.2,660.6" /><polyline points="304.7,654.2 308.6,654.2 312.5,654.2 316.4,654.2 320.4,654.2 324.3,654.2 328.2,654.2 332.1,654.3 336.0,654.3 340.0,654.3 343.9,654.3" /><polyline points="356.3,656.0 360.3,656.0 364.2,656.0 368.1,656.0 372.0,656.0 375.9,656.0 379.9,656.0 383.8,656.0 387.7,656.0 391.6,655.9 395.6,655.9" /><polyline points="408.0,661.4 411.9,661.4 415.8,661.4 419.8,661.4 423.7,661.4 427.6,661.4 431.5,661.4 435.5,661.4 439.4,661.4 443.3,661.4 447.2,661.4" /><polyline points="459.7,658.4 463.6,658.4 467.5,658.5 471.4,658.5 475.4,658.5 479.3,658.5 483.2,658.5 487.1,658.5 491.0,658.5 495.0,658.5 498.9,658.5" /><polyline points="511.3,653.5 515.3,653.5 519.2,653.5 523.1,653.5 527.0,653.4 530.9,653.4 534.9,653.4 538.8,653.4 542.7,653.4 546.6,653.4 550.6,653.4" /><polyline points="253.0,659.0 256.9,659.0 260.8,659.0 264.7,658.9 268.6,658.9 272.5,658.9 276.3,658.9 280.2,658.8 284.1,658.8 288.0,658.8 291.9,658.8" /><polyline points="304.7,664.0 308.6,664.0 312.4,664.0 316.3,664.0 320.2,664.1 324.1,664.1 328.0,664.1 331.9,664.1 335.8,664.2 339.7,664.2 343.6,664.2" /><polyline points="356.3,667.4 360.2,667.4 364.1,667.4 368.0,667.3 371.9,667.3 375.8,667.3 379.7,667.3 383.6,667.3 387.5,667.2 391.3,667.2 395.2,667.2" /><polyline points="408.0,660.9 411.9,660.9 415.8,660.9 419.7,660.9 423.6,660.9 427.5,660.9 431.3,660.9 435.2,660.9 439.1,661.0 443.0,661.0 446.9,661.0" /><polyline points="459.7,660.1 463.6,660.1 467.4,660.1 471.3,660.1 475.2,660.1 479.1,660.1 483.0,660.1 486.9,660.1 490.8,660.1 494.7,660.1 498.6,660.1" /><polyline points="511.3,666.3 515.2,666.3 519.1,666.3 523.0,666.3 526.9,666.2 530.8,666.2 534.7,666.2 538.6,666.2 542.5,666.2 546.3,666.3 550.2,666.3" /><polyline points="253.0,672.1 256.9,672.1 260.7,672.1 264.6,672.1 268.4,672.0 272.3,672.0 276.1,672.0 280.0,672.0 283.9,672.0 287.7,672.0 291.6,672.0" /><polyline points="304.7,670.9 308.5,671.0 312.4,671.0 316.2,671.0 320.1,671.0 324.0,671.0 327.8,671.1 331.7,671.1 335.5,671.1 339.4,671.1 343.2,671.1" /><polyline points="356.3,664.7 360.2,664.6 364.0,664.6 367.9,664.6 371.8,664.6 375.6,664.6 379.5,664.5 383.3,664.5 387.2,664.5 391.1,664.5 394.9,664.5" /><polyline points="408.0,667.7 411.9,667.8 415.7,667.8 419.6,667.8 423.4,667.8 427.3,667.8 431.1,667.9 435.0,667.9 438.9,667.9 442.7,667.9 446.6,668.0" /><polyline points="459.7,673.3 463.5,673.3 467.4,673.3 471.2,673.3 475.1,673.3 479.0,673.3 482.8,673.2 486.7,673.2 490.5,673.2 494.4,673.2 498.2,673.2" /><polyline points="511.3,668.0 515.2,668.0 519.0,668.0 522.9,668.0 526.8,668.0 530.6,668.0 534.5,668.0 538.3,668.1 542.2,668.1 546.1,668.1 549.9,668.1" /><polyline points="253.0,673.4 257.3,673.4 261.5,673.3 265.8,673.3 270.0,673.3 274.3,673.3 278.5,673.4 282.8,673.4 287.0,673.4 291.3,673.4" /><polyline points="304.7,670.1 308.9,670.1 313.2,670.1 317.4,670.1 321.7,670.1 325.9,670.1 330.2,670.1 334.4,670.1 338.7,670.1 342.9,670.1" /><polyline points="356.3,676.3 360.6,676.3 364.8,676.3 369.1,676.3 373.3,676.3 377.6,676.3 381.8,676.2 386.1,676.2 390.3,676.2 394.6,676.2" /><polyline points="408.0,677.9 412.3,677.9 416.5,678.0 420.8,678.0 425.0,678.0 429.3,678.0 433.5,678.0 437.8,678.1 442.0,678.1 446.3,678.1" /><polyline points="459.7,671.0 463.9,671.0 468.2,671.0 472.4,671.0 476.7,670.9 480.9,670.9 485.2,670.9 489.4,670.9 493.7,670.9 497.9,670.8" /><polyline points="511.3,671.5 515.6,671.6 519.8,671.6 524.1,671.6 528.3,671.6 532.6,671.6 536.8,671.7 541.1,671.7 545.3,671.7 549.6,671.7" /><polyline points="253.0,677.1 257.4,677.1 261.7,677.1 266.1,677.1 270.5,677.2 274.8,677.2 279.2,677.2 283.5,677.2" /><polyline points="297.3,684.3 301.6,684.3 306.0,684.3 310.4,684.3 314.7,684.3 319.1,684.3 323.5,684.3 327.8,684.3" /><polyline points="341.6,680.8 345.9,680.8 350.3,680.8 354.7,680.8 359.0,680.8 363.4,680.8 367.8,680.8 372.1,680.8" /><polyline points="385.9,675.1 390.2,675.1 394.6,675.1 398.9,675.1 403.3,675.2 407.7,675.2 412.0,675.2 416.4,675.2" /><polyline points="430.1,680.3 434.5,680.3 438.9,680.2 443.2,680.2 447.6,680.2 452.0,680.2 456.3,680.1 460.7,680.1" /><polyline points="474.4,684.2 478.8,684.2 483.2,684.2 487.5,684.3 491.9,684.3 496.2,684.3 500.6,684.3 505.0,684.3" /><polyline points="518.7,678.1 523.1,678.1 527.4,678.1 531.8,678.1 536.2,678.1 540.5,678.1 544.9,678.1 549.3,678.1" /><polyline points="253.0,689.9 257.3,689.9 261.6,690.0 266.0,690.0 270.3,690.0 274.6,690.0 278.9,690.0 283.2,690.1" /><polyline points="297.3,683.4 301.6,683.4 305.9,683.4 310.2,683.4 314.6,683.3 318.9,683.3 323.2,683.3 327.5,683.3" /><polyline points="341.6,681.1 345.9,681.1 350.2,681.1 354.5,681.1 358.8,681.1 363.2,681.2 367.5,681.2 371.8,681.2" /><polyline points="385.9,688.8 390.2,688.8 394.5,688.8 398.8,688.8 403.1,688.8 407.4,688.8 411.8,688.8 416.1,688.8" /><polyline points="430.1,688.2 434.5,688.2 438.8,688.2 443.1,688.2 447.4,688.2 451.7,688.2 456.1,688.1 460.4,688.1" /><polyline points="474.4,680.9 478.7,680.9 483.1,681.0 487.4,681.0 491.7,681.0 496.0,681.0 500.3,681.1 504.7,681.1" /><polyline points="518.7,683.9 523.0,683.9 527.4,683.9 531.7,683.9 536.0,683.9 540.3,683.8 544.6,683.8 548.9,683.8" /><polyline points="253.0,686.3 257.3,686.4 261.5,686.4 265.8,686.4 270.1,686.4 274.4,686.4 278.6,686.4 282.9,686.5" /><polyline points="297.3,689.5 301.6,689.5 305.8,689.5 310.1,689.4 314.4,689.4 318.6,689.4 322.9,689.4 327.2,689.4" /><polyline points="341.6,695.7 345.8,695.7 350.1,695.7 354.4,695.7 358.7,695.7 362.9,695.8 367.2,695.8 371.5,695.8" /><polyline points="385.9,690.8 390.1,690.8 394.4,690.8 398.7,690.8 402.9,690.8 407.2,690.8 411.5,690.8 415.8,690.8" /><polyline points="430.1,685.8 434.4,685.8 438.7,685.8 443.0,685.8 447.2,685.8 451.5,685.8 455.8,685.8 460.0,685.8" /><polyline points="474.4,692.6 478.7,692.6 483.0,692.7 487.2,692.7 491.5,692.7 495.8,692.7 500.1,692.7 504.3,692.7" /><polyline points="518.7,695.3 523.0,695.3 527.3,695.2 531.5,695.2 535.8,695.2 540.1,695.2 544.3,695.2 548.6,695.1" /><polyline points="253.0,698.5 257.2,698.5 261.5,698.5 265.7,698.5 269.9,698.5 274.1,698.5 278.4,698.5 282.6,698.5" /><polyline points="297.3,700.7 301.5,700.7 305.7,700.7 310.0,700.7 314.2,700.7 318.4,700.7 322.6,700.6 326.9,700.6" /><polyline points="341.6,692.9 345.8,692.9 350.0,693.0 354.2,693.0 358.5,693.0 362.7,693.0 366.9,693.0 371.2,693.0" /><polyline points="385.9,693.2 390.1,693.2 394.3,693.2 398.5,693.1 402.8,693.1 407.0,693.1 411.2,693.1 415.4,693.1" /><polyline points="430.1,700.7 434.4,700.7 438.6,700.7 442.8,700.7 447.0,700.7 451.3,700.7 455.5,700.7 459.7,700.7" /><polyline points="474.4,698.3 478.7,698.4 482.9,698.4 487.1,698.4 491.3,698.4 495.6,698.4 499.8,698.4 504.0,698.4" /><polyline points="518.7,691.3 522.9,691.3 527.2,691.2 531.4,691.2 535.6,691.2 539.8,691.2 544.1,691.2 548.3,691.2" /><polyline points="253.0,703.8 257.2,703.8 261.4,703.8 265.5,703.8 269.7,703.7 273.9,703.7 278.1,703.7 282.3,703.7" /><polyline points="297.3,696.6 301.5,696.5 305.6,696.5 309.8,696.5 314.0,696.5 318.2,696.5 322.4,696.5 326.5,696.5" /><polyline points="341.6,701.9 345.8,701.9 349.9,701.9 354.1,701.9 358.3,701.9 362.5,701.9 366.6,702.0 370.8,702.0" /><polyline points="385.9,707.2 390.0,707.2 394.2,707.2 398.4,707.1 402.6,707.1 406.8,707.1 410.9,707.1 415.1,707.1" /><polyline points="430.1,700.2 434.3,700.2 438.5,700.2 442.7,700.2 446.9,700.2 451.0,700.2 455.2,700.2 459.4,700.3" /><polyline points="474.4,697.3 478.6,697.3 482.8,697.3 487.0,697.3 491.1,697.3 495.3,697.3 499.5,697.2 503.7,697.2" /><polyline points="518.7,704.9 522.9,704.9 527.1,704.9 531.3,704.9 535.4,704.9 539.6,704.9 543.8,704.9 548.0,704.9" /><polyline points="253.0,702.7 257.1,702.7 261.3,702.7 265.4,702.7 269.5,702.7 273.7,702.7 277.8,702.7 281.9,702.6" /><polyline points="297.3,710.7 301.4,710.7 305.6,710.7 309.7,710.7 313.8,710.7 318.0,710.7 322.1,710.8 326.2,710.8" /><polyline points="341.6,711.2 345.7,711.2 349.8,711.2 354.0,711.2 358.1,711.2 362.2,711.2 366.4,711.2 370.5,711.2" /><polyline points="385.9,702.8 390.0,702.8 394.1,702.8 398.3,702.8 402.4,702.7 406.5,702.7 410.7,702.7 414.8,702.7" /><polyline points="430.1,705.2 434.3,705.2 438.4,705.2 442.5,705.2 446.7,705.2 450.8,705.3 454.9,705.3 459.1,705.3" /><polyline points="474.4,712.8 478.6,712.8 482.7,712.8 486.8,712.8 491.0,712.8 495.1,712.7 499.2,712.7 503.4,712.7" /><polyline points="518.7,707.8 522.8,707.8 527.0,707.8 531.1,707.8 535.2,707.8 539.4,707.8 543.5,707.9 547.6,707.9" /><polyline points="253.0,718.5 257.6,718.4 262.2,718.4 266.8,718.4 271.5,718.4 276.1,718.4" /><polyline points="291.8,713.2 296.4,713.2 301.0,713.2 305.6,713.2 310.2,713.2 314.8,713.2" /><polyline points="330.5,707.5 335.1,707.5 339.7,707.5 344.3,707.5 349.0,707.5 353.6,707.4" /><polyline points="369.2,714.4 373.9,714.4 378.5,714.3 383.1,714.3 387.7,714.3 392.3,714.3" /><polyline points="408.0,718.0 412.6,718.1 417.2,718.1 421.8,718.1 426.5,718.1 431.1,718.1" /><polyline points="446.8,709.9 451.4,709.9 456.0,709.9 460.6,709.9 465.2,709.9 469.8,709.9" /><polyline points="485.5,708.7 490.1,708.7 494.7,708.7 499.3,708.7 504.0,708.7 508.6,708.7" /><polyline points="524.2,717.4 528.9,717.5 533.5,717.5 538.1,717.5 542.7,717.5 547.3,717.5" /><polyline points="253.0,715.0 257.5,715.0 262.1,715.0 266.6,715.0 271.2,715.0 275.7,715.0" /><polyline points="291.8,714.4 296.3,714.4 300.8,714.4 305.4,714.4 309.9,714.4 314.5,714.4" /><polyline points="330.5,723.2 335.0,723.2 339.6,723.2 344.1,723.2 348.7,723.2 353.2,723.2" /><polyline points="369.2,720.9 373.8,720.9 378.3,720.9 382.9,720.9 387.4,721.0 392.0,721.0" /><polyline points="408.0,713.0 412.5,713.0 417.1,713.0 421.6,713.0 426.2,713.0 430.7,713.1" /><polyline points="446.8,717.7 451.3,717.7 455.8,717.7 460.4,717.7 464.9,717.6 469.5,717.6" /><polyline points="485.5,724.2 490.0,724.2 494.6,724.2 499.1,724.2 503.7,724.2 508.2,724.2" /><polyline points="524.2,717.5 528.8,717.5 533.3,717.5 537.9,717.5 542.4,717.5 547.0,717.5" /><polyline points="253.0,723.3 257.5,723.3 262.0,723.3 266.5,723.3 270.9,723.3 275.4,723.3" /><polyline points="291.8,726.0 296.2,726.1 300.7,726.1 305.2,726.1 309.7,726.1 314.2,726.1" /><polyline points="330.5,722.7 335.0,722.7 339.5,722.7 344.0,722.7 348.4,722.7 352.9,722.7" /><polyline points="369.2,718.4 373.7,718.4 378.2,718.4 382.7,718.5 387.2,718.5 391.7,718.5" /><polyline points="408.0,726.1 412.5,726.1 417.0,726.1 421.5,726.1 425.9,726.1 430.4,726.1" /><polyline points="446.8,726.0 451.2,726.0 455.7,725.9 460.2,725.9 464.7,725.9 469.2,725.9" /><polyline points="485.5,719.5 490.0,719.5 494.5,719.5 499.0,719.5 503.4,719.5 507.9,719.5" /><polyline points="524.2,721.0 528.7,721.0 533.2,721.0 537.7,721.0 542.2,721.0 546.7,721.0" /></g><g id="03_Gold_Threshold" inkscape:groupmode="layer" inkscape:label="03_Gold_Threshold" stroke="#B8960C" fill="none" stroke-width="1.38" stroke-linecap="round" stroke-linejoin="round"><line x1="252.0" y1="505.0" x2="564.0" y2="505.0" /><line x1="252.0" y1="502.2" x2="252.0" y2="507.8" stroke-width="0.7" /><line x1="264.5" y1="503.9" x2="264.5" y2="506.1" stroke-width="0.7" /><line x1="277.0" y1="503.9" x2="277.0" y2="506.1" stroke-width="0.7" /><line x1="289.5" y1="503.9" x2="289.5" y2="506.1" stroke-width="0.7" /><line x1="302.0" y1="503.9" x2="302.0" y2="506.1" stroke-width="0.7" /><line x1="314.5" y1="502.2" x2="314.5" y2="507.8" stroke-width="0.7" /><line x1="327.0" y1="503.9" x2="327.0" y2="506.1" stroke-width="0.7" /><line x1="339.5" y1="503.9" x2="339.5" y2="506.1" stroke-width="0.7" /><line x1="352.0" y1="503.9" x2="352.0" y2="506.1" stroke-width="0.7" /><line x1="364.5" y1="503.9" x2="364.5" y2="506.1" stroke-width="0.7" /><line x1="377.0" y1="502.2" x2="377.0" y2="507.8" stroke-width="0.7" /><line x1="389.5" y1="503.9" x2="389.5" y2="506.1" stroke-width="0.7" /><line x1="402.0" y1="503.9" x2="402.0" y2="506.1" stroke-width="0.7" /><line x1="414.5" y1="503.9" x2="414.5" y2="506.1" stroke-width="0.7" /><line x1="427.0" y1="503.9" x2="427.0" y2="506.1" stroke-width="0.7" /><line x1="439.5" y1="502.2" x2="439.5" y2="507.8" stroke-width="0.7" /><line x1="452.0" y1="503.9" x2="452.0" y2="506.1" stroke-width="0.7" /><line x1="464.5" y1="503.9" x2="464.5" y2="506.1" stroke-width="0.7" /><line x1="477.0" y1="503.9" x2="477.0" y2="506.1" stroke-width="0.7" /><line x1="489.5" y1="503.9" x2="489.5" y2="506.1" stroke-width="0.7" /><line x1="502.0" y1="502.2" x2="502.0" y2="507.8" stroke-width="0.7" /><line x1="514.5" y1="503.9" x2="514.5" y2="506.1" stroke-width="0.7" /><line x1="527.0" y1="503.9" x2="527.0" y2="506.1" stroke-width="0.7" /><line x1="539.5" y1="503.9" x2="539.5" y2="506.1" stroke-width="0.7" /><line x1="552.0" y1="503.9" x2="552.0" y2="506.1" stroke-width="0.7" /></g></svg>