<?xml version='1.0' encoding='utf-8'?>
<svg xmlns="http://www.w3.org/2000/svg" xmlns:inkscape="http://www.inkscape.org/namespaces/inkscape" viewBox="204 228 408 600"><style>*{vector-effect:non-scaling-stroke}</style><g id="01_Black_Frame" inkscape:groupmode="layer" inkscape:label="01_Black_Frame" stroke="#1A1A1A" fill="none" stroke-width="0.875" stroke-linecap="round" stroke-linejoin="round"><path d="M 250.0,264.0 L 566.0,264.0 Q 576.0,264.0 576.0,274.0 L 576.0,782.0 Q 576.0,792.0 566.0,792.0 L 250.0,792.0 Q 240.0,792.0 240.0,782.0 L 240.0,274.0 Q 240.0,264.0 250.0,264.0" /><path d="M 253.0,270.0 L 563.0,270.0 Q 570.0,270.0 570.0,277.0 L 570.0,779.0 Q 570.0,786.0 563.0,786.0 L 253.0,786.0 Q 246.0,786.0 246.0,779.0 L 246.0,277.0 Q 246.0,270.0 253.0,270.0" /><line x1="259.0" y1="280.0" x2="263.0" y2="280.0" /><line x1="258.1" y1="282.1" x2="260.9" y2="284.9" /><line x1="256.0" y1="283.0" x2="256.0" y2="287.0" /><line x1="253.9" y1="282.1" x2="251.1" y2="284.9" /><line x1="253.0" y1="280.0" x2="249.0" y2="280.0" /><line x1="253.9" y1="277.9" x2="251.1" y2="275.1" /><line x1="256.0" y1="277.0" x2="256.0" y2="273.0" /><line x1="258.1" y1="277.9" x2="260.9" y2="275.1" /><line x1="563.0" y1="280.0" x2="567.0" y2="280.0" /><line x1="562.1" y1="282.1" x2="564.9" y2="284.9" /><line x1="560.0" y1="283.0" x2="560.0" y2="287.0" /><line x1="557.9" y1="282.1" x2="555.1" y2="284.9" /><line x1="557.0" y1="280.0" x2="553.0" y2="280.0" /><line x1="557.9" y1="277.9" x2="555.1" y2="275.1" /><line x1="560.0" y1="277.0" x2="560.0" y2="273.0" /><line x1="562.1" y1="277.9" x2="564.9" y2="275.1" /><line x1="259.0" y1="776.0" x2="263.0" y2="776.0" /><line x1="258.1" y1="778.1" x2="260.9" y2="780.9" /><line x1="256.0" y1="779.0" x2="256.0" y2="783.0" /><line x1="253.9" y1="778.1" x2="251.1" y2="780.9" /><line x1="253.0" y1="776.0" x2="249.0" y2="776.0" /><line x1="253.9" y1="773.9" x2="251.1" y2="771.1" /><line x1="256.0" y1="773.0" x2="256.0" y2="769.0" /><line x1="258.1" y1="773.9" x2="260.9" y2="771.1" /><line x1="563.0" y1="776.0" x2="567.0" y2="776.0" /><line x1="562.1" y1="778.1" x2="564.9" y2="780.9" /><line x1="560.0" y1="779.0" x2="560.0" y2="783.0" /><line x1="557.9" y1="778.1" x2="555.1" y2="780.9" /><line x1="557.0" y1="776.0" x2="553.0" y2="776.0" /><line x1="557.9" y1="773.9" x2="555.1" y2="771.1" /><line x1="560.0" y1="773.0" x2="560.0" y2="769.0" /><line x1="562.1" y1="773.9" x2="564.9" y2="771.1" /><polyline points="401.00,283.20 399.25,282.00 398.25,282.00 396.50,283.60 396.50,288.40 398.25,290.00 399.25,290.00 401.00,288.80" /><polyline points="402.25,282.00 407.25,290.00" /><polyline points="407.25,282.00 402.25,290.00" /><polyline points="408.00,282.00 413.00,290.00" /><polyline points="413.00,282.00 408.00,290.00" /><polyline points="416.25,282.00 416.25,290.00" /><polyline points="374.36,297.00 380.86,297.00" /><polyline points="377.61,297.00 377.61,307.00" /><polyline points="381.84,297.00 381.84,307.00" /><polyline points="388.34,297.00 388.34,307.00" /><polyline points="381.84,301.80 388.34,301.80" /><polyline points="394.84,297.00 389.31,297.00 389.31,301.80 393.21,301.80" /><polyline points="389.31,301.80 389.31,307.00 394.84,307.00" /><polyline points="404.26,297.00 404.26,307.00" /><polyline points="410.76,297.00 410.76,307.00" /><polyline points="404.26,301.80 410.76,301.80" /><polyline points="414.99,297.00 414.99,307.00" /><polyline points="419.21,307.00 419.21,297.00 425.71,307.00 425.71,297.00" /><polyline points="432.54,298.50 430.26,297.00 428.96,297.00 426.69,299.00 426.69,305.00 428.96,307.00 430.26,307.00 432.54,305.50 432.54,302.00 429.94,302.00" /><polyline points="439.69,297.00 434.16,297.00 434.16,301.80 438.06,301.80" /><polyline points="434.16,301.80 434.16,307.00 439.69,307.00" /><line x1="270.0" y1="312.0" x2="546.0" y2="312.0" /><line x1="270.0" y1="732.0" x2="546.0" y2="732.0" /><polyline points="354.87,740.75 355.57,745.25 356.27,742.33 356.97,745.25 357.67,740.75" /><polyline points="358.09,745.25 359.49,740.75 360.89,745.25" /><polyline points="358.59,743.67 360.39,743.67" /><polyline points="361.31,740.75 361.31,745.25 363.69,745.25" /><polyline points="364.53,740.75 364.53,745.25" /><polyline points="367.05,740.75 364.53,743.00 367.05,745.25" /><polyline points="369.15,740.75 368.03,741.20 367.75,742.10 367.75,743.90 368.03,744.80 369.15,745.25 370.27,744.80 370.55,743.90 370.55,742.10 370.27,741.20 369.15,740.75" /><polyline points="370.97,740.75 370.97,744.12 371.53,745.02 373.21,745.02 373.77,744.12 373.77,740.75" /><polyline points="374.19,740.75 376.99,740.75" /><polyline points="375.59,740.75 375.59,745.25" /><polyline points="383.85,745.25 383.85,740.75 385.67,740.75 386.23,741.29 386.23,742.01 385.67,742.55 383.85,742.55 385.67,742.55 386.23,743.09 386.23,744.71 385.67,745.25 383.85,745.25" /><polyline points="387.07,740.75 387.07,745.25 389.45,745.25" /><polyline points="391.69,740.75 390.57,741.20 390.29,742.10 390.29,743.90 390.57,744.80 391.69,745.25 392.81,744.80 393.09,743.90 393.09,742.10 392.81,741.20 391.69,740.75" /><polyline points="396.03,741.42 395.05,740.75 394.49,740.75 393.51,741.65 393.51,744.35 394.49,745.25 395.05,745.25 396.03,744.58" /><polyline points="396.73,740.75 396.73,745.25" /><polyline points="399.25,740.75 396.73,743.00 399.25,745.25" /><polyline points="399.95,745.25 401.35,740.75 402.75,745.25" /><polyline points="400.45,743.67 402.25,743.67" /><polyline points="403.17,745.25 403.17,740.75 404.71,740.75 405.69,741.88 405.69,744.12 404.71,745.25 403.17,745.25" /><polyline points="408.77,740.75 406.39,740.75 406.39,742.91 408.07,742.91" /><polyline points="406.39,742.91 406.39,745.25 408.77,745.25" /><polyline points="416.05,745.25 416.05,740.75 417.87,740.75 418.57,741.42 418.57,742.19 417.87,742.77 416.05,742.77 418.57,745.25" /><polyline points="419.27,740.75 419.27,744.12 419.83,745.02 421.51,745.02 422.07,744.12 422.07,740.75" /><polyline points="422.49,740.75 422.49,745.25 424.87,745.25" /><polyline points="427.11,740.75 427.11,745.25" /><polyline points="428.93,745.25 428.93,740.75 431.73,745.25 431.73,740.75" /><polyline points="434.67,741.42 433.69,740.75 433.13,740.75 432.15,741.65 432.15,744.35 433.13,745.25 433.69,745.25 434.67,744.58 434.67,743.00 433.55,743.00" /><polyline points="444.33,741.42 443.35,740.75 442.79,740.75 441.81,741.65 441.81,744.35 442.79,745.25 443.35,745.25 444.33,744.58" /><polyline points="445.03,740.75 445.03,745.25" /><polyline points="447.83,740.75 447.83,745.25" /><polyline points="445.03,742.91 447.83,742.91" /><polyline points="448.25,745.25 449.65,740.75 451.05,745.25" /><polyline points="448.75,743.67 450.55,743.67" /><polyline points="451.47,745.25 451.47,740.75 453.29,740.75 453.99,741.42 453.99,742.19 453.29,742.77 451.47,742.77 453.99,745.25" /><polyline points="457.21,741.42 456.23,740.75 455.67,740.75 454.69,741.65 454.69,744.35 455.67,745.25 456.23,745.25 457.21,744.58 457.21,743.00 456.09,743.00" /><polyline points="460.29,740.75 457.91,740.75 457.91,742.91 459.59,742.91" /><polyline points="457.91,742.91 457.91,745.25 460.29,745.25" /><polyline points="336.12,753.25 337.38,760.75 338.62,755.88 339.88,760.75 341.12,753.25" /><polyline points="341.88,753.25 341.88,760.75" /><polyline points="346.88,753.25 346.88,760.75" /><polyline points="341.88,756.85 346.88,756.85" /><polyline points="347.62,760.75 350.12,753.25 352.62,760.75" /><polyline points="348.52,758.12 351.73,758.12" /><polyline points="353.38,753.25 358.38,753.25" /><polyline points="355.88,753.25 355.88,760.75" /><polyline points="364.88,753.25 364.88,760.75" /><polyline points="369.88,753.25 369.88,760.75" /><polyline points="364.88,756.85 369.88,756.85" /><polyline points="374.88,753.25 370.62,753.25 370.62,756.85 373.62,756.85" /><polyline points="370.62,756.85 370.62,760.75 374.88,760.75" /><polyline points="376.38,753.25 376.38,760.75 380.62,760.75" /><polyline points="382.12,760.75 382.12,753.25 384.88,753.25 386.62,755.12 386.62,758.88 384.88,760.75 382.12,760.75" /><polyline points="397.88,753.25 393.62,753.25 393.62,756.85 396.62,756.85" /><polyline points="393.62,756.85 393.62,760.75" /><polyline points="401.88,753.25 399.88,754.00 399.38,755.50 399.38,758.50 399.88,760.00 401.88,760.75 403.88,760.00 404.38,758.50 404.38,755.50 403.88,754.00 401.88,753.25" /><polyline points="405.12,760.75 405.12,753.25 408.38,753.25 409.62,754.38 409.62,755.65 408.38,756.62 405.12,756.62 409.62,760.75" /><polyline points="420.88,754.00 419.62,753.25 418.12,753.25 416.88,754.38 416.62,755.50 417.38,756.40 419.12,757.00 420.88,757.60 421.62,758.50 421.38,759.62 420.12,760.75 418.38,760.75 417.12,760.00" /><polyline points="424.88,753.25 424.88,760.75" /><polyline points="428.12,753.25 433.12,760.75" /><polyline points="433.12,753.25 428.12,760.75" /><polyline points="433.88,753.25 438.88,753.25" /><polyline points="436.38,753.25 436.38,760.75" /><polyline points="439.62,753.25 442.12,757.00 444.62,753.25" /><polyline points="442.12,757.00 442.12,760.75" /><polyline points="451.12,753.25 453.62,757.00 456.12,753.25" /><polyline points="453.62,757.00 453.62,760.75" /><polyline points="461.12,753.25 456.88,753.25 456.88,756.85 459.88,756.85" /><polyline points="456.88,756.85 456.88,760.75 461.12,760.75" /><polyline points="462.62,760.75 465.12,753.25 467.62,760.75" /><polyline points="463.52,758.12 466.73,758.12" /><polyline points="468.38,760.75 468.38,753.25 471.62,753.25 472.88,754.38 472.88,755.65 471.62,756.62 468.38,756.62 472.88,760.75" /><polyline points="478.38,754.00 477.12,753.25 475.62,753.25 474.38,754.38 474.12,755.50 474.88,756.40 476.62,757.00 478.38,757.60 479.12,758.50 478.88,759.62 477.62,760.75 475.88,760.75 474.62,760.00" /><polyline points="333.25,766.25 334.50,773.75 335.75,768.88 337.00,773.75 338.25,766.25" /><polyline points="339.00,773.75 341.50,766.25 344.00,773.75" /><polyline points="339.90,771.12 343.10,771.12" /><polyline points="344.75,766.25 344.75,773.75 349.00,773.75" /><polyline points="350.50,766.25 350.50,773.75" /><polyline points="355.00,766.25 350.50,770.00 355.00,773.75" /><polyline points="360.50,767.00 359.25,766.25 357.75,766.25 356.50,767.38 356.25,768.50 357.00,769.40 358.75,770.00 360.50,770.60 361.25,771.50 361.00,772.62 359.75,773.75 358.00,773.75 356.75,773.00" /><polyline points="370.25,766.25 368.25,767.00 367.75,768.50 367.75,771.50 368.25,773.00 370.25,773.75 372.25,773.00 372.75,771.50 372.75,768.50 372.25,767.00 370.25,766.25" /><polyline points="373.50,766.25 373.50,771.88 374.50,773.38 377.50,773.38 378.50,771.88 378.50,766.25" /><polyline points="379.25,766.25 384.25,766.25" /><polyline points="381.75,766.25 381.75,773.75" /><polyline points="393.25,766.25 391.25,767.00 390.75,768.50 390.75,771.50 391.25,773.00 393.25,773.75 395.25,773.00 395.75,771.50 395.75,768.50 395.25,767.00 393.25,766.25" /><polyline points="396.50,773.75 396.50,766.25 401.50,773.75 401.50,766.25" /><polyline points="408.00,773.75 410.50,766.25 413.00,773.75" /><polyline points="408.90,771.12 412.10,771.12" /><polyline points="419.50,773.75 419.50,766.25 422.00,770.38 424.50,766.25 424.50,773.75" /><polyline points="425.25,773.75 427.75,766.25 430.25,773.75" /><polyline points="426.15,771.12 429.35,771.12" /><polyline points="431.00,766.25 433.50,770.00 436.00,766.25" /><polyline points="433.50,770.00 433.50,773.75" /><polyline points="442.50,773.75 442.50,766.25 445.00,770.38 447.50,766.25 447.50,773.75" /><polyline points="450.75,766.25 448.75,767.00 448.25,768.50 448.25,771.50 448.75,773.00 450.75,773.75 452.75,773.00 453.25,771.50 453.25,768.50 452.75,767.00 450.75,766.25" /><polyline points="454.00,773.75 454.00,766.25 457.25,766.25 458.50,767.38 458.50,768.65 457.25,769.62 454.00,769.62 458.50,773.75" /><polyline points="459.75,773.75 459.75,766.25 464.75,773.75 464.75,766.25" /><polyline points="468.00,766.25 468.00,773.75" /><polyline points="471.25,773.75 471.25,766.25 476.25,773.75 476.25,766.25" /><polyline points="481.50,767.38 479.75,766.25 478.75,766.25 477.00,767.75 477.00,772.25 478.75,773.75 479.75,773.75 481.50,772.62 481.50,770.00 479.50,770.00" /><polyline points="389.60,779.50 391.20,784.50 392.80,779.50" /><polyline points="394.88,784.00 394.88,784.25" /><polyline points="398.56,779.50 398.56,784.50" /><polyline points="402.24,784.00 402.24,784.25" /><polyline points="404.32,784.50 404.32,779.50 405.92,782.25 407.52,779.50 407.52,784.50" /><polyline points="408.00,784.50 408.00,779.50 409.60,782.25 411.20,779.50 411.20,784.50" /><polyline points="411.68,779.50 414.88,784.50" /><polyline points="414.88,779.50 411.68,784.50" /><polyline points="415.36,779.50 418.56,784.50" /><polyline points="418.56,779.50 415.36,784.50" /><polyline points="419.04,779.50 420.64,784.50 422.24,779.50" /><polyline points="424.32,779.50 424.32,784.50" /></g><g id="02_Teal_Lines" inkscape:groupmode="layer" inkscape:label="02_Teal_Lines" stroke="#3A7A7A" fill="none" stroke-width="0.75" stroke-linecap="round" stroke-linejoin="round"><line x1="260.0" y1="333.5" x2="348.8" y2="337.7" /><line x1="260.0" y1="346.6" x2="348.8" y2="352.9" /><line x1="260.0" y1="359.7" x2="348.8" y2="368.1" /><line x1="260.0" y1="372.7" x2="348.8" y2="383.3" /><line x1="260.0" y1="385.8" x2="348.8" y2="398.2" /><line x1="260.0" y1="398.9" x2="348.8" y2="412.8" /><line x1="260.0" y1="411.9" x2="348.8" y2="426.8" /><line x1="260.0" y1="425.0" x2="348.8" y2="440.1" /><line x1="260.0" y1="438.1" x2="348.8" y2="452.5" /><line x1="260.0" y1="451.1" x2="348.8" y2="463.9" /><line x1="260.0" y1="464.2" x2="348.8" y2="474.1" /><line x1="260.0" y1="477.3" x2="348.8" y2="483.0" /><line x1="260.0" y1="490.3" x2="348.8" y2="490.3" /><line x1="260.0" y1="503.4" x2="348.8" y2="497.7" /><line x1="260.0" y1="516.5" x2="348.8" y2="506.5" /><line x1="260.0" y1="529.5" x2="348.8" y2="516.7" /><line x1="260.0" y1="542.6" x2="348.8" y2="528.1" /><line x1="260.0" y1="555.7" x2="348.8" y2="540.6" /><line x1="260.0" y1="568.7" x2="348.8" y2="553.9" /><line x1="260.0" y1="581.8" x2="348.8" y2="567.9" /><line x1="260.0" y1="594.9" x2="348.8" y2="582.4" /><line x1="260.0" y1="607.9" x2="348.8" y2="597.4" /><line x1="260.0" y1="621.0" x2="348.8" y2="612.6" /><line x1="260.0" y1="634.1" x2="348.8" y2="627.8" /><line x1="260.0" y1="647.1" x2="348.8" y2="642.9" /><line x1="260.0" y1="660.2" x2="348.8" y2="657.8" /><line x1="260.0" y1="673.3" x2="348.8" y2="672.3" /><line x1="260.0" y1="686.3" x2="348.8" y2="686.2" /><line x1="260.0" y1="699.4" x2="348.8" y2="699.4" /><line x1="260.0" y1="712.5" x2="348.8" y2="712.5" /><line x1="351.8" y1="327.0" x2="351.8" y2="719.0" /><line x1="351.8" y1="490.4" x2="469.5" y2="490.4" /><line x1="351.8" y1="490.4" x2="473.1" y2="489.8" /><line x1="351.8" y1="490.4" x2="476.8" y2="488.7" /><line x1="351.8" y1="490.4" x2="480.4" y2="487.4" /><line x1="351.8" y1="490.4" x2="484.0" y2="485.8" /><line x1="351.8" y1="490.4" x2="487.5" y2="484.0" /><line x1="351.8" y1="490.4" x2="490.9" y2="481.9" /><line x1="351.8" y1="490.4" x2="494.1" y2="479.6" /><line x1="351.8" y1="490.4" x2="497.3" y2="477.1" /><line x1="351.8" y1="490.4" x2="500.3" y2="474.4" /><line x1="351.8" y1="490.4" x2="503.1" y2="471.4" /><line x1="351.8" y1="490.4" x2="505.7" y2="468.3" /><line x1="351.8" y1="490.4" x2="508.1" y2="465.0" /><line x1="351.8" y1="490.4" x2="510.3" y2="461.6" /><line x1="351.8" y1="490.4" x2="512.3" y2="457.9" /><line x1="351.8" y1="490.4" x2="514.0" y2="454.2" /><line x1="351.8" y1="490.4" x2="515.4" y2="450.3" /><line x1="351.8" y1="490.4" x2="516.6" y2="446.2" /><line x1="351.8" y1="490.4" x2="517.4" y2="442.1" /><line x1="351.8" y1="490.4" x2="518.0" y2="437.9" /><line x1="351.8" y1="490.4" x2="518.2" y2="433.7" /><line x1="351.8" y1="490.4" x2="518.1" y2="429.3" /><line x1="351.8" y1="490.4" x2="517.7" y2="425.0" /><line x1="351.8" y1="490.4" x2="517.0" y2="420.6" /><line x1="351.8" y1="490.4" x2="515.9" y2="416.3" /><line x1="351.8" y1="490.4" x2="514.5" y2="412.0" /><line x1="351.8" y1="490.4" x2="512.7" y2="407.8" /><line x1="351.8" y1="490.4" x2="510.6" y2="403.6" /><line x1="351.8" y1="490.4" x2="508.2" y2="399.5" /><line x1="351.8" y1="490.4" x2="505.5" y2="395.6" /><line x1="351.8" y1="490.4" x2="502.5" y2="391.8" /><line x1="351.8" y1="490.4" x2="499.1" y2="388.2" /><line x1="351.8" y1="490.4" x2="495.5" y2="384.7" /><line x1="351.8" y1="490.4" x2="491.5" y2="381.4" /><line x1="351.8" y1="490.4" x2="487.4" y2="378.4" /><line x1="351.8" y1="490.4" x2="482.9" y2="375.6" /><line x1="351.8" y1="490.4" x2="478.3" y2="373.1" /><line x1="351.8" y1="490.4" x2="473.4" y2="370.8" /><line x1="351.8" y1="490.4" x2="468.4" y2="368.7" /><line x1="351.8" y1="490.4" x2="463.1" y2="367.0" /><line x1="351.8" y1="490.4" x2="457.8" y2="365.6" /><line x1="351.8" y1="490.4" x2="452.3" y2="364.4" /><line x1="351.8" y1="490.4" x2="446.7" y2="363.6" /><line x1="351.8" y1="490.4" x2="441.1" y2="363.1" /><line x1="351.8" y1="490.4" x2="435.4" y2="362.9" /><line x1="351.8" y1="490.4" x2="429.7" y2="363.0" /><line x1="351.8" y1="490.4" x2="424.0" y2="363.4" /><line x1="351.8" y1="490.4" x2="418.3" y2="364.1" /><line x1="351.8" y1="490.4" x2="412.7" y2="365.1" /><line x1="351.8" y1="490.4" x2="407.1" y2="366.3" /><line x1="351.8" y1="490.4" x2="401.6" y2="367.9" /><line x1="351.8" y1="490.4" x2="396.3" y2="369.7" /><line x1="351.8" y1="490.4" x2="391.1" y2="371.7" /><line x1="351.8" y1="490.4" x2="386.0" y2="374.0" /><line x1="351.8" y1="490.4" x2="381.1" y2="376.4" /></g><g id="03_Gold_Accent" inkscape:groupmode="layer" inkscape:label="03_Gold_Accent" stroke="#B8960C" fill="none" stroke-width="1.12" stroke-linecap="round" stroke-linejoin="round"><polyline points="500.2,490.4 500.2,486.4 500.0,482.4 499.7,478.4 499.4,474.4 498.9,470.4 498.3,466.5 497.6,462.6 496.8,458.6 495.9,454.7 494.9,450.9 493.8,447.0 492.5,443.2 491.2,439.5 489.8,435.7 488.3,432.0 486.7,428.4 484.9,424.8 483.1,421.2 481.2,417.7 479.2,414.3 477.1,410.9 474.9,407.5 472.7,404.2 470.3,401.0 467.9,397.8 465.3,394.8 462.7,391.7 460.0,388.8 457.2,385.9 454.4,383.1 451.5,380.4 448.5,377.7 445.4,375.2 442.3,372.7 439.1,370.3 435.8,368.0 432.5,365.8 429.1,363.7 425.6,361.6 422.2,359.7 418.6,357.8 415.0,356.1 411.4,354.4 407.7,352.9 404.0,351.4 400.2,350.1 396.4,348.8 392.6,347.7 388.7,346.6" /><polyline points="433.3,490.4 433.2,488.2 433.2,486.0 433.0,483.8 432.8,481.6 432.5,479.4 432.2,477.3 431.8,475.1 431.4,473.0 430.9,470.8 430.3,468.7 429.7,466.6 429.1,464.5 428.3,462.4 427.6,460.4 426.7,458.4 425.8,456.4 424.9,454.4 423.9,452.4 422.8,450.5 421.7,448.6 420.6,446.7 419.4,444.9 418.1,443.1 416.9,441.3 415.5,439.6 414.1,437.9 412.7,436.2 411.2,434.6 409.7,433.0 408.1,431.5 406.5,430.0 404.9,428.6 403.2,427.2 401.5,425.8 399.7,424.5 397.9,423.2 396.1,422.0 394.2,420.8 392.3,419.7 390.4,418.7 388.5,417.6 386.5,416.7 384.5,415.8 382.5,414.9 380.5,414.1 378.4,413.4 376.3,412.7 374.2,412.1 372.1,411.5" /><line x1="500.2" y1="487.4" x2="500.2" y2="493.4" /><line x1="499.6" y1="476.8" x2="500.1" y2="483.3" /><line x1="498.3" y1="466.3" x2="499.3" y2="473.3" /><line x1="496.2" y1="456.0" x2="497.8" y2="463.4" /><line x1="493.4" y1="445.8" x2="495.7" y2="453.6" /><line x1="489.9" y1="435.8" x2="492.8" y2="443.9" /><line x1="485.7" y1="426.1" x2="489.4" y2="434.5" /><line x1="480.8" y1="416.8" x2="485.3" y2="425.3" /><line x1="475.2" y1="407.8" x2="480.6" y2="416.4" /><line x1="469.0" y1="399.2" x2="475.3" y2="407.9" /><line x1="462.3" y1="391.1" x2="469.5" y2="399.7" /><line x1="454.9" y1="383.5" x2="463.1" y2="392.0" /><line x1="447.1" y1="376.4" x2="456.2" y2="384.7" /><line x1="438.7" y1="369.9" x2="448.8" y2="377.8" /><line x1="429.9" y1="364.0" x2="441.0" y2="371.5" /><line x1="420.7" y1="358.8" x2="432.7" y2="365.8" /><line x1="411.2" y1="354.2" x2="424.1" y2="360.6" /><line x1="401.4" y1="350.3" x2="415.2" y2="356.0" /><line x1="391.3" y1="347.1" x2="406.0" y2="352.0" /><line x1="381.0" y1="344.6" x2="396.5" y2="348.6" /><polyline points="356.8,490.4 356.6,491.9 355.9,493.3 354.8,494.4 353.4,495.1 351.8,495.4 350.3,495.1 348.9,494.4 347.8,493.3 347.1,491.9 346.8,490.4 347.1,488.8 347.8,487.4 348.9,486.3 350.3,485.6 351.8,485.4 353.4,485.6 354.8,486.3 355.9,487.4 356.6,488.8 356.8,490.4" /><polyline points="353.8,490.4 353.7,491.0 353.5,491.5 353.0,492.0 352.5,492.3 351.8,492.4 351.2,492.3 350.7,492.0 350.2,491.5 349.9,491.0 349.8,490.4 349.9,489.7 350.2,489.2 350.7,488.7 351.2,488.5 351.8,488.4 352.5,488.5 353.0,488.7 353.5,489.2 353.7,489.7 353.8,490.4" /></g></svg>