<?xml version='1.0' encoding='utf-8'?>
<svg xmlns="http://www.w3.org/2000/svg" xmlns:inkscape="http://www.inkscape.org/namespaces/inkscape" viewBox="204 228 408 600"><style>*{vector-effect:non-scaling-stroke}</style><g id="01_Black_Frame" inkscape:groupmode="layer" inkscape:label="01_Black_Frame" stroke="#1A1A1A" fill="none" stroke-width="0.875" stroke-linecap="round" stroke-linejoin="round"><path d="M 250.0,264.0 L 566.0,264.0 Q 576.0,264.0 576.0,274.0 L 576.0,782.0 Q 576.0,792.0 566.0,792.0 L 250.0,792.0 Q 240.0,792.0 240.0,782.0 L 240.0,274.0 Q 240.0,264.0 250.0,264.0" /><path d="M 253.0,270.0 L 563.0,270.0 Q 570.0,270.0 570.0,277.0 L 570.0,779.0 Q 570.0,786.0 563.0,786.0 L 253.0,786.0 Q 246.0,786.0 246.0,779.0 L 246.0,277.0 Q 246.0,270.0 253.0,270.0" /><line x1="259.0" y1="280.0" x2="263.0" y2="280.0" /><line x1="258.1" y1="282.1" x2="260.9" y2="284.9" /><line x1="256.0" y1="283.0" x2="256.0" y2="287.0" /><line x1="253.9" y1="282.1" x2="251.1" y2="284.9" /><line x1="253.0" y1="280.0" x2="249.0" y2="280.0" /><line x1="253.9" y1="277.9" x2="251.1" y2="275.1" /><line x1="256.0" y1="277.0" x2="256.0" y2="273.0" /><line x1="258.1" y1="277.9" x2="260.9" y2="275.1" /><line x1="563.0" y1="280.0" x2="567.0" y2="280.0" /><line x1="562.1" y1="282.1" x2="564.9" y2="284.9" /><line x1="560.0" y1="283.0" x2="560.0" y2="287.0" /><line x1="557.9" y1="282.1" x2="555.1" y2="284.9" /><line x1="557.0" y1="280.0" x2="553.0" y2="280.0" /><line x1="557.9" y1="277.9" x2="555.1" y2="275.1" /><line x1="560.0" y1="277.0" x2="560.0" y2="273.0" /><line x1="562.1" y1="277.9" x2="564.9" y2="275.1" /><line x1="259.0" y1="776.0" x2="263.0" y2="776.0" /><line x1="258.1" y1="778.1" x2="260.9" y2="780.9" /><line x1="256.0" y1="779.0" x2="256.0" y2="783.0" /><line x1="253.9" y1="778.1" x2="251.1" y2="780.9" /><line x1="253.0" y1="776.0" x2="249.0" y2="776.0" /><line x1="253.9" y1="773.9" x2="251.1" y2="771.1" /><line x1="256.0" y1="773.0" x2="256.0" y2="769.0" /><line x1="258.1" y1="773.9" x2="260.9" y2="771.1" /><line x1="563.0" y1="776.0" x2="567.0" y2="776.0" /><line x1="562.1" y1="778.1" x2="564.9" y2="780.9" /><line x1="560.0" y1="779.0" x2="560.0" y2="783.0" /><line x1="557.9" y1="778.1" x2="555.1" y2="780.9" /><line x1="557.0" y1="776.0" x2="553.0" y2="776.0" /><line x1="557.9" y1="773.9" x2="555.1" y2="771.1" /><line x1="560.0" y1="773.0" x2="560.0" y2="769.0" /><line x1="562.1" y1="773.9" x2="564.9" y2="771.1" /><polyline points="392.38,283.20 390.62,282.00 389.62,282.00 387.88,283.60 387.88,288.40 389.62,290.00 390.62,290.00 392.38,288.80" /><polyline points="393.62,282.00 398.62,290.00" /><polyline points="398.62,282.00 393.62,290.00" /><polyline points="399.38,282.00 404.38,290.00" /><polyline points="404.38,282.00 399.38,290.00" /><polyline points="405.12,282.00 410.12,290.00" /><polyline points="410.12,282.00 405.12,290.00" /><polyline points="413.38,282.00 413.38,290.00" /><polyline points="419.12,282.00 419.12,290.00" /><polyline points="424.88,282.00 424.88,290.00" /><polyline points="363.15,297.00 369.65,297.00" /><polyline points="366.40,297.00 366.40,307.00" /><polyline points="370.62,297.00 370.62,307.00" /><polyline points="377.12,297.00 377.12,307.00" /><polyline points="370.62,301.80 377.12,301.80" /><polyline points="383.62,297.00 378.10,297.00 378.10,301.80 382.00,301.80" /><polyline points="378.10,301.80 378.10,307.00 383.62,307.00" /><polyline points="398.90,298.50 396.62,297.00 395.32,297.00 393.05,299.00 393.05,305.00 395.32,307.00 396.62,307.00 398.90,305.50" /><polyline points="406.05,297.00 400.52,297.00 400.52,301.80 404.42,301.80" /><polyline points="400.52,301.80 400.52,307.00 406.05,307.00" /><polyline points="408.00,307.00 408.00,297.00 412.23,297.00 413.85,298.50 413.85,300.20 412.23,301.50 408.00,301.50 413.85,307.00" /><polyline points="421.00,297.00 415.47,297.00 415.47,301.80 419.37,301.80" /><polyline points="415.47,301.80 415.47,307.00 421.00,307.00" /><polyline points="422.95,307.00 422.95,297.00 426.20,302.50 429.45,297.00 429.45,307.00" /><polyline points="433.67,297.00 431.07,298.00 430.42,300.00 430.42,304.00 431.07,306.00 433.67,307.00 436.27,306.00 436.92,304.00 436.92,300.00 436.27,298.00 433.67,297.00" /><polyline points="437.90,307.00 437.90,297.00 444.40,307.00 444.40,297.00" /><polyline points="445.38,297.00 448.62,302.00 451.88,297.00" /><polyline points="448.62,302.00 448.62,307.00" /><line x1="270.0" y1="312.0" x2="546.0" y2="312.0" /><line x1="270.0" y1="732.0" x2="546.0" y2="732.0" /><polyline points="378.18,741.20 377.48,740.75 376.64,740.75 375.94,741.42 375.80,742.10 376.22,742.64 377.20,743.00 378.18,743.36 378.60,743.90 378.46,744.58 377.76,745.25 376.78,745.25 376.08,744.80" /><polyline points="379.02,740.75 379.02,744.12 379.58,745.02 381.26,745.02 381.82,744.12 381.82,740.75" /><polyline points="382.24,745.25 382.24,740.75 383.64,743.23 385.04,740.75 385.04,745.25" /><polyline points="385.46,745.25 385.46,740.75 386.86,743.23 388.26,740.75 388.26,745.25" /><polyline points="390.08,740.75 390.08,745.25" /><polyline points="391.90,740.75 394.70,740.75" /><polyline points="393.30,740.75 393.30,745.25" /><polyline points="401.56,740.75 401.56,744.12 402.12,745.02 403.80,745.02 404.36,744.12 404.36,740.75" /><polyline points="404.78,745.25 404.78,740.75 406.60,740.75 407.30,741.42 407.30,742.19 406.60,742.77 404.78,742.77 407.30,745.25" /><polyline points="408.00,745.25 409.40,740.75 410.80,745.25" /><polyline points="408.50,743.67 410.30,743.67" /><polyline points="411.22,745.25 411.22,740.75 414.02,745.25 414.02,740.75" /><polyline points="415.84,740.75 415.84,745.25" /><polyline points="417.66,740.75 417.66,744.12 418.22,745.02 419.90,745.02 420.46,744.12 420.46,740.75" /><polyline points="420.88,745.25 420.88,740.75 422.28,743.23 423.68,740.75 423.68,745.25" /><polyline points="431.94,740.75 431.94,745.25" /><polyline points="433.76,745.25 433.76,740.75 436.56,745.25 436.56,740.75" /><polyline points="436.98,740.75 436.98,745.25" /><polyline points="439.50,740.75 436.98,743.00 439.50,745.25" /><polyline points="318.88,753.25 323.88,753.25" /><polyline points="321.38,753.25 321.38,760.75" /><polyline points="324.62,753.25 324.62,760.75" /><polyline points="329.62,753.25 329.62,760.75" /><polyline points="324.62,756.85 329.62,756.85" /><polyline points="334.62,753.25 330.38,753.25 330.38,756.85 333.38,756.85" /><polyline points="330.38,756.85 330.38,760.75 334.62,760.75" /><polyline points="341.88,760.75 341.88,753.25 345.12,753.25 346.38,754.38 346.38,755.65 345.12,756.62 341.88,756.62 346.38,760.75" /><polyline points="351.88,753.25 347.62,753.25 347.62,756.85 350.62,756.85" /><polyline points="347.62,756.85 347.62,760.75 351.88,760.75" /><polyline points="353.38,760.75 353.38,753.25 356.12,753.25 357.88,755.12 357.88,758.88 356.12,760.75 353.38,760.75" /><polyline points="369.38,754.38 367.62,753.25 366.62,753.25 364.88,754.75 364.88,759.25 366.62,760.75 367.62,760.75 369.38,759.62" /><polyline points="370.62,760.75 373.12,753.25 375.62,760.75" /><polyline points="371.52,758.12 374.73,758.12" /><polyline points="376.38,760.75 376.38,753.25 379.62,753.25 380.88,754.38 380.88,755.65 379.62,756.62 376.38,756.62 380.88,760.75" /><polyline points="382.12,760.75 382.12,753.25 385.38,753.25 386.62,754.38 386.62,755.65 385.38,756.62 382.12,756.62" /><polyline points="392.12,753.25 387.88,753.25 387.88,756.85 390.88,756.85" /><polyline points="387.88,756.85 387.88,760.75 392.12,760.75" /><polyline points="393.62,753.25 398.62,753.25" /><polyline points="396.12,753.25 396.12,760.75" /><polyline points="409.38,754.00 408.12,753.25 406.62,753.25 405.38,754.38 405.12,755.50 405.88,756.40 407.62,757.00 409.38,757.60 410.12,758.50 409.88,759.62 408.62,760.75 406.88,760.75 405.62,760.00" /><polyline points="410.88,753.25 415.88,753.25" /><polyline points="413.38,753.25 413.38,760.75" /><polyline points="419.12,753.25 419.12,760.75" /><polyline points="422.38,753.25 422.38,760.75 426.62,760.75" /><polyline points="428.12,753.25 428.12,760.75 432.38,760.75" /><polyline points="439.62,760.75 439.62,753.25 442.88,753.25 444.12,754.38 444.12,755.65 442.88,756.62 439.62,756.62 444.12,760.75" /><polyline points="447.88,753.25 445.88,754.00 445.38,755.50 445.38,758.50 445.88,760.00 447.88,760.75 449.88,760.00 450.38,758.50 450.38,755.50 449.88,754.00 447.88,753.25" /><polyline points="451.12,753.25 451.12,760.75 455.38,760.75" /><polyline points="456.88,753.25 456.88,760.75 461.12,760.75" /><polyline points="466.88,753.25 462.62,753.25 462.62,756.85 465.62,756.85" /><polyline points="462.62,756.85 462.62,760.75 466.88,760.75" /><polyline points="468.38,760.75 468.38,753.25 471.12,753.25 472.88,755.12 472.88,758.88 471.12,760.75 468.38,760.75" /><polyline points="482.38,753.25 480.38,754.00 479.88,755.50 479.88,758.50 480.38,760.00 482.38,760.75 484.38,760.00 484.88,758.50 484.88,755.50 484.38,754.00 482.38,753.25" /><polyline points="485.62,753.25 485.62,758.88 486.62,760.38 489.62,760.38 490.62,758.88 490.62,753.25" /><polyline points="491.38,753.25 496.38,753.25" /><polyline points="493.88,753.25 493.88,760.75" /><polyline points="327.50,773.75 330.00,766.25 332.50,773.75" /><polyline points="328.40,771.12 331.60,771.12" /><polyline points="337.50,766.25 333.25,766.25 333.25,769.85 336.25,769.85" /><polyline points="333.25,769.85 333.25,773.75" /><polyline points="339.00,766.25 344.00,766.25" /><polyline points="341.50,766.25 341.50,773.75" /><polyline points="349.00,766.25 344.75,766.25 344.75,769.85 347.75,769.85" /><polyline points="344.75,769.85 344.75,773.75 349.00,773.75" /><polyline points="350.50,773.75 350.50,766.25 353.75,766.25 355.00,767.38 355.00,768.65 353.75,769.62 350.50,769.62 355.00,773.75" /><polyline points="362.00,766.25 367.00,766.25" /><polyline points="364.50,766.25 364.50,773.75" /><polyline points="367.75,766.25 367.75,773.75" /><polyline points="372.75,766.25 372.75,773.75" /><polyline points="367.75,769.85 372.75,769.85" /><polyline points="377.75,766.25 373.50,766.25 373.50,769.85 376.50,769.85" /><polyline points="373.50,769.85 373.50,773.75 377.75,773.75" /><polyline points="389.25,766.25 385.00,766.25 385.00,769.85 388.00,769.85" /><polyline points="385.00,769.85 385.00,773.75" /><polyline points="390.75,766.25 390.75,773.75 395.00,773.75" /><polyline points="399.00,766.25 397.00,767.00 396.50,768.50 396.50,771.50 397.00,773.00 399.00,773.75 401.00,773.00 401.50,771.50 401.50,768.50 401.00,767.00 399.00,766.25" /><polyline points="404.75,766.25 402.75,767.00 402.25,768.50 402.25,771.50 402.75,773.00 404.75,773.75 406.75,773.00 407.25,771.50 407.25,768.50 406.75,767.00 404.75,766.25" /><polyline points="408.00,773.75 408.00,766.25 411.25,766.25 412.50,767.38 412.50,768.65 411.25,769.62 408.00,769.62 412.50,773.75" /><polyline points="423.75,766.25 419.50,766.25 419.50,769.85 422.50,769.85" /><polyline points="419.50,769.85 419.50,773.75" /><polyline points="429.50,766.25 425.25,766.25 425.25,769.85 428.25,769.85" /><polyline points="425.25,769.85 425.25,773.75 429.50,773.75" /><polyline points="431.00,766.25 431.00,773.75 435.25,773.75" /><polyline points="436.75,766.25 436.75,773.75 441.00,773.75" /><polyline points="448.25,766.25 453.25,766.25" /><polyline points="450.75,766.25 450.75,773.75" /><polyline points="454.00,766.25 454.00,773.75" /><polyline points="459.00,766.25 459.00,773.75" /><polyline points="454.00,769.85 459.00,769.85" /><polyline points="459.75,773.75 459.75,766.25 463.00,766.25 464.25,767.38 464.25,768.65 463.00,769.62 459.75,769.62 464.25,773.75" /><polyline points="468.00,766.25 466.00,767.00 465.50,768.50 465.50,771.50 466.00,773.00 468.00,773.75 470.00,773.00 470.50,771.50 470.50,768.50 470.00,767.00 468.00,766.25" /><polyline points="471.25,766.25 471.25,771.88 472.25,773.38 475.25,773.38 476.25,771.88 476.25,766.25" /><polyline points="481.50,767.38 479.75,766.25 478.75,766.25 477.00,767.75 477.00,772.25 478.75,773.75 479.75,773.75 481.50,772.62 481.50,770.00 479.50,770.00" /><polyline points="482.75,766.25 482.75,773.75" /><polyline points="487.75,766.25 487.75,773.75" /><polyline points="482.75,769.85 487.75,769.85" /><polyline points="384.08,779.50 387.28,784.50" /><polyline points="387.28,779.50 384.08,784.50" /><polyline points="389.36,779.50 389.36,784.50" /><polyline points="393.04,779.50 393.04,784.50" /><polyline points="396.72,779.50 396.72,784.50" /><polyline points="400.40,784.00 400.40,784.25" /><polyline points="402.48,779.50 404.08,784.50 405.68,779.50" /><polyline points="407.76,784.00 407.76,784.25" /><polyline points="409.84,784.50 409.84,779.50 411.44,782.25 413.04,779.50 413.04,784.50" /><polyline points="413.52,784.50 413.52,779.50 415.12,782.25 416.72,779.50 416.72,784.50" /><polyline points="417.20,779.50 420.40,784.50" /><polyline points="420.40,779.50 417.20,784.50" /><polyline points="420.88,779.50 424.08,784.50" /><polyline points="424.08,779.50 420.88,784.50" /><polyline points="424.56,779.50 426.16,784.50 427.76,779.50" /><polyline points="429.84,779.50 429.84,784.50" /></g><g id="02_Teal_Structure" inkscape:groupmode="layer" inkscape:label="02_Teal_Structure" stroke="#3A7A7A" fill="none" stroke-width="0.75" stroke-linecap="round" stroke-linejoin="round"><line x1="256.0" y1="324.2" x2="560.0" y2="324.2" /><line x1="560.0" y1="324.2" x2="560.0" y2="721.8" /><line x1="560.0" y1="721.8" x2="256.0" y2="721.8" /><line x1="256.0" y1="721.8" x2="256.0" y2="324.2" /><line x1="262.0" y1="332.1" x2="554.0" y2="332.1" /><line x1="554.0" y1="332.1" x2="554.0" y2="713.9" /><line x1="554.0" y1="713.9" x2="262.0" y2="713.9" /><line x1="262.0" y1="713.9" x2="262.0" y2="332.1" /><line x1="268.0" y1="339.9" x2="548.0" y2="339.9" /><line x1="548.0" y1="339.9" x2="548.0" y2="706.1" /><line x1="548.0" y1="706.1" x2="268.0" y2="706.1" /><line x1="268.0" y1="706.1" x2="268.0" y2="339.9" /><line x1="274.0" y1="347.7" x2="542.0" y2="347.7" /><line x1="542.0" y1="347.7" x2="542.0" y2="698.2" /><line x1="542.0" y1="698.2" x2="274.0" y2="698.2" /><line x1="274.0" y1="698.2" x2="274.0" y2="347.7" /><line x1="280.1" y1="355.7" x2="536.1" y2="355.7" /><line x1="536.1" y1="355.7" x2="536.1" y2="690.4" /><line x1="536.1" y1="690.4" x2="280.1" y2="690.4" /><line x1="280.1" y1="690.4" x2="280.1" y2="355.7" /><line x1="286.3" y1="363.5" x2="530.3" y2="363.5" /><line x1="530.3" y1="363.5" x2="530.3" y2="682.6" /><line x1="530.3" y1="682.6" x2="286.3" y2="682.6" /><line x1="286.3" y1="682.6" x2="286.3" y2="363.5" /><line x1="291.9" y1="371.4" x2="523.9" y2="371.4" /><line x1="523.9" y1="371.4" x2="523.9" y2="674.7" /><line x1="523.9" y1="674.7" x2="291.9" y2="674.7" /><line x1="291.9" y1="674.7" x2="291.9" y2="371.4" /><line x1="298.1" y1="378.9" x2="518.1" y2="378.9" /><line x1="518.1" y1="378.9" x2="518.1" y2="666.6" /><line x1="518.1" y1="666.6" x2="298.1" y2="666.6" /><line x1="298.1" y1="666.6" x2="298.1" y2="378.9" /><line x1="304.2" y1="387.0" x2="512.2" y2="387.0" /><line x1="512.2" y1="387.0" x2="512.2" y2="659.0" /><line x1="512.2" y1="659.0" x2="304.2" y2="659.0" /><line x1="304.2" y1="659.0" x2="304.2" y2="387.0" /><line x1="310.9" y1="395.2" x2="317.4" y2="395.4" /><line x1="322.7" y1="395.2" x2="329.4" y2="395.4" /><line x1="335.2" y1="395.4" x2="341.6" y2="395.2" /><line x1="347.2" y1="395.4" x2="354.3" y2="395.0" /><line x1="359.5" y1="394.9" x2="366.2" y2="395.2" /><line x1="372.0" y1="395.2" x2="378.7" y2="394.9" /><line x1="383.9" y1="395.3" x2="390.9" y2="395.3" /><line x1="396.6" y1="395.1" x2="403.3" y2="395.0" /><line x1="408.9" y1="395.0" x2="415.4" y2="395.3" /><line x1="420.6" y1="395.4" x2="427.9" y2="395.0" /><line x1="432.8" y1="395.2" x2="440.1" y2="395.0" /><line x1="457.5" y1="395.1" x2="464.6" y2="395.4" /><line x1="470.1" y1="395.2" x2="476.5" y2="395.3" /><line x1="482.2" y1="395.3" x2="488.7" y2="394.9" /><line x1="494.5" y1="395.3" x2="501.1" y2="395.2" /><line x1="506.3" y1="395.5" x2="506.9" y2="402.1" /><line x1="506.8" y1="407.1" x2="506.7" y2="414.0" /><line x1="506.5" y1="419.4" x2="506.6" y2="426.2" /><line x1="506.5" y1="431.7" x2="506.7" y2="438.7" /><line x1="506.6" y1="468.3" x2="506.9" y2="474.9" /><line x1="506.9" y1="493.0" x2="506.5" y2="499.5" /><line x1="506.7" y1="517.2" x2="506.8" y2="523.9" /><line x1="506.7" y1="529.7" x2="506.4" y2="536.3" /><line x1="506.5" y1="541.6" x2="506.9" y2="548.5" /><line x1="506.9" y1="565.9" x2="506.8" y2="572.9" /><line x1="506.5" y1="627.2" x2="506.9" y2="633.8" /><line x1="506.3" y1="639.0" x2="506.9" y2="645.9" /><line x1="506.6" y1="651.2" x2="499.9" y2="651.8" /><line x1="494.2" y1="651.7" x2="487.8" y2="651.7" /><line x1="482.1" y1="651.3" x2="475.1" y2="651.7" /><line x1="469.6" y1="651.2" x2="463.2" y2="651.2" /><line x1="457.7" y1="651.6" x2="450.6" y2="651.2" /><line x1="433.0" y1="651.5" x2="426.6" y2="651.5" /><line x1="420.8" y1="651.2" x2="414.4" y2="651.5" /><line x1="408.3" y1="651.4" x2="401.7" y2="651.4" /><line x1="384.4" y1="651.3" x2="377.3" y2="651.7" /><line x1="371.8" y1="651.6" x2="365.3" y2="651.2" /><line x1="347.7" y1="651.6" x2="340.9" y2="651.2" /><line x1="335.3" y1="651.5" x2="328.6" y2="651.2" /><line x1="322.8" y1="651.6" x2="315.9" y2="651.8" /><line x1="310.5" y1="651.4" x2="310.7" y2="644.6" /><line x1="310.6" y1="639.2" x2="310.7" y2="632.2" /><line x1="310.8" y1="627.4" x2="310.6" y2="620.4" /><line x1="310.6" y1="614.5" x2="310.6" y2="608.1" /><line x1="310.5" y1="578.2" x2="310.5" y2="571.6" /><line x1="310.4" y1="565.9" x2="310.4" y2="559.1" /><line x1="310.9" y1="541.7" x2="310.6" y2="534.7" /><line x1="310.9" y1="529.6" x2="310.8" y2="523.0" /><line x1="310.5" y1="505.0" x2="310.9" y2="498.1" /><line x1="310.4" y1="492.7" x2="310.6" y2="486.0" /><line x1="310.7" y1="480.9" x2="310.3" y2="473.8" /><line x1="310.6" y1="468.5" x2="310.8" y2="461.7" /><line x1="310.5" y1="456.4" x2="310.5" y2="449.7" /><line x1="310.6" y1="431.7" x2="310.4" y2="425.3" /><line x1="310.4" y1="407.5" x2="310.4" y2="400.9" /><line x1="316.2" y1="403.1" x2="323.0" y2="403.5" /><line x1="328.6" y1="403.2" x2="335.3" y2="403.1" /><line x1="352.9" y1="403.0" x2="359.4" y2="403.1" /><line x1="377.1" y1="402.7" x2="383.9" y2="402.9" /><line x1="389.5" y1="402.9" x2="396.6" y2="402.8" /><line x1="401.8" y1="403.4" x2="408.6" y2="403.3" /><line x1="414.2" y1="403.0" x2="421.1" y2="403.4" /><line x1="426.1" y1="403.0" x2="433.5" y2="403.6" /><line x1="451.2" y1="403.2" x2="457.5" y2="403.1" /><line x1="475.9" y1="403.1" x2="482.7" y2="403.3" /><line x1="487.7" y1="403.1" x2="494.9" y2="403.5" /><line x1="500.2" y1="403.0" x2="500.2" y2="410.1" /><line x1="500.0" y1="415.0" x2="500.4" y2="421.8" /><line x1="499.9" y1="439.5" x2="500.0" y2="445.5" /><line x1="500.1" y1="451.3" x2="500.4" y2="457.9" /><line x1="500.0" y1="463.2" x2="499.8" y2="470.1" /><line x1="499.7" y1="475.1" x2="499.8" y2="481.8" /><line x1="500.1" y1="487.4" x2="500.1" y2="494.0" /><line x1="500.2" y1="499.4" x2="500.2" y2="506.0" /><line x1="500.0" y1="511.4" x2="500.2" y2="517.9" /><line x1="500.3" y1="523.1" x2="500.3" y2="529.9" /><line x1="500.3" y1="535.4" x2="499.7" y2="541.8" /><line x1="499.7" y1="547.4" x2="500.1" y2="554.4" /><line x1="499.9" y1="571.3" x2="500.5" y2="578.1" /><line x1="500.4" y1="595.9" x2="499.9" y2="602.5" /><line x1="500.2" y1="619.4" x2="499.9" y2="626.0" /><line x1="500.3" y1="631.7" x2="500.3" y2="638.7" /><line x1="499.7" y1="643.9" x2="493.5" y2="643.9" /><line x1="475.5" y1="643.4" x2="468.5" y2="643.9" /><line x1="463.4" y1="643.4" x2="456.7" y2="643.9" /><line x1="450.6" y1="644.0" x2="444.3" y2="643.5" /><line x1="439.2" y1="643.5" x2="432.2" y2="643.5" /><line x1="426.5" y1="643.8" x2="419.9" y2="643.9" /><line x1="389.5" y1="643.8" x2="383.1" y2="643.8" /><line x1="377.5" y1="643.7" x2="370.3" y2="643.9" /><line x1="365.1" y1="643.6" x2="358.7" y2="643.6" /><line x1="352.9" y1="643.5" x2="346.0" y2="643.4" /><line x1="328.7" y1="644.2" x2="321.8" y2="644.1" /><line x1="315.9" y1="644.0" x2="315.9" y2="637.4" /><line x1="316.2" y1="632.0" x2="315.9" y2="624.8" /><line x1="315.9" y1="607.7" x2="316.4" y2="601.1" /><line x1="316.5" y1="595.9" x2="316.0" y2="588.7" /><line x1="316.4" y1="584.0" x2="315.9" y2="577.3" /><line x1="316.4" y1="571.5" x2="315.7" y2="565.0" /><line x1="315.9" y1="559.8" x2="316.4" y2="553.2" /><line x1="315.7" y1="547.6" x2="316.3" y2="540.9" /><line x1="316.2" y1="523.1" x2="315.9" y2="516.9" /><line x1="316.0" y1="511.4" x2="316.4" y2="504.4" /><line x1="316.3" y1="475.3" x2="316.4" y2="469.0" /><line x1="316.3" y1="463.3" x2="316.4" y2="456.7" /><line x1="316.3" y1="451.5" x2="316.3" y2="444.5" /><line x1="316.3" y1="438.9" x2="316.5" y2="432.8" /><line x1="316.3" y1="427.5" x2="315.8" y2="420.2" /><line x1="316.2" y1="415.1" x2="315.8" y2="408.8" /><line x1="322.9" y1="411.0" x2="329.7" y2="411.4" /><line x1="335.7" y1="410.5" x2="342.4" y2="411.3" /><line x1="360.0" y1="411.4" x2="366.4" y2="410.9" /><line x1="384.5" y1="410.8" x2="391.5" y2="411.2" /><line x1="396.5" y1="410.8" x2="403.2" y2="410.7" /><line x1="421.5" y1="411.2" x2="427.6" y2="411.5" /><line x1="434.1" y1="411.4" x2="440.3" y2="410.9" /><line x1="446.3" y1="410.9" x2="452.5" y2="411.4" /><line x1="458.1" y1="411.3" x2="464.7" y2="411.3" /><line x1="470.5" y1="411.4" x2="477.6" y2="411.3" /><line x1="483.1" y1="411.5" x2="489.9" y2="411.2" /><line x1="494.5" y1="411.5" x2="494.7" y2="418.1" /><line x1="495.3" y1="424.0" x2="495.0" y2="430.6" /><line x1="495.5" y1="436.4" x2="495.4" y2="442.4" /><line x1="494.9" y1="461.3" x2="495.4" y2="467.9" /><line x1="494.7" y1="486.3" x2="495.2" y2="492.4" /><line x1="494.8" y1="498.4" x2="494.6" y2="505.0" /><line x1="495.2" y1="510.9" x2="495.1" y2="517.8" /><line x1="494.9" y1="523.0" x2="494.7" y2="530.2" /><line x1="494.6" y1="536.0" x2="494.8" y2="542.9" /><line x1="495.5" y1="548.2" x2="494.6" y2="555.0" /><line x1="494.7" y1="560.8" x2="495.4" y2="567.8" /><line x1="495.5" y1="573.3" x2="494.8" y2="580.5" /><line x1="495.3" y1="598.6" x2="495.3" y2="605.0" /><line x1="495.4" y1="611.1" x2="494.6" y2="617.7" /><line x1="495.4" y1="623.5" x2="495.5" y2="630.7" /><line x1="494.6" y1="635.8" x2="487.8" y2="635.9" /><line x1="470.7" y1="636.4" x2="464.1" y2="635.6" /><line x1="446.2" y1="635.8" x2="438.7" y2="635.5" /><line x1="421.3" y1="636.4" x2="414.5" y2="636.2" /><line x1="409.4" y1="635.8" x2="401.9" y2="636.1" /><line x1="396.6" y1="635.8" x2="390.2" y2="636.1" /><line x1="384.5" y1="635.9" x2="377.5" y2="636.1" /><line x1="372.0" y1="635.7" x2="365.9" y2="635.7" /><line x1="347.3" y1="636.4" x2="341.1" y2="636.3" /><line x1="335.6" y1="635.7" x2="328.9" y2="636.1" /><line x1="323.0" y1="636.3" x2="323.4" y2="628.8" /><line x1="322.6" y1="623.2" x2="322.8" y2="616.4" /><line x1="322.9" y1="611.4" x2="323.1" y2="604.2" /><line x1="323.1" y1="598.9" x2="323.2" y2="591.9" /><line x1="322.9" y1="585.6" x2="322.8" y2="579.2" /><line x1="323.2" y1="548.5" x2="323.2" y2="541.5" /><line x1="322.9" y1="535.7" x2="323.4" y2="528.8" /><line x1="322.6" y1="523.8" x2="322.9" y2="516.5" /><line x1="323.3" y1="473.5" x2="322.8" y2="467.0" /><line x1="322.6" y1="461.2" x2="323.0" y2="454.5" /><line x1="322.7" y1="436.4" x2="322.7" y2="429.2" /><line x1="351.9" y1="417.1" x2="358.8" y2="417.1" /><line x1="364.7" y1="417.3" x2="371.4" y2="417.3" /><line x1="389.2" y1="417.5" x2="395.9" y2="417.5" /><line x1="414.1" y1="417.1" x2="421.1" y2="418.0" /><line x1="426.5" y1="417.9" x2="433.5" y2="417.9" /><line x1="463.0" y1="417.4" x2="470.1" y2="417.1" /><line x1="475.8" y1="417.7" x2="482.6" y2="417.1" /><line x1="488.2" y1="417.2" x2="488.1" y2="424.3" /><line x1="487.5" y1="454.1" x2="487.6" y2="461.6" /><line x1="488.3" y1="466.9" x2="487.5" y2="473.7" /><line x1="488.2" y1="479.4" x2="488.4" y2="486.1" /><line x1="488.4" y1="504.2" x2="487.5" y2="510.0" /><line x1="487.4" y1="516.4" x2="488.3" y2="522.5" /><line x1="487.6" y1="528.3" x2="488.2" y2="535.3" /><line x1="487.5" y1="540.4" x2="488.4" y2="547.3" /><line x1="487.6" y1="602.3" x2="487.6" y2="608.6" /><line x1="487.9" y1="614.9" x2="487.5" y2="621.0" /><line x1="487.9" y1="626.7" x2="481.0" y2="627.2" /><line x1="450.4" y1="626.9" x2="444.5" y2="627.2" /><line x1="426.9" y1="626.3" x2="420.0" y2="626.6" /><line x1="401.6" y1="626.6" x2="395.1" y2="626.7" /><line x1="377.0" y1="626.9" x2="370.4" y2="626.3" /><line x1="328.3" y1="614.6" x2="328.4" y2="607.4" /><line x1="328.4" y1="590.1" x2="327.5" y2="583.5" /><line x1="327.8" y1="577.1" x2="327.9" y2="570.8" /><line x1="328.0" y1="564.9" x2="327.5" y2="558.2" /><line x1="327.8" y1="528.4" x2="327.5" y2="521.6" /><line x1="328.1" y1="515.6" x2="328.5" y2="508.9" /><line x1="327.8" y1="478.8" x2="327.7" y2="472.6" /><line x1="327.6" y1="453.8" x2="328.4" y2="447.1" /><line x1="327.5" y1="442.4" x2="328.0" y2="435.3" /><line x1="328.4" y1="430.2" x2="327.7" y2="423.2" /><line x1="345.7" y1="424.3" x2="352.9" y2="424.3" /><line x1="370.1" y1="424.8" x2="377.7" y2="425.0" /><line x1="382.5" y1="424.7" x2="390.3" y2="424.1" /><line x1="407.4" y1="425.1" x2="414.0" y2="424.7" /><line x1="420.7" y1="424.5" x2="426.4" y2="424.2" /><line x1="431.9" y1="424.5" x2="439.5" y2="424.6" /><line x1="469.5" y1="424.2" x2="476.3" y2="425.0" /><line x1="481.1" y1="424.1" x2="481.8" y2="431.0" /><line x1="482.4" y1="436.8" x2="482.0" y2="443.9" /><line x1="482.1" y1="449.5" x2="482.0" y2="455.7" /><line x1="481.7" y1="472.7" x2="481.2" y2="480.1" /><line x1="481.7" y1="497.7" x2="482.3" y2="503.4" /><line x1="481.3" y1="509.7" x2="481.1" y2="516.7" /><line x1="482.1" y1="521.8" x2="481.1" y2="528.1" /><line x1="481.8" y1="545.3" x2="481.5" y2="552.4" /><line x1="481.6" y1="558.0" x2="481.1" y2="564.2" /><line x1="482.2" y1="605.6" x2="481.4" y2="612.3" /><line x1="469.6" y1="617.7" x2="463.0" y2="618.9" /><line x1="456.6" y1="618.7" x2="450.5" y2="618.2" /><line x1="394.8" y1="618.8" x2="388.1" y2="618.8" /><line x1="382.7" y1="617.6" x2="376.4" y2="617.8" /><line x1="371.4" y1="618.7" x2="363.5" y2="618.6" /><line x1="357.8" y1="618.7" x2="351.8" y2="618.2" /><line x1="346.2" y1="618.0" x2="340.0" y2="618.2" /><line x1="333.9" y1="605.7" x2="333.7" y2="600.0" /><line x1="333.5" y1="594.4" x2="334.4" y2="587.9" /><line x1="333.1" y1="582.5" x2="333.3" y2="575.0" /><line x1="333.5" y1="569.9" x2="333.2" y2="563.0" /><line x1="334.4" y1="533.4" x2="334.4" y2="526.7" /><line x1="333.1" y1="509.1" x2="334.4" y2="502.4" /><line x1="334.4" y1="461.2" x2="333.3" y2="454.9" /><line x1="334.1" y1="436.8" x2="333.5" y2="430.6" /><line x1="350.3" y1="434.7" x2="356.9" y2="434.6" /><line x1="362.4" y1="436.1" x2="368.2" y2="435.1" /><line x1="448.3" y1="435.0" x2="455.4" y2="436.1" /><line x1="461.6" y1="434.7" x2="467.6" y2="434.9" /><line x1="473.2" y1="461.1" x2="473.7" y2="468.2" /><line x1="473.4" y1="473.9" x2="474.1" y2="480.1" /><line x1="473.5" y1="485.5" x2="472.9" y2="493.6" /><line x1="472.7" y1="524.7" x2="473.9" y2="530.6" /><line x1="472.9" y1="574.9" x2="473.4" y2="582.3" /><line x1="461.8" y1="613.9" x2="454.6" y2="613.5" /><line x1="447.9" y1="612.7" x2="442.6" y2="613.1" /><line x1="411.3" y1="612.6" x2="405.2" y2="612.4" /><line x1="387.0" y1="613.9" x2="379.6" y2="613.4" /><line x1="361.8" y1="612.7" x2="354.6" y2="612.5" /><line x1="350.2" y1="613.2" x2="342.4" y2="612.7" /><line x1="337.7" y1="549.4" x2="337.5" y2="542.4" /><line x1="337.8" y1="510.8" x2="337.0" y2="504.0" /><line x1="336.9" y1="498.6" x2="338.0" y2="492.4" /><line x1="337.5" y1="486.4" x2="336.8" y2="479.9" /><line x1="337.3" y1="461.3" x2="336.7" y2="453.8" /><line x1="467.4" y1="482.1" x2="469.4" y2="483.9" /><line x1="468.3" y1="513.1" x2="467.6" y2="517.3" /><line x1="467.7" y1="563.6" x2="465.7" y2="566.9" /><line x1="412.5" y1="605.1" x2="409.6" y2="602.0" /><line x1="344.1" y1="587.2" x2="340.6" y2="584.2" /><line x1="343.5" y1="534.6" x2="342.0" y2="533.1" /><line x1="457.4" y1="489.7" x2="457.8" y2="492.2" /><line x1="459.5" y1="565.2" x2="459.4" y2="569.0" /><line x1="434.1" y1="597.4" x2="431.9" y2="597.4" /><line x1="426.3" y1="594.6" x2="424.5" y2="595.6" /><line x1="359.3" y1="596.6" x2="357.2" y2="594.7" /><line x1="445.7" y1="462.1" x2="450.0" y2="464.0" /><line x1="458.6" y1="468.2" x2="462.6" y2="471.0" /><line x1="360.3" y1="536.8" x2="357.8" y2="534.4" /><line x1="358.8" y1="503.5" x2="361.8" y2="500.7" /><line x1="360.2" y1="486.1" x2="357.5" y2="483.3" /></g><g id="03_Gold_Dissolve" inkscape:groupmode="layer" inkscape:label="03_Gold_Dissolve" stroke="#B8960C" fill="none" stroke-width="0.875" stroke-linecap="round" stroke-linejoin="round"><line x1="466.9" y1="490.0" x2="466.3" y2="493.0" /><line x1="466.5" y1="575.2" x2="463.2" y2="578.2" /><line x1="467.2" y1="595.4" x2="464.9" y2="597.3" /><line x1="389.2" y1="604.1" x2="386.4" y2="605.0" /><line x1="345.3" y1="567.4" x2="345.9" y2="564.2" /><line x1="343.5" y1="501.2" x2="341.9" y2="498.9" /><line x1="346.7" y1="450.2" x2="350.7" y2="449.2" /><line x1="381.0" y1="448.8" x2="382.9" y2="449.9" /><line x1="459.7" y1="450.9" x2="458.8" y2="452.7" /><line x1="458.3" y1="469.5" x2="455.7" y2="472.8" /><line x1="403.4" y1="595.3" x2="401.0" y2="595.9" /><line x1="371.3" y1="596.1" x2="367.2" y2="593.3" /><line x1="345.4" y1="592.1" x2="344.8" y2="588.4" /><line x1="394.3" y1="460.1" x2="397.5" y2="460.3" /><line x1="418.8" y1="461.4" x2="422.9" y2="460.7" /><line x1="459.0" y1="575.9" x2="457.2" y2="579.6" /><line x1="367.1" y1="593.0" x2="362.1" y2="593.3" /><line x1="405.6" y1="478.7" x2="407.2" y2="477.5" /><line x1="382.5" y1="474.7" x2="381.5" y2="474.3" /><line x1="420.7" y1="475.0" x2="421.0" y2="473.5" /><line x1="450.1" y1="562.0" x2="449.7" y2="561.3" /><line x1="450.7" y1="513.6" x2="451.1" y2="512.2" /><line x1="445.3" y1="525.0" x2="446.2" y2="525.6" /><line x1="438.2" y1="575.6" x2="437.8" y2="576.0" /><line x1="384.9" y1="575.9" x2="386.2" y2="576.1" /><line x1="366.6" y1="513.1" x2="365.8" y2="511.7" /><line x1="367.8" y1="516.8" x2="369.0" y2="516.6" /><line x1="431.3" y1="479.6" x2="431.9" y2="480.5" /><line x1="387.1" y1="477.7" x2="387.5" y2="478.9" /><line x1="447.9" y1="522.6" x2="447.2" y2="523.2" /><line x1="438.0" y1="485.1" x2="436.6" y2="484.8" /><line x1="446.6" y1="511.8" x2="448.0" y2="510.4" /><line x1="401.2" y1="565.8" x2="401.5" y2="564.5" /><line x1="435.6" y1="490.5" x2="436.4" y2="489.3" /><line x1="415.7" y1="492.7" x2="414.5" y2="493.6" /><line x1="392.6" y1="492.4" x2="392.8" y2="491.2" /><line x1="403.7" y1="489.9" x2="404.6" y2="489.3" /><line x1="432.9" y1="548.8" x2="431.3" y2="548.9" /><line x1="434.2" y1="503.1" x2="434.7" y2="503.5" /><line x1="379.3" y1="526.0" x2="378.2" y2="526.4" /><line x1="381.3" y1="489.5" x2="381.1" y2="487.7" /><line x1="386.5" y1="544.8" x2="387.1" y2="545.8" /><line x1="354.8" y1="456.4" x2="355.3" y2="456.9" /><line x1="421.0" y1="588.0" x2="421.0" y2="587.3" /><line x1="406.6" y1="509.1" x2="405.9" y2="510.5" /><line x1="412.2" y1="516.1" x2="412.7" y2="517.5" /><line x1="429.6" y1="513.2" x2="428.3" y2="513.1" /><line x1="395.1" y1="534.2" x2="394.4" y2="533.9" /><line x1="407.7" y1="526.2" x2="408.4" y2="524.5" /><line x1="403.3" y1="529.4" x2="403.5" y2="529.8" /><line x1="424.0" y1="491.4" x2="423.2" y2="492.9" /><line x1="380.6" y1="515.2" x2="381.4" y2="515.6" /><line x1="380.9" y1="544.4" x2="382.4" y2="544.8" /><line x1="414.2" y1="525.5" x2="414.7" y2="527.2" /><line x1="403.4" y1="537.9" x2="401.9" y2="538.1" /><line x1="400.6" y1="523.6" x2="400.4" y2="525.3" /><line x1="403.8" y1="507.5" x2="404.1" y2="508.2" /><line x1="410.1" y1="516.0" x2="410.8" y2="514.7" /><line x1="410.1" y1="506.8" x2="409.5" y2="508.0" /><line x1="410.8" y1="521.8" x2="409.5" y2="522.1" /><line x1="374.9" y1="528.6" x2="373.2" y2="528.9" /><line x1="380.2" y1="561.4" x2="378.5" y2="561.0" /><line x1="415.3" y1="532.5" x2="416.8" y2="533.4" /><line x1="403.4" y1="564.7" x2="402.9" y2="563.3" /><line x1="412.6" y1="528.3" x2="412.9" y2="526.7" /><line x1="385.4" y1="542.6" x2="384.7" y2="541.3" /><line x1="355.8" y1="539.6" x2="355.4" y2="538.0" /><line x1="457.2" y1="511.7" x2="456.2" y2="512.9" /><line x1="416.1" y1="503.7" x2="415.9" y2="504.6" /><line x1="421.5" y1="527.4" x2="420.8" y2="527.6" /><line x1="409.1" y1="486.7" x2="407.7" y2="485.9" /><line x1="457.8" y1="535.9" x2="458.3" y2="534.3" /><line x1="397.6" y1="538.2" x2="398.5" y2="539.0" /><line x1="394.0" y1="527.8" x2="393.2" y2="528.5" /><line x1="460.1" y1="501.7" x2="460.0" y2="500.2" /><line x1="436.0" y1="463.2" x2="435.0" y2="462.6" /><line x1="376.5" y1="529.7" x2="375.5" y2="530.8" /><line x1="406.0" y1="516.2" x2="405.3" y2="517.5" /><line x1="418.7" y1="510.6" x2="418.6" y2="509.4" /><line x1="409.7" y1="553.7" x2="409.8" y2="554.5" /><line x1="395.8" y1="509.1" x2="395.4" y2="509.2" /><line x1="401.1" y1="548.8" x2="401.7" y2="548.4" /><line x1="408.6" y1="531.9" x2="410.2" y2="532.6" /><line x1="428.9" y1="502.7" x2="428.5" y2="501.4" /><line x1="406.8" y1="522.0" x2="406.7" y2="521.4" /><line x1="440.5" y1="503.1" x2="439.6" y2="504.2" /><line x1="419.1" y1="517.4" x2="419.4" y2="516.9" /><line x1="404.7" y1="527.7" x2="405.3" y2="529.3" /><line x1="422.0" y1="535.0" x2="421.3" y2="535.4" /><line x1="393.6" y1="526.7" x2="393.3" y2="526.2" /><line x1="406.8" y1="565.8" x2="408.1" y2="565.0" /><line x1="373.6" y1="548.3" x2="374.6" y2="547.5" /></g></svg>